<?xml version="1.0" encoding="UTF-8" standalone="no"?>
<!DOCTYPE svg PUBLIC "-//W3C//DTD SVG 1.1//EN"
 "http://www.w3.org/Graphics/SVG/1.1/DTD/svg11.dtd">
<!-- Generated by graphviz version 12.1.0 (20240811.2233)
 -->
<!-- Title: APIServer.hpp Pages: 1 -->
<svg width="631pt" height="310pt"
 viewBox="0.00 0.00 630.50 309.50" xmlns="http://www.w3.org/2000/svg" xmlns:xlink="http://www.w3.org/1999/xlink">
<g id="graph0" class="graph" transform="scale(1 1) rotate(0) translate(4 305.5)">
<title>APIServer.hpp</title>
<polygon fill="white" stroke="none" points="-4,4 -4,-305.5 626.5,-305.5 626.5,4 -4,4"/>
<!-- Node1 -->
<g id="node1" class="node">
<title>Node1</title>
<g id="a_node1"><a xlink:title=" ">
<polygon fill="#bfbfbf" stroke="black" points="262.5,-281.75 262.5,-301 341.5,-301 341.5,-281.75 262.5,-281.75"/>
<text text-anchor="middle" x="302" y="-287.5" font-family="Helvetica,sans-Serif" font-size="10.00">APIServer.hpp</text>
</a>
</g>
</g>
<!-- Node2 -->
<g id="node2" class="node">
<title>Node2</title>
<g id="a_node2"><a xlink:href="_service_message_8hpp.html" target="_top" xlink:title=" ">
<polygon fill="white" stroke="black" points="108.25,-113 108.25,-132.25 215.75,-132.25 215.75,-113 108.25,-113"/>
<text text-anchor="middle" x="162" y="-118.75" font-family="Helvetica,sans-Serif" font-size="10.00">ServiceMessage.hpp</text>
</a>
</g>
</g>
<!-- Node1&#45;&gt;Node2 -->
<g id="edge1" class="edge">
<title>Node1&#45;&gt;Node2</title>
<path fill="none" stroke="midnightblue" d="M262.06,-288.89C200.08,-285.66 85.23,-275.62 60,-245.25 27.75,-206.43 93.84,-160.91 134.08,-138.14"/>
<polygon fill="midnightblue" stroke="midnightblue" points="135.75,-141.22 142.83,-133.33 132.38,-135.08 135.75,-141.22"/>
</g>
<!-- Node12 -->
<g id="node12" class="node">
<title>Node12</title>
<g id="a_node12"><a xlink:href="_macro_space_manager_8hpp.html" target="_top" xlink:title=" ">
<polygon fill="white" stroke="black" points="68.88,-225.5 68.88,-244.75 195.12,-244.75 195.12,-225.5 68.88,-225.5"/>
<text text-anchor="middle" x="132" y="-231.25" font-family="Helvetica,sans-Serif" font-size="10.00">MacroSpaceManager.hpp</text>
</a>
</g>
</g>
<!-- Node1&#45;&gt;Node12 -->
<g id="edge11" class="edge">
<title>Node1&#45;&gt;Node12</title>
<path fill="none" stroke="midnightblue" d="M273.55,-281.29C245.6,-272.38 202.72,-258.69 171.48,-248.72"/>
<polygon fill="midnightblue" stroke="midnightblue" points="172.58,-245.4 161.99,-245.69 170.45,-252.07 172.58,-245.4"/>
</g>
<!-- Node13 -->
<g id="node13" class="node">
<title>Node13</title>
<g id="a_node13"><a xlink:title=" ">
<polygon fill="white" stroke="#bfbfbf" points="290.25,-169.25 290.25,-188.5 391.75,-188.5 391.75,-169.25 290.25,-169.25"/>
<text text-anchor="middle" x="341" y="-175" font-family="Helvetica,sans-Serif" font-size="10.00">SysSemaphore.hpp</text>
</a>
</g>
</g>
<!-- Node1&#45;&gt;Node13 -->
<g id="edge27" class="edge">
<title>Node1&#45;&gt;Node13</title>
<path fill="none" stroke="midnightblue" d="M306.34,-281.53C310.66,-272.54 317.3,-258.13 322,-245.25 327.47,-230.27 332.45,-212.93 335.94,-199.87"/>
<polygon fill="midnightblue" stroke="midnightblue" points="339.28,-200.9 338.41,-190.34 332.51,-199.14 339.28,-200.9"/>
</g>
<!-- Node14 -->
<g id="node14" class="node">
<title>Node14</title>
<g id="a_node14"><a xlink:href="_registration_manager_8hpp.html" target="_top" xlink:title=" ">
<polygon fill="white" stroke="black" points="369,-225.5 369,-244.75 493,-244.75 493,-225.5 369,-225.5"/>
<text text-anchor="middle" x="431" y="-231.25" font-family="Helvetica,sans-Serif" font-size="10.00">RegistrationManager.hpp</text>
</a>
</g>
</g>
<!-- Node1&#45;&gt;Node14 -->
<g id="edge14" class="edge">
<title>Node1&#45;&gt;Node14</title>
<path fill="none" stroke="midnightblue" d="M323.59,-281.29C344.15,-272.65 375.35,-259.53 398.83,-249.65"/>
<polygon fill="midnightblue" stroke="midnightblue" points="400.08,-252.92 407.94,-245.82 397.37,-246.47 400.08,-252.92"/>
</g>
<!-- Node19 -->
<g id="node19" class="node">
<title>Node19</title>
<g id="a_node19"><a xlink:href="_queue_manager_8hpp.html" target="_top" xlink:title=" ">
<polygon fill="white" stroke="black" points="213,-225.5 213,-244.75 313,-244.75 313,-225.5 213,-225.5"/>
<text text-anchor="middle" x="263" y="-231.25" font-family="Helvetica,sans-Serif" font-size="10.00">QueueManager.hpp</text>
</a>
</g>
</g>
<!-- Node1&#45;&gt;Node19 -->
<g id="edge23" class="edge">
<title>Node1&#45;&gt;Node19</title>
<path fill="none" stroke="midnightblue" d="M295.56,-281.42C290.22,-273.99 282.47,-263.2 275.86,-254.02"/>
<polygon fill="midnightblue" stroke="midnightblue" points="278.88,-252.22 270.2,-246.15 273.2,-256.31 278.88,-252.22"/>
</g>
<!-- Node21 -->
<g id="node21" class="node">
<title>Node21</title>
<g id="a_node21"><a xlink:title=" ">
<polygon fill="white" stroke="#bfbfbf" points="510.6,-225.5 510.6,-244.75 539.4,-244.75 539.4,-225.5 510.6,-225.5"/>
<text text-anchor="middle" x="524.98" y="-231.25" font-family="Helvetica,sans-Serif" font-size="10.00">list</text>
</a>
</g>
</g>
<!-- Node1&#45;&gt;Node21 -->
<g id="edge28" class="edge">
<title>Node1&#45;&gt;Node21</title>
<path fill="none" stroke="midnightblue" d="M341.95,-283.26C380.36,-276.01 440.16,-263.63 499.79,-245.58"/>
<polygon fill="midnightblue" stroke="midnightblue" points="500.55,-249 509.08,-242.71 498.49,-242.32 500.55,-249"/>
</g>
<!-- Node3 -->
<g id="node3" class="node">
<title>Node3</title>
<g id="a_node3"><a xlink:href="rexx_8h.html" target="_top" xlink:title=" ">
<polygon fill="white" stroke="black" points="370.5,-56.75 370.5,-76 413.5,-76 413.5,-56.75 370.5,-56.75"/>
<text text-anchor="middle" x="392" y="-62.5" font-family="Helvetica,sans-Serif" font-size="10.00">rexx.h</text>
</a>
</g>
</g>
<!-- Node2&#45;&gt;Node3 -->
<g id="edge2" class="edge">
<title>Node2&#45;&gt;Node3</title>
<path fill="none" stroke="midnightblue" d="M200.5,-112.54C244.92,-102.07 317.2,-85.02 359.1,-75.13"/>
<polygon fill="midnightblue" stroke="midnightblue" points="359.66,-78.6 368.59,-72.9 358.06,-71.79 359.66,-78.6"/>
</g>
<!-- Node8 -->
<g id="node8" class="node">
<title>Node8</title>
<g id="a_node8"><a xlink:href="_service_exception_8hpp.html" target="_top" xlink:title=" ">
<polygon fill="white" stroke="black" points="106.38,-56.75 106.38,-76 217.62,-76 217.62,-56.75 106.38,-56.75"/>
<text text-anchor="middle" x="162" y="-62.5" font-family="Helvetica,sans-Serif" font-size="10.00">ServiceException.hpp</text>
</a>
</g>
</g>
<!-- Node2&#45;&gt;Node8 -->
<g id="edge7" class="edge">
<title>Node2&#45;&gt;Node8</title>
<path fill="none" stroke="midnightblue" d="M162,-112.67C162,-105.87 162,-96.26 162,-87.65"/>
<polygon fill="midnightblue" stroke="midnightblue" points="165.5,-87.68 162,-77.68 158.5,-87.68 165.5,-87.68"/>
</g>
<!-- Node10 -->
<g id="node10" class="node">
<title>Node10</title>
<g id="a_node10"><a xlink:title=" ">
<polygon fill="white" stroke="#bfbfbf" points="236.12,-56.75 236.12,-76 333.88,-76 333.88,-56.75 236.12,-56.75"/>
<text text-anchor="middle" x="285" y="-62.5" font-family="Helvetica,sans-Serif" font-size="10.00">SysCSStream.hpp</text>
</a>
</g>
</g>
<!-- Node2&#45;&gt;Node10 -->
<g id="edge9" class="edge">
<title>Node2&#45;&gt;Node10</title>
<path fill="none" stroke="midnightblue" d="M182.59,-112.54C202.1,-103.94 231.67,-90.9 254.02,-81.04"/>
<polygon fill="midnightblue" stroke="midnightblue" points="255.22,-84.33 262.96,-77.1 252.4,-77.93 255.22,-84.33"/>
</g>
<!-- Node11 -->
<g id="node11" class="node">
<title>Node11</title>
<g id="a_node11"><a xlink:title=" ">
<polygon fill="white" stroke="#bfbfbf" points="0,-56.75 0,-76 88,-76 88,-56.75 0,-56.75"/>
<text text-anchor="middle" x="44" y="-62.5" font-family="Helvetica,sans-Serif" font-size="10.00">SysProcess.hpp</text>
</a>
</g>
</g>
<!-- Node2&#45;&gt;Node11 -->
<g id="edge10" class="edge">
<title>Node2&#45;&gt;Node11</title>
<path fill="none" stroke="midnightblue" d="M142.25,-112.54C123.62,-103.98 95.42,-91.02 74.01,-81.17"/>
<polygon fill="midnightblue" stroke="midnightblue" points="75.74,-78.11 65.19,-77.12 72.81,-84.47 75.74,-78.11"/>
</g>
<!-- Node4 -->
<g id="node4" class="node">
<title>Node4</title>
<g id="a_node4"><a xlink:title=" ">
<polygon fill="white" stroke="#bfbfbf" points="335.12,-0.5 335.12,-19.75 414.88,-19.75 414.88,-0.5 335.12,-0.5"/>
<text text-anchor="middle" x="375" y="-6.25" font-family="Helvetica,sans-Serif" font-size="10.00">rexxapitypes.h</text>
</a>
</g>
</g>
<!-- Node3&#45;&gt;Node4 -->
<g id="edge3" class="edge">
<title>Node3&#45;&gt;Node4</title>
<path fill="none" stroke="midnightblue" d="M389.19,-56.42C387.01,-49.46 383.91,-39.57 381.16,-30.8"/>
<polygon fill="midnightblue" stroke="midnightblue" points="384.54,-29.86 378.21,-21.36 377.86,-31.95 384.54,-29.86"/>
</g>
<!-- Node5 -->
<g id="node5" class="node">
<title>Node5</title>
<g id="a_node5"><a xlink:href="rexxapidefs_8h.html" target="_top" xlink:title=" ">
<polygon fill="white" stroke="black" points="432.75,-0.5 432.75,-19.75 507.25,-19.75 507.25,-0.5 432.75,-0.5"/>
<text text-anchor="middle" x="470" y="-6.25" font-family="Helvetica,sans-Serif" font-size="10.00">rexxapidefs.h</text>
</a>
</g>
</g>
<!-- Node3&#45;&gt;Node5 -->
<g id="edge4" class="edge">
<title>Node3&#45;&gt;Node5</title>
<path fill="none" stroke="midnightblue" d="M404.88,-56.42C416.51,-48.33 433.87,-36.25 447.75,-26.6"/>
<polygon fill="midnightblue" stroke="midnightblue" points="449.65,-29.54 455.86,-20.96 445.65,-23.8 449.65,-29.54"/>
</g>
<!-- Node6 -->
<g id="node6" class="node">
<title>Node6</title>
<g id="a_node6"><a xlink:title=" ">
<polygon fill="white" stroke="#bfbfbf" points="525.5,-0.5 525.5,-19.75 622.5,-19.75 622.5,-0.5 525.5,-0.5"/>
<text text-anchor="middle" x="574" y="-6.25" font-family="Helvetica,sans-Serif" font-size="10.00">rexxplatformdefs.h</text>
</a>
</g>
</g>
<!-- Node3&#45;&gt;Node6 -->
<g id="edge5" class="edge">
<title>Node3&#45;&gt;Node6</title>
<path fill="none" stroke="midnightblue" d="M413.95,-58.83C443.26,-50.1 495.73,-34.46 532.58,-23.47"/>
<polygon fill="midnightblue" stroke="midnightblue" points="533.44,-26.87 542.03,-20.66 531.44,-20.16 533.44,-26.87"/>
</g>
<!-- Node7 -->
<g id="node7" class="node">
<title>Node7</title>
<g id="a_node7"><a xlink:title=" ">
<polygon fill="white" stroke="#bfbfbf" points="220.88,-0.5 220.88,-19.75 317.12,-19.75 317.12,-0.5 220.88,-0.5"/>
<text text-anchor="middle" x="269" y="-6.25" font-family="Helvetica,sans-Serif" font-size="10.00">rexxplatformapis.h</text>
</a>
</g>
</g>
<!-- Node3&#45;&gt;Node7 -->
<g id="edge6" class="edge">
<title>Node3&#45;&gt;Node7</title>
<path fill="none" stroke="midnightblue" d="M371.41,-56.29C351.9,-47.69 322.33,-34.65 299.98,-24.79"/>
<polygon fill="midnightblue" stroke="midnightblue" points="301.6,-21.68 291.04,-20.85 298.78,-28.08 301.6,-21.68"/>
</g>
<!-- Node9 -->
<g id="node9" class="node">
<title>Node9</title>
<g id="a_node9"><a xlink:title=" ">
<polygon fill="white" stroke="#bfbfbf" points="137.88,-0.5 137.88,-19.75 186.12,-19.75 186.12,-0.5 137.88,-0.5"/>
<text text-anchor="middle" x="162" y="-6.25" font-family="Helvetica,sans-Serif" font-size="10.00">string.h</text>
</a>
</g>
</g>
<!-- Node8&#45;&gt;Node9 -->
<g id="edge8" class="edge">
<title>Node8&#45;&gt;Node9</title>
<path fill="none" stroke="midnightblue" d="M162,-56.42C162,-49.62 162,-40.01 162,-31.4"/>
<polygon fill="midnightblue" stroke="midnightblue" points="165.5,-31.43 162,-21.43 158.5,-31.43 165.5,-31.43"/>
</g>
<!-- Node12&#45;&gt;Node2 -->
<g id="edge12" class="edge">
<title>Node12&#45;&gt;Node2</title>
<path fill="none" stroke="midnightblue" d="M134,-225.2C136.88,-212.57 142.44,-188.79 148,-168.75 150.33,-160.35 153.14,-151.15 155.62,-143.26"/>
<polygon fill="midnightblue" stroke="midnightblue" points="158.87,-144.6 158.59,-134.01 152.2,-142.46 158.87,-144.6"/>
</g>
<!-- Node12&#45;&gt;Node13 -->
<g id="edge13" class="edge">
<title>Node12&#45;&gt;Node13</title>
<path fill="none" stroke="midnightblue" d="M166.98,-225.04C202.1,-215.93 256.38,-201.84 294.97,-191.82"/>
<polygon fill="midnightblue" stroke="midnightblue" points="295.64,-195.27 304.44,-189.37 293.88,-188.49 295.64,-195.27"/>
</g>
<!-- Node14&#45;&gt;Node13 -->
<g id="edge15" class="edge">
<title>Node14&#45;&gt;Node13</title>
<path fill="none" stroke="midnightblue" d="M416.14,-225.17C402.33,-216.84 381.51,-204.29 365.29,-194.52"/>
<polygon fill="midnightblue" stroke="midnightblue" points="367.55,-191.79 357.18,-189.63 363.94,-197.79 367.55,-191.79"/>
</g>
<!-- Node15 -->
<g id="node15" class="node">
<title>Node15</title>
<g id="a_node15"><a xlink:href="_registration_table_8hpp.html" target="_top" xlink:title=" ">
<polygon fill="white" stroke="black" points="409.75,-169.25 409.75,-188.5 520.25,-188.5 520.25,-169.25 409.75,-169.25"/>
<text text-anchor="middle" x="465" y="-175" font-family="Helvetica,sans-Serif" font-size="10.00">RegistrationTable.hpp</text>
</a>
</g>
</g>
<!-- Node14&#45;&gt;Node15 -->
<g id="edge16" class="edge">
<title>Node14&#45;&gt;Node15</title>
<path fill="none" stroke="midnightblue" d="M436.61,-225.17C441.17,-217.9 447.74,-207.41 453.42,-198.36"/>
<polygon fill="midnightblue" stroke="midnightblue" points="456.34,-200.28 458.69,-189.95 450.41,-196.56 456.34,-200.28"/>
</g>
<!-- Node15&#45;&gt;Node2 -->
<g id="edge18" class="edge">
<title>Node15&#45;&gt;Node2</title>
<path fill="none" stroke="midnightblue" d="M414.28,-168.79C361.96,-159.43 280.27,-144.8 224.11,-134.74"/>
<polygon fill="midnightblue" stroke="midnightblue" points="224.83,-131.32 214.37,-133 223.6,-138.21 224.83,-131.32"/>
</g>
<!-- Node15&#45;&gt;Node3 -->
<g id="edge17" class="edge">
<title>Node15&#45;&gt;Node3</title>
<path fill="none" stroke="midnightblue" d="M454.78,-168.99C445.37,-160.42 431.47,-146.72 422,-132.75 412.24,-118.36 404.23,-100.29 398.94,-86.79"/>
<polygon fill="midnightblue" stroke="midnightblue" points="402.34,-85.88 395.56,-77.74 395.78,-88.33 402.34,-85.88"/>
</g>
<!-- Node16 -->
<g id="node16" class="node">
<title>Node16</title>
<g id="a_node16"><a xlink:href="_utilities_8hpp.html" target="_top" xlink:title=" ">
<polygon fill="white" stroke="black" points="431.12,-113 431.12,-132.25 498.88,-132.25 498.88,-113 431.12,-113"/>
<text text-anchor="middle" x="465" y="-118.75" font-family="Helvetica,sans-Serif" font-size="10.00">Utilities.hpp</text>
</a>
</g>
</g>
<!-- Node15&#45;&gt;Node16 -->
<g id="edge19" class="edge">
<title>Node15&#45;&gt;Node16</title>
<path fill="none" stroke="midnightblue" d="M465,-168.92C465,-162.12 465,-152.51 465,-143.9"/>
<polygon fill="midnightblue" stroke="midnightblue" points="468.5,-143.93 465,-133.93 461.5,-143.93 468.5,-143.93"/>
</g>
<!-- Node16&#45;&gt;Node3 -->
<g id="edge20" class="edge">
<title>Node16&#45;&gt;Node3</title>
<path fill="none" stroke="midnightblue" d="M452.95,-112.67C442.1,-104.61 425.93,-92.59 412.97,-82.96"/>
<polygon fill="midnightblue" stroke="midnightblue" points="415.16,-80.22 405.04,-77.07 410.98,-85.84 415.16,-80.22"/>
</g>
<!-- Node17 -->
<g id="node17" class="node">
<title>Node17</title>
<g id="a_node17"><a xlink:title=" ">
<polygon fill="white" stroke="#bfbfbf" points="431.5,-56.75 431.5,-76 498.5,-76 498.5,-56.75 431.5,-56.75"/>
<text text-anchor="middle" x="465" y="-62.5" font-family="Helvetica,sans-Serif" font-size="10.00">sys/types.h</text>
</a>
</g>
</g>
<!-- Node16&#45;&gt;Node17 -->
<g id="edge21" class="edge">
<title>Node16&#45;&gt;Node17</title>
<path fill="none" stroke="midnightblue" d="M465,-112.67C465,-105.87 465,-96.26 465,-87.65"/>
<polygon fill="midnightblue" stroke="midnightblue" points="468.5,-87.68 465,-77.68 461.5,-87.68 468.5,-87.68"/>
</g>
<!-- Node18 -->
<g id="node18" class="node">
<title>Node18</title>
<g id="a_node18"><a xlink:title=" ">
<polygon fill="white" stroke="#bfbfbf" points="516.38,-56.75 516.38,-76 567.62,-76 567.62,-56.75 516.38,-56.75"/>
<text text-anchor="middle" x="542" y="-62.5" font-family="Helvetica,sans-Serif" font-size="10.00">stdarg.h</text>
</a>
</g>
</g>
<!-- Node16&#45;&gt;Node18 -->
<g id="edge22" class="edge">
<title>Node16&#45;&gt;Node18</title>
<path fill="none" stroke="midnightblue" d="M477.71,-112.67C489.2,-104.58 506.34,-92.5 520.03,-82.85"/>
<polygon fill="midnightblue" stroke="midnightblue" points="521.87,-85.84 528.03,-77.22 517.84,-80.12 521.87,-85.84"/>
</g>
<!-- Node19&#45;&gt;Node2 -->
<g id="edge24" class="edge">
<title>Node19&#45;&gt;Node2</title>
<path fill="none" stroke="midnightblue" d="M234.94,-225.05C217.09,-217.91 194.81,-206.25 181,-189 170.7,-176.14 165.99,-157.92 163.83,-143.97"/>
<polygon fill="midnightblue" stroke="midnightblue" points="167.32,-143.66 162.65,-134.15 160.36,-144.49 167.32,-143.66"/>
</g>
<!-- Node19&#45;&gt;Node13 -->
<g id="edge25" class="edge">
<title>Node19&#45;&gt;Node13</title>
<path fill="none" stroke="midnightblue" d="M275.88,-225.17C287.51,-217.08 304.87,-205 318.75,-195.35"/>
<polygon fill="midnightblue" stroke="midnightblue" points="320.65,-198.29 326.86,-189.71 316.65,-192.55 320.65,-198.29"/>
</g>
<!-- Node20 -->
<g id="node20" class="node">
<title>Node20</title>
<g id="a_node20"><a xlink:title=" ">
<polygon fill="white" stroke="#bfbfbf" points="190,-169.25 190,-188.5 272,-188.5 272,-169.25 190,-169.25"/>
<text text-anchor="middle" x="231" y="-175" font-family="Helvetica,sans-Serif" font-size="10.00">SysThread.hpp</text>
</a>
</g>
</g>
<!-- Node19&#45;&gt;Node20 -->
<g id="edge26" class="edge">
<title>Node19&#45;&gt;Node20</title>
<path fill="none" stroke="midnightblue" d="M257.72,-225.17C253.43,-217.9 247.24,-207.41 241.9,-198.36"/>
<polygon fill="midnightblue" stroke="midnightblue" points="245.05,-196.81 236.95,-189.97 239.02,-200.36 245.05,-196.81"/>
</g>
</g>
</svg>
