<?xml version="1.0" encoding="UTF-8" standalone="no"?>
<!DOCTYPE svg PUBLIC "-//W3C//DTD SVG 1.1//EN"
 "http://www.w3.org/Graphics/SVG/1.1/DTD/svg11.dtd">
<!-- Generated by graphviz version 12.1.0 (20240811.2233)
 -->
<!-- Title: ActivationFrame.hpp Pages: 1 -->
<svg width="686pt" height="85pt"
 viewBox="0.00 0.00 686.12 84.50" xmlns="http://www.w3.org/2000/svg" xmlns:xlink="http://www.w3.org/1999/xlink">
<g id="graph0" class="graph" transform="scale(1 1) rotate(0) translate(4 80.5)">
<title>ActivationFrame.hpp</title>
<polygon fill="white" stroke="none" points="-4,4 -4,-80.5 682.12,-80.5 682.12,4 -4,4"/>
<!-- Node1 -->
<g id="node1" class="node">
<title>Node1</title>
<g id="a_node1"><a xlink:title=" ">
<polygon fill="#bfbfbf" stroke="black" points="267.62,-56.75 267.62,-76 373.62,-76 373.62,-56.75 267.62,-56.75"/>
<text text-anchor="middle" x="320.62" y="-62.5" font-family="Helvetica,sans-Serif" font-size="10.00">ActivationFrame.hpp</text>
</a>
</g>
</g>
<!-- Node2 -->
<g id="node2" class="node">
<title>Node2</title>
<g id="a_node2"><a xlink:href="_source_file_8cpp.html" target="_top" xlink:title=" ">
<polygon fill="white" stroke="black" points="0,-0.5 0,-19.75 81.25,-19.75 81.25,-0.5 0,-0.5"/>
<text text-anchor="middle" x="40.62" y="-6.25" font-family="Helvetica,sans-Serif" font-size="10.00">SourceFile.cpp</text>
</a>
</g>
</g>
<!-- Node1&#45;&gt;Node2 -->
<g id="edge1" class="edge">
<title>Node1&#45;&gt;Node2</title>
<path fill="none" stroke="midnightblue" d="M262.64,-54.14C208.63,-43.68 129.47,-28.34 81.71,-19.09"/>
<polygon fill="midnightblue" stroke="midnightblue" points="261.79,-57.54 272.27,-56.01 263.12,-50.67 261.79,-57.54"/>
</g>
<!-- Node3 -->
<g id="node3" class="node">
<title>Node3</title>
<g id="a_node3"><a xlink:href="_rexx_activity_8cpp.html" target="_top" xlink:title=" ">
<polygon fill="white" stroke="black" points="98.88,-0.5 98.88,-19.75 188.38,-19.75 188.38,-0.5 98.88,-0.5"/>
<text text-anchor="middle" x="143.62" y="-6.25" font-family="Helvetica,sans-Serif" font-size="10.00">RexxActivity.cpp</text>
</a>
</g>
</g>
<!-- Node1&#45;&gt;Node3 -->
<g id="edge2" class="edge">
<title>Node1&#45;&gt;Node3</title>
<path fill="none" stroke="midnightblue" d="M280.05,-52.94C247.52,-42.97 202.61,-29.2 173.35,-20.23"/>
<polygon fill="midnightblue" stroke="midnightblue" points="278.97,-56.27 289.55,-55.85 281.02,-49.57 278.97,-56.27"/>
</g>
<!-- Node4 -->
<g id="node4" class="node">
<title>Node4</title>
<g id="a_node4"><a xlink:href="_activation_frame_8cpp.html" target="_top" xlink:title=" ">
<polygon fill="white" stroke="black" points="206.62,-0.5 206.62,-19.75 312.62,-19.75 312.62,-0.5 206.62,-0.5"/>
<text text-anchor="middle" x="259.62" y="-6.25" font-family="Helvetica,sans-Serif" font-size="10.00">ActivationFrame.cpp</text>
</a>
</g>
</g>
<!-- Node1&#45;&gt;Node4 -->
<g id="edge3" class="edge">
<title>Node1&#45;&gt;Node4</title>
<path fill="none" stroke="midnightblue" d="M302.23,-49.02C291.48,-39.46 278.33,-27.76 269.51,-19.92"/>
<polygon fill="midnightblue" stroke="midnightblue" points="299.62,-51.38 309.42,-55.41 304.27,-46.15 299.62,-51.38"/>
</g>
<!-- Node5 -->
<g id="node5" class="node">
<title>Node5</title>
<g id="a_node5"><a xlink:href="_rexx_activation_8cpp.html" target="_top" xlink:title=" ">
<polygon fill="white" stroke="black" points="330.88,-0.5 330.88,-19.75 432.38,-19.75 432.38,-0.5 330.88,-0.5"/>
<text text-anchor="middle" x="381.62" y="-6.25" font-family="Helvetica,sans-Serif" font-size="10.00">RexxActivation.cpp</text>
</a>
</g>
</g>
<!-- Node1&#45;&gt;Node5 -->
<g id="edge4" class="edge">
<title>Node1&#45;&gt;Node5</title>
<path fill="none" stroke="midnightblue" d="M339.02,-49.02C349.77,-39.46 362.92,-27.76 371.74,-19.92"/>
<polygon fill="midnightblue" stroke="midnightblue" points="336.98,-46.15 331.83,-55.41 341.63,-51.38 336.98,-46.15"/>
</g>
<!-- Node6 -->
<g id="node6" class="node">
<title>Node6</title>
<g id="a_node6"><a xlink:href="_rexx_native_activation_8cpp.html" target="_top" xlink:title=" ">
<polygon fill="white" stroke="black" points="450.62,-0.5 450.62,-19.75 580.62,-19.75 580.62,-0.5 450.62,-0.5"/>
<text text-anchor="middle" x="515.62" y="-6.25" font-family="Helvetica,sans-Serif" font-size="10.00">RexxNativeActivation.cpp</text>
</a>
</g>
</g>
<!-- Node1&#45;&gt;Node6 -->
<g id="edge5" class="edge">
<title>Node1&#45;&gt;Node6</title>
<path fill="none" stroke="midnightblue" d="M363.92,-53.33C399.87,-43.33 450.22,-29.32 482.88,-20.23"/>
<polygon fill="midnightblue" stroke="midnightblue" points="363.42,-49.84 354.72,-55.89 365.29,-56.58 363.42,-49.84"/>
</g>
<!-- Node7 -->
<g id="node7" class="node">
<title>Node7</title>
<g id="a_node7"><a xlink:href="_c_p_p_code_8cpp.html" target="_top" xlink:title=" ">
<polygon fill="white" stroke="black" points="599.12,-0.5 599.12,-19.75 678.12,-19.75 678.12,-0.5 599.12,-0.5"/>
<text text-anchor="middle" x="638.62" y="-6.25" font-family="Helvetica,sans-Serif" font-size="10.00">CPPCode.cpp</text>
</a>
</g>
</g>
<!-- Node1&#45;&gt;Node7 -->
<g id="edge6" class="edge">
<title>Node1&#45;&gt;Node7</title>
<path fill="none" stroke="midnightblue" d="M385.24,-54.87C439.77,-45.92 519.86,-32.6 589.62,-20.25 592.61,-19.72 595.69,-19.17 598.79,-18.6"/>
<polygon fill="midnightblue" stroke="midnightblue" points="384.81,-51.39 375.5,-56.46 385.94,-58.3 384.81,-51.39"/>
</g>
</g>
</svg>
