<?xml version="1.0" encoding="UTF-8" standalone="no"?>
<!DOCTYPE svg PUBLIC "-//W3C//DTD SVG 1.1//EN"
 "http://www.w3.org/Graphics/SVG/1.1/DTD/svg11.dtd">
<!-- Generated by graphviz version 12.1.0 (20240811.2233)
 -->
<!-- Title: ActivationFrame.cpp Pages: 1 -->
<!--zoomable 535 -->
<svg id="main" version="1.1" xmlns="http://www.w3.org/2000/svg" xmlns:xlink="http://www.w3.org/1999/xlink" xml:space="preserve" onload="init(evt)">
<style type="text/css"><![CDATA[
.edge:hover path { stroke: red; }
.edge:hover polygon { stroke: red; fill: red; }
]]></style>
<script type="text/javascript"><![CDATA[
var edges = document.getElementsByTagName('g');
if (edges && edges.length) {
  for (var i=0;i<edges.length;i++) {
    if (edges[i].id.substr(0,4)=='edge') {
      edges[i].setAttribute('class','edge');
    }
  }
}
]]></script>
        <defs>
                <circle id="rim" cx="0" cy="0" r="7"/>
                <circle id="rim2" cx="0" cy="0" r="3.5"/>
                <g id="zoomPlus">
                        <use xlink:href="#rim" fill="#404040">
                                <set attributeName="fill" to="#808080" begin="zoomplus.mouseover" end="zoomplus.mouseout"/>
                        </use>
                        <path d="M-4,0h8M0,-4v8" fill="none" stroke="white" stroke-width="1.5" pointer-events="none"/>
                </g>
                <g id="zoomMin">
                        <use xlink:href="#rim" fill="#404040">
                                <set attributeName="fill" to="#808080" begin="zoomminus.mouseover" end="zoomminus.mouseout"/>
                        </use>
                        <path d="M-4,0h8" fill="none" stroke="white" stroke-width="1.5" pointer-events="none"/>
                </g>
                <g id="dirArrow">
                        <path fill="none" stroke="white" stroke-width="1.5" d="M0,-3.0v7 M-2.5,-0.5L0,-3.0L2.5,-0.5"/>
                </g>
               <g id="resetDef">
                       <use xlink:href="#rim2" fill="#404040">
                               <set attributeName="fill" to="#808080" begin="reset.mouseover" end="reset.mouseout"/>
                       </use>
               </g>
        </defs>

<script type="text/javascript">
var viewWidth = 2164;
var viewHeight = 535;
var sectionId = 'dynsection-0';
</script>
<script xlink:href="svgpan.js"/>
<svg id="graph" class="graph">
<g id="viewport">
<title>ActivationFrame.cpp</title>
<polygon fill="white" stroke="none" points="-4,4 -4,-530.5 2159.62,-530.5 2159.62,4 -4,4"/>
<!-- Node1 -->
<g id="node1" class="node">
<title>Node1</title>
<g id="a_node1"><a xlink:title=" ">
<polygon fill="#bfbfbf" stroke="black" points="1645.12,-506.75 1645.12,-526 1751.12,-526 1751.12,-506.75 1645.12,-506.75"/>
<text text-anchor="middle" x="1698.12" y="-512.5" font-family="Helvetica,sans-Serif" font-size="10.00">ActivationFrame.cpp</text>
</a>
</g>
</g>
<!-- Node2 -->
<g id="node2" class="node">
<title>Node2</title>
<g id="a_node2"><a xlink:href="_rexx_core_8h.html" target="_top" xlink:title=" ">
<polygon fill="white" stroke="black" points="1026.88,-225.5 1026.88,-244.75 1095.38,-244.75 1095.38,-225.5 1026.88,-225.5"/>
<text text-anchor="middle" x="1061.12" y="-231.25" font-family="Helvetica,sans-Serif" font-size="10.00">RexxCore.h</text>
</a>
</g>
</g>
<!-- Node1&#45;&gt;Node2 -->
<g id="edge1" class="edge">
<title>Node1&#45;&gt;Node2</title>
<path fill="none" stroke="midnightblue" d="M1644.98,-515.43C1510.83,-514.14 1169.12,-501.39 1169.12,-404.88 1169.12,-404.88 1169.12,-404.88 1169.12,-346.62 1169.12,-301.6 1122.7,-268.12 1090.73,-250.4"/>
<polygon fill="midnightblue" stroke="midnightblue" points="1092.75,-247.5 1082.27,-245.91 1089.47,-253.69 1092.75,-247.5"/>
</g>
<!-- Node69 -->
<g id="node40" class="node">
<title>Node69</title>
<g id="a_node40"><a xlink:href="_activation_frame_8hpp.html" target="_top" xlink:title=" ">
<polygon fill="white" stroke="black" points="1898.12,-281.75 1898.12,-301 2004.12,-301 2004.12,-281.75 1898.12,-281.75"/>
<text text-anchor="middle" x="1951.12" y="-287.5" font-family="Helvetica,sans-Serif" font-size="10.00">ActivationFrame.hpp</text>
</a>
</g>
</g>
<!-- Node1&#45;&gt;Node69 -->
<g id="edge43" class="edge">
<title>Node1&#45;&gt;Node69</title>
<path fill="none" stroke="midnightblue" d="M1724.84,-506.34C1763.91,-492.02 1837.08,-460.83 1884.12,-414 1914.07,-384.19 1934.41,-338.2 1944.27,-312.15"/>
<polygon fill="midnightblue" stroke="midnightblue" points="1947.53,-313.43 1947.64,-302.84 1940.94,-311.05 1947.53,-313.43"/>
</g>
<!-- Node70 -->
<g id="node41" class="node">
<title>Node70</title>
<g id="a_node41"><a xlink:href="_rexx_activation_8hpp.html" target="_top" xlink:title=" ">
<polygon fill="white" stroke="black" points="1647.38,-450.5 1647.38,-469.75 1748.88,-469.75 1748.88,-450.5 1647.38,-450.5"/>
<text text-anchor="middle" x="1698.12" y="-456.25" font-family="Helvetica,sans-Serif" font-size="10.00">RexxActivation.hpp</text>
</a>
</g>
</g>
<!-- Node1&#45;&gt;Node70 -->
<g id="edge45" class="edge">
<title>Node1&#45;&gt;Node70</title>
<path fill="none" stroke="midnightblue" d="M1698.12,-506.42C1698.12,-499.62 1698.12,-490.01 1698.12,-481.4"/>
<polygon fill="midnightblue" stroke="midnightblue" points="1701.63,-481.43 1698.13,-471.43 1694.63,-481.43 1701.63,-481.43"/>
</g>
<!-- Node84 -->
<g id="node49" class="node">
<title>Node84</title>
<g id="a_node49"><a xlink:href="_rexx_native_activation_8hpp.html" target="_top" xlink:title=" ">
<polygon fill="white" stroke="black" points="1979.12,-338 1979.12,-357.25 2109.12,-357.25 2109.12,-338 1979.12,-338"/>
<text text-anchor="middle" x="2044.12" y="-343.75" font-family="Helvetica,sans-Serif" font-size="10.00">RexxNativeActivation.hpp</text>
</a>
</g>
</g>
<!-- Node1&#45;&gt;Node84 -->
<g id="edge60" class="edge">
<title>Node1&#45;&gt;Node84</title>
<path fill="none" stroke="midnightblue" d="M1751.36,-511.44C1818.92,-505.59 1930.79,-492.8 1965.12,-470.25 2002.89,-445.45 2026.53,-395.66 2037.29,-368.1"/>
<polygon fill="midnightblue" stroke="midnightblue" points="2040.51,-369.49 2040.7,-358.89 2033.94,-367.05 2040.51,-369.49"/>
</g>
<!-- Node85 -->
<g id="node50" class="node">
<title>Node85</title>
<g id="a_node50"><a xlink:href="_stack_frame_class_8hpp.html" target="_top" xlink:title=" ">
<polygon fill="white" stroke="black" points="1264.38,-394.25 1264.38,-413.5 1377.88,-413.5 1377.88,-394.25 1264.38,-394.25"/>
<text text-anchor="middle" x="1321.12" y="-400" font-family="Helvetica,sans-Serif" font-size="10.00">StackFrameClass.hpp</text>
</a>
</g>
</g>
<!-- Node1&#45;&gt;Node85 -->
<g id="edge62" class="edge">
<title>Node1&#45;&gt;Node85</title>
<path fill="none" stroke="midnightblue" d="M1667.27,-506.33C1599.81,-486.56 1439.11,-439.46 1362.77,-417.08"/>
<polygon fill="midnightblue" stroke="midnightblue" points="1364.17,-413.84 1353.59,-414.39 1362.2,-420.56 1364.17,-413.84"/>
</g>
<!-- Node3 -->
<g id="node3" class="node">
<title>Node3</title>
<g id="a_node3"><a xlink:href="oorexxapi_8h.html" target="_top" xlink:title=" ">
<polygon fill="white" stroke="black" points="479,-169.25 479,-188.5 545.25,-188.5 545.25,-169.25 479,-169.25"/>
<text text-anchor="middle" x="512.12" y="-175" font-family="Helvetica,sans-Serif" font-size="10.00">oorexxapi.h</text>
</a>
</g>
</g>
<!-- Node2&#45;&gt;Node3 -->
<g id="edge2" class="edge">
<title>Node2&#45;&gt;Node3</title>
<path fill="none" stroke="midnightblue" d="M1026.52,-232.54C945.89,-228.53 739.09,-216.41 556.67,-189.21"/>
<polygon fill="midnightblue" stroke="midnightblue" points="557.43,-185.79 547.02,-187.75 556.39,-192.71 557.43,-185.79"/>
</g>
<!-- Node10 -->
<g id="node6" class="node">
<title>Node10</title>
<g id="a_node6"><a xlink:title=" ">
<polygon fill="white" stroke="#bfbfbf" points="1293.5,-169.25 1293.5,-188.5 1338.75,-188.5 1338.75,-169.25 1293.5,-169.25"/>
<text text-anchor="middle" x="1316.12" y="-175" font-family="Helvetica,sans-Serif" font-size="10.00">stdio.h</text>
</a>
</g>
</g>
<!-- Node2&#45;&gt;Node10 -->
<g id="edge5" class="edge">
<title>Node2&#45;&gt;Node10</title>
<path fill="none" stroke="midnightblue" d="M1095.69,-228C1137.54,-220.39 1210.36,-206.55 1282.08,-189.35"/>
<polygon fill="midnightblue" stroke="midnightblue" points="1282.75,-192.79 1291.64,-187.03 1281.1,-185.98 1282.75,-192.79"/>
</g>
<!-- Node11 -->
<g id="node7" class="node">
<title>Node11</title>
<g id="a_node7"><a xlink:title=" ">
<polygon fill="white" stroke="#bfbfbf" points="1356.5,-169.25 1356.5,-188.5 1407.75,-188.5 1407.75,-169.25 1356.5,-169.25"/>
<text text-anchor="middle" x="1382.12" y="-175" font-family="Helvetica,sans-Serif" font-size="10.00">stdarg.h</text>
</a>
</g>
</g>
<!-- Node2&#45;&gt;Node11 -->
<g id="edge6" class="edge">
<title>Node2&#45;&gt;Node11</title>
<path fill="none" stroke="midnightblue" d="M1095.8,-229.88C1147.96,-223.24 1249.9,-209.25 1345.22,-189.45"/>
<polygon fill="midnightblue" stroke="midnightblue" points="1345.66,-192.93 1354.72,-187.45 1344.22,-186.08 1345.66,-192.93"/>
</g>
<!-- Node12 -->
<g id="node8" class="node">
<title>Node12</title>
<g id="a_node8"><a xlink:title=" ">
<polygon fill="white" stroke="#bfbfbf" points="1426,-169.25 1426,-188.5 1474.25,-188.5 1474.25,-169.25 1426,-169.25"/>
<text text-anchor="middle" x="1450.12" y="-175" font-family="Helvetica,sans-Serif" font-size="10.00">string.h</text>
</a>
</g>
</g>
<!-- Node2&#45;&gt;Node12 -->
<g id="edge7" class="edge">
<title>Node2&#45;&gt;Node12</title>
<path fill="none" stroke="midnightblue" d="M1095.76,-231.4C1157.84,-226.16 1292.27,-213.19 1414.66,-189.24"/>
<polygon fill="midnightblue" stroke="midnightblue" points="1415.1,-192.73 1424.23,-187.34 1413.74,-185.86 1415.1,-192.73"/>
</g>
<!-- Node13 -->
<g id="node9" class="node">
<title>Node13</title>
<g id="a_node9"><a xlink:title=" ">
<polygon fill="white" stroke="#bfbfbf" points="0,-169.25 0,-188.5 48.25,-188.5 48.25,-169.25 0,-169.25"/>
<text text-anchor="middle" x="24.12" y="-175" font-family="Helvetica,sans-Serif" font-size="10.00">ctype.h</text>
</a>
</g>
</g>
<!-- Node2&#45;&gt;Node13 -->
<g id="edge8" class="edge">
<title>Node2&#45;&gt;Node13</title>
<path fill="none" stroke="midnightblue" d="M1026.52,-233.61C875.45,-231.22 272.26,-220 59.82,-189"/>
<polygon fill="midnightblue" stroke="midnightblue" points="60.41,-185.55 49.99,-187.5 59.35,-192.47 60.41,-185.55"/>
</g>
<!-- Node14 -->
<g id="node10" class="node">
<title>Node14</title>
<g id="a_node10"><a xlink:title=" ">
<polygon fill="white" stroke="#bfbfbf" points="66.38,-169.25 66.38,-188.5 113.88,-188.5 113.88,-169.25 66.38,-169.25"/>
<text text-anchor="middle" x="90.12" y="-175" font-family="Helvetica,sans-Serif" font-size="10.00">limits.h</text>
</a>
</g>
</g>
<!-- Node2&#45;&gt;Node14 -->
<g id="edge9" class="edge">
<title>Node2&#45;&gt;Node14</title>
<path fill="none" stroke="midnightblue" d="M1026.84,-233.49C882.66,-230.68 324.25,-218.22 125.31,-188.9"/>
<polygon fill="midnightblue" stroke="midnightblue" points="126.05,-185.48 115.64,-187.41 124.98,-192.4 126.05,-185.48"/>
</g>
<!-- Node15 -->
<g id="node11" class="node">
<title>Node15</title>
<g id="a_node11"><a xlink:title=" ">
<polygon fill="white" stroke="#bfbfbf" points="131.75,-169.25 131.75,-188.5 190.5,-188.5 190.5,-169.25 131.75,-169.25"/>
<text text-anchor="middle" x="161.12" y="-175" font-family="Helvetica,sans-Serif" font-size="10.00">stdexcept</text>
</a>
</g>
</g>
<!-- Node2&#45;&gt;Node15 -->
<g id="edge10" class="edge">
<title>Node2&#45;&gt;Node15</title>
<path fill="none" stroke="midnightblue" d="M1026.46,-234.51C910.79,-235.32 527.49,-234.28 201.9,-188.96"/>
<polygon fill="midnightblue" stroke="midnightblue" points="202.72,-185.54 192.33,-187.61 201.74,-192.47 202.72,-185.54"/>
</g>
<!-- Node16 -->
<g id="node12" class="node">
<title>Node16</title>
<g id="a_node12"><a xlink:href="_rexx_platform_definitions_8h.html" target="_top" xlink:title=" ">
<polygon fill="white" stroke="black" points="208.75,-169.25 208.75,-188.5 339.5,-188.5 339.5,-169.25 208.75,-169.25"/>
<text text-anchor="middle" x="274.12" y="-175" font-family="Helvetica,sans-Serif" font-size="10.00">RexxPlatformDefinitions.h</text>
</a>
</g>
</g>
<!-- Node2&#45;&gt;Node16 -->
<g id="edge11" class="edge">
<title>Node2&#45;&gt;Node16</title>
<path fill="none" stroke="midnightblue" d="M1026.62,-232.65C925.01,-228.14 617.91,-213.45 351.41,-189.16"/>
<polygon fill="midnightblue" stroke="midnightblue" points="351.74,-185.67 341.46,-188.24 351.1,-192.64 351.74,-185.67"/>
</g>
<!-- Node19 -->
<g id="node15" class="node">
<title>Node19</title>
<g id="a_node15"><a xlink:href="_rexx_constants_8hpp.html" target="_top" xlink:title=" ">
<polygon fill="white" stroke="black" points="357.62,-169.25 357.62,-188.5 460.62,-188.5 460.62,-169.25 357.62,-169.25"/>
<text text-anchor="middle" x="409.12" y="-175" font-family="Helvetica,sans-Serif" font-size="10.00">RexxConstants.hpp</text>
</a>
</g>
</g>
<!-- Node2&#45;&gt;Node19 -->
<g id="edge14" class="edge">
<title>Node2&#45;&gt;Node19</title>
<path fill="none" stroke="midnightblue" d="M1026.4,-232.35C936.65,-227.59 689.41,-213.27 472.3,-189.16"/>
<polygon fill="midnightblue" stroke="midnightblue" points="472.84,-185.7 462.51,-188.07 472.06,-192.66 472.84,-185.7"/>
</g>
<!-- Node20 -->
<g id="node16" class="node">
<title>Node20</title>
<g id="a_node16"><a xlink:href="_class_type_codes_8h.html" target="_top" xlink:title=" ">
<polygon fill="white" stroke="black" points="545.5,-56.75 545.5,-76 644.75,-76 644.75,-56.75 545.5,-56.75"/>
<text text-anchor="middle" x="595.12" y="-62.5" font-family="Helvetica,sans-Serif" font-size="10.00">ClassTypeCodes.h</text>
</a>
</g>
</g>
<!-- Node2&#45;&gt;Node20 -->
<g id="edge15" class="edge">
<title>Node2&#45;&gt;Node20</title>
<path fill="none" stroke="midnightblue" d="M1026.59,-234.05C960.48,-233 812.11,-226.27 694.12,-189 675.88,-183.24 673.3,-177.18 656.12,-168.75 621.12,-151.57 597.3,-165.49 576.12,-132.75 566.82,-118.36 574.15,-99.29 582.26,-85.46"/>
<polygon fill="midnightblue" stroke="midnightblue" points="585.02,-87.64 587.53,-77.35 579.15,-83.83 585.02,-87.64"/>
</g>
<!-- Node21 -->
<g id="node17" class="node">
<title>Node21</title>
<g id="a_node17"><a xlink:href="_global_names_8h.html" target="_top" xlink:title=" ">
<polygon fill="white" stroke="black" points="563.38,-169.25 563.38,-188.5 646.88,-188.5 646.88,-169.25 563.38,-169.25"/>
<text text-anchor="middle" x="605.12" y="-175" font-family="Helvetica,sans-Serif" font-size="10.00">GlobalNames.h</text>
</a>
</g>
</g>
<!-- Node2&#45;&gt;Node21 -->
<g id="edge16" class="edge">
<title>Node2&#45;&gt;Node21</title>
<path fill="none" stroke="midnightblue" d="M1026.54,-230.8C957.13,-224.01 795.95,-207.58 661.12,-189 660.28,-188.88 659.43,-188.77 658.58,-188.64"/>
<polygon fill="midnightblue" stroke="midnightblue" points="659.19,-185.2 648.79,-187.19 658.17,-192.12 659.19,-185.2"/>
</g>
<!-- Node22 -->
<g id="node18" class="node">
<title>Node22</title>
<g id="a_node18"><a xlink:href="_object_class_8hpp.html" target="_top" xlink:title=" ">
<polygon fill="white" stroke="black" points="1630.75,-169.25 1630.75,-188.5 1719.5,-188.5 1719.5,-169.25 1630.75,-169.25"/>
<text text-anchor="middle" x="1675.12" y="-175" font-family="Helvetica,sans-Serif" font-size="10.00">ObjectClass.hpp</text>
</a>
</g>
</g>
<!-- Node2&#45;&gt;Node22 -->
<g id="edge17" class="edge">
<title>Node2&#45;&gt;Node22</title>
<path fill="none" stroke="midnightblue" d="M1095.64,-232.39C1181.96,-227.83 1414.35,-214.19 1619.11,-189.14"/>
<polygon fill="midnightblue" stroke="midnightblue" points="1619.38,-192.63 1628.88,-187.93 1618.52,-185.68 1619.38,-192.63"/>
</g>
<!-- Node25 -->
<g id="node21" class="node">
<title>Node25</title>
<g id="a_node21"><a xlink:href="_table_class_8hpp.html" target="_top" xlink:title=" ">
<polygon fill="white" stroke="black" points="867.38,-56.75 867.38,-76 950.88,-76 950.88,-56.75 867.38,-56.75"/>
<text text-anchor="middle" x="909.12" y="-62.5" font-family="Helvetica,sans-Serif" font-size="10.00">TableClass.hpp</text>
</a>
</g>
</g>
<!-- Node2&#45;&gt;Node25 -->
<g id="edge20" class="edge">
<title>Node2&#45;&gt;Node25</title>
<path fill="none" stroke="midnightblue" d="M1026.63,-230.51C999.98,-225.73 964.62,-214.66 946.12,-189 926.22,-161.38 953.54,-144.58 942.12,-112.5 938.56,-102.49 932.01,-92.79 925.68,-84.96"/>
<polygon fill="midnightblue" stroke="midnightblue" points="928.48,-82.84 919.27,-77.59 923.19,-87.44 928.48,-82.84"/>
</g>
<!-- Node28 -->
<g id="node23" class="node">
<title>Node28</title>
<g id="a_node23"><a xlink:href="_stack_class_8hpp.html" target="_top" xlink:title=" ">
<polygon fill="white" stroke="black" points="813.25,-169.25 813.25,-188.5 899,-188.5 899,-169.25 813.25,-169.25"/>
<text text-anchor="middle" x="856.12" y="-175" font-family="Helvetica,sans-Serif" font-size="10.00">StackClass.hpp</text>
</a>
</g>
</g>
<!-- Node2&#45;&gt;Node28 -->
<g id="edge22" class="edge">
<title>Node2&#45;&gt;Node28</title>
<path fill="none" stroke="midnightblue" d="M1026.81,-225.04C992.37,-215.93 939.13,-201.84 901.28,-191.82"/>
<polygon fill="midnightblue" stroke="midnightblue" points="902.58,-188.55 892.01,-189.37 900.78,-195.31 902.58,-188.55"/>
</g>
<!-- Node29 -->
<g id="node24" class="node">
<title>Node29</title>
<g id="a_node24"><a xlink:href="_rexx_memory_8hpp.html" target="_top" xlink:title=" ">
<polygon fill="white" stroke="black" points="703.25,-169.25 703.25,-188.5 795,-188.5 795,-169.25 703.25,-169.25"/>
<text text-anchor="middle" x="749.12" y="-175" font-family="Helvetica,sans-Serif" font-size="10.00">RexxMemory.hpp</text>
</a>
</g>
</g>
<!-- Node2&#45;&gt;Node29 -->
<g id="edge23" class="edge">
<title>Node2&#45;&gt;Node29</title>
<path fill="none" stroke="midnightblue" d="M1026.54,-228.11C973.41,-218.87 871.1,-201.08 806.67,-189.88"/>
<polygon fill="midnightblue" stroke="midnightblue" points="807.44,-186.46 796.99,-188.2 806.24,-193.36 807.44,-186.46"/>
</g>
<!-- Node36 -->
<g id="node29" class="node">
<title>Node36</title>
<g id="a_node29"><a xlink:href="_rexx_behaviour_8hpp.html" target="_top" xlink:title=" ">
<polygon fill="white" stroke="black" points="954.75,-169.25 954.75,-188.5 1055.5,-188.5 1055.5,-169.25 954.75,-169.25"/>
<text text-anchor="middle" x="1005.12" y="-175" font-family="Helvetica,sans-Serif" font-size="10.00">RexxBehaviour.hpp</text>
</a>
</g>
</g>
<!-- Node2&#45;&gt;Node36 -->
<g id="edge31" class="edge">
<title>Node2&#45;&gt;Node36</title>
<path fill="none" stroke="midnightblue" d="M1051.88,-225.17C1043.89,-217.42 1032.12,-206.03 1022.39,-196.61"/>
<polygon fill="midnightblue" stroke="midnightblue" points="1024.9,-194.16 1015.29,-189.72 1020.03,-199.19 1024.9,-194.16"/>
</g>
<!-- Node38 -->
<g id="node31" class="node">
<title>Node38</title>
<g id="a_node31"><a xlink:href="_class_class_8hpp.html" target="_top" xlink:title=" ">
<polygon fill="white" stroke="black" points="1073.25,-169.25 1073.25,-188.5 1159,-188.5 1159,-169.25 1073.25,-169.25"/>
<text text-anchor="middle" x="1116.12" y="-175" font-family="Helvetica,sans-Serif" font-size="10.00">ClassClass.hpp</text>
</a>
</g>
</g>
<!-- Node2&#45;&gt;Node38 -->
<g id="edge33" class="edge">
<title>Node2&#45;&gt;Node38</title>
<path fill="none" stroke="midnightblue" d="M1070.21,-225.17C1078.06,-217.42 1089.61,-206.03 1099.16,-196.61"/>
<polygon fill="midnightblue" stroke="midnightblue" points="1101.47,-199.24 1106.13,-189.73 1096.56,-194.26 1101.47,-199.24"/>
</g>
<!-- Node39 -->
<g id="node32" class="node">
<title>Node39</title>
<g id="a_node32"><a xlink:href="_rexx_envelope_8hpp.html" target="_top" xlink:title=" ">
<polygon fill="white" stroke="black" points="1176.88,-169.25 1176.88,-188.5 1275.38,-188.5 1275.38,-169.25 1176.88,-169.25"/>
<text text-anchor="middle" x="1226.12" y="-175" font-family="Helvetica,sans-Serif" font-size="10.00">RexxEnvelope.hpp</text>
</a>
</g>
</g>
<!-- Node2&#45;&gt;Node39 -->
<g id="edge34" class="edge">
<title>Node2&#45;&gt;Node39</title>
<path fill="none" stroke="midnightblue" d="M1088.74,-225.04C1115.87,-216.13 1157.48,-202.44 1187.81,-192.47"/>
<polygon fill="midnightblue" stroke="midnightblue" points="1188.57,-195.91 1196.98,-189.46 1186.39,-189.26 1188.57,-195.91"/>
</g>
<!-- Node40 -->
<g id="node33" class="node">
<title>Node40</title>
<g id="a_node33"><a xlink:href="_rexx_activity_8hpp.html" target="_top" xlink:title=" ">
<polygon fill="white" stroke="red" points="1906.38,-169.25 1906.38,-188.5 1995.88,-188.5 1995.88,-169.25 1906.38,-169.25"/>
<text text-anchor="middle" x="1951.12" y="-175" font-family="Helvetica,sans-Serif" font-size="10.00">RexxActivity.hpp</text>
</a>
</g>
</g>
<!-- Node2&#45;&gt;Node40 -->
<g id="edge35" class="edge">
<title>Node2&#45;&gt;Node40</title>
<path fill="none" stroke="midnightblue" d="M1095.8,-232.57C1206.2,-227.51 1559.31,-210.64 1851.12,-189 1865.39,-187.94 1880.79,-186.62 1895.12,-185.32"/>
<polygon fill="midnightblue" stroke="midnightblue" points="1895.21,-188.83 1904.84,-184.43 1894.56,-181.86 1895.21,-188.83"/>
</g>
<!-- Node51 -->
<g id="node38" class="node">
<title>Node51</title>
<g id="a_node38"><a xlink:href="_number_string_class_8hpp.html" target="_top" xlink:title=" ">
<polygon fill="white" stroke="red" points="1492,-169.25 1492,-188.5 1612.25,-188.5 1612.25,-169.25 1492,-169.25"/>
<text text-anchor="middle" x="1552.12" y="-175" font-family="Helvetica,sans-Serif" font-size="10.00">NumberStringClass.hpp</text>
</a>
</g>
</g>
<!-- Node2&#45;&gt;Node51 -->
<g id="edge40" class="edge">
<title>Node2&#45;&gt;Node51</title>
<path fill="none" stroke="midnightblue" d="M1095.62,-230.73C1165.91,-223.75 1331.04,-207.03 1480.37,-189.3"/>
<polygon fill="midnightblue" stroke="midnightblue" points="1480.54,-192.81 1490.05,-188.15 1479.71,-185.86 1480.54,-192.81"/>
</g>
<!-- Node67 -->
<g id="node39" class="node">
<title>Node67</title>
<g id="a_node39"><a xlink:href="_activity_manager_8hpp.html" target="_top" xlink:title=" ">
<polygon fill="white" stroke="red" points="1737.88,-169.25 1737.88,-188.5 1842.38,-188.5 1842.38,-169.25 1737.88,-169.25"/>
<text text-anchor="middle" x="1790.12" y="-175" font-family="Helvetica,sans-Serif" font-size="10.00">ActivityManager.hpp</text>
</a>
</g>
</g>
<!-- Node2&#45;&gt;Node67 -->
<g id="edge42" class="edge">
<title>Node2&#45;&gt;Node67</title>
<path fill="none" stroke="midnightblue" d="M1095.57,-232.75C1192.8,-228.67 1477.84,-215.31 1725.98,-189.14"/>
<polygon fill="midnightblue" stroke="midnightblue" points="1726.32,-192.62 1735.89,-188.08 1725.58,-185.66 1726.32,-192.62"/>
</g>
<!-- Node4 -->
<g id="node4" class="node">
<title>Node4</title>
<g id="a_node4"><a xlink:href="rexx_8h.html" target="_top" xlink:title=" ">
<polygon fill="white" stroke="red" points="485.62,-113 485.62,-132.25 528.62,-132.25 528.62,-113 485.62,-113"/>
<text text-anchor="middle" x="507.12" y="-118.75" font-family="Helvetica,sans-Serif" font-size="10.00">rexx.h</text>
</a>
</g>
</g>
<!-- Node3&#45;&gt;Node4 -->
<g id="edge3" class="edge">
<title>Node3&#45;&gt;Node4</title>
<path fill="none" stroke="midnightblue" d="M511.3,-168.92C510.67,-162.04 509.77,-152.29 508.97,-143.6"/>
<polygon fill="midnightblue" stroke="midnightblue" points="512.48,-143.56 508.07,-133.92 505.51,-144.2 512.48,-143.56"/>
</g>
<!-- Node9 -->
<g id="node5" class="node">
<title>Node9</title>
<g id="a_node5"><a xlink:href="oorexxerrors_8h.html" target="_top" xlink:title=" ">
<polygon fill="white" stroke="black" points="389,-113 389,-132.25 467.25,-132.25 467.25,-113 389,-113"/>
<text text-anchor="middle" x="428.12" y="-118.75" font-family="Helvetica,sans-Serif" font-size="10.00">oorexxerrors.h</text>
</a>
</g>
</g>
<!-- Node3&#45;&gt;Node9 -->
<g id="edge4" class="edge">
<title>Node3&#45;&gt;Node9</title>
<path fill="none" stroke="midnightblue" d="M498.25,-168.92C485.61,-160.75 466.67,-148.52 451.66,-138.82"/>
<polygon fill="midnightblue" stroke="midnightblue" points="453.59,-135.9 443.29,-133.42 449.79,-141.78 453.59,-135.9"/>
</g>
<!-- Node17 -->
<g id="node13" class="node">
<title>Node17</title>
<g id="a_node13"><a xlink:title=" ">
<polygon fill="white" stroke="#bfbfbf" points="239.38,-113 239.38,-132.25 346.88,-132.25 346.88,-113 239.38,-113"/>
<text text-anchor="middle" x="293.12" y="-118.75" font-family="Helvetica,sans-Serif" font-size="10.00">PlatformDefinitions.h</text>
</a>
</g>
</g>
<!-- Node16&#45;&gt;Node17 -->
<g id="edge12" class="edge">
<title>Node16&#45;&gt;Node17</title>
<path fill="none" stroke="midnightblue" d="M277.26,-168.92C279.72,-161.89 283.24,-151.84 286.34,-143"/>
<polygon fill="midnightblue" stroke="midnightblue" points="289.54,-144.44 289.55,-133.85 282.94,-142.13 289.54,-144.44"/>
</g>
<!-- Node18 -->
<g id="node14" class="node">
<title>Node18</title>
<g id="a_node14"><a xlink:href="_rexx_error_codes_8h.html" target="_top" xlink:title=" ">
<polygon fill="white" stroke="black" points="124.62,-113 124.62,-132.25 221.62,-132.25 221.62,-113 124.62,-113"/>
<text text-anchor="middle" x="173.12" y="-118.75" font-family="Helvetica,sans-Serif" font-size="10.00">RexxErrorCodes.h</text>
</a>
</g>
</g>
<!-- Node16&#45;&gt;Node18 -->
<g id="edge13" class="edge">
<title>Node16&#45;&gt;Node18</title>
<path fill="none" stroke="midnightblue" d="M257.45,-168.92C241.8,-160.51 218.15,-147.81 199.87,-137.99"/>
<polygon fill="midnightblue" stroke="midnightblue" points="201.63,-134.96 191.16,-133.31 198.31,-141.13 201.63,-134.96"/>
</g>
<!-- Node23 -->
<g id="node19" class="node">
<title>Node23</title>
<g id="a_node19"><a xlink:href="_numerics_8hpp.html" target="_top" xlink:title=" ">
<polygon fill="white" stroke="black" points="1540.75,-113 1540.75,-132.25 1617.5,-132.25 1617.5,-113 1540.75,-113"/>
<text text-anchor="middle" x="1579.12" y="-118.75" font-family="Helvetica,sans-Serif" font-size="10.00">Numerics.hpp</text>
</a>
</g>
</g>
<!-- Node22&#45;&gt;Node23 -->
<g id="edge18" class="edge">
<title>Node22&#45;&gt;Node23</title>
<path fill="none" stroke="midnightblue" d="M1659.27,-168.92C1644.4,-160.51 1621.92,-147.81 1604.54,-137.99"/>
<polygon fill="midnightblue" stroke="midnightblue" points="1606.75,-135.21 1596.32,-133.34 1603.3,-141.31 1606.75,-135.21"/>
</g>
<!-- Node24 -->
<g id="node20" class="node">
<title>Node24</title>
<g id="a_node20"><a xlink:title=" ">
<polygon fill="white" stroke="#bfbfbf" points="1070.5,-56.75 1070.5,-76 1121.75,-76 1121.75,-56.75 1070.5,-56.75"/>
<text text-anchor="middle" x="1096.12" y="-62.5" font-family="Helvetica,sans-Serif" font-size="10.00">stddef.h</text>
</a>
</g>
</g>
<!-- Node22&#45;&gt;Node24 -->
<g id="edge19" class="edge">
<title>Node22&#45;&gt;Node24</title>
<path fill="none" stroke="midnightblue" d="M1671.31,-168.75C1664.61,-154.01 1649.2,-125.29 1626.12,-112.5 1583.22,-88.71 1246.42,-73.33 1133.15,-68.78"/>
<polygon fill="midnightblue" stroke="midnightblue" points="1133.63,-65.3 1123.5,-68.4 1133.35,-72.29 1133.63,-65.3"/>
</g>
<!-- Node26 -->
<g id="node22" class="node">
<title>Node26</title>
<g id="a_node22"><a xlink:href="_rexx_collection_8hpp.html" target="_top" xlink:title=" ">
<polygon fill="white" stroke="red" points="858.38,-0.5 858.38,-19.75 959.88,-19.75 959.88,-0.5 858.38,-0.5"/>
<text text-anchor="middle" x="909.12" y="-6.25" font-family="Helvetica,sans-Serif" font-size="10.00">RexxCollection.hpp</text>
</a>
</g>
</g>
<!-- Node25&#45;&gt;Node26 -->
<g id="edge21" class="edge">
<title>Node25&#45;&gt;Node26</title>
<path fill="none" stroke="midnightblue" d="M909.12,-56.42C909.12,-49.62 909.12,-40.01 909.12,-31.4"/>
<polygon fill="midnightblue" stroke="midnightblue" points="912.63,-31.43 909.13,-21.43 905.63,-31.43 912.63,-31.43"/>
</g>
<!-- Node30 -->
<g id="node25" class="node">
<title>Node30</title>
<g id="a_node25"><a xlink:title=" ">
<polygon fill="white" stroke="#bfbfbf" points="831.38,-113 831.38,-132.25 932.88,-132.25 932.88,-113 831.38,-113"/>
<text text-anchor="middle" x="882.12" y="-118.75" font-family="Helvetica,sans-Serif" font-size="10.00">SysSemaphore.hpp</text>
</a>
</g>
</g>
<!-- Node29&#45;&gt;Node30 -->
<g id="edge24" class="edge">
<title>Node29&#45;&gt;Node30</title>
<path fill="none" stroke="midnightblue" d="M771.39,-168.79C792.68,-160.11 825.04,-146.91 849.29,-137.02"/>
<polygon fill="midnightblue" stroke="midnightblue" points="850.45,-140.32 858.39,-133.31 847.81,-133.84 850.45,-140.32"/>
</g>
<!-- Node31 -->
<g id="node26" class="node">
<title>Node31</title>
<g id="a_node26"><a xlink:href="_identity_table_class_8hpp.html" target="_top" xlink:title=" ">
<polygon fill="white" stroke="black" points="697.25,-113 697.25,-132.25 813,-132.25 813,-113 697.25,-113"/>
<text text-anchor="middle" x="755.12" y="-118.75" font-family="Helvetica,sans-Serif" font-size="10.00">IdentityTableClass.hpp</text>
</a>
</g>
</g>
<!-- Node29&#45;&gt;Node31 -->
<g id="edge25" class="edge">
<title>Node29&#45;&gt;Node31</title>
<path fill="none" stroke="midnightblue" d="M750.12,-168.92C750.88,-162.04 751.95,-152.29 752.92,-143.6"/>
<polygon fill="midnightblue" stroke="midnightblue" points="756.37,-144.25 753.99,-133.92 749.41,-143.48 756.37,-144.25"/>
</g>
<!-- Node32 -->
<g id="node27" class="node">
<title>Node32</title>
<g id="a_node27"><a xlink:href="_memory_stats_8hpp.html" target="_top" xlink:title=" ">
<polygon fill="white" stroke="black" points="585.5,-113 585.5,-132.25 678.75,-132.25 678.75,-113 585.5,-113"/>
<text text-anchor="middle" x="632.12" y="-118.75" font-family="Helvetica,sans-Serif" font-size="10.00">MemoryStats.hpp</text>
</a>
</g>
</g>
<!-- Node29&#45;&gt;Node32 -->
<g id="edge27" class="edge">
<title>Node29&#45;&gt;Node32</title>
<path fill="none" stroke="midnightblue" d="M729.54,-168.79C711.15,-160.27 683.37,-147.38 662.17,-137.56"/>
<polygon fill="midnightblue" stroke="midnightblue" points="663.69,-134.4 653.15,-133.37 660.75,-140.75 663.69,-134.4"/>
</g>
<!-- Node33 -->
<g id="node28" class="node">
<title>Node33</title>
<g id="a_node28"><a xlink:href="_memory_segment_8hpp.html" target="_top" xlink:title=" ">
<polygon fill="white" stroke="red" points="989.62,-113 989.62,-132.25 1098.62,-132.25 1098.62,-113 989.62,-113"/>
<text text-anchor="middle" x="1044.12" y="-118.75" font-family="Helvetica,sans-Serif" font-size="10.00">MemorySegment.hpp</text>
</a>
</g>
</g>
<!-- Node29&#45;&gt;Node33 -->
<g id="edge29" class="edge">
<title>Node29&#45;&gt;Node33</title>
<path fill="none" stroke="midnightblue" d="M795.22,-169.4C846.01,-160.06 927.88,-145 983.76,-134.73"/>
<polygon fill="midnightblue" stroke="midnightblue" points="984.22,-138.2 993.43,-132.95 982.96,-131.31 984.22,-138.2"/>
</g>
<!-- Node31&#45;&gt;Node25 -->
<g id="edge26" class="edge">
<title>Node31&#45;&gt;Node25</title>
<path fill="none" stroke="midnightblue" d="M780.9,-112.54C806,-103.7 844.38,-90.18 872.61,-80.24"/>
<polygon fill="midnightblue" stroke="midnightblue" points="873.57,-83.61 881.84,-76.99 871.24,-77.01 873.57,-83.61"/>
</g>
<!-- Node32&#45;&gt;Node20 -->
<g id="edge28" class="edge">
<title>Node32&#45;&gt;Node20</title>
<path fill="none" stroke="midnightblue" d="M626.02,-112.67C621,-105.32 613.75,-94.68 607.53,-85.56"/>
<polygon fill="midnightblue" stroke="midnightblue" points="610.5,-83.71 601.97,-77.42 604.72,-87.65 610.5,-83.71"/>
</g>
<!-- Node33&#45;&gt;Node24 -->
<g id="edge30" class="edge">
<title>Node33&#45;&gt;Node24</title>
<path fill="none" stroke="midnightblue" d="M1052.71,-112.67C1060.06,-105 1070.83,-93.76 1079.81,-84.39"/>
<polygon fill="midnightblue" stroke="midnightblue" points="1082.26,-86.9 1086.65,-77.26 1077.2,-82.06 1082.26,-86.9"/>
</g>
<!-- Node37 -->
<g id="node30" class="node">
<title>Node37</title>
<g id="a_node30"><a xlink:href="_primitive_behaviour_names_8h.html" target="_top" xlink:title=" ">
<polygon fill="white" stroke="black" points="1116.38,-113 1116.38,-132.25 1253.88,-132.25 1253.88,-113 1116.38,-113"/>
<text text-anchor="middle" x="1185.12" y="-118.75" font-family="Helvetica,sans-Serif" font-size="10.00">PrimitiveBehaviourNames.h</text>
</a>
</g>
</g>
<!-- Node36&#45;&gt;Node37 -->
<g id="edge32" class="edge">
<title>Node36&#45;&gt;Node37</title>
<path fill="none" stroke="midnightblue" d="M1035.25,-168.79C1065.11,-159.8 1111.04,-145.95 1144.19,-135.96"/>
<polygon fill="midnightblue" stroke="midnightblue" points="1144.89,-139.41 1153.45,-133.17 1142.86,-132.71 1144.89,-139.41"/>
</g>
<!-- Node41 -->
<g id="node34" class="node">
<title>Node41</title>
<g id="a_node34"><a xlink:href="_list_class_8hpp.html" target="_top" xlink:title=" ">
<polygon fill="white" stroke="red" points="1940.12,-113 1940.12,-132.25 2016.12,-132.25 2016.12,-113 1940.12,-113"/>
<text text-anchor="middle" x="1978.12" y="-118.75" font-family="Helvetica,sans-Serif" font-size="10.00">ListClass.hpp</text>
</a>
</g>
</g>
<!-- Node40&#45;&gt;Node41 -->
<g id="edge36" class="edge">
<title>Node40&#45;&gt;Node41</title>
<path fill="none" stroke="midnightblue" d="M1955.58,-168.92C1959.12,-161.81 1964.19,-151.62 1968.63,-142.7"/>
<polygon fill="midnightblue" stroke="midnightblue" points="1971.75,-144.28 1973.08,-133.77 1965.49,-141.16 1971.75,-144.28"/>
</g>
<!-- Node43 -->
<g id="node35" class="node">
<title>Node43</title>
<g id="a_node35"><a xlink:href="_rexx_internal_stack_8hpp.html" target="_top" xlink:title=" ">
<polygon fill="white" stroke="black" points="1806.25,-113 1806.25,-132.25 1922,-132.25 1922,-113 1806.25,-113"/>
<text text-anchor="middle" x="1864.12" y="-118.75" font-family="Helvetica,sans-Serif" font-size="10.00">RexxInternalStack.hpp</text>
</a>
</g>
</g>
<!-- Node40&#45;&gt;Node43 -->
<g id="edge37" class="edge">
<title>Node40&#45;&gt;Node43</title>
<path fill="none" stroke="midnightblue" d="M1936.76,-168.92C1923.54,-160.67 1903.67,-148.28 1888.05,-138.54"/>
<polygon fill="midnightblue" stroke="midnightblue" points="1890.13,-135.72 1879.8,-133.4 1886.43,-141.66 1890.13,-135.72"/>
</g>
<!-- Node45 -->
<g id="node36" class="node">
<title>Node45</title>
<g id="a_node36"><a xlink:href="_expression_stack_8hpp.html" target="_top" xlink:title=" ">
<polygon fill="white" stroke="red" points="1679.62,-113 1679.62,-132.25 1788.62,-132.25 1788.62,-113 1679.62,-113"/>
<text text-anchor="middle" x="1734.12" y="-118.75" font-family="Helvetica,sans-Serif" font-size="10.00">ExpressionStack.hpp</text>
</a>
</g>
</g>
<!-- Node40&#45;&gt;Node45 -->
<g id="edge38" class="edge">
<title>Node40&#45;&gt;Node45</title>
<path fill="none" stroke="midnightblue" d="M1914.8,-168.79C1878.27,-159.66 1821.75,-145.53 1781.66,-135.51"/>
<polygon fill="midnightblue" stroke="midnightblue" points="1782.58,-132.13 1772.03,-133.1 1780.89,-138.92 1782.58,-132.13"/>
</g>
<!-- Node47 -->
<g id="node37" class="node">
<title>Node47</title>
<g id="a_node37"><a xlink:href="_rexx_local_variables_8hpp.html" target="_top" xlink:title=" ">
<polygon fill="white" stroke="red" points="2034.62,-113 2034.62,-132.25 2155.62,-132.25 2155.62,-113 2034.62,-113"/>
<text text-anchor="middle" x="2095.12" y="-118.75" font-family="Helvetica,sans-Serif" font-size="10.00">RexxLocalVariables.hpp</text>
</a>
</g>
</g>
<!-- Node40&#45;&gt;Node47 -->
<g id="edge39" class="edge">
<title>Node40&#45;&gt;Node47</title>
<path fill="none" stroke="midnightblue" d="M1975.23,-168.79C1998.49,-160.03 2033.95,-146.67 2060.28,-136.75"/>
<polygon fill="midnightblue" stroke="midnightblue" points="2061.4,-140.07 2069.53,-133.27 2058.94,-133.52 2061.4,-140.07"/>
</g>
<!-- Node51&#45;&gt;Node23 -->
<g id="edge41" class="edge">
<title>Node51&#45;&gt;Node23</title>
<path fill="none" stroke="midnightblue" d="M1556.58,-168.92C1560.12,-161.81 1565.19,-151.62 1569.63,-142.7"/>
<polygon fill="midnightblue" stroke="midnightblue" points="1572.75,-144.28 1574.08,-133.77 1566.49,-141.16 1572.75,-144.28"/>
</g>
<!-- Node69&#45;&gt;Node40 -->
<g id="edge44" class="edge">
<title>Node69&#45;&gt;Node40</title>
<path fill="none" stroke="midnightblue" d="M1951.12,-281.33C1951.12,-263.68 1951.12,-224.25 1951.12,-200.08"/>
<polygon fill="midnightblue" stroke="midnightblue" points="1954.63,-200.25 1951.13,-190.25 1947.63,-200.25 1954.63,-200.25"/>
</g>
<!-- Node70&#45;&gt;Node45 -->
<g id="edge46" class="edge">
<title>Node70&#45;&gt;Node45</title>
<path fill="none" stroke="midnightblue" d="M1749.21,-456.36C1782.41,-451.91 1824.35,-440.88 1851.12,-414 1872.48,-392.56 1870.12,-378.88 1870.12,-348.62 1870.12,-348.62 1870.12,-348.62 1870.12,-234.12 1870.12,-203.87 1871.59,-191.04 1851.12,-168.75 1836.78,-153.12 1816.4,-142.85 1796.66,-136.13"/>
<polygon fill="midnightblue" stroke="midnightblue" points="1797.83,-132.83 1787.24,-133.2 1795.75,-139.51 1797.83,-132.83"/>
</g>
<!-- Node70&#45;&gt;Node47 -->
<g id="edge48" class="edge">
<title>Node70&#45;&gt;Node47</title>
<path fill="none" stroke="midnightblue" d="M1749.24,-451.69C1785.02,-445.12 1833.19,-433.47 1872.12,-414 1876.61,-411.76 2010.03,-305.44 2013.12,-301.5 2052.73,-250.96 2078.52,-178.21 2089.33,-143.51"/>
<polygon fill="midnightblue" stroke="midnightblue" points="2092.66,-144.59 2092.19,-134 2085.96,-142.57 2092.66,-144.59"/>
</g>
<!-- Node70&#45;&gt;Node67 -->
<g id="edge56" class="edge">
<title>Node70&#45;&gt;Node67</title>
<path fill="none" stroke="midnightblue" d="M1704.43,-450.15C1716.6,-431.93 1742.12,-388.89 1742.12,-348.62 1742.12,-348.62 1742.12,-348.62 1742.12,-290.38 1742.12,-255.48 1762.51,-219.14 1776.71,-198.06"/>
<polygon fill="midnightblue" stroke="midnightblue" points="1779.49,-200.19 1782.38,-190 1773.76,-196.16 1779.49,-200.19"/>
</g>
<!-- Node71 -->
<g id="node42" class="node">
<title>Node71</title>
<g id="a_node42"><a xlink:href="_do_block_8hpp.html" target="_top" xlink:title=" ">
<polygon fill="white" stroke="black" points="1770,-394.25 1770,-413.5 1842.25,-413.5 1842.25,-394.25 1770,-394.25"/>
<text text-anchor="middle" x="1806.12" y="-400" font-family="Helvetica,sans-Serif" font-size="10.00">DoBlock.hpp</text>
</a>
</g>
</g>
<!-- Node70&#45;&gt;Node71 -->
<g id="edge47" class="edge">
<title>Node70&#45;&gt;Node71</title>
<path fill="none" stroke="midnightblue" d="M1715.96,-450.17C1732.84,-441.69 1758.46,-428.82 1778.08,-418.96"/>
<polygon fill="midnightblue" stroke="midnightblue" points="1779.55,-422.14 1786.91,-414.53 1776.4,-415.89 1779.55,-422.14"/>
</g>
<!-- Node72 -->
<g id="node43" class="node">
<title>Node72</title>
<g id="a_node43"><a xlink:href="_rexx_date_time_8hpp.html" target="_top" xlink:title=" ">
<polygon fill="white" stroke="black" points="1437.75,-338 1437.75,-357.25 1538.5,-357.25 1538.5,-338 1437.75,-338"/>
<text text-anchor="middle" x="1488.12" y="-343.75" font-family="Helvetica,sans-Serif" font-size="10.00">RexxDateTime.hpp</text>
</a>
</g>
</g>
<!-- Node70&#45;&gt;Node72 -->
<g id="edge49" class="edge">
<title>Node70&#45;&gt;Node72</title>
<path fill="none" stroke="midnightblue" d="M1647.89,-450.07C1618.47,-443.23 1581.45,-431.9 1552.12,-414 1531.66,-401.51 1513.08,-381.02 1501.28,-366.31"/>
<polygon fill="midnightblue" stroke="midnightblue" points="1504.36,-364.58 1495.47,-358.81 1498.83,-368.86 1504.36,-364.58"/>
</g>
<!-- Node73 -->
<g id="node44" class="node">
<title>Node73</title>
<g id="a_node44"><a xlink:href="_rexx_code_8hpp.html" target="_top" xlink:title=" ">
<polygon fill="white" stroke="red" points="1395.5,-394.25 1395.5,-413.5 1476.75,-413.5 1476.75,-394.25 1395.5,-394.25"/>
<text text-anchor="middle" x="1436.12" y="-400" font-family="Helvetica,sans-Serif" font-size="10.00">RexxCode.hpp</text>
</a>
</g>
</g>
<!-- Node70&#45;&gt;Node73 -->
<g id="edge51" class="edge">
<title>Node70&#45;&gt;Node73</title>
<path fill="none" stroke="midnightblue" d="M1654.27,-450.04C1608.55,-440.58 1536.92,-425.75 1488.32,-415.68"/>
<polygon fill="midnightblue" stroke="midnightblue" points="1489.08,-412.27 1478.58,-413.67 1487.66,-419.12 1489.08,-412.27"/>
</g>
<!-- Node82 -->
<g id="node47" class="node">
<title>Node82</title>
<g id="a_node47"><a xlink:href="_rexx_compound_tail_8hpp.html" target="_top" xlink:title=" ">
<polygon fill="white" stroke="red" points="1594,-394.25 1594,-413.5 1714.25,-413.5 1714.25,-394.25 1594,-394.25"/>
<text text-anchor="middle" x="1654.12" y="-400" font-family="Helvetica,sans-Serif" font-size="10.00">RexxCompoundTail.hpp</text>
</a>
</g>
</g>
<!-- Node70&#45;&gt;Node82 -->
<g id="edge57" class="edge">
<title>Node70&#45;&gt;Node82</title>
<path fill="none" stroke="midnightblue" d="M1690.86,-450.17C1684.77,-442.66 1675.9,-431.72 1668.4,-422.48"/>
<polygon fill="midnightblue" stroke="midnightblue" points="1671.23,-420.4 1662.21,-414.84 1665.79,-424.81 1671.23,-420.4"/>
</g>
<!-- Node83 -->
<g id="node48" class="node">
<title>Node83</title>
<g id="a_node48"><a xlink:href="_context_class_8hpp.html" target="_top" xlink:title=" ">
<polygon fill="white" stroke="black" points="1569.75,-225.5 1569.75,-244.75 1664.5,-244.75 1664.5,-225.5 1569.75,-225.5"/>
<text text-anchor="middle" x="1617.12" y="-231.25" font-family="Helvetica,sans-Serif" font-size="10.00">ContextClass.hpp</text>
</a>
</g>
</g>
<!-- Node70&#45;&gt;Node83 -->
<g id="edge58" class="edge">
<title>Node70&#45;&gt;Node83</title>
<path fill="none" stroke="midnightblue" d="M1646.91,-451.84C1623.99,-445.74 1599.05,-434.55 1585.12,-414 1551.46,-364.31 1585.98,-289.56 1605.57,-254.95"/>
<polygon fill="midnightblue" stroke="midnightblue" points="1608.49,-256.9 1610.54,-246.51 1602.45,-253.35 1608.49,-256.9"/>
</g>
<!-- Node72&#45;&gt;Node2 -->
<g id="edge50" class="edge">
<title>Node72&#45;&gt;Node2</title>
<path fill="none" stroke="midnightblue" d="M1473.35,-337.64C1449.14,-323.34 1399.12,-295.59 1353.12,-281.25 1268.59,-254.9 1165.31,-243.57 1106.98,-238.98"/>
<polygon fill="midnightblue" stroke="midnightblue" points="1107.33,-235.5 1097.1,-238.24 1106.81,-242.48 1107.33,-235.5"/>
</g>
<!-- Node80 -->
<g id="node45" class="node">
<title>Node80</title>
<g id="a_node45"><a xlink:href="_method_class_8hpp.html" target="_top" xlink:title=" ">
<polygon fill="white" stroke="black" points="1251.88,-281.75 1251.88,-301 1344.38,-301 1344.38,-281.75 1251.88,-281.75"/>
<text text-anchor="middle" x="1298.12" y="-287.5" font-family="Helvetica,sans-Serif" font-size="10.00">MethodClass.hpp</text>
</a>
</g>
</g>
<!-- Node73&#45;&gt;Node80 -->
<g id="edge52" class="edge">
<title>Node73&#45;&gt;Node80</title>
<path fill="none" stroke="midnightblue" d="M1432.01,-394.19C1425.19,-380.57 1410.35,-354.02 1391.12,-337.5 1375.04,-323.68 1354,-313.01 1335.99,-305.52"/>
<polygon fill="midnightblue" stroke="midnightblue" points="1337.52,-302.36 1326.94,-301.93 1334.94,-308.87 1337.52,-302.36"/>
</g>
<!-- Node81 -->
<g id="node46" class="node">
<title>Node81</title>
<g id="a_node46"><a xlink:href="_routine_class_8hpp.html" target="_top" xlink:title=" ">
<polygon fill="white" stroke="black" points="1288.12,-338 1288.12,-357.25 1382.12,-357.25 1382.12,-338 1288.12,-338"/>
<text text-anchor="middle" x="1335.12" y="-343.75" font-family="Helvetica,sans-Serif" font-size="10.00">RoutineClass.hpp</text>
</a>
</g>
</g>
<!-- Node73&#45;&gt;Node81 -->
<g id="edge54" class="edge">
<title>Node73&#45;&gt;Node81</title>
<path fill="none" stroke="midnightblue" d="M1419.45,-393.92C1403.8,-385.51 1380.15,-372.81 1361.87,-362.99"/>
<polygon fill="midnightblue" stroke="midnightblue" points="1363.63,-359.96 1353.16,-358.31 1360.31,-366.13 1363.63,-359.96"/>
</g>
<!-- Node80&#45;&gt;Node2 -->
<g id="edge53" class="edge">
<title>Node80&#45;&gt;Node2</title>
<path fill="none" stroke="midnightblue" d="M1258.46,-281.29C1216.51,-271.69 1150.46,-256.57 1106.48,-246.51"/>
<polygon fill="midnightblue" stroke="midnightblue" points="1107.53,-243.16 1097,-244.34 1105.97,-249.98 1107.53,-243.16"/>
</g>
<!-- Node81&#45;&gt;Node80 -->
<g id="edge55" class="edge">
<title>Node81&#45;&gt;Node80</title>
<path fill="none" stroke="midnightblue" d="M1329.02,-337.67C1324,-330.32 1316.75,-319.68 1310.53,-310.56"/>
<polygon fill="midnightblue" stroke="midnightblue" points="1313.5,-308.71 1304.97,-302.42 1307.72,-312.65 1313.5,-308.71"/>
</g>
<!-- Node83&#45;&gt;Node22 -->
<g id="edge59" class="edge">
<title>Node83&#45;&gt;Node22</title>
<path fill="none" stroke="midnightblue" d="M1626.7,-225.17C1635.06,-217.35 1647.41,-205.8 1657.55,-196.32"/>
<polygon fill="midnightblue" stroke="midnightblue" points="1659.71,-199.09 1664.62,-189.7 1654.93,-193.98 1659.71,-199.09"/>
</g>
<!-- Node84&#45;&gt;Node40 -->
<g id="edge61" class="edge">
<title>Node84&#45;&gt;Node40</title>
<path fill="none" stroke="midnightblue" d="M2040.21,-337.59C2034.59,-324.84 2023.76,-300.92 2013.12,-281.25 1997.07,-251.56 1976.21,-218.42 1963.25,-198.36"/>
<polygon fill="midnightblue" stroke="midnightblue" points="1966.31,-196.65 1957.93,-190.18 1960.45,-200.47 1966.31,-196.65"/>
</g>
<!-- Node85&#45;&gt;Node80 -->
<g id="edge64" class="edge">
<title>Node85&#45;&gt;Node80</title>
<path fill="none" stroke="midnightblue" d="M1308.51,-393.76C1298.41,-385.61 1285,-372.69 1279.12,-357.75 1273.11,-342.45 1279.23,-324.49 1286.09,-311.26"/>
<polygon fill="midnightblue" stroke="midnightblue" points="1289.04,-313.15 1291.01,-302.74 1282.97,-309.65 1289.04,-313.15"/>
</g>
<!-- Node85&#45;&gt;Node81 -->
<g id="edge63" class="edge">
<title>Node85&#45;&gt;Node81</title>
<path fill="none" stroke="midnightblue" d="M1323.44,-393.92C1325.23,-386.96 1327.79,-377.07 1330.05,-368.3"/>
<polygon fill="midnightblue" stroke="midnightblue" points="1333.37,-369.44 1332.48,-358.88 1326.59,-367.69 1333.37,-369.44"/>
</g>
</g>
</svg>
        <g id="navigator" transform="translate(0 0)" fill="#404254">
                <rect fill="#f2f5e9" fill-opacity="0.5" stroke="#606060" stroke-width=".5" x="0" y="0" width="60" height="60"/>
                <use id="zoomplus" xlink:href="#zoomPlus" x="17" y="9" onmousedown="handleZoom(evt,'in')"/>
                <use id="zoomminus" xlink:href="#zoomMin" x="42" y="9" onmousedown="handleZoom(evt,'out')"/>
                <use id="reset" xlink:href="#resetDef" x="30" y="36" onmousedown="handleReset()"/>
                <g id="arrowUp" xlink:href="#dirArrow" transform="translate(30 24)" onmousedown="handlePan(0,-1)">
                  <use xlink:href="#rim" fill="#404040">
                        <set attributeName="fill" to="#808080" begin="arrowUp.mouseover" end="arrowUp.mouseout"/>
                  </use>
                  <path fill="none" stroke="white" stroke-width="1.5" d="M0,-3.0v7 M-2.5,-0.5L0,-3.0L2.5,-0.5"/>
                </g>
                <g id="arrowRight" xlink:href="#dirArrow" transform="rotate(90) translate(36 -43)" onmousedown="handlePan(1,0)">
                  <use xlink:href="#rim" fill="#404040">
                        <set attributeName="fill" to="#808080" begin="arrowRight.mouseover" end="arrowRight.mouseout"/>
                  </use>
                  <path fill="none" stroke="white" stroke-width="1.5" d="M0,-3.0v7 M-2.5,-0.5L0,-3.0L2.5,-0.5"/>
                </g>
                <g id="arrowDown" xlink:href="#dirArrow" transform="rotate(180) translate(-30 -48)" onmousedown="handlePan(0,1)">
                  <use xlink:href="#rim" fill="#404040">
                        <set attributeName="fill" to="#808080" begin="arrowDown.mouseover" end="arrowDown.mouseout"/>
                  </use>
                  <path fill="none" stroke="white" stroke-width="1.5" d="M0,-3.0v7 M-2.5,-0.5L0,-3.0L2.5,-0.5"/>
                </g>
                <g id="arrowLeft" xlink:href="#dirArrow" transform="rotate(270) translate(-36 17)" onmousedown="handlePan(-1,0)">
                  <use xlink:href="#rim" fill="#404040">
                        <set attributeName="fill" to="#808080" begin="arrowLeft.mouseover" end="arrowLeft.mouseout"/>
                  </use>
                  <path fill="none" stroke="white" stroke-width="1.5" d="M0,-3.0v7 M-2.5,-0.5L0,-3.0L2.5,-0.5"/>
                </g>
        </g>
        <svg viewBox="0 0 15 15" width="100%" height="30px" preserveAspectRatio="xMaxYMin meet">
         <g id="arrow_out" transform="scale(0.3 0.3)">
          <a xlink:href="_activation_frame_8cpp__incl_org.svg" target="_base">
           <rect id="button" ry="5" rx="5" y="6" x="6" height="38" width="38"
                fill="#f2f5e9" fill-opacity="0.5" stroke="#606060" stroke-width="1.0"/>
           <path id="arrow"
             d="M 11.500037,31.436501 C 11.940474,20.09759 22.043105,11.32322 32.158766,21.979434 L 37.068811,17.246167 C 37.068811,17.246167 37.088388,32 37.088388,32 L 22.160133,31.978069 C 22.160133,31.978069 26.997745,27.140456 26.997745,27.140456 C 18.528582,18.264221 13.291696,25.230495 11.500037,31.436501 z"
             style="fill:#404040;"/>
          </a>
         </g>
        </svg>
</svg>
