<?xml version="1.0" encoding="UTF-8" standalone="no"?>
<!DOCTYPE svg PUBLIC "-//W3C//DTD SVG 1.1//EN"
 "http://www.w3.org/Graphics/SVG/1.1/DTD/svg11.dtd">
<!-- Generated by graphviz version 12.1.0 (20240811.2233)
 -->
<!-- Title: ArrayClass.hpp Pages: 1 -->
<!--zoomable 141 -->
<svg id="main" version="1.1" xmlns="http://www.w3.org/2000/svg" xmlns:xlink="http://www.w3.org/1999/xlink" xml:space="preserve" onload="init(evt)">
<style type="text/css"><![CDATA[
.edge:hover path { stroke: red; }
.edge:hover polygon { stroke: red; fill: red; }
]]></style>
<script type="text/javascript"><![CDATA[
var edges = document.getElementsByTagName('g');
if (edges && edges.length) {
  for (var i=0;i<edges.length;i++) {
    if (edges[i].id.substr(0,4)=='edge') {
      edges[i].setAttribute('class','edge');
    }
  }
}
]]></script>
        <defs>
                <circle id="rim" cx="0" cy="0" r="7"/>
                <circle id="rim2" cx="0" cy="0" r="3.5"/>
                <g id="zoomPlus">
                        <use xlink:href="#rim" fill="#404040">
                                <set attributeName="fill" to="#808080" begin="zoomplus.mouseover" end="zoomplus.mouseout"/>
                        </use>
                        <path d="M-4,0h8M0,-4v8" fill="none" stroke="white" stroke-width="1.5" pointer-events="none"/>
                </g>
                <g id="zoomMin">
                        <use xlink:href="#rim" fill="#404040">
                                <set attributeName="fill" to="#808080" begin="zoomminus.mouseover" end="zoomminus.mouseout"/>
                        </use>
                        <path d="M-4,0h8" fill="none" stroke="white" stroke-width="1.5" pointer-events="none"/>
                </g>
                <g id="dirArrow">
                        <path fill="none" stroke="white" stroke-width="1.5" d="M0,-3.0v7 M-2.5,-0.5L0,-3.0L2.5,-0.5"/>
                </g>
               <g id="resetDef">
                       <use xlink:href="#rim2" fill="#404040">
                               <set attributeName="fill" to="#808080" begin="reset.mouseover" end="reset.mouseout"/>
                       </use>
               </g>
        </defs>

<script type="text/javascript">
var viewWidth = 5529;
var viewHeight = 141;
var sectionId = 'dynsection-0';
</script>
<script xlink:href="svgpan.js"/>
<svg id="graph" class="graph">
<g id="viewport">
<title>ArrayClass.hpp</title>
<polygon fill="white" stroke="none" points="-4,4 -4,-136.75 5525.25,-136.75 5525.25,4 -4,4"/>
<!-- Node1 -->
<g id="node1" class="node">
<title>Node1</title>
<g id="a_node1"><a xlink:title=" ">
<polygon fill="#bfbfbf" stroke="black" points="2752.12,-113 2752.12,-132.25 2835.62,-132.25 2835.62,-113 2752.12,-113"/>
<text text-anchor="middle" x="2793.88" y="-118.75" font-family="Helvetica,sans-Serif" font-size="10.00">ArrayClass.hpp</text>
</a>
</g>
</g>
<!-- Node2 -->
<g id="node2" class="node">
<title>Node2</title>
<g id="a_node2"><a xlink:href="_call_instruction_8cpp.html" target="_top" xlink:title=" ">
<polygon fill="white" stroke="black" points="0,-56.75 0,-76 97.75,-76 97.75,-56.75 0,-56.75"/>
<text text-anchor="middle" x="48.88" y="-62.5" font-family="Helvetica,sans-Serif" font-size="10.00">CallInstruction.cpp</text>
</a>
</g>
</g>
<!-- Node1&#45;&gt;Node2 -->
<g id="edge1" class="edge">
<title>Node1&#45;&gt;Node2</title>
<path fill="none" stroke="midnightblue" d="M2740.62,-121.74C2411,-122.32 645.49,-123.16 106.88,-76.5 104.03,-76.25 101.12,-75.95 98.18,-75.61"/>
<polygon fill="midnightblue" stroke="midnightblue" points="2740.23,-125.24 2750.22,-121.73 2740.21,-118.24 2740.23,-125.24"/>
</g>
<!-- Node3 -->
<g id="node3" class="node">
<title>Node3</title>
<g id="a_node3"><a xlink:href="_guard_instruction_8cpp.html" target="_top" xlink:title=" ">
<polygon fill="white" stroke="black" points="115.5,-56.75 115.5,-76 222.25,-76 222.25,-56.75 115.5,-56.75"/>
<text text-anchor="middle" x="168.88" y="-62.5" font-family="Helvetica,sans-Serif" font-size="10.00">GuardInstruction.cpp</text>
</a>
</g>
</g>
<!-- Node1&#45;&gt;Node3 -->
<g id="edge2" class="edge">
<title>Node1&#45;&gt;Node3</title>
<path fill="none" stroke="midnightblue" d="M2740.58,-121.62C2419.87,-121.46 743.49,-118.56 230.88,-76.5 228.16,-76.28 225.39,-76.01 222.59,-75.71"/>
<polygon fill="midnightblue" stroke="midnightblue" points="2740.33,-125.12 2750.33,-121.63 2740.33,-118.12 2740.33,-125.12"/>
</g>
<!-- Node4 -->
<g id="node4" class="node">
<title>Node4</title>
<g id="a_node4"><a xlink:href="_do_instruction_8cpp.html" target="_top" xlink:title=" ">
<polygon fill="white" stroke="black" points="240.25,-56.75 240.25,-76 333.5,-76 333.5,-56.75 240.25,-56.75"/>
<text text-anchor="middle" x="286.88" y="-62.5" font-family="Helvetica,sans-Serif" font-size="10.00">DoInstruction.cpp</text>
</a>
</g>
</g>
<!-- Node1&#45;&gt;Node4 -->
<g id="edge3" class="edge">
<title>Node1&#45;&gt;Node4</title>
<path fill="none" stroke="midnightblue" d="M2740.45,-121.68C2427.72,-121.86 831.46,-120.58 342.88,-76.5 339.93,-76.23 336.91,-75.91 333.87,-75.53"/>
<polygon fill="midnightblue" stroke="midnightblue" points="2740.36,-125.18 2750.36,-121.68 2740.36,-118.18 2740.36,-125.18"/>
</g>
<!-- Node5 -->
<g id="node5" class="node">
<title>Node5</title>
<g id="a_node5"><a xlink:href="_raise_instruction_8cpp.html" target="_top" xlink:title=" ">
<polygon fill="white" stroke="black" points="351.88,-56.75 351.88,-76 457.88,-76 457.88,-56.75 351.88,-56.75"/>
<text text-anchor="middle" x="404.88" y="-62.5" font-family="Helvetica,sans-Serif" font-size="10.00">RaiseInstruction.cpp</text>
</a>
</g>
</g>
<!-- Node1&#45;&gt;Node5 -->
<g id="edge4" class="edge">
<title>Node1&#45;&gt;Node5</title>
<path fill="none" stroke="midnightblue" d="M2740.75,-121.51C2438.2,-120.72 929.8,-114.9 466.88,-76.5 464.06,-76.27 461.17,-75.99 458.26,-75.67"/>
<polygon fill="midnightblue" stroke="midnightblue" points="2740.3,-125.01 2750.31,-121.54 2740.31,-118.01 2740.3,-125.01"/>
</g>
<!-- Node6 -->
<g id="node6" class="node">
<title>Node6</title>
<g id="a_node6"><a xlink:href="_parse_target_8cpp.html" target="_top" xlink:title=" ">
<polygon fill="white" stroke="black" points="476.25,-56.75 476.25,-76 563.5,-76 563.5,-56.75 476.25,-56.75"/>
<text text-anchor="middle" x="519.88" y="-62.5" font-family="Helvetica,sans-Serif" font-size="10.00">ParseTarget.cpp</text>
</a>
</g>
</g>
<!-- Node1&#45;&gt;Node6 -->
<g id="edge5" class="edge">
<title>Node1&#45;&gt;Node6</title>
<path fill="none" stroke="midnightblue" d="M2740.84,-121.63C2446.71,-121.49 1013.06,-118.62 572.88,-76.5 569.9,-76.22 566.84,-75.86 563.77,-75.45"/>
<polygon fill="midnightblue" stroke="midnightblue" points="2740.5,-125.13 2750.5,-121.63 2740.5,-118.13 2740.5,-125.13"/>
</g>
<!-- Node7 -->
<g id="node7" class="node">
<title>Node7</title>
<g id="a_node7"><a xlink:href="_forward_instruction_8cpp.html" target="_top" xlink:title=" ">
<polygon fill="white" stroke="black" points="582,-56.75 582,-76 697.75,-76 697.75,-56.75 582,-56.75"/>
<text text-anchor="middle" x="639.88" y="-62.5" font-family="Helvetica,sans-Serif" font-size="10.00">ForwardInstruction.cpp</text>
</a>
</g>
</g>
<!-- Node1&#45;&gt;Node7 -->
<g id="edge6" class="edge">
<title>Node1&#45;&gt;Node7</title>
<path fill="none" stroke="midnightblue" d="M2740.48,-121.29C2456.33,-119.41 1119.36,-108.94 706.88,-76.5 703.95,-76.27 700.96,-76 697.94,-75.69"/>
<polygon fill="midnightblue" stroke="midnightblue" points="2740.14,-124.79 2750.17,-121.36 2740.19,-117.79 2740.14,-124.79"/>
</g>
<!-- Node8 -->
<g id="node8" class="node">
<title>Node8</title>
<g id="a_node8"><a xlink:href="_use_strict_instruction_8cpp.html" target="_top" xlink:title=" ">
<polygon fill="white" stroke="black" points="716,-56.75 716,-76 837.75,-76 837.75,-56.75 716,-56.75"/>
<text text-anchor="middle" x="776.88" y="-62.5" font-family="Helvetica,sans-Serif" font-size="10.00">UseStrictInstruction.cpp</text>
</a>
</g>
</g>
<!-- Node1&#45;&gt;Node8 -->
<g id="edge7" class="edge">
<title>Node1&#45;&gt;Node8</title>
<path fill="none" stroke="midnightblue" d="M2740.61,-121.16C2468.35,-118.66 1230.12,-105.84 846.88,-76.5 843.94,-76.28 840.94,-76.01 837.92,-75.72"/>
<polygon fill="midnightblue" stroke="midnightblue" points="2740.19,-124.65 2750.22,-121.25 2740.26,-117.66 2740.19,-124.65"/>
</g>
<!-- Node9 -->
<g id="node9" class="node">
<title>Node9</title>
<g id="a_node9"><a xlink:href="_setup_8cpp.html" target="_top" xlink:title=" ">
<polygon fill="white" stroke="black" points="855.75,-56.75 855.75,-76 916,-76 916,-56.75 855.75,-56.75"/>
<text text-anchor="middle" x="885.88" y="-62.5" font-family="Helvetica,sans-Serif" font-size="10.00">Setup.cpp</text>
</a>
</g>
</g>
<!-- Node1&#45;&gt;Node9 -->
<g id="edge8" class="edge">
<title>Node1&#45;&gt;Node9</title>
<path fill="none" stroke="midnightblue" d="M2740.56,-121.82C2474.63,-122.55 1289.9,-123.11 924.88,-76.5 922.12,-76.15 919.27,-75.68 916.42,-75.15"/>
<polygon fill="midnightblue" stroke="midnightblue" points="2740.3,-125.32 2750.29,-121.79 2740.28,-118.32 2740.3,-125.32"/>
</g>
<!-- Node10 -->
<g id="node10" class="node">
<title>Node10</title>
<g id="a_node10"><a xlink:href="_rexx_memory_8cpp.html" target="_top" xlink:title=" ">
<polygon fill="white" stroke="black" points="934,-56.75 934,-76 1025.75,-76 1025.75,-56.75 934,-56.75"/>
<text text-anchor="middle" x="979.88" y="-62.5" font-family="Helvetica,sans-Serif" font-size="10.00">RexxMemory.cpp</text>
</a>
</g>
</g>
<!-- Node1&#45;&gt;Node10 -->
<g id="edge9" class="edge">
<title>Node1&#45;&gt;Node10</title>
<path fill="none" stroke="midnightblue" d="M2740.48,-121.25C2484.15,-119.33 1378.18,-109.22 1034.88,-76.5 1031.98,-76.22 1029.02,-75.89 1026.03,-75.51"/>
<polygon fill="midnightblue" stroke="midnightblue" points="2740.15,-124.75 2750.18,-121.33 2740.2,-117.75 2740.15,-124.75"/>
</g>
<!-- Node11 -->
<g id="node11" class="node">
<title>Node11</title>
<g id="a_node11"><a xlink:href="_rexx_envelope_8cpp.html" target="_top" xlink:title=" ">
<polygon fill="white" stroke="black" points="1043.62,-56.75 1043.62,-76 1142.12,-76 1142.12,-56.75 1043.62,-56.75"/>
<text text-anchor="middle" x="1092.88" y="-62.5" font-family="Helvetica,sans-Serif" font-size="10.00">RexxEnvelope.cpp</text>
</a>
</g>
</g>
<!-- Node1&#45;&gt;Node11 -->
<g id="edge10" class="edge">
<title>Node1&#45;&gt;Node11</title>
<path fill="none" stroke="midnightblue" d="M2740.5,-121.08C2494.69,-118.45 1470.11,-105.87 1150.88,-76.5 1148.13,-76.25 1145.33,-75.95 1142.5,-75.61"/>
<polygon fill="midnightblue" stroke="midnightblue" points="2740.39,-124.58 2750.43,-121.19 2740.47,-117.58 2740.39,-124.58"/>
</g>
<!-- Node12 -->
<g id="node12" class="node">
<title>Node12</title>
<g id="a_node12"><a xlink:href="_array_class_8cpp.html" target="_top" xlink:title=" ">
<polygon fill="white" stroke="black" points="1160.12,-56.75 1160.12,-76 1243.62,-76 1243.62,-56.75 1160.12,-56.75"/>
<text text-anchor="middle" x="1201.88" y="-62.5" font-family="Helvetica,sans-Serif" font-size="10.00">ArrayClass.cpp</text>
</a>
</g>
</g>
<!-- Node1&#45;&gt;Node12 -->
<g id="edge11" class="edge">
<title>Node1&#45;&gt;Node12</title>
<path fill="none" stroke="midnightblue" d="M2740.38,-121.12C2503.84,-118.73 1550.52,-107.31 1252.88,-76.5 1250.01,-76.2 1247.07,-75.84 1244.11,-75.43"/>
<polygon fill="midnightblue" stroke="midnightblue" points="2740.19,-124.62 2750.22,-121.22 2740.26,-117.62 2740.19,-124.62"/>
</g>
<!-- Node13 -->
<g id="node13" class="node">
<title>Node13</title>
<g id="a_node13"><a xlink:href="_stem_class_8cpp.html" target="_top" xlink:title=" ">
<polygon fill="white" stroke="black" points="1262.12,-56.75 1262.12,-76 1345.62,-76 1345.62,-56.75 1262.12,-56.75"/>
<text text-anchor="middle" x="1303.88" y="-62.5" font-family="Helvetica,sans-Serif" font-size="10.00">StemClass.cpp</text>
</a>
</g>
</g>
<!-- Node1&#45;&gt;Node13 -->
<g id="edge12" class="edge">
<title>Node1&#45;&gt;Node13</title>
<path fill="none" stroke="midnightblue" d="M2740.63,-121C2514.33,-118.16 1631.44,-105.42 1354.88,-76.5 1352.01,-76.2 1349.07,-75.83 1346.11,-75.42"/>
<polygon fill="midnightblue" stroke="midnightblue" points="2740.27,-124.49 2750.31,-121.12 2740.36,-117.49 2740.27,-124.49"/>
</g>
<!-- Node14 -->
<g id="node14" class="node">
<title>Node14</title>
<g id="a_node14"><a xlink:href="_number_string_math_8cpp.html" target="_top" xlink:title=" ">
<polygon fill="white" stroke="black" points="1363.62,-56.75 1363.62,-76 1480.12,-76 1480.12,-56.75 1363.62,-56.75"/>
<text text-anchor="middle" x="1421.88" y="-62.5" font-family="Helvetica,sans-Serif" font-size="10.00">NumberStringMath.cpp</text>
</a>
</g>
</g>
<!-- Node1&#45;&gt;Node14 -->
<g id="edge13" class="edge">
<title>Node1&#45;&gt;Node14</title>
<path fill="none" stroke="midnightblue" d="M2740.44,-121.71C2562.45,-121.56 1973.51,-117.78 1488.88,-76.5 1486.07,-76.26 1483.2,-75.99 1480.3,-75.69"/>
<polygon fill="midnightblue" stroke="midnightblue" points="2740.3,-125.21 2750.3,-121.71 2740.3,-118.21 2740.3,-125.21"/>
</g>
<!-- Node15 -->
<g id="node15" class="node">
<title>Node15</title>
<g id="a_node15"><a xlink:href="_integer_class_8cpp.html" target="_top" xlink:title=" ">
<polygon fill="white" stroke="black" points="1497.75,-56.75 1497.75,-76 1588,-76 1588,-56.75 1497.75,-56.75"/>
<text text-anchor="middle" x="1542.88" y="-62.5" font-family="Helvetica,sans-Serif" font-size="10.00">IntegerClass.cpp</text>
</a>
</g>
</g>
<!-- Node1&#45;&gt;Node15 -->
<g id="edge14" class="edge">
<title>Node1&#45;&gt;Node15</title>
<path fill="none" stroke="midnightblue" d="M2740.36,-122.08C2571.77,-122.97 2036.77,-121.77 1596.88,-76.5 1594.13,-76.22 1591.32,-75.88 1588.48,-75.51"/>
<polygon fill="midnightblue" stroke="midnightblue" points="2740.37,-125.58 2750.35,-122.02 2740.33,-118.58 2740.37,-125.58"/>
</g>
<!-- Node16 -->
<g id="node16" class="node">
<title>Node16</title>
<g id="a_node16"><a xlink:href="_message_class_8cpp.html" target="_top" xlink:title=" ">
<polygon fill="white" stroke="black" points="1605.88,-56.75 1605.88,-76 1705.88,-76 1705.88,-56.75 1605.88,-56.75"/>
<text text-anchor="middle" x="1655.88" y="-62.5" font-family="Helvetica,sans-Serif" font-size="10.00">MessageClass.cpp</text>
</a>
</g>
</g>
<!-- Node1&#45;&gt;Node16 -->
<g id="edge15" class="edge">
<title>Node1&#45;&gt;Node16</title>
<path fill="none" stroke="midnightblue" d="M2740.65,-121.5C2583.4,-120.68 2107.4,-114.94 1714.88,-76.5 1712.09,-76.23 1709.24,-75.91 1706.36,-75.56"/>
<polygon fill="midnightblue" stroke="midnightblue" points="2740.32,-125 2750.33,-121.54 2740.35,-118 2740.32,-125"/>
</g>
<!-- Node17 -->
<g id="node17" class="node">
<title>Node17</title>
<g id="a_node17"><a xlink:href="_number_string_math2_8cpp.html" target="_top" xlink:title=" ">
<polygon fill="white" stroke="black" points="1724,-56.75 1724,-76 1845.75,-76 1845.75,-56.75 1724,-56.75"/>
<text text-anchor="middle" x="1784.88" y="-62.5" font-family="Helvetica,sans-Serif" font-size="10.00">NumberStringMath2.cpp</text>
</a>
</g>
</g>
<!-- Node1&#45;&gt;Node17 -->
<g id="edge16" class="edge">
<title>Node1&#45;&gt;Node17</title>
<path fill="none" stroke="midnightblue" d="M2740.18,-120.58C2596.42,-117.44 2190.88,-106.42 1854.88,-76.5 1851.95,-76.24 1848.95,-75.95 1845.93,-75.63"/>
<polygon fill="midnightblue" stroke="midnightblue" points="2740.09,-124.08 2750.16,-120.79 2740.24,-117.08 2740.09,-124.08"/>
</g>
<!-- Node18 -->
<g id="node18" class="node">
<title>Node18</title>
<g id="a_node18"><a xlink:href="_class_class_8cpp.html" target="_top" xlink:title=" ">
<polygon fill="white" stroke="black" points="1864,-56.75 1864,-76 1949.75,-76 1949.75,-56.75 1864,-56.75"/>
<text text-anchor="middle" x="1906.88" y="-62.5" font-family="Helvetica,sans-Serif" font-size="10.00">ClassClass.cpp</text>
</a>
</g>
</g>
<!-- Node1&#45;&gt;Node18 -->
<g id="edge17" class="edge">
<title>Node1&#45;&gt;Node18</title>
<path fill="none" stroke="midnightblue" d="M2740.64,-120.96C2608.11,-118.81 2252.9,-110.12 1958.88,-76.5 1956.05,-76.18 1953.15,-75.8 1950.23,-75.38"/>
<polygon fill="midnightblue" stroke="midnightblue" points="2740.46,-124.45 2750.51,-121.11 2740.57,-117.45 2740.46,-124.45"/>
</g>
<!-- Node19 -->
<g id="node19" class="node">
<title>Node19</title>
<g id="a_node19"><a xlink:href="_supplier_class_8cpp.html" target="_top" xlink:title=" ">
<polygon fill="white" stroke="black" points="1968.12,-56.75 1968.12,-76 2063.62,-76 2063.62,-56.75 1968.12,-56.75"/>
<text text-anchor="middle" x="2015.88" y="-62.5" font-family="Helvetica,sans-Serif" font-size="10.00">SupplierClass.cpp</text>
</a>
</g>
</g>
<!-- Node1&#45;&gt;Node19 -->
<g id="edge18" class="edge">
<title>Node1&#45;&gt;Node19</title>
<path fill="none" stroke="midnightblue" d="M2740.54,-120.04C2620.82,-116.11 2321.68,-104.14 2072.88,-76.5 2069.99,-76.18 2067.02,-75.81 2064.03,-75.42"/>
<polygon fill="midnightblue" stroke="midnightblue" points="2740.28,-123.54 2750.39,-120.36 2740.5,-116.54 2740.28,-123.54"/>
</g>
<!-- Node20 -->
<g id="node20" class="node">
<title>Node20</title>
<g id="a_node20"><a xlink:href="_object_class_8cpp.html" target="_top" xlink:title=" ">
<polygon fill="white" stroke="black" points="2081.5,-56.75 2081.5,-76 2170.25,-76 2170.25,-56.75 2081.5,-56.75"/>
<text text-anchor="middle" x="2125.88" y="-62.5" font-family="Helvetica,sans-Serif" font-size="10.00">ObjectClass.cpp</text>
</a>
</g>
</g>
<!-- Node1&#45;&gt;Node20 -->
<g id="edge19" class="edge">
<title>Node1&#45;&gt;Node20</title>
<path fill="none" stroke="midnightblue" d="M2740.57,-119.46C2633.7,-114.74 2385.77,-101.84 2178.88,-76.5 2176.19,-76.17 2173.43,-75.8 2170.65,-75.4"/>
<polygon fill="midnightblue" stroke="midnightblue" points="2740.32,-122.95 2750.47,-119.89 2740.63,-115.96 2740.32,-122.95"/>
</g>
<!-- Node21 -->
<g id="node21" class="node">
<title>Node21</title>
<g id="a_node21"><a xlink:href="_list_class_8cpp.html" target="_top" xlink:title=" ">
<polygon fill="white" stroke="black" points="2187.88,-56.75 2187.88,-76 2263.88,-76 2263.88,-56.75 2187.88,-56.75"/>
<text text-anchor="middle" x="2225.88" y="-62.5" font-family="Helvetica,sans-Serif" font-size="10.00">ListClass.cpp</text>
</a>
</g>
</g>
<!-- Node1&#45;&gt;Node21 -->
<g id="edge20" class="edge">
<title>Node1&#45;&gt;Node21</title>
<path fill="none" stroke="midnightblue" d="M2740.58,-118.87C2646.04,-113.56 2442.91,-100.3 2272.88,-76.5 2270.08,-76.11 2267.19,-75.66 2264.29,-75.18"/>
<polygon fill="midnightblue" stroke="midnightblue" points="2740.15,-122.35 2750.32,-119.41 2740.53,-115.36 2740.15,-122.35"/>
</g>
<!-- Node22 -->
<g id="node22" class="node">
<title>Node22</title>
<g id="a_node22"><a xlink:href="_directory_class_8cpp.html" target="_top" xlink:title=" ">
<polygon fill="white" stroke="black" points="2281.88,-56.75 2281.88,-76 2381.88,-76 2381.88,-56.75 2281.88,-56.75"/>
<text text-anchor="middle" x="2331.88" y="-62.5" font-family="Helvetica,sans-Serif" font-size="10.00">DirectoryClass.cpp</text>
</a>
</g>
</g>
<!-- Node1&#45;&gt;Node22 -->
<g id="edge21" class="edge">
<title>Node1&#45;&gt;Node22</title>
<path fill="none" stroke="midnightblue" d="M2740.41,-116.36C2663.15,-108.59 2515.83,-93.15 2390.88,-76.5 2388,-76.12 2385.05,-75.71 2382.07,-75.28"/>
<polygon fill="midnightblue" stroke="midnightblue" points="2739.94,-119.83 2750.24,-117.34 2740.63,-112.86 2739.94,-119.83"/>
</g>
<!-- Node23 -->
<g id="node23" class="node">
<title>Node23</title>
<g id="a_node23"><a xlink:href="_relation_class_8cpp.html" target="_top" xlink:title=" ">
<polygon fill="white" stroke="black" points="2399.75,-56.75 2399.75,-76 2496,-76 2496,-56.75 2399.75,-56.75"/>
<text text-anchor="middle" x="2447.88" y="-62.5" font-family="Helvetica,sans-Serif" font-size="10.00">RelationClass.cpp</text>
</a>
</g>
</g>
<!-- Node1&#45;&gt;Node23 -->
<g id="edge22" class="edge">
<title>Node1&#45;&gt;Node23</title>
<path fill="none" stroke="midnightblue" d="M2740.67,-113.38C2682.68,-104.38 2587.17,-89.51 2504.88,-76.5 2502.1,-76.06 2499.26,-75.61 2496.38,-75.15"/>
<polygon fill="midnightblue" stroke="midnightblue" points="2739.83,-116.79 2750.25,-114.87 2740.91,-109.88 2739.83,-116.79"/>
</g>
<!-- Node24 -->
<g id="node24" class="node">
<title>Node24</title>
<g id="a_node24"><a xlink:href="_method_class_8cpp.html" target="_top" xlink:title=" ">
<polygon fill="white" stroke="black" points="2513.62,-56.75 2513.62,-76 2606.12,-76 2606.12,-56.75 2513.62,-56.75"/>
<text text-anchor="middle" x="2559.88" y="-62.5" font-family="Helvetica,sans-Serif" font-size="10.00">MethodClass.cpp</text>
</a>
</g>
</g>
<!-- Node1&#45;&gt;Node24 -->
<g id="edge23" class="edge">
<title>Node1&#45;&gt;Node24</title>
<path fill="none" stroke="midnightblue" d="M2743.58,-109.97C2700.35,-99.94 2638.87,-85.69 2599.17,-76.48"/>
<polygon fill="midnightblue" stroke="midnightblue" points="2742.7,-113.35 2753.23,-112.2 2744.28,-106.53 2742.7,-113.35"/>
</g>
<!-- Node25 -->
<g id="node25" class="node">
<title>Node25</title>
<g id="a_node25"><a xlink:href="_package_class_8cpp.html" target="_top" xlink:title=" ">
<polygon fill="white" stroke="black" points="2624.62,-56.75 2624.62,-76 2723.12,-76 2723.12,-56.75 2624.62,-56.75"/>
<text text-anchor="middle" x="2673.88" y="-62.5" font-family="Helvetica,sans-Serif" font-size="10.00">PackageClass.cpp</text>
</a>
</g>
</g>
<!-- Node1&#45;&gt;Node25 -->
<g id="edge24" class="edge">
<title>Node1&#45;&gt;Node25</title>
<path fill="none" stroke="midnightblue" d="M2763.43,-107.86C2741.67,-98.03 2713,-85.06 2694.03,-76.48"/>
<polygon fill="midnightblue" stroke="midnightblue" points="2761.86,-110.99 2772.41,-111.92 2764.74,-104.61 2761.86,-110.99"/>
</g>
<!-- Node26 -->
<g id="node26" class="node">
<title>Node26</title>
<g id="a_node26"><a xlink:href="_rexx_hash_table_8cpp.html" target="_top" xlink:title=" ">
<polygon fill="white" stroke="black" points="2741.62,-56.75 2741.62,-76 2846.12,-76 2846.12,-56.75 2741.62,-56.75"/>
<text text-anchor="middle" x="2793.88" y="-62.5" font-family="Helvetica,sans-Serif" font-size="10.00">RexxHashTable.cpp</text>
</a>
</g>
</g>
<!-- Node1&#45;&gt;Node26 -->
<g id="edge25" class="edge">
<title>Node1&#45;&gt;Node26</title>
<path fill="none" stroke="midnightblue" d="M2793.88,-101.44C2793.88,-92.73 2793.88,-82.99 2793.88,-76.17"/>
<polygon fill="midnightblue" stroke="midnightblue" points="2790.38,-101.15 2793.88,-111.15 2797.38,-101.15 2790.38,-101.15"/>
</g>
<!-- Node27 -->
<g id="node27" class="node">
<title>Node27</title>
<g id="a_node27"><a xlink:href="_rexx_collection_8cpp.html" target="_top" xlink:title=" ">
<polygon fill="white" stroke="black" points="2864.12,-56.75 2864.12,-76 2965.62,-76 2965.62,-56.75 2864.12,-56.75"/>
<text text-anchor="middle" x="2914.88" y="-62.5" font-family="Helvetica,sans-Serif" font-size="10.00">RexxCollection.cpp</text>
</a>
</g>
</g>
<!-- Node1&#45;&gt;Node27 -->
<g id="edge26" class="edge">
<title>Node1&#45;&gt;Node27</title>
<path fill="none" stroke="midnightblue" d="M2824.57,-107.86C2846.51,-98.03 2875.43,-85.06 2894.56,-76.48"/>
<polygon fill="midnightblue" stroke="midnightblue" points="2823.2,-104.64 2815.51,-111.93 2826.07,-111.03 2823.2,-104.64"/>
</g>
<!-- Node28 -->
<g id="node28" class="node">
<title>Node28</title>
<g id="a_node28"><a xlink:href="_routine_class_8cpp.html" target="_top" xlink:title=" ">
<polygon fill="white" stroke="black" points="2983.88,-56.75 2983.88,-76 3077.88,-76 3077.88,-56.75 2983.88,-56.75"/>
<text text-anchor="middle" x="3030.88" y="-62.5" font-family="Helvetica,sans-Serif" font-size="10.00">RoutineClass.cpp</text>
</a>
</g>
</g>
<!-- Node1&#45;&gt;Node28 -->
<g id="edge27" class="edge">
<title>Node1&#45;&gt;Node28</title>
<path fill="none" stroke="midnightblue" d="M2844.53,-110.03C2888.33,-100 2950.78,-85.71 2991.08,-76.48"/>
<polygon fill="midnightblue" stroke="midnightblue" points="2843.99,-106.56 2835.02,-112.21 2845.55,-113.39 2843.99,-106.56"/>
</g>
<!-- Node29 -->
<g id="node29" class="node">
<title>Node29</title>
<g id="a_node29"><a xlink:href="_rexx_main_8cpp.html" target="_top" xlink:title=" ">
<polygon fill="white" stroke="black" points="3096.38,-56.75 3096.38,-76 3175.38,-76 3175.38,-56.75 3096.38,-56.75"/>
<text text-anchor="middle" x="3135.88" y="-62.5" font-family="Helvetica,sans-Serif" font-size="10.00">RexxMain.cpp</text>
</a>
</g>
</g>
<!-- Node1&#45;&gt;Node29 -->
<g id="edge28" class="edge">
<title>Node1&#45;&gt;Node29</title>
<path fill="none" stroke="midnightblue" d="M2846.89,-113.97C2905.64,-105.37 3003.16,-90.74 3086.88,-76.5 3089.86,-75.99 3092.95,-75.45 3096.05,-74.9"/>
<polygon fill="midnightblue" stroke="midnightblue" points="2846.56,-110.48 2837.17,-115.39 2847.57,-117.41 2846.56,-110.48"/>
</g>
<!-- Node30 -->
<g id="node30" class="node">
<title>Node30</title>
<g id="a_node30"><a xlink:href="unix_2_external_functions_8cpp.html" target="_top" xlink:title=" ">
<polygon fill="white" stroke="black" points="3193.12,-56.75 3193.12,-76 3306.62,-76 3306.62,-56.75 3193.12,-56.75"/>
<text text-anchor="middle" x="3249.88" y="-62.5" font-family="Helvetica,sans-Serif" font-size="10.00">ExternalFunctions.cpp</text>
</a>
</g>
</g>
<!-- Node1&#45;&gt;Node30 -->
<g id="edge29" class="edge">
<title>Node1&#45;&gt;Node30</title>
<path fill="none" stroke="midnightblue" d="M2846.91,-115.92C2922.15,-107.74 3064.15,-91.94 3184.88,-76.5 3187.47,-76.17 3190.13,-75.82 3192.82,-75.47"/>
<polygon fill="midnightblue" stroke="midnightblue" points="2846.94,-112.4 2837.37,-116.96 2847.69,-119.36 2846.94,-112.4"/>
</g>
<!-- Node31 -->
<g id="node31" class="node">
<title>Node31</title>
<g id="a_node31"><a xlink:href="windows_2_external_functions_8cpp.html" target="_top" xlink:title=" ">
<polygon fill="white" stroke="black" points="3325.12,-56.75 3325.12,-76 3438.62,-76 3438.62,-56.75 3325.12,-56.75"/>
<text text-anchor="middle" x="3381.88" y="-62.5" font-family="Helvetica,sans-Serif" font-size="10.00">ExternalFunctions.cpp</text>
</a>
</g>
</g>
<!-- Node1&#45;&gt;Node31 -->
<g id="edge30" class="edge">
<title>Node1&#45;&gt;Node31</title>
<path fill="none" stroke="midnightblue" d="M2847.15,-117.92C2941.69,-111.15 3144.93,-95.69 3315.88,-76.5 3318.75,-76.18 3321.69,-75.83 3324.66,-75.47"/>
<polygon fill="midnightblue" stroke="midnightblue" points="2847.13,-114.42 2837.41,-118.62 2847.63,-121.4 2847.13,-114.42"/>
</g>
<!-- Node32 -->
<g id="node32" class="node">
<title>Node32</title>
<g id="a_node32"><a xlink:href="_global_names_8cpp.html" target="_top" xlink:title=" ">
<polygon fill="white" stroke="black" points="3456.88,-56.75 3456.88,-76 3550.88,-76 3550.88,-56.75 3456.88,-56.75"/>
<text text-anchor="middle" x="3503.88" y="-62.5" font-family="Helvetica,sans-Serif" font-size="10.00">GlobalNames.cpp</text>
</a>
</g>
</g>
<!-- Node1&#45;&gt;Node32 -->
<g id="edge31" class="edge">
<title>Node1&#45;&gt;Node32</title>
<path fill="none" stroke="midnightblue" d="M2847.36,-119.61C2959.16,-115.04 3225.67,-102.21 3447.88,-76.5 3450.71,-76.17 3453.63,-75.8 3456.56,-75.4"/>
<polygon fill="midnightblue" stroke="midnightblue" points="2847.44,-116.11 2837.59,-120.01 2847.73,-123.1 2847.44,-116.11"/>
</g>
<!-- Node33 -->
<g id="node33" class="node">
<title>Node33</title>
<g id="a_node33"><a xlink:href="_rexx_misc_8cpp.html" target="_top" xlink:title=" ">
<polygon fill="white" stroke="black" points="3569.38,-56.75 3569.38,-76 3648.38,-76 3648.38,-56.75 3569.38,-56.75"/>
<text text-anchor="middle" x="3608.88" y="-62.5" font-family="Helvetica,sans-Serif" font-size="10.00">RexxMisc.cpp</text>
</a>
</g>
</g>
<!-- Node1&#45;&gt;Node33 -->
<g id="edge32" class="edge">
<title>Node1&#45;&gt;Node33</title>
<path fill="none" stroke="midnightblue" d="M2847.47,-120.77C2972.63,-118.28 3293.74,-108.99 3559.88,-76.5 3562.88,-76.13 3565.98,-75.7 3569.09,-75.21"/>
<polygon fill="midnightblue" stroke="midnightblue" points="2847.42,-117.27 2837.49,-120.97 2847.55,-124.27 2847.42,-117.27"/>
</g>
<!-- Node34 -->
<g id="node34" class="node">
<title>Node34</title>
<g id="a_node34"><a xlink:href="_source_file_8cpp.html" target="_top" xlink:title=" ">
<polygon fill="white" stroke="black" points="3666.25,-56.75 3666.25,-76 3747.5,-76 3747.5,-56.75 3666.25,-56.75"/>
<text text-anchor="middle" x="3706.88" y="-62.5" font-family="Helvetica,sans-Serif" font-size="10.00">SourceFile.cpp</text>
</a>
</g>
</g>
<!-- Node1&#45;&gt;Node34 -->
<g id="edge33" class="edge">
<title>Node1&#45;&gt;Node34</title>
<path fill="none" stroke="midnightblue" d="M2847.11,-121.28C2982.79,-119.88 3352.43,-112.76 3657.88,-76.5 3660.45,-76.19 3663.1,-75.83 3665.76,-75.44"/>
<polygon fill="midnightblue" stroke="midnightblue" points="2847.33,-117.78 2837.36,-121.38 2847.4,-124.78 2847.33,-117.78"/>
</g>
<!-- Node35 -->
<g id="node35" class="node">
<title>Node35</title>
<g id="a_node35"><a xlink:href="_clause_8cpp.html" target="_top" xlink:title=" ">
<polygon fill="white" stroke="black" points="3792.12,-0.5 3792.12,-19.75 3857.62,-19.75 3857.62,-0.5 3792.12,-0.5"/>
<text text-anchor="middle" x="3824.88" y="-6.25" font-family="Helvetica,sans-Serif" font-size="10.00">Clause.cpp</text>
</a>
</g>
</g>
<!-- Node1&#45;&gt;Node35 -->
<g id="edge34" class="edge">
<title>Node1&#45;&gt;Node35</title>
<path fill="none" stroke="midnightblue" d="M2847.45,-121.31C3037.63,-119.88 3673.34,-112.44 3756.88,-76.5 3785.16,-64.33 3808.57,-34.78 3819.02,-19.94"/>
<polygon fill="midnightblue" stroke="midnightblue" points="2847.59,-117.81 2837.62,-121.38 2847.64,-124.81 2847.59,-117.81"/>
</g>
<!-- Node36 -->
<g id="node36" class="node">
<title>Node36</title>
<g id="a_node36"><a xlink:href="_scanner_8cpp.html" target="_top" xlink:title=" ">
<polygon fill="white" stroke="black" points="3803.88,-56.75 3803.88,-76 3873.88,-76 3873.88,-56.75 3803.88,-56.75"/>
<text text-anchor="middle" x="3838.88" y="-62.5" font-family="Helvetica,sans-Serif" font-size="10.00">Scanner.cpp</text>
</a>
</g>
</g>
<!-- Node1&#45;&gt;Node36 -->
<g id="edge35" class="edge">
<title>Node1&#45;&gt;Node36</title>
<path fill="none" stroke="midnightblue" d="M2847.3,-121.81C2996.74,-121.75 3431.59,-117.77 3789.88,-76.5 3794.35,-75.99 3799.02,-75.3 3803.63,-74.54"/>
<polygon fill="midnightblue" stroke="midnightblue" points="2847.3,-118.31 2837.3,-121.8 2847.3,-125.31 2847.3,-118.31"/>
</g>
<!-- Node37 -->
<g id="node37" class="node">
<title>Node37</title>
<g id="a_node37"><a xlink:href="_clause_8hpp.html" target="_top" xlink:title=" ">
<polygon fill="white" stroke="red" points="3892.12,-56.75 3892.12,-76 3957.62,-76 3957.62,-56.75 3892.12,-56.75"/>
<text text-anchor="middle" x="3924.88" y="-62.5" font-family="Helvetica,sans-Serif" font-size="10.00">Clause.hpp</text>
</a>
</g>
</g>
<!-- Node1&#45;&gt;Node37 -->
<g id="edge36" class="edge">
<title>Node1&#45;&gt;Node37</title>
<path fill="none" stroke="midnightblue" d="M2847.29,-120.63C3037.16,-116.91 3679.05,-102.67 3882.88,-76.5 3885.84,-76.12 3888.9,-75.64 3891.95,-75.09"/>
<polygon fill="midnightblue" stroke="midnightblue" points="2847.41,-117.13 2837.48,-120.82 2847.54,-124.13 2847.41,-117.13"/>
</g>
<!-- Node62 -->
<g id="node38" class="node">
<title>Node62</title>
<g id="a_node38"><a xlink:href="_virtual_function_table_8cpp.html" target="_top" xlink:title=" ">
<polygon fill="white" stroke="black" points="3893.25,-0.5 3893.25,-19.75 4016.5,-19.75 4016.5,-0.5 3893.25,-0.5"/>
<text text-anchor="middle" x="3954.88" y="-6.25" font-family="Helvetica,sans-Serif" font-size="10.00">VirtualFunctionTable.cpp</text>
</a>
</g>
</g>
<!-- Node1&#45;&gt;Node62 -->
<g id="edge50" class="edge">
<title>Node1&#45;&gt;Node62</title>
<path fill="none" stroke="midnightblue" d="M2847.55,-121.61C3072.25,-121.27 3927.61,-117.3 3966.88,-76.5 3981.6,-61.2 3968.96,-34.12 3960.68,-20.1"/>
<polygon fill="midnightblue" stroke="midnightblue" points="2847.61,-118.11 2837.61,-121.62 2847.62,-125.11 2847.61,-118.11"/>
</g>
<!-- Node47 -->
<g id="node39" class="node">
<title>Node47</title>
<g id="a_node39"><a xlink:href="_instruction_parser_8cpp.html" target="_top" xlink:title=" ">
<polygon fill="white" stroke="black" points="4013.75,-56.75 4013.75,-76 4122,-76 4122,-56.75 4013.75,-56.75"/>
<text text-anchor="middle" x="4067.88" y="-62.5" font-family="Helvetica,sans-Serif" font-size="10.00">InstructionParser.cpp</text>
</a>
</g>
</g>
<!-- Node1&#45;&gt;Node47 -->
<g id="edge39" class="edge">
<title>Node1&#45;&gt;Node47</title>
<path fill="none" stroke="midnightblue" d="M2847.18,-121.45C3016.25,-120.52 3555.48,-114.54 3999.88,-76.5 4004.27,-76.12 4008.81,-75.67 4013.37,-75.16"/>
<polygon fill="midnightblue" stroke="midnightblue" points="2847.38,-117.95 2837.4,-121.5 2847.42,-124.95 2847.38,-117.95"/>
</g>
<!-- Node49 -->
<g id="node40" class="node">
<title>Node49</title>
<g id="a_node40"><a xlink:href="_rexx_activity_8cpp.html" target="_top" xlink:title=" ">
<polygon fill="white" stroke="black" points="4140.12,-56.75 4140.12,-76 4229.62,-76 4229.62,-56.75 4140.12,-56.75"/>
<text text-anchor="middle" x="4184.88" y="-62.5" font-family="Helvetica,sans-Serif" font-size="10.00">RexxActivity.cpp</text>
</a>
</g>
</g>
<!-- Node1&#45;&gt;Node49 -->
<g id="edge40" class="edge">
<title>Node1&#45;&gt;Node49</title>
<path fill="none" stroke="midnightblue" d="M2847.17,-120.78C3063.32,-117.2 3875.33,-102.29 4130.88,-76.5 4133.81,-76.2 4136.82,-75.85 4139.85,-75.45"/>
<polygon fill="midnightblue" stroke="midnightblue" points="2847.3,-117.28 2837.36,-120.94 2847.42,-124.28 2847.3,-117.28"/>
</g>
<!-- Node51 -->
<g id="node41" class="node">
<title>Node51</title>
<g id="a_node41"><a xlink:href="_rexx_native_activation_8cpp.html" target="_top" xlink:title=" ">
<polygon fill="white" stroke="black" points="4247.88,-56.75 4247.88,-76 4377.88,-76 4377.88,-56.75 4247.88,-56.75"/>
<text text-anchor="middle" x="4312.88" y="-62.5" font-family="Helvetica,sans-Serif" font-size="10.00">RexxNativeActivation.cpp</text>
</a>
</g>
</g>
<!-- Node1&#45;&gt;Node51 -->
<g id="edge41" class="edge">
<title>Node1&#45;&gt;Node51</title>
<path fill="none" stroke="midnightblue" d="M2847.21,-121.72C3036.9,-121.67 3696.56,-118.32 4238.88,-76.5 4241.71,-76.28 4244.61,-76.03 4247.54,-75.76"/>
<polygon fill="midnightblue" stroke="midnightblue" points="2847.43,-118.22 2837.43,-121.72 2847.43,-125.22 2847.43,-118.22"/>
</g>
<!-- Node52 -->
<g id="node42" class="node">
<title>Node52</title>
<g id="a_node42"><a xlink:href="_rexx_code_8cpp.html" target="_top" xlink:title=" ">
<polygon fill="white" stroke="black" points="4396.25,-56.75 4396.25,-76 4477.5,-76 4477.5,-56.75 4396.25,-56.75"/>
<text text-anchor="middle" x="4436.88" y="-62.5" font-family="Helvetica,sans-Serif" font-size="10.00">RexxCode.cpp</text>
</a>
</g>
</g>
<!-- Node1&#45;&gt;Node52 -->
<g id="edge42" class="edge">
<title>Node1&#45;&gt;Node52</title>
<path fill="none" stroke="midnightblue" d="M2847.22,-121.21C3088.39,-119.14 4078.41,-108.83 4386.88,-76.5 4389.86,-76.19 4392.93,-75.8 4396.02,-75.35"/>
<polygon fill="midnightblue" stroke="midnightblue" points="2847.46,-117.7 2837.49,-121.29 2847.52,-124.7 2847.46,-117.7"/>
</g>
<!-- Node54 -->
<g id="node43" class="node">
<title>Node54</title>
<g id="a_node43"><a xlink:href="_rexx_variable_dictionary_8cpp.html" target="_top" xlink:title=" ">
<polygon fill="white" stroke="black" points="4495.25,-56.75 4495.25,-76 4630.5,-76 4630.5,-56.75 4495.25,-56.75"/>
<text text-anchor="middle" x="4562.88" y="-62.5" font-family="Helvetica,sans-Serif" font-size="10.00">RexxVariableDictionary.cpp</text>
</a>
</g>
</g>
<!-- Node1&#45;&gt;Node54 -->
<g id="edge43" class="edge">
<title>Node1&#45;&gt;Node54</title>
<path fill="none" stroke="midnightblue" d="M2847.07,-122C3056.22,-123.11 3842.2,-123.69 4486.88,-76.5 4489.53,-76.31 4492.23,-76.09 4494.95,-75.85"/>
<polygon fill="midnightblue" stroke="midnightblue" points="2847.36,-118.5 2837.34,-121.95 2847.32,-125.5 2847.36,-118.5"/>
</g>
<!-- Node55 -->
<g id="node44" class="node">
<title>Node55</title>
<g id="a_node44"><a xlink:href="_c_p_p_code_8cpp.html" target="_top" xlink:title=" ">
<polygon fill="white" stroke="black" points="4648.38,-56.75 4648.38,-76 4727.38,-76 4727.38,-56.75 4648.38,-56.75"/>
<text text-anchor="middle" x="4687.88" y="-62.5" font-family="Helvetica,sans-Serif" font-size="10.00">CPPCode.cpp</text>
</a>
</g>
</g>
<!-- Node1&#45;&gt;Node55 -->
<g id="edge44" class="edge">
<title>Node1&#45;&gt;Node55</title>
<path fill="none" stroke="midnightblue" d="M2846.93,-121.5C3110.26,-120.7 4278.65,-114.99 4639.88,-76.5 4642.49,-76.22 4645.18,-75.88 4647.88,-75.49"/>
<polygon fill="midnightblue" stroke="midnightblue" points="2847.29,-118 2837.3,-121.53 2847.31,-125 2847.29,-118"/>
</g>
<!-- Node113 -->
<g id="node45" class="node">
<title>Node113</title>
<g id="a_node45"><a xlink:href="_thread_context_stubs_8cpp.html" target="_top" xlink:title=" ">
<polygon fill="white" stroke="black" points="4745.5,-56.75 4745.5,-76 4870.25,-76 4870.25,-56.75 4745.5,-56.75"/>
<text text-anchor="middle" x="4807.88" y="-62.5" font-family="Helvetica,sans-Serif" font-size="10.00">ThreadContextStubs.cpp</text>
</a>
</g>
</g>
<!-- Node1&#45;&gt;Node113 -->
<g id="edge45" class="edge">
<title>Node1&#45;&gt;Node113</title>
<path fill="none" stroke="midnightblue" d="M2847.43,-121.14C3119.95,-118.56 4354.58,-105.43 4736.88,-76.5 4739.6,-76.29 4742.38,-76.06 4745.19,-75.79"/>
<polygon fill="midnightblue" stroke="midnightblue" points="2847.4,-117.64 2837.44,-121.23 2847.47,-124.64 2847.4,-117.64"/>
</g>
<!-- Node104 -->
<g id="node46" class="node">
<title>Node104</title>
<g id="a_node46"><a xlink:href="_indirect_variable_reference_8cpp.html" target="_top" xlink:title=" ">
<polygon fill="white" stroke="black" points="4888.62,-56.75 4888.62,-76 5035.12,-76 5035.12,-56.75 4888.62,-56.75"/>
<text text-anchor="middle" x="4961.88" y="-62.5" font-family="Helvetica,sans-Serif" font-size="10.00">IndirectVariableReference.cpp</text>
</a>
</g>
</g>
<!-- Node1&#45;&gt;Node104 -->
<g id="edge46" class="edge">
<title>Node1&#45;&gt;Node104</title>
<path fill="none" stroke="midnightblue" d="M2847.21,-121.11C3131.01,-118.25 4466.4,-103.58 4878.88,-76.5 4881.91,-76.3 4885.01,-76.07 4888.14,-75.82"/>
<polygon fill="midnightblue" stroke="midnightblue" points="2847.5,-117.6 2837.53,-121.2 2847.57,-124.6 2847.5,-117.6"/>
</g>
<!-- Node105 -->
<g id="node47" class="node">
<title>Node105</title>
<g id="a_node47"><a xlink:href="_builtin_functions_8cpp.html" target="_top" xlink:title=" ">
<polygon fill="white" stroke="black" points="5053.62,-56.75 5053.62,-76 5158.12,-76 5158.12,-56.75 5053.62,-56.75"/>
<text text-anchor="middle" x="5105.88" y="-62.5" font-family="Helvetica,sans-Serif" font-size="10.00">BuiltinFunctions.cpp</text>
</a>
</g>
</g>
<!-- Node1&#45;&gt;Node105 -->
<g id="edge47" class="edge">
<title>Node1&#45;&gt;Node105</title>
<path fill="none" stroke="midnightblue" d="M2847.1,-121.47C3143.91,-120.47 4597.22,-113.7 5043.88,-76.5 5046.91,-76.25 5050.02,-75.94 5053.16,-75.59"/>
<polygon fill="midnightblue" stroke="midnightblue" points="2847.33,-117.97 2837.35,-121.5 2847.36,-124.97 2847.33,-117.97"/>
</g>
<!-- Node114 -->
<g id="node48" class="node">
<title>Node114</title>
<g id="a_node48"><a xlink:href="_expression_stack_8hpp.html" target="_top" xlink:title=" ">
<polygon fill="white" stroke="red" points="5176.38,-56.75 5176.38,-76 5285.38,-76 5285.38,-56.75 5176.38,-56.75"/>
<text text-anchor="middle" x="5230.88" y="-62.5" font-family="Helvetica,sans-Serif" font-size="10.00">ExpressionStack.hpp</text>
</a>
</g>
</g>
<!-- Node1&#45;&gt;Node114 -->
<g id="edge48" class="edge">
<title>Node1&#45;&gt;Node114</title>
<path fill="none" stroke="midnightblue" d="M2847.06,-121.5C3153.26,-120.66 4694.2,-114.55 5166.88,-76.5 5169.9,-76.26 5172.99,-75.96 5176.11,-75.63"/>
<polygon fill="midnightblue" stroke="midnightblue" points="2847.37,-118 2837.38,-121.53 2847.39,-125 2847.37,-118"/>
</g>
<!-- Node110 -->
<g id="node49" class="node">
<title>Node110</title>
<g id="a_node49"><a xlink:href="_expression_list_8cpp.html" target="_top" xlink:title=" ">
<polygon fill="white" stroke="black" points="5303.25,-56.75 5303.25,-76 5402.5,-76 5402.5,-56.75 5303.25,-56.75"/>
<text text-anchor="middle" x="5352.88" y="-62.5" font-family="Helvetica,sans-Serif" font-size="10.00">ExpressionList.cpp</text>
</a>
</g>
</g>
<!-- Node1&#45;&gt;Node110 -->
<g id="edge49" class="edge">
<title>Node1&#45;&gt;Node110</title>
<path fill="none" stroke="midnightblue" d="M2846.9,-121.67C3162.37,-121.76 4795.41,-120.09 5294.88,-76.5 5297.52,-76.27 5300.22,-75.99 5302.94,-75.68"/>
<polygon fill="midnightblue" stroke="midnightblue" points="2847.33,-118.17 2837.32,-121.66 2847.32,-125.17 2847.33,-118.17"/>
</g>
<!-- Node146 -->
<g id="node50" class="node">
<title>Node146</title>
<g id="a_node50"><a xlink:href="_rexx_behaviour_8cpp.html" target="_top" xlink:title=" ">
<polygon fill="white" stroke="black" points="5420.5,-56.75 5420.5,-76 5521.25,-76 5521.25,-56.75 5420.5,-56.75"/>
<text text-anchor="middle" x="5470.88" y="-62.5" font-family="Helvetica,sans-Serif" font-size="10.00">RexxBehaviour.cpp</text>
</a>
</g>
</g>
<!-- Node1&#45;&gt;Node146 -->
<g id="edge51" class="edge">
<title>Node1&#45;&gt;Node146</title>
<path fill="none" stroke="midnightblue" d="M2847.28,-121.7C3172.27,-121.98 4887.86,-121.33 5411.88,-76.5 5414.56,-76.27 5417.31,-75.99 5420.08,-75.68"/>
<polygon fill="midnightblue" stroke="midnightblue" points="2847.39,-118.2 2837.38,-121.69 2847.38,-125.2 2847.39,-118.2"/>
</g>
<!-- Node37&#45;&gt;Node35 -->
<g id="edge37" class="edge">
<title>Node37&#45;&gt;Node35</title>
<path fill="none" stroke="midnightblue" d="M3898.43,-51.03C3880.33,-41.21 3856.91,-28.5 3841.41,-20.1"/>
<polygon fill="midnightblue" stroke="midnightblue" points="3896.57,-54 3907.03,-55.69 3899.91,-47.85 3896.57,-54"/>
</g>
<!-- Node37&#45;&gt;Node62 -->
<g id="edge38" class="edge">
<title>Node37&#45;&gt;Node62</title>
<path fill="none" stroke="midnightblue" d="M3935.37,-46.39C3940.36,-37.38 3946.07,-27.06 3950.01,-19.92"/>
<polygon fill="midnightblue" stroke="midnightblue" points="3932.34,-44.65 3930.56,-55.09 3938.46,-48.03 3932.34,-44.65"/>
</g>
</g>
</svg>
        <g id="navigator" transform="translate(0 0)" fill="#404254">
                <rect fill="#f2f5e9" fill-opacity="0.5" stroke="#606060" stroke-width=".5" x="0" y="0" width="60" height="60"/>
                <use id="zoomplus" xlink:href="#zoomPlus" x="17" y="9" onmousedown="handleZoom(evt,'in')"/>
                <use id="zoomminus" xlink:href="#zoomMin" x="42" y="9" onmousedown="handleZoom(evt,'out')"/>
                <use id="reset" xlink:href="#resetDef" x="30" y="36" onmousedown="handleReset()"/>
                <g id="arrowUp" xlink:href="#dirArrow" transform="translate(30 24)" onmousedown="handlePan(0,-1)">
                  <use xlink:href="#rim" fill="#404040">
                        <set attributeName="fill" to="#808080" begin="arrowUp.mouseover" end="arrowUp.mouseout"/>
                  </use>
                  <path fill="none" stroke="white" stroke-width="1.5" d="M0,-3.0v7 M-2.5,-0.5L0,-3.0L2.5,-0.5"/>
                </g>
                <g id="arrowRight" xlink:href="#dirArrow" transform="rotate(90) translate(36 -43)" onmousedown="handlePan(1,0)">
                  <use xlink:href="#rim" fill="#404040">
                        <set attributeName="fill" to="#808080" begin="arrowRight.mouseover" end="arrowRight.mouseout"/>
                  </use>
                  <path fill="none" stroke="white" stroke-width="1.5" d="M0,-3.0v7 M-2.5,-0.5L0,-3.0L2.5,-0.5"/>
                </g>
                <g id="arrowDown" xlink:href="#dirArrow" transform="rotate(180) translate(-30 -48)" onmousedown="handlePan(0,1)">
                  <use xlink:href="#rim" fill="#404040">
                        <set attributeName="fill" to="#808080" begin="arrowDown.mouseover" end="arrowDown.mouseout"/>
                  </use>
                  <path fill="none" stroke="white" stroke-width="1.5" d="M0,-3.0v7 M-2.5,-0.5L0,-3.0L2.5,-0.5"/>
                </g>
                <g id="arrowLeft" xlink:href="#dirArrow" transform="rotate(270) translate(-36 17)" onmousedown="handlePan(-1,0)">
                  <use xlink:href="#rim" fill="#404040">
                        <set attributeName="fill" to="#808080" begin="arrowLeft.mouseover" end="arrowLeft.mouseout"/>
                  </use>
                  <path fill="none" stroke="white" stroke-width="1.5" d="M0,-3.0v7 M-2.5,-0.5L0,-3.0L2.5,-0.5"/>
                </g>
        </g>
        <svg viewBox="0 0 15 15" width="100%" height="30px" preserveAspectRatio="xMaxYMin meet">
         <g id="arrow_out" transform="scale(0.3 0.3)">
          <a xlink:href="_array_class_8hpp__dep__incl_org.svg" target="_base">
           <rect id="button" ry="5" rx="5" y="6" x="6" height="38" width="38"
                fill="#f2f5e9" fill-opacity="0.5" stroke="#606060" stroke-width="1.0"/>
           <path id="arrow"
             d="M 11.500037,31.436501 C 11.940474,20.09759 22.043105,11.32322 32.158766,21.979434 L 37.068811,17.246167 C 37.068811,17.246167 37.088388,32 37.088388,32 L 22.160133,31.978069 C 22.160133,31.978069 26.997745,27.140456 26.997745,27.140456 C 18.528582,18.264221 13.291696,25.230495 11.500037,31.436501 z"
             style="fill:#404040;"/>
          </a>
         </g>
        </svg>
</svg>
