<?xml version="1.0" encoding="UTF-8" standalone="no"?>
<!DOCTYPE svg PUBLIC "-//W3C//DTD SVG 1.1//EN"
 "http://www.w3.org/Graphics/SVG/1.1/DTD/svg11.dtd">
<!-- Generated by graphviz version 12.1.0 (20240811.2233)
 -->
<!-- Title: ArrayClass.cpp Pages: 1 -->
<!--zoomable 310 -->
<svg id="main" version="1.1" xmlns="http://www.w3.org/2000/svg" xmlns:xlink="http://www.w3.org/1999/xlink" xml:space="preserve" onload="init(evt)">
<style type="text/css"><![CDATA[
.edge:hover path { stroke: red; }
.edge:hover polygon { stroke: red; fill: red; }
]]></style>
<script type="text/javascript"><![CDATA[
var edges = document.getElementsByTagName('g');
if (edges && edges.length) {
  for (var i=0;i<edges.length;i++) {
    if (edges[i].id.substr(0,4)=='edge') {
      edges[i].setAttribute('class','edge');
    }
  }
}
]]></script>
        <defs>
                <circle id="rim" cx="0" cy="0" r="7"/>
                <circle id="rim2" cx="0" cy="0" r="3.5"/>
                <g id="zoomPlus">
                        <use xlink:href="#rim" fill="#404040">
                                <set attributeName="fill" to="#808080" begin="zoomplus.mouseover" end="zoomplus.mouseout"/>
                        </use>
                        <path d="M-4,0h8M0,-4v8" fill="none" stroke="white" stroke-width="1.5" pointer-events="none"/>
                </g>
                <g id="zoomMin">
                        <use xlink:href="#rim" fill="#404040">
                                <set attributeName="fill" to="#808080" begin="zoomminus.mouseover" end="zoomminus.mouseout"/>
                        </use>
                        <path d="M-4,0h8" fill="none" stroke="white" stroke-width="1.5" pointer-events="none"/>
                </g>
                <g id="dirArrow">
                        <path fill="none" stroke="white" stroke-width="1.5" d="M0,-3.0v7 M-2.5,-0.5L0,-3.0L2.5,-0.5"/>
                </g>
               <g id="resetDef">
                       <use xlink:href="#rim2" fill="#404040">
                               <set attributeName="fill" to="#808080" begin="reset.mouseover" end="reset.mouseout"/>
                       </use>
               </g>
        </defs>

<script type="text/javascript">
var viewWidth = 2951;
var viewHeight = 310;
var sectionId = 'dynsection-0';
</script>
<script xlink:href="svgpan.js"/>
<svg id="graph" class="graph">
<g id="viewport">
<title>ArrayClass.cpp</title>
<polygon fill="white" stroke="none" points="-4,4 -4,-305.5 2947,-305.5 2947,4 -4,4"/>
<!-- Node1 -->
<g id="node1" class="node">
<title>Node1</title>
<g id="a_node1"><a xlink:title=" ">
<polygon fill="#bfbfbf" stroke="black" points="2223.12,-281.75 2223.12,-301 2306.62,-301 2306.62,-281.75 2223.12,-281.75"/>
<text text-anchor="middle" x="2264.88" y="-287.5" font-family="Helvetica,sans-Serif" font-size="10.00">ArrayClass.cpp</text>
</a>
</g>
</g>
<!-- Node2 -->
<g id="node2" class="node">
<title>Node2</title>
<g id="a_node2"><a xlink:title=" ">
<polygon fill="white" stroke="#bfbfbf" points="959.12,-225.5 959.12,-244.75 1006.62,-244.75 1006.62,-225.5 959.12,-225.5"/>
<text text-anchor="middle" x="982.88" y="-231.25" font-family="Helvetica,sans-Serif" font-size="10.00">stdlib.h</text>
</a>
</g>
</g>
<!-- Node1&#45;&gt;Node2 -->
<g id="edge1" class="edge">
<title>Node1&#45;&gt;Node2</title>
<path fill="none" stroke="midnightblue" d="M2222.78,-290.17C2035.83,-289.08 1278.83,-282.49 1018.18,-245.15"/>
<polygon fill="midnightblue" stroke="midnightblue" points="1018.79,-241.7 1008.38,-243.69 1017.75,-248.62 1018.79,-241.7"/>
</g>
<!-- Node3 -->
<g id="node3" class="node">
<title>Node3</title>
<g id="a_node3"><a xlink:href="_rexx_core_8h.html" target="_top" xlink:title=" ">
<polygon fill="white" stroke="black" points="1024.62,-225.5 1024.62,-244.75 1093.12,-244.75 1093.12,-225.5 1024.62,-225.5"/>
<text text-anchor="middle" x="1058.88" y="-231.25" font-family="Helvetica,sans-Serif" font-size="10.00">RexxCore.h</text>
</a>
</g>
</g>
<!-- Node1&#45;&gt;Node3 -->
<g id="edge2" class="edge">
<title>Node1&#45;&gt;Node3</title>
<path fill="none" stroke="midnightblue" d="M2222.66,-288.48C2037.47,-280.15 1297.64,-246.87 1104.95,-238.2"/>
<polygon fill="midnightblue" stroke="midnightblue" points="1105.24,-234.71 1095.09,-237.75 1104.92,-241.7 1105.24,-234.71"/>
</g>
<!-- Node41 -->
<g id="node31" class="node">
<title>Node41</title>
<g id="a_node31"><a xlink:href="_rexx_activity_8hpp.html" target="_top" xlink:title=" ">
<polygon fill="white" stroke="black" points="2101.12,-169.25 2101.12,-188.5 2190.62,-188.5 2190.62,-169.25 2101.12,-169.25"/>
<text text-anchor="middle" x="2145.88" y="-175" font-family="Helvetica,sans-Serif" font-size="10.00">RexxActivity.hpp</text>
</a>
</g>
</g>
<!-- Node1&#45;&gt;Node41 -->
<g id="edge48" class="edge">
<title>Node1&#45;&gt;Node41</title>
<path fill="none" stroke="midnightblue" d="M2223.63,-281.27C2202.64,-274.62 2178.36,-263.47 2162.88,-245.25 2152.18,-232.66 2148.11,-214.13 2146.61,-200.01"/>
<polygon fill="midnightblue" stroke="midnightblue" points="2150.1,-199.83 2145.94,-190.09 2143.12,-200.3 2150.1,-199.83"/>
</g>
<!-- Node47 -->
<g id="node36" class="node">
<title>Node47</title>
<g id="a_node36"><a xlink:href="_array_class_8hpp.html" target="_top" xlink:title=" ">
<polygon fill="white" stroke="black" points="1770.12,-56.75 1770.12,-76 1853.62,-76 1853.62,-56.75 1770.12,-56.75"/>
<text text-anchor="middle" x="1811.88" y="-62.5" font-family="Helvetica,sans-Serif" font-size="10.00">ArrayClass.hpp</text>
</a>
</g>
</g>
<!-- Node1&#45;&gt;Node47 -->
<g id="edge52" class="edge">
<title>Node1&#45;&gt;Node47</title>
<path fill="none" stroke="midnightblue" d="M2223.01,-284.41C2108.36,-267.12 1793.83,-213.09 1733.88,-132.75 1718.02,-111.5 1747.56,-92.7 1774.72,-80.77"/>
<polygon fill="midnightblue" stroke="midnightblue" points="1776,-84.03 1783.9,-76.98 1773.32,-77.57 1776,-84.03"/>
</g>
<!-- Node68 -->
<g id="node43" class="node">
<title>Node68</title>
<g id="a_node43"><a xlink:href="_activity_manager_8hpp.html" target="_top" xlink:title=" ">
<polygon fill="white" stroke="black" points="2210.62,-169.25 2210.62,-188.5 2315.12,-188.5 2315.12,-169.25 2210.62,-169.25"/>
<text text-anchor="middle" x="2262.88" y="-175" font-family="Helvetica,sans-Serif" font-size="10.00">ActivityManager.hpp</text>
</a>
</g>
</g>
<!-- Node1&#45;&gt;Node68 -->
<g id="edge59" class="edge">
<title>Node1&#45;&gt;Node68</title>
<path fill="none" stroke="midnightblue" d="M2271.19,-281.63C2279.38,-269.21 2292.03,-245.68 2286.88,-225 2284.54,-215.65 2279.87,-206.11 2275.26,-198.22"/>
<polygon fill="midnightblue" stroke="midnightblue" points="2278.34,-196.55 2270.05,-189.95 2272.42,-200.28 2278.34,-196.55"/>
</g>
<!-- Node69 -->
<g id="node44" class="node">
<title>Node69</title>
<g id="a_node44"><a xlink:title=" ">
<polygon fill="white" stroke="#bfbfbf" points="2754.75,-113 2754.75,-132.25 2797,-132.25 2797,-113 2754.75,-113"/>
<text text-anchor="middle" x="2775.88" y="-118.75" font-family="Helvetica,sans-Serif" font-size="10.00">deque</text>
</a>
</g>
</g>
<!-- Node1&#45;&gt;Node69 -->
<g id="edge63" class="edge">
<title>Node1&#45;&gt;Node69</title>
<path fill="none" stroke="midnightblue" d="M2275.59,-281.35C2292.85,-267.26 2328.4,-240.08 2362.88,-225 2519.92,-156.31 2574.63,-177.78 2743.28,-133.31"/>
<polygon fill="midnightblue" stroke="midnightblue" points="2744.08,-136.72 2752.83,-130.75 2742.26,-129.96 2744.08,-136.72"/>
</g>
<!-- Node54 -->
<g id="node45" class="node">
<title>Node54</title>
<g id="a_node45"><a xlink:href="_integer_class_8hpp.html" target="_top" xlink:title=" ">
<polygon fill="white" stroke="black" points="2852.75,-113 2852.75,-132.25 2943,-132.25 2943,-113 2852.75,-113"/>
<text text-anchor="middle" x="2897.88" y="-118.75" font-family="Helvetica,sans-Serif" font-size="10.00">IntegerClass.hpp</text>
</a>
</g>
</g>
<!-- Node1&#45;&gt;Node54 -->
<g id="edge49" class="edge">
<title>Node1&#45;&gt;Node54</title>
<path fill="none" stroke="midnightblue" d="M2306.98,-282.61C2349.95,-274.41 2418.45,-260.55 2476.88,-245.25 2587.23,-216.34 2612.14,-199.93 2721.88,-168.75 2764.59,-156.61 2813.54,-144.18 2848.96,-135.45"/>
<polygon fill="midnightblue" stroke="midnightblue" points="2849.61,-138.89 2858.49,-133.11 2847.94,-132.09 2849.61,-138.89"/>
</g>
<!-- Node70 -->
<g id="node46" class="node">
<title>Node70</title>
<g id="a_node46"><a xlink:href="_supplier_class_8hpp.html" target="_top" xlink:title=" ">
<polygon fill="white" stroke="black" points="2372.12,-225.5 2372.12,-244.75 2467.62,-244.75 2467.62,-225.5 2372.12,-225.5"/>
<text text-anchor="middle" x="2419.88" y="-231.25" font-family="Helvetica,sans-Serif" font-size="10.00">SupplierClass.hpp</text>
</a>
</g>
</g>
<!-- Node1&#45;&gt;Node70 -->
<g id="edge51" class="edge">
<title>Node1&#45;&gt;Node70</title>
<path fill="none" stroke="midnightblue" d="M2290.82,-281.29C2316.08,-272.45 2354.71,-258.93 2383.13,-248.99"/>
<polygon fill="midnightblue" stroke="midnightblue" points="2384.14,-252.34 2392.42,-245.73 2381.82,-245.73 2384.14,-252.34"/>
</g>
<!-- Node71 -->
<g id="node47" class="node">
<title>Node71</title>
<g id="a_node47"><a xlink:href="_mutable_buffer_class_8hpp.html" target="_top" xlink:title=" ">
<polygon fill="white" stroke="black" points="2756.38,-225.5 2756.38,-244.75 2877.38,-244.75 2877.38,-225.5 2756.38,-225.5"/>
<text text-anchor="middle" x="2816.88" y="-231.25" font-family="Helvetica,sans-Serif" font-size="10.00">MutableBufferClass.hpp</text>
</a>
</g>
</g>
<!-- Node1&#45;&gt;Node71 -->
<g id="edge53" class="edge">
<title>Node1&#45;&gt;Node71</title>
<path fill="none" stroke="midnightblue" d="M2306.82,-286.25C2400.56,-277.04 2627.98,-254.69 2744.87,-243.2"/>
<polygon fill="midnightblue" stroke="midnightblue" points="2745.06,-246.7 2754.67,-242.24 2744.38,-239.73 2745.06,-246.7"/>
</g>
<!-- Node73 -->
<g id="node50" class="node">
<title>Node73</title>
<g id="a_node50"><a xlink:href="_protected_object_8hpp.html" target="_top" xlink:title=" ">
<polygon fill="white" stroke="black" points="2172.25,-225.5 2172.25,-244.75 2277.5,-244.75 2277.5,-225.5 2172.25,-225.5"/>
<text text-anchor="middle" x="2224.88" y="-231.25" font-family="Helvetica,sans-Serif" font-size="10.00">ProtectedObject.hpp</text>
</a>
</g>
</g>
<!-- Node1&#45;&gt;Node73 -->
<g id="edge60" class="edge">
<title>Node1&#45;&gt;Node73</title>
<path fill="none" stroke="midnightblue" d="M2258.27,-281.42C2252.79,-273.99 2244.84,-263.2 2238.07,-254.02"/>
<polygon fill="midnightblue" stroke="midnightblue" points="2241.01,-252.11 2232.26,-246.13 2235.37,-256.26 2241.01,-252.11"/>
</g>
<!-- Node4 -->
<g id="node4" class="node">
<title>Node4</title>
<g id="a_node4"><a xlink:href="oorexxapi_8h.html" target="_top" xlink:title=" ">
<polygon fill="white" stroke="black" points="219.75,-169.25 219.75,-188.5 286,-188.5 286,-169.25 219.75,-169.25"/>
<text text-anchor="middle" x="252.88" y="-175" font-family="Helvetica,sans-Serif" font-size="10.00">oorexxapi.h</text>
</a>
</g>
</g>
<!-- Node3&#45;&gt;Node4 -->
<g id="edge3" class="edge">
<title>Node3&#45;&gt;Node4</title>
<path fill="none" stroke="midnightblue" d="M1024.22,-226.28C1021.41,-225.79 1018.6,-225.35 1015.88,-225 701.88,-184.1 615.6,-229.3 297.53,-188.95"/>
<polygon fill="midnightblue" stroke="midnightblue" points="297.99,-185.48 287.62,-187.67 297.09,-192.42 297.99,-185.48"/>
</g>
<!-- Node11 -->
<g id="node7" class="node">
<title>Node11</title>
<g id="a_node7"><a xlink:title=" ">
<polygon fill="white" stroke="#bfbfbf" points="491.25,-169.25 491.25,-188.5 536.5,-188.5 536.5,-169.25 491.25,-169.25"/>
<text text-anchor="middle" x="513.88" y="-175" font-family="Helvetica,sans-Serif" font-size="10.00">stdio.h</text>
</a>
</g>
</g>
<!-- Node3&#45;&gt;Node11 -->
<g id="edge6" class="edge">
<title>Node3&#45;&gt;Node11</title>
<path fill="none" stroke="midnightblue" d="M1024.21,-226.36C1021.4,-225.85 1018.59,-225.39 1015.88,-225 811.72,-195.67 753.42,-225.75 547.94,-189.22"/>
<polygon fill="midnightblue" stroke="midnightblue" points="548.72,-185.81 538.26,-187.47 547.47,-192.69 548.72,-185.81"/>
</g>
<!-- Node12 -->
<g id="node8" class="node">
<title>Node12</title>
<g id="a_node8"><a xlink:title=" ">
<polygon fill="white" stroke="#bfbfbf" points="554.25,-169.25 554.25,-188.5 605.5,-188.5 605.5,-169.25 554.25,-169.25"/>
<text text-anchor="middle" x="579.88" y="-175" font-family="Helvetica,sans-Serif" font-size="10.00">stdarg.h</text>
</a>
</g>
</g>
<!-- Node3&#45;&gt;Node12 -->
<g id="edge7" class="edge">
<title>Node3&#45;&gt;Node12</title>
<path fill="none" stroke="midnightblue" d="M1024.21,-226.4C1021.39,-225.88 1018.59,-225.41 1015.88,-225 842.56,-198.93 793.18,-218.82 617,-189.07"/>
<polygon fill="midnightblue" stroke="midnightblue" points="617.7,-185.64 607.26,-187.39 616.52,-192.54 617.7,-185.64"/>
</g>
<!-- Node13 -->
<g id="node9" class="node">
<title>Node13</title>
<g id="a_node9"><a xlink:title=" ">
<polygon fill="white" stroke="#bfbfbf" points="623.75,-169.25 623.75,-188.5 672,-188.5 672,-169.25 623.75,-169.25"/>
<text text-anchor="middle" x="647.88" y="-175" font-family="Helvetica,sans-Serif" font-size="10.00">string.h</text>
</a>
</g>
</g>
<!-- Node3&#45;&gt;Node13 -->
<g id="edge8" class="edge">
<title>Node3&#45;&gt;Node13</title>
<path fill="none" stroke="midnightblue" d="M1024.2,-226.45C1021.39,-225.92 1018.59,-225.43 1015.88,-225 871.61,-202 829.99,-216.31 683.48,-189.21"/>
<polygon fill="midnightblue" stroke="midnightblue" points="684.24,-185.8 673.77,-187.38 682.94,-192.67 684.24,-185.8"/>
</g>
<!-- Node14 -->
<g id="node10" class="node">
<title>Node14</title>
<g id="a_node10"><a xlink:title=" ">
<polygon fill="white" stroke="#bfbfbf" points="689.75,-169.25 689.75,-188.5 738,-188.5 738,-169.25 689.75,-169.25"/>
<text text-anchor="middle" x="713.88" y="-175" font-family="Helvetica,sans-Serif" font-size="10.00">ctype.h</text>
</a>
</g>
</g>
<!-- Node3&#45;&gt;Node14 -->
<g id="edge9" class="edge">
<title>Node3&#45;&gt;Node14</title>
<path fill="none" stroke="midnightblue" d="M1024.18,-226.53C1021.38,-225.98 1018.58,-225.47 1015.88,-225 900.61,-205.09 867.07,-212.63 749.55,-189.3"/>
<polygon fill="midnightblue" stroke="midnightblue" points="750.27,-185.88 739.78,-187.33 748.88,-192.74 750.27,-185.88"/>
</g>
<!-- Node15 -->
<g id="node11" class="node">
<title>Node15</title>
<g id="a_node11"><a xlink:title=" ">
<polygon fill="white" stroke="#bfbfbf" points="756.12,-169.25 756.12,-188.5 803.62,-188.5 803.62,-169.25 756.12,-169.25"/>
<text text-anchor="middle" x="779.88" y="-175" font-family="Helvetica,sans-Serif" font-size="10.00">limits.h</text>
</a>
</g>
</g>
<!-- Node3&#45;&gt;Node15 -->
<g id="edge10" class="edge">
<title>Node3&#45;&gt;Node15</title>
<path fill="none" stroke="midnightblue" d="M1024.16,-226.65C1021.36,-226.08 1018.57,-225.53 1015.88,-225 929.45,-208.17 904.2,-209.13 815.14,-189.34"/>
<polygon fill="midnightblue" stroke="midnightblue" points="815.96,-185.93 805.44,-187.15 814.42,-192.76 815.96,-185.93"/>
</g>
<!-- Node16 -->
<g id="node12" class="node">
<title>Node16</title>
<g id="a_node12"><a xlink:title=" ">
<polygon fill="white" stroke="#bfbfbf" points="821.5,-169.25 821.5,-188.5 880.25,-188.5 880.25,-169.25 821.5,-169.25"/>
<text text-anchor="middle" x="850.88" y="-175" font-family="Helvetica,sans-Serif" font-size="10.00">stdexcept</text>
</a>
</g>
</g>
<!-- Node3&#45;&gt;Node16 -->
<g id="edge11" class="edge">
<title>Node3&#45;&gt;Node16</title>
<path fill="none" stroke="midnightblue" d="M1024.53,-225.17C987.98,-215.63 930.2,-200.56 891.44,-190.45"/>
<polygon fill="midnightblue" stroke="midnightblue" points="892.58,-187.13 882.02,-188 890.81,-193.91 892.58,-187.13"/>
</g>
<!-- Node17 -->
<g id="node13" class="node">
<title>Node17</title>
<g id="a_node13"><a xlink:href="_rexx_platform_definitions_8h.html" target="_top" xlink:title=" ">
<polygon fill="white" stroke="black" points="304.5,-169.25 304.5,-188.5 435.25,-188.5 435.25,-169.25 304.5,-169.25"/>
<text text-anchor="middle" x="369.88" y="-175" font-family="Helvetica,sans-Serif" font-size="10.00">RexxPlatformDefinitions.h</text>
</a>
</g>
</g>
<!-- Node3&#45;&gt;Node17 -->
<g id="edge12" class="edge">
<title>Node3&#45;&gt;Node17</title>
<path fill="none" stroke="midnightblue" d="M1024.22,-226.32C1021.4,-225.82 1018.6,-225.37 1015.88,-225 765.71,-190.7 700.38,-211.49 448.88,-189 448.19,-188.94 447.5,-188.88 446.8,-188.81"/>
<polygon fill="midnightblue" stroke="midnightblue" points="447.17,-185.33 436.88,-187.85 446.49,-192.3 447.17,-185.33"/>
</g>
<!-- Node20 -->
<g id="node16" class="node">
<title>Node20</title>
<g id="a_node16"><a xlink:href="_rexx_constants_8hpp.html" target="_top" xlink:title=" ">
<polygon fill="white" stroke="black" points="1007.38,-169.25 1007.38,-188.5 1110.38,-188.5 1110.38,-169.25 1007.38,-169.25"/>
<text text-anchor="middle" x="1058.88" y="-175" font-family="Helvetica,sans-Serif" font-size="10.00">RexxConstants.hpp</text>
</a>
</g>
</g>
<!-- Node3&#45;&gt;Node20 -->
<g id="edge15" class="edge">
<title>Node3&#45;&gt;Node20</title>
<path fill="none" stroke="midnightblue" d="M1058.88,-225.17C1058.88,-218.37 1058.88,-208.76 1058.88,-200.15"/>
<polygon fill="midnightblue" stroke="midnightblue" points="1062.38,-200.18 1058.88,-190.18 1055.38,-200.18 1062.38,-200.18"/>
</g>
<!-- Node21 -->
<g id="node17" class="node">
<title>Node21</title>
<g id="a_node17"><a xlink:href="_class_type_codes_8h.html" target="_top" xlink:title=" ">
<polygon fill="white" stroke="black" points="1235.25,-169.25 1235.25,-188.5 1334.5,-188.5 1334.5,-169.25 1235.25,-169.25"/>
<text text-anchor="middle" x="1284.88" y="-175" font-family="Helvetica,sans-Serif" font-size="10.00">ClassTypeCodes.h</text>
</a>
</g>
</g>
<!-- Node3&#45;&gt;Node21 -->
<g id="edge16" class="edge">
<title>Node3&#45;&gt;Node21</title>
<path fill="none" stroke="midnightblue" d="M1093.2,-225.89C1131.29,-216.74 1193.04,-201.92 1236.13,-191.58"/>
<polygon fill="midnightblue" stroke="midnightblue" points="1236.83,-195.01 1245.73,-189.27 1235.19,-188.2 1236.83,-195.01"/>
</g>
<!-- Node22 -->
<g id="node18" class="node">
<title>Node22</title>
<g id="a_node18"><a xlink:href="_global_names_8h.html" target="_top" xlink:title=" ">
<polygon fill="white" stroke="black" points="1352.12,-169.25 1352.12,-188.5 1435.62,-188.5 1435.62,-169.25 1352.12,-169.25"/>
<text text-anchor="middle" x="1393.88" y="-175" font-family="Helvetica,sans-Serif" font-size="10.00">GlobalNames.h</text>
</a>
</g>
</g>
<!-- Node3&#45;&gt;Node22 -->
<g id="edge17" class="edge">
<title>Node3&#45;&gt;Node22</title>
<path fill="none" stroke="midnightblue" d="M1093.58,-228.9C1145.24,-221.06 1245.72,-205.59 1340.63,-189.52"/>
<polygon fill="midnightblue" stroke="midnightblue" points="1341.11,-192.99 1350.38,-187.87 1339.94,-186.09 1341.11,-192.99"/>
</g>
<!-- Node23 -->
<g id="node19" class="node">
<title>Node23</title>
<g id="a_node19"><a xlink:href="_object_class_8hpp.html" target="_top" xlink:title=" ">
<polygon fill="white" stroke="black" points="1128.5,-169.25 1128.5,-188.5 1217.25,-188.5 1217.25,-169.25 1128.5,-169.25"/>
<text text-anchor="middle" x="1172.88" y="-175" font-family="Helvetica,sans-Serif" font-size="10.00">ObjectClass.hpp</text>
</a>
</g>
</g>
<!-- Node3&#45;&gt;Node23 -->
<g id="edge18" class="edge">
<title>Node3&#45;&gt;Node23</title>
<path fill="none" stroke="midnightblue" d="M1077.96,-225.04C1095.88,-216.52 1122.95,-203.63 1143.6,-193.81"/>
<polygon fill="midnightblue" stroke="midnightblue" points="1144.84,-197.09 1152.37,-189.64 1141.83,-190.77 1144.84,-197.09"/>
</g>
<!-- Node26 -->
<g id="node22" class="node">
<title>Node26</title>
<g id="a_node22"><a xlink:href="_table_class_8hpp.html" target="_top" xlink:title=" ">
<polygon fill="white" stroke="black" points="510.12,-56.75 510.12,-76 593.62,-76 593.62,-56.75 510.12,-56.75"/>
<text text-anchor="middle" x="551.88" y="-62.5" font-family="Helvetica,sans-Serif" font-size="10.00">TableClass.hpp</text>
</a>
</g>
</g>
<!-- Node3&#45;&gt;Node26 -->
<g id="edge21" class="edge">
<title>Node3&#45;&gt;Node26</title>
<path fill="none" stroke="midnightblue" d="M1024.22,-226.33C1021.4,-225.83 1018.6,-225.38 1015.88,-225 956.97,-216.81 522.49,-232.44 481.88,-189 451.27,-156.26 500.8,-107.76 531.1,-83.07"/>
<polygon fill="midnightblue" stroke="midnightblue" points="532.91,-86.1 538.59,-77.15 528.57,-80.6 532.91,-86.1"/>
</g>
<!-- Node29 -->
<g id="node24" class="node">
<title>Node29</title>
<g id="a_node24"><a xlink:href="_stack_class_8hpp.html" target="_top" xlink:title=" ">
<polygon fill="white" stroke="black" points="1492,-169.25 1492,-188.5 1577.75,-188.5 1577.75,-169.25 1492,-169.25"/>
<text text-anchor="middle" x="1534.88" y="-175" font-family="Helvetica,sans-Serif" font-size="10.00">StackClass.hpp</text>
</a>
</g>
</g>
<!-- Node3&#45;&gt;Node29 -->
<g id="edge23" class="edge">
<title>Node3&#45;&gt;Node29</title>
<path fill="none" stroke="midnightblue" d="M1093.44,-231.01C1165.21,-224.41 1335.56,-208.04 1477.88,-189 1478.71,-188.89 1479.56,-188.77 1480.41,-188.66"/>
<polygon fill="midnightblue" stroke="midnightblue" points="1480.75,-192.14 1490.15,-187.25 1479.75,-185.21 1480.75,-192.14"/>
</g>
<!-- Node30 -->
<g id="node25" class="node">
<title>Node30</title>
<g id="a_node25"><a xlink:href="_rexx_memory_8hpp.html" target="_top" xlink:title=" ">
<polygon fill="white" stroke="red" points="898,-169.25 898,-188.5 989.75,-188.5 989.75,-169.25 898,-169.25"/>
<text text-anchor="middle" x="943.88" y="-175" font-family="Helvetica,sans-Serif" font-size="10.00">RexxMemory.hpp</text>
</a>
</g>
</g>
<!-- Node3&#45;&gt;Node30 -->
<g id="edge24" class="edge">
<title>Node3&#45;&gt;Node30</title>
<path fill="none" stroke="midnightblue" d="M1039.63,-225.04C1021.55,-216.52 994.24,-203.63 973.41,-193.81"/>
<polygon fill="midnightblue" stroke="midnightblue" points="975.09,-190.73 964.56,-189.63 972.11,-197.06 975.09,-190.73"/>
</g>
<!-- Node37 -->
<g id="node28" class="node">
<title>Node37</title>
<g id="a_node28"><a xlink:href="_rexx_behaviour_8hpp.html" target="_top" xlink:title=" ">
<polygon fill="white" stroke="red" points="1595.5,-169.25 1595.5,-188.5 1696.25,-188.5 1696.25,-169.25 1595.5,-169.25"/>
<text text-anchor="middle" x="1645.88" y="-175" font-family="Helvetica,sans-Serif" font-size="10.00">RexxBehaviour.hpp</text>
</a>
</g>
</g>
<!-- Node3&#45;&gt;Node37 -->
<g id="edge28" class="edge">
<title>Node3&#45;&gt;Node37</title>
<path fill="none" stroke="midnightblue" d="M1093.55,-231.98C1176.44,-226.69 1392.77,-211.83 1583.68,-189.31"/>
<polygon fill="midnightblue" stroke="midnightblue" points="1584.04,-192.8 1593.55,-188.14 1583.21,-185.85 1584.04,-192.8"/>
</g>
<!-- Node39 -->
<g id="node29" class="node">
<title>Node39</title>
<g id="a_node29"><a xlink:href="_class_class_8hpp.html" target="_top" xlink:title=" ">
<polygon fill="white" stroke="black" points="0,-169.25 0,-188.5 85.75,-188.5 85.75,-169.25 0,-169.25"/>
<text text-anchor="middle" x="42.88" y="-175" font-family="Helvetica,sans-Serif" font-size="10.00">ClassClass.hpp</text>
</a>
</g>
</g>
<!-- Node3&#45;&gt;Node39 -->
<g id="edge29" class="edge">
<title>Node3&#45;&gt;Node39</title>
<path fill="none" stroke="midnightblue" d="M1024.23,-226.24C1021.41,-225.76 1018.6,-225.34 1015.88,-225 613.05,-174.76 504.17,-231.46 97.42,-189.11"/>
<polygon fill="midnightblue" stroke="midnightblue" points="98.04,-185.66 87.73,-188.09 97.31,-192.62 98.04,-185.66"/>
</g>
<!-- Node40 -->
<g id="node30" class="node">
<title>Node40</title>
<g id="a_node30"><a xlink:href="_rexx_envelope_8hpp.html" target="_top" xlink:title=" ">
<polygon fill="white" stroke="black" points="103.62,-169.25 103.62,-188.5 202.12,-188.5 202.12,-169.25 103.62,-169.25"/>
<text text-anchor="middle" x="152.88" y="-175" font-family="Helvetica,sans-Serif" font-size="10.00">RexxEnvelope.hpp</text>
</a>
</g>
</g>
<!-- Node3&#45;&gt;Node40 -->
<g id="edge30" class="edge">
<title>Node3&#45;&gt;Node40</title>
<path fill="none" stroke="midnightblue" d="M1024.22,-226.26C1021.41,-225.78 1018.6,-225.35 1015.88,-225 664.35,-180.15 569.2,-223.95 213.9,-189.19"/>
<polygon fill="midnightblue" stroke="midnightblue" points="214.31,-185.71 204.01,-188.2 213.61,-192.68 214.31,-185.71"/>
</g>
<!-- Node3&#45;&gt;Node41 -->
<g id="edge31" class="edge">
<title>Node3&#45;&gt;Node41</title>
<path fill="none" stroke="midnightblue" d="M1093.51,-232.4C1250.28,-224.57 1894.29,-192.43 2089.52,-182.69"/>
<polygon fill="midnightblue" stroke="midnightblue" points="2089.59,-186.19 2099.4,-182.19 2089.24,-179.2 2089.59,-186.19"/>
</g>
<!-- Node52 -->
<g id="node42" class="node">
<title>Node52</title>
<g id="a_node42"><a xlink:href="_number_string_class_8hpp.html" target="_top" xlink:title=" ">
<polygon fill="white" stroke="red" points="2385.75,-56.75 2385.75,-76 2506,-76 2506,-56.75 2385.75,-56.75"/>
<text text-anchor="middle" x="2445.88" y="-62.5" font-family="Helvetica,sans-Serif" font-size="10.00">NumberStringClass.hpp</text>
</a>
</g>
</g>
<!-- Node3&#45;&gt;Node52 -->
<g id="edge44" class="edge">
<title>Node3&#45;&gt;Node52</title>
<path fill="none" stroke="midnightblue" d="M1093.23,-233.86C1219.83,-232.6 1655.58,-225.63 1704.88,-189 1734.06,-167.31 1704.62,-134.09 1733.88,-112.5 1784.5,-75.13 2203.37,-68.66 2373.98,-67.57"/>
<polygon fill="midnightblue" stroke="midnightblue" points="2373.85,-71.07 2383.83,-67.52 2373.81,-64.07 2373.85,-71.07"/>
</g>
<!-- Node3&#45;&gt;Node68 -->
<g id="edge46" class="edge">
<title>Node3&#45;&gt;Node68</title>
<path fill="none" stroke="midnightblue" d="M1093.5,-234.07C1231.47,-233.58 1755.52,-229.1 2198.88,-188.95"/>
<polygon fill="midnightblue" stroke="midnightblue" points="2199.18,-192.44 2208.82,-188.04 2198.54,-185.47 2199.18,-192.44"/>
</g>
<!-- Node5 -->
<g id="node5" class="node">
<title>Node5</title>
<g id="a_node5"><a xlink:href="rexx_8h.html" target="_top" xlink:title=" ">
<polygon fill="white" stroke="red" points="151.38,-113 151.38,-132.25 194.38,-132.25 194.38,-113 151.38,-113"/>
<text text-anchor="middle" x="172.88" y="-118.75" font-family="Helvetica,sans-Serif" font-size="10.00">rexx.h</text>
</a>
</g>
</g>
<!-- Node4&#45;&gt;Node5 -->
<g id="edge4" class="edge">
<title>Node4&#45;&gt;Node5</title>
<path fill="none" stroke="midnightblue" d="M239.66,-168.92C227.62,-160.75 209.58,-148.52 195.28,-138.82"/>
<polygon fill="midnightblue" stroke="midnightblue" points="197.6,-136.16 187.36,-133.45 193.67,-141.96 197.6,-136.16"/>
</g>
<!-- Node10 -->
<g id="node6" class="node">
<title>Node10</title>
<g id="a_node6"><a xlink:href="oorexxerrors_8h.html" target="_top" xlink:title=" ">
<polygon fill="white" stroke="black" points="54.75,-113 54.75,-132.25 133,-132.25 133,-113 54.75,-113"/>
<text text-anchor="middle" x="93.88" y="-118.75" font-family="Helvetica,sans-Serif" font-size="10.00">oorexxerrors.h</text>
</a>
</g>
</g>
<!-- Node4&#45;&gt;Node10 -->
<g id="edge5" class="edge">
<title>Node4&#45;&gt;Node10</title>
<path fill="none" stroke="midnightblue" d="M226.26,-168.79C200.24,-159.91 160.37,-146.31 131.19,-136.36"/>
<polygon fill="midnightblue" stroke="midnightblue" points="132.6,-133.14 122.01,-133.22 130.34,-139.77 132.6,-133.14"/>
</g>
<!-- Node18 -->
<g id="node14" class="node">
<title>Node18</title>
<g id="a_node14"><a xlink:title=" ">
<polygon fill="white" stroke="#bfbfbf" points="327.12,-113 327.12,-132.25 434.62,-132.25 434.62,-113 327.12,-113"/>
<text text-anchor="middle" x="380.88" y="-118.75" font-family="Helvetica,sans-Serif" font-size="10.00">PlatformDefinitions.h</text>
</a>
</g>
</g>
<!-- Node17&#45;&gt;Node18 -->
<g id="edge13" class="edge">
<title>Node17&#45;&gt;Node18</title>
<path fill="none" stroke="midnightblue" d="M371.69,-168.92C373.09,-162.04 375.06,-152.29 376.83,-143.6"/>
<polygon fill="midnightblue" stroke="midnightblue" points="380.23,-144.4 378.79,-133.9 373.37,-143 380.23,-144.4"/>
</g>
<!-- Node19 -->
<g id="node15" class="node">
<title>Node19</title>
<g id="a_node15"><a xlink:href="_rexx_error_codes_8h.html" target="_top" xlink:title=" ">
<polygon fill="white" stroke="black" points="212.38,-113 212.38,-132.25 309.38,-132.25 309.38,-113 212.38,-113"/>
<text text-anchor="middle" x="260.88" y="-118.75" font-family="Helvetica,sans-Serif" font-size="10.00">RexxErrorCodes.h</text>
</a>
</g>
</g>
<!-- Node17&#45;&gt;Node19 -->
<g id="edge14" class="edge">
<title>Node17&#45;&gt;Node19</title>
<path fill="none" stroke="midnightblue" d="M351.88,-168.92C334.84,-160.44 308.98,-147.57 289.18,-137.71"/>
<polygon fill="midnightblue" stroke="midnightblue" points="290.77,-134.59 280.26,-133.27 287.65,-140.86 290.77,-134.59"/>
</g>
<!-- Node24 -->
<g id="node20" class="node">
<title>Node24</title>
<g id="a_node20"><a xlink:href="_numerics_8hpp.html" target="_top" xlink:title=" ">
<polygon fill="white" stroke="black" points="1513.5,-0.5 1513.5,-19.75 1590.25,-19.75 1590.25,-0.5 1513.5,-0.5"/>
<text text-anchor="middle" x="1551.88" y="-6.25" font-family="Helvetica,sans-Serif" font-size="10.00">Numerics.hpp</text>
</a>
</g>
</g>
<!-- Node23&#45;&gt;Node24 -->
<g id="edge19" class="edge">
<title>Node23&#45;&gt;Node24</title>
<path fill="none" stroke="midnightblue" d="M1193.52,-168.79C1256.54,-141.07 1446.62,-57.43 1521.29,-24.58"/>
<polygon fill="midnightblue" stroke="midnightblue" points="1522.31,-27.96 1530.06,-20.72 1519.49,-21.55 1522.31,-27.96"/>
</g>
<!-- Node25 -->
<g id="node21" class="node">
<title>Node25</title>
<g id="a_node21"><a xlink:title=" ">
<polygon fill="white" stroke="#bfbfbf" points="1147.25,-113 1147.25,-132.25 1198.5,-132.25 1198.5,-113 1147.25,-113"/>
<text text-anchor="middle" x="1172.88" y="-118.75" font-family="Helvetica,sans-Serif" font-size="10.00">stddef.h</text>
</a>
</g>
</g>
<!-- Node23&#45;&gt;Node25 -->
<g id="edge20" class="edge">
<title>Node23&#45;&gt;Node25</title>
<path fill="none" stroke="midnightblue" d="M1172.88,-168.92C1172.88,-162.12 1172.88,-152.51 1172.88,-143.9"/>
<polygon fill="midnightblue" stroke="midnightblue" points="1176.38,-143.93 1172.88,-133.93 1169.38,-143.93 1176.38,-143.93"/>
</g>
<!-- Node27 -->
<g id="node23" class="node">
<title>Node27</title>
<g id="a_node23"><a xlink:href="_rexx_collection_8hpp.html" target="_top" xlink:title=" ">
<polygon fill="white" stroke="red" points="501.12,-0.5 501.12,-19.75 602.62,-19.75 602.62,-0.5 501.12,-0.5"/>
<text text-anchor="middle" x="551.88" y="-6.25" font-family="Helvetica,sans-Serif" font-size="10.00">RexxCollection.hpp</text>
</a>
</g>
</g>
<!-- Node26&#45;&gt;Node27 -->
<g id="edge22" class="edge">
<title>Node26&#45;&gt;Node27</title>
<path fill="none" stroke="midnightblue" d="M551.88,-56.42C551.88,-49.62 551.88,-40.01 551.88,-31.4"/>
<polygon fill="midnightblue" stroke="midnightblue" points="555.38,-31.43 551.88,-21.43 548.38,-31.43 555.38,-31.43"/>
</g>
<!-- Node31 -->
<g id="node26" class="node">
<title>Node31</title>
<g id="a_node26"><a xlink:title=" ">
<polygon fill="white" stroke="#bfbfbf" points="893.12,-113 893.12,-132.25 994.62,-132.25 994.62,-113 893.12,-113"/>
<text text-anchor="middle" x="943.88" y="-118.75" font-family="Helvetica,sans-Serif" font-size="10.00">SysSemaphore.hpp</text>
</a>
</g>
</g>
<!-- Node30&#45;&gt;Node31 -->
<g id="edge25" class="edge">
<title>Node30&#45;&gt;Node31</title>
<path fill="none" stroke="midnightblue" d="M943.88,-168.92C943.88,-162.12 943.88,-152.51 943.88,-143.9"/>
<polygon fill="midnightblue" stroke="midnightblue" points="947.38,-143.93 943.88,-133.93 940.38,-143.93 947.38,-143.93"/>
</g>
<!-- Node32 -->
<g id="node27" class="node">
<title>Node32</title>
<g id="a_node27"><a xlink:href="_identity_table_class_8hpp.html" target="_top" xlink:title=" ">
<polygon fill="white" stroke="black" points="671,-113 671,-132.25 786.75,-132.25 786.75,-113 671,-113"/>
<text text-anchor="middle" x="728.88" y="-118.75" font-family="Helvetica,sans-Serif" font-size="10.00">IdentityTableClass.hpp</text>
</a>
</g>
</g>
<!-- Node30&#45;&gt;Node32 -->
<g id="edge26" class="edge">
<title>Node30&#45;&gt;Node32</title>
<path fill="none" stroke="midnightblue" d="M907.89,-168.79C871.69,-159.66 815.69,-145.53 775.97,-135.51"/>
<polygon fill="midnightblue" stroke="midnightblue" points="777,-132.16 766.45,-133.11 775.29,-138.95 777,-132.16"/>
</g>
<!-- Node32&#45;&gt;Node26 -->
<g id="edge27" class="edge">
<title>Node32&#45;&gt;Node26</title>
<path fill="none" stroke="midnightblue" d="M699.25,-112.54C670.02,-103.59 625.12,-89.82 592.55,-79.84"/>
<polygon fill="midnightblue" stroke="midnightblue" points="593.63,-76.51 583.04,-76.93 591.58,-83.21 593.63,-76.51"/>
</g>
<!-- Node42 -->
<g id="node32" class="node">
<title>Node42</title>
<g id="a_node32"><a xlink:href="_list_class_8hpp.html" target="_top" xlink:title=" ">
<polygon fill="white" stroke="red" points="2381.88,-113 2381.88,-132.25 2457.88,-132.25 2457.88,-113 2381.88,-113"/>
<text text-anchor="middle" x="2419.88" y="-118.75" font-family="Helvetica,sans-Serif" font-size="10.00">ListClass.hpp</text>
</a>
</g>
</g>
<!-- Node41&#45;&gt;Node42 -->
<g id="edge32" class="edge">
<title>Node41&#45;&gt;Node42</title>
<path fill="none" stroke="midnightblue" d="M2191.12,-168.92C2240.58,-159.12 2319.57,-143.49 2370.57,-133.39"/>
<polygon fill="midnightblue" stroke="midnightblue" points="2371.03,-136.86 2380.16,-131.49 2369.67,-130 2371.03,-136.86"/>
</g>
<!-- Node44 -->
<g id="node33" class="node">
<title>Node44</title>
<g id="a_node33"><a xlink:href="_rexx_internal_stack_8hpp.html" target="_top" xlink:title=" ">
<polygon fill="white" stroke="black" points="2476,-113 2476,-132.25 2591.75,-132.25 2591.75,-113 2476,-113"/>
<text text-anchor="middle" x="2533.88" y="-118.75" font-family="Helvetica,sans-Serif" font-size="10.00">RexxInternalStack.hpp</text>
</a>
</g>
</g>
<!-- Node41&#45;&gt;Node44 -->
<g id="edge33" class="edge">
<title>Node41&#45;&gt;Node44</title>
<path fill="none" stroke="midnightblue" d="M2191.09,-170.4C2194.74,-169.83 2198.37,-169.27 2201.88,-168.75 2315.87,-151.72 2347.22,-148.93 2464.53,-133.06"/>
<polygon fill="midnightblue" stroke="midnightblue" points="2464.83,-136.56 2474.27,-131.74 2463.89,-129.62 2464.83,-136.56"/>
</g>
<!-- Node45 -->
<g id="node34" class="node">
<title>Node45</title>
<g id="a_node34"><a xlink:href="_rexx_activation_stack_8hpp.html" target="_top" xlink:title=" ">
<polygon fill="white" stroke="black" points="2609.38,-113 2609.38,-132.25 2736.38,-132.25 2736.38,-113 2609.38,-113"/>
<text text-anchor="middle" x="2672.88" y="-118.75" font-family="Helvetica,sans-Serif" font-size="10.00">RexxActivationStack.hpp</text>
</a>
</g>
</g>
<!-- Node41&#45;&gt;Node45 -->
<g id="edge34" class="edge">
<title>Node41&#45;&gt;Node45</title>
<path fill="none" stroke="midnightblue" d="M2191.07,-170.23C2194.72,-169.69 2198.36,-169.19 2201.88,-168.75 2374.9,-146.88 2421.94,-151.73 2597.69,-133.06"/>
<polygon fill="midnightblue" stroke="midnightblue" points="2597.83,-136.56 2607.39,-132.02 2597.08,-129.6 2597.83,-136.56"/>
</g>
<!-- Node46 -->
<g id="node35" class="node">
<title>Node46</title>
<g id="a_node35"><a xlink:href="_expression_stack_8hpp.html" target="_top" xlink:title=" ">
<polygon fill="white" stroke="black" points="1893.38,-113 1893.38,-132.25 2002.38,-132.25 2002.38,-113 1893.38,-113"/>
<text text-anchor="middle" x="1947.88" y="-118.75" font-family="Helvetica,sans-Serif" font-size="10.00">ExpressionStack.hpp</text>
</a>
</g>
</g>
<!-- Node41&#45;&gt;Node46 -->
<g id="edge35" class="edge">
<title>Node41&#45;&gt;Node46</title>
<path fill="none" stroke="midnightblue" d="M2112.73,-168.79C2079.61,-159.72 2028.49,-145.71 1991.96,-135.7"/>
<polygon fill="midnightblue" stroke="midnightblue" points="1993.15,-132.4 1982.58,-133.13 1991.3,-139.15 1993.15,-132.4"/>
</g>
<!-- Node48 -->
<g id="node37" class="node">
<title>Node48</title>
<g id="a_node37"><a xlink:href="_rexx_local_variables_8hpp.html" target="_top" xlink:title=" ">
<polygon fill="white" stroke="red" points="2020.38,-113 2020.38,-132.25 2141.38,-132.25 2141.38,-113 2020.38,-113"/>
<text text-anchor="middle" x="2080.88" y="-118.75" font-family="Helvetica,sans-Serif" font-size="10.00">RexxLocalVariables.hpp</text>
</a>
</g>
</g>
<!-- Node41&#45;&gt;Node48 -->
<g id="edge37" class="edge">
<title>Node41&#45;&gt;Node48</title>
<path fill="none" stroke="midnightblue" d="M2135.14,-168.92C2125.68,-161.02 2111.65,-149.31 2100.23,-139.78"/>
<polygon fill="midnightblue" stroke="midnightblue" points="2102.49,-137.11 2092.57,-133.39 2098.01,-142.48 2102.49,-137.11"/>
</g>
<!-- Node63 -->
<g id="node38" class="node">
<title>Node63</title>
<g id="a_node38"><a xlink:href="_source_location_8hpp.html" target="_top" xlink:title=" ">
<polygon fill="white" stroke="black" points="2159.75,-113 2159.75,-132.25 2262,-132.25 2262,-113 2159.75,-113"/>
<text text-anchor="middle" x="2210.88" y="-118.75" font-family="Helvetica,sans-Serif" font-size="10.00">SourceLocation.hpp</text>
</a>
</g>
</g>
<!-- Node41&#45;&gt;Node63 -->
<g id="edge38" class="edge">
<title>Node41&#45;&gt;Node63</title>
<path fill="none" stroke="midnightblue" d="M2156.61,-168.92C2166.07,-161.02 2180.1,-149.31 2191.52,-139.78"/>
<polygon fill="midnightblue" stroke="midnightblue" points="2193.74,-142.48 2199.18,-133.39 2189.26,-137.11 2193.74,-142.48"/>
</g>
<!-- Node64 -->
<g id="node39" class="node">
<title>Node64</title>
<g id="a_node39"><a xlink:href="_exit_handler_8hpp.html" target="_top" xlink:title=" ">
<polygon fill="white" stroke="red" points="1492.38,-113 1492.38,-132.25 1577.38,-132.25 1577.38,-113 1492.38,-113"/>
<text text-anchor="middle" x="1534.88" y="-118.75" font-family="Helvetica,sans-Serif" font-size="10.00">ExitHandler.hpp</text>
</a>
</g>
</g>
<!-- Node41&#45;&gt;Node64 -->
<g id="edge39" class="edge">
<title>Node41&#45;&gt;Node64</title>
<path fill="none" stroke="midnightblue" d="M2100.95,-173.89C1990.93,-164.12 1708.34,-139.03 1589.17,-128.45"/>
<polygon fill="midnightblue" stroke="midnightblue" points="1589.6,-124.97 1579.33,-127.57 1588.98,-131.94 1589.6,-124.97"/>
</g>
<!-- Node66 -->
<g id="node40" class="node">
<title>Node66</title>
<g id="a_node40"><a xlink:href="_activation_api_contexts_8hpp.html" target="_top" xlink:title=" ">
<polygon fill="white" stroke="black" points="1742.75,-113 1742.75,-132.25 1875,-132.25 1875,-113 1742.75,-113"/>
<text text-anchor="middle" x="1808.88" y="-118.75" font-family="Helvetica,sans-Serif" font-size="10.00">ActivationApiContexts.hpp</text>
</a>
</g>
</g>
<!-- Node41&#45;&gt;Node66 -->
<g id="edge41" class="edge">
<title>Node41&#45;&gt;Node66</title>
<path fill="none" stroke="midnightblue" d="M2100.78,-170.61C2043.3,-161.36 1943.42,-145.28 1876.73,-134.55"/>
<polygon fill="midnightblue" stroke="midnightblue" points="1877.43,-131.12 1867,-132.98 1876.32,-138.03 1877.43,-131.12"/>
</g>
<!-- Node67 -->
<g id="node41" class="node">
<title>Node67</title>
<g id="a_node41"><a xlink:title=" ">
<polygon fill="white" stroke="#bfbfbf" points="2280.12,-113 2280.12,-132.25 2363.62,-132.25 2363.62,-113 2280.12,-113"/>
<text text-anchor="middle" x="2321.88" y="-118.75" font-family="Helvetica,sans-Serif" font-size="10.00">SysActivity.hpp</text>
</a>
</g>
</g>
<!-- Node41&#45;&gt;Node67 -->
<g id="edge43" class="edge">
<title>Node41&#45;&gt;Node67</title>
<path fill="none" stroke="midnightblue" d="M2175.33,-168.79C2204.4,-159.84 2249.05,-146.07 2281.43,-136.09"/>
<polygon fill="midnightblue" stroke="midnightblue" points="2282.35,-139.47 2290.87,-133.18 2280.29,-132.78 2282.35,-139.47"/>
</g>
<!-- Node46&#45;&gt;Node47 -->
<g id="edge36" class="edge">
<title>Node46&#45;&gt;Node47</title>
<path fill="none" stroke="midnightblue" d="M1925.11,-112.54C1903.24,-103.82 1869.95,-90.54 1845.12,-80.64"/>
<polygon fill="midnightblue" stroke="midnightblue" points="1846.7,-77.5 1836.12,-77.05 1844.11,-84 1846.7,-77.5"/>
</g>
<!-- Node64&#45;&gt;Node3 -->
<g id="edge40" class="edge">
<title>Node64&#45;&gt;Node3</title>
<path fill="none" stroke="midnightblue" d="M1525.87,-132.68C1510.68,-147.34 1478.33,-175.93 1444.88,-189 1383.83,-212.84 1193.13,-226.48 1104.72,-231.68"/>
<polygon fill="midnightblue" stroke="midnightblue" points="1104.75,-228.17 1094.97,-232.24 1105.15,-235.16 1104.75,-228.17"/>
</g>
<!-- Node66&#45;&gt;Node3 -->
<g id="edge42" class="edge">
<title>Node66&#45;&gt;Node3</title>
<path fill="none" stroke="midnightblue" d="M1798.54,-132.62C1780.81,-147.45 1742.79,-176.63 1704.88,-189 1593.2,-225.45 1233.38,-232.46 1104.95,-233.81"/>
<polygon fill="midnightblue" stroke="midnightblue" points="1105.1,-230.3 1095.13,-233.9 1105.16,-237.3 1105.1,-230.3"/>
</g>
<!-- Node52&#45;&gt;Node24 -->
<g id="edge45" class="edge">
<title>Node52&#45;&gt;Node24</title>
<path fill="none" stroke="midnightblue" d="M2385.48,-61.71C2218.99,-51.61 1755.67,-23.49 1602.07,-14.17"/>
<polygon fill="midnightblue" stroke="midnightblue" points="1602.41,-10.69 1592.21,-13.57 1601.98,-17.67 1602.41,-10.69"/>
</g>
<!-- Node68&#45;&gt;Node69 -->
<g id="edge47" class="edge">
<title>Node68&#45;&gt;Node69</title>
<path fill="none" stroke="midnightblue" d="M2315.51,-170.46C2320.36,-169.85 2325.21,-169.27 2329.88,-168.75 2510.62,-148.63 2561.63,-167.17 2743.09,-132.92"/>
<polygon fill="midnightblue" stroke="midnightblue" points="2743.73,-136.36 2752.89,-131.04 2742.41,-129.48 2743.73,-136.36"/>
</g>
<!-- Node54&#45;&gt;Node52 -->
<g id="edge50" class="edge">
<title>Node54&#45;&gt;Node52</title>
<path fill="none" stroke="midnightblue" d="M2852.48,-114.42C2847.89,-113.75 2843.29,-113.09 2838.88,-112.5 2726.81,-97.41 2596.32,-83.06 2517.47,-74.75"/>
<polygon fill="midnightblue" stroke="midnightblue" points="2518.04,-71.29 2507.73,-73.72 2517.31,-78.25 2518.04,-71.29"/>
</g>
<!-- Node71&#45;&gt;Node54 -->
<g id="edge57" class="edge">
<title>Node71&#45;&gt;Node54</title>
<path fill="none" stroke="midnightblue" d="M2874.27,-225.08C2895.38,-218.67 2917.2,-207.71 2929.88,-189 2940.34,-173.55 2928.09,-154.18 2915.84,-140.54"/>
<polygon fill="midnightblue" stroke="midnightblue" points="2918.57,-138.33 2909.09,-133.6 2913.55,-143.21 2918.57,-138.33"/>
</g>
<!-- Node51 -->
<g id="node48" class="node">
<title>Node51</title>
<g id="a_node48"><a xlink:href="_string_class_8hpp.html" target="_top" xlink:title=" ">
<polygon fill="white" stroke="red" points="2731,-169.25 2731,-188.5 2816.75,-188.5 2816.75,-169.25 2731,-169.25"/>
<text text-anchor="middle" x="2773.88" y="-175" font-family="Helvetica,sans-Serif" font-size="10.00">StringClass.hpp</text>
</a>
</g>
</g>
<!-- Node71&#45;&gt;Node51 -->
<g id="edge54" class="edge">
<title>Node71&#45;&gt;Node51</title>
<path fill="none" stroke="midnightblue" d="M2809.77,-225.17C2803.83,-217.66 2795.16,-206.72 2787.83,-197.48"/>
<polygon fill="midnightblue" stroke="midnightblue" points="2790.74,-195.52 2781.78,-189.85 2785.25,-199.86 2790.74,-195.52"/>
</g>
<!-- Node72 -->
<g id="node49" class="node">
<title>Node72</title>
<g id="a_node49"><a xlink:href="_buffer_class_8hpp.html" target="_top" xlink:title=" ">
<polygon fill="white" stroke="black" points="2834.62,-169.25 2834.62,-188.5 2921.12,-188.5 2921.12,-169.25 2834.62,-169.25"/>
<text text-anchor="middle" x="2877.88" y="-175" font-family="Helvetica,sans-Serif" font-size="10.00">BufferClass.hpp</text>
</a>
</g>
</g>
<!-- Node71&#45;&gt;Node72 -->
<g id="edge58" class="edge">
<title>Node71&#45;&gt;Node72</title>
<path fill="none" stroke="midnightblue" d="M2826.95,-225.17C2835.74,-217.35 2848.73,-205.8 2859.39,-196.32"/>
<polygon fill="midnightblue" stroke="midnightblue" points="2861.71,-198.93 2866.86,-189.67 2857.06,-193.7 2861.71,-198.93"/>
</g>
<!-- Node51&#45;&gt;Node52 -->
<g id="edge55" class="edge">
<title>Node51&#45;&gt;Node52</title>
<path fill="none" stroke="midnightblue" d="M2784.17,-168.97C2798.5,-155.51 2821.09,-129.74 2805.88,-112.5 2787.16,-91.29 2617.45,-77.63 2517.86,-71.36"/>
<polygon fill="midnightblue" stroke="midnightblue" points="2518.09,-67.87 2507.89,-70.75 2517.66,-74.86 2518.09,-67.87"/>
</g>
<!-- Node51&#45;&gt;Node54 -->
<g id="edge56" class="edge">
<title>Node51&#45;&gt;Node54</title>
<path fill="none" stroke="midnightblue" d="M2794.63,-168.79C2814.3,-160.19 2844.11,-147.15 2866.65,-137.29"/>
<polygon fill="midnightblue" stroke="midnightblue" points="2867.91,-140.56 2875.67,-133.34 2865.1,-134.14 2867.91,-140.56"/>
</g>
<!-- Node73&#45;&gt;Node41 -->
<g id="edge61" class="edge">
<title>Node73&#45;&gt;Node41</title>
<path fill="none" stroke="midnightblue" d="M2211.83,-225.17C2200.05,-217.08 2182.46,-205 2168.41,-195.35"/>
<polygon fill="midnightblue" stroke="midnightblue" points="2170.41,-192.48 2160.19,-189.7 2166.45,-198.25 2170.41,-192.48"/>
</g>
<!-- Node73&#45;&gt;Node68 -->
<g id="edge62" class="edge">
<title>Node73&#45;&gt;Node68</title>
<path fill="none" stroke="midnightblue" d="M2231.15,-225.17C2236.3,-217.82 2243.75,-207.18 2250.14,-198.06"/>
<polygon fill="midnightblue" stroke="midnightblue" points="2252.98,-200.1 2255.85,-189.91 2247.24,-196.09 2252.98,-200.1"/>
</g>
</g>
</svg>
        <g id="navigator" transform="translate(0 0)" fill="#404254">
                <rect fill="#f2f5e9" fill-opacity="0.5" stroke="#606060" stroke-width=".5" x="0" y="0" width="60" height="60"/>
                <use id="zoomplus" xlink:href="#zoomPlus" x="17" y="9" onmousedown="handleZoom(evt,'in')"/>
                <use id="zoomminus" xlink:href="#zoomMin" x="42" y="9" onmousedown="handleZoom(evt,'out')"/>
                <use id="reset" xlink:href="#resetDef" x="30" y="36" onmousedown="handleReset()"/>
                <g id="arrowUp" xlink:href="#dirArrow" transform="translate(30 24)" onmousedown="handlePan(0,-1)">
                  <use xlink:href="#rim" fill="#404040">
                        <set attributeName="fill" to="#808080" begin="arrowUp.mouseover" end="arrowUp.mouseout"/>
                  </use>
                  <path fill="none" stroke="white" stroke-width="1.5" d="M0,-3.0v7 M-2.5,-0.5L0,-3.0L2.5,-0.5"/>
                </g>
                <g id="arrowRight" xlink:href="#dirArrow" transform="rotate(90) translate(36 -43)" onmousedown="handlePan(1,0)">
                  <use xlink:href="#rim" fill="#404040">
                        <set attributeName="fill" to="#808080" begin="arrowRight.mouseover" end="arrowRight.mouseout"/>
                  </use>
                  <path fill="none" stroke="white" stroke-width="1.5" d="M0,-3.0v7 M-2.5,-0.5L0,-3.0L2.5,-0.5"/>
                </g>
                <g id="arrowDown" xlink:href="#dirArrow" transform="rotate(180) translate(-30 -48)" onmousedown="handlePan(0,1)">
                  <use xlink:href="#rim" fill="#404040">
                        <set attributeName="fill" to="#808080" begin="arrowDown.mouseover" end="arrowDown.mouseout"/>
                  </use>
                  <path fill="none" stroke="white" stroke-width="1.5" d="M0,-3.0v7 M-2.5,-0.5L0,-3.0L2.5,-0.5"/>
                </g>
                <g id="arrowLeft" xlink:href="#dirArrow" transform="rotate(270) translate(-36 17)" onmousedown="handlePan(-1,0)">
                  <use xlink:href="#rim" fill="#404040">
                        <set attributeName="fill" to="#808080" begin="arrowLeft.mouseover" end="arrowLeft.mouseout"/>
                  </use>
                  <path fill="none" stroke="white" stroke-width="1.5" d="M0,-3.0v7 M-2.5,-0.5L0,-3.0L2.5,-0.5"/>
                </g>
        </g>
        <svg viewBox="0 0 15 15" width="100%" height="30px" preserveAspectRatio="xMaxYMin meet">
         <g id="arrow_out" transform="scale(0.3 0.3)">
          <a xlink:href="_array_class_8cpp__incl_org.svg" target="_base">
           <rect id="button" ry="5" rx="5" y="6" x="6" height="38" width="38"
                fill="#f2f5e9" fill-opacity="0.5" stroke="#606060" stroke-width="1.0"/>
           <path id="arrow"
             d="M 11.500037,31.436501 C 11.940474,20.09759 22.043105,11.32322 32.158766,21.979434 L 37.068811,17.246167 C 37.068811,17.246167 37.088388,32 37.088388,32 L 22.160133,31.978069 C 22.160133,31.978069 26.997745,27.140456 26.997745,27.140456 C 18.528582,18.264221 13.291696,25.230495 11.500037,31.436501 z"
             style="fill:#404040;"/>
          </a>
         </g>
        </svg>
</svg>
