<?xml version="1.0" encoding="UTF-8" standalone="no"?>
<!DOCTYPE svg PUBLIC "-//W3C//DTD SVG 1.1//EN"
 "http://www.w3.org/Graphics/SVG/1.1/DTD/svg11.dtd">
<!-- Generated by graphviz version 12.1.0 (20240811.2233)
 -->
<!-- Title: BitSet.hpp Pages: 1 -->
<svg width="347pt" height="197pt"
 viewBox="0.00 0.00 347.25 197.00" xmlns="http://www.w3.org/2000/svg" xmlns:xlink="http://www.w3.org/1999/xlink">
<g id="graph0" class="graph" transform="scale(1 1) rotate(0) translate(4 193)">
<title>BitSet.hpp</title>
<polygon fill="white" stroke="none" points="-4,4 -4,-193 343.25,-193 343.25,4 -4,4"/>
<!-- Node1 -->
<g id="node1" class="node">
<title>Node1</title>
<g id="a_node1"><a xlink:title=" ">
<polygon fill="#bfbfbf" stroke="black" points="126.75,-169.25 126.75,-188.5 188.5,-188.5 188.5,-169.25 126.75,-169.25"/>
<text text-anchor="middle" x="157.62" y="-175" font-family="Helvetica,sans-Serif" font-size="10.00">BitSet.hpp</text>
</a>
</g>
</g>
<!-- Node2 -->
<g id="node2" class="node">
<title>Node2</title>
<g id="a_node2"><a xlink:href="_flag_set_8hpp.html" target="_top" xlink:title=" ">
<polygon fill="white" stroke="black" points="123.38,-113 123.38,-132.25 191.88,-132.25 191.88,-113 123.38,-113"/>
<text text-anchor="middle" x="157.62" y="-118.75" font-family="Helvetica,sans-Serif" font-size="10.00">FlagSet.hpp</text>
</a>
</g>
</g>
<!-- Node1&#45;&gt;Node2 -->
<g id="edge1" class="edge">
<title>Node1&#45;&gt;Node2</title>
<path fill="none" stroke="midnightblue" d="M157.62,-157.69C157.62,-148.98 157.62,-139.24 157.62,-132.42"/>
<polygon fill="midnightblue" stroke="midnightblue" points="154.13,-157.4 157.63,-167.4 161.13,-157.4 154.13,-157.4"/>
</g>
<!-- Node3 -->
<g id="node3" class="node">
<title>Node3</title>
<g id="a_node3"><a xlink:href="_class_directive_8hpp.html" target="_top" xlink:title=" ">
<polygon fill="white" stroke="black" points="108,-56.75 108,-76 207.25,-76 207.25,-56.75 108,-56.75"/>
<text text-anchor="middle" x="157.62" y="-62.5" font-family="Helvetica,sans-Serif" font-size="10.00">ClassDirective.hpp</text>
</a>
</g>
</g>
<!-- Node2&#45;&gt;Node3 -->
<g id="edge2" class="edge">
<title>Node2&#45;&gt;Node3</title>
<path fill="none" stroke="midnightblue" d="M157.62,-101.44C157.62,-92.73 157.62,-82.99 157.62,-76.17"/>
<polygon fill="midnightblue" stroke="midnightblue" points="154.13,-101.15 157.63,-111.15 161.13,-101.15 154.13,-101.15"/>
</g>
<!-- Node4 -->
<g id="node4" class="node">
<title>Node4</title>
<g id="a_node4"><a xlink:href="_class_directive_8cpp.html" target="_top" xlink:title=" ">
<polygon fill="white" stroke="black" points="0,-0.5 0,-19.75 99.25,-19.75 99.25,-0.5 0,-0.5"/>
<text text-anchor="middle" x="49.62" y="-6.25" font-family="Helvetica,sans-Serif" font-size="10.00">ClassDirective.cpp</text>
</a>
</g>
</g>
<!-- Node3&#45;&gt;Node4 -->
<g id="edge3" class="edge">
<title>Node3&#45;&gt;Node4</title>
<path fill="none" stroke="midnightblue" d="M129.61,-51.3C109.99,-41.45 84.38,-28.58 67.49,-20.1"/>
<polygon fill="midnightblue" stroke="midnightblue" points="127.93,-54.38 138.44,-55.74 131.07,-48.12 127.93,-54.38"/>
</g>
<!-- Node5 -->
<g id="node5" class="node">
<title>Node5</title>
<g id="a_node5"><a xlink:href="_source_file_8cpp.html" target="_top" xlink:title=" ">
<polygon fill="white" stroke="black" points="117,-0.5 117,-19.75 198.25,-19.75 198.25,-0.5 117,-0.5"/>
<text text-anchor="middle" x="157.62" y="-6.25" font-family="Helvetica,sans-Serif" font-size="10.00">SourceFile.cpp</text>
</a>
</g>
</g>
<!-- Node3&#45;&gt;Node5 -->
<g id="edge4" class="edge">
<title>Node3&#45;&gt;Node5</title>
<path fill="none" stroke="midnightblue" d="M157.62,-45.19C157.62,-36.48 157.62,-26.74 157.62,-19.92"/>
<polygon fill="midnightblue" stroke="midnightblue" points="154.13,-44.9 157.63,-54.9 161.13,-44.9 154.13,-44.9"/>
</g>
<!-- Node6 -->
<g id="node6" class="node">
<title>Node6</title>
<g id="a_node6"><a xlink:href="_virtual_function_table_8cpp.html" target="_top" xlink:title=" ">
<polygon fill="white" stroke="black" points="216,-0.5 216,-19.75 339.25,-19.75 339.25,-0.5 216,-0.5"/>
<text text-anchor="middle" x="277.62" y="-6.25" font-family="Helvetica,sans-Serif" font-size="10.00">VirtualFunctionTable.cpp</text>
</a>
</g>
</g>
<!-- Node3&#45;&gt;Node6 -->
<g id="edge5" class="edge">
<title>Node3&#45;&gt;Node6</title>
<path fill="none" stroke="midnightblue" d="M188.07,-51.61C209.83,-41.78 238.5,-28.81 257.47,-20.23"/>
<polygon fill="midnightblue" stroke="midnightblue" points="186.76,-48.36 179.09,-55.67 189.64,-54.74 186.76,-48.36"/>
</g>
</g>
</svg>
