<?xml version="1.0" encoding="UTF-8" standalone="no"?>
<!DOCTYPE svg PUBLIC "-//W3C//DTD SVG 1.1//EN"
 "http://www.w3.org/Graphics/SVG/1.1/DTD/svg11.dtd">
<!-- Generated by graphviz version 12.1.0 (20240811.2233)
 -->
<!-- Title: BufferClass.cpp Pages: 1 -->
<svg width="2411pt" height="366pt"
 viewBox="0.00 0.00 2410.88 365.75" xmlns="http://www.w3.org/2000/svg" xmlns:xlink="http://www.w3.org/1999/xlink">
<g id="graph0" class="graph" transform="scale(1 1) rotate(0) translate(4 361.75)">
<title>BufferClass.cpp</title>
<polygon fill="white" stroke="none" points="-4,4 -4,-361.75 2406.88,-361.75 2406.88,4 -4,4"/>
<!-- Node1 -->
<g id="node1" class="node">
<title>Node1</title>
<g id="a_node1"><a xlink:title=" ">
<polygon fill="#bfbfbf" stroke="black" points="1219.5,-338 1219.5,-357.25 1306,-357.25 1306,-338 1219.5,-338"/>
<text text-anchor="middle" x="1262.75" y="-343.75" font-family="Helvetica,sans-Serif" font-size="10.00">BufferClass.cpp</text>
</a>
</g>
</g>
<!-- Node2 -->
<g id="node2" class="node">
<title>Node2</title>
<g id="a_node2"><a xlink:title=" ">
<polygon fill="white" stroke="#bfbfbf" points="1094,-281.75 1094,-301 1141.5,-301 1141.5,-281.75 1094,-281.75"/>
<text text-anchor="middle" x="1117.75" y="-287.5" font-family="Helvetica,sans-Serif" font-size="10.00">stdlib.h</text>
</a>
</g>
</g>
<!-- Node1&#45;&gt;Node2 -->
<g id="edge1" class="edge">
<title>Node1&#45;&gt;Node2</title>
<path fill="none" stroke="midnightblue" d="M1238.48,-337.54C1214.92,-328.73 1178.92,-315.26 1152.36,-305.32"/>
<polygon fill="midnightblue" stroke="midnightblue" points="1153.63,-302.06 1143.03,-301.83 1151.17,-308.62 1153.63,-302.06"/>
</g>
<!-- Node3 -->
<g id="node3" class="node">
<title>Node3</title>
<g id="a_node3"><a xlink:title=" ">
<polygon fill="white" stroke="#bfbfbf" points="41.62,-225.5 41.62,-244.75 89.88,-244.75 89.88,-225.5 41.62,-225.5"/>
<text text-anchor="middle" x="65.75" y="-231.25" font-family="Helvetica,sans-Serif" font-size="10.00">string.h</text>
</a>
</g>
</g>
<!-- Node1&#45;&gt;Node3 -->
<g id="edge2" class="edge">
<title>Node1&#45;&gt;Node3</title>
<path fill="none" stroke="midnightblue" d="M1248.07,-337.51C1220.15,-320.26 1161.24,-284.28 1150.75,-281.25 929.64,-217.36 348.82,-277.87 101.3,-244.96"/>
<polygon fill="midnightblue" stroke="midnightblue" points="102.01,-241.53 91.62,-243.59 101.03,-248.46 102.01,-241.53"/>
</g>
<!-- Node4 -->
<g id="node4" class="node">
<title>Node4</title>
<g id="a_node4"><a xlink:href="_rexx_core_8h.html" target="_top" xlink:title=" ">
<polygon fill="white" stroke="black" points="1197.5,-281.75 1197.5,-301 1266,-301 1266,-281.75 1197.5,-281.75"/>
<text text-anchor="middle" x="1231.75" y="-287.5" font-family="Helvetica,sans-Serif" font-size="10.00">RexxCore.h</text>
</a>
</g>
</g>
<!-- Node1&#45;&gt;Node4 -->
<g id="edge3" class="edge">
<title>Node1&#45;&gt;Node4</title>
<path fill="none" stroke="midnightblue" d="M1257.63,-337.67C1253.52,-330.48 1247.61,-320.14 1242.48,-311.15"/>
<polygon fill="midnightblue" stroke="midnightblue" points="1245.52,-309.43 1237.52,-302.48 1239.45,-312.9 1245.52,-309.43"/>
</g>
<!-- Node41 -->
<g id="node34" class="node">
<title>Node41</title>
<g id="a_node34"><a xlink:href="_rexx_activity_8hpp.html" target="_top" xlink:title=" ">
<polygon fill="white" stroke="black" points="1944,-225.5 1944,-244.75 2033.5,-244.75 2033.5,-225.5 1944,-225.5"/>
<text text-anchor="middle" x="1988.75" y="-231.25" font-family="Helvetica,sans-Serif" font-size="10.00">RexxActivity.hpp</text>
</a>
</g>
</g>
<!-- Node1&#45;&gt;Node41 -->
<g id="edge57" class="edge">
<title>Node1&#45;&gt;Node41</title>
<path fill="none" stroke="midnightblue" d="M1267.05,-337.88C1274.85,-323.15 1292.82,-293.75 1317.75,-281.25 1437.52,-221.19 1780.95,-258.77 1932.7,-245.23"/>
<polygon fill="midnightblue" stroke="midnightblue" points="1932.62,-248.75 1942.21,-244.26 1931.91,-241.79 1932.62,-248.75"/>
</g>
<!-- Node68 -->
<g id="node48" class="node">
<title>Node68</title>
<g id="a_node48"><a xlink:href="_activity_manager_8hpp.html" target="_top" xlink:title=" ">
<polygon fill="white" stroke="black" points="2051.5,-225.5 2051.5,-244.75 2156,-244.75 2156,-225.5 2051.5,-225.5"/>
<text text-anchor="middle" x="2103.75" y="-231.25" font-family="Helvetica,sans-Serif" font-size="10.00">ActivityManager.hpp</text>
</a>
</g>
</g>
<!-- Node1&#45;&gt;Node68 -->
<g id="edge58" class="edge">
<title>Node1&#45;&gt;Node68</title>
<path fill="none" stroke="midnightblue" d="M1273.28,-337.57C1292.65,-321.12 1333.56,-287.44 1350.75,-281.25 1492.38,-230.28 1871.97,-259.28 2039.98,-245.34"/>
<polygon fill="midnightblue" stroke="midnightblue" points="2040.07,-248.85 2049.71,-244.45 2039.43,-241.88 2040.07,-248.85"/>
</g>
<!-- Node70 -->
<g id="node50" class="node">
<title>Node70</title>
<g id="a_node50"><a xlink:href="_buffer_class_8hpp.html" target="_top" xlink:title=" ">
<polygon fill="white" stroke="black" points="1359.5,-281.75 1359.5,-301 1446,-301 1446,-281.75 1359.5,-281.75"/>
<text text-anchor="middle" x="1402.75" y="-287.5" font-family="Helvetica,sans-Serif" font-size="10.00">BufferClass.hpp</text>
</a>
</g>
</g>
<!-- Node1&#45;&gt;Node70 -->
<g id="edge59" class="edge">
<title>Node1&#45;&gt;Node70</title>
<path fill="none" stroke="midnightblue" d="M1286.18,-337.54C1308.69,-328.82 1342.97,-315.54 1368.53,-305.64"/>
<polygon fill="midnightblue" stroke="midnightblue" points="1369.77,-308.91 1377.83,-302.03 1367.24,-302.38 1369.77,-308.91"/>
</g>
<!-- Node4&#45;&gt;Node3 -->
<g id="edge9" class="edge">
<title>Node4&#45;&gt;Node3</title>
<path fill="none" stroke="midnightblue" d="M1197.24,-283.15C1192.72,-282.4 1188.13,-281.74 1183.75,-281.25 708.39,-228.49 578.57,-314.82 101.46,-245.06"/>
<polygon fill="midnightblue" stroke="midnightblue" points="102.02,-241.61 91.62,-243.6 101,-248.53 102.02,-241.61"/>
</g>
<!-- Node5 -->
<g id="node5" class="node">
<title>Node5</title>
<g id="a_node5"><a xlink:href="oorexxapi_8h.html" target="_top" xlink:title=" ">
<polygon fill="white" stroke="black" points="758.62,-225.5 758.62,-244.75 824.88,-244.75 824.88,-225.5 758.62,-225.5"/>
<text text-anchor="middle" x="791.75" y="-231.25" font-family="Helvetica,sans-Serif" font-size="10.00">oorexxapi.h</text>
</a>
</g>
</g>
<!-- Node4&#45;&gt;Node5 -->
<g id="edge4" class="edge">
<title>Node4&#45;&gt;Node5</title>
<path fill="none" stroke="midnightblue" d="M1197.2,-283.44C1192.69,-282.64 1188.11,-281.89 1183.75,-281.25 1033.08,-259.2 990.76,-268.98 836.34,-245.31"/>
<polygon fill="midnightblue" stroke="midnightblue" points="836.93,-241.86 826.52,-243.78 835.86,-248.78 836.93,-241.86"/>
</g>
<!-- Node12 -->
<g id="node8" class="node">
<title>Node12</title>
<g id="a_node8"><a xlink:title=" ">
<polygon fill="white" stroke="#bfbfbf" points="1603.12,-225.5 1603.12,-244.75 1648.38,-244.75 1648.38,-225.5 1603.12,-225.5"/>
<text text-anchor="middle" x="1625.75" y="-231.25" font-family="Helvetica,sans-Serif" font-size="10.00">stdio.h</text>
</a>
</g>
</g>
<!-- Node4&#45;&gt;Node12 -->
<g id="edge7" class="edge">
<title>Node4&#45;&gt;Node12</title>
<path fill="none" stroke="midnightblue" d="M1266.31,-283.49C1270.82,-282.68 1275.39,-281.91 1279.75,-281.25 1415.1,-260.66 1454.01,-271.99 1591.81,-245.32"/>
<polygon fill="midnightblue" stroke="midnightblue" points="1592.17,-248.82 1601.3,-243.45 1590.81,-241.95 1592.17,-248.82"/>
</g>
<!-- Node13 -->
<g id="node9" class="node">
<title>Node13</title>
<g id="a_node9"><a xlink:title=" ">
<polygon fill="white" stroke="#bfbfbf" points="1666.12,-225.5 1666.12,-244.75 1717.38,-244.75 1717.38,-225.5 1666.12,-225.5"/>
<text text-anchor="middle" x="1691.75" y="-231.25" font-family="Helvetica,sans-Serif" font-size="10.00">stdarg.h</text>
</a>
</g>
</g>
<!-- Node4&#45;&gt;Node13 -->
<g id="edge8" class="edge">
<title>Node4&#45;&gt;Node13</title>
<path fill="none" stroke="midnightblue" d="M1266.29,-283.41C1270.81,-282.62 1275.38,-281.87 1279.75,-281.25 1443.24,-257.98 1489.69,-274.48 1654.81,-245.53"/>
<polygon fill="midnightblue" stroke="midnightblue" points="1655.14,-249.02 1664.37,-243.82 1653.91,-242.13 1655.14,-249.02"/>
</g>
<!-- Node14 -->
<g id="node10" class="node">
<title>Node14</title>
<g id="a_node10"><a xlink:title=" ">
<polygon fill="white" stroke="#bfbfbf" points="1735.62,-225.5 1735.62,-244.75 1783.88,-244.75 1783.88,-225.5 1735.62,-225.5"/>
<text text-anchor="middle" x="1759.75" y="-231.25" font-family="Helvetica,sans-Serif" font-size="10.00">ctype.h</text>
</a>
</g>
</g>
<!-- Node4&#45;&gt;Node14 -->
<g id="edge10" class="edge">
<title>Node4&#45;&gt;Node14</title>
<path fill="none" stroke="midnightblue" d="M1266.29,-283.35C1270.8,-282.57 1275.38,-281.84 1279.75,-281.25 1473.61,-255.09 1528.46,-279.04 1724.11,-245.39"/>
<polygon fill="midnightblue" stroke="midnightblue" points="1724.62,-248.86 1733.87,-243.68 1723.41,-241.96 1724.62,-248.86"/>
</g>
<!-- Node15 -->
<g id="node11" class="node">
<title>Node15</title>
<g id="a_node11"><a xlink:title=" ">
<polygon fill="white" stroke="#bfbfbf" points="1802,-225.5 1802,-244.75 1849.5,-244.75 1849.5,-225.5 1802,-225.5"/>
<text text-anchor="middle" x="1825.75" y="-231.25" font-family="Helvetica,sans-Serif" font-size="10.00">limits.h</text>
</a>
</g>
</g>
<!-- Node4&#45;&gt;Node15 -->
<g id="edge11" class="edge">
<title>Node4&#45;&gt;Node15</title>
<path fill="none" stroke="midnightblue" d="M1266.28,-283.31C1270.8,-282.53 1275.38,-281.82 1279.75,-281.25 1502.76,-252.33 1565.47,-282.88 1790.54,-245.27"/>
<polygon fill="midnightblue" stroke="midnightblue" points="1790.96,-248.75 1800.23,-243.62 1789.79,-241.85 1790.96,-248.75"/>
</g>
<!-- Node16 -->
<g id="node12" class="node">
<title>Node16</title>
<g id="a_node12"><a xlink:title=" ">
<polygon fill="white" stroke="#bfbfbf" points="1867.38,-225.5 1867.38,-244.75 1926.12,-244.75 1926.12,-225.5 1867.38,-225.5"/>
<text text-anchor="middle" x="1896.75" y="-231.25" font-family="Helvetica,sans-Serif" font-size="10.00">stdexcept</text>
</a>
</g>
</g>
<!-- Node4&#45;&gt;Node16 -->
<g id="edge12" class="edge">
<title>Node4&#45;&gt;Node16</title>
<path fill="none" stroke="midnightblue" d="M1266.28,-283.27C1270.79,-282.5 1275.37,-281.8 1279.75,-281.25 1531.95,-249.57 1601.8,-282.53 1855.91,-245.43"/>
<polygon fill="midnightblue" stroke="midnightblue" points="1856.1,-248.94 1865.48,-244.01 1855.07,-242.02 1856.1,-248.94"/>
</g>
<!-- Node17 -->
<g id="node13" class="node">
<title>Node17</title>
<g id="a_node13"><a xlink:href="_rexx_platform_definitions_8h.html" target="_top" xlink:title=" ">
<polygon fill="white" stroke="black" points="108.38,-225.5 108.38,-244.75 239.12,-244.75 239.12,-225.5 108.38,-225.5"/>
<text text-anchor="middle" x="173.75" y="-231.25" font-family="Helvetica,sans-Serif" font-size="10.00">RexxPlatformDefinitions.h</text>
</a>
</g>
</g>
<!-- Node4&#45;&gt;Node17 -->
<g id="edge13" class="edge">
<title>Node4&#45;&gt;Node17</title>
<path fill="none" stroke="midnightblue" d="M1197.24,-283.18C1192.72,-282.42 1188.13,-281.75 1183.75,-281.25 773.84,-234.67 664.67,-277.96 250.88,-245.43"/>
<polygon fill="midnightblue" stroke="midnightblue" points="251.24,-241.95 241,-244.64 250.69,-248.93 251.24,-241.95"/>
</g>
<!-- Node20 -->
<g id="node16" class="node">
<title>Node20</title>
<g id="a_node16"><a xlink:href="_rexx_constants_8hpp.html" target="_top" xlink:title=" ">
<polygon fill="white" stroke="black" points="257.25,-225.5 257.25,-244.75 360.25,-244.75 360.25,-225.5 257.25,-225.5"/>
<text text-anchor="middle" x="308.75" y="-231.25" font-family="Helvetica,sans-Serif" font-size="10.00">RexxConstants.hpp</text>
</a>
</g>
</g>
<!-- Node4&#45;&gt;Node20 -->
<g id="edge16" class="edge">
<title>Node4&#45;&gt;Node20</title>
<path fill="none" stroke="midnightblue" d="M1197.23,-283.2C1192.71,-282.44 1188.13,-281.76 1183.75,-281.25 826.26,-239.53 733.17,-277.93 374.75,-245.25 373.74,-245.16 372.73,-245.06 371.7,-244.96"/>
<polygon fill="midnightblue" stroke="midnightblue" points="372.4,-241.52 362.08,-243.92 371.65,-248.48 372.4,-241.52"/>
</g>
<!-- Node21 -->
<g id="node17" class="node">
<title>Node21</title>
<g id="a_node17"><a xlink:href="_class_type_codes_8h.html" target="_top" xlink:title=" ">
<polygon fill="white" stroke="black" points="237.12,-113 237.12,-132.25 336.38,-132.25 336.38,-113 237.12,-113"/>
<text text-anchor="middle" x="286.75" y="-118.75" font-family="Helvetica,sans-Serif" font-size="10.00">ClassTypeCodes.h</text>
</a>
</g>
</g>
<!-- Node4&#45;&gt;Node21 -->
<g id="edge17" class="edge">
<title>Node4&#45;&gt;Node21</title>
<path fill="none" stroke="midnightblue" d="M1197.04,-283.31C1192.26,-282.51 1187.39,-281.79 1182.75,-281.25 847.74,-242.29 755.44,-311.52 424.75,-245.25 424.47,-245.19 269.91,-189.23 269.75,-189 259.99,-175.07 266.74,-155.94 274.43,-141.98"/>
<polygon fill="midnightblue" stroke="midnightblue" points="277.22,-144.12 279.45,-133.76 271.25,-140.47 277.22,-144.12"/>
</g>
<!-- Node22 -->
<g id="node18" class="node">
<title>Node22</title>
<g id="a_node18"><a xlink:href="_global_names_8h.html" target="_top" xlink:title=" ">
<polygon fill="white" stroke="black" points="1139,-225.5 1139,-244.75 1222.5,-244.75 1222.5,-225.5 1139,-225.5"/>
<text text-anchor="middle" x="1180.75" y="-231.25" font-family="Helvetica,sans-Serif" font-size="10.00">GlobalNames.h</text>
</a>
</g>
</g>
<!-- Node4&#45;&gt;Node22 -->
<g id="edge18" class="edge">
<title>Node4&#45;&gt;Node22</title>
<path fill="none" stroke="midnightblue" d="M1223.33,-281.42C1216.12,-273.75 1205.56,-262.51 1196.75,-253.14"/>
<polygon fill="midnightblue" stroke="midnightblue" points="1199.45,-250.91 1190.05,-246.02 1194.35,-255.7 1199.45,-250.91"/>
</g>
<!-- Node23 -->
<g id="node19" class="node">
<title>Node23</title>
<g id="a_node19"><a xlink:href="_object_class_8hpp.html" target="_top" xlink:title=" ">
<polygon fill="white" stroke="black" points="710.38,-56.75 710.38,-76 799.12,-76 799.12,-56.75 710.38,-56.75"/>
<text text-anchor="middle" x="754.75" y="-62.5" font-family="Helvetica,sans-Serif" font-size="10.00">ObjectClass.hpp</text>
</a>
</g>
</g>
<!-- Node4&#45;&gt;Node23 -->
<g id="edge19" class="edge">
<title>Node4&#45;&gt;Node23</title>
<path fill="none" stroke="midnightblue" d="M1197.02,-283.46C1192.24,-282.64 1187.38,-281.87 1182.75,-281.25 1134.9,-274.82 782.44,-280.77 749.75,-245.25 709.53,-201.54 732.54,-123.16 746.5,-86.83"/>
<polygon fill="midnightblue" stroke="midnightblue" points="749.71,-88.23 750.21,-77.64 743.22,-85.6 749.71,-88.23"/>
</g>
<!-- Node26 -->
<g id="node22" class="node">
<title>Node26</title>
<g id="a_node22"><a xlink:href="_table_class_8hpp.html" target="_top" xlink:title=" ">
<polygon fill="white" stroke="black" points="595,-113 595,-132.25 678.5,-132.25 678.5,-113 595,-113"/>
<text text-anchor="middle" x="636.75" y="-118.75" font-family="Helvetica,sans-Serif" font-size="10.00">TableClass.hpp</text>
</a>
</g>
</g>
<!-- Node4&#45;&gt;Node26 -->
<g id="edge22" class="edge">
<title>Node4&#45;&gt;Node26</title>
<path fill="none" stroke="midnightblue" d="M1197.02,-283.43C1192.24,-282.62 1187.38,-281.86 1182.75,-281.25 1079.77,-267.72 804.31,-301.12 716.75,-245.25 683.87,-224.27 695.75,-200.95 673.75,-168.75 667.26,-159.25 659.25,-149.3 652.34,-141.17"/>
<polygon fill="midnightblue" stroke="midnightblue" points="655.09,-138.99 645.89,-133.73 649.8,-143.58 655.09,-138.99"/>
</g>
<!-- Node29 -->
<g id="node24" class="node">
<title>Node29</title>
<g id="a_node24"><a xlink:href="_stack_class_8hpp.html" target="_top" xlink:title=" ">
<polygon fill="white" stroke="black" points="1240.88,-225.5 1240.88,-244.75 1326.62,-244.75 1326.62,-225.5 1240.88,-225.5"/>
<text text-anchor="middle" x="1283.75" y="-231.25" font-family="Helvetica,sans-Serif" font-size="10.00">StackClass.hpp</text>
</a>
</g>
</g>
<!-- Node4&#45;&gt;Node29 -->
<g id="edge24" class="edge">
<title>Node4&#45;&gt;Node29</title>
<path fill="none" stroke="midnightblue" d="M1240.34,-281.42C1247.68,-273.75 1258.46,-262.51 1267.44,-253.14"/>
<polygon fill="midnightblue" stroke="midnightblue" points="1269.88,-255.65 1274.28,-246.01 1264.83,-250.81 1269.88,-255.65"/>
</g>
<!-- Node30 -->
<g id="node25" class="node">
<title>Node30</title>
<g id="a_node25"><a xlink:href="_rexx_memory_8hpp.html" target="_top" xlink:title=" ">
<polygon fill="white" stroke="black" points="433.88,-225.5 433.88,-244.75 525.62,-244.75 525.62,-225.5 433.88,-225.5"/>
<text text-anchor="middle" x="479.75" y="-231.25" font-family="Helvetica,sans-Serif" font-size="10.00">RexxMemory.hpp</text>
</a>
</g>
</g>
<!-- Node4&#45;&gt;Node30 -->
<g id="edge25" class="edge">
<title>Node4&#45;&gt;Node30</title>
<path fill="none" stroke="midnightblue" d="M1197.22,-283.28C1192.7,-282.51 1188.13,-281.8 1183.75,-281.25 1059.09,-265.47 681.98,-245.99 537.2,-238.89"/>
<polygon fill="midnightblue" stroke="midnightblue" points="537.63,-235.4 527.47,-238.41 537.29,-242.4 537.63,-235.4"/>
</g>
<!-- Node37 -->
<g id="node30" class="node">
<title>Node37</title>
<g id="a_node30"><a xlink:href="_rexx_behaviour_8hpp.html" target="_top" xlink:title=" ">
<polygon fill="white" stroke="black" points="843.38,-225.5 843.38,-244.75 944.12,-244.75 944.12,-225.5 843.38,-225.5"/>
<text text-anchor="middle" x="893.75" y="-231.25" font-family="Helvetica,sans-Serif" font-size="10.00">RexxBehaviour.hpp</text>
</a>
</g>
</g>
<!-- Node4&#45;&gt;Node37 -->
<g id="edge33" class="edge">
<title>Node4&#45;&gt;Node37</title>
<path fill="none" stroke="midnightblue" d="M1197.17,-283.66C1192.66,-282.82 1188.1,-282 1183.75,-281.25 1161.77,-277.45 1034.13,-257.73 955.69,-245.65"/>
<polygon fill="midnightblue" stroke="midnightblue" points="956.41,-242.22 945.99,-244.16 955.34,-249.14 956.41,-242.22"/>
</g>
<!-- Node39 -->
<g id="node32" class="node">
<title>Node39</title>
<g id="a_node32"><a xlink:href="_class_class_8hpp.html" target="_top" xlink:title=" ">
<polygon fill="white" stroke="black" points="1382.88,-225.5 1382.88,-244.75 1468.62,-244.75 1468.62,-225.5 1382.88,-225.5"/>
<text text-anchor="middle" x="1425.75" y="-231.25" font-family="Helvetica,sans-Serif" font-size="10.00">ClassClass.hpp</text>
</a>
</g>
</g>
<!-- Node4&#45;&gt;Node39 -->
<g id="edge35" class="edge">
<title>Node4&#45;&gt;Node39</title>
<path fill="none" stroke="midnightblue" d="M1264.22,-281.29C1296.54,-272.26 1346.34,-258.33 1382.1,-248.33"/>
<polygon fill="midnightblue" stroke="midnightblue" points="1383.03,-251.71 1391.72,-245.64 1381.14,-244.96 1383.03,-251.71"/>
</g>
<!-- Node40 -->
<g id="node33" class="node">
<title>Node40</title>
<g id="a_node33"><a xlink:href="_rexx_envelope_8hpp.html" target="_top" xlink:title=" ">
<polygon fill="white" stroke="black" points="1486.5,-225.5 1486.5,-244.75 1585,-244.75 1585,-225.5 1486.5,-225.5"/>
<text text-anchor="middle" x="1535.75" y="-231.25" font-family="Helvetica,sans-Serif" font-size="10.00">RexxEnvelope.hpp</text>
</a>
</g>
</g>
<!-- Node4&#45;&gt;Node40 -->
<g id="edge36" class="edge">
<title>Node4&#45;&gt;Node40</title>
<path fill="none" stroke="midnightblue" d="M1266.35,-283.74C1270.85,-282.89 1275.41,-282.04 1279.75,-281.25 1346.4,-269.04 1422.93,-255.63 1474.82,-246.63"/>
<polygon fill="midnightblue" stroke="midnightblue" points="1475.41,-250.08 1484.67,-244.92 1474.22,-243.18 1475.41,-250.08"/>
</g>
<!-- Node4&#45;&gt;Node41 -->
<g id="edge37" class="edge">
<title>Node4&#45;&gt;Node41</title>
<path fill="none" stroke="midnightblue" d="M1266.27,-283.24C1270.79,-282.48 1275.37,-281.78 1279.75,-281.25 1565.48,-246.4 1643.04,-276.8 1932.45,-245.37"/>
<polygon fill="midnightblue" stroke="midnightblue" points="1932.66,-248.86 1942.22,-244.29 1931.89,-241.91 1932.66,-248.86"/>
</g>
<!-- Node52 -->
<g id="node46" class="node">
<title>Node52</title>
<g id="a_node46"><a xlink:href="_number_string_class_8hpp.html" target="_top" xlink:title=" ">
<polygon fill="white" stroke="black" points="962.62,-225.5 962.62,-244.75 1082.88,-244.75 1082.88,-225.5 962.62,-225.5"/>
<text text-anchor="middle" x="1022.75" y="-231.25" font-family="Helvetica,sans-Serif" font-size="10.00">NumberStringClass.hpp</text>
</a>
</g>
</g>
<!-- Node4&#45;&gt;Node52 -->
<g id="edge52" class="edge">
<title>Node4&#45;&gt;Node52</title>
<path fill="none" stroke="midnightblue" d="M1197.24,-281.42C1162.1,-272.3 1107.42,-258.1 1068.65,-248.04"/>
<polygon fill="midnightblue" stroke="midnightblue" points="1069.69,-244.69 1059.13,-245.57 1067.93,-251.47 1069.69,-244.69"/>
</g>
<!-- Node4&#45;&gt;Node68 -->
<g id="edge55" class="edge">
<title>Node4&#45;&gt;Node68</title>
<path fill="none" stroke="midnightblue" d="M1266.44,-286.25C1282.1,-284.5 1300.83,-282.57 1317.75,-281.25 1635.78,-256.5 1719.83,-276.69 2040.21,-245.41"/>
<polygon fill="midnightblue" stroke="midnightblue" points="2040.1,-248.93 2049.71,-244.47 2039.42,-241.97 2040.1,-248.93"/>
</g>
<!-- Node6 -->
<g id="node6" class="node">
<title>Node6</title>
<g id="a_node6"><a xlink:href="rexx_8h.html" target="_top" xlink:title=" ">
<polygon fill="white" stroke="red" points="759.25,-169.25 759.25,-188.5 802.25,-188.5 802.25,-169.25 759.25,-169.25"/>
<text text-anchor="middle" x="780.75" y="-175" font-family="Helvetica,sans-Serif" font-size="10.00">rexx.h</text>
</a>
</g>
</g>
<!-- Node5&#45;&gt;Node6 -->
<g id="edge5" class="edge">
<title>Node5&#45;&gt;Node6</title>
<path fill="none" stroke="midnightblue" d="M789.93,-225.17C788.54,-218.29 786.56,-208.54 784.8,-199.85"/>
<polygon fill="midnightblue" stroke="midnightblue" points="788.25,-199.25 782.83,-190.15 781.39,-200.65 788.25,-199.25"/>
</g>
<!-- Node11 -->
<g id="node7" class="node">
<title>Node11</title>
<g id="a_node7"><a xlink:href="oorexxerrors_8h.html" target="_top" xlink:title=" ">
<polygon fill="white" stroke="black" points="820.62,-169.25 820.62,-188.5 898.88,-188.5 898.88,-169.25 820.62,-169.25"/>
<text text-anchor="middle" x="859.75" y="-175" font-family="Helvetica,sans-Serif" font-size="10.00">oorexxerrors.h</text>
</a>
</g>
</g>
<!-- Node5&#45;&gt;Node11 -->
<g id="edge6" class="edge">
<title>Node5&#45;&gt;Node11</title>
<path fill="none" stroke="midnightblue" d="M802.98,-225.17C812.98,-217.19 827.85,-205.33 839.86,-195.75"/>
<polygon fill="midnightblue" stroke="midnightblue" points="841.91,-198.58 847.55,-189.61 837.55,-193.11 841.91,-198.58"/>
</g>
<!-- Node18 -->
<g id="node14" class="node">
<title>Node18</title>
<g id="a_node14"><a xlink:title=" ">
<polygon fill="white" stroke="#bfbfbf" points="0,-169.25 0,-188.5 107.5,-188.5 107.5,-169.25 0,-169.25"/>
<text text-anchor="middle" x="53.75" y="-175" font-family="Helvetica,sans-Serif" font-size="10.00">PlatformDefinitions.h</text>
</a>
</g>
</g>
<!-- Node17&#45;&gt;Node18 -->
<g id="edge14" class="edge">
<title>Node17&#45;&gt;Node18</title>
<path fill="none" stroke="midnightblue" d="M153.66,-225.04C134.71,-216.48 106.04,-203.52 84.27,-193.67"/>
<polygon fill="midnightblue" stroke="midnightblue" points="85.83,-190.54 75.28,-189.61 82.95,-196.92 85.83,-190.54"/>
</g>
<!-- Node19 -->
<g id="node15" class="node">
<title>Node19</title>
<g id="a_node15"><a xlink:href="_rexx_error_codes_8h.html" target="_top" xlink:title=" ">
<polygon fill="white" stroke="black" points="125.25,-169.25 125.25,-188.5 222.25,-188.5 222.25,-169.25 125.25,-169.25"/>
<text text-anchor="middle" x="173.75" y="-175" font-family="Helvetica,sans-Serif" font-size="10.00">RexxErrorCodes.h</text>
</a>
</g>
</g>
<!-- Node17&#45;&gt;Node19 -->
<g id="edge15" class="edge">
<title>Node17&#45;&gt;Node19</title>
<path fill="none" stroke="midnightblue" d="M173.75,-225.17C173.75,-218.37 173.75,-208.76 173.75,-200.15"/>
<polygon fill="midnightblue" stroke="midnightblue" points="177.25,-200.18 173.75,-190.18 170.25,-200.18 177.25,-200.18"/>
</g>
<!-- Node24 -->
<g id="node20" class="node">
<title>Node24</title>
<g id="a_node20"><a xlink:href="_numerics_8hpp.html" target="_top" xlink:title=" ">
<polygon fill="white" stroke="black" points="808.38,-0.5 808.38,-19.75 885.12,-19.75 885.12,-0.5 808.38,-0.5"/>
<text text-anchor="middle" x="846.75" y="-6.25" font-family="Helvetica,sans-Serif" font-size="10.00">Numerics.hpp</text>
</a>
</g>
</g>
<!-- Node23&#45;&gt;Node24 -->
<g id="edge20" class="edge">
<title>Node23&#45;&gt;Node24</title>
<path fill="none" stroke="midnightblue" d="M769.94,-56.42C784.06,-48.09 805.34,-35.54 821.92,-25.77"/>
<polygon fill="midnightblue" stroke="midnightblue" points="823.4,-28.96 830.23,-20.87 819.84,-22.93 823.4,-28.96"/>
</g>
<!-- Node25 -->
<g id="node21" class="node">
<title>Node25</title>
<g id="a_node21"><a xlink:title=" ">
<polygon fill="white" stroke="#bfbfbf" points="636.12,-0.5 636.12,-19.75 687.38,-19.75 687.38,-0.5 636.12,-0.5"/>
<text text-anchor="middle" x="661.75" y="-6.25" font-family="Helvetica,sans-Serif" font-size="10.00">stddef.h</text>
</a>
</g>
</g>
<!-- Node23&#45;&gt;Node25 -->
<g id="edge21" class="edge">
<title>Node23&#45;&gt;Node25</title>
<path fill="none" stroke="midnightblue" d="M739.39,-56.42C725.12,-48.09 703.61,-35.54 686.85,-25.77"/>
<polygon fill="midnightblue" stroke="midnightblue" points="688.84,-22.87 678.44,-20.86 685.31,-28.92 688.84,-22.87"/>
</g>
<!-- Node27 -->
<g id="node23" class="node">
<title>Node27</title>
<g id="a_node23"><a xlink:href="_rexx_collection_8hpp.html" target="_top" xlink:title=" ">
<polygon fill="white" stroke="red" points="586,-56.75 586,-76 687.5,-76 687.5,-56.75 586,-56.75"/>
<text text-anchor="middle" x="636.75" y="-62.5" font-family="Helvetica,sans-Serif" font-size="10.00">RexxCollection.hpp</text>
</a>
</g>
</g>
<!-- Node26&#45;&gt;Node27 -->
<g id="edge23" class="edge">
<title>Node26&#45;&gt;Node27</title>
<path fill="none" stroke="midnightblue" d="M636.75,-112.67C636.75,-105.87 636.75,-96.26 636.75,-87.65"/>
<polygon fill="midnightblue" stroke="midnightblue" points="640.25,-87.68 636.75,-77.68 633.25,-87.68 640.25,-87.68"/>
</g>
<!-- Node31 -->
<g id="node26" class="node">
<title>Node31</title>
<g id="a_node26"><a xlink:title=" ">
<polygon fill="white" stroke="#bfbfbf" points="429,-169.25 429,-188.5 530.5,-188.5 530.5,-169.25 429,-169.25"/>
<text text-anchor="middle" x="479.75" y="-175" font-family="Helvetica,sans-Serif" font-size="10.00">SysSemaphore.hpp</text>
</a>
</g>
</g>
<!-- Node30&#45;&gt;Node31 -->
<g id="edge26" class="edge">
<title>Node30&#45;&gt;Node31</title>
<path fill="none" stroke="midnightblue" d="M479.75,-225.17C479.75,-218.37 479.75,-208.76 479.75,-200.15"/>
<polygon fill="midnightblue" stroke="midnightblue" points="483.25,-200.18 479.75,-190.18 476.25,-200.18 483.25,-200.18"/>
</g>
<!-- Node32 -->
<g id="node27" class="node">
<title>Node32</title>
<g id="a_node27"><a xlink:href="_identity_table_class_8hpp.html" target="_top" xlink:title=" ">
<polygon fill="white" stroke="black" points="548.88,-169.25 548.88,-188.5 664.62,-188.5 664.62,-169.25 548.88,-169.25"/>
<text text-anchor="middle" x="606.75" y="-175" font-family="Helvetica,sans-Serif" font-size="10.00">IdentityTableClass.hpp</text>
</a>
</g>
</g>
<!-- Node30&#45;&gt;Node32 -->
<g id="edge27" class="edge">
<title>Node30&#45;&gt;Node32</title>
<path fill="none" stroke="midnightblue" d="M501.01,-225.04C521.25,-216.4 551.96,-203.28 575.08,-193.4"/>
<polygon fill="midnightblue" stroke="midnightblue" points="576.21,-196.73 584.03,-189.58 573.46,-190.29 576.21,-196.73"/>
</g>
<!-- Node33 -->
<g id="node28" class="node">
<title>Node33</title>
<g id="a_node28"><a xlink:href="_memory_stats_8hpp.html" target="_top" xlink:title=" ">
<polygon fill="white" stroke="black" points="279.12,-169.25 279.12,-188.5 372.38,-188.5 372.38,-169.25 279.12,-169.25"/>
<text text-anchor="middle" x="325.75" y="-175" font-family="Helvetica,sans-Serif" font-size="10.00">MemoryStats.hpp</text>
</a>
</g>
</g>
<!-- Node30&#45;&gt;Node33 -->
<g id="edge29" class="edge">
<title>Node30&#45;&gt;Node33</title>
<path fill="none" stroke="midnightblue" d="M453.97,-225.04C428.88,-216.2 390.5,-202.68 362.26,-192.74"/>
<polygon fill="midnightblue" stroke="midnightblue" points="363.63,-189.51 353.04,-189.49 361.31,-196.11 363.63,-189.51"/>
</g>
<!-- Node34 -->
<g id="node29" class="node">
<title>Node34</title>
<g id="a_node29"><a xlink:href="_memory_segment_8hpp.html" target="_top" xlink:title=" ">
<polygon fill="white" stroke="red" points="412.25,-56.75 412.25,-76 521.25,-76 521.25,-56.75 412.25,-56.75"/>
<text text-anchor="middle" x="466.75" y="-62.5" font-family="Helvetica,sans-Serif" font-size="10.00">MemorySegment.hpp</text>
</a>
</g>
</g>
<!-- Node30&#45;&gt;Node34 -->
<g id="edge31" class="edge">
<title>Node30&#45;&gt;Node34</title>
<path fill="none" stroke="midnightblue" d="M459.57,-225.1C445.57,-217.63 428.02,-205.56 419.75,-189 401.9,-153.24 431.03,-108.95 450.83,-84.91"/>
<polygon fill="midnightblue" stroke="midnightblue" points="453.23,-87.48 457.1,-77.62 447.92,-82.92 453.23,-87.48"/>
</g>
<!-- Node32&#45;&gt;Node26 -->
<g id="edge28" class="edge">
<title>Node32&#45;&gt;Node26</title>
<path fill="none" stroke="midnightblue" d="M611.7,-168.92C615.68,-161.73 621.4,-151.39 626.37,-142.4"/>
<polygon fill="midnightblue" stroke="midnightblue" points="629.38,-144.19 631.16,-133.74 623.25,-140.8 629.38,-144.19"/>
</g>
<!-- Node33&#45;&gt;Node21 -->
<g id="edge30" class="edge">
<title>Node33&#45;&gt;Node21</title>
<path fill="none" stroke="midnightblue" d="M319.31,-168.92C313.97,-161.49 306.22,-150.7 299.61,-141.52"/>
<polygon fill="midnightblue" stroke="midnightblue" points="302.63,-139.72 293.95,-133.65 296.95,-143.81 302.63,-139.72"/>
</g>
<!-- Node34&#45;&gt;Node25 -->
<g id="edge32" class="edge">
<title>Node34&#45;&gt;Node25</title>
<path fill="none" stroke="midnightblue" d="M499.39,-56.29C534.02,-46.66 588.64,-31.47 624.82,-21.4"/>
<polygon fill="midnightblue" stroke="midnightblue" points="625.72,-24.78 634.41,-18.73 623.84,-18.04 625.72,-24.78"/>
</g>
<!-- Node38 -->
<g id="node31" class="node">
<title>Node38</title>
<g id="a_node31"><a xlink:href="_primitive_behaviour_names_8h.html" target="_top" xlink:title=" ">
<polygon fill="white" stroke="black" points="917,-169.25 917,-188.5 1054.5,-188.5 1054.5,-169.25 917,-169.25"/>
<text text-anchor="middle" x="985.75" y="-175" font-family="Helvetica,sans-Serif" font-size="10.00">PrimitiveBehaviourNames.h</text>
</a>
</g>
</g>
<!-- Node37&#45;&gt;Node38 -->
<g id="edge34" class="edge">
<title>Node37&#45;&gt;Node38</title>
<path fill="none" stroke="midnightblue" d="M908.94,-225.17C923.06,-216.84 944.34,-204.29 960.92,-194.52"/>
<polygon fill="midnightblue" stroke="midnightblue" points="962.4,-197.71 969.23,-189.62 958.84,-191.68 962.4,-197.71"/>
</g>
<!-- Node42 -->
<g id="node35" class="node">
<title>Node42</title>
<g id="a_node35"><a xlink:href="_list_class_8hpp.html" target="_top" xlink:title=" ">
<polygon fill="white" stroke="black" points="1999.75,-169.25 1999.75,-188.5 2075.75,-188.5 2075.75,-169.25 1999.75,-169.25"/>
<text text-anchor="middle" x="2037.75" y="-175" font-family="Helvetica,sans-Serif" font-size="10.00">ListClass.hpp</text>
</a>
</g>
</g>
<!-- Node41&#45;&gt;Node42 -->
<g id="edge38" class="edge">
<title>Node41&#45;&gt;Node42</title>
<path fill="none" stroke="midnightblue" d="M1996.84,-225.17C2003.69,-217.58 2013.71,-206.49 2022.12,-197.18"/>
<polygon fill="midnightblue" stroke="midnightblue" points="2024.69,-199.56 2028.79,-189.79 2019.49,-194.86 2024.69,-199.56"/>
</g>
<!-- Node44 -->
<g id="node37" class="node">
<title>Node44</title>
<g id="a_node37"><a xlink:href="_rexx_internal_stack_8hpp.html" target="_top" xlink:title=" ">
<polygon fill="white" stroke="black" points="1720.88,-169.25 1720.88,-188.5 1836.62,-188.5 1836.62,-169.25 1720.88,-169.25"/>
<text text-anchor="middle" x="1778.75" y="-175" font-family="Helvetica,sans-Serif" font-size="10.00">RexxInternalStack.hpp</text>
</a>
</g>
</g>
<!-- Node41&#45;&gt;Node44 -->
<g id="edge41" class="edge">
<title>Node41&#45;&gt;Node44</title>
<path fill="none" stroke="midnightblue" d="M1953.6,-225.04C1918.32,-215.93 1863.78,-201.84 1825,-191.82"/>
<polygon fill="midnightblue" stroke="midnightblue" points="1826.04,-188.48 1815.48,-189.36 1824.29,-195.25 1826.04,-188.48"/>
</g>
<!-- Node45 -->
<g id="node38" class="node">
<title>Node45</title>
<g id="a_node38"><a xlink:href="_rexx_activation_stack_8hpp.html" target="_top" xlink:title=" ">
<polygon fill="white" stroke="black" points="1854.25,-169.25 1854.25,-188.5 1981.25,-188.5 1981.25,-169.25 1854.25,-169.25"/>
<text text-anchor="middle" x="1917.75" y="-175" font-family="Helvetica,sans-Serif" font-size="10.00">RexxActivationStack.hpp</text>
</a>
</g>
</g>
<!-- Node41&#45;&gt;Node45 -->
<g id="edge42" class="edge">
<title>Node41&#45;&gt;Node45</title>
<path fill="none" stroke="midnightblue" d="M1977.03,-225.17C1966.48,-217.11 1950.75,-205.09 1938.15,-195.46"/>
<polygon fill="midnightblue" stroke="midnightblue" points="1940.53,-192.88 1930.46,-189.59 1936.28,-198.44 1940.53,-192.88"/>
</g>
<!-- Node46 -->
<g id="node39" class="node">
<title>Node46</title>
<g id="a_node39"><a xlink:href="_expression_stack_8hpp.html" target="_top" xlink:title=" ">
<polygon fill="white" stroke="black" points="2094.25,-169.25 2094.25,-188.5 2203.25,-188.5 2203.25,-169.25 2094.25,-169.25"/>
<text text-anchor="middle" x="2148.75" y="-175" font-family="Helvetica,sans-Serif" font-size="10.00">ExpressionStack.hpp</text>
</a>
</g>
</g>
<!-- Node41&#45;&gt;Node46 -->
<g id="edge43" class="edge">
<title>Node41&#45;&gt;Node46</title>
<path fill="none" stroke="midnightblue" d="M2015.53,-225.04C2041.72,-216.16 2081.84,-202.56 2111.2,-192.61"/>
<polygon fill="midnightblue" stroke="midnightblue" points="2112.1,-196 2120.45,-189.47 2109.85,-189.37 2112.1,-196"/>
</g>
<!-- Node48 -->
<g id="node41" class="node">
<title>Node48</title>
<g id="a_node41"><a xlink:href="_rexx_local_variables_8hpp.html" target="_top" xlink:title=" ">
<polygon fill="white" stroke="red" points="2221.25,-169.25 2221.25,-188.5 2342.25,-188.5 2342.25,-169.25 2221.25,-169.25"/>
<text text-anchor="middle" x="2281.75" y="-175" font-family="Helvetica,sans-Serif" font-size="10.00">RexxLocalVariables.hpp</text>
</a>
</g>
</g>
<!-- Node41&#45;&gt;Node48 -->
<g id="edge45" class="edge">
<title>Node41&#45;&gt;Node48</title>
<path fill="none" stroke="midnightblue" d="M2033.89,-225.77C2084.2,-216.45 2165.79,-201.35 2221.51,-191.03"/>
<polygon fill="midnightblue" stroke="midnightblue" points="2221.96,-194.5 2231.16,-189.24 2220.69,-187.62 2221.96,-194.5"/>
</g>
<!-- Node63 -->
<g id="node42" class="node">
<title>Node63</title>
<g id="a_node42"><a xlink:href="_source_location_8hpp.html" target="_top" xlink:title=" ">
<polygon fill="white" stroke="black" points="1498.62,-169.25 1498.62,-188.5 1600.88,-188.5 1600.88,-169.25 1498.62,-169.25"/>
<text text-anchor="middle" x="1549.75" y="-175" font-family="Helvetica,sans-Serif" font-size="10.00">SourceLocation.hpp</text>
</a>
</g>
</g>
<!-- Node41&#45;&gt;Node63 -->
<g id="edge46" class="edge">
<title>Node41&#45;&gt;Node63</title>
<path fill="none" stroke="midnightblue" d="M1943.7,-226.31C1940.67,-225.85 1937.67,-225.41 1934.75,-225 1794.48,-205.4 1755.79,-207.79 1612.53,-189.31"/>
<polygon fill="midnightblue" stroke="midnightblue" points="1612.99,-185.84 1602.62,-188.02 1612.08,-192.79 1612.99,-185.84"/>
</g>
<!-- Node64 -->
<g id="node43" class="node">
<title>Node64</title>
<g id="a_node43"><a xlink:href="_exit_handler_8hpp.html" target="_top" xlink:title=" ">
<polygon fill="white" stroke="red" points="1245.25,-169.25 1245.25,-188.5 1330.25,-188.5 1330.25,-169.25 1245.25,-169.25"/>
<text text-anchor="middle" x="1287.75" y="-175" font-family="Helvetica,sans-Serif" font-size="10.00">ExitHandler.hpp</text>
</a>
</g>
</g>
<!-- Node41&#45;&gt;Node64 -->
<g id="edge47" class="edge">
<title>Node41&#45;&gt;Node64</title>
<path fill="none" stroke="midnightblue" d="M1943.72,-226.15C1940.69,-225.72 1937.68,-225.34 1934.75,-225 1675.14,-195.3 1604.78,-219.27 1341.6,-189.07"/>
<polygon fill="midnightblue" stroke="midnightblue" points="1342.38,-185.64 1332.05,-187.96 1341.57,-192.59 1342.38,-185.64"/>
</g>
<!-- Node66 -->
<g id="node44" class="node">
<title>Node66</title>
<g id="a_node44"><a xlink:href="_activation_api_contexts_8hpp.html" target="_top" xlink:title=" ">
<polygon fill="white" stroke="black" points="1348.62,-169.25 1348.62,-188.5 1480.88,-188.5 1480.88,-169.25 1348.62,-169.25"/>
<text text-anchor="middle" x="1414.75" y="-175" font-family="Helvetica,sans-Serif" font-size="10.00">ActivationApiContexts.hpp</text>
</a>
</g>
</g>
<!-- Node41&#45;&gt;Node66 -->
<g id="edge49" class="edge">
<title>Node41&#45;&gt;Node66</title>
<path fill="none" stroke="midnightblue" d="M1943.71,-226.21C1940.68,-225.77 1937.67,-225.36 1934.75,-225 1741.5,-200.9 1689.1,-208.68 1492.31,-189.21"/>
<polygon fill="midnightblue" stroke="midnightblue" points="1492.79,-185.75 1482.49,-188.23 1492.09,-192.71 1492.79,-185.75"/>
</g>
<!-- Node67 -->
<g id="node45" class="node">
<title>Node67</title>
<g id="a_node45"><a xlink:title=" ">
<polygon fill="white" stroke="#bfbfbf" points="1619,-169.25 1619,-188.5 1702.5,-188.5 1702.5,-169.25 1619,-169.25"/>
<text text-anchor="middle" x="1660.75" y="-175" font-family="Helvetica,sans-Serif" font-size="10.00">SysActivity.hpp</text>
</a>
</g>
</g>
<!-- Node41&#45;&gt;Node67 -->
<g id="edge51" class="edge">
<title>Node41&#45;&gt;Node67</title>
<path fill="none" stroke="midnightblue" d="M1943.67,-226.48C1940.65,-225.98 1937.66,-225.48 1934.75,-225 1839.18,-209.21 1812.57,-206.05 1713.85,-189.33"/>
<polygon fill="midnightblue" stroke="midnightblue" points="1714.7,-185.93 1704.26,-187.7 1713.53,-192.83 1714.7,-185.93"/>
</g>
<!-- Node43 -->
<g id="node36" class="node">
<title>Node43</title>
<g id="a_node36"><a xlink:href="_rexx_list_table_8hpp.html" target="_top" xlink:title=" ">
<polygon fill="white" stroke="black" points="1617.25,-113 1617.25,-132.25 1714.25,-132.25 1714.25,-113 1617.25,-113"/>
<text text-anchor="middle" x="1665.75" y="-118.75" font-family="Helvetica,sans-Serif" font-size="10.00">RexxListTable.hpp</text>
</a>
</g>
</g>
<!-- Node42&#45;&gt;Node43 -->
<g id="edge39" class="edge">
<title>Node42&#45;&gt;Node43</title>
<path fill="none" stroke="midnightblue" d="M1999.31,-170.24C1996.41,-169.72 1993.54,-169.21 1990.75,-168.75 1898.65,-153.43 1791.25,-139.23 1725.91,-130.99"/>
<polygon fill="midnightblue" stroke="midnightblue" points="1726.46,-127.54 1716.1,-129.76 1725.59,-134.48 1726.46,-127.54"/>
</g>
<!-- Node43&#45;&gt;Node23 -->
<g id="edge40" class="edge">
<title>Node43&#45;&gt;Node23</title>
<path fill="none" stroke="midnightblue" d="M1616.77,-118.71C1460.85,-109.42 976.63,-80.59 810.98,-70.72"/>
<polygon fill="midnightblue" stroke="midnightblue" points="811.32,-67.24 801.13,-70.14 810.9,-74.23 811.32,-67.24"/>
</g>
<!-- Node47 -->
<g id="node40" class="node">
<title>Node47</title>
<g id="a_node40"><a xlink:href="_array_class_8hpp.html" target="_top" xlink:title=" ">
<polygon fill="white" stroke="black" points="2107,-113 2107,-132.25 2190.5,-132.25 2190.5,-113 2107,-113"/>
<text text-anchor="middle" x="2148.75" y="-118.75" font-family="Helvetica,sans-Serif" font-size="10.00">ArrayClass.hpp</text>
</a>
</g>
</g>
<!-- Node46&#45;&gt;Node47 -->
<g id="edge44" class="edge">
<title>Node46&#45;&gt;Node47</title>
<path fill="none" stroke="midnightblue" d="M2148.75,-168.92C2148.75,-162.12 2148.75,-152.51 2148.75,-143.9"/>
<polygon fill="midnightblue" stroke="midnightblue" points="2152.25,-143.93 2148.75,-133.93 2145.25,-143.93 2152.25,-143.93"/>
</g>
<!-- Node64&#45;&gt;Node4 -->
<g id="edge48" class="edge">
<title>Node64&#45;&gt;Node4</title>
<path fill="none" stroke="midnightblue" d="M1246.34,-189C1201.97,-199.19 1136.92,-215.49 1129.75,-225 1110.29,-250.79 1150.91,-269.17 1186.51,-279.74"/>
<polygon fill="midnightblue" stroke="midnightblue" points="1185.3,-283.04 1195.87,-282.37 1187.19,-276.3 1185.3,-283.04"/>
</g>
<!-- Node66&#45;&gt;Node4 -->
<g id="edge50" class="edge">
<title>Node66&#45;&gt;Node4</title>
<path fill="none" stroke="midnightblue" d="M1405.69,-188.86C1391.64,-202.41 1363.37,-228.31 1335.75,-245.25 1314.56,-258.25 1288.97,-269.41 1268.47,-277.37"/>
<polygon fill="midnightblue" stroke="midnightblue" points="1267.49,-274 1259.38,-280.82 1269.97,-280.55 1267.49,-274"/>
</g>
<!-- Node52&#45;&gt;Node24 -->
<g id="edge53" class="edge">
<title>Node52&#45;&gt;Node24</title>
<path fill="none" stroke="midnightblue" d="M1083.23,-226.46C1128.02,-219.4 1183.63,-207.23 1197.75,-189 1203.26,-181.89 1202.64,-176.31 1197.75,-168.75 1130.47,-64.78 976.57,-28.73 896.78,-16.76"/>
<polygon fill="midnightblue" stroke="midnightblue" points="897.46,-13.32 887.07,-15.37 896.47,-20.25 897.46,-13.32"/>
</g>
<!-- Node53 -->
<g id="node47" class="node">
<title>Node53</title>
<g id="a_node47"><a xlink:href="_number_string_math_8hpp.html" target="_top" xlink:title=" ">
<polygon fill="white" stroke="black" points="1072.5,-169.25 1072.5,-188.5 1189,-188.5 1189,-169.25 1072.5,-169.25"/>
<text text-anchor="middle" x="1130.75" y="-175" font-family="Helvetica,sans-Serif" font-size="10.00">NumberStringMath.hpp</text>
</a>
</g>
</g>
<!-- Node52&#45;&gt;Node53 -->
<g id="edge54" class="edge">
<title>Node52&#45;&gt;Node53</title>
<path fill="none" stroke="midnightblue" d="M1040.58,-225.17C1057.47,-216.69 1083.08,-203.82 1102.7,-193.96"/>
<polygon fill="midnightblue" stroke="midnightblue" points="1104.17,-197.14 1111.54,-189.53 1101.03,-190.89 1104.17,-197.14"/>
</g>
<!-- Node69 -->
<g id="node49" class="node">
<title>Node69</title>
<g id="a_node49"><a xlink:title=" ">
<polygon fill="white" stroke="#bfbfbf" points="2360.62,-169.25 2360.62,-188.5 2402.88,-188.5 2402.88,-169.25 2360.62,-169.25"/>
<text text-anchor="middle" x="2381.75" y="-175" font-family="Helvetica,sans-Serif" font-size="10.00">deque</text>
</a>
</g>
</g>
<!-- Node68&#45;&gt;Node69 -->
<g id="edge56" class="edge">
<title>Node68&#45;&gt;Node69</title>
<path fill="none" stroke="midnightblue" d="M2156.37,-226.36C2204.36,-218.87 2277.41,-206.46 2349.16,-189.42"/>
<polygon fill="midnightblue" stroke="midnightblue" points="2349.83,-192.86 2358.73,-187.11 2348.19,-186.05 2349.83,-192.86"/>
</g>
</g>
</svg>
