<?xml version="1.0" encoding="UTF-8" standalone="no"?>
<!DOCTYPE svg PUBLIC "-//W3C//DTD SVG 1.1//EN"
 "http://www.w3.org/Graphics/SVG/1.1/DTD/svg11.dtd">
<!-- Generated by graphviz version 12.1.0 (20240811.2233)
 -->
<!-- Title: CallbackDispatcher.cpp Pages: 1 -->
<svg width="2891pt" height="366pt"
 viewBox="0.00 0.00 2890.85 365.75" xmlns="http://www.w3.org/2000/svg" xmlns:xlink="http://www.w3.org/1999/xlink">
<g id="graph0" class="graph" transform="scale(1 1) rotate(0) translate(4 361.75)">
<title>CallbackDispatcher.cpp</title>
<polygon fill="white" stroke="none" points="-4,4 -4,-361.75 2886.85,-361.75 2886.85,4 -4,4"/>
<!-- Node1 -->
<g id="node1" class="node">
<title>Node1</title>
<g id="a_node1"><a xlink:title=" ">
<polygon fill="#bfbfbf" stroke="black" points="2055,-338 2055,-357.25 2174.5,-357.25 2174.5,-338 2055,-338"/>
<text text-anchor="middle" x="2114.75" y="-343.75" font-family="Helvetica,sans-Serif" font-size="10.00">CallbackDispatcher.cpp</text>
</a>
</g>
</g>
<!-- Node2 -->
<g id="node2" class="node">
<title>Node2</title>
<g id="a_node2"><a xlink:href="_rexx_core_8h.html" target="_top" xlink:title=" ">
<polygon fill="white" stroke="black" points="1180.5,-225.5 1180.5,-244.75 1249,-244.75 1249,-225.5 1180.5,-225.5"/>
<text text-anchor="middle" x="1214.75" y="-231.25" font-family="Helvetica,sans-Serif" font-size="10.00">RexxCore.h</text>
</a>
</g>
</g>
<!-- Node1&#45;&gt;Node2 -->
<g id="edge1" class="edge">
<title>Node1&#45;&gt;Node2</title>
<path fill="none" stroke="midnightblue" d="M2054.65,-339.25C1885.77,-318.51 1409.58,-260.05 1260.18,-241.7"/>
<polygon fill="midnightblue" stroke="midnightblue" points="1261.03,-238.28 1250.68,-240.54 1260.18,-245.23 1261.03,-238.28"/>
</g>
<!-- Node35 -->
<g id="node29" class="node">
<title>Node35</title>
<g id="a_node29"><a xlink:href="_interpreter_8hpp.html" target="_top" xlink:title=" ">
<polygon fill="white" stroke="black" points="217.62,-56.75 217.62,-76 295.88,-76 295.88,-56.75 217.62,-56.75"/>
<text text-anchor="middle" x="256.75" y="-62.5" font-family="Helvetica,sans-Serif" font-size="10.00">Interpreter.hpp</text>
</a>
</g>
</g>
<!-- Node1&#45;&gt;Node35 -->
<g id="edge56" class="edge">
<title>Node1&#45;&gt;Node35</title>
<path fill="none" stroke="midnightblue" d="M2054.73,-346.78C1729.4,-347.02 186.79,-340.12 46.75,-189 36.6,-178.05 23.54,-142.66 48.75,-112.5 68.55,-88.81 151.14,-76.82 206.1,-71.35"/>
<polygon fill="midnightblue" stroke="midnightblue" points="206.24,-74.85 215.87,-70.42 205.58,-67.88 206.24,-74.85"/>
</g>
<!-- Node40 -->
<g id="node34" class="node">
<title>Node40</title>
<g id="a_node34"><a xlink:href="_rexx_activity_8hpp.html" target="_top" xlink:title=" ">
<polygon fill="white" stroke="black" points="2204,-169.25 2204,-188.5 2293.5,-188.5 2293.5,-169.25 2204,-169.25"/>
<text text-anchor="middle" x="2248.75" y="-175" font-family="Helvetica,sans-Serif" font-size="10.00">RexxActivity.hpp</text>
</a>
</g>
</g>
<!-- Node1&#45;&gt;Node40 -->
<g id="edge62" class="edge">
<title>Node1&#45;&gt;Node40</title>
<path fill="none" stroke="midnightblue" d="M2121.95,-337.66C2143.22,-311.19 2206.02,-233.05 2234.46,-197.66"/>
<polygon fill="midnightblue" stroke="midnightblue" points="2237.03,-200.05 2240.56,-190.06 2231.57,-195.67 2237.03,-200.05"/>
</g>
<!-- Node64 -->
<g id="node42" class="node">
<title>Node64</title>
<g id="a_node42"><a xlink:href="_callback_dispatcher_8hpp.html" target="_top" xlink:title=" ">
<polygon fill="white" stroke="black" points="2281,-56.75 2281,-76 2400.5,-76 2400.5,-56.75 2281,-56.75"/>
<text text-anchor="middle" x="2340.75" y="-62.5" font-family="Helvetica,sans-Serif" font-size="10.00">CallbackDispatcher.hpp</text>
</a>
</g>
</g>
<!-- Node1&#45;&gt;Node64 -->
<g id="edge55" class="edge">
<title>Node1&#45;&gt;Node64</title>
<path fill="none" stroke="midnightblue" d="M2174.94,-344.27C2355.75,-336.42 2881.75,-307.43 2881.75,-236.12 2881.75,-236.12 2881.75,-236.12 2881.75,-177.88 2881.75,-147.62 2886.14,-131.69 2862.75,-112.5 2828.67,-84.54 2546.89,-73.05 2412.08,-69.12"/>
<polygon fill="midnightblue" stroke="midnightblue" points="2412.29,-65.62 2402.19,-68.84 2412.09,-72.62 2412.29,-65.62"/>
</g>
<!-- Node69 -->
<g id="node48" class="node">
<title>Node69</title>
<g id="a_node48"><a xlink:href="_interpreter_instance_8hpp.html" target="_top" xlink:title=" ">
<polygon fill="white" stroke="black" points="1961.5,-281.75 1961.5,-301 2078,-301 2078,-281.75 1961.5,-281.75"/>
<text text-anchor="middle" x="2019.75" y="-287.5" font-family="Helvetica,sans-Serif" font-size="10.00">InterpreterInstance.hpp</text>
</a>
</g>
</g>
<!-- Node1&#45;&gt;Node69 -->
<g id="edge57" class="edge">
<title>Node1&#45;&gt;Node69</title>
<path fill="none" stroke="midnightblue" d="M2099.06,-337.67C2084.49,-329.34 2062.51,-316.79 2045.39,-307.02"/>
<polygon fill="midnightblue" stroke="midnightblue" points="2047.19,-304.02 2036.77,-302.1 2043.72,-310.1 2047.19,-304.02"/>
</g>
<!-- Node71 -->
<g id="node50" class="node">
<title>Node71</title>
<g id="a_node50"><a xlink:href="_rexx_native_activation_8hpp.html" target="_top" xlink:title=" ">
<polygon fill="white" stroke="black" points="2237.75,-281.75 2237.75,-301 2367.75,-301 2367.75,-281.75 2237.75,-281.75"/>
<text text-anchor="middle" x="2302.75" y="-287.5" font-family="Helvetica,sans-Serif" font-size="10.00">RexxNativeActivation.hpp</text>
</a>
</g>
</g>
<!-- Node1&#45;&gt;Node71 -->
<g id="edge63" class="edge">
<title>Node1&#45;&gt;Node71</title>
<path fill="none" stroke="midnightblue" d="M2146.22,-337.54C2177.53,-328.51 2225.79,-314.58 2260.45,-304.58"/>
<polygon fill="midnightblue" stroke="midnightblue" points="2261.09,-308.04 2269.73,-301.9 2259.15,-301.31 2261.09,-308.04"/>
</g>
<!-- Node3 -->
<g id="node3" class="node">
<title>Node3</title>
<g id="a_node3"><a xlink:href="oorexxapi_8h.html" target="_top" xlink:title=" ">
<polygon fill="white" stroke="black" points="1095.62,-169.25 1095.62,-188.5 1161.88,-188.5 1161.88,-169.25 1095.62,-169.25"/>
<text text-anchor="middle" x="1128.75" y="-175" font-family="Helvetica,sans-Serif" font-size="10.00">oorexxapi.h</text>
</a>
</g>
</g>
<!-- Node2&#45;&gt;Node3 -->
<g id="edge2" class="edge">
<title>Node2&#45;&gt;Node3</title>
<path fill="none" stroke="midnightblue" d="M1200.55,-225.17C1187.48,-216.92 1167.84,-204.53 1152.4,-194.79"/>
<polygon fill="midnightblue" stroke="midnightblue" points="1154.58,-192.03 1144.25,-189.65 1150.84,-197.95 1154.58,-192.03"/>
</g>
<!-- Node10 -->
<g id="node6" class="node">
<title>Node10</title>
<g id="a_node6"><a xlink:title=" ">
<polygon fill="white" stroke="#bfbfbf" points="1218.12,-169.25 1218.12,-188.5 1263.38,-188.5 1263.38,-169.25 1218.12,-169.25"/>
<text text-anchor="middle" x="1240.75" y="-175" font-family="Helvetica,sans-Serif" font-size="10.00">stdio.h</text>
</a>
</g>
</g>
<!-- Node2&#45;&gt;Node10 -->
<g id="edge5" class="edge">
<title>Node2&#45;&gt;Node10</title>
<path fill="none" stroke="midnightblue" d="M1219.04,-225.17C1222.45,-218.06 1227.34,-207.87 1231.61,-198.95"/>
<polygon fill="midnightblue" stroke="midnightblue" points="1234.72,-200.56 1235.88,-190.03 1228.4,-197.54 1234.72,-200.56"/>
</g>
<!-- Node11 -->
<g id="node7" class="node">
<title>Node11</title>
<g id="a_node7"><a xlink:title=" ">
<polygon fill="white" stroke="#bfbfbf" points="1281.12,-169.25 1281.12,-188.5 1332.38,-188.5 1332.38,-169.25 1281.12,-169.25"/>
<text text-anchor="middle" x="1306.75" y="-175" font-family="Helvetica,sans-Serif" font-size="10.00">stdarg.h</text>
</a>
</g>
</g>
<!-- Node2&#45;&gt;Node11 -->
<g id="edge6" class="edge">
<title>Node2&#45;&gt;Node11</title>
<path fill="none" stroke="midnightblue" d="M1229.94,-225.17C1244.06,-216.84 1265.34,-204.29 1281.92,-194.52"/>
<polygon fill="midnightblue" stroke="midnightblue" points="1283.4,-197.71 1290.23,-189.62 1279.84,-191.68 1283.4,-197.71"/>
</g>
<!-- Node12 -->
<g id="node8" class="node">
<title>Node12</title>
<g id="a_node8"><a xlink:title=" ">
<polygon fill="white" stroke="#bfbfbf" points="1350.62,-169.25 1350.62,-188.5 1398.88,-188.5 1398.88,-169.25 1350.62,-169.25"/>
<text text-anchor="middle" x="1374.75" y="-175" font-family="Helvetica,sans-Serif" font-size="10.00">string.h</text>
</a>
</g>
</g>
<!-- Node2&#45;&gt;Node12 -->
<g id="edge7" class="edge">
<title>Node2&#45;&gt;Node12</title>
<path fill="none" stroke="midnightblue" d="M1241.53,-225.04C1268.43,-215.92 1310.02,-201.82 1339.57,-191.8"/>
<polygon fill="midnightblue" stroke="midnightblue" points="1340.47,-195.19 1348.81,-188.67 1338.22,-188.57 1340.47,-195.19"/>
</g>
<!-- Node13 -->
<g id="node9" class="node">
<title>Node13</title>
<g id="a_node9"><a xlink:title=" ">
<polygon fill="white" stroke="#bfbfbf" points="1416.62,-169.25 1416.62,-188.5 1464.88,-188.5 1464.88,-169.25 1416.62,-169.25"/>
<text text-anchor="middle" x="1440.75" y="-175" font-family="Helvetica,sans-Serif" font-size="10.00">ctype.h</text>
</a>
</g>
</g>
<!-- Node2&#45;&gt;Node13 -->
<g id="edge8" class="edge">
<title>Node2&#45;&gt;Node13</title>
<path fill="none" stroke="midnightblue" d="M1249.37,-226.47C1285.88,-218.3 1345.34,-204.72 1405.44,-189.52"/>
<polygon fill="midnightblue" stroke="midnightblue" points="1405.98,-192.99 1414.8,-187.13 1404.25,-186.21 1405.98,-192.99"/>
</g>
<!-- Node14 -->
<g id="node10" class="node">
<title>Node14</title>
<g id="a_node10"><a xlink:title=" ">
<polygon fill="white" stroke="#bfbfbf" points="1632,-169.25 1632,-188.5 1679.5,-188.5 1679.5,-169.25 1632,-169.25"/>
<text text-anchor="middle" x="1655.75" y="-175" font-family="Helvetica,sans-Serif" font-size="10.00">limits.h</text>
</a>
</g>
</g>
<!-- Node2&#45;&gt;Node14 -->
<g id="edge9" class="edge">
<title>Node2&#45;&gt;Node14</title>
<path fill="none" stroke="midnightblue" d="M1249.42,-232.16C1318.34,-227.86 1477.57,-215.93 1620.56,-189.13"/>
<polygon fill="midnightblue" stroke="midnightblue" points="1621.05,-192.6 1630.22,-187.29 1619.74,-185.72 1621.05,-192.6"/>
</g>
<!-- Node15 -->
<g id="node11" class="node">
<title>Node15</title>
<g id="a_node11"><a xlink:title=" ">
<polygon fill="white" stroke="#bfbfbf" points="1697.38,-169.25 1697.38,-188.5 1756.12,-188.5 1756.12,-169.25 1697.38,-169.25"/>
<text text-anchor="middle" x="1726.75" y="-175" font-family="Helvetica,sans-Serif" font-size="10.00">stdexcept</text>
</a>
</g>
</g>
<!-- Node2&#45;&gt;Node15 -->
<g id="edge10" class="edge">
<title>Node2&#45;&gt;Node15</title>
<path fill="none" stroke="midnightblue" d="M1249.46,-232.5C1326.37,-228.53 1517.05,-216.74 1685.63,-189.32"/>
<polygon fill="midnightblue" stroke="midnightblue" points="1686.17,-192.78 1695.47,-187.69 1685.03,-185.87 1686.17,-192.78"/>
</g>
<!-- Node16 -->
<g id="node12" class="node">
<title>Node16</title>
<g id="a_node12"><a xlink:href="_rexx_platform_definitions_8h.html" target="_top" xlink:title=" ">
<polygon fill="white" stroke="black" points="1483.38,-169.25 1483.38,-188.5 1614.12,-188.5 1614.12,-169.25 1483.38,-169.25"/>
<text text-anchor="middle" x="1548.75" y="-175" font-family="Helvetica,sans-Serif" font-size="10.00">RexxPlatformDefinitions.h</text>
</a>
</g>
</g>
<!-- Node2&#45;&gt;Node16 -->
<g id="edge11" class="edge">
<title>Node2&#45;&gt;Node16</title>
<path fill="none" stroke="midnightblue" d="M1249.24,-228.52C1303.9,-219.65 1411.42,-202.18 1481.66,-190.77"/>
<polygon fill="midnightblue" stroke="midnightblue" points="1481.79,-194.3 1491.1,-189.24 1480.67,-187.39 1481.79,-194.3"/>
</g>
<!-- Node19 -->
<g id="node15" class="node">
<title>Node19</title>
<g id="a_node15"><a xlink:href="_rexx_constants_8hpp.html" target="_top" xlink:title=" ">
<polygon fill="white" stroke="black" points="1812.25,-169.25 1812.25,-188.5 1915.25,-188.5 1915.25,-169.25 1812.25,-169.25"/>
<text text-anchor="middle" x="1863.75" y="-175" font-family="Helvetica,sans-Serif" font-size="10.00">RexxConstants.hpp</text>
</a>
</g>
</g>
<!-- Node2&#45;&gt;Node19 -->
<g id="edge14" class="edge">
<title>Node2&#45;&gt;Node19</title>
<path fill="none" stroke="midnightblue" d="M1249.32,-232.18C1339.63,-226.93 1590.08,-211.37 1797.75,-189 1798.76,-188.89 1799.77,-188.78 1800.79,-188.67"/>
<polygon fill="midnightblue" stroke="midnightblue" points="1800.89,-192.18 1810.4,-187.52 1800.06,-185.23 1800.89,-192.18"/>
</g>
<!-- Node20 -->
<g id="node16" class="node">
<title>Node20</title>
<g id="a_node16"><a xlink:href="_class_type_codes_8h.html" target="_top" xlink:title=" ">
<polygon fill="white" stroke="black" points="815.12,-56.75 815.12,-76 914.38,-76 914.38,-56.75 815.12,-56.75"/>
<text text-anchor="middle" x="864.75" y="-62.5" font-family="Helvetica,sans-Serif" font-size="10.00">ClassTypeCodes.h</text>
</a>
</g>
</g>
<!-- Node2&#45;&gt;Node20 -->
<g id="edge15" class="edge">
<title>Node2&#45;&gt;Node20</title>
<path fill="none" stroke="midnightblue" d="M1212.69,-225.2C1206.63,-199.7 1188.11,-127.4 1169.75,-112.5 1133.35,-82.97 1004.01,-72.72 925.92,-69.2"/>
<polygon fill="midnightblue" stroke="midnightblue" points="926.45,-65.72 916.31,-68.79 926.15,-72.71 926.45,-65.72"/>
</g>
<!-- Node21 -->
<g id="node17" class="node">
<title>Node21</title>
<g id="a_node17"><a xlink:href="_global_names_8h.html" target="_top" xlink:title=" ">
<polygon fill="white" stroke="black" points="74,-169.25 74,-188.5 157.5,-188.5 157.5,-169.25 74,-169.25"/>
<text text-anchor="middle" x="115.75" y="-175" font-family="Helvetica,sans-Serif" font-size="10.00">GlobalNames.h</text>
</a>
</g>
</g>
<!-- Node2&#45;&gt;Node21 -->
<g id="edge16" class="edge">
<title>Node2&#45;&gt;Node21</title>
<path fill="none" stroke="midnightblue" d="M1180.24,-234.31C1049.52,-234.68 572.14,-232.83 169.28,-189.12"/>
<polygon fill="midnightblue" stroke="midnightblue" points="169.81,-185.66 159.49,-188.05 169.05,-192.62 169.81,-185.66"/>
</g>
<!-- Node22 -->
<g id="node18" class="node">
<title>Node22</title>
<g id="a_node18"><a xlink:href="_object_class_8hpp.html" target="_top" xlink:title=" ">
<polygon fill="white" stroke="black" points="389.38,-169.25 389.38,-188.5 478.12,-188.5 478.12,-169.25 389.38,-169.25"/>
<text text-anchor="middle" x="433.75" y="-175" font-family="Helvetica,sans-Serif" font-size="10.00">ObjectClass.hpp</text>
</a>
</g>
</g>
<!-- Node2&#45;&gt;Node22 -->
<g id="edge17" class="edge">
<title>Node2&#45;&gt;Node22</title>
<path fill="none" stroke="midnightblue" d="M1180.15,-233.31C1076.81,-230.61 761.24,-220.3 489.78,-189.24"/>
<polygon fill="midnightblue" stroke="midnightblue" points="490.36,-185.78 480.02,-188.11 489.55,-192.74 490.36,-185.78"/>
</g>
<!-- Node25 -->
<g id="node21" class="node">
<title>Node25</title>
<g id="a_node21"><a xlink:href="_table_class_8hpp.html" target="_top" xlink:title=" ">
<polygon fill="white" stroke="black" points="9,-56.75 9,-76 92.5,-76 92.5,-56.75 9,-56.75"/>
<text text-anchor="middle" x="50.75" y="-62.5" font-family="Helvetica,sans-Serif" font-size="10.00">TableClass.hpp</text>
</a>
</g>
</g>
<!-- Node2&#45;&gt;Node25 -->
<g id="edge20" class="edge">
<title>Node2&#45;&gt;Node25</title>
<path fill="none" stroke="midnightblue" d="M1180.17,-234.12C990.85,-233.94 87.05,-230.88 46.75,-189 20.71,-161.93 32.76,-113.81 42.56,-86.92"/>
<polygon fill="midnightblue" stroke="midnightblue" points="45.82,-88.21 46.21,-77.63 39.3,-85.66 45.82,-88.21"/>
</g>
<!-- Node28 -->
<g id="node23" class="node">
<title>Node28</title>
<g id="a_node23"><a xlink:href="_stack_class_8hpp.html" target="_top" xlink:title=" ">
<polygon fill="white" stroke="black" points="285.88,-169.25 285.88,-188.5 371.62,-188.5 371.62,-169.25 285.88,-169.25"/>
<text text-anchor="middle" x="328.75" y="-175" font-family="Helvetica,sans-Serif" font-size="10.00">StackClass.hpp</text>
</a>
</g>
</g>
<!-- Node2&#45;&gt;Node28 -->
<g id="edge22" class="edge">
<title>Node2&#45;&gt;Node28</title>
<path fill="none" stroke="midnightblue" d="M1180.07,-233.73C1066.92,-232.14 698.19,-224.49 383.28,-189.15"/>
<polygon fill="midnightblue" stroke="midnightblue" points="383.94,-185.7 373.61,-188.05 383.15,-192.66 383.94,-185.7"/>
</g>
<!-- Node29 -->
<g id="node24" class="node">
<title>Node29</title>
<g id="a_node24"><a xlink:href="_rexx_memory_8hpp.html" target="_top" xlink:title=" ">
<polygon fill="white" stroke="black" points="175.88,-169.25 175.88,-188.5 267.62,-188.5 267.62,-169.25 175.88,-169.25"/>
<text text-anchor="middle" x="221.75" y="-175" font-family="Helvetica,sans-Serif" font-size="10.00">RexxMemory.hpp</text>
</a>
</g>
</g>
<!-- Node2&#45;&gt;Node29 -->
<g id="edge23" class="edge">
<title>Node2&#45;&gt;Node29</title>
<path fill="none" stroke="midnightblue" d="M1180.14,-233.91C1058.21,-232.85 637.11,-226.61 279.28,-189.14"/>
<polygon fill="midnightblue" stroke="midnightblue" points="279.73,-185.66 269.42,-188.09 278.99,-192.63 279.73,-185.66"/>
</g>
<!-- Node36 -->
<g id="node30" class="node">
<title>Node36</title>
<g id="a_node30"><a xlink:href="_rexx_behaviour_8hpp.html" target="_top" xlink:title=" ">
<polygon fill="white" stroke="black" points="716.38,-169.25 716.38,-188.5 817.12,-188.5 817.12,-169.25 716.38,-169.25"/>
<text text-anchor="middle" x="766.75" y="-175" font-family="Helvetica,sans-Serif" font-size="10.00">RexxBehaviour.hpp</text>
</a>
</g>
</g>
<!-- Node2&#45;&gt;Node36 -->
<g id="edge34" class="edge">
<title>Node2&#45;&gt;Node36</title>
<path fill="none" stroke="midnightblue" d="M1180.18,-230.52C1114.12,-223.53 965.11,-207.35 828.54,-189.2"/>
<polygon fill="midnightblue" stroke="midnightblue" points="829.35,-185.77 818.97,-187.92 828.42,-192.71 829.35,-185.77"/>
</g>
<!-- Node38 -->
<g id="node32" class="node">
<title>Node38</title>
<g id="a_node32"><a xlink:href="_class_class_8hpp.html" target="_top" xlink:title=" ">
<polygon fill="white" stroke="black" points="495.88,-169.25 495.88,-188.5 581.62,-188.5 581.62,-169.25 495.88,-169.25"/>
<text text-anchor="middle" x="538.75" y="-175" font-family="Helvetica,sans-Serif" font-size="10.00">ClassClass.hpp</text>
</a>
</g>
</g>
<!-- Node2&#45;&gt;Node38 -->
<g id="edge36" class="edge">
<title>Node2&#45;&gt;Node38</title>
<path fill="none" stroke="midnightblue" d="M1180.13,-232.86C1086.99,-229.18 823.12,-217.04 593.37,-189.2"/>
<polygon fill="midnightblue" stroke="midnightblue" points="593.97,-185.75 583.61,-188.01 593.11,-192.7 593.97,-185.75"/>
</g>
<!-- Node39 -->
<g id="node33" class="node">
<title>Node39</title>
<g id="a_node33"><a xlink:href="_rexx_envelope_8hpp.html" target="_top" xlink:title=" ">
<polygon fill="white" stroke="black" points="599.5,-169.25 599.5,-188.5 698,-188.5 698,-169.25 599.5,-169.25"/>
<text text-anchor="middle" x="648.75" y="-175" font-family="Helvetica,sans-Serif" font-size="10.00">RexxEnvelope.hpp</text>
</a>
</g>
</g>
<!-- Node2&#45;&gt;Node39 -->
<g id="edge37" class="edge">
<title>Node2&#45;&gt;Node39</title>
<path fill="none" stroke="midnightblue" d="M1180.24,-231.83C1099.82,-226.31 893.43,-211.19 709.53,-189.14"/>
<polygon fill="midnightblue" stroke="midnightblue" points="710.14,-185.68 699.79,-187.96 709.3,-192.63 710.14,-185.68"/>
</g>
<!-- Node2&#45;&gt;Node40 -->
<g id="edge38" class="edge">
<title>Node2&#45;&gt;Node40</title>
<path fill="none" stroke="midnightblue" d="M1249.45,-232.3C1400.81,-224.36 2004.08,-192.71 2192.34,-182.83"/>
<polygon fill="midnightblue" stroke="midnightblue" points="2192.29,-186.34 2202.1,-182.32 2191.93,-179.35 2192.29,-186.34"/>
</g>
<!-- Node51 -->
<g id="node45" class="node">
<title>Node51</title>
<g id="a_node45"><a xlink:href="_number_string_class_8hpp.html" target="_top" xlink:title=" ">
<polygon fill="white" stroke="black" points="957.62,-169.25 957.62,-188.5 1077.88,-188.5 1077.88,-169.25 957.62,-169.25"/>
<text text-anchor="middle" x="1017.75" y="-175" font-family="Helvetica,sans-Serif" font-size="10.00">NumberStringClass.hpp</text>
</a>
</g>
</g>
<!-- Node2&#45;&gt;Node51 -->
<g id="edge51" class="edge">
<title>Node2&#45;&gt;Node51</title>
<path fill="none" stroke="midnightblue" d="M1181.78,-225.04C1148.82,-215.97 1097.95,-201.96 1061.61,-191.95"/>
<polygon fill="midnightblue" stroke="midnightblue" points="1062.86,-188.67 1052.29,-189.39 1061,-195.42 1062.86,-188.67"/>
</g>
<!-- Node67 -->
<g id="node47" class="node">
<title>Node67</title>
<g id="a_node47"><a xlink:href="_activity_manager_8hpp.html" target="_top" xlink:title=" ">
<polygon fill="white" stroke="red" points="835.5,-169.25 835.5,-188.5 940,-188.5 940,-169.25 835.5,-169.25"/>
<text text-anchor="middle" x="887.75" y="-175" font-family="Helvetica,sans-Serif" font-size="10.00">ActivityManager.hpp</text>
</a>
</g>
</g>
<!-- Node2&#45;&gt;Node67 -->
<g id="edge54" class="edge">
<title>Node2&#45;&gt;Node67</title>
<path fill="none" stroke="midnightblue" d="M1180.06,-228.37C1125.72,-219.36 1019.69,-201.76 951.37,-190.43"/>
<polygon fill="midnightblue" stroke="midnightblue" points="952.26,-187.03 941.82,-188.84 951.11,-193.93 952.26,-187.03"/>
</g>
<!-- Node4 -->
<g id="node4" class="node">
<title>Node4</title>
<g id="a_node4"><a xlink:href="rexx_8h.html" target="_top" xlink:title=" ">
<polygon fill="white" stroke="red" points="1118.25,-113 1118.25,-132.25 1161.25,-132.25 1161.25,-113 1118.25,-113"/>
<text text-anchor="middle" x="1139.75" y="-118.75" font-family="Helvetica,sans-Serif" font-size="10.00">rexx.h</text>
</a>
</g>
</g>
<!-- Node3&#45;&gt;Node4 -->
<g id="edge3" class="edge">
<title>Node3&#45;&gt;Node4</title>
<path fill="none" stroke="midnightblue" d="M1130.57,-168.92C1131.96,-162.04 1133.94,-152.29 1135.7,-143.6"/>
<polygon fill="midnightblue" stroke="midnightblue" points="1139.11,-144.4 1137.67,-133.9 1132.25,-143 1139.11,-144.4"/>
</g>
<!-- Node9 -->
<g id="node5" class="node">
<title>Node9</title>
<g id="a_node5"><a xlink:href="oorexxerrors_8h.html" target="_top" xlink:title=" ">
<polygon fill="white" stroke="black" points="1021.62,-113 1021.62,-132.25 1099.88,-132.25 1099.88,-113 1021.62,-113"/>
<text text-anchor="middle" x="1060.75" y="-118.75" font-family="Helvetica,sans-Serif" font-size="10.00">oorexxerrors.h</text>
</a>
</g>
</g>
<!-- Node3&#45;&gt;Node9 -->
<g id="edge4" class="edge">
<title>Node3&#45;&gt;Node9</title>
<path fill="none" stroke="midnightblue" d="M1117.52,-168.92C1107.52,-160.94 1092.65,-149.08 1080.64,-139.5"/>
<polygon fill="midnightblue" stroke="midnightblue" points="1082.95,-136.86 1072.95,-133.36 1078.59,-142.33 1082.95,-136.86"/>
</g>
<!-- Node17 -->
<g id="node13" class="node">
<title>Node17</title>
<g id="a_node13"><a xlink:title=" ">
<polygon fill="white" stroke="#bfbfbf" points="1435,-113 1435,-132.25 1542.5,-132.25 1542.5,-113 1435,-113"/>
<text text-anchor="middle" x="1488.75" y="-118.75" font-family="Helvetica,sans-Serif" font-size="10.00">PlatformDefinitions.h</text>
</a>
</g>
</g>
<!-- Node16&#45;&gt;Node17 -->
<g id="edge12" class="edge">
<title>Node16&#45;&gt;Node17</title>
<path fill="none" stroke="midnightblue" d="M1538.84,-168.92C1530.19,-161.1 1517.42,-149.55 1506.94,-140.07"/>
<polygon fill="midnightblue" stroke="midnightblue" points="1509.36,-137.54 1499.6,-133.43 1504.67,-142.73 1509.36,-137.54"/>
</g>
<!-- Node18 -->
<g id="node14" class="node">
<title>Node18</title>
<g id="a_node14"><a xlink:href="_rexx_error_codes_8h.html" target="_top" xlink:title=" ">
<polygon fill="white" stroke="black" points="1560.25,-113 1560.25,-132.25 1657.25,-132.25 1657.25,-113 1560.25,-113"/>
<text text-anchor="middle" x="1608.75" y="-118.75" font-family="Helvetica,sans-Serif" font-size="10.00">RexxErrorCodes.h</text>
</a>
</g>
</g>
<!-- Node16&#45;&gt;Node18 -->
<g id="edge13" class="edge">
<title>Node16&#45;&gt;Node18</title>
<path fill="none" stroke="midnightblue" d="M1558.66,-168.92C1567.31,-161.1 1580.08,-149.55 1590.56,-140.07"/>
<polygon fill="midnightblue" stroke="midnightblue" points="1592.83,-142.73 1597.9,-133.43 1588.14,-137.54 1592.83,-142.73"/>
</g>
<!-- Node23 -->
<g id="node19" class="node">
<title>Node23</title>
<g id="a_node19"><a xlink:href="_numerics_8hpp.html" target="_top" xlink:title=" ">
<polygon fill="white" stroke="black" points="563.38,-113 563.38,-132.25 640.12,-132.25 640.12,-113 563.38,-113"/>
<text text-anchor="middle" x="601.75" y="-118.75" font-family="Helvetica,sans-Serif" font-size="10.00">Numerics.hpp</text>
</a>
</g>
</g>
<!-- Node22&#45;&gt;Node23 -->
<g id="edge18" class="edge">
<title>Node22&#45;&gt;Node23</title>
<path fill="none" stroke="midnightblue" d="M461.87,-168.79C489.49,-159.88 531.86,-146.19 562.73,-136.22"/>
<polygon fill="midnightblue" stroke="midnightblue" points="563.66,-139.6 572.1,-133.2 561.51,-132.94 563.66,-139.6"/>
</g>
<!-- Node24 -->
<g id="node20" class="node">
<title>Node24</title>
<g id="a_node20"><a xlink:title=" ">
<polygon fill="white" stroke="#bfbfbf" points="421.12,-56.75 421.12,-76 472.38,-76 472.38,-56.75 421.12,-56.75"/>
<text text-anchor="middle" x="446.75" y="-62.5" font-family="Helvetica,sans-Serif" font-size="10.00">stddef.h</text>
</a>
</g>
</g>
<!-- Node22&#45;&gt;Node24 -->
<g id="edge19" class="edge">
<title>Node22&#45;&gt;Node24</title>
<path fill="none" stroke="midnightblue" d="M446.37,-168.76C456.46,-160.61 469.87,-147.69 475.75,-132.75 482.2,-116.36 472.6,-98.06 462.75,-85"/>
<polygon fill="midnightblue" stroke="midnightblue" points="465.47,-82.8 456.4,-77.32 460.08,-87.26 465.47,-82.8"/>
</g>
<!-- Node26 -->
<g id="node22" class="node">
<title>Node26</title>
<g id="a_node22"><a xlink:href="_rexx_collection_8hpp.html" target="_top" xlink:title=" ">
<polygon fill="white" stroke="red" points="0,-0.5 0,-19.75 101.5,-19.75 101.5,-0.5 0,-0.5"/>
<text text-anchor="middle" x="50.75" y="-6.25" font-family="Helvetica,sans-Serif" font-size="10.00">RexxCollection.hpp</text>
</a>
</g>
</g>
<!-- Node25&#45;&gt;Node26 -->
<g id="edge21" class="edge">
<title>Node25&#45;&gt;Node26</title>
<path fill="none" stroke="midnightblue" d="M50.75,-56.42C50.75,-49.62 50.75,-40.01 50.75,-31.4"/>
<polygon fill="midnightblue" stroke="midnightblue" points="54.25,-31.43 50.75,-21.43 47.25,-31.43 54.25,-31.43"/>
</g>
<!-- Node30 -->
<g id="node25" class="node">
<title>Node30</title>
<g id="a_node25"><a xlink:title=" ">
<polygon fill="white" stroke="#bfbfbf" points="250,-0.5 250,-19.75 351.5,-19.75 351.5,-0.5 250,-0.5"/>
<text text-anchor="middle" x="300.75" y="-6.25" font-family="Helvetica,sans-Serif" font-size="10.00">SysSemaphore.hpp</text>
</a>
</g>
</g>
<!-- Node29&#45;&gt;Node30 -->
<g id="edge24" class="edge">
<title>Node29&#45;&gt;Node30</title>
<path fill="none" stroke="midnightblue" d="M268.02,-169.56C289.08,-163.22 312.09,-152.11 324.75,-132.75 345.47,-101.05 326.37,-55.47 312.4,-30.06"/>
<polygon fill="midnightblue" stroke="midnightblue" points="315.49,-28.42 307.44,-21.53 309.44,-31.93 315.49,-28.42"/>
</g>
<!-- Node31 -->
<g id="node26" class="node">
<title>Node31</title>
<g id="a_node26"><a xlink:href="_identity_table_class_8hpp.html" target="_top" xlink:title=" ">
<polygon fill="white" stroke="black" points="73.88,-113 73.88,-132.25 189.62,-132.25 189.62,-113 73.88,-113"/>
<text text-anchor="middle" x="131.75" y="-118.75" font-family="Helvetica,sans-Serif" font-size="10.00">IdentityTableClass.hpp</text>
</a>
</g>
</g>
<!-- Node29&#45;&gt;Node31 -->
<g id="edge25" class="edge">
<title>Node29&#45;&gt;Node31</title>
<path fill="none" stroke="midnightblue" d="M206.89,-168.92C193.08,-160.59 172.26,-148.04 156.04,-138.27"/>
<polygon fill="midnightblue" stroke="midnightblue" points="158.3,-135.54 147.93,-133.38 154.69,-141.54 158.3,-135.54"/>
</g>
<!-- Node32 -->
<g id="node27" class="node">
<title>Node32</title>
<g id="a_node27"><a xlink:href="_memory_stats_8hpp.html" target="_top" xlink:title=" ">
<polygon fill="white" stroke="black" points="373.12,-113 373.12,-132.25 466.38,-132.25 466.38,-113 373.12,-113"/>
<text text-anchor="middle" x="419.75" y="-118.75" font-family="Helvetica,sans-Serif" font-size="10.00">MemoryStats.hpp</text>
</a>
</g>
</g>
<!-- Node29&#45;&gt;Node32 -->
<g id="edge27" class="edge">
<title>Node29&#45;&gt;Node32</title>
<path fill="none" stroke="midnightblue" d="M254.89,-168.79C288.01,-159.72 339.14,-145.71 375.67,-135.7"/>
<polygon fill="midnightblue" stroke="midnightblue" points="376.32,-139.15 385.04,-133.13 374.47,-132.4 376.32,-139.15"/>
</g>
<!-- Node33 -->
<g id="node28" class="node">
<title>Node33</title>
<g id="a_node28"><a xlink:href="_memory_segment_8hpp.html" target="_top" xlink:title=" ">
<polygon fill="white" stroke="red" points="207.25,-113 207.25,-132.25 316.25,-132.25 316.25,-113 207.25,-113"/>
<text text-anchor="middle" x="261.75" y="-118.75" font-family="Helvetica,sans-Serif" font-size="10.00">MemorySegment.hpp</text>
</a>
</g>
</g>
<!-- Node29&#45;&gt;Node33 -->
<g id="edge29" class="edge">
<title>Node29&#45;&gt;Node33</title>
<path fill="none" stroke="midnightblue" d="M228.36,-168.92C233.83,-161.49 241.78,-150.7 248.56,-141.52"/>
<polygon fill="midnightblue" stroke="midnightblue" points="251.25,-143.76 254.37,-133.63 245.62,-139.61 251.25,-143.76"/>
</g>
<!-- Node31&#45;&gt;Node25 -->
<g id="edge26" class="edge">
<title>Node31&#45;&gt;Node25</title>
<path fill="none" stroke="midnightblue" d="M118.37,-112.67C106.18,-104.5 87.92,-92.27 73.44,-82.57"/>
<polygon fill="midnightblue" stroke="midnightblue" points="75.66,-79.85 65.4,-77.19 71.76,-85.66 75.66,-79.85"/>
</g>
<!-- Node32&#45;&gt;Node20 -->
<g id="edge28" class="edge">
<title>Node32&#45;&gt;Node20</title>
<path fill="none" stroke="midnightblue" d="M466.53,-115.92C547.45,-106.06 713.48,-85.82 803.49,-74.84"/>
<polygon fill="midnightblue" stroke="midnightblue" points="803.87,-78.32 813.37,-73.64 803.02,-71.37 803.87,-78.32"/>
</g>
<!-- Node33&#45;&gt;Node24 -->
<g id="edge30" class="edge">
<title>Node33&#45;&gt;Node24</title>
<path fill="none" stroke="midnightblue" d="M292.71,-112.54C324.97,-103.09 375.49,-88.27 409.8,-78.21"/>
<polygon fill="midnightblue" stroke="midnightblue" points="410.71,-81.59 419.32,-75.42 408.74,-74.87 410.71,-81.59"/>
</g>
<!-- Node33&#45;&gt;Node35 -->
<g id="edge31" class="edge">
<title>Node33&#45;&gt;Node35</title>
<path fill="none" stroke="midnightblue" d="M260.92,-112.67C260.29,-105.79 259.39,-96.04 258.59,-87.35"/>
<polygon fill="midnightblue" stroke="midnightblue" points="262.1,-87.31 257.7,-77.67 255.13,-87.95 262.1,-87.31"/>
</g>
<!-- Node35&#45;&gt;Node2 -->
<g id="edge32" class="edge">
<title>Node35&#45;&gt;Node2</title>
<path fill="none" stroke="midnightblue" d="M217.27,-70.97C166.72,-76.48 83.41,-88.95 64.75,-112.5 43.64,-139.15 41.18,-164.49 64.75,-189 103.62,-229.42 958.84,-233.65 1168.61,-234.08"/>
<polygon fill="midnightblue" stroke="midnightblue" points="1168.57,-237.58 1178.57,-234.1 1168.58,-230.58 1168.57,-237.58"/>
</g>
<!-- Node35&#45;&gt;Node30 -->
<g id="edge33" class="edge">
<title>Node35&#45;&gt;Node30</title>
<path fill="none" stroke="midnightblue" d="M264.02,-56.42C270.1,-48.91 278.97,-37.97 286.47,-28.73"/>
<polygon fill="midnightblue" stroke="midnightblue" points="289.09,-31.06 292.67,-21.09 283.65,-26.65 289.09,-31.06"/>
</g>
<!-- Node37 -->
<g id="node31" class="node">
<title>Node37</title>
<g id="a_node31"><a xlink:href="_primitive_behaviour_names_8h.html" target="_top" xlink:title=" ">
<polygon fill="white" stroke="black" points="698,-113 698,-132.25 835.5,-132.25 835.5,-113 698,-113"/>
<text text-anchor="middle" x="766.75" y="-118.75" font-family="Helvetica,sans-Serif" font-size="10.00">PrimitiveBehaviourNames.h</text>
</a>
</g>
</g>
<!-- Node36&#45;&gt;Node37 -->
<g id="edge35" class="edge">
<title>Node36&#45;&gt;Node37</title>
<path fill="none" stroke="midnightblue" d="M766.75,-168.92C766.75,-162.12 766.75,-152.51 766.75,-143.9"/>
<polygon fill="midnightblue" stroke="midnightblue" points="770.25,-143.93 766.75,-133.93 763.25,-143.93 770.25,-143.93"/>
</g>
<!-- Node41 -->
<g id="node35" class="node">
<title>Node41</title>
<g id="a_node35"><a xlink:href="_list_class_8hpp.html" target="_top" xlink:title=" ">
<polygon fill="white" stroke="red" points="2232.75,-113 2232.75,-132.25 2308.75,-132.25 2308.75,-113 2232.75,-113"/>
<text text-anchor="middle" x="2270.75" y="-118.75" font-family="Helvetica,sans-Serif" font-size="10.00">ListClass.hpp</text>
</a>
</g>
</g>
<!-- Node40&#45;&gt;Node41 -->
<g id="edge39" class="edge">
<title>Node40&#45;&gt;Node41</title>
<path fill="none" stroke="midnightblue" d="M2252.38,-168.92C2255.23,-161.89 2259.31,-151.84 2262.89,-143"/>
<polygon fill="midnightblue" stroke="midnightblue" points="2266.1,-144.4 2266.62,-133.82 2259.61,-141.77 2266.1,-144.4"/>
</g>
<!-- Node43 -->
<g id="node36" class="node">
<title>Node43</title>
<g id="a_node36"><a xlink:href="_rexx_internal_stack_8hpp.html" target="_top" xlink:title=" ">
<polygon fill="white" stroke="black" points="2326.88,-113 2326.88,-132.25 2442.62,-132.25 2442.62,-113 2326.88,-113"/>
<text text-anchor="middle" x="2384.75" y="-118.75" font-family="Helvetica,sans-Serif" font-size="10.00">RexxInternalStack.hpp</text>
</a>
</g>
</g>
<!-- Node40&#45;&gt;Node43 -->
<g id="edge40" class="edge">
<title>Node40&#45;&gt;Node43</title>
<path fill="none" stroke="midnightblue" d="M2271.51,-168.79C2293.38,-160.07 2326.67,-146.79 2351.51,-136.89"/>
<polygon fill="midnightblue" stroke="midnightblue" points="2352.52,-140.25 2360.51,-133.3 2349.92,-133.75 2352.52,-140.25"/>
</g>
<!-- Node44 -->
<g id="node37" class="node">
<title>Node44</title>
<g id="a_node37"><a xlink:href="_rexx_activation_stack_8hpp.html" target="_top" xlink:title=" ">
<polygon fill="white" stroke="black" points="2460.25,-113 2460.25,-132.25 2587.25,-132.25 2587.25,-113 2460.25,-113"/>
<text text-anchor="middle" x="2523.75" y="-118.75" font-family="Helvetica,sans-Serif" font-size="10.00">RexxActivationStack.hpp</text>
</a>
</g>
</g>
<!-- Node40&#45;&gt;Node44 -->
<g id="edge41" class="edge">
<title>Node40&#45;&gt;Node44</title>
<path fill="none" stroke="midnightblue" d="M2293.85,-168.98C2341.03,-159.67 2415.21,-145.04 2466.48,-134.92"/>
<polygon fill="midnightblue" stroke="midnightblue" points="2467.09,-138.37 2476.22,-133 2465.73,-131.5 2467.09,-138.37"/>
</g>
<!-- Node45 -->
<g id="node38" class="node">
<title>Node45</title>
<g id="a_node38"><a xlink:href="_expression_stack_8hpp.html" target="_top" xlink:title=" ">
<polygon fill="white" stroke="red" points="2605.25,-113 2605.25,-132.25 2714.25,-132.25 2714.25,-113 2605.25,-113"/>
<text text-anchor="middle" x="2659.75" y="-118.75" font-family="Helvetica,sans-Serif" font-size="10.00">ExpressionStack.hpp</text>
</a>
</g>
</g>
<!-- Node40&#45;&gt;Node45 -->
<g id="edge42" class="edge">
<title>Node40&#45;&gt;Node45</title>
<path fill="none" stroke="midnightblue" d="M2293.83,-172.25C2358.06,-164.18 2479.93,-148.7 2593.47,-133.19"/>
<polygon fill="midnightblue" stroke="midnightblue" points="2593.85,-136.67 2603.28,-131.84 2592.9,-129.73 2593.85,-136.67"/>
</g>
<!-- Node47 -->
<g id="node39" class="node">
<title>Node47</title>
<g id="a_node39"><a xlink:href="_rexx_local_variables_8hpp.html" target="_top" xlink:title=" ">
<polygon fill="white" stroke="red" points="2732.25,-113 2732.25,-132.25 2853.25,-132.25 2853.25,-113 2732.25,-113"/>
<text text-anchor="middle" x="2792.75" y="-118.75" font-family="Helvetica,sans-Serif" font-size="10.00">RexxLocalVariables.hpp</text>
</a>
</g>
</g>
<!-- Node40&#45;&gt;Node47 -->
<g id="edge43" class="edge">
<title>Node40&#45;&gt;Node47</title>
<path fill="none" stroke="midnightblue" d="M2294,-174.13C2376.63,-167.18 2557.76,-151.38 2720.62,-133.07"/>
<polygon fill="midnightblue" stroke="midnightblue" points="2720.76,-136.58 2730.31,-131.98 2719.98,-129.62 2720.76,-136.58"/>
</g>
<!-- Node62 -->
<g id="node40" class="node">
<title>Node62</title>
<g id="a_node40"><a xlink:href="_source_location_8hpp.html" target="_top" xlink:title=" ">
<polygon fill="white" stroke="black" points="2010.62,-113 2010.62,-132.25 2112.88,-132.25 2112.88,-113 2010.62,-113"/>
<text text-anchor="middle" x="2061.75" y="-118.75" font-family="Helvetica,sans-Serif" font-size="10.00">SourceLocation.hpp</text>
</a>
</g>
</g>
<!-- Node40&#45;&gt;Node62 -->
<g id="edge44" class="edge">
<title>Node40&#45;&gt;Node62</title>
<path fill="none" stroke="midnightblue" d="M2217.45,-168.79C2186.3,-159.76 2138.3,-145.83 2103.83,-135.83"/>
<polygon fill="midnightblue" stroke="midnightblue" points="2105.18,-132.58 2094.61,-133.16 2103.23,-139.3 2105.18,-132.58"/>
</g>
<!-- Node63 -->
<g id="node41" class="node">
<title>Node63</title>
<g id="a_node41"><a xlink:href="_exit_handler_8hpp.html" target="_top" xlink:title=" ">
<polygon fill="white" stroke="black" points="1757.25,-113 1757.25,-132.25 1842.25,-132.25 1842.25,-113 1757.25,-113"/>
<text text-anchor="middle" x="1799.75" y="-118.75" font-family="Helvetica,sans-Serif" font-size="10.00">ExitHandler.hpp</text>
</a>
</g>
</g>
<!-- Node40&#45;&gt;Node63 -->
<g id="edge45" class="edge">
<title>Node40&#45;&gt;Node63</title>
<path fill="none" stroke="midnightblue" d="M2203.69,-173.65C2131.95,-166.73 1987.13,-151.96 1853.78,-132.96"/>
<polygon fill="midnightblue" stroke="midnightblue" points="1854.46,-129.52 1844.06,-131.57 1853.46,-136.45 1854.46,-129.52"/>
</g>
<!-- Node65 -->
<g id="node43" class="node">
<title>Node65</title>
<g id="a_node43"><a xlink:href="_activation_api_contexts_8hpp.html" target="_top" xlink:title=" ">
<polygon fill="white" stroke="black" points="1860.62,-113 1860.62,-132.25 1992.88,-132.25 1992.88,-113 1860.62,-113"/>
<text text-anchor="middle" x="1926.75" y="-118.75" font-family="Helvetica,sans-Serif" font-size="10.00">ActivationApiContexts.hpp</text>
</a>
</g>
</g>
<!-- Node40&#45;&gt;Node65 -->
<g id="edge48" class="edge">
<title>Node40&#45;&gt;Node65</title>
<path fill="none" stroke="midnightblue" d="M2203.64,-170.27C2148.45,-160.98 2054.61,-145.17 1991.67,-134.56"/>
<polygon fill="midnightblue" stroke="midnightblue" points="1992.62,-131.17 1982.17,-132.96 1991.45,-138.08 1992.62,-131.17"/>
</g>
<!-- Node66 -->
<g id="node44" class="node">
<title>Node66</title>
<g id="a_node44"><a xlink:title=" ">
<polygon fill="white" stroke="#bfbfbf" points="2131,-113 2131,-132.25 2214.5,-132.25 2214.5,-113 2131,-113"/>
<text text-anchor="middle" x="2172.75" y="-118.75" font-family="Helvetica,sans-Serif" font-size="10.00">SysActivity.hpp</text>
</a>
</g>
</g>
<!-- Node40&#45;&gt;Node66 -->
<g id="edge50" class="edge">
<title>Node40&#45;&gt;Node66</title>
<path fill="none" stroke="midnightblue" d="M2236.2,-168.92C2224.87,-160.83 2207.95,-148.75 2194.43,-139.1"/>
<polygon fill="midnightblue" stroke="midnightblue" points="2196.72,-136.44 2186.55,-133.48 2192.66,-142.13 2196.72,-136.44"/>
</g>
<!-- Node63&#45;&gt;Node2 -->
<g id="edge46" class="edge">
<title>Node63&#45;&gt;Node2</title>
<path fill="none" stroke="midnightblue" d="M1797.82,-132.67C1794.18,-147.31 1784.77,-175.87 1764.75,-189 1723.04,-216.36 1385.13,-229.07 1260.61,-232.86"/>
<polygon fill="midnightblue" stroke="midnightblue" points="1260.64,-229.36 1250.75,-233.15 1260.85,-236.35 1260.64,-229.36"/>
</g>
<!-- Node63&#45;&gt;Node64 -->
<g id="edge47" class="edge">
<title>Node63&#45;&gt;Node64</title>
<path fill="none" stroke="midnightblue" d="M1842.56,-113.83C1845.66,-113.35 1848.75,-112.9 1851.75,-112.5 1999.74,-92.72 2174.1,-78.88 2269.49,-72.12"/>
<polygon fill="midnightblue" stroke="midnightblue" points="2269.49,-75.63 2279.22,-71.43 2269,-68.64 2269.49,-75.63"/>
</g>
<!-- Node65&#45;&gt;Node2 -->
<g id="edge49" class="edge">
<title>Node65&#45;&gt;Node2</title>
<path fill="none" stroke="midnightblue" d="M1929.65,-132.69C1933.54,-146.84 1938.4,-174.09 1923.75,-189 1877.36,-236.22 1410.15,-235.98 1260.56,-234.67"/>
<polygon fill="midnightblue" stroke="midnightblue" points="1260.67,-231.17 1250.64,-234.57 1260.6,-238.17 1260.67,-231.17"/>
</g>
<!-- Node51&#45;&gt;Node23 -->
<g id="edge52" class="edge">
<title>Node51&#45;&gt;Node23</title>
<path fill="none" stroke="midnightblue" d="M957.17,-169.86C954.32,-169.48 951.51,-169.11 948.75,-168.75 842.98,-154.88 719.06,-138.81 651.64,-130.08"/>
<polygon fill="midnightblue" stroke="midnightblue" points="652.39,-126.65 642.02,-128.83 651.49,-133.59 652.39,-126.65"/>
</g>
<!-- Node52 -->
<g id="node46" class="node">
<title>Node52</title>
<g id="a_node46"><a xlink:href="_number_string_math_8hpp.html" target="_top" xlink:title=" ">
<polygon fill="white" stroke="black" points="887.5,-113 887.5,-132.25 1004,-132.25 1004,-113 887.5,-113"/>
<text text-anchor="middle" x="945.75" y="-118.75" font-family="Helvetica,sans-Serif" font-size="10.00">NumberStringMath.hpp</text>
</a>
</g>
</g>
<!-- Node51&#45;&gt;Node52 -->
<g id="edge53" class="edge">
<title>Node51&#45;&gt;Node52</title>
<path fill="none" stroke="midnightblue" d="M1005.86,-168.92C995.17,-160.86 979.22,-148.84 966.44,-139.21"/>
<polygon fill="midnightblue" stroke="midnightblue" points="968.72,-136.55 958.63,-133.33 964.51,-142.14 968.72,-136.55"/>
</g>
<!-- Node69&#45;&gt;Node2 -->
<g id="edge58" class="edge">
<title>Node69&#45;&gt;Node2</title>
<path fill="none" stroke="midnightblue" d="M1961.21,-286.43C1808.1,-276.11 1398.18,-248.49 1260.54,-239.21"/>
<polygon fill="midnightblue" stroke="midnightblue" points="1260.93,-235.73 1250.72,-238.55 1260.46,-242.71 1260.93,-235.73"/>
</g>
<!-- Node69&#45;&gt;Node63 -->
<g id="edge59" class="edge">
<title>Node69&#45;&gt;Node63</title>
<path fill="none" stroke="midnightblue" d="M2014.98,-281.34C2002.78,-259.04 1968.23,-200.89 1923.75,-168.75 1902.67,-153.52 1875.9,-142.92 1852.64,-135.84"/>
<polygon fill="midnightblue" stroke="midnightblue" points="1853.92,-132.57 1843.34,-133.16 1851.98,-139.3 1853.92,-132.57"/>
</g>
<!-- Node69&#45;&gt;Node65 -->
<g id="edge60" class="edge">
<title>Node69&#45;&gt;Node65</title>
<path fill="none" stroke="midnightblue" d="M2020.23,-281.55C2020.95,-260.23 2020.17,-204.98 1995.75,-168.75 1986.76,-155.42 1972.37,-145.09 1959.05,-137.71"/>
<polygon fill="midnightblue" stroke="midnightblue" points="1961.02,-134.79 1950.53,-133.32 1957.82,-141.01 1961.02,-134.79"/>
</g>
<!-- Node70 -->
<g id="node49" class="node">
<title>Node70</title>
<g id="a_node49"><a xlink:title=" ">
<polygon fill="white" stroke="#bfbfbf" points="2047.88,-225.5 2047.88,-244.75 2181.62,-244.75 2181.62,-225.5 2047.88,-225.5"/>
<text text-anchor="middle" x="2114.75" y="-231.25" font-family="Helvetica,sans-Serif" font-size="10.00">SysInterpreterInstance.hpp</text>
</a>
</g>
</g>
<!-- Node69&#45;&gt;Node70 -->
<g id="edge61" class="edge">
<title>Node69&#45;&gt;Node70</title>
<path fill="none" stroke="midnightblue" d="M2035.44,-281.42C2050.01,-273.09 2071.99,-260.54 2089.11,-250.77"/>
<polygon fill="midnightblue" stroke="midnightblue" points="2090.78,-253.85 2097.73,-245.85 2087.31,-247.77 2090.78,-253.85"/>
</g>
<!-- Node71&#45;&gt;Node40 -->
<g id="edge64" class="edge">
<title>Node71&#45;&gt;Node40</title>
<path fill="none" stroke="midnightblue" d="M2298.33,-281.33C2289.55,-263.36 2269.72,-222.79 2257.98,-198.76"/>
<polygon fill="midnightblue" stroke="midnightblue" points="2261.28,-197.54 2253.74,-190.09 2254.99,-200.61 2261.28,-197.54"/>
</g>
</g>
</svg>
