<?xml version="1.0" encoding="UTF-8" standalone="no"?>
<!DOCTYPE svg PUBLIC "-//W3C//DTD SVG 1.1//EN"
 "http://www.w3.org/Graphics/SVG/1.1/DTD/svg11.dtd">
<!-- Generated by graphviz version 2.30.1 (20130222.1704)
 -->
<!-- Title: CommandHandler.hpp Pages: 1 -->
<!--zoomable 320 -->
<svg id="main" version="1.1" xmlns="http://www.w3.org/2000/svg" xmlns:xlink="http://www.w3.org/1999/xlink" xml:space="preserve" onload="init(evt)">
<style type="text/css"><![CDATA[
.edge:hover path { stroke: red; }
.edge:hover polygon { stroke: red; fill: red; }
]]></style>
<script type="text/javascript"><![CDATA[
var edges = document.getElementsByTagName('g');
if (edges && edges.length) {
  for (var i=0;i<edges.length;i++) {
    if (edges[i].id.substr(0,4)=='edge') {
      edges[i].setAttribute('class','edge');
    }
  }
}
]]></script>
        <defs>
                <circle id="rim" cx="0" cy="0" r="7"/>
                <circle id="rim2" cx="0" cy="0" r="3.5"/>
                <g id="zoomPlus">
                        <use xlink:href="#rim" fill="#404040">
                                <set attributeName="fill" to="#808080" begin="zoomplus.mouseover" end="zoomplus.mouseout"/>
                        </use>
                        <path d="M-4,0h8M0,-4v8" fill="none" stroke="white" stroke-width="1.5" pointer-events="none"/>
                </g>
                <g id="zoomMin">
                        <use xlink:href="#rim" fill="#404040">
                                <set attributeName="fill" to="#808080" begin="zoomminus.mouseover" end="zoomminus.mouseout"/>
                        </use>
                        <path d="M-4,0h8" fill="none" stroke="white" stroke-width="1.5" pointer-events="none"/>
                </g>
                <g id="dirArrow">
                        <path fill="none" stroke="white" stroke-width="1.5" d="M0,-3.0v7 M-2.5,-0.5L0,-3.0L2.5,-0.5"/>
                </g>
               <g id="resetDef">
                       <use xlink:href="#rim2" fill="#404040">
                               <set attributeName="fill" to="#808080" begin="reset.mouseover" end="reset.mouseout"/>
                       </use>
               </g>
        </defs>

<script type="text/javascript">
var viewWidth = 2685;
var viewHeight = 320;
var sectionId = 'dynsection-0';
</script>
<script xlink:href="svgpan.js"/>
<svg id="graph" class="graph">
<g id="viewport">
<title>CommandHandler.hpp</title>
<polygon fill="white" stroke="white" points="-4,5 -4,-316 2682,-316 2682,5 -4,5"/>
<!-- Node1 -->
<g id="node1" class="node"><title>Node1</title>
<g id="a_node1"><a xlink:title=" ">
<polygon fill="#bfbfbf" stroke="black" points="1884.97,-291 1884.97,-311 2001.03,-311 2001.03,-291 1884.97,-291"/>
<text text-anchor="middle" x="1943" y="-297" font-family="Helvetica,sans-Serif" font-size="10.00">CommandHandler.hpp</text>
</a>
</g>
</g>
<!-- Node2 -->
<g id="node2" class="node"><title>Node2</title>
<g id="a_node2"><a xlink:href="_rexx_core_8h.html" target="_top" xlink:title=" ">
<polygon fill="white" stroke="black" points="1213.6,-233 1213.6,-253 1282.4,-253 1282.4,-233 1213.6,-233"/>
<text text-anchor="middle" x="1248" y="-239" font-family="Helvetica,sans-Serif" font-size="10.00">RexxCore.h</text>
</a>
</g>
</g>
<!-- Node1&#45;&gt;Node2 -->
<g id="edge1" class="edge"><title>Node1&#45;&gt;Node2</title>
<path fill="none" stroke="midnightblue" d="M1884.94,-295.322C1749.26,-284.39 1413.76,-257.356 1292.57,-247.591"/>
<polygon fill="midnightblue" stroke="midnightblue" points="1292.78,-244.097 1282.53,-246.782 1292.22,-251.074 1292.78,-244.097"/>
</g>
<!-- Node63 -->
<g id="node44" class="node"><title>Node63</title>
<g id="a_node44"><a xlink:href="_callback_dispatcher_8hpp.html" target="_top" xlink:title=" ">
<polygon fill="white" stroke="black" points="2556.47,-59 2556.47,-79 2677.53,-79 2677.53,-59 2556.47,-59"/>
<text text-anchor="middle" x="2617" y="-65" font-family="Helvetica,sans-Serif" font-size="10.00">CallbackDispatcher.hpp</text>
</a>
</g>
</g>
<!-- Node1&#45;&gt;Node63 -->
<g id="edge56" class="edge"><title>Node1&#45;&gt;Node63</title>
<path fill="none" stroke="midnightblue" d="M2001.29,-295.187C2151.01,-281.481 2542.59,-236.692 2618,-138 2628.61,-124.109 2626.62,-103.54 2623.04,-88.6637"/>
<polygon fill="midnightblue" stroke="midnightblue" points="2626.41,-87.6893 2620.32,-79.0147 2619.67,-89.5893 2626.41,-87.6893"/>
</g>
<!-- Node3 -->
<g id="node3" class="node"><title>Node3</title>
<g id="a_node3"><a xlink:href="oorexxapi_8h.html" target="_top" xlink:title=" ">
<polygon fill="white" stroke="black" points="1818.15,-175 1818.15,-195 1885.85,-195 1885.85,-175 1818.15,-175"/>
<text text-anchor="middle" x="1852" y="-181" font-family="Helvetica,sans-Serif" font-size="10.00">oorexxapi.h</text>
</a>
</g>
</g>
<!-- Node2&#45;&gt;Node3 -->
<g id="edge2" class="edge"><title>Node2&#45;&gt;Node3</title>
<path fill="none" stroke="midnightblue" d="M1282.65,-240.614C1370.33,-236.788 1607.98,-224.418 1804,-196 1805.28,-195.815 1806.58,-195.616 1807.88,-195.406"/>
<polygon fill="midnightblue" stroke="midnightblue" points="1808.76,-198.805 1818,-193.621 1807.55,-191.911 1808.76,-198.805"/>
</g>
<!-- Node10 -->
<g id="node10" class="node"><title>Node10</title>
<g id="a_node10"><a xlink:title=" ">
<polygon fill="white" stroke="#bfbfbf" points="1904.27,-175 1904.27,-195 1949.73,-195 1949.73,-175 1904.27,-175"/>
<text text-anchor="middle" x="1927" y="-181" font-family="Helvetica,sans-Serif" font-size="10.00">stdio.h</text>
</a>
</g>
</g>
<!-- Node2&#45;&gt;Node10 -->
<g id="edge9" class="edge"><title>Node2&#45;&gt;Node10</title>
<path fill="none" stroke="midnightblue" d="M1282.66,-242.235C1379.94,-242.316 1663.47,-238.584 1894,-196 1894.1,-195.981 1894.21,-195.962 1894.31,-195.942"/>
<polygon fill="midnightblue" stroke="midnightblue" points="1895.14,-199.342 1904.08,-193.659 1893.55,-192.526 1895.14,-199.342"/>
</g>
<!-- Node11 -->
<g id="node11" class="node"><title>Node11</title>
<g id="a_node11"><a xlink:title=" ">
<polygon fill="white" stroke="#bfbfbf" points="2005.93,-175 2005.93,-195 2058.07,-195 2058.07,-175 2005.93,-175"/>
<text text-anchor="middle" x="2032" y="-181" font-family="Helvetica,sans-Serif" font-size="10.00">stdarg.h</text>
</a>
</g>
</g>
<!-- Node2&#45;&gt;Node11 -->
<g id="edge10" class="edge"><title>Node2&#45;&gt;Node11</title>
<path fill="none" stroke="midnightblue" d="M1282.73,-242.104C1389.35,-241.944 1721.18,-237.862 1992,-196 1993.27,-195.803 1994.57,-195.585 1995.87,-195.348"/>
<polygon fill="midnightblue" stroke="midnightblue" points="1996.82,-198.726 2005.89,-193.257 1995.39,-191.873 1996.82,-198.726"/>
</g>
<!-- Node12 -->
<g id="node12" class="node"><title>Node12</title>
<g id="a_node12"><a xlink:title=" ">
<polygon fill="white" stroke="#bfbfbf" points="-0.396484,-175 -0.396484,-195 48.3965,-195 48.3965,-175 -0.396484,-175"/>
<text text-anchor="middle" x="24" y="-181" font-family="Helvetica,sans-Serif" font-size="10.00">string.h</text>
</a>
</g>
</g>
<!-- Node2&#45;&gt;Node12 -->
<g id="edge11" class="edge"><title>Node2&#45;&gt;Node12</title>
<path fill="none" stroke="midnightblue" d="M1213.44,-241.816C1045.13,-240.746 309.568,-234.033 58.8613,-195.653"/>
<polygon fill="midnightblue" stroke="midnightblue" points="59.144,-192.154 48.7181,-194.039 58.0437,-199.067 59.144,-192.154"/>
</g>
<!-- Node13 -->
<g id="node13" class="node"><title>Node13</title>
<g id="a_node13"><a xlink:title=" ">
<polygon fill="white" stroke="#bfbfbf" points="66.8794,-175 66.8794,-195 115.121,-195 115.121,-175 66.8794,-175"/>
<text text-anchor="middle" x="91" y="-181" font-family="Helvetica,sans-Serif" font-size="10.00">ctype.h</text>
</a>
</g>
</g>
<!-- Node2&#45;&gt;Node13 -->
<g id="edge12" class="edge"><title>Node2&#45;&gt;Node13</title>
<path fill="none" stroke="midnightblue" d="M1213.46,-241.763C1050.98,-240.47 361.164,-232.964 125.226,-195.75"/>
<polygon fill="midnightblue" stroke="midnightblue" points="125.778,-192.294 115.343,-194.128 124.645,-199.201 125.778,-192.294"/>
</g>
<!-- Node14 -->
<g id="node14" class="node"><title>Node14</title>
<g id="a_node14"><a xlink:title=" ">
<polygon fill="white" stroke="#bfbfbf" points="133.443,-175 133.443,-195 180.557,-195 180.557,-175 133.443,-175"/>
<text text-anchor="middle" x="157" y="-181" font-family="Helvetica,sans-Serif" font-size="10.00">limits.h</text>
</a>
</g>
</g>
<!-- Node2&#45;&gt;Node14 -->
<g id="edge13" class="edge"><title>Node2&#45;&gt;Node14</title>
<path fill="none" stroke="midnightblue" d="M1213.35,-241.701C1056.64,-240.167 412.51,-231.865 190.529,-195.806"/>
<polygon fill="midnightblue" stroke="midnightblue" points="191.041,-192.343 180.596,-194.124 189.872,-199.245 191.041,-192.343"/>
</g>
<!-- Node15 -->
<g id="node15" class="node"><title>Node15</title>
<g id="a_node15"><a xlink:href="_rexx_platform_definitions_8h.html" target="_top" xlink:title=" ">
<polygon fill="white" stroke="black" points="198.478,-175 198.478,-195 329.522,-195 329.522,-175 198.478,-175"/>
<text text-anchor="middle" x="264" y="-181" font-family="Helvetica,sans-Serif" font-size="10.00">RexxPlatformDefinitions.h</text>
</a>
</g>
</g>
<!-- Node2&#45;&gt;Node15 -->
<g id="edge14" class="edge"><title>Node2&#45;&gt;Node15</title>
<path fill="none" stroke="midnightblue" d="M1213.21,-241.291C1093.32,-238.627 686.084,-227.742 338.155,-195.925"/>
<polygon fill="midnightblue" stroke="midnightblue" points="338.417,-192.435 328.138,-195.002 337.774,-199.405 338.417,-192.435"/>
</g>
<!-- Node18 -->
<g id="node18" class="node"><title>Node18</title>
<g id="a_node18"><a xlink:href="_rexx_constants_8hpp.html" target="_top" xlink:title=" ">
<polygon fill="white" stroke="black" points="347.365,-175 347.365,-195 450.635,-195 450.635,-175 347.365,-175"/>
<text text-anchor="middle" x="399" y="-181" font-family="Helvetica,sans-Serif" font-size="10.00">RexxConstants.hpp</text>
</a>
</g>
</g>
<!-- Node2&#45;&gt;Node18 -->
<g id="edge17" class="edge"><title>Node2&#45;&gt;Node18</title>
<path fill="none" stroke="midnightblue" d="M1213.56,-241.104C1103.96,-238.011 753.463,-226.262 465,-196 463.703,-195.864 462.393,-195.721 461.073,-195.571"/>
<polygon fill="midnightblue" stroke="midnightblue" points="461.175,-192.057 450.823,-194.311 460.321,-199.005 461.175,-192.057"/>
</g>
<!-- Node19 -->
<g id="node19" class="node"><title>Node19</title>
<g id="a_node19"><a xlink:href="_class_type_codes_8h.html" target="_top" xlink:title=" ">
<polygon fill="white" stroke="black" points="278.032,-59 278.032,-79 377.968,-79 377.968,-59 278.032,-59"/>
<text text-anchor="middle" x="328" y="-65" font-family="Helvetica,sans-Serif" font-size="10.00">ClassTypeCodes.h</text>
</a>
</g>
</g>
<!-- Node2&#45;&gt;Node19 -->
<g id="edge18" class="edge"><title>Node2&#45;&gt;Node19</title>
<path fill="none" stroke="midnightblue" d="M1213.48,-241.736C1111.85,-240.527 805.053,-233.768 554,-196 552.271,-195.74 310.085,-139.371 309,-138 297.648,-123.646 305.999,-102.907 314.932,-88.1118"/>
<polygon fill="midnightblue" stroke="midnightblue" points="318.109,-89.6513 320.686,-79.3746 312.263,-85.8014 318.109,-89.6513"/>
</g>
<!-- Node20 -->
<g id="node20" class="node"><title>Node20</title>
<g id="a_node20"><a xlink:href="_global_names_8h.html" target="_top" xlink:title=" ">
<polygon fill="white" stroke="black" points="1102.54,-175 1102.54,-195 1187.46,-195 1187.46,-175 1102.54,-175"/>
<text text-anchor="middle" x="1145" y="-181" font-family="Helvetica,sans-Serif" font-size="10.00">GlobalNames.h</text>
</a>
</g>
</g>
<!-- Node2&#45;&gt;Node20 -->
<g id="edge19" class="edge"><title>Node2&#45;&gt;Node20</title>
<path fill="none" stroke="midnightblue" d="M1230.99,-232.753C1214.57,-223.823 1189.48,-210.185 1170.64,-199.939"/>
<polygon fill="midnightblue" stroke="midnightblue" points="1172.15,-196.777 1161.69,-195.075 1168.81,-202.927 1172.15,-196.777"/>
</g>
<!-- Node21 -->
<g id="node21" class="node"><title>Node21</title>
<g id="a_node21"><a xlink:href="_object_class_8hpp.html" target="_top" xlink:title=" ">
<polygon fill="white" stroke="black" points="854.315,-175 854.315,-195 943.685,-195 943.685,-175 854.315,-175"/>
<text text-anchor="middle" x="899" y="-181" font-family="Helvetica,sans-Serif" font-size="10.00">ObjectClass.hpp</text>
</a>
</g>
</g>
<!-- Node2&#45;&gt;Node21 -->
<g id="edge20" class="edge"><title>Node2&#45;&gt;Node21</title>
<path fill="none" stroke="midnightblue" d="M1213.43,-236.935C1160.06,-229.045 1054.13,-213.103 953.776,-196.095"/>
<polygon fill="midnightblue" stroke="midnightblue" points="954.217,-192.619 943.772,-194.392 953.043,-199.52 954.217,-192.619"/>
</g>
<!-- Node24 -->
<g id="node24" class="node"><title>Node24</title>
<g id="a_node24"><a xlink:href="_table_class_8hpp.html" target="_top" xlink:title=" ">
<polygon fill="white" stroke="black" points="620.813,-59 620.813,-79 705.187,-79 705.187,-59 620.813,-59"/>
<text text-anchor="middle" x="663" y="-65" font-family="Helvetica,sans-Serif" font-size="10.00">TableClass.hpp</text>
</a>
</g>
</g>
<!-- Node2&#45;&gt;Node24 -->
<g id="edge23" class="edge"><title>Node2&#45;&gt;Node24</title>
<path fill="none" stroke="midnightblue" d="M1213.41,-242.212C1126.91,-242.1 903.937,-237.67 845,-196 812.702,-173.164 835.889,-141.91 806,-116 780.705,-94.072 744.823,-82.5689 715.331,-76.5493"/>
<polygon fill="midnightblue" stroke="midnightblue" points="715.668,-73.0514 705.193,-74.6407 714.373,-79.9306 715.668,-73.0514"/>
</g>
<!-- Node27 -->
<g id="node26" class="node"><title>Node27</title>
<g id="a_node26"><a xlink:href="_stack_class_8hpp.html" target="_top" xlink:title=" ">
<polygon fill="white" stroke="black" points="1205.26,-175 1205.26,-195 1290.74,-195 1290.74,-175 1205.26,-175"/>
<text text-anchor="middle" x="1248" y="-181" font-family="Helvetica,sans-Serif" font-size="10.00">StackClass.hpp</text>
</a>
</g>
</g>
<!-- Node2&#45;&gt;Node27 -->
<g id="edge25" class="edge"><title>Node2&#45;&gt;Node27</title>
<path fill="none" stroke="midnightblue" d="M1248,-232.753C1248,-225.25 1248,-214.424 1248,-205.078"/>
<polygon fill="midnightblue" stroke="midnightblue" points="1251.5,-205.075 1248,-195.075 1244.5,-205.075 1251.5,-205.075"/>
</g>
<!-- Node28 -->
<g id="node27" class="node"><title>Node28</title>
<g id="a_node27"><a xlink:href="_rexx_memory_8hpp.html" target="_top" xlink:title=" ">
<polygon fill="white" stroke="black" points="563.189,-175 563.189,-195 656.811,-195 656.811,-175 563.189,-175"/>
<text text-anchor="middle" x="610" y="-181" font-family="Helvetica,sans-Serif" font-size="10.00">RexxMemory.hpp</text>
</a>
</g>
</g>
<!-- Node2&#45;&gt;Node28 -->
<g id="edge26" class="edge"><title>Node2&#45;&gt;Node28</title>
<path fill="none" stroke="midnightblue" d="M1213.25,-238.949C1108.68,-229.772 796.275,-202.35 666.988,-191.002"/>
<polygon fill="midnightblue" stroke="midnightblue" points="667.162,-187.504 656.894,-190.116 666.55,-194.477 667.162,-187.504"/>
</g>
<!-- Node35 -->
<g id="node32" class="node"><title>Node35</title>
<g id="a_node32"><a xlink:href="_rexx_behaviour_8hpp.html" target="_top" xlink:title=" ">
<polygon fill="white" stroke="black" points="1308.64,-175 1308.64,-195 1411.36,-195 1411.36,-175 1308.64,-175"/>
<text text-anchor="middle" x="1360" y="-181" font-family="Helvetica,sans-Serif" font-size="10.00">RexxBehaviour.hpp</text>
</a>
</g>
</g>
<!-- Node2&#45;&gt;Node35 -->
<g id="edge34" class="edge"><title>Node2&#45;&gt;Node35</title>
<path fill="none" stroke="midnightblue" d="M1266.49,-232.753C1284.52,-223.742 1312.13,-209.935 1332.68,-199.659"/>
<polygon fill="midnightblue" stroke="midnightblue" points="1334.47,-202.678 1341.85,-195.075 1331.34,-196.417 1334.47,-202.678"/>
</g>
<!-- Node37 -->
<g id="node34" class="node"><title>Node37</title>
<g id="a_node34"><a xlink:href="_class_class_8hpp.html" target="_top" xlink:title=" ">
<polygon fill="white" stroke="black" points="1429.26,-175 1429.26,-195 1514.74,-195 1514.74,-175 1429.26,-175"/>
<text text-anchor="middle" x="1472" y="-181" font-family="Helvetica,sans-Serif" font-size="10.00">ClassClass.hpp</text>
</a>
</g>
</g>
<!-- Node2&#45;&gt;Node37 -->
<g id="edge36" class="edge"><title>Node2&#45;&gt;Node37</title>
<path fill="none" stroke="midnightblue" d="M1282.51,-233.373C1321.02,-223.744 1383.52,-208.12 1426.13,-197.469"/>
<polygon fill="midnightblue" stroke="midnightblue" points="1427.11,-200.829 1435.97,-195.008 1425.42,-194.038 1427.11,-200.829"/>
</g>
<!-- Node38 -->
<g id="node35" class="node"><title>Node38</title>
<g id="a_node35"><a xlink:href="_rexx_envelope_8hpp.html" target="_top" xlink:title=" ">
<polygon fill="white" stroke="black" points="1533.03,-175 1533.03,-195 1632.97,-195 1632.97,-175 1533.03,-175"/>
<text text-anchor="middle" x="1583" y="-181" font-family="Helvetica,sans-Serif" font-size="10.00">RexxEnvelope.hpp</text>
</a>
</g>
</g>
<!-- Node2&#45;&gt;Node38 -->
<g id="edge37" class="edge"><title>Node2&#45;&gt;Node38</title>
<path fill="none" stroke="midnightblue" d="M1282.59,-236.218C1339.31,-226.736 1452.79,-207.766 1522.89,-196.049"/>
<polygon fill="midnightblue" stroke="midnightblue" points="1523.62,-199.475 1532.9,-194.374 1522.46,-192.571 1523.62,-199.475"/>
</g>
<!-- Node39 -->
<g id="node36" class="node"><title>Node39</title>
<g id="a_node36"><a xlink:href="_rexx_activity_8hpp.html" target="_top" xlink:title=" ">
<polygon fill="white" stroke="black" points="1672.41,-175 1672.41,-195 1761.59,-195 1761.59,-175 1672.41,-175"/>
<text text-anchor="middle" x="1717" y="-181" font-family="Helvetica,sans-Serif" font-size="10.00">RexxActivity.hpp</text>
</a>
</g>
</g>
<!-- Node2&#45;&gt;Node39 -->
<g id="edge38" class="edge"><title>Node2&#45;&gt;Node39</title>
<path fill="none" stroke="midnightblue" d="M1282.45,-238.135C1350.84,-230.426 1508.58,-212.461 1641,-196 1647.83,-195.151 1655.01,-194.236 1662.11,-193.318"/>
<polygon fill="midnightblue" stroke="midnightblue" points="1662.94,-196.739 1672.41,-191.976 1662.04,-189.797 1662.94,-196.739"/>
</g>
<!-- Node50 -->
<g id="node47" class="node"><title>Node50</title>
<g id="a_node47"><a xlink:href="_number_string_class_8hpp.html" target="_top" xlink:title=" ">
<polygon fill="white" stroke="black" points="961.921,-175 961.921,-195 1084.08,-195 1084.08,-175 961.921,-175"/>
<text text-anchor="middle" x="1023" y="-181" font-family="Helvetica,sans-Serif" font-size="10.00">NumberStringClass.hpp</text>
</a>
</g>
</g>
<!-- Node2&#45;&gt;Node50 -->
<g id="edge51" class="edge"><title>Node2&#45;&gt;Node50</title>
<path fill="none" stroke="midnightblue" d="M1213.34,-233.373C1174.65,-223.744 1111.88,-208.12 1069.08,-197.469"/>
<polygon fill="midnightblue" stroke="midnightblue" points="1069.74,-194.027 1059.19,-195.008 1068.05,-200.82 1069.74,-194.027"/>
</g>
<!-- Node66 -->
<g id="node49" class="node"><title>Node66</title>
<g id="a_node49"><a xlink:href="_activity_manager_8hpp.html" target="_top" xlink:title=" ">
<polygon fill="white" stroke="black" points="2289.97,-175 2289.97,-195 2396.03,-195 2396.03,-175 2289.97,-175"/>
<text text-anchor="middle" x="2343" y="-181" font-family="Helvetica,sans-Serif" font-size="10.00">ActivityManager.hpp</text>
</a>
</g>
</g>
<!-- Node2&#45;&gt;Node66 -->
<g id="edge54" class="edge"><title>Node2&#45;&gt;Node66</title>
<path fill="none" stroke="midnightblue" d="M1282.58,-240.232C1438.19,-232.273 2074.82,-199.715 2279.38,-189.253"/>
<polygon fill="midnightblue" stroke="midnightblue" points="2279.85,-192.734 2289.66,-188.728 2279.49,-185.743 2279.85,-192.734"/>
</g>
<!-- Node4 -->
<g id="node4" class="node"><title>Node4</title>
<g id="a_node4"><a xlink:href="rexx_8h.html" target="_top" xlink:title=" ">
<polygon fill="white" stroke="black" points="2301.38,-117 2301.38,-137 2344.62,-137 2344.62,-117 2301.38,-117"/>
<text text-anchor="middle" x="2323" y="-123" font-family="Helvetica,sans-Serif" font-size="10.00">rexx.h</text>
</a>
</g>
</g>
<!-- Node3&#45;&gt;Node4 -->
<g id="edge3" class="edge"><title>Node3&#45;&gt;Node4</title>
<path fill="none" stroke="midnightblue" d="M1886.18,-175.602C1889.16,-175.008 1892.12,-174.462 1895,-174 2066.67,-146.389 2116.56,-172.41 2291.11,-137.745"/>
<polygon fill="midnightblue" stroke="midnightblue" points="2292.04,-141.128 2301.14,-135.713 2290.65,-134.267 2292.04,-141.128"/>
</g>
<!-- Node9 -->
<g id="node9" class="node"><title>Node9</title>
<g id="a_node9"><a xlink:href="oorexxerrors_8h.html" target="_top" xlink:title=" ">
<polygon fill="white" stroke="black" points="2467.77,-117 2467.77,-137 2548.23,-137 2548.23,-117 2467.77,-117"/>
<text text-anchor="middle" x="2508" y="-123" font-family="Helvetica,sans-Serif" font-size="10.00">oorexxerrors.h</text>
</a>
</g>
</g>
<!-- Node3&#45;&gt;Node9 -->
<g id="edge8" class="edge"><title>Node3&#45;&gt;Node9</title>
<path fill="none" stroke="midnightblue" d="M1886.17,-175.518C1889.15,-174.943 1892.12,-174.424 1895,-174 2139.79,-137.961 2207.62,-169.796 2457.57,-137.857"/>
<polygon fill="midnightblue" stroke="midnightblue" points="2458.22,-141.302 2467.69,-136.543 2457.32,-134.361 2458.22,-141.302"/>
</g>
<!-- Node5 -->
<g id="node5" class="node"><title>Node5</title>
<g id="a_node5"><a xlink:title=" ">
<polygon fill="white" stroke="#bfbfbf" points="2206.76,-59 2206.76,-79 2287.24,-79 2287.24,-59 2206.76,-59"/>
<text text-anchor="middle" x="2247" y="-65" font-family="Helvetica,sans-Serif" font-size="10.00">rexxapitypes.h</text>
</a>
</g>
</g>
<!-- Node4&#45;&gt;Node5 -->
<g id="edge4" class="edge"><title>Node4&#45;&gt;Node5</title>
<path fill="none" stroke="midnightblue" d="M2310.45,-116.753C2298.83,-108.19 2281.33,-95.2978 2267.65,-85.2186"/>
<polygon fill="midnightblue" stroke="midnightblue" points="2269.44,-82.1895 2259.32,-79.0752 2265.29,-87.8249 2269.44,-82.1895"/>
</g>
<!-- Node6 -->
<g id="node6" class="node"><title>Node6</title>
<g id="a_node6"><a xlink:href="rexxapidefs_8h.html" target="_top" xlink:title=" ">
<polygon fill="white" stroke="black" points="2305.26,-59 2305.26,-79 2380.74,-79 2380.74,-59 2305.26,-59"/>
<text text-anchor="middle" x="2343" y="-65" font-family="Helvetica,sans-Serif" font-size="10.00">rexxapidefs.h</text>
</a>
</g>
</g>
<!-- Node4&#45;&gt;Node6 -->
<g id="edge5" class="edge"><title>Node4&#45;&gt;Node6</title>
<path fill="none" stroke="midnightblue" d="M2326.3,-116.753C2329.01,-109.169 2332.93,-98.1881 2336.3,-88.7739"/>
<polygon fill="midnightblue" stroke="midnightblue" points="2339.69,-89.6698 2339.76,-79.0752 2333.1,-87.3154 2339.69,-89.6698"/>
</g>
<!-- Node7 -->
<g id="node7" class="node"><title>Node7</title>
<g id="a_node7"><a xlink:title=" ">
<polygon fill="white" stroke="#bfbfbf" points="2398.87,-59 2398.87,-79 2497.13,-79 2497.13,-59 2398.87,-59"/>
<text text-anchor="middle" x="2448" y="-65" font-family="Helvetica,sans-Serif" font-size="10.00">rexxplatformdefs.h</text>
</a>
</g>
</g>
<!-- Node4&#45;&gt;Node7 -->
<g id="edge6" class="edge"><title>Node4&#45;&gt;Node7</title>
<path fill="none" stroke="midnightblue" d="M2343.36,-116.878C2363.7,-107.766 2395.18,-93.6617 2418.31,-83.3028"/>
<polygon fill="midnightblue" stroke="midnightblue" points="2419.95,-86.4007 2427.65,-79.1181 2417.09,-80.0125 2419.95,-86.4007"/>
</g>
<!-- Node8 -->
<g id="node8" class="node"><title>Node8</title>
<g id="a_node8"><a xlink:title=" ">
<polygon fill="white" stroke="#bfbfbf" points="2091.15,-59 2091.15,-79 2188.85,-79 2188.85,-59 2091.15,-59"/>
<text text-anchor="middle" x="2140" y="-65" font-family="Helvetica,sans-Serif" font-size="10.00">rexxplatformapis.h</text>
</a>
</g>
</g>
<!-- Node4&#45;&gt;Node8 -->
<g id="edge7" class="edge"><title>Node4&#45;&gt;Node8</title>
<path fill="none" stroke="midnightblue" d="M2301.34,-118.956C2298.21,-117.955 2295.02,-116.945 2292,-116 2254.17,-104.176 2210.9,-91.1265 2180.22,-81.9563"/>
<polygon fill="midnightblue" stroke="midnightblue" points="2180.91,-78.5095 2170.33,-79.0024 2178.91,-85.217 2180.91,-78.5095"/>
</g>
<!-- Node16 -->
<g id="node16" class="node"><title>Node16</title>
<g id="a_node16"><a xlink:title=" ">
<polygon fill="white" stroke="#bfbfbf" points="153.87,-117 153.87,-137 262.13,-137 262.13,-117 153.87,-117"/>
<text text-anchor="middle" x="208" y="-123" font-family="Helvetica,sans-Serif" font-size="10.00">PlatformDefinitions.h</text>
</a>
</g>
</g>
<!-- Node15&#45;&gt;Node16 -->
<g id="edge15" class="edge"><title>Node15&#45;&gt;Node16</title>
<path fill="none" stroke="midnightblue" d="M254.753,-174.753C246.516,-166.516 234.274,-154.274 224.382,-144.382"/>
<polygon fill="midnightblue" stroke="midnightblue" points="226.621,-141.671 217.075,-137.075 221.671,-146.621 226.621,-141.671"/>
</g>
<!-- Node17 -->
<g id="node17" class="node"><title>Node17</title>
<g id="a_node17"><a xlink:href="_rexx_error_codes_8h.html" target="_top" xlink:title=" ">
<polygon fill="white" stroke="black" points="37.8745,-117 37.8745,-137 136.125,-137 136.125,-117 37.8745,-117"/>
<text text-anchor="middle" x="87" y="-123" font-family="Helvetica,sans-Serif" font-size="10.00">RexxErrorCodes.h</text>
</a>
</g>
</g>
<!-- Node15&#45;&gt;Node17 -->
<g id="edge16" class="edge"><title>Node15&#45;&gt;Node17</title>
<path fill="none" stroke="midnightblue" d="M235.168,-174.878C205.251,-165.413 158.305,-150.56 125.291,-140.115"/>
<polygon fill="midnightblue" stroke="midnightblue" points="126.116,-136.705 115.526,-137.025 124.005,-143.379 126.116,-136.705"/>
</g>
<!-- Node22 -->
<g id="node22" class="node"><title>Node22</title>
<g id="a_node22"><a xlink:href="_numerics_8hpp.html" target="_top" xlink:title=" ">
<polygon fill="white" stroke="black" points="892.155,-117 892.155,-137 969.845,-137 969.845,-117 892.155,-117"/>
<text text-anchor="middle" x="931" y="-123" font-family="Helvetica,sans-Serif" font-size="10.00">Numerics.hpp</text>
</a>
</g>
</g>
<!-- Node21&#45;&gt;Node22 -->
<g id="edge21" class="edge"><title>Node21&#45;&gt;Node22</title>
<path fill="none" stroke="midnightblue" d="M904.284,-174.753C908.758,-166.924 915.299,-155.476 920.79,-145.868"/>
<polygon fill="midnightblue" stroke="midnightblue" points="923.892,-147.494 925.814,-137.075 917.814,-144.021 923.892,-147.494"/>
</g>
<!-- Node23 -->
<g id="node23" class="node"><title>Node23</title>
<g id="a_node23"><a xlink:title=" ">
<polygon fill="white" stroke="#bfbfbf" points="777.209,-59 777.209,-79 828.791,-79 828.791,-59 777.209,-59"/>
<text text-anchor="middle" x="803" y="-65" font-family="Helvetica,sans-Serif" font-size="10.00">stddef.h</text>
</a>
</g>
</g>
<!-- Node21&#45;&gt;Node23 -->
<g id="edge22" class="edge"><title>Node21&#45;&gt;Node23</title>
<path fill="none" stroke="midnightblue" d="M891.144,-174.671C874.961,-155.453 837.709,-111.217 817.193,-86.8542"/>
<polygon fill="midnightblue" stroke="midnightblue" points="819.815,-84.534 810.696,-79.1394 814.461,-89.043 819.815,-84.534"/>
</g>
<!-- Node25 -->
<g id="node25" class="node"><title>Node25</title>
<g id="a_node25"><a xlink:href="_rexx_collection_8hpp.html" target="_top" xlink:title=" ">
<polygon fill="white" stroke="red" points="611.921,-1 611.921,-21 714.079,-21 714.079,-1 611.921,-1"/>
<text text-anchor="middle" x="663" y="-7" font-family="Helvetica,sans-Serif" font-size="10.00">RexxCollection.hpp</text>
</a>
</g>
</g>
<!-- Node24&#45;&gt;Node25 -->
<g id="edge24" class="edge"><title>Node24&#45;&gt;Node25</title>
<path fill="none" stroke="midnightblue" d="M663,-58.7527C663,-51.2504 663,-40.4238 663,-31.0781"/>
<polygon fill="midnightblue" stroke="midnightblue" points="666.5,-31.0752 663,-21.0752 659.5,-31.0752 666.5,-31.0752"/>
</g>
<!-- Node29 -->
<g id="node28" class="node"><title>Node29</title>
<g id="a_node28"><a xlink:title=" ">
<polygon fill="white" stroke="#bfbfbf" points="430.084,-117 430.084,-137 533.916,-137 533.916,-117 430.084,-117"/>
<text text-anchor="middle" x="482" y="-123" font-family="Helvetica,sans-Serif" font-size="10.00">SysSemaphore.hpp</text>
</a>
</g>
</g>
<!-- Node28&#45;&gt;Node29 -->
<g id="edge27" class="edge"><title>Node28&#45;&gt;Node29</title>
<path fill="none" stroke="midnightblue" d="M589.15,-174.878C568.23,-165.725 535.796,-151.536 512.09,-141.164"/>
<polygon fill="midnightblue" stroke="midnightblue" points="513.406,-137.92 502.841,-137.118 510.6,-144.333 513.406,-137.92"/>
</g>
<!-- Node30 -->
<g id="node29" class="node"><title>Node30</title>
<g id="a_node29"><a xlink:href="_identity_table_class_8hpp.html" target="_top" xlink:title=" ">
<polygon fill="white" stroke="black" points="551.692,-117 551.692,-137 668.308,-137 668.308,-117 551.692,-117"/>
<text text-anchor="middle" x="610" y="-123" font-family="Helvetica,sans-Serif" font-size="10.00">IdentityTableClass.hpp</text>
</a>
</g>
</g>
<!-- Node28&#45;&gt;Node30 -->
<g id="edge28" class="edge"><title>Node28&#45;&gt;Node30</title>
<path fill="none" stroke="midnightblue" d="M610,-174.753C610,-167.25 610,-156.424 610,-147.078"/>
<polygon fill="midnightblue" stroke="midnightblue" points="613.5,-147.075 610,-137.075 606.5,-147.075 613.5,-147.075"/>
</g>
<!-- Node31 -->
<g id="node30" class="node"><title>Node31</title>
<g id="a_node30"><a xlink:href="_memory_stats_8hpp.html" target="_top" xlink:title=" ">
<polygon fill="white" stroke="black" points="317.818,-117 317.818,-137 412.182,-137 412.182,-117 317.818,-117"/>
<text text-anchor="middle" x="365" y="-123" font-family="Helvetica,sans-Serif" font-size="10.00">MemoryStats.hpp</text>
</a>
</g>
</g>
<!-- Node28&#45;&gt;Node31 -->
<g id="edge30" class="edge"><title>Node28&#45;&gt;Node31</title>
<path fill="none" stroke="midnightblue" d="M570.364,-174.94C527.933,-165.242 460.533,-149.836 414.61,-139.339"/>
<polygon fill="midnightblue" stroke="midnightblue" points="415.107,-135.863 404.579,-137.047 413.547,-142.687 415.107,-135.863"/>
</g>
<!-- Node32 -->
<g id="node31" class="node"><title>Node32</title>
<g id="a_node31"><a xlink:href="_memory_segment_8hpp.html" target="_top" xlink:title=" ">
<polygon fill="white" stroke="red" points="686.2,-117 686.2,-137 797.8,-137 797.8,-117 686.2,-117"/>
<text text-anchor="middle" x="742" y="-123" font-family="Helvetica,sans-Serif" font-size="10.00">MemorySegment.hpp</text>
</a>
</g>
</g>
<!-- Node28&#45;&gt;Node32 -->
<g id="edge32" class="edge"><title>Node28&#45;&gt;Node32</title>
<path fill="none" stroke="midnightblue" d="M631.502,-174.878C653.172,-165.685 686.821,-151.409 711.295,-141.026"/>
<polygon fill="midnightblue" stroke="midnightblue" points="712.668,-144.246 720.507,-137.118 709.935,-137.802 712.668,-144.246"/>
</g>
<!-- Node30&#45;&gt;Node24 -->
<g id="edge29" class="edge"><title>Node30&#45;&gt;Node24</title>
<path fill="none" stroke="midnightblue" d="M618.752,-116.753C626.547,-108.516 638.134,-96.2738 647.495,-86.3824"/>
<polygon fill="midnightblue" stroke="midnightblue" points="650.079,-88.744 654.411,-79.0752 644.995,-83.9323 650.079,-88.744"/>
</g>
<!-- Node31&#45;&gt;Node19 -->
<g id="edge31" class="edge"><title>Node31&#45;&gt;Node19</title>
<path fill="none" stroke="midnightblue" d="M358.89,-116.753C353.664,-108.843 345.996,-97.2372 339.608,-87.5683"/>
<polygon fill="midnightblue" stroke="midnightblue" points="342.429,-85.4891 333.996,-79.0752 336.589,-89.348 342.429,-85.4891"/>
</g>
<!-- Node32&#45;&gt;Node23 -->
<g id="edge33" class="edge"><title>Node32&#45;&gt;Node23</title>
<path fill="none" stroke="midnightblue" d="M752.073,-116.753C761.133,-108.435 774.645,-96.031 785.474,-86.0893"/>
<polygon fill="midnightblue" stroke="midnightblue" points="788.115,-88.4162 793.115,-79.0752 783.381,-83.2596 788.115,-88.4162"/>
</g>
<!-- Node36 -->
<g id="node33" class="node"><title>Node36</title>
<g id="a_node33"><a xlink:href="_primitive_behaviour_names_8h.html" target="_top" xlink:title=" ">
<polygon fill="white" stroke="black" points="1125.31,-117 1125.31,-137 1264.69,-137 1264.69,-117 1125.31,-117"/>
<text text-anchor="middle" x="1195" y="-123" font-family="Helvetica,sans-Serif" font-size="10.00">PrimitiveBehaviourNames.h</text>
</a>
</g>
</g>
<!-- Node35&#45;&gt;Node36 -->
<g id="edge35" class="edge"><title>Node35&#45;&gt;Node36</title>
<path fill="none" stroke="midnightblue" d="M1333.12,-174.878C1305.35,-165.453 1261.85,-150.688 1231.09,-140.25"/>
<polygon fill="midnightblue" stroke="midnightblue" points="1232.19,-136.925 1221.59,-137.025 1229.94,-143.554 1232.19,-136.925"/>
</g>
<!-- Node40 -->
<g id="node37" class="node"><title>Node40</title>
<g id="a_node37"><a xlink:href="_list_class_8hpp.html" target="_top" xlink:title=" ">
<polygon fill="white" stroke="red" points="1776.99,-117 1776.99,-137 1853.01,-137 1853.01,-117 1776.99,-117"/>
<text text-anchor="middle" x="1815" y="-123" font-family="Helvetica,sans-Serif" font-size="10.00">ListClass.hpp</text>
</a>
</g>
</g>
<!-- Node39&#45;&gt;Node40 -->
<g id="edge39" class="edge"><title>Node39&#45;&gt;Node40</title>
<path fill="none" stroke="midnightblue" d="M1733.18,-174.753C1748.74,-165.864 1772.46,-152.309 1790.36,-142.079"/>
<polygon fill="midnightblue" stroke="midnightblue" points="1792.17,-145.075 1799.12,-137.075 1788.7,-138.998 1792.17,-145.075"/>
</g>
<!-- Node42 -->
<g id="node38" class="node"><title>Node42</title>
<g id="a_node38"><a xlink:href="_rexx_internal_stack_8hpp.html" target="_top" xlink:title=" ">
<polygon fill="white" stroke="black" points="1870.69,-117 1870.69,-137 1987.31,-137 1987.31,-117 1870.69,-117"/>
<text text-anchor="middle" x="1929" y="-123" font-family="Helvetica,sans-Serif" font-size="10.00">RexxInternalStack.hpp</text>
</a>
</g>
</g>
<!-- Node39&#45;&gt;Node42 -->
<g id="edge40" class="edge"><title>Node39&#45;&gt;Node42</title>
<path fill="none" stroke="midnightblue" d="M1751.53,-174.878C1787.91,-165.27 1845.3,-150.11 1884.92,-139.645"/>
<polygon fill="midnightblue" stroke="midnightblue" points="1886.06,-142.963 1894.83,-137.025 1884.27,-136.195 1886.06,-142.963"/>
</g>
<!-- Node43 -->
<g id="node39" class="node"><title>Node43</title>
<g id="a_node39"><a xlink:href="_rexx_activation_stack_8hpp.html" target="_top" xlink:title=" ">
<polygon fill="white" stroke="black" points="2005.69,-117 2005.69,-137 2132.31,-137 2132.31,-117 2005.69,-117"/>
<text text-anchor="middle" x="2069" y="-123" font-family="Helvetica,sans-Serif" font-size="10.00">RexxActivationStack.hpp</text>
</a>
</g>
</g>
<!-- Node39&#45;&gt;Node43 -->
<g id="edge41" class="edge"><title>Node39&#45;&gt;Node43</title>
<path fill="none" stroke="midnightblue" d="M1761.77,-176.353C1766.57,-175.551 1771.39,-174.753 1776,-174 1852.62,-161.492 1940.63,-147.761 2000.03,-138.586"/>
<polygon fill="midnightblue" stroke="midnightblue" points="2000.69,-142.025 2010.04,-137.041 1999.62,-135.107 2000.69,-142.025"/>
</g>
<!-- Node44 -->
<g id="node40" class="node"><title>Node44</title>
<g id="a_node40"><a xlink:href="_expression_stack_8hpp.html" target="_top" xlink:title=" ">
<polygon fill="white" stroke="red" points="1283.03,-117 1283.03,-137 1392.97,-137 1392.97,-117 1283.03,-117"/>
<text text-anchor="middle" x="1338" y="-123" font-family="Helvetica,sans-Serif" font-size="10.00">ExpressionStack.hpp</text>
</a>
</g>
</g>
<!-- Node39&#45;&gt;Node44 -->
<g id="edge42" class="edge"><title>Node39&#45;&gt;Node44</title>
<path fill="none" stroke="midnightblue" d="M1672.38,-177.627C1613.29,-169.156 1505.54,-153.601 1403.34,-138.192"/>
<polygon fill="midnightblue" stroke="midnightblue" points="1403.56,-134.686 1393.15,-136.653 1402.52,-141.607 1403.56,-134.686"/>
</g>
<!-- Node46 -->
<g id="node41" class="node"><title>Node46</title>
<g id="a_node41"><a xlink:href="_rexx_local_variables_8hpp.html" target="_top" xlink:title=" ">
<polygon fill="white" stroke="red" points="1411.45,-117 1411.45,-137 1534.55,-137 1534.55,-117 1411.45,-117"/>
<text text-anchor="middle" x="1473" y="-123" font-family="Helvetica,sans-Serif" font-size="10.00">RexxLocalVariables.hpp</text>
</a>
</g>
</g>
<!-- Node39&#45;&gt;Node46 -->
<g id="edge43" class="edge"><title>Node39&#45;&gt;Node46</title>
<path fill="none" stroke="midnightblue" d="M1677.53,-174.94C1635.27,-165.242 1568.14,-149.836 1522.41,-139.339"/>
<polygon fill="midnightblue" stroke="midnightblue" points="1522.95,-135.872 1512.42,-137.047 1521.38,-142.695 1522.95,-135.872"/>
</g>
<!-- Node61 -->
<g id="node42" class="node"><title>Node61</title>
<g id="a_node42"><a xlink:href="_source_location_8hpp.html" target="_top" xlink:title=" ">
<polygon fill="white" stroke="black" points="1552.52,-117 1552.52,-137 1657.48,-137 1657.48,-117 1552.52,-117"/>
<text text-anchor="middle" x="1605" y="-123" font-family="Helvetica,sans-Serif" font-size="10.00">SourceLocation.hpp</text>
</a>
</g>
</g>
<!-- Node39&#45;&gt;Node61 -->
<g id="edge44" class="edge"><title>Node39&#45;&gt;Node61</title>
<path fill="none" stroke="midnightblue" d="M1698.51,-174.753C1680.48,-165.742 1652.87,-151.935 1632.32,-141.659"/>
<polygon fill="midnightblue" stroke="midnightblue" points="1633.66,-138.417 1623.15,-137.075 1630.53,-144.678 1633.66,-138.417"/>
</g>
<!-- Node62 -->
<g id="node43" class="node"><title>Node62</title>
<g id="a_node43"><a xlink:href="_exit_handler_8hpp.html" target="_top" xlink:title=" ">
<polygon fill="white" stroke="black" points="2362.7,-117 2362.7,-137 2449.3,-137 2449.3,-117 2362.7,-117"/>
<text text-anchor="middle" x="2406" y="-123" font-family="Helvetica,sans-Serif" font-size="10.00">ExitHandler.hpp</text>
</a>
</g>
</g>
<!-- Node39&#45;&gt;Node62 -->
<g id="edge45" class="edge"><title>Node39&#45;&gt;Node62</title>
<path fill="none" stroke="midnightblue" d="M1761.88,-178.738C1776.86,-177.085 1793.63,-175.343 1809,-174 2047.09,-153.192 2110.89,-168.098 2352.53,-137.895"/>
<polygon fill="midnightblue" stroke="midnightblue" points="2353.2,-141.339 2362.68,-136.613 2352.32,-134.394 2353.2,-141.339"/>
</g>
<!-- Node64 -->
<g id="node45" class="node"><title>Node64</title>
<g id="a_node45"><a xlink:href="_activation_api_contexts_8hpp.html" target="_top" xlink:title=" ">
<polygon fill="white" stroke="black" points="2150.63,-117 2150.63,-137 2283.37,-137 2283.37,-117 2150.63,-117"/>
<text text-anchor="middle" x="2217" y="-123" font-family="Helvetica,sans-Serif" font-size="10.00">ActivationApiContexts.hpp</text>
</a>
</g>
</g>
<!-- Node39&#45;&gt;Node64 -->
<g id="edge48" class="edge"><title>Node39&#45;&gt;Node64</title>
<path fill="none" stroke="midnightblue" d="M1761.73,-176.083C1766.54,-175.332 1771.37,-174.62 1776,-174 1934.25,-152.81 1977.31,-156.471 2139.91,-138.087"/>
<polygon fill="midnightblue" stroke="midnightblue" points="2140.75,-141.514 2150.29,-136.903 2139.95,-134.56 2140.75,-141.514"/>
</g>
<!-- Node65 -->
<g id="node46" class="node"><title>Node65</title>
<g id="a_node46"><a xlink:title=" ">
<polygon fill="white" stroke="#bfbfbf" points="1675.47,-117 1675.47,-137 1758.53,-137 1758.53,-117 1675.47,-117"/>
<text text-anchor="middle" x="1717" y="-123" font-family="Helvetica,sans-Serif" font-size="10.00">SysActivity.hpp</text>
</a>
</g>
</g>
<!-- Node39&#45;&gt;Node65 -->
<g id="edge50" class="edge"><title>Node39&#45;&gt;Node65</title>
<path fill="none" stroke="midnightblue" d="M1717,-174.753C1717,-167.25 1717,-156.424 1717,-147.078"/>
<polygon fill="midnightblue" stroke="midnightblue" points="1720.5,-147.075 1717,-137.075 1713.5,-147.075 1720.5,-147.075"/>
</g>
<!-- Node62&#45;&gt;Node2 -->
<g id="edge46" class="edge"><title>Node62&#45;&gt;Node2</title>
<path fill="none" stroke="midnightblue" d="M2362.66,-136.49C2359.4,-137.033 2356.15,-137.544 2353,-138 2195.61,-160.764 2148.58,-125.912 1997,-174 1978.03,-180.018 1977.07,-190.325 1958,-196 1832.52,-233.33 1428.03,-240.379 1292.63,-241.699"/>
<polygon fill="midnightblue" stroke="midnightblue" points="1292.58,-238.199 1282.61,-241.791 1292.64,-245.199 1292.58,-238.199"/>
</g>
<!-- Node62&#45;&gt;Node63 -->
<g id="edge47" class="edge"><title>Node62&#45;&gt;Node63</title>
<path fill="none" stroke="midnightblue" d="M2440.37,-116.878C2476.57,-107.27 2533.69,-92.1104 2573.12,-81.6449"/>
<polygon fill="midnightblue" stroke="midnightblue" points="2574.23,-84.9735 2582.99,-79.0253 2572.43,-78.2077 2574.23,-84.9735"/>
</g>
<!-- Node64&#45;&gt;Node2 -->
<g id="edge49" class="edge"><title>Node64&#45;&gt;Node2</title>
<path fill="none" stroke="midnightblue" d="M2150.28,-136.866C2147.15,-137.255 2144.04,-137.635 2141,-138 1993.64,-155.682 1950.31,-128.609 1809,-174 1790.05,-180.086 1789.01,-190.105 1770,-196 1681.3,-223.512 1402.07,-236.399 1292.63,-240.49"/>
<polygon fill="midnightblue" stroke="midnightblue" points="1292.44,-236.994 1282.58,-240.858 1292.7,-243.989 1292.44,-236.994"/>
</g>
<!-- Node50&#45;&gt;Node22 -->
<g id="edge52" class="edge"><title>Node50&#45;&gt;Node22</title>
<path fill="none" stroke="midnightblue" d="M1007.81,-174.753C993.339,-165.946 971.345,-152.558 954.594,-142.362"/>
<polygon fill="midnightblue" stroke="midnightblue" points="956.271,-139.285 945.909,-137.075 952.631,-145.264 956.271,-139.285"/>
</g>
<!-- Node51 -->
<g id="node48" class="node"><title>Node51</title>
<g id="a_node48"><a xlink:href="_number_string_math_8hpp.html" target="_top" xlink:title=" ">
<polygon fill="white" stroke="black" points="988.308,-117 988.308,-137 1107.69,-137 1107.69,-117 988.308,-117"/>
<text text-anchor="middle" x="1048" y="-123" font-family="Helvetica,sans-Serif" font-size="10.00">NumberStringMath.hpp</text>
</a>
</g>
</g>
<!-- Node50&#45;&gt;Node51 -->
<g id="edge53" class="edge"><title>Node50&#45;&gt;Node51</title>
<path fill="none" stroke="midnightblue" d="M1027.13,-174.753C1030.55,-167.087 1035.52,-155.952 1039.75,-146.471"/>
<polygon fill="midnightblue" stroke="midnightblue" points="1043.07,-147.633 1043.95,-137.075 1036.68,-144.78 1043.07,-147.633"/>
</g>
<!-- Node67 -->
<g id="node50" class="node"><title>Node67</title>
<g id="a_node50"><a xlink:title=" ">
<polygon fill="white" stroke="#bfbfbf" points="2566.1,-117 2566.1,-137 2609.9,-137 2609.9,-117 2566.1,-117"/>
<text text-anchor="middle" x="2588" y="-123" font-family="Helvetica,sans-Serif" font-size="10.00">deque</text>
</a>
</g>
</g>
<!-- Node66&#45;&gt;Node67 -->
<g id="edge55" class="edge"><title>Node66&#45;&gt;Node67</title>
<path fill="none" stroke="midnightblue" d="M2391.78,-174.963C2433.16,-166.972 2494.25,-154.41 2556.13,-138.037"/>
<polygon fill="midnightblue" stroke="midnightblue" points="2557.31,-141.344 2566.07,-135.376 2555.5,-134.582 2557.31,-141.344"/>
</g>
</g>
</svg>
        <g id="navigator" transform="translate(0 0)" fill="#404254">
                <rect fill="#f2f5e9" fill-opacity="0.5" stroke="#606060" stroke-width=".5" x="0" y="0" width="60" height="60"/>
                <use id="zoomplus" xlink:href="#zoomPlus" x="17" y="9" onmousedown="handleZoom(evt,'in')"/>
                <use id="zoomminus" xlink:href="#zoomMin" x="42" y="9" onmousedown="handleZoom(evt,'out')"/>
                <use id="reset" xlink:href="#resetDef" x="30" y="36" onmousedown="handleReset()"/>
                <g id="arrowUp" xlink:href="#dirArrow" transform="translate(30 24)" onmousedown="handlePan(0,-1)">
                  <use xlink:href="#rim" fill="#404040">
                        <set attributeName="fill" to="#808080" begin="arrowUp.mouseover" end="arrowUp.mouseout"/>
                  </use>
                  <path fill="none" stroke="white" stroke-width="1.5" d="M0,-3.0v7 M-2.5,-0.5L0,-3.0L2.5,-0.5"/>
                </g>
                <g id="arrowRight" xlink:href="#dirArrow" transform="rotate(90) translate(36 -43)" onmousedown="handlePan(1,0)">
                  <use xlink:href="#rim" fill="#404040">
                        <set attributeName="fill" to="#808080" begin="arrowRight.mouseover" end="arrowRight.mouseout"/>
                  </use>
                  <path fill="none" stroke="white" stroke-width="1.5" d="M0,-3.0v7 M-2.5,-0.5L0,-3.0L2.5,-0.5"/>
                </g>
                <g id="arrowDown" xlink:href="#dirArrow" transform="rotate(180) translate(-30 -48)" onmousedown="handlePan(0,1)">
                  <use xlink:href="#rim" fill="#404040">
                        <set attributeName="fill" to="#808080" begin="arrowDown.mouseover" end="arrowDown.mouseout"/>
                  </use>
                  <path fill="none" stroke="white" stroke-width="1.5" d="M0,-3.0v7 M-2.5,-0.5L0,-3.0L2.5,-0.5"/>
                </g>
                <g id="arrowLeft" xlink:href="#dirArrow" transform="rotate(270) translate(-36 17)" onmousedown="handlePan(-1,0)">
                  <use xlink:href="#rim" fill="#404040">
                        <set attributeName="fill" to="#808080" begin="arrowLeft.mouseover" end="arrowLeft.mouseout"/>
                  </use>
                  <path fill="none" stroke="white" stroke-width="1.5" d="M0,-3.0v7 M-2.5,-0.5L0,-3.0L2.5,-0.5"/>
                </g>
        </g>
        <svg viewBox="0 0 15 15" width="100%" height="30px" preserveAspectRatio="xMaxYMin meet">
         <g id="arrow_out" transform="scale(0.3 0.3)">
          <a xlink:href="_command_handler_8hpp__incl_org.svg" target="_base">
           <rect id="button" ry="5" rx="5" y="6" x="6" height="38" width="38"
                fill="#f2f5e9" fill-opacity="0.5" stroke="#606060" stroke-width="1.0"/>
           <path id="arrow"
             d="M 11.500037,31.436501 C 11.940474,20.09759 22.043105,11.32322 32.158766,21.979434 L 37.068811,17.246167 C 37.068811,17.246167 37.088388,32 37.088388,32 L 22.160133,31.978069 C 22.160133,31.978069 26.997745,27.140456 26.997745,27.140456 C 18.528582,18.264221 13.291696,25.230495 11.500037,31.436501 z"
             style="fill:#404040;"/>
          </a>
         </g>
        </svg>
</svg>
