<?xml version="1.0" encoding="UTF-8" standalone="no"?>
<!DOCTYPE svg PUBLIC "-//W3C//DTD SVG 1.1//EN"
 "http://www.w3.org/Graphics/SVG/1.1/DTD/svg11.dtd">
<!-- Generated by graphviz version 2.30.1 (20130222.1704)
 -->
<!-- Title: ContextClass.hpp Pages: 1 -->
<!--zoomable 204 -->
<svg id="main" version="1.1" xmlns="http://www.w3.org/2000/svg" xmlns:xlink="http://www.w3.org/1999/xlink" xml:space="preserve" onload="init(evt)">
<style type="text/css"><![CDATA[
.edge:hover path { stroke: red; }
.edge:hover polygon { stroke: red; fill: red; }
]]></style>
<script type="text/javascript"><![CDATA[
var edges = document.getElementsByTagName('g');
if (edges && edges.length) {
  for (var i=0;i<edges.length;i++) {
    if (edges[i].id.substr(0,4)=='edge') {
      edges[i].setAttribute('class','edge');
    }
  }
}
]]></script>
        <defs>
                <circle id="rim" cx="0" cy="0" r="7"/>
                <circle id="rim2" cx="0" cy="0" r="3.5"/>
                <g id="zoomPlus">
                        <use xlink:href="#rim" fill="#404040">
                                <set attributeName="fill" to="#808080" begin="zoomplus.mouseover" end="zoomplus.mouseout"/>
                        </use>
                        <path d="M-4,0h8M0,-4v8" fill="none" stroke="white" stroke-width="1.5" pointer-events="none"/>
                </g>
                <g id="zoomMin">
                        <use xlink:href="#rim" fill="#404040">
                                <set attributeName="fill" to="#808080" begin="zoomminus.mouseover" end="zoomminus.mouseout"/>
                        </use>
                        <path d="M-4,0h8" fill="none" stroke="white" stroke-width="1.5" pointer-events="none"/>
                </g>
                <g id="dirArrow">
                        <path fill="none" stroke="white" stroke-width="1.5" d="M0,-3.0v7 M-2.5,-0.5L0,-3.0L2.5,-0.5"/>
                </g>
               <g id="resetDef">
                       <use xlink:href="#rim2" fill="#404040">
                               <set attributeName="fill" to="#808080" begin="reset.mouseover" end="reset.mouseout"/>
                       </use>
               </g>
        </defs>

<script type="text/javascript">
var viewWidth = 5690;
var viewHeight = 204;
var sectionId = 'dynsection-1';
</script>
<script xlink:href="svgpan.js"/>
<svg id="graph" class="graph">
<g id="viewport">
<title>ContextClass.hpp</title>
<polygon fill="white" stroke="white" points="-4,5 -4,-200 5687,-200 5687,5 -4,5"/>
<!-- Node1 -->
<g id="node1" class="node"><title>Node1</title>
<g id="a_node1"><a xlink:title=" ">
<polygon fill="#bfbfbf" stroke="black" points="2782.53,-175 2782.53,-195 2877.47,-195 2877.47,-175 2782.53,-175"/>
<text text-anchor="middle" x="2830" y="-181" font-family="Helvetica,sans-Serif" font-size="10.00">ContextClass.hpp</text>
</a>
</g>
</g>
<!-- Node2 -->
<g id="node2" class="node"><title>Node2</title>
<g id="a_node2"><a xlink:href="_setup_8cpp.html" target="_top" xlink:title=" ">
<polygon fill="white" stroke="black" points="2672.48,-117 2672.48,-137 2733.52,-137 2733.52,-117 2672.48,-117"/>
<text text-anchor="middle" x="2703" y="-123" font-family="Helvetica,sans-Serif" font-size="10.00">Setup.cpp</text>
</a>
</g>
</g>
<!-- Node1&#45;&gt;Node2 -->
<g id="edge1" class="edge"><title>Node1&#45;&gt;Node2</title>
<path fill="none" stroke="midnightblue" d="M2800.14,-170.831C2776.61,-160.459 2744.43,-146.269 2723.68,-137.118"/>
<polygon fill="midnightblue" stroke="midnightblue" points="2798.75,-174.046 2809.31,-174.878 2801.57,-167.641 2798.75,-174.046"/>
</g>
<!-- Node3 -->
<g id="node3" class="node"><title>Node3</title>
<g id="a_node3"><a xlink:href="_context_class_8cpp.html" target="_top" xlink:title=" ">
<polygon fill="white" stroke="black" points="-0.18457,-59 -0.18457,-79 94.1846,-79 94.1846,-59 -0.18457,-59"/>
<text text-anchor="middle" x="47" y="-65" font-family="Helvetica,sans-Serif" font-size="10.00">ContextClass.cpp</text>
</a>
</g>
</g>
<!-- Node1&#45;&gt;Node3 -->
<g id="edge2" class="edge"><title>Node1&#45;&gt;Node3</title>
<path fill="none" stroke="midnightblue" d="M2812.27,-168.088C2791.37,-149.747 2757.53,-121.42 2742,-116 2603.56,-67.6884 248.961,-93.9339 103,-80 100.149,-79.7278 97.2252,-79.389 94.2818,-79.0021"/>
<polygon fill="midnightblue" stroke="midnightblue" points="2810.02,-170.778 2819.83,-174.788 2814.66,-165.538 2810.02,-170.778"/>
</g>
<!-- Node4 -->
<g id="node4" class="node"><title>Node4</title>
<g id="a_node4"><a xlink:href="_c_p_p_code_8cpp.html" target="_top" xlink:title=" ">
<polygon fill="white" stroke="black" points="2790.32,-117 2790.32,-137 2869.68,-137 2869.68,-117 2790.32,-117"/>
<text text-anchor="middle" x="2830" y="-123" font-family="Helvetica,sans-Serif" font-size="10.00">CPPCode.cpp</text>
</a>
</g>
</g>
<!-- Node1&#45;&gt;Node4 -->
<g id="edge3" class="edge"><title>Node1&#45;&gt;Node4</title>
<path fill="none" stroke="midnightblue" d="M2830,-164.707C2830,-155.338 2830,-144.526 2830,-137.075"/>
<polygon fill="midnightblue" stroke="midnightblue" points="2826.5,-164.753 2830,-174.753 2833.5,-164.753 2826.5,-164.753"/>
</g>
<!-- Node5 -->
<g id="node5" class="node"><title>Node5</title>
<g id="a_node5"><a xlink:href="_rexx_activation_8hpp.html" target="_top" xlink:title=" ">
<polygon fill="white" stroke="red" points="2887.2,-117 2887.2,-137 2988.8,-137 2988.8,-117 2887.2,-117"/>
<text text-anchor="middle" x="2938" y="-123" font-family="Helvetica,sans-Serif" font-size="10.00">RexxActivation.hpp</text>
</a>
</g>
</g>
<!-- Node1&#45;&gt;Node5 -->
<g id="edge4" class="edge"><title>Node1&#45;&gt;Node5</title>
<path fill="none" stroke="midnightblue" d="M2856.72,-170.144C2876.63,-159.823 2903.24,-146.025 2920.5,-137.075"/>
<polygon fill="midnightblue" stroke="midnightblue" points="2855.1,-167.042 2847.83,-174.753 2858.32,-173.257 2855.1,-167.042"/>
</g>
<!-- Node12 -->
<g id="node10" class="node"><title>Node12</title>
<g id="a_node10"><a xlink:href="_virtual_function_table_8cpp.html" target="_top" xlink:title=" ">
<polygon fill="white" stroke="black" points="5557.33,-1 5557.33,-21 5682.67,-21 5682.67,-1 5557.33,-1"/>
<text text-anchor="middle" x="5620" y="-7" font-family="Helvetica,sans-Serif" font-size="10.00">VirtualFunctionTable.cpp</text>
</a>
</g>
</g>
<!-- Node1&#45;&gt;Node12 -->
<g id="edge52" class="edge"><title>Node1&#45;&gt;Node12</title>
<path fill="none" stroke="midnightblue" d="M2887.7,-184.092C3278.28,-184.442 5522.73,-182 5621,-80 5636.07,-64.355 5628.96,-36.0708 5623.77,-21.3985"/>
<polygon fill="midnightblue" stroke="midnightblue" points="2887.48,-180.592 2877.48,-184.082 2887.48,-187.592 2887.48,-180.592"/>
</g>
<!-- Node6 -->
<g id="node6" class="node"><title>Node6</title>
<g id="a_node6"><a xlink:href="_trace_instruction_8cpp.html" target="_top" xlink:title=" ">
<polygon fill="white" stroke="black" points="111.885,-59 111.885,-79 218.115,-79 218.115,-59 111.885,-59"/>
<text text-anchor="middle" x="165" y="-65" font-family="Helvetica,sans-Serif" font-size="10.00">TraceInstruction.cpp</text>
</a>
</g>
</g>
<!-- Node5&#45;&gt;Node6 -->
<g id="edge5" class="edge"><title>Node5&#45;&gt;Node6</title>
<path fill="none" stroke="midnightblue" d="M2876.63,-116.035C1702.59,-11.841 1397.46,-181.788 227,-80 223.959,-79.7355 220.841,-79.4092 217.7,-79.0379"/>
<polygon fill="midnightblue" stroke="midnightblue" points="2876.73,-119.558 2887,-116.961 2877.36,-112.586 2876.73,-119.558"/>
</g>
<!-- Node7 -->
<g id="node7" class="node"><title>Node7</title>
<g id="a_node7"><a xlink:href="_say_instruction_8cpp.html" target="_top" xlink:title=" ">
<polygon fill="white" stroke="black" points="235.867,-59 235.867,-79 334.133,-79 334.133,-59 235.867,-59"/>
<text text-anchor="middle" x="285" y="-65" font-family="Helvetica,sans-Serif" font-size="10.00">SayInstruction.cpp</text>
</a>
</g>
</g>
<!-- Node5&#45;&gt;Node7 -->
<g id="edge6" class="edge"><title>Node5&#45;&gt;Node7</title>
<path fill="none" stroke="midnightblue" d="M2876.67,-116.038C1753.96,-16.1206 1461.54,-183.725 343,-80 340.151,-79.7358 337.232,-79.4098 334.291,-79.0386"/>
<polygon fill="midnightblue" stroke="midnightblue" points="2876.73,-119.557 2887,-116.963 2877.36,-112.585 2876.73,-119.557"/>
</g>
<!-- Node8 -->
<g id="node8" class="node"><title>Node8</title>
<g id="a_node8"><a xlink:href="_otherwise_instruction_8cpp.html" target="_top" xlink:title=" ">
<polygon fill="white" stroke="black" points="351.976,-59 351.976,-79 478.024,-79 478.024,-59 351.976,-59"/>
<text text-anchor="middle" x="415" y="-65" font-family="Helvetica,sans-Serif" font-size="10.00">OtherwiseInstruction.cpp</text>
</a>
</g>
</g>
<!-- Node5&#45;&gt;Node8 -->
<g id="edge7" class="edge"><title>Node5&#45;&gt;Node8</title>
<path fill="none" stroke="midnightblue" d="M2876.86,-116.053C1817.78,-21.2623 1543.31,-160.999 487,-80 483.477,-79.7298 479.863,-79.3991 476.22,-79.0244"/>
<polygon fill="midnightblue" stroke="midnightblue" points="2876.73,-119.555 2887,-116.966 2877.36,-112.584 2876.73,-119.555"/>
</g>
<!-- Node9 -->
<g id="node9" class="node"><title>Node9</title>
<g id="a_node9"><a xlink:href="_nop_instruction_8hpp.html" target="_top" xlink:title=" ">
<polygon fill="white" stroke="red" points="496.03,-59 496.03,-79 595.97,-79 595.97,-59 496.03,-59"/>
<text text-anchor="middle" x="546" y="-65" font-family="Helvetica,sans-Serif" font-size="10.00">NopInstruction.hpp</text>
</a>
</g>
</g>
<!-- Node5&#45;&gt;Node9 -->
<g id="edge8" class="edge"><title>Node5&#45;&gt;Node9</title>
<path fill="none" stroke="midnightblue" d="M2876.99,-116.064C1870.06,-25.6684 1607.77,-172.381 605,-80 602.103,-79.7331 599.134,-79.405 596.144,-79.0323"/>
<polygon fill="midnightblue" stroke="midnightblue" points="2876.73,-119.555 2887,-116.969 2877.36,-112.583 2876.73,-119.555"/>
</g>
<!-- Node13 -->
<g id="node11" class="node"><title>Node13</title>
<g id="a_node11"><a xlink:href="_else_instruction_8cpp.html" target="_top" xlink:title=" ">
<polygon fill="white" stroke="black" points="613.756,-59 613.756,-79 714.244,-79 714.244,-59 613.756,-59"/>
<text text-anchor="middle" x="664" y="-65" font-family="Helvetica,sans-Serif" font-size="10.00">ElseInstruction.cpp</text>
</a>
</g>
</g>
<!-- Node5&#45;&gt;Node13 -->
<g id="edge10" class="edge"><title>Node5&#45;&gt;Node13</title>
<path fill="none" stroke="midnightblue" d="M2876.81,-116.046C1922.73,-30.0308 1674.14,-166.635 724,-80 720.845,-79.7123 717.605,-79.3547 714.345,-78.9476"/>
<polygon fill="midnightblue" stroke="midnightblue" points="2876.73,-119.553 2887,-116.972 2877.36,-112.582 2876.73,-119.553"/>
</g>
<!-- Node14 -->
<g id="node12" class="node"><title>Node14</title>
<g id="a_node12"><a xlink:href="_signal_instruction_8cpp.html" target="_top" xlink:title=" ">
<polygon fill="white" stroke="black" points="732.584,-59 732.584,-79 841.416,-79 841.416,-59 732.584,-59"/>
<text text-anchor="middle" x="787" y="-65" font-family="Helvetica,sans-Serif" font-size="10.00">SignalInstruction.cpp</text>
</a>
</g>
</g>
<!-- Node5&#45;&gt;Node14 -->
<g id="edge11" class="edge"><title>Node5&#45;&gt;Node14</title>
<path fill="none" stroke="midnightblue" d="M2876.74,-116.039C1978.97,-34.6481 1745.27,-157.438 851,-80 847.863,-79.7283 844.646,-79.3965 841.405,-79.0208"/>
<polygon fill="midnightblue" stroke="midnightblue" points="2876.73,-119.552 2887,-116.975 2877.36,-112.581 2876.73,-119.552"/>
</g>
<!-- Node15 -->
<g id="node13" class="node"><title>Node15</title>
<g id="a_node13"><a xlink:href="_numeric_instruction_8cpp.html" target="_top" xlink:title=" ">
<polygon fill="white" stroke="black" points="859.87,-59 859.87,-79 978.13,-79 978.13,-59 859.87,-59"/>
<text text-anchor="middle" x="919" y="-65" font-family="Helvetica,sans-Serif" font-size="10.00">NumericInstruction.cpp</text>
</a>
</g>
</g>
<!-- Node5&#45;&gt;Node15 -->
<g id="edge12" class="edge"><title>Node5&#45;&gt;Node15</title>
<path fill="none" stroke="midnightblue" d="M2876.81,-116.043C2039.21,-39.5853 1821.36,-149.011 987,-80 983.67,-79.7246 980.255,-79.3898 976.814,-79.0119"/>
<polygon fill="midnightblue" stroke="midnightblue" points="2876.72,-119.55 2887,-116.98 2877.37,-112.579 2876.72,-119.55"/>
</g>
<!-- Node16 -->
<g id="node14" class="node"><title>Node16</title>
<g id="a_node14"><a xlink:href="_call_instruction_8cpp.html" target="_top" xlink:title=" ">
<polygon fill="white" stroke="black" points="995.87,-59 995.87,-79 1094.13,-79 1094.13,-59 995.87,-59"/>
<text text-anchor="middle" x="1045" y="-65" font-family="Helvetica,sans-Serif" font-size="10.00">CallInstruction.cpp</text>
</a>
</g>
</g>
<!-- Node5&#45;&gt;Node16 -->
<g id="edge13" class="edge"><title>Node5&#45;&gt;Node16</title>
<path fill="none" stroke="midnightblue" d="M2876.85,-116.045C2090.58,-43.905 1885.1,-154.924 1103,-80 1100.15,-79.7272 1097.23,-79.3944 1094.29,-79.018"/>
<polygon fill="midnightblue" stroke="midnightblue" points="2876.72,-119.549 2887,-116.984 2877.37,-112.578 2876.72,-119.549"/>
</g>
<!-- Node17 -->
<g id="node15" class="node"><title>Node17</title>
<g id="a_node15"><a xlink:href="_interpret_instruction_8cpp.html" target="_top" xlink:title=" ">
<polygon fill="white" stroke="black" points="1111.86,-59 1111.86,-79 1230.14,-79 1230.14,-59 1111.86,-59"/>
<text text-anchor="middle" x="1171" y="-65" font-family="Helvetica,sans-Serif" font-size="10.00">InterpretInstruction.cpp</text>
</a>
</g>
</g>
<!-- Node5&#45;&gt;Node17 -->
<g id="edge14" class="edge"><title>Node5&#45;&gt;Node17</title>
<path fill="none" stroke="midnightblue" d="M2876.82,-116.039C2150.81,-48.7947 1961.68,-140.839 1239,-80 1235.67,-79.7197 1232.26,-79.3811 1228.81,-79.0003"/>
<polygon fill="midnightblue" stroke="midnightblue" points="2876.72,-119.546 2887,-116.99 2877.37,-112.576 2876.72,-119.546"/>
</g>
<!-- Node18 -->
<g id="node16" class="node"><title>Node18</title>
<g id="a_node16"><a xlink:href="_extension_directive_8cpp.html" target="_top" xlink:title=" ">
<polygon fill="white" stroke="black" points="1248.14,-59 1248.14,-79 1365.86,-79 1365.86,-59 1248.14,-59"/>
<text text-anchor="middle" x="1307" y="-65" font-family="Helvetica,sans-Serif" font-size="10.00">ExtensionDirective.cpp</text>
</a>
</g>
</g>
<!-- Node5&#45;&gt;Node18 -->
<g id="edge15" class="edge"><title>Node5&#45;&gt;Node18</title>
<path fill="none" stroke="midnightblue" d="M2876.67,-116.023C2211.02,-53.7734 2037.37,-136.424 1375,-80 1371.79,-79.7265 1368.5,-79.3995 1365.18,-79.0333"/>
<polygon fill="midnightblue" stroke="midnightblue" points="2876.72,-119.543 2887,-116.997 2877.37,-112.574 2876.72,-119.543"/>
</g>
<!-- Node19 -->
<g id="node17" class="node"><title>Node19</title>
<g id="a_node17"><a xlink:href="_reply_instruction_8cpp.html" target="_top" xlink:title=" ">
<polygon fill="white" stroke="black" points="1383.7,-59 1383.7,-79 1490.3,-79 1490.3,-59 1383.7,-59"/>
<text text-anchor="middle" x="1437" y="-65" font-family="Helvetica,sans-Serif" font-size="10.00">ReplyInstruction.cpp</text>
</a>
</g>
</g>
<!-- Node5&#45;&gt;Node19 -->
<g id="edge16" class="edge"><title>Node5&#45;&gt;Node19</title>
<path fill="none" stroke="midnightblue" d="M2876.61,-116.015C2265.91,-58.3505 2106.02,-136.62 1499,-80 1496.07,-79.7266 1493.07,-79.3996 1490.04,-79.0334"/>
<polygon fill="midnightblue" stroke="midnightblue" points="2876.71,-119.54 2887,-117.005 2877.38,-112.572 2876.71,-119.54"/>
</g>
<!-- Node20 -->
<g id="node18" class="node"><title>Node20</title>
<g id="a_node18"><a xlink:href="_leave_instruction_8cpp.html" target="_top" xlink:title=" ">
<polygon fill="white" stroke="black" points="1507.86,-59 1507.86,-79 1616.14,-79 1616.14,-59 1507.86,-59"/>
<text text-anchor="middle" x="1562" y="-65" font-family="Helvetica,sans-Serif" font-size="10.00">LeaveInstruction.cpp</text>
</a>
</g>
</g>
<!-- Node5&#45;&gt;Node20 -->
<g id="edge17" class="edge"><title>Node5&#45;&gt;Node20</title>
<path fill="none" stroke="midnightblue" d="M2876.73,-116.022C2321.73,-62.926 2176.32,-131.46 1625,-80 1622.02,-79.7221 1618.97,-79.3916 1615.9,-79.0227"/>
<polygon fill="midnightblue" stroke="midnightblue" points="2876.71,-119.536 2887,-117.014 2877.38,-112.569 2876.71,-119.536"/>
</g>
<!-- Node21 -->
<g id="node19" class="node"><title>Node21</title>
<g id="a_node19"><a xlink:href="_message_instruction_8cpp.html" target="_top" xlink:title=" ">
<polygon fill="white" stroke="black" points="1634.19,-59 1634.19,-79 1755.81,-79 1755.81,-59 1634.19,-59"/>
<text text-anchor="middle" x="1695" y="-65" font-family="Helvetica,sans-Serif" font-size="10.00">MessageInstruction.cpp</text>
</a>
</g>
</g>
<!-- Node5&#45;&gt;Node21 -->
<g id="edge18" class="edge"><title>Node5&#45;&gt;Node21</title>
<path fill="none" stroke="midnightblue" d="M2876.76,-116.019C2383.28,-67.9399 2254.07,-123.295 1764,-80 1760.87,-79.723 1757.66,-79.3992 1754.42,-79.0408"/>
<polygon fill="midnightblue" stroke="midnightblue" points="2876.7,-119.53 2887,-117.026 2877.39,-112.564 2876.7,-119.53"/>
</g>
<!-- Node22 -->
<g id="node20" class="node"><title>Node22</title>
<g id="a_node20"><a xlink:href="_assignment_instruction_8cpp.html" target="_top" xlink:title=" ">
<polygon fill="white" stroke="black" points="1773.36,-59 1773.36,-79 1906.64,-79 1906.64,-59 1773.36,-59"/>
<text text-anchor="middle" x="1840" y="-65" font-family="Helvetica,sans-Serif" font-size="10.00">AssignmentInstruction.cpp</text>
</a>
</g>
</g>
<!-- Node5&#45;&gt;Node22 -->
<g id="edge19" class="edge"><title>Node5&#45;&gt;Node22</title>
<path fill="none" stroke="midnightblue" d="M2876.87,-116.022C2450.6,-73.4126 2339.01,-115.666 1916,-80 1912.55,-79.7093 1909.02,-79.3745 1905.46,-79.0075"/>
<polygon fill="midnightblue" stroke="midnightblue" points="2876.7,-119.522 2887,-117.044 2877.4,-112.557 2876.7,-119.522"/>
</g>
<!-- Node23 -->
<g id="node21" class="node"><title>Node23</title>
<g id="a_node21"><a xlink:href="_select_instruction_8cpp.html" target="_top" xlink:title=" ">
<polygon fill="white" stroke="black" points="1924.59,-59 1924.59,-79 2033.41,-79 2033.41,-59 1924.59,-59"/>
<text text-anchor="middle" x="1979" y="-65" font-family="Helvetica,sans-Serif" font-size="10.00">SelectInstruction.cpp</text>
</a>
</g>
</g>
<!-- Node5&#45;&gt;Node23 -->
<g id="edge20" class="edge"><title>Node5&#45;&gt;Node23</title>
<path fill="none" stroke="midnightblue" d="M2876.8,-116.007C2506.35,-78.0717 2408.69,-116.876 2042,-80 2039.14,-79.7119 2036.2,-79.3792 2033.24,-79.0138"/>
<polygon fill="midnightblue" stroke="midnightblue" points="2876.69,-119.515 2886.99,-117.064 2877.41,-112.552 2876.69,-119.515"/>
</g>
<!-- Node24 -->
<g id="node22" class="node"><title>Node24</title>
<g id="a_node22"><a xlink:href="_return_instruction_8cpp.html" target="_top" xlink:title=" ">
<polygon fill="white" stroke="black" points="2051.48,-59 2051.48,-79 2162.52,-79 2162.52,-59 2051.48,-59"/>
<text text-anchor="middle" x="2107" y="-65" font-family="Helvetica,sans-Serif" font-size="10.00">ReturnInstruction.cpp</text>
</a>
</g>
</g>
<!-- Node5&#45;&gt;Node24 -->
<g id="edge21" class="edge"><title>Node5&#45;&gt;Node24</title>
<path fill="none" stroke="midnightblue" d="M2876.72,-115.987C2563.88,-82.7522 2481.2,-111.585 2172,-80 2168.93,-79.6867 2165.79,-79.3283 2162.62,-78.9377"/>
<polygon fill="midnightblue" stroke="midnightblue" points="2876.67,-119.502 2886.99,-117.092 2877.42,-112.542 2876.67,-119.502"/>
</g>
<!-- Node25 -->
<g id="node23" class="node"><title>Node25</title>
<g id="a_node23"><a xlink:href="_upper_instruction_8cpp.html" target="_top" xlink:title=" ">
<polygon fill="white" stroke="black" points="2180.86,-59 2180.86,-79 2289.14,-79 2289.14,-59 2180.86,-59"/>
<text text-anchor="middle" x="2235" y="-65" font-family="Helvetica,sans-Serif" font-size="10.00">UpperInstruction.cpp</text>
</a>
</g>
</g>
<!-- Node5&#45;&gt;Node25 -->
<g id="edge22" class="edge"><title>Node5&#45;&gt;Node25</title>
<path fill="none" stroke="midnightblue" d="M2876.97,-115.997C2619.67,-87.2701 2551.46,-107.918 2298,-80 2295.14,-79.6848 2292.21,-79.3304 2289.25,-78.9481"/>
<polygon fill="midnightblue" stroke="midnightblue" points="2876.66,-119.484 2886.99,-117.13 2877.44,-112.529 2876.66,-119.484"/>
</g>
<!-- Node26 -->
<g id="node24" class="node"><title>Node26</title>
<g id="a_node24"><a xlink:href="_address_instruction_8cpp.html" target="_top" xlink:title=" ">
<polygon fill="white" stroke="black" points="2307.14,-59 2307.14,-79 2424.86,-79 2424.86,-59 2307.14,-59"/>
<text text-anchor="middle" x="2366" y="-65" font-family="Helvetica,sans-Serif" font-size="10.00">AddressInstruction.cpp</text>
</a>
</g>
</g>
<!-- Node5&#45;&gt;Node26 -->
<g id="edge23" class="edge"><title>Node5&#45;&gt;Node26</title>
<path fill="none" stroke="midnightblue" d="M2876.85,-115.954C2679.34,-92.0236 2626.85,-102.282 2433,-80 2430.31,-79.6911 2427.57,-79.357 2424.8,-79.0047"/>
<polygon fill="midnightblue" stroke="midnightblue" points="2876.63,-119.453 2886.98,-117.196 2877.48,-112.505 2876.63,-119.453"/>
</g>
<!-- Node27 -->
<g id="node25" class="node"><title>Node27</title>
<g id="a_node25"><a xlink:href="_procedure_instruction_8cpp.html" target="_top" xlink:title=" ">
<polygon fill="white" stroke="black" points="2442.41,-59 2442.41,-79 2569.59,-79 2569.59,-59 2442.41,-59"/>
<text text-anchor="middle" x="2506" y="-65" font-family="Helvetica,sans-Serif" font-size="10.00">ProcedureInstruction.cpp</text>
</a>
</g>
</g>
<!-- Node5&#45;&gt;Node27 -->
<g id="edge24" class="edge"><title>Node5&#45;&gt;Node27</title>
<path fill="none" stroke="midnightblue" d="M2876.79,-115.878C2743.8,-96.987 2708.51,-96.6664 2579,-80 2575.96,-79.6082 2572.84,-79.2019 2569.69,-78.7874"/>
<polygon fill="midnightblue" stroke="midnightblue" points="2876.57,-119.382 2886.96,-117.332 2877.56,-112.452 2876.57,-119.382"/>
</g>
<!-- Node28 -->
<g id="node26" class="node"><title>Node28</title>
<g id="a_node26"><a xlink:href="_library_directive_8cpp.html" target="_top" xlink:title=" ">
<polygon fill="white" stroke="black" points="2587.82,-59 2587.82,-79 2692.18,-79 2692.18,-59 2587.82,-59"/>
<text text-anchor="middle" x="2640" y="-65" font-family="Helvetica,sans-Serif" font-size="10.00">LibraryDirective.cpp</text>
</a>
</g>
</g>
<!-- Node5&#45;&gt;Node28 -->
<g id="edge25" class="edge"><title>Node5&#45;&gt;Node28</title>
<path fill="none" stroke="midnightblue" d="M2879.68,-115.041C2823.77,-104.535 2740.37,-88.8622 2688.14,-79.0466"/>
<polygon fill="midnightblue" stroke="midnightblue" points="2879.32,-118.533 2889.79,-116.94 2880.61,-111.654 2879.32,-118.533"/>
</g>
<!-- Node29 -->
<g id="node27" class="node"><title>Node29</title>
<g id="a_node27"><a xlink:href="_class_directive_8cpp.html" target="_top" xlink:title=" ">
<polygon fill="white" stroke="black" points="2710.6,-59 2710.6,-79 2809.4,-79 2809.4,-59 2710.6,-59"/>
<text text-anchor="middle" x="2760" y="-65" font-family="Helvetica,sans-Serif" font-size="10.00">ClassDirective.cpp</text>
</a>
</g>
</g>
<!-- Node5&#45;&gt;Node29 -->
<g id="edge26" class="edge"><title>Node5&#45;&gt;Node29</title>
<path fill="none" stroke="midnightblue" d="M2899.15,-113.778C2865.86,-103.303 2818.66,-88.4538 2788.69,-79.0253"/>
<polygon fill="midnightblue" stroke="midnightblue" points="2898.42,-117.216 2909.01,-116.878 2900.52,-110.538 2898.42,-117.216"/>
</g>
<!-- Node30 -->
<g id="node28" class="node"><title>Node30</title>
<g id="a_node28"><a xlink:href="_end_instruction_8cpp.html" target="_top" xlink:title=" ">
<polygon fill="white" stroke="black" points="2827.59,-59 2827.59,-79 2926.41,-79 2926.41,-59 2827.59,-59"/>
<text text-anchor="middle" x="2877" y="-65" font-family="Helvetica,sans-Serif" font-size="10.00">EndInstruction.cpp</text>
</a>
</g>
</g>
<!-- Node5&#45;&gt;Node30 -->
<g id="edge27" class="edge"><title>Node5&#45;&gt;Node30</title>
<path fill="none" stroke="midnightblue" d="M2920.25,-109.704C2909.38,-99.7286 2895.88,-87.3361 2886.89,-79.0752"/>
<polygon fill="midnightblue" stroke="midnightblue" points="2918.19,-112.568 2927.93,-116.753 2922.93,-107.412 2918.19,-112.568"/>
</g>
<!-- Node31 -->
<g id="node29" class="node"><title>Node31</title>
<g id="a_node29"><a xlink:href="_guard_instruction_8cpp.html" target="_top" xlink:title=" ">
<polygon fill="white" stroke="black" points="2944.59,-59 2944.59,-79 3053.41,-79 3053.41,-59 2944.59,-59"/>
<text text-anchor="middle" x="2999" y="-65" font-family="Helvetica,sans-Serif" font-size="10.00">GuardInstruction.cpp</text>
</a>
</g>
</g>
<!-- Node5&#45;&gt;Node31 -->
<g id="edge28" class="edge"><title>Node5&#45;&gt;Node31</title>
<path fill="none" stroke="midnightblue" d="M2955.75,-109.704C2966.62,-99.7286 2980.12,-87.3361 2989.11,-79.0752"/>
<polygon fill="midnightblue" stroke="midnightblue" points="2953.07,-107.412 2948.07,-116.753 2957.81,-112.568 2953.07,-107.412"/>
</g>
<!-- Node32 -->
<g id="node30" class="node"><title>Node32</title>
<g id="a_node30"><a xlink:href="_then_instruction_8cpp.html" target="_top" xlink:title=" ">
<polygon fill="white" stroke="black" points="3071.09,-59 3071.09,-79 3174.91,-79 3174.91,-59 3071.09,-59"/>
<text text-anchor="middle" x="3123" y="-65" font-family="Helvetica,sans-Serif" font-size="10.00">ThenInstruction.cpp</text>
</a>
</g>
</g>
<!-- Node5&#45;&gt;Node32 -->
<g id="edge29" class="edge"><title>Node5&#45;&gt;Node32</title>
<path fill="none" stroke="midnightblue" d="M2977.93,-113.914C3012.56,-103.431 3061.9,-88.4944 3093.18,-79.0253"/>
<polygon fill="midnightblue" stroke="midnightblue" points="2976.69,-110.631 2968.14,-116.878 2978.72,-117.331 2976.69,-110.631"/>
</g>
<!-- Node33 -->
<g id="node31" class="node"><title>Node33</title>
<g id="a_node31"><a xlink:href="_do_instruction_8cpp.html" target="_top" xlink:title=" ">
<polygon fill="white" stroke="black" points="3193.09,-59 3193.09,-79 3286.91,-79 3286.91,-59 3193.09,-59"/>
<text text-anchor="middle" x="3240" y="-65" font-family="Helvetica,sans-Serif" font-size="10.00">DoInstruction.cpp</text>
</a>
</g>
</g>
<!-- Node5&#45;&gt;Node33 -->
<g id="edge30" class="edge"><title>Node5&#45;&gt;Node33</title>
<path fill="none" stroke="midnightblue" d="M2996.84,-115.09C3054.03,-104.484 3139.8,-88.5802 3192.71,-78.7697"/>
<polygon fill="midnightblue" stroke="midnightblue" points="2996.05,-111.676 2986.86,-116.94 2997.33,-118.558 2996.05,-111.676"/>
</g>
<!-- Node34 -->
<g id="node32" class="node"><title>Node34</title>
<g id="a_node32"><a xlink:href="_parse_instruction_8cpp.html" target="_top" xlink:title=" ">
<polygon fill="white" stroke="black" points="3304.42,-59 3304.42,-79 3411.58,-79 3411.58,-59 3304.42,-59"/>
<text text-anchor="middle" x="3358" y="-65" font-family="Helvetica,sans-Serif" font-size="10.00">ParseInstruction.cpp</text>
</a>
</g>
</g>
<!-- Node5&#45;&gt;Node34 -->
<g id="edge31" class="edge"><title>Node5&#45;&gt;Node34</title>
<path fill="none" stroke="midnightblue" d="M2999.03,-118.687C3070.17,-110.036 3191.24,-94.9169 3295,-80 3298.07,-79.5588 3301.22,-79.0944 3304.4,-78.6173"/>
<polygon fill="midnightblue" stroke="midnightblue" points="2998.41,-115.237 2988.91,-119.916 2999.25,-122.186 2998.41,-115.237"/>
</g>
<!-- Node35 -->
<g id="node33" class="node"><title>Node35</title>
<g id="a_node33"><a xlink:href="_queue_instruction_8cpp.html" target="_top" xlink:title=" ">
<polygon fill="white" stroke="black" points="3429.47,-59 3429.47,-79 3540.53,-79 3540.53,-59 3429.47,-59"/>
<text text-anchor="middle" x="3485" y="-65" font-family="Helvetica,sans-Serif" font-size="10.00">QueueInstruction.cpp</text>
</a>
</g>
</g>
<!-- Node5&#45;&gt;Node35 -->
<g id="edge32" class="edge"><title>Node5&#45;&gt;Node35</title>
<path fill="none" stroke="midnightblue" d="M2999.32,-121.284C3091.01,-113.976 3269.2,-98.7804 3420,-80 3423.06,-79.619 3426.2,-79.2072 3429.36,-78.7752"/>
<polygon fill="midnightblue" stroke="midnightblue" points="2998.81,-117.814 2989.11,-122.094 2999.36,-124.792 2998.81,-117.814"/>
</g>
<!-- Node36 -->
<g id="node34" class="node"><title>Node36</title>
<g id="a_node34"><a xlink:href="_raise_instruction_8cpp.html" target="_top" xlink:title=" ">
<polygon fill="white" stroke="black" points="3558.7,-59 3558.7,-79 3665.3,-79 3665.3,-59 3558.7,-59"/>
<text text-anchor="middle" x="3612" y="-65" font-family="Helvetica,sans-Serif" font-size="10.00">RaiseInstruction.cpp</text>
</a>
</g>
</g>
<!-- Node5&#45;&gt;Node36 -->
<g id="edge33" class="edge"><title>Node5&#45;&gt;Node36</title>
<path fill="none" stroke="midnightblue" d="M2999.08,-123.069C3109.24,-117.411 3348.38,-103.434 3549,-80 3552.08,-79.6402 3555.24,-79.2396 3558.43,-78.8112"/>
<polygon fill="midnightblue" stroke="midnightblue" points="2998.64,-119.587 2988.83,-123.59 2998.99,-126.578 2998.64,-119.587"/>
</g>
<!-- Node37 -->
<g id="node35" class="node"><title>Node37</title>
<g id="a_node35"><a xlink:href="_exit_instruction_8cpp.html" target="_top" xlink:title=" ">
<polygon fill="white" stroke="black" points="3683.15,-59 3683.15,-79 3780.85,-79 3780.85,-59 3683.15,-59"/>
<text text-anchor="middle" x="3732" y="-65" font-family="Helvetica,sans-Serif" font-size="10.00">ExitInstruction.cpp</text>
</a>
</g>
</g>
<!-- Node5&#45;&gt;Node37 -->
<g id="edge34" class="edge"><title>Node5&#45;&gt;Node37</title>
<path fill="none" stroke="midnightblue" d="M2999.28,-124.413C3125.77,-120.645 3424.78,-109.185 3674,-80 3676.94,-79.6553 3679.96,-79.2604 3683.01,-78.8311"/>
<polygon fill="midnightblue" stroke="midnightblue" points="2998.92,-120.922 2989.03,-124.713 2999.13,-127.919 2998.92,-120.922"/>
</g>
<!-- Node38 -->
<g id="node36" class="node"><title>Node38</title>
<g id="a_node36"><a xlink:href="_requires_directive_8cpp.html" target="_top" xlink:title=" ">
<polygon fill="white" stroke="black" points="3799.09,-59 3799.09,-79 3912.91,-79 3912.91,-59 3799.09,-59"/>
<text text-anchor="middle" x="3856" y="-65" font-family="Helvetica,sans-Serif" font-size="10.00">RequiresDirective.cpp</text>
</a>
</g>
</g>
<!-- Node5&#45;&gt;Node38 -->
<g id="edge35" class="edge"><title>Node5&#45;&gt;Node38</title>
<path fill="none" stroke="midnightblue" d="M2999.07,-124.671C3139.08,-121.195 3493.88,-109.933 3789,-80 3792.28,-79.6677 3795.64,-79.2885 3799.03,-78.8765"/>
<polygon fill="midnightblue" stroke="midnightblue" points="2998.88,-121.175 2988.97,-124.918 2999.05,-128.173 2998.88,-121.175"/>
</g>
<!-- Node39 -->
<g id="node37" class="node"><title>Node39</title>
<g id="a_node37"><a xlink:href="_if_instruction_8cpp.html" target="_top" xlink:title=" ">
<polygon fill="white" stroke="black" points="3930.7,-59 3930.7,-79 4017.3,-79 4017.3,-59 3930.7,-59"/>
<text text-anchor="middle" x="3974" y="-65" font-family="Helvetica,sans-Serif" font-size="10.00">IfInstruction.cpp</text>
</a>
</g>
</g>
<!-- Node5&#45;&gt;Node39 -->
<g id="edge36" class="edge"><title>Node5&#45;&gt;Node39</title>
<path fill="none" stroke="midnightblue" d="M2999.1,-126.1C3153.9,-125.713 3573.91,-120.664 3921,-80 3924.16,-79.6295 3927.42,-79.1811 3930.69,-78.6819"/>
<polygon fill="midnightblue" stroke="midnightblue" points="2998.84,-122.601 2988.85,-126.12 2998.86,-129.601 2998.84,-122.601"/>
</g>
<!-- Node40 -->
<g id="node38" class="node"><title>Node40</title>
<g id="a_node38"><a xlink:href="_label_instruction_8cpp.html" target="_top" xlink:title=" ">
<polygon fill="white" stroke="black" points="4035.25,-59 4035.25,-79 4140.75,-79 4140.75,-59 4035.25,-59"/>
<text text-anchor="middle" x="4088" y="-65" font-family="Helvetica,sans-Serif" font-size="10.00">LabelInstruction.cpp</text>
</a>
</g>
</g>
<!-- Node5&#45;&gt;Node40 -->
<g id="edge37" class="edge"><title>Node5&#45;&gt;Node40</title>
<path fill="none" stroke="midnightblue" d="M2999.34,-125.931C3165.23,-125.198 3636.5,-119.507 4026,-80 4028.93,-79.7029 4031.93,-79.3573 4034.95,-78.9766"/>
<polygon fill="midnightblue" stroke="midnightblue" points="2998.84,-122.432 2988.86,-125.972 2998.87,-129.432 2998.84,-122.432"/>
</g>
<!-- Node41 -->
<g id="node39" class="node"><title>Node41</title>
<g id="a_node39"><a xlink:href="_parse_trigger_8cpp.html" target="_top" xlink:title=" ">
<polygon fill="white" stroke="black" points="4159.11,-59 4159.11,-79 4250.89,-79 4250.89,-59 4159.11,-59"/>
<text text-anchor="middle" x="4205" y="-65" font-family="Helvetica,sans-Serif" font-size="10.00">ParseTrigger.cpp</text>
</a>
</g>
</g>
<!-- Node5&#45;&gt;Node41 -->
<g id="edge38" class="edge"><title>Node5&#45;&gt;Node41</title>
<path fill="none" stroke="midnightblue" d="M2999.16,-126.666C3177.15,-127.964 3710.09,-127.293 4149,-80 4152.24,-79.6508 4155.58,-79.2255 4158.93,-78.7495"/>
<polygon fill="midnightblue" stroke="midnightblue" points="2998.97,-123.165 2988.94,-126.587 2998.92,-130.165 2998.97,-123.165"/>
</g>
<!-- Node42 -->
<g id="node40" class="node"><title>Node42</title>
<g id="a_node40"><a xlink:href="_options_instruction_8cpp.html" target="_top" xlink:title=" ">
<polygon fill="white" stroke="black" points="4269.25,-59 4269.25,-79 4384.75,-79 4384.75,-59 4269.25,-59"/>
<text text-anchor="middle" x="4327" y="-65" font-family="Helvetica,sans-Serif" font-size="10.00">OptionsInstruction.cpp</text>
</a>
</g>
</g>
<!-- Node5&#45;&gt;Node42 -->
<g id="edge39" class="edge"><title>Node5&#45;&gt;Node42</title>
<path fill="none" stroke="midnightblue" d="M2999.07,-126.284C3187.24,-126.642 3774.79,-123.897 4259,-80 4262.33,-79.6983 4265.74,-79.343 4269.18,-78.9494"/>
<polygon fill="midnightblue" stroke="midnightblue" points="2998.83,-122.783 2988.82,-126.26 2998.82,-129.783 2998.83,-122.783"/>
</g>
<!-- Node43 -->
<g id="node41" class="node"><title>Node43</title>
<g id="a_node41"><a xlink:href="_parse_target_8cpp.html" target="_top" xlink:title=" ">
<polygon fill="white" stroke="black" points="4402.59,-59 4402.59,-79 4491.41,-79 4491.41,-59 4402.59,-59"/>
<text text-anchor="middle" x="4447" y="-65" font-family="Helvetica,sans-Serif" font-size="10.00">ParseTarget.cpp</text>
</a>
</g>
</g>
<!-- Node5&#45;&gt;Node43 -->
<g id="edge40" class="edge"><title>Node5&#45;&gt;Node43</title>
<path fill="none" stroke="midnightblue" d="M2999.09,-125.303C3238.91,-122.376 4116.31,-109.819 4393,-80 4396.13,-79.6629 4399.35,-79.2465 4402.58,-78.7769"/>
<polygon fill="midnightblue" stroke="midnightblue" points="2998.78,-121.807 2988.82,-125.427 2998.86,-128.806 2998.78,-121.807"/>
</g>
<!-- Node44 -->
<g id="node42" class="node"><title>Node44</title>
<g id="a_node42"><a xlink:href="_forward_instruction_8cpp.html" target="_top" xlink:title=" ">
<polygon fill="white" stroke="black" points="4509.15,-59 4509.15,-79 4626.85,-79 4626.85,-59 4509.15,-59"/>
<text text-anchor="middle" x="4568" y="-65" font-family="Helvetica,sans-Serif" font-size="10.00">ForwardInstruction.cpp</text>
</a>
</g>
</g>
<!-- Node5&#45;&gt;Node44 -->
<g id="edge41" class="edge"><title>Node5&#45;&gt;Node44</title>
<path fill="none" stroke="midnightblue" d="M2998.97,-125.156C3249.5,-121.54 4200.62,-106.331 4500,-80 4503.21,-79.7177 4506.5,-79.3838 4509.81,-79.0121"/>
<polygon fill="midnightblue" stroke="midnightblue" points="2998.91,-121.656 2988.96,-125.299 2999.01,-128.656 2998.91,-121.656"/>
</g>
<!-- Node45 -->
<g id="node43" class="node"><title>Node45</title>
<g id="a_node43"><a xlink:href="_end_if_8cpp.html" target="_top" xlink:title=" ">
<polygon fill="white" stroke="black" points="4644.87,-59 4644.87,-79 4703.13,-79 4703.13,-59 4644.87,-59"/>
<text text-anchor="middle" x="4674" y="-65" font-family="Helvetica,sans-Serif" font-size="10.00">EndIf.cpp</text>
</a>
</g>
</g>
<!-- Node5&#45;&gt;Node45 -->
<g id="edge42" class="edge"><title>Node5&#45;&gt;Node45</title>
<path fill="none" stroke="midnightblue" d="M2999.03,-126.174C3263.21,-126.648 4309.52,-125.552 4635,-80 4638.18,-79.5543 4641.48,-78.946 4644.75,-78.2477"/>
<polygon fill="midnightblue" stroke="midnightblue" points="2998.87,-122.674 2988.86,-126.155 2998.86,-129.674 2998.87,-122.674"/>
</g>
<!-- Node46 -->
<g id="node44" class="node"><title>Node46</title>
<g id="a_node44"><a xlink:href="_expose_instruction_8cpp.html" target="_top" xlink:title=" ">
<polygon fill="white" stroke="black" points="4720.81,-59 4720.81,-79 4835.19,-79 4835.19,-59 4720.81,-59"/>
<text text-anchor="middle" x="4778" y="-65" font-family="Helvetica,sans-Serif" font-size="10.00">ExposeInstruction.cpp</text>
</a>
</g>
</g>
<!-- Node5&#45;&gt;Node46 -->
<g id="edge43" class="edge"><title>Node5&#45;&gt;Node46</title>
<path fill="none" stroke="midnightblue" d="M2999.03,-125.438C3270.33,-122.785 4368.67,-110.343 4712,-80 4715.12,-79.7245 4718.31,-79.3959 4721.53,-79.0285"/>
<polygon fill="midnightblue" stroke="midnightblue" points="2998.94,-121.939 2988.98,-125.536 2999.01,-128.939 2998.94,-121.939"/>
</g>
<!-- Node47 -->
<g id="node45" class="node"><title>Node47</title>
<g id="a_node45"><a xlink:href="_command_instruction_8cpp.html" target="_top" xlink:title=" ">
<polygon fill="white" stroke="black" points="4853.42,-59 4853.42,-79 4980.58,-79 4980.58,-59 4853.42,-59"/>
<text text-anchor="middle" x="4917" y="-65" font-family="Helvetica,sans-Serif" font-size="10.00">CommandInstruction.cpp</text>
</a>
</g>
</g>
<!-- Node5&#45;&gt;Node47 -->
<g id="edge44" class="edge"><title>Node5&#45;&gt;Node47</title>
<path fill="none" stroke="midnightblue" d="M2999.33,-125.446C3283.39,-122.735 4473.07,-109.788 4844,-80 4847.44,-79.7235 4850.97,-79.3941 4854.53,-79.0261"/>
<polygon fill="midnightblue" stroke="midnightblue" points="2999.18,-121.947 2989.22,-125.541 2999.25,-128.946 2999.18,-121.947"/>
</g>
<!-- Node48 -->
<g id="node46" class="node"><title>Node48</title>
<g id="a_node46"><a xlink:href="_drop_instruction_8cpp.html" target="_top" xlink:title=" ">
<polygon fill="white" stroke="black" points="4998.65,-59 4998.65,-79 5101.35,-79 5101.35,-59 4998.65,-59"/>
<text text-anchor="middle" x="5050" y="-65" font-family="Helvetica,sans-Serif" font-size="10.00">DropInstruction.cpp</text>
</a>
</g>
</g>
<!-- Node5&#45;&gt;Node48 -->
<g id="edge45" class="edge"><title>Node5&#45;&gt;Node48</title>
<path fill="none" stroke="midnightblue" d="M2999.11,-125.785C3295.82,-124.564 4588.13,-117.169 4989,-80 4992.1,-79.7127 4995.28,-79.3621 4998.48,-78.9663"/>
<polygon fill="midnightblue" stroke="midnightblue" points="2998.97,-122.285 2988.98,-125.826 2999,-129.285 2998.97,-122.285"/>
</g>
<!-- Node49 -->
<g id="node47" class="node"><title>Node49</title>
<g id="a_node47"><a xlink:href="_use_strict_instruction_8cpp.html" target="_top" xlink:title=" ">
<polygon fill="white" stroke="black" points="5119.2,-59 5119.2,-79 5240.8,-79 5240.8,-59 5119.2,-59"/>
<text text-anchor="middle" x="5180" y="-65" font-family="Helvetica,sans-Serif" font-size="10.00">UseStrictInstruction.cpp</text>
</a>
</g>
</g>
<!-- Node5&#45;&gt;Node49 -->
<g id="edge46" class="edge"><title>Node5&#45;&gt;Node49</title>
<path fill="none" stroke="midnightblue" d="M2999.19,-125.703C3306.49,-124.061 4683.48,-114.854 5110,-80 5113.43,-79.72 5116.94,-79.3817 5120.48,-79.0011"/>
<polygon fill="midnightblue" stroke="midnightblue" points="2999.12,-122.204 2989.14,-125.756 2999.16,-129.204 2999.12,-122.204"/>
</g>
<!-- Node50 -->
<g id="node48" class="node"><title>Node50</title>
<g id="a_node48"><a xlink:href="_rexx_memory_8cpp.html" target="_top" xlink:title=" ">
<polygon fill="white" stroke="black" points="5258.47,-59 5258.47,-79 5351.53,-79 5351.53,-59 5258.47,-59"/>
<text text-anchor="middle" x="5305" y="-65" font-family="Helvetica,sans-Serif" font-size="10.00">RexxMemory.cpp</text>
</a>
</g>
</g>
<!-- Node5&#45;&gt;Node50 -->
<g id="edge47" class="edge"><title>Node5&#45;&gt;Node50</title>
<path fill="none" stroke="midnightblue" d="M2999.44,-126.082C3319.04,-126.307 4794.16,-124.858 5249,-80 5252.05,-79.6995 5255.18,-79.3252 5258.33,-78.8993"/>
<polygon fill="midnightblue" stroke="midnightblue" points="2999.01,-122.581 2989,-126.073 2999,-129.581 2999.01,-122.581"/>
</g>
<!-- Node51 -->
<g id="node49" class="node"><title>Node51</title>
<g id="a_node49"><a xlink:href="_number_string_class_8cpp.html" target="_top" xlink:title=" ">
<polygon fill="white" stroke="black" points="5369.2,-59 5369.2,-79 5490.8,-79 5490.8,-59 5369.2,-59"/>
<text text-anchor="middle" x="5430" y="-65" font-family="Helvetica,sans-Serif" font-size="10.00">NumberStringClass.cpp</text>
</a>
</g>
</g>
<!-- Node5&#45;&gt;Node51 -->
<g id="edge48" class="edge"><title>Node5&#45;&gt;Node51</title>
<path fill="none" stroke="midnightblue" d="M2999.18,-125.858C3327.25,-124.944 4881.02,-118.614 5360,-80 5363.43,-79.7238 5366.94,-79.3884 5370.48,-79.01"/>
<polygon fill="midnightblue" stroke="midnightblue" points="2998.92,-122.359 2988.93,-125.886 2998.94,-129.359 2998.92,-122.359"/>
</g>
<!-- Node52 -->
<g id="node50" class="node"><title>Node52</title>
<g id="a_node50"><a xlink:href="_stem_class_8cpp.html" target="_top" xlink:title=" ">
<polygon fill="white" stroke="black" points="5508.38,-59 5508.38,-79 5591.62,-79 5591.62,-59 5508.38,-59"/>
<text text-anchor="middle" x="5550" y="-65" font-family="Helvetica,sans-Serif" font-size="10.00">StemClass.cpp</text>
</a>
</g>
</g>
<!-- Node5&#45;&gt;Node52 -->
<g id="edge49" class="edge"><title>Node5&#45;&gt;Node52</title>
<path fill="none" stroke="midnightblue" d="M2999.06,-125.547C3363.42,-122.755 5243.6,-107.121 5499,-80 5502.05,-79.6761 5505.19,-79.2618 5508.34,-78.7869"/>
<polygon fill="midnightblue" stroke="midnightblue" points="2998.94,-122.047 2988.97,-125.623 2999,-129.047 2998.94,-122.047"/>
</g>
<!-- Node5&#45;&gt;Node3 -->
<g id="edge50" class="edge"><title>Node5&#45;&gt;Node3</title>
<path fill="none" stroke="midnightblue" d="M2877.2,-116.11C2247.14,-61.9733 713.649,-138.089 103,-80 100.149,-79.7288 97.225,-79.3907 94.2816,-79.0043"/>
<polygon fill="midnightblue" stroke="midnightblue" points="2877.06,-119.611 2887.33,-116.998 2877.67,-112.638 2877.06,-119.611"/>
</g>
<!-- Node5&#45;&gt;Node12 -->
<g id="edge51" class="edge"><title>Node5&#45;&gt;Node12</title>
<path fill="none" stroke="midnightblue" d="M2998.88,-125.938C3391.03,-125.423 5546.53,-120.735 5600,-80 5618.21,-66.1298 5620.51,-36.518 5620.42,-21.3611"/>
<polygon fill="midnightblue" stroke="midnightblue" points="2998.86,-122.438 2988.87,-125.951 2998.87,-129.438 2998.86,-122.438"/>
</g>
<!-- Node9&#45;&gt;Node12 -->
<g id="edge9" class="edge"><title>Node9&#45;&gt;Node12</title>
<path fill="none" stroke="midnightblue" d="M605.816,-58.1325C1168.57,-12.1769 5017.48,-11.8006 5557.19,-11.971"/>
<polygon fill="midnightblue" stroke="midnightblue" points="605.488,-54.6476 595.821,-58.9843 606.082,-61.6223 605.488,-54.6476"/>
</g>
</g>
</svg>
        <g id="navigator" transform="translate(0 0)" fill="#404254">
                <rect fill="#f2f5e9" fill-opacity="0.5" stroke="#606060" stroke-width=".5" x="0" y="0" width="60" height="60"/>
                <use id="zoomplus" xlink:href="#zoomPlus" x="17" y="9" onmousedown="handleZoom(evt,'in')"/>
                <use id="zoomminus" xlink:href="#zoomMin" x="42" y="9" onmousedown="handleZoom(evt,'out')"/>
                <use id="reset" xlink:href="#resetDef" x="30" y="36" onmousedown="handleReset()"/>
                <g id="arrowUp" xlink:href="#dirArrow" transform="translate(30 24)" onmousedown="handlePan(0,-1)">
                  <use xlink:href="#rim" fill="#404040">
                        <set attributeName="fill" to="#808080" begin="arrowUp.mouseover" end="arrowUp.mouseout"/>
                  </use>
                  <path fill="none" stroke="white" stroke-width="1.5" d="M0,-3.0v7 M-2.5,-0.5L0,-3.0L2.5,-0.5"/>
                </g>
                <g id="arrowRight" xlink:href="#dirArrow" transform="rotate(90) translate(36 -43)" onmousedown="handlePan(1,0)">
                  <use xlink:href="#rim" fill="#404040">
                        <set attributeName="fill" to="#808080" begin="arrowRight.mouseover" end="arrowRight.mouseout"/>
                  </use>
                  <path fill="none" stroke="white" stroke-width="1.5" d="M0,-3.0v7 M-2.5,-0.5L0,-3.0L2.5,-0.5"/>
                </g>
                <g id="arrowDown" xlink:href="#dirArrow" transform="rotate(180) translate(-30 -48)" onmousedown="handlePan(0,1)">
                  <use xlink:href="#rim" fill="#404040">
                        <set attributeName="fill" to="#808080" begin="arrowDown.mouseover" end="arrowDown.mouseout"/>
                  </use>
                  <path fill="none" stroke="white" stroke-width="1.5" d="M0,-3.0v7 M-2.5,-0.5L0,-3.0L2.5,-0.5"/>
                </g>
                <g id="arrowLeft" xlink:href="#dirArrow" transform="rotate(270) translate(-36 17)" onmousedown="handlePan(-1,0)">
                  <use xlink:href="#rim" fill="#404040">
                        <set attributeName="fill" to="#808080" begin="arrowLeft.mouseover" end="arrowLeft.mouseout"/>
                  </use>
                  <path fill="none" stroke="white" stroke-width="1.5" d="M0,-3.0v7 M-2.5,-0.5L0,-3.0L2.5,-0.5"/>
                </g>
        </g>
        <svg viewBox="0 0 15 15" width="100%" height="30px" preserveAspectRatio="xMaxYMin meet">
         <g id="arrow_out" transform="scale(0.3 0.3)">
          <a xlink:href="_context_class_8hpp__dep__incl_org.svg" target="_base">
           <rect id="button" ry="5" rx="5" y="6" x="6" height="38" width="38"
                fill="#f2f5e9" fill-opacity="0.5" stroke="#606060" stroke-width="1.0"/>
           <path id="arrow"
             d="M 11.500037,31.436501 C 11.940474,20.09759 22.043105,11.32322 32.158766,21.979434 L 37.068811,17.246167 C 37.068811,17.246167 37.088388,32 37.088388,32 L 22.160133,31.978069 C 22.160133,31.978069 26.997745,27.140456 26.997745,27.140456 C 18.528582,18.264221 13.291696,25.230495 11.500037,31.436501 z"
             style="fill:#404040;"/>
          </a>
         </g>
        </svg>
</svg>
