<?xml version="1.0" encoding="UTF-8" standalone="no"?>
<!DOCTYPE svg PUBLIC "-//W3C//DTD SVG 1.1//EN"
 "http://www.w3.org/Graphics/SVG/1.1/DTD/svg11.dtd">
<!-- Generated by graphviz version 12.1.0 (20240811.2233)
 -->
<!-- Title: DirectoryClass.hpp Pages: 1 -->
<!--zoomable 85 -->
<svg id="main" version="1.1" xmlns="http://www.w3.org/2000/svg" xmlns:xlink="http://www.w3.org/1999/xlink" xml:space="preserve" onload="init(evt)">
<style type="text/css"><![CDATA[
.edge:hover path { stroke: red; }
.edge:hover polygon { stroke: red; fill: red; }
]]></style>
<script type="text/javascript"><![CDATA[
var edges = document.getElementsByTagName('g');
if (edges && edges.length) {
  for (var i=0;i<edges.length;i++) {
    if (edges[i].id.substr(0,4)=='edge') {
      edges[i].setAttribute('class','edge');
    }
  }
}
]]></script>
        <defs>
                <circle id="rim" cx="0" cy="0" r="7"/>
                <circle id="rim2" cx="0" cy="0" r="3.5"/>
                <g id="zoomPlus">
                        <use xlink:href="#rim" fill="#404040">
                                <set attributeName="fill" to="#808080" begin="zoomplus.mouseover" end="zoomplus.mouseout"/>
                        </use>
                        <path d="M-4,0h8M0,-4v8" fill="none" stroke="white" stroke-width="1.5" pointer-events="none"/>
                </g>
                <g id="zoomMin">
                        <use xlink:href="#rim" fill="#404040">
                                <set attributeName="fill" to="#808080" begin="zoomminus.mouseover" end="zoomminus.mouseout"/>
                        </use>
                        <path d="M-4,0h8" fill="none" stroke="white" stroke-width="1.5" pointer-events="none"/>
                </g>
                <g id="dirArrow">
                        <path fill="none" stroke="white" stroke-width="1.5" d="M0,-3.0v7 M-2.5,-0.5L0,-3.0L2.5,-0.5"/>
                </g>
               <g id="resetDef">
                       <use xlink:href="#rim2" fill="#404040">
                               <set attributeName="fill" to="#808080" begin="reset.mouseover" end="reset.mouseout"/>
                       </use>
               </g>
        </defs>

<script type="text/javascript">
var viewWidth = 5555;
var viewHeight = 85;
var sectionId = 'dynsection-1';
</script>
<script xlink:href="svgpan.js"/>
<svg id="graph" class="graph">
<g id="viewport">
<title>DirectoryClass.hpp</title>
<polygon fill="white" stroke="none" points="-4,4 -4,-80.5 5550.62,-80.5 5550.62,4 -4,4"/>
<!-- Node1 -->
<g id="node1" class="node">
<title>Node1</title>
<g id="a_node1"><a xlink:title=" ">
<polygon fill="#bfbfbf" stroke="black" points="2632.75,-56.75 2632.75,-76 2732.75,-76 2732.75,-56.75 2632.75,-56.75"/>
<text text-anchor="middle" x="2682.75" y="-62.5" font-family="Helvetica,sans-Serif" font-size="10.00">DirectoryClass.hpp</text>
</a>
</g>
</g>
<!-- Node2 -->
<g id="node2" class="node">
<title>Node2</title>
<g id="a_node2"><a xlink:href="_signal_instruction_8cpp.html" target="_top" xlink:title=" ">
<polygon fill="white" stroke="black" points="0,-0.5 0,-19.75 107.5,-19.75 107.5,-0.5 0,-0.5"/>
<text text-anchor="middle" x="53.75" y="-6.25" font-family="Helvetica,sans-Serif" font-size="10.00">SignalInstruction.cpp</text>
</a>
</g>
</g>
<!-- Node1&#45;&gt;Node2 -->
<g id="edge1" class="edge">
<title>Node1&#45;&gt;Node2</title>
<path fill="none" stroke="midnightblue" d="M2621.07,-65.35C2280.38,-65.04 625.73,-61.42 116.75,-20.25 113.89,-20.02 110.95,-19.74 108,-19.43"/>
<polygon fill="midnightblue" stroke="midnightblue" points="2620.88,-68.85 2630.88,-65.36 2620.89,-61.85 2620.88,-68.85"/>
</g>
<!-- Node3 -->
<g id="node3" class="node">
<title>Node3</title>
<g id="a_node3"><a xlink:href="_call_instruction_8cpp.html" target="_top" xlink:title=" ">
<polygon fill="white" stroke="black" points="125.88,-0.5 125.88,-19.75 223.62,-19.75 223.62,-0.5 125.88,-0.5"/>
<text text-anchor="middle" x="174.75" y="-6.25" font-family="Helvetica,sans-Serif" font-size="10.00">CallInstruction.cpp</text>
</a>
</g>
</g>
<!-- Node1&#45;&gt;Node3 -->
<g id="edge2" class="edge">
<title>Node1&#45;&gt;Node3</title>
<path fill="none" stroke="midnightblue" d="M2621.48,-65.39C2290.93,-65.3 717.29,-62.63 232.75,-20.25 229.91,-20 226.99,-19.7 224.05,-19.35"/>
<polygon fill="midnightblue" stroke="midnightblue" points="2621.2,-68.89 2631.2,-65.39 2621.2,-61.89 2621.2,-68.89"/>
</g>
<!-- Node4 -->
<g id="node4" class="node">
<title>Node4</title>
<g id="a_node4"><a xlink:href="_extension_directive_8cpp.html" target="_top" xlink:title=" ">
<polygon fill="white" stroke="black" points="242.12,-0.5 242.12,-19.75 359.38,-19.75 359.38,-0.5 242.12,-0.5"/>
<text text-anchor="middle" x="300.75" y="-6.25" font-family="Helvetica,sans-Serif" font-size="10.00">ExtensionDirective.cpp</text>
</a>
</g>
</g>
<!-- Node1&#45;&gt;Node4 -->
<g id="edge3" class="edge">
<title>Node1&#45;&gt;Node4</title>
<path fill="none" stroke="midnightblue" d="M2621.32,-65.14C2301.51,-63.78 824.26,-55.67 367.75,-20.25 365.06,-20.04 362.31,-19.8 359.53,-19.52"/>
<polygon fill="midnightblue" stroke="midnightblue" points="2621.12,-68.64 2631.13,-65.18 2621.15,-61.64 2621.12,-68.64"/>
</g>
<!-- Node5 -->
<g id="node5" class="node">
<title>Node5</title>
<g id="a_node5"><a xlink:href="_class_directive_8cpp.html" target="_top" xlink:title=" ">
<polygon fill="white" stroke="black" points="377.12,-0.5 377.12,-19.75 476.38,-19.75 476.38,-0.5 377.12,-0.5"/>
<text text-anchor="middle" x="426.75" y="-6.25" font-family="Helvetica,sans-Serif" font-size="10.00">ClassDirective.cpp</text>
</a>
</g>
</g>
<!-- Node1&#45;&gt;Node5 -->
<g id="edge4" class="edge">
<title>Node1&#45;&gt;Node5</title>
<path fill="none" stroke="midnightblue" d="M2620.99,-65.22C2310.39,-64.25 917.04,-57.86 485.75,-20.25 482.76,-19.99 479.68,-19.67 476.59,-19.31"/>
<polygon fill="midnightblue" stroke="midnightblue" points="2620.9,-68.72 2630.91,-65.25 2620.92,-61.72 2620.9,-68.72"/>
</g>
<!-- Node6 -->
<g id="node6" class="node">
<title>Node6</title>
<g id="a_node6"><a xlink:href="_parse_instruction_8cpp.html" target="_top" xlink:title=" ">
<polygon fill="white" stroke="black" points="494.75,-0.5 494.75,-19.75 600.75,-19.75 600.75,-0.5 494.75,-0.5"/>
<text text-anchor="middle" x="547.75" y="-6.25" font-family="Helvetica,sans-Serif" font-size="10.00">ParseInstruction.cpp</text>
</a>
</g>
</g>
<!-- Node1&#45;&gt;Node6 -->
<g id="edge5" class="edge">
<title>Node1&#45;&gt;Node6</title>
<path fill="none" stroke="midnightblue" d="M2621.13,-65.07C2321.57,-63.42 1015.28,-54.37 609.75,-20.25 606.93,-20.01 604.05,-19.73 601.14,-19.41"/>
<polygon fill="midnightblue" stroke="midnightblue" points="2621.06,-68.57 2631.08,-65.12 2621.1,-61.57 2621.06,-68.57"/>
</g>
<!-- Node7 -->
<g id="node7" class="node">
<title>Node7</title>
<g id="a_node7"><a xlink:href="_raise_instruction_8cpp.html" target="_top" xlink:title=" ">
<polygon fill="white" stroke="black" points="618.75,-0.5 618.75,-19.75 724.75,-19.75 724.75,-0.5 618.75,-0.5"/>
<text text-anchor="middle" x="671.75" y="-6.25" font-family="Helvetica,sans-Serif" font-size="10.00">RaiseInstruction.cpp</text>
</a>
</g>
</g>
<!-- Node1&#45;&gt;Node7 -->
<g id="edge6" class="edge">
<title>Node1&#45;&gt;Node7</title>
<path fill="none" stroke="midnightblue" d="M2621.12,-64.97C2332.59,-62.92 1113.37,-52.46 733.75,-20.25 730.93,-20.01 728.05,-19.73 725.14,-19.41"/>
<polygon fill="midnightblue" stroke="midnightblue" points="2621.04,-68.47 2631.07,-65.04 2621.09,-61.47 2621.04,-68.47"/>
</g>
<!-- Node8 -->
<g id="node8" class="node">
<title>Node8</title>
<g id="a_node8"><a xlink:href="_forward_instruction_8cpp.html" target="_top" xlink:title=" ">
<polygon fill="white" stroke="black" points="742.88,-0.5 742.88,-19.75 858.62,-19.75 858.62,-0.5 742.88,-0.5"/>
<text text-anchor="middle" x="800.75" y="-6.25" font-family="Helvetica,sans-Serif" font-size="10.00">ForwardInstruction.cpp</text>
</a>
</g>
</g>
<!-- Node1&#45;&gt;Node8 -->
<g id="edge7" class="edge">
<title>Node1&#45;&gt;Node8</title>
<path fill="none" stroke="midnightblue" d="M2620.92,-64.76C2344.42,-61.85 1219.5,-48.49 867.75,-20.25 864.82,-20.02 861.83,-19.74 858.81,-19.43"/>
<polygon fill="midnightblue" stroke="midnightblue" points="2620.75,-68.26 2630.79,-64.86 2620.83,-61.26 2620.75,-68.26"/>
</g>
<!-- Node9 -->
<g id="node9" class="node">
<title>Node9</title>
<g id="a_node9"><a xlink:href="_setup_8cpp.html" target="_top" xlink:title=" ">
<polygon fill="white" stroke="black" points="876.62,-0.5 876.62,-19.75 936.88,-19.75 936.88,-0.5 876.62,-0.5"/>
<text text-anchor="middle" x="906.75" y="-6.25" font-family="Helvetica,sans-Serif" font-size="10.00">Setup.cpp</text>
</a>
</g>
</g>
<!-- Node1&#45;&gt;Node9 -->
<g id="edge8" class="edge">
<title>Node1&#45;&gt;Node9</title>
<path fill="none" stroke="midnightblue" d="M2620.89,-65.46C2351.55,-65.56 1279.63,-63.19 945.75,-20.25 942.99,-19.9 940.14,-19.43 937.3,-18.89"/>
<polygon fill="midnightblue" stroke="midnightblue" points="2620.86,-68.96 2630.85,-65.45 2620.85,-61.96 2620.86,-68.96"/>
</g>
<!-- Node10 -->
<g id="node10" class="node">
<title>Node10</title>
<g id="a_node10"><a xlink:href="_rexx_memory_8cpp.html" target="_top" xlink:title=" ">
<polygon fill="white" stroke="black" points="954.88,-0.5 954.88,-19.75 1046.62,-19.75 1046.62,-0.5 954.88,-0.5"/>
<text text-anchor="middle" x="1000.75" y="-6.25" font-family="Helvetica,sans-Serif" font-size="10.00">RexxMemory.cpp</text>
</a>
</g>
</g>
<!-- Node1&#45;&gt;Node10 -->
<g id="edge9" class="edge">
<title>Node1&#45;&gt;Node10</title>
<path fill="none" stroke="midnightblue" d="M2621.1,-64.79C2362.98,-62.19 1368.08,-50.35 1055.75,-20.25 1052.86,-19.97 1049.89,-19.63 1046.9,-19.25"/>
<polygon fill="midnightblue" stroke="midnightblue" points="2620.93,-68.29 2630.96,-64.89 2621,-61.29 2620.93,-68.29"/>
</g>
<!-- Node11 -->
<g id="node11" class="node">
<title>Node11</title>
<g id="a_node11"><a xlink:href="_number_string_class_8cpp.html" target="_top" xlink:title=" ">
<polygon fill="white" stroke="black" points="1064.62,-0.5 1064.62,-19.75 1184.88,-19.75 1184.88,-0.5 1064.62,-0.5"/>
<text text-anchor="middle" x="1124.75" y="-6.25" font-family="Helvetica,sans-Serif" font-size="10.00">NumberStringClass.cpp</text>
</a>
</g>
</g>
<!-- Node1&#45;&gt;Node11 -->
<g id="edge10" class="edge">
<title>Node1&#45;&gt;Node11</title>
<path fill="none" stroke="midnightblue" d="M2621.18,-65.74C2417.38,-66.46 1746.27,-65.04 1193.75,-20.25 1190.98,-20.03 1188.15,-19.77 1185.3,-19.48"/>
<polygon fill="midnightblue" stroke="midnightblue" points="2621.02,-69.24 2631,-65.7 2620.99,-62.24 2621.02,-69.24"/>
</g>
<!-- Node12 -->
<g id="node12" class="node">
<title>Node12</title>
<g id="a_node12"><a xlink:href="_stem_class_8cpp.html" target="_top" xlink:title=" ">
<polygon fill="white" stroke="black" points="1203,-0.5 1203,-19.75 1286.5,-19.75 1286.5,-0.5 1203,-0.5"/>
<text text-anchor="middle" x="1244.75" y="-6.25" font-family="Helvetica,sans-Serif" font-size="10.00">StemClass.cpp</text>
</a>
</g>
</g>
<!-- Node1&#45;&gt;Node12 -->
<g id="edge11" class="edge">
<title>Node1&#45;&gt;Node12</title>
<path fill="none" stroke="midnightblue" d="M2621.21,-64.56C2387.96,-61.27 1558.33,-47.87 1295.75,-20.25 1292.89,-19.95 1289.94,-19.58 1286.98,-19.17"/>
<polygon fill="midnightblue" stroke="midnightblue" points="2620.94,-68.05 2630.99,-64.69 2621.04,-61.05 2620.94,-68.05"/>
</g>
<!-- Node13 -->
<g id="node13" class="node">
<title>Node13</title>
<g id="a_node13"><a xlink:href="_integer_class_8cpp.html" target="_top" xlink:title=" ">
<polygon fill="white" stroke="black" points="1304.62,-0.5 1304.62,-19.75 1394.88,-19.75 1394.88,-0.5 1304.62,-0.5"/>
<text text-anchor="middle" x="1349.75" y="-6.25" font-family="Helvetica,sans-Serif" font-size="10.00">IntegerClass.cpp</text>
</a>
</g>
</g>
<!-- Node1&#45;&gt;Node13 -->
<g id="edge12" class="edge">
<title>Node1&#45;&gt;Node13</title>
<path fill="none" stroke="midnightblue" d="M2620.93,-64.28C2399.17,-60.17 1644.12,-44.69 1403.75,-20.25 1401.01,-19.97 1398.19,-19.64 1395.36,-19.27"/>
<polygon fill="midnightblue" stroke="midnightblue" points="2620.74,-67.77 2630.8,-64.46 2620.87,-60.78 2620.74,-67.77"/>
</g>
<!-- Node14 -->
<g id="node14" class="node">
<title>Node14</title>
<g id="a_node14"><a xlink:href="_message_class_8cpp.html" target="_top" xlink:title=" ">
<polygon fill="white" stroke="black" points="1412.75,-0.5 1412.75,-19.75 1512.75,-19.75 1512.75,-0.5 1412.75,-0.5"/>
<text text-anchor="middle" x="1462.75" y="-6.25" font-family="Helvetica,sans-Serif" font-size="10.00">MessageClass.cpp</text>
</a>
</g>
</g>
<!-- Node1&#45;&gt;Node14 -->
<g id="edge13" class="edge">
<title>Node1&#45;&gt;Node14</title>
<path fill="none" stroke="midnightblue" d="M2620.81,-65.46C2447.04,-65.16 1940.3,-60.62 1521.75,-20.25 1518.96,-19.98 1516.11,-19.67 1513.23,-19.32"/>
<polygon fill="midnightblue" stroke="midnightblue" points="2620.74,-68.96 2630.74,-65.47 2620.75,-61.96 2620.74,-68.96"/>
</g>
<!-- Node15 -->
<g id="node15" class="node">
<title>Node15</title>
<g id="a_node15"><a xlink:href="_class_class_8cpp.html" target="_top" xlink:title=" ">
<polygon fill="white" stroke="black" points="1530.88,-0.5 1530.88,-19.75 1616.62,-19.75 1616.62,-0.5 1530.88,-0.5"/>
<text text-anchor="middle" x="1573.75" y="-6.25" font-family="Helvetica,sans-Serif" font-size="10.00">ClassClass.cpp</text>
</a>
</g>
</g>
<!-- Node1&#45;&gt;Node15 -->
<g id="edge14" class="edge">
<title>Node1&#45;&gt;Node15</title>
<path fill="none" stroke="midnightblue" d="M2621.29,-65.56C2458.44,-65.44 2002.45,-61.16 1625.75,-20.25 1622.93,-19.94 1620.02,-19.58 1617.1,-19.17"/>
<polygon fill="midnightblue" stroke="midnightblue" points="2620.99,-69.06 2630.99,-65.56 2620.99,-62.06 2620.99,-69.06"/>
</g>
<!-- Node16 -->
<g id="node16" class="node">
<title>Node16</title>
<g id="a_node16"><a xlink:href="_object_class_8cpp.html" target="_top" xlink:title=" ">
<polygon fill="white" stroke="black" points="1634.38,-0.5 1634.38,-19.75 1723.12,-19.75 1723.12,-0.5 1634.38,-0.5"/>
<text text-anchor="middle" x="1678.75" y="-6.25" font-family="Helvetica,sans-Serif" font-size="10.00">ObjectClass.cpp</text>
</a>
</g>
</g>
<!-- Node1&#45;&gt;Node16 -->
<g id="edge15" class="edge">
<title>Node1&#45;&gt;Node16</title>
<path fill="none" stroke="midnightblue" d="M2620.97,-65.07C2469.15,-63.75 2065.84,-56.8 1731.75,-20.25 1729.06,-19.96 1726.3,-19.61 1723.51,-19.23"/>
<polygon fill="midnightblue" stroke="midnightblue" points="2620.78,-68.57 2630.8,-65.15 2620.83,-61.57 2620.78,-68.57"/>
</g>
<!-- Node17 -->
<g id="node17" class="node">
<title>Node17</title>
<g id="a_node17"><a xlink:href="_block_class_8cpp.html" target="_top" xlink:title=" ">
<polygon fill="white" stroke="black" points="1741.25,-0.5 1741.25,-19.75 1826.25,-19.75 1826.25,-0.5 1741.25,-0.5"/>
<text text-anchor="middle" x="1783.75" y="-6.25" font-family="Helvetica,sans-Serif" font-size="10.00">BlockClass.cpp</text>
</a>
</g>
</g>
<!-- Node1&#45;&gt;Node17 -->
<g id="edge16" class="edge">
<title>Node1&#45;&gt;Node17</title>
<path fill="none" stroke="midnightblue" d="M2621.16,-64.63C2481.18,-62.39 2128.55,-53.62 1835.75,-20.25 1832.74,-19.91 1829.65,-19.5 1826.54,-19.05"/>
<polygon fill="midnightblue" stroke="midnightblue" points="2620.89,-68.13 2630.94,-64.78 2621,-61.13 2620.89,-68.13"/>
</g>
<!-- Node18 -->
<g id="node18" class="node">
<title>Node18</title>
<g id="a_node18"><a xlink:href="_context_class_8cpp.html" target="_top" xlink:title=" ">
<polygon fill="white" stroke="black" points="1844.38,-0.5 1844.38,-19.75 1939.12,-19.75 1939.12,-0.5 1844.38,-0.5"/>
<text text-anchor="middle" x="1891.75" y="-6.25" font-family="Helvetica,sans-Serif" font-size="10.00">ContextClass.cpp</text>
</a>
</g>
</g>
<!-- Node1&#45;&gt;Node18 -->
<g id="edge17" class="edge">
<title>Node1&#45;&gt;Node18</title>
<path fill="none" stroke="midnightblue" d="M2620.9,-63.67C2494.23,-59.72 2196.32,-48.06 1947.75,-20.25 1945.01,-19.94 1942.2,-19.59 1939.36,-19.22"/>
<polygon fill="midnightblue" stroke="midnightblue" points="2620.64,-67.16 2630.74,-63.97 2620.85,-60.17 2620.64,-67.16"/>
</g>
<!-- Node19 -->
<g id="node19" class="node">
<title>Node19</title>
<g id="a_node19"><a xlink:href="_directory_class_8cpp.html" target="_top" xlink:title=" ">
<polygon fill="white" stroke="black" points="1956.75,-0.5 1956.75,-19.75 2056.75,-19.75 2056.75,-0.5 1956.75,-0.5"/>
<text text-anchor="middle" x="2006.75" y="-6.25" font-family="Helvetica,sans-Serif" font-size="10.00">DirectoryClass.cpp</text>
</a>
</g>
</g>
<!-- Node1&#45;&gt;Node19 -->
<g id="edge18" class="edge">
<title>Node1&#45;&gt;Node19</title>
<path fill="none" stroke="midnightblue" d="M2621.34,-62.52C2510.23,-57 2268.54,-43.31 2065.75,-20.25 2062.97,-19.93 2060.12,-19.58 2057.24,-19.21"/>
<polygon fill="midnightblue" stroke="midnightblue" points="2620.97,-66.01 2631.13,-63 2621.31,-59.02 2620.97,-66.01"/>
</g>
<!-- Node20 -->
<g id="node20" class="node">
<title>Node20</title>
<g id="a_node20"><a xlink:href="_method_class_8cpp.html" target="_top" xlink:title=" ">
<polygon fill="white" stroke="black" points="2074.5,-0.5 2074.5,-19.75 2167,-19.75 2167,-0.5 2074.5,-0.5"/>
<text text-anchor="middle" x="2120.75" y="-6.25" font-family="Helvetica,sans-Serif" font-size="10.00">MethodClass.cpp</text>
</a>
</g>
</g>
<!-- Node1&#45;&gt;Node20 -->
<g id="edge19" class="edge">
<title>Node1&#45;&gt;Node20</title>
<path fill="none" stroke="midnightblue" d="M2620.89,-61.31C2525.38,-54.71 2336.35,-40.34 2176.75,-20.25 2173.72,-19.87 2170.6,-19.45 2167.46,-19"/>
<polygon fill="midnightblue" stroke="midnightblue" points="2620.62,-64.8 2630.84,-61.99 2621.1,-57.82 2620.62,-64.8"/>
</g>
<!-- Node21 -->
<g id="node21" class="node">
<title>Node21</title>
<g id="a_node21"><a xlink:href="_package_class_8cpp.html" target="_top" xlink:title=" ">
<polygon fill="white" stroke="black" points="2185.5,-0.5 2185.5,-19.75 2284,-19.75 2284,-0.5 2185.5,-0.5"/>
<text text-anchor="middle" x="2234.75" y="-6.25" font-family="Helvetica,sans-Serif" font-size="10.00">PackageClass.cpp</text>
</a>
</g>
</g>
<!-- Node1&#45;&gt;Node21 -->
<g id="edge20" class="edge">
<title>Node1&#45;&gt;Node21</title>
<path fill="none" stroke="midnightblue" d="M2621.12,-59.03C2544.16,-50.93 2408.54,-36.05 2292.75,-20.25 2290.02,-19.88 2287.23,-19.48 2284.4,-19.07"/>
<polygon fill="midnightblue" stroke="midnightblue" points="2620.68,-62.5 2630.99,-60.07 2621.41,-55.54 2620.68,-62.5"/>
</g>
<!-- Node22 -->
<g id="node22" class="node">
<title>Node22</title>
<g id="a_node22"><a xlink:href="_rexx_collection_8cpp.html" target="_top" xlink:title=" ">
<polygon fill="white" stroke="black" points="2302,-0.5 2302,-19.75 2403.5,-19.75 2403.5,-0.5 2302,-0.5"/>
<text text-anchor="middle" x="2352.75" y="-6.25" font-family="Helvetica,sans-Serif" font-size="10.00">RexxCollection.cpp</text>
</a>
</g>
</g>
<!-- Node1&#45;&gt;Node22 -->
<g id="edge21" class="edge">
<title>Node1&#45;&gt;Node22</title>
<path fill="none" stroke="midnightblue" d="M2620.96,-55.22C2558.25,-44.91 2462.3,-29.13 2403.77,-19.51"/>
<polygon fill="midnightblue" stroke="midnightblue" points="2620.34,-58.66 2630.78,-56.83 2621.48,-51.76 2620.34,-58.66"/>
</g>
<!-- Node23 -->
<g id="node23" class="node">
<title>Node23</title>
<g id="a_node23"><a xlink:href="_string_class_8cpp.html" target="_top" xlink:title=" ">
<polygon fill="white" stroke="black" points="2421.88,-0.5 2421.88,-19.75 2507.62,-19.75 2507.62,-0.5 2421.88,-0.5"/>
<text text-anchor="middle" x="2464.75" y="-6.25" font-family="Helvetica,sans-Serif" font-size="10.00">StringClass.cpp</text>
</a>
</g>
</g>
<!-- Node1&#45;&gt;Node23 -->
<g id="edge22" class="edge">
<title>Node1&#45;&gt;Node23</title>
<path fill="none" stroke="midnightblue" d="M2635.12,-53.52C2594.89,-43.51 2538.11,-29.38 2501.36,-20.23"/>
<polygon fill="midnightblue" stroke="midnightblue" points="2634.24,-56.91 2644.79,-55.93 2635.93,-50.12 2634.24,-56.91"/>
</g>
<!-- Node24 -->
<g id="node24" class="node">
<title>Node24</title>
<g id="a_node24"><a xlink:href="_routine_class_8cpp.html" target="_top" xlink:title=" ">
<polygon fill="white" stroke="black" points="2525.75,-0.5 2525.75,-19.75 2619.75,-19.75 2619.75,-0.5 2525.75,-0.5"/>
<text text-anchor="middle" x="2572.75" y="-6.25" font-family="Helvetica,sans-Serif" font-size="10.00">RoutineClass.cpp</text>
</a>
</g>
</g>
<!-- Node1&#45;&gt;Node24 -->
<g id="edge23" class="edge">
<title>Node1&#45;&gt;Node24</title>
<path fill="none" stroke="midnightblue" d="M2654.49,-51.44C2634.48,-41.57 2608.23,-28.62 2590.94,-20.1"/>
<polygon fill="midnightblue" stroke="midnightblue" points="2652.71,-54.46 2663.23,-55.75 2655.81,-48.19 2652.71,-54.46"/>
</g>
<!-- Node25 -->
<g id="node25" class="node">
<title>Node25</title>
<g id="a_node25"><a xlink:href="unix_2_misc_system_8cpp.html" target="_top" xlink:title=" ">
<polygon fill="white" stroke="black" points="2638,-0.5 2638,-19.75 2727.5,-19.75 2727.5,-0.5 2638,-0.5"/>
<text text-anchor="middle" x="2682.75" y="-6.25" font-family="Helvetica,sans-Serif" font-size="10.00">MiscSystem.cpp</text>
</a>
</g>
</g>
<!-- Node1&#45;&gt;Node25 -->
<g id="edge24" class="edge">
<title>Node1&#45;&gt;Node25</title>
<path fill="none" stroke="midnightblue" d="M2682.75,-45.19C2682.75,-36.48 2682.75,-26.74 2682.75,-19.92"/>
<polygon fill="midnightblue" stroke="midnightblue" points="2679.25,-44.9 2682.75,-54.9 2686.25,-44.9 2679.25,-44.9"/>
</g>
<!-- Node26 -->
<g id="node26" class="node">
<title>Node26</title>
<g id="a_node26"><a xlink:href="windows_2_misc_system_8cpp.html" target="_top" xlink:title=" ">
<polygon fill="white" stroke="black" points="2746,-0.5 2746,-19.75 2835.5,-19.75 2835.5,-0.5 2746,-0.5"/>
<text text-anchor="middle" x="2790.75" y="-6.25" font-family="Helvetica,sans-Serif" font-size="10.00">MiscSystem.cpp</text>
</a>
</g>
</g>
<!-- Node1&#45;&gt;Node26 -->
<g id="edge25" class="edge">
<title>Node1&#45;&gt;Node26</title>
<path fill="none" stroke="midnightblue" d="M2710.77,-51.3C2730.38,-41.45 2756,-28.58 2772.89,-20.1"/>
<polygon fill="midnightblue" stroke="midnightblue" points="2709.3,-48.12 2701.94,-55.74 2712.44,-54.38 2709.3,-48.12"/>
</g>
<!-- Node27 -->
<g id="node27" class="node">
<title>Node27</title>
<g id="a_node27"><a xlink:href="_interpreter_8cpp.html" target="_top" xlink:title=" ">
<polygon fill="white" stroke="black" points="2853.62,-0.5 2853.62,-19.75 2931.88,-19.75 2931.88,-0.5 2853.62,-0.5"/>
<text text-anchor="middle" x="2892.75" y="-6.25" font-family="Helvetica,sans-Serif" font-size="10.00">Interpreter.cpp</text>
</a>
</g>
</g>
<!-- Node1&#45;&gt;Node27 -->
<g id="edge26" class="edge">
<title>Node1&#45;&gt;Node27</title>
<path fill="none" stroke="midnightblue" d="M2728.88,-53.46C2767.62,-43.45 2822.16,-29.36 2857.49,-20.23"/>
<polygon fill="midnightblue" stroke="midnightblue" points="2728.17,-50.03 2719.36,-55.92 2729.92,-56.8 2728.17,-50.03"/>
</g>
<!-- Node28 -->
<g id="node28" class="node">
<title>Node28</title>
<g id="a_node28"><a xlink:href="_interpreter_instance_8cpp.html" target="_top" xlink:title=" ">
<polygon fill="white" stroke="black" points="2949.5,-0.5 2949.5,-19.75 3066,-19.75 3066,-0.5 2949.5,-0.5"/>
<text text-anchor="middle" x="3007.75" y="-6.25" font-family="Helvetica,sans-Serif" font-size="10.00">InterpreterInstance.cpp</text>
</a>
</g>
</g>
<!-- Node1&#45;&gt;Node28 -->
<g id="edge27" class="edge">
<title>Node1&#45;&gt;Node28</title>
<path fill="none" stroke="midnightblue" d="M2744.42,-55.08C2804.65,-45.03 2895.44,-29.87 2953.13,-20.24"/>
<polygon fill="midnightblue" stroke="midnightblue" points="2743.95,-51.61 2734.67,-56.71 2745.11,-58.51 2743.95,-51.61"/>
</g>
<!-- Node29 -->
<g id="node29" class="node">
<title>Node29</title>
<g id="a_node29"><a xlink:href="_global_names_8cpp.html" target="_top" xlink:title=" ">
<polygon fill="white" stroke="black" points="3083.75,-0.5 3083.75,-19.75 3177.75,-19.75 3177.75,-0.5 3083.75,-0.5"/>
<text text-anchor="middle" x="3130.75" y="-6.25" font-family="Helvetica,sans-Serif" font-size="10.00">GlobalNames.cpp</text>
</a>
</g>
</g>
<!-- Node1&#45;&gt;Node29 -->
<g id="edge28" class="edge">
<title>Node1&#45;&gt;Node29</title>
<path fill="none" stroke="midnightblue" d="M2744.39,-59.18C2821.7,-51.21 2958.26,-36.44 3074.75,-20.25 3077.58,-19.86 3080.49,-19.44 3083.42,-19"/>
<polygon fill="midnightblue" stroke="midnightblue" points="2744.06,-55.7 2734.47,-60.2 2744.78,-62.66 2744.06,-55.7"/>
</g>
<!-- Node30 -->
<g id="node30" class="node">
<title>Node30</title>
<g id="a_node30"><a xlink:href="_source_file_8cpp.html" target="_top" xlink:title=" ">
<polygon fill="white" stroke="black" points="3196.12,-0.5 3196.12,-19.75 3277.38,-19.75 3277.38,-0.5 3196.12,-0.5"/>
<text text-anchor="middle" x="3236.75" y="-6.25" font-family="Helvetica,sans-Serif" font-size="10.00">SourceFile.cpp</text>
</a>
</g>
</g>
<!-- Node1&#45;&gt;Node30 -->
<g id="edge29" class="edge">
<title>Node1&#45;&gt;Node30</title>
<path fill="none" stroke="midnightblue" d="M2744.41,-61.67C2839.61,-55.55 3027.97,-41.8 3186.75,-20.25 3189.72,-19.85 3192.79,-19.39 3195.87,-18.9"/>
<polygon fill="midnightblue" stroke="midnightblue" points="2744.26,-58.18 2734.51,-62.3 2744.71,-65.16 2744.26,-58.18"/>
</g>
<!-- Node31 -->
<g id="node31" class="node">
<title>Node31</title>
<g id="a_node31"><a xlink:href="_rexx_activity_8cpp.html" target="_top" xlink:title=" ">
<polygon fill="white" stroke="black" points="3295,-0.5 3295,-19.75 3384.5,-19.75 3384.5,-0.5 3295,-0.5"/>
<text text-anchor="middle" x="3339.75" y="-6.25" font-family="Helvetica,sans-Serif" font-size="10.00">RexxActivity.cpp</text>
</a>
</g>
</g>
<!-- Node1&#45;&gt;Node31 -->
<g id="edge30" class="edge">
<title>Node1&#45;&gt;Node31</title>
<path fill="none" stroke="midnightblue" d="M2744.49,-62.72C2854.01,-57.58 3089.39,-44.56 3286.75,-20.25 3289.34,-19.93 3292.01,-19.57 3294.69,-19.19"/>
<polygon fill="midnightblue" stroke="midnightblue" points="2744.36,-59.22 2734.54,-63.18 2744.69,-66.22 2744.36,-59.22"/>
</g>
<!-- Node32 -->
<g id="node32" class="node">
<title>Node32</title>
<g id="a_node32"><a xlink:href="_activity_manager_8cpp.html" target="_top" xlink:title=" ">
<polygon fill="white" stroke="black" points="3402.5,-0.5 3402.5,-19.75 3507,-19.75 3507,-0.5 3402.5,-0.5"/>
<text text-anchor="middle" x="3454.75" y="-6.25" font-family="Helvetica,sans-Serif" font-size="10.00">ActivityManager.cpp</text>
</a>
</g>
</g>
<!-- Node1&#45;&gt;Node32 -->
<g id="edge31" class="edge">
<title>Node1&#45;&gt;Node32</title>
<path fill="none" stroke="midnightblue" d="M2744.3,-63.23C2867.75,-58.55 3154.26,-45.72 3393.75,-20.25 3396.52,-19.96 3399.35,-19.63 3402.21,-19.27"/>
<polygon fill="midnightblue" stroke="midnightblue" points="2744.24,-59.73 2734.38,-63.6 2744.51,-66.73 2744.24,-59.73"/>
</g>
<!-- Node33 -->
<g id="node33" class="node">
<title>Node33</title>
<g id="a_node33"><a xlink:href="_command_handler_8cpp.html" target="_top" xlink:title=" ">
<polygon fill="white" stroke="black" points="3525.38,-0.5 3525.38,-19.75 3638.12,-19.75 3638.12,-0.5 3525.38,-0.5"/>
<text text-anchor="middle" x="3581.75" y="-6.25" font-family="Helvetica,sans-Serif" font-size="10.00">CommandHandler.cpp</text>
</a>
</g>
</g>
<!-- Node1&#45;&gt;Node33 -->
<g id="edge32" class="edge">
<title>Node1&#45;&gt;Node33</title>
<path fill="none" stroke="midnightblue" d="M2744.25,-63.8C2882.44,-59.86 3227.94,-47.89 3515.75,-20.25 3518.74,-19.96 3521.81,-19.64 3524.9,-19.29"/>
<polygon fill="midnightblue" stroke="midnightblue" points="2744.51,-60.29 2734.61,-64.07 2744.7,-67.28 2744.51,-60.29"/>
</g>
<!-- Node34 -->
<g id="node34" class="node">
<title>Node34</title>
<g id="a_node34"><a xlink:href="_rexx_activation_8cpp.html" target="_top" xlink:title=" ">
<polygon fill="white" stroke="black" points="3656,-0.5 3656,-19.75 3757.5,-19.75 3757.5,-0.5 3656,-0.5"/>
<text text-anchor="middle" x="3706.75" y="-6.25" font-family="Helvetica,sans-Serif" font-size="10.00">RexxActivation.cpp</text>
</a>
</g>
</g>
<!-- Node1&#45;&gt;Node34 -->
<g id="edge33" class="edge">
<title>Node1&#45;&gt;Node34</title>
<path fill="none" stroke="midnightblue" d="M2744.5,-64.71C2897.66,-62.58 3307.14,-53.93 3646.75,-20.25 3649.69,-19.96 3652.7,-19.62 3655.73,-19.25"/>
<polygon fill="midnightblue" stroke="midnightblue" points="2744.53,-61.21 2734.58,-64.84 2744.62,-68.21 2744.53,-61.21"/>
</g>
<!-- Node35 -->
<g id="node35" class="node">
<title>Node35</title>
<g id="a_node35"><a xlink:href="_rexx_native_activation_8cpp.html" target="_top" xlink:title=" ">
<polygon fill="white" stroke="black" points="3775.75,-0.5 3775.75,-19.75 3905.75,-19.75 3905.75,-0.5 3775.75,-0.5"/>
<text text-anchor="middle" x="3840.75" y="-6.25" font-family="Helvetica,sans-Serif" font-size="10.00">RexxNativeActivation.cpp</text>
</a>
</g>
</g>
<!-- Node1&#45;&gt;Node35 -->
<g id="edge34" class="edge">
<title>Node1&#45;&gt;Node35</title>
<path fill="none" stroke="midnightblue" d="M2744.49,-64.56C2910.21,-61.98 3378.56,-52.21 3766.75,-20.25 3769.59,-20.02 3772.49,-19.76 3775.41,-19.47"/>
<polygon fill="midnightblue" stroke="midnightblue" points="2744.55,-61.06 2734.6,-64.71 2744.65,-68.05 2744.55,-61.06"/>
</g>
<!-- Node36 -->
<g id="node36" class="node">
<title>Node36</title>
<g id="a_node36"><a xlink:href="_rexx_code_8cpp.html" target="_top" xlink:title=" ">
<polygon fill="white" stroke="black" points="3924.12,-0.5 3924.12,-19.75 4005.38,-19.75 4005.38,-0.5 3924.12,-0.5"/>
<text text-anchor="middle" x="3964.75" y="-6.25" font-family="Helvetica,sans-Serif" font-size="10.00">RexxCode.cpp</text>
</a>
</g>
</g>
<!-- Node1&#45;&gt;Node36 -->
<g id="edge35" class="edge">
<title>Node1&#45;&gt;Node36</title>
<path fill="none" stroke="midnightblue" d="M2744.45,-64.29C2960.78,-60.31 3684.15,-45.38 3914.75,-20.25 3917.73,-19.92 3920.8,-19.53 3923.89,-19.08"/>
<polygon fill="midnightblue" stroke="midnightblue" points="2744.48,-60.79 2734.55,-64.47 2744.61,-67.79 2744.48,-60.79"/>
</g>
<!-- Node37 -->
<g id="node37" class="node">
<title>Node37</title>
<g id="a_node37"><a xlink:href="_rexx_native_code_8cpp.html" target="_top" xlink:title=" ">
<polygon fill="white" stroke="black" points="4023.88,-0.5 4023.88,-19.75 4133.62,-19.75 4133.62,-0.5 4023.88,-0.5"/>
<text text-anchor="middle" x="4078.75" y="-6.25" font-family="Helvetica,sans-Serif" font-size="10.00">RexxNativeCode.cpp</text>
</a>
</g>
</g>
<!-- Node1&#45;&gt;Node37 -->
<g id="edge36" class="edge">
<title>Node1&#45;&gt;Node37</title>
<path fill="none" stroke="midnightblue" d="M2744.46,-65.64C2934.34,-65.97 3526.53,-63.2 4014.75,-20.25 4017.66,-19.99 4020.63,-19.7 4023.64,-19.37"/>
<polygon fill="midnightblue" stroke="midnightblue" points="2744.59,-62.14 2734.58,-65.62 2744.57,-69.14 2744.59,-62.14"/>
</g>
<!-- Node38 -->
<g id="node38" class="node">
<title>Node38</title>
<g id="a_node38"><a xlink:href="_rexx_variable_dictionary_8cpp.html" target="_top" xlink:title=" ">
<polygon fill="white" stroke="black" points="4152.12,-0.5 4152.12,-19.75 4287.38,-19.75 4287.38,-0.5 4152.12,-0.5"/>
<text text-anchor="middle" x="4219.75" y="-6.25" font-family="Helvetica,sans-Serif" font-size="10.00">RexxVariableDictionary.cpp</text>
</a>
</g>
</g>
<!-- Node1&#45;&gt;Node38 -->
<g id="edge37" class="edge">
<title>Node1&#45;&gt;Node38</title>
<path fill="none" stroke="midnightblue" d="M2744.43,-65.39C2945.77,-65.02 3601.9,-60.58 4142.75,-20.25 4145.7,-20.03 4148.72,-19.78 4151.76,-19.51"/>
<polygon fill="midnightblue" stroke="midnightblue" points="2744.45,-61.89 2734.46,-65.4 2744.46,-68.89 2744.45,-61.89"/>
</g>
<!-- Node39 -->
<g id="node39" class="node">
<title>Node39</title>
<g id="a_node39"><a xlink:href="_c_p_p_code_8cpp.html" target="_top" xlink:title=" ">
<polygon fill="white" stroke="black" points="4305.25,-0.5 4305.25,-19.75 4384.25,-19.75 4384.25,-0.5 4305.25,-0.5"/>
<text text-anchor="middle" x="4344.75" y="-6.25" font-family="Helvetica,sans-Serif" font-size="10.00">CPPCode.cpp</text>
</a>
</g>
</g>
<!-- Node1&#45;&gt;Node39 -->
<g id="edge38" class="edge">
<title>Node1&#45;&gt;Node39</title>
<path fill="none" stroke="midnightblue" d="M2744.35,-64.97C3001.15,-63.08 3987.46,-53.75 4296.75,-20.25 4299.45,-19.96 4302.22,-19.6 4305.01,-19.19"/>
<polygon fill="midnightblue" stroke="midnightblue" points="2744.52,-61.47 2734.55,-65.04 2744.57,-68.47 2744.52,-61.47"/>
</g>
<!-- Node40 -->
<g id="node40" class="node">
<title>Node40</title>
<g id="a_node40"><a xlink:href="_security_manager_8cpp.html" target="_top" xlink:title=" ">
<polygon fill="white" stroke="black" points="4402,-0.5 4402,-19.75 4509.5,-19.75 4509.5,-0.5 4402,-0.5"/>
<text text-anchor="middle" x="4455.75" y="-6.25" font-family="Helvetica,sans-Serif" font-size="10.00">SecurityManager.cpp</text>
</a>
</g>
</g>
<!-- Node1&#45;&gt;Node40 -->
<g id="edge39" class="edge">
<title>Node1&#45;&gt;Node40</title>
<path fill="none" stroke="midnightblue" d="M2744.49,-64.74C3010.94,-61.84 4063.75,-48.78 4393.75,-20.25 4396.35,-20.03 4399.01,-19.76 4401.69,-19.47"/>
<polygon fill="midnightblue" stroke="midnightblue" points="2744.61,-61.24 2734.65,-64.85 2744.68,-68.24 2744.61,-61.24"/>
</g>
<!-- Node41 -->
<g id="node41" class="node">
<title>Node41</title>
<g id="a_node41"><a xlink:href="_thread_context_stubs_8cpp.html" target="_top" xlink:title=" ">
<polygon fill="white" stroke="black" points="4527.38,-0.5 4527.38,-19.75 4652.12,-19.75 4652.12,-0.5 4527.38,-0.5"/>
<text text-anchor="middle" x="4589.75" y="-6.25" font-family="Helvetica,sans-Serif" font-size="10.00">ThreadContextStubs.cpp</text>
</a>
</g>
</g>
<!-- Node1&#45;&gt;Node41 -->
<g id="edge40" class="edge">
<title>Node1&#45;&gt;Node41</title>
<path fill="none" stroke="midnightblue" d="M2744.37,-64.72C3022.47,-61.61 4162.43,-47.45 4518.75,-20.25 4521.48,-20.04 4524.26,-19.8 4527.07,-19.54"/>
<polygon fill="midnightblue" stroke="midnightblue" points="2744.4,-61.22 2734.44,-64.83 2744.48,-68.22 2744.4,-61.22"/>
</g>
<!-- Node42 -->
<g id="node42" class="node">
<title>Node42</title>
<g id="a_node42"><a xlink:href="_interpreter_a_p_i_8cpp.html" target="_top" xlink:title=" ">
<polygon fill="white" stroke="black" points="4670,-0.5 4670,-19.75 4765.5,-19.75 4765.5,-0.5 4670,-0.5"/>
<text text-anchor="middle" x="4717.75" y="-6.25" font-family="Helvetica,sans-Serif" font-size="10.00">InterpreterAPI.cpp</text>
</a>
</g>
</g>
<!-- Node1&#45;&gt;Node42 -->
<g id="edge41" class="edge">
<title>Node1&#45;&gt;Node42</title>
<path fill="none" stroke="midnightblue" d="M2744.39,-65.1C3035.58,-63.62 4275.29,-55.34 4660.75,-20.25 4663.64,-19.99 4666.61,-19.67 4669.61,-19.3"/>
<polygon fill="midnightblue" stroke="midnightblue" points="2744.73,-61.6 2734.75,-65.15 2744.76,-68.6 2744.73,-61.6"/>
</g>
<!-- Node43 -->
<g id="node43" class="node">
<title>Node43</title>
<g id="a_node43"><a xlink:href="_call_context_stubs_8cpp.html" target="_top" xlink:title=" ">
<polygon fill="white" stroke="black" points="4783.75,-0.5 4783.75,-19.75 4895.75,-19.75 4895.75,-0.5 4783.75,-0.5"/>
<text text-anchor="middle" x="4839.75" y="-6.25" font-family="Helvetica,sans-Serif" font-size="10.00">CallContextStubs.cpp</text>
</a>
</g>
</g>
<!-- Node1&#45;&gt;Node43 -->
<g id="edge42" class="edge">
<title>Node1&#45;&gt;Node43</title>
<path fill="none" stroke="midnightblue" d="M2743.99,-65.03C3044.47,-63.19 4364.96,-53.32 4774.75,-20.25 4777.59,-20.02 4780.49,-19.75 4783.42,-19.45"/>
<polygon fill="midnightblue" stroke="midnightblue" points="2744.4,-61.53 2734.42,-65.09 2744.44,-68.53 2744.4,-61.53"/>
</g>
<!-- Node44 -->
<g id="node44" class="node">
<title>Node44</title>
<g id="a_node44"><a xlink:href="_builtin_functions_8cpp.html" target="_top" xlink:title=" ">
<polygon fill="white" stroke="black" points="4913.5,-0.5 4913.5,-19.75 5018,-19.75 5018,-0.5 4913.5,-0.5"/>
<text text-anchor="middle" x="4965.75" y="-6.25" font-family="Helvetica,sans-Serif" font-size="10.00">BuiltinFunctions.cpp</text>
</a>
</g>
</g>
<!-- Node1&#45;&gt;Node44 -->
<g id="edge43" class="edge">
<title>Node1&#45;&gt;Node44</title>
<path fill="none" stroke="midnightblue" d="M2744.24,-65.19C3056.4,-64.11 4468.01,-57.2 4904.75,-20.25 4907.52,-20.02 4910.36,-19.73 4913.23,-19.42"/>
<polygon fill="midnightblue" stroke="midnightblue" points="2744.67,-61.69 2734.69,-65.23 2744.7,-68.69 2744.67,-61.69"/>
</g>
<!-- Node45 -->
<g id="node45" class="node">
<title>Node45</title>
<g id="a_node45"><a xlink:href="_expression_function_8cpp.html" target="_top" xlink:title=" ">
<polygon fill="white" stroke="black" points="5036.25,-0.5 5036.25,-19.75 5157.25,-19.75 5157.25,-0.5 5036.25,-0.5"/>
<text text-anchor="middle" x="5096.75" y="-6.25" font-family="Helvetica,sans-Serif" font-size="10.00">ExpressionFunction.cpp</text>
</a>
</g>
</g>
<!-- Node1&#45;&gt;Node45 -->
<g id="edge44" class="edge">
<title>Node1&#45;&gt;Node45</title>
<path fill="none" stroke="midnightblue" d="M2744.42,-65.11C3067.12,-63.59 4564.17,-54.75 5026.75,-20.25 5029.81,-20.02 5032.93,-19.75 5036.09,-19.45"/>
<polygon fill="midnightblue" stroke="midnightblue" points="2744.49,-61.61 2734.51,-65.16 2744.52,-68.61 2744.49,-61.61"/>
</g>
<!-- Node46 -->
<g id="node46" class="node">
<title>Node46</title>
<g id="a_node46"><a xlink:href="_virtual_function_table_8cpp.html" target="_top" xlink:title=" ">
<polygon fill="white" stroke="black" points="5175.12,-0.5 5175.12,-19.75 5298.38,-19.75 5298.38,-0.5 5175.12,-0.5"/>
<text text-anchor="middle" x="5236.75" y="-6.25" font-family="Helvetica,sans-Serif" font-size="10.00">VirtualFunctionTable.cpp</text>
</a>
</g>
</g>
<!-- Node1&#45;&gt;Node46 -->
<g id="edge45" class="edge">
<title>Node1&#45;&gt;Node46</title>
<path fill="none" stroke="midnightblue" d="M2744.58,-65.19C3079.03,-64.03 4674.83,-56.67 5166.75,-20.25 5169.44,-20.05 5172.18,-19.82 5174.95,-19.56"/>
<polygon fill="midnightblue" stroke="midnightblue" points="2744.72,-61.69 2734.73,-65.22 2744.74,-68.69 2744.72,-61.69"/>
</g>
<!-- Node47 -->
<g id="node47" class="node">
<title>Node47</title>
<g id="a_node47"><a xlink:href="_library_package_8cpp.html" target="_top" xlink:title=" ">
<polygon fill="white" stroke="black" points="5316.62,-0.5 5316.62,-19.75 5418.88,-19.75 5418.88,-0.5 5316.62,-0.5"/>
<text text-anchor="middle" x="5367.75" y="-6.25" font-family="Helvetica,sans-Serif" font-size="10.00">LibraryPackage.cpp</text>
</a>
</g>
</g>
<!-- Node1&#45;&gt;Node47 -->
<g id="edge46" class="edge">
<title>Node1&#45;&gt;Node47</title>
<path fill="none" stroke="midnightblue" d="M2744.73,-65.44C3090.75,-65.61 4786.66,-64.16 5307.75,-20.25 5310.58,-20.01 5313.49,-19.72 5316.42,-19.39"/>
<polygon fill="midnightblue" stroke="midnightblue" points="2744.75,-61.94 2734.74,-65.43 2744.74,-68.94 2744.75,-61.94"/>
</g>
<!-- Node48 -->
<g id="node48" class="node">
<title>Node48</title>
<g id="a_node48"><a xlink:href="_package_manager_8cpp.html" target="_top" xlink:title=" ">
<polygon fill="white" stroke="black" points="5436.88,-0.5 5436.88,-19.75 5546.62,-19.75 5546.62,-0.5 5436.88,-0.5"/>
<text text-anchor="middle" x="5491.75" y="-6.25" font-family="Helvetica,sans-Serif" font-size="10.00">PackageManager.cpp</text>
</a>
</g>
</g>
<!-- Node1&#45;&gt;Node48 -->
<g id="edge47" class="edge">
<title>Node1&#45;&gt;Node48</title>
<path fill="none" stroke="midnightblue" d="M2744.43,-65.41C3098.99,-65.47 4881.03,-63.55 5427.75,-20.25 5430.66,-20.02 5433.64,-19.74 5436.64,-19.43"/>
<polygon fill="midnightblue" stroke="midnightblue" points="2744.66,-61.91 2734.66,-65.41 2744.65,-68.91 2744.66,-61.91"/>
</g>
</g>
</svg>
        <g id="navigator" transform="translate(0 0)" fill="#404254">
                <rect fill="#f2f5e9" fill-opacity="0.5" stroke="#606060" stroke-width=".5" x="0" y="0" width="60" height="60"/>
                <use id="zoomplus" xlink:href="#zoomPlus" x="17" y="9" onmousedown="handleZoom(evt,'in')"/>
                <use id="zoomminus" xlink:href="#zoomMin" x="42" y="9" onmousedown="handleZoom(evt,'out')"/>
                <use id="reset" xlink:href="#resetDef" x="30" y="36" onmousedown="handleReset()"/>
                <g id="arrowUp" xlink:href="#dirArrow" transform="translate(30 24)" onmousedown="handlePan(0,-1)">
                  <use xlink:href="#rim" fill="#404040">
                        <set attributeName="fill" to="#808080" begin="arrowUp.mouseover" end="arrowUp.mouseout"/>
                  </use>
                  <path fill="none" stroke="white" stroke-width="1.5" d="M0,-3.0v7 M-2.5,-0.5L0,-3.0L2.5,-0.5"/>
                </g>
                <g id="arrowRight" xlink:href="#dirArrow" transform="rotate(90) translate(36 -43)" onmousedown="handlePan(1,0)">
                  <use xlink:href="#rim" fill="#404040">
                        <set attributeName="fill" to="#808080" begin="arrowRight.mouseover" end="arrowRight.mouseout"/>
                  </use>
                  <path fill="none" stroke="white" stroke-width="1.5" d="M0,-3.0v7 M-2.5,-0.5L0,-3.0L2.5,-0.5"/>
                </g>
                <g id="arrowDown" xlink:href="#dirArrow" transform="rotate(180) translate(-30 -48)" onmousedown="handlePan(0,1)">
                  <use xlink:href="#rim" fill="#404040">
                        <set attributeName="fill" to="#808080" begin="arrowDown.mouseover" end="arrowDown.mouseout"/>
                  </use>
                  <path fill="none" stroke="white" stroke-width="1.5" d="M0,-3.0v7 M-2.5,-0.5L0,-3.0L2.5,-0.5"/>
                </g>
                <g id="arrowLeft" xlink:href="#dirArrow" transform="rotate(270) translate(-36 17)" onmousedown="handlePan(-1,0)">
                  <use xlink:href="#rim" fill="#404040">
                        <set attributeName="fill" to="#808080" begin="arrowLeft.mouseover" end="arrowLeft.mouseout"/>
                  </use>
                  <path fill="none" stroke="white" stroke-width="1.5" d="M0,-3.0v7 M-2.5,-0.5L0,-3.0L2.5,-0.5"/>
                </g>
        </g>
        <svg viewBox="0 0 15 15" width="100%" height="30px" preserveAspectRatio="xMaxYMin meet">
         <g id="arrow_out" transform="scale(0.3 0.3)">
          <a xlink:href="_directory_class_8hpp__dep__incl_org.svg" target="_base">
           <rect id="button" ry="5" rx="5" y="6" x="6" height="38" width="38"
                fill="#f2f5e9" fill-opacity="0.5" stroke="#606060" stroke-width="1.0"/>
           <path id="arrow"
             d="M 11.500037,31.436501 C 11.940474,20.09759 22.043105,11.32322 32.158766,21.979434 L 37.068811,17.246167 C 37.068811,17.246167 37.088388,32 37.088388,32 L 22.160133,31.978069 C 22.160133,31.978069 26.997745,27.140456 26.997745,27.140456 C 18.528582,18.264221 13.291696,25.230495 11.500037,31.436501 z"
             style="fill:#404040;"/>
          </a>
         </g>
        </svg>
</svg>
