<?xml version="1.0" encoding="UTF-8" standalone="no"?>
<!DOCTYPE svg PUBLIC "-//W3C//DTD SVG 1.1//EN"
 "http://www.w3.org/Graphics/SVG/1.1/DTD/svg11.dtd">
<!-- Generated by graphviz version 2.30.1 (20130222.1704)
 -->
<!-- Title: ElseInstruction.cpp Pages: 1 -->
<svg width="2200pt" height="436pt"
 viewBox="0.00 0.00 2200.00 436.00" xmlns="http://www.w3.org/2000/svg" xmlns:xlink="http://www.w3.org/1999/xlink">
<g id="graph0" class="graph" transform="scale(1 1) rotate(0) translate(4 432)">
<title>ElseInstruction.cpp</title>
<polygon fill="white" stroke="white" points="-4,5 -4,-432 2197,-432 2197,5 -4,5"/>
<!-- Node1 -->
<g id="node1" class="node"><title>Node1</title>
<g id="a_node1"><a xlink:title=" ">
<polygon fill="#bfbfbf" stroke="black" points="1806.76,-407 1806.76,-427 1907.24,-427 1907.24,-407 1806.76,-407"/>
<text text-anchor="middle" x="1857" y="-413" font-family="Helvetica,sans-Serif" font-size="10.00">ElseInstruction.cpp</text>
</a>
</g>
</g>
<!-- Node2 -->
<g id="node2" class="node"><title>Node2</title>
<g id="a_node2"><a xlink:title=" ">
<polygon fill="white" stroke="#bfbfbf" points="1306.16,-349 1306.16,-369 1353.84,-369 1353.84,-349 1306.16,-349"/>
<text text-anchor="middle" x="1330" y="-355" font-family="Helvetica,sans-Serif" font-size="10.00">stdlib.h</text>
</a>
</g>
</g>
<!-- Node1&#45;&gt;Node2 -->
<g id="edge1" class="edge"><title>Node1&#45;&gt;Node2</title>
<path fill="none" stroke="midnightblue" d="M1806.66,-413.981C1717.6,-409.807 1526.68,-398.148 1368,-370 1366.72,-369.772 1365.41,-369.522 1364.1,-369.256"/>
<polygon fill="midnightblue" stroke="midnightblue" points="1364.52,-365.762 1353.99,-366.947 1362.96,-372.586 1364.52,-365.762"/>
</g>
<!-- Node3 -->
<g id="node3" class="node"><title>Node3</title>
<g id="a_node3"><a xlink:href="_rexx_core_8h.html" target="_top" xlink:title=" ">
<polygon fill="white" stroke="black" points="1101.6,-233 1101.6,-253 1170.4,-253 1170.4,-233 1101.6,-233"/>
<text text-anchor="middle" x="1136" y="-239" font-family="Helvetica,sans-Serif" font-size="10.00">RexxCore.h</text>
</a>
</g>
</g>
<!-- Node1&#45;&gt;Node3 -->
<g id="edge2" class="edge"><title>Node1&#45;&gt;Node3</title>
<path fill="none" stroke="midnightblue" d="M1819.25,-406.995C1696.96,-377.821 1311.98,-285.981 1180.51,-254.619"/>
<polygon fill="midnightblue" stroke="midnightblue" points="1180.94,-251.123 1170.4,-252.207 1179.32,-257.932 1180.94,-251.123"/>
</g>
<!-- Node69 -->
<g id="node40" class="node"><title>Node69</title>
<g id="a_node40"><a xlink:href="_rexx_activation_8hpp.html" target="_top" xlink:title=" ">
<polygon fill="white" stroke="black" points="1693.2,-349 1693.2,-369 1794.8,-369 1794.8,-349 1693.2,-349"/>
<text text-anchor="middle" x="1744" y="-355" font-family="Helvetica,sans-Serif" font-size="10.00">RexxActivation.hpp</text>
</a>
</g>
</g>
<!-- Node1&#45;&gt;Node69 -->
<g id="edge43" class="edge"><title>Node1&#45;&gt;Node69</title>
<path fill="none" stroke="midnightblue" d="M1838.59,-406.878C1820.37,-397.847 1792.25,-383.913 1771.4,-373.581"/>
<polygon fill="midnightblue" stroke="midnightblue" points="1772.91,-370.423 1762.4,-369.118 1769.8,-376.695 1772.91,-370.423"/>
</g>
<!-- Node83 -->
<g id="node46" class="node"><title>Node83</title>
<g id="a_node46"><a xlink:href="_else_instruction_8hpp.html" target="_top" xlink:title=" ">
<polygon fill="white" stroke="black" points="2031.48,-349 2031.48,-369 2132.52,-369 2132.52,-349 2031.48,-349"/>
<text text-anchor="middle" x="2082" y="-355" font-family="Helvetica,sans-Serif" font-size="10.00">ElseInstruction.hpp</text>
</a>
</g>
</g>
<!-- Node1&#45;&gt;Node83 -->
<g id="edge54" class="edge"><title>Node1&#45;&gt;Node83</title>
<path fill="none" stroke="midnightblue" d="M1893.4,-406.94C1932.2,-397.283 1993.75,-381.965 2035.91,-371.472"/>
<polygon fill="midnightblue" stroke="midnightblue" points="2036.79,-374.858 2045.65,-369.047 2035.1,-368.065 2036.79,-374.858"/>
</g>
<!-- Node85 -->
<g id="node48" class="node"><title>Node85</title>
<g id="a_node48"><a xlink:href="_if_instruction_8hpp.html" target="_top" xlink:title=" ">
<polygon fill="white" stroke="black" points="1926.42,-349 1926.42,-369 2013.58,-369 2013.58,-349 1926.42,-349"/>
<text text-anchor="middle" x="1970" y="-355" font-family="Helvetica,sans-Serif" font-size="10.00">IfInstruction.hpp</text>
</a>
</g>
</g>
<!-- Node1&#45;&gt;Node85 -->
<g id="edge57" class="edge"><title>Node1&#45;&gt;Node85</title>
<path fill="none" stroke="midnightblue" d="M1875.41,-406.878C1893.63,-397.847 1921.75,-383.913 1942.6,-373.581"/>
<polygon fill="midnightblue" stroke="midnightblue" points="1944.2,-376.695 1951.6,-369.118 1941.09,-370.423 1944.2,-376.695"/>
</g>
<!-- Node75 -->
<g id="node50" class="node"><title>Node75</title>
<g id="a_node50"><a xlink:href="_token_8hpp.html" target="_top" xlink:title=" ">
<polygon fill="white" stroke="black" points="2129.93,-233 2129.93,-253 2192.07,-253 2192.07,-233 2129.93,-233"/>
<text text-anchor="middle" x="2161" y="-239" font-family="Helvetica,sans-Serif" font-size="10.00">Token.hpp</text>
</a>
</g>
</g>
<!-- Node1&#45;&gt;Node75 -->
<g id="edge61" class="edge"><title>Node1&#45;&gt;Node75</title>
<path fill="none" stroke="midnightblue" d="M1907.33,-414.724C1979.98,-411.78 2109.04,-402.058 2141,-370 2169.17,-341.737 2167.6,-290.843 2164.19,-263.175"/>
<polygon fill="midnightblue" stroke="midnightblue" points="2167.64,-262.58 2162.75,-253.181 2160.71,-263.578 2167.64,-262.58"/>
</g>
<!-- Node4 -->
<g id="node4" class="node"><title>Node4</title>
<g id="a_node4"><a xlink:href="oorexxapi_8h.html" target="_top" xlink:title=" ">
<polygon fill="white" stroke="black" points="1379.15,-175 1379.15,-195 1446.85,-195 1446.85,-175 1379.15,-175"/>
<text text-anchor="middle" x="1413" y="-181" font-family="Helvetica,sans-Serif" font-size="10.00">oorexxapi.h</text>
</a>
</g>
</g>
<!-- Node3&#45;&gt;Node4 -->
<g id="edge3" class="edge"><title>Node3&#45;&gt;Node4</title>
<path fill="none" stroke="midnightblue" d="M1170.57,-235.589C1214.42,-227.373 1292.61,-212.442 1368.97,-196.17"/>
<polygon fill="midnightblue" stroke="midnightblue" points="1369.71,-199.591 1378.76,-194.076 1368.25,-192.746 1369.71,-199.591"/>
</g>
<!-- Node11 -->
<g id="node7" class="node"><title>Node11</title>
<g id="a_node7"><a xlink:title=" ">
<polygon fill="white" stroke="#bfbfbf" points="1465.27,-175 1465.27,-195 1510.73,-195 1510.73,-175 1465.27,-175"/>
<text text-anchor="middle" x="1488" y="-181" font-family="Helvetica,sans-Serif" font-size="10.00">stdio.h</text>
</a>
</g>
</g>
<!-- Node3&#45;&gt;Node11 -->
<g id="edge6" class="edge"><title>Node3&#45;&gt;Node11</title>
<path fill="none" stroke="midnightblue" d="M1170.77,-238.724C1229.73,-232.784 1352.86,-218.704 1455,-196 1455.1,-195.977 1455.2,-195.954 1455.31,-195.931"/>
<polygon fill="midnightblue" stroke="midnightblue" points="1456.22,-199.311 1465.04,-193.442 1454.48,-192.53 1456.22,-199.311"/>
</g>
<!-- Node12 -->
<g id="node8" class="node"><title>Node12</title>
<g id="a_node8"><a xlink:title=" ">
<polygon fill="white" stroke="#bfbfbf" points="1528.93,-175 1528.93,-195 1581.07,-195 1581.07,-175 1528.93,-175"/>
<text text-anchor="middle" x="1555" y="-181" font-family="Helvetica,sans-Serif" font-size="10.00">stdarg.h</text>
</a>
</g>
</g>
<!-- Node3&#45;&gt;Node12 -->
<g id="edge7" class="edge"><title>Node3&#45;&gt;Node12</title>
<path fill="none" stroke="midnightblue" d="M1170.61,-239.609C1238.11,-234.556 1391.87,-221.14 1519,-196 1519.1,-195.98 1519.2,-195.961 1519.3,-195.941"/>
<polygon fill="midnightblue" stroke="midnightblue" points="1519.79,-199.418 1528.76,-193.782 1518.24,-192.593 1519.79,-199.418"/>
</g>
<!-- Node13 -->
<g id="node9" class="node"><title>Node13</title>
<g id="a_node9"><a xlink:title=" ">
<polygon fill="white" stroke="#bfbfbf" points="1598.6,-175 1598.6,-195 1647.4,-195 1647.4,-175 1598.6,-175"/>
<text text-anchor="middle" x="1623" y="-181" font-family="Helvetica,sans-Serif" font-size="10.00">string.h</text>
</a>
</g>
</g>
<!-- Node3&#45;&gt;Node13 -->
<g id="edge8" class="edge"><title>Node3&#45;&gt;Node13</title>
<path fill="none" stroke="midnightblue" d="M1170.51,-240.777C1245.26,-237.645 1427.73,-227.384 1588.21,-196.052"/>
<polygon fill="midnightblue" stroke="midnightblue" points="1589.14,-199.437 1598.26,-194.056 1587.77,-192.571 1589.14,-199.437"/>
</g>
<!-- Node14 -->
<g id="node10" class="node"><title>Node14</title>
<g id="a_node10"><a xlink:title=" ">
<polygon fill="white" stroke="#bfbfbf" points="1665.88,-175 1665.88,-195 1714.12,-195 1714.12,-175 1665.88,-175"/>
<text text-anchor="middle" x="1690" y="-181" font-family="Helvetica,sans-Serif" font-size="10.00">ctype.h</text>
</a>
</g>
</g>
<!-- Node3&#45;&gt;Node14 -->
<g id="edge9" class="edge"><title>Node3&#45;&gt;Node14</title>
<path fill="none" stroke="midnightblue" d="M1170.7,-241.295C1253.24,-239.115 1467.74,-230.498 1655.57,-195.69"/>
<polygon fill="midnightblue" stroke="midnightblue" points="1656.45,-199.086 1665.63,-193.796 1655.15,-192.207 1656.45,-199.086"/>
</g>
<!-- Node15 -->
<g id="node11" class="node"><title>Node15</title>
<g id="a_node11"><a xlink:title=" ">
<polygon fill="white" stroke="#bfbfbf" points="1732.44,-175 1732.44,-195 1779.56,-195 1779.56,-175 1732.44,-175"/>
<text text-anchor="middle" x="1756" y="-181" font-family="Helvetica,sans-Serif" font-size="10.00">limits.h</text>
</a>
</g>
</g>
<!-- Node3&#45;&gt;Node15 -->
<g id="edge10" class="edge"><title>Node3&#45;&gt;Node15</title>
<path fill="none" stroke="midnightblue" d="M1170.42,-241.886C1260.08,-241.043 1508.15,-235.215 1722.5,-195.679"/>
<polygon fill="midnightblue" stroke="midnightblue" points="1723.17,-199.113 1732.36,-193.832 1721.89,-192.233 1723.17,-199.113"/>
</g>
<!-- Node16 -->
<g id="node12" class="node"><title>Node16</title>
<g id="a_node12"><a xlink:href="_rexx_platform_definitions_8h.html" target="_top" xlink:title=" ">
<polygon fill="white" stroke="black" points="493.478,-175 493.478,-195 624.522,-195 624.522,-175 493.478,-175"/>
<text text-anchor="middle" x="559" y="-181" font-family="Helvetica,sans-Serif" font-size="10.00">RexxPlatformDefinitions.h</text>
</a>
</g>
</g>
<!-- Node3&#45;&gt;Node16 -->
<g id="edge11" class="edge"><title>Node3&#45;&gt;Node16</title>
<path fill="none" stroke="midnightblue" d="M1101.56,-239.336C1021.62,-233.047 817.032,-216.346 634.863,-196.057"/>
<polygon fill="midnightblue" stroke="midnightblue" points="635.159,-192.568 624.831,-194.933 634.38,-199.525 635.159,-192.568"/>
</g>
<!-- Node19 -->
<g id="node15" class="node"><title>Node19</title>
<g id="a_node15"><a xlink:href="_rexx_constants_8hpp.html" target="_top" xlink:title=" ">
<polygon fill="white" stroke="black" points="372.365,-175 372.365,-195 475.635,-195 475.635,-175 372.365,-175"/>
<text text-anchor="middle" x="424" y="-181" font-family="Helvetica,sans-Serif" font-size="10.00">RexxConstants.hpp</text>
</a>
</g>
</g>
<!-- Node3&#45;&gt;Node19 -->
<g id="edge14" class="edge"><title>Node3&#45;&gt;Node19</title>
<path fill="none" stroke="midnightblue" d="M1101.26,-240.708C1005.02,-236.885 726.708,-224.159 485.668,-196.106"/>
<polygon fill="midnightblue" stroke="midnightblue" points="486.006,-192.621 475.666,-194.93 485.189,-199.574 486.006,-192.621"/>
</g>
<!-- Node20 -->
<g id="node16" class="node"><title>Node20</title>
<g id="a_node16"><a xlink:href="_class_type_codes_8h.html" target="_top" xlink:title=" ">
<polygon fill="white" stroke="black" points="1089.03,-59 1089.03,-79 1188.97,-79 1188.97,-59 1089.03,-59"/>
<text text-anchor="middle" x="1139" y="-65" font-family="Helvetica,sans-Serif" font-size="10.00">ClassTypeCodes.h</text>
</a>
</g>
</g>
<!-- Node3&#45;&gt;Node20 -->
<g id="edge15" class="edge"><title>Node3&#45;&gt;Node20</title>
<path fill="none" stroke="midnightblue" d="M1101.29,-234.638C1061.61,-224.601 1004.93,-204.331 1028,-174 1064.3,-126.285 1121.7,-185.715 1158,-138 1169.08,-123.435 1160.77,-102.731 1151.93,-88.0017"/>
<polygon fill="midnightblue" stroke="midnightblue" points="1154.64,-85.7563 1146.23,-79.31 1148.78,-89.5927 1154.64,-85.7563"/>
</g>
<!-- Node21 -->
<g id="node17" class="node"><title>Node21</title>
<g id="a_node17"><a xlink:href="_global_names_8h.html" target="_top" xlink:title=" ">
<polygon fill="white" stroke="black" points="642.54,-175 642.54,-195 727.46,-195 727.46,-175 642.54,-175"/>
<text text-anchor="middle" x="685" y="-181" font-family="Helvetica,sans-Serif" font-size="10.00">GlobalNames.h</text>
</a>
</g>
</g>
<!-- Node3&#45;&gt;Node21 -->
<g id="edge16" class="edge"><title>Node3&#45;&gt;Node21</title>
<path fill="none" stroke="midnightblue" d="M1101.56,-238.701C1032.84,-231.96 873.848,-215.578 741,-196 739.925,-195.842 738.839,-195.678 737.746,-195.511"/>
<polygon fill="midnightblue" stroke="midnightblue" points="738.189,-192.037 727.761,-193.912 737.082,-198.949 738.189,-192.037"/>
</g>
<!-- Node22 -->
<g id="node18" class="node"><title>Node22</title>
<g id="a_node18"><a xlink:href="_object_class_8hpp.html" target="_top" xlink:title=" ">
<polygon fill="white" stroke="black" points="124.315,-175 124.315,-195 213.685,-195 213.685,-175 124.315,-175"/>
<text text-anchor="middle" x="169" y="-181" font-family="Helvetica,sans-Serif" font-size="10.00">ObjectClass.hpp</text>
</a>
</g>
</g>
<!-- Node3&#45;&gt;Node22 -->
<g id="edge17" class="edge"><title>Node3&#45;&gt;Node22</title>
<path fill="none" stroke="midnightblue" d="M1101.43,-240.531C950.217,-234.069 349.326,-208.008 224.035,-195.851"/>
<polygon fill="midnightblue" stroke="midnightblue" points="224.034,-192.331 213.72,-194.754 223.293,-199.292 224.034,-192.331"/>
</g>
<!-- Node25 -->
<g id="node21" class="node"><title>Node25</title>
<g id="a_node21"><a xlink:href="_table_class_8hpp.html" target="_top" xlink:title=" ">
<polygon fill="white" stroke="black" points="706.813,-59 706.813,-79 791.187,-79 791.187,-59 706.813,-59"/>
<text text-anchor="middle" x="749" y="-65" font-family="Helvetica,sans-Serif" font-size="10.00">TableClass.hpp</text>
</a>
</g>
</g>
<!-- Node3&#45;&gt;Node25 -->
<g id="edge20" class="edge"><title>Node3&#45;&gt;Node25</title>
<path fill="none" stroke="midnightblue" d="M1101.56,-242.114C1036.01,-241.362 889.546,-235.01 774,-196 755.51,-189.758 753.277,-183.074 736,-174 702.91,-156.622 679.987,-169.583 660,-138 644.378,-113.313 677.746,-94.182 707.982,-82.5879"/>
<polygon fill="midnightblue" stroke="midnightblue" points="709.416,-85.7911 717.623,-79.091 707.029,-79.2106 709.416,-85.7911"/>
</g>
<!-- Node28 -->
<g id="node23" class="node"><title>Node28</title>
<g id="a_node23"><a xlink:href="_stack_class_8hpp.html" target="_top" xlink:title=" ">
<polygon fill="white" stroke="black" points="783.261,-175 783.261,-195 868.739,-195 868.739,-175 783.261,-175"/>
<text text-anchor="middle" x="826" y="-181" font-family="Helvetica,sans-Serif" font-size="10.00">StackClass.hpp</text>
</a>
</g>
</g>
<!-- Node3&#45;&gt;Node28 -->
<g id="edge22" class="edge"><title>Node3&#45;&gt;Node28</title>
<path fill="none" stroke="midnightblue" d="M1101.34,-235.973C1053.62,-227.644 964.765,-212.012 878.768,-196.124"/>
<polygon fill="midnightblue" stroke="midnightblue" points="879.31,-192.665 868.84,-194.286 878.036,-199.548 879.31,-192.665"/>
</g>
<!-- Node29 -->
<g id="node24" class="node"><title>Node29</title>
<g id="a_node24"><a xlink:href="_rexx_memory_8hpp.html" target="_top" xlink:title=" ">
<polygon fill="white" stroke="black" points="887.189,-175 887.189,-195 980.811,-195 980.811,-175 887.189,-175"/>
<text text-anchor="middle" x="934" y="-181" font-family="Helvetica,sans-Serif" font-size="10.00">RexxMemory.hpp</text>
</a>
</g>
</g>
<!-- Node3&#45;&gt;Node29 -->
<g id="edge23" class="edge"><title>Node3&#45;&gt;Node29</title>
<path fill="none" stroke="midnightblue" d="M1103.1,-232.878C1068.51,-223.29 1013.99,-208.175 976.245,-197.712"/>
<polygon fill="midnightblue" stroke="midnightblue" points="977.127,-194.324 966.556,-195.025 975.257,-201.07 977.127,-194.324"/>
</g>
<!-- Node36 -->
<g id="node29" class="node"><title>Node36</title>
<g id="a_node29"><a xlink:href="_rexx_behaviour_8hpp.html" target="_top" xlink:title=" ">
<polygon fill="white" stroke="black" points="1258.64,-175 1258.64,-195 1361.36,-195 1361.36,-175 1258.64,-175"/>
<text text-anchor="middle" x="1310" y="-181" font-family="Helvetica,sans-Serif" font-size="10.00">RexxBehaviour.hpp</text>
</a>
</g>
</g>
<!-- Node3&#45;&gt;Node36 -->
<g id="edge31" class="edge"><title>Node3&#45;&gt;Node36</title>
<path fill="none" stroke="midnightblue" d="M1164.34,-232.878C1193.75,-223.413 1239.9,-208.56 1272.36,-198.115"/>
<polygon fill="midnightblue" stroke="midnightblue" points="1273.51,-201.421 1281.96,-195.025 1271.37,-194.757 1273.51,-201.421"/>
</g>
<!-- Node38 -->
<g id="node31" class="node"><title>Node38</title>
<g id="a_node31"><a xlink:href="_class_class_8hpp.html" target="_top" xlink:title=" ">
<polygon fill="white" stroke="black" points="1037.26,-175 1037.26,-195 1122.74,-195 1122.74,-175 1037.26,-175"/>
<text text-anchor="middle" x="1080" y="-181" font-family="Helvetica,sans-Serif" font-size="10.00">ClassClass.hpp</text>
</a>
</g>
</g>
<!-- Node3&#45;&gt;Node38 -->
<g id="edge33" class="edge"><title>Node3&#45;&gt;Node38</title>
<path fill="none" stroke="midnightblue" d="M1126.75,-232.753C1118.52,-224.516 1106.27,-212.274 1096.38,-202.382"/>
<polygon fill="midnightblue" stroke="midnightblue" points="1098.62,-199.671 1089.08,-195.075 1093.67,-204.621 1098.62,-199.671"/>
</g>
<!-- Node39 -->
<g id="node32" class="node"><title>Node39</title>
<g id="a_node32"><a xlink:href="_rexx_envelope_8hpp.html" target="_top" xlink:title=" ">
<polygon fill="white" stroke="black" points="1141.03,-175 1141.03,-195 1240.97,-195 1240.97,-175 1141.03,-175"/>
<text text-anchor="middle" x="1191" y="-181" font-family="Helvetica,sans-Serif" font-size="10.00">RexxEnvelope.hpp</text>
</a>
</g>
</g>
<!-- Node3&#45;&gt;Node39 -->
<g id="edge34" class="edge"><title>Node3&#45;&gt;Node39</title>
<path fill="none" stroke="midnightblue" d="M1145.08,-232.753C1153.17,-224.516 1165.2,-212.274 1174.91,-202.382"/>
<polygon fill="midnightblue" stroke="midnightblue" points="1177.58,-204.662 1182.09,-195.075 1172.58,-199.757 1177.58,-204.662"/>
</g>
<!-- Node40 -->
<g id="node33" class="node"><title>Node40</title>
<g id="a_node33"><a xlink:href="_rexx_activity_8hpp.html" target="_top" xlink:title=" ">
<polygon fill="white" stroke="red" points="1836.41,-175 1836.41,-195 1925.59,-195 1925.59,-175 1836.41,-175"/>
<text text-anchor="middle" x="1881" y="-181" font-family="Helvetica,sans-Serif" font-size="10.00">RexxActivity.hpp</text>
</a>
</g>
</g>
<!-- Node3&#45;&gt;Node40 -->
<g id="edge35" class="edge"><title>Node3&#45;&gt;Node40</title>
<path fill="none" stroke="midnightblue" d="M1170.67,-240.003C1268.05,-234.298 1552.33,-216.976 1788,-196 1800.26,-194.909 1813.41,-193.588 1825.85,-192.268"/>
<polygon fill="midnightblue" stroke="midnightblue" points="1826.53,-195.715 1836.09,-191.165 1825.78,-188.755 1826.53,-195.715"/>
</g>
<!-- Node51 -->
<g id="node38" class="node"><title>Node51</title>
<g id="a_node38"><a xlink:href="_number_string_class_8hpp.html" target="_top" xlink:title=" ">
<polygon fill="white" stroke="red" points="231.921,-175 231.921,-195 354.079,-195 354.079,-175 231.921,-175"/>
<text text-anchor="middle" x="293" y="-181" font-family="Helvetica,sans-Serif" font-size="10.00">NumberStringClass.hpp</text>
</a>
</g>
</g>
<!-- Node3&#45;&gt;Node51 -->
<g id="edge40" class="edge"><title>Node3&#45;&gt;Node51</title>
<path fill="none" stroke="midnightblue" d="M1101.4,-240.322C973.84,-234.078 529.146,-211.781 364.482,-196.05"/>
<polygon fill="midnightblue" stroke="midnightblue" points="364.342,-192.519 354.047,-195.023 363.656,-199.486 364.342,-192.519"/>
</g>
<!-- Node67 -->
<g id="node39" class="node"><title>Node67</title>
<g id="a_node39"><a xlink:href="_activity_manager_8hpp.html" target="_top" xlink:title=" ">
<polygon fill="white" stroke="red" points="-0.0268555,-175 -0.0268555,-195 106.027,-195 106.027,-175 -0.0268555,-175"/>
<text text-anchor="middle" x="53" y="-181" font-family="Helvetica,sans-Serif" font-size="10.00">ActivityManager.hpp</text>
</a>
</g>
</g>
<!-- Node3&#45;&gt;Node67 -->
<g id="edge42" class="edge"><title>Node3&#45;&gt;Node67</title>
<path fill="none" stroke="midnightblue" d="M1101.33,-240.675C938.67,-234.429 253.654,-207.77 116.308,-195.93"/>
<polygon fill="midnightblue" stroke="midnightblue" points="116.33,-192.416 106.047,-194.967 115.676,-199.386 116.33,-192.416"/>
</g>
<!-- Node5 -->
<g id="node5" class="node"><title>Node5</title>
<g id="a_node5"><a xlink:href="rexx_8h.html" target="_top" xlink:title=" ">
<polygon fill="white" stroke="red" points="1471.38,-117 1471.38,-137 1514.62,-137 1514.62,-117 1471.38,-117"/>
<text text-anchor="middle" x="1493" y="-123" font-family="Helvetica,sans-Serif" font-size="10.00">rexx.h</text>
</a>
</g>
</g>
<!-- Node4&#45;&gt;Node5 -->
<g id="edge4" class="edge"><title>Node4&#45;&gt;Node5</title>
<path fill="none" stroke="midnightblue" d="M1426.21,-174.753C1438.56,-166.109 1457.21,-153.052 1471.67,-142.931"/>
<polygon fill="midnightblue" stroke="midnightblue" points="1473.85,-145.677 1480.04,-137.075 1469.84,-139.943 1473.85,-145.677"/>
</g>
<!-- Node10 -->
<g id="node6" class="node"><title>Node10</title>
<g id="a_node6"><a xlink:href="oorexxerrors_8h.html" target="_top" xlink:title=" ">
<polygon fill="white" stroke="black" points="1372.77,-117 1372.77,-137 1453.23,-137 1453.23,-117 1372.77,-117"/>
<text text-anchor="middle" x="1413" y="-123" font-family="Helvetica,sans-Serif" font-size="10.00">oorexxerrors.h</text>
</a>
</g>
</g>
<!-- Node4&#45;&gt;Node10 -->
<g id="edge5" class="edge"><title>Node4&#45;&gt;Node10</title>
<path fill="none" stroke="midnightblue" d="M1413,-174.753C1413,-167.25 1413,-156.424 1413,-147.078"/>
<polygon fill="midnightblue" stroke="midnightblue" points="1416.5,-147.075 1413,-137.075 1409.5,-147.075 1416.5,-147.075"/>
</g>
<!-- Node17 -->
<g id="node13" class="node"><title>Node17</title>
<g id="a_node13"><a xlink:title=" ">
<polygon fill="white" stroke="#bfbfbf" points="504.87,-117 504.87,-137 613.13,-137 613.13,-117 504.87,-117"/>
<text text-anchor="middle" x="559" y="-123" font-family="Helvetica,sans-Serif" font-size="10.00">PlatformDefinitions.h</text>
</a>
</g>
</g>
<!-- Node16&#45;&gt;Node17 -->
<g id="edge12" class="edge"><title>Node16&#45;&gt;Node17</title>
<path fill="none" stroke="midnightblue" d="M559,-174.753C559,-167.25 559,-156.424 559,-147.078"/>
<polygon fill="midnightblue" stroke="midnightblue" points="562.5,-147.075 559,-137.075 555.5,-147.075 562.5,-147.075"/>
</g>
<!-- Node18 -->
<g id="node14" class="node"><title>Node18</title>
<g id="a_node14"><a xlink:href="_rexx_error_codes_8h.html" target="_top" xlink:title=" ">
<polygon fill="white" stroke="black" points="388.875,-117 388.875,-137 487.125,-137 487.125,-117 388.875,-117"/>
<text text-anchor="middle" x="438" y="-123" font-family="Helvetica,sans-Serif" font-size="10.00">RexxErrorCodes.h</text>
</a>
</g>
</g>
<!-- Node16&#45;&gt;Node18 -->
<g id="edge13" class="edge"><title>Node16&#45;&gt;Node18</title>
<path fill="none" stroke="midnightblue" d="M539.29,-174.878C519.69,-165.807 489.398,-151.788 467.044,-141.442"/>
<polygon fill="midnightblue" stroke="midnightblue" points="468.247,-138.142 457.702,-137.118 465.307,-144.495 468.247,-138.142"/>
</g>
<!-- Node23 -->
<g id="node19" class="node"><title>Node23</title>
<g id="a_node19"><a xlink:href="_numerics_8hpp.html" target="_top" xlink:title=" ">
<polygon fill="white" stroke="black" points="240.155,-117 240.155,-137 317.845,-137 317.845,-117 240.155,-117"/>
<text text-anchor="middle" x="279" y="-123" font-family="Helvetica,sans-Serif" font-size="10.00">Numerics.hpp</text>
</a>
</g>
</g>
<!-- Node22&#45;&gt;Node23 -->
<g id="edge18" class="edge"><title>Node22&#45;&gt;Node23</title>
<path fill="none" stroke="midnightblue" d="M187.164,-174.753C204.864,-165.742 231.984,-151.935 252.17,-141.659"/>
<polygon fill="midnightblue" stroke="midnightblue" points="253.85,-144.731 261.174,-137.075 250.674,-138.493 253.85,-144.731"/>
</g>
<!-- Node24 -->
<g id="node20" class="node"><title>Node24</title>
<g id="a_node20"><a xlink:title=" ">
<polygon fill="white" stroke="#bfbfbf" points="459.209,-59 459.209,-79 510.791,-79 510.791,-59 459.209,-59"/>
<text text-anchor="middle" x="485" y="-65" font-family="Helvetica,sans-Serif" font-size="10.00">stddef.h</text>
</a>
</g>
</g>
<!-- Node22&#45;&gt;Node24 -->
<g id="edge19" class="edge"><title>Node22&#45;&gt;Node24</title>
<path fill="none" stroke="midnightblue" d="M174.54,-174.754C184.051,-159.764 204.999,-130.385 231,-116 301.107,-77.2131 397.174,-70.1663 448.749,-69.4441"/>
<polygon fill="midnightblue" stroke="midnightblue" points="449.077,-72.9421 459.054,-69.3768 449.031,-65.9422 449.077,-72.9421"/>
</g>
<!-- Node26 -->
<g id="node22" class="node"><title>Node26</title>
<g id="a_node22"><a xlink:href="_rexx_collection_8hpp.html" target="_top" xlink:title=" ">
<polygon fill="white" stroke="red" points="697.921,-1 697.921,-21 800.079,-21 800.079,-1 697.921,-1"/>
<text text-anchor="middle" x="749" y="-7" font-family="Helvetica,sans-Serif" font-size="10.00">RexxCollection.hpp</text>
</a>
</g>
</g>
<!-- Node25&#45;&gt;Node26 -->
<g id="edge21" class="edge"><title>Node25&#45;&gt;Node26</title>
<path fill="none" stroke="midnightblue" d="M749,-58.7527C749,-51.2504 749,-40.4238 749,-31.0781"/>
<polygon fill="midnightblue" stroke="midnightblue" points="752.5,-31.0752 749,-21.0752 745.5,-31.0752 752.5,-31.0752"/>
</g>
<!-- Node30 -->
<g id="node25" class="node"><title>Node30</title>
<g id="a_node25"><a xlink:title=" ">
<polygon fill="white" stroke="#bfbfbf" points="933.084,-117 933.084,-137 1036.92,-137 1036.92,-117 933.084,-117"/>
<text text-anchor="middle" x="985" y="-123" font-family="Helvetica,sans-Serif" font-size="10.00">SysSemaphore.hpp</text>
</a>
</g>
</g>
<!-- Node29&#45;&gt;Node30 -->
<g id="edge24" class="edge"><title>Node29&#45;&gt;Node30</title>
<path fill="none" stroke="midnightblue" d="M942.422,-174.753C949.848,-166.598 960.852,-154.516 969.812,-144.677"/>
<polygon fill="midnightblue" stroke="midnightblue" points="972.589,-146.825 976.735,-137.075 967.414,-142.112 972.589,-146.825"/>
</g>
<!-- Node31 -->
<g id="node26" class="node"><title>Node31</title>
<g id="a_node26"><a xlink:href="_identity_table_class_8hpp.html" target="_top" xlink:title=" ">
<polygon fill="white" stroke="black" points="798.692,-117 798.692,-137 915.308,-137 915.308,-117 798.692,-117"/>
<text text-anchor="middle" x="857" y="-123" font-family="Helvetica,sans-Serif" font-size="10.00">IdentityTableClass.hpp</text>
</a>
</g>
</g>
<!-- Node29&#45;&gt;Node31 -->
<g id="edge25" class="edge"><title>Node29&#45;&gt;Node31</title>
<path fill="none" stroke="midnightblue" d="M921.285,-174.753C909.512,-166.19 891.784,-153.298 877.926,-143.219"/>
<polygon fill="midnightblue" stroke="midnightblue" points="879.624,-140.126 869.478,-137.075 875.507,-145.788 879.624,-140.126"/>
</g>
<!-- Node32 -->
<g id="node27" class="node"><title>Node32</title>
<g id="a_node27"><a xlink:href="_memory_stats_8hpp.html" target="_top" xlink:title=" ">
<polygon fill="white" stroke="black" points="1054.82,-117 1054.82,-137 1149.18,-137 1149.18,-117 1054.82,-117"/>
<text text-anchor="middle" x="1102" y="-123" font-family="Helvetica,sans-Serif" font-size="10.00">MemoryStats.hpp</text>
</a>
</g>
</g>
<!-- Node29&#45;&gt;Node32 -->
<g id="edge27" class="edge"><title>Node29&#45;&gt;Node32</title>
<path fill="none" stroke="midnightblue" d="M961.366,-174.878C989.64,-165.453 1033.94,-150.688 1065.25,-140.25"/>
<polygon fill="midnightblue" stroke="midnightblue" points="1066.54,-143.508 1074.92,-137.025 1064.33,-136.867 1066.54,-143.508"/>
</g>
<!-- Node33 -->
<g id="node28" class="node"><title>Node33</title>
<g id="a_node28"><a xlink:href="_memory_segment_8hpp.html" target="_top" xlink:title=" ">
<polygon fill="white" stroke="red" points="669.2,-117 669.2,-137 780.8,-137 780.8,-117 669.2,-117"/>
<text text-anchor="middle" x="725" y="-123" font-family="Helvetica,sans-Serif" font-size="10.00">MemorySegment.hpp</text>
</a>
</g>
</g>
<!-- Node29&#45;&gt;Node33 -->
<g id="edge29" class="edge"><title>Node29&#45;&gt;Node33</title>
<path fill="none" stroke="midnightblue" d="M899.955,-174.878C864.172,-165.29 807.759,-150.175 768.709,-139.712"/>
<polygon fill="midnightblue" stroke="midnightblue" points="769.249,-136.233 758.684,-137.025 767.437,-142.994 769.249,-136.233"/>
</g>
<!-- Node31&#45;&gt;Node25 -->
<g id="edge26" class="edge"><title>Node31&#45;&gt;Node25</title>
<path fill="none" stroke="midnightblue" d="M839.166,-116.753C821.866,-107.783 795.402,-94.0601 775.612,-83.7986"/>
<polygon fill="midnightblue" stroke="midnightblue" points="776.991,-80.5713 766.502,-79.0752 773.769,-86.7856 776.991,-80.5713"/>
</g>
<!-- Node32&#45;&gt;Node20 -->
<g id="edge28" class="edge"><title>Node32&#45;&gt;Node20</title>
<path fill="none" stroke="midnightblue" d="M1108.11,-116.753C1113.34,-108.843 1121,-97.2372 1127.39,-87.5683"/>
<polygon fill="midnightblue" stroke="midnightblue" points="1130.41,-89.348 1133,-79.0752 1124.57,-85.4891 1130.41,-89.348"/>
</g>
<!-- Node33&#45;&gt;Node24 -->
<g id="edge30" class="edge"><title>Node33&#45;&gt;Node24</title>
<path fill="none" stroke="midnightblue" d="M686.173,-116.94C640.388,-106.257 564.923,-88.6486 520.592,-78.3049"/>
<polygon fill="midnightblue" stroke="midnightblue" points="521.362,-74.8906 510.828,-76.0266 519.771,-81.7074 521.362,-74.8906"/>
</g>
<!-- Node37 -->
<g id="node30" class="node"><title>Node37</title>
<g id="a_node30"><a xlink:href="_primitive_behaviour_names_8h.html" target="_top" xlink:title=" ">
<polygon fill="white" stroke="black" points="1215.31,-117 1215.31,-137 1354.69,-137 1354.69,-117 1215.31,-117"/>
<text text-anchor="middle" x="1285" y="-123" font-family="Helvetica,sans-Serif" font-size="10.00">PrimitiveBehaviourNames.h</text>
</a>
</g>
</g>
<!-- Node36&#45;&gt;Node37 -->
<g id="edge32" class="edge"><title>Node36&#45;&gt;Node37</title>
<path fill="none" stroke="midnightblue" d="M1305.87,-174.753C1302.45,-167.087 1297.48,-155.952 1293.25,-146.471"/>
<polygon fill="midnightblue" stroke="midnightblue" points="1296.32,-144.78 1289.05,-137.075 1289.93,-147.633 1296.32,-144.78"/>
</g>
<!-- Node41 -->
<g id="node34" class="node"><title>Node41</title>
<g id="a_node34"><a xlink:href="_list_class_8hpp.html" target="_top" xlink:title=" ">
<polygon fill="white" stroke="red" points="1808.99,-117 1808.99,-137 1885.01,-137 1885.01,-117 1808.99,-117"/>
<text text-anchor="middle" x="1847" y="-123" font-family="Helvetica,sans-Serif" font-size="10.00">ListClass.hpp</text>
</a>
</g>
</g>
<!-- Node40&#45;&gt;Node41 -->
<g id="edge36" class="edge"><title>Node40&#45;&gt;Node41</title>
<path fill="none" stroke="midnightblue" d="M1875.39,-174.753C1870.63,-166.924 1863.68,-155.476 1857.85,-145.868"/>
<polygon fill="midnightblue" stroke="midnightblue" points="1860.69,-143.807 1852.51,-137.075 1854.71,-147.44 1860.69,-143.807"/>
</g>
<!-- Node45 -->
<g id="node35" class="node"><title>Node45</title>
<g id="a_node35"><a xlink:href="_expression_stack_8hpp.html" target="_top" xlink:title=" ">
<polygon fill="white" stroke="red" points="1681.03,-117 1681.03,-137 1790.97,-137 1790.97,-117 1681.03,-117"/>
<text text-anchor="middle" x="1736" y="-123" font-family="Helvetica,sans-Serif" font-size="10.00">ExpressionStack.hpp</text>
</a>
</g>
</g>
<!-- Node40&#45;&gt;Node45 -->
<g id="edge37" class="edge"><title>Node40&#45;&gt;Node45</title>
<path fill="none" stroke="midnightblue" d="M1857.38,-174.878C1833.37,-165.603 1795.96,-151.156 1769.02,-140.752"/>
<polygon fill="midnightblue" stroke="midnightblue" points="1770.2,-137.456 1759.61,-137.118 1767.68,-143.986 1770.2,-137.456"/>
</g>
<!-- Node47 -->
<g id="node36" class="node"><title>Node47</title>
<g id="a_node36"><a xlink:href="_rexx_local_variables_8hpp.html" target="_top" xlink:title=" ">
<polygon fill="white" stroke="red" points="1903.45,-117 1903.45,-137 2026.55,-137 2026.55,-117 1903.45,-117"/>
<text text-anchor="middle" x="1965" y="-123" font-family="Helvetica,sans-Serif" font-size="10.00">RexxLocalVariables.hpp</text>
</a>
</g>
</g>
<!-- Node40&#45;&gt;Node47 -->
<g id="edge38" class="edge"><title>Node40&#45;&gt;Node47</title>
<path fill="none" stroke="midnightblue" d="M1894.87,-174.753C1907.96,-166.027 1927.79,-152.805 1943.03,-142.646"/>
<polygon fill="midnightblue" stroke="midnightblue" points="1945.01,-145.534 1951.39,-137.075 1941.13,-139.71 1945.01,-145.534"/>
</g>
<!-- Node62 -->
<g id="node37" class="node"><title>Node62</title>
<g id="a_node37"><a xlink:href="_source_location_8hpp.html" target="_top" xlink:title=" ">
<polygon fill="white" stroke="black" points="2044.52,-117 2044.52,-137 2149.48,-137 2149.48,-117 2044.52,-117"/>
<text text-anchor="middle" x="2097" y="-123" font-family="Helvetica,sans-Serif" font-size="10.00">SourceLocation.hpp</text>
</a>
</g>
</g>
<!-- Node40&#45;&gt;Node62 -->
<g id="edge39" class="edge"><title>Node40&#45;&gt;Node62</title>
<path fill="none" stroke="midnightblue" d="M1916.18,-174.878C1953.32,-165.249 2011.97,-150.046 2052.34,-139.578"/>
<polygon fill="midnightblue" stroke="midnightblue" points="2053.39,-142.923 2062.19,-137.025 2051.63,-136.147 2053.39,-142.923"/>
</g>
<!-- Node51&#45;&gt;Node23 -->
<g id="edge41" class="edge"><title>Node51&#45;&gt;Node23</title>
<path fill="none" stroke="midnightblue" d="M290.688,-174.753C288.813,-167.25 286.106,-156.424 283.77,-147.078"/>
<polygon fill="midnightblue" stroke="midnightblue" points="287.09,-145.928 281.269,-137.075 280.299,-147.626 287.09,-145.928"/>
</g>
<!-- Node69&#45;&gt;Node45 -->
<g id="edge44" class="edge"><title>Node69&#45;&gt;Node45</title>
<path fill="none" stroke="midnightblue" d="M1757.5,-348.853C1768.31,-340.643 1782.67,-327.517 1789,-312 1799.82,-285.458 1843.66,-296.131 1788,-174 1782.26,-161.404 1771.21,-150.852 1760.76,-143.045"/>
<polygon fill="midnightblue" stroke="midnightblue" points="1762.47,-139.971 1752.26,-137.148 1758.48,-145.723 1762.47,-139.971"/>
</g>
<!-- Node70 -->
<g id="node41" class="node"><title>Node70</title>
<g id="a_node41"><a xlink:href="_do_block_8hpp.html" target="_top" xlink:title=" ">
<polygon fill="white" stroke="black" points="1707.65,-291 1707.65,-311 1780.35,-311 1780.35,-291 1707.65,-291"/>
<text text-anchor="middle" x="1744" y="-297" font-family="Helvetica,sans-Serif" font-size="10.00">DoBlock.hpp</text>
</a>
</g>
</g>
<!-- Node69&#45;&gt;Node70 -->
<g id="edge45" class="edge"><title>Node69&#45;&gt;Node70</title>
<path fill="none" stroke="midnightblue" d="M1744,-348.753C1744,-341.25 1744,-330.424 1744,-321.078"/>
<polygon fill="midnightblue" stroke="midnightblue" points="1747.5,-321.075 1744,-311.075 1740.5,-321.075 1747.5,-321.075"/>
</g>
<!-- Node69&#45;&gt;Node47 -->
<g id="edge46" class="edge"><title>Node69&#45;&gt;Node47</title>
<path fill="none" stroke="midnightblue" d="M1759.01,-348.935C1794.26,-326.948 1883.18,-267.309 1934,-196 1944.8,-180.845 1953.23,-161.325 1958.55,-147.089"/>
<polygon fill="midnightblue" stroke="midnightblue" points="1961.95,-147.987 1962.01,-137.392 1955.36,-145.638 1961.95,-147.987"/>
</g>
<!-- Node71 -->
<g id="node42" class="node"><title>Node71</title>
<g id="a_node42"><a xlink:href="_rexx_date_time_8hpp.html" target="_top" xlink:title=" ">
<polygon fill="white" stroke="black" points="1588.39,-291 1588.39,-311 1689.61,-311 1689.61,-291 1588.39,-291"/>
<text text-anchor="middle" x="1639" y="-297" font-family="Helvetica,sans-Serif" font-size="10.00">RexxDateTime.hpp</text>
</a>
</g>
</g>
<!-- Node69&#45;&gt;Node71 -->
<g id="edge47" class="edge"><title>Node69&#45;&gt;Node71</title>
<path fill="none" stroke="midnightblue" d="M1726.66,-348.753C1709.84,-339.783 1684.11,-326.06 1664.87,-315.799"/>
<polygon fill="midnightblue" stroke="midnightblue" points="1666.49,-312.693 1656.02,-311.075 1663.19,-318.869 1666.49,-312.693"/>
</g>
<!-- Node72 -->
<g id="node43" class="node"><title>Node72</title>
<g id="a_node43"><a xlink:href="_rexx_code_8hpp.html" target="_top" xlink:title=" ">
<polygon fill="white" stroke="red" points="1873.92,-291 1873.92,-311 1956.08,-311 1956.08,-291 1873.92,-291"/>
<text text-anchor="middle" x="1915" y="-297" font-family="Helvetica,sans-Serif" font-size="10.00">RexxCode.hpp</text>
</a>
</g>
</g>
<!-- Node69&#45;&gt;Node72 -->
<g id="edge49" class="edge"><title>Node69&#45;&gt;Node72</title>
<path fill="none" stroke="midnightblue" d="M1771.85,-348.878C1800.63,-339.453 1845.72,-324.688 1877.59,-314.25"/>
<polygon fill="midnightblue" stroke="midnightblue" points="1879.03,-317.464 1887.44,-311.025 1876.85,-310.811 1879.03,-317.464"/>
</g>
<!-- Node69&#45;&gt;Node67 -->
<g id="edge50" class="edge"><title>Node69&#45;&gt;Node67</title>
<path fill="none" stroke="midnightblue" d="M1693.06,-354.108C1596.32,-346.63 1379.38,-329.443 1197,-312 718.843,-266.269 596.024,-260.386 116.035,-196.086"/>
<polygon fill="midnightblue" stroke="midnightblue" points="116.449,-192.61 106.072,-194.75 115.518,-199.548 116.449,-192.61"/>
</g>
<!-- Node81 -->
<g id="node44" class="node"><title>Node81</title>
<g id="a_node44"><a xlink:href="_rexx_compound_tail_8hpp.html" target="_top" xlink:title=" ">
<polygon fill="white" stroke="red" points="1447.91,-291 1447.91,-311 1570.09,-311 1570.09,-291 1447.91,-291"/>
<text text-anchor="middle" x="1509" y="-297" font-family="Helvetica,sans-Serif" font-size="10.00">RexxCompoundTail.hpp</text>
</a>
</g>
</g>
<!-- Node69&#45;&gt;Node81 -->
<g id="edge51" class="edge"><title>Node69&#45;&gt;Node81</title>
<path fill="none" stroke="midnightblue" d="M1705.98,-348.94C1665.37,-339.262 1600.9,-323.901 1556.86,-313.406"/>
<polygon fill="midnightblue" stroke="midnightblue" points="1557.5,-309.96 1546.96,-311.047 1555.88,-316.769 1557.5,-309.96"/>
</g>
<!-- Node82 -->
<g id="node45" class="node"><title>Node82</title>
<g id="a_node45"><a xlink:href="_context_class_8hpp.html" target="_top" xlink:title=" ">
<polygon fill="white" stroke="black" points="775.535,-233 775.535,-253 870.465,-253 870.465,-233 775.535,-233"/>
<text text-anchor="middle" x="823" y="-239" font-family="Helvetica,sans-Serif" font-size="10.00">ContextClass.hpp</text>
</a>
</g>
</g>
<!-- Node69&#45;&gt;Node82 -->
<g id="edge52" class="edge"><title>Node69&#45;&gt;Node82</title>
<path fill="none" stroke="midnightblue" d="M1693.17,-351.708C1534.43,-332.06 1048.54,-271.917 880.724,-251.145"/>
<polygon fill="midnightblue" stroke="midnightblue" points="880.961,-247.648 870.607,-249.893 880.101,-254.595 880.961,-247.648"/>
</g>
<!-- Node71&#45;&gt;Node3 -->
<g id="edge48" class="edge"><title>Node71&#45;&gt;Node3</title>
<path fill="none" stroke="midnightblue" d="M1588.29,-291.323C1585.15,-290.856 1582.03,-290.41 1579,-290 1433.8,-270.38 1260.83,-254.602 1180.76,-247.728"/>
<polygon fill="midnightblue" stroke="midnightblue" points="1180.81,-244.22 1170.55,-246.857 1180.22,-251.195 1180.81,-244.22"/>
</g>
<!-- Node82&#45;&gt;Node22 -->
<g id="edge53" class="edge"><title>Node82&#45;&gt;Node22</title>
<path fill="none" stroke="midnightblue" d="M775.376,-240.076C675.21,-235.656 435.25,-223.11 223.779,-195.967"/>
<polygon fill="midnightblue" stroke="midnightblue" points="224.098,-192.479 213.731,-194.663 223.197,-199.421 224.098,-192.479"/>
</g>
<!-- Node84 -->
<g id="node47" class="node"><title>Node84</title>
<g id="a_node47"><a xlink:href="_rexx_instruction_8hpp.html" target="_top" xlink:title=" ">
<polygon fill="white" stroke="black" points="2007.81,-233 2007.81,-253 2112.19,-253 2112.19,-233 2007.81,-233"/>
<text text-anchor="middle" x="2060" y="-239" font-family="Helvetica,sans-Serif" font-size="10.00">RexxInstruction.hpp</text>
</a>
</g>
</g>
<!-- Node83&#45;&gt;Node84 -->
<g id="edge55" class="edge"><title>Node83&#45;&gt;Node84</title>
<path fill="none" stroke="midnightblue" d="M2081.43,-348.676C2080.51,-335.496 2078.33,-310.71 2074,-290 2072.1,-280.91 2069.21,-271.033 2066.54,-262.77"/>
<polygon fill="midnightblue" stroke="midnightblue" points="2069.78,-261.406 2063.28,-253.039 2063.14,-263.633 2069.78,-261.406"/>
</g>
<!-- Node84&#45;&gt;Node62 -->
<g id="edge56" class="edge"><title>Node84&#45;&gt;Node62</title>
<path fill="none" stroke="midnightblue" d="M2063.03,-232.671C2069.1,-213.957 2082.88,-171.517 2090.9,-146.809"/>
<polygon fill="midnightblue" stroke="midnightblue" points="2094.28,-147.731 2094.03,-137.139 2087.62,-145.57 2094.28,-147.731"/>
</g>
<!-- Node85&#45;&gt;Node84 -->
<g id="edge58" class="edge"><title>Node85&#45;&gt;Node84</title>
<path fill="none" stroke="midnightblue" d="M1992.01,-348.914C2007.86,-341.29 2028.56,-328.919 2041,-312 2051.43,-297.82 2056.14,-278.15 2058.26,-263.612"/>
<polygon fill="midnightblue" stroke="midnightblue" points="2061.79,-263.594 2059.47,-253.256 2054.83,-262.783 2061.79,-263.594"/>
</g>
<!-- Node86 -->
<g id="node49" class="node"><title>Node86</title>
<g id="a_node49"><a xlink:href="_end_if_8hpp.html" target="_top" xlink:title=" ">
<polygon fill="white" stroke="black" points="1973.59,-291 1973.59,-311 2032.41,-311 2032.41,-291 1973.59,-291"/>
<text text-anchor="middle" x="2003" y="-297" font-family="Helvetica,sans-Serif" font-size="10.00">EndIf.hpp</text>
</a>
</g>
</g>
<!-- Node85&#45;&gt;Node86 -->
<g id="edge59" class="edge"><title>Node85&#45;&gt;Node86</title>
<path fill="none" stroke="midnightblue" d="M1975.45,-348.753C1980.06,-340.924 1986.81,-329.476 1992.47,-319.868"/>
<polygon fill="midnightblue" stroke="midnightblue" points="1995.59,-321.468 1997.65,-311.075 1989.56,-317.914 1995.59,-321.468"/>
</g>
<!-- Node86&#45;&gt;Node84 -->
<g id="edge60" class="edge"><title>Node86&#45;&gt;Node84</title>
<path fill="none" stroke="midnightblue" d="M2012.41,-290.753C2020.88,-282.435 2033.5,-270.031 2043.62,-260.089"/>
<polygon fill="midnightblue" stroke="midnightblue" points="2046.08,-262.58 2050.76,-253.075 2041.18,-257.587 2046.08,-262.58"/>
</g>
<!-- Node75&#45;&gt;Node62 -->
<g id="edge62" class="edge"><title>Node75&#45;&gt;Node62</title>
<path fill="none" stroke="midnightblue" d="M2155.76,-232.671C2145.16,-213.789 2121,-170.754 2107.19,-146.149"/>
<polygon fill="midnightblue" stroke="midnightblue" points="2110.08,-144.146 2102.13,-137.139 2103.97,-147.573 2110.08,-144.146"/>
</g>
</g>
</svg>
