<?xml version="1.0" encoding="UTF-8" standalone="no"?>
<!DOCTYPE svg PUBLIC "-//W3C//DTD SVG 1.1//EN"
 "http://www.w3.org/Graphics/SVG/1.1/DTD/svg11.dtd">
<!-- Generated by graphviz version 12.1.0 (20240811.2233)
 -->
<!-- Title: ExpressionLogical.hpp Pages: 1 -->
<svg width="363pt" height="85pt"
 viewBox="0.00 0.00 363.25 84.50" xmlns="http://www.w3.org/2000/svg" xmlns:xlink="http://www.w3.org/1999/xlink">
<g id="graph0" class="graph" transform="scale(1 1) rotate(0) translate(4 80.5)">
<title>ExpressionLogical.hpp</title>
<polygon fill="white" stroke="none" points="-4,4 -4,-80.5 359.25,-80.5 359.25,4 -4,4"/>
<!-- Node1 -->
<g id="node1" class="node">
<title>Node1</title>
<g id="a_node1"><a xlink:title=" ">
<polygon fill="#bfbfbf" stroke="black" points="99.5,-56.75 99.5,-76 213.75,-76 213.75,-56.75 99.5,-56.75"/>
<text text-anchor="middle" x="156.62" y="-62.5" font-family="Helvetica,sans-Serif" font-size="10.00">ExpressionLogical.hpp</text>
</a>
</g>
</g>
<!-- Node2 -->
<g id="node2" class="node">
<title>Node2</title>
<g id="a_node2"><a xlink:href="_source_file_8cpp.html" target="_top" xlink:title=" ">
<polygon fill="white" stroke="black" points="0,-0.5 0,-19.75 81.25,-19.75 81.25,-0.5 0,-0.5"/>
<text text-anchor="middle" x="40.62" y="-6.25" font-family="Helvetica,sans-Serif" font-size="10.00">SourceFile.cpp</text>
</a>
</g>
</g>
<!-- Node1&#45;&gt;Node2 -->
<g id="edge1" class="edge">
<title>Node1&#45;&gt;Node2</title>
<path fill="none" stroke="midnightblue" d="M126.91,-51.48C105.91,-41.66 78.36,-28.77 60.1,-20.23"/>
<polygon fill="midnightblue" stroke="midnightblue" points="125.3,-54.59 135.84,-55.65 128.26,-48.25 125.3,-54.59"/>
</g>
<!-- Node3 -->
<g id="node3" class="node">
<title>Node3</title>
<g id="a_node3"><a xlink:href="_expression_logical_8cpp.html" target="_top" xlink:title=" ">
<polygon fill="white" stroke="black" points="99.5,-0.5 99.5,-19.75 213.75,-19.75 213.75,-0.5 99.5,-0.5"/>
<text text-anchor="middle" x="156.62" y="-6.25" font-family="Helvetica,sans-Serif" font-size="10.00">ExpressionLogical.cpp</text>
</a>
</g>
</g>
<!-- Node1&#45;&gt;Node3 -->
<g id="edge2" class="edge">
<title>Node1&#45;&gt;Node3</title>
<path fill="none" stroke="midnightblue" d="M156.62,-45.19C156.62,-36.48 156.62,-26.74 156.62,-19.92"/>
<polygon fill="midnightblue" stroke="midnightblue" points="153.13,-44.9 156.63,-54.9 160.13,-44.9 153.13,-44.9"/>
</g>
<!-- Node4 -->
<g id="node4" class="node">
<title>Node4</title>
<g id="a_node4"><a xlink:href="_virtual_function_table_8cpp.html" target="_top" xlink:title=" ">
<polygon fill="white" stroke="black" points="232,-0.5 232,-19.75 355.25,-19.75 355.25,-0.5 232,-0.5"/>
<text text-anchor="middle" x="293.62" y="-6.25" font-family="Helvetica,sans-Serif" font-size="10.00">VirtualFunctionTable.cpp</text>
</a>
</g>
</g>
<!-- Node1&#45;&gt;Node4 -->
<g id="edge3" class="edge">
<title>Node1&#45;&gt;Node4</title>
<path fill="none" stroke="midnightblue" d="M190.03,-52.15C215.02,-42.25 248.56,-28.97 270.62,-20.23"/>
<polygon fill="midnightblue" stroke="midnightblue" points="188.97,-48.8 180.96,-55.74 191.55,-55.31 188.97,-48.8"/>
</g>
</g>
</svg>
