<?xml version="1.0" encoding="UTF-8" standalone="no"?>
<!DOCTYPE svg PUBLIC "-//W3C//DTD SVG 1.1//EN"
 "http://www.w3.org/Graphics/SVG/1.1/DTD/svg11.dtd">
<!-- Generated by graphviz version 2.30.1 (20130222.1704)
 -->
<!-- Title: ExpressionOperator.hpp Pages: 1 -->
<svg width="502pt" height="88pt"
 viewBox="0.00 0.00 502.00 88.00" xmlns="http://www.w3.org/2000/svg" xmlns:xlink="http://www.w3.org/1999/xlink">
<g id="graph0" class="graph" transform="scale(1 1) rotate(0) translate(4 84)">
<title>ExpressionOperator.hpp</title>
<polygon fill="white" stroke="white" points="-4,5 -4,-84 499,-84 499,5 -4,5"/>
<!-- Node1 -->
<g id="node1" class="node"><title>Node1</title>
<g id="a_node1"><a xlink:title=" ">
<polygon fill="#bfbfbf" stroke="black" points="160.077,-59 160.077,-79 283.923,-79 283.923,-59 160.077,-59"/>
<text text-anchor="middle" x="222" y="-65" font-family="Helvetica,sans-Serif" font-size="10.00">ExpressionOperator.hpp</text>
</a>
</g>
</g>
<!-- Node2 -->
<g id="node2" class="node"><title>Node2</title>
<g id="a_node2"><a xlink:href="_source_file_8cpp.html" target="_top" xlink:title=" ">
<polygon fill="white" stroke="black" points="-0.349609,-1 -0.349609,-21 82.3496,-21 82.3496,-1 -0.349609,-1"/>
<text text-anchor="middle" x="41" y="-7" font-family="Helvetica,sans-Serif" font-size="10.00">SourceFile.cpp</text>
</a>
</g>
</g>
<!-- Node1&#45;&gt;Node2 -->
<g id="edge1" class="edge"><title>Node1&#45;&gt;Node2</title>
<path fill="none" stroke="midnightblue" d="M182.935,-55.9136C149.055,-45.4313 100.777,-30.4944 70.1711,-21.0253"/>
<polygon fill="midnightblue" stroke="midnightblue" points="181.929,-59.2659 192.516,-58.878 183.998,-52.5786 181.929,-59.2659"/>
</g>
<!-- Node3 -->
<g id="node3" class="node"><title>Node3</title>
<g id="a_node3"><a xlink:href="_instruction_parser_8cpp.html" target="_top" xlink:title=" ">
<polygon fill="white" stroke="black" points="100.03,-1 100.03,-21 209.97,-21 209.97,-1 100.03,-1"/>
<text text-anchor="middle" x="155" y="-7" font-family="Helvetica,sans-Serif" font-size="10.00">InstructionParser.cpp</text>
</a>
</g>
</g>
<!-- Node1&#45;&gt;Node3 -->
<g id="edge2" class="edge"><title>Node1&#45;&gt;Node3</title>
<path fill="none" stroke="midnightblue" d="M203.202,-52.288C191.151,-42.2161 175.935,-29.4981 165.858,-21.0752"/>
<polygon fill="midnightblue" stroke="midnightblue" points="201.019,-55.0251 210.936,-58.7527 205.508,-49.6541 201.019,-55.0251"/>
</g>
<!-- Node4 -->
<g id="node4" class="node"><title>Node4</title>
<g id="a_node4"><a xlink:href="_expression_operator_8cpp.html" target="_top" xlink:title=" ">
<polygon fill="white" stroke="black" points="228.357,-1 228.357,-21 351.643,-21 351.643,-1 228.357,-1"/>
<text text-anchor="middle" x="290" y="-7" font-family="Helvetica,sans-Serif" font-size="10.00">ExpressionOperator.cpp</text>
</a>
</g>
</g>
<!-- Node1&#45;&gt;Node4 -->
<g id="edge3" class="edge"><title>Node1&#45;&gt;Node4</title>
<path fill="none" stroke="midnightblue" d="M241.079,-52.288C253.309,-42.2161 268.752,-29.4981 278.98,-21.0752"/>
<polygon fill="midnightblue" stroke="midnightblue" points="238.723,-49.6939 233.229,-58.7527 243.173,-55.0974 238.723,-49.6939"/>
</g>
<!-- Node5 -->
<g id="node5" class="node"><title>Node5</title>
<g id="a_node5"><a xlink:href="_virtual_function_table_8cpp.html" target="_top" xlink:title=" ">
<polygon fill="white" stroke="black" points="369.334,-1 369.334,-21 494.666,-21 494.666,-1 369.334,-1"/>
<text text-anchor="middle" x="432" y="-7" font-family="Helvetica,sans-Serif" font-size="10.00">VirtualFunctionTable.cpp</text>
</a>
</g>
</g>
<!-- Node1&#45;&gt;Node5 -->
<g id="edge4" class="edge"><title>Node1&#45;&gt;Node5</title>
<path fill="none" stroke="midnightblue" d="M266.065,-56.2494C305.428,-45.7524 362.265,-30.596 398.155,-21.0253"/>
<polygon fill="midnightblue" stroke="midnightblue" points="264.968,-52.9195 256.208,-58.878 266.772,-59.6831 264.968,-52.9195"/>
</g>
</g>
</svg>
