<?xml version="1.0" encoding="UTF-8" standalone="no"?>
<!DOCTYPE svg PUBLIC "-//W3C//DTD SVG 1.1//EN"
 "http://www.w3.org/Graphics/SVG/1.1/DTD/svg11.dtd">
<!-- Generated by graphviz version 12.1.0 (20240811.2233)
 -->
<!-- Title: ExpressionFunction.hpp Pages: 1 -->
<svg width="369pt" height="85pt"
 viewBox="0.00 0.00 369.25 84.50" xmlns="http://www.w3.org/2000/svg" xmlns:xlink="http://www.w3.org/1999/xlink">
<g id="graph0" class="graph" transform="scale(1 1) rotate(0) translate(4 80.5)">
<title>ExpressionFunction.hpp</title>
<polygon fill="white" stroke="none" points="-4,4 -4,-80.5 365.25,-80.5 365.25,4 -4,4"/>
<!-- Node1 -->
<g id="node1" class="node">
<title>Node1</title>
<g id="a_node1"><a xlink:title=" ">
<polygon fill="#bfbfbf" stroke="black" points="99.12,-56.75 99.12,-76 220.12,-76 220.12,-56.75 99.12,-56.75"/>
<text text-anchor="middle" x="159.62" y="-62.5" font-family="Helvetica,sans-Serif" font-size="10.00">ExpressionFunction.hpp</text>
</a>
</g>
</g>
<!-- Node2 -->
<g id="node2" class="node">
<title>Node2</title>
<g id="a_node2"><a xlink:href="_source_file_8cpp.html" target="_top" xlink:title=" ">
<polygon fill="white" stroke="black" points="0,-0.5 0,-19.75 81.25,-19.75 81.25,-0.5 0,-0.5"/>
<text text-anchor="middle" x="40.62" y="-6.25" font-family="Helvetica,sans-Serif" font-size="10.00">SourceFile.cpp</text>
</a>
</g>
</g>
<!-- Node1&#45;&gt;Node2 -->
<g id="edge1" class="edge">
<title>Node1&#45;&gt;Node2</title>
<path fill="none" stroke="midnightblue" d="M129.44,-51.61C107.86,-41.78 79.42,-28.81 60.61,-20.23"/>
<polygon fill="midnightblue" stroke="midnightblue" points="127.78,-54.7 138.33,-55.67 130.68,-48.33 127.78,-54.7"/>
</g>
<!-- Node3 -->
<g id="node3" class="node">
<title>Node3</title>
<g id="a_node3"><a xlink:href="_expression_function_8cpp.html" target="_top" xlink:title=" ">
<polygon fill="white" stroke="black" points="99.12,-0.5 99.12,-19.75 220.12,-19.75 220.12,-0.5 99.12,-0.5"/>
<text text-anchor="middle" x="159.62" y="-6.25" font-family="Helvetica,sans-Serif" font-size="10.00">ExpressionFunction.cpp</text>
</a>
</g>
</g>
<!-- Node1&#45;&gt;Node3 -->
<g id="edge2" class="edge">
<title>Node1&#45;&gt;Node3</title>
<path fill="none" stroke="midnightblue" d="M159.62,-45.19C159.62,-36.48 159.62,-26.74 159.62,-19.92"/>
<polygon fill="midnightblue" stroke="midnightblue" points="156.13,-44.9 159.63,-54.9 163.13,-44.9 156.13,-44.9"/>
</g>
<!-- Node4 -->
<g id="node4" class="node">
<title>Node4</title>
<g id="a_node4"><a xlink:href="_virtual_function_table_8cpp.html" target="_top" xlink:title=" ">
<polygon fill="white" stroke="black" points="238,-0.5 238,-19.75 361.25,-19.75 361.25,-0.5 238,-0.5"/>
<text text-anchor="middle" x="299.62" y="-6.25" font-family="Helvetica,sans-Serif" font-size="10.00">VirtualFunctionTable.cpp</text>
</a>
</g>
</g>
<!-- Node1&#45;&gt;Node4 -->
<g id="edge3" class="edge">
<title>Node1&#45;&gt;Node4</title>
<path fill="none" stroke="midnightblue" d="M193.76,-52.15C219.3,-42.25 253.58,-28.97 276.12,-20.23"/>
<polygon fill="midnightblue" stroke="midnightblue" points="192.53,-48.87 184.47,-55.75 195.06,-55.4 192.53,-48.87"/>
</g>
</g>
</svg>
