<?xml version="1.0" encoding="UTF-8" standalone="no"?>
<!DOCTYPE svg PUBLIC "-//W3C//DTD SVG 1.1//EN"
 "http://www.w3.org/Graphics/SVG/1.1/DTD/svg11.dtd">
<!-- Generated by graphviz version 2.30.1 (20130222.1704)
 -->
<!-- Title: ExpressionFunction.hpp Pages: 1 -->
<svg width="374pt" height="88pt"
 viewBox="0.00 0.00 374.00 88.00" xmlns="http://www.w3.org/2000/svg" xmlns:xlink="http://www.w3.org/1999/xlink">
<g id="graph0" class="graph" transform="scale(1 1) rotate(0) translate(4 84)">
<title>ExpressionFunction.hpp</title>
<polygon fill="white" stroke="white" points="-4,5 -4,-84 371,-84 371,5 -4,5"/>
<!-- Node1 -->
<g id="node1" class="node"><title>Node1</title>
<g id="a_node1"><a xlink:title=" ">
<polygon fill="#bfbfbf" stroke="black" points="100.357,-59 100.357,-79 223.643,-79 223.643,-59 100.357,-59"/>
<text text-anchor="middle" x="162" y="-65" font-family="Helvetica,sans-Serif" font-size="10.00">ExpressionFunction.hpp</text>
</a>
</g>
</g>
<!-- Node2 -->
<g id="node2" class="node"><title>Node2</title>
<g id="a_node2"><a xlink:href="_source_file_8cpp.html" target="_top" xlink:title=" ">
<polygon fill="white" stroke="black" points="-0.349609,-1 -0.349609,-21 82.3496,-21 82.3496,-1 -0.349609,-1"/>
<text text-anchor="middle" x="41" y="-7" font-family="Helvetica,sans-Serif" font-size="10.00">SourceFile.cpp</text>
</a>
</g>
</g>
<!-- Node1&#45;&gt;Node2 -->
<g id="edge1" class="edge"><title>Node1&#45;&gt;Node2</title>
<path fill="none" stroke="midnightblue" d="M132.947,-54.5538C110.59,-44.2069 80.2988,-30.1879 60.7016,-21.1181"/>
<polygon fill="midnightblue" stroke="midnightblue" points="131.745,-57.8542 142.29,-58.878 134.685,-51.5015 131.745,-57.8542"/>
</g>
<!-- Node3 -->
<g id="node3" class="node"><title>Node3</title>
<g id="a_node3"><a xlink:href="_expression_function_8cpp.html" target="_top" xlink:title=" ">
<polygon fill="white" stroke="black" points="100.638,-1 100.638,-21 223.362,-21 223.362,-1 100.638,-1"/>
<text text-anchor="middle" x="162" y="-7" font-family="Helvetica,sans-Serif" font-size="10.00">ExpressionFunction.cpp</text>
</a>
</g>
</g>
<!-- Node1&#45;&gt;Node3 -->
<g id="edge2" class="edge"><title>Node1&#45;&gt;Node3</title>
<path fill="none" stroke="midnightblue" d="M162,-48.7065C162,-39.3384 162,-28.5262 162,-21.0752"/>
<polygon fill="midnightblue" stroke="midnightblue" points="158.5,-48.7527 162,-58.7527 165.5,-48.7528 158.5,-48.7527"/>
</g>
<!-- Node4 -->
<g id="node4" class="node"><title>Node4</title>
<g id="a_node4"><a xlink:href="_virtual_function_table_8cpp.html" target="_top" xlink:title=" ">
<polygon fill="white" stroke="black" points="241.334,-1 241.334,-21 366.666,-21 366.666,-1 241.334,-1"/>
<text text-anchor="middle" x="304" y="-7" font-family="Helvetica,sans-Serif" font-size="10.00">VirtualFunctionTable.cpp</text>
</a>
</g>
</g>
<!-- Node1&#45;&gt;Node4 -->
<g id="edge3" class="edge"><title>Node1&#45;&gt;Node4</title>
<path fill="none" stroke="midnightblue" d="M194.693,-55.1069C221.053,-44.7114 257.468,-30.3505 280.879,-21.1181"/>
<polygon fill="midnightblue" stroke="midnightblue" points="193.149,-51.9533 185.131,-58.878 195.718,-58.4652 193.149,-51.9533"/>
</g>
</g>
</svg>
