<?xml version="1.0" encoding="UTF-8" standalone="no"?>
<!DOCTYPE svg PUBLIC "-//W3C//DTD SVG 1.1//EN"
 "http://www.w3.org/Graphics/SVG/1.1/DTD/svg11.dtd">
<!-- Generated by graphviz version 12.1.0 (20240811.2233)
 -->
<!-- Title: ExpressionDotVariable.hpp Pages: 1 -->
<svg width="536pt" height="85pt"
 viewBox="0.00 0.00 536.25 84.50" xmlns="http://www.w3.org/2000/svg" xmlns:xlink="http://www.w3.org/1999/xlink">
<g id="graph0" class="graph" transform="scale(1 1) rotate(0) translate(4 80.5)">
<title>ExpressionDotVariable.hpp</title>
<polygon fill="white" stroke="none" points="-4,4 -4,-80.5 532.25,-80.5 532.25,4 -4,4"/>
<!-- Node1 -->
<g id="node1" class="node">
<title>Node1</title>
<g id="a_node1"><a xlink:title=" ">
<polygon fill="#bfbfbf" stroke="black" points="175.75,-56.75 175.75,-76 309.5,-76 309.5,-56.75 175.75,-56.75"/>
<text text-anchor="middle" x="242.62" y="-62.5" font-family="Helvetica,sans-Serif" font-size="10.00">ExpressionDotVariable.hpp</text>
</a>
</g>
</g>
<!-- Node2 -->
<g id="node2" class="node">
<title>Node2</title>
<g id="a_node2"><a xlink:href="_source_file_8cpp.html" target="_top" xlink:title=" ">
<polygon fill="white" stroke="black" points="0,-0.5 0,-19.75 81.25,-19.75 81.25,-0.5 0,-0.5"/>
<text text-anchor="middle" x="40.62" y="-6.25" font-family="Helvetica,sans-Serif" font-size="10.00">SourceFile.cpp</text>
</a>
</g>
</g>
<!-- Node1&#45;&gt;Node2 -->
<g id="edge1" class="edge">
<title>Node1&#45;&gt;Node2</title>
<path fill="none" stroke="midnightblue" d="M197.77,-53.33C160.54,-43.33 108.38,-29.32 74.55,-20.23"/>
<polygon fill="midnightblue" stroke="midnightblue" points="196.79,-56.69 207.35,-55.9 198.6,-49.93 196.79,-56.69"/>
</g>
<!-- Node3 -->
<g id="node3" class="node">
<title>Node3</title>
<g id="a_node3"><a xlink:href="_rexx_variable_dictionary_8cpp.html" target="_top" xlink:title=" ">
<polygon fill="white" stroke="black" points="99,-0.5 99,-19.75 234.25,-19.75 234.25,-0.5 99,-0.5"/>
<text text-anchor="middle" x="166.62" y="-6.25" font-family="Helvetica,sans-Serif" font-size="10.00">RexxVariableDictionary.cpp</text>
</a>
</g>
</g>
<!-- Node1&#45;&gt;Node3 -->
<g id="edge2" class="edge">
<title>Node1&#45;&gt;Node3</title>
<path fill="none" stroke="midnightblue" d="M220.97,-49.91C207.45,-40.27 190.53,-28.19 179.19,-20.1"/>
<polygon fill="midnightblue" stroke="midnightblue" points="218.67,-52.58 228.84,-55.54 222.74,-46.88 218.67,-52.58"/>
</g>
<!-- Node4 -->
<g id="node4" class="node">
<title>Node4</title>
<g id="a_node4"><a xlink:href="_expression_dot_variable_8cpp.html" target="_top" xlink:title=" ">
<polygon fill="white" stroke="black" points="252.75,-0.5 252.75,-19.75 386.5,-19.75 386.5,-0.5 252.75,-0.5"/>
<text text-anchor="middle" x="319.62" y="-6.25" font-family="Helvetica,sans-Serif" font-size="10.00">ExpressionDotVariable.cpp</text>
</a>
</g>
</g>
<!-- Node1&#45;&gt;Node4 -->
<g id="edge3" class="edge">
<title>Node1&#45;&gt;Node4</title>
<path fill="none" stroke="midnightblue" d="M264.57,-49.91C278.26,-40.27 295.4,-28.19 306.89,-20.1"/>
<polygon fill="midnightblue" stroke="midnightblue" points="262.74,-46.92 256.58,-55.54 266.77,-52.65 262.74,-46.92"/>
</g>
<!-- Node5 -->
<g id="node5" class="node">
<title>Node5</title>
<g id="a_node5"><a xlink:href="_virtual_function_table_8cpp.html" target="_top" xlink:title=" ">
<polygon fill="white" stroke="black" points="405,-0.5 405,-19.75 528.25,-19.75 528.25,-0.5 405,-0.5"/>
<text text-anchor="middle" x="466.62" y="-6.25" font-family="Helvetica,sans-Serif" font-size="10.00">VirtualFunctionTable.cpp</text>
</a>
</g>
</g>
<!-- Node1&#45;&gt;Node5 -->
<g id="edge4" class="edge">
<title>Node1&#45;&gt;Node5</title>
<path fill="none" stroke="midnightblue" d="M291.3,-53.59C332.65,-43.57 391.17,-29.4 429.01,-20.23"/>
<polygon fill="midnightblue" stroke="midnightblue" points="290.48,-50.18 281.59,-55.94 292.13,-56.99 290.48,-50.18"/>
</g>
</g>
</svg>
