<?xml version="1.0" encoding="UTF-8" standalone="no"?>
<!DOCTYPE svg PUBLIC "-//W3C//DTD SVG 1.1//EN"
 "http://www.w3.org/Graphics/SVG/1.1/DTD/svg11.dtd">
<!-- Generated by graphviz version 12.1.0 (20240811.2233)
 -->
<!-- Title: ExtensionDirective.hpp Pages: 1 -->
<svg width="365pt" height="85pt"
 viewBox="0.00 0.00 365.25 84.50" xmlns="http://www.w3.org/2000/svg" xmlns:xlink="http://www.w3.org/1999/xlink">
<g id="graph0" class="graph" transform="scale(1 1) rotate(0) translate(4 80.5)">
<title>ExtensionDirective.hpp</title>
<polygon fill="white" stroke="none" points="-4,4 -4,-80.5 361.25,-80.5 361.25,4 -4,4"/>
<!-- Node1 -->
<g id="node1" class="node">
<title>Node1</title>
<g id="a_node1"><a xlink:title=" ">
<polygon fill="#bfbfbf" stroke="black" points="117,-56.75 117,-76 234.25,-76 234.25,-56.75 117,-56.75"/>
<text text-anchor="middle" x="175.62" y="-62.5" font-family="Helvetica,sans-Serif" font-size="10.00">ExtensionDirective.hpp</text>
</a>
</g>
</g>
<!-- Node2 -->
<g id="node2" class="node">
<title>Node2</title>
<g id="a_node2"><a xlink:href="_extension_directive_8cpp.html" target="_top" xlink:title=" ">
<polygon fill="white" stroke="black" points="0,-0.5 0,-19.75 117.25,-19.75 117.25,-0.5 0,-0.5"/>
<text text-anchor="middle" x="58.62" y="-6.25" font-family="Helvetica,sans-Serif" font-size="10.00">ExtensionDirective.cpp</text>
</a>
</g>
</g>
<!-- Node1&#45;&gt;Node2 -->
<g id="edge1" class="edge">
<title>Node1&#45;&gt;Node2</title>
<path fill="none" stroke="midnightblue" d="M145.65,-51.48C124.47,-41.66 96.69,-28.77 78.27,-20.23"/>
<polygon fill="midnightblue" stroke="midnightblue" points="144.12,-54.63 154.67,-55.66 147.07,-48.28 144.12,-54.63"/>
</g>
<!-- Node3 -->
<g id="node3" class="node">
<title>Node3</title>
<g id="a_node3"><a xlink:href="_source_file_8cpp.html" target="_top" xlink:title=" ">
<polygon fill="white" stroke="black" points="135,-0.5 135,-19.75 216.25,-19.75 216.25,-0.5 135,-0.5"/>
<text text-anchor="middle" x="175.62" y="-6.25" font-family="Helvetica,sans-Serif" font-size="10.00">SourceFile.cpp</text>
</a>
</g>
</g>
<!-- Node1&#45;&gt;Node3 -->
<g id="edge2" class="edge">
<title>Node1&#45;&gt;Node3</title>
<path fill="none" stroke="midnightblue" d="M175.62,-45.19C175.62,-36.48 175.62,-26.74 175.62,-19.92"/>
<polygon fill="midnightblue" stroke="midnightblue" points="172.13,-44.9 175.63,-54.9 179.13,-44.9 172.13,-44.9"/>
</g>
<!-- Node4 -->
<g id="node4" class="node">
<title>Node4</title>
<g id="a_node4"><a xlink:href="_virtual_function_table_8cpp.html" target="_top" xlink:title=" ">
<polygon fill="white" stroke="black" points="234,-0.5 234,-19.75 357.25,-19.75 357.25,-0.5 234,-0.5"/>
<text text-anchor="middle" x="295.62" y="-6.25" font-family="Helvetica,sans-Serif" font-size="10.00">VirtualFunctionTable.cpp</text>
</a>
</g>
</g>
<!-- Node1&#45;&gt;Node4 -->
<g id="edge3" class="edge">
<title>Node1&#45;&gt;Node4</title>
<path fill="none" stroke="midnightblue" d="M206.07,-51.61C227.83,-41.78 256.5,-28.81 275.47,-20.23"/>
<polygon fill="midnightblue" stroke="midnightblue" points="204.76,-48.36 197.09,-55.67 207.64,-54.74 204.76,-48.36"/>
</g>
</g>
</svg>
