<?xml version="1.0" encoding="UTF-8" standalone="no"?>
<!DOCTYPE svg PUBLIC "-//W3C//DTD SVG 1.1//EN"
 "http://www.w3.org/Graphics/SVG/1.1/DTD/svg11.dtd">
<!-- Generated by graphviz version 2.30.1 (20130222.1704)
 -->
<!-- Title: GlobalNames.cpp Pages: 1 -->
<svg width="2742pt" height="378pt"
 viewBox="0.00 0.00 2742.00 378.00" xmlns="http://www.w3.org/2000/svg" xmlns:xlink="http://www.w3.org/1999/xlink">
<g id="graph0" class="graph" transform="scale(1 1) rotate(0) translate(4 374)">
<title>GlobalNames.cpp</title>
<polygon fill="white" stroke="white" points="-4,5 -4,-374 2739,-374 2739,5 -4,5"/>
<!-- Node1 -->
<g id="node1" class="node"><title>Node1</title>
<g id="a_node1"><a xlink:title=" ">
<polygon fill="#bfbfbf" stroke="black" points="2511.26,-349 2511.26,-369 2606.74,-369 2606.74,-349 2511.26,-349"/>
<text text-anchor="middle" x="2559" y="-355" font-family="Helvetica,sans-Serif" font-size="10.00">GlobalNames.cpp</text>
</a>
</g>
</g>
<!-- Node2 -->
<g id="node2" class="node"><title>Node2</title>
<g id="a_node2"><a xlink:href="_rexx_core_8h.html" target="_top" xlink:title=" ">
<polygon fill="white" stroke="black" points="1598.6,-291 1598.6,-311 1667.4,-311 1667.4,-291 1598.6,-291"/>
<text text-anchor="middle" x="1633" y="-297" font-family="Helvetica,sans-Serif" font-size="10.00">RexxCore.h</text>
</a>
</g>
</g>
<!-- Node1&#45;&gt;Node2 -->
<g id="edge1" class="edge"><title>Node1&#45;&gt;Node2</title>
<path fill="none" stroke="midnightblue" d="M2511.16,-355.107C2350.78,-345.408 1833.48,-314.124 1677.76,-304.707"/>
<polygon fill="midnightblue" stroke="midnightblue" points="1677.8,-301.203 1667.61,-304.093 1677.38,-308.19 1677.8,-301.203"/>
</g>
<!-- Node68 -->
<g id="node50" class="node"><title>Node68</title>
<g id="a_node50"><a xlink:href="_directory_class_8hpp.html" target="_top" xlink:title=" ">
<polygon fill="white" stroke="black" points="2633.76,-291 2633.76,-311 2734.24,-311 2734.24,-291 2633.76,-291"/>
<text text-anchor="middle" x="2684" y="-297" font-family="Helvetica,sans-Serif" font-size="10.00">DirectoryClass.hpp</text>
</a>
</g>
</g>
<!-- Node1&#45;&gt;Node68 -->
<g id="edge55" class="edge"><title>Node1&#45;&gt;Node68</title>
<path fill="none" stroke="midnightblue" d="M2579.36,-348.878C2599.7,-339.766 2631.18,-325.662 2654.31,-315.303"/>
<polygon fill="midnightblue" stroke="midnightblue" points="2655.95,-318.401 2663.65,-311.118 2653.09,-312.013 2655.95,-318.401"/>
</g>
<!-- Node45 -->
<g id="node40" class="node"><title>Node45</title>
<g id="a_node40"><a xlink:href="_array_class_8hpp.html" target="_top" xlink:title=" ">
<polygon fill="white" stroke="black" points="2059.82,-117 2059.82,-137 2144.18,-137 2144.18,-117 2059.82,-117"/>
<text text-anchor="middle" x="2102" y="-123" font-family="Helvetica,sans-Serif" font-size="10.00">ArrayClass.hpp</text>
</a>
</g>
</g>
<!-- Node1&#45;&gt;Node45 -->
<g id="edge57" class="edge"><title>Node1&#45;&gt;Node45</title>
<path fill="none" stroke="midnightblue" d="M2564.7,-348.895C2582.39,-319.35 2632.49,-225.115 2586,-174 2557.37,-142.525 2273.61,-132.095 2154.36,-129.084"/>
<polygon fill="midnightblue" stroke="midnightblue" points="2154.44,-125.585 2144.36,-128.84 2154.27,-132.583 2154.44,-125.585"/>
</g>
<!-- Node20 -->
<g id="node18" class="node"><title>Node20</title>
<g id="a_node18"><a xlink:href="_global_names_8h.html" target="_top" xlink:title=" ">
<polygon fill="white" stroke="black" points="2416.54,-233 2416.54,-253 2501.46,-253 2501.46,-233 2416.54,-233"/>
<text text-anchor="middle" x="2459" y="-239" font-family="Helvetica,sans-Serif" font-size="10.00">GlobalNames.h</text>
</a>
</g>
</g>
<!-- Node1&#45;&gt;Node20 -->
<g id="edge58" class="edge"><title>Node1&#45;&gt;Node20</title>
<path fill="none" stroke="midnightblue" d="M2550.82,-348.671C2533.96,-329.453 2495.15,-285.217 2473.78,-260.854"/>
<polygon fill="midnightblue" stroke="midnightblue" points="2476.24,-258.349 2467.02,-253.139 2470.98,-262.965 2476.24,-258.349"/>
</g>
<!-- Node3 -->
<g id="node3" class="node"><title>Node3</title>
<g id="a_node3"><a xlink:href="oorexxapi_8h.html" target="_top" xlink:title=" ">
<polygon fill="white" stroke="black" points="921.15,-233 921.15,-253 988.85,-253 988.85,-233 921.15,-233"/>
<text text-anchor="middle" x="955" y="-239" font-family="Helvetica,sans-Serif" font-size="10.00">oorexxapi.h</text>
</a>
</g>
</g>
<!-- Node2&#45;&gt;Node3 -->
<g id="edge2" class="edge"><title>Node2&#45;&gt;Node3</title>
<path fill="none" stroke="midnightblue" d="M1598.37,-299.388C1503.8,-297.315 1233.12,-288.698 999.23,-253.968"/>
<polygon fill="midnightblue" stroke="midnightblue" points="999.584,-250.482 989.174,-252.455 998.542,-257.404 999.584,-250.482"/>
</g>
<!-- Node10 -->
<g id="node8" class="node"><title>Node10</title>
<g id="a_node8"><a xlink:title=" ">
<polygon fill="white" stroke="#bfbfbf" points="1701.27,-233 1701.27,-253 1746.73,-253 1746.73,-233 1701.27,-233"/>
<text text-anchor="middle" x="1724" y="-239" font-family="Helvetica,sans-Serif" font-size="10.00">stdio.h</text>
</a>
</g>
</g>
<!-- Node2&#45;&gt;Node10 -->
<g id="edge7" class="edge"><title>Node2&#45;&gt;Node10</title>
<path fill="none" stroke="midnightblue" d="M1648.03,-290.753C1662.34,-281.946 1684.09,-268.558 1700.66,-258.362"/>
<polygon fill="midnightblue" stroke="midnightblue" points="1702.57,-261.297 1709.25,-253.075 1698.9,-255.335 1702.57,-261.297"/>
</g>
<!-- Node11 -->
<g id="node9" class="node"><title>Node11</title>
<g id="a_node9"><a xlink:title=" ">
<polygon fill="white" stroke="#bfbfbf" points="1764.93,-233 1764.93,-253 1817.07,-253 1817.07,-233 1764.93,-233"/>
<text text-anchor="middle" x="1791" y="-239" font-family="Helvetica,sans-Serif" font-size="10.00">stdarg.h</text>
</a>
</g>
</g>
<!-- Node2&#45;&gt;Node11 -->
<g id="edge8" class="edge"><title>Node2&#45;&gt;Node11</title>
<path fill="none" stroke="midnightblue" d="M1658.74,-290.878C1685.21,-281.494 1726.63,-266.815 1756.05,-256.386"/>
<polygon fill="midnightblue" stroke="midnightblue" points="1757.28,-259.665 1765.54,-253.025 1754.94,-253.067 1757.28,-259.665"/>
</g>
<!-- Node12 -->
<g id="node10" class="node"><title>Node12</title>
<g id="a_node10"><a xlink:title=" ">
<polygon fill="white" stroke="#bfbfbf" points="2142.6,-233 2142.6,-253 2191.4,-253 2191.4,-233 2142.6,-233"/>
<text text-anchor="middle" x="2167" y="-239" font-family="Helvetica,sans-Serif" font-size="10.00">string.h</text>
</a>
</g>
</g>
<!-- Node2&#45;&gt;Node12 -->
<g id="edge9" class="edge"><title>Node2&#45;&gt;Node12</title>
<path fill="none" stroke="midnightblue" d="M1667.66,-299.229C1748.06,-296.93 1953.45,-288.108 2132.42,-253.991"/>
<polygon fill="midnightblue" stroke="midnightblue" points="2133.12,-257.42 2142.27,-252.082 2131.79,-250.548 2133.12,-257.42"/>
</g>
<!-- Node13 -->
<g id="node11" class="node"><title>Node13</title>
<g id="a_node11"><a xlink:title=" ">
<polygon fill="white" stroke="#bfbfbf" points="2209.88,-233 2209.88,-253 2258.12,-253 2258.12,-233 2209.88,-233"/>
<text text-anchor="middle" x="2234" y="-239" font-family="Helvetica,sans-Serif" font-size="10.00">ctype.h</text>
</a>
</g>
</g>
<!-- Node2&#45;&gt;Node13 -->
<g id="edge10" class="edge"><title>Node2&#45;&gt;Node13</title>
<path fill="none" stroke="midnightblue" d="M1667.52,-299.654C1755.07,-298.258 1992.87,-291.221 2199.5,-253.686"/>
<polygon fill="midnightblue" stroke="midnightblue" points="2200.43,-257.074 2209.63,-251.818 2199.16,-250.191 2200.43,-257.074"/>
</g>
<!-- Node14 -->
<g id="node12" class="node"><title>Node14</title>
<g id="a_node12"><a xlink:title=" ">
<polygon fill="white" stroke="#bfbfbf" points="2276.44,-233 2276.44,-253 2323.56,-253 2323.56,-233 2276.44,-233"/>
<text text-anchor="middle" x="2300" y="-239" font-family="Helvetica,sans-Serif" font-size="10.00">limits.h</text>
</a>
</g>
</g>
<!-- Node2&#45;&gt;Node14 -->
<g id="edge11" class="edge"><title>Node2&#45;&gt;Node14</title>
<path fill="none" stroke="midnightblue" d="M1667.7,-300.169C1762.46,-300.062 2033.48,-295.966 2266.35,-253.694"/>
<polygon fill="midnightblue" stroke="midnightblue" points="2267.16,-257.104 2276.36,-251.849 2265.89,-250.22 2267.16,-257.104"/>
</g>
<!-- Node15 -->
<g id="node13" class="node"><title>Node15</title>
<g id="a_node13"><a xlink:href="_rexx_platform_definitions_8h.html" target="_top" xlink:title=" ">
<polygon fill="white" stroke="black" points="100.478,-233 100.478,-253 231.522,-253 231.522,-233 100.478,-233"/>
<text text-anchor="middle" x="166" y="-239" font-family="Helvetica,sans-Serif" font-size="10.00">RexxPlatformDefinitions.h</text>
</a>
</g>
</g>
<!-- Node2&#45;&gt;Node15 -->
<g id="edge12" class="edge"><title>Node2&#45;&gt;Node15</title>
<path fill="none" stroke="midnightblue" d="M1598.36,-300.013C1441.69,-299.83 783.712,-296.435 246,-254 244.705,-253.898 243.399,-253.79 242.084,-253.677"/>
<polygon fill="midnightblue" stroke="midnightblue" points="242.156,-250.168 231.873,-252.717 241.501,-257.138 242.156,-250.168"/>
</g>
<!-- Node18 -->
<g id="node16" class="node"><title>Node18</title>
<g id="a_node16"><a xlink:href="_rexx_constants_8hpp.html" target="_top" xlink:title=" ">
<polygon fill="white" stroke="black" points="288.365,-233 288.365,-253 391.635,-253 391.635,-233 288.365,-233"/>
<text text-anchor="middle" x="340" y="-239" font-family="Helvetica,sans-Serif" font-size="10.00">RexxConstants.hpp</text>
</a>
</g>
</g>
<!-- Node2&#45;&gt;Node18 -->
<g id="edge15" class="edge"><title>Node2&#45;&gt;Node18</title>
<path fill="none" stroke="midnightblue" d="M1598.26,-300.131C1452.57,-300.377 876.622,-298.332 406,-254 404.702,-253.878 403.391,-253.747 402.069,-253.608"/>
<polygon fill="midnightblue" stroke="midnightblue" points="402.15,-250.094 391.813,-252.415 401.341,-257.047 402.15,-250.094"/>
</g>
<!-- Node19 -->
<g id="node17" class="node"><title>Node19</title>
<g id="a_node17"><a xlink:href="_class_type_codes_8h.html" target="_top" xlink:title=" ">
<polygon fill="white" stroke="black" points="511.032,-117 511.032,-137 610.968,-137 610.968,-117 511.032,-117"/>
<text text-anchor="middle" x="561" y="-123" font-family="Helvetica,sans-Serif" font-size="10.00">ClassTypeCodes.h</text>
</a>
</g>
</g>
<!-- Node2&#45;&gt;Node19 -->
<g id="edge16" class="edge"><title>Node2&#45;&gt;Node19</title>
<path fill="none" stroke="midnightblue" d="M1598.38,-299.334C1439.36,-296.144 778.051,-281.452 573,-254 544.093,-250.13 335.203,-218.788 317,-196 310.898,-188.36 310.759,-181.527 317,-174 328.678,-159.914 432.192,-144.279 500.59,-135.345"/>
<polygon fill="midnightblue" stroke="midnightblue" points="501.359,-138.775 510.829,-134.023 500.463,-131.832 501.359,-138.775"/>
</g>
<!-- Node2&#45;&gt;Node20 -->
<g id="edge17" class="edge"><title>Node2&#45;&gt;Node20</title>
<path fill="none" stroke="midnightblue" d="M1667.56,-297.884C1769.36,-291.616 2076.97,-272.432 2332,-254 2356.39,-252.237 2383.4,-250.132 2406.22,-248.309"/>
<polygon fill="midnightblue" stroke="midnightblue" points="2406.7,-251.782 2416.39,-247.493 2406.14,-244.804 2406.7,-251.782"/>
</g>
<!-- Node21 -->
<g id="node19" class="node"><title>Node21</title>
<g id="a_node19"><a xlink:href="_object_class_8hpp.html" target="_top" xlink:title=" ">
<polygon fill="white" stroke="black" points="1007.32,-233 1007.32,-253 1096.68,-253 1096.68,-233 1007.32,-233"/>
<text text-anchor="middle" x="1052" y="-239" font-family="Helvetica,sans-Serif" font-size="10.00">ObjectClass.hpp</text>
</a>
</g>
</g>
<!-- Node2&#45;&gt;Node21 -->
<g id="edge18" class="edge"><title>Node2&#45;&gt;Node21</title>
<path fill="none" stroke="midnightblue" d="M1598.34,-298.13C1515.31,-293.404 1298.32,-279.592 1106.71,-253.974"/>
<polygon fill="midnightblue" stroke="midnightblue" points="1107.11,-250.497 1096.74,-252.627 1106.18,-257.434 1107.11,-250.497"/>
</g>
<!-- Node24 -->
<g id="node22" class="node"><title>Node24</title>
<g id="a_node22"><a xlink:href="_table_class_8hpp.html" target="_top" xlink:title=" ">
<polygon fill="white" stroke="black" points="341.813,-117 341.813,-137 426.187,-137 426.187,-117 341.813,-117"/>
<text text-anchor="middle" x="384" y="-123" font-family="Helvetica,sans-Serif" font-size="10.00">TableClass.hpp</text>
</a>
</g>
</g>
<!-- Node2&#45;&gt;Node24 -->
<g id="edge21" class="edge"><title>Node2&#45;&gt;Node24</title>
<path fill="none" stroke="midnightblue" d="M1598.47,-300.165C1391.83,-300.99 326.227,-302.858 279,-254 257.439,-231.694 289.494,-194.98 309,-174 321.456,-160.602 338.673,-149.672 353.469,-141.833"/>
<polygon fill="midnightblue" stroke="midnightblue" points="355.422,-144.768 362.769,-137.134 352.265,-138.52 355.422,-144.768"/>
</g>
<!-- Node27 -->
<g id="node25" class="node"><title>Node27</title>
<g id="a_node25"><a xlink:href="_stack_class_8hpp.html" target="_top" xlink:title=" ">
<polygon fill="white" stroke="black" points="1255.26,-233 1255.26,-253 1340.74,-253 1340.74,-233 1255.26,-233"/>
<text text-anchor="middle" x="1298" y="-239" font-family="Helvetica,sans-Serif" font-size="10.00">StackClass.hpp</text>
</a>
</g>
</g>
<!-- Node2&#45;&gt;Node27 -->
<g id="edge24" class="edge"><title>Node2&#45;&gt;Node27</title>
<path fill="none" stroke="midnightblue" d="M1598.53,-294.726C1547.01,-286.77 1446.61,-270.993 1350.97,-254.132"/>
<polygon fill="midnightblue" stroke="midnightblue" points="1351.29,-250.635 1340.83,-252.338 1350.07,-257.528 1351.29,-250.635"/>
</g>
<!-- Node28 -->
<g id="node26" class="node"><title>Node28</title>
<g id="a_node26"><a xlink:href="_rexx_memory_8hpp.html" target="_top" xlink:title=" ">
<polygon fill="white" stroke="black" points="582.189,-233 582.189,-253 675.811,-253 675.811,-233 582.189,-233"/>
<text text-anchor="middle" x="629" y="-239" font-family="Helvetica,sans-Serif" font-size="10.00">RexxMemory.hpp</text>
</a>
</g>
</g>
<!-- Node2&#45;&gt;Node28 -->
<g id="edge25" class="edge"><title>Node2&#45;&gt;Node28</title>
<path fill="none" stroke="midnightblue" d="M1598.44,-298.072C1450.64,-289.828 870.832,-257.489 685.964,-247.177"/>
<polygon fill="midnightblue" stroke="midnightblue" points="686.087,-243.679 675.908,-246.616 685.698,-250.668 686.087,-243.679"/>
</g>
<!-- Node35 -->
<g id="node31" class="node"><title>Node35</title>
<g id="a_node31"><a xlink:href="_rexx_behaviour_8hpp.html" target="_top" xlink:title=" ">
<polygon fill="white" stroke="black" points="1358.64,-233 1358.64,-253 1461.36,-253 1461.36,-233 1358.64,-233"/>
<text text-anchor="middle" x="1410" y="-239" font-family="Helvetica,sans-Serif" font-size="10.00">RexxBehaviour.hpp</text>
</a>
</g>
</g>
<!-- Node2&#45;&gt;Node35 -->
<g id="edge33" class="edge"><title>Node2&#45;&gt;Node35</title>
<path fill="none" stroke="midnightblue" d="M1598.16,-291.25C1559.83,-281.624 1498.07,-266.116 1455.84,-255.51"/>
<polygon fill="midnightblue" stroke="midnightblue" points="1456.63,-252.101 1446.08,-253.06 1454.92,-258.89 1456.63,-252.101"/>
</g>
<!-- Node37 -->
<g id="node33" class="node"><title>Node37</title>
<g id="a_node33"><a xlink:href="_class_class_8hpp.html" target="_top" xlink:title=" ">
<polygon fill="white" stroke="black" points="1479.26,-233 1479.26,-253 1564.74,-253 1564.74,-233 1479.26,-233"/>
<text text-anchor="middle" x="1522" y="-239" font-family="Helvetica,sans-Serif" font-size="10.00">ClassClass.hpp</text>
</a>
</g>
</g>
<!-- Node2&#45;&gt;Node37 -->
<g id="edge35" class="edge"><title>Node2&#45;&gt;Node37</title>
<path fill="none" stroke="midnightblue" d="M1614.67,-290.753C1596.81,-281.742 1569.44,-267.935 1549.07,-257.659"/>
<polygon fill="midnightblue" stroke="midnightblue" points="1550.49,-254.455 1539.99,-253.075 1547.34,-260.704 1550.49,-254.455"/>
</g>
<!-- Node38 -->
<g id="node34" class="node"><title>Node38</title>
<g id="a_node34"><a xlink:href="_rexx_envelope_8hpp.html" target="_top" xlink:title=" ">
<polygon fill="white" stroke="black" points="1583.03,-233 1583.03,-253 1682.97,-253 1682.97,-233 1583.03,-233"/>
<text text-anchor="middle" x="1633" y="-239" font-family="Helvetica,sans-Serif" font-size="10.00">RexxEnvelope.hpp</text>
</a>
</g>
</g>
<!-- Node2&#45;&gt;Node38 -->
<g id="edge36" class="edge"><title>Node2&#45;&gt;Node38</title>
<path fill="none" stroke="midnightblue" d="M1633,-290.753C1633,-283.25 1633,-272.424 1633,-263.078"/>
<polygon fill="midnightblue" stroke="midnightblue" points="1636.5,-263.075 1633,-253.075 1629.5,-263.075 1636.5,-263.075"/>
</g>
<!-- Node39 -->
<g id="node35" class="node"><title>Node39</title>
<g id="a_node35"><a xlink:href="_rexx_activity_8hpp.html" target="_top" xlink:title=" ">
<polygon fill="white" stroke="black" points="1835.41,-233 1835.41,-253 1924.59,-253 1924.59,-233 1835.41,-233"/>
<text text-anchor="middle" x="1880" y="-239" font-family="Helvetica,sans-Serif" font-size="10.00">RexxActivity.hpp</text>
</a>
</g>
</g>
<!-- Node2&#45;&gt;Node39 -->
<g id="edge37" class="edge"><title>Node2&#45;&gt;Node39</title>
<path fill="none" stroke="midnightblue" d="M1667.6,-292.154C1709.87,-282.571 1781.69,-266.288 1829.97,-255.342"/>
<polygon fill="midnightblue" stroke="midnightblue" points="1830.92,-258.716 1839.9,-253.091 1829.37,-251.889 1830.92,-258.716"/>
</g>
<!-- Node50 -->
<g id="node46" class="node"><title>Node50</title>
<g id="a_node46"><a xlink:href="_number_string_class_8hpp.html" target="_top" xlink:title=" ">
<polygon fill="white" stroke="black" points="1114.92,-233 1114.92,-253 1237.08,-253 1237.08,-233 1114.92,-233"/>
<text text-anchor="middle" x="1176" y="-239" font-family="Helvetica,sans-Serif" font-size="10.00">NumberStringClass.hpp</text>
</a>
</g>
</g>
<!-- Node2&#45;&gt;Node50 -->
<g id="edge50" class="edge"><title>Node2&#45;&gt;Node50</title>
<path fill="none" stroke="midnightblue" d="M1598.54,-296.18C1532.54,-288.805 1383.5,-271.861 1247.62,-254.19"/>
<polygon fill="midnightblue" stroke="midnightblue" points="1247.82,-250.686 1237.45,-252.862 1246.91,-257.627 1247.82,-250.686"/>
</g>
<!-- Node66 -->
<g id="node48" class="node"><title>Node66</title>
<g id="a_node48"><a xlink:href="_activity_manager_8hpp.html" target="_top" xlink:title=" ">
<polygon fill="white" stroke="black" points="2018.97,-233 2018.97,-253 2125.03,-253 2125.03,-233 2018.97,-233"/>
<text text-anchor="middle" x="2072" y="-239" font-family="Helvetica,sans-Serif" font-size="10.00">ActivityManager.hpp</text>
</a>
</g>
</g>
<!-- Node2&#45;&gt;Node66 -->
<g id="edge53" class="edge"><title>Node2&#45;&gt;Node66</title>
<path fill="none" stroke="midnightblue" d="M1667.4,-296.039C1733.08,-288.411 1880.88,-270.934 2005,-254 2006.11,-253.849 2007.22,-253.695 2008.35,-253.54"/>
<polygon fill="midnightblue" stroke="midnightblue" points="2009.21,-256.953 2018.62,-252.09 2008.23,-250.021 2009.21,-256.953"/>
</g>
<!-- Node4 -->
<g id="node4" class="node"><title>Node4</title>
<g id="a_node4"><a xlink:href="rexx_8h.html" target="_top" xlink:title=" ">
<polygon fill="white" stroke="red" points="960.384,-175 960.384,-195 1003.62,-195 1003.62,-175 960.384,-175"/>
<text text-anchor="middle" x="982" y="-181" font-family="Helvetica,sans-Serif" font-size="10.00">rexx.h</text>
</a>
</g>
</g>
<!-- Node3&#45;&gt;Node4 -->
<g id="edge3" class="edge"><title>Node3&#45;&gt;Node4</title>
<path fill="none" stroke="midnightblue" d="M959.459,-232.753C963.194,-225.006 968.638,-213.714 973.24,-204.169"/>
<polygon fill="midnightblue" stroke="midnightblue" points="976.434,-205.603 977.624,-195.075 970.129,-202.563 976.434,-205.603"/>
</g>
<!-- Node9 -->
<g id="node7" class="node"><title>Node9</title>
<g id="a_node7"><a xlink:href="oorexxerrors_8h.html" target="_top" xlink:title=" ">
<polygon fill="white" stroke="black" points="823.766,-175 823.766,-195 904.234,-195 904.234,-175 823.766,-175"/>
<text text-anchor="middle" x="864" y="-181" font-family="Helvetica,sans-Serif" font-size="10.00">oorexxerrors.h</text>
</a>
</g>
</g>
<!-- Node3&#45;&gt;Node9 -->
<g id="edge6" class="edge"><title>Node3&#45;&gt;Node9</title>
<path fill="none" stroke="midnightblue" d="M939.973,-232.753C925.662,-223.946 903.906,-210.558 887.338,-200.362"/>
<polygon fill="midnightblue" stroke="midnightblue" points="889.098,-197.335 878.747,-195.075 885.429,-203.297 889.098,-197.335"/>
</g>
<!-- Node5 -->
<g id="node5" class="node"><title>Node5</title>
<g id="a_node5"><a xlink:title=" ">
<polygon fill="white" stroke="#bfbfbf" points="893.761,-117 893.761,-137 974.239,-137 974.239,-117 893.761,-117"/>
<text text-anchor="middle" x="934" y="-123" font-family="Helvetica,sans-Serif" font-size="10.00">rexxapitypes.h</text>
</a>
</g>
</g>
<!-- Node4&#45;&gt;Node5 -->
<g id="edge4" class="edge"><title>Node4&#45;&gt;Node5</title>
<path fill="none" stroke="midnightblue" d="M974.074,-174.753C967.084,-166.598 956.728,-154.516 948.294,-144.677"/>
<polygon fill="midnightblue" stroke="midnightblue" points="950.944,-142.39 941.779,-137.075 945.629,-146.946 950.944,-142.39"/>
</g>
<!-- Node6 -->
<g id="node6" class="node"><title>Node6</title>
<g id="a_node6"><a xlink:href="rexxapidefs_8h.html" target="_top" xlink:title=" ">
<polygon fill="white" stroke="black" points="992.261,-117 992.261,-137 1067.74,-137 1067.74,-117 992.261,-117"/>
<text text-anchor="middle" x="1030" y="-123" font-family="Helvetica,sans-Serif" font-size="10.00">rexxapidefs.h</text>
</a>
</g>
</g>
<!-- Node4&#45;&gt;Node6 -->
<g id="edge5" class="edge"><title>Node4&#45;&gt;Node6</title>
<path fill="none" stroke="midnightblue" d="M989.926,-174.753C996.916,-166.598 1007.27,-154.516 1015.71,-144.677"/>
<polygon fill="midnightblue" stroke="midnightblue" points="1018.37,-146.946 1022.22,-137.075 1013.06,-142.39 1018.37,-146.946"/>
</g>
<!-- Node16 -->
<g id="node14" class="node"><title>Node16</title>
<g id="a_node14"><a xlink:title=" ">
<polygon fill="white" stroke="#bfbfbf" points="-0.130371,-175 -0.130371,-195 108.13,-195 108.13,-175 -0.130371,-175"/>
<text text-anchor="middle" x="54" y="-181" font-family="Helvetica,sans-Serif" font-size="10.00">PlatformDefinitions.h</text>
</a>
</g>
</g>
<!-- Node15&#45;&gt;Node16 -->
<g id="edge13" class="edge"><title>Node15&#45;&gt;Node16</title>
<path fill="none" stroke="midnightblue" d="M147.505,-232.753C129.484,-223.742 101.871,-209.935 81.3178,-199.659"/>
<polygon fill="midnightblue" stroke="midnightblue" points="82.6599,-196.417 72.1504,-195.075 79.5294,-202.678 82.6599,-196.417"/>
</g>
<!-- Node17 -->
<g id="node15" class="node"><title>Node17</title>
<g id="a_node15"><a xlink:href="_rexx_error_codes_8h.html" target="_top" xlink:title=" ">
<polygon fill="white" stroke="black" points="125.875,-175 125.875,-195 224.125,-195 224.125,-175 125.875,-175"/>
<text text-anchor="middle" x="175" y="-181" font-family="Helvetica,sans-Serif" font-size="10.00">RexxErrorCodes.h</text>
</a>
</g>
</g>
<!-- Node15&#45;&gt;Node17 -->
<g id="edge14" class="edge"><title>Node15&#45;&gt;Node17</title>
<path fill="none" stroke="midnightblue" d="M167.486,-232.753C168.692,-225.25 170.432,-214.424 171.934,-205.078"/>
<polygon fill="midnightblue" stroke="midnightblue" points="175.41,-205.504 173.541,-195.075 168.499,-204.393 175.41,-205.504"/>
</g>
<!-- Node22 -->
<g id="node20" class="node"><title>Node22</title>
<g id="a_node20"><a xlink:href="_numerics_8hpp.html" target="_top" xlink:title=" ">
<polygon fill="white" stroke="black" points="1021.16,-175 1021.16,-195 1098.84,-195 1098.84,-175 1021.16,-175"/>
<text text-anchor="middle" x="1060" y="-181" font-family="Helvetica,sans-Serif" font-size="10.00">Numerics.hpp</text>
</a>
</g>
</g>
<!-- Node21&#45;&gt;Node22 -->
<g id="edge19" class="edge"><title>Node21&#45;&gt;Node22</title>
<path fill="none" stroke="midnightblue" d="M1053.32,-232.753C1054.39,-225.25 1055.94,-214.424 1057.27,-205.078"/>
<polygon fill="midnightblue" stroke="midnightblue" points="1060.75,-205.47 1058.7,-195.075 1053.82,-204.48 1060.75,-205.47"/>
</g>
<!-- Node23 -->
<g id="node21" class="node"><title>Node23</title>
<g id="a_node21"><a xlink:title=" ">
<polygon fill="white" stroke="#bfbfbf" points="774.209,-117 774.209,-137 825.791,-137 825.791,-117 774.209,-117"/>
<text text-anchor="middle" x="800" y="-123" font-family="Helvetica,sans-Serif" font-size="10.00">stddef.h</text>
</a>
</g>
</g>
<!-- Node21&#45;&gt;Node23 -->
<g id="edge20" class="edge"><title>Node21&#45;&gt;Node23</title>
<path fill="none" stroke="midnightblue" d="M1030.43,-232.903C1009.78,-224.024 977.886,-209.864 951,-196 933.655,-187.056 930.524,-182.588 913,-174 887.32,-161.414 857.294,-149.308 834.651,-140.677"/>
<polygon fill="midnightblue" stroke="midnightblue" points="835.714,-137.337 825.122,-137.084 833.243,-143.887 835.714,-137.337"/>
</g>
<!-- Node25 -->
<g id="node23" class="node"><title>Node25</title>
<g id="a_node23"><a xlink:href="_rexx_collection_8hpp.html" target="_top" xlink:title=" ">
<polygon fill="white" stroke="black" points="1472.92,-59 1472.92,-79 1575.08,-79 1575.08,-59 1472.92,-59"/>
<text text-anchor="middle" x="1524" y="-65" font-family="Helvetica,sans-Serif" font-size="10.00">RexxCollection.hpp</text>
</a>
</g>
</g>
<!-- Node24&#45;&gt;Node25 -->
<g id="edge22" class="edge"><title>Node24&#45;&gt;Node25</title>
<path fill="none" stroke="midnightblue" d="M426.296,-122.008C448.768,-119.99 476.867,-117.63 502,-116 866.203,-92.3806 1304.21,-77.041 1462.87,-71.9072"/>
<polygon fill="midnightblue" stroke="midnightblue" points="1463.03,-75.404 1472.92,-71.5839 1462.81,-68.4076 1463.03,-75.404"/>
</g>
<!-- Node26 -->
<g id="node24" class="node"><title>Node26</title>
<g id="a_node24"><a xlink:href="_rexx_hash_table_8hpp.html" target="_top" xlink:title=" ">
<polygon fill="white" stroke="black" points="1471.25,-1 1471.25,-21 1576.75,-21 1576.75,-1 1471.25,-1"/>
<text text-anchor="middle" x="1524" y="-7" font-family="Helvetica,sans-Serif" font-size="10.00">RexxHashTable.hpp</text>
</a>
</g>
</g>
<!-- Node25&#45;&gt;Node26 -->
<g id="edge23" class="edge"><title>Node25&#45;&gt;Node26</title>
<path fill="none" stroke="midnightblue" d="M1524,-58.7527C1524,-51.2504 1524,-40.4238 1524,-31.0781"/>
<polygon fill="midnightblue" stroke="midnightblue" points="1527.5,-31.0752 1524,-21.0752 1520.5,-31.0752 1527.5,-31.0752"/>
</g>
<!-- Node29 -->
<g id="node27" class="node"><title>Node29</title>
<g id="a_node27"><a xlink:title=" ">
<polygon fill="white" stroke="#bfbfbf" points="460.084,-175 460.084,-195 563.916,-195 563.916,-175 460.084,-175"/>
<text text-anchor="middle" x="512" y="-181" font-family="Helvetica,sans-Serif" font-size="10.00">SysSemaphore.hpp</text>
</a>
</g>
</g>
<!-- Node28&#45;&gt;Node29 -->
<g id="edge26" class="edge"><title>Node28&#45;&gt;Node29</title>
<path fill="none" stroke="midnightblue" d="M609.942,-232.878C590.989,-223.807 561.699,-209.788 540.084,-199.442"/>
<polygon fill="midnightblue" stroke="midnightblue" points="541.581,-196.278 531.05,-195.118 538.559,-202.592 541.581,-196.278"/>
</g>
<!-- Node30 -->
<g id="node28" class="node"><title>Node30</title>
<g id="a_node28"><a xlink:href="_identity_table_class_8hpp.html" target="_top" xlink:title=" ">
<polygon fill="white" stroke="black" points="325.692,-175 325.692,-195 442.308,-195 442.308,-175 325.692,-175"/>
<text text-anchor="middle" x="384" y="-181" font-family="Helvetica,sans-Serif" font-size="10.00">IdentityTableClass.hpp</text>
</a>
</g>
</g>
<!-- Node28&#45;&gt;Node30 -->
<g id="edge27" class="edge"><title>Node28&#45;&gt;Node30</title>
<path fill="none" stroke="midnightblue" d="M589.364,-232.94C546.933,-223.242 479.533,-207.836 433.61,-197.339"/>
<polygon fill="midnightblue" stroke="midnightblue" points="434.107,-193.863 423.579,-195.047 432.547,-200.687 434.107,-193.863"/>
</g>
<!-- Node31 -->
<g id="node29" class="node"><title>Node31</title>
<g id="a_node29"><a xlink:href="_memory_stats_8hpp.html" target="_top" xlink:title=" ">
<polygon fill="white" stroke="black" points="581.818,-175 581.818,-195 676.182,-195 676.182,-175 581.818,-175"/>
<text text-anchor="middle" x="629" y="-181" font-family="Helvetica,sans-Serif" font-size="10.00">MemoryStats.hpp</text>
</a>
</g>
</g>
<!-- Node28&#45;&gt;Node31 -->
<g id="edge29" class="edge"><title>Node28&#45;&gt;Node31</title>
<path fill="none" stroke="midnightblue" d="M629,-232.753C629,-225.25 629,-214.424 629,-205.078"/>
<polygon fill="midnightblue" stroke="midnightblue" points="632.5,-205.075 629,-195.075 625.5,-205.075 632.5,-205.075"/>
</g>
<!-- Node32 -->
<g id="node30" class="node"><title>Node32</title>
<g id="a_node30"><a xlink:href="_memory_segment_8hpp.html" target="_top" xlink:title=" ">
<polygon fill="white" stroke="red" points="694.2,-175 694.2,-195 805.8,-195 805.8,-175 694.2,-175"/>
<text text-anchor="middle" x="750" y="-181" font-family="Helvetica,sans-Serif" font-size="10.00">MemorySegment.hpp</text>
</a>
</g>
</g>
<!-- Node28&#45;&gt;Node32 -->
<g id="edge31" class="edge"><title>Node28&#45;&gt;Node32</title>
<path fill="none" stroke="midnightblue" d="M648.71,-232.878C668.31,-223.807 698.602,-209.788 720.956,-199.442"/>
<polygon fill="midnightblue" stroke="midnightblue" points="722.693,-202.495 730.298,-195.118 719.753,-196.142 722.693,-202.495"/>
</g>
<!-- Node30&#45;&gt;Node24 -->
<g id="edge28" class="edge"><title>Node30&#45;&gt;Node24</title>
<path fill="none" stroke="midnightblue" d="M384,-174.753C384,-167.25 384,-156.424 384,-147.078"/>
<polygon fill="midnightblue" stroke="midnightblue" points="387.5,-147.075 384,-137.075 380.5,-147.075 387.5,-147.075"/>
</g>
<!-- Node31&#45;&gt;Node19 -->
<g id="edge30" class="edge"><title>Node31&#45;&gt;Node19</title>
<path fill="none" stroke="midnightblue" d="M617.771,-174.753C607.473,-166.272 592.016,-153.543 579.83,-143.507"/>
<polygon fill="midnightblue" stroke="midnightblue" points="581.964,-140.731 572.02,-137.075 577.514,-146.134 581.964,-140.731"/>
</g>
<!-- Node32&#45;&gt;Node23 -->
<g id="edge32" class="edge"><title>Node32&#45;&gt;Node23</title>
<path fill="none" stroke="midnightblue" d="M758.256,-174.753C765.537,-166.598 776.325,-154.516 785.11,-144.677"/>
<polygon fill="midnightblue" stroke="midnightblue" points="787.848,-146.866 791.897,-137.075 782.626,-142.204 787.848,-146.866"/>
</g>
<!-- Node36 -->
<g id="node32" class="node"><title>Node36</title>
<g id="a_node32"><a xlink:href="_primitive_behaviour_names_8h.html" target="_top" xlink:title=" ">
<polygon fill="white" stroke="black" points="1254.31,-175 1254.31,-195 1393.69,-195 1393.69,-175 1254.31,-175"/>
<text text-anchor="middle" x="1324" y="-181" font-family="Helvetica,sans-Serif" font-size="10.00">PrimitiveBehaviourNames.h</text>
</a>
</g>
</g>
<!-- Node35&#45;&gt;Node36 -->
<g id="edge34" class="edge"><title>Node35&#45;&gt;Node36</title>
<path fill="none" stroke="midnightblue" d="M1395.8,-232.753C1382.4,-224.027 1362.09,-210.805 1346.49,-200.646"/>
<polygon fill="midnightblue" stroke="midnightblue" points="1348.23,-197.599 1337.94,-195.075 1344.41,-203.465 1348.23,-197.599"/>
</g>
<!-- Node40 -->
<g id="node36" class="node"><title>Node40</title>
<g id="a_node36"><a xlink:href="_list_class_8hpp.html" target="_top" xlink:title=" ">
<polygon fill="white" stroke="red" points="2049.99,-175 2049.99,-195 2126.01,-195 2126.01,-175 2049.99,-175"/>
<text text-anchor="middle" x="2088" y="-181" font-family="Helvetica,sans-Serif" font-size="10.00">ListClass.hpp</text>
</a>
</g>
</g>
<!-- Node39&#45;&gt;Node40 -->
<g id="edge38" class="edge"><title>Node39&#45;&gt;Node40</title>
<path fill="none" stroke="midnightblue" d="M1913.88,-232.878C1949.49,-223.29 2005.64,-208.175 2044.5,-197.712"/>
<polygon fill="midnightblue" stroke="midnightblue" points="2045.73,-201.005 2054.48,-195.025 2043.91,-194.245 2045.73,-201.005"/>
</g>
<!-- Node42 -->
<g id="node37" class="node"><title>Node42</title>
<g id="a_node37"><a xlink:href="_rexx_internal_stack_8hpp.html" target="_top" xlink:title=" ">
<polygon fill="white" stroke="black" points="2143.69,-175 2143.69,-195 2260.31,-195 2260.31,-175 2143.69,-175"/>
<text text-anchor="middle" x="2202" y="-181" font-family="Helvetica,sans-Serif" font-size="10.00">RexxInternalStack.hpp</text>
</a>
</g>
</g>
<!-- Node39&#45;&gt;Node42 -->
<g id="edge39" class="edge"><title>Node39&#45;&gt;Node42</title>
<path fill="none" stroke="midnightblue" d="M1924.77,-234.213C1980.76,-224.477 2076.89,-207.759 2139.94,-196.793"/>
<polygon fill="midnightblue" stroke="midnightblue" points="2140.9,-200.179 2150.15,-195.017 2139.7,-193.282 2140.9,-200.179"/>
</g>
<!-- Node43 -->
<g id="node38" class="node"><title>Node43</title>
<g id="a_node38"><a xlink:href="_rexx_activation_stack_8hpp.html" target="_top" xlink:title=" ">
<polygon fill="white" stroke="black" points="1411.69,-175 1411.69,-195 1538.31,-195 1538.31,-175 1411.69,-175"/>
<text text-anchor="middle" x="1475" y="-181" font-family="Helvetica,sans-Serif" font-size="10.00">RexxActivationStack.hpp</text>
</a>
</g>
</g>
<!-- Node39&#45;&gt;Node43 -->
<g id="edge40" class="edge"><title>Node39&#45;&gt;Node43</title>
<path fill="none" stroke="midnightblue" d="M1835.24,-233.517C1832.12,-232.984 1829.01,-232.473 1826,-232 1705.74,-213.121 1672.65,-212.614 1548.86,-196.234"/>
<polygon fill="midnightblue" stroke="midnightblue" points="1548.97,-192.718 1538.6,-194.867 1548.05,-199.657 1548.97,-192.718"/>
</g>
<!-- Node44 -->
<g id="node39" class="node"><title>Node44</title>
<g id="a_node39"><a xlink:href="_expression_stack_8hpp.html" target="_top" xlink:title=" ">
<polygon fill="white" stroke="black" points="1556.03,-175 1556.03,-195 1665.97,-195 1665.97,-175 1556.03,-175"/>
<text text-anchor="middle" x="1611" y="-181" font-family="Helvetica,sans-Serif" font-size="10.00">ExpressionStack.hpp</text>
</a>
</g>
</g>
<!-- Node39&#45;&gt;Node44 -->
<g id="edge41" class="edge"><title>Node39&#45;&gt;Node44</title>
<path fill="none" stroke="midnightblue" d="M1836.48,-232.94C1789.6,-223.181 1714.96,-207.642 1664.52,-197.141"/>
<polygon fill="midnightblue" stroke="midnightblue" points="1664.96,-193.658 1654.46,-195.047 1663.53,-200.511 1664.96,-193.658"/>
</g>
<!-- Node46 -->
<g id="node41" class="node"><title>Node46</title>
<g id="a_node41"><a xlink:href="_rexx_local_variables_8hpp.html" target="_top" xlink:title=" ">
<polygon fill="white" stroke="red" points="1684.45,-175 1684.45,-195 1807.55,-195 1807.55,-175 1684.45,-175"/>
<text text-anchor="middle" x="1746" y="-181" font-family="Helvetica,sans-Serif" font-size="10.00">RexxLocalVariables.hpp</text>
</a>
</g>
</g>
<!-- Node39&#45;&gt;Node46 -->
<g id="edge43" class="edge"><title>Node39&#45;&gt;Node46</title>
<path fill="none" stroke="midnightblue" d="M1858.17,-232.878C1836.17,-223.685 1802.02,-209.409 1777.17,-199.026"/>
<polygon fill="midnightblue" stroke="midnightblue" points="1778.39,-195.745 1767.82,-195.118 1775.7,-202.203 1778.39,-195.745"/>
</g>
<!-- Node61 -->
<g id="node42" class="node"><title>Node61</title>
<g id="a_node42"><a xlink:href="_source_location_8hpp.html" target="_top" xlink:title=" ">
<polygon fill="white" stroke="black" points="1825.52,-175 1825.52,-195 1930.48,-195 1930.48,-175 1825.52,-175"/>
<text text-anchor="middle" x="1878" y="-181" font-family="Helvetica,sans-Serif" font-size="10.00">SourceLocation.hpp</text>
</a>
</g>
</g>
<!-- Node39&#45;&gt;Node61 -->
<g id="edge44" class="edge"><title>Node39&#45;&gt;Node61</title>
<path fill="none" stroke="midnightblue" d="M1879.67,-232.753C1879.4,-225.25 1879.02,-214.424 1878.68,-205.078"/>
<polygon fill="midnightblue" stroke="midnightblue" points="1882.18,-204.944 1878.32,-195.075 1875.18,-205.194 1882.18,-204.944"/>
</g>
<!-- Node62 -->
<g id="node43" class="node"><title>Node62</title>
<g id="a_node43"><a xlink:href="_exit_handler_8hpp.html" target="_top" xlink:title=" ">
<polygon fill="white" stroke="red" points="2278.7,-175 2278.7,-195 2365.3,-195 2365.3,-175 2278.7,-175"/>
<text text-anchor="middle" x="2322" y="-181" font-family="Helvetica,sans-Serif" font-size="10.00">ExitHandler.hpp</text>
</a>
</g>
</g>
<!-- Node39&#45;&gt;Node62 -->
<g id="edge45" class="edge"><title>Node39&#45;&gt;Node62</title>
<path fill="none" stroke="midnightblue" d="M1924.73,-234.132C1929.54,-233.371 1934.37,-232.644 1939,-232 2081.85,-212.121 2121.31,-217.436 2268.35,-195.983"/>
<polygon fill="midnightblue" stroke="midnightblue" points="2269.28,-199.385 2278.66,-194.462 2268.26,-192.46 2269.28,-199.385"/>
</g>
<!-- Node64 -->
<g id="node44" class="node"><title>Node64</title>
<g id="a_node44"><a xlink:href="_activation_api_contexts_8hpp.html" target="_top" xlink:title=" ">
<polygon fill="white" stroke="black" points="2383.63,-175 2383.63,-195 2516.37,-195 2516.37,-175 2383.63,-175"/>
<text text-anchor="middle" x="2450" y="-181" font-family="Helvetica,sans-Serif" font-size="10.00">ActivationApiContexts.hpp</text>
</a>
</g>
</g>
<!-- Node39&#45;&gt;Node64 -->
<g id="edge47" class="edge"><title>Node39&#45;&gt;Node64</title>
<path fill="none" stroke="midnightblue" d="M1924.9,-237.255C1941.29,-235.553 1959.98,-233.649 1977,-232 2150.07,-215.232 2196.22,-215.542 2373.12,-196.059"/>
<polygon fill="midnightblue" stroke="midnightblue" points="2373.74,-199.512 2383.29,-194.933 2372.97,-192.554 2373.74,-199.512"/>
</g>
<!-- Node65 -->
<g id="node45" class="node"><title>Node65</title>
<g id="a_node45"><a xlink:title=" ">
<polygon fill="white" stroke="#bfbfbf" points="1948.47,-175 1948.47,-195 2031.53,-195 2031.53,-175 1948.47,-175"/>
<text text-anchor="middle" x="1990" y="-181" font-family="Helvetica,sans-Serif" font-size="10.00">SysActivity.hpp</text>
</a>
</g>
</g>
<!-- Node39&#45;&gt;Node65 -->
<g id="edge49" class="edge"><title>Node39&#45;&gt;Node65</title>
<path fill="none" stroke="midnightblue" d="M1898.16,-232.753C1915.86,-223.742 1942.98,-209.935 1963.17,-199.659"/>
<polygon fill="midnightblue" stroke="midnightblue" points="1964.85,-202.731 1972.17,-195.075 1961.67,-196.493 1964.85,-202.731"/>
</g>
<!-- Node44&#45;&gt;Node45 -->
<g id="edge42" class="edge"><title>Node44&#45;&gt;Node45</title>
<path fill="none" stroke="midnightblue" d="M1666.13,-175.214C1669.13,-174.79 1672.1,-174.382 1675,-174 1809.59,-156.246 1968.73,-140.477 2049.41,-132.851"/>
<polygon fill="midnightblue" stroke="midnightblue" points="2050.17,-136.295 2059.8,-131.873 2049.51,-129.326 2050.17,-136.295"/>
</g>
<!-- Node62&#45;&gt;Node2 -->
<g id="edge46" class="edge"><title>Node62&#45;&gt;Node2</title>
<path fill="none" stroke="midnightblue" d="M2278.65,-194.412C2275.39,-194.973 2272.15,-195.51 2269,-196 2139.8,-216.132 2102.18,-194.213 1977,-232 1956.07,-238.318 1953.84,-247.374 1933,-254 1845.13,-281.944 1737.21,-293.179 1677.71,-297.491"/>
<polygon fill="midnightblue" stroke="midnightblue" points="1677.27,-294.013 1667.53,-298.195 1677.75,-300.997 1677.27,-294.013"/>
</g>
<!-- Node64&#45;&gt;Node2 -->
<g id="edge48" class="edge"><title>Node64&#45;&gt;Node2</title>
<path fill="none" stroke="midnightblue" d="M2383.29,-194.902C2380.15,-195.282 2377.04,-195.65 2374,-196 2212.5,-214.606 2165.52,-184.652 2010,-232 1990.22,-238.023 1988.67,-247.607 1969,-254 1868.49,-286.671 1743.73,-296.142 1678.15,-298.884"/>
<polygon fill="midnightblue" stroke="midnightblue" points="1677.62,-295.402 1667.76,-299.283 1677.89,-302.397 1677.62,-295.402"/>
</g>
<!-- Node50&#45;&gt;Node22 -->
<g id="edge51" class="edge"><title>Node50&#45;&gt;Node22</title>
<path fill="none" stroke="midnightblue" d="M1157.1,-232.878C1138.4,-223.847 1109.53,-209.913 1088.13,-199.581"/>
<polygon fill="midnightblue" stroke="midnightblue" points="1089.41,-196.314 1078.89,-195.118 1086.37,-202.618 1089.41,-196.314"/>
</g>
<!-- Node51 -->
<g id="node47" class="node"><title>Node51</title>
<g id="a_node47"><a xlink:href="_number_string_math_8hpp.html" target="_top" xlink:title=" ">
<polygon fill="white" stroke="black" points="1117.31,-175 1117.31,-195 1236.69,-195 1236.69,-175 1117.31,-175"/>
<text text-anchor="middle" x="1177" y="-181" font-family="Helvetica,sans-Serif" font-size="10.00">NumberStringMath.hpp</text>
</a>
</g>
</g>
<!-- Node50&#45;&gt;Node51 -->
<g id="edge52" class="edge"><title>Node50&#45;&gt;Node51</title>
<path fill="none" stroke="midnightblue" d="M1176.17,-232.753C1176.3,-225.25 1176.49,-214.424 1176.66,-205.078"/>
<polygon fill="midnightblue" stroke="midnightblue" points="1180.16,-205.136 1176.84,-195.075 1173.16,-205.011 1180.16,-205.136"/>
</g>
<!-- Node67 -->
<g id="node49" class="node"><title>Node67</title>
<g id="a_node49"><a xlink:title=" ">
<polygon fill="white" stroke="#bfbfbf" points="2534.1,-175 2534.1,-195 2577.9,-195 2577.9,-175 2534.1,-175"/>
<text text-anchor="middle" x="2556" y="-181" font-family="Helvetica,sans-Serif" font-size="10.00">deque</text>
</a>
</g>
</g>
<!-- Node66&#45;&gt;Node67 -->
<g id="edge54" class="edge"><title>Node66&#45;&gt;Node67</title>
<path fill="none" stroke="midnightblue" d="M2125.07,-233.197C2128.09,-232.772 2131.08,-232.37 2134,-232 2303.92,-210.5 2352.25,-230.239 2523.93,-195.817"/>
<polygon fill="midnightblue" stroke="midnightblue" points="2524.71,-199.232 2533.81,-193.806 2523.31,-192.373 2524.71,-199.232"/>
</g>
<!-- Node68&#45;&gt;Node25 -->
<g id="edge56" class="edge"><title>Node68&#45;&gt;Node25</title>
<path fill="none" stroke="midnightblue" d="M2681.34,-290.741C2673.91,-266.793 2650.56,-202.685 2606,-174 2519.89,-118.571 1801.87,-82.3675 1585.48,-72.6382"/>
<polygon fill="midnightblue" stroke="midnightblue" points="1585.4,-69.1314 1575.26,-72.1815 1585.09,-76.1244 1585.4,-69.1314"/>
</g>
</g>
</svg>
