<?xml version="1.0" encoding="UTF-8" standalone="no"?>
<!DOCTYPE svg PUBLIC "-//W3C//DTD SVG 1.1//EN"
 "http://www.w3.org/Graphics/SVG/1.1/DTD/svg11.dtd">
<!-- Generated by graphviz version 12.1.0 (20240811.2233)
 -->
<!-- Title: IndirectVariableReference.hpp Pages: 1 -->
<svg width="395pt" height="85pt"
 viewBox="0.00 0.00 395.25 84.50" xmlns="http://www.w3.org/2000/svg" xmlns:xlink="http://www.w3.org/1999/xlink">
<g id="graph0" class="graph" transform="scale(1 1) rotate(0) translate(4 80.5)">
<title>IndirectVariableReference.hpp</title>
<polygon fill="white" stroke="none" points="-4,4 -4,-80.5 391.25,-80.5 391.25,4 -4,4"/>
<!-- Node1 -->
<g id="node1" class="node">
<title>Node1</title>
<g id="a_node1"><a xlink:title=" ">
<polygon fill="#bfbfbf" stroke="black" points="99.38,-56.75 99.38,-76 245.88,-76 245.88,-56.75 99.38,-56.75"/>
<text text-anchor="middle" x="172.62" y="-62.5" font-family="Helvetica,sans-Serif" font-size="10.00">IndirectVariableReference.hpp</text>
</a>
</g>
</g>
<!-- Node2 -->
<g id="node2" class="node">
<title>Node2</title>
<g id="a_node2"><a xlink:href="_source_file_8cpp.html" target="_top" xlink:title=" ">
<polygon fill="white" stroke="black" points="0,-0.5 0,-19.75 81.25,-19.75 81.25,-0.5 0,-0.5"/>
<text text-anchor="middle" x="40.62" y="-6.25" font-family="Helvetica,sans-Serif" font-size="10.00">SourceFile.cpp</text>
</a>
</g>
</g>
<!-- Node1&#45;&gt;Node2 -->
<g id="edge1" class="edge">
<title>Node1&#45;&gt;Node2</title>
<path fill="none" stroke="midnightblue" d="M140.12,-52.02C116.07,-42.13 83.95,-28.93 62.79,-20.23"/>
<polygon fill="midnightblue" stroke="midnightblue" points="138.55,-55.16 149.13,-55.72 141.21,-48.68 138.55,-55.16"/>
</g>
<!-- Node3 -->
<g id="node3" class="node">
<title>Node3</title>
<g id="a_node3"><a xlink:href="_indirect_variable_reference_8cpp.html" target="_top" xlink:title=" ">
<polygon fill="white" stroke="black" points="99.38,-0.5 99.38,-19.75 245.88,-19.75 245.88,-0.5 99.38,-0.5"/>
<text text-anchor="middle" x="172.62" y="-6.25" font-family="Helvetica,sans-Serif" font-size="10.00">IndirectVariableReference.cpp</text>
</a>
</g>
</g>
<!-- Node1&#45;&gt;Node3 -->
<g id="edge2" class="edge">
<title>Node1&#45;&gt;Node3</title>
<path fill="none" stroke="midnightblue" d="M172.62,-45.19C172.62,-36.48 172.62,-26.74 172.62,-19.92"/>
<polygon fill="midnightblue" stroke="midnightblue" points="169.13,-44.9 172.63,-54.9 176.13,-44.9 169.13,-44.9"/>
</g>
<!-- Node4 -->
<g id="node4" class="node">
<title>Node4</title>
<g id="a_node4"><a xlink:href="_virtual_function_table_8cpp.html" target="_top" xlink:title=" ">
<polygon fill="white" stroke="black" points="264,-0.5 264,-19.75 387.25,-19.75 387.25,-0.5 264,-0.5"/>
<text text-anchor="middle" x="325.62" y="-6.25" font-family="Helvetica,sans-Serif" font-size="10.00">VirtualFunctionTable.cpp</text>
</a>
</g>
</g>
<!-- Node1&#45;&gt;Node4 -->
<g id="edge3" class="edge">
<title>Node1&#45;&gt;Node4</title>
<path fill="none" stroke="midnightblue" d="M208.81,-52.55C236.83,-42.61 274.97,-29.09 299.93,-20.23"/>
<polygon fill="midnightblue" stroke="midnightblue" points="207.92,-49.15 199.66,-55.79 210.26,-55.75 207.92,-49.15"/>
</g>
</g>
</svg>
