<?xml version="1.0" encoding="UTF-8" standalone="no"?>
<!DOCTYPE svg PUBLIC "-//W3C//DTD SVG 1.1//EN"
 "http://www.w3.org/Graphics/SVG/1.1/DTD/svg11.dtd">
<!-- Generated by graphviz version 2.30.1 (20130222.1704)
 -->
<!-- Title: LocalMacroSpaceManager.hpp Pages: 1 -->
<svg width="683pt" height="204pt"
 viewBox="0.00 0.00 683.00 204.00" xmlns="http://www.w3.org/2000/svg" xmlns:xlink="http://www.w3.org/1999/xlink">
<g id="graph0" class="graph" transform="scale(1 1) rotate(0) translate(4 200)">
<title>LocalMacroSpaceManager.hpp</title>
<polygon fill="white" stroke="white" points="-4,5 -4,-200 680,-200 680,5 -4,5"/>
<!-- Node1 -->
<g id="node1" class="node"><title>Node1</title>
<g id="a_node1"><a xlink:title=" ">
<polygon fill="#bfbfbf" stroke="black" points="241.786,-175 241.786,-195 396.214,-195 396.214,-175 241.786,-175"/>
<text text-anchor="middle" x="319" y="-181" font-family="Helvetica,sans-Serif" font-size="10.00">LocalMacroSpaceManager.hpp</text>
</a>
</g>
</g>
<!-- Node2 -->
<g id="node2" class="node"><title>Node2</title>
<g id="a_node2"><a xlink:href="_local_a_p_i_subsystem_8hpp.html" target="_top" xlink:title=" ">
<polygon fill="white" stroke="black" points="125.525,-117 125.525,-137 250.475,-137 250.475,-117 125.525,-117"/>
<text text-anchor="middle" x="188" y="-123" font-family="Helvetica,sans-Serif" font-size="10.00">LocalAPISubsystem.hpp</text>
</a>
</g>
</g>
<!-- Node1&#45;&gt;Node2 -->
<g id="edge1" class="edge"><title>Node1&#45;&gt;Node2</title>
<path fill="none" stroke="midnightblue" d="M297.661,-174.878C276.251,-165.725 243.057,-151.536 218.795,-141.164"/>
<polygon fill="midnightblue" stroke="midnightblue" points="219.901,-137.831 209.33,-137.118 217.149,-144.267 219.901,-137.831"/>
</g>
<!-- Node10 -->
<g id="node10" class="node"><title>Node10</title>
<g id="a_node10"><a xlink:href="_service_message_8hpp.html" target="_top" xlink:title=" ">
<polygon fill="white" stroke="black" points="306.308,-117 306.308,-137 415.692,-137 415.692,-117 306.308,-117"/>
<text text-anchor="middle" x="361" y="-123" font-family="Helvetica,sans-Serif" font-size="10.00">ServiceMessage.hpp</text>
</a>
</g>
</g>
<!-- Node1&#45;&gt;Node10 -->
<g id="edge9" class="edge"><title>Node1&#45;&gt;Node10</title>
<path fill="none" stroke="midnightblue" d="M325.935,-174.753C331.929,-166.761 340.752,-154.998 348.048,-145.27"/>
<polygon fill="midnightblue" stroke="midnightblue" points="350.994,-147.175 354.194,-137.075 345.394,-142.975 350.994,-147.175"/>
</g>
<!-- Node3 -->
<g id="node3" class="node"><title>Node3</title>
<g id="a_node3"><a xlink:href="rexx_8h.html" target="_top" xlink:title=" ">
<polygon fill="white" stroke="black" points="255.384,-59 255.384,-79 298.616,-79 298.616,-59 255.384,-59"/>
<text text-anchor="middle" x="277" y="-65" font-family="Helvetica,sans-Serif" font-size="10.00">rexx.h</text>
</a>
</g>
</g>
<!-- Node1&#45;&gt;Node3 -->
<g id="edge14" class="edge"><title>Node1&#45;&gt;Node3</title>
<path fill="none" stroke="midnightblue" d="M313.998,-174.68C309.214,-165.521 302.007,-151.06 297,-138 290.813,-121.862 285.395,-102.963 281.764,-89.1907"/>
<polygon fill="midnightblue" stroke="midnightblue" points="285.127,-88.214 279.255,-79.3953 278.346,-89.9511 285.127,-88.214"/>
</g>
<!-- Node13 -->
<g id="node13" class="node"><title>Node13</title>
<g id="a_node13"><a xlink:href="_rxstring_8hpp.html" target="_top" xlink:title=" ">
<polygon fill="white" stroke="black" points="34.9312,-117 34.9312,-137 107.069,-137 107.069,-117 34.9312,-117"/>
<text text-anchor="middle" x="71" y="-123" font-family="Helvetica,sans-Serif" font-size="10.00">Rxstring.hpp</text>
</a>
</g>
</g>
<!-- Node1&#45;&gt;Node13 -->
<g id="edge15" class="edge"><title>Node1&#45;&gt;Node13</title>
<path fill="none" stroke="midnightblue" d="M278.879,-174.94C234.689,-164.962 163.743,-148.942 117.247,-138.443"/>
<polygon fill="midnightblue" stroke="midnightblue" points="117.953,-135.014 107.428,-136.226 116.411,-141.842 117.953,-135.014"/>
</g>
<!-- Node15 -->
<g id="node15" class="node"><title>Node15</title>
<g id="a_node15"><a xlink:href="_utilities_8hpp.html" target="_top" xlink:title=" ">
<polygon fill="white" stroke="black" points="434.155,-117 434.155,-137 501.845,-137 501.845,-117 434.155,-117"/>
<text text-anchor="middle" x="468" y="-123" font-family="Helvetica,sans-Serif" font-size="10.00">Utilities.hpp</text>
</a>
</g>
</g>
<!-- Node1&#45;&gt;Node15 -->
<g id="edge19" class="edge"><title>Node1&#45;&gt;Node15</title>
<path fill="none" stroke="midnightblue" d="M343.271,-174.878C367.948,-165.603 406.387,-151.156 434.072,-140.752"/>
<polygon fill="midnightblue" stroke="midnightblue" points="435.61,-143.913 443.739,-137.118 433.147,-137.36 435.61,-143.913"/>
</g>
<!-- Node18 -->
<g id="node18" class="node"><title>Node18</title>
<g id="a_node18"><a xlink:title=" ">
<polygon fill="white" stroke="#bfbfbf" points="519.877,-117 519.877,-137 588.123,-137 588.123,-117 519.877,-117"/>
<text text-anchor="middle" x="554" y="-123" font-family="Helvetica,sans-Serif" font-size="10.00">SysFile.hpp</text>
</a>
</g>
</g>
<!-- Node1&#45;&gt;Node18 -->
<g id="edge23" class="edge"><title>Node1&#45;&gt;Node18</title>
<path fill="none" stroke="midnightblue" d="M357.018,-174.94C398.837,-164.975 465.942,-148.984 510.003,-138.484"/>
<polygon fill="midnightblue" stroke="midnightblue" points="510.941,-141.859 519.857,-136.136 509.318,-135.05 510.941,-141.859"/>
</g>
<!-- Node2&#45;&gt;Node3 -->
<g id="edge2" class="edge"><title>Node2&#45;&gt;Node3</title>
<path fill="none" stroke="midnightblue" d="M202.697,-116.753C216.564,-108.027 237.578,-94.8051 253.724,-84.6458"/>
<polygon fill="midnightblue" stroke="midnightblue" points="255.977,-87.3632 262.577,-79.0752 252.249,-81.4385 255.977,-87.3632"/>
</g>
<!-- Node8 -->
<g id="node8" class="node"><title>Node8</title>
<g id="a_node8"><a xlink:href="_service_exception_8hpp.html" target="_top" xlink:title=" ">
<polygon fill="white" stroke="black" points="124.638,-59 124.638,-79 237.362,-79 237.362,-59 124.638,-59"/>
<text text-anchor="middle" x="181" y="-65" font-family="Helvetica,sans-Serif" font-size="10.00">ServiceException.hpp</text>
</a>
</g>
</g>
<!-- Node2&#45;&gt;Node8 -->
<g id="edge7" class="edge"><title>Node2&#45;&gt;Node8</title>
<path fill="none" stroke="midnightblue" d="M186.844,-116.753C185.906,-109.25 184.553,-98.4238 183.385,-89.0781"/>
<polygon fill="midnightblue" stroke="midnightblue" points="186.848,-88.5638 182.134,-79.0752 179.902,-89.4321 186.848,-88.5638"/>
</g>
<!-- Node4 -->
<g id="node4" class="node"><title>Node4</title>
<g id="a_node4"><a xlink:title=" ">
<polygon fill="white" stroke="#bfbfbf" points="236.761,-1 236.761,-21 317.239,-21 317.239,-1 236.761,-1"/>
<text text-anchor="middle" x="277" y="-7" font-family="Helvetica,sans-Serif" font-size="10.00">rexxapitypes.h</text>
</a>
</g>
</g>
<!-- Node3&#45;&gt;Node4 -->
<g id="edge3" class="edge"><title>Node3&#45;&gt;Node4</title>
<path fill="none" stroke="midnightblue" d="M277,-58.7527C277,-51.2504 277,-40.4238 277,-31.0781"/>
<polygon fill="midnightblue" stroke="midnightblue" points="280.5,-31.0752 277,-21.0752 273.5,-31.0752 280.5,-31.0752"/>
</g>
<!-- Node5 -->
<g id="node5" class="node"><title>Node5</title>
<g id="a_node5"><a xlink:href="rexxapidefs_8h.html" target="_top" xlink:title=" ">
<polygon fill="white" stroke="black" points="335.261,-1 335.261,-21 410.739,-21 410.739,-1 335.261,-1"/>
<text text-anchor="middle" x="373" y="-7" font-family="Helvetica,sans-Serif" font-size="10.00">rexxapidefs.h</text>
</a>
</g>
</g>
<!-- Node3&#45;&gt;Node5 -->
<g id="edge4" class="edge"><title>Node3&#45;&gt;Node5</title>
<path fill="none" stroke="midnightblue" d="M292.852,-58.7527C307.95,-49.9457 330.901,-36.5575 348.38,-26.3617"/>
<polygon fill="midnightblue" stroke="midnightblue" points="350.568,-29.1372 357.443,-21.0752 347.041,-23.0907 350.568,-29.1372"/>
</g>
<!-- Node6 -->
<g id="node6" class="node"><title>Node6</title>
<g id="a_node6"><a xlink:title=" ">
<polygon fill="white" stroke="#bfbfbf" points="428.872,-1 428.872,-21 527.128,-21 527.128,-1 428.872,-1"/>
<text text-anchor="middle" x="478" y="-7" font-family="Helvetica,sans-Serif" font-size="10.00">rexxplatformdefs.h</text>
</a>
</g>
</g>
<!-- Node3&#45;&gt;Node6 -->
<g id="edge5" class="edge"><title>Node3&#45;&gt;Node6</title>
<path fill="none" stroke="midnightblue" d="M298.639,-60.874C301.772,-59.8847 304.964,-58.8999 308,-58 350.156,-45.505 398.594,-32.5326 432.954,-23.5619"/>
<polygon fill="midnightblue" stroke="midnightblue" points="433.902,-26.9319 442.698,-21.0266 432.139,-20.1574 433.902,-26.9319"/>
</g>
<!-- Node7 -->
<g id="node7" class="node"><title>Node7</title>
<g id="a_node7"><a xlink:title=" ">
<polygon fill="white" stroke="#bfbfbf" points="121.15,-1 121.15,-21 218.85,-21 218.85,-1 121.15,-1"/>
<text text-anchor="middle" x="170" y="-7" font-family="Helvetica,sans-Serif" font-size="10.00">rexxplatformapis.h</text>
</a>
</g>
</g>
<!-- Node3&#45;&gt;Node7 -->
<g id="edge6" class="edge"><title>Node3&#45;&gt;Node7</title>
<path fill="none" stroke="midnightblue" d="M259.331,-58.7527C242.192,-49.7826 215.972,-36.0601 196.365,-25.7986"/>
<polygon fill="midnightblue" stroke="midnightblue" points="197.823,-22.6112 187.34,-21.0752 194.577,-28.8132 197.823,-22.6112"/>
</g>
<!-- Node9 -->
<g id="node9" class="node"><title>Node9</title>
<g id="a_node9"><a xlink:title=" ">
<polygon fill="white" stroke="#bfbfbf" points="54.6035,-1 54.6035,-21 103.396,-21 103.396,-1 54.6035,-1"/>
<text text-anchor="middle" x="79" y="-7" font-family="Helvetica,sans-Serif" font-size="10.00">string.h</text>
</a>
</g>
</g>
<!-- Node8&#45;&gt;Node9 -->
<g id="edge8" class="edge"><title>Node8&#45;&gt;Node9</title>
<path fill="none" stroke="midnightblue" d="M164.157,-58.7527C147.892,-49.8233 123.051,-36.1848 104.388,-25.9388"/>
<polygon fill="midnightblue" stroke="midnightblue" points="105.98,-22.8198 95.5298,-21.0752 102.611,-28.9559 105.98,-22.8198"/>
</g>
<!-- Node10&#45;&gt;Node3 -->
<g id="edge10" class="edge"><title>Node10&#45;&gt;Node3</title>
<path fill="none" stroke="midnightblue" d="M347.129,-116.753C334.041,-108.027 314.208,-94.8051 298.969,-84.6458"/>
<polygon fill="midnightblue" stroke="midnightblue" points="300.875,-81.7101 290.613,-79.0752 296.992,-87.5344 300.875,-81.7101"/>
</g>
<!-- Node10&#45;&gt;Node8 -->
<g id="edge11" class="edge"><title>Node10&#45;&gt;Node8</title>
<path fill="none" stroke="midnightblue" d="M331.679,-116.878C301.255,-107.413 253.514,-92.5598 219.94,-82.1146"/>
<polygon fill="midnightblue" stroke="midnightblue" points="220.598,-78.654 210.01,-79.0253 218.519,-85.338 220.598,-78.654"/>
</g>
<!-- Node11 -->
<g id="node11" class="node"><title>Node11</title>
<g id="a_node11"><a xlink:title=" ">
<polygon fill="white" stroke="#bfbfbf" points="422.872,-59 422.872,-79 521.128,-79 521.128,-59 422.872,-59"/>
<text text-anchor="middle" x="472" y="-65" font-family="Helvetica,sans-Serif" font-size="10.00">SysCSStream.hpp</text>
</a>
</g>
</g>
<!-- Node10&#45;&gt;Node11 -->
<g id="edge12" class="edge"><title>Node10&#45;&gt;Node11</title>
<path fill="none" stroke="midnightblue" d="M379.329,-116.753C397.19,-107.742 424.557,-93.9353 444.926,-83.6589"/>
<polygon fill="midnightblue" stroke="midnightblue" points="446.66,-86.7044 454.012,-79.0752 443.507,-80.4547 446.66,-86.7044"/>
</g>
<!-- Node12 -->
<g id="node12" class="node"><title>Node12</title>
<g id="a_node12"><a xlink:title=" ">
<polygon fill="white" stroke="#bfbfbf" points="316.872,-59 316.872,-79 405.128,-79 405.128,-59 316.872,-59"/>
<text text-anchor="middle" x="361" y="-65" font-family="Helvetica,sans-Serif" font-size="10.00">SysProcess.hpp</text>
</a>
</g>
</g>
<!-- Node10&#45;&gt;Node12 -->
<g id="edge13" class="edge"><title>Node10&#45;&gt;Node12</title>
<path fill="none" stroke="midnightblue" d="M361,-116.753C361,-109.25 361,-98.4238 361,-89.0781"/>
<polygon fill="midnightblue" stroke="midnightblue" points="364.5,-89.0752 361,-79.0752 357.5,-89.0752 364.5,-89.0752"/>
</g>
<!-- Node13&#45;&gt;Node3 -->
<g id="edge16" class="edge"><title>Node13&#45;&gt;Node3</title>
<path fill="none" stroke="midnightblue" d="M107.358,-117.063C140.855,-108.693 192.139,-95.531 245.698,-79.9737"/>
<polygon fill="midnightblue" stroke="midnightblue" points="246.751,-83.3124 255.367,-77.146 244.786,-76.5938 246.751,-83.3124"/>
</g>
<!-- Node13&#45;&gt;Node8 -->
<g id="edge17" class="edge"><title>Node13&#45;&gt;Node8</title>
<path fill="none" stroke="midnightblue" d="M89.1643,-116.753C106.864,-107.742 133.984,-93.9353 154.17,-83.6589"/>
<polygon fill="midnightblue" stroke="midnightblue" points="155.85,-86.7312 163.174,-79.0752 152.674,-80.493 155.85,-86.7312"/>
</g>
<!-- Node14 -->
<g id="node14" class="node"><title>Node14</title>
<g id="a_node14"><a xlink:title=" ">
<polygon fill="white" stroke="#bfbfbf" points="-0.585938,-59 -0.585938,-79 106.586,-79 106.586,-59 -0.585938,-59"/>
<text text-anchor="middle" x="53" y="-65" font-family="Helvetica,sans-Serif" font-size="10.00">SysAPIManager.hpp</text>
</a>
</g>
</g>
<!-- Node13&#45;&gt;Node14 -->
<g id="edge18" class="edge"><title>Node13&#45;&gt;Node14</title>
<path fill="none" stroke="midnightblue" d="M68.0277,-116.753C65.59,-109.169 62.0605,-98.1881 59.0345,-88.7739"/>
<polygon fill="midnightblue" stroke="midnightblue" points="62.3093,-87.5244 55.917,-79.0752 55.6451,-89.6665 62.3093,-87.5244"/>
</g>
<!-- Node15&#45;&gt;Node3 -->
<g id="edge20" class="edge"><title>Node15&#45;&gt;Node3</title>
<path fill="none" stroke="midnightblue" d="M435.427,-116.966C404.994,-108.452 358.074,-95.1407 308.307,-80.0264"/>
<polygon fill="midnightblue" stroke="midnightblue" points="309.238,-76.6515 298.652,-77.0824 307.197,-83.3471 309.238,-76.6515"/>
</g>
<!-- Node16 -->
<g id="node16" class="node"><title>Node16</title>
<g id="a_node16"><a xlink:title=" ">
<polygon fill="white" stroke="#bfbfbf" points="608.99,-59 608.99,-79 675.01,-79 675.01,-59 608.99,-59"/>
<text text-anchor="middle" x="642" y="-65" font-family="Helvetica,sans-Serif" font-size="10.00">sys/types.h</text>
</a>
</g>
</g>
<!-- Node15&#45;&gt;Node16 -->
<g id="edge21" class="edge"><title>Node15&#45;&gt;Node16</title>
<path fill="none" stroke="midnightblue" d="M496.343,-116.878C525.754,-107.413 571.903,-92.5598 604.358,-82.1146"/>
<polygon fill="midnightblue" stroke="midnightblue" points="605.51,-85.4207 613.957,-79.0253 603.366,-78.7573 605.51,-85.4207"/>
</g>
<!-- Node17 -->
<g id="node17" class="node"><title>Node17</title>
<g id="a_node17"><a xlink:title=" ">
<polygon fill="white" stroke="#bfbfbf" points="538.934,-59 538.934,-79 591.066,-79 591.066,-59 538.934,-59"/>
<text text-anchor="middle" x="565" y="-65" font-family="Helvetica,sans-Serif" font-size="10.00">stdarg.h</text>
</a>
</g>
</g>
<!-- Node15&#45;&gt;Node17 -->
<g id="edge22" class="edge"><title>Node15&#45;&gt;Node17</title>
<path fill="none" stroke="midnightblue" d="M484.018,-116.753C499.414,-107.864 522.893,-94.3092 540.613,-84.0793"/>
<polygon fill="midnightblue" stroke="midnightblue" points="542.37,-87.1062 549.28,-79.0752 538.87,-81.0439 542.37,-87.1062"/>
</g>
</g>
</svg>
