<?xml version="1.0" encoding="UTF-8" standalone="no"?>
<!DOCTYPE svg PUBLIC "-//W3C//DTD SVG 1.1//EN"
 "http://www.w3.org/Graphics/SVG/1.1/DTD/svg11.dtd">
<!-- Generated by graphviz version 12.1.0 (20240811.2233)
 -->
<!-- Title: LocalAPISubsystem.hpp Pages: 1 -->
<svg width="1343pt" height="253pt"
 viewBox="0.00 0.00 1342.82 253.25" xmlns="http://www.w3.org/2000/svg" xmlns:xlink="http://www.w3.org/1999/xlink">
<g id="graph0" class="graph" transform="scale(1 1) rotate(0) translate(4 249.25)">
<title>LocalAPISubsystem.hpp</title>
<polygon fill="white" stroke="none" points="-4,4 -4,-249.25 1338.82,-249.25 1338.82,4 -4,4"/>
<!-- Node1 -->
<g id="node1" class="node">
<title>Node1</title>
<g id="a_node1"><a xlink:title=" ">
<polygon fill="#bfbfbf" stroke="black" points="464.57,-225.5 464.57,-244.75 588.57,-244.75 588.57,-225.5 464.57,-225.5"/>
<text text-anchor="middle" x="526.57" y="-231.25" font-family="Helvetica,sans-Serif" font-size="10.00">LocalAPISubsystem.hpp</text>
</a>
</g>
</g>
<!-- Node2 -->
<g id="node2" class="node">
<title>Node2</title>
<g id="a_node2"><a xlink:href="_local_macro_space_manager_8hpp.html" target="_top" xlink:title=" ">
<polygon fill="white" stroke="black" points="150.82,-169.25 150.82,-188.5 300.32,-188.5 300.32,-169.25 150.82,-169.25"/>
<text text-anchor="middle" x="225.57" y="-175" font-family="Helvetica,sans-Serif" font-size="10.00">LocalMacroSpaceManager.hpp</text>
</a>
</g>
</g>
<!-- Node1&#45;&gt;Node2 -->
<g id="edge1" class="edge">
<title>Node1&#45;&gt;Node2</title>
<path fill="none" stroke="midnightblue" d="M465.05,-223.04C409.3,-212.99 328.15,-198.36 276.11,-188.98"/>
<polygon fill="midnightblue" stroke="midnightblue" points="464.23,-226.45 474.7,-224.78 465.48,-219.56 464.23,-226.45"/>
</g>
<!-- Node15 -->
<g id="node15" class="node">
<title>Node15</title>
<g id="a_node15"><a xlink:href="_local_registration_manager_8hpp.html" target="_top" xlink:title=" ">
<polygon fill="white" stroke="black" points="452.94,-169.25 452.94,-188.5 600.19,-188.5 600.19,-169.25 452.94,-169.25"/>
<text text-anchor="middle" x="526.57" y="-175" font-family="Helvetica,sans-Serif" font-size="10.00">LocalRegistrationManager.hpp</text>
</a>
</g>
</g>
<!-- Node1&#45;&gt;Node15 -->
<g id="edge19" class="edge">
<title>Node1&#45;&gt;Node15</title>
<path fill="none" stroke="midnightblue" d="M526.57,-213.94C526.57,-205.23 526.57,-195.49 526.57,-188.67"/>
<polygon fill="midnightblue" stroke="midnightblue" points="523.07,-213.65 526.57,-223.65 530.07,-213.65 523.07,-213.65"/>
</g>
<!-- Node16 -->
<g id="node16" class="node">
<title>Node16</title>
<g id="a_node16"><a xlink:href="_local_queue_manager_8hpp.html" target="_top" xlink:title=" ">
<polygon fill="white" stroke="black" points="947.94,-169.25 947.94,-188.5 1071.19,-188.5 1071.19,-169.25 947.94,-169.25"/>
<text text-anchor="middle" x="1009.57" y="-175" font-family="Helvetica,sans-Serif" font-size="10.00">LocalQueueManager.hpp</text>
</a>
</g>
</g>
<!-- Node1&#45;&gt;Node16 -->
<g id="edge23" class="edge">
<title>Node1&#45;&gt;Node16</title>
<path fill="none" stroke="midnightblue" d="M599.95,-225.88C694.9,-215.22 858.66,-196.82 947.65,-186.83"/>
<polygon fill="midnightblue" stroke="midnightblue" points="599.77,-222.38 590.23,-226.97 600.55,-229.34 599.77,-222.38"/>
</g>
<!-- Node3 -->
<g id="node3" class="node">
<title>Node3</title>
<g id="a_node3"><a xlink:href="_macro_space_api_8cpp.html" target="_top" xlink:title=" ">
<polygon fill="white" stroke="black" points="99.69,-0.5 99.69,-19.75 203.44,-19.75 203.44,-0.5 99.69,-0.5"/>
<text text-anchor="middle" x="151.57" y="-6.25" font-family="Helvetica,sans-Serif" font-size="10.00">MacroSpaceApi.cpp</text>
</a>
</g>
</g>
<!-- Node2&#45;&gt;Node3 -->
<g id="edge2" class="edge">
<title>Node2&#45;&gt;Node3</title>
<path fill="none" stroke="midnightblue" d="M139.03,-170.19C88.36,-163.69 31.31,-152.23 15.57,-132.75 -5.8,-106.3 -4.33,-83.82 15.57,-56.25 34.57,-29.93 69.54,-18.71 99.26,-14.05"/>
<polygon fill="midnightblue" stroke="midnightblue" points="138.54,-173.65 148.89,-171.39 139.39,-166.71 138.54,-173.65"/>
</g>
<!-- Node4 -->
<g id="node4" class="node">
<title>Node4</title>
<g id="a_node4"><a xlink:href="_local_macro_space_manager_8cpp.html" target="_top" xlink:title=" ">
<polygon fill="white" stroke="black" points="57.82,-56.75 57.82,-76 207.32,-76 207.32,-56.75 57.82,-56.75"/>
<text text-anchor="middle" x="132.57" y="-62.5" font-family="Helvetica,sans-Serif" font-size="10.00">LocalMacroSpaceManager.cpp</text>
</a>
</g>
</g>
<!-- Node2&#45;&gt;Node4 -->
<g id="edge3" class="edge">
<title>Node2&#45;&gt;Node4</title>
<path fill="none" stroke="midnightblue" d="M210.56,-160.04C190.38,-136.07 155.29,-94.38 140.02,-76.23"/>
<polygon fill="midnightblue" stroke="midnightblue" points="207.86,-162.28 216.98,-167.67 213.22,-157.77 207.86,-162.28"/>
</g>
<!-- Node5 -->
<g id="node5" class="node">
<title>Node5</title>
<g id="a_node5"><a xlink:href="_local_a_p_i_manager_8hpp.html" target="_top" xlink:title=" ">
<polygon fill="white" stroke="black" points="470.94,-113 470.94,-132.25 582.19,-132.25 582.19,-113 470.94,-113"/>
<text text-anchor="middle" x="526.57" y="-118.75" font-family="Helvetica,sans-Serif" font-size="10.00">LocalAPIManager.hpp</text>
</a>
</g>
</g>
<!-- Node2&#45;&gt;Node5 -->
<g id="edge4" class="edge">
<title>Node2&#45;&gt;Node5</title>
<path fill="none" stroke="midnightblue" d="M287.09,-166.79C342.83,-156.74 423.98,-142.11 476.02,-132.73"/>
<polygon fill="midnightblue" stroke="midnightblue" points="286.66,-163.31 277.44,-168.53 287.9,-170.2 286.66,-163.31"/>
</g>
<!-- Node5&#45;&gt;Node3 -->
<g id="edge7" class="edge">
<title>Node5&#45;&gt;Node3</title>
<path fill="none" stroke="midnightblue" d="M459.2,-115.2C407.83,-108.95 335.89,-97.27 275.57,-76.5 233,-61.85 187.2,-34.23 165.07,-20.04"/>
<polygon fill="midnightblue" stroke="midnightblue" points="458.64,-118.66 468.98,-116.35 459.46,-111.71 458.64,-118.66"/>
</g>
<!-- Node5&#45;&gt;Node4 -->
<g id="edge12" class="edge">
<title>Node5&#45;&gt;Node4</title>
<path fill="none" stroke="midnightblue" d="M459.22,-112.35C386.36,-102.32 270.94,-86.43 198.59,-76.47"/>
<polygon fill="midnightblue" stroke="midnightblue" points="458.65,-115.81 469.04,-113.7 459.61,-108.87 458.65,-115.81"/>
</g>
<!-- Node6 -->
<g id="node6" class="node">
<title>Node6</title>
<g id="a_node6"><a xlink:href="_local_a_p_i_manager_8cpp.html" target="_top" xlink:title=" ">
<polygon fill="white" stroke="black" points="428.94,-56.75 428.94,-76 540.19,-76 540.19,-56.75 428.94,-56.75"/>
<text text-anchor="middle" x="484.57" y="-62.5" font-family="Helvetica,sans-Serif" font-size="10.00">LocalAPIManager.cpp</text>
</a>
</g>
</g>
<!-- Node5&#45;&gt;Node6 -->
<g id="edge5" class="edge">
<title>Node5&#45;&gt;Node6</title>
<path fill="none" stroke="midnightblue" d="M512.78,-103.82C505.6,-94.55 497.14,-83.62 491.37,-76.17"/>
<polygon fill="midnightblue" stroke="midnightblue" points="509.82,-105.71 518.7,-111.47 515.35,-101.42 509.82,-105.71"/>
</g>
<!-- Node7 -->
<g id="node7" class="node">
<title>Node7</title>
<g id="a_node7"><a xlink:href="_queues_a_p_i_8cpp.html" target="_top" xlink:title=" ">
<polygon fill="white" stroke="black" points="526.07,-0.5 526.07,-19.75 611.07,-19.75 611.07,-0.5 526.07,-0.5"/>
<text text-anchor="middle" x="568.57" y="-6.25" font-family="Helvetica,sans-Serif" font-size="10.00">QueuesAPI.cpp</text>
</a>
</g>
</g>
<!-- Node5&#45;&gt;Node7 -->
<g id="edge6" class="edge">
<title>Node5&#45;&gt;Node7</title>
<path fill="none" stroke="midnightblue" d="M537.3,-102.54C541.48,-94.63 546.09,-85.28 549.57,-76.5 557.31,-56.94 563.47,-32.97 566.51,-20.19"/>
<polygon fill="midnightblue" stroke="midnightblue" points="534.29,-100.75 532.57,-111.2 540.44,-104.1 534.29,-100.75"/>
</g>
<!-- Node8 -->
<g id="node8" class="node">
<title>Node8</title>
<g id="a_node8"><a xlink:href="windows_2_sys_local_a_p_i_manager_8cpp.html" target="_top" xlink:title=" ">
<polygon fill="white" stroke="black" points="880.32,-56.75 880.32,-76 1008.82,-76 1008.82,-56.75 880.32,-56.75"/>
<text text-anchor="middle" x="944.57" y="-62.5" font-family="Helvetica,sans-Serif" font-size="10.00">SysLocalAPIManager.cpp</text>
</a>
</g>
</g>
<!-- Node5&#45;&gt;Node8 -->
<g id="edge8" class="edge">
<title>Node5&#45;&gt;Node8</title>
<path fill="none" stroke="midnightblue" d="M593.76,-112.9C672.59,-102.67 802.38,-85.83 880.05,-75.75"/>
<polygon fill="midnightblue" stroke="midnightblue" points="593.47,-109.41 584.01,-114.17 594.37,-116.35 593.47,-109.41"/>
</g>
<!-- Node9 -->
<g id="node9" class="node">
<title>Node9</title>
<g id="a_node9"><a xlink:href="_local_queue_manager_8cpp.html" target="_top" xlink:title=" ">
<polygon fill="white" stroke="black" points="1026.94,-56.75 1026.94,-76 1150.19,-76 1150.19,-56.75 1026.94,-56.75"/>
<text text-anchor="middle" x="1088.57" y="-62.5" font-family="Helvetica,sans-Serif" font-size="10.00">LocalQueueManager.cpp</text>
</a>
</g>
</g>
<!-- Node5&#45;&gt;Node9 -->
<g id="edge9" class="edge">
<title>Node5&#45;&gt;Node9</title>
<path fill="none" stroke="midnightblue" d="M594,-116.2C688.71,-108.41 866.46,-93.15 1017.57,-76.5 1020.53,-76.17 1023.56,-75.83 1026.63,-75.47"/>
<polygon fill="midnightblue" stroke="midnightblue" points="593.79,-112.71 584.1,-117.02 594.36,-119.69 593.79,-112.71"/>
</g>
<!-- Node10 -->
<g id="node10" class="node">
<title>Node10</title>
<g id="a_node10"><a xlink:href="_registration_a_p_i_8cpp.html" target="_top" xlink:title=" ">
<polygon fill="white" stroke="black" points="221.69,-0.5 221.69,-19.75 325.44,-19.75 325.44,-0.5 221.69,-0.5"/>
<text text-anchor="middle" x="273.57" y="-6.25" font-family="Helvetica,sans-Serif" font-size="10.00">RegistrationAPI.cpp</text>
</a>
</g>
</g>
<!-- Node5&#45;&gt;Node10 -->
<g id="edge10" class="edge">
<title>Node5&#45;&gt;Node10</title>
<path fill="none" stroke="midnightblue" d="M459.29,-116.4C399.02,-110.38 316.55,-98.37 292.57,-76.5 276.32,-61.69 273.65,-33.89 273.41,-19.79"/>
<polygon fill="midnightblue" stroke="midnightblue" points="458.85,-119.88 469.14,-117.35 459.52,-112.91 458.85,-119.88"/>
</g>
<!-- Node11 -->
<g id="node11" class="node">
<title>Node11</title>
<g id="a_node11"><a xlink:href="_local_registration_manager_8cpp.html" target="_top" xlink:title=" ">
<polygon fill="white" stroke="black" points="714.94,-56.75 714.94,-76 862.19,-76 862.19,-56.75 714.94,-56.75"/>
<text text-anchor="middle" x="788.57" y="-62.5" font-family="Helvetica,sans-Serif" font-size="10.00">LocalRegistrationManager.cpp</text>
</a>
</g>
</g>
<!-- Node5&#45;&gt;Node11 -->
<g id="edge11" class="edge">
<title>Node5&#45;&gt;Node11</title>
<path fill="none" stroke="midnightblue" d="M581.64,-110.22C630.11,-100.19 699.74,-85.77 744.57,-76.48"/>
<polygon fill="midnightblue" stroke="midnightblue" points="580.98,-106.78 571.9,-112.24 582.4,-113.64 580.98,-106.78"/>
</g>
<!-- Node12 -->
<g id="node12" class="node">
<title>Node12</title>
<g id="a_node12"><a xlink:href="_client_message_8cpp.html" target="_top" xlink:title=" ">
<polygon fill="white" stroke="black" points="596.57,-56.75 596.57,-76 696.57,-76 696.57,-56.75 596.57,-56.75"/>
<text text-anchor="middle" x="646.57" y="-62.5" font-family="Helvetica,sans-Serif" font-size="10.00">ClientMessage.cpp</text>
</a>
</g>
</g>
<!-- Node5&#45;&gt;Node12 -->
<g id="edge13" class="edge">
<title>Node5&#45;&gt;Node12</title>
<path fill="none" stroke="midnightblue" d="M557.01,-107.86C578.77,-98.03 607.44,-85.06 626.42,-76.48"/>
<polygon fill="midnightblue" stroke="midnightblue" points="555.7,-104.61 548.03,-111.92 558.59,-110.99 555.7,-104.61"/>
</g>
<!-- Node13 -->
<g id="node13" class="node">
<title>Node13</title>
<g id="a_node13"><a xlink:href="_local_a_p_i_context_8hpp.html" target="_top" xlink:title=" ">
<polygon fill="white" stroke="black" points="302.07,-56.75 302.07,-76 411.07,-76 411.07,-56.75 302.07,-56.75"/>
<text text-anchor="middle" x="356.57" y="-62.5" font-family="Helvetica,sans-Serif" font-size="10.00">LocalAPIContext.hpp</text>
</a>
</g>
</g>
<!-- Node5&#45;&gt;Node13 -->
<g id="edge14" class="edge">
<title>Node5&#45;&gt;Node13</title>
<path fill="none" stroke="midnightblue" d="M487.19,-109.06C455.98,-99.1 413.1,-85.41 385.11,-76.48"/>
<polygon fill="midnightblue" stroke="midnightblue" points="486.08,-112.38 496.67,-112.08 488.21,-105.71 486.08,-112.38"/>
</g>
<!-- Node13&#45;&gt;Node3 -->
<g id="edge17" class="edge">
<title>Node13&#45;&gt;Node3</title>
<path fill="none" stroke="midnightblue" d="M311.54,-53.46C273.72,-43.45 220.47,-29.36 185.99,-20.23"/>
<polygon fill="midnightblue" stroke="midnightblue" points="310.23,-56.73 320.79,-55.91 312.02,-49.97 310.23,-56.73"/>
</g>
<!-- Node13&#45;&gt;Node7 -->
<g id="edge16" class="edge">
<title>Node13&#45;&gt;Node7</title>
<path fill="none" stroke="midnightblue" d="M403.13,-53.46C442.24,-43.45 497.31,-29.36 532.97,-20.23"/>
<polygon fill="midnightblue" stroke="midnightblue" points="402.34,-50.05 393.52,-55.92 404.07,-56.83 402.34,-50.05"/>
</g>
<!-- Node13&#45;&gt;Node10 -->
<g id="edge18" class="edge">
<title>Node13&#45;&gt;Node10</title>
<path fill="none" stroke="midnightblue" d="M333.34,-50.19C318.51,-40.5 299.79,-28.27 287.29,-20.1"/>
<polygon fill="midnightblue" stroke="midnightblue" points="331.31,-53.05 341.59,-55.59 335.14,-47.19 331.31,-53.05"/>
</g>
<!-- Node14 -->
<g id="node14" class="node">
<title>Node14</title>
<g id="a_node14"><a xlink:href="_local_a_p_i_context_8cpp.html" target="_top" xlink:title=" ">
<polygon fill="white" stroke="black" points="343.07,-0.5 343.07,-19.75 452.07,-19.75 452.07,-0.5 343.07,-0.5"/>
<text text-anchor="middle" x="397.57" y="-6.25" font-family="Helvetica,sans-Serif" font-size="10.00">LocalAPIContext.cpp</text>
</a>
</g>
</g>
<!-- Node13&#45;&gt;Node14 -->
<g id="edge15" class="edge">
<title>Node13&#45;&gt;Node14</title>
<path fill="none" stroke="midnightblue" d="M370.25,-47.27C377.21,-38.07 385.35,-27.29 390.92,-19.92"/>
<polygon fill="midnightblue" stroke="midnightblue" points="367.49,-45.12 364.25,-55.21 373.07,-49.34 367.49,-45.12"/>
</g>
<!-- Node15&#45;&gt;Node5 -->
<g id="edge22" class="edge">
<title>Node15&#45;&gt;Node5</title>
<path fill="none" stroke="midnightblue" d="M526.57,-157.69C526.57,-148.98 526.57,-139.24 526.57,-132.42"/>
<polygon fill="midnightblue" stroke="midnightblue" points="523.07,-157.4 526.57,-167.4 530.07,-157.4 523.07,-157.4"/>
</g>
<!-- Node15&#45;&gt;Node10 -->
<g id="edge20" class="edge">
<title>Node15&#45;&gt;Node10</title>
<path fill="none" stroke="midnightblue" d="M441.16,-172.33C317.24,-162.3 97.05,-136.34 48.57,-76.5 42.9,-69.51 42.86,-63.21 48.57,-56.25 54.07,-49.53 156.62,-31 221.35,-19.89"/>
<polygon fill="midnightblue" stroke="midnightblue" points="440.73,-175.8 450.97,-173.1 441.28,-168.82 440.73,-175.8"/>
</g>
<!-- Node15&#45;&gt;Node11 -->
<g id="edge21" class="edge">
<title>Node15&#45;&gt;Node11</title>
<path fill="none" stroke="midnightblue" d="M558.38,-164.46C612.53,-141.62 721.18,-95.79 767.2,-76.39"/>
<polygon fill="midnightblue" stroke="midnightblue" points="557.26,-161.13 549.4,-168.24 559.98,-167.58 557.26,-161.13"/>
</g>
<!-- Node16&#45;&gt;Node5 -->
<g id="edge30" class="edge">
<title>Node16&#45;&gt;Node5</title>
<path fill="none" stroke="midnightblue" d="M936.73,-169.69C839.75,-158.8 670.27,-139.77 582.63,-129.92"/>
<polygon fill="midnightblue" stroke="midnightblue" points="936.07,-173.14 946.4,-170.78 936.85,-166.19 936.07,-173.14"/>
</g>
<!-- Node16&#45;&gt;Node7 -->
<g id="edge24" class="edge">
<title>Node16&#45;&gt;Node7</title>
<path fill="none" stroke="midnightblue" d="M1048.75,-165.05C1106.01,-144.38 1201.42,-101.42 1159.57,-56.25 1122.46,-16.2 740.62,-11.54 611.2,-11.12"/>
<polygon fill="midnightblue" stroke="midnightblue" points="1047.9,-161.64 1039.63,-168.26 1050.23,-168.24 1047.9,-161.64"/>
</g>
<!-- Node16&#45;&gt;Node9 -->
<g id="edge29" class="edge">
<title>Node16&#45;&gt;Node9</title>
<path fill="none" stroke="midnightblue" d="M1022.55,-159.72C1039.72,-135.7 1069.32,-94.3 1082.23,-76.23"/>
<polygon fill="midnightblue" stroke="midnightblue" points="1019.88,-157.43 1016.91,-167.6 1025.58,-161.5 1019.88,-157.43"/>
</g>
<!-- Node17 -->
<g id="node17" class="node">
<title>Node17</title>
<g id="a_node17"><a xlink:href="unix_2_sys_local_a_p_i_manager_8hpp.html" target="_top" xlink:title=" ">
<polygon fill="white" stroke="black" points="1206.32,-113 1206.32,-132.25 1334.82,-132.25 1334.82,-113 1206.32,-113"/>
<text text-anchor="middle" x="1270.57" y="-118.75" font-family="Helvetica,sans-Serif" font-size="10.00">SysLocalAPIManager.hpp</text>
</a>
</g>
</g>
<!-- Node16&#45;&gt;Node17 -->
<g id="edge25" class="edge">
<title>Node16&#45;&gt;Node17</title>
<path fill="none" stroke="midnightblue" d="M1064.43,-166.47C1112.71,-156.44 1182.08,-142.02 1226.74,-132.73"/>
<polygon fill="midnightblue" stroke="midnightblue" points="1063.81,-163.02 1054.73,-168.49 1065.24,-169.88 1063.81,-163.02"/>
</g>
<!-- Node19 -->
<g id="node19" class="node">
<title>Node19</title>
<g id="a_node19"><a xlink:href="windows_2_sys_local_a_p_i_manager_8hpp.html" target="_top" xlink:title=" ">
<polygon fill="white" stroke="black" points="893.32,-113 893.32,-132.25 1021.82,-132.25 1021.82,-113 893.32,-113"/>
<text text-anchor="middle" x="957.57" y="-118.75" font-family="Helvetica,sans-Serif" font-size="10.00">SysLocalAPIManager.hpp</text>
</a>
</g>
</g>
<!-- Node16&#45;&gt;Node19 -->
<g id="edge27" class="edge">
<title>Node16&#45;&gt;Node19</title>
<path fill="none" stroke="midnightblue" d="M993.06,-160.65C984.05,-151.26 973.29,-140.03 965.99,-132.42"/>
<polygon fill="midnightblue" stroke="midnightblue" points="990.49,-163.03 999.93,-167.82 995.54,-158.18 990.49,-163.03"/>
</g>
<!-- Node18 -->
<g id="node18" class="node">
<title>Node18</title>
<g id="a_node18"><a xlink:href="unix_2_sys_local_a_p_i_manager_8cpp.html" target="_top" xlink:title=" ">
<polygon fill="white" stroke="black" points="1206.32,-56.75 1206.32,-76 1334.82,-76 1334.82,-56.75 1206.32,-56.75"/>
<text text-anchor="middle" x="1270.57" y="-62.5" font-family="Helvetica,sans-Serif" font-size="10.00">SysLocalAPIManager.cpp</text>
</a>
</g>
</g>
<!-- Node17&#45;&gt;Node18 -->
<g id="edge26" class="edge">
<title>Node17&#45;&gt;Node18</title>
<path fill="none" stroke="midnightblue" d="M1270.57,-101.44C1270.57,-92.73 1270.57,-82.99 1270.57,-76.17"/>
<polygon fill="midnightblue" stroke="midnightblue" points="1267.07,-101.15 1270.57,-111.15 1274.07,-101.15 1267.07,-101.15"/>
</g>
<!-- Node19&#45;&gt;Node8 -->
<g id="edge28" class="edge">
<title>Node19&#45;&gt;Node8</title>
<path fill="none" stroke="midnightblue" d="M952.8,-101.74C950.7,-92.95 948.33,-83.07 946.67,-76.17"/>
<polygon fill="midnightblue" stroke="midnightblue" points="949.33,-102.29 955.07,-111.19 956.14,-100.65 949.33,-102.29"/>
</g>
</g>
</svg>
