<?xml version="1.0" encoding="UTF-8" standalone="no"?>
<!DOCTYPE svg PUBLIC "-//W3C//DTD SVG 1.1//EN"
 "http://www.w3.org/Graphics/SVG/1.1/DTD/svg11.dtd">
<!-- Generated by graphviz version 12.1.0 (20240811.2233)
 -->
<!-- Title: LocalMacroSpaceManager.hpp Pages: 1 -->
<!--zoomable 197 -->
<svg id="main" version="1.1" xmlns="http://www.w3.org/2000/svg" xmlns:xlink="http://www.w3.org/1999/xlink" xml:space="preserve" onload="init(evt)">
<style type="text/css"><![CDATA[
.edge:hover path { stroke: red; }
.edge:hover polygon { stroke: red; fill: red; }
]]></style>
<script type="text/javascript"><![CDATA[
var edges = document.getElementsByTagName('g');
if (edges && edges.length) {
  for (var i=0;i<edges.length;i++) {
    if (edges[i].id.substr(0,4)=='edge') {
      edges[i].setAttribute('class','edge');
    }
  }
}
]]></script>
        <defs>
                <circle id="rim" cx="0" cy="0" r="7"/>
                <circle id="rim2" cx="0" cy="0" r="3.5"/>
                <g id="zoomPlus">
                        <use xlink:href="#rim" fill="#404040">
                                <set attributeName="fill" to="#808080" begin="zoomplus.mouseover" end="zoomplus.mouseout"/>
                        </use>
                        <path d="M-4,0h8M0,-4v8" fill="none" stroke="white" stroke-width="1.5" pointer-events="none"/>
                </g>
                <g id="zoomMin">
                        <use xlink:href="#rim" fill="#404040">
                                <set attributeName="fill" to="#808080" begin="zoomminus.mouseover" end="zoomminus.mouseout"/>
                        </use>
                        <path d="M-4,0h8" fill="none" stroke="white" stroke-width="1.5" pointer-events="none"/>
                </g>
                <g id="dirArrow">
                        <path fill="none" stroke="white" stroke-width="1.5" d="M0,-3.0v7 M-2.5,-0.5L0,-3.0L2.5,-0.5"/>
                </g>
               <g id="resetDef">
                       <use xlink:href="#rim2" fill="#404040">
                               <set attributeName="fill" to="#808080" begin="reset.mouseover" end="reset.mouseout"/>
                       </use>
               </g>
        </defs>

<script type="text/javascript">
var viewWidth = 1183;
var viewHeight = 197;
var sectionId = 'dynsection-1';
</script>
<script xlink:href="svgpan.js"/>
<svg id="graph" class="graph">
<g id="viewport">
<title>LocalMacroSpaceManager.hpp</title>
<polygon fill="white" stroke="none" points="-4,4 -4,-193 1178.62,-193 1178.62,4 -4,4"/>
<!-- Node1 -->
<g id="node1" class="node">
<title>Node1</title>
<g id="a_node1"><a xlink:title=" ">
<polygon fill="#bfbfbf" stroke="black" points="635,-169.25 635,-188.5 784.5,-188.5 784.5,-169.25 635,-169.25"/>
<text text-anchor="middle" x="709.75" y="-175" font-family="Helvetica,sans-Serif" font-size="10.00">LocalMacroSpaceManager.hpp</text>
</a>
</g>
</g>
<!-- Node2 -->
<g id="node2" class="node">
<title>Node2</title>
<g id="a_node2"><a xlink:href="_macro_space_api_8cpp.html" target="_top" xlink:title=" ">
<polygon fill="white" stroke="black" points="1070.88,-0.5 1070.88,-19.75 1174.62,-19.75 1174.62,-0.5 1070.88,-0.5"/>
<text text-anchor="middle" x="1122.75" y="-6.25" font-family="Helvetica,sans-Serif" font-size="10.00">MacroSpaceApi.cpp</text>
</a>
</g>
</g>
<!-- Node1&#45;&gt;Node2 -->
<g id="edge1" class="edge">
<title>Node1&#45;&gt;Node2</title>
<path fill="none" stroke="midnightblue" d="M795.86,-174.71C879.38,-167.45 1005.5,-144.91 1089.75,-76.5 1107.91,-61.75 1117.01,-34.43 1120.7,-20.23"/>
<polygon fill="midnightblue" stroke="midnightblue" points="795.82,-171.2 786.13,-175.49 796.38,-178.18 795.82,-171.2"/>
</g>
<!-- Node3 -->
<g id="node3" class="node">
<title>Node3</title>
<g id="a_node3"><a xlink:href="_local_macro_space_manager_8cpp.html" target="_top" xlink:title=" ">
<polygon fill="white" stroke="black" points="0,-56.75 0,-76 149.5,-76 149.5,-56.75 0,-56.75"/>
<text text-anchor="middle" x="74.75" y="-62.5" font-family="Helvetica,sans-Serif" font-size="10.00">LocalMacroSpaceManager.cpp</text>
</a>
</g>
</g>
<!-- Node1&#45;&gt;Node3 -->
<g id="edge2" class="edge">
<title>Node1&#45;&gt;Node3</title>
<path fill="none" stroke="midnightblue" d="M646.21,-166.82C520.59,-144.96 242.67,-96.6 126.93,-76.45"/>
<polygon fill="midnightblue" stroke="midnightblue" points="645.57,-170.26 656.02,-168.53 646.77,-163.36 645.57,-170.26"/>
</g>
<!-- Node4 -->
<g id="node4" class="node">
<title>Node4</title>
<g id="a_node4"><a xlink:href="_local_a_p_i_manager_8hpp.html" target="_top" xlink:title=" ">
<polygon fill="white" stroke="black" points="654.12,-113 654.12,-132.25 765.38,-132.25 765.38,-113 654.12,-113"/>
<text text-anchor="middle" x="709.75" y="-118.75" font-family="Helvetica,sans-Serif" font-size="10.00">LocalAPIManager.hpp</text>
</a>
</g>
</g>
<!-- Node1&#45;&gt;Node4 -->
<g id="edge3" class="edge">
<title>Node1&#45;&gt;Node4</title>
<path fill="none" stroke="midnightblue" d="M709.75,-157.69C709.75,-148.98 709.75,-139.24 709.75,-132.42"/>
<polygon fill="midnightblue" stroke="midnightblue" points="706.25,-157.4 709.75,-167.4 713.25,-157.4 706.25,-157.4"/>
</g>
<!-- Node4&#45;&gt;Node2 -->
<g id="edge6" class="edge">
<title>Node4&#45;&gt;Node2</title>
<path fill="none" stroke="midnightblue" d="M776.93,-118.6C865.36,-113.68 1015.29,-101.83 1063.75,-76.5 1088.95,-63.33 1108.68,-34.78 1117.58,-20.16"/>
<polygon fill="midnightblue" stroke="midnightblue" points="776.97,-115.09 767.18,-119.13 777.35,-122.08 776.97,-115.09"/>
</g>
<!-- Node4&#45;&gt;Node3 -->
<g id="edge11" class="edge">
<title>Node4&#45;&gt;Node3</title>
<path fill="none" stroke="midnightblue" d="M642.54,-116.7C538.71,-108.95 333.04,-93.1 158.75,-76.5 155.83,-76.22 152.85,-75.93 149.85,-75.63"/>
<polygon fill="midnightblue" stroke="midnightblue" points="642.04,-120.17 652.27,-117.42 642.56,-113.19 642.04,-120.17"/>
</g>
<!-- Node5 -->
<g id="node5" class="node">
<title>Node5</title>
<g id="a_node5"><a xlink:href="_local_a_p_i_manager_8cpp.html" target="_top" xlink:title=" ">
<polygon fill="white" stroke="black" points="777.12,-56.75 777.12,-76 888.38,-76 888.38,-56.75 777.12,-56.75"/>
<text text-anchor="middle" x="832.75" y="-62.5" font-family="Helvetica,sans-Serif" font-size="10.00">LocalAPIManager.cpp</text>
</a>
</g>
</g>
<!-- Node4&#45;&gt;Node5 -->
<g id="edge4" class="edge">
<title>Node4&#45;&gt;Node5</title>
<path fill="none" stroke="midnightblue" d="M740.65,-108C762.99,-98.14 792.56,-85.1 812.1,-76.48"/>
<polygon fill="midnightblue" stroke="midnightblue" points="739.46,-104.7 731.72,-111.93 742.28,-111.1 739.46,-104.7"/>
</g>
<!-- Node6 -->
<g id="node6" class="node">
<title>Node6</title>
<g id="a_node6"><a xlink:href="_queues_a_p_i_8cpp.html" target="_top" xlink:title=" ">
<polygon fill="white" stroke="black" points="714.25,-0.5 714.25,-19.75 799.25,-19.75 799.25,-0.5 714.25,-0.5"/>
<text text-anchor="middle" x="756.75" y="-6.25" font-family="Helvetica,sans-Serif" font-size="10.00">QueuesAPI.cpp</text>
</a>
</g>
</g>
<!-- Node4&#45;&gt;Node6 -->
<g id="edge5" class="edge">
<title>Node4&#45;&gt;Node6</title>
<path fill="none" stroke="midnightblue" d="M718.47,-102.24C722.02,-94.28 726.13,-84.97 729.75,-76.5 738.35,-56.41 748.04,-32.65 753.15,-20.04"/>
<polygon fill="midnightblue" stroke="midnightblue" points="715.31,-100.73 714.42,-111.28 721.7,-103.59 715.31,-100.73"/>
</g>
<!-- Node7 -->
<g id="node7" class="node">
<title>Node7</title>
<g id="a_node7"><a xlink:href="windows_2_sys_local_a_p_i_manager_8cpp.html" target="_top" xlink:title=" ">
<polygon fill="white" stroke="black" points="167.5,-56.75 167.5,-76 296,-76 296,-56.75 167.5,-56.75"/>
<text text-anchor="middle" x="231.75" y="-62.5" font-family="Helvetica,sans-Serif" font-size="10.00">SysLocalAPIManager.cpp</text>
</a>
</g>
</g>
<!-- Node4&#45;&gt;Node7 -->
<g id="edge7" class="edge">
<title>Node4&#45;&gt;Node7</title>
<path fill="none" stroke="midnightblue" d="M642.27,-114.39C561.86,-105.69 423.45,-90.53 304.75,-76.5 301.96,-76.17 299.11,-75.83 296.23,-75.48"/>
<polygon fill="midnightblue" stroke="midnightblue" points="641.89,-117.86 652.2,-115.46 642.64,-110.9 641.89,-117.86"/>
</g>
<!-- Node8 -->
<g id="node8" class="node">
<title>Node8</title>
<g id="a_node8"><a xlink:href="_local_queue_manager_8cpp.html" target="_top" xlink:title=" ">
<polygon fill="white" stroke="black" points="314.12,-56.75 314.12,-76 437.38,-76 437.38,-56.75 314.12,-56.75"/>
<text text-anchor="middle" x="375.75" y="-62.5" font-family="Helvetica,sans-Serif" font-size="10.00">LocalQueueManager.cpp</text>
</a>
</g>
</g>
<!-- Node4&#45;&gt;Node8 -->
<g id="edge8" class="edge">
<title>Node4&#45;&gt;Node8</title>
<path fill="none" stroke="midnightblue" d="M642.64,-110.73C580.76,-100.67 489.95,-85.92 431.84,-76.48"/>
<polygon fill="midnightblue" stroke="midnightblue" points="641.92,-114.15 652.35,-112.3 643.04,-107.24 641.92,-114.15"/>
</g>
<!-- Node9 -->
<g id="node9" class="node">
<title>Node9</title>
<g id="a_node9"><a xlink:href="_registration_a_p_i_8cpp.html" target="_top" xlink:title=" ">
<polygon fill="white" stroke="black" points="822.88,-0.5 822.88,-19.75 926.62,-19.75 926.62,-0.5 822.88,-0.5"/>
<text text-anchor="middle" x="874.75" y="-6.25" font-family="Helvetica,sans-Serif" font-size="10.00">RegistrationAPI.cpp</text>
</a>
</g>
</g>
<!-- Node4&#45;&gt;Node9 -->
<g id="edge9" class="edge">
<title>Node4&#45;&gt;Node9</title>
<path fill="none" stroke="midnightblue" d="M776.75,-114.29C824.46,-107.53 882.7,-95.6 897.75,-76.5 911.31,-59.3 893.96,-33.52 882.8,-20.04"/>
<polygon fill="midnightblue" stroke="midnightblue" points="776.44,-110.8 767,-115.62 777.38,-117.74 776.44,-110.8"/>
</g>
<!-- Node10 -->
<g id="node10" class="node">
<title>Node10</title>
<g id="a_node10"><a xlink:href="_local_registration_manager_8cpp.html" target="_top" xlink:title=" ">
<polygon fill="white" stroke="black" points="455.12,-56.75 455.12,-76 602.38,-76 602.38,-56.75 455.12,-56.75"/>
<text text-anchor="middle" x="528.75" y="-62.5" font-family="Helvetica,sans-Serif" font-size="10.00">LocalRegistrationManager.cpp</text>
</a>
</g>
</g>
<!-- Node4&#45;&gt;Node10 -->
<g id="edge10" class="edge">
<title>Node4&#45;&gt;Node10</title>
<path fill="none" stroke="midnightblue" d="M668.7,-109.32C635.39,-99.34 589.2,-85.49 559.14,-76.48"/>
<polygon fill="midnightblue" stroke="midnightblue" points="667.42,-112.59 678,-112.11 669.43,-105.89 667.42,-112.59"/>
</g>
<!-- Node11 -->
<g id="node11" class="node">
<title>Node11</title>
<g id="a_node11"><a xlink:href="_client_message_8cpp.html" target="_top" xlink:title=" ">
<polygon fill="white" stroke="black" points="620.75,-56.75 620.75,-76 720.75,-76 720.75,-56.75 620.75,-56.75"/>
<text text-anchor="middle" x="670.75" y="-62.5" font-family="Helvetica,sans-Serif" font-size="10.00">ClientMessage.cpp</text>
</a>
</g>
</g>
<!-- Node4&#45;&gt;Node11 -->
<g id="edge12" class="edge">
<title>Node4&#45;&gt;Node11</title>
<path fill="none" stroke="midnightblue" d="M696.74,-103.52C690.12,-94.32 682.37,-83.54 677.07,-76.17"/>
<polygon fill="midnightblue" stroke="midnightblue" points="693.75,-105.36 702.43,-111.44 699.43,-101.28 693.75,-105.36"/>
</g>
<!-- Node12 -->
<g id="node12" class="node">
<title>Node12</title>
<g id="a_node12"><a xlink:href="_local_a_p_i_context_8hpp.html" target="_top" xlink:title=" ">
<polygon fill="white" stroke="black" points="945.25,-56.75 945.25,-76 1054.25,-76 1054.25,-56.75 945.25,-56.75"/>
<text text-anchor="middle" x="999.75" y="-62.5" font-family="Helvetica,sans-Serif" font-size="10.00">LocalAPIContext.hpp</text>
</a>
</g>
</g>
<!-- Node4&#45;&gt;Node12 -->
<g id="edge13" class="edge">
<title>Node4&#45;&gt;Node12</title>
<path fill="none" stroke="midnightblue" d="M769.36,-110.47C823.05,-100.43 901.02,-85.85 951.05,-76.48"/>
<polygon fill="midnightblue" stroke="midnightblue" points="768.96,-106.99 759.78,-112.27 770.25,-113.87 768.96,-106.99"/>
</g>
<!-- Node12&#45;&gt;Node2 -->
<g id="edge16" class="edge">
<title>Node12&#45;&gt;Node2</title>
<path fill="none" stroke="midnightblue" d="M1030.65,-51.75C1052.99,-41.89 1082.56,-28.85 1102.1,-20.23"/>
<polygon fill="midnightblue" stroke="midnightblue" points="1029.46,-48.45 1021.72,-55.68 1032.28,-54.85 1029.46,-48.45"/>
</g>
<!-- Node12&#45;&gt;Node6 -->
<g id="edge15" class="edge">
<title>Node12&#45;&gt;Node6</title>
<path fill="none" stroke="midnightblue" d="M948.1,-53.84C903.17,-43.81 838.96,-29.48 797.56,-20.23"/>
<polygon fill="midnightblue" stroke="midnightblue" points="947.08,-57.2 957.6,-55.96 948.6,-50.37 947.08,-57.2"/>
</g>
<!-- Node12&#45;&gt;Node9 -->
<g id="edge17" class="edge">
<title>Node12&#45;&gt;Node9</title>
<path fill="none" stroke="midnightblue" d="M968.35,-51.75C945.65,-41.89 915.59,-28.85 895.74,-20.23"/>
<polygon fill="midnightblue" stroke="midnightblue" points="966.87,-54.92 977.44,-55.69 969.66,-48.5 966.87,-54.92"/>
</g>
<!-- Node13 -->
<g id="node13" class="node">
<title>Node13</title>
<g id="a_node13"><a xlink:href="_local_a_p_i_context_8cpp.html" target="_top" xlink:title=" ">
<polygon fill="white" stroke="black" points="944.25,-0.5 944.25,-19.75 1053.25,-19.75 1053.25,-0.5 944.25,-0.5"/>
<text text-anchor="middle" x="998.75" y="-6.25" font-family="Helvetica,sans-Serif" font-size="10.00">LocalAPIContext.cpp</text>
</a>
</g>
</g>
<!-- Node12&#45;&gt;Node13 -->
<g id="edge14" class="edge">
<title>Node12&#45;&gt;Node13</title>
<path fill="none" stroke="midnightblue" d="M999.38,-45.19C999.22,-36.48 999.04,-26.74 998.91,-19.92"/>
<polygon fill="midnightblue" stroke="midnightblue" points="995.87,-44.97 999.56,-54.9 1002.87,-44.84 995.87,-44.97"/>
</g>
</g>
</svg>
        <g id="navigator" transform="translate(0 0)" fill="#404254">
                <rect fill="#f2f5e9" fill-opacity="0.5" stroke="#606060" stroke-width=".5" x="0" y="0" width="60" height="60"/>
                <use id="zoomplus" xlink:href="#zoomPlus" x="17" y="9" onmousedown="handleZoom(evt,'in')"/>
                <use id="zoomminus" xlink:href="#zoomMin" x="42" y="9" onmousedown="handleZoom(evt,'out')"/>
                <use id="reset" xlink:href="#resetDef" x="30" y="36" onmousedown="handleReset()"/>
                <g id="arrowUp" xlink:href="#dirArrow" transform="translate(30 24)" onmousedown="handlePan(0,-1)">
                  <use xlink:href="#rim" fill="#404040">
                        <set attributeName="fill" to="#808080" begin="arrowUp.mouseover" end="arrowUp.mouseout"/>
                  </use>
                  <path fill="none" stroke="white" stroke-width="1.5" d="M0,-3.0v7 M-2.5,-0.5L0,-3.0L2.5,-0.5"/>
                </g>
                <g id="arrowRight" xlink:href="#dirArrow" transform="rotate(90) translate(36 -43)" onmousedown="handlePan(1,0)">
                  <use xlink:href="#rim" fill="#404040">
                        <set attributeName="fill" to="#808080" begin="arrowRight.mouseover" end="arrowRight.mouseout"/>
                  </use>
                  <path fill="none" stroke="white" stroke-width="1.5" d="M0,-3.0v7 M-2.5,-0.5L0,-3.0L2.5,-0.5"/>
                </g>
                <g id="arrowDown" xlink:href="#dirArrow" transform="rotate(180) translate(-30 -48)" onmousedown="handlePan(0,1)">
                  <use xlink:href="#rim" fill="#404040">
                        <set attributeName="fill" to="#808080" begin="arrowDown.mouseover" end="arrowDown.mouseout"/>
                  </use>
                  <path fill="none" stroke="white" stroke-width="1.5" d="M0,-3.0v7 M-2.5,-0.5L0,-3.0L2.5,-0.5"/>
                </g>
                <g id="arrowLeft" xlink:href="#dirArrow" transform="rotate(270) translate(-36 17)" onmousedown="handlePan(-1,0)">
                  <use xlink:href="#rim" fill="#404040">
                        <set attributeName="fill" to="#808080" begin="arrowLeft.mouseover" end="arrowLeft.mouseout"/>
                  </use>
                  <path fill="none" stroke="white" stroke-width="1.5" d="M0,-3.0v7 M-2.5,-0.5L0,-3.0L2.5,-0.5"/>
                </g>
        </g>
        <svg viewBox="0 0 15 15" width="100%" height="30px" preserveAspectRatio="xMaxYMin meet">
         <g id="arrow_out" transform="scale(0.3 0.3)">
          <a xlink:href="_local_macro_space_manager_8hpp__dep__incl_org.svg" target="_base">
           <rect id="button" ry="5" rx="5" y="6" x="6" height="38" width="38"
                fill="#f2f5e9" fill-opacity="0.5" stroke="#606060" stroke-width="1.0"/>
           <path id="arrow"
             d="M 11.500037,31.436501 C 11.940474,20.09759 22.043105,11.32322 32.158766,21.979434 L 37.068811,17.246167 C 37.068811,17.246167 37.088388,32 37.088388,32 L 22.160133,31.978069 C 22.160133,31.978069 26.997745,27.140456 26.997745,27.140456 C 18.528582,18.264221 13.291696,25.230495 11.500037,31.436501 z"
             style="fill:#404040;"/>
          </a>
         </g>
        </svg>
</svg>
