<?xml version="1.0" encoding="UTF-8" standalone="no"?>
<!DOCTYPE svg PUBLIC "-//W3C//DTD SVG 1.1//EN"
 "http://www.w3.org/Graphics/SVG/1.1/DTD/svg11.dtd">
<!-- Generated by graphviz version 12.1.0 (20240811.2233)
 -->
<!-- Title: MessageClass.hpp Pages: 1 -->
<!--zoomable 85 -->
<svg id="main" version="1.1" xmlns="http://www.w3.org/2000/svg" xmlns:xlink="http://www.w3.org/1999/xlink" xml:space="preserve" onload="init(evt)">
<style type="text/css"><![CDATA[
.edge:hover path { stroke: red; }
.edge:hover polygon { stroke: red; fill: red; }
]]></style>
<script type="text/javascript"><![CDATA[
var edges = document.getElementsByTagName('g');
if (edges && edges.length) {
  for (var i=0;i<edges.length;i++) {
    if (edges[i].id.substr(0,4)=='edge') {
      edges[i].setAttribute('class','edge');
    }
  }
}
]]></script>
        <defs>
                <circle id="rim" cx="0" cy="0" r="7"/>
                <circle id="rim2" cx="0" cy="0" r="3.5"/>
                <g id="zoomPlus">
                        <use xlink:href="#rim" fill="#404040">
                                <set attributeName="fill" to="#808080" begin="zoomplus.mouseover" end="zoomplus.mouseout"/>
                        </use>
                        <path d="M-4,0h8M0,-4v8" fill="none" stroke="white" stroke-width="1.5" pointer-events="none"/>
                </g>
                <g id="zoomMin">
                        <use xlink:href="#rim" fill="#404040">
                                <set attributeName="fill" to="#808080" begin="zoomminus.mouseover" end="zoomminus.mouseout"/>
                        </use>
                        <path d="M-4,0h8" fill="none" stroke="white" stroke-width="1.5" pointer-events="none"/>
                </g>
                <g id="dirArrow">
                        <path fill="none" stroke="white" stroke-width="1.5" d="M0,-3.0v7 M-2.5,-0.5L0,-3.0L2.5,-0.5"/>
                </g>
               <g id="resetDef">
                       <use xlink:href="#rim2" fill="#404040">
                               <set attributeName="fill" to="#808080" begin="reset.mouseover" end="reset.mouseout"/>
                       </use>
               </g>
        </defs>

<script type="text/javascript">
var viewWidth = 1252;
var viewHeight = 85;
var sectionId = 'dynsection-0';
</script>
<script xlink:href="svgpan.js"/>
<svg id="graph" class="graph">
<g id="viewport">
<title>MessageClass.hpp</title>
<polygon fill="white" stroke="none" points="-4,4 -4,-80.5 1247.75,-80.5 1247.75,4 -4,4"/>
<!-- Node1 -->
<g id="node1" class="node">
<title>Node1</title>
<g id="a_node1"><a xlink:title=" ">
<polygon fill="#bfbfbf" stroke="black" points="504.12,-56.75 504.12,-76 604.12,-76 604.12,-56.75 504.12,-56.75"/>
<text text-anchor="middle" x="554.12" y="-62.5" font-family="Helvetica,sans-Serif" font-size="10.00">MessageClass.hpp</text>
</a>
</g>
</g>
<!-- Node2 -->
<g id="node2" class="node">
<title>Node2</title>
<g id="a_node2"><a xlink:href="_setup_8cpp.html" target="_top" xlink:title=" ">
<polygon fill="white" stroke="black" points="0,-0.5 0,-19.75 60.25,-19.75 60.25,-0.5 0,-0.5"/>
<text text-anchor="middle" x="30.12" y="-6.25" font-family="Helvetica,sans-Serif" font-size="10.00">Setup.cpp</text>
</a>
</g>
</g>
<!-- Node1&#45;&gt;Node2 -->
<g id="edge1" class="edge">
<title>Node1&#45;&gt;Node2</title>
<path fill="none" stroke="midnightblue" d="M492.55,-62.36C400.11,-57.21 220.21,-44.83 69.12,-20.25 66.38,-19.8 63.54,-19.27 60.7,-18.7"/>
<polygon fill="midnightblue" stroke="midnightblue" points="492.23,-65.84 502.41,-62.89 492.61,-58.85 492.23,-65.84"/>
</g>
<!-- Node3 -->
<g id="node3" class="node">
<title>Node3</title>
<g id="a_node3"><a xlink:href="_rexx_memory_8cpp.html" target="_top" xlink:title=" ">
<polygon fill="white" stroke="black" points="78.25,-0.5 78.25,-19.75 170,-19.75 170,-0.5 78.25,-0.5"/>
<text text-anchor="middle" x="124.12" y="-6.25" font-family="Helvetica,sans-Serif" font-size="10.00">RexxMemory.cpp</text>
</a>
</g>
</g>
<!-- Node1&#45;&gt;Node3 -->
<g id="edge2" class="edge">
<title>Node1&#45;&gt;Node3</title>
<path fill="none" stroke="midnightblue" d="M492.68,-58.83C418.31,-50.72 289.34,-36.02 179.12,-20.25 176.25,-19.84 173.29,-19.4 170.32,-18.94"/>
<polygon fill="midnightblue" stroke="midnightblue" points="491.86,-62.26 502.18,-59.87 492.62,-55.31 491.86,-62.26"/>
</g>
<!-- Node4 -->
<g id="node4" class="node">
<title>Node4</title>
<g id="a_node4"><a xlink:href="_message_class_8cpp.html" target="_top" xlink:title=" ">
<polygon fill="white" stroke="black" points="188.12,-0.5 188.12,-19.75 288.12,-19.75 288.12,-0.5 188.12,-0.5"/>
<text text-anchor="middle" x="238.12" y="-6.25" font-family="Helvetica,sans-Serif" font-size="10.00">MessageClass.cpp</text>
</a>
</g>
</g>
<!-- Node1&#45;&gt;Node4 -->
<g id="edge3" class="edge">
<title>Node1&#45;&gt;Node4</title>
<path fill="none" stroke="midnightblue" d="M492.57,-54.81C432.99,-44.58 343.79,-29.26 288.37,-19.75"/>
<polygon fill="midnightblue" stroke="midnightblue" points="491.76,-58.22 502.21,-56.46 492.95,-51.32 491.76,-58.22"/>
</g>
<!-- Node5 -->
<g id="node5" class="node">
<title>Node5</title>
<g id="a_node5"><a xlink:href="_object_class_8cpp.html" target="_top" xlink:title=" ">
<polygon fill="white" stroke="black" points="305.75,-0.5 305.75,-19.75 394.5,-19.75 394.5,-0.5 305.75,-0.5"/>
<text text-anchor="middle" x="350.12" y="-6.25" font-family="Helvetica,sans-Serif" font-size="10.00">ObjectClass.cpp</text>
</a>
</g>
</g>
<!-- Node1&#45;&gt;Node5 -->
<g id="edge4" class="edge">
<title>Node1&#45;&gt;Node5</title>
<path fill="none" stroke="midnightblue" d="M509.32,-53.46C471.68,-43.45 418.7,-29.36 384.38,-20.23"/>
<polygon fill="midnightblue" stroke="midnightblue" points="507.95,-56.72 518.52,-55.91 509.75,-49.95 507.95,-56.72"/>
</g>
<!-- Node6 -->
<g id="node6" class="node">
<title>Node6</title>
<g id="a_node6"><a xlink:href="_rexx_misc_8cpp.html" target="_top" xlink:title=" ">
<polygon fill="white" stroke="black" points="412.62,-0.5 412.62,-19.75 491.62,-19.75 491.62,-0.5 412.62,-0.5"/>
<text text-anchor="middle" x="452.12" y="-6.25" font-family="Helvetica,sans-Serif" font-size="10.00">RexxMisc.cpp</text>
</a>
</g>
</g>
<!-- Node1&#45;&gt;Node6 -->
<g id="edge5" class="edge">
<title>Node1&#45;&gt;Node6</title>
<path fill="none" stroke="midnightblue" d="M527.15,-51.03C508.69,-41.21 484.8,-28.5 468.99,-20.1"/>
<polygon fill="midnightblue" stroke="midnightblue" points="525.47,-54.1 535.95,-55.71 528.76,-47.92 525.47,-54.1"/>
</g>
<!-- Node7 -->
<g id="node7" class="node">
<title>Node7</title>
<g id="a_node7"><a xlink:href="_rexx_activity_8cpp.html" target="_top" xlink:title=" ">
<polygon fill="white" stroke="black" points="509.38,-0.5 509.38,-19.75 598.88,-19.75 598.88,-0.5 509.38,-0.5"/>
<text text-anchor="middle" x="554.12" y="-6.25" font-family="Helvetica,sans-Serif" font-size="10.00">RexxActivity.cpp</text>
</a>
</g>
</g>
<!-- Node1&#45;&gt;Node7 -->
<g id="edge6" class="edge">
<title>Node1&#45;&gt;Node7</title>
<path fill="none" stroke="midnightblue" d="M554.12,-45.19C554.12,-36.48 554.12,-26.74 554.12,-19.92"/>
<polygon fill="midnightblue" stroke="midnightblue" points="550.63,-44.9 554.13,-54.9 557.63,-44.9 550.63,-44.9"/>
</g>
<!-- Node8 -->
<g id="node8" class="node">
<title>Node8</title>
<g id="a_node8"><a xlink:href="_message_dispatcher_8cpp.html" target="_top" xlink:title=" ">
<polygon fill="white" stroke="black" points="616.62,-0.5 616.62,-19.75 737.62,-19.75 737.62,-0.5 616.62,-0.5"/>
<text text-anchor="middle" x="677.12" y="-6.25" font-family="Helvetica,sans-Serif" font-size="10.00">MessageDispatcher.cpp</text>
</a>
</g>
</g>
<!-- Node1&#45;&gt;Node8 -->
<g id="edge7" class="edge">
<title>Node1&#45;&gt;Node8</title>
<path fill="none" stroke="midnightblue" d="M585.02,-51.75C607.36,-41.89 636.94,-28.85 656.47,-20.23"/>
<polygon fill="midnightblue" stroke="midnightblue" points="583.83,-48.45 576.1,-55.68 586.66,-54.85 583.83,-48.45"/>
</g>
<!-- Node9 -->
<g id="node9" class="node">
<title>Node9</title>
<g id="a_node9"><a xlink:href="_rexx_activation_8cpp.html" target="_top" xlink:title=" ">
<polygon fill="white" stroke="black" points="755.38,-0.5 755.38,-19.75 856.88,-19.75 856.88,-0.5 755.38,-0.5"/>
<text text-anchor="middle" x="806.12" y="-6.25" font-family="Helvetica,sans-Serif" font-size="10.00">RexxActivation.cpp</text>
</a>
</g>
</g>
<!-- Node1&#45;&gt;Node9 -->
<g id="edge8" class="edge">
<title>Node1&#45;&gt;Node9</title>
<path fill="none" stroke="midnightblue" d="M607.4,-53.91C654,-43.87 720.78,-29.5 763.81,-20.23"/>
<polygon fill="midnightblue" stroke="midnightblue" points="606.82,-50.45 597.78,-55.98 608.3,-57.29 606.82,-50.45"/>
</g>
<!-- Node10 -->
<g id="node10" class="node">
<title>Node10</title>
<g id="a_node10"><a xlink:href="_rexx_native_activation_8cpp.html" target="_top" xlink:title=" ">
<polygon fill="white" stroke="black" points="875.12,-0.5 875.12,-19.75 1005.12,-19.75 1005.12,-0.5 875.12,-0.5"/>
<text text-anchor="middle" x="940.12" y="-6.25" font-family="Helvetica,sans-Serif" font-size="10.00">RexxNativeActivation.cpp</text>
</a>
</g>
</g>
<!-- Node1&#45;&gt;Node10 -->
<g id="edge9" class="edge">
<title>Node1&#45;&gt;Node10</title>
<path fill="none" stroke="midnightblue" d="M615.59,-56.74C686.65,-46.75 803.11,-30.38 875.49,-20.21"/>
<polygon fill="midnightblue" stroke="midnightblue" points="615.5,-53.21 606.09,-58.07 616.48,-60.15 615.5,-53.21"/>
</g>
<!-- Node11 -->
<g id="node11" class="node">
<title>Node11</title>
<g id="a_node11"><a xlink:href="_c_p_p_code_8cpp.html" target="_top" xlink:title=" ">
<polygon fill="white" stroke="black" points="1023.62,-0.5 1023.62,-19.75 1102.62,-19.75 1102.62,-0.5 1023.62,-0.5"/>
<text text-anchor="middle" x="1063.12" y="-6.25" font-family="Helvetica,sans-Serif" font-size="10.00">CPPCode.cpp</text>
</a>
</g>
</g>
<!-- Node1&#45;&gt;Node11 -->
<g id="edge10" class="edge">
<title>Node1&#45;&gt;Node11</title>
<path fill="none" stroke="midnightblue" d="M615.75,-61.03C704.19,-54.41 872.13,-40.4 1014.12,-20.25 1017.12,-19.82 1020.22,-19.34 1023.33,-18.83"/>
<polygon fill="midnightblue" stroke="midnightblue" points="615.55,-57.53 605.83,-61.76 616.07,-64.52 615.55,-57.53"/>
</g>
<!-- Node12 -->
<g id="node12" class="node">
<title>Node12</title>
<g id="a_node12"><a xlink:href="_virtual_function_table_8cpp.html" target="_top" xlink:title=" ">
<polygon fill="white" stroke="black" points="1120.5,-0.5 1120.5,-19.75 1243.75,-19.75 1243.75,-0.5 1120.5,-0.5"/>
<text text-anchor="middle" x="1182.12" y="-6.25" font-family="Helvetica,sans-Serif" font-size="10.00">VirtualFunctionTable.cpp</text>
</a>
</g>
</g>
<!-- Node1&#45;&gt;Node12 -->
<g id="edge11" class="edge">
<title>Node1&#45;&gt;Node12</title>
<path fill="none" stroke="midnightblue" d="M616.02,-61.36C719.06,-54.46 932.27,-39.23 1112.12,-20.25 1114.81,-19.97 1117.54,-19.67 1120.31,-19.35"/>
<polygon fill="midnightblue" stroke="midnightblue" points="615.86,-57.87 606.11,-62.02 616.32,-64.85 615.86,-57.87"/>
</g>
</g>
</svg>
        <g id="navigator" transform="translate(0 0)" fill="#404254">
                <rect fill="#f2f5e9" fill-opacity="0.5" stroke="#606060" stroke-width=".5" x="0" y="0" width="60" height="60"/>
                <use id="zoomplus" xlink:href="#zoomPlus" x="17" y="9" onmousedown="handleZoom(evt,'in')"/>
                <use id="zoomminus" xlink:href="#zoomMin" x="42" y="9" onmousedown="handleZoom(evt,'out')"/>
                <use id="reset" xlink:href="#resetDef" x="30" y="36" onmousedown="handleReset()"/>
                <g id="arrowUp" xlink:href="#dirArrow" transform="translate(30 24)" onmousedown="handlePan(0,-1)">
                  <use xlink:href="#rim" fill="#404040">
                        <set attributeName="fill" to="#808080" begin="arrowUp.mouseover" end="arrowUp.mouseout"/>
                  </use>
                  <path fill="none" stroke="white" stroke-width="1.5" d="M0,-3.0v7 M-2.5,-0.5L0,-3.0L2.5,-0.5"/>
                </g>
                <g id="arrowRight" xlink:href="#dirArrow" transform="rotate(90) translate(36 -43)" onmousedown="handlePan(1,0)">
                  <use xlink:href="#rim" fill="#404040">
                        <set attributeName="fill" to="#808080" begin="arrowRight.mouseover" end="arrowRight.mouseout"/>
                  </use>
                  <path fill="none" stroke="white" stroke-width="1.5" d="M0,-3.0v7 M-2.5,-0.5L0,-3.0L2.5,-0.5"/>
                </g>
                <g id="arrowDown" xlink:href="#dirArrow" transform="rotate(180) translate(-30 -48)" onmousedown="handlePan(0,1)">
                  <use xlink:href="#rim" fill="#404040">
                        <set attributeName="fill" to="#808080" begin="arrowDown.mouseover" end="arrowDown.mouseout"/>
                  </use>
                  <path fill="none" stroke="white" stroke-width="1.5" d="M0,-3.0v7 M-2.5,-0.5L0,-3.0L2.5,-0.5"/>
                </g>
                <g id="arrowLeft" xlink:href="#dirArrow" transform="rotate(270) translate(-36 17)" onmousedown="handlePan(-1,0)">
                  <use xlink:href="#rim" fill="#404040">
                        <set attributeName="fill" to="#808080" begin="arrowLeft.mouseover" end="arrowLeft.mouseout"/>
                  </use>
                  <path fill="none" stroke="white" stroke-width="1.5" d="M0,-3.0v7 M-2.5,-0.5L0,-3.0L2.5,-0.5"/>
                </g>
        </g>
        <svg viewBox="0 0 15 15" width="100%" height="30px" preserveAspectRatio="xMaxYMin meet">
         <g id="arrow_out" transform="scale(0.3 0.3)">
          <a xlink:href="_message_class_8hpp__dep__incl_org.svg" target="_base">
           <rect id="button" ry="5" rx="5" y="6" x="6" height="38" width="38"
                fill="#f2f5e9" fill-opacity="0.5" stroke="#606060" stroke-width="1.0"/>
           <path id="arrow"
             d="M 11.500037,31.436501 C 11.940474,20.09759 22.043105,11.32322 32.158766,21.979434 L 37.068811,17.246167 C 37.068811,17.246167 37.088388,32 37.088388,32 L 22.160133,31.978069 C 22.160133,31.978069 26.997745,27.140456 26.997745,27.140456 C 18.528582,18.264221 13.291696,25.230495 11.500037,31.436501 z"
             style="fill:#404040;"/>
          </a>
         </g>
        </svg>
</svg>
