<?xml version="1.0" encoding="UTF-8" standalone="no"?>
<!DOCTYPE svg PUBLIC "-//W3C//DTD SVG 1.1//EN"
 "http://www.w3.org/Graphics/SVG/1.1/DTD/svg11.dtd">
<!-- Generated by graphviz version 12.1.0 (20240811.2233)
 -->
<!-- Title: MethodContextStubs.cpp Pages: 1 -->
<svg width="2820pt" height="366pt"
 viewBox="0.00 0.00 2819.88 365.75" xmlns="http://www.w3.org/2000/svg" xmlns:xlink="http://www.w3.org/1999/xlink">
<g id="graph0" class="graph" transform="scale(1 1) rotate(0) translate(4 361.75)">
<title>MethodContextStubs.cpp</title>
<polygon fill="white" stroke="none" points="-4,4 -4,-361.75 2815.88,-361.75 2815.88,4 -4,4"/>
<!-- Node1 -->
<g id="node1" class="node">
<title>Node1</title>
<g id="a_node1"><a xlink:title=" ">
<polygon fill="#bfbfbf" stroke="black" points="1973.88,-338 1973.88,-357.25 2100.88,-357.25 2100.88,-338 1973.88,-338"/>
<text text-anchor="middle" x="2037.38" y="-343.75" font-family="Helvetica,sans-Serif" font-size="10.00">MethodContextStubs.cpp</text>
</a>
</g>
</g>
<!-- Node2 -->
<g id="node2" class="node">
<title>Node2</title>
<g id="a_node2"><a xlink:href="_rexx_core_8h.html" target="_top" xlink:title=" ">
<polygon fill="white" stroke="black" points="1442.12,-225.5 1442.12,-244.75 1510.62,-244.75 1510.62,-225.5 1442.12,-225.5"/>
<text text-anchor="middle" x="1476.38" y="-231.25" font-family="Helvetica,sans-Serif" font-size="10.00">RexxCore.h</text>
</a>
</g>
</g>
<!-- Node1&#45;&gt;Node2 -->
<g id="edge1" class="edge">
<title>Node1&#45;&gt;Node2</title>
<path fill="none" stroke="midnightblue" d="M1983.27,-337.56C1931.78,-328.81 1852.17,-314.93 1783.38,-301.5 1690.17,-283.3 1581.6,-259.59 1521.77,-246.3"/>
<polygon fill="midnightblue" stroke="midnightblue" points="1522.83,-242.95 1512.3,-244.19 1521.31,-249.78 1522.83,-242.95"/>
</g>
<!-- Node69 -->
<g id="node47" class="node">
<title>Node69</title>
<g id="a_node47"><a xlink:href="_context_api_8hpp.html" target="_top" xlink:title=" ">
<polygon fill="white" stroke="black" points="2065.62,-281.75 2065.62,-301 2149.12,-301 2149.12,-281.75 2065.62,-281.75"/>
<text text-anchor="middle" x="2107.38" y="-287.5" font-family="Helvetica,sans-Serif" font-size="10.00">ContextApi.hpp</text>
</a>
</g>
</g>
<!-- Node1&#45;&gt;Node69 -->
<g id="edge52" class="edge">
<title>Node1&#45;&gt;Node69</title>
<path fill="none" stroke="midnightblue" d="M2048.93,-337.67C2059.33,-329.61 2074.84,-317.59 2087.26,-307.96"/>
<polygon fill="midnightblue" stroke="midnightblue" points="2089.07,-310.99 2094.83,-302.09 2084.79,-305.45 2089.07,-310.99"/>
</g>
<!-- Node70 -->
<g id="node48" class="node">
<title>Node70</title>
<g id="a_node48"><a xlink:href="_rexx_native_activation_8hpp.html" target="_top" xlink:title=" ">
<polygon fill="white" stroke="black" points="2184.38,-225.5 2184.38,-244.75 2314.38,-244.75 2314.38,-225.5 2184.38,-225.5"/>
<text text-anchor="middle" x="2249.38" y="-231.25" font-family="Helvetica,sans-Serif" font-size="10.00">RexxNativeActivation.hpp</text>
</a>
</g>
</g>
<!-- Node1&#45;&gt;Node70 -->
<g id="edge58" class="edge">
<title>Node1&#45;&gt;Node70</title>
<path fill="none" stroke="midnightblue" d="M2068.43,-337.56C2093.47,-329.67 2129.2,-317.06 2158.38,-301.5 2184.73,-287.44 2212.21,-266.73 2229.98,-252.4"/>
<polygon fill="midnightblue" stroke="midnightblue" points="2232.11,-255.18 2237.62,-246.14 2227.67,-249.77 2232.11,-255.18"/>
</g>
<!-- Node71 -->
<g id="node49" class="node">
<title>Node71</title>
<g id="a_node49"><a xlink:href="_protected_object_8hpp.html" target="_top" xlink:title=" ">
<polygon fill="white" stroke="black" points="2022.75,-225.5 2022.75,-244.75 2128,-244.75 2128,-225.5 2022.75,-225.5"/>
<text text-anchor="middle" x="2075.38" y="-231.25" font-family="Helvetica,sans-Serif" font-size="10.00">ProtectedObject.hpp</text>
</a>
</g>
</g>
<!-- Node1&#45;&gt;Node71 -->
<g id="edge59" class="edge">
<title>Node1&#45;&gt;Node71</title>
<path fill="none" stroke="midnightblue" d="M2039.63,-337.64C2042.91,-324.94 2049.35,-301.08 2056.38,-281.25 2059.43,-272.64 2063.27,-263.3 2066.69,-255.37"/>
<polygon fill="midnightblue" stroke="midnightblue" points="2069.83,-256.94 2070.67,-246.38 2063.42,-254.11 2069.83,-256.94"/>
</g>
<!-- Node72 -->
<g id="node50" class="node">
<title>Node72</title>
<g id="a_node50"><a xlink:href="_method_class_8hpp.html" target="_top" xlink:title=" ">
<polygon fill="white" stroke="black" points="1792.12,-281.75 1792.12,-301 1884.62,-301 1884.62,-281.75 1792.12,-281.75"/>
<text text-anchor="middle" x="1838.38" y="-287.5" font-family="Helvetica,sans-Serif" font-size="10.00">MethodClass.hpp</text>
</a>
</g>
</g>
<!-- Node1&#45;&gt;Node72 -->
<g id="edge62" class="edge">
<title>Node1&#45;&gt;Node72</title>
<path fill="none" stroke="midnightblue" d="M2004.07,-337.54C1970.78,-328.47 1919.39,-314.46 1882.68,-304.45"/>
<polygon fill="midnightblue" stroke="midnightblue" points="1883.82,-301.14 1873.25,-301.88 1881.98,-307.89 1883.82,-301.14"/>
</g>
<!-- Node3 -->
<g id="node3" class="node">
<title>Node3</title>
<g id="a_node3"><a xlink:href="oorexxapi_8h.html" target="_top" xlink:title=" ">
<polygon fill="white" stroke="black" points="1493.25,-169.25 1493.25,-188.5 1559.5,-188.5 1559.5,-169.25 1493.25,-169.25"/>
<text text-anchor="middle" x="1526.38" y="-175" font-family="Helvetica,sans-Serif" font-size="10.00">oorexxapi.h</text>
</a>
</g>
</g>
<!-- Node2&#45;&gt;Node3 -->
<g id="edge2" class="edge">
<title>Node2&#45;&gt;Node3</title>
<path fill="none" stroke="midnightblue" d="M1484.63,-225.17C1491.69,-217.5 1502.06,-206.26 1510.69,-196.89"/>
<polygon fill="midnightblue" stroke="midnightblue" points="1513.04,-199.5 1517.25,-189.78 1507.9,-194.76 1513.04,-199.5"/>
</g>
<!-- Node10 -->
<g id="node6" class="node">
<title>Node10</title>
<g id="a_node6"><a xlink:title=" ">
<polygon fill="white" stroke="#bfbfbf" points="1615.75,-169.25 1615.75,-188.5 1661,-188.5 1661,-169.25 1615.75,-169.25"/>
<text text-anchor="middle" x="1638.38" y="-175" font-family="Helvetica,sans-Serif" font-size="10.00">stdio.h</text>
</a>
</g>
</g>
<!-- Node2&#45;&gt;Node10 -->
<g id="edge5" class="edge">
<title>Node2&#45;&gt;Node10</title>
<path fill="none" stroke="midnightblue" d="M1503.49,-225.04C1531.28,-215.74 1574.57,-201.24 1604.58,-191.19"/>
<polygon fill="midnightblue" stroke="midnightblue" points="1605.57,-194.55 1613.94,-188.06 1603.34,-187.92 1605.57,-194.55"/>
</g>
<!-- Node11 -->
<g id="node7" class="node">
<title>Node11</title>
<g id="a_node7"><a xlink:title=" ">
<polygon fill="white" stroke="#bfbfbf" points="1678.75,-169.25 1678.75,-188.5 1730,-188.5 1730,-169.25 1678.75,-169.25"/>
<text text-anchor="middle" x="1704.38" y="-175" font-family="Helvetica,sans-Serif" font-size="10.00">stdarg.h</text>
</a>
</g>
</g>
<!-- Node2&#45;&gt;Node11 -->
<g id="edge6" class="edge">
<title>Node2&#45;&gt;Node11</title>
<path fill="none" stroke="midnightblue" d="M1510.8,-226.48C1547.45,-218.27 1607.41,-204.6 1667.57,-189.65"/>
<polygon fill="midnightblue" stroke="midnightblue" points="1668.09,-193.13 1676.94,-187.31 1666.39,-186.34 1668.09,-193.13"/>
</g>
<!-- Node12 -->
<g id="node8" class="node">
<title>Node12</title>
<g id="a_node8"><a xlink:title=" ">
<polygon fill="white" stroke="#bfbfbf" points="1748.25,-169.25 1748.25,-188.5 1796.5,-188.5 1796.5,-169.25 1748.25,-169.25"/>
<text text-anchor="middle" x="1772.38" y="-175" font-family="Helvetica,sans-Serif" font-size="10.00">string.h</text>
</a>
</g>
</g>
<!-- Node2&#45;&gt;Node12 -->
<g id="edge7" class="edge">
<title>Node2&#45;&gt;Node12</title>
<path fill="none" stroke="midnightblue" d="M1511.05,-229.3C1559.5,-222.32 1650.37,-208.34 1736.86,-189.39"/>
<polygon fill="midnightblue" stroke="midnightblue" points="1737.45,-192.84 1746.46,-187.25 1735.94,-186.01 1737.45,-192.84"/>
</g>
<!-- Node13 -->
<g id="node9" class="node">
<title>Node13</title>
<g id="a_node9"><a xlink:title=" ">
<polygon fill="white" stroke="#bfbfbf" points="1852.25,-169.25 1852.25,-188.5 1900.5,-188.5 1900.5,-169.25 1852.25,-169.25"/>
<text text-anchor="middle" x="1876.38" y="-175" font-family="Helvetica,sans-Serif" font-size="10.00">ctype.h</text>
</a>
</g>
</g>
<!-- Node2&#45;&gt;Node13 -->
<g id="edge8" class="edge">
<title>Node2&#45;&gt;Node13</title>
<path fill="none" stroke="midnightblue" d="M1511.01,-231.11C1575.68,-225.18 1719.05,-210.69 1838.38,-189 1839.2,-188.85 1840.04,-188.69 1840.88,-188.53"/>
<polygon fill="midnightblue" stroke="midnightblue" points="1841.4,-192 1850.45,-186.49 1839.94,-185.15 1841.4,-192"/>
</g>
<!-- Node14 -->
<g id="node10" class="node">
<title>Node14</title>
<g id="a_node10"><a xlink:title=" ">
<polygon fill="white" stroke="#bfbfbf" points="1918.62,-169.25 1918.62,-188.5 1966.12,-188.5 1966.12,-169.25 1918.62,-169.25"/>
<text text-anchor="middle" x="1942.38" y="-175" font-family="Helvetica,sans-Serif" font-size="10.00">limits.h</text>
</a>
</g>
</g>
<!-- Node2&#45;&gt;Node14 -->
<g id="edge9" class="edge">
<title>Node2&#45;&gt;Node14</title>
<path fill="none" stroke="midnightblue" d="M1510.9,-232.48C1582.9,-228.62 1754.41,-217.27 1907.35,-189.08"/>
<polygon fill="midnightblue" stroke="midnightblue" points="1907.66,-192.58 1916.85,-187.3 1906.37,-185.7 1907.66,-192.58"/>
</g>
<!-- Node15 -->
<g id="node11" class="node">
<title>Node15</title>
<g id="a_node11"><a xlink:title=" ">
<polygon fill="white" stroke="#bfbfbf" points="0,-169.25 0,-188.5 58.75,-188.5 58.75,-169.25 0,-169.25"/>
<text text-anchor="middle" x="29.38" y="-175" font-family="Helvetica,sans-Serif" font-size="10.00">stdexcept</text>
</a>
</g>
</g>
<!-- Node2&#45;&gt;Node15 -->
<g id="edge10" class="edge">
<title>Node2&#45;&gt;Node15</title>
<path fill="none" stroke="midnightblue" d="M1441.65,-233.94C1255.01,-232.83 368.77,-225.73 70.29,-188.9"/>
<polygon fill="midnightblue" stroke="midnightblue" points="70.94,-185.45 60.58,-187.65 70.05,-192.4 70.94,-185.45"/>
</g>
<!-- Node16 -->
<g id="node12" class="node">
<title>Node16</title>
<g id="a_node12"><a xlink:href="_rexx_platform_definitions_8h.html" target="_top" xlink:title=" ">
<polygon fill="white" stroke="black" points="77,-169.25 77,-188.5 207.75,-188.5 207.75,-169.25 77,-169.25"/>
<text text-anchor="middle" x="142.38" y="-175" font-family="Helvetica,sans-Serif" font-size="10.00">RexxPlatformDefinitions.h</text>
</a>
</g>
</g>
<!-- Node2&#45;&gt;Node16 -->
<g id="edge11" class="edge">
<title>Node2&#45;&gt;Node16</title>
<path fill="none" stroke="midnightblue" d="M1441.74,-233.99C1295.04,-233.17 710.28,-227.6 219.33,-189.17"/>
<polygon fill="midnightblue" stroke="midnightblue" points="219.87,-185.7 209.62,-188.4 219.31,-192.68 219.87,-185.7"/>
</g>
<!-- Node19 -->
<g id="node15" class="node">
<title>Node19</title>
<g id="a_node15"><a xlink:href="_rexx_constants_8hpp.html" target="_top" xlink:title=" ">
<polygon fill="white" stroke="black" points="225.88,-169.25 225.88,-188.5 328.88,-188.5 328.88,-169.25 225.88,-169.25"/>
<text text-anchor="middle" x="277.38" y="-175" font-family="Helvetica,sans-Serif" font-size="10.00">RexxConstants.hpp</text>
</a>
</g>
</g>
<!-- Node2&#45;&gt;Node19 -->
<g id="edge14" class="edge">
<title>Node2&#45;&gt;Node19</title>
<path fill="none" stroke="midnightblue" d="M1442,-233.98C1303.85,-233.13 775.74,-227.41 343.38,-189 342.37,-188.91 341.35,-188.82 340.33,-188.72"/>
<polygon fill="midnightblue" stroke="midnightblue" points="341.02,-185.27 330.71,-187.69 340.28,-192.23 341.02,-185.27"/>
</g>
<!-- Node20 -->
<g id="node16" class="node">
<title>Node20</title>
<g id="a_node16"><a xlink:href="_class_type_codes_8h.html" target="_top" xlink:title=" ">
<polygon fill="white" stroke="black" points="364.75,-56.75 364.75,-76 464,-76 464,-56.75 364.75,-56.75"/>
<text text-anchor="middle" x="414.38" y="-62.5" font-family="Helvetica,sans-Serif" font-size="10.00">ClassTypeCodes.h</text>
</a>
</g>
</g>
<!-- Node2&#45;&gt;Node20 -->
<g id="edge15" class="edge">
<title>Node2&#45;&gt;Node20</title>
<path fill="none" stroke="midnightblue" d="M1441.72,-234.25C1272.97,-234.63 541.68,-233.67 451.38,-189 422.17,-174.56 415.49,-163.38 404.38,-132.75 398.98,-117.88 402.29,-100.07 406.5,-86.8"/>
<polygon fill="midnightblue" stroke="midnightblue" points="409.74,-88.12 409.87,-77.52 403.16,-85.73 409.74,-88.12"/>
</g>
<!-- Node21 -->
<g id="node17" class="node">
<title>Node21</title>
<g id="a_node17"><a xlink:href="_global_names_8h.html" target="_top" xlink:title=" ">
<polygon fill="white" stroke="black" points="949.62,-169.25 949.62,-188.5 1033.12,-188.5 1033.12,-169.25 949.62,-169.25"/>
<text text-anchor="middle" x="991.38" y="-175" font-family="Helvetica,sans-Serif" font-size="10.00">GlobalNames.h</text>
</a>
</g>
</g>
<!-- Node2&#45;&gt;Node21 -->
<g id="edge16" class="edge">
<title>Node2&#45;&gt;Node21</title>
<path fill="none" stroke="midnightblue" d="M1441.67,-231.39C1369.67,-225.52 1198.6,-210.62 1044.43,-189.19"/>
<polygon fill="midnightblue" stroke="midnightblue" points="1045.25,-185.77 1034.86,-187.85 1044.28,-192.71 1045.25,-185.77"/>
</g>
<!-- Node22 -->
<g id="node18" class="node">
<title>Node22</title>
<g id="a_node18"><a xlink:href="_object_class_8hpp.html" target="_top" xlink:title=" ">
<polygon fill="white" stroke="black" points="704,-169.25 704,-188.5 792.75,-188.5 792.75,-169.25 704,-169.25"/>
<text text-anchor="middle" x="748.38" y="-175" font-family="Helvetica,sans-Serif" font-size="10.00">ObjectClass.hpp</text>
</a>
</g>
</g>
<!-- Node2&#45;&gt;Node22 -->
<g id="edge17" class="edge">
<title>Node2&#45;&gt;Node22</title>
<path fill="none" stroke="midnightblue" d="M1441.89,-233.04C1343.86,-229.7 1055.01,-218.06 804.27,-189.09"/>
<polygon fill="midnightblue" stroke="midnightblue" points="804.96,-185.65 794.62,-187.97 804.14,-192.6 804.96,-185.65"/>
</g>
<!-- Node25 -->
<g id="node21" class="node">
<title>Node25</title>
<g id="a_node21"><a xlink:href="_table_class_8hpp.html" target="_top" xlink:title=" ">
<polygon fill="white" stroke="black" points="516.62,-56.75 516.62,-76 600.12,-76 600.12,-56.75 516.62,-56.75"/>
<text text-anchor="middle" x="558.38" y="-62.5" font-family="Helvetica,sans-Serif" font-size="10.00">TableClass.hpp</text>
</a>
</g>
</g>
<!-- Node2&#45;&gt;Node25 -->
<g id="edge20" class="edge">
<title>Node2&#45;&gt;Node25</title>
<path fill="none" stroke="midnightblue" d="M1441.86,-233.61C1299.09,-231.27 754.2,-220.45 585.38,-189 506.72,-174.35 461.28,-197.56 414.38,-132.75 388.11,-96.46 453.82,-79.87 504.93,-72.61"/>
<polygon fill="midnightblue" stroke="midnightblue" points="505.28,-76.1 514.73,-71.32 504.36,-69.16 505.28,-76.1"/>
</g>
<!-- Node28 -->
<g id="node23" class="node">
<title>Node28</title>
<g id="a_node23"><a xlink:href="_stack_class_8hpp.html" target="_top" xlink:title=" ">
<polygon fill="white" stroke="black" points="1051.5,-169.25 1051.5,-188.5 1137.25,-188.5 1137.25,-169.25 1051.5,-169.25"/>
<text text-anchor="middle" x="1094.38" y="-175" font-family="Helvetica,sans-Serif" font-size="10.00">StackClass.hpp</text>
</a>
</g>
</g>
<!-- Node2&#45;&gt;Node28 -->
<g id="edge22" class="edge">
<title>Node2&#45;&gt;Node28</title>
<path fill="none" stroke="midnightblue" d="M1441.63,-229.81C1383.35,-222.48 1261.94,-206.81 1148.76,-189.32"/>
<polygon fill="midnightblue" stroke="midnightblue" points="1149.4,-185.88 1138.98,-187.8 1148.32,-192.8 1149.4,-185.88"/>
</g>
<!-- Node29 -->
<g id="node24" class="node">
<title>Node29</title>
<g id="a_node24"><a xlink:href="_rexx_memory_8hpp.html" target="_top" xlink:title=" ">
<polygon fill="white" stroke="black" points="594.5,-169.25 594.5,-188.5 686.25,-188.5 686.25,-169.25 594.5,-169.25"/>
<text text-anchor="middle" x="640.38" y="-175" font-family="Helvetica,sans-Serif" font-size="10.00">RexxMemory.hpp</text>
</a>
</g>
</g>
<!-- Node2&#45;&gt;Node29 -->
<g id="edge23" class="edge">
<title>Node2&#45;&gt;Node29</title>
<path fill="none" stroke="midnightblue" d="M1442.01,-233.45C1334.02,-231.04 991.72,-221.31 697.85,-189.15"/>
<polygon fill="midnightblue" stroke="midnightblue" points="698.37,-185.69 688.04,-188.07 697.6,-192.65 698.37,-185.69"/>
</g>
<!-- Node36 -->
<g id="node29" class="node">
<title>Node36</title>
<g id="a_node29"><a xlink:href="_rexx_behaviour_8hpp.html" target="_top" xlink:title=" ">
<polygon fill="white" stroke="black" points="1155,-169.25 1155,-188.5 1255.75,-188.5 1255.75,-169.25 1155,-169.25"/>
<text text-anchor="middle" x="1205.38" y="-175" font-family="Helvetica,sans-Serif" font-size="10.00">RexxBehaviour.hpp</text>
</a>
</g>
</g>
<!-- Node2&#45;&gt;Node36 -->
<g id="edge31" class="edge">
<title>Node2&#45;&gt;Node36</title>
<path fill="none" stroke="midnightblue" d="M1441.78,-227.2C1396.35,-218.11 1316.02,-202.02 1261.75,-191.16"/>
<polygon fill="midnightblue" stroke="midnightblue" points="1262.56,-187.75 1252.07,-189.22 1261.19,-194.62 1262.56,-187.75"/>
</g>
<!-- Node38 -->
<g id="node31" class="node">
<title>Node38</title>
<g id="a_node31"><a xlink:href="_class_class_8hpp.html" target="_top" xlink:title=" ">
<polygon fill="white" stroke="black" points="1273.5,-169.25 1273.5,-188.5 1359.25,-188.5 1359.25,-169.25 1273.5,-169.25"/>
<text text-anchor="middle" x="1316.38" y="-175" font-family="Helvetica,sans-Serif" font-size="10.00">ClassClass.hpp</text>
</a>
</g>
</g>
<!-- Node2&#45;&gt;Node38 -->
<g id="edge33" class="edge">
<title>Node2&#45;&gt;Node38</title>
<path fill="none" stroke="midnightblue" d="M1449.59,-225.04C1423.41,-216.16 1383.29,-202.56 1353.92,-192.61"/>
<polygon fill="midnightblue" stroke="midnightblue" points="1355.27,-189.37 1344.68,-189.47 1353.02,-196 1355.27,-189.37"/>
</g>
<!-- Node39 -->
<g id="node32" class="node">
<title>Node39</title>
<g id="a_node32"><a xlink:href="_rexx_envelope_8hpp.html" target="_top" xlink:title=" ">
<polygon fill="white" stroke="black" points="1377.12,-169.25 1377.12,-188.5 1475.62,-188.5 1475.62,-169.25 1377.12,-169.25"/>
<text text-anchor="middle" x="1426.38" y="-175" font-family="Helvetica,sans-Serif" font-size="10.00">RexxEnvelope.hpp</text>
</a>
</g>
</g>
<!-- Node2&#45;&gt;Node39 -->
<g id="edge34" class="edge">
<title>Node2&#45;&gt;Node39</title>
<path fill="none" stroke="midnightblue" d="M1468.12,-225.17C1461.06,-217.5 1450.69,-206.26 1442.06,-196.89"/>
<polygon fill="midnightblue" stroke="midnightblue" points="1444.85,-194.76 1435.5,-189.78 1439.71,-199.5 1444.85,-194.76"/>
</g>
<!-- Node40 -->
<g id="node33" class="node">
<title>Node40</title>
<g id="a_node33"><a xlink:href="_rexx_activity_8hpp.html" target="_top" xlink:title=" ">
<polygon fill="white" stroke="black" points="2144.62,-169.25 2144.62,-188.5 2234.12,-188.5 2234.12,-169.25 2144.62,-169.25"/>
<text text-anchor="middle" x="2189.38" y="-175" font-family="Helvetica,sans-Serif" font-size="10.00">RexxActivity.hpp</text>
</a>
</g>
</g>
<!-- Node2&#45;&gt;Node40 -->
<g id="edge35" class="edge">
<title>Node2&#45;&gt;Node40</title>
<path fill="none" stroke="midnightblue" d="M1510.79,-232.97C1607.26,-229.48 1888.67,-217.56 2133.1,-189.15"/>
<polygon fill="midnightblue" stroke="midnightblue" points="2133.32,-192.65 2142.84,-188 2132.5,-185.7 2133.32,-192.65"/>
</g>
<!-- Node51 -->
<g id="node43" class="node">
<title>Node51</title>
<g id="a_node43"><a xlink:href="_number_string_class_8hpp.html" target="_top" xlink:title=" ">
<polygon fill="white" stroke="black" points="811.25,-169.25 811.25,-188.5 931.5,-188.5 931.5,-169.25 811.25,-169.25"/>
<text text-anchor="middle" x="871.38" y="-175" font-family="Helvetica,sans-Serif" font-size="10.00">NumberStringClass.hpp</text>
</a>
</g>
</g>
<!-- Node2&#45;&gt;Node51 -->
<g id="edge47" class="edge">
<title>Node2&#45;&gt;Node51</title>
<path fill="none" stroke="midnightblue" d="M1441.83,-231.79C1358.19,-226.01 1137.91,-210.06 943.24,-189.27"/>
<polygon fill="midnightblue" stroke="midnightblue" points="943.76,-185.8 933.44,-188.21 943.01,-192.76 943.76,-185.8"/>
</g>
<!-- Node67 -->
<g id="node45" class="node">
<title>Node67</title>
<g id="a_node45"><a xlink:href="_activity_manager_8hpp.html" target="_top" xlink:title=" ">
<polygon fill="white" stroke="black" points="2022.12,-169.25 2022.12,-188.5 2126.62,-188.5 2126.62,-169.25 2022.12,-169.25"/>
<text text-anchor="middle" x="2074.38" y="-175" font-family="Helvetica,sans-Serif" font-size="10.00">ActivityManager.hpp</text>
</a>
</g>
</g>
<!-- Node2&#45;&gt;Node67 -->
<g id="edge50" class="edge">
<title>Node2&#45;&gt;Node67</title>
<path fill="none" stroke="midnightblue" d="M1510.86,-231.03C1591.9,-223.74 1800.83,-204.94 1975.38,-189 1986.66,-187.97 1998.66,-186.87 2010.27,-185.8"/>
<polygon fill="midnightblue" stroke="midnightblue" points="2010.57,-189.29 2020.21,-184.88 2009.93,-182.32 2010.57,-189.29"/>
</g>
<!-- Node4 -->
<g id="node4" class="node">
<title>Node4</title>
<g id="a_node4"><a xlink:href="rexx_8h.html" target="_top" xlink:title=" ">
<polygon fill="white" stroke="red" points="1443.88,-113 1443.88,-132.25 1486.88,-132.25 1486.88,-113 1443.88,-113"/>
<text text-anchor="middle" x="1465.38" y="-118.75" font-family="Helvetica,sans-Serif" font-size="10.00">rexx.h</text>
</a>
</g>
</g>
<!-- Node3&#45;&gt;Node4 -->
<g id="edge3" class="edge">
<title>Node3&#45;&gt;Node4</title>
<path fill="none" stroke="midnightblue" d="M1516.3,-168.92C1507.51,-161.1 1494.52,-149.55 1483.86,-140.07"/>
<polygon fill="midnightblue" stroke="midnightblue" points="1486.19,-137.45 1476.39,-133.42 1481.54,-142.68 1486.19,-137.45"/>
</g>
<!-- Node9 -->
<g id="node5" class="node">
<title>Node9</title>
<g id="a_node5"><a xlink:href="oorexxerrors_8h.html" target="_top" xlink:title=" ">
<polygon fill="white" stroke="black" points="1505.25,-113 1505.25,-132.25 1583.5,-132.25 1583.5,-113 1505.25,-113"/>
<text text-anchor="middle" x="1544.38" y="-118.75" font-family="Helvetica,sans-Serif" font-size="10.00">oorexxerrors.h</text>
</a>
</g>
</g>
<!-- Node3&#45;&gt;Node9 -->
<g id="edge4" class="edge">
<title>Node3&#45;&gt;Node9</title>
<path fill="none" stroke="midnightblue" d="M1529.35,-168.92C1531.65,-161.96 1534.94,-152.07 1537.85,-143.3"/>
<polygon fill="midnightblue" stroke="midnightblue" points="1541.15,-144.45 1540.98,-133.85 1534.51,-142.24 1541.15,-144.45"/>
</g>
<!-- Node17 -->
<g id="node13" class="node">
<title>Node17</title>
<g id="a_node13"><a xlink:title=" ">
<polygon fill="white" stroke="#bfbfbf" points="28.62,-113 28.62,-132.25 136.12,-132.25 136.12,-113 28.62,-113"/>
<text text-anchor="middle" x="82.38" y="-118.75" font-family="Helvetica,sans-Serif" font-size="10.00">PlatformDefinitions.h</text>
</a>
</g>
</g>
<!-- Node16&#45;&gt;Node17 -->
<g id="edge12" class="edge">
<title>Node16&#45;&gt;Node17</title>
<path fill="none" stroke="midnightblue" d="M132.47,-168.92C123.82,-161.1 111.04,-149.55 100.56,-140.07"/>
<polygon fill="midnightblue" stroke="midnightblue" points="102.99,-137.54 93.22,-133.43 98.29,-142.73 102.99,-137.54"/>
</g>
<!-- Node18 -->
<g id="node14" class="node">
<title>Node18</title>
<g id="a_node14"><a xlink:href="_rexx_error_codes_8h.html" target="_top" xlink:title=" ">
<polygon fill="white" stroke="black" points="153.88,-113 153.88,-132.25 250.88,-132.25 250.88,-113 153.88,-113"/>
<text text-anchor="middle" x="202.38" y="-118.75" font-family="Helvetica,sans-Serif" font-size="10.00">RexxErrorCodes.h</text>
</a>
</g>
</g>
<!-- Node16&#45;&gt;Node18 -->
<g id="edge13" class="edge">
<title>Node16&#45;&gt;Node18</title>
<path fill="none" stroke="midnightblue" d="M152.28,-168.92C160.93,-161.1 173.71,-149.55 184.19,-140.07"/>
<polygon fill="midnightblue" stroke="midnightblue" points="186.46,-142.73 191.53,-133.43 181.76,-137.54 186.46,-142.73"/>
</g>
<!-- Node23 -->
<g id="node19" class="node">
<title>Node23</title>
<g id="a_node19"><a xlink:href="_numerics_8hpp.html" target="_top" xlink:title=" ">
<polygon fill="white" stroke="black" points="954,-113 954,-132.25 1030.75,-132.25 1030.75,-113 954,-113"/>
<text text-anchor="middle" x="992.38" y="-118.75" font-family="Helvetica,sans-Serif" font-size="10.00">Numerics.hpp</text>
</a>
</g>
</g>
<!-- Node22&#45;&gt;Node23 -->
<g id="edge18" class="edge">
<title>Node22&#45;&gt;Node23</title>
<path fill="none" stroke="midnightblue" d="M789.22,-168.79C831.49,-159.4 897.55,-144.71 942.79,-134.65"/>
<polygon fill="midnightblue" stroke="midnightblue" points="943.34,-138.11 952.34,-132.53 941.82,-131.28 943.34,-138.11"/>
</g>
<!-- Node24 -->
<g id="node20" class="node">
<title>Node24</title>
<g id="a_node20"><a xlink:title=" ">
<polygon fill="white" stroke="#bfbfbf" points="858.75,-56.75 858.75,-76 910,-76 910,-56.75 858.75,-56.75"/>
<text text-anchor="middle" x="884.38" y="-62.5" font-family="Helvetica,sans-Serif" font-size="10.00">stddef.h</text>
</a>
</g>
</g>
<!-- Node22&#45;&gt;Node24 -->
<g id="edge19" class="edge">
<title>Node22&#45;&gt;Node24</title>
<path fill="none" stroke="midnightblue" d="M789.79,-168.75C834.15,-158.56 899.2,-142.26 906.38,-132.75 916.94,-118.75 908.21,-99.37 898.81,-85.35"/>
<polygon fill="midnightblue" stroke="midnightblue" points="901.76,-83.45 893.01,-77.46 896.12,-87.59 901.76,-83.45"/>
</g>
<!-- Node26 -->
<g id="node22" class="node">
<title>Node26</title>
<g id="a_node22"><a xlink:href="_rexx_collection_8hpp.html" target="_top" xlink:title=" ">
<polygon fill="white" stroke="red" points="507.62,-0.5 507.62,-19.75 609.12,-19.75 609.12,-0.5 507.62,-0.5"/>
<text text-anchor="middle" x="558.38" y="-6.25" font-family="Helvetica,sans-Serif" font-size="10.00">RexxCollection.hpp</text>
</a>
</g>
</g>
<!-- Node25&#45;&gt;Node26 -->
<g id="edge21" class="edge">
<title>Node25&#45;&gt;Node26</title>
<path fill="none" stroke="midnightblue" d="M558.38,-56.42C558.38,-49.62 558.38,-40.01 558.38,-31.4"/>
<polygon fill="midnightblue" stroke="midnightblue" points="561.88,-31.43 558.38,-21.43 554.88,-31.43 561.88,-31.43"/>
</g>
<!-- Node30 -->
<g id="node25" class="node">
<title>Node30</title>
<g id="a_node25"><a xlink:title=" ">
<polygon fill="white" stroke="#bfbfbf" points="669.62,-113 669.62,-132.25 771.12,-132.25 771.12,-113 669.62,-113"/>
<text text-anchor="middle" x="720.38" y="-118.75" font-family="Helvetica,sans-Serif" font-size="10.00">SysSemaphore.hpp</text>
</a>
</g>
</g>
<!-- Node29&#45;&gt;Node30 -->
<g id="edge24" class="edge">
<title>Node29&#45;&gt;Node30</title>
<path fill="none" stroke="midnightblue" d="M653.59,-168.92C665.63,-160.75 683.67,-148.52 697.97,-138.82"/>
<polygon fill="midnightblue" stroke="midnightblue" points="699.58,-141.96 705.89,-133.45 695.65,-136.16 699.58,-141.96"/>
</g>
<!-- Node31 -->
<g id="node26" class="node">
<title>Node31</title>
<g id="a_node26"><a xlink:href="_identity_table_class_8hpp.html" target="_top" xlink:title=" ">
<polygon fill="white" stroke="black" points="535.5,-113 535.5,-132.25 651.25,-132.25 651.25,-113 535.5,-113"/>
<text text-anchor="middle" x="593.38" y="-118.75" font-family="Helvetica,sans-Serif" font-size="10.00">IdentityTableClass.hpp</text>
</a>
</g>
</g>
<!-- Node29&#45;&gt;Node31 -->
<g id="edge25" class="edge">
<title>Node29&#45;&gt;Node31</title>
<path fill="none" stroke="midnightblue" d="M632.61,-168.92C626.04,-161.33 616.44,-150.24 608.37,-140.93"/>
<polygon fill="midnightblue" stroke="midnightblue" points="611.18,-138.83 601.98,-133.56 605.89,-143.41 611.18,-138.83"/>
</g>
<!-- Node32 -->
<g id="node27" class="node">
<title>Node32</title>
<g id="a_node27"><a xlink:href="_memory_stats_8hpp.html" target="_top" xlink:title=" ">
<polygon fill="white" stroke="black" points="423.75,-113 423.75,-132.25 517,-132.25 517,-113 423.75,-113"/>
<text text-anchor="middle" x="470.38" y="-118.75" font-family="Helvetica,sans-Serif" font-size="10.00">MemoryStats.hpp</text>
</a>
</g>
</g>
<!-- Node29&#45;&gt;Node32 -->
<g id="edge27" class="edge">
<title>Node29&#45;&gt;Node32</title>
<path fill="none" stroke="midnightblue" d="M611.92,-168.79C583.97,-159.88 541.1,-146.19 509.86,-136.22"/>
<polygon fill="midnightblue" stroke="midnightblue" points="510.95,-132.9 500.36,-133.19 508.83,-139.57 510.95,-132.9"/>
</g>
<!-- Node33 -->
<g id="node28" class="node">
<title>Node33</title>
<g id="a_node28"><a xlink:href="_memory_segment_8hpp.html" target="_top" xlink:title=" ">
<polygon fill="white" stroke="red" points="788.88,-113 788.88,-132.25 897.88,-132.25 897.88,-113 788.88,-113"/>
<text text-anchor="middle" x="843.38" y="-118.75" font-family="Helvetica,sans-Serif" font-size="10.00">MemorySegment.hpp</text>
</a>
</g>
</g>
<!-- Node29&#45;&gt;Node33 -->
<g id="edge29" class="edge">
<title>Node29&#45;&gt;Node33</title>
<path fill="none" stroke="midnightblue" d="M674.35,-168.79C708.31,-159.72 760.73,-145.71 798.18,-135.7"/>
<polygon fill="midnightblue" stroke="midnightblue" points="799.07,-139.09 807.82,-133.13 797.26,-132.33 799.07,-139.09"/>
</g>
<!-- Node31&#45;&gt;Node25 -->
<g id="edge26" class="edge">
<title>Node31&#45;&gt;Node25</title>
<path fill="none" stroke="midnightblue" d="M587.6,-112.67C582.86,-105.32 575.99,-94.68 570.11,-85.56"/>
<polygon fill="midnightblue" stroke="midnightblue" points="573.23,-83.94 564.87,-77.44 567.35,-87.74 573.23,-83.94"/>
</g>
<!-- Node32&#45;&gt;Node20 -->
<g id="edge28" class="edge">
<title>Node32&#45;&gt;Node20</title>
<path fill="none" stroke="midnightblue" d="M461.13,-112.67C453.14,-104.92 441.37,-93.53 431.64,-84.11"/>
<polygon fill="midnightblue" stroke="midnightblue" points="434.15,-81.66 424.54,-77.22 429.28,-86.69 434.15,-81.66"/>
</g>
<!-- Node33&#45;&gt;Node24 -->
<g id="edge30" class="edge">
<title>Node33&#45;&gt;Node24</title>
<path fill="none" stroke="midnightblue" d="M850.15,-112.67C855.76,-105.24 863.91,-94.45 870.85,-85.27"/>
<polygon fill="midnightblue" stroke="midnightblue" points="873.58,-87.46 876.82,-77.37 868,-83.24 873.58,-87.46"/>
</g>
<!-- Node37 -->
<g id="node30" class="node">
<title>Node37</title>
<g id="a_node30"><a xlink:href="_primitive_behaviour_names_8h.html" target="_top" xlink:title=" ">
<polygon fill="white" stroke="black" points="1183.62,-113 1183.62,-132.25 1321.12,-132.25 1321.12,-113 1183.62,-113"/>
<text text-anchor="middle" x="1252.38" y="-118.75" font-family="Helvetica,sans-Serif" font-size="10.00">PrimitiveBehaviourNames.h</text>
</a>
</g>
</g>
<!-- Node36&#45;&gt;Node37 -->
<g id="edge32" class="edge">
<title>Node36&#45;&gt;Node37</title>
<path fill="none" stroke="midnightblue" d="M1213.14,-168.92C1219.71,-161.33 1229.31,-150.24 1237.38,-140.93"/>
<polygon fill="midnightblue" stroke="midnightblue" points="1239.86,-143.41 1243.77,-133.56 1234.57,-138.83 1239.86,-143.41"/>
</g>
<!-- Node41 -->
<g id="node34" class="node">
<title>Node41</title>
<g id="a_node34"><a xlink:href="_list_class_8hpp.html" target="_top" xlink:title=" ">
<polygon fill="white" stroke="red" points="2457.38,-113 2457.38,-132.25 2533.38,-132.25 2533.38,-113 2457.38,-113"/>
<text text-anchor="middle" x="2495.38" y="-118.75" font-family="Helvetica,sans-Serif" font-size="10.00">ListClass.hpp</text>
</a>
</g>
</g>
<!-- Node40&#45;&gt;Node41 -->
<g id="edge36" class="edge">
<title>Node40&#45;&gt;Node41</title>
<path fill="none" stroke="midnightblue" d="M2234.34,-170.31C2283.71,-161.95 2365.63,-147.89 2445.64,-133.23"/>
<polygon fill="midnightblue" stroke="midnightblue" points="2446.22,-136.68 2455.42,-131.43 2444.96,-129.79 2446.22,-136.68"/>
</g>
<!-- Node43 -->
<g id="node35" class="node">
<title>Node43</title>
<g id="a_node35"><a xlink:href="_rexx_internal_stack_8hpp.html" target="_top" xlink:title=" ">
<polygon fill="white" stroke="black" points="2551.5,-113 2551.5,-132.25 2667.25,-132.25 2667.25,-113 2551.5,-113"/>
<text text-anchor="middle" x="2609.38" y="-118.75" font-family="Helvetica,sans-Serif" font-size="10.00">RexxInternalStack.hpp</text>
</a>
</g>
</g>
<!-- Node40&#45;&gt;Node43 -->
<g id="edge37" class="edge">
<title>Node40&#45;&gt;Node43</title>
<path fill="none" stroke="midnightblue" d="M2234.53,-172.22C2299.57,-164.06 2423.74,-148.37 2540.05,-133.05"/>
<polygon fill="midnightblue" stroke="midnightblue" points="2540.32,-136.54 2549.77,-131.77 2539.4,-129.6 2540.32,-136.54"/>
</g>
<!-- Node44 -->
<g id="node36" class="node">
<title>Node44</title>
<g id="a_node36"><a xlink:href="_rexx_activation_stack_8hpp.html" target="_top" xlink:title=" ">
<polygon fill="white" stroke="black" points="2684.88,-113 2684.88,-132.25 2811.88,-132.25 2811.88,-113 2684.88,-113"/>
<text text-anchor="middle" x="2748.38" y="-118.75" font-family="Helvetica,sans-Serif" font-size="10.00">RexxActivationStack.hpp</text>
</a>
</g>
</g>
<!-- Node40&#45;&gt;Node44 -->
<g id="edge38" class="edge">
<title>Node40&#45;&gt;Node44</title>
<path fill="none" stroke="midnightblue" d="M2234.41,-174.21C2318.51,-167.26 2505.44,-151.29 2673.13,-133.08"/>
<polygon fill="midnightblue" stroke="midnightblue" points="2673.33,-136.58 2682.89,-132.01 2672.57,-129.62 2673.33,-136.58"/>
</g>
<!-- Node45 -->
<g id="node37" class="node">
<title>Node45</title>
<g id="a_node37"><a xlink:href="_expression_stack_8hpp.html" target="_top" xlink:title=" ">
<polygon fill="white" stroke="red" points="1968.88,-113 1968.88,-132.25 2077.88,-132.25 2077.88,-113 1968.88,-113"/>
<text text-anchor="middle" x="2023.38" y="-118.75" font-family="Helvetica,sans-Serif" font-size="10.00">ExpressionStack.hpp</text>
</a>
</g>
</g>
<!-- Node40&#45;&gt;Node45 -->
<g id="edge39" class="edge">
<title>Node40&#45;&gt;Node45</title>
<path fill="none" stroke="midnightblue" d="M2161.59,-168.79C2134.3,-159.88 2092.43,-146.19 2061.93,-136.22"/>
<polygon fill="midnightblue" stroke="midnightblue" points="2063.28,-132.98 2052.69,-133.21 2061.11,-139.64 2063.28,-132.98"/>
</g>
<!-- Node47 -->
<g id="node38" class="node">
<title>Node47</title>
<g id="a_node38"><a xlink:href="_rexx_local_variables_8hpp.html" target="_top" xlink:title=" ">
<polygon fill="white" stroke="red" points="2095.88,-113 2095.88,-132.25 2216.88,-132.25 2216.88,-113 2095.88,-113"/>
<text text-anchor="middle" x="2156.38" y="-118.75" font-family="Helvetica,sans-Serif" font-size="10.00">RexxLocalVariables.hpp</text>
</a>
</g>
</g>
<!-- Node40&#45;&gt;Node47 -->
<g id="edge40" class="edge">
<title>Node40&#45;&gt;Node47</title>
<path fill="none" stroke="midnightblue" d="M2183.93,-168.92C2179.5,-161.65 2173.12,-151.16 2167.62,-142.11"/>
<polygon fill="midnightblue" stroke="midnightblue" points="2170.7,-140.43 2162.51,-133.71 2164.72,-144.07 2170.7,-140.43"/>
</g>
<!-- Node62 -->
<g id="node39" class="node">
<title>Node62</title>
<g id="a_node39"><a xlink:href="_source_location_8hpp.html" target="_top" xlink:title=" ">
<polygon fill="white" stroke="black" points="2235.25,-113 2235.25,-132.25 2337.5,-132.25 2337.5,-113 2235.25,-113"/>
<text text-anchor="middle" x="2286.38" y="-118.75" font-family="Helvetica,sans-Serif" font-size="10.00">SourceLocation.hpp</text>
</a>
</g>
</g>
<!-- Node40&#45;&gt;Node62 -->
<g id="edge41" class="edge">
<title>Node40&#45;&gt;Node62</title>
<path fill="none" stroke="midnightblue" d="M2205.39,-168.92C2220.42,-160.51 2243.14,-147.81 2260.69,-137.99"/>
<polygon fill="midnightblue" stroke="midnightblue" points="2261.99,-141.27 2269.01,-133.34 2258.58,-135.16 2261.99,-141.27"/>
</g>
<!-- Node63 -->
<g id="node40" class="node">
<title>Node63</title>
<g id="a_node40"><a xlink:href="_exit_handler_8hpp.html" target="_top" xlink:title=" ">
<polygon fill="white" stroke="red" points="1636.88,-113 1636.88,-132.25 1721.88,-132.25 1721.88,-113 1636.88,-113"/>
<text text-anchor="middle" x="1679.38" y="-118.75" font-family="Helvetica,sans-Serif" font-size="10.00">ExitHandler.hpp</text>
</a>
</g>
</g>
<!-- Node40&#45;&gt;Node63 -->
<g id="edge42" class="edge">
<title>Node40&#45;&gt;Node63</title>
<path fill="none" stroke="midnightblue" d="M2144.33,-170.01C2141.3,-169.56 2138.3,-169.13 2135.38,-168.75 1964.53,-146.38 1920.61,-151.89 1749.38,-132.75 1744.17,-132.17 1738.75,-131.53 1733.33,-130.86"/>
<polygon fill="midnightblue" stroke="midnightblue" points="1734.15,-127.44 1723.79,-129.66 1733.27,-134.38 1734.15,-127.44"/>
</g>
<!-- Node65 -->
<g id="node41" class="node">
<title>Node65</title>
<g id="a_node41"><a xlink:href="_activation_api_contexts_8hpp.html" target="_top" xlink:title=" ">
<polygon fill="white" stroke="black" points="1758.25,-113 1758.25,-132.25 1890.5,-132.25 1890.5,-113 1758.25,-113"/>
<text text-anchor="middle" x="1824.38" y="-118.75" font-family="Helvetica,sans-Serif" font-size="10.00">ActivationApiContexts.hpp</text>
</a>
</g>
</g>
<!-- Node40&#45;&gt;Node65 -->
<g id="edge44" class="edge">
<title>Node40&#45;&gt;Node65</title>
<path fill="none" stroke="midnightblue" d="M2144.31,-170.18C2141.29,-169.69 2138.29,-169.21 2135.38,-168.75 2055.68,-156.24 1964.28,-143.12 1901.3,-134.28"/>
<polygon fill="midnightblue" stroke="midnightblue" points="1902.16,-130.86 1891.77,-132.94 1901.19,-137.8 1902.16,-130.86"/>
</g>
<!-- Node66 -->
<g id="node42" class="node">
<title>Node66</title>
<g id="a_node42"><a xlink:title=" ">
<polygon fill="white" stroke="#bfbfbf" points="2355.62,-113 2355.62,-132.25 2439.12,-132.25 2439.12,-113 2355.62,-113"/>
<text text-anchor="middle" x="2397.38" y="-118.75" font-family="Helvetica,sans-Serif" font-size="10.00">SysActivity.hpp</text>
</a>
</g>
</g>
<!-- Node40&#45;&gt;Node66 -->
<g id="edge46" class="edge">
<title>Node40&#45;&gt;Node66</title>
<path fill="none" stroke="midnightblue" d="M2224.19,-168.79C2259.14,-159.68 2313.16,-145.59 2351.56,-135.57"/>
<polygon fill="midnightblue" stroke="midnightblue" points="2352.19,-139.03 2360.98,-133.12 2350.42,-132.25 2352.19,-139.03"/>
</g>
<!-- Node63&#45;&gt;Node2 -->
<g id="edge43" class="edge">
<title>Node63&#45;&gt;Node2</title>
<path fill="none" stroke="midnightblue" d="M1664.86,-132.66C1643.85,-145.62 1603.62,-170.01 1568.38,-189 1547.92,-200.02 1524.38,-211.54 1506.24,-220.19"/>
<polygon fill="midnightblue" stroke="midnightblue" points="1504.89,-216.95 1497.35,-224.39 1507.88,-223.28 1504.89,-216.95"/>
</g>
<!-- Node65&#45;&gt;Node2 -->
<g id="edge45" class="edge">
<title>Node65&#45;&gt;Node2</title>
<path fill="none" stroke="midnightblue" d="M1824.62,-132.39C1824.51,-146.63 1822.02,-174.63 1805.38,-189 1763.88,-224.82 1602.52,-232.32 1522.25,-233.81"/>
<polygon fill="midnightblue" stroke="midnightblue" points="1522.47,-230.31 1512.53,-233.97 1522.58,-237.31 1522.47,-230.31"/>
</g>
<!-- Node51&#45;&gt;Node23 -->
<g id="edge48" class="edge">
<title>Node51&#45;&gt;Node23</title>
<path fill="none" stroke="midnightblue" d="M891.63,-168.79C910.74,-160.23 939.65,-147.27 961.6,-137.42"/>
<polygon fill="midnightblue" stroke="midnightblue" points="962.98,-140.64 970.68,-133.35 960.12,-134.25 962.98,-140.64"/>
</g>
<!-- Node52 -->
<g id="node44" class="node">
<title>Node52</title>
<g id="a_node44"><a xlink:href="_number_string_math_8hpp.html" target="_top" xlink:title=" ">
<polygon fill="white" stroke="black" points="1049.12,-113 1049.12,-132.25 1165.62,-132.25 1165.62,-113 1049.12,-113"/>
<text text-anchor="middle" x="1107.38" y="-118.75" font-family="Helvetica,sans-Serif" font-size="10.00">NumberStringMath.hpp</text>
</a>
</g>
</g>
<!-- Node51&#45;&gt;Node52 -->
<g id="edge49" class="edge">
<title>Node51&#45;&gt;Node52</title>
<path fill="none" stroke="midnightblue" d="M910.88,-168.79C950.95,-159.58 1013.14,-145.29 1056.79,-135.25"/>
<polygon fill="midnightblue" stroke="midnightblue" points="1057.31,-138.73 1066.27,-133.07 1055.74,-131.9 1057.31,-138.73"/>
</g>
<!-- Node68 -->
<g id="node46" class="node">
<title>Node68</title>
<g id="a_node46"><a xlink:title=" ">
<polygon fill="white" stroke="#bfbfbf" points="1908.25,-113 1908.25,-132.25 1950.5,-132.25 1950.5,-113 1908.25,-113"/>
<text text-anchor="middle" x="1929.38" y="-118.75" font-family="Helvetica,sans-Serif" font-size="10.00">deque</text>
</a>
</g>
</g>
<!-- Node67&#45;&gt;Node68 -->
<g id="edge51" class="edge">
<title>Node67&#45;&gt;Node68</title>
<path fill="none" stroke="midnightblue" d="M2050.11,-168.79C2025.84,-159.72 1988.38,-145.7 1961.62,-135.69"/>
<polygon fill="midnightblue" stroke="midnightblue" points="1962.89,-132.43 1952.3,-132.2 1960.44,-138.98 1962.89,-132.43"/>
</g>
<!-- Node69&#45;&gt;Node2 -->
<g id="edge53" class="edge">
<title>Node69&#45;&gt;Node2</title>
<path fill="none" stroke="midnightblue" d="M2065.48,-286.77C1952.25,-277.04 1640.68,-250.25 1522.58,-240.1"/>
<polygon fill="midnightblue" stroke="midnightblue" points="1522.88,-236.61 1512.62,-239.24 1522.28,-243.58 1522.88,-236.61"/>
</g>
<!-- Node69&#45;&gt;Node40 -->
<g id="edge57" class="edge">
<title>Node69&#45;&gt;Node40</title>
<path fill="none" stroke="midnightblue" d="M2114.09,-281.33C2127.61,-263.11 2158.35,-221.69 2176.08,-197.79"/>
<polygon fill="midnightblue" stroke="midnightblue" points="2178.75,-200.07 2181.9,-189.95 2173.13,-195.89 2178.75,-200.07"/>
</g>
<!-- Node69&#45;&gt;Node65 -->
<g id="edge56" class="edge">
<title>Node69&#45;&gt;Node65</title>
<path fill="none" stroke="midnightblue" d="M2076.33,-281.32C2056.33,-274.2 2030.9,-262.54 2013.38,-245.25 1986.35,-218.59 2004.41,-193.21 1975.38,-168.75 1954.69,-151.32 1927.45,-140.62 1901.82,-134.06"/>
<polygon fill="midnightblue" stroke="midnightblue" points="1902.96,-130.73 1892.42,-131.84 1901.35,-137.54 1902.96,-130.73"/>
</g>
<!-- Node69&#45;&gt;Node70 -->
<g id="edge54" class="edge">
<title>Node69&#45;&gt;Node70</title>
<path fill="none" stroke="midnightblue" d="M2131.14,-281.29C2154.08,-272.53 2189.05,-259.17 2215.01,-249.25"/>
<polygon fill="midnightblue" stroke="midnightblue" points="2216.02,-252.61 2224.12,-245.78 2213.53,-246.07 2216.02,-252.61"/>
</g>
<!-- Node70&#45;&gt;Node40 -->
<g id="edge55" class="edge">
<title>Node70&#45;&gt;Node40</title>
<path fill="none" stroke="midnightblue" d="M2239.47,-225.17C2230.82,-217.35 2218.04,-205.8 2207.56,-196.32"/>
<polygon fill="midnightblue" stroke="midnightblue" points="2209.99,-193.79 2200.22,-189.68 2205.29,-198.98 2209.99,-193.79"/>
</g>
<!-- Node71&#45;&gt;Node40 -->
<g id="edge60" class="edge">
<title>Node71&#45;&gt;Node40</title>
<path fill="none" stroke="midnightblue" d="M2094.46,-225.04C2112.38,-216.52 2139.45,-203.63 2160.1,-193.81"/>
<polygon fill="midnightblue" stroke="midnightblue" points="2161.34,-197.09 2168.87,-189.64 2158.33,-190.77 2161.34,-197.09"/>
</g>
<!-- Node71&#45;&gt;Node67 -->
<g id="edge61" class="edge">
<title>Node71&#45;&gt;Node67</title>
<path fill="none" stroke="midnightblue" d="M2075.21,-225.17C2075.08,-218.37 2074.91,-208.76 2074.75,-200.15"/>
<polygon fill="midnightblue" stroke="midnightblue" points="2078.25,-200.11 2074.56,-190.18 2071.25,-200.24 2078.25,-200.11"/>
</g>
<!-- Node72&#45;&gt;Node2 -->
<g id="edge63" class="edge">
<title>Node72&#45;&gt;Node2</title>
<path fill="none" stroke="midnightblue" d="M1791.79,-283.39C1722.11,-272.95 1591.55,-253.39 1522.27,-243"/>
<polygon fill="midnightblue" stroke="midnightblue" points="1522.79,-239.54 1512.38,-241.52 1521.76,-246.46 1522.79,-239.54"/>
</g>
</g>
</svg>
