<?xml version="1.0" encoding="UTF-8" standalone="no"?>
<!DOCTYPE svg PUBLIC "-//W3C//DTD SVG 1.1//EN"
 "http://www.w3.org/Graphics/SVG/1.1/DTD/svg11.dtd">
<!-- Generated by graphviz version 2.30.1 (20130222.1704)
 -->
<!-- Title: MethodClass.hpp Pages: 1 -->
<!--zoomable 378 -->
<svg id="main" version="1.1" xmlns="http://www.w3.org/2000/svg" xmlns:xlink="http://www.w3.org/1999/xlink" xml:space="preserve" onload="init(evt)">
<style type="text/css"><![CDATA[
.edge:hover path { stroke: red; }
.edge:hover polygon { stroke: red; fill: red; }
]]></style>
<script type="text/javascript"><![CDATA[
var edges = document.getElementsByTagName('g');
if (edges && edges.length) {
  for (var i=0;i<edges.length;i++) {
    if (edges[i].id.substr(0,4)=='edge') {
      edges[i].setAttribute('class','edge');
    }
  }
}
]]></script>
        <defs>
                <circle id="rim" cx="0" cy="0" r="7"/>
                <circle id="rim2" cx="0" cy="0" r="3.5"/>
                <g id="zoomPlus">
                        <use xlink:href="#rim" fill="#404040">
                                <set attributeName="fill" to="#808080" begin="zoomplus.mouseover" end="zoomplus.mouseout"/>
                        </use>
                        <path d="M-4,0h8M0,-4v8" fill="none" stroke="white" stroke-width="1.5" pointer-events="none"/>
                </g>
                <g id="zoomMin">
                        <use xlink:href="#rim" fill="#404040">
                                <set attributeName="fill" to="#808080" begin="zoomminus.mouseover" end="zoomminus.mouseout"/>
                        </use>
                        <path d="M-4,0h8" fill="none" stroke="white" stroke-width="1.5" pointer-events="none"/>
                </g>
                <g id="dirArrow">
                        <path fill="none" stroke="white" stroke-width="1.5" d="M0,-3.0v7 M-2.5,-0.5L0,-3.0L2.5,-0.5"/>
                </g>
               <g id="resetDef">
                       <use xlink:href="#rim2" fill="#404040">
                               <set attributeName="fill" to="#808080" begin="reset.mouseover" end="reset.mouseout"/>
                       </use>
               </g>
        </defs>

<script type="text/javascript">
var viewWidth = 2803;
var viewHeight = 378;
var sectionId = 'dynsection-0';
</script>
<script xlink:href="svgpan.js"/>
<svg id="graph" class="graph">
<g id="viewport">
<title>MethodClass.hpp</title>
<polygon fill="white" stroke="white" points="-4,5 -4,-374 2800,-374 2800,5 -4,5"/>
<!-- Node1 -->
<g id="node1" class="node"><title>Node1</title>
<g id="a_node1"><a xlink:title=" ">
<polygon fill="#bfbfbf" stroke="black" points="1032.09,-349 1032.09,-369 1125.91,-369 1125.91,-349 1032.09,-349"/>
<text text-anchor="middle" x="1079" y="-355" font-family="Helvetica,sans-Serif" font-size="10.00">MethodClass.hpp</text>
</a>
</g>
</g>
<!-- Node2 -->
<g id="node2" class="node"><title>Node2</title>
<g id="a_node2"><a xlink:href="_rexx_core_8h.html" target="_top" xlink:title=" ">
<polygon fill="white" stroke="black" points="1044.6,-291 1044.6,-311 1113.4,-311 1113.4,-291 1044.6,-291"/>
<text text-anchor="middle" x="1079" y="-297" font-family="Helvetica,sans-Serif" font-size="10.00">RexxCore.h</text>
</a>
</g>
</g>
<!-- Node1&#45;&gt;Node2 -->
<g id="edge1" class="edge"><title>Node1&#45;&gt;Node2</title>
<path fill="none" stroke="midnightblue" d="M1079,-348.753C1079,-341.25 1079,-330.424 1079,-321.078"/>
<polygon fill="midnightblue" stroke="midnightblue" points="1082.5,-321.075 1079,-311.075 1075.5,-321.075 1082.5,-321.075"/>
</g>
<!-- Node3 -->
<g id="node3" class="node"><title>Node3</title>
<g id="a_node3"><a xlink:href="oorexxapi_8h.html" target="_top" xlink:title=" ">
<polygon fill="white" stroke="black" points="194.15,-233 194.15,-253 261.85,-253 261.85,-233 194.15,-233"/>
<text text-anchor="middle" x="228" y="-239" font-family="Helvetica,sans-Serif" font-size="10.00">oorexxapi.h</text>
</a>
</g>
</g>
<!-- Node2&#45;&gt;Node3 -->
<g id="edge2" class="edge"><title>Node2&#45;&gt;Node3</title>
<path fill="none" stroke="midnightblue" d="M1044.53,-300.144C933.689,-300.166 576.425,-296.784 272.502,-253.977"/>
<polygon fill="midnightblue" stroke="midnightblue" points="272.561,-250.45 262.167,-252.503 271.573,-257.38 272.561,-250.45"/>
</g>
<!-- Node10 -->
<g id="node10" class="node"><title>Node10</title>
<g id="a_node10"><a xlink:title=" ">
<polygon fill="white" stroke="#bfbfbf" points="280.269,-233 280.269,-253 325.731,-253 325.731,-233 280.269,-233"/>
<text text-anchor="middle" x="303" y="-239" font-family="Helvetica,sans-Serif" font-size="10.00">stdio.h</text>
</a>
</g>
</g>
<!-- Node2&#45;&gt;Node10 -->
<g id="edge9" class="edge"><title>Node2&#45;&gt;Node10</title>
<path fill="none" stroke="midnightblue" d="M1044.3,-298.965C919.456,-295.071 492.764,-280.26 335.845,-253.654"/>
<polygon fill="midnightblue" stroke="midnightblue" points="336.364,-250.191 325.905,-251.884 335.137,-257.083 336.364,-250.191"/>
</g>
<!-- Node11 -->
<g id="node11" class="node"><title>Node11</title>
<g id="a_node11"><a xlink:title=" ">
<polygon fill="white" stroke="#bfbfbf" points="343.934,-233 343.934,-253 396.066,-253 396.066,-233 343.934,-233"/>
<text text-anchor="middle" x="370" y="-239" font-family="Helvetica,sans-Serif" font-size="10.00">stdarg.h</text>
</a>
</g>
</g>
<!-- Node2&#45;&gt;Node11 -->
<g id="edge10" class="edge"><title>Node2&#45;&gt;Node11</title>
<path fill="none" stroke="midnightblue" d="M1044.32,-300.19C945.632,-300.192 654.841,-296.451 406.178,-253.864"/>
<polygon fill="midnightblue" stroke="midnightblue" points="406.687,-250.4 396.235,-252.136 405.488,-257.296 406.687,-250.4"/>
</g>
<!-- Node12 -->
<g id="node12" class="node"><title>Node12</title>
<g id="a_node12"><a xlink:title=" ">
<polygon fill="white" stroke="#bfbfbf" points="413.604,-233 413.604,-253 462.396,-253 462.396,-233 413.604,-233"/>
<text text-anchor="middle" x="438" y="-239" font-family="Helvetica,sans-Serif" font-size="10.00">string.h</text>
</a>
</g>
</g>
<!-- Node2&#45;&gt;Node12 -->
<g id="edge11" class="edge"><title>Node2&#45;&gt;Node12</title>
<path fill="none" stroke="midnightblue" d="M1044.45,-299.914C952.617,-299.15 694.898,-293.516 472.626,-253.727"/>
<polygon fill="midnightblue" stroke="midnightblue" points="473.202,-250.274 462.737,-251.93 471.95,-257.162 473.202,-250.274"/>
</g>
<!-- Node13 -->
<g id="node13" class="node"><title>Node13</title>
<g id="a_node13"><a xlink:title=" ">
<polygon fill="white" stroke="#bfbfbf" points="480.879,-233 480.879,-253 529.121,-253 529.121,-233 480.879,-233"/>
<text text-anchor="middle" x="505" y="-239" font-family="Helvetica,sans-Serif" font-size="10.00">ctype.h</text>
</a>
</g>
</g>
<!-- Node2&#45;&gt;Node13 -->
<g id="edge12" class="edge"><title>Node2&#45;&gt;Node13</title>
<path fill="none" stroke="midnightblue" d="M1044.48,-299.561C959.693,-297.955 734.496,-290.482 539.229,-253.884"/>
<polygon fill="midnightblue" stroke="midnightblue" points="539.844,-250.438 529.366,-252.005 538.534,-257.314 539.844,-250.438"/>
</g>
<!-- Node14 -->
<g id="node14" class="node"><title>Node14</title>
<g id="a_node14"><a xlink:title=" ">
<polygon fill="white" stroke="#bfbfbf" points="547.443,-233 547.443,-253 594.557,-253 594.557,-233 547.443,-233"/>
<text text-anchor="middle" x="571" y="-239" font-family="Helvetica,sans-Serif" font-size="10.00">limits.h</text>
</a>
</g>
</g>
<!-- Node2&#45;&gt;Node14 -->
<g id="edge13" class="edge"><title>Node2&#45;&gt;Node14</title>
<path fill="none" stroke="midnightblue" d="M1044.59,-299.106C967.228,-296.578 773.714,-287.368 604.453,-253.953"/>
<polygon fill="midnightblue" stroke="midnightblue" points="605.117,-250.517 594.624,-251.98 603.739,-257.38 605.117,-250.517"/>
</g>
<!-- Node15 -->
<g id="node15" class="node"><title>Node15</title>
<g id="a_node15"><a xlink:href="_rexx_platform_definitions_8h.html" target="_top" xlink:title=" ">
<polygon fill="white" stroke="black" points="612.478,-233 612.478,-253 743.522,-253 743.522,-233 612.478,-233"/>
<text text-anchor="middle" x="678" y="-239" font-family="Helvetica,sans-Serif" font-size="10.00">RexxPlatformDefinitions.h</text>
</a>
</g>
</g>
<!-- Node2&#45;&gt;Node15 -->
<g id="edge14" class="edge"><title>Node2&#45;&gt;Node15</title>
<path fill="none" stroke="midnightblue" d="M1044.46,-295.177C979.956,-286.168 839.83,-266.6 752.757,-254.44"/>
<polygon fill="midnightblue" stroke="midnightblue" points="753.06,-250.948 742.672,-253.032 752.092,-257.881 753.06,-250.948"/>
</g>
<!-- Node18 -->
<g id="node18" class="node"><title>Node18</title>
<g id="a_node18"><a xlink:href="_rexx_constants_8hpp.html" target="_top" xlink:title=" ">
<polygon fill="white" stroke="black" points="761.365,-233 761.365,-253 864.635,-253 864.635,-233 761.365,-233"/>
<text text-anchor="middle" x="813" y="-239" font-family="Helvetica,sans-Serif" font-size="10.00">RexxConstants.hpp</text>
</a>
</g>
</g>
<!-- Node2&#45;&gt;Node18 -->
<g id="edge17" class="edge"><title>Node2&#45;&gt;Node18</title>
<path fill="none" stroke="midnightblue" d="M1044.5,-292.736C999.069,-283.172 918.759,-266.265 865.7,-255.095"/>
<polygon fill="midnightblue" stroke="midnightblue" points="866.304,-251.645 855.797,-253.01 864.862,-258.495 866.304,-251.645"/>
</g>
<!-- Node19 -->
<g id="node19" class="node"><title>Node19</title>
<g id="a_node19"><a xlink:href="_class_type_codes_8h.html" target="_top" xlink:title=" ">
<polygon fill="white" stroke="black" points="625.032,-117 625.032,-137 724.968,-137 724.968,-117 625.032,-117"/>
<text text-anchor="middle" x="675" y="-123" font-family="Helvetica,sans-Serif" font-size="10.00">ClassTypeCodes.h</text>
</a>
</g>
</g>
<!-- Node2&#45;&gt;Node19 -->
<g id="edge18" class="edge"><title>Node2&#45;&gt;Node19</title>
<path fill="none" stroke="midnightblue" d="M1044.28,-293.045C1009.92,-285.561 956.204,-272.232 912,-254 893.602,-246.412 891.768,-238.618 873,-232 780.801,-199.489 719.219,-270.571 656,-196 643.922,-181.753 652.953,-160.375 662.244,-145.402"/>
<polygon fill="midnightblue" stroke="midnightblue" points="665.199,-147.28 667.876,-137.029 659.39,-143.373 665.199,-147.28"/>
</g>
<!-- Node20 -->
<g id="node20" class="node"><title>Node20</title>
<g id="a_node20"><a xlink:href="_global_names_8h.html" target="_top" xlink:title=" ">
<polygon fill="white" stroke="black" points="1319.54,-233 1319.54,-253 1404.46,-253 1404.46,-233 1319.54,-233"/>
<text text-anchor="middle" x="1362" y="-239" font-family="Helvetica,sans-Serif" font-size="10.00">GlobalNames.h</text>
</a>
</g>
</g>
<!-- Node2&#45;&gt;Node20 -->
<g id="edge19" class="edge"><title>Node2&#45;&gt;Node20</title>
<path fill="none" stroke="midnightblue" d="M1113.42,-293.189C1162.33,-283.51 1252.36,-265.696 1309.6,-254.369"/>
<polygon fill="midnightblue" stroke="midnightblue" points="1310.41,-257.777 1319.54,-252.403 1309.05,-250.911 1310.41,-257.777"/>
</g>
<!-- Node21 -->
<g id="node21" class="node"><title>Node21</title>
<g id="a_node21"><a xlink:href="_object_class_8hpp.html" target="_top" xlink:title=" ">
<polygon fill="white" stroke="black" points="1071.32,-233 1071.32,-253 1160.68,-253 1160.68,-233 1071.32,-233"/>
<text text-anchor="middle" x="1116" y="-239" font-family="Helvetica,sans-Serif" font-size="10.00">ObjectClass.hpp</text>
</a>
</g>
</g>
<!-- Node2&#45;&gt;Node21 -->
<g id="edge20" class="edge"><title>Node2&#45;&gt;Node21</title>
<path fill="none" stroke="midnightblue" d="M1085.11,-290.753C1090.34,-282.843 1098,-271.237 1104.39,-261.568"/>
<polygon fill="midnightblue" stroke="midnightblue" points="1107.41,-263.348 1110,-253.075 1101.57,-259.489 1107.41,-263.348"/>
</g>
<!-- Node24 -->
<g id="node24" class="node"><title>Node24</title>
<g id="a_node24"><a xlink:href="_table_class_8hpp.html" target="_top" xlink:title=" ">
<polygon fill="white" stroke="black" points="957.813,-117 957.813,-137 1042.19,-137 1042.19,-117 957.813,-117"/>
<text text-anchor="middle" x="1000" y="-123" font-family="Helvetica,sans-Serif" font-size="10.00">TableClass.hpp</text>
</a>
</g>
</g>
<!-- Node2&#45;&gt;Node24 -->
<g id="edge23" class="edge"><title>Node2&#45;&gt;Node24</title>
<path fill="none" stroke="midnightblue" d="M1075.21,-290.732C1066.58,-269.744 1044.6,-217.062 1024,-174 1019.53,-164.655 1014.23,-154.424 1009.75,-145.988"/>
<polygon fill="midnightblue" stroke="midnightblue" points="1012.78,-144.228 1004.97,-137.07 1006.61,-147.537 1012.78,-144.228"/>
</g>
<!-- Node27 -->
<g id="node27" class="node"><title>Node27</title>
<g id="a_node27"><a xlink:href="_stack_class_8hpp.html" target="_top" xlink:title=" ">
<polygon fill="white" stroke="black" points="1422.26,-233 1422.26,-253 1507.74,-253 1507.74,-233 1422.26,-233"/>
<text text-anchor="middle" x="1465" y="-239" font-family="Helvetica,sans-Serif" font-size="10.00">StackClass.hpp</text>
</a>
</g>
</g>
<!-- Node2&#45;&gt;Node27 -->
<g id="edge26" class="edge"><title>Node2&#45;&gt;Node27</title>
<path fill="none" stroke="midnightblue" d="M1113.71,-295.836C1172.78,-288.617 1296.85,-272.876 1412.13,-254.073"/>
<polygon fill="midnightblue" stroke="midnightblue" points="1412.88,-257.495 1422.18,-252.421 1411.75,-250.588 1412.88,-257.495"/>
</g>
<!-- Node28 -->
<g id="node28" class="node"><title>Node28</title>
<g id="a_node28"><a xlink:href="_rexx_memory_8hpp.html" target="_top" xlink:title=" ">
<polygon fill="white" stroke="black" points="921.189,-233 921.189,-253 1014.81,-253 1014.81,-233 921.189,-233"/>
<text text-anchor="middle" x="968" y="-239" font-family="Helvetica,sans-Serif" font-size="10.00">RexxMemory.hpp</text>
</a>
</g>
</g>
<!-- Node2&#45;&gt;Node28 -->
<g id="edge27" class="edge"><title>Node2&#45;&gt;Node28</title>
<path fill="none" stroke="midnightblue" d="M1060.67,-290.753C1042.81,-281.742 1015.44,-267.935 995.074,-257.659"/>
<polygon fill="midnightblue" stroke="midnightblue" points="996.493,-254.455 985.988,-253.075 993.34,-260.704 996.493,-254.455"/>
</g>
<!-- Node35 -->
<g id="node33" class="node"><title>Node35</title>
<g id="a_node33"><a xlink:href="_rexx_behaviour_8hpp.html" target="_top" xlink:title=" ">
<polygon fill="white" stroke="black" points="1525.64,-233 1525.64,-253 1628.36,-253 1628.36,-233 1525.64,-233"/>
<text text-anchor="middle" x="1577" y="-239" font-family="Helvetica,sans-Serif" font-size="10.00">RexxBehaviour.hpp</text>
</a>
</g>
</g>
<!-- Node2&#45;&gt;Node35 -->
<g id="edge35" class="edge"><title>Node2&#45;&gt;Node35</title>
<path fill="none" stroke="midnightblue" d="M1113.64,-297.038C1186.07,-290.696 1359.03,-274.785 1515.19,-254.039"/>
<polygon fill="midnightblue" stroke="midnightblue" points="1516,-257.462 1525.45,-252.666 1515.07,-250.523 1516,-257.462"/>
</g>
<!-- Node37 -->
<g id="node35" class="node"><title>Node37</title>
<g id="a_node35"><a xlink:href="_class_class_8hpp.html" target="_top" xlink:title=" ">
<polygon fill="white" stroke="black" points="1646.26,-233 1646.26,-253 1731.74,-253 1731.74,-233 1646.26,-233"/>
<text text-anchor="middle" x="1689" y="-239" font-family="Helvetica,sans-Serif" font-size="10.00">ClassClass.hpp</text>
</a>
</g>
</g>
<!-- Node2&#45;&gt;Node37 -->
<g id="edge37" class="edge"><title>Node2&#45;&gt;Node37</title>
<path fill="none" stroke="midnightblue" d="M1113.43,-298.455C1199.69,-294.307 1432.16,-281.432 1636.21,-253.968"/>
<polygon fill="midnightblue" stroke="midnightblue" points="1636.77,-257.424 1646.21,-252.607 1635.83,-250.488 1636.77,-257.424"/>
</g>
<!-- Node38 -->
<g id="node36" class="node"><title>Node38</title>
<g id="a_node36"><a xlink:href="_rexx_envelope_8hpp.html" target="_top" xlink:title=" ">
<polygon fill="white" stroke="black" points="1750.03,-233 1750.03,-253 1849.97,-253 1849.97,-233 1750.03,-233"/>
<text text-anchor="middle" x="1800" y="-239" font-family="Helvetica,sans-Serif" font-size="10.00">RexxEnvelope.hpp</text>
</a>
</g>
</g>
<!-- Node2&#45;&gt;Node38 -->
<g id="edge38" class="edge"><title>Node2&#45;&gt;Node38</title>
<path fill="none" stroke="midnightblue" d="M1113.51,-298.763C1211.76,-294.993 1501.23,-282.14 1740,-254 1740.1,-253.988 1740.2,-253.976 1740.31,-253.964"/>
<polygon fill="midnightblue" stroke="midnightblue" points="1740.5,-257.469 1749.96,-252.708 1739.59,-250.527 1740.5,-257.469"/>
</g>
<!-- Node39 -->
<g id="node37" class="node"><title>Node39</title>
<g id="a_node37"><a xlink:href="_rexx_activity_8hpp.html" target="_top" xlink:title=" ">
<polygon fill="white" stroke="black" points="2046.41,-233 2046.41,-253 2135.59,-253 2135.59,-233 2046.41,-233"/>
<text text-anchor="middle" x="2091" y="-239" font-family="Helvetica,sans-Serif" font-size="10.00">RexxActivity.hpp</text>
</a>
</g>
</g>
<!-- Node2&#45;&gt;Node39 -->
<g id="edge39" class="edge"><title>Node2&#45;&gt;Node39</title>
<path fill="none" stroke="midnightblue" d="M1113.54,-298.089C1262.72,-289.834 1852.45,-257.201 2036.1,-247.038"/>
<polygon fill="midnightblue" stroke="midnightblue" points="2036.54,-250.519 2046.33,-246.472 2036.15,-243.53 2036.54,-250.519"/>
</g>
<!-- Node50 -->
<g id="node47" class="node"><title>Node50</title>
<g id="a_node47"><a xlink:href="_number_string_class_8hpp.html" target="_top" xlink:title=" ">
<polygon fill="white" stroke="black" points="1178.92,-233 1178.92,-253 1301.08,-253 1301.08,-233 1178.92,-233"/>
<text text-anchor="middle" x="1240" y="-239" font-family="Helvetica,sans-Serif" font-size="10.00">NumberStringClass.hpp</text>
</a>
</g>
</g>
<!-- Node2&#45;&gt;Node50 -->
<g id="edge51" class="edge"><title>Node2&#45;&gt;Node50</title>
<path fill="none" stroke="midnightblue" d="M1105.23,-290.878C1132.2,-281.494 1174.41,-266.815 1204.39,-256.386"/>
<polygon fill="midnightblue" stroke="midnightblue" points="1205.76,-259.616 1214.05,-253.025 1203.46,-253.005 1205.76,-259.616"/>
</g>
<!-- Node66 -->
<g id="node49" class="node"><title>Node66</title>
<g id="a_node49"><a xlink:href="_activity_manager_8hpp.html" target="_top" xlink:title=" ">
<polygon fill="white" stroke="black" points="2687.97,-233 2687.97,-253 2794.03,-253 2794.03,-233 2687.97,-233"/>
<text text-anchor="middle" x="2741" y="-239" font-family="Helvetica,sans-Serif" font-size="10.00">ActivityManager.hpp</text>
</a>
</g>
</g>
<!-- Node2&#45;&gt;Node66 -->
<g id="edge54" class="edge"><title>Node2&#45;&gt;Node66</title>
<path fill="none" stroke="midnightblue" d="M1113.71,-298.83C1321.74,-291.821 2403.37,-255.376 2677.7,-246.133"/>
<polygon fill="midnightblue" stroke="midnightblue" points="2678,-249.625 2687.88,-245.79 2677.76,-242.629 2678,-249.625"/>
</g>
<!-- Node4 -->
<g id="node4" class="node"><title>Node4</title>
<g id="a_node4"><a xlink:href="rexx_8h.html" target="_top" xlink:title=" ">
<polygon fill="white" stroke="black" points="166.384,-175 166.384,-195 209.616,-195 209.616,-175 166.384,-175"/>
<text text-anchor="middle" x="188" y="-181" font-family="Helvetica,sans-Serif" font-size="10.00">rexx.h</text>
</a>
</g>
</g>
<!-- Node3&#45;&gt;Node4 -->
<g id="edge3" class="edge"><title>Node3&#45;&gt;Node4</title>
<path fill="none" stroke="midnightblue" d="M221.395,-232.753C215.687,-224.761 207.284,-212.998 200.336,-203.27"/>
<polygon fill="midnightblue" stroke="midnightblue" points="203.143,-201.178 194.482,-195.075 197.447,-205.247 203.143,-201.178"/>
</g>
<!-- Node9 -->
<g id="node9" class="node"><title>Node9</title>
<g id="a_node9"><a xlink:href="oorexxerrors_8h.html" target="_top" xlink:title=" ">
<polygon fill="white" stroke="black" points="227.766,-175 227.766,-195 308.234,-195 308.234,-175 227.766,-175"/>
<text text-anchor="middle" x="268" y="-181" font-family="Helvetica,sans-Serif" font-size="10.00">oorexxerrors.h</text>
</a>
</g>
</g>
<!-- Node3&#45;&gt;Node9 -->
<g id="edge8" class="edge"><title>Node3&#45;&gt;Node9</title>
<path fill="none" stroke="midnightblue" d="M234.605,-232.753C240.313,-224.761 248.716,-212.998 255.664,-203.27"/>
<polygon fill="midnightblue" stroke="midnightblue" points="258.553,-205.247 261.518,-195.075 252.857,-201.178 258.553,-205.247"/>
</g>
<!-- Node5 -->
<g id="node5" class="node"><title>Node5</title>
<g id="a_node5"><a xlink:title=" ">
<polygon fill="white" stroke="#bfbfbf" points="-0.23877,-117 -0.23877,-137 80.2388,-137 80.2388,-117 -0.23877,-117"/>
<text text-anchor="middle" x="40" y="-123" font-family="Helvetica,sans-Serif" font-size="10.00">rexxapitypes.h</text>
</a>
</g>
</g>
<!-- Node4&#45;&gt;Node5 -->
<g id="edge4" class="edge"><title>Node4&#45;&gt;Node5</title>
<path fill="none" stroke="midnightblue" d="M166.162,-175.737C141.707,-166.484 101.787,-151.379 73.4054,-140.64"/>
<polygon fill="midnightblue" stroke="midnightblue" points="74.4833,-137.306 63.8918,-137.04 72.006,-143.853 74.4833,-137.306"/>
</g>
<!-- Node6 -->
<g id="node6" class="node"><title>Node6</title>
<g id="a_node6"><a xlink:href="rexxapidefs_8h.html" target="_top" xlink:title=" ">
<polygon fill="white" stroke="black" points="98.2612,-117 98.2612,-137 173.739,-137 173.739,-117 98.2612,-117"/>
<text text-anchor="middle" x="136" y="-123" font-family="Helvetica,sans-Serif" font-size="10.00">rexxapidefs.h</text>
</a>
</g>
</g>
<!-- Node4&#45;&gt;Node6 -->
<g id="edge5" class="edge"><title>Node4&#45;&gt;Node6</title>
<path fill="none" stroke="midnightblue" d="M179.413,-174.753C171.841,-166.598 160.622,-154.516 151.486,-144.677"/>
<polygon fill="midnightblue" stroke="midnightblue" points="153.796,-142.022 144.427,-137.075 148.667,-146.785 153.796,-142.022"/>
</g>
<!-- Node7 -->
<g id="node7" class="node"><title>Node7</title>
<g id="a_node7"><a xlink:title=" ">
<polygon fill="white" stroke="#bfbfbf" points="191.872,-117 191.872,-137 290.128,-137 290.128,-117 191.872,-117"/>
<text text-anchor="middle" x="241" y="-123" font-family="Helvetica,sans-Serif" font-size="10.00">rexxplatformdefs.h</text>
</a>
</g>
</g>
<!-- Node4&#45;&gt;Node7 -->
<g id="edge6" class="edge"><title>Node4&#45;&gt;Node7</title>
<path fill="none" stroke="midnightblue" d="M196.752,-174.753C204.547,-166.516 216.134,-154.274 225.495,-144.382"/>
<polygon fill="midnightblue" stroke="midnightblue" points="228.079,-146.744 232.411,-137.075 222.995,-141.932 228.079,-146.744"/>
</g>
<!-- Node8 -->
<g id="node8" class="node"><title>Node8</title>
<g id="a_node8"><a xlink:title=" ">
<polygon fill="white" stroke="#bfbfbf" points="308.15,-117 308.15,-137 405.85,-137 405.85,-117 308.15,-117"/>
<text text-anchor="middle" x="357" y="-123" font-family="Helvetica,sans-Serif" font-size="10.00">rexxplatformapis.h</text>
</a>
</g>
</g>
<!-- Node4&#45;&gt;Node8 -->
<g id="edge7" class="edge"><title>Node4&#45;&gt;Node8</title>
<path fill="none" stroke="midnightblue" d="M209.748,-176.794C237.66,-167.545 286.499,-151.361 320.234,-140.183"/>
<polygon fill="midnightblue" stroke="midnightblue" points="321.356,-143.498 329.748,-137.03 319.154,-136.854 321.356,-143.498"/>
</g>
<!-- Node16 -->
<g id="node16" class="node"><title>Node16</title>
<g id="a_node16"><a xlink:title=" ">
<polygon fill="white" stroke="#bfbfbf" points="384.87,-175 384.87,-195 493.13,-195 493.13,-175 384.87,-175"/>
<text text-anchor="middle" x="439" y="-181" font-family="Helvetica,sans-Serif" font-size="10.00">PlatformDefinitions.h</text>
</a>
</g>
</g>
<!-- Node15&#45;&gt;Node16 -->
<g id="edge15" class="edge"><title>Node15&#45;&gt;Node16</title>
<path fill="none" stroke="midnightblue" d="M639.335,-232.94C597.943,-223.242 532.193,-207.836 487.395,-197.339"/>
<polygon fill="midnightblue" stroke="midnightblue" points="488.144,-193.92 477.61,-195.047 486.547,-200.736 488.144,-193.92"/>
</g>
<!-- Node17 -->
<g id="node17" class="node"><title>Node17</title>
<g id="a_node17"><a xlink:href="_rexx_error_codes_8h.html" target="_top" xlink:title=" ">
<polygon fill="white" stroke="black" points="510.875,-175 510.875,-195 609.125,-195 609.125,-175 510.875,-175"/>
<text text-anchor="middle" x="560" y="-181" font-family="Helvetica,sans-Serif" font-size="10.00">RexxErrorCodes.h</text>
</a>
</g>
</g>
<!-- Node15&#45;&gt;Node17 -->
<g id="edge16" class="edge"><title>Node15&#45;&gt;Node17</title>
<path fill="none" stroke="midnightblue" d="M658.779,-232.878C639.664,-223.807 610.124,-209.788 588.324,-199.442"/>
<polygon fill="midnightblue" stroke="midnightblue" points="589.748,-196.244 579.213,-195.118 586.747,-202.568 589.748,-196.244"/>
</g>
<!-- Node22 -->
<g id="node22" class="node"><title>Node22</title>
<g id="a_node22"><a xlink:href="_numerics_8hpp.html" target="_top" xlink:title=" ">
<polygon fill="white" stroke="black" points="1239.16,-175 1239.16,-195 1316.84,-195 1316.84,-175 1239.16,-175"/>
<text text-anchor="middle" x="1278" y="-181" font-family="Helvetica,sans-Serif" font-size="10.00">Numerics.hpp</text>
</a>
</g>
</g>
<!-- Node21&#45;&gt;Node22 -->
<g id="edge21" class="edge"><title>Node21&#45;&gt;Node22</title>
<path fill="none" stroke="midnightblue" d="M1142.39,-232.878C1169.53,-223.494 1212,-208.815 1242.17,-198.386"/>
<polygon fill="midnightblue" stroke="midnightblue" points="1243.58,-201.6 1251.89,-195.025 1241.3,-194.985 1243.58,-201.6"/>
</g>
<!-- Node23 -->
<g id="node23" class="node"><title>Node23</title>
<g id="a_node23"><a xlink:title=" ">
<polygon fill="white" stroke="#bfbfbf" points="1143.21,-117 1143.21,-137 1194.79,-137 1194.79,-117 1143.21,-117"/>
<text text-anchor="middle" x="1169" y="-123" font-family="Helvetica,sans-Serif" font-size="10.00">stddef.h</text>
</a>
</g>
</g>
<!-- Node21&#45;&gt;Node23 -->
<g id="edge22" class="edge"><title>Node21&#45;&gt;Node23</title>
<path fill="none" stroke="midnightblue" d="M1143.68,-232.944C1160.62,-225.802 1180.93,-213.994 1191,-196 1199.95,-180.013 1191.26,-159.846 1182.29,-145.639"/>
<polygon fill="midnightblue" stroke="midnightblue" points="1185.09,-143.533 1176.55,-137.268 1179.32,-147.494 1185.09,-143.533"/>
</g>
<!-- Node25 -->
<g id="node25" class="node"><title>Node25</title>
<g id="a_node25"><a xlink:href="_rexx_collection_8hpp.html" target="_top" xlink:title=" ">
<polygon fill="white" stroke="black" points="948.921,-59 948.921,-79 1051.08,-79 1051.08,-59 948.921,-59"/>
<text text-anchor="middle" x="1000" y="-65" font-family="Helvetica,sans-Serif" font-size="10.00">RexxCollection.hpp</text>
</a>
</g>
</g>
<!-- Node24&#45;&gt;Node25 -->
<g id="edge24" class="edge"><title>Node24&#45;&gt;Node25</title>
<path fill="none" stroke="midnightblue" d="M1000,-116.753C1000,-109.25 1000,-98.4238 1000,-89.0781"/>
<polygon fill="midnightblue" stroke="midnightblue" points="1003.5,-89.0752 1000,-79.0752 996.5,-89.0752 1003.5,-89.0752"/>
</g>
<!-- Node26 -->
<g id="node26" class="node"><title>Node26</title>
<g id="a_node26"><a xlink:href="_rexx_hash_table_8hpp.html" target="_top" xlink:title=" ">
<polygon fill="white" stroke="black" points="947.251,-1 947.251,-21 1052.75,-21 1052.75,-1 947.251,-1"/>
<text text-anchor="middle" x="1000" y="-7" font-family="Helvetica,sans-Serif" font-size="10.00">RexxHashTable.hpp</text>
</a>
</g>
</g>
<!-- Node25&#45;&gt;Node26 -->
<g id="edge25" class="edge"><title>Node25&#45;&gt;Node26</title>
<path fill="none" stroke="midnightblue" d="M1000,-58.7527C1000,-51.2504 1000,-40.4238 1000,-31.0781"/>
<polygon fill="midnightblue" stroke="midnightblue" points="1003.5,-31.0752 1000,-21.0752 996.5,-31.0752 1003.5,-31.0752"/>
</g>
<!-- Node29 -->
<g id="node29" class="node"><title>Node29</title>
<g id="a_node29"><a xlink:title=" ">
<polygon fill="white" stroke="#bfbfbf" points="777.084,-175 777.084,-195 880.916,-195 880.916,-175 777.084,-175"/>
<text text-anchor="middle" x="829" y="-181" font-family="Helvetica,sans-Serif" font-size="10.00">SysSemaphore.hpp</text>
</a>
</g>
</g>
<!-- Node28&#45;&gt;Node29 -->
<g id="edge28" class="edge"><title>Node28&#45;&gt;Node29</title>
<path fill="none" stroke="midnightblue" d="M945.358,-232.878C922.438,-223.644 886.792,-209.283 860.992,-198.889"/>
<polygon fill="midnightblue" stroke="midnightblue" points="862.216,-195.609 851.632,-195.118 859.6,-202.102 862.216,-195.609"/>
</g>
<!-- Node30 -->
<g id="node30" class="node"><title>Node30</title>
<g id="a_node30"><a xlink:href="_identity_table_class_8hpp.html" target="_top" xlink:title=" ">
<polygon fill="white" stroke="black" points="898.692,-175 898.692,-195 1015.31,-195 1015.31,-175 898.692,-175"/>
<text text-anchor="middle" x="957" y="-181" font-family="Helvetica,sans-Serif" font-size="10.00">IdentityTableClass.hpp</text>
</a>
</g>
</g>
<!-- Node28&#45;&gt;Node30 -->
<g id="edge29" class="edge"><title>Node28&#45;&gt;Node30</title>
<path fill="none" stroke="midnightblue" d="M966.184,-232.753C964.71,-225.25 962.583,-214.424 960.747,-205.078"/>
<polygon fill="midnightblue" stroke="midnightblue" points="964.145,-204.213 958.783,-195.075 957.276,-205.562 964.145,-204.213"/>
</g>
<!-- Node31 -->
<g id="node31" class="node"><title>Node31</title>
<g id="a_node31"><a xlink:href="_memory_stats_8hpp.html" target="_top" xlink:title=" ">
<polygon fill="white" stroke="black" points="664.818,-175 664.818,-195 759.182,-195 759.182,-175 664.818,-175"/>
<text text-anchor="middle" x="712" y="-181" font-family="Helvetica,sans-Serif" font-size="10.00">MemoryStats.hpp</text>
</a>
</g>
</g>
<!-- Node28&#45;&gt;Node31 -->
<g id="edge31" class="edge"><title>Node28&#45;&gt;Node31</title>
<path fill="none" stroke="midnightblue" d="M926.585,-232.94C882.062,-223.201 811.23,-207.706 763.233,-197.207"/>
<polygon fill="midnightblue" stroke="midnightblue" points="763.873,-193.764 753.356,-195.047 762.377,-200.603 763.873,-193.764"/>
</g>
<!-- Node32 -->
<g id="node32" class="node"><title>Node32</title>
<g id="a_node32"><a xlink:href="_memory_segment_8hpp.html" target="_top" xlink:title=" ">
<polygon fill="white" stroke="red" points="1071.2,-175 1071.2,-195 1182.8,-195 1182.8,-175 1071.2,-175"/>
<text text-anchor="middle" x="1127" y="-181" font-family="Helvetica,sans-Serif" font-size="10.00">MemorySegment.hpp</text>
</a>
</g>
</g>
<!-- Node28&#45;&gt;Node32 -->
<g id="edge33" class="edge"><title>Node28&#45;&gt;Node32</title>
<path fill="none" stroke="midnightblue" d="M993.9,-232.878C1020.54,-223.494 1062.22,-208.815 1091.83,-198.386"/>
<polygon fill="midnightblue" stroke="midnightblue" points="1093.11,-201.649 1101.37,-195.025 1090.78,-195.046 1093.11,-201.649"/>
</g>
<!-- Node30&#45;&gt;Node24 -->
<g id="edge30" class="edge"><title>Node30&#45;&gt;Node24</title>
<path fill="none" stroke="midnightblue" d="M964.101,-174.753C970.237,-166.761 979.27,-154.998 986.739,-145.27"/>
<polygon fill="midnightblue" stroke="midnightblue" points="989.717,-147.138 993.032,-137.075 984.165,-142.875 989.717,-147.138"/>
</g>
<!-- Node31&#45;&gt;Node19 -->
<g id="edge32" class="edge"><title>Node31&#45;&gt;Node19</title>
<path fill="none" stroke="midnightblue" d="M705.89,-174.753C700.664,-166.843 692.996,-155.237 686.608,-145.568"/>
<polygon fill="midnightblue" stroke="midnightblue" points="689.429,-143.489 680.996,-137.075 683.589,-147.348 689.429,-143.489"/>
</g>
<!-- Node32&#45;&gt;Node23 -->
<g id="edge34" class="edge"><title>Node32&#45;&gt;Node23</title>
<path fill="none" stroke="midnightblue" d="M1133.94,-174.753C1139.93,-166.761 1148.75,-154.998 1156.05,-145.27"/>
<polygon fill="midnightblue" stroke="midnightblue" points="1158.99,-147.175 1162.19,-137.075 1153.39,-142.975 1158.99,-147.175"/>
</g>
<!-- Node36 -->
<g id="node34" class="node"><title>Node36</title>
<g id="a_node34"><a xlink:href="_primitive_behaviour_names_8h.html" target="_top" xlink:title=" ">
<polygon fill="white" stroke="black" points="1472.31,-175 1472.31,-195 1611.69,-195 1611.69,-175 1472.31,-175"/>
<text text-anchor="middle" x="1542" y="-181" font-family="Helvetica,sans-Serif" font-size="10.00">PrimitiveBehaviourNames.h</text>
</a>
</g>
</g>
<!-- Node35&#45;&gt;Node36 -->
<g id="edge36" class="edge"><title>Node35&#45;&gt;Node36</title>
<path fill="none" stroke="midnightblue" d="M1571.22,-232.753C1566.28,-224.843 1559.02,-213.237 1552.98,-203.568"/>
<polygon fill="midnightblue" stroke="midnightblue" points="1555.94,-201.7 1547.67,-195.075 1550,-205.41 1555.94,-201.7"/>
</g>
<!-- Node40 -->
<g id="node38" class="node"><title>Node40</title>
<g id="a_node38"><a xlink:href="_list_class_8hpp.html" target="_top" xlink:title=" ">
<polygon fill="white" stroke="red" points="1629.99,-175 1629.99,-195 1706.01,-195 1706.01,-175 1629.99,-175"/>
<text text-anchor="middle" x="1668" y="-181" font-family="Helvetica,sans-Serif" font-size="10.00">ListClass.hpp</text>
</a>
</g>
</g>
<!-- Node39&#45;&gt;Node40 -->
<g id="edge40" class="edge"><title>Node39&#45;&gt;Node40</title>
<path fill="none" stroke="midnightblue" d="M2046.25,-237.811C1977.47,-231.09 1841.44,-216.689 1716.31,-196.1"/>
<polygon fill="midnightblue" stroke="midnightblue" points="1716.6,-192.602 1706.17,-194.414 1715.46,-199.507 1716.6,-192.602"/>
</g>
<!-- Node42 -->
<g id="node39" class="node"><title>Node42</title>
<g id="a_node39"><a xlink:href="_rexx_internal_stack_8hpp.html" target="_top" xlink:title=" ">
<polygon fill="white" stroke="black" points="1723.69,-175 1723.69,-195 1840.31,-195 1840.31,-175 1723.69,-175"/>
<text text-anchor="middle" x="1782" y="-181" font-family="Helvetica,sans-Serif" font-size="10.00">RexxInternalStack.hpp</text>
</a>
</g>
</g>
<!-- Node39&#45;&gt;Node42 -->
<g id="edge41" class="edge"><title>Node39&#45;&gt;Node42</title>
<path fill="none" stroke="midnightblue" d="M2046.4,-233.917C1992.52,-224.153 1901.68,-207.69 1841.78,-196.834"/>
<polygon fill="midnightblue" stroke="midnightblue" points="1842.17,-193.348 1831.71,-195.008 1840.92,-200.235 1842.17,-193.348"/>
</g>
<!-- Node43 -->
<g id="node40" class="node"><title>Node43</title>
<g id="a_node40"><a xlink:href="_rexx_activation_stack_8hpp.html" target="_top" xlink:title=" ">
<polygon fill="white" stroke="black" points="1858.69,-175 1858.69,-195 1985.31,-195 1985.31,-175 1858.69,-175"/>
<text text-anchor="middle" x="1922" y="-181" font-family="Helvetica,sans-Serif" font-size="10.00">RexxActivationStack.hpp</text>
</a>
</g>
</g>
<!-- Node39&#45;&gt;Node43 -->
<g id="edge42" class="edge"><title>Node39&#45;&gt;Node43</title>
<path fill="none" stroke="midnightblue" d="M2063.47,-232.878C2035.03,-223.453 1990.47,-208.688 1958.97,-198.25"/>
<polygon fill="midnightblue" stroke="midnightblue" points="1959.83,-194.848 1949.24,-195.025 1957.63,-201.493 1959.83,-194.848"/>
</g>
<!-- Node44 -->
<g id="node41" class="node"><title>Node44</title>
<g id="a_node41"><a xlink:href="_expression_stack_8hpp.html" target="_top" xlink:title=" ">
<polygon fill="white" stroke="red" points="2003.03,-175 2003.03,-195 2112.97,-195 2112.97,-175 2003.03,-175"/>
<text text-anchor="middle" x="2058" y="-181" font-family="Helvetica,sans-Serif" font-size="10.00">ExpressionStack.hpp</text>
</a>
</g>
</g>
<!-- Node39&#45;&gt;Node44 -->
<g id="edge43" class="edge"><title>Node39&#45;&gt;Node44</title>
<path fill="none" stroke="midnightblue" d="M2085.55,-232.753C2080.94,-224.924 2074.19,-213.476 2068.53,-203.868"/>
<polygon fill="midnightblue" stroke="midnightblue" points="2071.44,-201.914 2063.35,-195.075 2065.41,-205.468 2071.44,-201.914"/>
</g>
<!-- Node46 -->
<g id="node42" class="node"><title>Node46</title>
<g id="a_node42"><a xlink:href="_rexx_local_variables_8hpp.html" target="_top" xlink:title=" ">
<polygon fill="white" stroke="red" points="2131.45,-175 2131.45,-195 2254.55,-195 2254.55,-175 2131.45,-175"/>
<text text-anchor="middle" x="2193" y="-181" font-family="Helvetica,sans-Serif" font-size="10.00">RexxLocalVariables.hpp</text>
</a>
</g>
</g>
<!-- Node39&#45;&gt;Node46 -->
<g id="edge44" class="edge"><title>Node39&#45;&gt;Node46</title>
<path fill="none" stroke="midnightblue" d="M2107.84,-232.753C2124.11,-223.823 2148.95,-210.185 2167.61,-199.939"/>
<polygon fill="midnightblue" stroke="midnightblue" points="2169.39,-202.956 2176.47,-195.075 2166.02,-196.82 2169.39,-202.956"/>
</g>
<!-- Node61 -->
<g id="node43" class="node"><title>Node61</title>
<g id="a_node43"><a xlink:href="_source_location_8hpp.html" target="_top" xlink:title=" ">
<polygon fill="white" stroke="black" points="2272.52,-175 2272.52,-195 2377.48,-195 2377.48,-175 2272.52,-175"/>
<text text-anchor="middle" x="2325" y="-181" font-family="Helvetica,sans-Serif" font-size="10.00">SourceLocation.hpp</text>
</a>
</g>
</g>
<!-- Node39&#45;&gt;Node61 -->
<g id="edge45" class="edge"><title>Node39&#45;&gt;Node61</title>
<path fill="none" stroke="midnightblue" d="M2128.86,-232.94C2169.3,-223.262 2233.49,-207.901 2277.34,-197.406"/>
<polygon fill="midnightblue" stroke="midnightblue" points="2278.29,-200.778 2287.2,-195.047 2276.66,-193.97 2278.29,-200.778"/>
</g>
<!-- Node62 -->
<g id="node44" class="node"><title>Node62</title>
<g id="a_node44"><a xlink:href="_exit_handler_8hpp.html" target="_top" xlink:title=" ">
<polygon fill="white" stroke="red" points="2496.7,-175 2496.7,-195 2583.3,-195 2583.3,-175 2496.7,-175"/>
<text text-anchor="middle" x="2540" y="-181" font-family="Helvetica,sans-Serif" font-size="10.00">ExitHandler.hpp</text>
</a>
</g>
</g>
<!-- Node39&#45;&gt;Node62 -->
<g id="edge46" class="edge"><title>Node39&#45;&gt;Node62</title>
<path fill="none" stroke="midnightblue" d="M2135.68,-237.852C2207.37,-230.967 2352.75,-216.072 2486.63,-195.957"/>
<polygon fill="midnightblue" stroke="midnightblue" points="2487.29,-199.396 2496.66,-194.437 2486.25,-192.475 2487.29,-199.396"/>
</g>
<!-- Node64 -->
<g id="node45" class="node"><title>Node64</title>
<g id="a_node45"><a xlink:href="_activation_api_contexts_8hpp.html" target="_top" xlink:title=" ">
<polygon fill="white" stroke="black" points="2601.63,-175 2601.63,-195 2734.37,-195 2734.37,-175 2601.63,-175"/>
<text text-anchor="middle" x="2668" y="-181" font-family="Helvetica,sans-Serif" font-size="10.00">ActivationApiContexts.hpp</text>
</a>
</g>
</g>
<!-- Node39&#45;&gt;Node64 -->
<g id="edge48" class="edge"><title>Node39&#45;&gt;Node64</title>
<path fill="none" stroke="midnightblue" d="M2135.63,-238.494C2221.57,-231.615 2416.22,-215.411 2591.13,-196.059"/>
<polygon fill="midnightblue" stroke="midnightblue" points="2591.74,-199.512 2601.29,-194.928 2590.96,-192.555 2591.74,-199.512"/>
</g>
<!-- Node65 -->
<g id="node46" class="node"><title>Node65</title>
<g id="a_node46"><a xlink:title=" ">
<polygon fill="white" stroke="#bfbfbf" points="2395.47,-175 2395.47,-195 2478.53,-195 2478.53,-175 2395.47,-175"/>
<text text-anchor="middle" x="2437" y="-181" font-family="Helvetica,sans-Serif" font-size="10.00">SysActivity.hpp</text>
</a>
</g>
</g>
<!-- Node39&#45;&gt;Node65 -->
<g id="edge50" class="edge"><title>Node39&#45;&gt;Node65</title>
<path fill="none" stroke="midnightblue" d="M2135.82,-235.566C2191.73,-227.416 2290.51,-212.616 2385.24,-196.08"/>
<polygon fill="midnightblue" stroke="midnightblue" points="2386.03,-199.494 2395.28,-194.318 2384.82,-192.6 2386.03,-199.494"/>
</g>
<!-- Node62&#45;&gt;Node2 -->
<g id="edge47" class="edge"><title>Node62&#45;&gt;Node2</title>
<path fill="none" stroke="midnightblue" d="M2498.05,-195.047C2426.04,-210.162 2274.07,-240.248 2144,-254 1750.34,-295.622 1271.02,-299.804 1124,-300.054"/>
<polygon fill="midnightblue" stroke="midnightblue" points="1123.59,-296.554 1113.59,-300.066 1123.6,-303.554 1123.59,-296.554"/>
</g>
<!-- Node64&#45;&gt;Node2 -->
<g id="edge49" class="edge"><title>Node64&#45;&gt;Node2</title>
<path fill="none" stroke="midnightblue" d="M2622.09,-195.009C2543.27,-210.068 2377,-240.072 2235,-254 1803.65,-296.309 1278.11,-299.975 1123.67,-300.083"/>
<polygon fill="midnightblue" stroke="midnightblue" points="1123.62,-296.583 1113.62,-300.086 1123.62,-303.583 1123.62,-296.583"/>
</g>
<!-- Node50&#45;&gt;Node22 -->
<g id="edge52" class="edge"><title>Node50&#45;&gt;Node22</title>
<path fill="none" stroke="midnightblue" d="M1246.27,-232.753C1251.64,-224.843 1259.52,-213.237 1266.08,-203.568"/>
<polygon fill="midnightblue" stroke="midnightblue" points="1269.12,-205.315 1271.84,-195.075 1263.33,-201.385 1269.12,-205.315"/>
</g>
<!-- Node51 -->
<g id="node48" class="node"><title>Node51</title>
<g id="a_node48"><a xlink:href="_number_string_math_8hpp.html" target="_top" xlink:title=" ">
<polygon fill="white" stroke="black" points="1335.31,-175 1335.31,-195 1454.69,-195 1454.69,-175 1335.31,-175"/>
<text text-anchor="middle" x="1395" y="-181" font-family="Helvetica,sans-Serif" font-size="10.00">NumberStringMath.hpp</text>
</a>
</g>
</g>
<!-- Node50&#45;&gt;Node51 -->
<g id="edge53" class="edge"><title>Node50&#45;&gt;Node51</title>
<path fill="none" stroke="midnightblue" d="M1265.25,-232.878C1291.11,-223.535 1331.5,-208.943 1360.34,-198.522"/>
<polygon fill="midnightblue" stroke="midnightblue" points="1361.8,-201.715 1370.02,-195.025 1359.42,-195.132 1361.8,-201.715"/>
</g>
<!-- Node67 -->
<g id="node50" class="node"><title>Node67</title>
<g id="a_node50"><a xlink:title=" ">
<polygon fill="white" stroke="#bfbfbf" points="2752.1,-175 2752.1,-195 2795.9,-195 2795.9,-175 2752.1,-175"/>
<text text-anchor="middle" x="2774" y="-181" font-family="Helvetica,sans-Serif" font-size="10.00">deque</text>
</a>
</g>
</g>
<!-- Node66&#45;&gt;Node67 -->
<g id="edge55" class="edge"><title>Node66&#45;&gt;Node67</title>
<path fill="none" stroke="midnightblue" d="M2746.45,-232.753C2751.06,-224.924 2757.81,-213.476 2763.47,-203.868"/>
<polygon fill="midnightblue" stroke="midnightblue" points="2766.59,-205.468 2768.65,-195.075 2760.56,-201.914 2766.59,-205.468"/>
</g>
</g>
</svg>
        <g id="navigator" transform="translate(0 0)" fill="#404254">
                <rect fill="#f2f5e9" fill-opacity="0.5" stroke="#606060" stroke-width=".5" x="0" y="0" width="60" height="60"/>
                <use id="zoomplus" xlink:href="#zoomPlus" x="17" y="9" onmousedown="handleZoom(evt,'in')"/>
                <use id="zoomminus" xlink:href="#zoomMin" x="42" y="9" onmousedown="handleZoom(evt,'out')"/>
                <use id="reset" xlink:href="#resetDef" x="30" y="36" onmousedown="handleReset()"/>
                <g id="arrowUp" xlink:href="#dirArrow" transform="translate(30 24)" onmousedown="handlePan(0,-1)">
                  <use xlink:href="#rim" fill="#404040">
                        <set attributeName="fill" to="#808080" begin="arrowUp.mouseover" end="arrowUp.mouseout"/>
                  </use>
                  <path fill="none" stroke="white" stroke-width="1.5" d="M0,-3.0v7 M-2.5,-0.5L0,-3.0L2.5,-0.5"/>
                </g>
                <g id="arrowRight" xlink:href="#dirArrow" transform="rotate(90) translate(36 -43)" onmousedown="handlePan(1,0)">
                  <use xlink:href="#rim" fill="#404040">
                        <set attributeName="fill" to="#808080" begin="arrowRight.mouseover" end="arrowRight.mouseout"/>
                  </use>
                  <path fill="none" stroke="white" stroke-width="1.5" d="M0,-3.0v7 M-2.5,-0.5L0,-3.0L2.5,-0.5"/>
                </g>
                <g id="arrowDown" xlink:href="#dirArrow" transform="rotate(180) translate(-30 -48)" onmousedown="handlePan(0,1)">
                  <use xlink:href="#rim" fill="#404040">
                        <set attributeName="fill" to="#808080" begin="arrowDown.mouseover" end="arrowDown.mouseout"/>
                  </use>
                  <path fill="none" stroke="white" stroke-width="1.5" d="M0,-3.0v7 M-2.5,-0.5L0,-3.0L2.5,-0.5"/>
                </g>
                <g id="arrowLeft" xlink:href="#dirArrow" transform="rotate(270) translate(-36 17)" onmousedown="handlePan(-1,0)">
                  <use xlink:href="#rim" fill="#404040">
                        <set attributeName="fill" to="#808080" begin="arrowLeft.mouseover" end="arrowLeft.mouseout"/>
                  </use>
                  <path fill="none" stroke="white" stroke-width="1.5" d="M0,-3.0v7 M-2.5,-0.5L0,-3.0L2.5,-0.5"/>
                </g>
        </g>
        <svg viewBox="0 0 15 15" width="100%" height="30px" preserveAspectRatio="xMaxYMin meet">
         <g id="arrow_out" transform="scale(0.3 0.3)">
          <a xlink:href="_method_class_8hpp__incl_org.svg" target="_base">
           <rect id="button" ry="5" rx="5" y="6" x="6" height="38" width="38"
                fill="#f2f5e9" fill-opacity="0.5" stroke="#606060" stroke-width="1.0"/>
           <path id="arrow"
             d="M 11.500037,31.436501 C 11.940474,20.09759 22.043105,11.32322 32.158766,21.979434 L 37.068811,17.246167 C 37.068811,17.246167 37.088388,32 37.088388,32 L 22.160133,31.978069 C 22.160133,31.978069 26.997745,27.140456 26.997745,27.140456 C 18.528582,18.264221 13.291696,25.230495 11.500037,31.436501 z"
             style="fill:#404040;"/>
          </a>
         </g>
        </svg>
</svg>
