<?xml version="1.0" encoding="UTF-8" standalone="no"?>
<!DOCTYPE svg PUBLIC "-//W3C//DTD SVG 1.1//EN"
 "http://www.w3.org/Graphics/SVG/1.1/DTD/svg11.dtd">
<!-- Generated by graphviz version 2.30.1 (20130222.1704)
 -->
<!-- Title: MethodContextStubs.cpp Pages: 1 -->
<!--zoomable 378 -->
<svg id="main" version="1.1" xmlns="http://www.w3.org/2000/svg" xmlns:xlink="http://www.w3.org/1999/xlink" xml:space="preserve" onload="init(evt)">
<style type="text/css"><![CDATA[
.edge:hover path { stroke: red; }
.edge:hover polygon { stroke: red; fill: red; }
]]></style>
<script type="text/javascript"><![CDATA[
var edges = document.getElementsByTagName('g');
if (edges && edges.length) {
  for (var i=0;i<edges.length;i++) {
    if (edges[i].id.substr(0,4)=='edge') {
      edges[i].setAttribute('class','edge');
    }
  }
}
]]></script>
        <defs>
                <circle id="rim" cx="0" cy="0" r="7"/>
                <circle id="rim2" cx="0" cy="0" r="3.5"/>
                <g id="zoomPlus">
                        <use xlink:href="#rim" fill="#404040">
                                <set attributeName="fill" to="#808080" begin="zoomplus.mouseover" end="zoomplus.mouseout"/>
                        </use>
                        <path d="M-4,0h8M0,-4v8" fill="none" stroke="white" stroke-width="1.5" pointer-events="none"/>
                </g>
                <g id="zoomMin">
                        <use xlink:href="#rim" fill="#404040">
                                <set attributeName="fill" to="#808080" begin="zoomminus.mouseover" end="zoomminus.mouseout"/>
                        </use>
                        <path d="M-4,0h8" fill="none" stroke="white" stroke-width="1.5" pointer-events="none"/>
                </g>
                <g id="dirArrow">
                        <path fill="none" stroke="white" stroke-width="1.5" d="M0,-3.0v7 M-2.5,-0.5L0,-3.0L2.5,-0.5"/>
                </g>
               <g id="resetDef">
                       <use xlink:href="#rim2" fill="#404040">
                               <set attributeName="fill" to="#808080" begin="reset.mouseover" end="reset.mouseout"/>
                       </use>
               </g>
        </defs>

<script type="text/javascript">
var viewWidth = 2882;
var viewHeight = 378;
var sectionId = 'dynsection-0';
</script>
<script xlink:href="svgpan.js"/>
<svg id="graph" class="graph">
<g id="viewport">
<title>MethodContextStubs.cpp</title>
<polygon fill="white" stroke="white" points="-4,5 -4,-374 2879,-374 2879,5 -4,5"/>
<!-- Node1 -->
<g id="node1" class="node"><title>Node1</title>
<g id="a_node1"><a xlink:title=" ">
<polygon fill="#bfbfbf" stroke="black" points="2021.85,-349 2021.85,-369 2150.15,-369 2150.15,-349 2021.85,-349"/>
<text text-anchor="middle" x="2086" y="-355" font-family="Helvetica,sans-Serif" font-size="10.00">MethodContextStubs.cpp</text>
</a>
</g>
</g>
<!-- Node2 -->
<g id="node2" class="node"><title>Node2</title>
<g id="a_node2"><a xlink:href="_rexx_core_8h.html" target="_top" xlink:title=" ">
<polygon fill="white" stroke="black" points="1538.6,-233 1538.6,-253 1607.4,-253 1607.4,-233 1538.6,-233"/>
<text text-anchor="middle" x="1573" y="-239" font-family="Helvetica,sans-Serif" font-size="10.00">RexxCore.h</text>
</a>
</g>
</g>
<!-- Node1&#45;&gt;Node2 -->
<g id="edge1" class="edge"><title>Node1&#45;&gt;Node2</title>
<path fill="none" stroke="midnightblue" d="M2045.32,-348.959C1950.56,-327.902 1715.74,-275.72 1617.42,-253.871"/>
<polygon fill="midnightblue" stroke="midnightblue" points="1618.03,-250.42 1607.5,-251.668 1616.51,-257.254 1618.03,-250.42"/>
</g>
<!-- Node68 -->
<g id="node47" class="node"><title>Node68</title>
<g id="a_node47"><a xlink:href="_context_api_8hpp.html" target="_top" xlink:title=" ">
<polygon fill="white" stroke="black" points="2125.81,-291 2125.81,-311 2210.19,-311 2210.19,-291 2125.81,-291"/>
<text text-anchor="middle" x="2168" y="-297" font-family="Helvetica,sans-Serif" font-size="10.00">ContextApi.hpp</text>
</a>
</g>
</g>
<!-- Node1&#45;&gt;Node68 -->
<g id="edge52" class="edge"><title>Node1&#45;&gt;Node68</title>
<path fill="none" stroke="midnightblue" d="M2099.54,-348.753C2112.2,-340.109 2131.32,-327.052 2146.14,-316.931"/>
<polygon fill="midnightblue" stroke="midnightblue" points="2148.43,-319.605 2154.71,-311.075 2144.48,-313.825 2148.43,-319.605"/>
</g>
<!-- Node69 -->
<g id="node48" class="node"><title>Node69</title>
<g id="a_node48"><a xlink:href="_rexx_native_activation_8hpp.html" target="_top" xlink:title=" ">
<polygon fill="white" stroke="black" points="2234.03,-233 2234.03,-253 2363.97,-253 2363.97,-233 2234.03,-233"/>
<text text-anchor="middle" x="2299" y="-239" font-family="Helvetica,sans-Serif" font-size="10.00">RexxNativeActivation.hpp</text>
</a>
</g>
</g>
<!-- Node1&#45;&gt;Node69 -->
<g id="edge58" class="edge"><title>Node1&#45;&gt;Node69</title>
<path fill="none" stroke="midnightblue" d="M2123.71,-348.991C2151.24,-341.473 2188.87,-329.201 2219,-312 2243.8,-297.84 2268.21,-275.539 2283.42,-260.368"/>
<polygon fill="midnightblue" stroke="midnightblue" points="2285.98,-262.755 2290.49,-253.165 2280.99,-257.852 2285.98,-262.755"/>
</g>
<!-- Node70 -->
<g id="node49" class="node"><title>Node70</title>
<g id="a_node49"><a xlink:href="_protected_object_8hpp.html" target="_top" xlink:title=" ">
<polygon fill="white" stroke="black" points="2032.42,-233 2032.42,-253 2139.58,-253 2139.58,-233 2032.42,-233"/>
<text text-anchor="middle" x="2086" y="-239" font-family="Helvetica,sans-Serif" font-size="10.00">ProtectedObject.hpp</text>
</a>
</g>
</g>
<!-- Node1&#45;&gt;Node70 -->
<g id="edge59" class="edge"><title>Node1&#45;&gt;Node70</title>
<path fill="none" stroke="midnightblue" d="M2086,-348.671C2086,-330.041 2086,-287.898 2086,-263.143"/>
<polygon fill="midnightblue" stroke="midnightblue" points="2089.5,-263.139 2086,-253.139 2082.5,-263.139 2089.5,-263.139"/>
</g>
<!-- Node71 -->
<g id="node50" class="node"><title>Node71</title>
<g id="a_node50"><a xlink:href="_method_class_8hpp.html" target="_top" xlink:title=" ">
<polygon fill="white" stroke="black" points="1626.09,-291 1626.09,-311 1719.91,-311 1719.91,-291 1626.09,-291"/>
<text text-anchor="middle" x="1673" y="-297" font-family="Helvetica,sans-Serif" font-size="10.00">MethodClass.hpp</text>
</a>
</g>
</g>
<!-- Node1&#45;&gt;Node71 -->
<g id="edge62" class="edge"><title>Node1&#45;&gt;Node71</title>
<path fill="none" stroke="midnightblue" d="M2021.47,-349.25C1941.46,-338.401 1806.34,-320.08 1729.99,-309.728"/>
<polygon fill="midnightblue" stroke="midnightblue" points="1730.45,-306.258 1720.07,-308.383 1729.51,-313.195 1730.45,-306.258"/>
</g>
<!-- Node3 -->
<g id="node3" class="node"><title>Node3</title>
<g id="a_node3"><a xlink:href="oorexxapi_8h.html" target="_top" xlink:title=" ">
<polygon fill="white" stroke="black" points="1539.15,-175 1539.15,-195 1606.85,-195 1606.85,-175 1539.15,-175"/>
<text text-anchor="middle" x="1573" y="-181" font-family="Helvetica,sans-Serif" font-size="10.00">oorexxapi.h</text>
</a>
</g>
</g>
<!-- Node2&#45;&gt;Node3 -->
<g id="edge2" class="edge"><title>Node2&#45;&gt;Node3</title>
<path fill="none" stroke="midnightblue" d="M1573,-232.753C1573,-225.25 1573,-214.424 1573,-205.078"/>
<polygon fill="midnightblue" stroke="midnightblue" points="1576.5,-205.075 1573,-195.075 1569.5,-205.075 1576.5,-205.075"/>
</g>
<!-- Node10 -->
<g id="node7" class="node"><title>Node10</title>
<g id="a_node7"><a xlink:title=" ">
<polygon fill="white" stroke="#bfbfbf" points="1663.27,-175 1663.27,-195 1708.73,-195 1708.73,-175 1663.27,-175"/>
<text text-anchor="middle" x="1686" y="-181" font-family="Helvetica,sans-Serif" font-size="10.00">stdio.h</text>
</a>
</g>
</g>
<!-- Node2&#45;&gt;Node10 -->
<g id="edge6" class="edge"><title>Node2&#45;&gt;Node10</title>
<path fill="none" stroke="midnightblue" d="M1591.41,-232.878C1609.63,-223.847 1637.75,-209.913 1658.6,-199.581"/>
<polygon fill="midnightblue" stroke="midnightblue" points="1660.2,-202.695 1667.6,-195.118 1657.09,-196.423 1660.2,-202.695"/>
</g>
<!-- Node11 -->
<g id="node8" class="node"><title>Node11</title>
<g id="a_node8"><a xlink:title=" ">
<polygon fill="white" stroke="#bfbfbf" points="1726.93,-175 1726.93,-195 1779.07,-195 1779.07,-175 1726.93,-175"/>
<text text-anchor="middle" x="1753" y="-181" font-family="Helvetica,sans-Serif" font-size="10.00">stdarg.h</text>
</a>
</g>
</g>
<!-- Node2&#45;&gt;Node11 -->
<g id="edge7" class="edge"><title>Node2&#45;&gt;Node11</title>
<path fill="none" stroke="midnightblue" d="M1602.32,-232.878C1633.65,-223.132 1683.33,-207.674 1717.01,-197.197"/>
<polygon fill="midnightblue" stroke="midnightblue" points="1718.4,-200.43 1726.91,-194.117 1716.32,-193.746 1718.4,-200.43"/>
</g>
<!-- Node12 -->
<g id="node9" class="node"><title>Node12</title>
<g id="a_node9"><a xlink:title=" ">
<polygon fill="white" stroke="#bfbfbf" points="1796.6,-175 1796.6,-195 1845.4,-195 1845.4,-175 1796.6,-175"/>
<text text-anchor="middle" x="1821" y="-181" font-family="Helvetica,sans-Serif" font-size="10.00">string.h</text>
</a>
</g>
</g>
<!-- Node2&#45;&gt;Node12 -->
<g id="edge8" class="edge"><title>Node2&#45;&gt;Node12</title>
<path fill="none" stroke="midnightblue" d="M1607.46,-235.547C1648.18,-227.721 1718.15,-213.645 1786.87,-196.147"/>
<polygon fill="midnightblue" stroke="midnightblue" points="1787.74,-199.536 1796.56,-193.655 1786,-192.757 1787.74,-199.536"/>
</g>
<!-- Node13 -->
<g id="node10" class="node"><title>Node13</title>
<g id="a_node10"><a xlink:title=" ">
<polygon fill="white" stroke="#bfbfbf" points="1863.88,-175 1863.88,-195 1912.12,-195 1912.12,-175 1863.88,-175"/>
<text text-anchor="middle" x="1888" y="-181" font-family="Helvetica,sans-Serif" font-size="10.00">ctype.h</text>
</a>
</g>
</g>
<!-- Node2&#45;&gt;Node13 -->
<g id="edge9" class="edge"><title>Node2&#45;&gt;Node13</title>
<path fill="none" stroke="midnightblue" d="M1607.44,-237.761C1658.86,-231.128 1758.9,-217.059 1853.55,-195.853"/>
<polygon fill="midnightblue" stroke="midnightblue" points="1854.61,-199.204 1863.58,-193.575 1853.05,-192.378 1854.61,-199.204"/>
</g>
<!-- Node14 -->
<g id="node11" class="node"><title>Node14</title>
<g id="a_node11"><a xlink:title=" ">
<polygon fill="white" stroke="#bfbfbf" points="1968.44,-175 1968.44,-195 2015.56,-195 2015.56,-175 1968.44,-175"/>
<text text-anchor="middle" x="1992" y="-181" font-family="Helvetica,sans-Serif" font-size="10.00">limits.h</text>
</a>
</g>
</g>
<!-- Node2&#45;&gt;Node14 -->
<g id="edge10" class="edge"><title>Node2&#45;&gt;Node14</title>
<path fill="none" stroke="midnightblue" d="M1607.66,-239.418C1674.89,-234.056 1827.53,-220.157 1954,-196 1955.47,-195.72 1956.96,-195.415 1958.46,-195.091"/>
<polygon fill="midnightblue" stroke="midnightblue" points="1959.47,-198.45 1968.4,-192.747 1957.86,-191.637 1959.47,-198.45"/>
</g>
<!-- Node15 -->
<g id="node12" class="node"><title>Node15</title>
<g id="a_node12"><a xlink:href="_rexx_platform_definitions_8h.html" target="_top" xlink:title=" ">
<polygon fill="white" stroke="black" points="48.478,-175 48.478,-195 179.522,-195 179.522,-175 48.478,-175"/>
<text text-anchor="middle" x="114" y="-181" font-family="Helvetica,sans-Serif" font-size="10.00">RexxPlatformDefinitions.h</text>
</a>
</g>
</g>
<!-- Node2&#45;&gt;Node15 -->
<g id="edge11" class="edge"><title>Node2&#45;&gt;Node15</title>
<path fill="none" stroke="midnightblue" d="M1538.4,-242.137C1381.91,-242.489 724.719,-241.062 188,-196 187.895,-195.991 187.79,-195.982 187.685,-195.973"/>
<polygon fill="midnightblue" stroke="midnightblue" points="188.018,-192.489 177.732,-195.029 187.356,-199.458 188.018,-192.489"/>
</g>
<!-- Node18 -->
<g id="node15" class="node"><title>Node18</title>
<g id="a_node15"><a xlink:href="_rexx_constants_8hpp.html" target="_top" xlink:title=" ">
<polygon fill="white" stroke="black" points="197.365,-175 197.365,-195 300.635,-195 300.635,-175 197.365,-175"/>
<text text-anchor="middle" x="249" y="-181" font-family="Helvetica,sans-Serif" font-size="10.00">RexxConstants.hpp</text>
</a>
</g>
</g>
<!-- Node2&#45;&gt;Node18 -->
<g id="edge14" class="edge"><title>Node2&#45;&gt;Node18</title>
<path fill="none" stroke="midnightblue" d="M1538.39,-242.176C1390.68,-242.623 798.605,-241.33 315,-196 313.702,-195.878 312.39,-195.748 311.069,-195.61"/>
<polygon fill="midnightblue" stroke="midnightblue" points="311.149,-192.096 300.812,-194.42 310.342,-199.049 311.149,-192.096"/>
</g>
<!-- Node19 -->
<g id="node16" class="node"><title>Node19</title>
<g id="a_node16"><a xlink:href="_class_type_codes_8h.html" target="_top" xlink:title=" ">
<polygon fill="white" stroke="black" points="336.032,-59 336.032,-79 435.968,-79 435.968,-59 336.032,-59"/>
<text text-anchor="middle" x="386" y="-65" font-family="Helvetica,sans-Serif" font-size="10.00">ClassTypeCodes.h</text>
</a>
</g>
</g>
<!-- Node2&#45;&gt;Node19 -->
<g id="edge15" class="edge"><title>Node2&#45;&gt;Node19</title>
<path fill="none" stroke="midnightblue" d="M1538.47,-241.556C1363.38,-239.172 578.02,-226.827 474,-196 425.474,-181.619 401.069,-181.967 376,-138 367.344,-122.819 371.865,-102.752 377.319,-88.3589"/>
<polygon fill="midnightblue" stroke="midnightblue" points="380.592,-89.6042 381.28,-79.0317 374.149,-86.8678 380.592,-89.6042"/>
</g>
<!-- Node20 -->
<g id="node17" class="node"><title>Node20</title>
<g id="a_node17"><a xlink:href="_global_names_8h.html" target="_top" xlink:title=" ">
<polygon fill="white" stroke="black" points="990.54,-175 990.54,-195 1075.46,-195 1075.46,-175 990.54,-175"/>
<text text-anchor="middle" x="1033" y="-181" font-family="Helvetica,sans-Serif" font-size="10.00">GlobalNames.h</text>
</a>
</g>
</g>
<!-- Node2&#45;&gt;Node20 -->
<g id="edge16" class="edge"><title>Node2&#45;&gt;Node20</title>
<path fill="none" stroke="midnightblue" d="M1538.47,-239.942C1459.83,-234.998 1261.18,-221.076 1085.46,-196.096"/>
<polygon fill="midnightblue" stroke="midnightblue" points="1085.92,-192.626 1075.52,-194.667 1084.92,-199.554 1085.92,-192.626"/>
</g>
<!-- Node21 -->
<g id="node18" class="node"><title>Node21</title>
<g id="a_node18"><a xlink:href="_object_class_8hpp.html" target="_top" xlink:title=" ">
<polygon fill="white" stroke="black" points="742.315,-175 742.315,-195 831.685,-195 831.685,-175 742.315,-175"/>
<text text-anchor="middle" x="787" y="-181" font-family="Helvetica,sans-Serif" font-size="10.00">ObjectClass.hpp</text>
</a>
</g>
</g>
<!-- Node2&#45;&gt;Node21 -->
<g id="edge17" class="edge"><title>Node2&#45;&gt;Node21</title>
<path fill="none" stroke="midnightblue" d="M1538.56,-241.307C1434.84,-238.909 1116.19,-229.264 841.874,-195.957"/>
<polygon fill="midnightblue" stroke="midnightblue" points="842.077,-192.455 831.725,-194.711 841.224,-199.403 842.077,-192.455"/>
</g>
<!-- Node24 -->
<g id="node21" class="node"><title>Node24</title>
<g id="a_node21"><a xlink:href="_table_class_8hpp.html" target="_top" xlink:title=" ">
<polygon fill="white" stroke="black" points="488.813,-59 488.813,-79 573.187,-79 573.187,-59 488.813,-59"/>
<text text-anchor="middle" x="531" y="-65" font-family="Helvetica,sans-Serif" font-size="10.00">TableClass.hpp</text>
</a>
</g>
</g>
<!-- Node2&#45;&gt;Node24 -->
<g id="edge20" class="edge"><title>Node2&#45;&gt;Node24</title>
<path fill="none" stroke="midnightblue" d="M1538.3,-241.882C1350.26,-240.869 459.03,-231.151 386,-138 357.695,-101.896 426.113,-84.0836 478.33,-75.9822"/>
<polygon fill="midnightblue" stroke="midnightblue" points="479.137,-79.4015 488.524,-74.4889 478.122,-72.4754 479.137,-79.4015"/>
</g>
<!-- Node27 -->
<g id="node23" class="node"><title>Node27</title>
<g id="a_node23"><a xlink:href="_stack_class_8hpp.html" target="_top" xlink:title=" ">
<polygon fill="white" stroke="black" points="1093.26,-175 1093.26,-195 1178.74,-195 1178.74,-175 1093.26,-175"/>
<text text-anchor="middle" x="1136" y="-181" font-family="Helvetica,sans-Serif" font-size="10.00">StackClass.hpp</text>
</a>
</g>
</g>
<!-- Node2&#45;&gt;Node27 -->
<g id="edge22" class="edge"><title>Node2&#45;&gt;Node27</title>
<path fill="none" stroke="midnightblue" d="M1538.38,-238.696C1472.45,-232.227 1324.18,-216.815 1188.93,-196.051"/>
<polygon fill="midnightblue" stroke="midnightblue" points="1189.22,-192.554 1178.81,-194.482 1188.15,-199.472 1189.22,-192.554"/>
</g>
<!-- Node28 -->
<g id="node24" class="node"><title>Node28</title>
<g id="a_node24"><a xlink:href="_rexx_memory_8hpp.html" target="_top" xlink:title=" ">
<polygon fill="white" stroke="black" points="631.189,-175 631.189,-195 724.811,-195 724.811,-175 631.189,-175"/>
<text text-anchor="middle" x="678" y="-181" font-family="Helvetica,sans-Serif" font-size="10.00">RexxMemory.hpp</text>
</a>
</g>
</g>
<!-- Node2&#45;&gt;Node28 -->
<g id="edge23" class="edge"><title>Node2&#45;&gt;Node28</title>
<path fill="none" stroke="midnightblue" d="M1538.46,-241.655C1424.84,-240.196 1052.25,-232.818 735.35,-196.158"/>
<polygon fill="midnightblue" stroke="midnightblue" points="735.385,-192.639 725.046,-194.954 734.572,-199.591 735.385,-192.639"/>
</g>
<!-- Node35 -->
<g id="node29" class="node"><title>Node35</title>
<g id="a_node29"><a xlink:href="_rexx_behaviour_8hpp.html" target="_top" xlink:title=" ">
<polygon fill="white" stroke="black" points="1196.64,-175 1196.64,-195 1299.36,-195 1299.36,-175 1196.64,-175"/>
<text text-anchor="middle" x="1248" y="-181" font-family="Helvetica,sans-Serif" font-size="10.00">RexxBehaviour.hpp</text>
</a>
</g>
</g>
<!-- Node2&#45;&gt;Node35 -->
<g id="edge31" class="edge"><title>Node2&#45;&gt;Node35</title>
<path fill="none" stroke="midnightblue" d="M1538.53,-236.06C1484.06,-226.676 1377.35,-208.287 1309.52,-196.6"/>
<polygon fill="midnightblue" stroke="midnightblue" points="1309.84,-193.104 1299.39,-194.855 1308.65,-200.003 1309.84,-193.104"/>
</g>
<!-- Node37 -->
<g id="node31" class="node"><title>Node37</title>
<g id="a_node31"><a xlink:href="_class_class_8hpp.html" target="_top" xlink:title=" ">
<polygon fill="white" stroke="black" points="1317.26,-175 1317.26,-195 1402.74,-195 1402.74,-175 1317.26,-175"/>
<text text-anchor="middle" x="1360" y="-181" font-family="Helvetica,sans-Serif" font-size="10.00">ClassClass.hpp</text>
</a>
</g>
</g>
<!-- Node2&#45;&gt;Node37 -->
<g id="edge33" class="edge"><title>Node2&#45;&gt;Node37</title>
<path fill="none" stroke="midnightblue" d="M1538.3,-232.878C1501.68,-223.249 1443.85,-208.046 1404.04,-197.578"/>
<polygon fill="midnightblue" stroke="midnightblue" points="1404.89,-194.183 1394.33,-195.025 1403.11,-200.953 1404.89,-194.183"/>
</g>
<!-- Node38 -->
<g id="node32" class="node"><title>Node38</title>
<g id="a_node32"><a xlink:href="_rexx_envelope_8hpp.html" target="_top" xlink:title=" ">
<polygon fill="white" stroke="black" points="1421.03,-175 1421.03,-195 1520.97,-195 1520.97,-175 1421.03,-175"/>
<text text-anchor="middle" x="1471" y="-181" font-family="Helvetica,sans-Serif" font-size="10.00">RexxEnvelope.hpp</text>
</a>
</g>
</g>
<!-- Node2&#45;&gt;Node38 -->
<g id="edge34" class="edge"><title>Node2&#45;&gt;Node38</title>
<path fill="none" stroke="midnightblue" d="M1556.16,-232.753C1539.89,-223.823 1515.05,-210.185 1496.39,-199.939"/>
<polygon fill="midnightblue" stroke="midnightblue" points="1497.98,-196.82 1487.53,-195.075 1494.61,-202.956 1497.98,-196.82"/>
</g>
<!-- Node39 -->
<g id="node33" class="node"><title>Node39</title>
<g id="a_node33"><a xlink:href="_rexx_activity_8hpp.html" target="_top" xlink:title=" ">
<polygon fill="white" stroke="black" points="2196.41,-175 2196.41,-195 2285.59,-195 2285.59,-175 2196.41,-175"/>
<text text-anchor="middle" x="2241" y="-181" font-family="Helvetica,sans-Serif" font-size="10.00">RexxActivity.hpp</text>
</a>
</g>
</g>
<!-- Node2&#45;&gt;Node39 -->
<g id="edge35" class="edge"><title>Node2&#45;&gt;Node39</title>
<path fill="none" stroke="midnightblue" d="M1607.44,-239.595C1696.86,-233.274 1943.76,-215.346 2149,-196 2161,-194.869 2173.86,-193.543 2186.05,-192.232"/>
<polygon fill="midnightblue" stroke="midnightblue" points="2186.54,-195.7 2196.1,-191.14 2185.78,-188.741 2186.54,-195.7"/>
</g>
<!-- Node50 -->
<g id="node43" class="node"><title>Node50</title>
<g id="a_node43"><a xlink:href="_number_string_class_8hpp.html" target="_top" xlink:title=" ">
<polygon fill="white" stroke="black" points="849.921,-175 849.921,-195 972.079,-195 972.079,-175 849.921,-175"/>
<text text-anchor="middle" x="911" y="-181" font-family="Helvetica,sans-Serif" font-size="10.00">NumberStringClass.hpp</text>
</a>
</g>
</g>
<!-- Node2&#45;&gt;Node50 -->
<g id="edge47" class="edge"><title>Node2&#45;&gt;Node50</title>
<path fill="none" stroke="midnightblue" d="M1538.29,-240.056C1448.39,-234.858 1200.41,-219.495 982.2,-195.952"/>
<polygon fill="midnightblue" stroke="midnightblue" points="982.48,-192.462 972.161,-194.86 981.724,-199.421 982.48,-192.462"/>
</g>
<!-- Node66 -->
<g id="node45" class="node"><title>Node66</title>
<g id="a_node45"><a xlink:href="_activity_manager_8hpp.html" target="_top" xlink:title=" ">
<polygon fill="white" stroke="black" points="2033.97,-175 2033.97,-195 2140.03,-195 2140.03,-175 2033.97,-175"/>
<text text-anchor="middle" x="2087" y="-181" font-family="Helvetica,sans-Serif" font-size="10.00">ActivityManager.hpp</text>
</a>
</g>
</g>
<!-- Node2&#45;&gt;Node66 -->
<g id="edge50" class="edge"><title>Node2&#45;&gt;Node66</title>
<path fill="none" stroke="midnightblue" d="M1607.59,-239.135C1681.7,-232.853 1861.5,-216.854 2023.6,-195.983"/>
<polygon fill="midnightblue" stroke="midnightblue" points="2024.29,-199.423 2033.75,-194.666 2023.39,-192.481 2024.29,-199.423"/>
</g>
<!-- Node4 -->
<g id="node4" class="node"><title>Node4</title>
<g id="a_node4"><a xlink:href="rexx_8h.html" target="_top" xlink:title=" ">
<polygon fill="white" stroke="red" points="1509.38,-117 1509.38,-137 1552.62,-137 1552.62,-117 1509.38,-117"/>
<text text-anchor="middle" x="1531" y="-123" font-family="Helvetica,sans-Serif" font-size="10.00">rexx.h</text>
</a>
</g>
</g>
<!-- Node3&#45;&gt;Node4 -->
<g id="edge3" class="edge"><title>Node3&#45;&gt;Node4</title>
<path fill="none" stroke="midnightblue" d="M1566.06,-174.753C1560.07,-166.761 1551.25,-154.998 1543.95,-145.27"/>
<polygon fill="midnightblue" stroke="midnightblue" points="1546.61,-142.975 1537.81,-137.075 1541.01,-147.175 1546.61,-142.975"/>
</g>
<!-- Node9 -->
<g id="node6" class="node"><title>Node9</title>
<g id="a_node6"><a xlink:href="oorexxerrors_8h.html" target="_top" xlink:title=" ">
<polygon fill="white" stroke="black" points="1570.77,-117 1570.77,-137 1651.23,-137 1651.23,-117 1570.77,-117"/>
<text text-anchor="middle" x="1611" y="-123" font-family="Helvetica,sans-Serif" font-size="10.00">oorexxerrors.h</text>
</a>
</g>
</g>
<!-- Node3&#45;&gt;Node9 -->
<g id="edge5" class="edge"><title>Node3&#45;&gt;Node9</title>
<path fill="none" stroke="midnightblue" d="M1579.27,-174.753C1584.64,-166.843 1592.52,-155.237 1599.08,-145.568"/>
<polygon fill="midnightblue" stroke="midnightblue" points="1602.12,-147.315 1604.84,-137.075 1596.33,-143.385 1602.12,-147.315"/>
</g>
<!-- Node5 -->
<g id="node5" class="node"><title>Node5</title>
<g id="a_node5"><a xlink:title=" ">
<polygon fill="white" stroke="#bfbfbf" points="1490.76,-59 1490.76,-79 1571.24,-79 1571.24,-59 1490.76,-59"/>
<text text-anchor="middle" x="1531" y="-65" font-family="Helvetica,sans-Serif" font-size="10.00">rexxapitypes.h</text>
</a>
</g>
</g>
<!-- Node4&#45;&gt;Node5 -->
<g id="edge4" class="edge"><title>Node4&#45;&gt;Node5</title>
<path fill="none" stroke="midnightblue" d="M1531,-116.753C1531,-109.25 1531,-98.4238 1531,-89.0781"/>
<polygon fill="midnightblue" stroke="midnightblue" points="1534.5,-89.0752 1531,-79.0752 1527.5,-89.0752 1534.5,-89.0752"/>
</g>
<!-- Node16 -->
<g id="node13" class="node"><title>Node16</title>
<g id="a_node13"><a xlink:title=" ">
<polygon fill="white" stroke="#bfbfbf" points="-0.130371,-117 -0.130371,-137 108.13,-137 108.13,-117 -0.130371,-117"/>
<text text-anchor="middle" x="54" y="-123" font-family="Helvetica,sans-Serif" font-size="10.00">PlatformDefinitions.h</text>
</a>
</g>
</g>
<!-- Node15&#45;&gt;Node16 -->
<g id="edge12" class="edge"><title>Node15&#45;&gt;Node16</title>
<path fill="none" stroke="midnightblue" d="M104.092,-174.753C95.1803,-166.435 81.8903,-154.031 71.2385,-144.089"/>
<polygon fill="midnightblue" stroke="midnightblue" points="73.4221,-141.34 63.7234,-137.075 68.6459,-146.457 73.4221,-141.34"/>
</g>
<!-- Node17 -->
<g id="node14" class="node"><title>Node17</title>
<g id="a_node14"><a xlink:href="_rexx_error_codes_8h.html" target="_top" xlink:title=" ">
<polygon fill="white" stroke="black" points="125.875,-117 125.875,-137 224.125,-137 224.125,-117 125.875,-117"/>
<text text-anchor="middle" x="175" y="-123" font-family="Helvetica,sans-Serif" font-size="10.00">RexxErrorCodes.h</text>
</a>
</g>
</g>
<!-- Node15&#45;&gt;Node17 -->
<g id="edge13" class="edge"><title>Node15&#45;&gt;Node17</title>
<path fill="none" stroke="midnightblue" d="M124.073,-174.753C133.133,-166.435 146.645,-154.031 157.474,-144.089"/>
<polygon fill="midnightblue" stroke="midnightblue" points="160.115,-146.416 165.115,-137.075 155.381,-141.26 160.115,-146.416"/>
</g>
<!-- Node22 -->
<g id="node19" class="node"><title>Node22</title>
<g id="a_node19"><a xlink:href="_numerics_8hpp.html" target="_top" xlink:title=" ">
<polygon fill="white" stroke="black" points="931.155,-117 931.155,-137 1008.84,-137 1008.84,-117 931.155,-117"/>
<text text-anchor="middle" x="970" y="-123" font-family="Helvetica,sans-Serif" font-size="10.00">Numerics.hpp</text>
</a>
</g>
</g>
<!-- Node21&#45;&gt;Node22 -->
<g id="edge18" class="edge"><title>Node21&#45;&gt;Node22</title>
<path fill="none" stroke="midnightblue" d="M816.809,-174.878C847.874,-165.372 896.697,-150.432 930.852,-139.98"/>
<polygon fill="midnightblue" stroke="midnightblue" points="931.968,-143.298 940.507,-137.025 929.92,-136.605 931.968,-143.298"/>
</g>
<!-- Node23 -->
<g id="node20" class="node"><title>Node23</title>
<g id="a_node20"><a xlink:title=" ">
<polygon fill="white" stroke="#bfbfbf" points="835.209,-59 835.209,-79 886.791,-79 886.791,-59 835.209,-59"/>
<text text-anchor="middle" x="861" y="-65" font-family="Helvetica,sans-Serif" font-size="10.00">stddef.h</text>
</a>
</g>
</g>
<!-- Node21&#45;&gt;Node23 -->
<g id="edge19" class="edge"><title>Node21&#45;&gt;Node23</title>
<path fill="none" stroke="midnightblue" d="M828.992,-174.902C848.986,-168.234 871.084,-156.923 883,-138 892.763,-122.497 883.945,-102.255 874.732,-87.8991"/>
<polygon fill="midnightblue" stroke="midnightblue" points="877.408,-85.618 868.812,-79.4239 871.669,-89.6264 877.408,-85.618"/>
</g>
<!-- Node25 -->
<g id="node22" class="node"><title>Node25</title>
<g id="a_node22"><a xlink:href="_rexx_collection_8hpp.html" target="_top" xlink:title=" ">
<polygon fill="white" stroke="red" points="479.921,-1 479.921,-21 582.079,-21 582.079,-1 479.921,-1"/>
<text text-anchor="middle" x="531" y="-7" font-family="Helvetica,sans-Serif" font-size="10.00">RexxCollection.hpp</text>
</a>
</g>
</g>
<!-- Node24&#45;&gt;Node25 -->
<g id="edge21" class="edge"><title>Node24&#45;&gt;Node25</title>
<path fill="none" stroke="midnightblue" d="M531,-58.7527C531,-51.2504 531,-40.4238 531,-31.0781"/>
<polygon fill="midnightblue" stroke="midnightblue" points="534.5,-31.0752 531,-21.0752 527.5,-31.0752 534.5,-31.0752"/>
</g>
<!-- Node29 -->
<g id="node25" class="node"><title>Node29</title>
<g id="a_node25"><a xlink:title=" ">
<polygon fill="white" stroke="#bfbfbf" points="641.084,-117 641.084,-137 744.916,-137 744.916,-117 641.084,-117"/>
<text text-anchor="middle" x="693" y="-123" font-family="Helvetica,sans-Serif" font-size="10.00">SysSemaphore.hpp</text>
</a>
</g>
</g>
<!-- Node28&#45;&gt;Node29 -->
<g id="edge24" class="edge"><title>Node28&#45;&gt;Node29</title>
<path fill="none" stroke="midnightblue" d="M680.477,-174.753C682.508,-167.169 685.45,-156.188 687.971,-146.774"/>
<polygon fill="midnightblue" stroke="midnightblue" points="691.363,-147.64 690.569,-137.075 684.601,-145.829 691.363,-147.64"/>
</g>
<!-- Node30 -->
<g id="node26" class="node"><title>Node30</title>
<g id="a_node26"><a xlink:href="_identity_table_class_8hpp.html" target="_top" xlink:title=" ">
<polygon fill="white" stroke="black" points="506.692,-117 506.692,-137 623.308,-137 623.308,-117 506.692,-117"/>
<text text-anchor="middle" x="565" y="-123" font-family="Helvetica,sans-Serif" font-size="10.00">IdentityTableClass.hpp</text>
</a>
</g>
</g>
<!-- Node28&#45;&gt;Node30 -->
<g id="edge25" class="edge"><title>Node28&#45;&gt;Node30</title>
<path fill="none" stroke="midnightblue" d="M659.593,-174.878C641.371,-165.847 613.253,-151.913 592.405,-141.581"/>
<polygon fill="midnightblue" stroke="midnightblue" points="593.913,-138.423 583.399,-137.118 590.805,-144.695 593.913,-138.423"/>
</g>
<!-- Node31 -->
<g id="node27" class="node"><title>Node31</title>
<g id="a_node27"><a xlink:href="_memory_stats_8hpp.html" target="_top" xlink:title=" ">
<polygon fill="white" stroke="black" points="394.818,-117 394.818,-137 489.182,-137 489.182,-117 394.818,-117"/>
<text text-anchor="middle" x="442" y="-123" font-family="Helvetica,sans-Serif" font-size="10.00">MemoryStats.hpp</text>
</a>
</g>
</g>
<!-- Node28&#45;&gt;Node31 -->
<g id="edge27" class="edge"><title>Node28&#45;&gt;Node31</title>
<path fill="none" stroke="midnightblue" d="M639.82,-174.94C599.034,-165.262 534.296,-149.901 490.066,-139.406"/>
<polygon fill="midnightblue" stroke="midnightblue" points="490.663,-135.95 480.125,-137.047 489.047,-142.761 490.663,-135.95"/>
</g>
<!-- Node32 -->
<g id="node28" class="node"><title>Node32</title>
<g id="a_node28"><a xlink:href="_memory_segment_8hpp.html" target="_top" xlink:title=" ">
<polygon fill="white" stroke="red" points="763.2,-117 763.2,-137 874.8,-137 874.8,-117 763.2,-117"/>
<text text-anchor="middle" x="819" y="-123" font-family="Helvetica,sans-Serif" font-size="10.00">MemorySegment.hpp</text>
</a>
</g>
</g>
<!-- Node28&#45;&gt;Node32 -->
<g id="edge29" class="edge"><title>Node28&#45;&gt;Node32</title>
<path fill="none" stroke="midnightblue" d="M700.968,-174.878C724.218,-165.644 760.377,-151.283 786.548,-140.889"/>
<polygon fill="midnightblue" stroke="midnightblue" points="788.04,-144.062 796.042,-137.118 785.456,-137.556 788.04,-144.062"/>
</g>
<!-- Node30&#45;&gt;Node24 -->
<g id="edge26" class="edge"><title>Node30&#45;&gt;Node24</title>
<path fill="none" stroke="midnightblue" d="M559.386,-116.753C554.633,-108.924 547.682,-97.4761 541.848,-87.8679"/>
<polygon fill="midnightblue" stroke="midnightblue" points="544.692,-85.8066 536.51,-79.0752 538.708,-89.4395 544.692,-85.8066"/>
</g>
<!-- Node31&#45;&gt;Node19 -->
<g id="edge28" class="edge"><title>Node31&#45;&gt;Node19</title>
<path fill="none" stroke="midnightblue" d="M432.753,-116.753C424.516,-108.516 412.274,-96.2738 402.382,-86.3824"/>
<polygon fill="midnightblue" stroke="midnightblue" points="404.621,-83.6714 395.075,-79.0752 399.671,-88.6212 404.621,-83.6714"/>
</g>
<!-- Node32&#45;&gt;Node23 -->
<g id="edge30" class="edge"><title>Node32&#45;&gt;Node23</title>
<path fill="none" stroke="midnightblue" d="M825.935,-116.753C831.929,-108.761 840.752,-96.9975 848.048,-87.2698"/>
<polygon fill="midnightblue" stroke="midnightblue" points="850.994,-89.1752 854.194,-79.0752 845.394,-84.9752 850.994,-89.1752"/>
</g>
<!-- Node36 -->
<g id="node30" class="node"><title>Node36</title>
<g id="a_node30"><a xlink:href="_primitive_behaviour_names_8h.html" target="_top" xlink:title=" ">
<polygon fill="white" stroke="black" points="1178.31,-117 1178.31,-137 1317.69,-137 1317.69,-117 1178.31,-117"/>
<text text-anchor="middle" x="1248" y="-123" font-family="Helvetica,sans-Serif" font-size="10.00">PrimitiveBehaviourNames.h</text>
</a>
</g>
</g>
<!-- Node35&#45;&gt;Node36 -->
<g id="edge32" class="edge"><title>Node35&#45;&gt;Node36</title>
<path fill="none" stroke="midnightblue" d="M1248,-174.753C1248,-167.25 1248,-156.424 1248,-147.078"/>
<polygon fill="midnightblue" stroke="midnightblue" points="1251.5,-147.075 1248,-137.075 1244.5,-147.075 1251.5,-147.075"/>
</g>
<!-- Node40 -->
<g id="node34" class="node"><title>Node40</title>
<g id="a_node34"><a xlink:href="_list_class_8hpp.html" target="_top" xlink:title=" ">
<polygon fill="white" stroke="red" points="2517.99,-117 2517.99,-137 2594.01,-137 2594.01,-117 2517.99,-117"/>
<text text-anchor="middle" x="2556" y="-123" font-family="Helvetica,sans-Serif" font-size="10.00">ListClass.hpp</text>
</a>
</g>
</g>
<!-- Node39&#45;&gt;Node40 -->
<g id="edge36" class="edge"><title>Node39&#45;&gt;Node40</title>
<path fill="none" stroke="midnightblue" d="M2285.97,-176.743C2337.08,-168.386 2423.26,-153.964 2507.75,-137.993"/>
<polygon fill="midnightblue" stroke="midnightblue" points="2508.6,-141.394 2517.77,-136.089 2507.29,-134.517 2508.6,-141.394"/>
</g>
<!-- Node42 -->
<g id="node35" class="node"><title>Node42</title>
<g id="a_node35"><a xlink:href="_rexx_internal_stack_8hpp.html" target="_top" xlink:title=" ">
<polygon fill="white" stroke="black" points="2611.69,-117 2611.69,-137 2728.31,-137 2728.31,-117 2611.69,-117"/>
<text text-anchor="middle" x="2670" y="-123" font-family="Helvetica,sans-Serif" font-size="10.00">RexxInternalStack.hpp</text>
</a>
</g>
</g>
<!-- Node39&#45;&gt;Node42 -->
<g id="edge37" class="edge"><title>Node39&#45;&gt;Node42</title>
<path fill="none" stroke="midnightblue" d="M2285.63,-178.646C2352.13,-170.598 2481.46,-154.68 2601.45,-138.193"/>
<polygon fill="midnightblue" stroke="midnightblue" points="2602.12,-141.634 2611.55,-136.801 2601.16,-134.7 2602.12,-141.634"/>
</g>
<!-- Node43 -->
<g id="node36" class="node"><title>Node43</title>
<g id="a_node36"><a xlink:href="_rexx_activation_stack_8hpp.html" target="_top" xlink:title=" ">
<polygon fill="white" stroke="black" points="2746.69,-117 2746.69,-137 2873.31,-137 2873.31,-117 2746.69,-117"/>
<text text-anchor="middle" x="2810" y="-123" font-family="Helvetica,sans-Serif" font-size="10.00">RexxActivationStack.hpp</text>
</a>
</g>
</g>
<!-- Node39&#45;&gt;Node43 -->
<g id="edge38" class="edge"><title>Node39&#45;&gt;Node43</title>
<path fill="none" stroke="midnightblue" d="M2285.87,-180.499C2371.3,-173.69 2563.47,-157.687 2736.28,-138.038"/>
<polygon fill="midnightblue" stroke="midnightblue" points="2736.78,-141.504 2746.32,-136.89 2735.99,-134.549 2736.78,-141.504"/>
</g>
<!-- Node44 -->
<g id="node37" class="node"><title>Node44</title>
<g id="a_node37"><a xlink:href="_expression_stack_8hpp.html" target="_top" xlink:title=" ">
<polygon fill="white" stroke="red" points="2024.03,-117 2024.03,-137 2133.97,-137 2133.97,-117 2024.03,-117"/>
<text text-anchor="middle" x="2079" y="-123" font-family="Helvetica,sans-Serif" font-size="10.00">ExpressionStack.hpp</text>
</a>
</g>
</g>
<!-- Node39&#45;&gt;Node44 -->
<g id="edge39" class="edge"><title>Node39&#45;&gt;Node44</title>
<path fill="none" stroke="midnightblue" d="M2214.61,-174.878C2187.47,-165.494 2145,-150.815 2114.83,-140.386"/>
<polygon fill="midnightblue" stroke="midnightblue" points="2115.7,-136.985 2105.11,-137.025 2113.42,-143.6 2115.7,-136.985"/>
</g>
<!-- Node46 -->
<g id="node38" class="node"><title>Node46</title>
<g id="a_node38"><a xlink:href="_rexx_local_variables_8hpp.html" target="_top" xlink:title=" ">
<polygon fill="white" stroke="red" points="2152.45,-117 2152.45,-137 2275.55,-137 2275.55,-117 2152.45,-117"/>
<text text-anchor="middle" x="2214" y="-123" font-family="Helvetica,sans-Serif" font-size="10.00">RexxLocalVariables.hpp</text>
</a>
</g>
</g>
<!-- Node39&#45;&gt;Node46 -->
<g id="edge40" class="edge"><title>Node39&#45;&gt;Node46</title>
<path fill="none" stroke="midnightblue" d="M2236.54,-174.753C2232.81,-167.006 2227.36,-155.714 2222.76,-146.169"/>
<polygon fill="midnightblue" stroke="midnightblue" points="2225.87,-144.563 2218.38,-137.075 2219.57,-147.603 2225.87,-144.563"/>
</g>
<!-- Node61 -->
<g id="node39" class="node"><title>Node61</title>
<g id="a_node39"><a xlink:href="_source_location_8hpp.html" target="_top" xlink:title=" ">
<polygon fill="white" stroke="black" points="2293.52,-117 2293.52,-137 2398.48,-137 2398.48,-117 2293.52,-117"/>
<text text-anchor="middle" x="2346" y="-123" font-family="Helvetica,sans-Serif" font-size="10.00">SourceLocation.hpp</text>
</a>
</g>
</g>
<!-- Node39&#45;&gt;Node61 -->
<g id="edge41" class="edge"><title>Node39&#45;&gt;Node61</title>
<path fill="none" stroke="midnightblue" d="M2258.34,-174.753C2275.16,-165.783 2300.89,-152.06 2320.13,-141.799"/>
<polygon fill="midnightblue" stroke="midnightblue" points="2321.81,-144.869 2328.98,-137.075 2318.51,-138.693 2321.81,-144.869"/>
</g>
<!-- Node62 -->
<g id="node40" class="node"><title>Node62</title>
<g id="a_node40"><a xlink:href="_exit_handler_8hpp.html" target="_top" xlink:title=" ">
<polygon fill="white" stroke="red" points="1688.7,-117 1688.7,-137 1775.3,-137 1775.3,-117 1688.7,-117"/>
<text text-anchor="middle" x="1732" y="-123" font-family="Helvetica,sans-Serif" font-size="10.00">ExitHandler.hpp</text>
</a>
</g>
</g>
<!-- Node39&#45;&gt;Node62 -->
<g id="edge42" class="edge"><title>Node39&#45;&gt;Node62</title>
<path fill="none" stroke="midnightblue" d="M2196.08,-179.076C2181.11,-177.446 2164.34,-175.631 2149,-174 1995.26,-157.647 1956.46,-156.785 1803,-138 1797.44,-137.319 1791.64,-136.569 1785.86,-135.795"/>
<polygon fill="midnightblue" stroke="midnightblue" points="1785.9,-132.269 1775.52,-134.384 1784.96,-139.204 1785.9,-132.269"/>
</g>
<!-- Node64 -->
<g id="node41" class="node"><title>Node64</title>
<g id="a_node41"><a xlink:href="_activation_api_contexts_8hpp.html" target="_top" xlink:title=" ">
<polygon fill="white" stroke="black" points="1873.63,-117 1873.63,-137 2006.37,-137 2006.37,-117 1873.63,-117"/>
<text text-anchor="middle" x="1940" y="-123" font-family="Helvetica,sans-Serif" font-size="10.00">ActivationApiContexts.hpp</text>
</a>
</g>
</g>
<!-- Node39&#45;&gt;Node64 -->
<g id="edge44" class="edge"><title>Node39&#45;&gt;Node64</title>
<path fill="none" stroke="midnightblue" d="M2196.26,-175.677C2143.73,-165.904 2056.45,-149.665 1998.57,-138.897"/>
<polygon fill="midnightblue" stroke="midnightblue" points="1998.95,-135.407 1988.48,-137.019 1997.67,-142.289 1998.95,-135.407"/>
</g>
<!-- Node65 -->
<g id="node42" class="node"><title>Node65</title>
<g id="a_node42"><a xlink:title=" ">
<polygon fill="white" stroke="#bfbfbf" points="2416.47,-117 2416.47,-137 2499.53,-137 2499.53,-117 2416.47,-117"/>
<text text-anchor="middle" x="2458" y="-123" font-family="Helvetica,sans-Serif" font-size="10.00">SysActivity.hpp</text>
</a>
</g>
</g>
<!-- Node39&#45;&gt;Node65 -->
<g id="edge46" class="edge"><title>Node39&#45;&gt;Node65</title>
<path fill="none" stroke="midnightblue" d="M2276.35,-174.878C2313.66,-165.249 2372.57,-150.046 2413.13,-139.578"/>
<polygon fill="midnightblue" stroke="midnightblue" points="2414.22,-142.913 2423.03,-137.025 2412.47,-136.135 2414.22,-142.913"/>
</g>
<!-- Node62&#45;&gt;Node2 -->
<g id="edge43" class="edge"><title>Node62&#45;&gt;Node2</title>
<path fill="none" stroke="midnightblue" d="M1714.76,-137.091C1698.61,-145.854 1674.02,-159.838 1654,-174 1631.02,-190.252 1606.52,-211.42 1590.56,-225.792"/>
<polygon fill="midnightblue" stroke="midnightblue" points="1588.09,-223.308 1583.04,-232.625 1592.8,-228.487 1588.09,-223.308"/>
</g>
<!-- Node64&#45;&gt;Node2 -->
<g id="edge45" class="edge"><title>Node64&#45;&gt;Node2</title>
<path fill="none" stroke="midnightblue" d="M1940.38,-137.12C1940.45,-151.93 1938.22,-181.054 1921,-196 1876.59,-234.55 1701.35,-241.119 1617.79,-242.018"/>
<polygon fill="midnightblue" stroke="midnightblue" points="1617.56,-238.519 1607.59,-242.104 1617.62,-245.519 1617.56,-238.519"/>
</g>
<!-- Node50&#45;&gt;Node22 -->
<g id="edge48" class="edge"><title>Node50&#45;&gt;Node22</title>
<path fill="none" stroke="midnightblue" d="M920.743,-174.753C929.506,-166.435 942.575,-154.031 953.049,-144.089"/>
<polygon fill="midnightblue" stroke="midnightblue" points="955.595,-146.498 960.439,-137.075 950.776,-141.421 955.595,-146.498"/>
</g>
<!-- Node51 -->
<g id="node44" class="node"><title>Node51</title>
<g id="a_node44"><a xlink:href="_number_string_math_8hpp.html" target="_top" xlink:title=" ">
<polygon fill="white" stroke="black" points="1027.31,-117 1027.31,-137 1146.69,-137 1146.69,-117 1027.31,-117"/>
<text text-anchor="middle" x="1087" y="-123" font-family="Helvetica,sans-Serif" font-size="10.00">NumberStringMath.hpp</text>
</a>
</g>
</g>
<!-- Node50&#45;&gt;Node51 -->
<g id="edge49" class="edge"><title>Node50&#45;&gt;Node51</title>
<path fill="none" stroke="midnightblue" d="M939.669,-174.878C969.417,-165.413 1016.1,-150.56 1048.93,-140.115"/>
<polygon fill="midnightblue" stroke="midnightblue" points="1050.17,-143.393 1058.63,-137.025 1048.04,-136.722 1050.17,-143.393"/>
</g>
<!-- Node67 -->
<g id="node46" class="node"><title>Node67</title>
<g id="a_node46"><a xlink:title=" ">
<polygon fill="white" stroke="#bfbfbf" points="1812.1,-117 1812.1,-137 1855.9,-137 1855.9,-117 1812.1,-117"/>
<text text-anchor="middle" x="1834" y="-123" font-family="Helvetica,sans-Serif" font-size="10.00">deque</text>
</a>
</g>
</g>
<!-- Node66&#45;&gt;Node67 -->
<g id="edge51" class="edge"><title>Node66&#45;&gt;Node67</title>
<path fill="none" stroke="midnightblue" d="M2035.49,-174.956C1992.47,-167.035 1929.38,-154.567 1865.73,-137.983"/>
<polygon fill="midnightblue" stroke="midnightblue" points="1866.49,-134.564 1855.93,-135.397 1864.71,-141.332 1866.49,-134.564"/>
</g>
<!-- Node68&#45;&gt;Node2 -->
<g id="edge53" class="edge"><title>Node68&#45;&gt;Node2</title>
<path fill="none" stroke="midnightblue" d="M2125.69,-296.018C2017.02,-285.79 1728.9,-258.672 1617.68,-248.205"/>
<polygon fill="midnightblue" stroke="midnightblue" points="1617.76,-244.697 1607.48,-247.245 1617.11,-251.667 1617.76,-244.697"/>
</g>
<!-- Node68&#45;&gt;Node69 -->
<g id="edge54" class="edge"><title>Node68&#45;&gt;Node69</title>
<path fill="none" stroke="midnightblue" d="M2189.34,-290.878C2210.75,-281.725 2243.94,-267.536 2268.2,-257.164"/>
<polygon fill="midnightblue" stroke="midnightblue" points="2269.85,-260.267 2277.67,-253.118 2267.1,-253.831 2269.85,-260.267"/>
</g>
<!-- Node68&#45;&gt;Node64 -->
<g id="edge56" class="edge"><title>Node68&#45;&gt;Node64</title>
<path fill="none" stroke="midnightblue" d="M2169.73,-290.934C2173.53,-267.995 2179.98,-207.124 2149,-174 2139.11,-163.424 2063.76,-148.671 2006.35,-138.75"/>
<polygon fill="midnightblue" stroke="midnightblue" points="2006.67,-135.253 1996.22,-137.017 2005.49,-142.153 2006.67,-135.253"/>
</g>
<!-- Node68&#45;&gt;Node39 -->
<g id="edge57" class="edge"><title>Node68&#45;&gt;Node39</title>
<path fill="none" stroke="midnightblue" d="M2173.97,-290.671C2186.12,-271.705 2213.87,-228.371 2229.59,-203.822"/>
<polygon fill="midnightblue" stroke="midnightblue" points="2232.7,-205.448 2235.15,-195.139 2226.81,-201.673 2232.7,-205.448"/>
</g>
<!-- Node69&#45;&gt;Node39 -->
<g id="edge55" class="edge"><title>Node69&#45;&gt;Node39</title>
<path fill="none" stroke="midnightblue" d="M2289.42,-232.753C2280.81,-224.435 2267.96,-212.031 2257.66,-202.089"/>
<polygon fill="midnightblue" stroke="midnightblue" points="2260.02,-199.503 2250.4,-195.075 2255.16,-204.539 2260.02,-199.503"/>
</g>
<!-- Node70&#45;&gt;Node39 -->
<g id="edge60" class="edge"><title>Node70&#45;&gt;Node39</title>
<path fill="none" stroke="midnightblue" d="M2111.25,-232.878C2137.11,-223.535 2177.5,-208.943 2206.34,-198.522"/>
<polygon fill="midnightblue" stroke="midnightblue" points="2207.8,-201.715 2216.02,-195.025 2205.42,-195.132 2207.8,-201.715"/>
</g>
<!-- Node70&#45;&gt;Node66 -->
<g id="edge61" class="edge"><title>Node70&#45;&gt;Node66</title>
<path fill="none" stroke="midnightblue" d="M2086.17,-232.753C2086.3,-225.25 2086.49,-214.424 2086.66,-205.078"/>
<polygon fill="midnightblue" stroke="midnightblue" points="2090.16,-205.136 2086.84,-195.075 2083.16,-205.011 2090.16,-205.136"/>
</g>
<!-- Node71&#45;&gt;Node2 -->
<g id="edge63" class="edge"><title>Node71&#45;&gt;Node2</title>
<path fill="none" stroke="midnightblue" d="M1656.49,-290.753C1640.61,-281.864 1616.41,-268.309 1598.14,-258.079"/>
<polygon fill="midnightblue" stroke="midnightblue" points="1599.64,-254.907 1589.21,-253.075 1596.22,-261.015 1599.64,-254.907"/>
</g>
</g>
</svg>
        <g id="navigator" transform="translate(0 0)" fill="#404254">
                <rect fill="#f2f5e9" fill-opacity="0.5" stroke="#606060" stroke-width=".5" x="0" y="0" width="60" height="60"/>
                <use id="zoomplus" xlink:href="#zoomPlus" x="17" y="9" onmousedown="handleZoom(evt,'in')"/>
                <use id="zoomminus" xlink:href="#zoomMin" x="42" y="9" onmousedown="handleZoom(evt,'out')"/>
                <use id="reset" xlink:href="#resetDef" x="30" y="36" onmousedown="handleReset()"/>
                <g id="arrowUp" xlink:href="#dirArrow" transform="translate(30 24)" onmousedown="handlePan(0,-1)">
                  <use xlink:href="#rim" fill="#404040">
                        <set attributeName="fill" to="#808080" begin="arrowUp.mouseover" end="arrowUp.mouseout"/>
                  </use>
                  <path fill="none" stroke="white" stroke-width="1.5" d="M0,-3.0v7 M-2.5,-0.5L0,-3.0L2.5,-0.5"/>
                </g>
                <g id="arrowRight" xlink:href="#dirArrow" transform="rotate(90) translate(36 -43)" onmousedown="handlePan(1,0)">
                  <use xlink:href="#rim" fill="#404040">
                        <set attributeName="fill" to="#808080" begin="arrowRight.mouseover" end="arrowRight.mouseout"/>
                  </use>
                  <path fill="none" stroke="white" stroke-width="1.5" d="M0,-3.0v7 M-2.5,-0.5L0,-3.0L2.5,-0.5"/>
                </g>
                <g id="arrowDown" xlink:href="#dirArrow" transform="rotate(180) translate(-30 -48)" onmousedown="handlePan(0,1)">
                  <use xlink:href="#rim" fill="#404040">
                        <set attributeName="fill" to="#808080" begin="arrowDown.mouseover" end="arrowDown.mouseout"/>
                  </use>
                  <path fill="none" stroke="white" stroke-width="1.5" d="M0,-3.0v7 M-2.5,-0.5L0,-3.0L2.5,-0.5"/>
                </g>
                <g id="arrowLeft" xlink:href="#dirArrow" transform="rotate(270) translate(-36 17)" onmousedown="handlePan(-1,0)">
                  <use xlink:href="#rim" fill="#404040">
                        <set attributeName="fill" to="#808080" begin="arrowLeft.mouseover" end="arrowLeft.mouseout"/>
                  </use>
                  <path fill="none" stroke="white" stroke-width="1.5" d="M0,-3.0v7 M-2.5,-0.5L0,-3.0L2.5,-0.5"/>
                </g>
        </g>
        <svg viewBox="0 0 15 15" width="100%" height="30px" preserveAspectRatio="xMaxYMin meet">
         <g id="arrow_out" transform="scale(0.3 0.3)">
          <a xlink:href="_method_context_stubs_8cpp__incl_org.svg" target="_base">
           <rect id="button" ry="5" rx="5" y="6" x="6" height="38" width="38"
                fill="#f2f5e9" fill-opacity="0.5" stroke="#606060" stroke-width="1.0"/>
           <path id="arrow"
             d="M 11.500037,31.436501 C 11.940474,20.09759 22.043105,11.32322 32.158766,21.979434 L 37.068811,17.246167 C 37.068811,17.246167 37.088388,32 37.088388,32 L 22.160133,31.978069 C 22.160133,31.978069 26.997745,27.140456 26.997745,27.140456 C 18.528582,18.264221 13.291696,25.230495 11.500037,31.436501 z"
             style="fill:#404040;"/>
          </a>
         </g>
        </svg>
</svg>
