<?xml version="1.0" encoding="UTF-8" standalone="no"?>
<!DOCTYPE svg PUBLIC "-//W3C//DTD SVG 1.1//EN"
 "http://www.w3.org/Graphics/SVG/1.1/DTD/svg11.dtd">
<!-- Generated by graphviz version 12.1.0 (20240811.2233)
 -->
<!-- Title: MutableBufferClass.hpp Pages: 1 -->
<svg width="949pt" height="85pt"
 viewBox="0.00 0.00 948.75 84.50" xmlns="http://www.w3.org/2000/svg" xmlns:xlink="http://www.w3.org/1999/xlink">
<g id="graph0" class="graph" transform="scale(1 1) rotate(0) translate(4 80.5)">
<title>MutableBufferClass.hpp</title>
<polygon fill="white" stroke="none" points="-4,4 -4,-80.5 944.75,-80.5 944.75,4 -4,4"/>
<!-- Node1 -->
<g id="node1" class="node">
<title>Node1</title>
<g id="a_node1"><a xlink:title=" ">
<polygon fill="#bfbfbf" stroke="black" points="361.62,-56.75 361.62,-76 482.62,-76 482.62,-56.75 361.62,-56.75"/>
<text text-anchor="middle" x="422.12" y="-62.5" font-family="Helvetica,sans-Serif" font-size="10.00">MutableBufferClass.hpp</text>
</a>
</g>
</g>
<!-- Node2 -->
<g id="node2" class="node">
<title>Node2</title>
<g id="a_node2"><a xlink:href="_setup_8cpp.html" target="_top" xlink:title=" ">
<polygon fill="white" stroke="black" points="0,-0.5 0,-19.75 60.25,-19.75 60.25,-0.5 0,-0.5"/>
<text text-anchor="middle" x="30.12" y="-6.25" font-family="Helvetica,sans-Serif" font-size="10.00">Setup.cpp</text>
</a>
</g>
</g>
<!-- Node1&#45;&gt;Node2 -->
<g id="edge1" class="edge">
<title>Node1&#45;&gt;Node2</title>
<path fill="none" stroke="midnightblue" d="M350.12,-58.36C278.55,-50.87 165.8,-37.69 69.12,-20.25 66.39,-19.76 63.55,-19.19 60.72,-18.6"/>
<polygon fill="midnightblue" stroke="midnightblue" points="349.43,-61.81 359.74,-59.36 350.15,-54.84 349.43,-61.81"/>
</g>
<!-- Node3 -->
<g id="node3" class="node">
<title>Node3</title>
<g id="a_node3"><a xlink:href="_rexx_memory_8cpp.html" target="_top" xlink:title=" ">
<polygon fill="white" stroke="black" points="78.25,-0.5 78.25,-19.75 170,-19.75 170,-0.5 78.25,-0.5"/>
<text text-anchor="middle" x="124.12" y="-6.25" font-family="Helvetica,sans-Serif" font-size="10.00">RexxMemory.cpp</text>
</a>
</g>
</g>
<!-- Node1&#45;&gt;Node3 -->
<g id="edge2" class="edge">
<title>Node1&#45;&gt;Node3</title>
<path fill="none" stroke="midnightblue" d="M360.94,-54.24C304.34,-43.93 221.45,-28.84 170.24,-19.52"/>
<polygon fill="midnightblue" stroke="midnightblue" points="360.29,-57.68 370.76,-56.02 361.55,-50.79 360.29,-57.68"/>
</g>
<!-- Node4 -->
<g id="node4" class="node">
<title>Node4</title>
<g id="a_node4"><a xlink:href="_array_class_8cpp.html" target="_top" xlink:title=" ">
<polygon fill="white" stroke="black" points="188.38,-0.5 188.38,-19.75 271.88,-19.75 271.88,-0.5 188.38,-0.5"/>
<text text-anchor="middle" x="230.12" y="-6.25" font-family="Helvetica,sans-Serif" font-size="10.00">ArrayClass.cpp</text>
</a>
</g>
</g>
<!-- Node1&#45;&gt;Node4 -->
<g id="edge3" class="edge">
<title>Node1&#45;&gt;Node4</title>
<path fill="none" stroke="midnightblue" d="M379.04,-53.2C343.68,-43.21 294.39,-29.28 262.37,-20.23"/>
<polygon fill="midnightblue" stroke="midnightblue" points="377.96,-56.53 388.53,-55.88 379.86,-49.8 377.96,-56.53"/>
</g>
<!-- Node5 -->
<g id="node5" class="node">
<title>Node5</title>
<g id="a_node5"><a xlink:href="_mutable_buffer_class_8cpp.html" target="_top" xlink:title=" ">
<polygon fill="white" stroke="black" points="289.62,-0.5 289.62,-19.75 410.62,-19.75 410.62,-0.5 289.62,-0.5"/>
<text text-anchor="middle" x="350.12" y="-6.25" font-family="Helvetica,sans-Serif" font-size="10.00">MutableBufferClass.cpp</text>
</a>
</g>
</g>
<!-- Node1&#45;&gt;Node5 -->
<g id="edge4" class="edge">
<title>Node1&#45;&gt;Node5</title>
<path fill="none" stroke="midnightblue" d="M401.17,-49.59C388.35,-39.92 372.41,-27.92 361.79,-19.92"/>
<polygon fill="midnightblue" stroke="midnightblue" points="398.93,-52.28 409.03,-55.51 403.15,-46.69 398.93,-52.28"/>
</g>
<!-- Node6 -->
<g id="node6" class="node">
<title>Node6</title>
<g id="a_node6"><a xlink:href="_rexx_native_activation_8cpp.html" target="_top" xlink:title=" ">
<polygon fill="white" stroke="black" points="429.12,-0.5 429.12,-19.75 559.12,-19.75 559.12,-0.5 429.12,-0.5"/>
<text text-anchor="middle" x="494.12" y="-6.25" font-family="Helvetica,sans-Serif" font-size="10.00">RexxNativeActivation.cpp</text>
</a>
</g>
</g>
<!-- Node1&#45;&gt;Node6 -->
<g id="edge5" class="edge">
<title>Node1&#45;&gt;Node6</title>
<path fill="none" stroke="midnightblue" d="M443.08,-49.59C455.9,-39.92 471.84,-27.92 482.46,-19.92"/>
<polygon fill="midnightblue" stroke="midnightblue" points="441.1,-46.69 435.22,-55.51 445.32,-52.28 441.1,-46.69"/>
</g>
<!-- Node7 -->
<g id="node7" class="node">
<title>Node7</title>
<g id="a_node7"><a xlink:href="_c_p_p_code_8cpp.html" target="_top" xlink:title=" ">
<polygon fill="white" stroke="black" points="577.62,-0.5 577.62,-19.75 656.62,-19.75 656.62,-0.5 577.62,-0.5"/>
<text text-anchor="middle" x="617.12" y="-6.25" font-family="Helvetica,sans-Serif" font-size="10.00">CPPCode.cpp</text>
</a>
</g>
</g>
<!-- Node1&#45;&gt;Node7 -->
<g id="edge6" class="edge">
<title>Node1&#45;&gt;Node7</title>
<path fill="none" stroke="midnightblue" d="M465.42,-53.33C501.37,-43.33 551.72,-29.32 584.38,-20.23"/>
<polygon fill="midnightblue" stroke="midnightblue" points="464.92,-49.84 456.22,-55.89 466.79,-56.58 464.92,-49.84"/>
</g>
<!-- Node8 -->
<g id="node8" class="node">
<title>Node8</title>
<g id="a_node8"><a xlink:href="_thread_context_stubs_8cpp.html" target="_top" xlink:title=" ">
<polygon fill="white" stroke="black" points="674.75,-0.5 674.75,-19.75 799.5,-19.75 799.5,-0.5 674.75,-0.5"/>
<text text-anchor="middle" x="737.12" y="-6.25" font-family="Helvetica,sans-Serif" font-size="10.00">ThreadContextStubs.cpp</text>
</a>
</g>
</g>
<!-- Node1&#45;&gt;Node8 -->
<g id="edge7" class="edge">
<title>Node1&#45;&gt;Node8</title>
<path fill="none" stroke="midnightblue" d="M486.14,-54.35C544.49,-44.3 629.65,-29.63 684.23,-20.23"/>
<polygon fill="midnightblue" stroke="midnightblue" points="485.6,-50.89 476.34,-56.04 486.79,-57.79 485.6,-50.89"/>
</g>
<!-- Node9 -->
<g id="node9" class="node">
<title>Node9</title>
<g id="a_node9"><a xlink:href="_virtual_function_table_8cpp.html" target="_top" xlink:title=" ">
<polygon fill="white" stroke="black" points="817.5,-0.5 817.5,-19.75 940.75,-19.75 940.75,-0.5 817.5,-0.5"/>
<text text-anchor="middle" x="879.12" y="-6.25" font-family="Helvetica,sans-Serif" font-size="10.00">VirtualFunctionTable.cpp</text>
</a>
</g>
</g>
<!-- Node1&#45;&gt;Node9 -->
<g id="edge8" class="edge">
<title>Node1&#45;&gt;Node9</title>
<path fill="none" stroke="midnightblue" d="M494.06,-57.21C571.61,-48.36 698.66,-33.68 808.12,-20.25 811.09,-19.89 814.11,-19.51 817.17,-19.13"/>
<polygon fill="midnightblue" stroke="midnightblue" points="494.03,-53.7 484.49,-58.31 494.82,-60.65 494.03,-53.7"/>
</g>
</g>
</svg>
