<?xml version="1.0" encoding="UTF-8" standalone="no"?>
<!DOCTYPE svg PUBLIC "-//W3C//DTD SVG 1.1//EN"
 "http://www.w3.org/Graphics/SVG/1.1/DTD/svg11.dtd">
<!-- Generated by graphviz version 2.30.1 (20130222.1704)
 -->
<!-- Title: NopInstruction.hpp Pages: 1 -->
<svg width="2313pt" height="726pt"
 viewBox="0.00 0.00 2313.00 726.00" xmlns="http://www.w3.org/2000/svg" xmlns:xlink="http://www.w3.org/1999/xlink">
<g id="graph0" class="graph" transform="scale(1 1) rotate(0) translate(4 722)">
<title>NopInstruction.hpp</title>
<polygon fill="white" stroke="white" points="-4,5 -4,-722 2310,-722 2310,5 -4,5"/>
<!-- Node1 -->
<g id="node1" class="node"><title>Node1</title>
<g id="a_node1"><a xlink:title=" ">
<polygon fill="#bfbfbf" stroke="black" points="889.03,-697 889.03,-717 988.97,-717 988.97,-697 889.03,-697"/>
<text text-anchor="middle" x="939" y="-703" font-family="Helvetica,sans-Serif" font-size="10.00">NopInstruction.hpp</text>
</a>
</g>
</g>
<!-- Node2 -->
<g id="node2" class="node"><title>Node2</title>
<g id="a_node2"><a xlink:href="_rexx_instruction_8hpp.html" target="_top" xlink:title=" ">
<polygon fill="white" stroke="black" points="533.811,-639 533.811,-659 638.189,-659 638.189,-639 533.811,-639"/>
<text text-anchor="middle" x="586" y="-645" font-family="Helvetica,sans-Serif" font-size="10.00">RexxInstruction.hpp</text>
</a>
</g>
</g>
<!-- Node1&#45;&gt;Node2 -->
<g id="edge1" class="edge"><title>Node1&#45;&gt;Node2</title>
<path fill="none" stroke="midnightblue" d="M888.799,-698.036C825.612,-688.012 717.073,-670.794 648.553,-659.923"/>
<polygon fill="midnightblue" stroke="midnightblue" points="648.754,-656.412 638.329,-658.301 647.657,-663.325 648.754,-656.412"/>
</g>
<!-- Node4 -->
<g id="node4" class="node"><title>Node4</title>
<g id="a_node4"><a xlink:href="_rexx_activation_8hpp.html" target="_top" xlink:title=" ">
<polygon fill="white" stroke="black" points="1242.2,-639 1242.2,-659 1343.8,-659 1343.8,-639 1242.2,-639"/>
<text text-anchor="middle" x="1293" y="-645" font-family="Helvetica,sans-Serif" font-size="10.00">RexxActivation.hpp</text>
</a>
</g>
</g>
<!-- Node1&#45;&gt;Node4 -->
<g id="edge3" class="edge"><title>Node1&#45;&gt;Node4</title>
<path fill="none" stroke="midnightblue" d="M989.344,-698.036C1053.16,-687.94 1163.12,-670.546 1231.74,-659.691"/>
<polygon fill="midnightblue" stroke="midnightblue" points="1232.64,-663.092 1241.97,-658.073 1231.55,-656.178 1232.64,-663.092"/>
</g>
<!-- Node3 -->
<g id="node3" class="node"><title>Node3</title>
<g id="a_node3"><a xlink:href="_source_location_8hpp.html" target="_top" xlink:title=" ">
<polygon fill="white" stroke="black" points="44.5225,-291 44.5225,-311 149.478,-311 149.478,-291 44.5225,-291"/>
<text text-anchor="middle" x="97" y="-297" font-family="Helvetica,sans-Serif" font-size="10.00">SourceLocation.hpp</text>
</a>
</g>
</g>
<!-- Node2&#45;&gt;Node3 -->
<g id="edge2" class="edge"><title>Node2&#45;&gt;Node3</title>
<path fill="none" stroke="midnightblue" d="M533.739,-648.837C390.113,-649.743 0,-642.243 0,-534 0,-534 0,-534 0,-416 0,-371.682 43.0486,-335.818 71.7893,-316.813"/>
<polygon fill="midnightblue" stroke="midnightblue" points="73.9847,-319.565 80.5453,-311.246 70.2287,-313.658 73.9847,-319.565"/>
</g>
<!-- Node5 -->
<g id="node5" class="node"><title>Node5</title>
<g id="a_node5"><a xlink:href="_expression_stack_8hpp.html" target="_top" xlink:title=" ">
<polygon fill="white" stroke="black" points="412.03,-291 412.03,-311 521.97,-311 521.97,-291 412.03,-291"/>
<text text-anchor="middle" x="467" y="-297" font-family="Helvetica,sans-Serif" font-size="10.00">ExpressionStack.hpp</text>
</a>
</g>
</g>
<!-- Node4&#45;&gt;Node5 -->
<g id="edge4" class="edge"><title>Node4&#45;&gt;Node5</title>
<path fill="none" stroke="midnightblue" d="M1344.06,-645.91C1552.19,-635.794 2314.76,-582.316 2087,-348 2059.46,-319.664 832.075,-305.631 532.453,-302.624"/>
<polygon fill="midnightblue" stroke="midnightblue" points="532.224,-299.121 522.189,-302.521 532.154,-306.121 532.224,-299.121"/>
</g>
<!-- Node7 -->
<g id="node7" class="node"><title>Node7</title>
<g id="a_node7"><a xlink:href="_do_block_8hpp.html" target="_top" xlink:title=" ">
<polygon fill="white" stroke="black" points="2082.65,-581 2082.65,-601 2155.35,-601 2155.35,-581 2082.65,-581"/>
<text text-anchor="middle" x="2119" y="-587" font-family="Helvetica,sans-Serif" font-size="10.00">DoBlock.hpp</text>
</a>
</g>
</g>
<!-- Node4&#45;&gt;Node7 -->
<g id="edge6" class="edge"><title>Node4&#45;&gt;Node7</title>
<path fill="none" stroke="midnightblue" d="M1344.07,-647.409C1468.54,-645.439 1797.29,-637.054 2069,-602 2070.1,-601.858 2071.21,-601.707 2072.32,-601.547"/>
<polygon fill="midnightblue" stroke="midnightblue" points="2073.19,-604.952 2082.5,-599.904 2072.07,-598.042 2073.19,-604.952"/>
</g>
<!-- Node8 -->
<g id="node8" class="node"><title>Node8</title>
<g id="a_node8"><a xlink:href="_rexx_local_variables_8hpp.html" target="_top" xlink:title=" ">
<polygon fill="white" stroke="black" points="1901.45,-291 1901.45,-311 2024.55,-311 2024.55,-291 1901.45,-291"/>
<text text-anchor="middle" x="1963" y="-297" font-family="Helvetica,sans-Serif" font-size="10.00">RexxLocalVariables.hpp</text>
</a>
</g>
</g>
<!-- Node4&#45;&gt;Node8 -->
<g id="edge7" class="edge"><title>Node4&#45;&gt;Node8</title>
<path fill="none" stroke="midnightblue" d="M1343.99,-646.939C1525.62,-642.948 2131.87,-627.744 2164,-602 2188.49,-582.377 2183,-565.38 2183,-534 2183,-534 2183,-534 2183,-416 2183,-347.911 2098.9,-320.439 2034.69,-309.387"/>
<polygon fill="midnightblue" stroke="midnightblue" points="2035.01,-305.893 2024.57,-307.751 2033.89,-312.803 2035.01,-305.893"/>
</g>
<!-- Node31 -->
<g id="node16" class="node"><title>Node31</title>
<g id="a_node16"><a xlink:href="_rexx_date_time_8hpp.html" target="_top" xlink:title=" ">
<polygon fill="white" stroke="black" points="1242.39,-523 1242.39,-543 1343.61,-543 1343.61,-523 1242.39,-523"/>
<text text-anchor="middle" x="1293" y="-529" font-family="Helvetica,sans-Serif" font-size="10.00">RexxDateTime.hpp</text>
</a>
</g>
</g>
<!-- Node4&#45;&gt;Node31 -->
<g id="edge15" class="edge"><title>Node4&#45;&gt;Node31</title>
<path fill="none" stroke="midnightblue" d="M1293,-638.671C1293,-620.041 1293,-577.898 1293,-553.143"/>
<polygon fill="midnightblue" stroke="midnightblue" points="1296.5,-553.139 1293,-543.139 1289.5,-553.139 1296.5,-553.139"/>
</g>
<!-- Node72 -->
<g id="node40" class="node"><title>Node72</title>
<g id="a_node40"><a xlink:href="_rexx_code_8hpp.html" target="_top" xlink:title=" ">
<polygon fill="white" stroke="black" points="1135.92,-581 1135.92,-601 1218.08,-601 1218.08,-581 1135.92,-581"/>
<text text-anchor="middle" x="1177" y="-587" font-family="Helvetica,sans-Serif" font-size="10.00">RexxCode.hpp</text>
</a>
</g>
</g>
<!-- Node4&#45;&gt;Node72 -->
<g id="edge44" class="edge"><title>Node4&#45;&gt;Node72</title>
<path fill="none" stroke="midnightblue" d="M1274.1,-638.878C1255.4,-629.847 1226.53,-615.913 1205.13,-605.581"/>
<polygon fill="midnightblue" stroke="midnightblue" points="1206.41,-602.314 1195.89,-601.118 1203.37,-608.618 1206.41,-602.314"/>
</g>
<!-- Node70 -->
<g id="node38" class="node"><title>Node70</title>
<g id="a_node38"><a xlink:href="_activity_manager_8hpp.html" target="_top" xlink:title=" ">
<polygon fill="white" stroke="black" points="297.973,-349 297.973,-369 404.027,-369 404.027,-349 297.973,-349"/>
<text text-anchor="middle" x="351" y="-355" font-family="Helvetica,sans-Serif" font-size="10.00">ActivityManager.hpp</text>
</a>
</g>
</g>
<!-- Node4&#45;&gt;Node70 -->
<g id="edge66" class="edge"><title>Node4&#45;&gt;Node70</title>
<path fill="none" stroke="midnightblue" d="M1242.01,-647.034C1049.95,-642.73 381,-621.462 381,-534 381,-534 381,-534 381,-474 381,-439.372 367.894,-400.717 359.007,-378.486"/>
<polygon fill="midnightblue" stroke="midnightblue" points="362.237,-377.136 355.171,-369.241 355.771,-379.819 362.237,-377.136"/>
</g>
<!-- Node81 -->
<g id="node49" class="node"><title>Node81</title>
<g id="a_node49"><a xlink:href="_rexx_compound_tail_8hpp.html" target="_top" xlink:title=" ">
<polygon fill="white" stroke="black" points="748.914,-523 748.914,-543 871.086,-543 871.086,-523 748.914,-523"/>
<text text-anchor="middle" x="810" y="-529" font-family="Helvetica,sans-Serif" font-size="10.00">RexxCompoundTail.hpp</text>
</a>
</g>
</g>
<!-- Node4&#45;&gt;Node81 -->
<g id="edge67" class="edge"><title>Node4&#45;&gt;Node81</title>
<path fill="none" stroke="midnightblue" d="M1254.7,-638.959C1167.51,-618.381 954.376,-568.076 858.329,-545.407"/>
<polygon fill="midnightblue" stroke="midnightblue" points="858.844,-541.932 848.308,-543.042 857.236,-548.745 858.844,-541.932"/>
</g>
<!-- Node82 -->
<g id="node50" class="node"><title>Node82</title>
<g id="a_node50"><a xlink:href="_context_class_8hpp.html" target="_top" xlink:title=" ">
<polygon fill="white" stroke="black" points="2210.53,-581 2210.53,-601 2305.47,-601 2305.47,-581 2210.53,-581"/>
<text text-anchor="middle" x="2258" y="-587" font-family="Helvetica,sans-Serif" font-size="10.00">ContextClass.hpp</text>
</a>
</g>
</g>
<!-- Node4&#45;&gt;Node82 -->
<g id="edge69" class="edge"><title>Node4&#45;&gt;Node82</title>
<path fill="none" stroke="midnightblue" d="M1344.13,-647.396C1482.12,-645.333 1873.55,-636.632 2197,-602 2198.09,-601.883 2199.2,-601.759 2200.31,-601.629"/>
<polygon fill="midnightblue" stroke="midnightblue" points="2200.98,-605.072 2210.45,-600.321 2200.08,-598.129 2200.98,-605.072"/>
</g>
<!-- Node6 -->
<g id="node6" class="node"><title>Node6</title>
<g id="a_node6"><a xlink:href="_array_class_8hpp.html" target="_top" xlink:title=" ">
<polygon fill="white" stroke="black" points="288.82,-233 288.82,-253 373.18,-253 373.18,-233 288.82,-233"/>
<text text-anchor="middle" x="331" y="-239" font-family="Helvetica,sans-Serif" font-size="10.00">ArrayClass.hpp</text>
</a>
</g>
</g>
<!-- Node5&#45;&gt;Node6 -->
<g id="edge5" class="edge"><title>Node5&#45;&gt;Node6</title>
<path fill="none" stroke="midnightblue" d="M444.847,-290.878C422.52,-281.685 387.852,-267.409 362.635,-257.026"/>
<polygon fill="midnightblue" stroke="midnightblue" points="363.723,-253.689 353.144,-253.118 361.058,-260.162 363.723,-253.689"/>
</g>
<!-- Node9 -->
<g id="node9" class="node"><title>Node9</title>
<g id="a_node9"><a xlink:href="_rexx_variable_dictionary_8hpp.html" target="_top" xlink:title=" ">
<polygon fill="white" stroke="black" points="1894.04,-233 1894.04,-253 2031.96,-253 2031.96,-233 1894.04,-233"/>
<text text-anchor="middle" x="1963" y="-239" font-family="Helvetica,sans-Serif" font-size="10.00">RexxVariableDictionary.hpp</text>
</a>
</g>
</g>
<!-- Node8&#45;&gt;Node9 -->
<g id="edge8" class="edge"><title>Node8&#45;&gt;Node9</title>
<path fill="none" stroke="midnightblue" d="M1963,-290.753C1963,-283.25 1963,-272.424 1963,-263.078"/>
<polygon fill="midnightblue" stroke="midnightblue" points="1966.5,-263.075 1963,-253.075 1959.5,-263.075 1966.5,-263.075"/>
</g>
<!-- Node10 -->
<g id="node10" class="node"><title>Node10</title>
<g id="a_node10"><a xlink:href="_rexx_variable_8hpp.html" target="_top" xlink:title=" ">
<polygon fill="white" stroke="black" points="2022.9,-175 2022.9,-195 2117.1,-195 2117.1,-175 2022.9,-175"/>
<text text-anchor="middle" x="2070" y="-181" font-family="Helvetica,sans-Serif" font-size="10.00">RexxVariable.hpp</text>
</a>
</g>
</g>
<!-- Node9&#45;&gt;Node10 -->
<g id="edge9" class="edge"><title>Node9&#45;&gt;Node10</title>
<path fill="none" stroke="midnightblue" d="M1980.67,-232.753C1997.81,-223.783 2024.03,-210.06 2043.63,-199.799"/>
<polygon fill="midnightblue" stroke="midnightblue" points="2045.42,-202.813 2052.66,-195.075 2042.18,-196.611 2045.42,-202.813"/>
</g>
<!-- Node25 -->
<g id="node14" class="node"><title>Node25</title>
<g id="a_node14"><a xlink:href="_stem_class_8hpp.html" target="_top" xlink:title=" ">
<polygon fill="white" stroke="red" points="1921.1,-175 1921.1,-195 2004.9,-195 2004.9,-175 1921.1,-175"/>
<text text-anchor="middle" x="1963" y="-181" font-family="Helvetica,sans-Serif" font-size="10.00">StemClass.hpp</text>
</a>
</g>
</g>
<!-- Node9&#45;&gt;Node25 -->
<g id="edge13" class="edge"><title>Node9&#45;&gt;Node25</title>
<path fill="none" stroke="midnightblue" d="M1963,-232.753C1963,-225.25 1963,-214.424 1963,-205.078"/>
<polygon fill="midnightblue" stroke="midnightblue" points="1966.5,-205.075 1963,-195.075 1959.5,-205.075 1966.5,-205.075"/>
</g>
<!-- Node30 -->
<g id="node15" class="node"><title>Node30</title>
<g id="a_node15"><a xlink:href="_rexx_hash_table_8hpp.html" target="_top" xlink:title=" ">
<polygon fill="white" stroke="black" points="1797.25,-175 1797.25,-195 1902.75,-195 1902.75,-175 1797.25,-175"/>
<text text-anchor="middle" x="1850" y="-181" font-family="Helvetica,sans-Serif" font-size="10.00">RexxHashTable.hpp</text>
</a>
</g>
</g>
<!-- Node9&#45;&gt;Node30 -->
<g id="edge14" class="edge"><title>Node9&#45;&gt;Node30</title>
<path fill="none" stroke="midnightblue" d="M1944.59,-232.878C1926.37,-223.847 1898.25,-209.913 1877.4,-199.581"/>
<polygon fill="midnightblue" stroke="midnightblue" points="1878.91,-196.423 1868.4,-195.118 1875.8,-202.695 1878.91,-196.423"/>
</g>
<!-- Node11 -->
<g id="node11" class="node"><title>Node11</title>
<g id="a_node11"><a xlink:href="_string_class_8hpp.html" target="_top" xlink:title=" ">
<polygon fill="white" stroke="red" points="2028.7,-117 2028.7,-137 2115.3,-137 2115.3,-117 2028.7,-117"/>
<text text-anchor="middle" x="2072" y="-123" font-family="Helvetica,sans-Serif" font-size="10.00">StringClass.hpp</text>
</a>
</g>
</g>
<!-- Node10&#45;&gt;Node11 -->
<g id="edge10" class="edge"><title>Node10&#45;&gt;Node11</title>
<path fill="none" stroke="midnightblue" d="M2070.33,-174.753C2070.6,-167.25 2070.98,-156.424 2071.32,-147.078"/>
<polygon fill="midnightblue" stroke="midnightblue" points="2074.82,-147.194 2071.68,-137.075 2067.82,-146.944 2074.82,-147.194"/>
</g>
<!-- Node12 -->
<g id="node12" class="node"><title>Node12</title>
<g id="a_node12"><a xlink:href="_number_string_class_8hpp.html" target="_top" xlink:title=" ">
<polygon fill="white" stroke="red" points="2083.92,-59 2083.92,-79 2206.08,-79 2206.08,-59 2083.92,-59"/>
<text text-anchor="middle" x="2145" y="-65" font-family="Helvetica,sans-Serif" font-size="10.00">NumberStringClass.hpp</text>
</a>
</g>
</g>
<!-- Node11&#45;&gt;Node12 -->
<g id="edge11" class="edge"><title>Node11&#45;&gt;Node12</title>
<path fill="none" stroke="midnightblue" d="M2084.05,-116.753C2095.22,-108.19 2112.02,-95.2978 2125.16,-85.2186"/>
<polygon fill="midnightblue" stroke="midnightblue" points="2127.37,-87.9388 2133.17,-79.0752 2123.11,-82.3848 2127.37,-87.9388"/>
</g>
<!-- Node13 -->
<g id="node13" class="node"><title>Node13</title>
<g id="a_node13"><a xlink:href="_numerics_8hpp.html" target="_top" xlink:title=" ">
<polygon fill="white" stroke="black" points="2161.16,-1 2161.16,-21 2238.84,-21 2238.84,-1 2161.16,-1"/>
<text text-anchor="middle" x="2200" y="-7" font-family="Helvetica,sans-Serif" font-size="10.00">Numerics.hpp</text>
</a>
</g>
</g>
<!-- Node12&#45;&gt;Node13 -->
<g id="edge12" class="edge"><title>Node12&#45;&gt;Node13</title>
<path fill="none" stroke="midnightblue" d="M2154.08,-58.7527C2162.17,-50.5165 2174.2,-38.2738 2183.91,-28.3824"/>
<polygon fill="midnightblue" stroke="midnightblue" points="2186.58,-30.6622 2191.09,-21.0752 2181.58,-25.7572 2186.58,-30.6622"/>
</g>
<!-- Node32 -->
<g id="node17" class="node"><title>Node32</title>
<g id="a_node17"><a xlink:href="_rexx_core_8h.html" target="_top" xlink:title=" ">
<polygon fill="white" stroke="black" points="1219.6,-407 1219.6,-427 1288.4,-427 1288.4,-407 1219.6,-407"/>
<text text-anchor="middle" x="1254" y="-413" font-family="Helvetica,sans-Serif" font-size="10.00">RexxCore.h</text>
</a>
</g>
</g>
<!-- Node31&#45;&gt;Node32 -->
<g id="edge16" class="edge"><title>Node31&#45;&gt;Node32</title>
<path fill="none" stroke="midnightblue" d="M1289.81,-522.671C1283.41,-503.957 1268.89,-461.517 1260.43,-436.809"/>
<polygon fill="midnightblue" stroke="midnightblue" points="1263.68,-435.468 1257.13,-427.139 1257.05,-437.734 1263.68,-435.468"/>
</g>
<!-- Node33 -->
<g id="node18" class="node"><title>Node33</title>
<g id="a_node18"><a xlink:href="oorexxapi_8h.html" target="_top" xlink:title=" ">
<polygon fill="white" stroke="red" points="2011.15,-349 2011.15,-369 2078.85,-369 2078.85,-349 2011.15,-349"/>
<text text-anchor="middle" x="2045" y="-355" font-family="Helvetica,sans-Serif" font-size="10.00">oorexxapi.h</text>
</a>
</g>
</g>
<!-- Node32&#45;&gt;Node33 -->
<g id="edge17" class="edge"><title>Node32&#45;&gt;Node33</title>
<path fill="none" stroke="midnightblue" d="M1288.51,-415.921C1393.96,-415.25 1721.27,-409.969 2000.9,-369.928"/>
<polygon fill="midnightblue" stroke="midnightblue" points="2001.44,-373.388 2010.83,-368.489 2000.43,-366.46 2001.44,-373.388"/>
</g>
<!-- Node35 -->
<g id="node19" class="node"><title>Node35</title>
<g id="a_node19"><a xlink:title=" ">
<polygon fill="white" stroke="#bfbfbf" points="632.269,-349 632.269,-369 677.731,-369 677.731,-349 632.269,-349"/>
<text text-anchor="middle" x="655" y="-355" font-family="Helvetica,sans-Serif" font-size="10.00">stdio.h</text>
</a>
</g>
</g>
<!-- Node32&#45;&gt;Node35 -->
<g id="edge18" class="edge"><title>Node32&#45;&gt;Node35</title>
<path fill="none" stroke="midnightblue" d="M1219.45,-415.852C1131.81,-414.915 893.821,-408.864 688.001,-369.777"/>
<polygon fill="midnightblue" stroke="midnightblue" points="688.398,-366.289 677.915,-367.83 687.071,-373.162 688.398,-366.289"/>
</g>
<!-- Node24 -->
<g id="node20" class="node"><title>Node24</title>
<g id="a_node20"><a xlink:title=" ">
<polygon fill="white" stroke="#bfbfbf" points="695.934,-349 695.934,-369 748.066,-369 748.066,-349 695.934,-349"/>
<text text-anchor="middle" x="722" y="-355" font-family="Helvetica,sans-Serif" font-size="10.00">stdarg.h</text>
</a>
</g>
</g>
<!-- Node32&#45;&gt;Node24 -->
<g id="edge19" class="edge"><title>Node32&#45;&gt;Node24</title>
<path fill="none" stroke="midnightblue" d="M1219.35,-415.007C1139.49,-412.248 936.343,-402.539 758.317,-369.94"/>
<polygon fill="midnightblue" stroke="midnightblue" points="758.719,-366.455 748.248,-368.066 757.439,-373.337 758.719,-366.455"/>
</g>
<!-- Node36 -->
<g id="node21" class="node"><title>Node36</title>
<g id="a_node21"><a xlink:title=" ">
<polygon fill="white" stroke="#bfbfbf" points="1321.6,-349 1321.6,-369 1370.4,-369 1370.4,-349 1321.6,-349"/>
<text text-anchor="middle" x="1346" y="-355" font-family="Helvetica,sans-Serif" font-size="10.00">string.h</text>
</a>
</g>
</g>
<!-- Node32&#45;&gt;Node36 -->
<g id="edge20" class="edge"><title>Node32&#45;&gt;Node36</title>
<path fill="none" stroke="midnightblue" d="M1269.19,-406.753C1283.66,-397.946 1305.66,-384.558 1322.41,-374.362"/>
<polygon fill="midnightblue" stroke="midnightblue" points="1324.37,-377.264 1331.09,-369.075 1320.73,-371.285 1324.37,-377.264"/>
</g>
<!-- Node37 -->
<g id="node22" class="node"><title>Node37</title>
<g id="a_node22"><a xlink:title=" ">
<polygon fill="white" stroke="#bfbfbf" points="1388.88,-349 1388.88,-369 1437.12,-369 1437.12,-349 1388.88,-349"/>
<text text-anchor="middle" x="1413" y="-355" font-family="Helvetica,sans-Serif" font-size="10.00">ctype.h</text>
</a>
</g>
</g>
<!-- Node32&#45;&gt;Node37 -->
<g id="edge21" class="edge"><title>Node32&#45;&gt;Node37</title>
<path fill="none" stroke="midnightblue" d="M1279.9,-406.878C1306.94,-397.355 1349.46,-382.379 1379.14,-371.924"/>
<polygon fill="midnightblue" stroke="midnightblue" points="1380.41,-375.19 1388.68,-368.567 1378.08,-368.587 1380.41,-375.19"/>
</g>
<!-- Node38 -->
<g id="node23" class="node"><title>Node38</title>
<g id="a_node23"><a xlink:title=" ">
<polygon fill="white" stroke="#bfbfbf" points="1455.44,-349 1455.44,-369 1502.56,-369 1502.56,-349 1455.44,-349"/>
<text text-anchor="middle" x="1479" y="-355" font-family="Helvetica,sans-Serif" font-size="10.00">limits.h</text>
</a>
</g>
</g>
<!-- Node32&#45;&gt;Node38 -->
<g id="edge22" class="edge"><title>Node32&#45;&gt;Node38</title>
<path fill="none" stroke="midnightblue" d="M1288.49,-408.382C1325.09,-400.158 1384.79,-386.336 1445.51,-370.018"/>
<polygon fill="midnightblue" stroke="midnightblue" points="1446.52,-373.37 1455.26,-367.378 1444.69,-366.614 1446.52,-373.37"/>
</g>
<!-- Node39 -->
<g id="node24" class="node"><title>Node39</title>
<g id="a_node24"><a xlink:href="_rexx_platform_definitions_8h.html" target="_top" xlink:title=" ">
<polygon fill="white" stroke="red" points="1520.48,-349 1520.48,-369 1651.52,-369 1651.52,-349 1520.48,-349"/>
<text text-anchor="middle" x="1586" y="-355" font-family="Helvetica,sans-Serif" font-size="10.00">RexxPlatformDefinitions.h</text>
</a>
</g>
</g>
<!-- Node32&#45;&gt;Node39 -->
<g id="edge23" class="edge"><title>Node32&#45;&gt;Node39</title>
<path fill="none" stroke="midnightblue" d="M1288.59,-410.165C1343.84,-400.847 1452.83,-382.462 1522.42,-370.725"/>
<polygon fill="midnightblue" stroke="midnightblue" points="1523.11,-374.158 1532.39,-369.043 1521.94,-367.255 1523.11,-374.158"/>
</g>
<!-- Node42 -->
<g id="node25" class="node"><title>Node42</title>
<g id="a_node25"><a xlink:href="_rexx_constants_8hpp.html" target="_top" xlink:title=" ">
<polygon fill="white" stroke="black" points="1669.36,-349 1669.36,-369 1772.64,-369 1772.64,-349 1669.36,-349"/>
<text text-anchor="middle" x="1721" y="-355" font-family="Helvetica,sans-Serif" font-size="10.00">RexxConstants.hpp</text>
</a>
</g>
</g>
<!-- Node32&#45;&gt;Node42 -->
<g id="edge24" class="edge"><title>Node32&#45;&gt;Node42</title>
<path fill="none" stroke="midnightblue" d="M1288.56,-412.669C1357.07,-405.94 1515.17,-389.786 1658.8,-370.109"/>
<polygon fill="midnightblue" stroke="midnightblue" points="1659.68,-373.52 1669.11,-368.686 1658.73,-366.585 1659.68,-373.52"/>
</g>
<!-- Node43 -->
<g id="node26" class="node"><title>Node43</title>
<g id="a_node26"><a xlink:href="_class_type_codes_8h.html" target="_top" xlink:title=" ">
<polygon fill="white" stroke="black" points="1791.03,-349 1791.03,-369 1890.97,-369 1890.97,-349 1791.03,-349"/>
<text text-anchor="middle" x="1841" y="-355" font-family="Helvetica,sans-Serif" font-size="10.00">ClassTypeCodes.h</text>
</a>
</g>
</g>
<!-- Node32&#45;&gt;Node43 -->
<g id="edge25" class="edge"><title>Node32&#45;&gt;Node43</title>
<path fill="none" stroke="midnightblue" d="M1288.63,-413.917C1373.04,-408.634 1596.04,-393.449 1781,-370 1781.1,-369.987 1781.2,-369.974 1781.3,-369.961"/>
<polygon fill="midnightblue" stroke="midnightblue" points="1781.52,-373.465 1790.95,-368.641 1780.57,-366.529 1781.52,-373.465"/>
</g>
<!-- Node44 -->
<g id="node27" class="node"><title>Node44</title>
<g id="a_node27"><a xlink:href="_global_names_8h.html" target="_top" xlink:title=" ">
<polygon fill="white" stroke="black" points="1908.54,-349 1908.54,-369 1993.46,-369 1993.46,-349 1908.54,-349"/>
<text text-anchor="middle" x="1951" y="-355" font-family="Helvetica,sans-Serif" font-size="10.00">GlobalNames.h</text>
</a>
</g>
</g>
<!-- Node32&#45;&gt;Node44 -->
<g id="edge26" class="edge"><title>Node32&#45;&gt;Node44</title>
<path fill="none" stroke="midnightblue" d="M1288.41,-414.985C1383.71,-411.868 1659.25,-400.79 1898.57,-369.896"/>
<polygon fill="midnightblue" stroke="midnightblue" points="1899.04,-373.364 1908.5,-368.599 1898.13,-366.423 1899.04,-373.364"/>
</g>
<!-- Node45 -->
<g id="node28" class="node"><title>Node45</title>
<g id="a_node28"><a xlink:href="_object_class_8hpp.html" target="_top" xlink:title=" ">
<polygon fill="white" stroke="black" points="2211.32,-349 2211.32,-369 2300.68,-369 2300.68,-349 2211.32,-349"/>
<text text-anchor="middle" x="2256" y="-355" font-family="Helvetica,sans-Serif" font-size="10.00">ObjectClass.hpp</text>
</a>
</g>
</g>
<!-- Node32&#45;&gt;Node45 -->
<g id="edge27" class="edge"><title>Node32&#45;&gt;Node45</title>
<path fill="none" stroke="midnightblue" d="M1288.56,-414.89C1408.84,-410.891 1820.19,-396.058 2159,-370 2172.59,-368.955 2187.22,-367.579 2200.89,-366.183"/>
<polygon fill="midnightblue" stroke="midnightblue" points="2201.55,-369.634 2211.13,-365.117 2200.82,-362.671 2201.55,-369.634"/>
</g>
<!-- Node47 -->
<g id="node30" class="node"><title>Node47</title>
<g id="a_node30"><a xlink:href="_table_class_8hpp.html" target="_top" xlink:title=" ">
<polygon fill="white" stroke="red" points="765.813,-349 765.813,-369 850.187,-369 850.187,-349 765.813,-349"/>
<text text-anchor="middle" x="808" y="-355" font-family="Helvetica,sans-Serif" font-size="10.00">TableClass.hpp</text>
</a>
</g>
</g>
<!-- Node32&#45;&gt;Node47 -->
<g id="edge30" class="edge"><title>Node32&#45;&gt;Node47</title>
<path fill="none" stroke="midnightblue" d="M1219.54,-412.895C1152.37,-406.649 999.085,-391.436 860.228,-370.095"/>
<polygon fill="midnightblue" stroke="midnightblue" points="860.675,-366.623 850.256,-368.548 859.601,-373.54 860.675,-366.623"/>
</g>
<!-- Node49 -->
<g id="node31" class="node"><title>Node49</title>
<g id="a_node31"><a xlink:href="_stack_class_8hpp.html" target="_top" xlink:title=" ">
<polygon fill="white" stroke="black" points="529.261,-349 529.261,-369 614.739,-369 614.739,-349 529.261,-349"/>
<text text-anchor="middle" x="572" y="-355" font-family="Helvetica,sans-Serif" font-size="10.00">StackClass.hpp</text>
</a>
</g>
</g>
<!-- Node32&#45;&gt;Node49 -->
<g id="edge31" class="edge"><title>Node32&#45;&gt;Node49</title>
<path fill="none" stroke="midnightblue" d="M1219.31,-414.943C1125.17,-411.763 856.912,-400.626 624.77,-370.107"/>
<polygon fill="midnightblue" stroke="midnightblue" points="625.164,-366.629 614.79,-368.78 624.242,-373.567 625.164,-366.629"/>
</g>
<!-- Node50 -->
<g id="node32" class="node"><title>Node50</title>
<g id="a_node32"><a xlink:href="_rexx_memory_8hpp.html" target="_top" xlink:title=" ">
<polygon fill="white" stroke="red" points="868.189,-349 868.189,-369 961.811,-369 961.811,-349 868.189,-349"/>
<text text-anchor="middle" x="915" y="-355" font-family="Helvetica,sans-Serif" font-size="10.00">RexxMemory.hpp</text>
</a>
</g>
</g>
<!-- Node32&#45;&gt;Node50 -->
<g id="edge32" class="edge"><title>Node32&#45;&gt;Node50</title>
<path fill="none" stroke="midnightblue" d="M1219.56,-410.579C1168.07,-402.436 1067.71,-386.416 972.168,-370.18"/>
<polygon fill="midnightblue" stroke="midnightblue" points="972.49,-366.684 962.044,-368.456 971.315,-373.585 972.49,-366.684"/>
</g>
<!-- Node57 -->
<g id="node33" class="node"><title>Node57</title>
<g id="a_node33"><a xlink:href="_rexx_behaviour_8hpp.html" target="_top" xlink:title=" ">
<polygon fill="white" stroke="red" points="979.636,-349 979.636,-369 1082.36,-369 1082.36,-349 979.636,-349"/>
<text text-anchor="middle" x="1031" y="-355" font-family="Helvetica,sans-Serif" font-size="10.00">RexxBehaviour.hpp</text>
</a>
</g>
</g>
<!-- Node32&#45;&gt;Node57 -->
<g id="edge33" class="edge"><title>Node32&#45;&gt;Node57</title>
<path fill="none" stroke="midnightblue" d="M1219.16,-407.25C1180.83,-397.624 1119.07,-382.116 1076.84,-371.51"/>
<polygon fill="midnightblue" stroke="midnightblue" points="1077.63,-368.101 1067.08,-369.06 1075.92,-374.89 1077.63,-368.101"/>
</g>
<!-- Node59 -->
<g id="node34" class="node"><title>Node59</title>
<g id="a_node34"><a xlink:href="_class_class_8hpp.html" target="_top" xlink:title=" ">
<polygon fill="white" stroke="black" points="1100.26,-349 1100.26,-369 1185.74,-369 1185.74,-349 1100.26,-349"/>
<text text-anchor="middle" x="1143" y="-355" font-family="Helvetica,sans-Serif" font-size="10.00">ClassClass.hpp</text>
</a>
</g>
</g>
<!-- Node32&#45;&gt;Node59 -->
<g id="edge34" class="edge"><title>Node32&#45;&gt;Node59</title>
<path fill="none" stroke="midnightblue" d="M1235.67,-406.753C1217.81,-397.742 1190.44,-383.935 1170.07,-373.659"/>
<polygon fill="midnightblue" stroke="midnightblue" points="1171.49,-370.455 1160.99,-369.075 1168.34,-376.704 1171.49,-370.455"/>
</g>
<!-- Node60 -->
<g id="node35" class="node"><title>Node60</title>
<g id="a_node35"><a xlink:href="_rexx_envelope_8hpp.html" target="_top" xlink:title=" ">
<polygon fill="white" stroke="black" points="1204.03,-349 1204.03,-369 1303.97,-369 1303.97,-349 1204.03,-349"/>
<text text-anchor="middle" x="1254" y="-355" font-family="Helvetica,sans-Serif" font-size="10.00">RexxEnvelope.hpp</text>
</a>
</g>
</g>
<!-- Node32&#45;&gt;Node60 -->
<g id="edge35" class="edge"><title>Node32&#45;&gt;Node60</title>
<path fill="none" stroke="midnightblue" d="M1254,-406.753C1254,-399.25 1254,-388.424 1254,-379.078"/>
<polygon fill="midnightblue" stroke="midnightblue" points="1257.5,-379.075 1254,-369.075 1250.5,-379.075 1257.5,-379.075"/>
</g>
<!-- Node61 -->
<g id="node36" class="node"><title>Node61</title>
<g id="a_node36"><a xlink:href="_rexx_activity_8hpp.html" target="_top" xlink:title=" ">
<polygon fill="white" stroke="red" points="422.411,-349 422.411,-369 511.589,-369 511.589,-349 422.411,-349"/>
<text text-anchor="middle" x="467" y="-355" font-family="Helvetica,sans-Serif" font-size="10.00">RexxActivity.hpp</text>
</a>
</g>
</g>
<!-- Node32&#45;&gt;Node61 -->
<g id="edge36" class="edge"><title>Node32&#45;&gt;Node61</title>
<path fill="none" stroke="midnightblue" d="M1219.46,-415.354C1115.44,-413.087 795.884,-403.775 521.894,-370.108"/>
<polygon fill="midnightblue" stroke="midnightblue" points="522.113,-366.608 511.758,-368.848 521.25,-373.555 522.113,-366.608"/>
</g>
<!-- Node32&#45;&gt;Node12 -->
<g id="edge41" class="edge"><title>Node32&#45;&gt;Node12</title>
<path fill="none" stroke="midnightblue" d="M1288.6,-415.688C1436.91,-414.135 2014.68,-405.819 2087,-370 2122.6,-352.369 2145,-341.722 2145,-302 2145,-302 2145,-302 2145,-184 2145,-150.798 2145,-112.157 2145,-89.4623"/>
<polygon fill="midnightblue" stroke="midnightblue" points="2148.5,-89.1616 2145,-79.1617 2141.5,-89.1617 2148.5,-89.1616"/>
</g>
<!-- Node32&#45;&gt;Node70 -->
<g id="edge42" class="edge"><title>Node32&#45;&gt;Node70</title>
<path fill="none" stroke="midnightblue" d="M1219.45,-415.413C1105.77,-413.207 732.977,-403.789 414.409,-370.041"/>
<polygon fill="midnightblue" stroke="midnightblue" points="414.366,-366.517 404.05,-368.933 413.621,-373.477 414.366,-366.517"/>
</g>
<!-- Node45&#45;&gt;Node13 -->
<g id="edge28" class="edge"><title>Node45&#45;&gt;Node13</title>
<path fill="none" stroke="midnightblue" d="M2256,-348.838C2256,-329.48 2256,-282.99 2256,-244 2256,-244 2256,-244 2256,-126 2256,-88.3761 2231.12,-50.2632 2214.53,-29.0267"/>
<polygon fill="midnightblue" stroke="midnightblue" points="2217.04,-26.5681 2208.02,-21.0093 2211.61,-30.9794 2217.04,-26.5681"/>
</g>
<!-- Node46 -->
<g id="node29" class="node"><title>Node46</title>
<g id="a_node29"><a xlink:title=" ">
<polygon fill="white" stroke="#bfbfbf" points="2176.21,-291 2176.21,-311 2227.79,-311 2227.79,-291 2176.21,-291"/>
<text text-anchor="middle" x="2202" y="-297" font-family="Helvetica,sans-Serif" font-size="10.00">stddef.h</text>
</a>
</g>
</g>
<!-- Node45&#45;&gt;Node46 -->
<g id="edge29" class="edge"><title>Node45&#45;&gt;Node46</title>
<path fill="none" stroke="midnightblue" d="M2247.08,-348.753C2239.14,-340.516 2227.34,-328.274 2217.8,-318.382"/>
<polygon fill="midnightblue" stroke="midnightblue" points="2220.21,-315.844 2210.75,-311.075 2215.17,-320.703 2220.21,-315.844"/>
</g>
<!-- Node62 -->
<g id="node37" class="node"><title>Node62</title>
<g id="a_node37"><a xlink:href="_list_class_8hpp.html" target="_top" xlink:title=" ">
<polygon fill="white" stroke="red" points="231.985,-291 231.985,-311 308.015,-311 308.015,-291 231.985,-291"/>
<text text-anchor="middle" x="270" y="-297" font-family="Helvetica,sans-Serif" font-size="10.00">ListClass.hpp</text>
</a>
</g>
</g>
<!-- Node61&#45;&gt;Node62 -->
<g id="edge37" class="edge"><title>Node61&#45;&gt;Node62</title>
<path fill="none" stroke="midnightblue" d="M434.91,-348.878C401.325,-339.331 348.46,-324.303 311.671,-313.845"/>
<polygon fill="midnightblue" stroke="midnightblue" points="312.326,-310.393 301.75,-311.025 310.412,-317.126 312.326,-310.393"/>
</g>
<!-- Node61&#45;&gt;Node5 -->
<g id="edge38" class="edge"><title>Node61&#45;&gt;Node5</title>
<path fill="none" stroke="midnightblue" d="M467,-348.753C467,-341.25 467,-330.424 467,-321.078"/>
<polygon fill="midnightblue" stroke="midnightblue" points="470.5,-321.075 467,-311.075 463.5,-321.075 470.5,-321.075"/>
</g>
<!-- Node61&#45;&gt;Node8 -->
<g id="edge39" class="edge"><title>Node61&#45;&gt;Node8</title>
<path fill="none" stroke="midnightblue" d="M511.747,-349.054C514.533,-348.653 517.301,-348.296 520,-348 790.171,-318.386 1638.17,-305.935 1891.1,-302.82"/>
<polygon fill="midnightblue" stroke="midnightblue" points="1891.31,-306.318 1901.27,-302.696 1891.23,-299.318 1891.31,-306.318"/>
</g>
<!-- Node61&#45;&gt;Node3 -->
<g id="edge40" class="edge"><title>Node61&#45;&gt;Node3</title>
<path fill="none" stroke="midnightblue" d="M422.234,-349.573C419.112,-349.027 416.01,-348.498 413,-348 325.256,-333.495 223.395,-319.106 159.564,-310.383"/>
<polygon fill="midnightblue" stroke="midnightblue" points="160.035,-306.915 149.654,-309.032 159.09,-313.851 160.035,-306.915"/>
</g>
<!-- Node71 -->
<g id="node39" class="node"><title>Node71</title>
<g id="a_node39"><a xlink:title=" ">
<polygon fill="white" stroke="#bfbfbf" points="329.096,-291 329.096,-311 372.904,-311 372.904,-291 329.096,-291"/>
<text text-anchor="middle" x="351" y="-297" font-family="Helvetica,sans-Serif" font-size="10.00">deque</text>
</a>
</g>
</g>
<!-- Node70&#45;&gt;Node71 -->
<g id="edge43" class="edge"><title>Node70&#45;&gt;Node71</title>
<path fill="none" stroke="midnightblue" d="M351,-348.753C351,-341.25 351,-330.424 351,-321.078"/>
<polygon fill="midnightblue" stroke="midnightblue" points="354.5,-321.075 351,-311.075 347.5,-321.075 354.5,-321.075"/>
</g>
<!-- Node73 -->
<g id="node41" class="node"><title>Node73</title>
<g id="a_node41"><a xlink:href="_source_file_8hpp.html" target="_top" xlink:title=" ">
<polygon fill="white" stroke="black" points="226.37,-523 226.37,-543 309.63,-543 309.63,-523 226.37,-523"/>
<text text-anchor="middle" x="268" y="-529" font-family="Helvetica,sans-Serif" font-size="10.00">SourceFile.hpp</text>
</a>
</g>
</g>
<!-- Node72&#45;&gt;Node73 -->
<g id="edge45" class="edge"><title>Node72&#45;&gt;Node73</title>
<path fill="none" stroke="midnightblue" d="M1135.88,-587.467C988.097,-578.362 484.001,-547.307 320.01,-537.204"/>
<polygon fill="midnightblue" stroke="midnightblue" points="319.904,-533.691 309.708,-536.569 319.474,-540.678 319.904,-533.691"/>
</g>
<!-- Node79 -->
<g id="node47" class="node"><title>Node79</title>
<g id="a_node47"><a xlink:href="_method_class_8hpp.html" target="_top" xlink:title=" ">
<polygon fill="white" stroke="black" points="1167.09,-465 1167.09,-485 1260.91,-485 1260.91,-465 1167.09,-465"/>
<text text-anchor="middle" x="1214" y="-471" font-family="Helvetica,sans-Serif" font-size="10.00">MethodClass.hpp</text>
</a>
</g>
</g>
<!-- Node72&#45;&gt;Node79 -->
<g id="edge62" class="edge"><title>Node72&#45;&gt;Node79</title>
<path fill="none" stroke="midnightblue" d="M1180.86,-580.935C1184.7,-571.728 1190.65,-557.013 1195,-544 1200.46,-527.672 1205.65,-508.792 1209.22,-495.075"/>
<polygon fill="midnightblue" stroke="midnightblue" points="1212.62,-495.884 1211.71,-485.329 1205.84,-494.15 1212.62,-495.884"/>
</g>
<!-- Node80 -->
<g id="node48" class="node"><title>Node80</title>
<g id="a_node48"><a xlink:href="_routine_class_8hpp.html" target="_top" xlink:title=" ">
<polygon fill="white" stroke="black" points="1091.53,-523 1091.53,-543 1186.47,-543 1186.47,-523 1091.53,-523"/>
<text text-anchor="middle" x="1139" y="-529" font-family="Helvetica,sans-Serif" font-size="10.00">RoutineClass.hpp</text>
</a>
</g>
</g>
<!-- Node72&#45;&gt;Node80 -->
<g id="edge64" class="edge"><title>Node72&#45;&gt;Node80</title>
<path fill="none" stroke="midnightblue" d="M1170.73,-580.753C1165.36,-572.843 1157.48,-561.237 1150.92,-551.568"/>
<polygon fill="midnightblue" stroke="midnightblue" points="1153.67,-549.385 1145.16,-543.075 1147.88,-553.315 1153.67,-549.385"/>
</g>
<!-- Node73&#45;&gt;Node3 -->
<g id="edge46" class="edge"><title>Node73&#45;&gt;Node3</title>
<path fill="none" stroke="midnightblue" d="M235.355,-522.926C212.086,-515.44 180.834,-503.236 157,-486 101.843,-446.113 80.7064,-433.807 57,-370 53.5947,-360.834 53.575,-357.158 57,-348 61.2261,-336.7 69.6204,-326.342 77.6327,-318.328"/>
<polygon fill="midnightblue" stroke="midnightblue" points="80.4127,-320.522 85.349,-311.147 75.644,-315.397 80.4127,-320.522"/>
</g>
<!-- Node73&#45;&gt;Node62 -->
<g id="edge47" class="edge"><title>Node73&#45;&gt;Node62</title>
<path fill="none" stroke="midnightblue" d="M263.475,-522.76C259.289,-513.661 253.369,-499.242 251,-486 240.331,-426.356 255.709,-354.684 264.535,-321.11"/>
<polygon fill="midnightblue" stroke="midnightblue" points="267.967,-321.826 267.23,-311.257 261.215,-319.98 267.967,-321.826"/>
</g>
<!-- Node74 -->
<g id="node42" class="node"><title>Node74</title>
<g id="a_node42"><a xlink:href="_queue_class_8hpp.html" target="_top" xlink:title=" ">
<polygon fill="white" stroke="black" points="259.754,-465 259.754,-485 350.246,-485 350.246,-465 259.754,-465"/>
<text text-anchor="middle" x="305" y="-471" font-family="Helvetica,sans-Serif" font-size="10.00">QueueClass.hpp</text>
</a>
</g>
</g>
<!-- Node73&#45;&gt;Node74 -->
<g id="edge48" class="edge"><title>Node73&#45;&gt;Node74</title>
<path fill="none" stroke="midnightblue" d="M274.11,-522.753C279.336,-514.843 287.004,-503.237 293.392,-493.568"/>
<polygon fill="midnightblue" stroke="midnightblue" points="296.411,-495.348 299.004,-485.075 290.571,-491.489 296.411,-495.348"/>
</g>
<!-- Node73&#45;&gt;Node49 -->
<g id="edge50" class="edge"><title>Node73&#45;&gt;Node49</title>
<path fill="none" stroke="midnightblue" d="M309.729,-529.849C375.357,-525.641 498.572,-514.138 531,-486 562.305,-458.836 569.854,-407.495 571.579,-379.464"/>
<polygon fill="midnightblue" stroke="midnightblue" points="575.082,-379.469 572.008,-369.33 568.088,-379.173 575.082,-379.469"/>
</g>
<!-- Node75 -->
<g id="node43" class="node"><title>Node75</title>
<g id="a_node43"><a xlink:href="_token_8hpp.html" target="_top" xlink:title=" ">
<polygon fill="white" stroke="black" points="65.9263,-349 65.9263,-369 128.074,-369 128.074,-349 65.9263,-349"/>
<text text-anchor="middle" x="97" y="-355" font-family="Helvetica,sans-Serif" font-size="10.00">Token.hpp</text>
</a>
</g>
</g>
<!-- Node73&#45;&gt;Node75 -->
<g id="edge51" class="edge"><title>Node73&#45;&gt;Node75</title>
<path fill="none" stroke="midnightblue" d="M248.946,-522.937C218.533,-507.548 158.99,-473.496 125,-428 113.918,-413.166 106.406,-393.315 101.975,-378.892"/>
<polygon fill="midnightblue" stroke="midnightblue" points="105.289,-377.751 99.1801,-369.095 98.5578,-379.671 105.289,-377.751"/>
</g>
<!-- Node76 -->
<g id="node44" class="node"><title>Node76</title>
<g id="a_node44"><a xlink:href="_clause_8hpp.html" target="_top" xlink:title=" ">
<polygon fill="white" stroke="black" points="133.705,-407 133.705,-427 200.295,-427 200.295,-407 133.705,-407"/>
<text text-anchor="middle" x="167" y="-413" font-family="Helvetica,sans-Serif" font-size="10.00">Clause.hpp</text>
</a>
</g>
</g>
<!-- Node73&#45;&gt;Node76 -->
<g id="edge53" class="edge"><title>Node73&#45;&gt;Node76</title>
<path fill="none" stroke="midnightblue" d="M256.722,-522.674C246.21,-513.743 230.343,-499.647 218,-486 203.384,-469.84 188.662,-449.699 178.818,-435.546"/>
<polygon fill="midnightblue" stroke="midnightblue" points="181.646,-433.481 173.105,-427.212 175.873,-437.439 181.646,-433.481"/>
</g>
<!-- Node77 -->
<g id="node45" class="node"><title>Node77</title>
<g id="a_node45"><a xlink:href="_security_manager_8hpp.html" target="_top" xlink:title=" ">
<polygon fill="white" stroke="black" points="411.747,-465 411.747,-485 522.253,-485 522.253,-465 411.747,-465"/>
<text text-anchor="middle" x="467" y="-471" font-family="Helvetica,sans-Serif" font-size="10.00">SecurityManager.hpp</text>
</a>
</g>
</g>
<!-- Node73&#45;&gt;Node77 -->
<g id="edge57" class="edge"><title>Node73&#45;&gt;Node77</title>
<path fill="none" stroke="midnightblue" d="M300.416,-522.878C334.341,-513.331 387.744,-498.303 424.906,-487.845"/>
<polygon fill="midnightblue" stroke="midnightblue" points="426.25,-491.103 434.928,-485.025 424.354,-484.365 426.25,-491.103"/>
</g>
<!-- Node74&#45;&gt;Node62 -->
<g id="edge49" class="edge"><title>Node74&#45;&gt;Node62</title>
<path fill="none" stroke="midnightblue" d="M303.118,-464.753C297.611,-437.688 281.441,-358.224 273.925,-321.286"/>
<polygon fill="midnightblue" stroke="midnightblue" points="277.315,-320.394 271.891,-311.293 270.455,-321.79 277.315,-320.394"/>
</g>
<!-- Node75&#45;&gt;Node3 -->
<g id="edge52" class="edge"><title>Node75&#45;&gt;Node3</title>
<path fill="none" stroke="midnightblue" d="M97,-348.753C97,-341.25 97,-330.424 97,-321.078"/>
<polygon fill="midnightblue" stroke="midnightblue" points="100.5,-321.075 97,-311.075 93.5001,-321.075 100.5,-321.075"/>
</g>
<!-- Node76&#45;&gt;Node3 -->
<g id="edge54" class="edge"><title>Node76&#45;&gt;Node3</title>
<path fill="none" stroke="midnightblue" d="M163.929,-406.764C159.222,-393.261 149.448,-367.609 137,-348 130.295,-337.437 121.252,-326.821 113.461,-318.452"/>
<polygon fill="midnightblue" stroke="midnightblue" points="115.942,-315.983 106.492,-311.193 110.893,-320.831 115.942,-315.983"/>
</g>
<!-- Node76&#45;&gt;Node6 -->
<g id="edge55" class="edge"><title>Node76&#45;&gt;Node6</title>
<path fill="none" stroke="midnightblue" d="M168.686,-406.757C173.303,-383.93 188.201,-324.261 223,-290 239.162,-274.088 261.682,-263.317 281.978,-256.225"/>
<polygon fill="midnightblue" stroke="midnightblue" points="283.312,-259.471 291.726,-253.032 281.133,-252.819 283.312,-259.471"/>
</g>
<!-- Node76&#45;&gt;Node75 -->
<g id="edge56" class="edge"><title>Node76&#45;&gt;Node75</title>
<path fill="none" stroke="midnightblue" d="M155.441,-406.753C144.84,-398.272 128.929,-385.543 116.384,-375.507"/>
<polygon fill="midnightblue" stroke="midnightblue" points="118.339,-372.589 108.344,-369.075 113.966,-378.055 118.339,-372.589"/>
</g>
<!-- Node77&#45;&gt;Node32 -->
<g id="edge58" class="edge"><title>Node77&#45;&gt;Node32</title>
<path fill="none" stroke="midnightblue" d="M522.34,-470.062C670.503,-459.52 1074.09,-430.802 1209.23,-421.186"/>
<polygon fill="midnightblue" stroke="midnightblue" points="1209.51,-424.675 1219.23,-420.474 1209.01,-417.693 1209.51,-424.675"/>
</g>
<!-- Node78 -->
<g id="node46" class="node"><title>Node78</title>
<g id="a_node46"><a xlink:href="_protected_object_8hpp.html" target="_top" xlink:title=" ">
<polygon fill="white" stroke="black" points="413.417,-407 413.417,-427 520.583,-427 520.583,-407 413.417,-407"/>
<text text-anchor="middle" x="467" y="-413" font-family="Helvetica,sans-Serif" font-size="10.00">ProtectedObject.hpp</text>
</a>
</g>
</g>
<!-- Node77&#45;&gt;Node78 -->
<g id="edge59" class="edge"><title>Node77&#45;&gt;Node78</title>
<path fill="none" stroke="midnightblue" d="M467,-464.753C467,-457.25 467,-446.424 467,-437.078"/>
<polygon fill="midnightblue" stroke="midnightblue" points="470.5,-437.075 467,-427.075 463.5,-437.075 470.5,-437.075"/>
</g>
<!-- Node78&#45;&gt;Node61 -->
<g id="edge60" class="edge"><title>Node78&#45;&gt;Node61</title>
<path fill="none" stroke="midnightblue" d="M467,-406.753C467,-399.25 467,-388.424 467,-379.078"/>
<polygon fill="midnightblue" stroke="midnightblue" points="470.5,-379.075 467,-369.075 463.5,-379.075 470.5,-379.075"/>
</g>
<!-- Node78&#45;&gt;Node70 -->
<g id="edge61" class="edge"><title>Node78&#45;&gt;Node70</title>
<path fill="none" stroke="midnightblue" d="M448.104,-406.878C429.398,-397.847 400.534,-383.913 379.132,-373.581"/>
<polygon fill="midnightblue" stroke="midnightblue" points="380.415,-370.314 369.887,-369.118 377.371,-376.618 380.415,-370.314"/>
</g>
<!-- Node79&#45;&gt;Node32 -->
<g id="edge63" class="edge"><title>Node79&#45;&gt;Node32</title>
<path fill="none" stroke="midnightblue" d="M1220.61,-464.753C1226.31,-456.761 1234.72,-444.998 1241.66,-435.27"/>
<polygon fill="midnightblue" stroke="midnightblue" points="1244.55,-437.247 1247.52,-427.075 1238.86,-433.178 1244.55,-437.247"/>
</g>
<!-- Node80&#45;&gt;Node79 -->
<g id="edge65" class="edge"><title>Node80&#45;&gt;Node79</title>
<path fill="none" stroke="midnightblue" d="M1151.38,-522.753C1162.85,-514.19 1180.12,-501.298 1193.62,-491.219"/>
<polygon fill="midnightblue" stroke="midnightblue" points="1195.93,-493.863 1201.85,-485.075 1191.74,-488.254 1195.93,-493.863"/>
</g>
<!-- Node81&#45;&gt;Node78 -->
<g id="edge68" class="edge"><title>Node81&#45;&gt;Node78</title>
<path fill="none" stroke="midnightblue" d="M782.799,-522.959C721.634,-502.631 573.192,-453.294 503.842,-430.245"/>
<polygon fill="midnightblue" stroke="midnightblue" points="504.798,-426.874 494.204,-427.042 502.59,-433.517 504.798,-426.874"/>
</g>
<!-- Node82&#45;&gt;Node45 -->
<g id="edge70" class="edge"><title>Node82&#45;&gt;Node45</title>
<path fill="none" stroke="midnightblue" d="M2257.92,-580.984C2257.63,-547.07 2256.58,-426.695 2256.17,-379.339"/>
<polygon fill="midnightblue" stroke="midnightblue" points="2259.67,-379.173 2256.08,-369.204 2252.67,-379.234 2259.67,-379.173"/>
</g>
</g>
</svg>
