<?xml version="1.0" encoding="UTF-8" standalone="no"?>
<!DOCTYPE svg PUBLIC "-//W3C//DTD SVG 1.1//EN"
 "http://www.w3.org/Graphics/SVG/1.1/DTD/svg11.dtd">
<!-- Generated by graphviz version 12.1.0 (20240811.2233)
 -->
<!-- Title: Numerics.cpp Pages: 1 -->
<svg width="2648pt" height="310pt"
 viewBox="0.00 0.00 2648.00 309.50" xmlns="http://www.w3.org/2000/svg" xmlns:xlink="http://www.w3.org/1999/xlink">
<g id="graph0" class="graph" transform="scale(1 1) rotate(0) translate(4 305.5)">
<title>Numerics.cpp</title>
<polygon fill="white" stroke="none" points="-4,4 -4,-305.5 2644,-305.5 2644,4 -4,4"/>
<!-- Node1 -->
<g id="node1" class="node">
<title>Node1</title>
<g id="a_node1"><a xlink:title=" ">
<polygon fill="#bfbfbf" stroke="black" points="2392.38,-281.75 2392.38,-301 2469.12,-301 2469.12,-281.75 2392.38,-281.75"/>
<text text-anchor="middle" x="2430.75" y="-287.5" font-family="Helvetica,sans-Serif" font-size="10.00">Numerics.cpp</text>
</a>
</g>
</g>
<!-- Node2 -->
<g id="node2" class="node">
<title>Node2</title>
<g id="a_node2"><a xlink:href="_rexx_core_8h.html" target="_top" xlink:title=" ">
<polygon fill="white" stroke="black" points="1572.5,-225.5 1572.5,-244.75 1641,-244.75 1641,-225.5 1572.5,-225.5"/>
<text text-anchor="middle" x="1606.75" y="-231.25" font-family="Helvetica,sans-Serif" font-size="10.00">RexxCore.h</text>
</a>
</g>
</g>
<!-- Node1&#45;&gt;Node2 -->
<g id="edge1" class="edge">
<title>Node1&#45;&gt;Node2</title>
<path fill="none" stroke="midnightblue" d="M2392.11,-287.83C2255.96,-278.87 1798.81,-248.77 1652.33,-239.13"/>
<polygon fill="midnightblue" stroke="midnightblue" points="1652.84,-235.65 1642.63,-238.49 1652.38,-242.64 1652.84,-235.65"/>
</g>
<!-- Node14 -->
<g id="node13" class="node">
<title>Node14</title>
<g id="a_node13"><a xlink:title=" ">
<polygon fill="white" stroke="#bfbfbf" points="0,-169.25 0,-188.5 47.5,-188.5 47.5,-169.25 0,-169.25"/>
<text text-anchor="middle" x="23.75" y="-175" font-family="Helvetica,sans-Serif" font-size="10.00">limits.h</text>
</a>
</g>
</g>
<!-- Node1&#45;&gt;Node14 -->
<g id="edge59" class="edge">
<title>Node1&#45;&gt;Node14</title>
<path fill="none" stroke="midnightblue" d="M2392.16,-289.93C2125.93,-286.66 557.78,-264.48 58.99,-188.93"/>
<polygon fill="midnightblue" stroke="midnightblue" points="59.68,-185.5 49.26,-187.42 58.6,-192.41 59.68,-185.5"/>
</g>
<!-- Node23 -->
<g id="node22" class="node">
<title>Node23</title>
<g id="a_node22"><a xlink:href="_numerics_8hpp.html" target="_top" xlink:title=" ">
<polygon fill="white" stroke="black" points="2428.38,-113 2428.38,-132.25 2505.12,-132.25 2505.12,-113 2428.38,-113"/>
<text text-anchor="middle" x="2466.75" y="-118.75" font-family="Helvetica,sans-Serif" font-size="10.00">Numerics.hpp</text>
</a>
</g>
</g>
<!-- Node1&#45;&gt;Node23 -->
<g id="edge55" class="edge">
<title>Node1&#45;&gt;Node23</title>
<path fill="none" stroke="midnightblue" d="M2431.52,-281.39C2433.39,-261.07 2438.86,-210.08 2449.75,-168.75 2452.02,-160.15 2455.33,-150.91 2458.43,-143.05"/>
<polygon fill="midnightblue" stroke="midnightblue" points="2461.65,-144.42 2462.23,-133.84 2455.18,-141.75 2461.65,-144.42"/>
</g>
<!-- Node51 -->
<g id="node46" class="node">
<title>Node51</title>
<g id="a_node46"><a xlink:href="_number_string_class_8hpp.html" target="_top" xlink:title=" ">
<polygon fill="white" stroke="black" points="2458.62,-169.25 2458.62,-188.5 2578.88,-188.5 2578.88,-169.25 2458.62,-169.25"/>
<text text-anchor="middle" x="2518.75" y="-175" font-family="Helvetica,sans-Serif" font-size="10.00">NumberStringClass.hpp</text>
</a>
</g>
</g>
<!-- Node1&#45;&gt;Node51 -->
<g id="edge56" class="edge">
<title>Node1&#45;&gt;Node51</title>
<path fill="none" stroke="midnightblue" d="M2437.95,-281.33C2452.53,-263.03 2485.75,-221.32 2504.74,-197.47"/>
<polygon fill="midnightblue" stroke="midnightblue" points="2507.26,-199.92 2510.75,-189.92 2501.78,-195.56 2507.26,-199.92"/>
</g>
<!-- Node53 -->
<g id="node50" class="node">
<title>Node53</title>
<g id="a_node50"><a xlink:href="_integer_class_8hpp.html" target="_top" xlink:title=" ">
<polygon fill="white" stroke="black" points="2496.62,-225.5 2496.62,-244.75 2586.88,-244.75 2586.88,-225.5 2496.62,-225.5"/>
<text text-anchor="middle" x="2541.75" y="-231.25" font-family="Helvetica,sans-Serif" font-size="10.00">IntegerClass.hpp</text>
</a>
</g>
</g>
<!-- Node1&#45;&gt;Node53 -->
<g id="edge57" class="edge">
<title>Node1&#45;&gt;Node53</title>
<path fill="none" stroke="midnightblue" d="M2449.33,-281.29C2466.7,-272.81 2492.89,-260 2512.97,-250.19"/>
<polygon fill="midnightblue" stroke="midnightblue" points="2514.3,-253.44 2521.75,-245.9 2511.23,-247.15 2514.3,-253.44"/>
</g>
<!-- Node3 -->
<g id="node3" class="node">
<title>Node3</title>
<g id="a_node3"><a xlink:href="oorexxapi_8h.html" target="_top" xlink:title=" ">
<polygon fill="white" stroke="black" points="970.62,-169.25 970.62,-188.5 1036.88,-188.5 1036.88,-169.25 970.62,-169.25"/>
<text text-anchor="middle" x="1003.75" y="-175" font-family="Helvetica,sans-Serif" font-size="10.00">oorexxapi.h</text>
</a>
</g>
</g>
<!-- Node2&#45;&gt;Node3 -->
<g id="edge2" class="edge">
<title>Node2&#45;&gt;Node3</title>
<path fill="none" stroke="midnightblue" d="M1572.16,-231.01C1468.98,-221.73 1163.33,-194.23 1048.25,-183.88"/>
<polygon fill="midnightblue" stroke="midnightblue" points="1048.86,-180.42 1038.59,-183.01 1048.23,-187.39 1048.86,-180.42"/>
</g>
<!-- Node10 -->
<g id="node9" class="node">
<title>Node10</title>
<g id="a_node9"><a xlink:title=" ">
<polygon fill="white" stroke="#bfbfbf" points="1446.12,-169.25 1446.12,-188.5 1491.38,-188.5 1491.38,-169.25 1446.12,-169.25"/>
<text text-anchor="middle" x="1468.75" y="-175" font-family="Helvetica,sans-Serif" font-size="10.00">stdio.h</text>
</a>
</g>
</g>
<!-- Node2&#45;&gt;Node10 -->
<g id="edge8" class="edge">
<title>Node2&#45;&gt;Node10</title>
<path fill="none" stroke="midnightblue" d="M1583.65,-225.04C1561.33,-216.27 1527.27,-202.88 1502.03,-192.96"/>
<polygon fill="midnightblue" stroke="midnightblue" points="1503.46,-189.76 1492.87,-189.36 1500.9,-196.27 1503.46,-189.76"/>
</g>
<!-- Node11 -->
<g id="node10" class="node">
<title>Node11</title>
<g id="a_node10"><a xlink:title=" ">
<polygon fill="white" stroke="#bfbfbf" points="2142.12,-169.25 2142.12,-188.5 2193.38,-188.5 2193.38,-169.25 2142.12,-169.25"/>
<text text-anchor="middle" x="2167.75" y="-175" font-family="Helvetica,sans-Serif" font-size="10.00">stdarg.h</text>
</a>
</g>
</g>
<!-- Node2&#45;&gt;Node11 -->
<g id="edge9" class="edge">
<title>Node2&#45;&gt;Node11</title>
<path fill="none" stroke="midnightblue" d="M1641.47,-233.18C1724.42,-230.49 1940.71,-220.92 2130.55,-189.08"/>
<polygon fill="midnightblue" stroke="midnightblue" points="2131.1,-192.53 2140.37,-187.4 2129.92,-185.63 2131.1,-192.53"/>
</g>
<!-- Node12 -->
<g id="node11" class="node">
<title>Node12</title>
<g id="a_node11"><a xlink:title=" ">
<polygon fill="white" stroke="#bfbfbf" points="2211.62,-169.25 2211.62,-188.5 2259.88,-188.5 2259.88,-169.25 2211.62,-169.25"/>
<text text-anchor="middle" x="2235.75" y="-175" font-family="Helvetica,sans-Serif" font-size="10.00">string.h</text>
</a>
</g>
</g>
<!-- Node2&#45;&gt;Node12 -->
<g id="edge10" class="edge">
<title>Node2&#45;&gt;Node12</title>
<path fill="none" stroke="midnightblue" d="M1641.3,-233.85C1731.74,-232.62 1982.87,-226.05 2200.06,-189.14"/>
<polygon fill="midnightblue" stroke="midnightblue" points="2200.61,-192.6 2209.87,-187.44 2199.42,-185.7 2200.61,-192.6"/>
</g>
<!-- Node13 -->
<g id="node12" class="node">
<title>Node13</title>
<g id="a_node12"><a xlink:title=" ">
<polygon fill="white" stroke="#bfbfbf" points="2277.62,-169.25 2277.62,-188.5 2325.88,-188.5 2325.88,-169.25 2277.62,-169.25"/>
<text text-anchor="middle" x="2301.75" y="-175" font-family="Helvetica,sans-Serif" font-size="10.00">ctype.h</text>
</a>
</g>
</g>
<!-- Node2&#45;&gt;Node13 -->
<g id="edge11" class="edge">
<title>Node2&#45;&gt;Node13</title>
<path fill="none" stroke="midnightblue" d="M1641.5,-234.21C1738.87,-233.94 2022.65,-229.61 2266.17,-189.1"/>
<polygon fill="midnightblue" stroke="midnightblue" points="2266.6,-192.58 2275.87,-187.46 2265.43,-185.68 2266.6,-192.58"/>
</g>
<!-- Node2&#45;&gt;Node14 -->
<g id="edge12" class="edge">
<title>Node2&#45;&gt;Node14</title>
<path fill="none" stroke="midnightblue" d="M1572.16,-233.62C1361.87,-230.47 257.7,-212.97 59.03,-188.76"/>
<polygon fill="midnightblue" stroke="midnightblue" points="59.64,-185.31 49.26,-187.44 58.69,-192.25 59.64,-185.31"/>
</g>
<!-- Node15 -->
<g id="node14" class="node">
<title>Node15</title>
<g id="a_node14"><a xlink:title=" ">
<polygon fill="white" stroke="#bfbfbf" points="2344.38,-169.25 2344.38,-188.5 2403.12,-188.5 2403.12,-169.25 2344.38,-169.25"/>
<text text-anchor="middle" x="2373.75" y="-175" font-family="Helvetica,sans-Serif" font-size="10.00">stdexcept</text>
</a>
</g>
</g>
<!-- Node2&#45;&gt;Node15 -->
<g id="edge13" class="edge">
<title>Node2&#45;&gt;Node15</title>
<path fill="none" stroke="midnightblue" d="M1641.45,-234.03C1745.05,-233.33 2061.27,-228.03 2332.77,-189.01"/>
<polygon fill="midnightblue" stroke="midnightblue" points="2333.15,-192.49 2342.54,-187.59 2332.14,-185.57 2333.15,-192.49"/>
</g>
<!-- Node16 -->
<g id="node15" class="node">
<title>Node16</title>
<g id="a_node15"><a xlink:href="_rexx_platform_definitions_8h.html" target="_top" xlink:title=" ">
<polygon fill="white" stroke="black" points="65.38,-169.25 65.38,-188.5 196.12,-188.5 196.12,-169.25 65.38,-169.25"/>
<text text-anchor="middle" x="130.75" y="-175" font-family="Helvetica,sans-Serif" font-size="10.00">RexxPlatformDefinitions.h</text>
</a>
</g>
</g>
<!-- Node2&#45;&gt;Node16 -->
<g id="edge14" class="edge">
<title>Node2&#45;&gt;Node16</title>
<path fill="none" stroke="midnightblue" d="M1572,-234.16C1415.2,-234.1 757.69,-231.24 207.83,-189.17"/>
<polygon fill="midnightblue" stroke="midnightblue" points="208.23,-185.69 198,-188.41 207.7,-192.67 208.23,-185.69"/>
</g>
<!-- Node19 -->
<g id="node18" class="node">
<title>Node19</title>
<g id="a_node18"><a xlink:href="_rexx_constants_8hpp.html" target="_top" xlink:title=" ">
<polygon fill="white" stroke="black" points="214.25,-169.25 214.25,-188.5 317.25,-188.5 317.25,-169.25 214.25,-169.25"/>
<text text-anchor="middle" x="265.75" y="-175" font-family="Helvetica,sans-Serif" font-size="10.00">RexxConstants.hpp</text>
</a>
</g>
</g>
<!-- Node2&#45;&gt;Node19 -->
<g id="edge17" class="edge">
<title>Node2&#45;&gt;Node19</title>
<path fill="none" stroke="midnightblue" d="M1572.19,-234.19C1423.39,-234.22 822.73,-231.52 331.75,-189 330.74,-188.91 329.73,-188.82 328.7,-188.72"/>
<polygon fill="midnightblue" stroke="midnightblue" points="329.39,-185.28 319.08,-187.71 328.66,-192.24 329.39,-185.28"/>
</g>
<!-- Node20 -->
<g id="node19" class="node">
<title>Node20</title>
<g id="a_node19"><a xlink:href="_class_type_codes_8h.html" target="_top" xlink:title=" ">
<polygon fill="white" stroke="black" points="536.12,-56.75 536.12,-76 635.38,-76 635.38,-56.75 536.12,-56.75"/>
<text text-anchor="middle" x="585.75" y="-62.5" font-family="Helvetica,sans-Serif" font-size="10.00">ClassTypeCodes.h</text>
</a>
</g>
</g>
<!-- Node2&#45;&gt;Node20 -->
<g id="edge18" class="edge">
<title>Node2&#45;&gt;Node20</title>
<path fill="none" stroke="midnightblue" d="M1572.21,-234.11C1382.99,-233.66 477.81,-226.58 402.75,-132.75 367.09,-88.17 458.52,-73.96 524.62,-69.45"/>
<polygon fill="midnightblue" stroke="midnightblue" points="524.53,-72.96 534.29,-68.85 524.1,-65.98 524.53,-72.96"/>
</g>
<!-- Node21 -->
<g id="node20" class="node">
<title>Node21</title>
<g id="a_node20"><a xlink:href="_global_names_8h.html" target="_top" xlink:title=" ">
<polygon fill="white" stroke="black" points="1122,-169.25 1122,-188.5 1205.5,-188.5 1205.5,-169.25 1122,-169.25"/>
<text text-anchor="middle" x="1163.75" y="-175" font-family="Helvetica,sans-Serif" font-size="10.00">GlobalNames.h</text>
</a>
</g>
</g>
<!-- Node2&#45;&gt;Node21 -->
<g id="edge19" class="edge">
<title>Node2&#45;&gt;Node21</title>
<path fill="none" stroke="midnightblue" d="M1572.05,-230.86C1505.36,-224.44 1354.47,-209.15 1216.89,-189.23"/>
<polygon fill="midnightblue" stroke="midnightblue" points="1217.64,-185.8 1207.24,-187.82 1216.63,-192.73 1217.64,-185.8"/>
</g>
<!-- Node22 -->
<g id="node21" class="node">
<title>Node22</title>
<g id="a_node21"><a xlink:href="_object_class_8hpp.html" target="_top" xlink:title=" ">
<polygon fill="white" stroke="black" points="2035.38,-169.25 2035.38,-188.5 2124.12,-188.5 2124.12,-169.25 2035.38,-169.25"/>
<text text-anchor="middle" x="2079.75" y="-175" font-family="Helvetica,sans-Serif" font-size="10.00">ObjectClass.hpp</text>
</a>
</g>
</g>
<!-- Node2&#45;&gt;Node22 -->
<g id="edge20" class="edge">
<title>Node2&#45;&gt;Node22</title>
<path fill="none" stroke="midnightblue" d="M1641.33,-231.11C1711.37,-224.85 1875.26,-209.44 2023.87,-189.18"/>
<polygon fill="midnightblue" stroke="midnightblue" points="2024.06,-192.69 2033.49,-187.86 2023.11,-185.75 2024.06,-192.69"/>
</g>
<!-- Node25 -->
<g id="node24" class="node">
<title>Node25</title>
<g id="a_node24"><a xlink:href="_table_class_8hpp.html" target="_top" xlink:title=" ">
<polygon fill="white" stroke="black" points="366,-56.75 366,-76 449.5,-76 449.5,-56.75 366,-56.75"/>
<text text-anchor="middle" x="407.75" y="-62.5" font-family="Helvetica,sans-Serif" font-size="10.00">TableClass.hpp</text>
</a>
</g>
</g>
<!-- Node2&#45;&gt;Node25 -->
<g id="edge23" class="edge">
<title>Node2&#45;&gt;Node25</title>
<path fill="none" stroke="midnightblue" d="M1572.02,-233.68C1395.05,-231.27 597.76,-218.83 491.75,-189 442.29,-175.08 416.78,-177.05 390.75,-132.75 382.31,-118.39 388.47,-99.84 395.62,-86.17"/>
<polygon fill="midnightblue" stroke="midnightblue" points="398.53,-88.13 400.55,-77.73 392.49,-84.6 398.53,-88.13"/>
</g>
<!-- Node28 -->
<g id="node26" class="node">
<title>Node28</title>
<g id="a_node26"><a xlink:href="_stack_class_8hpp.html" target="_top" xlink:title=" ">
<polygon fill="white" stroke="black" points="1223.88,-169.25 1223.88,-188.5 1309.62,-188.5 1309.62,-169.25 1223.88,-169.25"/>
<text text-anchor="middle" x="1266.75" y="-175" font-family="Helvetica,sans-Serif" font-size="10.00">StackClass.hpp</text>
</a>
</g>
</g>
<!-- Node2&#45;&gt;Node28 -->
<g id="edge25" class="edge">
<title>Node2&#45;&gt;Node28</title>
<path fill="none" stroke="midnightblue" d="M1572.14,-228.91C1520.03,-221.02 1418.05,-205.39 1321.06,-189.36"/>
<polygon fill="midnightblue" stroke="midnightblue" points="1321.8,-185.93 1311.36,-187.75 1320.66,-192.84 1321.8,-185.93"/>
</g>
<!-- Node29 -->
<g id="node27" class="node">
<title>Node29</title>
<g id="a_node27"><a xlink:href="_rexx_memory_8hpp.html" target="_top" xlink:title=" ">
<polygon fill="white" stroke="black" points="661.88,-169.25 661.88,-188.5 753.62,-188.5 753.62,-169.25 661.88,-169.25"/>
<text text-anchor="middle" x="707.75" y="-175" font-family="Helvetica,sans-Serif" font-size="10.00">RexxMemory.hpp</text>
</a>
</g>
</g>
<!-- Node2&#45;&gt;Node29 -->
<g id="edge26" class="edge">
<title>Node2&#45;&gt;Node29</title>
<path fill="none" stroke="midnightblue" d="M1572.06,-232.03C1435.78,-223.81 936.25,-193.66 765.46,-183.36"/>
<polygon fill="midnightblue" stroke="midnightblue" points="765.68,-179.86 755.48,-182.76 765.26,-186.85 765.68,-179.86"/>
</g>
<!-- Node36 -->
<g id="node32" class="node">
<title>Node36</title>
<g id="a_node32"><a xlink:href="_rexx_behaviour_8hpp.html" target="_top" xlink:title=" ">
<polygon fill="white" stroke="black" points="1327.38,-169.25 1327.38,-188.5 1428.12,-188.5 1428.12,-169.25 1327.38,-169.25"/>
<text text-anchor="middle" x="1377.75" y="-175" font-family="Helvetica,sans-Serif" font-size="10.00">RexxBehaviour.hpp</text>
</a>
</g>
</g>
<!-- Node2&#45;&gt;Node36 -->
<g id="edge34" class="edge">
<title>Node2&#45;&gt;Node36</title>
<path fill="none" stroke="midnightblue" d="M1572.47,-226C1533.9,-216.87 1470.93,-201.95 1427.08,-191.56"/>
<polygon fill="midnightblue" stroke="midnightblue" points="1428.11,-188.21 1417.57,-189.31 1426.49,-195.02 1428.11,-188.21"/>
</g>
<!-- Node38 -->
<g id="node34" class="node">
<title>Node38</title>
<g id="a_node34"><a xlink:href="_class_class_8hpp.html" target="_top" xlink:title=" ">
<polygon fill="white" stroke="black" points="1616.88,-169.25 1616.88,-188.5 1702.62,-188.5 1702.62,-169.25 1616.88,-169.25"/>
<text text-anchor="middle" x="1659.75" y="-175" font-family="Helvetica,sans-Serif" font-size="10.00">ClassClass.hpp</text>
</a>
</g>
</g>
<!-- Node2&#45;&gt;Node38 -->
<g id="edge36" class="edge">
<title>Node2&#45;&gt;Node38</title>
<path fill="none" stroke="midnightblue" d="M1615.5,-225.17C1622.99,-217.5 1633.97,-206.26 1643.12,-196.89"/>
<polygon fill="midnightblue" stroke="midnightblue" points="1645.62,-199.35 1650.1,-189.75 1640.61,-194.46 1645.62,-199.35"/>
</g>
<!-- Node39 -->
<g id="node35" class="node">
<title>Node39</title>
<g id="a_node35"><a xlink:href="_rexx_envelope_8hpp.html" target="_top" xlink:title=" ">
<polygon fill="white" stroke="black" points="1720.5,-169.25 1720.5,-188.5 1819,-188.5 1819,-169.25 1720.5,-169.25"/>
<text text-anchor="middle" x="1769.75" y="-175" font-family="Helvetica,sans-Serif" font-size="10.00">RexxEnvelope.hpp</text>
</a>
</g>
</g>
<!-- Node2&#45;&gt;Node39 -->
<g id="edge37" class="edge">
<title>Node2&#45;&gt;Node39</title>
<path fill="none" stroke="midnightblue" d="M1634.03,-225.04C1660.71,-216.16 1701.58,-202.56 1731.5,-192.61"/>
<polygon fill="midnightblue" stroke="midnightblue" points="1732.56,-195.94 1740.94,-189.46 1730.35,-189.3 1732.56,-195.94"/>
</g>
<!-- Node40 -->
<g id="node36" class="node">
<title>Node40</title>
<g id="a_node36"><a xlink:href="_rexx_activity_8hpp.html" target="_top" xlink:title=" ">
<polygon fill="white" stroke="black" points="1509,-169.25 1509,-188.5 1598.5,-188.5 1598.5,-169.25 1509,-169.25"/>
<text text-anchor="middle" x="1553.75" y="-175" font-family="Helvetica,sans-Serif" font-size="10.00">RexxActivity.hpp</text>
</a>
</g>
</g>
<!-- Node2&#45;&gt;Node40 -->
<g id="edge38" class="edge">
<title>Node2&#45;&gt;Node40</title>
<path fill="none" stroke="midnightblue" d="M1598,-225.17C1590.51,-217.5 1579.53,-206.26 1570.38,-196.89"/>
<polygon fill="midnightblue" stroke="midnightblue" points="1572.89,-194.46 1563.4,-189.75 1567.88,-199.35 1572.89,-194.46"/>
</g>
<!-- Node2&#45;&gt;Node51 -->
<g id="edge50" class="edge">
<title>Node2&#45;&gt;Node51</title>
<path fill="none" stroke="midnightblue" d="M1641.3,-232.55C1752.87,-227.38 2113.64,-210.06 2411.75,-189 2423.17,-188.19 2435.26,-187.25 2447.05,-186.28"/>
<polygon fill="midnightblue" stroke="midnightblue" points="2447.04,-189.79 2456.72,-185.47 2446.46,-182.82 2447.04,-189.79"/>
</g>
<!-- Node67 -->
<g id="node48" class="node">
<title>Node67</title>
<g id="a_node48"><a xlink:href="_activity_manager_8hpp.html" target="_top" xlink:title=" ">
<polygon fill="white" stroke="black" points="1912.5,-169.25 1912.5,-188.5 2017,-188.5 2017,-169.25 1912.5,-169.25"/>
<text text-anchor="middle" x="1964.75" y="-175" font-family="Helvetica,sans-Serif" font-size="10.00">ActivityManager.hpp</text>
</a>
</g>
</g>
<!-- Node2&#45;&gt;Node67 -->
<g id="edge53" class="edge">
<title>Node2&#45;&gt;Node67</title>
<path fill="none" stroke="midnightblue" d="M1641.4,-228.87C1701.32,-219.79 1825.14,-201.03 1900.98,-189.54"/>
<polygon fill="midnightblue" stroke="midnightblue" points="1901.4,-193.01 1910.76,-188.06 1900.35,-186.09 1901.4,-193.01"/>
</g>
<!-- Node4 -->
<g id="node4" class="node">
<title>Node4</title>
<g id="a_node4"><a xlink:href="rexx_8h.html" target="_top" xlink:title=" ">
<polygon fill="white" stroke="red" points="776.25,-113 776.25,-132.25 819.25,-132.25 819.25,-113 776.25,-113"/>
<text text-anchor="middle" x="797.75" y="-118.75" font-family="Helvetica,sans-Serif" font-size="10.00">rexx.h</text>
</a>
</g>
</g>
<!-- Node3&#45;&gt;Node4 -->
<g id="edge3" class="edge">
<title>Node3&#45;&gt;Node4</title>
<path fill="none" stroke="midnightblue" d="M970.44,-169.64C937.37,-161.39 884.97,-148.11 830.63,-133.2"/>
<polygon fill="midnightblue" stroke="midnightblue" points="831.77,-129.88 821.2,-130.6 829.91,-136.63 831.77,-129.88"/>
</g>
<!-- Node9 -->
<g id="node8" class="node">
<title>Node9</title>
<g id="a_node8"><a xlink:href="oorexxerrors_8h.html" target="_top" xlink:title=" ">
<polygon fill="white" stroke="black" points="964.62,-113 964.62,-132.25 1042.88,-132.25 1042.88,-113 964.62,-113"/>
<text text-anchor="middle" x="1003.75" y="-118.75" font-family="Helvetica,sans-Serif" font-size="10.00">oorexxerrors.h</text>
</a>
</g>
</g>
<!-- Node3&#45;&gt;Node9 -->
<g id="edge7" class="edge">
<title>Node3&#45;&gt;Node9</title>
<path fill="none" stroke="midnightblue" d="M1003.75,-168.92C1003.75,-162.12 1003.75,-152.51 1003.75,-143.9"/>
<polygon fill="midnightblue" stroke="midnightblue" points="1007.25,-143.93 1003.75,-133.93 1000.25,-143.93 1007.25,-143.93"/>
</g>
<!-- Node5 -->
<g id="node5" class="node">
<title>Node5</title>
<g id="a_node5"><a xlink:title=" ">
<polygon fill="white" stroke="#bfbfbf" points="662.88,-56.75 662.88,-76 742.62,-76 742.62,-56.75 662.88,-56.75"/>
<text text-anchor="middle" x="702.75" y="-62.5" font-family="Helvetica,sans-Serif" font-size="10.00">rexxapitypes.h</text>
</a>
</g>
</g>
<!-- Node4&#45;&gt;Node5 -->
<g id="edge4" class="edge">
<title>Node4&#45;&gt;Node5</title>
<path fill="none" stroke="midnightblue" d="M782.06,-112.67C767.49,-104.34 745.51,-91.79 728.39,-82.02"/>
<polygon fill="midnightblue" stroke="midnightblue" points="730.19,-79.02 719.77,-77.1 726.72,-85.1 730.19,-79.02"/>
</g>
<!-- Node6 -->
<g id="node6" class="node">
<title>Node6</title>
<g id="a_node6"><a xlink:href="rexxapidefs_8h.html" target="_top" xlink:title=" ">
<polygon fill="white" stroke="black" points="760.5,-56.75 760.5,-76 835,-76 835,-56.75 760.5,-56.75"/>
<text text-anchor="middle" x="797.75" y="-62.5" font-family="Helvetica,sans-Serif" font-size="10.00">rexxapidefs.h</text>
</a>
</g>
</g>
<!-- Node4&#45;&gt;Node6 -->
<g id="edge5" class="edge">
<title>Node4&#45;&gt;Node6</title>
<path fill="none" stroke="midnightblue" d="M797.75,-112.67C797.75,-105.87 797.75,-96.26 797.75,-87.65"/>
<polygon fill="midnightblue" stroke="midnightblue" points="801.25,-87.68 797.75,-77.68 794.25,-87.68 801.25,-87.68"/>
</g>
<!-- Node7 -->
<g id="node7" class="node">
<title>Node7</title>
<g id="a_node7"><a xlink:title=" ">
<polygon fill="white" stroke="#bfbfbf" points="853.25,-56.75 853.25,-76 950.25,-76 950.25,-56.75 853.25,-56.75"/>
<text text-anchor="middle" x="901.75" y="-62.5" font-family="Helvetica,sans-Serif" font-size="10.00">rexxplatformdefs.h</text>
</a>
</g>
</g>
<!-- Node4&#45;&gt;Node7 -->
<g id="edge6" class="edge">
<title>Node4&#45;&gt;Node7</title>
<path fill="none" stroke="midnightblue" d="M814.92,-112.67C831.11,-104.22 855.62,-91.44 874.48,-81.6"/>
<polygon fill="midnightblue" stroke="midnightblue" points="875.96,-84.77 883.21,-77.05 872.72,-78.57 875.96,-84.77"/>
</g>
<!-- Node17 -->
<g id="node16" class="node">
<title>Node17</title>
<g id="a_node16"><a xlink:title=" ">
<polygon fill="white" stroke="#bfbfbf" points="17,-113 17,-132.25 124.5,-132.25 124.5,-113 17,-113"/>
<text text-anchor="middle" x="70.75" y="-118.75" font-family="Helvetica,sans-Serif" font-size="10.00">PlatformDefinitions.h</text>
</a>
</g>
</g>
<!-- Node16&#45;&gt;Node17 -->
<g id="edge15" class="edge">
<title>Node16&#45;&gt;Node17</title>
<path fill="none" stroke="midnightblue" d="M120.84,-168.92C112.19,-161.1 99.42,-149.55 88.94,-140.07"/>
<polygon fill="midnightblue" stroke="midnightblue" points="91.36,-137.54 81.6,-133.43 86.67,-142.73 91.36,-137.54"/>
</g>
<!-- Node18 -->
<g id="node17" class="node">
<title>Node18</title>
<g id="a_node17"><a xlink:href="_rexx_error_codes_8h.html" target="_top" xlink:title=" ">
<polygon fill="white" stroke="black" points="142.25,-113 142.25,-132.25 239.25,-132.25 239.25,-113 142.25,-113"/>
<text text-anchor="middle" x="190.75" y="-118.75" font-family="Helvetica,sans-Serif" font-size="10.00">RexxErrorCodes.h</text>
</a>
</g>
</g>
<!-- Node16&#45;&gt;Node18 -->
<g id="edge16" class="edge">
<title>Node16&#45;&gt;Node18</title>
<path fill="none" stroke="midnightblue" d="M140.66,-168.92C149.31,-161.1 162.08,-149.55 172.56,-140.07"/>
<polygon fill="midnightblue" stroke="midnightblue" points="174.83,-142.73 179.9,-133.43 170.14,-137.54 174.83,-142.73"/>
</g>
<!-- Node22&#45;&gt;Node23 -->
<g id="edge21" class="edge">
<title>Node22&#45;&gt;Node23</title>
<path fill="none" stroke="midnightblue" d="M2124.55,-170.02C2127.32,-169.58 2130.07,-169.15 2132.75,-168.75 2257.71,-150.03 2289.82,-151.67 2414.75,-132.75 2415.42,-132.65 2416.09,-132.55 2416.76,-132.44"/>
<polygon fill="midnightblue" stroke="midnightblue" points="2417.07,-135.94 2426.39,-130.89 2415.96,-129.03 2417.07,-135.94"/>
</g>
<!-- Node24 -->
<g id="node23" class="node">
<title>Node24</title>
<g id="a_node23"><a xlink:title=" ">
<polygon fill="white" stroke="#bfbfbf" points="1671.12,-56.75 1671.12,-76 1722.38,-76 1722.38,-56.75 1671.12,-56.75"/>
<text text-anchor="middle" x="1696.75" y="-62.5" font-family="Helvetica,sans-Serif" font-size="10.00">stddef.h</text>
</a>
</g>
</g>
<!-- Node22&#45;&gt;Node24 -->
<g id="edge22" class="edge">
<title>Node22&#45;&gt;Node24</title>
<path fill="none" stroke="midnightblue" d="M2124.56,-170.07C2127.33,-169.62 2130.08,-169.17 2132.75,-168.75 2244.81,-151.01 2459.29,-195.32 2381.75,-112.5 2337.32,-65.05 1871.13,-65.7 1734.3,-66.93"/>
<polygon fill="midnightblue" stroke="midnightblue" points="1734.31,-63.43 1724.35,-67.03 1734.38,-70.43 1734.31,-63.43"/>
</g>
<!-- Node26 -->
<g id="node25" class="node">
<title>Node26</title>
<g id="a_node25"><a xlink:href="_rexx_collection_8hpp.html" target="_top" xlink:title=" ">
<polygon fill="white" stroke="red" points="357,-0.5 357,-19.75 458.5,-19.75 458.5,-0.5 357,-0.5"/>
<text text-anchor="middle" x="407.75" y="-6.25" font-family="Helvetica,sans-Serif" font-size="10.00">RexxCollection.hpp</text>
</a>
</g>
</g>
<!-- Node25&#45;&gt;Node26 -->
<g id="edge24" class="edge">
<title>Node25&#45;&gt;Node26</title>
<path fill="none" stroke="midnightblue" d="M407.75,-56.42C407.75,-49.62 407.75,-40.01 407.75,-31.4"/>
<polygon fill="midnightblue" stroke="midnightblue" points="411.25,-31.43 407.75,-21.43 404.25,-31.43 411.25,-31.43"/>
</g>
<!-- Node30 -->
<g id="node28" class="node">
<title>Node30</title>
<g id="a_node28"><a xlink:title=" ">
<polygon fill="white" stroke="#bfbfbf" points="657,-113 657,-132.25 758.5,-132.25 758.5,-113 657,-113"/>
<text text-anchor="middle" x="707.75" y="-118.75" font-family="Helvetica,sans-Serif" font-size="10.00">SysSemaphore.hpp</text>
</a>
</g>
</g>
<!-- Node29&#45;&gt;Node30 -->
<g id="edge27" class="edge">
<title>Node29&#45;&gt;Node30</title>
<path fill="none" stroke="midnightblue" d="M707.75,-168.92C707.75,-162.12 707.75,-152.51 707.75,-143.9"/>
<polygon fill="midnightblue" stroke="midnightblue" points="711.25,-143.93 707.75,-133.93 704.25,-143.93 711.25,-143.93"/>
</g>
<!-- Node31 -->
<g id="node29" class="node">
<title>Node31</title>
<g id="a_node29"><a xlink:href="_identity_table_class_8hpp.html" target="_top" xlink:title=" ">
<polygon fill="white" stroke="black" points="411.88,-113 411.88,-132.25 527.62,-132.25 527.62,-113 411.88,-113"/>
<text text-anchor="middle" x="469.75" y="-118.75" font-family="Helvetica,sans-Serif" font-size="10.00">IdentityTableClass.hpp</text>
</a>
</g>
</g>
<!-- Node29&#45;&gt;Node31 -->
<g id="edge28" class="edge">
<title>Node29&#45;&gt;Node31</title>
<path fill="none" stroke="midnightblue" d="M667.91,-168.79C627.5,-159.58 564.79,-145.29 520.76,-135.25"/>
<polygon fill="midnightblue" stroke="midnightblue" points="521.72,-131.88 511.19,-133.07 520.16,-138.71 521.72,-131.88"/>
</g>
<!-- Node32 -->
<g id="node30" class="node">
<title>Node32</title>
<g id="a_node30"><a xlink:href="_memory_stats_8hpp.html" target="_top" xlink:title=" ">
<polygon fill="white" stroke="black" points="546.12,-113 546.12,-132.25 639.38,-132.25 639.38,-113 546.12,-113"/>
<text text-anchor="middle" x="592.75" y="-118.75" font-family="Helvetica,sans-Serif" font-size="10.00">MemoryStats.hpp</text>
</a>
</g>
</g>
<!-- Node29&#45;&gt;Node32 -->
<g id="edge30" class="edge">
<title>Node29&#45;&gt;Node32</title>
<path fill="none" stroke="midnightblue" d="M688.5,-168.79C670.42,-160.27 643.12,-147.38 622.28,-137.56"/>
<polygon fill="midnightblue" stroke="midnightblue" points="623.97,-134.48 613.43,-133.38 620.98,-140.81 623.97,-134.48"/>
</g>
<!-- Node33 -->
<g id="node31" class="node">
<title>Node33</title>
<g id="a_node31"><a xlink:href="_memory_segment_8hpp.html" target="_top" xlink:title=" ">
<polygon fill="white" stroke="red" points="837.25,-113 837.25,-132.25 946.25,-132.25 946.25,-113 837.25,-113"/>
<text text-anchor="middle" x="891.75" y="-118.75" font-family="Helvetica,sans-Serif" font-size="10.00">MemorySegment.hpp</text>
</a>
</g>
</g>
<!-- Node29&#45;&gt;Node33 -->
<g id="edge32" class="edge">
<title>Node29&#45;&gt;Node33</title>
<path fill="none" stroke="midnightblue" d="M738.55,-168.79C769.06,-159.8 816.02,-145.95 849.9,-135.96"/>
<polygon fill="midnightblue" stroke="midnightblue" points="850.8,-139.35 859.4,-133.16 848.82,-132.63 850.8,-139.35"/>
</g>
<!-- Node31&#45;&gt;Node25 -->
<g id="edge29" class="edge">
<title>Node31&#45;&gt;Node25</title>
<path fill="none" stroke="midnightblue" d="M459.51,-112.67C450.48,-104.77 437.11,-93.06 426.21,-83.53"/>
<polygon fill="midnightblue" stroke="midnightblue" points="428.77,-81.11 418.94,-77.16 424.16,-86.38 428.77,-81.11"/>
</g>
<!-- Node32&#45;&gt;Node20 -->
<g id="edge31" class="edge">
<title>Node32&#45;&gt;Node20</title>
<path fill="none" stroke="midnightblue" d="M591.59,-112.67C590.71,-105.79 589.45,-96.04 588.33,-87.35"/>
<polygon fill="midnightblue" stroke="midnightblue" points="591.83,-87.14 587.08,-77.67 584.89,-88.03 591.83,-87.14"/>
</g>
<!-- Node33&#45;&gt;Node24 -->
<g id="edge33" class="edge">
<title>Node33&#45;&gt;Node24</title>
<path fill="none" stroke="midnightblue" d="M946.53,-113.52C949.64,-113.15 952.74,-112.81 955.75,-112.5 1224.87,-85.17 1550.78,-72.32 1659.47,-68.58"/>
<polygon fill="midnightblue" stroke="midnightblue" points="1659.38,-72.08 1669.25,-68.25 1659.14,-65.09 1659.38,-72.08"/>
</g>
<!-- Node37 -->
<g id="node33" class="node">
<title>Node37</title>
<g id="a_node33"><a xlink:href="_primitive_behaviour_names_8h.html" target="_top" xlink:title=" ">
<polygon fill="white" stroke="black" points="1061,-113 1061,-132.25 1198.5,-132.25 1198.5,-113 1061,-113"/>
<text text-anchor="middle" x="1129.75" y="-118.75" font-family="Helvetica,sans-Serif" font-size="10.00">PrimitiveBehaviourNames.h</text>
</a>
</g>
</g>
<!-- Node36&#45;&gt;Node37 -->
<g id="edge35" class="edge">
<title>Node36&#45;&gt;Node37</title>
<path fill="none" stroke="midnightblue" d="M1336.24,-168.79C1294.04,-159.56 1228.5,-145.23 1182.61,-135.19"/>
<polygon fill="midnightblue" stroke="midnightblue" points="1183.39,-131.78 1172.87,-133.06 1181.89,-138.61 1183.39,-131.78"/>
</g>
<!-- Node41 -->
<g id="node37" class="node">
<title>Node41</title>
<g id="a_node37"><a xlink:href="_list_class_8hpp.html" target="_top" xlink:title=" ">
<polygon fill="white" stroke="red" points="1577.75,-113 1577.75,-132.25 1653.75,-132.25 1653.75,-113 1577.75,-113"/>
<text text-anchor="middle" x="1615.75" y="-118.75" font-family="Helvetica,sans-Serif" font-size="10.00">ListClass.hpp</text>
</a>
</g>
</g>
<!-- Node40&#45;&gt;Node41 -->
<g id="edge39" class="edge">
<title>Node40&#45;&gt;Node41</title>
<path fill="none" stroke="midnightblue" d="M1563.99,-168.92C1573.02,-161.02 1586.39,-149.31 1597.29,-139.78"/>
<polygon fill="midnightblue" stroke="midnightblue" points="1599.34,-142.63 1604.56,-133.41 1594.73,-137.36 1599.34,-142.63"/>
</g>
<!-- Node43 -->
<g id="node38" class="node">
<title>Node43</title>
<g id="a_node38"><a xlink:href="_rexx_internal_stack_8hpp.html" target="_top" xlink:title=" ">
<polygon fill="white" stroke="black" points="1671.88,-113 1671.88,-132.25 1787.62,-132.25 1787.62,-113 1671.88,-113"/>
<text text-anchor="middle" x="1729.75" y="-118.75" font-family="Helvetica,sans-Serif" font-size="10.00">RexxInternalStack.hpp</text>
</a>
</g>
</g>
<!-- Node40&#45;&gt;Node43 -->
<g id="edge40" class="edge">
<title>Node40&#45;&gt;Node43</title>
<path fill="none" stroke="midnightblue" d="M1583.21,-168.79C1612.27,-159.84 1656.92,-146.07 1689.3,-136.09"/>
<polygon fill="midnightblue" stroke="midnightblue" points="1690.22,-139.47 1698.75,-133.18 1688.16,-132.78 1690.22,-139.47"/>
</g>
<!-- Node44 -->
<g id="node39" class="node">
<title>Node44</title>
<g id="a_node39"><a xlink:href="_rexx_activation_stack_8hpp.html" target="_top" xlink:title=" ">
<polygon fill="white" stroke="black" points="1805.25,-113 1805.25,-132.25 1932.25,-132.25 1932.25,-113 1805.25,-113"/>
<text text-anchor="middle" x="1868.75" y="-118.75" font-family="Helvetica,sans-Serif" font-size="10.00">RexxActivationStack.hpp</text>
</a>
</g>
</g>
<!-- Node40&#45;&gt;Node44 -->
<g id="edge41" class="edge">
<title>Node40&#45;&gt;Node44</title>
<path fill="none" stroke="midnightblue" d="M1598.88,-170.1C1652.85,-160.81 1743.55,-145.19 1804.75,-134.65"/>
<polygon fill="midnightblue" stroke="midnightblue" points="1805.06,-138.15 1814.32,-133 1803.87,-131.25 1805.06,-138.15"/>
</g>
<!-- Node45 -->
<g id="node40" class="node">
<title>Node45</title>
<g id="a_node40"><a xlink:href="_expression_stack_8hpp.html" target="_top" xlink:title=" ">
<polygon fill="white" stroke="red" points="1950.25,-113 1950.25,-132.25 2059.25,-132.25 2059.25,-113 1950.25,-113"/>
<text text-anchor="middle" x="2004.75" y="-118.75" font-family="Helvetica,sans-Serif" font-size="10.00">ExpressionStack.hpp</text>
</a>
</g>
</g>
<!-- Node40&#45;&gt;Node45 -->
<g id="edge42" class="edge">
<title>Node40&#45;&gt;Node45</title>
<path fill="none" stroke="midnightblue" d="M1598.8,-170.05C1601.83,-169.59 1604.83,-169.15 1607.75,-168.75 1752.04,-148.8 1791.7,-151.31 1938.56,-133.11"/>
<polygon fill="midnightblue" stroke="midnightblue" points="1938.8,-136.61 1948.29,-131.89 1937.93,-129.66 1938.8,-136.61"/>
</g>
<!-- Node47 -->
<g id="node41" class="node">
<title>Node47</title>
<g id="a_node41"><a xlink:href="_rexx_local_variables_8hpp.html" target="_top" xlink:title=" ">
<polygon fill="white" stroke="red" points="1216.25,-113 1216.25,-132.25 1337.25,-132.25 1337.25,-113 1216.25,-113"/>
<text text-anchor="middle" x="1276.75" y="-118.75" font-family="Helvetica,sans-Serif" font-size="10.00">RexxLocalVariables.hpp</text>
</a>
</g>
</g>
<!-- Node40&#45;&gt;Node47 -->
<g id="edge43" class="edge">
<title>Node40&#45;&gt;Node47</title>
<path fill="none" stroke="midnightblue" d="M1508.63,-169.04C1461.07,-159.72 1386.01,-145.02 1334.24,-134.88"/>
<polygon fill="midnightblue" stroke="midnightblue" points="1335.21,-131.51 1324.72,-133.02 1333.87,-138.38 1335.21,-131.51"/>
</g>
<!-- Node62 -->
<g id="node42" class="node">
<title>Node62</title>
<g id="a_node42"><a xlink:href="_source_location_8hpp.html" target="_top" xlink:title=" ">
<polygon fill="white" stroke="black" points="1355.62,-113 1355.62,-132.25 1457.88,-132.25 1457.88,-113 1355.62,-113"/>
<text text-anchor="middle" x="1406.75" y="-118.75" font-family="Helvetica,sans-Serif" font-size="10.00">SourceLocation.hpp</text>
</a>
</g>
</g>
<!-- Node40&#45;&gt;Node62 -->
<g id="edge44" class="edge">
<title>Node40&#45;&gt;Node62</title>
<path fill="none" stroke="midnightblue" d="M1529.15,-168.79C1505.3,-159.99 1468.88,-146.55 1441.96,-136.62"/>
<polygon fill="midnightblue" stroke="midnightblue" points="1443.45,-133.44 1432.85,-133.26 1441.02,-140 1443.45,-133.44"/>
</g>
<!-- Node63 -->
<g id="node43" class="node">
<title>Node63</title>
<g id="a_node43"><a xlink:href="_exit_handler_8hpp.html" target="_top" xlink:title=" ">
<polygon fill="white" stroke="red" points="2077.25,-113 2077.25,-132.25 2162.25,-132.25 2162.25,-113 2077.25,-113"/>
<text text-anchor="middle" x="2119.75" y="-118.75" font-family="Helvetica,sans-Serif" font-size="10.00">ExitHandler.hpp</text>
</a>
</g>
</g>
<!-- Node40&#45;&gt;Node63 -->
<g id="edge45" class="edge">
<title>Node40&#45;&gt;Node63</title>
<path fill="none" stroke="midnightblue" d="M1598.79,-169.95C1601.82,-169.52 1604.82,-169.11 1607.75,-168.75 1808.03,-144.06 1862.93,-158.34 2065.61,-133.04"/>
<polygon fill="midnightblue" stroke="midnightblue" points="2065.96,-136.52 2075.44,-131.79 2065.08,-129.58 2065.96,-136.52"/>
</g>
<!-- Node65 -->
<g id="node44" class="node">
<title>Node65</title>
<g id="a_node44"><a xlink:href="_activation_api_contexts_8hpp.html" target="_top" xlink:title=" ">
<polygon fill="white" stroke="black" points="2180.62,-113 2180.62,-132.25 2312.88,-132.25 2312.88,-113 2180.62,-113"/>
<text text-anchor="middle" x="2246.75" y="-118.75" font-family="Helvetica,sans-Serif" font-size="10.00">ActivationApiContexts.hpp</text>
</a>
</g>
</g>
<!-- Node40&#45;&gt;Node65 -->
<g id="edge47" class="edge">
<title>Node40&#45;&gt;Node65</title>
<path fill="none" stroke="midnightblue" d="M1598.78,-169.91C1601.81,-169.48 1604.82,-169.09 1607.75,-168.75 1853.6,-140.21 1919.72,-155.46 2169.27,-132.92"/>
<polygon fill="midnightblue" stroke="midnightblue" points="2169.37,-136.43 2179.01,-132.03 2168.73,-129.46 2169.37,-136.43"/>
</g>
<!-- Node66 -->
<g id="node45" class="node">
<title>Node66</title>
<g id="a_node45"><a xlink:title=" ">
<polygon fill="white" stroke="#bfbfbf" points="1476,-113 1476,-132.25 1559.5,-132.25 1559.5,-113 1476,-113"/>
<text text-anchor="middle" x="1517.75" y="-118.75" font-family="Helvetica,sans-Serif" font-size="10.00">SysActivity.hpp</text>
</a>
</g>
</g>
<!-- Node40&#45;&gt;Node66 -->
<g id="edge49" class="edge">
<title>Node40&#45;&gt;Node66</title>
<path fill="none" stroke="midnightblue" d="M1547.81,-168.92C1542.93,-161.57 1535.87,-150.93 1529.82,-141.81"/>
<polygon fill="midnightblue" stroke="midnightblue" points="1532.87,-140.07 1524.42,-133.68 1527.03,-143.95 1532.87,-140.07"/>
</g>
<!-- Node63&#45;&gt;Node2 -->
<g id="edge46" class="edge">
<title>Node63&#45;&gt;Node2</title>
<path fill="none" stroke="midnightblue" d="M2076.9,-131.32C2006.34,-144 1873.21,-167.96 1870.75,-168.75 1850.63,-175.19 1847.8,-182.34 1827.75,-189 1768.78,-208.59 1698,-221.23 1652.71,-228.01"/>
<polygon fill="midnightblue" stroke="midnightblue" points="1652.37,-224.53 1642.99,-229.43 1653.39,-231.45 1652.37,-224.53"/>
</g>
<!-- Node65&#45;&gt;Node2 -->
<g id="edge48" class="edge">
<title>Node65&#45;&gt;Node2</title>
<path fill="none" stroke="midnightblue" d="M2180.22,-131.79C2084.2,-143.67 1916.79,-164.72 1903.75,-168.75 1884.71,-174.63 1882.66,-182.71 1863.75,-189 1792.02,-212.87 1704.6,-224.79 1652.42,-230.2"/>
<polygon fill="midnightblue" stroke="midnightblue" points="1652.32,-226.7 1642.72,-231.17 1653.02,-233.66 1652.32,-226.7"/>
</g>
<!-- Node51&#45;&gt;Node23 -->
<g id="edge51" class="edge">
<title>Node51&#45;&gt;Node23</title>
<path fill="none" stroke="midnightblue" d="M2510.16,-168.92C2502.82,-161.25 2492.04,-150.01 2483.06,-140.64"/>
<polygon fill="midnightblue" stroke="midnightblue" points="2485.67,-138.31 2476.22,-133.51 2480.62,-143.15 2485.67,-138.31"/>
</g>
<!-- Node52 -->
<g id="node47" class="node">
<title>Node52</title>
<g id="a_node47"><a xlink:href="_number_string_math_8hpp.html" target="_top" xlink:title=" ">
<polygon fill="white" stroke="black" points="2523.5,-113 2523.5,-132.25 2640,-132.25 2640,-113 2523.5,-113"/>
<text text-anchor="middle" x="2581.75" y="-118.75" font-family="Helvetica,sans-Serif" font-size="10.00">NumberStringMath.hpp</text>
</a>
</g>
</g>
<!-- Node51&#45;&gt;Node52 -->
<g id="edge52" class="edge">
<title>Node51&#45;&gt;Node52</title>
<path fill="none" stroke="midnightblue" d="M2529.15,-168.92C2538.33,-161.02 2551.92,-149.31 2562.99,-139.78"/>
<polygon fill="midnightblue" stroke="midnightblue" points="2565.1,-142.58 2570.39,-133.4 2560.53,-137.28 2565.1,-142.58"/>
</g>
<!-- Node68 -->
<g id="node49" class="node">
<title>Node68</title>
<g id="a_node49"><a xlink:title=" ">
<polygon fill="white" stroke="#bfbfbf" points="2330.62,-113 2330.62,-132.25 2372.88,-132.25 2372.88,-113 2330.62,-113"/>
<text text-anchor="middle" x="2351.75" y="-118.75" font-family="Helvetica,sans-Serif" font-size="10.00">deque</text>
</a>
</g>
</g>
<!-- Node67&#45;&gt;Node68 -->
<g id="edge54" class="edge">
<title>Node67&#45;&gt;Node68</title>
<path fill="none" stroke="midnightblue" d="M2017.17,-170.07C2020.41,-169.61 2023.62,-169.17 2026.75,-168.75 2154.07,-151.61 2190.54,-159.6 2319.17,-132.99"/>
<polygon fill="midnightblue" stroke="midnightblue" points="2319.69,-136.45 2328.76,-130.97 2318.25,-129.6 2319.69,-136.45"/>
</g>
<!-- Node53&#45;&gt;Node51 -->
<g id="edge58" class="edge">
<title>Node53&#45;&gt;Node51</title>
<path fill="none" stroke="midnightblue" d="M2537.95,-225.17C2534.97,-218.14 2530.71,-208.09 2526.96,-199.25"/>
<polygon fill="midnightblue" stroke="midnightblue" points="2530.19,-197.9 2523.07,-190.06 2523.75,-200.63 2530.19,-197.9"/>
</g>
</g>
</svg>
