<?xml version="1.0" encoding="UTF-8" standalone="no"?>
<!DOCTYPE svg PUBLIC "-//W3C//DTD SVG 1.1//EN"
 "http://www.w3.org/Graphics/SVG/1.1/DTD/svg11.dtd">
<!-- Generated by graphviz version 2.30.1 (20130222.1704)
 -->
<!-- Title: NumericInstruction.cpp Pages: 1 -->
<!--zoomable 436 -->
<svg id="main" version="1.1" xmlns="http://www.w3.org/2000/svg" xmlns:xlink="http://www.w3.org/1999/xlink" xml:space="preserve" onload="init(evt)">
<style type="text/css"><![CDATA[
.edge:hover path { stroke: red; }
.edge:hover polygon { stroke: red; fill: red; }
]]></style>
<script type="text/javascript"><![CDATA[
var edges = document.getElementsByTagName('g');
if (edges && edges.length) {
  for (var i=0;i<edges.length;i++) {
    if (edges[i].id.substr(0,4)=='edge') {
      edges[i].setAttribute('class','edge');
    }
  }
}
]]></script>
        <defs>
                <circle id="rim" cx="0" cy="0" r="7"/>
                <circle id="rim2" cx="0" cy="0" r="3.5"/>
                <g id="zoomPlus">
                        <use xlink:href="#rim" fill="#404040">
                                <set attributeName="fill" to="#808080" begin="zoomplus.mouseover" end="zoomplus.mouseout"/>
                        </use>
                        <path d="M-4,0h8M0,-4v8" fill="none" stroke="white" stroke-width="1.5" pointer-events="none"/>
                </g>
                <g id="zoomMin">
                        <use xlink:href="#rim" fill="#404040">
                                <set attributeName="fill" to="#808080" begin="zoomminus.mouseover" end="zoomminus.mouseout"/>
                        </use>
                        <path d="M-4,0h8" fill="none" stroke="white" stroke-width="1.5" pointer-events="none"/>
                </g>
                <g id="dirArrow">
                        <path fill="none" stroke="white" stroke-width="1.5" d="M0,-3.0v7 M-2.5,-0.5L0,-3.0L2.5,-0.5"/>
                </g>
               <g id="resetDef">
                       <use xlink:href="#rim2" fill="#404040">
                               <set attributeName="fill" to="#808080" begin="reset.mouseover" end="reset.mouseout"/>
                       </use>
               </g>
        </defs>

<script type="text/javascript">
var viewWidth = 2227;
var viewHeight = 436;
var sectionId = 'dynsection-0';
</script>
<script xlink:href="svgpan.js"/>
<svg id="graph" class="graph">
<g id="viewport">
<title>NumericInstruction.cpp</title>
<polygon fill="white" stroke="white" points="-4,5 -4,-432 2224,-432 2224,5 -4,5"/>
<!-- Node1 -->
<g id="node1" class="node"><title>Node1</title>
<g id="a_node1"><a xlink:title=" ">
<polygon fill="#bfbfbf" stroke="black" points="1505.87,-407 1505.87,-427 1624.13,-427 1624.13,-407 1505.87,-407"/>
<text text-anchor="middle" x="1565" y="-413" font-family="Helvetica,sans-Serif" font-size="10.00">NumericInstruction.cpp</text>
</a>
</g>
</g>
<!-- Node2 -->
<g id="node2" class="node"><title>Node2</title>
<g id="a_node2"><a xlink:title=" ">
<polygon fill="white" stroke="#bfbfbf" points="1317.16,-349 1317.16,-369 1364.84,-369 1364.84,-349 1317.16,-349"/>
<text text-anchor="middle" x="1341" y="-355" font-family="Helvetica,sans-Serif" font-size="10.00">stdlib.h</text>
</a>
</g>
</g>
<!-- Node1&#45;&gt;Node2 -->
<g id="edge1" class="edge"><title>Node1&#45;&gt;Node2</title>
<path fill="none" stroke="midnightblue" d="M1527.9,-406.998C1490.33,-397.84 1430.57,-383.162 1379,-370 1377.74,-369.677 1376.45,-369.347 1375.15,-369.012"/>
<polygon fill="midnightblue" stroke="midnightblue" points="1375.67,-365.531 1365.11,-366.402 1373.91,-372.306 1375.67,-365.531"/>
</g>
<!-- Node3 -->
<g id="node3" class="node"><title>Node3</title>
<g id="a_node3"><a xlink:href="_rexx_core_8h.html" target="_top" xlink:title=" ">
<polygon fill="white" stroke="black" points="1092.6,-233 1092.6,-253 1161.4,-253 1161.4,-233 1092.6,-233"/>
<text text-anchor="middle" x="1127" y="-239" font-family="Helvetica,sans-Serif" font-size="10.00">RexxCore.h</text>
</a>
</g>
</g>
<!-- Node1&#45;&gt;Node3 -->
<g id="edge2" class="edge"><title>Node1&#45;&gt;Node3</title>
<path fill="none" stroke="midnightblue" d="M1544.96,-406.823C1515.42,-393.394 1458.34,-367.834 1409,-348 1321.44,-312.805 1216.86,-275.436 1163,-256.527"/>
<polygon fill="midnightblue" stroke="midnightblue" points="1163.84,-253.11 1153.24,-253.107 1161.52,-259.717 1163.84,-253.11"/>
</g>
<!-- Node50 -->
<g id="node38" class="node"><title>Node50</title>
<g id="a_node38"><a xlink:href="_string_class_8hpp.html" target="_top" xlink:title=" ">
<polygon fill="white" stroke="black" points="141.705,-291 141.705,-311 228.295,-311 228.295,-291 141.705,-291"/>
<text text-anchor="middle" x="185" y="-297" font-family="Helvetica,sans-Serif" font-size="10.00">StringClass.hpp</text>
</a>
</g>
</g>
<!-- Node1&#45;&gt;Node50 -->
<g id="edge41" class="edge"><title>Node1&#45;&gt;Node50</title>
<path fill="none" stroke="midnightblue" d="M1530.35,-406.951C1500,-398.62 1454.94,-385.265 1417,-370 1396.72,-361.84 1394.18,-353.434 1373,-348 1262.41,-319.624 455.6,-305.937 238.61,-302.744"/>
<polygon fill="midnightblue" stroke="midnightblue" points="238.479,-299.242 228.429,-302.596 238.377,-306.241 238.479,-299.242"/>
</g>
<!-- Node69 -->
<g id="node42" class="node"><title>Node69</title>
<g id="a_node42"><a xlink:href="_rexx_activation_8hpp.html" target="_top" xlink:title=" ">
<polygon fill="white" stroke="black" points="1649.2,-349 1649.2,-369 1750.8,-369 1750.8,-349 1649.2,-349"/>
<text text-anchor="middle" x="1700" y="-355" font-family="Helvetica,sans-Serif" font-size="10.00">RexxActivation.hpp</text>
</a>
</g>
</g>
<!-- Node1&#45;&gt;Node69 -->
<g id="edge49" class="edge"><title>Node1&#45;&gt;Node69</title>
<path fill="none" stroke="midnightblue" d="M1586.99,-406.878C1609.15,-397.685 1643.57,-383.409 1668.6,-373.026"/>
<polygon fill="midnightblue" stroke="midnightblue" points="1670.12,-376.183 1678.02,-369.118 1667.44,-369.717 1670.12,-376.183"/>
</g>
<!-- Node83 -->
<g id="node48" class="node"><title>Node83</title>
<g id="a_node48"><a xlink:href="_numeric_instruction_8hpp.html" target="_top" xlink:title=" ">
<polygon fill="white" stroke="black" points="2026.59,-349 2026.59,-369 2145.41,-369 2145.41,-349 2026.59,-349"/>
<text text-anchor="middle" x="2086" y="-355" font-family="Helvetica,sans-Serif" font-size="10.00">NumericInstruction.hpp</text>
</a>
</g>
</g>
<!-- Node1&#45;&gt;Node83 -->
<g id="edge60" class="edge"><title>Node1&#45;&gt;Node83</title>
<path fill="none" stroke="midnightblue" d="M1624.26,-409.631C1721.18,-399.213 1913.13,-378.581 2016.38,-367.483"/>
<polygon fill="midnightblue" stroke="midnightblue" points="2016.83,-370.955 2026.4,-366.406 2016.08,-363.995 2016.83,-370.955"/>
</g>
<!-- Node75 -->
<g id="node50" class="node"><title>Node75</title>
<g id="a_node50"><a xlink:href="_token_8hpp.html" target="_top" xlink:title=" ">
<polygon fill="white" stroke="black" points="1887.93,-349 1887.93,-369 1950.07,-369 1950.07,-349 1887.93,-349"/>
<text text-anchor="middle" x="1919" y="-355" font-family="Helvetica,sans-Serif" font-size="10.00">Token.hpp</text>
</a>
</g>
</g>
<!-- Node1&#45;&gt;Node75 -->
<g id="edge63" class="edge"><title>Node1&#45;&gt;Node75</title>
<path fill="none" stroke="midnightblue" d="M1622.27,-406.94C1693.82,-395.622 1814.51,-376.529 1877.66,-366.539"/>
<polygon fill="midnightblue" stroke="midnightblue" points="1878.33,-369.978 1887.66,-364.958 1877.23,-363.064 1878.33,-369.978"/>
</g>
<!-- Node4 -->
<g id="node4" class="node"><title>Node4</title>
<g id="a_node4"><a xlink:href="oorexxapi_8h.html" target="_top" xlink:title=" ">
<polygon fill="white" stroke="black" points="414.15,-175 414.15,-195 481.85,-195 481.85,-175 414.15,-175"/>
<text text-anchor="middle" x="448" y="-181" font-family="Helvetica,sans-Serif" font-size="10.00">oorexxapi.h</text>
</a>
</g>
</g>
<!-- Node3&#45;&gt;Node4 -->
<g id="edge3" class="edge"><title>Node3&#45;&gt;Node4</title>
<path fill="none" stroke="midnightblue" d="M1092.32,-241.393C997.596,-239.331 726.493,-230.738 492.245,-195.97"/>
<polygon fill="midnightblue" stroke="midnightblue" points="492.584,-192.481 482.174,-194.455 491.543,-199.404 492.584,-192.481"/>
</g>
<!-- Node11 -->
<g id="node7" class="node"><title>Node11</title>
<g id="a_node7"><a xlink:title=" ">
<polygon fill="white" stroke="#bfbfbf" points="500.269,-175 500.269,-195 545.731,-195 545.731,-175 500.269,-175"/>
<text text-anchor="middle" x="523" y="-181" font-family="Helvetica,sans-Serif" font-size="10.00">stdio.h</text>
</a>
</g>
</g>
<!-- Node3&#45;&gt;Node11 -->
<g id="edge6" class="edge"><title>Node3&#45;&gt;Node11</title>
<path fill="none" stroke="midnightblue" d="M1092.47,-241.887C1004.28,-241.034 763.664,-235.168 555.788,-195.735"/>
<polygon fill="midnightblue" stroke="midnightblue" points="556.397,-192.288 545.915,-193.832 555.072,-199.162 556.397,-192.288"/>
</g>
<!-- Node12 -->
<g id="node8" class="node"><title>Node12</title>
<g id="a_node8"><a xlink:title=" ">
<polygon fill="white" stroke="#bfbfbf" points="343.934,-175 343.934,-195 396.066,-195 396.066,-175 343.934,-175"/>
<text text-anchor="middle" x="370" y="-181" font-family="Helvetica,sans-Serif" font-size="10.00">stdarg.h</text>
</a>
</g>
</g>
<!-- Node3&#45;&gt;Node12 -->
<g id="edge7" class="edge"><title>Node3&#45;&gt;Node12</title>
<path fill="none" stroke="midnightblue" d="M1092.5,-242.413C989.329,-243.097 674.284,-241.189 406.152,-195.85"/>
<polygon fill="midnightblue" stroke="midnightblue" points="406.681,-192.39 396.233,-194.149 405.498,-199.289 406.681,-192.39"/>
</g>
<!-- Node13 -->
<g id="node9" class="node"><title>Node13</title>
<g id="a_node9"><a xlink:title=" ">
<polygon fill="white" stroke="#bfbfbf" points="563.604,-175 563.604,-195 612.396,-195 612.396,-175 563.604,-175"/>
<text text-anchor="middle" x="588" y="-181" font-family="Helvetica,sans-Serif" font-size="10.00">string.h</text>
</a>
</g>
</g>
<!-- Node3&#45;&gt;Node13 -->
<g id="edge8" class="edge"><title>Node3&#45;&gt;Node13</title>
<path fill="none" stroke="midnightblue" d="M1092.39,-241.17C1011.6,-238.74 804.355,-229.651 622.743,-195.78"/>
<polygon fill="midnightblue" stroke="midnightblue" points="623.222,-192.309 612.745,-193.885 621.919,-199.186 623.222,-192.309"/>
</g>
<!-- Node14 -->
<g id="node10" class="node"><title>Node14</title>
<g id="a_node10"><a xlink:title=" ">
<polygon fill="white" stroke="#bfbfbf" points="630.879,-175 630.879,-195 679.121,-195 679.121,-175 630.879,-175"/>
<text text-anchor="middle" x="655" y="-181" font-family="Helvetica,sans-Serif" font-size="10.00">ctype.h</text>
</a>
</g>
</g>
<!-- Node3&#45;&gt;Node14 -->
<g id="edge9" class="edge"><title>Node3&#45;&gt;Node14</title>
<path fill="none" stroke="midnightblue" d="M1092.51,-240.613C1019.61,-237.206 844.468,-226.516 689.55,-195.99"/>
<polygon fill="midnightblue" stroke="midnightblue" points="689.869,-192.484 679.376,-193.95 688.493,-199.348 689.869,-192.484"/>
</g>
<!-- Node15 -->
<g id="node11" class="node"><title>Node15</title>
<g id="a_node11"><a xlink:title=" ">
<polygon fill="white" stroke="#bfbfbf" points="697.443,-175 697.443,-195 744.557,-195 744.557,-175 697.443,-175"/>
<text text-anchor="middle" x="721" y="-181" font-family="Helvetica,sans-Serif" font-size="10.00">limits.h</text>
</a>
</g>
</g>
<!-- Node3&#45;&gt;Node15 -->
<g id="edge10" class="edge"><title>Node3&#45;&gt;Node15</title>
<path fill="none" stroke="midnightblue" d="M1092.36,-239.837C1027.61,-235.344 883.804,-223.246 754.697,-196.065"/>
<polygon fill="midnightblue" stroke="midnightblue" points="755.15,-192.582 744.638,-193.909 753.683,-199.427 755.15,-192.582"/>
</g>
<!-- Node16 -->
<g id="node12" class="node"><title>Node16</title>
<g id="a_node12"><a xlink:href="_rexx_platform_definitions_8h.html" target="_top" xlink:title=" ">
<polygon fill="white" stroke="black" points="762.478,-175 762.478,-195 893.522,-195 893.522,-175 762.478,-175"/>
<text text-anchor="middle" x="828" y="-181" font-family="Helvetica,sans-Serif" font-size="10.00">RexxPlatformDefinitions.h</text>
</a>
</g>
</g>
<!-- Node3&#45;&gt;Node16 -->
<g id="edge11" class="edge"><title>Node3&#45;&gt;Node16</title>
<path fill="none" stroke="midnightblue" d="M1092.41,-235.521C1041.88,-226.058 947.252,-208.335 885.973,-196.858"/>
<polygon fill="midnightblue" stroke="midnightblue" points="886.536,-193.402 876.062,-195.002 885.247,-200.283 886.536,-193.402"/>
</g>
<!-- Node19 -->
<g id="node15" class="node"><title>Node19</title>
<g id="a_node15"><a xlink:href="_rexx_constants_8hpp.html" target="_top" xlink:title=" ">
<polygon fill="white" stroke="black" points="911.365,-175 911.365,-195 1014.64,-195 1014.64,-175 911.365,-175"/>
<text text-anchor="middle" x="963" y="-181" font-family="Helvetica,sans-Serif" font-size="10.00">RexxConstants.hpp</text>
</a>
</g>
</g>
<!-- Node3&#45;&gt;Node19 -->
<g id="edge14" class="edge"><title>Node3&#45;&gt;Node19</title>
<path fill="none" stroke="midnightblue" d="M1100.29,-232.878C1072.8,-223.494 1029.82,-208.815 999.272,-198.386"/>
<polygon fill="midnightblue" stroke="midnightblue" points="1000.03,-194.945 989.431,-195.025 997.764,-201.569 1000.03,-194.945"/>
</g>
<!-- Node20 -->
<g id="node16" class="node"><title>Node20</title>
<g id="a_node16"><a xlink:href="_class_type_codes_8h.html" target="_top" xlink:title=" ">
<polygon fill="white" stroke="black" points="1402.03,-59 1402.03,-79 1501.97,-79 1501.97,-59 1402.03,-59"/>
<text text-anchor="middle" x="1452" y="-65" font-family="Helvetica,sans-Serif" font-size="10.00">ClassTypeCodes.h</text>
</a>
</g>
</g>
<!-- Node3&#45;&gt;Node20 -->
<g id="edge15" class="edge"><title>Node3&#45;&gt;Node20</title>
<path fill="none" stroke="midnightblue" d="M1161.5,-241.027C1261.09,-237.868 1543.69,-226.287 1571,-196 1577.55,-188.739 1577.27,-181.507 1571,-174 1513.69,-105.33 1430.31,-206.67 1373,-138 1354.87,-116.28 1388.34,-95.73 1417.16,-83.02"/>
<polygon fill="midnightblue" stroke="midnightblue" points="1418.81,-86.1231 1426.67,-79.0199 1416.09,-79.6706 1418.81,-86.1231"/>
</g>
<!-- Node21 -->
<g id="node17" class="node"><title>Node21</title>
<g id="a_node17"><a xlink:href="_global_names_8h.html" target="_top" xlink:title=" ">
<polygon fill="white" stroke="black" points="1032.54,-175 1032.54,-195 1117.46,-195 1117.46,-175 1032.54,-175"/>
<text text-anchor="middle" x="1075" y="-181" font-family="Helvetica,sans-Serif" font-size="10.00">GlobalNames.h</text>
</a>
</g>
</g>
<!-- Node3&#45;&gt;Node21 -->
<g id="edge16" class="edge"><title>Node3&#45;&gt;Node21</title>
<path fill="none" stroke="midnightblue" d="M1118.41,-232.753C1110.84,-224.598 1099.62,-212.516 1090.49,-202.677"/>
<polygon fill="midnightblue" stroke="midnightblue" points="1092.8,-200.022 1083.43,-195.075 1087.67,-204.785 1092.8,-200.022"/>
</g>
<!-- Node22 -->
<g id="node18" class="node"><title>Node22</title>
<g id="a_node18"><a xlink:href="_object_class_8hpp.html" target="_top" xlink:title=" ">
<polygon fill="white" stroke="black" points="198.315,-175 198.315,-195 287.685,-195 287.685,-175 198.315,-175"/>
<text text-anchor="middle" x="243" y="-181" font-family="Helvetica,sans-Serif" font-size="10.00">ObjectClass.hpp</text>
</a>
</g>
</g>
<!-- Node3&#45;&gt;Node22 -->
<g id="edge17" class="edge"><title>Node3&#45;&gt;Node22</title>
<path fill="none" stroke="midnightblue" d="M1092.22,-240.605C981.496,-236.029 627.355,-220.363 335,-196 322.992,-194.999 310.123,-193.727 297.929,-192.427"/>
<polygon fill="midnightblue" stroke="midnightblue" points="298.198,-188.936 287.878,-191.335 297.442,-195.895 298.198,-188.936"/>
</g>
<!-- Node25 -->
<g id="node21" class="node"><title>Node25</title>
<g id="a_node21"><a xlink:href="_table_class_8hpp.html" target="_top" xlink:title=" ">
<polygon fill="white" stroke="black" points="1674.81,-59 1674.81,-79 1759.19,-79 1759.19,-59 1674.81,-59"/>
<text text-anchor="middle" x="1717" y="-65" font-family="Helvetica,sans-Serif" font-size="10.00">TableClass.hpp</text>
</a>
</g>
</g>
<!-- Node3&#45;&gt;Node25 -->
<g id="edge20" class="edge"><title>Node3&#45;&gt;Node25</title>
<path fill="none" stroke="midnightblue" d="M1161.48,-241.505C1281.58,-239.486 1676.65,-230.276 1721,-196 1750,-173.587 1749.73,-151.596 1741,-116 1738.59,-106.191 1733.69,-96.1497 1728.94,-87.9618"/>
<polygon fill="midnightblue" stroke="midnightblue" points="1731.83,-85.9847 1723.59,-79.326 1725.88,-89.6705 1731.83,-85.9847"/>
</g>
<!-- Node28 -->
<g id="node23" class="node"><title>Node28</title>
<g id="a_node23"><a xlink:href="_stack_class_8hpp.html" target="_top" xlink:title=" ">
<polygon fill="white" stroke="black" points="1135.26,-175 1135.26,-195 1220.74,-195 1220.74,-175 1135.26,-175"/>
<text text-anchor="middle" x="1178" y="-181" font-family="Helvetica,sans-Serif" font-size="10.00">StackClass.hpp</text>
</a>
</g>
</g>
<!-- Node3&#45;&gt;Node28 -->
<g id="edge22" class="edge"><title>Node3&#45;&gt;Node28</title>
<path fill="none" stroke="midnightblue" d="M1135.42,-232.753C1142.85,-224.598 1153.85,-212.516 1162.81,-202.677"/>
<polygon fill="midnightblue" stroke="midnightblue" points="1165.59,-204.825 1169.74,-195.075 1160.41,-200.112 1165.59,-204.825"/>
</g>
<!-- Node29 -->
<g id="node24" class="node"><title>Node29</title>
<g id="a_node24"><a xlink:href="_rexx_memory_8hpp.html" target="_top" xlink:title=" ">
<polygon fill="white" stroke="black" points="1619.19,-175 1619.19,-195 1712.81,-195 1712.81,-175 1619.19,-175"/>
<text text-anchor="middle" x="1666" y="-181" font-family="Helvetica,sans-Serif" font-size="10.00">RexxMemory.hpp</text>
</a>
</g>
</g>
<!-- Node3&#45;&gt;Node29 -->
<g id="edge23" class="edge"><title>Node3&#45;&gt;Node29</title>
<path fill="none" stroke="midnightblue" d="M1161.58,-239.466C1240.41,-233.516 1439.44,-217.512 1605,-196 1606.29,-195.833 1607.59,-195.659 1608.9,-195.48"/>
<polygon fill="midnightblue" stroke="midnightblue" points="1609.69,-198.902 1619.09,-194.013 1608.69,-191.974 1609.69,-198.902"/>
</g>
<!-- Node36 -->
<g id="node29" class="node"><title>Node36</title>
<g id="a_node29"><a xlink:href="_rexx_behaviour_8hpp.html" target="_top" xlink:title=" ">
<polygon fill="white" stroke="red" points="1238.64,-175 1238.64,-195 1341.36,-195 1341.36,-175 1238.64,-175"/>
<text text-anchor="middle" x="1290" y="-181" font-family="Helvetica,sans-Serif" font-size="10.00">RexxBehaviour.hpp</text>
</a>
</g>
</g>
<!-- Node3&#45;&gt;Node36 -->
<g id="edge31" class="edge"><title>Node3&#45;&gt;Node36</title>
<path fill="none" stroke="midnightblue" d="M1153.55,-232.878C1180.87,-223.494 1223.59,-208.815 1253.95,-198.386"/>
<polygon fill="midnightblue" stroke="midnightblue" points="1255.41,-201.585 1263.73,-195.025 1253.14,-194.964 1255.41,-201.585"/>
</g>
<!-- Node38 -->
<g id="node30" class="node"><title>Node38</title>
<g id="a_node30"><a xlink:href="_class_class_8hpp.html" target="_top" xlink:title=" ">
<polygon fill="white" stroke="black" points="1359.26,-175 1359.26,-195 1444.74,-195 1444.74,-175 1359.26,-175"/>
<text text-anchor="middle" x="1402" y="-181" font-family="Helvetica,sans-Serif" font-size="10.00">ClassClass.hpp</text>
</a>
</g>
</g>
<!-- Node3&#45;&gt;Node38 -->
<g id="edge32" class="edge"><title>Node3&#45;&gt;Node38</title>
<path fill="none" stroke="midnightblue" d="M1161.55,-234.964C1208.81,-225.34 1294.04,-207.985 1349.29,-196.733"/>
<polygon fill="midnightblue" stroke="midnightblue" points="1350.15,-200.131 1359.25,-194.706 1348.75,-193.272 1350.15,-200.131"/>
</g>
<!-- Node39 -->
<g id="node31" class="node"><title>Node39</title>
<g id="a_node31"><a xlink:href="_rexx_envelope_8hpp.html" target="_top" xlink:title=" ">
<polygon fill="white" stroke="black" points="1463.03,-175 1463.03,-195 1562.97,-195 1562.97,-175 1463.03,-175"/>
<text text-anchor="middle" x="1513" y="-181" font-family="Helvetica,sans-Serif" font-size="10.00">RexxEnvelope.hpp</text>
</a>
</g>
</g>
<!-- Node3&#45;&gt;Node39 -->
<g id="edge33" class="edge"><title>Node3&#45;&gt;Node39</title>
<path fill="none" stroke="midnightblue" d="M1161.78,-237.383C1221.43,-229.398 1347.08,-212.298 1453,-196 1453.1,-195.984 1453.2,-195.969 1453.3,-195.953"/>
<polygon fill="midnightblue" stroke="midnightblue" points="1453.59,-199.451 1462.92,-194.442 1452.5,-192.536 1453.59,-199.451"/>
</g>
<!-- Node40 -->
<g id="node32" class="node"><title>Node40</title>
<g id="a_node32"><a xlink:href="_rexx_activity_8hpp.html" target="_top" xlink:title=" ">
<polygon fill="white" stroke="red" points="1807.41,-175 1807.41,-195 1896.59,-195 1896.59,-175 1807.41,-175"/>
<text text-anchor="middle" x="1852" y="-181" font-family="Helvetica,sans-Serif" font-size="10.00">RexxActivity.hpp</text>
</a>
</g>
</g>
<!-- Node3&#45;&gt;Node40 -->
<g id="edge34" class="edge"><title>Node3&#45;&gt;Node40</title>
<path fill="none" stroke="midnightblue" d="M1161.41,-239.839C1256.14,-233.812 1528.77,-215.943 1755,-196 1768.57,-194.804 1783.2,-193.371 1796.87,-191.969"/>
<polygon fill="midnightblue" stroke="midnightblue" points="1797.53,-195.42 1807.11,-190.907 1796.81,-188.457 1797.53,-195.42"/>
</g>
<!-- Node51 -->
<g id="node36" class="node"><title>Node51</title>
<g id="a_node36"><a xlink:href="_number_string_class_8hpp.html" target="_top" xlink:title=" ">
<polygon fill="white" stroke="red" points="57.9214,-175 57.9214,-195 180.079,-195 180.079,-175 57.9214,-175"/>
<text text-anchor="middle" x="119" y="-181" font-family="Helvetica,sans-Serif" font-size="10.00">NumberStringClass.hpp</text>
</a>
</g>
</g>
<!-- Node3&#45;&gt;Node51 -->
<g id="edge38" class="edge"><title>Node3&#45;&gt;Node51</title>
<path fill="none" stroke="midnightblue" d="M1092.42,-241.463C970.435,-239.324 548.711,-229.858 189.733,-195.976"/>
<polygon fill="midnightblue" stroke="midnightblue" points="189.952,-192.481 179.665,-195.018 189.288,-199.45 189.952,-192.481"/>
</g>
<!-- Node67 -->
<g id="node37" class="node"><title>Node67</title>
<g id="a_node37"><a xlink:href="_activity_manager_8hpp.html" target="_top" xlink:title=" ">
<polygon fill="white" stroke="red" points="1914.97,-175 1914.97,-195 2021.03,-195 2021.03,-175 1914.97,-175"/>
<text text-anchor="middle" x="1968" y="-181" font-family="Helvetica,sans-Serif" font-size="10.00">ActivityManager.hpp</text>
</a>
</g>
</g>
<!-- Node3&#45;&gt;Node67 -->
<g id="edge40" class="edge"><title>Node3&#45;&gt;Node67</title>
<path fill="none" stroke="midnightblue" d="M1161.61,-241.167C1269.75,-238.31 1611.04,-227.347 1904.78,-195.905"/>
<polygon fill="midnightblue" stroke="midnightblue" points="1905.21,-199.38 1914.77,-194.826 1904.46,-192.42 1905.21,-199.38"/>
</g>
<!-- Node5 -->
<g id="node5" class="node"><title>Node5</title>
<g id="a_node5"><a xlink:href="rexx_8h.html" target="_top" xlink:title=" ">
<polygon fill="white" stroke="red" points="320.384,-117 320.384,-137 363.616,-137 363.616,-117 320.384,-117"/>
<text text-anchor="middle" x="342" y="-123" font-family="Helvetica,sans-Serif" font-size="10.00">rexx.h</text>
</a>
</g>
</g>
<!-- Node4&#45;&gt;Node5 -->
<g id="edge4" class="edge"><title>Node4&#45;&gt;Node5</title>
<path fill="none" stroke="midnightblue" d="M430.496,-174.753C413.517,-165.783 387.542,-152.06 368.119,-141.799"/>
<polygon fill="midnightblue" stroke="midnightblue" points="369.655,-138.652 359.178,-137.075 366.385,-144.841 369.655,-138.652"/>
</g>
<!-- Node10 -->
<g id="node6" class="node"><title>Node10</title>
<g id="a_node6"><a xlink:href="oorexxerrors_8h.html" target="_top" xlink:title=" ">
<polygon fill="white" stroke="black" points="407.766,-117 407.766,-137 488.234,-137 488.234,-117 407.766,-117"/>
<text text-anchor="middle" x="448" y="-123" font-family="Helvetica,sans-Serif" font-size="10.00">oorexxerrors.h</text>
</a>
</g>
</g>
<!-- Node4&#45;&gt;Node10 -->
<g id="edge5" class="edge"><title>Node4&#45;&gt;Node10</title>
<path fill="none" stroke="midnightblue" d="M448,-174.753C448,-167.25 448,-156.424 448,-147.078"/>
<polygon fill="midnightblue" stroke="midnightblue" points="451.5,-147.075 448,-137.075 444.5,-147.075 451.5,-147.075"/>
</g>
<!-- Node17 -->
<g id="node13" class="node"><title>Node17</title>
<g id="a_node13"><a xlink:title=" ">
<polygon fill="white" stroke="#bfbfbf" points="712.87,-117 712.87,-137 821.13,-137 821.13,-117 712.87,-117"/>
<text text-anchor="middle" x="767" y="-123" font-family="Helvetica,sans-Serif" font-size="10.00">PlatformDefinitions.h</text>
</a>
</g>
</g>
<!-- Node16&#45;&gt;Node17 -->
<g id="edge12" class="edge"><title>Node16&#45;&gt;Node17</title>
<path fill="none" stroke="midnightblue" d="M817.927,-174.753C808.867,-166.435 795.355,-154.031 784.526,-144.089"/>
<polygon fill="midnightblue" stroke="midnightblue" points="786.619,-141.26 776.885,-137.075 781.885,-146.416 786.619,-141.26"/>
</g>
<!-- Node18 -->
<g id="node14" class="node"><title>Node18</title>
<g id="a_node14"><a xlink:href="_rexx_error_codes_8h.html" target="_top" xlink:title=" ">
<polygon fill="white" stroke="black" points="838.875,-117 838.875,-137 937.125,-137 937.125,-117 838.875,-117"/>
<text text-anchor="middle" x="888" y="-123" font-family="Helvetica,sans-Serif" font-size="10.00">RexxErrorCodes.h</text>
</a>
</g>
</g>
<!-- Node16&#45;&gt;Node18 -->
<g id="edge13" class="edge"><title>Node16&#45;&gt;Node18</title>
<path fill="none" stroke="midnightblue" d="M837.908,-174.753C846.82,-166.435 860.11,-154.031 870.762,-144.089"/>
<polygon fill="midnightblue" stroke="midnightblue" points="873.354,-146.457 878.277,-137.075 868.578,-141.34 873.354,-146.457"/>
</g>
<!-- Node23 -->
<g id="node19" class="node"><title>Node23</title>
<g id="a_node19"><a xlink:href="_numerics_8hpp.html" target="_top" xlink:title=" ">
<polygon fill="white" stroke="black" points="121.155,-117 121.155,-137 198.845,-137 198.845,-117 121.155,-117"/>
<text text-anchor="middle" x="160" y="-123" font-family="Helvetica,sans-Serif" font-size="10.00">Numerics.hpp</text>
</a>
</g>
</g>
<!-- Node22&#45;&gt;Node23 -->
<g id="edge18" class="edge"><title>Node22&#45;&gt;Node23</title>
<path fill="none" stroke="midnightblue" d="M229.294,-174.753C216.483,-166.109 197.13,-153.052 182.13,-142.931"/>
<polygon fill="midnightblue" stroke="midnightblue" points="183.698,-139.767 173.451,-137.075 179.783,-145.57 183.698,-139.767"/>
</g>
<!-- Node24 -->
<g id="node20" class="node"><title>Node24</title>
<g id="a_node20"><a xlink:title=" ">
<polygon fill="white" stroke="#bfbfbf" points="836.209,-59 836.209,-79 887.791,-79 887.791,-59 836.209,-59"/>
<text text-anchor="middle" x="862" y="-65" font-family="Helvetica,sans-Serif" font-size="10.00">stddef.h</text>
</a>
</g>
</g>
<!-- Node22&#45;&gt;Node24 -->
<g id="edge19" class="edge"><title>Node22&#45;&gt;Node24</title>
<path fill="none" stroke="midnightblue" d="M248.818,-174.951C259.201,-159.69 282.527,-129.208 311,-116 402.975,-73.3336 718.344,-69.7597 825.8,-69.8141"/>
<polygon fill="midnightblue" stroke="midnightblue" points="826.113,-73.3145 836.118,-69.8311 826.124,-66.3145 826.113,-73.3145"/>
</g>
<!-- Node26 -->
<g id="node22" class="node"><title>Node26</title>
<g id="a_node22"><a xlink:href="_rexx_collection_8hpp.html" target="_top" xlink:title=" ">
<polygon fill="white" stroke="red" points="1665.92,-1 1665.92,-21 1768.08,-21 1768.08,-1 1665.92,-1"/>
<text text-anchor="middle" x="1717" y="-7" font-family="Helvetica,sans-Serif" font-size="10.00">RexxCollection.hpp</text>
</a>
</g>
</g>
<!-- Node25&#45;&gt;Node26 -->
<g id="edge21" class="edge"><title>Node25&#45;&gt;Node26</title>
<path fill="none" stroke="midnightblue" d="M1717,-58.7527C1717,-51.2504 1717,-40.4238 1717,-31.0781"/>
<polygon fill="midnightblue" stroke="midnightblue" points="1720.5,-31.0752 1717,-21.0752 1713.5,-31.0752 1720.5,-31.0752"/>
</g>
<!-- Node30 -->
<g id="node25" class="node"><title>Node30</title>
<g id="a_node25"><a xlink:title=" ">
<polygon fill="white" stroke="#bfbfbf" points="1382.08,-117 1382.08,-137 1485.92,-137 1485.92,-117 1382.08,-117"/>
<text text-anchor="middle" x="1434" y="-123" font-family="Helvetica,sans-Serif" font-size="10.00">SysSemaphore.hpp</text>
</a>
</g>
</g>
<!-- Node29&#45;&gt;Node30 -->
<g id="edge24" class="edge"><title>Node29&#45;&gt;Node30</title>
<path fill="none" stroke="midnightblue" d="M1628.47,-174.94C1588.37,-165.262 1524.73,-149.901 1481.25,-139.406"/>
<polygon fill="midnightblue" stroke="midnightblue" points="1482.02,-135.991 1471.48,-137.047 1480.38,-142.795 1482.02,-135.991"/>
</g>
<!-- Node31 -->
<g id="node26" class="node"><title>Node31</title>
<g id="a_node26"><a xlink:href="_identity_table_class_8hpp.html" target="_top" xlink:title=" ">
<polygon fill="white" stroke="black" points="1615.69,-117 1615.69,-137 1732.31,-137 1732.31,-117 1615.69,-117"/>
<text text-anchor="middle" x="1674" y="-123" font-family="Helvetica,sans-Serif" font-size="10.00">IdentityTableClass.hpp</text>
</a>
</g>
</g>
<!-- Node29&#45;&gt;Node31 -->
<g id="edge25" class="edge"><title>Node29&#45;&gt;Node31</title>
<path fill="none" stroke="midnightblue" d="M1667.32,-174.753C1668.39,-167.25 1669.94,-156.424 1671.27,-147.078"/>
<polygon fill="midnightblue" stroke="midnightblue" points="1674.75,-147.47 1672.7,-137.075 1667.82,-146.48 1674.75,-147.47"/>
</g>
<!-- Node32 -->
<g id="node27" class="node"><title>Node32</title>
<g id="a_node27"><a xlink:href="_memory_stats_8hpp.html" target="_top" xlink:title=" ">
<polygon fill="white" stroke="black" points="1503.82,-117 1503.82,-137 1598.18,-137 1598.18,-117 1503.82,-117"/>
<text text-anchor="middle" x="1551" y="-123" font-family="Helvetica,sans-Serif" font-size="10.00">MemoryStats.hpp</text>
</a>
</g>
</g>
<!-- Node29&#45;&gt;Node32 -->
<g id="edge27" class="edge"><title>Node29&#45;&gt;Node32</title>
<path fill="none" stroke="midnightblue" d="M1647.27,-174.878C1628.72,-165.847 1600.11,-151.913 1578.89,-141.581"/>
<polygon fill="midnightblue" stroke="midnightblue" points="1580.25,-138.349 1569.72,-137.118 1577.18,-144.643 1580.25,-138.349"/>
</g>
<!-- Node33 -->
<g id="node28" class="node"><title>Node33</title>
<g id="a_node28"><a xlink:href="_memory_segment_8hpp.html" target="_top" xlink:title=" ">
<polygon fill="white" stroke="red" points="1209.2,-117 1209.2,-137 1320.8,-137 1320.8,-117 1209.2,-117"/>
<text text-anchor="middle" x="1265" y="-123" font-family="Helvetica,sans-Serif" font-size="10.00">MemorySegment.hpp</text>
</a>
</g>
</g>
<!-- Node29&#45;&gt;Node33 -->
<g id="edge29" class="edge"><title>Node29&#45;&gt;Node33</title>
<path fill="none" stroke="midnightblue" d="M1618.82,-177.411C1547.54,-167.458 1412.15,-148.549 1331.09,-137.229"/>
<polygon fill="midnightblue" stroke="midnightblue" points="1331.38,-133.736 1320.99,-135.819 1330.41,-140.669 1331.38,-133.736"/>
</g>
<!-- Node31&#45;&gt;Node25 -->
<g id="edge26" class="edge"><title>Node31&#45;&gt;Node25</title>
<path fill="none" stroke="midnightblue" d="M1681.1,-116.753C1687.24,-108.761 1696.27,-96.9975 1703.74,-87.2698"/>
<polygon fill="midnightblue" stroke="midnightblue" points="1706.72,-89.1383 1710.03,-79.0752 1701.17,-84.8751 1706.72,-89.1383"/>
</g>
<!-- Node32&#45;&gt;Node20 -->
<g id="edge28" class="edge"><title>Node32&#45;&gt;Node20</title>
<path fill="none" stroke="midnightblue" d="M1534.65,-116.753C1518.94,-107.864 1494.98,-94.3092 1476.89,-84.0793"/>
<polygon fill="midnightblue" stroke="midnightblue" points="1478.47,-80.9523 1468.04,-79.0752 1475.02,-87.0451 1478.47,-80.9523"/>
</g>
<!-- Node33&#45;&gt;Node24 -->
<g id="edge30" class="edge"><title>Node33&#45;&gt;Node24</title>
<path fill="none" stroke="midnightblue" d="M1208.96,-118.213C1125.03,-106.55 969.001,-84.8686 898.387,-75.0563"/>
<polygon fill="midnightblue" stroke="midnightblue" points="898.596,-71.5517 888.209,-73.6419 897.632,-78.4851 898.596,-71.5517"/>
</g>
<!-- Node45 -->
<g id="node33" class="node"><title>Node45</title>
<g id="a_node33"><a xlink:href="_expression_stack_8hpp.html" target="_top" xlink:title=" ">
<polygon fill="white" stroke="red" points="1788.03,-117 1788.03,-137 1897.97,-137 1897.97,-117 1788.03,-117"/>
<text text-anchor="middle" x="1843" y="-123" font-family="Helvetica,sans-Serif" font-size="10.00">ExpressionStack.hpp</text>
</a>
</g>
</g>
<!-- Node40&#45;&gt;Node45 -->
<g id="edge35" class="edge"><title>Node40&#45;&gt;Node45</title>
<path fill="none" stroke="midnightblue" d="M1850.51,-174.753C1849.31,-167.25 1847.57,-156.424 1846.07,-147.078"/>
<polygon fill="midnightblue" stroke="midnightblue" points="1849.5,-146.393 1844.46,-137.075 1842.59,-147.504 1849.5,-146.393"/>
</g>
<!-- Node47 -->
<g id="node34" class="node"><title>Node47</title>
<g id="a_node34"><a xlink:href="_rexx_local_variables_8hpp.html" target="_top" xlink:title=" ">
<polygon fill="white" stroke="red" points="1916.45,-117 1916.45,-137 2039.55,-137 2039.55,-117 1916.45,-117"/>
<text text-anchor="middle" x="1978" y="-123" font-family="Helvetica,sans-Serif" font-size="10.00">RexxLocalVariables.hpp</text>
</a>
</g>
</g>
<!-- Node40&#45;&gt;Node47 -->
<g id="edge36" class="edge"><title>Node40&#45;&gt;Node47</title>
<path fill="none" stroke="midnightblue" d="M1872.52,-174.878C1893.03,-165.766 1924.76,-151.662 1948.07,-141.303"/>
<polygon fill="midnightblue" stroke="midnightblue" points="1949.77,-144.378 1957.48,-137.118 1946.92,-137.981 1949.77,-144.378"/>
</g>
<!-- Node62 -->
<g id="node35" class="node"><title>Node62</title>
<g id="a_node35"><a xlink:href="_source_location_8hpp.html" target="_top" xlink:title=" ">
<polygon fill="white" stroke="black" points="2057.52,-117 2057.52,-137 2162.48,-137 2162.48,-117 2057.52,-117"/>
<text text-anchor="middle" x="2110" y="-123" font-family="Helvetica,sans-Serif" font-size="10.00">SourceLocation.hpp</text>
</a>
</g>
</g>
<!-- Node40&#45;&gt;Node62 -->
<g id="edge37" class="edge"><title>Node40&#45;&gt;Node62</title>
<path fill="none" stroke="midnightblue" d="M1893.74,-174.94C1938.61,-165.201 2010,-149.706 2058.37,-139.207"/>
<polygon fill="midnightblue" stroke="midnightblue" points="2059.29,-142.588 2068.32,-137.047 2057.81,-135.747 2059.29,-142.588"/>
</g>
<!-- Node51&#45;&gt;Node23 -->
<g id="edge39" class="edge"><title>Node51&#45;&gt;Node23</title>
<path fill="none" stroke="midnightblue" d="M125.77,-174.753C131.621,-166.761 140.234,-154.998 147.356,-145.27"/>
<polygon fill="midnightblue" stroke="midnightblue" points="150.272,-147.211 153.356,-137.075 144.624,-143.076 150.272,-147.211"/>
</g>
<!-- Node50&#45;&gt;Node51 -->
<g id="edge42" class="edge"><title>Node50&#45;&gt;Node51</title>
<path fill="none" stroke="midnightblue" d="M172.408,-290.788C161.75,-282.352 146.838,-268.936 138,-254 129.134,-239.017 124.258,-219.728 121.673,-205.523"/>
<polygon fill="midnightblue" stroke="midnightblue" points="125.09,-204.724 120.059,-195.4 118.177,-205.827 125.09,-204.724"/>
</g>
<!-- Node53 -->
<g id="node39" class="node"><title>Node53</title>
<g id="a_node39"><a xlink:href="_integer_class_8hpp.html" target="_top" xlink:title=" ">
<polygon fill="white" stroke="black" points="-0.800293,-233 -0.800293,-253 90.8003,-253 90.8003,-233 -0.800293,-233"/>
<text text-anchor="middle" x="45" y="-239" font-family="Helvetica,sans-Serif" font-size="10.00">IntegerClass.hpp</text>
</a>
</g>
</g>
<!-- Node50&#45;&gt;Node53 -->
<g id="edge43" class="edge"><title>Node50&#45;&gt;Node53</title>
<path fill="none" stroke="midnightblue" d="M162.195,-290.878C139.11,-281.644 103.208,-267.283 77.2217,-256.889"/>
<polygon fill="midnightblue" stroke="midnightblue" points="78.3799,-253.582 67.7952,-253.118 75.7801,-260.082 78.3799,-253.582"/>
</g>
<!-- Node54 -->
<g id="node40" class="node"><title>Node54</title>
<g id="a_node40"><a xlink:href="_string_util_8hpp.html" target="_top" xlink:title=" ">
<polygon fill="white" stroke="black" points="146.985,-233 146.985,-253 223.015,-253 223.015,-233 146.985,-233"/>
<text text-anchor="middle" x="185" y="-239" font-family="Helvetica,sans-Serif" font-size="10.00">StringUtil.hpp</text>
</a>
</g>
</g>
<!-- Node50&#45;&gt;Node54 -->
<g id="edge45" class="edge"><title>Node50&#45;&gt;Node54</title>
<path fill="none" stroke="midnightblue" d="M185,-290.753C185,-283.25 185,-272.424 185,-263.078"/>
<polygon fill="midnightblue" stroke="midnightblue" points="188.5,-263.075 185,-253.075 181.5,-263.075 188.5,-263.075"/>
</g>
<!-- Node55 -->
<g id="node41" class="node"><title>Node55</title>
<g id="a_node41"><a xlink:href="_utilities_8hpp.html" target="_top" xlink:title=" ">
<polygon fill="white" stroke="red" points="353.155,-233 353.155,-253 420.845,-253 420.845,-233 353.155,-233"/>
<text text-anchor="middle" x="387" y="-239" font-family="Helvetica,sans-Serif" font-size="10.00">Utilities.hpp</text>
</a>
</g>
</g>
<!-- Node50&#45;&gt;Node55 -->
<g id="edge46" class="edge"><title>Node50&#45;&gt;Node55</title>
<path fill="none" stroke="midnightblue" d="M217.904,-290.878C252.489,-281.29 307.012,-266.175 344.755,-255.712"/>
<polygon fill="midnightblue" stroke="midnightblue" points="345.743,-259.07 354.444,-253.025 343.873,-252.324 345.743,-259.07"/>
</g>
<!-- Node53&#45;&gt;Node51 -->
<g id="edge44" class="edge"><title>Node53&#45;&gt;Node51</title>
<path fill="none" stroke="midnightblue" d="M57.2196,-232.753C68.5343,-224.19 85.5708,-211.298 98.8897,-201.219"/>
<polygon fill="midnightblue" stroke="midnightblue" points="101.146,-203.901 107.008,-195.075 96.9216,-198.319 101.146,-203.901"/>
</g>
<!-- Node55&#45;&gt;Node5 -->
<g id="edge47" class="edge"><title>Node55&#45;&gt;Node5</title>
<path fill="none" stroke="midnightblue" d="M370.705,-232.869C358.343,-224.924 342.278,-212.155 335,-196 328.008,-180.479 331.049,-161.003 335.075,-146.877"/>
<polygon fill="midnightblue" stroke="midnightblue" points="338.434,-147.863 338.195,-137.271 331.777,-145.7 338.434,-147.863"/>
</g>
<!-- Node55&#45;&gt;Node12 -->
<g id="edge48" class="edge"><title>Node55&#45;&gt;Node12</title>
<path fill="none" stroke="midnightblue" d="M384.193,-232.753C381.891,-225.169 378.557,-214.188 375.699,-204.774"/>
<polygon fill="midnightblue" stroke="midnightblue" points="379.009,-203.627 372.755,-195.075 372.311,-205.661 379.009,-203.627"/>
</g>
<!-- Node69&#45;&gt;Node45 -->
<g id="edge50" class="edge"><title>Node69&#45;&gt;Node45</title>
<path fill="none" stroke="midnightblue" d="M1716.91,-348.864C1730.23,-340.834 1748.27,-327.952 1759,-312 1794.57,-259.111 1766.06,-229.155 1798,-174 1804.52,-162.749 1814.41,-152.221 1823.26,-144.084"/>
<polygon fill="midnightblue" stroke="midnightblue" points="1825.75,-146.553 1830.97,-137.331 1821.14,-141.287 1825.75,-146.553"/>
</g>
<!-- Node70 -->
<g id="node43" class="node"><title>Node70</title>
<g id="a_node43"><a xlink:href="_do_block_8hpp.html" target="_top" xlink:title=" ">
<polygon fill="white" stroke="black" points="1458.65,-291 1458.65,-311 1531.35,-311 1531.35,-291 1458.65,-291"/>
<text text-anchor="middle" x="1495" y="-297" font-family="Helvetica,sans-Serif" font-size="10.00">DoBlock.hpp</text>
</a>
</g>
</g>
<!-- Node69&#45;&gt;Node70 -->
<g id="edge51" class="edge"><title>Node69&#45;&gt;Node70</title>
<path fill="none" stroke="midnightblue" d="M1666.61,-348.878C1631.51,-339.29 1576.18,-324.175 1537.87,-313.712"/>
<polygon fill="midnightblue" stroke="midnightblue" points="1538.61,-310.284 1528.04,-311.025 1536.76,-317.037 1538.61,-310.284"/>
</g>
<!-- Node69&#45;&gt;Node47 -->
<g id="edge52" class="edge"><title>Node69&#45;&gt;Node47</title>
<path fill="none" stroke="midnightblue" d="M1750.9,-353.914C1816.46,-347.822 1925.89,-334.583 1959,-312 2008.93,-277.936 2013.61,-254.181 2030,-196 2032.65,-186.589 2034.02,-182.915 2030,-174 2024.31,-161.379 2013.26,-150.825 2002.81,-143.022"/>
<polygon fill="midnightblue" stroke="midnightblue" points="2004.51,-139.943 1994.3,-137.131 2000.53,-145.699 2004.51,-139.943"/>
</g>
<!-- Node71 -->
<g id="node44" class="node"><title>Node71</title>
<g id="a_node44"><a xlink:href="_rexx_date_time_8hpp.html" target="_top" xlink:title=" ">
<polygon fill="white" stroke="black" points="1649.39,-291 1649.39,-311 1750.61,-311 1750.61,-291 1649.39,-291"/>
<text text-anchor="middle" x="1700" y="-297" font-family="Helvetica,sans-Serif" font-size="10.00">RexxDateTime.hpp</text>
</a>
</g>
</g>
<!-- Node69&#45;&gt;Node71 -->
<g id="edge53" class="edge"><title>Node69&#45;&gt;Node71</title>
<path fill="none" stroke="midnightblue" d="M1700,-348.753C1700,-341.25 1700,-330.424 1700,-321.078"/>
<polygon fill="midnightblue" stroke="midnightblue" points="1703.5,-321.075 1700,-311.075 1696.5,-321.075 1703.5,-321.075"/>
</g>
<!-- Node72 -->
<g id="node45" class="node"><title>Node72</title>
<g id="a_node45"><a xlink:href="_rexx_code_8hpp.html" target="_top" xlink:title=" ">
<polygon fill="white" stroke="red" points="1548.92,-291 1548.92,-311 1631.08,-311 1631.08,-291 1548.92,-291"/>
<text text-anchor="middle" x="1590" y="-297" font-family="Helvetica,sans-Serif" font-size="10.00">RexxCode.hpp</text>
</a>
</g>
</g>
<!-- Node69&#45;&gt;Node72 -->
<g id="edge55" class="edge"><title>Node69&#45;&gt;Node72</title>
<path fill="none" stroke="midnightblue" d="M1681.84,-348.753C1664.14,-339.742 1637.02,-325.935 1616.83,-315.659"/>
<polygon fill="midnightblue" stroke="midnightblue" points="1618.33,-312.493 1607.83,-311.075 1615.15,-318.731 1618.33,-312.493"/>
</g>
<!-- Node69&#45;&gt;Node67 -->
<g id="edge56" class="edge"><title>Node69&#45;&gt;Node67</title>
<path fill="none" stroke="midnightblue" d="M1750.81,-354.548C1812.55,-349.302 1911.75,-337.147 1938,-312 1967.26,-283.971 1970.19,-232.982 1969.36,-205.236"/>
<polygon fill="midnightblue" stroke="midnightblue" points="1972.86,-205.027 1968.87,-195.213 1965.87,-205.374 1972.86,-205.027"/>
</g>
<!-- Node81 -->
<g id="node46" class="node"><title>Node81</title>
<g id="a_node46"><a xlink:href="_rexx_compound_tail_8hpp.html" target="_top" xlink:title=" ">
<polygon fill="white" stroke="red" points="1806.91,-291 1806.91,-311 1929.09,-311 1929.09,-291 1806.91,-291"/>
<text text-anchor="middle" x="1868" y="-297" font-family="Helvetica,sans-Serif" font-size="10.00">RexxCompoundTail.hpp</text>
</a>
</g>
</g>
<!-- Node69&#45;&gt;Node81 -->
<g id="edge57" class="edge"><title>Node69&#45;&gt;Node81</title>
<path fill="none" stroke="midnightblue" d="M1727.37,-348.878C1755.64,-339.453 1799.94,-324.688 1831.25,-314.25"/>
<polygon fill="midnightblue" stroke="midnightblue" points="1832.54,-317.508 1840.92,-311.025 1830.33,-310.867 1832.54,-317.508"/>
</g>
<!-- Node82 -->
<g id="node47" class="node"><title>Node82</title>
<g id="a_node47"><a xlink:href="_context_class_8hpp.html" target="_top" xlink:title=" ">
<polygon fill="white" stroke="black" points="240.535,-233 240.535,-253 335.465,-253 335.465,-233 240.535,-233"/>
<text text-anchor="middle" x="288" y="-239" font-family="Helvetica,sans-Serif" font-size="10.00">ContextClass.hpp</text>
</a>
</g>
</g>
<!-- Node69&#45;&gt;Node82 -->
<g id="edge58" class="edge"><title>Node69&#45;&gt;Node82</title>
<path fill="none" stroke="midnightblue" d="M1649.02,-355.934C1470.78,-348.32 858.927,-318.91 345.81,-254.13"/>
<polygon fill="midnightblue" stroke="midnightblue" points="345.97,-250.623 335.609,-252.836 345.089,-257.567 345.97,-250.623"/>
</g>
<!-- Node71&#45;&gt;Node3 -->
<g id="edge54" class="edge"><title>Node71&#45;&gt;Node3</title>
<path fill="none" stroke="midnightblue" d="M1649.3,-291.273C1646.16,-290.818 1643.04,-290.389 1640,-290 1467.44,-267.916 1260.89,-252.831 1171.66,-246.862"/>
<polygon fill="midnightblue" stroke="midnightblue" points="1171.83,-243.366 1161.62,-246.196 1171.37,-250.35 1171.83,-243.366"/>
</g>
<!-- Node82&#45;&gt;Node22 -->
<g id="edge59" class="edge"><title>Node82&#45;&gt;Node22</title>
<path fill="none" stroke="midnightblue" d="M280.569,-232.753C274.082,-224.68 264.501,-212.757 256.639,-202.973"/>
<polygon fill="midnightblue" stroke="midnightblue" points="259.285,-200.678 250.293,-195.075 253.828,-205.063 259.285,-200.678"/>
</g>
<!-- Node84 -->
<g id="node49" class="node"><title>Node84</title>
<g id="a_node49"><a xlink:href="_rexx_instruction_8hpp.html" target="_top" xlink:title=" ">
<polygon fill="white" stroke="black" points="2114.81,-233 2114.81,-253 2219.19,-253 2219.19,-233 2114.81,-233"/>
<text text-anchor="middle" x="2167" y="-239" font-family="Helvetica,sans-Serif" font-size="10.00">RexxInstruction.hpp</text>
</a>
</g>
</g>
<!-- Node83&#45;&gt;Node84 -->
<g id="edge61" class="edge"><title>Node83&#45;&gt;Node84</title>
<path fill="none" stroke="midnightblue" d="M2092.63,-348.671C2106.16,-329.621 2137.17,-285.987 2154.57,-261.497"/>
<polygon fill="midnightblue" stroke="midnightblue" points="2157.57,-263.318 2160.51,-253.139 2151.86,-259.264 2157.57,-263.318"/>
</g>
<!-- Node84&#45;&gt;Node62 -->
<g id="edge62" class="edge"><title>Node84&#45;&gt;Node62</title>
<path fill="none" stroke="midnightblue" d="M2162.34,-232.671C2152.89,-213.789 2131.38,-170.754 2119.07,-146.149"/>
<polygon fill="midnightblue" stroke="midnightblue" points="2122.17,-144.518 2114.57,-137.139 2115.91,-147.649 2122.17,-144.518"/>
</g>
<!-- Node75&#45;&gt;Node62 -->
<g id="edge64" class="edge"><title>Node75&#45;&gt;Node62</title>
<path fill="none" stroke="midnightblue" d="M1950.29,-356.553C1982.99,-353.329 2033.57,-343.225 2063,-312 2106.67,-265.671 2111.2,-184.543 2110.79,-147.474"/>
<polygon fill="midnightblue" stroke="midnightblue" points="2114.28,-146.995 2110.53,-137.087 2107.28,-147.172 2114.28,-146.995"/>
</g>
</g>
</svg>
        <g id="navigator" transform="translate(0 0)" fill="#404254">
                <rect fill="#f2f5e9" fill-opacity="0.5" stroke="#606060" stroke-width=".5" x="0" y="0" width="60" height="60"/>
                <use id="zoomplus" xlink:href="#zoomPlus" x="17" y="9" onmousedown="handleZoom(evt,'in')"/>
                <use id="zoomminus" xlink:href="#zoomMin" x="42" y="9" onmousedown="handleZoom(evt,'out')"/>
                <use id="reset" xlink:href="#resetDef" x="30" y="36" onmousedown="handleReset()"/>
                <g id="arrowUp" xlink:href="#dirArrow" transform="translate(30 24)" onmousedown="handlePan(0,-1)">
                  <use xlink:href="#rim" fill="#404040">
                        <set attributeName="fill" to="#808080" begin="arrowUp.mouseover" end="arrowUp.mouseout"/>
                  </use>
                  <path fill="none" stroke="white" stroke-width="1.5" d="M0,-3.0v7 M-2.5,-0.5L0,-3.0L2.5,-0.5"/>
                </g>
                <g id="arrowRight" xlink:href="#dirArrow" transform="rotate(90) translate(36 -43)" onmousedown="handlePan(1,0)">
                  <use xlink:href="#rim" fill="#404040">
                        <set attributeName="fill" to="#808080" begin="arrowRight.mouseover" end="arrowRight.mouseout"/>
                  </use>
                  <path fill="none" stroke="white" stroke-width="1.5" d="M0,-3.0v7 M-2.5,-0.5L0,-3.0L2.5,-0.5"/>
                </g>
                <g id="arrowDown" xlink:href="#dirArrow" transform="rotate(180) translate(-30 -48)" onmousedown="handlePan(0,1)">
                  <use xlink:href="#rim" fill="#404040">
                        <set attributeName="fill" to="#808080" begin="arrowDown.mouseover" end="arrowDown.mouseout"/>
                  </use>
                  <path fill="none" stroke="white" stroke-width="1.5" d="M0,-3.0v7 M-2.5,-0.5L0,-3.0L2.5,-0.5"/>
                </g>
                <g id="arrowLeft" xlink:href="#dirArrow" transform="rotate(270) translate(-36 17)" onmousedown="handlePan(-1,0)">
                  <use xlink:href="#rim" fill="#404040">
                        <set attributeName="fill" to="#808080" begin="arrowLeft.mouseover" end="arrowLeft.mouseout"/>
                  </use>
                  <path fill="none" stroke="white" stroke-width="1.5" d="M0,-3.0v7 M-2.5,-0.5L0,-3.0L2.5,-0.5"/>
                </g>
        </g>
        <svg viewBox="0 0 15 15" width="100%" height="30px" preserveAspectRatio="xMaxYMin meet">
         <g id="arrow_out" transform="scale(0.3 0.3)">
          <a xlink:href="_numeric_instruction_8cpp__incl_org.svg" target="_base">
           <rect id="button" ry="5" rx="5" y="6" x="6" height="38" width="38"
                fill="#f2f5e9" fill-opacity="0.5" stroke="#606060" stroke-width="1.0"/>
           <path id="arrow"
             d="M 11.500037,31.436501 C 11.940474,20.09759 22.043105,11.32322 32.158766,21.979434 L 37.068811,17.246167 C 37.068811,17.246167 37.088388,32 37.088388,32 L 22.160133,31.978069 C 22.160133,31.978069 26.997745,27.140456 26.997745,27.140456 C 18.528582,18.264221 13.291696,25.230495 11.500037,31.436501 z"
             style="fill:#404040;"/>
          </a>
         </g>
        </svg>
</svg>
