<?xml version="1.0" encoding="UTF-8" standalone="no"?>
<!DOCTYPE svg PUBLIC "-//W3C//DTD SVG 1.1//EN"
 "http://www.w3.org/Graphics/SVG/1.1/DTD/svg11.dtd">
<!-- Generated by graphviz version 2.30.1 (20130222.1704)
 -->
<!-- Title: PackageManager.hpp Pages: 1 -->
<svg width="2607pt" height="494pt"
 viewBox="0.00 0.00 2607.40 494.00" xmlns="http://www.w3.org/2000/svg" xmlns:xlink="http://www.w3.org/1999/xlink">
<g id="graph0" class="graph" transform="scale(1 1) rotate(0) translate(4 490)">
<title>PackageManager.hpp</title>
<polygon fill="white" stroke="white" points="-4,5 -4,-490 2604.4,-490 2604.4,5 -4,5"/>
<!-- Node1 -->
<g id="node1" class="node"><title>Node1</title>
<g id="a_node1"><a xlink:title=" ">
<polygon fill="#bfbfbf" stroke="black" points="1084.35,-465 1084.35,-485 1197.65,-485 1197.65,-465 1084.35,-465"/>
<text text-anchor="middle" x="1141" y="-471" font-family="Helvetica,sans-Serif" font-size="10.00">PackageManager.hpp</text>
</a>
</g>
</g>
<!-- Node2 -->
<g id="node2" class="node"><title>Node2</title>
<g id="a_node2"><a xlink:href="_rexx_core_8h.html" target="_top" xlink:title=" ">
<polygon fill="white" stroke="black" points="1072.6,-233 1072.6,-253 1141.4,-253 1141.4,-233 1072.6,-233"/>
<text text-anchor="middle" x="1107" y="-239" font-family="Helvetica,sans-Serif" font-size="10.00">RexxCore.h</text>
</a>
</g>
</g>
<!-- Node1&#45;&gt;Node2 -->
<g id="edge1" class="edge"><title>Node1&#45;&gt;Node2</title>
<path fill="none" stroke="midnightblue" d="M1138.91,-464.927C1133.35,-440.42 1118.14,-370.776 1111,-312 1109.02,-295.675 1108.01,-277.02 1107.5,-263.384"/>
<polygon fill="midnightblue" stroke="midnightblue" points="1110.99,-263.156 1107.18,-253.272 1104,-263.377 1110.99,-263.156"/>
</g>
<!-- Node68 -->
<g id="node47" class="node"><title>Node68</title>
<g id="a_node47"><a xlink:href="_library_package_8hpp.html" target="_top" xlink:title=" ">
<polygon fill="white" stroke="black" points="1142.53,-407 1142.53,-427 1247.47,-427 1247.47,-407 1142.53,-407"/>
<text text-anchor="middle" x="1195" y="-413" font-family="Helvetica,sans-Serif" font-size="10.00">LibraryPackage.hpp</text>
</a>
</g>
</g>
<!-- Node1&#45;&gt;Node68 -->
<g id="edge52" class="edge"><title>Node1&#45;&gt;Node68</title>
<path fill="none" stroke="midnightblue" d="M1149.92,-464.753C1157.86,-456.516 1169.66,-444.274 1179.2,-434.382"/>
<polygon fill="midnightblue" stroke="midnightblue" points="1181.83,-436.703 1186.25,-427.075 1176.79,-431.844 1181.83,-436.703"/>
</g>
<!-- Node3 -->
<g id="node3" class="node"><title>Node3</title>
<g id="a_node3"><a xlink:href="oorexxapi_8h.html" target="_top" xlink:title=" ">
<polygon fill="white" stroke="black" points="2039.15,-175 2039.15,-195 2106.85,-195 2106.85,-175 2039.15,-175"/>
<text text-anchor="middle" x="2073" y="-181" font-family="Helvetica,sans-Serif" font-size="10.00">oorexxapi.h</text>
</a>
</g>
</g>
<!-- Node2&#45;&gt;Node3 -->
<g id="edge2" class="edge"><title>Node2&#45;&gt;Node3</title>
<path fill="none" stroke="midnightblue" d="M1141.67,-239.99C1289.14,-231.441 1864.34,-198.096 2028.84,-188.56"/>
<polygon fill="midnightblue" stroke="midnightblue" points="2029.29,-192.04 2039.07,-187.967 2028.88,-185.052 2029.29,-192.04"/>
</g>
<!-- Node10 -->
<g id="node6" class="node"><title>Node10</title>
<g id="a_node6"><a xlink:title=" ">
<polygon fill="white" stroke="#bfbfbf" points="2125.27,-175 2125.27,-195 2170.73,-195 2170.73,-175 2125.27,-175"/>
<text text-anchor="middle" x="2148" y="-181" font-family="Helvetica,sans-Serif" font-size="10.00">stdio.h</text>
</a>
</g>
</g>
<!-- Node2&#45;&gt;Node10 -->
<g id="edge5" class="edge"><title>Node2&#45;&gt;Node10</title>
<path fill="none" stroke="midnightblue" d="M1141.51,-241.575C1295.6,-239.502 1921.73,-229.16 2115,-196 2115.1,-195.982 2115.21,-195.964 2115.31,-195.946"/>
<polygon fill="midnightblue" stroke="midnightblue" points="2116.11,-199.353 2125.1,-193.736 2114.57,-192.525 2116.11,-199.353"/>
</g>
<!-- Node11 -->
<g id="node7" class="node"><title>Node11</title>
<g id="a_node7"><a xlink:title=" ">
<polygon fill="white" stroke="#bfbfbf" points="13.9336,-175 13.9336,-195 66.0664,-195 66.0664,-175 13.9336,-175"/>
<text text-anchor="middle" x="40" y="-181" font-family="Helvetica,sans-Serif" font-size="10.00">stdarg.h</text>
</a>
</g>
</g>
<!-- Node2&#45;&gt;Node11 -->
<g id="edge6" class="edge"><title>Node2&#45;&gt;Node11</title>
<path fill="none" stroke="midnightblue" d="M1072.47,-241.544C918.564,-239.349 293.44,-228.661 76.2541,-195.786"/>
<polygon fill="midnightblue" stroke="midnightblue" points="76.647,-192.305 66.2238,-194.204 75.5562,-199.22 76.647,-192.305"/>
</g>
<!-- Node12 -->
<g id="node8" class="node"><title>Node12</title>
<g id="a_node8"><a xlink:title=" ">
<polygon fill="white" stroke="#bfbfbf" points="83.6035,-175 83.6035,-195 132.396,-195 132.396,-175 83.6035,-175"/>
<text text-anchor="middle" x="108" y="-181" font-family="Helvetica,sans-Serif" font-size="10.00">string.h</text>
</a>
</g>
</g>
<!-- Node2&#45;&gt;Node12 -->
<g id="edge7" class="edge"><title>Node2&#45;&gt;Node12</title>
<path fill="none" stroke="midnightblue" d="M1072.47,-241.456C924.949,-238.967 346.184,-227.465 142.703,-195.641"/>
<polygon fill="midnightblue" stroke="midnightblue" points="143.156,-192.169 132.723,-194.012 142.028,-199.078 143.156,-192.169"/>
</g>
<!-- Node13 -->
<g id="node9" class="node"><title>Node13</title>
<g id="a_node9"><a xlink:title=" ">
<polygon fill="white" stroke="#bfbfbf" points="150.879,-175 150.879,-195 199.121,-195 199.121,-175 150.879,-175"/>
<text text-anchor="middle" x="175" y="-181" font-family="Helvetica,sans-Serif" font-size="10.00">ctype.h</text>
</a>
</g>
</g>
<!-- Node2&#45;&gt;Node13 -->
<g id="edge8" class="edge"><title>Node2&#45;&gt;Node13</title>
<path fill="none" stroke="midnightblue" d="M1072.2,-241.349C930.816,-238.533 398.422,-226.229 209.427,-195.797"/>
<polygon fill="midnightblue" stroke="midnightblue" points="209.791,-192.31 199.348,-194.099 208.628,-199.212 209.791,-192.31"/>
</g>
<!-- Node14 -->
<g id="node10" class="node"><title>Node14</title>
<g id="a_node10"><a xlink:title=" ">
<polygon fill="white" stroke="#bfbfbf" points="217.443,-175 217.443,-195 264.557,-195 264.557,-175 217.443,-175"/>
<text text-anchor="middle" x="241" y="-181" font-family="Helvetica,sans-Serif" font-size="10.00">limits.h</text>
</a>
</g>
</g>
<!-- Node2&#45;&gt;Node14 -->
<g id="edge9" class="edge"><title>Node2&#45;&gt;Node14</title>
<path fill="none" stroke="midnightblue" d="M1072.41,-241.234C938.042,-238.084 449.909,-224.99 274.695,-195.852"/>
<polygon fill="midnightblue" stroke="midnightblue" points="275.055,-192.362 264.602,-194.092 273.852,-199.258 275.055,-192.362"/>
</g>
<!-- Node15 -->
<g id="node11" class="node"><title>Node15</title>
<g id="a_node11"><a xlink:href="_rexx_platform_definitions_8h.html" target="_top" xlink:title=" ">
<polygon fill="white" stroke="black" points="282.478,-175 282.478,-195 413.522,-195 413.522,-175 282.478,-175"/>
<text text-anchor="middle" x="348" y="-181" font-family="Helvetica,sans-Serif" font-size="10.00">RexxPlatformDefinitions.h</text>
</a>
</g>
</g>
<!-- Node2&#45;&gt;Node15 -->
<g id="edge10" class="edge"><title>Node2&#45;&gt;Node15</title>
<path fill="none" stroke="midnightblue" d="M1072.36,-240.499C973.051,-236.02 678.639,-221.519 423.161,-196.054"/>
<polygon fill="midnightblue" stroke="midnightblue" points="423.243,-192.545 412.943,-195.028 422.543,-199.51 423.243,-192.545"/>
</g>
<!-- Node18 -->
<g id="node14" class="node"><title>Node18</title>
<g id="a_node14"><a xlink:href="_rexx_constants_8hpp.html" target="_top" xlink:title=" ">
<polygon fill="white" stroke="black" points="431.365,-175 431.365,-195 534.635,-195 534.635,-175 431.365,-175"/>
<text text-anchor="middle" x="483" y="-181" font-family="Helvetica,sans-Serif" font-size="10.00">RexxConstants.hpp</text>
</a>
</g>
</g>
<!-- Node2&#45;&gt;Node18 -->
<g id="edge13" class="edge"><title>Node2&#45;&gt;Node18</title>
<path fill="none" stroke="midnightblue" d="M1072.31,-239.965C984.513,-234.635 746.438,-219.068 549,-196 547.705,-195.849 546.396,-195.691 545.078,-195.529"/>
<polygon fill="midnightblue" stroke="midnightblue" points="545.204,-192.016 534.836,-194.195 544.3,-198.957 545.204,-192.016"/>
</g>
<!-- Node19 -->
<g id="node15" class="node"><title>Node19</title>
<g id="a_node15"><a xlink:href="_class_type_codes_8h.html" target="_top" xlink:title=" ">
<polygon fill="white" stroke="black" points="240.032,-59 240.032,-79 339.968,-79 339.968,-59 240.032,-59"/>
<text text-anchor="middle" x="290" y="-65" font-family="Helvetica,sans-Serif" font-size="10.00">ClassTypeCodes.h</text>
</a>
</g>
</g>
<!-- Node2&#45;&gt;Node19 -->
<g id="edge14" class="edge"><title>Node2&#45;&gt;Node19</title>
<path fill="none" stroke="midnightblue" d="M1072.58,-240.884C971.066,-237.294 674.202,-224.572 582,-196 562.991,-190.109 561.874,-180.309 543,-174 485.174,-154.67 311.186,-183.855 271,-138 258.69,-123.953 267.765,-102.537 277.13,-87.5007"/>
<polygon fill="midnightblue" stroke="midnightblue" points="280.116,-89.3327 282.809,-79.0859 274.314,-85.4167 280.116,-89.3327"/>
</g>
<!-- Node20 -->
<g id="node16" class="node"><title>Node20</title>
<g id="a_node16"><a xlink:href="_global_names_8h.html" target="_top" xlink:title=" ">
<polygon fill="white" stroke="black" points="1064.54,-175 1064.54,-195 1149.46,-195 1149.46,-175 1064.54,-175"/>
<text text-anchor="middle" x="1107" y="-181" font-family="Helvetica,sans-Serif" font-size="10.00">GlobalNames.h</text>
</a>
</g>
</g>
<!-- Node2&#45;&gt;Node20 -->
<g id="edge15" class="edge"><title>Node2&#45;&gt;Node20</title>
<path fill="none" stroke="midnightblue" d="M1107,-232.753C1107,-225.25 1107,-214.424 1107,-205.078"/>
<polygon fill="midnightblue" stroke="midnightblue" points="1110.5,-205.075 1107,-195.075 1103.5,-205.075 1110.5,-205.075"/>
</g>
<!-- Node21 -->
<g id="node17" class="node"><title>Node21</title>
<g id="a_node17"><a xlink:href="_object_class_8hpp.html" target="_top" xlink:title=" ">
<polygon fill="white" stroke="black" points="816.315,-175 816.315,-195 905.685,-195 905.685,-175 816.315,-175"/>
<text text-anchor="middle" x="861" y="-181" font-family="Helvetica,sans-Serif" font-size="10.00">ObjectClass.hpp</text>
</a>
</g>
</g>
<!-- Node2&#45;&gt;Node21 -->
<g id="edge16" class="edge"><title>Node2&#45;&gt;Node21</title>
<path fill="none" stroke="midnightblue" d="M1072.54,-234.154C1030.44,-224.571 958.909,-208.288 910.823,-197.342"/>
<polygon fill="midnightblue" stroke="midnightblue" points="911.465,-193.898 900.937,-195.091 909.911,-200.724 911.465,-193.898"/>
</g>
<!-- Node24 -->
<g id="node20" class="node"><title>Node24</title>
<g id="a_node20"><a xlink:href="_table_class_8hpp.html" target="_top" xlink:title=" ">
<polygon fill="white" stroke="black" points="582.813,-59 582.813,-79 667.187,-79 667.187,-59 582.813,-59"/>
<text text-anchor="middle" x="625" y="-65" font-family="Helvetica,sans-Serif" font-size="10.00">TableClass.hpp</text>
</a>
</g>
</g>
<!-- Node2&#45;&gt;Node24 -->
<g id="edge19" class="edge"><title>Node2&#45;&gt;Node24</title>
<path fill="none" stroke="midnightblue" d="M1072.41,-240.662C1002.74,-237.343 848.635,-226.656 807,-196 775.147,-172.547 797.889,-141.91 768,-116 742.705,-94.072 706.823,-82.5689 677.331,-76.5493"/>
<polygon fill="midnightblue" stroke="midnightblue" points="677.668,-73.0514 667.193,-74.6407 676.373,-79.9306 677.668,-73.0514"/>
</g>
<!-- Node27 -->
<g id="node22" class="node"><title>Node27</title>
<g id="a_node22"><a xlink:href="_stack_class_8hpp.html" target="_top" xlink:title=" ">
<polygon fill="white" stroke="black" points="1167.26,-175 1167.26,-195 1252.74,-195 1252.74,-175 1167.26,-175"/>
<text text-anchor="middle" x="1210" y="-181" font-family="Helvetica,sans-Serif" font-size="10.00">StackClass.hpp</text>
</a>
</g>
</g>
<!-- Node2&#45;&gt;Node27 -->
<g id="edge21" class="edge"><title>Node2&#45;&gt;Node27</title>
<path fill="none" stroke="midnightblue" d="M1124.01,-232.753C1140.43,-223.823 1165.52,-210.185 1184.36,-199.939"/>
<polygon fill="midnightblue" stroke="midnightblue" points="1186.19,-202.927 1193.31,-195.075 1182.85,-196.777 1186.19,-202.927"/>
</g>
<!-- Node28 -->
<g id="node23" class="node"><title>Node28</title>
<g id="a_node23"><a xlink:href="_rexx_memory_8hpp.html" target="_top" xlink:title=" ">
<polygon fill="white" stroke="black" points="591.189,-175 591.189,-195 684.811,-195 684.811,-175 591.189,-175"/>
<text text-anchor="middle" x="638" y="-181" font-family="Helvetica,sans-Serif" font-size="10.00">RexxMemory.hpp</text>
</a>
</g>
</g>
<!-- Node2&#45;&gt;Node28 -->
<g id="edge22" class="edge"><title>Node2&#45;&gt;Node28</title>
<path fill="none" stroke="midnightblue" d="M1072.51,-237.882C992.525,-228.331 793.697,-204.591 695.185,-192.828"/>
<polygon fill="midnightblue" stroke="midnightblue" points="695.457,-189.336 685.113,-191.625 694.627,-196.286 695.457,-189.336"/>
</g>
<!-- Node35 -->
<g id="node28" class="node"><title>Node35</title>
<g id="a_node28"><a xlink:href="_rexx_behaviour_8hpp.html" target="_top" xlink:title=" ">
<polygon fill="white" stroke="black" points="1270.64,-175 1270.64,-195 1373.36,-195 1373.36,-175 1270.64,-175"/>
<text text-anchor="middle" x="1322" y="-181" font-family="Helvetica,sans-Serif" font-size="10.00">RexxBehaviour.hpp</text>
</a>
</g>
</g>
<!-- Node2&#45;&gt;Node35 -->
<g id="edge30" class="edge"><title>Node2&#45;&gt;Node35</title>
<path fill="none" stroke="midnightblue" d="M1141.54,-233.003C1178.42,-223.397 1236.99,-208.143 1277.34,-197.632"/>
<polygon fill="midnightblue" stroke="midnightblue" points="1278.39,-200.976 1287.19,-195.068 1276.63,-194.202 1278.39,-200.976"/>
</g>
<!-- Node37 -->
<g id="node30" class="node"><title>Node37</title>
<g id="a_node30"><a xlink:href="_class_class_8hpp.html" target="_top" xlink:title=" ">
<polygon fill="white" stroke="black" points="1391.26,-175 1391.26,-195 1476.74,-195 1476.74,-175 1391.26,-175"/>
<text text-anchor="middle" x="1434" y="-181" font-family="Helvetica,sans-Serif" font-size="10.00">ClassClass.hpp</text>
</a>
</g>
</g>
<!-- Node2&#45;&gt;Node37 -->
<g id="edge32" class="edge"><title>Node2&#45;&gt;Node37</title>
<path fill="none" stroke="midnightblue" d="M1141.78,-236.46C1192.17,-228.373 1288.67,-212.657 1381.08,-196.132"/>
<polygon fill="midnightblue" stroke="midnightblue" points="1381.94,-199.534 1391.17,-194.322 1380.71,-192.644 1381.94,-199.534"/>
</g>
<!-- Node38 -->
<g id="node31" class="node"><title>Node38</title>
<g id="a_node31"><a xlink:href="_rexx_envelope_8hpp.html" target="_top" xlink:title=" ">
<polygon fill="white" stroke="black" points="1495.03,-175 1495.03,-195 1594.97,-195 1594.97,-175 1495.03,-175"/>
<text text-anchor="middle" x="1545" y="-181" font-family="Helvetica,sans-Serif" font-size="10.00">RexxEnvelope.hpp</text>
</a>
</g>
</g>
<!-- Node2&#45;&gt;Node38 -->
<g id="edge33" class="edge"><title>Node2&#45;&gt;Node38</title>
<path fill="none" stroke="midnightblue" d="M1141.47,-238.32C1208,-231.103 1358.71,-214.199 1485,-196 1485.1,-195.985 1485.2,-195.971 1485.3,-195.956"/>
<polygon fill="midnightblue" stroke="midnightblue" points="1485.56,-199.456 1494.94,-194.513 1484.53,-192.534 1485.56,-199.456"/>
</g>
<!-- Node39 -->
<g id="node32" class="node"><title>Node39</title>
<g id="a_node32"><a xlink:href="_rexx_activity_8hpp.html" target="_top" xlink:title=" ">
<polygon fill="white" stroke="black" points="1629.41,-175 1629.41,-195 1718.59,-195 1718.59,-175 1629.41,-175"/>
<text text-anchor="middle" x="1674" y="-181" font-family="Helvetica,sans-Serif" font-size="10.00">RexxActivity.hpp</text>
</a>
</g>
</g>
<!-- Node2&#45;&gt;Node39 -->
<g id="edge34" class="edge"><title>Node2&#45;&gt;Node39</title>
<path fill="none" stroke="midnightblue" d="M1141.64,-239.357C1222.53,-233.059 1430.13,-216.178 1603,-196 1608.33,-195.378 1613.88,-194.681 1619.43,-193.953"/>
<polygon fill="midnightblue" stroke="midnightblue" points="1619.91,-197.42 1629.35,-192.618 1618.97,-190.483 1619.91,-197.42"/>
</g>
<!-- Node50 -->
<g id="node43" class="node"><title>Node50</title>
<g id="a_node43"><a xlink:href="_number_string_class_8hpp.html" target="_top" xlink:title=" ">
<polygon fill="white" stroke="black" points="923.921,-175 923.921,-195 1046.08,-195 1046.08,-175 923.921,-175"/>
<text text-anchor="middle" x="985" y="-181" font-family="Helvetica,sans-Serif" font-size="10.00">NumberStringClass.hpp</text>
</a>
</g>
</g>
<!-- Node2&#45;&gt;Node50 -->
<g id="edge47" class="edge"><title>Node2&#45;&gt;Node50</title>
<path fill="none" stroke="midnightblue" d="M1087.13,-232.878C1067.28,-223.766 1036.55,-209.662 1013.98,-199.303"/>
<polygon fill="midnightblue" stroke="midnightblue" points="1015.41,-196.109 1004.86,-195.118 1012.49,-202.471 1015.41,-196.109"/>
</g>
<!-- Node66 -->
<g id="node45" class="node"><title>Node66</title>
<g id="a_node45"><a xlink:href="_activity_manager_8hpp.html" target="_top" xlink:title=" ">
<polygon fill="white" stroke="black" points="2447.97,-175 2447.97,-195 2554.03,-195 2554.03,-175 2447.97,-175"/>
<text text-anchor="middle" x="2501" y="-181" font-family="Helvetica,sans-Serif" font-size="10.00">ActivityManager.hpp</text>
</a>
</g>
</g>
<!-- Node2&#45;&gt;Node66 -->
<g id="edge50" class="edge"><title>Node2&#45;&gt;Node66</title>
<path fill="none" stroke="midnightblue" d="M1141.46,-240.616C1325.6,-233.218 2194.2,-198.325 2437.51,-188.55"/>
<polygon fill="midnightblue" stroke="midnightblue" points="2437.75,-192.044 2447.61,-188.145 2437.47,-185.049 2437.75,-192.044"/>
</g>
<!-- Node4 -->
<g id="node4" class="node"><title>Node4</title>
<g id="a_node4"><a xlink:href="rexx_8h.html" target="_top" xlink:title=" ">
<polygon fill="white" stroke="red" points="2367.38,-117 2367.38,-137 2410.62,-137 2410.62,-117 2367.38,-117"/>
<text text-anchor="middle" x="2389" y="-123" font-family="Helvetica,sans-Serif" font-size="10.00">rexx.h</text>
</a>
</g>
</g>
<!-- Node3&#45;&gt;Node4 -->
<g id="edge3" class="edge"><title>Node3&#45;&gt;Node4</title>
<path fill="none" stroke="midnightblue" d="M2107.21,-175.78C2110.18,-175.148 2113.14,-174.545 2116,-174 2219.69,-154.264 2250.34,-162.267 2357.22,-137.854"/>
<polygon fill="midnightblue" stroke="midnightblue" points="2358.16,-141.228 2367.11,-135.553 2356.58,-134.41 2358.16,-141.228"/>
</g>
<!-- Node9 -->
<g id="node5" class="node"><title>Node9</title>
<g id="a_node5"><a xlink:href="oorexxerrors_8h.html" target="_top" xlink:title=" ">
<polygon fill="white" stroke="black" points="2428.77,-117 2428.77,-137 2509.23,-137 2509.23,-117 2428.77,-117"/>
<text text-anchor="middle" x="2469" y="-123" font-family="Helvetica,sans-Serif" font-size="10.00">oorexxerrors.h</text>
</a>
</g>
</g>
<!-- Node3&#45;&gt;Node9 -->
<g id="edge4" class="edge"><title>Node3&#45;&gt;Node9</title>
<path fill="none" stroke="midnightblue" d="M2107.2,-175.689C2110.17,-175.076 2113.13,-174.502 2116,-174 2246.45,-151.154 2283.35,-158.924 2418.74,-137.916"/>
<polygon fill="midnightblue" stroke="midnightblue" points="2419.33,-141.366 2428.66,-136.353 2418.24,-134.452 2419.33,-141.366"/>
</g>
<!-- Node16 -->
<g id="node12" class="node"><title>Node16</title>
<g id="a_node12"><a xlink:title=" ">
<polygon fill="white" stroke="#bfbfbf" points="-0.130371,-117 -0.130371,-137 108.13,-137 108.13,-117 -0.130371,-117"/>
<text text-anchor="middle" x="54" y="-123" font-family="Helvetica,sans-Serif" font-size="10.00">PlatformDefinitions.h</text>
</a>
</g>
</g>
<!-- Node15&#45;&gt;Node16 -->
<g id="edge11" class="edge"><title>Node15&#45;&gt;Node16</title>
<path fill="none" stroke="midnightblue" d="M300.437,-174.94C248.878,-165.12 166.595,-149.447 111.46,-138.945"/>
<polygon fill="midnightblue" stroke="midnightblue" points="111.973,-135.48 101.495,-137.047 110.663,-142.356 111.973,-135.48"/>
</g>
<!-- Node17 -->
<g id="node13" class="node"><title>Node17</title>
<g id="a_node13"><a xlink:href="_rexx_error_codes_8h.html" target="_top" xlink:title=" ">
<polygon fill="white" stroke="black" points="125.875,-117 125.875,-137 224.125,-137 224.125,-117 125.875,-117"/>
<text text-anchor="middle" x="175" y="-123" font-family="Helvetica,sans-Serif" font-size="10.00">RexxErrorCodes.h</text>
</a>
</g>
</g>
<!-- Node15&#45;&gt;Node17 -->
<g id="edge12" class="edge"><title>Node15&#45;&gt;Node17</title>
<path fill="none" stroke="midnightblue" d="M319.82,-174.878C290.578,-165.413 244.694,-150.56 212.425,-140.115"/>
<polygon fill="midnightblue" stroke="midnightblue" points="213.474,-136.775 202.882,-137.025 211.318,-143.435 213.474,-136.775"/>
</g>
<!-- Node22 -->
<g id="node18" class="node"><title>Node22</title>
<g id="a_node18"><a xlink:href="_numerics_8hpp.html" target="_top" xlink:title=" ">
<polygon fill="white" stroke="black" points="854.155,-117 854.155,-137 931.845,-137 931.845,-117 854.155,-117"/>
<text text-anchor="middle" x="893" y="-123" font-family="Helvetica,sans-Serif" font-size="10.00">Numerics.hpp</text>
</a>
</g>
</g>
<!-- Node21&#45;&gt;Node22 -->
<g id="edge17" class="edge"><title>Node21&#45;&gt;Node22</title>
<path fill="none" stroke="midnightblue" d="M866.284,-174.753C870.758,-166.924 877.299,-155.476 882.79,-145.868"/>
<polygon fill="midnightblue" stroke="midnightblue" points="885.892,-147.494 887.814,-137.075 879.814,-144.021 885.892,-147.494"/>
</g>
<!-- Node23 -->
<g id="node19" class="node"><title>Node23</title>
<g id="a_node19"><a xlink:title=" ">
<polygon fill="white" stroke="#bfbfbf" points="739.209,-59 739.209,-79 790.791,-79 790.791,-59 739.209,-59"/>
<text text-anchor="middle" x="765" y="-65" font-family="Helvetica,sans-Serif" font-size="10.00">stddef.h</text>
</a>
</g>
</g>
<!-- Node21&#45;&gt;Node23 -->
<g id="edge18" class="edge"><title>Node21&#45;&gt;Node23</title>
<path fill="none" stroke="midnightblue" d="M853.144,-174.671C836.961,-155.453 799.709,-111.217 779.193,-86.8542"/>
<polygon fill="midnightblue" stroke="midnightblue" points="781.815,-84.534 772.696,-79.1394 776.461,-89.043 781.815,-84.534"/>
</g>
<!-- Node25 -->
<g id="node21" class="node"><title>Node25</title>
<g id="a_node21"><a xlink:href="_rexx_collection_8hpp.html" target="_top" xlink:title=" ">
<polygon fill="white" stroke="red" points="573.921,-1 573.921,-21 676.079,-21 676.079,-1 573.921,-1"/>
<text text-anchor="middle" x="625" y="-7" font-family="Helvetica,sans-Serif" font-size="10.00">RexxCollection.hpp</text>
</a>
</g>
</g>
<!-- Node24&#45;&gt;Node25 -->
<g id="edge20" class="edge"><title>Node24&#45;&gt;Node25</title>
<path fill="none" stroke="midnightblue" d="M625,-58.7527C625,-51.2504 625,-40.4238 625,-31.0781"/>
<polygon fill="midnightblue" stroke="midnightblue" points="628.5,-31.0752 625,-21.0752 621.5,-31.0752 628.5,-31.0752"/>
</g>
<!-- Node29 -->
<g id="node24" class="node"><title>Node29</title>
<g id="a_node24"><a xlink:title=" ">
<polygon fill="white" stroke="#bfbfbf" points="392.084,-117 392.084,-137 495.916,-137 495.916,-117 392.084,-117"/>
<text text-anchor="middle" x="444" y="-123" font-family="Helvetica,sans-Serif" font-size="10.00">SysSemaphore.hpp</text>
</a>
</g>
</g>
<!-- Node28&#45;&gt;Node29 -->
<g id="edge23" class="edge"><title>Node28&#45;&gt;Node29</title>
<path fill="none" stroke="midnightblue" d="M606.399,-174.878C573.325,-165.331 521.265,-150.303 485.036,-139.845"/>
<polygon fill="midnightblue" stroke="midnightblue" points="485.845,-136.436 475.266,-137.025 483.903,-143.161 485.845,-136.436"/>
</g>
<!-- Node30 -->
<g id="node25" class="node"><title>Node30</title>
<g id="a_node25"><a xlink:href="_identity_table_class_8hpp.html" target="_top" xlink:title=" ">
<polygon fill="white" stroke="black" points="513.692,-117 513.692,-137 630.308,-137 630.308,-117 513.692,-117"/>
<text text-anchor="middle" x="572" y="-123" font-family="Helvetica,sans-Serif" font-size="10.00">IdentityTableClass.hpp</text>
</a>
</g>
</g>
<!-- Node28&#45;&gt;Node30 -->
<g id="edge24" class="edge"><title>Node28&#45;&gt;Node30</title>
<path fill="none" stroke="midnightblue" d="M627.101,-174.753C617.202,-166.353 602.392,-153.787 590.619,-143.798"/>
<polygon fill="midnightblue" stroke="midnightblue" points="592.585,-140.876 582.696,-137.075 588.056,-146.214 592.585,-140.876"/>
</g>
<!-- Node31 -->
<g id="node26" class="node"><title>Node31</title>
<g id="a_node26"><a xlink:href="_memory_stats_8hpp.html" target="_top" xlink:title=" ">
<polygon fill="white" stroke="black" points="279.818,-117 279.818,-137 374.182,-137 374.182,-117 279.818,-117"/>
<text text-anchor="middle" x="327" y="-123" font-family="Helvetica,sans-Serif" font-size="10.00">MemoryStats.hpp</text>
</a>
</g>
</g>
<!-- Node28&#45;&gt;Node31 -->
<g id="edge26" class="edge"><title>Node28&#45;&gt;Node31</title>
<path fill="none" stroke="midnightblue" d="M591.103,-175.556C535.762,-165.591 443.766,-149.025 384.265,-138.311"/>
<polygon fill="midnightblue" stroke="midnightblue" points="384.74,-134.841 374.278,-136.513 383.5,-141.73 384.74,-134.841"/>
</g>
<!-- Node32 -->
<g id="node27" class="node"><title>Node32</title>
<g id="a_node27"><a xlink:href="_memory_segment_8hpp.html" target="_top" xlink:title=" ">
<polygon fill="white" stroke="red" points="648.2,-117 648.2,-137 759.8,-137 759.8,-117 648.2,-117"/>
<text text-anchor="middle" x="704" y="-123" font-family="Helvetica,sans-Serif" font-size="10.00">MemorySegment.hpp</text>
</a>
</g>
</g>
<!-- Node28&#45;&gt;Node32 -->
<g id="edge28" class="edge"><title>Node28&#45;&gt;Node32</title>
<path fill="none" stroke="midnightblue" d="M648.899,-174.753C658.798,-166.353 673.608,-153.787 685.381,-143.798"/>
<polygon fill="midnightblue" stroke="midnightblue" points="687.944,-146.214 693.304,-137.075 683.415,-140.876 687.944,-146.214"/>
</g>
<!-- Node30&#45;&gt;Node24 -->
<g id="edge25" class="edge"><title>Node30&#45;&gt;Node24</title>
<path fill="none" stroke="midnightblue" d="M580.752,-116.753C588.547,-108.516 600.134,-96.2738 609.495,-86.3824"/>
<polygon fill="midnightblue" stroke="midnightblue" points="612.079,-88.744 616.411,-79.0752 606.995,-83.9323 612.079,-88.744"/>
</g>
<!-- Node31&#45;&gt;Node19 -->
<g id="edge27" class="edge"><title>Node31&#45;&gt;Node19</title>
<path fill="none" stroke="midnightblue" d="M320.89,-116.753C315.664,-108.843 307.996,-97.2372 301.608,-87.5683"/>
<polygon fill="midnightblue" stroke="midnightblue" points="304.429,-85.4891 295.996,-79.0752 298.589,-89.348 304.429,-85.4891"/>
</g>
<!-- Node32&#45;&gt;Node23 -->
<g id="edge29" class="edge"><title>Node32&#45;&gt;Node23</title>
<path fill="none" stroke="midnightblue" d="M714.073,-116.753C723.133,-108.435 736.645,-96.031 747.474,-86.0893"/>
<polygon fill="midnightblue" stroke="midnightblue" points="750.115,-88.4162 755.115,-79.0752 745.381,-83.2596 750.115,-88.4162"/>
</g>
<!-- Node36 -->
<g id="node29" class="node"><title>Node36</title>
<g id="a_node29"><a xlink:href="_primitive_behaviour_names_8h.html" target="_top" xlink:title=" ">
<polygon fill="white" stroke="black" points="1087.31,-117 1087.31,-137 1226.69,-137 1226.69,-117 1087.31,-117"/>
<text text-anchor="middle" x="1157" y="-123" font-family="Helvetica,sans-Serif" font-size="10.00">PrimitiveBehaviourNames.h</text>
</a>
</g>
</g>
<!-- Node35&#45;&gt;Node36 -->
<g id="edge31" class="edge"><title>Node35&#45;&gt;Node36</title>
<path fill="none" stroke="midnightblue" d="M1295.12,-174.878C1267.35,-165.453 1223.85,-150.688 1193.09,-140.25"/>
<polygon fill="midnightblue" stroke="midnightblue" points="1194.19,-136.925 1183.59,-137.025 1191.94,-143.554 1194.19,-136.925"/>
</g>
<!-- Node40 -->
<g id="node33" class="node"><title>Node40</title>
<g id="a_node33"><a xlink:href="_list_class_8hpp.html" target="_top" xlink:title=" ">
<polygon fill="white" stroke="red" points="1345.99,-117 1345.99,-137 1422.01,-137 1422.01,-117 1345.99,-117"/>
<text text-anchor="middle" x="1384" y="-123" font-family="Helvetica,sans-Serif" font-size="10.00">ListClass.hpp</text>
</a>
</g>
</g>
<!-- Node39&#45;&gt;Node40 -->
<g id="edge35" class="edge"><title>Node39&#45;&gt;Node40</title>
<path fill="none" stroke="midnightblue" d="M1629.15,-175.824C1582.44,-167.238 1506.88,-153.152 1432.25,-138.22"/>
<polygon fill="midnightblue" stroke="midnightblue" points="1432.7,-134.74 1422.2,-136.204 1431.32,-141.603 1432.7,-134.74"/>
</g>
<!-- Node42 -->
<g id="node34" class="node"><title>Node42</title>
<g id="a_node34"><a xlink:href="_rexx_internal_stack_8hpp.html" target="_top" xlink:title=" ">
<polygon fill="white" stroke="black" points="1439.69,-117 1439.69,-137 1556.31,-137 1556.31,-117 1439.69,-117"/>
<text text-anchor="middle" x="1498" y="-123" font-family="Helvetica,sans-Serif" font-size="10.00">RexxInternalStack.hpp</text>
</a>
</g>
</g>
<!-- Node39&#45;&gt;Node42 -->
<g id="edge36" class="edge"><title>Node39&#45;&gt;Node42</title>
<path fill="none" stroke="midnightblue" d="M1645.33,-174.878C1615.58,-165.413 1568.9,-150.56 1536.07,-140.115"/>
<polygon fill="midnightblue" stroke="midnightblue" points="1536.96,-136.722 1526.37,-137.025 1534.83,-143.393 1536.96,-136.722"/>
</g>
<!-- Node43 -->
<g id="node35" class="node"><title>Node43</title>
<g id="a_node35"><a xlink:href="_rexx_activation_stack_8hpp.html" target="_top" xlink:title=" ">
<polygon fill="white" stroke="black" points="1574.69,-117 1574.69,-137 1701.31,-137 1701.31,-117 1574.69,-117"/>
<text text-anchor="middle" x="1638" y="-123" font-family="Helvetica,sans-Serif" font-size="10.00">RexxActivationStack.hpp</text>
</a>
</g>
</g>
<!-- Node39&#45;&gt;Node43 -->
<g id="edge37" class="edge"><title>Node39&#45;&gt;Node43</title>
<path fill="none" stroke="midnightblue" d="M1668.06,-174.753C1662.97,-166.843 1655.51,-155.237 1649.29,-145.568"/>
<polygon fill="midnightblue" stroke="midnightblue" points="1652.19,-143.594 1643.83,-137.075 1646.3,-147.38 1652.19,-143.594"/>
</g>
<!-- Node44 -->
<g id="node36" class="node"><title>Node44</title>
<g id="a_node36"><a xlink:href="_expression_stack_8hpp.html" target="_top" xlink:title=" ">
<polygon fill="white" stroke="red" points="1719.03,-117 1719.03,-137 1828.97,-137 1828.97,-117 1719.03,-117"/>
<text text-anchor="middle" x="1774" y="-123" font-family="Helvetica,sans-Serif" font-size="10.00">ExpressionStack.hpp</text>
</a>
</g>
</g>
<!-- Node39&#45;&gt;Node44 -->
<g id="edge38" class="edge"><title>Node39&#45;&gt;Node44</title>
<path fill="none" stroke="midnightblue" d="M1690.51,-174.753C1706.39,-165.864 1730.59,-152.309 1748.86,-142.079"/>
<polygon fill="midnightblue" stroke="midnightblue" points="1750.78,-145.015 1757.79,-137.075 1747.36,-138.907 1750.78,-145.015"/>
</g>
<!-- Node46 -->
<g id="node37" class="node"><title>Node46</title>
<g id="a_node37"><a xlink:href="_rexx_local_variables_8hpp.html" target="_top" xlink:title=" ">
<polygon fill="white" stroke="red" points="1847.45,-117 1847.45,-137 1970.55,-137 1970.55,-117 1847.45,-117"/>
<text text-anchor="middle" x="1909" y="-123" font-family="Helvetica,sans-Serif" font-size="10.00">RexxLocalVariables.hpp</text>
</a>
</g>
</g>
<!-- Node39&#45;&gt;Node46 -->
<g id="edge39" class="edge"><title>Node39&#45;&gt;Node46</title>
<path fill="none" stroke="midnightblue" d="M1712.02,-174.94C1752.63,-165.262 1817.1,-149.901 1861.14,-139.406"/>
<polygon fill="midnightblue" stroke="midnightblue" points="1862.12,-142.769 1871.04,-137.047 1860.5,-135.96 1862.12,-142.769"/>
</g>
<!-- Node61 -->
<g id="node38" class="node"><title>Node61</title>
<g id="a_node38"><a xlink:href="_source_location_8hpp.html" target="_top" xlink:title=" ">
<polygon fill="white" stroke="black" points="1988.52,-117 1988.52,-137 2093.48,-137 2093.48,-117 1988.52,-117"/>
<text text-anchor="middle" x="2041" y="-123" font-family="Helvetica,sans-Serif" font-size="10.00">SourceLocation.hpp</text>
</a>
</g>
</g>
<!-- Node39&#45;&gt;Node61 -->
<g id="edge40" class="edge"><title>Node39&#45;&gt;Node61</title>
<path fill="none" stroke="midnightblue" d="M1718.73,-177.401C1776.22,-168.886 1879.4,-153.494 1978.09,-138.13"/>
<polygon fill="midnightblue" stroke="midnightblue" points="1978.9,-141.546 1988.24,-136.547 1977.82,-134.63 1978.9,-141.546"/>
</g>
<!-- Node62 -->
<g id="node39" class="node"><title>Node62</title>
<g id="a_node39"><a xlink:href="_exit_handler_8hpp.html" target="_top" xlink:title=" ">
<polygon fill="white" stroke="black" points="2262.7,-117 2262.7,-137 2349.3,-137 2349.3,-117 2262.7,-117"/>
<text text-anchor="middle" x="2306" y="-123" font-family="Helvetica,sans-Serif" font-size="10.00">ExitHandler.hpp</text>
</a>
</g>
</g>
<!-- Node39&#45;&gt;Node62 -->
<g id="edge41" class="edge"><title>Node39&#45;&gt;Node62</title>
<path fill="none" stroke="midnightblue" d="M1718.85,-182.077C1814.79,-177.61 2047.2,-164.905 2252.61,-137.904"/>
<polygon fill="midnightblue" stroke="midnightblue" points="2253.22,-141.353 2262.68,-136.566 2252.3,-134.414 2253.22,-141.353"/>
</g>
<!-- Node64 -->
<g id="node41" class="node"><title>Node64</title>
<g id="a_node41"><a xlink:href="_activation_api_contexts_8hpp.html" target="_top" xlink:title=" ">
<polygon fill="white" stroke="black" points="2111.63,-117 2111.63,-137 2244.37,-137 2244.37,-117 2111.63,-117"/>
<text text-anchor="middle" x="2178" y="-123" font-family="Helvetica,sans-Serif" font-size="10.00">ActivationApiContexts.hpp</text>
</a>
</g>
</g>
<!-- Node39&#45;&gt;Node64 -->
<g id="edge44" class="edge"><title>Node39&#45;&gt;Node64</title>
<path fill="none" stroke="midnightblue" d="M1718.89,-179.039C1733.59,-177.423 1749.99,-175.627 1765,-174 1911.54,-158.122 1950.76,-155.917 2101.21,-138.071"/>
<polygon fill="midnightblue" stroke="midnightblue" points="2101.77,-141.529 2111.28,-136.872 2100.94,-134.578 2101.77,-141.529"/>
</g>
<!-- Node65 -->
<g id="node42" class="node"><title>Node65</title>
<g id="a_node42"><a xlink:title=" ">
<polygon fill="white" stroke="#bfbfbf" points="1244.47,-117 1244.47,-137 1327.53,-137 1327.53,-117 1244.47,-117"/>
<text text-anchor="middle" x="1286" y="-123" font-family="Helvetica,sans-Serif" font-size="10.00">SysActivity.hpp</text>
</a>
</g>
</g>
<!-- Node39&#45;&gt;Node65 -->
<g id="edge46" class="edge"><title>Node39&#45;&gt;Node65</title>
<path fill="none" stroke="midnightblue" d="M1629.31,-177.669C1620.59,-176.443 1611.51,-175.175 1603,-174 1488.05,-158.127 1456.41,-157.509 1337.92,-138.072"/>
<polygon fill="midnightblue" stroke="midnightblue" points="1338.15,-134.563 1327.71,-136.387 1337.01,-141.47 1338.15,-134.563"/>
</g>
<!-- Node62&#45;&gt;Node2 -->
<g id="edge42" class="edge"><title>Node62&#45;&gt;Node2</title>
<path fill="none" stroke="midnightblue" d="M2262.65,-136.383C2259.39,-136.951 2256.14,-137.497 2253,-138 2057.79,-169.227 2008.74,-176.665 1812,-196 1563.08,-220.463 1263.38,-235.141 1151.75,-240.101"/>
<polygon fill="midnightblue" stroke="midnightblue" points="1151.38,-236.614 1141.54,-240.55 1151.69,-243.607 1151.38,-236.614"/>
</g>
<!-- Node63 -->
<g id="node40" class="node"><title>Node63</title>
<g id="a_node40"><a xlink:href="_callback_dispatcher_8hpp.html" target="_top" xlink:title=" ">
<polygon fill="white" stroke="black" points="2391.47,-59 2391.47,-79 2512.53,-79 2512.53,-59 2391.47,-59"/>
<text text-anchor="middle" x="2452" y="-65" font-family="Helvetica,sans-Serif" font-size="10.00">CallbackDispatcher.hpp</text>
</a>
</g>
</g>
<!-- Node62&#45;&gt;Node63 -->
<g id="edge43" class="edge"><title>Node62&#45;&gt;Node63</title>
<path fill="none" stroke="midnightblue" d="M2329.78,-116.878C2353.96,-107.603 2391.63,-93.1564 2418.75,-82.7515"/>
<polygon fill="midnightblue" stroke="midnightblue" points="2420.14,-85.9672 2428.23,-79.1181 2417.64,-79.4315 2420.14,-85.9672"/>
</g>
<!-- Node64&#45;&gt;Node2 -->
<g id="edge45" class="edge"><title>Node64&#45;&gt;Node2</title>
<path fill="none" stroke="midnightblue" d="M2116.22,-137.028C2053.64,-146.207 1954.06,-160.901 1868,-174 1805.3,-183.544 1790.01,-188.759 1727,-196 1512.36,-220.666 1254.33,-234.882 1151.98,-239.91"/>
<polygon fill="midnightblue" stroke="midnightblue" points="1151.53,-236.428 1141.71,-240.409 1151.87,-243.42 1151.53,-236.428"/>
</g>
<!-- Node50&#45;&gt;Node22 -->
<g id="edge48" class="edge"><title>Node50&#45;&gt;Node22</title>
<path fill="none" stroke="midnightblue" d="M969.808,-174.753C955.339,-165.946 933.345,-152.558 916.594,-142.362"/>
<polygon fill="midnightblue" stroke="midnightblue" points="918.271,-139.285 907.909,-137.075 914.631,-145.264 918.271,-139.285"/>
</g>
<!-- Node51 -->
<g id="node44" class="node"><title>Node51</title>
<g id="a_node44"><a xlink:href="_number_string_math_8hpp.html" target="_top" xlink:title=" ">
<polygon fill="white" stroke="black" points="950.308,-117 950.308,-137 1069.69,-137 1069.69,-117 950.308,-117"/>
<text text-anchor="middle" x="1010" y="-123" font-family="Helvetica,sans-Serif" font-size="10.00">NumberStringMath.hpp</text>
</a>
</g>
</g>
<!-- Node50&#45;&gt;Node51 -->
<g id="edge49" class="edge"><title>Node50&#45;&gt;Node51</title>
<path fill="none" stroke="midnightblue" d="M989.128,-174.753C992.55,-167.087 997.522,-155.952 1001.75,-146.471"/>
<polygon fill="midnightblue" stroke="midnightblue" points="1005.07,-147.633 1005.95,-137.075 998.676,-144.78 1005.07,-147.633"/>
</g>
<!-- Node67 -->
<g id="node46" class="node"><title>Node67</title>
<g id="a_node46"><a xlink:title=" ">
<polygon fill="white" stroke="#bfbfbf" points="2527.1,-117 2527.1,-137 2570.9,-137 2570.9,-117 2527.1,-117"/>
<text text-anchor="middle" x="2549" y="-123" font-family="Helvetica,sans-Serif" font-size="10.00">deque</text>
</a>
</g>
</g>
<!-- Node66&#45;&gt;Node67 -->
<g id="edge51" class="edge"><title>Node66&#45;&gt;Node67</title>
<path fill="none" stroke="midnightblue" d="M2508.93,-174.753C2515.92,-166.598 2526.27,-154.516 2534.71,-144.677"/>
<polygon fill="midnightblue" stroke="midnightblue" points="2537.37,-146.946 2541.22,-137.075 2532.06,-142.39 2537.37,-146.946"/>
</g>
<!-- Node68&#45;&gt;Node2 -->
<g id="edge53" class="edge"><title>Node68&#45;&gt;Node2</title>
<path fill="none" stroke="midnightblue" d="M1181.66,-406.914C1170.36,-398.559 1154.52,-385.191 1145,-370 1123.65,-335.937 1113.69,-289.172 1109.56,-263.259"/>
<polygon fill="midnightblue" stroke="midnightblue" points="1113,-262.62 1108.09,-253.234 1106.08,-263.636 1113,-262.62"/>
</g>
<!-- Node69 -->
<g id="node48" class="node"><title>Node69</title>
<g id="a_node48"><a xlink:title=" ">
<polygon fill="white" stroke="#bfbfbf" points="1154.02,-349 1154.02,-369 1235.98,-369 1235.98,-349 1154.02,-349"/>
<text text-anchor="middle" x="1195" y="-355" font-family="Helvetica,sans-Serif" font-size="10.00">SysLibrary.hpp</text>
</a>
</g>
</g>
<!-- Node68&#45;&gt;Node69 -->
<g id="edge54" class="edge"><title>Node68&#45;&gt;Node69</title>
<path fill="none" stroke="midnightblue" d="M1195,-406.753C1195,-399.25 1195,-388.424 1195,-379.078"/>
<polygon fill="midnightblue" stroke="midnightblue" points="1198.5,-379.075 1195,-369.075 1191.5,-379.075 1198.5,-379.075"/>
</g>
<!-- Node70 -->
<g id="node49" class="node"><title>Node70</title>
<g id="a_node49"><a xlink:href="_rexx_native_code_8hpp.html" target="_top" xlink:title=" ">
<polygon fill="white" stroke="black" points="1253.75,-349 1253.75,-369 1364.25,-369 1364.25,-349 1253.75,-349"/>
<text text-anchor="middle" x="1309" y="-355" font-family="Helvetica,sans-Serif" font-size="10.00">RexxNativeCode.hpp</text>
</a>
</g>
</g>
<!-- Node68&#45;&gt;Node70 -->
<g id="edge55" class="edge"><title>Node68&#45;&gt;Node70</title>
<path fill="none" stroke="midnightblue" d="M1213.57,-406.878C1231.95,-397.847 1260.32,-383.913 1281.35,-373.581"/>
<polygon fill="midnightblue" stroke="midnightblue" points="1283.01,-376.669 1290.44,-369.118 1279.92,-370.386 1283.01,-376.669"/>
</g>
<!-- Node68&#45;&gt;Node63 -->
<g id="edge58" class="edge"><title>Node68&#45;&gt;Node63</title>
<path fill="none" stroke="midnightblue" d="M1247.48,-414.541C1502.36,-407.118 2599,-371.162 2599,-302 2599,-302 2599,-302 2599,-184 2599,-152.498 2600.58,-138.949 2579,-116 2563.33,-99.3336 2541.16,-88.6894 2519.72,-81.8979"/>
<polygon fill="midnightblue" stroke="midnightblue" points="2520.52,-78.4873 2509.94,-79.0408 2518.56,-85.2061 2520.52,-78.4873"/>
</g>
<!-- Node71 -->
<g id="node50" class="node"><title>Node71</title>
<g id="a_node50"><a xlink:href="_method_class_8hpp.html" target="_top" xlink:title=" ">
<polygon fill="white" stroke="black" points="1208.09,-291 1208.09,-311 1301.91,-311 1301.91,-291 1208.09,-291"/>
<text text-anchor="middle" x="1255" y="-297" font-family="Helvetica,sans-Serif" font-size="10.00">MethodClass.hpp</text>
</a>
</g>
</g>
<!-- Node70&#45;&gt;Node71 -->
<g id="edge56" class="edge"><title>Node70&#45;&gt;Node71</title>
<path fill="none" stroke="midnightblue" d="M1300.08,-348.753C1292.14,-340.516 1280.34,-328.274 1270.8,-318.382"/>
<polygon fill="midnightblue" stroke="midnightblue" points="1273.21,-315.844 1263.75,-311.075 1268.17,-320.703 1273.21,-315.844"/>
</g>
<!-- Node71&#45;&gt;Node2 -->
<g id="edge57" class="edge"><title>Node71&#45;&gt;Node2</title>
<path fill="none" stroke="midnightblue" d="M1230.89,-290.878C1206.38,-281.603 1168.2,-267.156 1140.7,-256.752"/>
<polygon fill="midnightblue" stroke="midnightblue" points="1141.69,-253.384 1131.1,-253.118 1139.21,-259.931 1141.69,-253.384"/>
</g>
</g>
</svg>
