<?xml version="1.0" encoding="UTF-8" standalone="no"?>
<!DOCTYPE svg PUBLIC "-//W3C//DTD SVG 1.1//EN"
 "http://www.w3.org/Graphics/SVG/1.1/DTD/svg11.dtd">
<!-- Generated by graphviz version 12.1.0 (20240811.2233)
 -->
<!-- Title: PackageManager.hpp Pages: 1 -->
<svg width="1994pt" height="85pt"
 viewBox="0.00 0.00 1994.00 84.50" xmlns="http://www.w3.org/2000/svg" xmlns:xlink="http://www.w3.org/1999/xlink">
<g id="graph0" class="graph" transform="scale(1 1) rotate(0) translate(4 80.5)">
<title>PackageManager.hpp</title>
<polygon fill="white" stroke="none" points="-4,4 -4,-80.5 1990,-80.5 1990,4 -4,4"/>
<!-- Node1 -->
<g id="node1" class="node">
<title>Node1</title>
<g id="a_node1"><a xlink:title=" ">
<polygon fill="#bfbfbf" stroke="black" points="890.25,-56.75 890.25,-76 1000,-76 1000,-56.75 890.25,-56.75"/>
<text text-anchor="middle" x="945.12" y="-62.5" font-family="Helvetica,sans-Serif" font-size="10.00">PackageManager.hpp</text>
</a>
</g>
</g>
<!-- Node2 -->
<g id="node2" class="node">
<title>Node2</title>
<g id="a_node2"><a xlink:href="_setup_8cpp.html" target="_top" xlink:title=" ">
<polygon fill="white" stroke="black" points="0,-0.5 0,-19.75 60.25,-19.75 60.25,-0.5 0,-0.5"/>
<text text-anchor="middle" x="30.12" y="-6.25" font-family="Helvetica,sans-Serif" font-size="10.00">Setup.cpp</text>
</a>
</g>
</g>
<!-- Node1&#45;&gt;Node2 -->
<g id="edge1" class="edge">
<title>Node1&#45;&gt;Node2</title>
<path fill="none" stroke="midnightblue" d="M878.51,-65.98C731.58,-66.43 368.98,-62.71 69.12,-20.25 66.37,-19.86 63.53,-19.37 60.68,-18.82"/>
<polygon fill="midnightblue" stroke="midnightblue" points="878.46,-69.48 888.45,-65.94 878.43,-62.48 878.46,-69.48"/>
</g>
<!-- Node3 -->
<g id="node3" class="node">
<title>Node3</title>
<g id="a_node3"><a xlink:href="_rexx_memory_8cpp.html" target="_top" xlink:title=" ">
<polygon fill="white" stroke="black" points="78.25,-0.5 78.25,-19.75 170,-19.75 170,-0.5 78.25,-0.5"/>
<text text-anchor="middle" x="124.12" y="-6.25" font-family="Helvetica,sans-Serif" font-size="10.00">RexxMemory.cpp</text>
</a>
</g>
</g>
<!-- Node1&#45;&gt;Node3 -->
<g id="edge2" class="edge">
<title>Node1&#45;&gt;Node3</title>
<path fill="none" stroke="midnightblue" d="M878.98,-63.83C746.03,-60.2 437.04,-49.16 179.12,-20.25 176.24,-19.93 173.27,-19.55 170.29,-19.15"/>
<polygon fill="midnightblue" stroke="midnightblue" points="878.55,-67.32 888.64,-64.09 878.74,-60.32 878.55,-67.32"/>
</g>
<!-- Node4 -->
<g id="node4" class="node">
<title>Node4</title>
<g id="a_node4"><a xlink:href="_method_class_8cpp.html" target="_top" xlink:title=" ">
<polygon fill="white" stroke="black" points="187.88,-0.5 187.88,-19.75 280.38,-19.75 280.38,-0.5 187.88,-0.5"/>
<text text-anchor="middle" x="234.12" y="-6.25" font-family="Helvetica,sans-Serif" font-size="10.00">MethodClass.cpp</text>
</a>
</g>
</g>
<!-- Node1&#45;&gt;Node4 -->
<g id="edge3" class="edge">
<title>Node1&#45;&gt;Node4</title>
<path fill="none" stroke="midnightblue" d="M878.37,-62.82C759.7,-57.83 504.36,-45.03 290.12,-20.25 287.09,-19.9 283.97,-19.5 280.83,-19.07"/>
<polygon fill="midnightblue" stroke="midnightblue" points="878.11,-66.31 888.25,-63.23 878.4,-59.32 878.11,-66.31"/>
</g>
<!-- Node5 -->
<g id="node5" class="node">
<title>Node5</title>
<g id="a_node5"><a xlink:href="_package_class_8cpp.html" target="_top" xlink:title=" ">
<polygon fill="white" stroke="black" points="298.88,-0.5 298.88,-19.75 397.38,-19.75 397.38,-0.5 298.88,-0.5"/>
<text text-anchor="middle" x="348.12" y="-6.25" font-family="Helvetica,sans-Serif" font-size="10.00">PackageClass.cpp</text>
</a>
</g>
</g>
<!-- Node1&#45;&gt;Node5 -->
<g id="edge4" class="edge">
<title>Node1&#45;&gt;Node5</title>
<path fill="none" stroke="midnightblue" d="M878.56,-61.36C776.62,-54.86 575.79,-40.67 406.12,-20.25 403.39,-19.92 400.59,-19.56 397.77,-19.18"/>
<polygon fill="midnightblue" stroke="midnightblue" points="878.19,-64.84 888.39,-61.98 878.63,-57.86 878.19,-64.84"/>
</g>
<!-- Node6 -->
<g id="node6" class="node">
<title>Node6</title>
<g id="a_node6"><a xlink:href="_routine_class_8cpp.html" target="_top" xlink:title=" ">
<polygon fill="white" stroke="black" points="415.12,-0.5 415.12,-19.75 509.12,-19.75 509.12,-0.5 415.12,-0.5"/>
<text text-anchor="middle" x="462.12" y="-6.25" font-family="Helvetica,sans-Serif" font-size="10.00">RoutineClass.cpp</text>
</a>
</g>
</g>
<!-- Node1&#45;&gt;Node6 -->
<g id="edge5" class="edge">
<title>Node1&#45;&gt;Node6</title>
<path fill="none" stroke="midnightblue" d="M878.64,-59.52C794.54,-51.84 645.32,-37.32 518.12,-20.25 515.29,-19.87 512.39,-19.46 509.45,-19.03"/>
<polygon fill="midnightblue" stroke="midnightblue" points="878.29,-63 888.56,-60.42 878.92,-56.03 878.29,-63"/>
</g>
<!-- Node7 -->
<g id="node7" class="node">
<title>Node7</title>
<g id="a_node7"><a xlink:href="unix_2_external_functions_8cpp.html" target="_top" xlink:title=" ">
<polygon fill="white" stroke="black" points="527.38,-0.5 527.38,-19.75 640.88,-19.75 640.88,-0.5 527.38,-0.5"/>
<text text-anchor="middle" x="584.12" y="-6.25" font-family="Helvetica,sans-Serif" font-size="10.00">ExternalFunctions.cpp</text>
</a>
</g>
</g>
<!-- Node1&#45;&gt;Node7 -->
<g id="edge6" class="edge">
<title>Node1&#45;&gt;Node7</title>
<path fill="none" stroke="midnightblue" d="M878.88,-55.42C810.73,-45.18 705.68,-29.39 641.13,-19.69"/>
<polygon fill="midnightblue" stroke="midnightblue" points="878,-58.83 888.41,-56.85 879.04,-51.9 878,-58.83"/>
</g>
<!-- Node8 -->
<g id="node8" class="node">
<title>Node8</title>
<g id="a_node8"><a xlink:href="windows_2_external_functions_8cpp.html" target="_top" xlink:title=" ">
<polygon fill="white" stroke="black" points="659.38,-0.5 659.38,-19.75 772.88,-19.75 772.88,-0.5 659.38,-0.5"/>
<text text-anchor="middle" x="716.12" y="-6.25" font-family="Helvetica,sans-Serif" font-size="10.00">ExternalFunctions.cpp</text>
</a>
</g>
</g>
<!-- Node1&#45;&gt;Node8 -->
<g id="edge7" class="edge">
<title>Node1&#45;&gt;Node8</title>
<path fill="none" stroke="midnightblue" d="M895.64,-53.65C853.34,-43.63 793.35,-29.42 754.58,-20.23"/>
<polygon fill="midnightblue" stroke="midnightblue" points="894.79,-57.05 905.32,-55.95 896.4,-50.23 894.79,-57.05"/>
</g>
<!-- Node9 -->
<g id="node9" class="node">
<title>Node9</title>
<g id="a_node9"><a xlink:href="_interpreter_8cpp.html" target="_top" xlink:title=" ">
<polygon fill="white" stroke="black" points="791,-0.5 791,-19.75 869.25,-19.75 869.25,-0.5 791,-0.5"/>
<text text-anchor="middle" x="830.12" y="-6.25" font-family="Helvetica,sans-Serif" font-size="10.00">Interpreter.cpp</text>
</a>
</g>
</g>
<!-- Node1&#45;&gt;Node9 -->
<g id="edge8" class="edge">
<title>Node1&#45;&gt;Node9</title>
<path fill="none" stroke="midnightblue" d="M915.67,-51.48C894.85,-41.66 867.53,-28.77 849.44,-20.23"/>
<polygon fill="midnightblue" stroke="midnightblue" points="913.97,-54.55 924.51,-55.65 916.96,-48.22 913.97,-54.55"/>
</g>
<!-- Node10 -->
<g id="node10" class="node">
<title>Node10</title>
<g id="a_node10"><a xlink:href="_interpreter_instance_8cpp.html" target="_top" xlink:title=" ">
<polygon fill="white" stroke="black" points="886.88,-0.5 886.88,-19.75 1003.38,-19.75 1003.38,-0.5 886.88,-0.5"/>
<text text-anchor="middle" x="945.12" y="-6.25" font-family="Helvetica,sans-Serif" font-size="10.00">InterpreterInstance.cpp</text>
</a>
</g>
</g>
<!-- Node1&#45;&gt;Node10 -->
<g id="edge9" class="edge">
<title>Node1&#45;&gt;Node10</title>
<path fill="none" stroke="midnightblue" d="M945.12,-45.19C945.12,-36.48 945.12,-26.74 945.12,-19.92"/>
<polygon fill="midnightblue" stroke="midnightblue" points="941.63,-44.9 945.13,-54.9 948.63,-44.9 941.63,-44.9"/>
</g>
<!-- Node11 -->
<g id="node11" class="node">
<title>Node11</title>
<g id="a_node11"><a xlink:href="_internal_package_8cpp.html" target="_top" xlink:title=" ">
<polygon fill="white" stroke="black" points="1021.5,-0.5 1021.5,-19.75 1126.75,-19.75 1126.75,-0.5 1021.5,-0.5"/>
<text text-anchor="middle" x="1074.12" y="-6.25" font-family="Helvetica,sans-Serif" font-size="10.00">InternalPackage.cpp</text>
</a>
</g>
</g>
<!-- Node1&#45;&gt;Node11 -->
<g id="edge10" class="edge">
<title>Node1&#45;&gt;Node11</title>
<path fill="none" stroke="midnightblue" d="M977.21,-51.88C1000.68,-42.01 1031.88,-28.89 1052.46,-20.23"/>
<polygon fill="midnightblue" stroke="midnightblue" points="975.97,-48.61 968.11,-55.71 978.69,-55.06 975.97,-48.61"/>
</g>
<!-- Node12 -->
<g id="node12" class="node">
<title>Node12</title>
<g id="a_node12"><a xlink:href="_source_file_8cpp.html" target="_top" xlink:title=" ">
<polygon fill="white" stroke="black" points="1144.5,-0.5 1144.5,-19.75 1225.75,-19.75 1225.75,-0.5 1144.5,-0.5"/>
<text text-anchor="middle" x="1185.12" y="-6.25" font-family="Helvetica,sans-Serif" font-size="10.00">SourceFile.cpp</text>
</a>
</g>
</g>
<!-- Node1&#45;&gt;Node12 -->
<g id="edge11" class="edge">
<title>Node1&#45;&gt;Node12</title>
<path fill="none" stroke="midnightblue" d="M996.42,-53.78C1040.78,-43.75 1104.02,-29.46 1144.82,-20.23"/>
<polygon fill="midnightblue" stroke="midnightblue" points="995.75,-50.34 986.77,-55.96 997.3,-57.17 995.75,-50.34"/>
</g>
<!-- Node13 -->
<g id="node13" class="node">
<title>Node13</title>
<g id="a_node13"><a xlink:href="_rexx_activation_8cpp.html" target="_top" xlink:title=" ">
<polygon fill="white" stroke="black" points="1243.38,-0.5 1243.38,-19.75 1344.88,-19.75 1344.88,-0.5 1243.38,-0.5"/>
<text text-anchor="middle" x="1294.12" y="-6.25" font-family="Helvetica,sans-Serif" font-size="10.00">RexxActivation.cpp</text>
</a>
</g>
</g>
<!-- Node1&#45;&gt;Node13 -->
<g id="edge12" class="edge">
<title>Node1&#45;&gt;Node13</title>
<path fill="none" stroke="midnightblue" d="M1011.75,-55.02C1079.14,-44.54 1181.86,-28.58 1243.06,-19.06"/>
<polygon fill="midnightblue" stroke="midnightblue" points="1011.26,-51.55 1001.92,-56.55 1012.34,-58.47 1011.26,-51.55"/>
</g>
<!-- Node14 -->
<g id="node14" class="node">
<title>Node14</title>
<g id="a_node14"><a xlink:href="_rexx_native_code_8cpp.html" target="_top" xlink:title=" ">
<polygon fill="white" stroke="black" points="1363.25,-0.5 1363.25,-19.75 1473,-19.75 1473,-0.5 1363.25,-0.5"/>
<text text-anchor="middle" x="1418.12" y="-6.25" font-family="Helvetica,sans-Serif" font-size="10.00">RexxNativeCode.cpp</text>
</a>
</g>
</g>
<!-- Node1&#45;&gt;Node14 -->
<g id="edge13" class="edge">
<title>Node1&#45;&gt;Node14</title>
<path fill="none" stroke="midnightblue" d="M1011.45,-58.71C1092.41,-50.43 1233.47,-35.5 1354.12,-20.25 1357.02,-19.88 1359.99,-19.5 1362.98,-19.1"/>
<polygon fill="midnightblue" stroke="midnightblue" points="1011.53,-55.18 1001.94,-59.68 1012.24,-62.15 1011.53,-55.18"/>
</g>
<!-- Node15 -->
<g id="node15" class="node">
<title>Node15</title>
<g id="a_node15"><a xlink:href="_thread_context_stubs_8cpp.html" target="_top" xlink:title=" ">
<polygon fill="white" stroke="black" points="1490.75,-0.5 1490.75,-19.75 1615.5,-19.75 1615.5,-0.5 1490.75,-0.5"/>
<text text-anchor="middle" x="1553.12" y="-6.25" font-family="Helvetica,sans-Serif" font-size="10.00">ThreadContextStubs.cpp</text>
</a>
</g>
</g>
<!-- Node1&#45;&gt;Node15 -->
<g id="edge14" class="edge">
<title>Node1&#45;&gt;Node15</title>
<path fill="none" stroke="midnightblue" d="M1011.78,-60.72C1113.38,-53.41 1313.04,-38.21 1482.12,-20.25 1484.84,-19.96 1487.62,-19.65 1490.42,-19.34"/>
<polygon fill="midnightblue" stroke="midnightblue" points="1011.71,-57.22 1001.98,-61.42 1012.21,-64.2 1011.71,-57.22"/>
</g>
<!-- Node16 -->
<g id="node16" class="node">
<title>Node16</title>
<g id="a_node16"><a xlink:href="_builtin_functions_8cpp.html" target="_top" xlink:title=" ">
<polygon fill="white" stroke="black" points="1633.88,-0.5 1633.88,-19.75 1738.38,-19.75 1738.38,-0.5 1633.88,-0.5"/>
<text text-anchor="middle" x="1686.12" y="-6.25" font-family="Helvetica,sans-Serif" font-size="10.00">BuiltinFunctions.cpp</text>
</a>
</g>
</g>
<!-- Node1&#45;&gt;Node16 -->
<g id="edge15" class="edge">
<title>Node1&#45;&gt;Node16</title>
<path fill="none" stroke="midnightblue" d="M1011.58,-62.72C1133.33,-57.46 1400.21,-44.13 1624.12,-20.25 1627.15,-19.93 1630.26,-19.57 1633.4,-19.18"/>
<polygon fill="midnightblue" stroke="midnightblue" points="1011.61,-59.22 1001.77,-63.14 1011.91,-66.21 1011.61,-59.22"/>
</g>
<!-- Node17 -->
<g id="node17" class="node">
<title>Node17</title>
<g id="a_node17"><a xlink:href="_library_package_8cpp.html" target="_top" xlink:title=" ">
<polygon fill="white" stroke="black" points="1756,-0.5 1756,-19.75 1858.25,-19.75 1858.25,-0.5 1756,-0.5"/>
<text text-anchor="middle" x="1807.12" y="-6.25" font-family="Helvetica,sans-Serif" font-size="10.00">LibraryPackage.cpp</text>
</a>
</g>
</g>
<!-- Node1&#45;&gt;Node17 -->
<g id="edge16" class="edge">
<title>Node1&#45;&gt;Node17</title>
<path fill="none" stroke="midnightblue" d="M1011.35,-63.77C1148.79,-59.97 1474.93,-48.54 1747.12,-20.25 1749.95,-19.96 1752.85,-19.62 1755.78,-19.26"/>
<polygon fill="midnightblue" stroke="midnightblue" points="1011.62,-60.26 1001.72,-64.03 1011.81,-67.26 1011.62,-60.26"/>
</g>
<!-- Node18 -->
<g id="node18" class="node">
<title>Node18</title>
<g id="a_node18"><a xlink:href="_package_manager_8cpp.html" target="_top" xlink:title=" ">
<polygon fill="white" stroke="black" points="1876.25,-0.5 1876.25,-19.75 1986,-19.75 1986,-0.5 1876.25,-0.5"/>
<text text-anchor="middle" x="1931.12" y="-6.25" font-family="Helvetica,sans-Serif" font-size="10.00">PackageManager.cpp</text>
</a>
</g>
</g>
<!-- Node1&#45;&gt;Node18 -->
<g id="edge17" class="edge">
<title>Node1&#45;&gt;Node18</title>
<path fill="none" stroke="midnightblue" d="M1011.73,-64.23C1163.71,-61.16 1547.61,-50.78 1867.12,-20.25 1870.03,-19.97 1873,-19.66 1876.01,-19.31"/>
<polygon fill="midnightblue" stroke="midnightblue" points="1011.77,-60.73 1001.85,-64.43 1011.91,-67.73 1011.77,-60.73"/>
</g>
</g>
</svg>
