<?xml version="1.0" encoding="UTF-8" standalone="no"?>
<!DOCTYPE svg PUBLIC "-//W3C//DTD SVG 1.1//EN"
 "http://www.w3.org/Graphics/SVG/1.1/DTD/svg11.dtd">
<!-- Generated by graphviz version 12.1.0 (20240811.2233)
 -->
<!-- Title: ParseInstruction.cpp Pages: 1 -->
<!--zoomable 310 -->
<svg id="main" version="1.1" xmlns="http://www.w3.org/2000/svg" xmlns:xlink="http://www.w3.org/1999/xlink" xml:space="preserve" onload="init(evt)">
<style type="text/css"><![CDATA[
.edge:hover path { stroke: red; }
.edge:hover polygon { stroke: red; fill: red; }
]]></style>
<script type="text/javascript"><![CDATA[
var edges = document.getElementsByTagName('g');
if (edges && edges.length) {
  for (var i=0;i<edges.length;i++) {
    if (edges[i].id.substr(0,4)=='edge') {
      edges[i].setAttribute('class','edge');
    }
  }
}
]]></script>
        <defs>
                <circle id="rim" cx="0" cy="0" r="7"/>
                <circle id="rim2" cx="0" cy="0" r="3.5"/>
                <g id="zoomPlus">
                        <use xlink:href="#rim" fill="#404040">
                                <set attributeName="fill" to="#808080" begin="zoomplus.mouseover" end="zoomplus.mouseout"/>
                        </use>
                        <path d="M-4,0h8M0,-4v8" fill="none" stroke="white" stroke-width="1.5" pointer-events="none"/>
                </g>
                <g id="zoomMin">
                        <use xlink:href="#rim" fill="#404040">
                                <set attributeName="fill" to="#808080" begin="zoomminus.mouseover" end="zoomminus.mouseout"/>
                        </use>
                        <path d="M-4,0h8" fill="none" stroke="white" stroke-width="1.5" pointer-events="none"/>
                </g>
                <g id="dirArrow">
                        <path fill="none" stroke="white" stroke-width="1.5" d="M0,-3.0v7 M-2.5,-0.5L0,-3.0L2.5,-0.5"/>
                </g>
               <g id="resetDef">
                       <use xlink:href="#rim2" fill="#404040">
                               <set attributeName="fill" to="#808080" begin="reset.mouseover" end="reset.mouseout"/>
                       </use>
               </g>
        </defs>

<script type="text/javascript">
var viewWidth = 2767;
var viewHeight = 310;
var sectionId = 'dynsection-0';
</script>
<script xlink:href="svgpan.js"/>
<svg id="graph" class="graph">
<g id="viewport">
<title>ParseInstruction.cpp</title>
<polygon fill="white" stroke="none" points="-4,4 -4,-305.5 2763.25,-305.5 2763.25,4 -4,4"/>
<!-- Node1 -->
<g id="node1" class="node">
<title>Node1</title>
<g id="a_node1"><a xlink:title=" ">
<polygon fill="#bfbfbf" stroke="black" points="1920.62,-281.75 1920.62,-301 2026.62,-301 2026.62,-281.75 1920.62,-281.75"/>
<text text-anchor="middle" x="1973.62" y="-287.5" font-family="Helvetica,sans-Serif" font-size="10.00">ParseInstruction.cpp</text>
</a>
</g>
</g>
<!-- Node2 -->
<g id="node2" class="node">
<title>Node2</title>
<g id="a_node2"><a xlink:title=" ">
<polygon fill="white" stroke="#bfbfbf" points="1441.88,-225.5 1441.88,-244.75 1489.38,-244.75 1489.38,-225.5 1441.88,-225.5"/>
<text text-anchor="middle" x="1465.62" y="-231.25" font-family="Helvetica,sans-Serif" font-size="10.00">stdlib.h</text>
</a>
</g>
</g>
<!-- Node1&#45;&gt;Node2 -->
<g id="edge1" class="edge">
<title>Node1&#45;&gt;Node2</title>
<path fill="none" stroke="midnightblue" d="M1920.45,-287.7C1833.01,-282.76 1653.6,-270.33 1503.62,-245.25 1502.63,-245.08 1501.62,-244.91 1500.61,-244.72"/>
<polygon fill="midnightblue" stroke="midnightblue" points="1501.63,-241.36 1491.13,-242.74 1500.2,-248.21 1501.63,-241.36"/>
</g>
<!-- Node3 -->
<g id="node3" class="node">
<title>Node3</title>
<g id="a_node3"><a xlink:href="_rexx_core_8h.html" target="_top" xlink:title=" ">
<polygon fill="white" stroke="black" points="1211.38,-113 1211.38,-132.25 1279.88,-132.25 1279.88,-113 1211.38,-113"/>
<text text-anchor="middle" x="1245.62" y="-118.75" font-family="Helvetica,sans-Serif" font-size="10.00">RexxCore.h</text>
</a>
</g>
</g>
<!-- Node1&#45;&gt;Node3 -->
<g id="edge2" class="edge">
<title>Node1&#45;&gt;Node3</title>
<path fill="none" stroke="midnightblue" d="M1920.33,-287.07C1862.87,-282.3 1769.31,-271.04 1692.62,-245.25 1674.49,-239.15 1672.49,-231.85 1654.62,-225 1527.13,-176.09 1368.1,-144.61 1291.32,-131.14"/>
<polygon fill="midnightblue" stroke="midnightblue" points="1292.1,-127.73 1281.65,-129.47 1290.91,-134.62 1292.1,-127.73"/>
</g>
<!-- Node41 -->
<g id="node23" class="node">
<title>Node41</title>
<g id="a_node23"><a xlink:href="_rexx_activity_8hpp.html" target="_top" xlink:title=" ">
<polygon fill="white" stroke="red" points="2003.88,-56.75 2003.88,-76 2093.38,-76 2093.38,-56.75 2003.88,-56.75"/>
<text text-anchor="middle" x="2048.62" y="-62.5" font-family="Helvetica,sans-Serif" font-size="10.00">RexxActivity.hpp</text>
</a>
</g>
</g>
<!-- Node1&#45;&gt;Node41 -->
<g id="edge57" class="edge">
<title>Node1&#45;&gt;Node41</title>
<path fill="none" stroke="midnightblue" d="M1943.8,-281.27C1891.6,-263.7 1792.33,-222.11 1826.62,-168.75 1847.45,-136.35 1950.64,-98.85 2008.72,-79.83"/>
<polygon fill="midnightblue" stroke="midnightblue" points="2009.48,-83.26 2017.91,-76.85 2007.32,-76.6 2009.48,-83.26"/>
</g>
<!-- Node51 -->
<g id="node34" class="node">
<title>Node51</title>
<g id="a_node34"><a xlink:href="_string_class_8hpp.html" target="_top" xlink:title=" ">
<polygon fill="white" stroke="black" points="168.75,-169.25 168.75,-188.5 254.5,-188.5 254.5,-169.25 168.75,-169.25"/>
<text text-anchor="middle" x="211.62" y="-175" font-family="Helvetica,sans-Serif" font-size="10.00">StringClass.hpp</text>
</a>
</g>
</g>
<!-- Node1&#45;&gt;Node51 -->
<g id="edge35" class="edge">
<title>Node1&#45;&gt;Node51</title>
<path fill="none" stroke="midnightblue" d="M1920.43,-287.45C1820.2,-281.51 1607.11,-266.77 1536.62,-245.25 1518.32,-239.66 1517.12,-229.92 1498.62,-225 1372.19,-191.35 452.25,-196.41 321.62,-189 303.58,-187.98 283.89,-186.47 266.23,-184.97"/>
<polygon fill="midnightblue" stroke="midnightblue" points="266.72,-181.5 256.46,-184.12 266.12,-188.47 266.72,-181.5"/>
</g>
<!-- Node70 -->
<g id="node38" class="node">
<title>Node70</title>
<g id="a_node38"><a xlink:href="_queue_class_8hpp.html" target="_top" xlink:title=" ">
<polygon fill="white" stroke="black" points="2416.25,-113 2416.25,-132.25 2505,-132.25 2505,-113 2416.25,-113"/>
<text text-anchor="middle" x="2460.62" y="-118.75" font-family="Helvetica,sans-Serif" font-size="10.00">QueueClass.hpp</text>
</a>
</g>
</g>
<!-- Node1&#45;&gt;Node70 -->
<g id="edge42" class="edge">
<title>Node1&#45;&gt;Node70</title>
<path fill="none" stroke="midnightblue" d="M2026.87,-283.62C2131.05,-269.57 2357.09,-234.64 2419.62,-189 2435.51,-177.41 2446.65,-157.62 2453.28,-142.84"/>
<polygon fill="midnightblue" stroke="midnightblue" points="2456.46,-144.3 2457.04,-133.72 2449.99,-141.63 2456.46,-144.3"/>
</g>
<!-- Node71 -->
<g id="node39" class="node">
<title>Node71</title>
<g id="a_node39"><a xlink:href="_directory_class_8hpp.html" target="_top" xlink:title=" ">
<polygon fill="white" stroke="black" points="1545.62,-225.5 1545.62,-244.75 1645.62,-244.75 1645.62,-225.5 1545.62,-225.5"/>
<text text-anchor="middle" x="1595.62" y="-231.25" font-family="Helvetica,sans-Serif" font-size="10.00">DirectoryClass.hpp</text>
</a>
</g>
</g>
<!-- Node1&#45;&gt;Node71 -->
<g id="edge44" class="edge">
<title>Node1&#45;&gt;Node71</title>
<path fill="none" stroke="midnightblue" d="M1920.27,-282.72C1851.02,-272.78 1730.41,-255.47 1657.31,-244.98"/>
<polygon fill="midnightblue" stroke="midnightblue" points="1657.89,-241.53 1647.49,-243.57 1656.89,-248.45 1657.89,-241.53"/>
</g>
<!-- Node72 -->
<g id="node40" class="node">
<title>Node72</title>
<g id="a_node40"><a xlink:href="_rexx_activation_8hpp.html" target="_top" xlink:title=" ">
<polygon fill="white" stroke="black" points="2088.88,-225.5 2088.88,-244.75 2190.38,-244.75 2190.38,-225.5 2088.88,-225.5"/>
<text text-anchor="middle" x="2139.62" y="-231.25" font-family="Helvetica,sans-Serif" font-size="10.00">RexxActivation.hpp</text>
</a>
</g>
</g>
<!-- Node1&#45;&gt;Node72 -->
<g id="edge46" class="edge">
<title>Node1&#45;&gt;Node72</title>
<path fill="none" stroke="midnightblue" d="M2001.41,-281.29C2028.7,-272.38 2070.57,-258.69 2101.07,-248.72"/>
<polygon fill="midnightblue" stroke="midnightblue" points="2101.89,-252.14 2110.31,-245.71 2099.72,-245.48 2101.89,-252.14"/>
</g>
<!-- Node85 -->
<g id="node46" class="node">
<title>Node85</title>
<g id="a_node46"><a xlink:href="_parse_instruction_8hpp.html" target="_top" xlink:title=" ">
<polygon fill="white" stroke="red" points="2547.62,-225.5 2547.62,-244.75 2653.62,-244.75 2653.62,-225.5 2547.62,-225.5"/>
<text text-anchor="middle" x="2600.62" y="-231.25" font-family="Helvetica,sans-Serif" font-size="10.00">ParseInstruction.hpp</text>
</a>
</g>
</g>
<!-- Node1&#45;&gt;Node85 -->
<g id="edge58" class="edge">
<title>Node1&#45;&gt;Node85</title>
<path fill="none" stroke="midnightblue" d="M2026.99,-287.05C2126.69,-280.64 2347.93,-265.36 2533.62,-245.25 2534.46,-245.16 2535.29,-245.07 2536.14,-244.97"/>
<polygon fill="midnightblue" stroke="midnightblue" points="2536.24,-248.49 2545.76,-243.84 2535.42,-241.53 2536.24,-248.49"/>
</g>
<!-- Node87 -->
<g id="node47" class="node">
<title>Node87</title>
<g id="a_node47"><a xlink:href="_parse_trigger_8hpp.html" target="_top" xlink:title=" ">
<polygon fill="white" stroke="black" points="2532.88,-169.25 2532.88,-188.5 2622.38,-188.5 2622.38,-169.25 2532.88,-169.25"/>
<text text-anchor="middle" x="2577.62" y="-175" font-family="Helvetica,sans-Serif" font-size="10.00">ParseTrigger.hpp</text>
</a>
</g>
</g>
<!-- Node1&#45;&gt;Node87 -->
<g id="edge60" class="edge">
<title>Node1&#45;&gt;Node87</title>
<path fill="none" stroke="midnightblue" d="M2026.8,-289.66C2142.09,-287.48 2411.46,-278.83 2495.62,-245.25 2522.2,-234.65 2547.05,-212.42 2562.28,-196.84"/>
<polygon fill="midnightblue" stroke="midnightblue" points="2564.72,-199.36 2569.03,-189.68 2559.63,-194.55 2564.72,-199.36"/>
</g>
<!-- Node88 -->
<g id="node48" class="node">
<title>Node88</title>
<g id="a_node48"><a xlink:href="_parse_target_8hpp.html" target="_top" xlink:title=" ">
<polygon fill="white" stroke="black" points="2672,-225.5 2672,-244.75 2759.25,-244.75 2759.25,-225.5 2672,-225.5"/>
<text text-anchor="middle" x="2715.62" y="-231.25" font-family="Helvetica,sans-Serif" font-size="10.00">ParseTarget.hpp</text>
</a>
</g>
</g>
<!-- Node1&#45;&gt;Node88 -->
<g id="edge61" class="edge">
<title>Node1&#45;&gt;Node88</title>
<path fill="none" stroke="midnightblue" d="M2026.96,-288.79C2141.19,-284.99 2418.08,-273.57 2660.56,-245.36"/>
<polygon fill="midnightblue" stroke="midnightblue" points="2660.69,-248.87 2670.21,-244.23 2659.87,-241.92 2660.69,-248.87"/>
</g>
<!-- Node77 -->
<g id="node49" class="node">
<title>Node77</title>
<g id="a_node49"><a xlink:href="_token_8hpp.html" target="_top" xlink:title=" ">
<polygon fill="white" stroke="black" points="2523.12,-113 2523.12,-132.25 2584.12,-132.25 2584.12,-113 2523.12,-113"/>
<text text-anchor="middle" x="2553.62" y="-118.75" font-family="Helvetica,sans-Serif" font-size="10.00">Token.hpp</text>
</a>
</g>
</g>
<!-- Node1&#45;&gt;Node77 -->
<g id="edge62" class="edge">
<title>Node1&#45;&gt;Node77</title>
<path fill="none" stroke="midnightblue" d="M2027.01,-287.17C2092.93,-282.28 2208.07,-270.69 2303.62,-245.25 2368.03,-228.1 2382.86,-218.49 2442.62,-189 2473.96,-173.54 2508.4,-152.59 2530.48,-138.62"/>
<polygon fill="midnightblue" stroke="midnightblue" points="2532.15,-141.7 2538.7,-133.37 2528.39,-135.8 2532.15,-141.7"/>
</g>
<!-- Node36 -->
<g id="node50" class="node">
<title>Node36</title>
<g id="a_node50"><a xlink:href="_interpreter_8hpp.html" target="_top" xlink:title=" ">
<polygon fill="white" stroke="red" points="1701.5,-225.5 1701.5,-244.75 1779.75,-244.75 1779.75,-225.5 1701.5,-225.5"/>
<text text-anchor="middle" x="1740.62" y="-231.25" font-family="Helvetica,sans-Serif" font-size="10.00">Interpreter.hpp</text>
</a>
</g>
</g>
<!-- Node1&#45;&gt;Node36 -->
<g id="edge64" class="edge">
<title>Node1&#45;&gt;Node36</title>
<path fill="none" stroke="midnightblue" d="M1934.63,-281.29C1895.14,-272.1 1833.93,-257.85 1790.84,-247.82"/>
<polygon fill="midnightblue" stroke="midnightblue" points="1791.76,-244.44 1781.23,-245.58 1790.17,-251.25 1791.76,-244.44"/>
</g>
<!-- Node4 -->
<g id="node4" class="node">
<title>Node4</title>
<g id="a_node4"><a xlink:href="oorexxapi_8h.html" target="_top" xlink:title=" ">
<polygon fill="white" stroke="red" points="1856.5,-56.75 1856.5,-76 1922.75,-76 1922.75,-56.75 1856.5,-56.75"/>
<text text-anchor="middle" x="1889.62" y="-62.5" font-family="Helvetica,sans-Serif" font-size="10.00">oorexxapi.h</text>
</a>
</g>
</g>
<!-- Node3&#45;&gt;Node4 -->
<g id="edge3" class="edge">
<title>Node3&#45;&gt;Node4</title>
<path fill="none" stroke="midnightblue" d="M1280.08,-120.72C1370.93,-117.97 1624.58,-108.01 1845.09,-76.67"/>
<polygon fill="midnightblue" stroke="midnightblue" points="1845.33,-80.18 1854.73,-75.28 1844.34,-73.25 1845.33,-80.18"/>
</g>
<!-- Node11 -->
<g id="node5" class="node">
<title>Node11</title>
<g id="a_node5"><a xlink:title=" ">
<polygon fill="white" stroke="#bfbfbf" points="1941,-56.75 1941,-76 1986.25,-76 1986.25,-56.75 1941,-56.75"/>
<text text-anchor="middle" x="1963.62" y="-62.5" font-family="Helvetica,sans-Serif" font-size="10.00">stdio.h</text>
</a>
</g>
</g>
<!-- Node3&#45;&gt;Node11 -->
<g id="edge4" class="edge">
<title>Node3&#45;&gt;Node11</title>
<path fill="none" stroke="midnightblue" d="M1280.19,-121.93C1379.78,-122.25 1675.82,-119.42 1929.41,-76.49"/>
<polygon fill="midnightblue" stroke="midnightblue" points="1929.94,-79.95 1939.2,-74.8 1928.75,-73.05 1929.94,-79.95"/>
</g>
<!-- Node12 -->
<g id="node6" class="node">
<title>Node12</title>
<g id="a_node6"><a xlink:title=" ">
<polygon fill="white" stroke="#bfbfbf" points="256,-56.75 256,-76 307.25,-76 307.25,-56.75 256,-56.75"/>
<text text-anchor="middle" x="281.62" y="-62.5" font-family="Helvetica,sans-Serif" font-size="10.00">stdarg.h</text>
</a>
</g>
</g>
<!-- Node3&#45;&gt;Node12 -->
<g id="edge5" class="edge">
<title>Node3&#45;&gt;Node12</title>
<path fill="none" stroke="midnightblue" d="M1211.16,-120.79C1092.15,-117.73 687.51,-105.7 354.62,-76.5 343.01,-75.48 330.4,-74.03 318.97,-72.58"/>
<polygon fill="midnightblue" stroke="midnightblue" points="319.46,-69.12 309.09,-71.29 318.55,-76.06 319.46,-69.12"/>
</g>
<!-- Node13 -->
<g id="node7" class="node">
<title>Node13</title>
<g id="a_node7"><a xlink:title=" ">
<polygon fill="white" stroke="#bfbfbf" points="363.5,-56.75 363.5,-76 411.75,-76 411.75,-56.75 363.5,-56.75"/>
<text text-anchor="middle" x="387.62" y="-62.5" font-family="Helvetica,sans-Serif" font-size="10.00">string.h</text>
</a>
</g>
</g>
<!-- Node3&#45;&gt;Node13 -->
<g id="edge6" class="edge">
<title>Node3&#45;&gt;Node13</title>
<path fill="none" stroke="midnightblue" d="M1210.97,-120.72C1077.83,-117.11 598.24,-102.67 423.32,-76.52"/>
<polygon fill="midnightblue" stroke="midnightblue" points="423.92,-73.08 413.5,-74.98 422.83,-79.99 423.92,-73.08"/>
</g>
<!-- Node14 -->
<g id="node8" class="node">
<title>Node14</title>
<g id="a_node8"><a xlink:title=" ">
<polygon fill="white" stroke="#bfbfbf" points="429.5,-56.75 429.5,-76 477.75,-76 477.75,-56.75 429.5,-56.75"/>
<text text-anchor="middle" x="453.62" y="-62.5" font-family="Helvetica,sans-Serif" font-size="10.00">ctype.h</text>
</a>
</g>
</g>
<!-- Node3&#45;&gt;Node14 -->
<g id="edge7" class="edge">
<title>Node3&#45;&gt;Node14</title>
<path fill="none" stroke="midnightblue" d="M1210.92,-122.14C1104.26,-123.19 771.94,-122.42 489.31,-76.59"/>
<polygon fill="midnightblue" stroke="midnightblue" points="489.93,-73.15 479.5,-74.98 488.8,-80.06 489.93,-73.15"/>
</g>
<!-- Node15 -->
<g id="node9" class="node">
<title>Node15</title>
<g id="a_node9"><a xlink:title=" ">
<polygon fill="white" stroke="#bfbfbf" points="495.88,-56.75 495.88,-76 543.38,-76 543.38,-56.75 495.88,-56.75"/>
<text text-anchor="middle" x="519.62" y="-62.5" font-family="Helvetica,sans-Serif" font-size="10.00">limits.h</text>
</a>
</g>
</g>
<!-- Node3&#45;&gt;Node15 -->
<g id="edge8" class="edge">
<title>Node3&#45;&gt;Node15</title>
<path fill="none" stroke="midnightblue" d="M1211.09,-121.86C1110.84,-122.03 811.22,-118.83 554.67,-76.48"/>
<polygon fill="midnightblue" stroke="midnightblue" points="555.58,-73.08 545.14,-74.88 554.42,-79.99 555.58,-73.08"/>
</g>
<!-- Node16 -->
<g id="node10" class="node">
<title>Node16</title>
<g id="a_node10"><a xlink:title=" ">
<polygon fill="white" stroke="#bfbfbf" points="561.25,-56.75 561.25,-76 620,-76 620,-56.75 561.25,-56.75"/>
<text text-anchor="middle" x="590.62" y="-62.5" font-family="Helvetica,sans-Serif" font-size="10.00">stdexcept</text>
</a>
</g>
</g>
<!-- Node3&#45;&gt;Node16 -->
<g id="edge9" class="edge">
<title>Node3&#45;&gt;Node16</title>
<path fill="none" stroke="midnightblue" d="M1210.95,-121.06C1118.3,-119.14 857.17,-110.99 631.46,-76.72"/>
<polygon fill="midnightblue" stroke="midnightblue" points="632.32,-73.31 621.9,-75.24 631.25,-80.22 632.32,-73.31"/>
</g>
<!-- Node17 -->
<g id="node11" class="node">
<title>Node17</title>
<g id="a_node11"><a xlink:href="_rexx_platform_definitions_8h.html" target="_top" xlink:title=" ">
<polygon fill="white" stroke="red" points="1368.25,-56.75 1368.25,-76 1499,-76 1499,-56.75 1368.25,-56.75"/>
<text text-anchor="middle" x="1433.62" y="-62.5" font-family="Helvetica,sans-Serif" font-size="10.00">RexxPlatformDefinitions.h</text>
</a>
</g>
</g>
<!-- Node3&#45;&gt;Node17 -->
<g id="edge10" class="edge">
<title>Node3&#45;&gt;Node17</title>
<path fill="none" stroke="midnightblue" d="M1277.09,-112.54C1308.41,-103.51 1356.67,-89.58 1391.32,-79.58"/>
<polygon fill="midnightblue" stroke="midnightblue" points="1391.96,-83.04 1400.6,-76.9 1390.02,-76.31 1391.96,-83.04"/>
</g>
<!-- Node20 -->
<g id="node12" class="node">
<title>Node20</title>
<g id="a_node12"><a xlink:href="_rexx_constants_8hpp.html" target="_top" xlink:title=" ">
<polygon fill="white" stroke="black" points="1517.12,-56.75 1517.12,-76 1620.12,-76 1620.12,-56.75 1517.12,-56.75"/>
<text text-anchor="middle" x="1568.62" y="-62.5" font-family="Helvetica,sans-Serif" font-size="10.00">RexxConstants.hpp</text>
</a>
</g>
</g>
<!-- Node3&#45;&gt;Node20 -->
<g id="edge11" class="edge">
<title>Node3&#45;&gt;Node20</title>
<path fill="none" stroke="midnightblue" d="M1280.19,-115.82C1333.88,-106.8 1438.14,-89.29 1505.5,-77.98"/>
<polygon fill="midnightblue" stroke="midnightblue" points="1506.03,-81.44 1515.32,-76.33 1504.87,-74.53 1506.03,-81.44"/>
</g>
<!-- Node21 -->
<g id="node13" class="node">
<title>Node21</title>
<g id="a_node13"><a xlink:href="_class_type_codes_8h.html" target="_top" xlink:title=" ">
<polygon fill="white" stroke="black" points="1638,-56.75 1638,-76 1737.25,-76 1737.25,-56.75 1638,-56.75"/>
<text text-anchor="middle" x="1687.62" y="-62.5" font-family="Helvetica,sans-Serif" font-size="10.00">ClassTypeCodes.h</text>
</a>
</g>
</g>
<!-- Node3&#45;&gt;Node21 -->
<g id="edge12" class="edge">
<title>Node3&#45;&gt;Node21</title>
<path fill="none" stroke="midnightblue" d="M1280.27,-117.97C1345.68,-110.97 1492.12,-94.87 1626.45,-76.75"/>
<polygon fill="midnightblue" stroke="midnightblue" points="1626.81,-80.23 1636.25,-75.42 1625.87,-73.3 1626.81,-80.23"/>
</g>
<!-- Node22 -->
<g id="node14" class="node">
<title>Node22</title>
<g id="a_node14"><a xlink:href="_global_names_8h.html" target="_top" xlink:title=" ">
<polygon fill="white" stroke="black" points="1754.88,-56.75 1754.88,-76 1838.38,-76 1838.38,-56.75 1754.88,-56.75"/>
<text text-anchor="middle" x="1796.62" y="-62.5" font-family="Helvetica,sans-Serif" font-size="10.00">GlobalNames.h</text>
</a>
</g>
</g>
<!-- Node3&#45;&gt;Node22 -->
<g id="edge13" class="edge">
<title>Node3&#45;&gt;Node22</title>
<path fill="none" stroke="midnightblue" d="M1280.37,-119.58C1360.32,-114.66 1563.69,-100.8 1743.15,-76.88"/>
<polygon fill="midnightblue" stroke="midnightblue" points="1743.44,-80.37 1752.89,-75.56 1742.51,-73.43 1743.44,-80.37"/>
</g>
<!-- Node23 -->
<g id="node15" class="node">
<title>Node23</title>
<g id="a_node15"><a xlink:href="_object_class_8hpp.html" target="_top" xlink:title=" ">
<polygon fill="white" stroke="red" points="2111.25,-56.75 2111.25,-76 2200,-76 2200,-56.75 2111.25,-56.75"/>
<text text-anchor="middle" x="2155.62" y="-62.5" font-family="Helvetica,sans-Serif" font-size="10.00">ObjectClass.hpp</text>
</a>
</g>
</g>
<!-- Node3&#45;&gt;Node23 -->
<g id="edge14" class="edge">
<title>Node3&#45;&gt;Node23</title>
<path fill="none" stroke="midnightblue" d="M1280.03,-121.27C1394.88,-119.77 1775.6,-112.33 2099.83,-76.69"/>
<polygon fill="midnightblue" stroke="midnightblue" points="2099.8,-80.21 2109.35,-75.63 2099.03,-73.26 2099.8,-80.21"/>
</g>
<!-- Node26 -->
<g id="node16" class="node">
<title>Node26</title>
<g id="a_node16"><a xlink:href="_table_class_8hpp.html" target="_top" xlink:title=" ">
<polygon fill="white" stroke="black" points="637.88,-56.75 637.88,-76 721.38,-76 721.38,-56.75 637.88,-56.75"/>
<text text-anchor="middle" x="679.62" y="-62.5" font-family="Helvetica,sans-Serif" font-size="10.00">TableClass.hpp</text>
</a>
</g>
</g>
<!-- Node3&#45;&gt;Node26 -->
<g id="edge15" class="edge">
<title>Node3&#45;&gt;Node26</title>
<path fill="none" stroke="midnightblue" d="M1210.9,-119.43C1128.32,-114.03 913.78,-98.87 735.62,-76.5 734.78,-76.39 733.93,-76.29 733.08,-76.17"/>
<polygon fill="midnightblue" stroke="midnightblue" points="733.66,-72.72 723.27,-74.79 732.69,-79.65 733.66,-72.72"/>
</g>
<!-- Node29 -->
<g id="node18" class="node">
<title>Node29</title>
<g id="a_node18"><a xlink:href="_stack_class_8hpp.html" target="_top" xlink:title=" ">
<polygon fill="white" stroke="black" points="777.75,-56.75 777.75,-76 863.5,-76 863.5,-56.75 777.75,-56.75"/>
<text text-anchor="middle" x="820.62" y="-62.5" font-family="Helvetica,sans-Serif" font-size="10.00">StackClass.hpp</text>
</a>
</g>
</g>
<!-- Node3&#45;&gt;Node29 -->
<g id="edge17" class="edge">
<title>Node3&#45;&gt;Node29</title>
<path fill="none" stroke="midnightblue" d="M1211.09,-118.07C1147.02,-111.34 1005.17,-95.81 875.07,-76.79"/>
<polygon fill="midnightblue" stroke="midnightblue" points="875.63,-73.34 865.22,-75.34 874.61,-80.26 875.63,-73.34"/>
</g>
<!-- Node30 -->
<g id="node19" class="node">
<title>Node30</title>
<g id="a_node19"><a xlink:href="_rexx_memory_8hpp.html" target="_top" xlink:title=" ">
<polygon fill="white" stroke="red" points="881.75,-56.75 881.75,-76 973.5,-76 973.5,-56.75 881.75,-56.75"/>
<text text-anchor="middle" x="927.62" y="-62.5" font-family="Helvetica,sans-Serif" font-size="10.00">RexxMemory.hpp</text>
</a>
</g>
</g>
<!-- Node3&#45;&gt;Node30 -->
<g id="edge18" class="edge">
<title>Node3&#45;&gt;Node30</title>
<path fill="none" stroke="midnightblue" d="M1210.99,-115.72C1156.59,-106.44 1050.55,-88.35 984.74,-77.12"/>
<polygon fill="midnightblue" stroke="midnightblue" points="985.68,-73.73 975.23,-75.5 984.5,-80.63 985.68,-73.73"/>
</g>
<!-- Node37 -->
<g id="node20" class="node">
<title>Node37</title>
<g id="a_node20"><a xlink:href="_rexx_behaviour_8hpp.html" target="_top" xlink:title=" ">
<polygon fill="white" stroke="red" points="1029.25,-56.75 1029.25,-76 1130,-76 1130,-56.75 1029.25,-56.75"/>
<text text-anchor="middle" x="1079.62" y="-62.5" font-family="Helvetica,sans-Serif" font-size="10.00">RexxBehaviour.hpp</text>
</a>
</g>
</g>
<!-- Node3&#45;&gt;Node37 -->
<g id="edge19" class="edge">
<title>Node3&#45;&gt;Node37</title>
<path fill="none" stroke="midnightblue" d="M1217.84,-112.54C1190.55,-103.63 1148.68,-89.94 1118.18,-79.97"/>
<polygon fill="midnightblue" stroke="midnightblue" points="1119.53,-76.73 1108.94,-76.96 1117.36,-83.39 1119.53,-76.73"/>
</g>
<!-- Node39 -->
<g id="node21" class="node">
<title>Node39</title>
<g id="a_node21"><a xlink:href="_class_class_8hpp.html" target="_top" xlink:title=" ">
<polygon fill="white" stroke="black" points="1147.75,-56.75 1147.75,-76 1233.5,-76 1233.5,-56.75 1147.75,-56.75"/>
<text text-anchor="middle" x="1190.62" y="-62.5" font-family="Helvetica,sans-Serif" font-size="10.00">ClassClass.hpp</text>
</a>
</g>
</g>
<!-- Node3&#45;&gt;Node39 -->
<g id="edge20" class="edge">
<title>Node3&#45;&gt;Node39</title>
<path fill="none" stroke="midnightblue" d="M1236.54,-112.67C1228.69,-104.92 1217.14,-93.53 1207.59,-84.11"/>
<polygon fill="midnightblue" stroke="midnightblue" points="1210.19,-81.76 1200.62,-77.23 1205.28,-86.74 1210.19,-81.76"/>
</g>
<!-- Node40 -->
<g id="node22" class="node">
<title>Node40</title>
<g id="a_node22"><a xlink:href="_rexx_envelope_8hpp.html" target="_top" xlink:title=" ">
<polygon fill="white" stroke="black" points="1251.38,-56.75 1251.38,-76 1349.88,-76 1349.88,-56.75 1251.38,-56.75"/>
<text text-anchor="middle" x="1300.62" y="-62.5" font-family="Helvetica,sans-Serif" font-size="10.00">RexxEnvelope.hpp</text>
</a>
</g>
</g>
<!-- Node3&#45;&gt;Node40 -->
<g id="edge21" class="edge">
<title>Node3&#45;&gt;Node40</title>
<path fill="none" stroke="midnightblue" d="M1254.71,-112.67C1262.56,-104.92 1274.11,-93.53 1283.66,-84.11"/>
<polygon fill="midnightblue" stroke="midnightblue" points="1285.97,-86.74 1290.63,-77.23 1281.06,-81.76 1285.97,-86.74"/>
</g>
<!-- Node3&#45;&gt;Node41 -->
<g id="edge22" class="edge">
<title>Node3&#45;&gt;Node41</title>
<path fill="none" stroke="midnightblue" d="M1280.13,-120.9C1385.44,-118.42 1712.15,-108.58 1992.36,-76.77"/>
<polygon fill="midnightblue" stroke="midnightblue" points="1992.53,-80.27 2002.06,-75.65 1991.73,-73.32 1992.53,-80.27"/>
</g>
<!-- Node52 -->
<g id="node32" class="node">
<title>Node52</title>
<g id="a_node32"><a xlink:href="_number_string_class_8hpp.html" target="_top" xlink:title=" ">
<polygon fill="white" stroke="red" points="117.5,-56.75 117.5,-76 237.75,-76 237.75,-56.75 117.5,-56.75"/>
<text text-anchor="middle" x="177.62" y="-62.5" font-family="Helvetica,sans-Serif" font-size="10.00">NumberStringClass.hpp</text>
</a>
</g>
</g>
<!-- Node3&#45;&gt;Node52 -->
<g id="edge33" class="edge">
<title>Node3&#45;&gt;Node52</title>
<path fill="none" stroke="midnightblue" d="M1211.05,-121.14C1084.23,-119.15 632.57,-110.06 249.49,-76.68"/>
<polygon fill="midnightblue" stroke="midnightblue" points="249.95,-73.21 239.68,-75.82 249.34,-80.18 249.95,-73.21"/>
</g>
<!-- Node68 -->
<g id="node33" class="node">
<title>Node68</title>
<g id="a_node33"><a xlink:href="_activity_manager_8hpp.html" target="_top" xlink:title=" ">
<polygon fill="white" stroke="red" points="2218.38,-56.75 2218.38,-76 2322.88,-76 2322.88,-56.75 2218.38,-56.75"/>
<text text-anchor="middle" x="2270.62" y="-62.5" font-family="Helvetica,sans-Serif" font-size="10.00">ActivityManager.hpp</text>
</a>
</g>
</g>
<!-- Node3&#45;&gt;Node68 -->
<g id="edge34" class="edge">
<title>Node3&#45;&gt;Node68</title>
<path fill="none" stroke="midnightblue" d="M1280.26,-121.24C1404.24,-119.62 1837.69,-111.69 2206.46,-76.6"/>
<polygon fill="midnightblue" stroke="midnightblue" points="2206.78,-80.08 2216.4,-75.64 2206.11,-73.12 2206.78,-80.08"/>
</g>
<!-- Node27 -->
<g id="node17" class="node">
<title>Node27</title>
<g id="a_node17"><a xlink:href="_rexx_collection_8hpp.html" target="_top" xlink:title=" ">
<polygon fill="white" stroke="red" points="526.88,-0.5 526.88,-19.75 628.38,-19.75 628.38,-0.5 526.88,-0.5"/>
<text text-anchor="middle" x="577.62" y="-6.25" font-family="Helvetica,sans-Serif" font-size="10.00">RexxCollection.hpp</text>
</a>
</g>
</g>
<!-- Node26&#45;&gt;Node27 -->
<g id="edge16" class="edge">
<title>Node26&#45;&gt;Node27</title>
<path fill="none" stroke="midnightblue" d="M662.78,-56.42C646.98,-48.01 623.09,-35.31 604.63,-25.49"/>
<polygon fill="midnightblue" stroke="midnightblue" points="606.3,-22.41 595.83,-20.81 603.01,-28.59 606.3,-22.41"/>
</g>
<!-- Node42 -->
<g id="node24" class="node">
<title>Node42</title>
<g id="a_node24"><a xlink:href="_list_class_8hpp.html" target="_top" xlink:title=" ">
<polygon fill="white" stroke="red" points="2405.62,-0.5 2405.62,-19.75 2481.62,-19.75 2481.62,-0.5 2405.62,-0.5"/>
<text text-anchor="middle" x="2443.62" y="-6.25" font-family="Helvetica,sans-Serif" font-size="10.00">ListClass.hpp</text>
</a>
</g>
</g>
<!-- Node41&#45;&gt;Node42 -->
<g id="edge23" class="edge">
<title>Node41&#45;&gt;Node42</title>
<path fill="none" stroke="midnightblue" d="M2093.68,-57.61C2096.71,-57.13 2099.71,-56.68 2102.62,-56.25 2228.47,-37.87 2263.5,-40.09 2393.92,-20.25"/>
<polygon fill="midnightblue" stroke="midnightblue" points="2394.3,-23.73 2403.65,-18.75 2393.23,-16.81 2394.3,-23.73"/>
</g>
<!-- Node44 -->
<g id="node25" class="node">
<title>Node44</title>
<g id="a_node25"><a xlink:href="_rexx_internal_stack_8hpp.html" target="_top" xlink:title=" ">
<polygon fill="white" stroke="black" points="1990.75,-0.5 1990.75,-19.75 2106.5,-19.75 2106.5,-0.5 1990.75,-0.5"/>
<text text-anchor="middle" x="2048.62" y="-6.25" font-family="Helvetica,sans-Serif" font-size="10.00">RexxInternalStack.hpp</text>
</a>
</g>
</g>
<!-- Node41&#45;&gt;Node44 -->
<g id="edge24" class="edge">
<title>Node41&#45;&gt;Node44</title>
<path fill="none" stroke="midnightblue" d="M2048.62,-56.42C2048.62,-49.62 2048.62,-40.01 2048.62,-31.4"/>
<polygon fill="midnightblue" stroke="midnightblue" points="2052.13,-31.43 2048.63,-21.43 2045.13,-31.43 2052.13,-31.43"/>
</g>
<!-- Node45 -->
<g id="node26" class="node">
<title>Node45</title>
<g id="a_node26"><a xlink:href="_rexx_activation_stack_8hpp.html" target="_top" xlink:title=" ">
<polygon fill="white" stroke="black" points="1846.12,-0.5 1846.12,-19.75 1973.12,-19.75 1973.12,-0.5 1846.12,-0.5"/>
<text text-anchor="middle" x="1909.62" y="-6.25" font-family="Helvetica,sans-Serif" font-size="10.00">RexxActivationStack.hpp</text>
</a>
</g>
</g>
<!-- Node41&#45;&gt;Node45 -->
<g id="edge25" class="edge">
<title>Node41&#45;&gt;Node45</title>
<path fill="none" stroke="midnightblue" d="M2025.36,-56.29C2003.01,-47.57 1968.98,-34.29 1943.6,-24.39"/>
<polygon fill="midnightblue" stroke="midnightblue" points="1944.96,-21.16 1934.38,-20.79 1942.42,-27.68 1944.96,-21.16"/>
</g>
<!-- Node46 -->
<g id="node27" class="node">
<title>Node46</title>
<g id="a_node27"><a xlink:href="_expression_stack_8hpp.html" target="_top" xlink:title=" ">
<polygon fill="white" stroke="red" points="2133.12,-0.5 2133.12,-19.75 2242.12,-19.75 2242.12,-0.5 2133.12,-0.5"/>
<text text-anchor="middle" x="2187.62" y="-6.25" font-family="Helvetica,sans-Serif" font-size="10.00">ExpressionStack.hpp</text>
</a>
</g>
</g>
<!-- Node41&#45;&gt;Node46 -->
<g id="edge26" class="edge">
<title>Node41&#45;&gt;Node46</title>
<path fill="none" stroke="midnightblue" d="M2071.89,-56.29C2094.24,-47.57 2128.27,-34.29 2153.65,-24.39"/>
<polygon fill="midnightblue" stroke="midnightblue" points="2154.83,-27.68 2162.87,-20.79 2152.29,-21.16 2154.83,-27.68"/>
</g>
<!-- Node48 -->
<g id="node28" class="node">
<title>Node48</title>
<g id="a_node28"><a xlink:href="_rexx_local_variables_8hpp.html" target="_top" xlink:title=" ">
<polygon fill="white" stroke="red" points="2264.12,-0.5 2264.12,-19.75 2385.12,-19.75 2385.12,-0.5 2264.12,-0.5"/>
<text text-anchor="middle" x="2324.62" y="-6.25" font-family="Helvetica,sans-Serif" font-size="10.00">RexxLocalVariables.hpp</text>
</a>
</g>
</g>
<!-- Node41&#45;&gt;Node48 -->
<g id="edge27" class="edge">
<title>Node41&#45;&gt;Node48</title>
<path fill="none" stroke="midnightblue" d="M2093.58,-56.54C2140.87,-47.24 2215.45,-32.59 2267.02,-22.45"/>
<polygon fill="midnightblue" stroke="midnightblue" points="2267.68,-25.88 2276.82,-20.52 2266.33,-19.02 2267.68,-25.88"/>
</g>
<!-- Node63 -->
<g id="node29" class="node">
<title>Node63</title>
<g id="a_node29"><a xlink:href="_source_location_8hpp.html" target="_top" xlink:title=" ">
<polygon fill="white" stroke="black" points="2500.5,-0.5 2500.5,-19.75 2602.75,-19.75 2602.75,-0.5 2500.5,-0.5"/>
<text text-anchor="middle" x="2551.62" y="-6.25" font-family="Helvetica,sans-Serif" font-size="10.00">SourceLocation.hpp</text>
</a>
</g>
</g>
<!-- Node41&#45;&gt;Node63 -->
<g id="edge28" class="edge">
<title>Node41&#45;&gt;Node63</title>
<path fill="none" stroke="midnightblue" d="M2093.67,-57.5C2096.7,-57.06 2099.7,-56.63 2102.62,-56.25 2270.74,-34.28 2316.78,-40.78 2488.82,-20.39"/>
<polygon fill="midnightblue" stroke="midnightblue" points="2489.05,-23.89 2498.57,-19.22 2488.22,-16.94 2489.05,-23.89"/>
</g>
<!-- Node64 -->
<g id="node30" class="node">
<title>Node64</title>
<g id="a_node30"><a xlink:href="_exit_handler_8hpp.html" target="_top" xlink:title=" ">
<polygon fill="white" stroke="red" points="1351.12,-0.5 1351.12,-19.75 1436.12,-19.75 1436.12,-0.5 1351.12,-0.5"/>
<text text-anchor="middle" x="1393.62" y="-6.25" font-family="Helvetica,sans-Serif" font-size="10.00">ExitHandler.hpp</text>
</a>
</g>
</g>
<!-- Node41&#45;&gt;Node64 -->
<g id="edge29" class="edge">
<title>Node41&#45;&gt;Node64</title>
<path fill="none" stroke="midnightblue" d="M2003.56,-57.31C2000.88,-56.93 1998.22,-56.57 1995.62,-56.25 1794.35,-31.44 1553.42,-18.35 1447.77,-13.44"/>
<polygon fill="midnightblue" stroke="midnightblue" points="1448.12,-9.96 1437.97,-13 1447.8,-16.95 1448.12,-9.96"/>
</g>
<!-- Node66 -->
<g id="node31" class="node">
<title>Node66</title>
<g id="a_node31"><a xlink:href="_activation_api_contexts_8hpp.html" target="_top" xlink:title=" ">
<polygon fill="white" stroke="black" points="785.5,-0.5 785.5,-19.75 917.75,-19.75 917.75,-0.5 785.5,-0.5"/>
<text text-anchor="middle" x="851.62" y="-6.25" font-family="Helvetica,sans-Serif" font-size="10.00">ActivationApiContexts.hpp</text>
</a>
</g>
</g>
<!-- Node41&#45;&gt;Node66 -->
<g id="edge31" class="edge">
<title>Node41&#45;&gt;Node66</title>
<path fill="none" stroke="midnightblue" d="M2003.58,-57.21C2000.89,-56.85 1998.22,-56.52 1995.62,-56.25 1788.1,-34.39 1151.38,-18.03 929.14,-12.86"/>
<polygon fill="midnightblue" stroke="midnightblue" points="929.52,-9.36 919.44,-12.63 929.36,-16.36 929.52,-9.36"/>
</g>
<!-- Node64&#45;&gt;Node3 -->
<g id="edge30" class="edge">
<title>Node64&#45;&gt;Node3</title>
<path fill="none" stroke="midnightblue" d="M1350.64,-13.17C1257.21,-18.06 1042.23,-31.87 1020.62,-56.25 969,-114.5 1120.24,-122.2 1199.93,-122.37"/>
<polygon fill="midnightblue" stroke="midnightblue" points="1199.63,-125.87 1209.63,-122.35 1199.62,-118.87 1199.63,-125.87"/>
</g>
<!-- Node66&#45;&gt;Node3 -->
<g id="edge32" class="edge">
<title>Node66&#45;&gt;Node3</title>
<path fill="none" stroke="midnightblue" d="M823.55,-20.19C791.9,-31.8 747.45,-53.23 768.62,-76.5 797.31,-108.03 1085.92,-118 1199.78,-120.72"/>
<polygon fill="midnightblue" stroke="midnightblue" points="1199.6,-124.22 1209.68,-120.95 1199.77,-117.22 1199.6,-124.22"/>
</g>
<!-- Node51&#45;&gt;Node52 -->
<g id="edge36" class="edge">
<title>Node51&#45;&gt;Node52</title>
<path fill="none" stroke="midnightblue" d="M209.15,-168.96C205.62,-156.35 198.88,-132.59 192.62,-112.5 190.02,-104.12 186.99,-94.93 184.34,-87.04"/>
<polygon fill="midnightblue" stroke="midnightblue" points="187.72,-86.11 181.2,-77.77 181.09,-88.36 187.72,-86.11"/>
</g>
<!-- Node54 -->
<g id="node35" class="node">
<title>Node54</title>
<g id="a_node35"><a xlink:href="_integer_class_8hpp.html" target="_top" xlink:title=" ">
<polygon fill="white" stroke="black" points="93.5,-113 93.5,-132.25 183.75,-132.25 183.75,-113 93.5,-113"/>
<text text-anchor="middle" x="138.62" y="-118.75" font-family="Helvetica,sans-Serif" font-size="10.00">IntegerClass.hpp</text>
</a>
</g>
</g>
<!-- Node51&#45;&gt;Node54 -->
<g id="edge37" class="edge">
<title>Node51&#45;&gt;Node54</title>
<path fill="none" stroke="midnightblue" d="M199.57,-168.92C188.73,-160.86 172.56,-148.84 159.6,-139.21"/>
<polygon fill="midnightblue" stroke="midnightblue" points="161.78,-136.47 151.67,-133.32 157.61,-142.09 161.78,-136.47"/>
</g>
<!-- Node55 -->
<g id="node36" class="node">
<title>Node55</title>
<g id="a_node36"><a xlink:href="_string_util_8hpp.html" target="_top" xlink:title=" ">
<polygon fill="white" stroke="black" points="0,-113 0,-132.25 75.25,-132.25 75.25,-113 0,-113"/>
<text text-anchor="middle" x="37.62" y="-118.75" font-family="Helvetica,sans-Serif" font-size="10.00">StringUtil.hpp</text>
</a>
</g>
</g>
<!-- Node51&#45;&gt;Node55 -->
<g id="edge39" class="edge">
<title>Node51&#45;&gt;Node55</title>
<path fill="none" stroke="midnightblue" d="M182.5,-168.79C153.77,-159.84 109.62,-146.07 77.61,-136.09"/>
<polygon fill="midnightblue" stroke="midnightblue" points="78.88,-132.82 68.29,-133.19 76.79,-139.5 78.88,-132.82"/>
</g>
<!-- Node56 -->
<g id="node37" class="node">
<title>Node56</title>
<g id="a_node37"><a xlink:href="_utilities_8hpp.html" target="_top" xlink:title=" ">
<polygon fill="white" stroke="red" points="239.75,-113 239.75,-132.25 307.5,-132.25 307.5,-113 239.75,-113"/>
<text text-anchor="middle" x="273.62" y="-118.75" font-family="Helvetica,sans-Serif" font-size="10.00">Utilities.hpp</text>
</a>
</g>
</g>
<!-- Node51&#45;&gt;Node56 -->
<g id="edge40" class="edge">
<title>Node51&#45;&gt;Node56</title>
<path fill="none" stroke="midnightblue" d="M221.86,-168.92C230.89,-161.02 244.27,-149.31 255.16,-139.78"/>
<polygon fill="midnightblue" stroke="midnightblue" points="257.22,-142.63 262.44,-133.41 252.61,-137.36 257.22,-142.63"/>
</g>
<!-- Node54&#45;&gt;Node52 -->
<g id="edge38" class="edge">
<title>Node54&#45;&gt;Node52</title>
<path fill="none" stroke="midnightblue" d="M145.07,-112.67C150.4,-105.24 158.16,-94.45 164.76,-85.27"/>
<polygon fill="midnightblue" stroke="midnightblue" points="167.43,-87.56 170.42,-77.4 161.74,-83.47 167.43,-87.56"/>
</g>
<!-- Node56&#45;&gt;Node12 -->
<g id="edge41" class="edge">
<title>Node56&#45;&gt;Node12</title>
<path fill="none" stroke="midnightblue" d="M274.95,-112.67C275.96,-105.79 277.4,-96.04 278.68,-87.35"/>
<polygon fill="midnightblue" stroke="midnightblue" points="282.11,-88.07 280.11,-77.66 275.19,-87.05 282.11,-88.07"/>
</g>
<!-- Node70&#45;&gt;Node42 -->
<g id="edge43" class="edge">
<title>Node70&#45;&gt;Node42</title>
<path fill="none" stroke="midnightblue" d="M2459.23,-112.58C2456.52,-94.93 2450.45,-55.5 2446.73,-31.33"/>
<polygon fill="midnightblue" stroke="midnightblue" points="2450.2,-30.83 2445.22,-21.48 2443.28,-31.9 2450.2,-30.83"/>
</g>
<!-- Node71&#45;&gt;Node27 -->
<g id="edge45" class="edge">
<title>Node71&#45;&gt;Node27</title>
<path fill="none" stroke="midnightblue" d="M1545.33,-226.88C1540.7,-226.23 1536.07,-225.6 1531.62,-225 1270.34,-189.89 528.98,-274.24 354.62,-76.5 307.03,-22.53 434.01,-12.03 515.4,-10.62"/>
<polygon fill="midnightblue" stroke="midnightblue" points="515.09,-14.13 525.05,-10.5 515,-7.13 515.09,-14.13"/>
</g>
<!-- Node72&#45;&gt;Node46 -->
<g id="edge47" class="edge">
<title>Node72&#45;&gt;Node46</title>
<path fill="none" stroke="midnightblue" d="M2146.36,-225.02C2156.42,-211.76 2176.37,-186.76 2196.62,-168.75 2250.94,-120.47 2297.7,-140.77 2331.62,-76.5 2335.83,-68.54 2336.95,-63.5 2331.62,-56.25 2321.3,-42.2 2282.79,-30.56 2248.19,-22.62"/>
<polygon fill="midnightblue" stroke="midnightblue" points="2249.13,-19.25 2238.61,-20.51 2247.62,-26.08 2249.13,-19.25"/>
</g>
<!-- Node72&#45;&gt;Node48 -->
<g id="edge49" class="edge">
<title>Node72&#45;&gt;Node48</title>
<path fill="none" stroke="midnightblue" d="M2190.69,-228.29C2259.32,-219.94 2374.18,-203.92 2386.62,-189 2427.4,-140.1 2370.29,-62.7 2340.6,-28.43"/>
<polygon fill="midnightblue" stroke="midnightblue" points="2343.33,-26.23 2334.07,-21.1 2338.11,-30.89 2343.33,-26.23"/>
</g>
<!-- Node72&#45;&gt;Node68 -->
<g id="edge53" class="edge">
<title>Node72&#45;&gt;Node68</title>
<path fill="none" stroke="midnightblue" d="M2141.55,-225.07C2144.66,-211.86 2151.66,-186.93 2163.62,-168.75 2187,-133.24 2225.09,-101.13 2248.96,-82.96"/>
<polygon fill="midnightblue" stroke="midnightblue" points="2250.8,-85.96 2256.72,-77.17 2246.61,-80.34 2250.8,-85.96"/>
</g>
<!-- Node73 -->
<g id="node41" class="node">
<title>Node73</title>
<g id="a_node41"><a xlink:href="_do_block_8hpp.html" target="_top" xlink:title=" ">
<polygon fill="white" stroke="black" points="2205.5,-169.25 2205.5,-188.5 2277.75,-188.5 2277.75,-169.25 2205.5,-169.25"/>
<text text-anchor="middle" x="2241.62" y="-175" font-family="Helvetica,sans-Serif" font-size="10.00">DoBlock.hpp</text>
</a>
</g>
</g>
<!-- Node72&#45;&gt;Node73 -->
<g id="edge48" class="edge">
<title>Node72&#45;&gt;Node73</title>
<path fill="none" stroke="midnightblue" d="M2156.47,-225.17C2172.27,-216.76 2196.16,-204.06 2214.62,-194.24"/>
<polygon fill="midnightblue" stroke="midnightblue" points="2216.24,-197.34 2223.42,-189.56 2212.95,-191.16 2216.24,-197.34"/>
</g>
<!-- Node74 -->
<g id="node42" class="node">
<title>Node74</title>
<g id="a_node42"><a xlink:href="_rexx_date_time_8hpp.html" target="_top" xlink:title=" ">
<polygon fill="white" stroke="black" points="1835.25,-169.25 1835.25,-188.5 1936,-188.5 1936,-169.25 1835.25,-169.25"/>
<text text-anchor="middle" x="1885.62" y="-175" font-family="Helvetica,sans-Serif" font-size="10.00">RexxDateTime.hpp</text>
</a>
</g>
</g>
<!-- Node72&#45;&gt;Node74 -->
<g id="edge50" class="edge">
<title>Node72&#45;&gt;Node74</title>
<path fill="none" stroke="midnightblue" d="M2097.11,-225.04C2053.8,-215.79 1986.48,-201.42 1939.47,-191.37"/>
<polygon fill="midnightblue" stroke="midnightblue" points="1940.27,-187.97 1929.76,-189.3 1938.81,-194.81 1940.27,-187.97"/>
</g>
<!-- Node75 -->
<g id="node43" class="node">
<title>Node75</title>
<g id="a_node43"><a xlink:href="_rexx_code_8hpp.html" target="_top" xlink:title=" ">
<polygon fill="white" stroke="red" points="2296,-169.25 2296,-188.5 2377.25,-188.5 2377.25,-169.25 2296,-169.25"/>
<text text-anchor="middle" x="2336.62" y="-175" font-family="Helvetica,sans-Serif" font-size="10.00">RexxCode.hpp</text>
</a>
</g>
</g>
<!-- Node72&#45;&gt;Node75 -->
<g id="edge52" class="edge">
<title>Node72&#45;&gt;Node75</title>
<path fill="none" stroke="midnightblue" d="M2172.6,-225.04C2205.55,-215.97 2256.42,-201.96 2292.77,-191.95"/>
<polygon fill="midnightblue" stroke="midnightblue" points="2293.37,-195.42 2302.08,-189.39 2291.51,-188.67 2293.37,-195.42"/>
</g>
<!-- Node83 -->
<g id="node44" class="node">
<title>Node83</title>
<g id="a_node44"><a xlink:href="_rexx_compound_tail_8hpp.html" target="_top" xlink:title=" ">
<polygon fill="white" stroke="red" points="1991.5,-169.25 1991.5,-188.5 2111.75,-188.5 2111.75,-169.25 1991.5,-169.25"/>
<text text-anchor="middle" x="2051.62" y="-175" font-family="Helvetica,sans-Serif" font-size="10.00">RexxCompoundTail.hpp</text>
</a>
</g>
</g>
<!-- Node72&#45;&gt;Node83 -->
<g id="edge54" class="edge">
<title>Node72&#45;&gt;Node83</title>
<path fill="none" stroke="midnightblue" d="M2125.09,-225.17C2111.72,-216.92 2091.62,-204.53 2075.82,-194.79"/>
<polygon fill="midnightblue" stroke="midnightblue" points="2077.82,-191.91 2067.47,-189.64 2074.14,-197.87 2077.82,-191.91"/>
</g>
<!-- Node84 -->
<g id="node45" class="node">
<title>Node84</title>
<g id="a_node45"><a xlink:href="_context_class_8hpp.html" target="_top" xlink:title=" ">
<polygon fill="white" stroke="black" points="1967.25,-113 1967.25,-132.25 2062,-132.25 2062,-113 1967.25,-113"/>
<text text-anchor="middle" x="2014.62" y="-118.75" font-family="Helvetica,sans-Serif" font-size="10.00">ContextClass.hpp</text>
</a>
</g>
</g>
<!-- Node72&#45;&gt;Node84 -->
<g id="edge55" class="edge">
<title>Node72&#45;&gt;Node84</title>
<path fill="none" stroke="midnightblue" d="M2088.56,-226.21C2047.81,-218.73 1995.51,-206.1 1982.62,-189 1971.4,-174.1 1983.77,-154.64 1996.25,-140.83"/>
<polygon fill="midnightblue" stroke="midnightblue" points="1998.67,-143.36 2003.16,-133.77 1993.67,-138.47 1998.67,-143.36"/>
</g>
<!-- Node74&#45;&gt;Node3 -->
<g id="edge51" class="edge">
<title>Node74&#45;&gt;Node3</title>
<path fill="none" stroke="midnightblue" d="M1834.87,-173.57C1713.39,-163.28 1407.4,-137.34 1291.28,-127.49"/>
<polygon fill="midnightblue" stroke="midnightblue" points="1291.77,-124.02 1281.51,-126.67 1291.18,-131 1291.77,-124.02"/>
</g>
<!-- Node84&#45;&gt;Node23 -->
<g id="edge56" class="edge">
<title>Node84&#45;&gt;Node23</title>
<path fill="none" stroke="midnightblue" d="M2038.23,-112.54C2061,-103.78 2095.72,-90.42 2121.51,-80.5"/>
<polygon fill="midnightblue" stroke="midnightblue" points="2122.46,-83.89 2130.54,-77.03 2119.95,-77.35 2122.46,-83.89"/>
</g>
<!-- Node85&#45;&gt;Node87 -->
<g id="edge59" class="edge">
<title>Node85&#45;&gt;Node87</title>
<path fill="none" stroke="midnightblue" d="M2596.83,-225.17C2593.85,-218.14 2589.59,-208.09 2585.84,-199.25"/>
<polygon fill="midnightblue" stroke="midnightblue" points="2589.07,-197.9 2581.94,-190.06 2582.62,-200.63 2589.07,-197.9"/>
</g>
<!-- Node77&#45;&gt;Node63 -->
<g id="edge63" class="edge">
<title>Node77&#45;&gt;Node63</title>
<path fill="none" stroke="midnightblue" d="M2553.46,-112.58C2553.14,-94.93 2552.43,-55.5 2551.99,-31.33"/>
<polygon fill="midnightblue" stroke="midnightblue" points="2555.49,-31.43 2551.81,-21.5 2548.49,-31.56 2555.49,-31.43"/>
</g>
<!-- Node36&#45;&gt;Node3 -->
<g id="edge65" class="edge">
<title>Node36&#45;&gt;Node3</title>
<path fill="none" stroke="midnightblue" d="M1736.27,-225.03C1728.68,-210.33 1711.53,-181.68 1687.62,-168.75 1620.14,-132.26 1390.67,-125.23 1291.69,-123.91"/>
<polygon fill="midnightblue" stroke="midnightblue" points="1291.84,-120.41 1281.8,-123.8 1291.76,-127.41 1291.84,-120.41"/>
</g>
</g>
</svg>
        <g id="navigator" transform="translate(0 0)" fill="#404254">
                <rect fill="#f2f5e9" fill-opacity="0.5" stroke="#606060" stroke-width=".5" x="0" y="0" width="60" height="60"/>
                <use id="zoomplus" xlink:href="#zoomPlus" x="17" y="9" onmousedown="handleZoom(evt,'in')"/>
                <use id="zoomminus" xlink:href="#zoomMin" x="42" y="9" onmousedown="handleZoom(evt,'out')"/>
                <use id="reset" xlink:href="#resetDef" x="30" y="36" onmousedown="handleReset()"/>
                <g id="arrowUp" xlink:href="#dirArrow" transform="translate(30 24)" onmousedown="handlePan(0,-1)">
                  <use xlink:href="#rim" fill="#404040">
                        <set attributeName="fill" to="#808080" begin="arrowUp.mouseover" end="arrowUp.mouseout"/>
                  </use>
                  <path fill="none" stroke="white" stroke-width="1.5" d="M0,-3.0v7 M-2.5,-0.5L0,-3.0L2.5,-0.5"/>
                </g>
                <g id="arrowRight" xlink:href="#dirArrow" transform="rotate(90) translate(36 -43)" onmousedown="handlePan(1,0)">
                  <use xlink:href="#rim" fill="#404040">
                        <set attributeName="fill" to="#808080" begin="arrowRight.mouseover" end="arrowRight.mouseout"/>
                  </use>
                  <path fill="none" stroke="white" stroke-width="1.5" d="M0,-3.0v7 M-2.5,-0.5L0,-3.0L2.5,-0.5"/>
                </g>
                <g id="arrowDown" xlink:href="#dirArrow" transform="rotate(180) translate(-30 -48)" onmousedown="handlePan(0,1)">
                  <use xlink:href="#rim" fill="#404040">
                        <set attributeName="fill" to="#808080" begin="arrowDown.mouseover" end="arrowDown.mouseout"/>
                  </use>
                  <path fill="none" stroke="white" stroke-width="1.5" d="M0,-3.0v7 M-2.5,-0.5L0,-3.0L2.5,-0.5"/>
                </g>
                <g id="arrowLeft" xlink:href="#dirArrow" transform="rotate(270) translate(-36 17)" onmousedown="handlePan(-1,0)">
                  <use xlink:href="#rim" fill="#404040">
                        <set attributeName="fill" to="#808080" begin="arrowLeft.mouseover" end="arrowLeft.mouseout"/>
                  </use>
                  <path fill="none" stroke="white" stroke-width="1.5" d="M0,-3.0v7 M-2.5,-0.5L0,-3.0L2.5,-0.5"/>
                </g>
        </g>
        <svg viewBox="0 0 15 15" width="100%" height="30px" preserveAspectRatio="xMaxYMin meet">
         <g id="arrow_out" transform="scale(0.3 0.3)">
          <a xlink:href="_parse_instruction_8cpp__incl_org.svg" target="_base">
           <rect id="button" ry="5" rx="5" y="6" x="6" height="38" width="38"
                fill="#f2f5e9" fill-opacity="0.5" stroke="#606060" stroke-width="1.0"/>
           <path id="arrow"
             d="M 11.500037,31.436501 C 11.940474,20.09759 22.043105,11.32322 32.158766,21.979434 L 37.068811,17.246167 C 37.068811,17.246167 37.088388,32 37.088388,32 L 22.160133,31.978069 C 22.160133,31.978069 26.997745,27.140456 26.997745,27.140456 C 18.528582,18.264221 13.291696,25.230495 11.500037,31.436501 z"
             style="fill:#404040;"/>
          </a>
         </g>
        </svg>
</svg>
