<?xml version="1.0" encoding="UTF-8" standalone="no"?>
<!DOCTYPE svg PUBLIC "-//W3C//DTD SVG 1.1//EN"
 "http://www.w3.org/Graphics/SVG/1.1/DTD/svg11.dtd">
<!-- Generated by graphviz version 12.1.0 (20240811.2233)
 -->
<!-- Title: ProcedureInstruction.cpp Pages: 1 -->
<!--zoomable 422 -->
<svg id="main" version="1.1" xmlns="http://www.w3.org/2000/svg" xmlns:xlink="http://www.w3.org/1999/xlink" xml:space="preserve" onload="init(evt)">
<style type="text/css"><![CDATA[
.edge:hover path { stroke: red; }
.edge:hover polygon { stroke: red; fill: red; }
]]></style>
<script type="text/javascript"><![CDATA[
var edges = document.getElementsByTagName('g');
if (edges && edges.length) {
  for (var i=0;i<edges.length;i++) {
    if (edges[i].id.substr(0,4)=='edge') {
      edges[i].setAttribute('class','edge');
    }
  }
}
]]></script>
        <defs>
                <circle id="rim" cx="0" cy="0" r="7"/>
                <circle id="rim2" cx="0" cy="0" r="3.5"/>
                <g id="zoomPlus">
                        <use xlink:href="#rim" fill="#404040">
                                <set attributeName="fill" to="#808080" begin="zoomplus.mouseover" end="zoomplus.mouseout"/>
                        </use>
                        <path d="M-4,0h8M0,-4v8" fill="none" stroke="white" stroke-width="1.5" pointer-events="none"/>
                </g>
                <g id="zoomMin">
                        <use xlink:href="#rim" fill="#404040">
                                <set attributeName="fill" to="#808080" begin="zoomminus.mouseover" end="zoomminus.mouseout"/>
                        </use>
                        <path d="M-4,0h8" fill="none" stroke="white" stroke-width="1.5" pointer-events="none"/>
                </g>
                <g id="dirArrow">
                        <path fill="none" stroke="white" stroke-width="1.5" d="M0,-3.0v7 M-2.5,-0.5L0,-3.0L2.5,-0.5"/>
                </g>
               <g id="resetDef">
                       <use xlink:href="#rim2" fill="#404040">
                               <set attributeName="fill" to="#808080" begin="reset.mouseover" end="reset.mouseout"/>
                       </use>
               </g>
        </defs>

<script type="text/javascript">
var viewWidth = 2554;
var viewHeight = 422;
var sectionId = 'dynsection-0';
</script>
<script xlink:href="svgpan.js"/>
<svg id="graph" class="graph">
<g id="viewport">
<title>ProcedureInstruction.cpp</title>
<polygon fill="white" stroke="none" points="-4,4 -4,-418 2549.88,-418 2549.88,4 -4,4"/>
<!-- Node1 -->
<g id="node1" class="node">
<title>Node1</title>
<g id="a_node1"><a xlink:title=" ">
<polygon fill="#bfbfbf" stroke="black" points="1703.75,-394.25 1703.75,-413.5 1828.5,-413.5 1828.5,-394.25 1703.75,-394.25"/>
<text text-anchor="middle" x="1766.12" y="-400" font-family="Helvetica,sans-Serif" font-size="10.00">ProcedureInstruction.cpp</text>
</a>
</g>
</g>
<!-- Node2 -->
<g id="node2" class="node">
<title>Node2</title>
<g id="a_node2"><a xlink:title=" ">
<polygon fill="white" stroke="#bfbfbf" points="876.38,-338 876.38,-357.25 923.88,-357.25 923.88,-338 876.38,-338"/>
<text text-anchor="middle" x="900.12" y="-343.75" font-family="Helvetica,sans-Serif" font-size="10.00">stdlib.h</text>
</a>
</g>
</g>
<!-- Node1&#45;&gt;Node2 -->
<g id="edge1" class="edge">
<title>Node1&#45;&gt;Node2</title>
<path fill="none" stroke="midnightblue" d="M1703.42,-401.23C1539.8,-396.66 1101.61,-382.61 935.18,-357.65"/>
<polygon fill="midnightblue" stroke="midnightblue" points="936.06,-354.24 925.64,-356.15 934.97,-361.16 936.06,-354.24"/>
</g>
<!-- Node3 -->
<g id="node3" class="node">
<title>Node3</title>
<g id="a_node3"><a xlink:href="_rexx_core_8h.html" target="_top" xlink:title=" ">
<polygon fill="white" stroke="black" points="1104.88,-225.5 1104.88,-244.75 1173.38,-244.75 1173.38,-225.5 1104.88,-225.5"/>
<text text-anchor="middle" x="1139.12" y="-231.25" font-family="Helvetica,sans-Serif" font-size="10.00">RexxCore.h</text>
</a>
</g>
</g>
<!-- Node1&#45;&gt;Node3 -->
<g id="edge2" class="edge">
<title>Node1&#45;&gt;Node3</title>
<path fill="none" stroke="midnightblue" d="M1731.97,-393.79C1626.14,-365.65 1303.63,-279.88 1184.22,-248.12"/>
<polygon fill="midnightblue" stroke="midnightblue" points="1185.34,-244.79 1174.77,-245.61 1183.54,-251.56 1185.34,-244.79"/>
</g>
<!-- Node70 -->
<g id="node41" class="node">
<title>Node70</title>
<g id="a_node41"><a xlink:href="_queue_class_8hpp.html" target="_top" xlink:title=" ">
<polygon fill="white" stroke="black" points="1740.75,-225.5 1740.75,-244.75 1829.5,-244.75 1829.5,-225.5 1740.75,-225.5"/>
<text text-anchor="middle" x="1785.12" y="-231.25" font-family="Helvetica,sans-Serif" font-size="10.00">QueueClass.hpp</text>
</a>
</g>
</g>
<!-- Node1&#45;&gt;Node70 -->
<g id="edge44" class="edge">
<title>Node1&#45;&gt;Node70</title>
<path fill="none" stroke="midnightblue" d="M1767.15,-393.91C1770.1,-368.01 1778.69,-292.62 1782.83,-256.23"/>
<polygon fill="midnightblue" stroke="midnightblue" points="1786.27,-256.97 1783.93,-246.64 1779.32,-256.18 1786.27,-256.97"/>
</g>
<!-- Node71 -->
<g id="node42" class="node">
<title>Node71</title>
<g id="a_node42"><a xlink:href="_rexx_activation_8hpp.html" target="_top" xlink:title=" ">
<polygon fill="white" stroke="black" points="942.38,-338 942.38,-357.25 1043.88,-357.25 1043.88,-338 942.38,-338"/>
<text text-anchor="middle" x="993.12" y="-343.75" font-family="Helvetica,sans-Serif" font-size="10.00">RexxActivation.hpp</text>
</a>
</g>
</g>
<!-- Node1&#45;&gt;Node71 -->
<g id="edge46" class="edge">
<title>Node1&#45;&gt;Node71</title>
<path fill="none" stroke="midnightblue" d="M1703.52,-398.48C1558.29,-388.29 1199.85,-363.13 1055.17,-352.98"/>
<polygon fill="midnightblue" stroke="midnightblue" points="1055.63,-349.5 1045.41,-352.29 1055.14,-356.49 1055.63,-349.5"/>
</g>
<!-- Node84 -->
<g id="node48" class="node">
<title>Node84</title>
<g id="a_node48"><a xlink:href="_procedure_instruction_8hpp.html" target="_top" xlink:title=" ">
<polygon fill="white" stroke="black" points="1812.75,-338 1812.75,-357.25 1937.5,-357.25 1937.5,-338 1812.75,-338"/>
<text text-anchor="middle" x="1875.12" y="-343.75" font-family="Helvetica,sans-Serif" font-size="10.00">ProcedureInstruction.hpp</text>
</a>
</g>
</g>
<!-- Node1&#45;&gt;Node84 -->
<g id="edge57" class="edge">
<title>Node1&#45;&gt;Node84</title>
<path fill="none" stroke="midnightblue" d="M1784.12,-393.92C1801.16,-385.44 1827.02,-372.57 1846.82,-362.71"/>
<polygon fill="midnightblue" stroke="midnightblue" points="1848.35,-365.86 1855.74,-358.27 1845.23,-359.59 1848.35,-365.86"/>
</g>
<!-- Node62 -->
<g id="node50" class="node">
<title>Node62</title>
<g id="a_node50"><a xlink:href="_expression_base_variable_8hpp.html" target="_top" xlink:title=" ">
<polygon fill="white" stroke="black" points="1955.88,-338 1955.88,-357.25 2096.38,-357.25 2096.38,-338 1955.88,-338"/>
<text text-anchor="middle" x="2026.12" y="-343.75" font-family="Helvetica,sans-Serif" font-size="10.00">ExpressionBaseVariable.hpp</text>
</a>
</g>
</g>
<!-- Node1&#45;&gt;Node62 -->
<g id="edge59" class="edge">
<title>Node1&#45;&gt;Node62</title>
<path fill="none" stroke="midnightblue" d="M1809.64,-393.79C1854.08,-384.52 1923.18,-370.11 1971.31,-360.06"/>
<polygon fill="midnightblue" stroke="midnightblue" points="1971.91,-363.51 1980.98,-358.04 1970.48,-356.66 1971.91,-363.51"/>
</g>
<!-- Node4 -->
<g id="node4" class="node">
<title>Node4</title>
<g id="a_node4"><a xlink:href="oorexxapi_8h.html" target="_top" xlink:title=" ">
<polygon fill="white" stroke="black" points="472,-169.25 472,-188.5 538.25,-188.5 538.25,-169.25 472,-169.25"/>
<text text-anchor="middle" x="505.12" y="-175" font-family="Helvetica,sans-Serif" font-size="10.00">oorexxapi.h</text>
</a>
</g>
</g>
<!-- Node3&#45;&gt;Node4 -->
<g id="edge3" class="edge">
<title>Node3&#45;&gt;Node4</title>
<path fill="none" stroke="midnightblue" d="M1104.58,-233.16C1014.71,-230.28 766.18,-220.08 549.78,-189.19"/>
<polygon fill="midnightblue" stroke="midnightblue" points="550.42,-185.75 540.02,-187.78 549.41,-192.68 550.42,-185.75"/>
</g>
<!-- Node11 -->
<g id="node7" class="node">
<title>Node11</title>
<g id="a_node7"><a xlink:title=" ">
<polygon fill="white" stroke="#bfbfbf" points="556.5,-169.25 556.5,-188.5 601.75,-188.5 601.75,-169.25 556.5,-169.25"/>
<text text-anchor="middle" x="579.12" y="-175" font-family="Helvetica,sans-Serif" font-size="10.00">stdio.h</text>
</a>
</g>
</g>
<!-- Node3&#45;&gt;Node11 -->
<g id="edge6" class="edge">
<title>Node3&#45;&gt;Node11</title>
<path fill="none" stroke="midnightblue" d="M1104.45,-233.57C1021.12,-231.73 802.99,-223.9 613.32,-189.27"/>
<polygon fill="midnightblue" stroke="midnightblue" points="613.98,-185.84 603.51,-187.45 612.7,-192.72 613.98,-185.84"/>
</g>
<!-- Node12 -->
<g id="node8" class="node">
<title>Node12</title>
<g id="a_node8"><a xlink:title=" ">
<polygon fill="white" stroke="#bfbfbf" points="1045.5,-169.25 1045.5,-188.5 1096.75,-188.5 1096.75,-169.25 1045.5,-169.25"/>
<text text-anchor="middle" x="1071.12" y="-175" font-family="Helvetica,sans-Serif" font-size="10.00">stdarg.h</text>
</a>
</g>
</g>
<!-- Node3&#45;&gt;Node12 -->
<g id="edge7" class="edge">
<title>Node3&#45;&gt;Node12</title>
<path fill="none" stroke="midnightblue" d="M1127.9,-225.17C1117.9,-217.19 1103.03,-205.33 1091.02,-195.75"/>
<polygon fill="midnightblue" stroke="midnightblue" points="1093.33,-193.11 1083.33,-189.61 1088.96,-198.58 1093.33,-193.11"/>
</g>
<!-- Node13 -->
<g id="node9" class="node">
<title>Node13</title>
<g id="a_node9"><a xlink:title=" ">
<polygon fill="white" stroke="#bfbfbf" points="1115,-169.25 1115,-188.5 1163.25,-188.5 1163.25,-169.25 1115,-169.25"/>
<text text-anchor="middle" x="1139.12" y="-175" font-family="Helvetica,sans-Serif" font-size="10.00">string.h</text>
</a>
</g>
</g>
<!-- Node3&#45;&gt;Node13 -->
<g id="edge8" class="edge">
<title>Node3&#45;&gt;Node13</title>
<path fill="none" stroke="midnightblue" d="M1139.12,-225.17C1139.12,-218.37 1139.12,-208.76 1139.12,-200.15"/>
<polygon fill="midnightblue" stroke="midnightblue" points="1142.63,-200.18 1139.13,-190.18 1135.63,-200.18 1142.63,-200.18"/>
</g>
<!-- Node14 -->
<g id="node10" class="node">
<title>Node14</title>
<g id="a_node10"><a xlink:title=" ">
<polygon fill="white" stroke="#bfbfbf" points="1181,-169.25 1181,-188.5 1229.25,-188.5 1229.25,-169.25 1181,-169.25"/>
<text text-anchor="middle" x="1205.12" y="-175" font-family="Helvetica,sans-Serif" font-size="10.00">ctype.h</text>
</a>
</g>
</g>
<!-- Node3&#45;&gt;Node14 -->
<g id="edge9" class="edge">
<title>Node3&#45;&gt;Node14</title>
<path fill="none" stroke="midnightblue" d="M1150.02,-225.17C1159.73,-217.19 1174.16,-205.33 1185.82,-195.75"/>
<polygon fill="midnightblue" stroke="midnightblue" points="1187.76,-198.68 1193.26,-189.63 1183.31,-193.27 1187.76,-198.68"/>
</g>
<!-- Node15 -->
<g id="node11" class="node">
<title>Node15</title>
<g id="a_node11"><a xlink:title=" ">
<polygon fill="white" stroke="#bfbfbf" points="1247.38,-169.25 1247.38,-188.5 1294.88,-188.5 1294.88,-169.25 1247.38,-169.25"/>
<text text-anchor="middle" x="1271.12" y="-175" font-family="Helvetica,sans-Serif" font-size="10.00">limits.h</text>
</a>
</g>
</g>
<!-- Node3&#45;&gt;Node15 -->
<g id="edge10" class="edge">
<title>Node3&#45;&gt;Node15</title>
<path fill="none" stroke="midnightblue" d="M1161.22,-225.04C1182.35,-216.36 1214.47,-203.16 1238.54,-193.27"/>
<polygon fill="midnightblue" stroke="midnightblue" points="1239.64,-196.6 1247.56,-189.56 1236.98,-190.12 1239.64,-196.6"/>
</g>
<!-- Node16 -->
<g id="node12" class="node">
<title>Node16</title>
<g id="a_node12"><a xlink:title=" ">
<polygon fill="white" stroke="#bfbfbf" points="1312.75,-169.25 1312.75,-188.5 1371.5,-188.5 1371.5,-169.25 1312.75,-169.25"/>
<text text-anchor="middle" x="1342.12" y="-175" font-family="Helvetica,sans-Serif" font-size="10.00">stdexcept</text>
</a>
</g>
</g>
<!-- Node3&#45;&gt;Node16 -->
<g id="edge11" class="edge">
<title>Node3&#45;&gt;Node16</title>
<path fill="none" stroke="midnightblue" d="M1173.1,-225.04C1208.39,-215.61 1263.61,-200.86 1301.26,-190.8"/>
<polygon fill="midnightblue" stroke="midnightblue" points="1302.12,-194.19 1310.88,-188.23 1300.31,-187.43 1302.12,-194.19"/>
</g>
<!-- Node17 -->
<g id="node13" class="node">
<title>Node17</title>
<g id="a_node13"><a xlink:href="_rexx_platform_definitions_8h.html" target="_top" xlink:title=" ">
<polygon fill="white" stroke="black" points="1812.75,-169.25 1812.75,-188.5 1943.5,-188.5 1943.5,-169.25 1812.75,-169.25"/>
<text text-anchor="middle" x="1878.12" y="-175" font-family="Helvetica,sans-Serif" font-size="10.00">RexxPlatformDefinitions.h</text>
</a>
</g>
</g>
<!-- Node3&#45;&gt;Node17 -->
<g id="edge12" class="edge">
<title>Node3&#45;&gt;Node17</title>
<path fill="none" stroke="midnightblue" d="M1173.78,-231.58C1286.29,-223.32 1643.22,-197.12 1801.39,-185.51"/>
<polygon fill="midnightblue" stroke="midnightblue" points="1801.21,-189.03 1810.92,-184.81 1800.7,-182.05 1801.21,-189.03"/>
</g>
<!-- Node20 -->
<g id="node16" class="node">
<title>Node20</title>
<g id="a_node16"><a xlink:href="_rexx_constants_8hpp.html" target="_top" xlink:title=" ">
<polygon fill="white" stroke="black" points="1389.62,-169.25 1389.62,-188.5 1492.62,-188.5 1492.62,-169.25 1389.62,-169.25"/>
<text text-anchor="middle" x="1441.12" y="-175" font-family="Helvetica,sans-Serif" font-size="10.00">RexxConstants.hpp</text>
</a>
</g>
</g>
<!-- Node3&#45;&gt;Node20 -->
<g id="edge15" class="edge">
<title>Node3&#45;&gt;Node20</title>
<path fill="none" stroke="midnightblue" d="M1173.77,-227.9C1223.8,-218.91 1317.06,-202.16 1379.13,-191.01"/>
<polygon fill="midnightblue" stroke="midnightblue" points="1379.62,-194.48 1388.85,-189.27 1378.39,-187.59 1379.62,-194.48"/>
</g>
<!-- Node21 -->
<g id="node17" class="node">
<title>Node21</title>
<g id="a_node17"><a xlink:href="_class_type_codes_8h.html" target="_top" xlink:title=" ">
<polygon fill="white" stroke="black" points="2270.5,-56.75 2270.5,-76 2369.75,-76 2369.75,-56.75 2270.5,-56.75"/>
<text text-anchor="middle" x="2320.12" y="-62.5" font-family="Helvetica,sans-Serif" font-size="10.00">ClassTypeCodes.h</text>
</a>
</g>
</g>
<!-- Node3&#45;&gt;Node21 -->
<g id="edge16" class="edge">
<title>Node3&#45;&gt;Node21</title>
<path fill="none" stroke="midnightblue" d="M1173.63,-233.54C1336.71,-230.66 2031.18,-216.96 2246.12,-189 2360.78,-174.09 2427.74,-222.92 2500.12,-132.75 2535.12,-89.15 2446.48,-74.62 2381.53,-69.79"/>
<polygon fill="midnightblue" stroke="midnightblue" points="2381.84,-66.3 2371.63,-69.12 2381.37,-73.28 2381.84,-66.3"/>
</g>
<!-- Node22 -->
<g id="node18" class="node">
<title>Node22</title>
<g id="a_node18"><a xlink:href="_global_names_8h.html" target="_top" xlink:title=" ">
<polygon fill="white" stroke="black" points="619.38,-169.25 619.38,-188.5 702.88,-188.5 702.88,-169.25 619.38,-169.25"/>
<text text-anchor="middle" x="661.12" y="-175" font-family="Helvetica,sans-Serif" font-size="10.00">GlobalNames.h</text>
</a>
</g>
</g>
<!-- Node3&#45;&gt;Node22 -->
<g id="edge17" class="edge">
<title>Node3&#45;&gt;Node22</title>
<path fill="none" stroke="midnightblue" d="M1104.43,-231.31C1033.34,-225.36 865.78,-210.39 714.44,-189.23"/>
<polygon fill="midnightblue" stroke="midnightblue" points="715,-185.78 704.61,-187.85 714.02,-192.71 715,-185.78"/>
</g>
<!-- Node23 -->
<g id="node19" class="node">
<title>Node23</title>
<g id="a_node19"><a xlink:href="_object_class_8hpp.html" target="_top" xlink:title=" ">
<polygon fill="white" stroke="black" points="67.75,-169.25 67.75,-188.5 156.5,-188.5 156.5,-169.25 67.75,-169.25"/>
<text text-anchor="middle" x="112.12" y="-175" font-family="Helvetica,sans-Serif" font-size="10.00">ObjectClass.hpp</text>
</a>
</g>
</g>
<!-- Node3&#45;&gt;Node23 -->
<g id="edge18" class="edge">
<title>Node3&#45;&gt;Node23</title>
<path fill="none" stroke="midnightblue" d="M1104.66,-233.11C981.95,-229.35 554.79,-215.09 203.12,-189 191.84,-188.16 179.79,-187.09 168.27,-185.97"/>
<polygon fill="midnightblue" stroke="midnightblue" points="168.79,-182.5 158.49,-184.99 168.09,-189.46 168.79,-182.5"/>
</g>
<!-- Node26 -->
<g id="node22" class="node">
<title>Node26</title>
<g id="a_node22"><a xlink:href="_table_class_8hpp.html" target="_top" xlink:title=" ">
<polygon fill="white" stroke="black" points="2453.38,-56.75 2453.38,-76 2536.88,-76 2536.88,-56.75 2453.38,-56.75"/>
<text text-anchor="middle" x="2495.12" y="-62.5" font-family="Helvetica,sans-Serif" font-size="10.00">TableClass.hpp</text>
</a>
</g>
</g>
<!-- Node3&#45;&gt;Node26 -->
<g id="edge21" class="edge">
<title>Node3&#45;&gt;Node26</title>
<path fill="none" stroke="midnightblue" d="M1173.84,-233.51C1361.17,-230.1 2247.47,-212.84 2367.12,-189 2437.36,-175.01 2477.27,-191.57 2518.12,-132.75 2528.18,-118.28 2519.2,-98.97 2509.68,-85.09"/>
<polygon fill="midnightblue" stroke="midnightblue" points="2512.63,-83.19 2503.82,-77.31 2507.03,-87.4 2512.63,-83.19"/>
</g>
<!-- Node29 -->
<g id="node24" class="node">
<title>Node29</title>
<g id="a_node24"><a xlink:href="_stack_class_8hpp.html" target="_top" xlink:title=" ">
<polygon fill="white" stroke="black" points="721.25,-169.25 721.25,-188.5 807,-188.5 807,-169.25 721.25,-169.25"/>
<text text-anchor="middle" x="764.12" y="-175" font-family="Helvetica,sans-Serif" font-size="10.00">StackClass.hpp</text>
</a>
</g>
</g>
<!-- Node3&#45;&gt;Node29 -->
<g id="edge23" class="edge">
<title>Node3&#45;&gt;Node29</title>
<path fill="none" stroke="midnightblue" d="M1104.65,-229.71C1047.48,-222.3 929.19,-206.61 818.6,-189.34"/>
<polygon fill="midnightblue" stroke="midnightblue" points="819.15,-185.89 808.73,-187.79 818.07,-192.8 819.15,-185.89"/>
</g>
<!-- Node30 -->
<g id="node25" class="node">
<title>Node30</title>
<g id="a_node25"><a xlink:href="_rexx_memory_8hpp.html" target="_top" xlink:title=" ">
<polygon fill="white" stroke="black" points="2145.25,-169.25 2145.25,-188.5 2237,-188.5 2237,-169.25 2145.25,-169.25"/>
<text text-anchor="middle" x="2191.12" y="-175" font-family="Helvetica,sans-Serif" font-size="10.00">RexxMemory.hpp</text>
</a>
</g>
</g>
<!-- Node3&#45;&gt;Node30 -->
<g id="edge24" class="edge">
<title>Node3&#45;&gt;Node30</title>
<path fill="none" stroke="midnightblue" d="M1173.83,-232.34C1326.78,-224.45 1941.61,-192.74 2133.57,-182.84"/>
<polygon fill="midnightblue" stroke="midnightblue" points="2133.48,-186.35 2143.29,-182.34 2133.12,-179.36 2133.48,-186.35"/>
</g>
<!-- Node37 -->
<g id="node30" class="node">
<title>Node37</title>
<g id="a_node30"><a xlink:href="_rexx_behaviour_8hpp.html" target="_top" xlink:title=" ">
<polygon fill="white" stroke="black" points="1510.75,-169.25 1510.75,-188.5 1611.5,-188.5 1611.5,-169.25 1510.75,-169.25"/>
<text text-anchor="middle" x="1561.12" y="-175" font-family="Helvetica,sans-Serif" font-size="10.00">RexxBehaviour.hpp</text>
</a>
</g>
</g>
<!-- Node3&#45;&gt;Node37 -->
<g id="edge32" class="edge">
<title>Node3&#45;&gt;Node37</title>
<path fill="none" stroke="midnightblue" d="M1173.86,-230.11C1236.5,-222.8 1372.85,-206.59 1499.01,-189.26"/>
<polygon fill="midnightblue" stroke="midnightblue" points="1499.47,-192.73 1508.9,-187.89 1498.52,-185.79 1499.47,-192.73"/>
</g>
<!-- Node39 -->
<g id="node32" class="node">
<title>Node39</title>
<g id="a_node32"><a xlink:href="_class_class_8hpp.html" target="_top" xlink:title=" ">
<polygon fill="white" stroke="black" points="825.25,-169.25 825.25,-188.5 911,-188.5 911,-169.25 825.25,-169.25"/>
<text text-anchor="middle" x="868.12" y="-175" font-family="Helvetica,sans-Serif" font-size="10.00">ClassClass.hpp</text>
</a>
</g>
</g>
<!-- Node3&#45;&gt;Node39 -->
<g id="edge34" class="edge">
<title>Node3&#45;&gt;Node39</title>
<path fill="none" stroke="midnightblue" d="M1104.53,-227.2C1058.57,-218 976.88,-201.65 922.6,-190.78"/>
<polygon fill="midnightblue" stroke="midnightblue" points="923.43,-187.38 912.94,-188.85 922.06,-194.24 923.43,-187.38"/>
</g>
<!-- Node40 -->
<g id="node33" class="node">
<title>Node40</title>
<g id="a_node33"><a xlink:href="_rexx_envelope_8hpp.html" target="_top" xlink:title=" ">
<polygon fill="white" stroke="black" points="928.88,-169.25 928.88,-188.5 1027.38,-188.5 1027.38,-169.25 928.88,-169.25"/>
<text text-anchor="middle" x="978.12" y="-175" font-family="Helvetica,sans-Serif" font-size="10.00">RexxEnvelope.hpp</text>
</a>
</g>
</g>
<!-- Node3&#45;&gt;Node40 -->
<g id="edge35" class="edge">
<title>Node3&#45;&gt;Node40</title>
<path fill="none" stroke="midnightblue" d="M1112.18,-225.04C1085.82,-216.16 1045.46,-202.56 1015.91,-192.61"/>
<polygon fill="midnightblue" stroke="midnightblue" points="1017.19,-189.34 1006.6,-189.47 1014.95,-195.98 1017.19,-189.34"/>
</g>
<!-- Node41 -->
<g id="node34" class="node">
<title>Node41</title>
<g id="a_node34"><a xlink:href="_rexx_activity_8hpp.html" target="_top" xlink:title=" ">
<polygon fill="white" stroke="red" points="1629.38,-169.25 1629.38,-188.5 1718.88,-188.5 1718.88,-169.25 1629.38,-169.25"/>
<text text-anchor="middle" x="1674.12" y="-175" font-family="Helvetica,sans-Serif" font-size="10.00">RexxActivity.hpp</text>
</a>
</g>
</g>
<!-- Node3&#45;&gt;Node41 -->
<g id="edge36" class="edge">
<title>Node3&#45;&gt;Node41</title>
<path fill="none" stroke="midnightblue" d="M1173.63,-231.77C1251.08,-226.29 1444.82,-211.53 1617.72,-189.22"/>
<polygon fill="midnightblue" stroke="midnightblue" points="1618.12,-192.7 1627.58,-187.94 1617.21,-185.76 1618.12,-192.7"/>
</g>
<!-- Node52 -->
<g id="node39" class="node">
<title>Node52</title>
<g id="a_node39"><a xlink:href="_number_string_class_8hpp.html" target="_top" xlink:title=" ">
<polygon fill="white" stroke="red" points="334,-169.25 334,-188.5 454.25,-188.5 454.25,-169.25 334,-169.25"/>
<text text-anchor="middle" x="394.12" y="-175" font-family="Helvetica,sans-Serif" font-size="10.00">NumberStringClass.hpp</text>
</a>
</g>
</g>
<!-- Node3&#45;&gt;Node52 -->
<g id="edge41" class="edge">
<title>Node3&#45;&gt;Node52</title>
<path fill="none" stroke="midnightblue" d="M1104.59,-232.61C1006.39,-228.14 716.98,-213.8 465.86,-189.21"/>
<polygon fill="midnightblue" stroke="midnightblue" points="466.48,-185.76 456.19,-188.26 465.8,-192.72 466.48,-185.76"/>
</g>
<!-- Node68 -->
<g id="node40" class="node">
<title>Node68</title>
<g id="a_node40"><a xlink:href="_activity_manager_8hpp.html" target="_top" xlink:title=" ">
<polygon fill="white" stroke="red" points="211.88,-169.25 211.88,-188.5 316.38,-188.5 316.38,-169.25 211.88,-169.25"/>
<text text-anchor="middle" x="264.12" y="-175" font-family="Helvetica,sans-Serif" font-size="10.00">ActivityManager.hpp</text>
</a>
</g>
</g>
<!-- Node3&#45;&gt;Node68 -->
<g id="edge43" class="edge">
<title>Node3&#45;&gt;Node68</title>
<path fill="none" stroke="midnightblue" d="M1104.52,-233.36C993.33,-230.65 634.98,-220.05 328.01,-189.2"/>
<polygon fill="midnightblue" stroke="midnightblue" points="328.47,-185.73 318.16,-188.2 327.76,-192.7 328.47,-185.73"/>
</g>
<!-- Node5 -->
<g id="node5" class="node">
<title>Node5</title>
<g id="a_node5"><a xlink:href="rexx_8h.html" target="_top" xlink:title=" ">
<polygon fill="white" stroke="red" points="435.62,-113 435.62,-132.25 478.62,-132.25 478.62,-113 435.62,-113"/>
<text text-anchor="middle" x="457.12" y="-118.75" font-family="Helvetica,sans-Serif" font-size="10.00">rexx.h</text>
</a>
</g>
</g>
<!-- Node4&#45;&gt;Node5 -->
<g id="edge4" class="edge">
<title>Node4&#45;&gt;Node5</title>
<path fill="none" stroke="midnightblue" d="M497.2,-168.92C490.49,-161.33 480.68,-150.24 472.44,-140.93"/>
<polygon fill="midnightblue" stroke="midnightblue" points="475.15,-138.72 465.91,-133.55 469.91,-143.36 475.15,-138.72"/>
</g>
<!-- Node10 -->
<g id="node6" class="node">
<title>Node10</title>
<g id="a_node6"><a xlink:href="oorexxerrors_8h.html" target="_top" xlink:title=" ">
<polygon fill="white" stroke="black" points="497,-113 497,-132.25 575.25,-132.25 575.25,-113 497,-113"/>
<text text-anchor="middle" x="536.12" y="-118.75" font-family="Helvetica,sans-Serif" font-size="10.00">oorexxerrors.h</text>
</a>
</g>
</g>
<!-- Node4&#45;&gt;Node10 -->
<g id="edge5" class="edge">
<title>Node4&#45;&gt;Node10</title>
<path fill="none" stroke="midnightblue" d="M510.24,-168.92C514.35,-161.73 520.26,-151.39 525.39,-142.4"/>
<polygon fill="midnightblue" stroke="midnightblue" points="528.43,-144.15 530.35,-133.73 522.35,-140.68 528.43,-144.15"/>
</g>
<!-- Node18 -->
<g id="node14" class="node">
<title>Node18</title>
<g id="a_node14"><a xlink:title=" ">
<polygon fill="white" stroke="#bfbfbf" points="1777.38,-113 1777.38,-132.25 1884.88,-132.25 1884.88,-113 1777.38,-113"/>
<text text-anchor="middle" x="1831.12" y="-118.75" font-family="Helvetica,sans-Serif" font-size="10.00">PlatformDefinitions.h</text>
</a>
</g>
</g>
<!-- Node17&#45;&gt;Node18 -->
<g id="edge13" class="edge">
<title>Node17&#45;&gt;Node18</title>
<path fill="none" stroke="midnightblue" d="M1870.36,-168.92C1863.79,-161.33 1854.19,-150.24 1846.12,-140.93"/>
<polygon fill="midnightblue" stroke="midnightblue" points="1848.93,-138.83 1839.73,-133.56 1843.64,-143.41 1848.93,-138.83"/>
</g>
<!-- Node19 -->
<g id="node15" class="node">
<title>Node19</title>
<g id="a_node15"><a xlink:href="_rexx_error_codes_8h.html" target="_top" xlink:title=" ">
<polygon fill="white" stroke="black" points="1902.62,-113 1902.62,-132.25 1999.62,-132.25 1999.62,-113 1902.62,-113"/>
<text text-anchor="middle" x="1951.12" y="-118.75" font-family="Helvetica,sans-Serif" font-size="10.00">RexxErrorCodes.h</text>
</a>
</g>
</g>
<!-- Node17&#45;&gt;Node19 -->
<g id="edge14" class="edge">
<title>Node17&#45;&gt;Node19</title>
<path fill="none" stroke="midnightblue" d="M1890.18,-168.92C1901.02,-160.86 1917.19,-148.84 1930.15,-139.21"/>
<polygon fill="midnightblue" stroke="midnightblue" points="1932.14,-142.09 1938.08,-133.32 1927.97,-136.47 1932.14,-142.09"/>
</g>
<!-- Node24 -->
<g id="node20" class="node">
<title>Node24</title>
<g id="a_node20"><a xlink:href="_numerics_8hpp.html" target="_top" xlink:title=" ">
<polygon fill="white" stroke="black" points="324.75,-113 324.75,-132.25 401.5,-132.25 401.5,-113 324.75,-113"/>
<text text-anchor="middle" x="363.12" y="-118.75" font-family="Helvetica,sans-Serif" font-size="10.00">Numerics.hpp</text>
</a>
</g>
</g>
<!-- Node23&#45;&gt;Node24 -->
<g id="edge19" class="edge">
<title>Node23&#45;&gt;Node24</title>
<path fill="none" stroke="midnightblue" d="M154.14,-168.79C197.97,-159.32 266.68,-144.47 313.24,-134.41"/>
<polygon fill="midnightblue" stroke="midnightblue" points="313.77,-137.87 322.8,-132.34 312.29,-131.03 313.77,-137.87"/>
</g>
<!-- Node25 -->
<g id="node21" class="node">
<title>Node25</title>
<g id="a_node21"><a xlink:title=" ">
<polygon fill="white" stroke="#bfbfbf" points="1198.5,-56.75 1198.5,-76 1249.75,-76 1249.75,-56.75 1198.5,-56.75"/>
<text text-anchor="middle" x="1224.12" y="-62.5" font-family="Helvetica,sans-Serif" font-size="10.00">stddef.h</text>
</a>
</g>
</g>
<!-- Node23&#45;&gt;Node25 -->
<g id="edge20" class="edge">
<title>Node23&#45;&gt;Node25</title>
<path fill="none" stroke="midnightblue" d="M133.98,-168.78C170.8,-153.94 247.88,-124.91 316.12,-112.5 487.54,-81.33 1038.59,-70.36 1187.01,-67.93"/>
<polygon fill="midnightblue" stroke="midnightblue" points="1186.71,-71.44 1196.65,-67.78 1186.6,-64.44 1186.71,-71.44"/>
</g>
<!-- Node27 -->
<g id="node23" class="node">
<title>Node27</title>
<g id="a_node23"><a xlink:href="_rexx_collection_8hpp.html" target="_top" xlink:title=" ">
<polygon fill="white" stroke="red" points="2444.38,-0.5 2444.38,-19.75 2545.88,-19.75 2545.88,-0.5 2444.38,-0.5"/>
<text text-anchor="middle" x="2495.12" y="-6.25" font-family="Helvetica,sans-Serif" font-size="10.00">RexxCollection.hpp</text>
</a>
</g>
</g>
<!-- Node26&#45;&gt;Node27 -->
<g id="edge22" class="edge">
<title>Node26&#45;&gt;Node27</title>
<path fill="none" stroke="midnightblue" d="M2495.12,-56.42C2495.12,-49.62 2495.12,-40.01 2495.12,-31.4"/>
<polygon fill="midnightblue" stroke="midnightblue" points="2498.63,-31.43 2495.13,-21.43 2491.63,-31.43 2498.63,-31.43"/>
</g>
<!-- Node31 -->
<g id="node26" class="node">
<title>Node31</title>
<g id="a_node26"><a xlink:title=" ">
<polygon fill="white" stroke="#bfbfbf" points="2255.38,-113 2255.38,-132.25 2356.88,-132.25 2356.88,-113 2255.38,-113"/>
<text text-anchor="middle" x="2306.12" y="-118.75" font-family="Helvetica,sans-Serif" font-size="10.00">SysSemaphore.hpp</text>
</a>
</g>
</g>
<!-- Node30&#45;&gt;Node31 -->
<g id="edge25" class="edge">
<title>Node30&#45;&gt;Node31</title>
<path fill="none" stroke="midnightblue" d="M2210.37,-168.79C2228.45,-160.27 2255.76,-147.38 2276.59,-137.56"/>
<polygon fill="midnightblue" stroke="midnightblue" points="2277.89,-140.81 2285.44,-133.38 2274.91,-134.48 2277.89,-140.81"/>
</g>
<!-- Node32 -->
<g id="node27" class="node">
<title>Node32</title>
<g id="a_node27"><a xlink:href="_identity_table_class_8hpp.html" target="_top" xlink:title=" ">
<polygon fill="white" stroke="black" points="2375.25,-113 2375.25,-132.25 2491,-132.25 2491,-113 2375.25,-113"/>
<text text-anchor="middle" x="2433.12" y="-118.75" font-family="Helvetica,sans-Serif" font-size="10.00">IdentityTableClass.hpp</text>
</a>
</g>
</g>
<!-- Node30&#45;&gt;Node32 -->
<g id="edge26" class="edge">
<title>Node30&#45;&gt;Node32</title>
<path fill="none" stroke="midnightblue" d="M2231.63,-168.79C2272.72,-159.58 2336.49,-145.29 2381.26,-135.25"/>
<polygon fill="midnightblue" stroke="midnightblue" points="2382.02,-138.67 2391.01,-133.07 2380.49,-131.84 2382.02,-138.67"/>
</g>
<!-- Node33 -->
<g id="node28" class="node">
<title>Node33</title>
<g id="a_node28"><a xlink:href="_memory_stats_8hpp.html" target="_top" xlink:title=" ">
<polygon fill="white" stroke="black" points="2144.5,-113 2144.5,-132.25 2237.75,-132.25 2237.75,-113 2144.5,-113"/>
<text text-anchor="middle" x="2191.12" y="-118.75" font-family="Helvetica,sans-Serif" font-size="10.00">MemoryStats.hpp</text>
</a>
</g>
</g>
<!-- Node30&#45;&gt;Node33 -->
<g id="edge28" class="edge">
<title>Node30&#45;&gt;Node33</title>
<path fill="none" stroke="midnightblue" d="M2191.12,-168.92C2191.12,-162.12 2191.12,-152.51 2191.12,-143.9"/>
<polygon fill="midnightblue" stroke="midnightblue" points="2194.63,-143.93 2191.13,-133.93 2187.63,-143.93 2194.63,-143.93"/>
</g>
<!-- Node34 -->
<g id="node29" class="node">
<title>Node34</title>
<g id="a_node29"><a xlink:href="_memory_segment_8hpp.html" target="_top" xlink:title=" ">
<polygon fill="white" stroke="red" points="2017.62,-113 2017.62,-132.25 2126.62,-132.25 2126.62,-113 2017.62,-113"/>
<text text-anchor="middle" x="2072.12" y="-118.75" font-family="Helvetica,sans-Serif" font-size="10.00">MemorySegment.hpp</text>
</a>
</g>
</g>
<!-- Node30&#45;&gt;Node34 -->
<g id="edge30" class="edge">
<title>Node30&#45;&gt;Node34</title>
<path fill="none" stroke="midnightblue" d="M2171.21,-168.79C2152.42,-160.23 2123.98,-147.27 2102.39,-137.42"/>
<polygon fill="midnightblue" stroke="midnightblue" points="2104.04,-134.33 2093.49,-133.36 2101.13,-140.7 2104.04,-134.33"/>
</g>
<!-- Node32&#45;&gt;Node26 -->
<g id="edge27" class="edge">
<title>Node32&#45;&gt;Node26</title>
<path fill="none" stroke="midnightblue" d="M2443.36,-112.67C2452.39,-104.77 2465.77,-93.06 2476.66,-83.53"/>
<polygon fill="midnightblue" stroke="midnightblue" points="2478.72,-86.38 2483.94,-77.16 2474.11,-81.11 2478.72,-86.38"/>
</g>
<!-- Node33&#45;&gt;Node21 -->
<g id="edge29" class="edge">
<title>Node33&#45;&gt;Node21</title>
<path fill="none" stroke="midnightblue" d="M2212.72,-112.54C2233.27,-103.9 2264.47,-90.78 2287.96,-80.9"/>
<polygon fill="midnightblue" stroke="midnightblue" points="2289.21,-84.17 2297.07,-77.07 2286.49,-77.72 2289.21,-84.17"/>
</g>
<!-- Node34&#45;&gt;Node25 -->
<g id="edge31" class="edge">
<title>Node34&#45;&gt;Node25</title>
<path fill="none" stroke="midnightblue" d="M2017.18,-113.38C2014.46,-113.06 2011.76,-112.77 2009.12,-112.5 1722.14,-83.52 1374.1,-71.64 1261.32,-68.37"/>
<polygon fill="midnightblue" stroke="midnightblue" points="1261.55,-64.88 1251.45,-68.09 1261.35,-71.87 1261.55,-64.88"/>
</g>
<!-- Node38 -->
<g id="node31" class="node">
<title>Node38</title>
<g id="a_node31"><a xlink:href="_primitive_behaviour_names_8h.html" target="_top" xlink:title=" ">
<polygon fill="white" stroke="black" points="1128.38,-113 1128.38,-132.25 1265.88,-132.25 1265.88,-113 1128.38,-113"/>
<text text-anchor="middle" x="1197.12" y="-118.75" font-family="Helvetica,sans-Serif" font-size="10.00">PrimitiveBehaviourNames.h</text>
</a>
</g>
</g>
<!-- Node37&#45;&gt;Node38 -->
<g id="edge33" class="edge">
<title>Node37&#45;&gt;Node38</title>
<path fill="none" stroke="midnightblue" d="M1510.39,-170.15C1507.25,-169.67 1504.15,-169.2 1501.12,-168.75 1422.15,-156.88 1331.6,-143.47 1270.01,-134.37"/>
<polygon fill="midnightblue" stroke="midnightblue" points="1270.75,-130.94 1260.35,-132.94 1269.73,-137.87 1270.75,-130.94"/>
</g>
<!-- Node42 -->
<g id="node35" class="node">
<title>Node42</title>
<g id="a_node35"><a xlink:href="_list_class_8hpp.html" target="_top" xlink:title=" ">
<polygon fill="white" stroke="red" points="1683.12,-113 1683.12,-132.25 1759.12,-132.25 1759.12,-113 1683.12,-113"/>
<text text-anchor="middle" x="1721.12" y="-118.75" font-family="Helvetica,sans-Serif" font-size="10.00">ListClass.hpp</text>
</a>
</g>
</g>
<!-- Node41&#45;&gt;Node42 -->
<g id="edge37" class="edge">
<title>Node41&#45;&gt;Node42</title>
<path fill="none" stroke="midnightblue" d="M1681.89,-168.92C1688.46,-161.33 1698.06,-150.24 1706.13,-140.93"/>
<polygon fill="midnightblue" stroke="midnightblue" points="1708.61,-143.41 1712.52,-133.56 1703.32,-138.83 1708.61,-143.41"/>
</g>
<!-- Node44 -->
<g id="node36" class="node">
<title>Node44</title>
<g id="a_node36"><a xlink:href="_rexx_internal_stack_8hpp.html" target="_top" xlink:title=" ">
<polygon fill="white" stroke="black" points="1410.25,-113 1410.25,-132.25 1526,-132.25 1526,-113 1410.25,-113"/>
<text text-anchor="middle" x="1468.12" y="-118.75" font-family="Helvetica,sans-Serif" font-size="10.00">RexxInternalStack.hpp</text>
</a>
</g>
</g>
<!-- Node41&#45;&gt;Node44 -->
<g id="edge38" class="edge">
<title>Node41&#45;&gt;Node44</title>
<path fill="none" stroke="midnightblue" d="M1639.65,-168.79C1605.04,-159.68 1551.53,-145.59 1513.5,-135.57"/>
<polygon fill="midnightblue" stroke="midnightblue" points="1514.74,-132.28 1504.18,-133.12 1512.96,-139.05 1514.74,-132.28"/>
</g>
<!-- Node46 -->
<g id="node37" class="node">
<title>Node46</title>
<g id="a_node37"><a xlink:href="_expression_stack_8hpp.html" target="_top" xlink:title=" ">
<polygon fill="white" stroke="red" points="1283.62,-113 1283.62,-132.25 1392.62,-132.25 1392.62,-113 1283.62,-113"/>
<text text-anchor="middle" x="1338.12" y="-118.75" font-family="Helvetica,sans-Serif" font-size="10.00">ExpressionStack.hpp</text>
</a>
</g>
</g>
<!-- Node41&#45;&gt;Node46 -->
<g id="edge39" class="edge">
<title>Node41&#45;&gt;Node46</title>
<path fill="none" stroke="midnightblue" d="M1629.05,-170.23C1626.03,-169.72 1623.03,-169.23 1620.12,-168.75 1546.17,-156.58 1461.22,-143.05 1404.05,-134.01"/>
<polygon fill="midnightblue" stroke="midnightblue" points="1404.92,-130.6 1394.49,-132.5 1403.83,-137.52 1404.92,-130.6"/>
</g>
<!-- Node48 -->
<g id="node38" class="node">
<title>Node48</title>
<g id="a_node38"><a xlink:href="_rexx_local_variables_8hpp.html" target="_top" xlink:title=" ">
<polygon fill="white" stroke="red" points="1543.62,-113 1543.62,-132.25 1664.62,-132.25 1664.62,-113 1543.62,-113"/>
<text text-anchor="middle" x="1604.12" y="-118.75" font-family="Helvetica,sans-Serif" font-size="10.00">RexxLocalVariables.hpp</text>
</a>
</g>
</g>
<!-- Node41&#45;&gt;Node48 -->
<g id="edge40" class="edge">
<title>Node41&#45;&gt;Node48</title>
<path fill="none" stroke="midnightblue" d="M1662.57,-168.92C1652.17,-160.86 1636.66,-148.84 1624.24,-139.21"/>
<polygon fill="midnightblue" stroke="midnightblue" points="1626.71,-136.7 1616.67,-133.34 1622.43,-142.24 1626.71,-136.7"/>
</g>
<!-- Node52&#45;&gt;Node24 -->
<g id="edge42" class="edge">
<title>Node52&#45;&gt;Node24</title>
<path fill="none" stroke="midnightblue" d="M389.01,-168.92C384.9,-161.73 378.99,-151.39 373.86,-142.4"/>
<polygon fill="midnightblue" stroke="midnightblue" points="376.9,-140.68 368.9,-133.73 370.82,-144.15 376.9,-140.68"/>
</g>
<!-- Node70&#45;&gt;Node42 -->
<g id="edge45" class="edge">
<title>Node70&#45;&gt;Node42</title>
<path fill="none" stroke="midnightblue" d="M1782.99,-225.2C1779.62,-212.16 1772.29,-187.43 1761.12,-168.75 1755.04,-158.56 1746.5,-148.55 1738.88,-140.56"/>
<polygon fill="midnightblue" stroke="midnightblue" points="1741.44,-138.17 1731.9,-133.56 1736.48,-143.11 1741.44,-138.17"/>
</g>
<!-- Node71&#45;&gt;Node46 -->
<g id="edge47" class="edge">
<title>Node71&#45;&gt;Node46</title>
<path fill="none" stroke="midnightblue" d="M941.98,-338.59C874.46,-327.92 759.22,-309.51 717.12,-301.5 601.41,-279.49 573.2,-270.44 458.12,-245.25 342.54,-219.95 120.87,-253.81 203.12,-168.75 243.01,-127.5 1144.97,-137.21 1272.05,-132.55"/>
<polygon fill="midnightblue" stroke="midnightblue" points="1271.89,-136.07 1281.68,-132.03 1271.51,-129.08 1271.89,-136.07"/>
</g>
<!-- Node71&#45;&gt;Node48 -->
<g id="edge49" class="edge">
<title>Node71&#45;&gt;Node48</title>
<path fill="none" stroke="midnightblue" d="M1044.17,-343.72C1196.28,-333.9 1641.37,-296.33 1728.12,-189 1749.64,-162.39 1710.11,-145.29 1670.11,-135.28"/>
<polygon fill="midnightblue" stroke="midnightblue" points="1671.15,-131.93 1660.61,-133.05 1669.54,-138.74 1671.15,-131.93"/>
</g>
<!-- Node71&#45;&gt;Node68 -->
<g id="edge53" class="edge">
<title>Node71&#45;&gt;Node68</title>
<path fill="none" stroke="midnightblue" d="M953.41,-337.54C829.87,-309.28 452.37,-222.93 314.89,-191.49"/>
<polygon fill="midnightblue" stroke="midnightblue" points="315.88,-188.12 305.35,-189.3 314.32,-194.95 315.88,-188.12"/>
</g>
<!-- Node72 -->
<g id="node43" class="node">
<title>Node72</title>
<g id="a_node43"><a xlink:href="_do_block_8hpp.html" target="_top" xlink:title=" ">
<polygon fill="white" stroke="black" points="1009,-281.75 1009,-301 1081.25,-301 1081.25,-281.75 1009,-281.75"/>
<text text-anchor="middle" x="1045.12" y="-287.5" font-family="Helvetica,sans-Serif" font-size="10.00">DoBlock.hpp</text>
</a>
</g>
</g>
<!-- Node71&#45;&gt;Node72 -->
<g id="edge48" class="edge">
<title>Node71&#45;&gt;Node72</title>
<path fill="none" stroke="midnightblue" d="M1001.71,-337.67C1009.06,-330 1019.83,-318.76 1028.81,-309.39"/>
<polygon fill="midnightblue" stroke="midnightblue" points="1031.26,-311.9 1035.65,-302.26 1026.2,-307.06 1031.26,-311.9"/>
</g>
<!-- Node73 -->
<g id="node44" class="node">
<title>Node73</title>
<g id="a_node44"><a xlink:href="_rexx_date_time_8hpp.html" target="_top" xlink:title=" ">
<polygon fill="white" stroke="black" points="889.75,-281.75 889.75,-301 990.5,-301 990.5,-281.75 889.75,-281.75"/>
<text text-anchor="middle" x="940.12" y="-287.5" font-family="Helvetica,sans-Serif" font-size="10.00">RexxDateTime.hpp</text>
</a>
</g>
</g>
<!-- Node71&#45;&gt;Node73 -->
<g id="edge50" class="edge">
<title>Node71&#45;&gt;Node73</title>
<path fill="none" stroke="midnightblue" d="M984.37,-337.67C976.89,-330 965.9,-318.76 956.75,-309.39"/>
<polygon fill="midnightblue" stroke="midnightblue" points="959.26,-306.96 949.77,-302.25 954.26,-311.85 959.26,-306.96"/>
</g>
<!-- Node74 -->
<g id="node45" class="node">
<title>Node74</title>
<g id="a_node45"><a xlink:href="_rexx_code_8hpp.html" target="_top" xlink:title=" ">
<polygon fill="white" stroke="red" points="1099.5,-281.75 1099.5,-301 1180.75,-301 1180.75,-281.75 1099.5,-281.75"/>
<text text-anchor="middle" x="1140.12" y="-287.5" font-family="Helvetica,sans-Serif" font-size="10.00">RexxCode.hpp</text>
</a>
</g>
</g>
<!-- Node71&#45;&gt;Node74 -->
<g id="edge52" class="edge">
<title>Node71&#45;&gt;Node74</title>
<path fill="none" stroke="midnightblue" d="M1017.73,-337.54C1041.58,-328.74 1078,-315.3 1104.91,-305.37"/>
<polygon fill="midnightblue" stroke="midnightblue" points="1105.85,-308.75 1114.02,-302.01 1103.43,-302.19 1105.85,-308.75"/>
</g>
<!-- Node82 -->
<g id="node46" class="node">
<title>Node82</title>
<g id="a_node46"><a xlink:href="_rexx_compound_tail_8hpp.html" target="_top" xlink:title=" ">
<polygon fill="white" stroke="red" points="0,-281.75 0,-301 120.25,-301 120.25,-281.75 0,-281.75"/>
<text text-anchor="middle" x="60.12" y="-287.5" font-family="Helvetica,sans-Serif" font-size="10.00">RexxCompoundTail.hpp</text>
</a>
</g>
</g>
<!-- Node71&#45;&gt;Node82 -->
<g id="edge54" class="edge">
<title>Node71&#45;&gt;Node82</title>
<path fill="none" stroke="midnightblue" d="M942.11,-338.49C939.07,-338.12 936.06,-337.79 933.12,-337.5 579.36,-302.73 488.35,-331.27 134.12,-301.5 133.44,-301.44 132.75,-301.38 132.06,-301.32"/>
<polygon fill="midnightblue" stroke="midnightblue" points="132.46,-297.84 122.17,-300.37 131.79,-304.81 132.46,-297.84"/>
</g>
<!-- Node83 -->
<g id="node47" class="node">
<title>Node83</title>
<g id="a_node47"><a xlink:href="_context_class_8hpp.html" target="_top" xlink:title=" ">
<polygon fill="white" stroke="black" points="63.75,-225.5 63.75,-244.75 158.5,-244.75 158.5,-225.5 63.75,-225.5"/>
<text text-anchor="middle" x="111.12" y="-231.25" font-family="Helvetica,sans-Serif" font-size="10.00">ContextClass.hpp</text>
</a>
</g>
</g>
<!-- Node71&#45;&gt;Node83 -->
<g id="edge55" class="edge">
<title>Node71&#45;&gt;Node83</title>
<path fill="none" stroke="midnightblue" d="M942.11,-338.5C939.07,-338.13 936.06,-337.79 933.12,-337.5 848.89,-329.12 248.94,-337.07 172.12,-301.5 150.61,-291.54 133.05,-270.19 122.39,-254.59"/>
<polygon fill="midnightblue" stroke="midnightblue" points="125.33,-252.69 116.97,-246.19 119.45,-256.49 125.33,-252.69"/>
</g>
<!-- Node73&#45;&gt;Node3 -->
<g id="edge51" class="edge">
<title>Node73&#45;&gt;Node3</title>
<path fill="none" stroke="midnightblue" d="M973.43,-281.29C1006.72,-272.22 1058.11,-258.21 1094.82,-248.2"/>
<polygon fill="midnightblue" stroke="midnightblue" points="1095.52,-251.64 1104.25,-245.63 1093.68,-244.89 1095.52,-251.64"/>
</g>
<!-- Node83&#45;&gt;Node23 -->
<g id="edge56" class="edge">
<title>Node83&#45;&gt;Node23</title>
<path fill="none" stroke="midnightblue" d="M111.29,-225.17C111.42,-218.37 111.59,-208.76 111.75,-200.15"/>
<polygon fill="midnightblue" stroke="midnightblue" points="115.25,-200.24 111.94,-190.18 108.25,-200.11 115.25,-200.24"/>
</g>
<!-- Node85 -->
<g id="node49" class="node">
<title>Node85</title>
<g id="a_node49"><a xlink:href="_rexx_instruction_8hpp.html" target="_top" xlink:title=" ">
<polygon fill="white" stroke="red" points="1823.25,-281.75 1823.25,-301 1927,-301 1927,-281.75 1823.25,-281.75"/>
<text text-anchor="middle" x="1875.12" y="-287.5" font-family="Helvetica,sans-Serif" font-size="10.00">RexxInstruction.hpp</text>
</a>
</g>
</g>
<!-- Node84&#45;&gt;Node85 -->
<g id="edge58" class="edge">
<title>Node84&#45;&gt;Node85</title>
<path fill="none" stroke="midnightblue" d="M1875.12,-337.67C1875.12,-330.87 1875.12,-321.26 1875.12,-312.65"/>
<polygon fill="midnightblue" stroke="midnightblue" points="1878.63,-312.68 1875.13,-302.68 1871.63,-312.68 1878.63,-312.68"/>
</g>
</g>
</svg>
        <g id="navigator" transform="translate(0 0)" fill="#404254">
                <rect fill="#f2f5e9" fill-opacity="0.5" stroke="#606060" stroke-width=".5" x="0" y="0" width="60" height="60"/>
                <use id="zoomplus" xlink:href="#zoomPlus" x="17" y="9" onmousedown="handleZoom(evt,'in')"/>
                <use id="zoomminus" xlink:href="#zoomMin" x="42" y="9" onmousedown="handleZoom(evt,'out')"/>
                <use id="reset" xlink:href="#resetDef" x="30" y="36" onmousedown="handleReset()"/>
                <g id="arrowUp" xlink:href="#dirArrow" transform="translate(30 24)" onmousedown="handlePan(0,-1)">
                  <use xlink:href="#rim" fill="#404040">
                        <set attributeName="fill" to="#808080" begin="arrowUp.mouseover" end="arrowUp.mouseout"/>
                  </use>
                  <path fill="none" stroke="white" stroke-width="1.5" d="M0,-3.0v7 M-2.5,-0.5L0,-3.0L2.5,-0.5"/>
                </g>
                <g id="arrowRight" xlink:href="#dirArrow" transform="rotate(90) translate(36 -43)" onmousedown="handlePan(1,0)">
                  <use xlink:href="#rim" fill="#404040">
                        <set attributeName="fill" to="#808080" begin="arrowRight.mouseover" end="arrowRight.mouseout"/>
                  </use>
                  <path fill="none" stroke="white" stroke-width="1.5" d="M0,-3.0v7 M-2.5,-0.5L0,-3.0L2.5,-0.5"/>
                </g>
                <g id="arrowDown" xlink:href="#dirArrow" transform="rotate(180) translate(-30 -48)" onmousedown="handlePan(0,1)">
                  <use xlink:href="#rim" fill="#404040">
                        <set attributeName="fill" to="#808080" begin="arrowDown.mouseover" end="arrowDown.mouseout"/>
                  </use>
                  <path fill="none" stroke="white" stroke-width="1.5" d="M0,-3.0v7 M-2.5,-0.5L0,-3.0L2.5,-0.5"/>
                </g>
                <g id="arrowLeft" xlink:href="#dirArrow" transform="rotate(270) translate(-36 17)" onmousedown="handlePan(-1,0)">
                  <use xlink:href="#rim" fill="#404040">
                        <set attributeName="fill" to="#808080" begin="arrowLeft.mouseover" end="arrowLeft.mouseout"/>
                  </use>
                  <path fill="none" stroke="white" stroke-width="1.5" d="M0,-3.0v7 M-2.5,-0.5L0,-3.0L2.5,-0.5"/>
                </g>
        </g>
        <svg viewBox="0 0 15 15" width="100%" height="30px" preserveAspectRatio="xMaxYMin meet">
         <g id="arrow_out" transform="scale(0.3 0.3)">
          <a xlink:href="_procedure_instruction_8cpp__incl_org.svg" target="_base">
           <rect id="button" ry="5" rx="5" y="6" x="6" height="38" width="38"
                fill="#f2f5e9" fill-opacity="0.5" stroke="#606060" stroke-width="1.0"/>
           <path id="arrow"
             d="M 11.500037,31.436501 C 11.940474,20.09759 22.043105,11.32322 32.158766,21.979434 L 37.068811,17.246167 C 37.068811,17.246167 37.088388,32 37.088388,32 L 22.160133,31.978069 C 22.160133,31.978069 26.997745,27.140456 26.997745,27.140456 C 18.528582,18.264221 13.291696,25.230495 11.500037,31.436501 z"
             style="fill:#404040;"/>
          </a>
         </g>
        </svg>
</svg>
