<?xml version="1.0" encoding="UTF-8" standalone="no"?>
<!DOCTYPE svg PUBLIC "-//W3C//DTD SVG 1.1//EN"
 "http://www.w3.org/Graphics/SVG/1.1/DTD/svg11.dtd">
<!-- Generated by graphviz version 12.1.0 (20240811.2233)
 -->
<!-- Title: ProtectedObject.cpp Pages: 1 -->
<svg width="2572pt" height="366pt"
 viewBox="0.00 0.00 2571.50 365.75" xmlns="http://www.w3.org/2000/svg" xmlns:xlink="http://www.w3.org/1999/xlink">
<g id="graph0" class="graph" transform="scale(1 1) rotate(0) translate(4 361.75)">
<title>ProtectedObject.cpp</title>
<polygon fill="white" stroke="none" points="-4,4 -4,-361.75 2567.5,-361.75 2567.5,4 -4,4"/>
<!-- Node1 -->
<g id="node1" class="node">
<title>Node1</title>
<g id="a_node1"><a xlink:title=" ">
<polygon fill="#bfbfbf" stroke="black" points="1961.75,-338 1961.75,-357.25 2067,-357.25 2067,-338 1961.75,-338"/>
<text text-anchor="middle" x="2014.38" y="-343.75" font-family="Helvetica,sans-Serif" font-size="10.00">ProtectedObject.cpp</text>
</a>
</g>
</g>
<!-- Node2 -->
<g id="node2" class="node">
<title>Node2</title>
<g id="a_node2"><a xlink:href="_rexx_core_8h.html" target="_top" xlink:title=" ">
<polygon fill="white" stroke="black" points="1165.12,-281.75 1165.12,-301 1233.62,-301 1233.62,-281.75 1165.12,-281.75"/>
<text text-anchor="middle" x="1199.38" y="-287.5" font-family="Helvetica,sans-Serif" font-size="10.00">RexxCore.h</text>
</a>
</g>
</g>
<!-- Node1&#45;&gt;Node2 -->
<g id="edge1" class="edge">
<title>Node1&#45;&gt;Node2</title>
<path fill="none" stroke="midnightblue" d="M1961.53,-343.11C1811.6,-333.13 1385.33,-304.75 1244.88,-295.4"/>
<polygon fill="midnightblue" stroke="midnightblue" points="1245.44,-291.93 1235.23,-294.76 1244.98,-298.92 1245.44,-291.93"/>
</g>
<!-- Node41 -->
<g id="node36" class="node">
<title>Node41</title>
<g id="a_node36"><a xlink:href="_list_class_8hpp.html" target="_top" xlink:title=" ">
<polygon fill="white" stroke="black" points="1660.38,-169.25 1660.38,-188.5 1736.38,-188.5 1736.38,-169.25 1660.38,-169.25"/>
<text text-anchor="middle" x="1698.38" y="-175" font-family="Helvetica,sans-Serif" font-size="10.00">ListClass.hpp</text>
</a>
</g>
</g>
<!-- Node1&#45;&gt;Node41 -->
<g id="edge59" class="edge">
<title>Node1&#45;&gt;Node41</title>
<path fill="none" stroke="midnightblue" d="M2016.12,-337.73C2019.98,-315.26 2026.54,-255.79 1995.38,-225 1957.63,-187.71 1817.3,-197.11 1748.09,-189.08"/>
<polygon fill="midnightblue" stroke="midnightblue" points="1748.71,-185.63 1738.32,-187.71 1747.74,-192.56 1748.71,-185.63"/>
</g>
<!-- Node69 -->
<g id="node50" class="node">
<title>Node69</title>
<g id="a_node50"><a xlink:href="_protected_object_8hpp.html" target="_top" xlink:title=" ">
<polygon fill="white" stroke="black" points="2042.75,-281.75 2042.75,-301 2148,-301 2148,-281.75 2042.75,-281.75"/>
<text text-anchor="middle" x="2095.38" y="-287.5" font-family="Helvetica,sans-Serif" font-size="10.00">ProtectedObject.hpp</text>
</a>
</g>
</g>
<!-- Node1&#45;&gt;Node69 -->
<g id="edge56" class="edge">
<title>Node1&#45;&gt;Node69</title>
<path fill="none" stroke="midnightblue" d="M2027.75,-337.67C2039.94,-329.5 2058.21,-317.27 2072.69,-307.57"/>
<polygon fill="midnightblue" stroke="midnightblue" points="2074.36,-310.66 2080.72,-302.19 2070.47,-304.85 2074.36,-310.66"/>
</g>
<!-- Node3 -->
<g id="node3" class="node">
<title>Node3</title>
<g id="a_node3"><a xlink:href="oorexxapi_8h.html" target="_top" xlink:title=" ">
<polygon fill="white" stroke="black" points="830.25,-225.5 830.25,-244.75 896.5,-244.75 896.5,-225.5 830.25,-225.5"/>
<text text-anchor="middle" x="863.38" y="-231.25" font-family="Helvetica,sans-Serif" font-size="10.00">oorexxapi.h</text>
</a>
</g>
</g>
<!-- Node2&#45;&gt;Node3 -->
<g id="edge2" class="edge">
<title>Node2&#45;&gt;Node3</title>
<path fill="none" stroke="midnightblue" d="M1164.86,-285.78C1111.8,-278.56 1006.75,-263.68 907.9,-245.63"/>
<polygon fill="midnightblue" stroke="midnightblue" points="908.77,-242.23 898.3,-243.86 907.5,-249.11 908.77,-242.23"/>
</g>
<!-- Node10 -->
<g id="node8" class="node">
<title>Node10</title>
<g id="a_node8"><a xlink:title=" ">
<polygon fill="white" stroke="#bfbfbf" points="1052.75,-225.5 1052.75,-244.75 1098,-244.75 1098,-225.5 1052.75,-225.5"/>
<text text-anchor="middle" x="1075.38" y="-231.25" font-family="Helvetica,sans-Serif" font-size="10.00">stdio.h</text>
</a>
</g>
</g>
<!-- Node2&#45;&gt;Node10 -->
<g id="edge7" class="edge">
<title>Node2&#45;&gt;Node10</title>
<path fill="none" stroke="midnightblue" d="M1178.62,-281.29C1158.95,-272.69 1129.14,-259.65 1106.6,-249.79"/>
<polygon fill="midnightblue" stroke="midnightblue" points="1108.15,-246.64 1097.58,-245.84 1105.34,-253.06 1108.15,-246.64"/>
</g>
<!-- Node11 -->
<g id="node9" class="node">
<title>Node11</title>
<g id="a_node9"><a xlink:title=" ">
<polygon fill="white" stroke="#bfbfbf" points="1398.75,-225.5 1398.75,-244.75 1450,-244.75 1450,-225.5 1398.75,-225.5"/>
<text text-anchor="middle" x="1424.38" y="-231.25" font-family="Helvetica,sans-Serif" font-size="10.00">stdarg.h</text>
</a>
</g>
</g>
<!-- Node2&#45;&gt;Node11 -->
<g id="edge8" class="edge">
<title>Node2&#45;&gt;Node11</title>
<path fill="none" stroke="midnightblue" d="M1234.1,-282.37C1270,-274.04 1327.96,-260.44 1387.3,-245.73"/>
<polygon fill="midnightblue" stroke="midnightblue" points="1388.07,-249.14 1396.93,-243.33 1386.38,-242.35 1388.07,-249.14"/>
</g>
<!-- Node12 -->
<g id="node10" class="node">
<title>Node12</title>
<g id="a_node10"><a xlink:title=" ">
<polygon fill="white" stroke="#bfbfbf" points="1806.25,-225.5 1806.25,-244.75 1854.5,-244.75 1854.5,-225.5 1806.25,-225.5"/>
<text text-anchor="middle" x="1830.38" y="-231.25" font-family="Helvetica,sans-Serif" font-size="10.00">string.h</text>
</a>
</g>
</g>
<!-- Node2&#45;&gt;Node12 -->
<g id="edge9" class="edge">
<title>Node2&#45;&gt;Node12</title>
<path fill="none" stroke="midnightblue" d="M1234.05,-290.11C1324.79,-288.91 1576.76,-282.39 1794.65,-245.4"/>
<polygon fill="midnightblue" stroke="midnightblue" points="1795.24,-248.85 1804.5,-243.7 1794.05,-241.95 1795.24,-248.85"/>
</g>
<!-- Node13 -->
<g id="node11" class="node">
<title>Node13</title>
<g id="a_node11"><a xlink:title=" ">
<polygon fill="white" stroke="#bfbfbf" points="1872.25,-225.5 1872.25,-244.75 1920.5,-244.75 1920.5,-225.5 1872.25,-225.5"/>
<text text-anchor="middle" x="1896.38" y="-231.25" font-family="Helvetica,sans-Serif" font-size="10.00">ctype.h</text>
</a>
</g>
</g>
<!-- Node2&#45;&gt;Node13 -->
<g id="edge10" class="edge">
<title>Node2&#45;&gt;Node13</title>
<path fill="none" stroke="midnightblue" d="M1233.87,-290.47C1331.2,-290.24 1616.23,-286 1860.75,-245.36"/>
<polygon fill="midnightblue" stroke="midnightblue" points="1861.22,-248.83 1870.5,-243.71 1860.05,-241.93 1861.22,-248.83"/>
</g>
<!-- Node14 -->
<g id="node12" class="node">
<title>Node14</title>
<g id="a_node12"><a xlink:title=" ">
<polygon fill="white" stroke="#bfbfbf" points="1938.62,-225.5 1938.62,-244.75 1986.12,-244.75 1986.12,-225.5 1938.62,-225.5"/>
<text text-anchor="middle" x="1962.38" y="-231.25" font-family="Helvetica,sans-Serif" font-size="10.00">limits.h</text>
</a>
</g>
</g>
<!-- Node2&#45;&gt;Node14 -->
<g id="edge11" class="edge">
<title>Node2&#45;&gt;Node14</title>
<path fill="none" stroke="midnightblue" d="M1233.87,-290.78C1337.58,-291.45 1655.64,-289.61 1927.09,-245.26"/>
<polygon fill="midnightblue" stroke="midnightblue" points="1927.57,-248.73 1936.86,-243.64 1926.42,-241.82 1927.57,-248.73"/>
</g>
<!-- Node15 -->
<g id="node13" class="node">
<title>Node15</title>
<g id="a_node13"><a xlink:title=" ">
<polygon fill="white" stroke="#bfbfbf" points="0,-225.5 0,-244.75 58.75,-244.75 58.75,-225.5 0,-225.5"/>
<text text-anchor="middle" x="29.38" y="-231.25" font-family="Helvetica,sans-Serif" font-size="10.00">stdexcept</text>
</a>
</g>
</g>
<!-- Node2&#45;&gt;Node15 -->
<g id="edge12" class="edge">
<title>Node2&#45;&gt;Node15</title>
<path fill="none" stroke="midnightblue" d="M1164.66,-289.88C1001.62,-287.41 310.14,-275.44 70.16,-245.14"/>
<polygon fill="midnightblue" stroke="midnightblue" points="70.95,-241.72 60.58,-243.88 70.04,-248.66 70.95,-241.72"/>
</g>
<!-- Node16 -->
<g id="node14" class="node">
<title>Node16</title>
<g id="a_node14"><a xlink:href="_rexx_platform_definitions_8h.html" target="_top" xlink:title=" ">
<polygon fill="white" stroke="black" points="77,-225.5 77,-244.75 207.75,-244.75 207.75,-225.5 77,-225.5"/>
<text text-anchor="middle" x="142.38" y="-231.25" font-family="Helvetica,sans-Serif" font-size="10.00">RexxPlatformDefinitions.h</text>
</a>
</g>
</g>
<!-- Node2&#45;&gt;Node16 -->
<g id="edge13" class="edge">
<title>Node2&#45;&gt;Node16</title>
<path fill="none" stroke="midnightblue" d="M1164.96,-289.73C1039.78,-287.19 596.7,-276.46 219.61,-245.37"/>
<polygon fill="midnightblue" stroke="midnightblue" points="219.96,-241.88 209.7,-244.54 219.38,-248.86 219.96,-241.88"/>
</g>
<!-- Node19 -->
<g id="node17" class="node">
<title>Node19</title>
<g id="a_node17"><a xlink:href="_rexx_constants_8hpp.html" target="_top" xlink:title=" ">
<polygon fill="white" stroke="black" points="225.88,-225.5 225.88,-244.75 328.88,-244.75 328.88,-225.5 225.88,-225.5"/>
<text text-anchor="middle" x="277.38" y="-231.25" font-family="Helvetica,sans-Serif" font-size="10.00">RexxConstants.hpp</text>
</a>
</g>
</g>
<!-- Node2&#45;&gt;Node19 -->
<g id="edge16" class="edge">
<title>Node2&#45;&gt;Node19</title>
<path fill="none" stroke="midnightblue" d="M1164.64,-289.6C1048.27,-286.78 661.52,-275.57 343.38,-245.25 342.37,-245.15 341.35,-245.05 340.33,-244.95"/>
<polygon fill="midnightblue" stroke="midnightblue" points="341.04,-241.51 330.71,-243.88 340.26,-248.46 341.04,-241.51"/>
</g>
<!-- Node20 -->
<g id="node18" class="node">
<title>Node20</title>
<g id="a_node18"><a xlink:href="_class_type_codes_8h.html" target="_top" xlink:title=" ">
<polygon fill="white" stroke="black" points="310.75,-113 310.75,-132.25 410,-132.25 410,-113 310.75,-113"/>
<text text-anchor="middle" x="360.38" y="-118.75" font-family="Helvetica,sans-Serif" font-size="10.00">ClassTypeCodes.h</text>
</a>
</g>
</g>
<!-- Node2&#45;&gt;Node20 -->
<g id="edge17" class="edge">
<title>Node2&#45;&gt;Node20</title>
<path fill="none" stroke="midnightblue" d="M1164.95,-289.58C1072.08,-287.05 808.75,-277.36 592.38,-245.25 479.29,-228.47 412.83,-278.24 341.38,-189 330.56,-175.49 338.33,-156.04 346.97,-141.87"/>
<polygon fill="midnightblue" stroke="midnightblue" points="349.65,-144.16 352.32,-133.9 343.84,-140.26 349.65,-144.16"/>
</g>
<!-- Node21 -->
<g id="node19" class="node">
<title>Node21</title>
<g id="a_node19"><a xlink:href="_global_names_8h.html" target="_top" xlink:title=" ">
<polygon fill="white" stroke="black" points="1192.62,-225.5 1192.62,-244.75 1276.12,-244.75 1276.12,-225.5 1192.62,-225.5"/>
<text text-anchor="middle" x="1234.38" y="-231.25" font-family="Helvetica,sans-Serif" font-size="10.00">GlobalNames.h</text>
</a>
</g>
</g>
<!-- Node2&#45;&gt;Node21 -->
<g id="edge18" class="edge">
<title>Node2&#45;&gt;Node21</title>
<path fill="none" stroke="midnightblue" d="M1205.15,-281.42C1209.89,-274.07 1216.76,-263.43 1222.64,-254.31"/>
<polygon fill="midnightblue" stroke="midnightblue" points="1225.4,-256.49 1227.88,-246.19 1219.52,-252.69 1225.4,-256.49"/>
</g>
<!-- Node22 -->
<g id="node20" class="node">
<title>Node22</title>
<g id="a_node20"><a xlink:href="_object_class_8hpp.html" target="_top" xlink:title=" ">
<polygon fill="white" stroke="black" points="961,-56.75 961,-76 1049.75,-76 1049.75,-56.75 961,-56.75"/>
<text text-anchor="middle" x="1005.38" y="-62.5" font-family="Helvetica,sans-Serif" font-size="10.00">ObjectClass.hpp</text>
</a>
</g>
</g>
<!-- Node2&#45;&gt;Node22 -->
<g id="edge19" class="edge">
<title>Node2&#45;&gt;Node22</title>
<path fill="none" stroke="midnightblue" d="M1164.66,-288.81C1075.53,-284.45 844,-270.74 821.38,-245.25 782.21,-201.13 784.96,-158.92 821.38,-112.5 837.11,-92.43 901.3,-80.12 949.46,-73.53"/>
<polygon fill="midnightblue" stroke="midnightblue" points="949.74,-77.02 959.2,-72.25 948.83,-70.08 949.74,-77.02"/>
</g>
<!-- Node25 -->
<g id="node23" class="node">
<title>Node25</title>
<g id="a_node23"><a xlink:href="_table_class_8hpp.html" target="_top" xlink:title=" ">
<polygon fill="white" stroke="black" points="519.62,-113 519.62,-132.25 603.12,-132.25 603.12,-113 519.62,-113"/>
<text text-anchor="middle" x="561.38" y="-118.75" font-family="Helvetica,sans-Serif" font-size="10.00">TableClass.hpp</text>
</a>
</g>
</g>
<!-- Node2&#45;&gt;Node25 -->
<g id="edge22" class="edge">
<title>Node2&#45;&gt;Node25</title>
<path fill="none" stroke="midnightblue" d="M1164.89,-289.39C1078.54,-286.49 855.16,-276.13 788.38,-245.25 743.43,-224.47 750.14,-193.71 707.38,-168.75 678.75,-152.04 643.3,-140.9 614.5,-133.86"/>
<polygon fill="midnightblue" stroke="midnightblue" points="615.42,-130.48 604.88,-131.62 613.83,-137.3 615.42,-130.48"/>
</g>
<!-- Node28 -->
<g id="node25" class="node">
<title>Node28</title>
<g id="a_node25"><a xlink:href="_stack_class_8hpp.html" target="_top" xlink:title=" ">
<polygon fill="white" stroke="black" points="1294.5,-225.5 1294.5,-244.75 1380.25,-244.75 1380.25,-225.5 1294.5,-225.5"/>
<text text-anchor="middle" x="1337.38" y="-231.25" font-family="Helvetica,sans-Serif" font-size="10.00">StackClass.hpp</text>
</a>
</g>
</g>
<!-- Node2&#45;&gt;Node28 -->
<g id="edge24" class="edge">
<title>Node2&#45;&gt;Node28</title>
<path fill="none" stroke="midnightblue" d="M1222.47,-281.29C1244.66,-272.57 1278.45,-259.29 1303.64,-249.39"/>
<polygon fill="midnightblue" stroke="midnightblue" points="1304.77,-252.7 1312.79,-245.79 1302.21,-246.19 1304.77,-252.7"/>
</g>
<!-- Node29 -->
<g id="node26" class="node">
<title>Node29</title>
<g id="a_node26"><a xlink:href="_rexx_memory_8hpp.html" target="_top" xlink:title=" ">
<polygon fill="white" stroke="black" points="601.5,-225.5 601.5,-244.75 693.25,-244.75 693.25,-225.5 601.5,-225.5"/>
<text text-anchor="middle" x="647.38" y="-231.25" font-family="Helvetica,sans-Serif" font-size="10.00">RexxMemory.hpp</text>
</a>
</g>
</g>
<!-- Node2&#45;&gt;Node29 -->
<g id="edge25" class="edge">
<title>Node2&#45;&gt;Node29</title>
<path fill="none" stroke="midnightblue" d="M1164.84,-286.98C1072.54,-277.91 819.35,-253.03 704.89,-241.78"/>
<polygon fill="midnightblue" stroke="midnightblue" points="705.41,-238.31 695.11,-240.82 704.72,-245.28 705.41,-238.31"/>
</g>
<!-- Node36 -->
<g id="node31" class="node">
<title>Node36</title>
<g id="a_node31"><a xlink:href="_rexx_behaviour_8hpp.html" target="_top" xlink:title=" ">
<polygon fill="white" stroke="black" points="1468,-225.5 1468,-244.75 1568.75,-244.75 1568.75,-225.5 1468,-225.5"/>
<text text-anchor="middle" x="1518.38" y="-231.25" font-family="Helvetica,sans-Serif" font-size="10.00">RexxBehaviour.hpp</text>
</a>
</g>
</g>
<!-- Node2&#45;&gt;Node36 -->
<g id="edge33" class="edge">
<title>Node2&#45;&gt;Node36</title>
<path fill="none" stroke="midnightblue" d="M1234.12,-284.47C1287.47,-275.39 1390.33,-257.9 1456.59,-246.63"/>
<polygon fill="midnightblue" stroke="midnightblue" points="1456.94,-250.12 1466.21,-245 1455.77,-243.22 1456.94,-250.12"/>
</g>
<!-- Node38 -->
<g id="node33" class="node">
<title>Node38</title>
<g id="a_node33"><a xlink:href="_class_class_8hpp.html" target="_top" xlink:title=" ">
<polygon fill="white" stroke="black" points="1586.5,-225.5 1586.5,-244.75 1672.25,-244.75 1672.25,-225.5 1586.5,-225.5"/>
<text text-anchor="middle" x="1629.38" y="-231.25" font-family="Helvetica,sans-Serif" font-size="10.00">ClassClass.hpp</text>
</a>
</g>
</g>
<!-- Node2&#45;&gt;Node38 -->
<g id="edge35" class="edge">
<title>Node2&#45;&gt;Node38</title>
<path fill="none" stroke="midnightblue" d="M1234.12,-286.87C1298.99,-280.19 1443.18,-264.69 1575.17,-245.5"/>
<polygon fill="midnightblue" stroke="midnightblue" points="1575.39,-249.01 1584.78,-244.1 1574.37,-242.08 1575.39,-249.01"/>
</g>
<!-- Node39 -->
<g id="node34" class="node">
<title>Node39</title>
<g id="a_node34"><a xlink:href="_rexx_envelope_8hpp.html" target="_top" xlink:title=" ">
<polygon fill="white" stroke="black" points="1690.12,-225.5 1690.12,-244.75 1788.62,-244.75 1788.62,-225.5 1690.12,-225.5"/>
<text text-anchor="middle" x="1739.38" y="-231.25" font-family="Helvetica,sans-Serif" font-size="10.00">RexxEnvelope.hpp</text>
</a>
</g>
</g>
<!-- Node2&#45;&gt;Node39 -->
<g id="edge36" class="edge">
<title>Node2&#45;&gt;Node39</title>
<path fill="none" stroke="midnightblue" d="M1233.94,-287.89C1311.51,-282.14 1505.59,-266.88 1678.38,-245.56"/>
<polygon fill="midnightblue" stroke="midnightblue" points="1678.74,-249.04 1688.23,-244.33 1677.87,-242.09 1678.74,-249.04"/>
</g>
<!-- Node40 -->
<g id="node35" class="node">
<title>Node40</title>
<g id="a_node35"><a xlink:href="_rexx_activity_8hpp.html" target="_top" xlink:title=" ">
<polygon fill="white" stroke="black" points="2042.62,-225.5 2042.62,-244.75 2132.12,-244.75 2132.12,-225.5 2042.62,-225.5"/>
<text text-anchor="middle" x="2087.38" y="-231.25" font-family="Helvetica,sans-Serif" font-size="10.00">RexxActivity.hpp</text>
</a>
</g>
</g>
<!-- Node2&#45;&gt;Node40 -->
<g id="edge37" class="edge">
<title>Node2&#45;&gt;Node40</title>
<path fill="none" stroke="midnightblue" d="M1233.93,-288.94C1344.74,-284.22 1701.09,-268.18 1995.38,-245.25 2007.02,-244.34 2019.47,-243.21 2031.34,-242.06"/>
<polygon fill="midnightblue" stroke="midnightblue" points="2031.37,-245.58 2040.98,-241.11 2030.68,-238.61 2031.37,-245.58"/>
</g>
<!-- Node51 -->
<g id="node46" class="node">
<title>Node51</title>
<g id="a_node46"><a xlink:href="_number_string_class_8hpp.html" target="_top" xlink:title=" ">
<polygon fill="white" stroke="black" points="914.25,-225.5 914.25,-244.75 1034.5,-244.75 1034.5,-225.5 914.25,-225.5"/>
<text text-anchor="middle" x="974.38" y="-231.25" font-family="Helvetica,sans-Serif" font-size="10.00">NumberStringClass.hpp</text>
</a>
</g>
</g>
<!-- Node2&#45;&gt;Node51 -->
<g id="edge51" class="edge">
<title>Node2&#45;&gt;Node51</title>
<path fill="none" stroke="midnightblue" d="M1164.71,-282.02C1126.8,-272.88 1065.77,-258.16 1023.06,-247.86"/>
<polygon fill="midnightblue" stroke="midnightblue" points="1024.1,-244.51 1013.55,-245.57 1022.46,-251.32 1024.1,-244.51"/>
</g>
<!-- Node67 -->
<g id="node48" class="node">
<title>Node67</title>
<g id="a_node48"><a xlink:href="_activity_manager_8hpp.html" target="_top" xlink:title=" ">
<polygon fill="white" stroke="black" points="2150.12,-225.5 2150.12,-244.75 2254.62,-244.75 2254.62,-225.5 2150.12,-225.5"/>
<text text-anchor="middle" x="2202.38" y="-231.25" font-family="Helvetica,sans-Serif" font-size="10.00">ActivityManager.hpp</text>
</a>
</g>
</g>
<!-- Node2&#45;&gt;Node67 -->
<g id="edge54" class="edge">
<title>Node2&#45;&gt;Node67</title>
<path fill="none" stroke="midnightblue" d="M1234.11,-289.97C1356.49,-288.28 1779.2,-280.21 2138.43,-245.44"/>
<polygon fill="midnightblue" stroke="midnightblue" points="2138.73,-248.93 2148.34,-244.47 2138.04,-241.96 2138.73,-248.93"/>
</g>
<!-- Node4 -->
<g id="node4" class="node">
<title>Node4</title>
<g id="a_node4"><a xlink:href="rexx_8h.html" target="_top" xlink:title=" ">
<polygon fill="white" stroke="red" points="830.88,-169.25 830.88,-188.5 873.88,-188.5 873.88,-169.25 830.88,-169.25"/>
<text text-anchor="middle" x="852.38" y="-175" font-family="Helvetica,sans-Serif" font-size="10.00">rexx.h</text>
</a>
</g>
</g>
<!-- Node3&#45;&gt;Node4 -->
<g id="edge3" class="edge">
<title>Node3&#45;&gt;Node4</title>
<path fill="none" stroke="midnightblue" d="M861.56,-225.17C860.16,-218.29 858.19,-208.54 856.42,-199.85"/>
<polygon fill="midnightblue" stroke="midnightblue" points="859.88,-199.25 854.46,-190.15 853.02,-200.65 859.88,-199.25"/>
</g>
<!-- Node9 -->
<g id="node7" class="node">
<title>Node9</title>
<g id="a_node7"><a xlink:href="oorexxerrors_8h.html" target="_top" xlink:title=" ">
<polygon fill="white" stroke="black" points="892.25,-169.25 892.25,-188.5 970.5,-188.5 970.5,-169.25 892.25,-169.25"/>
<text text-anchor="middle" x="931.38" y="-175" font-family="Helvetica,sans-Serif" font-size="10.00">oorexxerrors.h</text>
</a>
</g>
</g>
<!-- Node3&#45;&gt;Node9 -->
<g id="edge6" class="edge">
<title>Node3&#45;&gt;Node9</title>
<path fill="none" stroke="midnightblue" d="M874.6,-225.17C884.6,-217.19 899.47,-205.33 911.48,-195.75"/>
<polygon fill="midnightblue" stroke="midnightblue" points="913.54,-198.58 919.17,-189.61 909.17,-193.11 913.54,-198.58"/>
</g>
<!-- Node5 -->
<g id="node5" class="node">
<title>Node5</title>
<g id="a_node5"><a xlink:title=" ">
<polygon fill="white" stroke="#bfbfbf" points="830.5,-113 830.5,-132.25 910.25,-132.25 910.25,-113 830.5,-113"/>
<text text-anchor="middle" x="870.38" y="-118.75" font-family="Helvetica,sans-Serif" font-size="10.00">rexxapitypes.h</text>
</a>
</g>
</g>
<!-- Node4&#45;&gt;Node5 -->
<g id="edge4" class="edge">
<title>Node4&#45;&gt;Node5</title>
<path fill="none" stroke="midnightblue" d="M855.35,-168.92C857.65,-161.96 860.94,-152.07 863.85,-143.3"/>
<polygon fill="midnightblue" stroke="midnightblue" points="867.15,-144.45 866.98,-133.85 860.51,-142.24 867.15,-144.45"/>
</g>
<!-- Node6 -->
<g id="node6" class="node">
<title>Node6</title>
<g id="a_node6"><a xlink:href="rexxapidefs_8h.html" target="_top" xlink:title=" ">
<polygon fill="white" stroke="black" points="928.12,-113 928.12,-132.25 1002.62,-132.25 1002.62,-113 928.12,-113"/>
<text text-anchor="middle" x="965.38" y="-118.75" font-family="Helvetica,sans-Serif" font-size="10.00">rexxapidefs.h</text>
</a>
</g>
</g>
<!-- Node4&#45;&gt;Node6 -->
<g id="edge5" class="edge">
<title>Node4&#45;&gt;Node6</title>
<path fill="none" stroke="midnightblue" d="M871.29,-168.79C888.97,-160.31 915.64,-147.5 936.07,-137.69"/>
<polygon fill="midnightblue" stroke="midnightblue" points="937.54,-140.87 945.04,-133.39 934.51,-134.56 937.54,-140.87"/>
</g>
<!-- Node17 -->
<g id="node15" class="node">
<title>Node17</title>
<g id="a_node15"><a xlink:title=" ">
<polygon fill="white" stroke="#bfbfbf" points="2.62,-169.25 2.62,-188.5 110.12,-188.5 110.12,-169.25 2.62,-169.25"/>
<text text-anchor="middle" x="56.38" y="-175" font-family="Helvetica,sans-Serif" font-size="10.00">PlatformDefinitions.h</text>
</a>
</g>
</g>
<!-- Node16&#45;&gt;Node17 -->
<g id="edge14" class="edge">
<title>Node16&#45;&gt;Node17</title>
<path fill="none" stroke="midnightblue" d="M128.17,-225.17C115.1,-216.92 95.46,-204.53 80.02,-194.79"/>
<polygon fill="midnightblue" stroke="midnightblue" points="82.2,-192.03 71.88,-189.65 78.47,-197.95 82.2,-192.03"/>
</g>
<!-- Node18 -->
<g id="node16" class="node">
<title>Node18</title>
<g id="a_node16"><a xlink:href="_rexx_error_codes_8h.html" target="_top" xlink:title=" ">
<polygon fill="white" stroke="black" points="127.88,-169.25 127.88,-188.5 224.88,-188.5 224.88,-169.25 127.88,-169.25"/>
<text text-anchor="middle" x="176.38" y="-175" font-family="Helvetica,sans-Serif" font-size="10.00">RexxErrorCodes.h</text>
</a>
</g>
</g>
<!-- Node16&#45;&gt;Node18 -->
<g id="edge15" class="edge">
<title>Node16&#45;&gt;Node18</title>
<path fill="none" stroke="midnightblue" d="M147.99,-225.17C152.54,-217.9 159.12,-207.41 164.79,-198.36"/>
<polygon fill="midnightblue" stroke="midnightblue" points="167.72,-200.28 170.06,-189.95 161.79,-196.56 167.72,-200.28"/>
</g>
<!-- Node23 -->
<g id="node21" class="node">
<title>Node23</title>
<g id="a_node21"><a xlink:href="_numerics_8hpp.html" target="_top" xlink:title=" ">
<polygon fill="white" stroke="black" points="1016,-0.5 1016,-19.75 1092.75,-19.75 1092.75,-0.5 1016,-0.5"/>
<text text-anchor="middle" x="1054.38" y="-6.25" font-family="Helvetica,sans-Serif" font-size="10.00">Numerics.hpp</text>
</a>
</g>
</g>
<!-- Node22&#45;&gt;Node23 -->
<g id="edge20" class="edge">
<title>Node22&#45;&gt;Node23</title>
<path fill="none" stroke="midnightblue" d="M1013.47,-56.42C1020.32,-48.83 1030.33,-37.74 1038.74,-28.43"/>
<polygon fill="midnightblue" stroke="midnightblue" points="1041.31,-30.81 1045.42,-21.04 1036.12,-26.11 1041.31,-30.81"/>
</g>
<!-- Node24 -->
<g id="node22" class="node">
<title>Node24</title>
<g id="a_node22"><a xlink:title=" ">
<polygon fill="white" stroke="#bfbfbf" points="929.75,-0.5 929.75,-19.75 981,-19.75 981,-0.5 929.75,-0.5"/>
<text text-anchor="middle" x="955.38" y="-6.25" font-family="Helvetica,sans-Serif" font-size="10.00">stddef.h</text>
</a>
</g>
</g>
<!-- Node22&#45;&gt;Node24 -->
<g id="edge21" class="edge">
<title>Node22&#45;&gt;Node24</title>
<path fill="none" stroke="midnightblue" d="M997.12,-56.42C990.06,-48.75 979.69,-37.51 971.06,-28.14"/>
<polygon fill="midnightblue" stroke="midnightblue" points="973.85,-26.01 964.5,-21.03 968.71,-30.75 973.85,-26.01"/>
</g>
<!-- Node26 -->
<g id="node24" class="node">
<title>Node26</title>
<g id="a_node24"><a xlink:href="_rexx_collection_8hpp.html" target="_top" xlink:title=" ">
<polygon fill="white" stroke="red" points="510.62,-56.75 510.62,-76 612.12,-76 612.12,-56.75 510.62,-56.75"/>
<text text-anchor="middle" x="561.38" y="-62.5" font-family="Helvetica,sans-Serif" font-size="10.00">RexxCollection.hpp</text>
</a>
</g>
</g>
<!-- Node25&#45;&gt;Node26 -->
<g id="edge23" class="edge">
<title>Node25&#45;&gt;Node26</title>
<path fill="none" stroke="midnightblue" d="M561.38,-112.67C561.38,-105.87 561.38,-96.26 561.38,-87.65"/>
<polygon fill="midnightblue" stroke="midnightblue" points="564.88,-87.68 561.38,-77.68 557.88,-87.68 564.88,-87.68"/>
</g>
<!-- Node30 -->
<g id="node27" class="node">
<title>Node30</title>
<g id="a_node27"><a xlink:title=" ">
<polygon fill="white" stroke="#bfbfbf" points="596.62,-169.25 596.62,-188.5 698.12,-188.5 698.12,-169.25 596.62,-169.25"/>
<text text-anchor="middle" x="647.38" y="-175" font-family="Helvetica,sans-Serif" font-size="10.00">SysSemaphore.hpp</text>
</a>
</g>
</g>
<!-- Node29&#45;&gt;Node30 -->
<g id="edge26" class="edge">
<title>Node29&#45;&gt;Node30</title>
<path fill="none" stroke="midnightblue" d="M647.38,-225.17C647.38,-218.37 647.38,-208.76 647.38,-200.15"/>
<polygon fill="midnightblue" stroke="midnightblue" points="650.88,-200.18 647.38,-190.18 643.88,-200.18 650.88,-200.18"/>
</g>
<!-- Node31 -->
<g id="node28" class="node">
<title>Node31</title>
<g id="a_node28"><a xlink:href="_identity_table_class_8hpp.html" target="_top" xlink:title=" ">
<polygon fill="white" stroke="black" points="462.5,-169.25 462.5,-188.5 578.25,-188.5 578.25,-169.25 462.5,-169.25"/>
<text text-anchor="middle" x="520.38" y="-175" font-family="Helvetica,sans-Serif" font-size="10.00">IdentityTableClass.hpp</text>
</a>
</g>
</g>
<!-- Node29&#45;&gt;Node31 -->
<g id="edge27" class="edge">
<title>Node29&#45;&gt;Node31</title>
<path fill="none" stroke="midnightblue" d="M626.12,-225.04C605.88,-216.4 575.16,-203.28 552.04,-193.4"/>
<polygon fill="midnightblue" stroke="midnightblue" points="553.66,-190.29 543.09,-189.58 550.91,-196.73 553.66,-190.29"/>
</g>
<!-- Node32 -->
<g id="node29" class="node">
<title>Node32</title>
<g id="a_node29"><a xlink:href="_memory_stats_8hpp.html" target="_top" xlink:title=" ">
<polygon fill="white" stroke="black" points="350.75,-169.25 350.75,-188.5 444,-188.5 444,-169.25 350.75,-169.25"/>
<text text-anchor="middle" x="397.38" y="-175" font-family="Helvetica,sans-Serif" font-size="10.00">MemoryStats.hpp</text>
</a>
</g>
</g>
<!-- Node29&#45;&gt;Node32 -->
<g id="edge29" class="edge">
<title>Node29&#45;&gt;Node32</title>
<path fill="none" stroke="midnightblue" d="M605.53,-225.04C562.9,-215.79 496.64,-201.42 450.37,-191.37"/>
<polygon fill="midnightblue" stroke="midnightblue" points="451.35,-188.01 440.84,-189.31 449.87,-194.85 451.35,-188.01"/>
</g>
<!-- Node33 -->
<g id="node30" class="node">
<title>Node33</title>
<g id="a_node30"><a xlink:href="_memory_segment_8hpp.html" target="_top" xlink:title=" ">
<polygon fill="white" stroke="red" points="725.88,-56.75 725.88,-76 834.88,-76 834.88,-56.75 725.88,-56.75"/>
<text text-anchor="middle" x="780.38" y="-62.5" font-family="Helvetica,sans-Serif" font-size="10.00">MemorySegment.hpp</text>
</a>
</g>
</g>
<!-- Node29&#45;&gt;Node33 -->
<g id="edge31" class="edge">
<title>Node29&#45;&gt;Node33</title>
<path fill="none" stroke="midnightblue" d="M662.47,-225.12C675.45,-216.87 694.12,-203.72 707.38,-189 736.25,-156.95 759.79,-111.81 771.77,-86.51"/>
<polygon fill="midnightblue" stroke="midnightblue" points="774.79,-88.31 775.81,-77.77 768.44,-85.38 774.79,-88.31"/>
</g>
<!-- Node31&#45;&gt;Node25 -->
<g id="edge28" class="edge">
<title>Node31&#45;&gt;Node25</title>
<path fill="none" stroke="midnightblue" d="M527.15,-168.92C532.76,-161.49 540.91,-150.7 547.85,-141.52"/>
<polygon fill="midnightblue" stroke="midnightblue" points="550.58,-143.71 553.82,-133.62 545,-139.49 550.58,-143.71"/>
</g>
<!-- Node32&#45;&gt;Node20 -->
<g id="edge30" class="edge">
<title>Node32&#45;&gt;Node20</title>
<path fill="none" stroke="midnightblue" d="M391.27,-168.92C386.25,-161.57 379,-150.93 372.78,-141.81"/>
<polygon fill="midnightblue" stroke="midnightblue" points="375.75,-139.96 367.22,-133.67 369.97,-143.9 375.75,-139.96"/>
</g>
<!-- Node33&#45;&gt;Node24 -->
<g id="edge32" class="edge">
<title>Node33&#45;&gt;Node24</title>
<path fill="none" stroke="midnightblue" d="M809.67,-56.29C839.61,-47.01 886.19,-32.57 918.6,-22.53"/>
<polygon fill="midnightblue" stroke="midnightblue" points="919.46,-25.92 927.97,-19.62 917.38,-19.24 919.46,-25.92"/>
</g>
<!-- Node37 -->
<g id="node32" class="node">
<title>Node37</title>
<g id="a_node32"><a xlink:href="_primitive_behaviour_names_8h.html" target="_top" xlink:title=" ">
<polygon fill="white" stroke="black" points="1251.62,-169.25 1251.62,-188.5 1389.12,-188.5 1389.12,-169.25 1251.62,-169.25"/>
<text text-anchor="middle" x="1320.38" y="-175" font-family="Helvetica,sans-Serif" font-size="10.00">PrimitiveBehaviourNames.h</text>
</a>
</g>
</g>
<!-- Node36&#45;&gt;Node37 -->
<g id="edge34" class="edge">
<title>Node36&#45;&gt;Node37</title>
<path fill="none" stroke="midnightblue" d="M1485.23,-225.04C1452.11,-215.97 1400.99,-201.96 1364.46,-191.95"/>
<polygon fill="midnightblue" stroke="midnightblue" points="1365.65,-188.65 1355.08,-189.38 1363.8,-195.4 1365.65,-188.65"/>
</g>
<!-- Node40&#45;&gt;Node41 -->
<g id="edge38" class="edge">
<title>Node40&#45;&gt;Node41</title>
<path fill="none" stroke="midnightblue" d="M2042.3,-227.03C2037.6,-226.32 2032.89,-225.64 2028.38,-225 1906.38,-207.81 1872.47,-209.01 1747.94,-189.32"/>
<polygon fill="midnightblue" stroke="midnightblue" points="1748.73,-185.91 1738.31,-187.79 1747.63,-192.82 1748.73,-185.91"/>
</g>
<!-- Node43 -->
<g id="node38" class="node">
<title>Node43</title>
<g id="a_node38"><a xlink:href="_rexx_internal_stack_8hpp.html" target="_top" xlink:title=" ">
<polygon fill="white" stroke="black" points="1754.5,-169.25 1754.5,-188.5 1870.25,-188.5 1870.25,-169.25 1754.5,-169.25"/>
<text text-anchor="middle" x="1812.38" y="-175" font-family="Helvetica,sans-Serif" font-size="10.00">RexxInternalStack.hpp</text>
</a>
</g>
</g>
<!-- Node40&#45;&gt;Node43 -->
<g id="edge41" class="edge">
<title>Node40&#45;&gt;Node43</title>
<path fill="none" stroke="midnightblue" d="M2042.27,-225.23C1995.1,-215.92 1920.92,-201.29 1869.64,-191.17"/>
<polygon fill="midnightblue" stroke="midnightblue" points="1870.39,-187.75 1859.91,-189.25 1869.04,-194.62 1870.39,-187.75"/>
</g>
<!-- Node44 -->
<g id="node39" class="node">
<title>Node44</title>
<g id="a_node39"><a xlink:href="_rexx_activation_stack_8hpp.html" target="_top" xlink:title=" ">
<polygon fill="white" stroke="black" points="1887.88,-169.25 1887.88,-188.5 2014.88,-188.5 2014.88,-169.25 1887.88,-169.25"/>
<text text-anchor="middle" x="1951.38" y="-175" font-family="Helvetica,sans-Serif" font-size="10.00">RexxActivationStack.hpp</text>
</a>
</g>
</g>
<!-- Node40&#45;&gt;Node44 -->
<g id="edge42" class="edge">
<title>Node40&#45;&gt;Node44</title>
<path fill="none" stroke="midnightblue" d="M2064.61,-225.04C2042.74,-216.32 2009.45,-203.04 1984.62,-193.14"/>
<polygon fill="midnightblue" stroke="midnightblue" points="1986.2,-190 1975.62,-189.55 1983.61,-196.5 1986.2,-190"/>
</g>
<!-- Node45 -->
<g id="node40" class="node">
<title>Node45</title>
<g id="a_node40"><a xlink:href="_expression_stack_8hpp.html" target="_top" xlink:title=" ">
<polygon fill="white" stroke="red" points="2032.88,-169.25 2032.88,-188.5 2141.88,-188.5 2141.88,-169.25 2032.88,-169.25"/>
<text text-anchor="middle" x="2087.38" y="-175" font-family="Helvetica,sans-Serif" font-size="10.00">ExpressionStack.hpp</text>
</a>
</g>
</g>
<!-- Node40&#45;&gt;Node45 -->
<g id="edge43" class="edge">
<title>Node40&#45;&gt;Node45</title>
<path fill="none" stroke="midnightblue" d="M2087.38,-225.17C2087.38,-218.37 2087.38,-208.76 2087.38,-200.15"/>
<polygon fill="midnightblue" stroke="midnightblue" points="2090.88,-200.18 2087.38,-190.18 2083.88,-200.18 2090.88,-200.18"/>
</g>
<!-- Node47 -->
<g id="node41" class="node">
<title>Node47</title>
<g id="a_node41"><a xlink:href="_rexx_local_variables_8hpp.html" target="_top" xlink:title=" ">
<polygon fill="white" stroke="red" points="2159.88,-169.25 2159.88,-188.5 2280.88,-188.5 2280.88,-169.25 2159.88,-169.25"/>
<text text-anchor="middle" x="2220.38" y="-175" font-family="Helvetica,sans-Serif" font-size="10.00">RexxLocalVariables.hpp</text>
</a>
</g>
</g>
<!-- Node40&#45;&gt;Node47 -->
<g id="edge44" class="edge">
<title>Node40&#45;&gt;Node47</title>
<path fill="none" stroke="midnightblue" d="M2109.64,-225.04C2130.93,-216.36 2163.29,-203.16 2187.54,-193.27"/>
<polygon fill="midnightblue" stroke="midnightblue" points="2188.7,-196.57 2196.64,-189.56 2186.06,-190.09 2188.7,-196.57"/>
</g>
<!-- Node62 -->
<g id="node42" class="node">
<title>Node62</title>
<g id="a_node42"><a xlink:href="_source_location_8hpp.html" target="_top" xlink:title=" ">
<polygon fill="white" stroke="black" points="2299.25,-169.25 2299.25,-188.5 2401.5,-188.5 2401.5,-169.25 2299.25,-169.25"/>
<text text-anchor="middle" x="2350.38" y="-175" font-family="Helvetica,sans-Serif" font-size="10.00">SourceLocation.hpp</text>
</a>
</g>
</g>
<!-- Node40&#45;&gt;Node62 -->
<g id="edge45" class="edge">
<title>Node40&#45;&gt;Node62</title>
<path fill="none" stroke="midnightblue" d="M2131.4,-225.04C2176.44,-215.75 2246.53,-201.29 2295.24,-191.25"/>
<polygon fill="midnightblue" stroke="midnightblue" points="2295.64,-194.74 2304.73,-189.29 2294.23,-187.88 2295.64,-194.74"/>
</g>
<!-- Node63 -->
<g id="node43" class="node">
<title>Node63</title>
<g id="a_node43"><a xlink:href="_exit_handler_8hpp.html" target="_top" xlink:title=" ">
<polygon fill="white" stroke="red" points="1406.88,-169.25 1406.88,-188.5 1491.88,-188.5 1491.88,-169.25 1406.88,-169.25"/>
<text text-anchor="middle" x="1449.38" y="-175" font-family="Helvetica,sans-Serif" font-size="10.00">ExitHandler.hpp</text>
</a>
</g>
</g>
<!-- Node40&#45;&gt;Node63 -->
<g id="edge46" class="edge">
<title>Node40&#45;&gt;Node63</title>
<path fill="none" stroke="midnightblue" d="M2042.47,-229.43C2027.5,-227.93 2010.73,-226.32 1995.38,-225 1779.69,-206.45 1721.75,-215.74 1503.37,-189.12"/>
<polygon fill="midnightblue" stroke="midnightblue" points="1504.03,-185.67 1493.67,-187.92 1503.17,-192.62 1504.03,-185.67"/>
</g>
<!-- Node65 -->
<g id="node44" class="node">
<title>Node65</title>
<g id="a_node44"><a xlink:href="_activation_api_contexts_8hpp.html" target="_top" xlink:title=" ">
<polygon fill="white" stroke="black" points="1510.25,-169.25 1510.25,-188.5 1642.5,-188.5 1642.5,-169.25 1510.25,-169.25"/>
<text text-anchor="middle" x="1576.38" y="-175" font-family="Helvetica,sans-Serif" font-size="10.00">ActivationApiContexts.hpp</text>
</a>
</g>
</g>
<!-- Node40&#45;&gt;Node65 -->
<g id="edge48" class="edge">
<title>Node40&#45;&gt;Node65</title>
<path fill="none" stroke="midnightblue" d="M2042.27,-229.56C1950.69,-220.28 1744.62,-199.3 1653.87,-189.26"/>
<polygon fill="midnightblue" stroke="midnightblue" points="1654.45,-185.8 1644.13,-188.17 1653.67,-192.76 1654.45,-185.8"/>
</g>
<!-- Node66 -->
<g id="node45" class="node">
<title>Node66</title>
<g id="a_node45"><a xlink:title=" ">
<polygon fill="white" stroke="#bfbfbf" points="2419.62,-169.25 2419.62,-188.5 2503.12,-188.5 2503.12,-169.25 2419.62,-169.25"/>
<text text-anchor="middle" x="2461.38" y="-175" font-family="Helvetica,sans-Serif" font-size="10.00">SysActivity.hpp</text>
</a>
</g>
</g>
<!-- Node40&#45;&gt;Node66 -->
<g id="edge50" class="edge">
<title>Node40&#45;&gt;Node66</title>
<path fill="none" stroke="midnightblue" d="M2132.44,-226.39C2135.46,-225.91 2138.46,-225.44 2141.38,-225 2257.14,-207.48 2289.33,-207.6 2408.36,-189.25"/>
<polygon fill="midnightblue" stroke="midnightblue" points="2408.54,-192.77 2417.88,-187.77 2407.46,-185.85 2408.54,-192.77"/>
</g>
<!-- Node42 -->
<g id="node37" class="node">
<title>Node42</title>
<g id="a_node37"><a xlink:href="_rexx_list_table_8hpp.html" target="_top" xlink:title=" ">
<polygon fill="white" stroke="black" points="1404.88,-113 1404.88,-132.25 1501.88,-132.25 1501.88,-113 1404.88,-113"/>
<text text-anchor="middle" x="1453.38" y="-118.75" font-family="Helvetica,sans-Serif" font-size="10.00">RexxListTable.hpp</text>
</a>
</g>
</g>
<!-- Node41&#45;&gt;Node42 -->
<g id="edge39" class="edge">
<title>Node41&#45;&gt;Node42</title>
<path fill="none" stroke="midnightblue" d="M1660.09,-169.4C1618.44,-160.18 1551.62,-145.38 1505.27,-135.12"/>
<polygon fill="midnightblue" stroke="midnightblue" points="1506.24,-131.75 1495.72,-133 1504.73,-138.58 1506.24,-131.75"/>
</g>
<!-- Node42&#45;&gt;Node22 -->
<g id="edge40" class="edge">
<title>Node42&#45;&gt;Node22</title>
<path fill="none" stroke="midnightblue" d="M1404.58,-115.72C1320.8,-105.57 1150.1,-84.9 1061.52,-74.17"/>
<polygon fill="midnightblue" stroke="midnightblue" points="1061.95,-70.7 1051.6,-72.97 1061.11,-77.65 1061.95,-70.7"/>
</g>
<!-- Node63&#45;&gt;Node2 -->
<g id="edge47" class="edge">
<title>Node63&#45;&gt;Node2</title>
<path fill="none" stroke="midnightblue" d="M1406.54,-187.64C1403.78,-188.11 1401.04,-188.57 1398.38,-189 1343.4,-197.91 1186.81,-182.89 1150.38,-225 1136.23,-241.35 1156.3,-261.41 1174.86,-274.96"/>
<polygon fill="midnightblue" stroke="midnightblue" points="1172.76,-277.77 1182.99,-280.54 1176.72,-272 1172.76,-277.77"/>
</g>
<!-- Node65&#45;&gt;Node2 -->
<g id="edge49" class="edge">
<title>Node65&#45;&gt;Node2</title>
<path fill="none" stroke="midnightblue" d="M1510.13,-187.97C1507.17,-188.32 1504.24,-188.66 1501.38,-189 1430.74,-197.29 1230.75,-171.96 1183.38,-225 1171.96,-237.78 1178.87,-257.36 1186.86,-271.77"/>
<polygon fill="midnightblue" stroke="midnightblue" points="1183.88,-273.6 1192.1,-280.29 1189.84,-269.93 1183.88,-273.6"/>
</g>
<!-- Node51&#45;&gt;Node23 -->
<g id="edge52" class="edge">
<title>Node51&#45;&gt;Node23</title>
<path fill="none" stroke="midnightblue" d="M1021.1,-225.08C1057,-217.07 1102.26,-204.29 1113.38,-189 1150.44,-138 1097.59,-62.29 1069.7,-28.5"/>
<polygon fill="midnightblue" stroke="midnightblue" points="1072.72,-26.65 1063.58,-21.29 1067.39,-31.18 1072.72,-26.65"/>
</g>
<!-- Node52 -->
<g id="node47" class="node">
<title>Node52</title>
<g id="a_node47"><a xlink:href="_number_string_math_8hpp.html" target="_top" xlink:title=" ">
<polygon fill="white" stroke="black" points="988.12,-169.25 988.12,-188.5 1104.62,-188.5 1104.62,-169.25 988.12,-169.25"/>
<text text-anchor="middle" x="1046.38" y="-175" font-family="Helvetica,sans-Serif" font-size="10.00">NumberStringMath.hpp</text>
</a>
</g>
</g>
<!-- Node51&#45;&gt;Node52 -->
<g id="edge53" class="edge">
<title>Node51&#45;&gt;Node52</title>
<path fill="none" stroke="midnightblue" d="M986.26,-225.17C996.96,-217.11 1012.91,-205.09 1025.69,-195.46"/>
<polygon fill="midnightblue" stroke="midnightblue" points="1027.62,-198.39 1033.5,-189.58 1023.41,-192.8 1027.62,-198.39"/>
</g>
<!-- Node68 -->
<g id="node49" class="node">
<title>Node68</title>
<g id="a_node49"><a xlink:title=" ">
<polygon fill="white" stroke="#bfbfbf" points="2521.25,-169.25 2521.25,-188.5 2563.5,-188.5 2563.5,-169.25 2521.25,-169.25"/>
<text text-anchor="middle" x="2542.38" y="-175" font-family="Helvetica,sans-Serif" font-size="10.00">deque</text>
</a>
</g>
</g>
<!-- Node67&#45;&gt;Node68 -->
<g id="edge55" class="edge">
<title>Node67&#45;&gt;Node68</title>
<path fill="none" stroke="midnightblue" d="M2254.92,-228.92C2314.57,-222.47 2414.93,-209.99 2509.63,-189.34"/>
<polygon fill="midnightblue" stroke="midnightblue" points="2510.37,-192.76 2519.37,-187.18 2508.85,-185.93 2510.37,-192.76"/>
</g>
<!-- Node69&#45;&gt;Node40 -->
<g id="edge57" class="edge">
<title>Node69&#45;&gt;Node40</title>
<path fill="none" stroke="midnightblue" d="M2094.05,-281.42C2093.04,-274.54 2091.6,-264.79 2090.32,-256.1"/>
<polygon fill="midnightblue" stroke="midnightblue" points="2093.81,-255.8 2088.89,-246.41 2086.89,-256.82 2093.81,-255.8"/>
</g>
<!-- Node69&#45;&gt;Node67 -->
<g id="edge58" class="edge">
<title>Node69&#45;&gt;Node67</title>
<path fill="none" stroke="midnightblue" d="M2113.04,-281.42C2129.77,-272.94 2155.15,-260.07 2174.59,-250.21"/>
<polygon fill="midnightblue" stroke="midnightblue" points="2175.99,-253.42 2183.33,-245.78 2172.83,-247.18 2175.99,-253.42"/>
</g>
</g>
</svg>
