<?xml version="1.0" encoding="UTF-8" standalone="no"?>
<!DOCTYPE svg PUBLIC "-//W3C//DTD SVG 1.1//EN"
 "http://www.w3.org/Graphics/SVG/1.1/DTD/svg11.dtd">
<!-- Generated by graphviz version 2.30.1 (20130222.1704)
 -->
<!-- Title: QueueManager.hpp Pages: 1 -->
<svg width="884pt" height="146pt"
 viewBox="0.00 0.00 884.00 146.00" xmlns="http://www.w3.org/2000/svg" xmlns:xlink="http://www.w3.org/1999/xlink">
<g id="graph0" class="graph" transform="scale(1 1) rotate(0) translate(4 142)">
<title>QueueManager.hpp</title>
<polygon fill="white" stroke="white" points="-4,5 -4,-142 881,-142 881,5 -4,5"/>
<!-- Node1 -->
<g id="node1" class="node"><title>Node1</title>
<g id="a_node1"><a xlink:title=" ">
<polygon fill="#bfbfbf" stroke="black" points="519.796,-117 519.796,-137 624.204,-137 624.204,-117 519.796,-117"/>
<text text-anchor="middle" x="572" y="-123" font-family="Helvetica,sans-Serif" font-size="10.00">QueueManager.hpp</text>
</a>
</g>
</g>
<!-- Node2 -->
<g id="node2" class="node"><title>Node2</title>
<g id="a_node2"><a xlink:href="_a_p_i_server_instance_8hpp.html" target="_top" xlink:title=" ">
<polygon fill="white" stroke="black" points="116.582,-59 116.582,-79 235.418,-79 235.418,-59 116.582,-59"/>
<text text-anchor="middle" x="176" y="-65" font-family="Helvetica,sans-Serif" font-size="10.00">APIServerInstance.hpp</text>
</a>
</g>
</g>
<!-- Node1&#45;&gt;Node2 -->
<g id="edge1" class="edge"><title>Node1&#45;&gt;Node2</title>
<path fill="none" stroke="midnightblue" d="M509.154,-117.113C434.032,-106.489 309.255,-88.8442 235.599,-78.4282"/>
<polygon fill="midnightblue" stroke="midnightblue" points="509.023,-120.629 519.414,-118.564 510.003,-113.698 509.023,-120.629"/>
</g>
<!-- Node5 -->
<g id="node5" class="node"><title>Node5</title>
<g id="a_node5"><a xlink:href="_a_p_i_server_8hpp.html" target="_top" xlink:title=" ">
<polygon fill="white" stroke="black" points="468.756,-59 468.756,-79 549.244,-79 549.244,-59 468.756,-59"/>
<text text-anchor="middle" x="509" y="-65" font-family="Helvetica,sans-Serif" font-size="10.00">APIServer.hpp</text>
</a>
</g>
</g>
<!-- Node1&#45;&gt;Node5 -->
<g id="edge4" class="edge"><title>Node1&#45;&gt;Node5</title>
<path fill="none" stroke="midnightblue" d="M553.996,-109.997C542.718,-99.9719 528.594,-87.4171 519.21,-79.0752"/>
<polygon fill="midnightblue" stroke="midnightblue" points="551.797,-112.725 561.597,-116.753 556.448,-107.493 551.797,-112.725"/>
</g>
<!-- Node10 -->
<g id="node10" class="node"><title>Node10</title>
<g id="a_node10"><a xlink:href="_queue_manager_8cpp.html" target="_top" xlink:title=" ">
<polygon fill="white" stroke="black" points="642.077,-1 642.077,-21 745.923,-21 745.923,-1 642.077,-1"/>
<text text-anchor="middle" x="694" y="-7" font-family="Helvetica,sans-Serif" font-size="10.00">QueueManager.cpp</text>
</a>
</g>
</g>
<!-- Node1&#45;&gt;Node10 -->
<g id="edge12" class="edge"><title>Node1&#45;&gt;Node10</title>
<path fill="none" stroke="midnightblue" d="M589.614,-109.541C615.68,-85.1847 663.652,-40.3575 684.219,-21.1394"/>
<polygon fill="midnightblue" stroke="midnightblue" points="586.901,-107.286 581.984,-116.671 591.68,-112.401 586.901,-107.286"/>
</g>
<!-- Node11 -->
<g id="node11" class="node"><title>Node11</title>
<g id="a_node11"><a xlink:href="_a_p_i_server_thread_8cpp.html" target="_top" xlink:title=" ">
<polygon fill="white" stroke="black" points="763.921,-1 763.921,-21 876.079,-21 876.079,-1 763.921,-1"/>
<text text-anchor="middle" x="820" y="-7" font-family="Helvetica,sans-Serif" font-size="10.00">APIServerThread.cpp</text>
</a>
</g>
</g>
<!-- Node1&#45;&gt;Node11 -->
<g id="edge13" class="edge"><title>Node1&#45;&gt;Node11</title>
<path fill="none" stroke="midnightblue" d="M601.06,-112.642C652.176,-89.1448 756.875,-41.0173 800.374,-21.0217"/>
<polygon fill="midnightblue" stroke="midnightblue" points="599.5,-109.507 591.876,-116.864 602.424,-115.867 599.5,-109.507"/>
</g>
<!-- Node3 -->
<g id="node3" class="node"><title>Node3</title>
<g id="a_node3"><a xlink:href="_a_p_i_server_8cpp.html" target="_top" xlink:title=" ">
<polygon fill="white" stroke="black" points="136.037,-1 136.037,-21 215.963,-21 215.963,-1 136.037,-1"/>
<text text-anchor="middle" x="176" y="-7" font-family="Helvetica,sans-Serif" font-size="10.00">APIServer.cpp</text>
</a>
</g>
</g>
<!-- Node2&#45;&gt;Node3 -->
<g id="edge2" class="edge"><title>Node2&#45;&gt;Node3</title>
<path fill="none" stroke="midnightblue" d="M176,-48.7065C176,-39.3384 176,-28.5262 176,-21.0752"/>
<polygon fill="midnightblue" stroke="midnightblue" points="172.5,-48.7527 176,-58.7527 179.5,-48.7528 172.5,-48.7527"/>
</g>
<!-- Node4 -->
<g id="node4" class="node"><title>Node4</title>
<g id="a_node4"><a xlink:href="_a_p_i_server_instance_8cpp.html" target="_top" xlink:title=" ">
<polygon fill="white" stroke="black" points="-0.137695,-1 -0.137695,-21 118.138,-21 118.138,-1 -0.137695,-1"/>
<text text-anchor="middle" x="59" y="-7" font-family="Helvetica,sans-Serif" font-size="10.00">APIServerInstance.cpp</text>
</a>
</g>
</g>
<!-- Node2&#45;&gt;Node4 -->
<g id="edge3" class="edge"><title>Node2&#45;&gt;Node4</title>
<path fill="none" stroke="midnightblue" d="M147.907,-54.5538C126.289,-44.2069 96.9996,-30.1879 78.0503,-21.1181"/>
<polygon fill="midnightblue" stroke="midnightblue" points="146.41,-57.7177 156.942,-58.878 149.433,-51.4036 146.41,-57.7177"/>
</g>
<!-- Node6 -->
<g id="node6" class="node"><title>Node6</title>
<g id="a_node6"><a xlink:href="unix_2mac_2_a_p_i_service_8cpp.html" target="_top" xlink:title=" ">
<polygon fill="white" stroke="black" points="233.818,-1 233.818,-21 318.182,-21 318.182,-1 233.818,-1"/>
<text text-anchor="middle" x="276" y="-7" font-family="Helvetica,sans-Serif" font-size="10.00">APIService.cpp</text>
</a>
</g>
</g>
<!-- Node5&#45;&gt;Node6 -->
<g id="edge5" class="edge"><title>Node5&#45;&gt;Node6</title>
<path fill="none" stroke="midnightblue" d="M461.486,-56.5803C417.8,-46.0808 353.887,-30.7196 313.64,-21.0466"/>
<polygon fill="midnightblue" stroke="midnightblue" points="460.765,-60.0065 471.306,-58.9404 462.4,-53.2003 460.765,-60.0065"/>
</g>
<!-- Node7 -->
<g id="node7" class="node"><title>Node7</title>
<g id="a_node7"><a xlink:href="unix_2linux_2_a_p_i_service_8cpp.html" target="_top" xlink:title=" ">
<polygon fill="white" stroke="black" points="335.818,-1 335.818,-21 420.182,-21 420.182,-1 335.818,-1"/>
<text text-anchor="middle" x="378" y="-7" font-family="Helvetica,sans-Serif" font-size="10.00">APIService.cpp</text>
</a>
</g>
</g>
<!-- Node5&#45;&gt;Node7 -->
<g id="edge6" class="edge"><title>Node5&#45;&gt;Node7</title>
<path fill="none" stroke="midnightblue" d="M478.195,-54.8313C453.93,-44.4588 420.737,-30.2692 399.33,-21.1181"/>
<polygon fill="midnightblue" stroke="midnightblue" points="477.09,-58.1655 487.661,-58.878 479.842,-51.7289 477.09,-58.1655"/>
</g>
<!-- Node8 -->
<g id="node8" class="node"><title>Node8</title>
<g id="a_node8"><a xlink:href="unix_2aix_2_a_p_i_service_8cpp.html" target="_top" xlink:title=" ">
<polygon fill="white" stroke="black" points="437.818,-1 437.818,-21 522.182,-21 522.182,-1 437.818,-1"/>
<text text-anchor="middle" x="480" y="-7" font-family="Helvetica,sans-Serif" font-size="10.00">APIService.cpp</text>
</a>
</g>
</g>
<!-- Node5&#45;&gt;Node8 -->
<g id="edge7" class="edge"><title>Node5&#45;&gt;Node8</title>
<path fill="none" stroke="midnightblue" d="M499.481,-49.6182C494.524,-40.0471 488.684,-28.7692 484.7,-21.0752"/>
<polygon fill="midnightblue" stroke="midnightblue" points="496.505,-51.4823 504.211,-58.7527 502.721,-48.2633 496.505,-51.4823"/>
</g>
<!-- Node9 -->
<g id="node9" class="node"><title>Node9</title>
<g id="a_node9"><a xlink:href="windows_2_a_p_i_service_8cpp.html" target="_top" xlink:title=" ">
<polygon fill="white" stroke="black" points="539.818,-1 539.818,-21 624.182,-21 624.182,-1 539.818,-1"/>
<text text-anchor="middle" x="582" y="-7" font-family="Helvetica,sans-Serif" font-size="10.00">APIService.cpp</text>
</a>
</g>
</g>
<!-- Node5&#45;&gt;Node9 -->
<g id="edge8" class="edge"><title>Node5&#45;&gt;Node9</title>
<path fill="none" stroke="midnightblue" d="M529.104,-52.5778C542.292,-42.4611 559.084,-29.5791 570.17,-21.0752"/>
<polygon fill="midnightblue" stroke="midnightblue" points="526.858,-49.8891 521.054,-58.7527 531.119,-55.4431 526.858,-49.8891"/>
</g>
<!-- Node5&#45;&gt;Node10 -->
<g id="edge9" class="edge"><title>Node5&#45;&gt;Node10</title>
<path fill="none" stroke="midnightblue" d="M548.928,-55.9136C583.557,-45.4313 632.902,-30.4944 664.184,-21.0253"/>
<polygon fill="midnightblue" stroke="midnightblue" points="547.692,-52.6308 539.135,-58.878 549.72,-59.3306 547.692,-52.6308"/>
</g>
<!-- Node5&#45;&gt;Node3 -->
<g id="edge10" class="edge"><title>Node5&#45;&gt;Node3</title>
<path fill="none" stroke="midnightblue" d="M458.297,-60.4251C401.402,-51.7771 306.407,-36.8932 225,-22 222.096,-21.4688 219.099,-20.9022 216.086,-20.3192"/>
<polygon fill="midnightblue" stroke="midnightblue" points="458.053,-63.9281 468.465,-61.9659 459.102,-57.0071 458.053,-63.9281"/>
</g>
<!-- Node5&#45;&gt;Node11 -->
<g id="edge11" class="edge"><title>Node5&#45;&gt;Node11</title>
<path fill="none" stroke="midnightblue" d="M559.375,-58.9293C617.383,-48.4841 712.097,-31.4295 769.962,-21.01"/>
<polygon fill="midnightblue" stroke="midnightblue" points="558.56,-55.5196 549.339,-60.7364 559.801,-62.4088 558.56,-55.5196"/>
</g>
</g>
</svg>
