<?xml version="1.0" encoding="UTF-8" standalone="no"?>
<!DOCTYPE svg PUBLIC "-//W3C//DTD SVG 1.1//EN"
 "http://www.w3.org/Graphics/SVG/1.1/DTD/svg11.dtd">
<!-- Generated by graphviz version 2.30.1 (20130222.1704)
 -->
<!-- Title: QueueInstruction.hpp Pages: 1 -->
<svg width="389pt" height="88pt"
 viewBox="0.00 0.00 389.00 88.00" xmlns="http://www.w3.org/2000/svg" xmlns:xlink="http://www.w3.org/1999/xlink">
<g id="graph0" class="graph" transform="scale(1 1) rotate(0) translate(4 84)">
<title>QueueInstruction.hpp</title>
<polygon fill="white" stroke="white" points="-4,5 -4,-84 386,-84 386,5 -4,5"/>
<!-- Node1 -->
<g id="node1" class="node"><title>Node1</title>
<g id="a_node1"><a xlink:title=" ">
<polygon fill="#bfbfbf" stroke="black" points="127.19,-59 127.19,-79 238.81,-79 238.81,-59 127.19,-59"/>
<text text-anchor="middle" x="183" y="-65" font-family="Helvetica,sans-Serif" font-size="10.00">QueueInstruction.hpp</text>
</a>
</g>
</g>
<!-- Node2 -->
<g id="node2" class="node"><title>Node2</title>
<g id="a_node2"><a xlink:href="_queue_instruction_8cpp.html" target="_top" xlink:title=" ">
<polygon fill="white" stroke="black" points="-0.529297,-1 -0.529297,-21 110.529,-21 110.529,-1 -0.529297,-1"/>
<text text-anchor="middle" x="55" y="-7" font-family="Helvetica,sans-Serif" font-size="10.00">QueueInstruction.cpp</text>
</a>
</g>
</g>
<!-- Node1&#45;&gt;Node2 -->
<g id="edge1" class="edge"><title>Node1&#45;&gt;Node2</title>
<path fill="none" stroke="midnightblue" d="M152.9,-54.8313C129.192,-44.4588 96.7582,-30.2692 75.8414,-21.1181"/>
<polygon fill="midnightblue" stroke="midnightblue" points="151.585,-58.0763 162.15,-58.878 154.391,-51.6632 151.585,-58.0763"/>
</g>
<!-- Node3 -->
<g id="node3" class="node"><title>Node3</title>
<g id="a_node3"><a xlink:href="_instruction_parser_8cpp.html" target="_top" xlink:title=" ">
<polygon fill="white" stroke="black" points="128.03,-1 128.03,-21 237.97,-21 237.97,-1 128.03,-1"/>
<text text-anchor="middle" x="183" y="-7" font-family="Helvetica,sans-Serif" font-size="10.00">InstructionParser.cpp</text>
</a>
</g>
</g>
<!-- Node1&#45;&gt;Node3 -->
<g id="edge2" class="edge"><title>Node1&#45;&gt;Node3</title>
<path fill="none" stroke="midnightblue" d="M183,-48.7065C183,-39.3384 183,-28.5262 183,-21.0752"/>
<polygon fill="midnightblue" stroke="midnightblue" points="179.5,-48.7527 183,-58.7527 186.5,-48.7528 179.5,-48.7527"/>
</g>
<!-- Node4 -->
<g id="node4" class="node"><title>Node4</title>
<g id="a_node4"><a xlink:href="_virtual_function_table_8cpp.html" target="_top" xlink:title=" ">
<polygon fill="white" stroke="black" points="256.334,-1 256.334,-21 381.666,-21 381.666,-1 256.334,-1"/>
<text text-anchor="middle" x="319" y="-7" font-family="Helvetica,sans-Serif" font-size="10.00">VirtualFunctionTable.cpp</text>
</a>
</g>
</g>
<!-- Node1&#45;&gt;Node4 -->
<g id="edge3" class="edge"><title>Node1&#45;&gt;Node4</title>
<path fill="none" stroke="midnightblue" d="M214.646,-54.9693C239.865,-44.585 274.533,-30.3099 296.856,-21.1181"/>
<polygon fill="midnightblue" stroke="midnightblue" points="213.068,-51.8341 205.153,-58.878 215.733,-58.3068 213.068,-51.8341"/>
</g>
</g>
</svg>
