<?xml version="1.0" encoding="UTF-8" standalone="no"?>
<!DOCTYPE svg PUBLIC "-//W3C//DTD SVG 1.1//EN"
 "http://www.w3.org/Graphics/SVG/1.1/DTD/svg11.dtd">
<!-- Generated by graphviz version 12.1.0 (20240811.2233)
 -->
<!-- Title: RegistrationManager.cpp Pages: 1 -->
<!--zoomable 310 -->
<svg id="main" version="1.1" xmlns="http://www.w3.org/2000/svg" xmlns:xlink="http://www.w3.org/1999/xlink" xml:space="preserve" onload="init(evt)">
<style type="text/css"><![CDATA[
.edge:hover path { stroke: red; }
.edge:hover polygon { stroke: red; fill: red; }
]]></style>
<script type="text/javascript"><![CDATA[
var edges = document.getElementsByTagName('g');
if (edges && edges.length) {
  for (var i=0;i<edges.length;i++) {
    if (edges[i].id.substr(0,4)=='edge') {
      edges[i].setAttribute('class','edge');
    }
  }
}
]]></script>
        <defs>
                <circle id="rim" cx="0" cy="0" r="7"/>
                <circle id="rim2" cx="0" cy="0" r="3.5"/>
                <g id="zoomPlus">
                        <use xlink:href="#rim" fill="#404040">
                                <set attributeName="fill" to="#808080" begin="zoomplus.mouseover" end="zoomplus.mouseout"/>
                        </use>
                        <path d="M-4,0h8M0,-4v8" fill="none" stroke="white" stroke-width="1.5" pointer-events="none"/>
                </g>
                <g id="zoomMin">
                        <use xlink:href="#rim" fill="#404040">
                                <set attributeName="fill" to="#808080" begin="zoomminus.mouseover" end="zoomminus.mouseout"/>
                        </use>
                        <path d="M-4,0h8" fill="none" stroke="white" stroke-width="1.5" pointer-events="none"/>
                </g>
                <g id="dirArrow">
                        <path fill="none" stroke="white" stroke-width="1.5" d="M0,-3.0v7 M-2.5,-0.5L0,-3.0L2.5,-0.5"/>
                </g>
               <g id="resetDef">
                       <use xlink:href="#rim2" fill="#404040">
                               <set attributeName="fill" to="#808080" begin="reset.mouseover" end="reset.mouseout"/>
                       </use>
               </g>
        </defs>

<script type="text/javascript">
var viewWidth = 579;
var viewHeight = 310;
var sectionId = 'dynsection-0';
</script>
<script xlink:href="svgpan.js"/>
<svg id="graph" class="graph">
<g id="viewport">
<title>RegistrationManager.cpp</title>
<polygon fill="white" stroke="none" points="-4,4 -4,-305.5 574.88,-305.5 574.88,4 -4,4"/>
<!-- Node1 -->
<g id="node1" class="node">
<title>Node1</title>
<g id="a_node1"><a xlink:title=" ">
<polygon fill="#bfbfbf" stroke="black" points="225.25,-281.75 225.25,-301 349.25,-301 349.25,-281.75 225.25,-281.75"/>
<text text-anchor="middle" x="287.25" y="-287.5" font-family="Helvetica,sans-Serif" font-size="10.00">RegistrationManager.cpp</text>
</a>
</g>
</g>
<!-- Node2 -->
<g id="node2" class="node">
<title>Node2</title>
<g id="a_node2"><a xlink:href="_registration_manager_8hpp.html" target="_top" xlink:title=" ">
<polygon fill="white" stroke="black" points="135.25,-225.5 135.25,-244.75 259.25,-244.75 259.25,-225.5 135.25,-225.5"/>
<text text-anchor="middle" x="197.25" y="-231.25" font-family="Helvetica,sans-Serif" font-size="10.00">RegistrationManager.hpp</text>
</a>
</g>
</g>
<!-- Node1&#45;&gt;Node2 -->
<g id="edge1" class="edge">
<title>Node1&#45;&gt;Node2</title>
<path fill="none" stroke="midnightblue" d="M272.39,-281.42C258.58,-273.09 237.76,-260.54 221.54,-250.77"/>
<polygon fill="midnightblue" stroke="midnightblue" points="223.8,-248.04 213.43,-245.88 220.19,-254.04 223.8,-248.04"/>
</g>
<!-- Node10 -->
<g id="node10" class="node">
<title>Node10</title>
<g id="a_node10"><a xlink:href="_service_message_8hpp.html" target="_top" xlink:title=" ">
<polygon fill="white" stroke="black" points="232.5,-113 232.5,-132.25 340,-132.25 340,-113 232.5,-113"/>
<text text-anchor="middle" x="286.25" y="-118.75" font-family="Helvetica,sans-Serif" font-size="10.00">ServiceMessage.hpp</text>
</a>
</g>
</g>
<!-- Node1&#45;&gt;Node10 -->
<g id="edge19" class="edge">
<title>Node1&#45;&gt;Node10</title>
<path fill="none" stroke="midnightblue" d="M287.2,-281.41C287.04,-255.51 286.59,-180.12 286.37,-143.73"/>
<polygon fill="midnightblue" stroke="midnightblue" points="289.87,-144.13 286.31,-134.15 282.87,-144.17 289.87,-144.13"/>
</g>
<!-- Node11 -->
<g id="node11" class="node">
<title>Node11</title>
<g id="a_node11"><a xlink:href="_service_exception_8hpp.html" target="_top" xlink:title=" ">
<polygon fill="white" stroke="black" points="459.62,-56.75 459.62,-76 570.88,-76 570.88,-56.75 459.62,-56.75"/>
<text text-anchor="middle" x="515.25" y="-62.5" font-family="Helvetica,sans-Serif" font-size="10.00">ServiceException.hpp</text>
</a>
</g>
</g>
<!-- Node1&#45;&gt;Node11 -->
<g id="edge20" class="edge">
<title>Node1&#45;&gt;Node11</title>
<path fill="none" stroke="midnightblue" d="M296.47,-281.36C330.99,-247.59 452.94,-128.32 498.19,-84.06"/>
<polygon fill="midnightblue" stroke="midnightblue" points="500.38,-86.81 505.08,-77.32 495.49,-81.81 500.38,-86.81"/>
</g>
<!-- Node3 -->
<g id="node3" class="node">
<title>Node3</title>
<g id="a_node3"><a xlink:title=" ">
<polygon fill="white" stroke="#bfbfbf" points="23.5,-169.25 23.5,-188.5 125,-188.5 125,-169.25 23.5,-169.25"/>
<text text-anchor="middle" x="74.25" y="-175" font-family="Helvetica,sans-Serif" font-size="10.00">SysSemaphore.hpp</text>
</a>
</g>
</g>
<!-- Node2&#45;&gt;Node3 -->
<g id="edge2" class="edge">
<title>Node2&#45;&gt;Node3</title>
<path fill="none" stroke="midnightblue" d="M176.66,-225.04C157.15,-216.44 127.58,-203.4 105.23,-193.54"/>
<polygon fill="midnightblue" stroke="midnightblue" points="106.85,-190.43 96.29,-189.6 104.03,-196.83 106.85,-190.43"/>
</g>
<!-- Node4 -->
<g id="node4" class="node">
<title>Node4</title>
<g id="a_node4"><a xlink:href="_registration_table_8hpp.html" target="_top" xlink:title=" ">
<polygon fill="white" stroke="black" points="143,-169.25 143,-188.5 253.5,-188.5 253.5,-169.25 143,-169.25"/>
<text text-anchor="middle" x="198.25" y="-175" font-family="Helvetica,sans-Serif" font-size="10.00">RegistrationTable.hpp</text>
</a>
</g>
</g>
<!-- Node2&#45;&gt;Node4 -->
<g id="edge3" class="edge">
<title>Node2&#45;&gt;Node4</title>
<path fill="none" stroke="midnightblue" d="M197.42,-225.17C197.54,-218.37 197.72,-208.76 197.88,-200.15"/>
<polygon fill="midnightblue" stroke="midnightblue" points="201.38,-200.24 198.06,-190.18 194.38,-200.11 201.38,-200.24"/>
</g>
<!-- Node5 -->
<g id="node5" class="node">
<title>Node5</title>
<g id="a_node5"><a xlink:href="rexx_8h.html" target="_top" xlink:title=" ">
<polygon fill="white" stroke="black" points="176.75,-56.75 176.75,-76 219.75,-76 219.75,-56.75 176.75,-56.75"/>
<text text-anchor="middle" x="198.25" y="-62.5" font-family="Helvetica,sans-Serif" font-size="10.00">rexx.h</text>
</a>
</g>
</g>
<!-- Node4&#45;&gt;Node5 -->
<g id="edge4" class="edge">
<title>Node4&#45;&gt;Node5</title>
<path fill="none" stroke="midnightblue" d="M198.25,-168.83C198.25,-151.18 198.25,-111.75 198.25,-87.58"/>
<polygon fill="midnightblue" stroke="midnightblue" points="201.75,-87.75 198.25,-77.75 194.75,-87.75 201.75,-87.75"/>
</g>
<!-- Node4&#45;&gt;Node10 -->
<g id="edge9" class="edge">
<title>Node4&#45;&gt;Node10</title>
<path fill="none" stroke="midnightblue" d="M212.78,-168.92C226.16,-160.67 246.26,-148.28 262.05,-138.54"/>
<polygon fill="midnightblue" stroke="midnightblue" points="263.73,-141.62 270.41,-133.39 260.06,-135.66 263.73,-141.62"/>
</g>
<!-- Node15 -->
<g id="node15" class="node">
<title>Node15</title>
<g id="a_node15"><a xlink:href="_utilities_8hpp.html" target="_top" xlink:title=" ">
<polygon fill="white" stroke="black" points="101.38,-113 101.38,-132.25 169.12,-132.25 169.12,-113 101.38,-113"/>
<text text-anchor="middle" x="135.25" y="-118.75" font-family="Helvetica,sans-Serif" font-size="10.00">Utilities.hpp</text>
</a>
</g>
</g>
<!-- Node4&#45;&gt;Node15 -->
<g id="edge15" class="edge">
<title>Node4&#45;&gt;Node15</title>
<path fill="none" stroke="midnightblue" d="M187.85,-168.92C178.67,-161.02 165.08,-149.31 154.01,-139.78"/>
<polygon fill="midnightblue" stroke="midnightblue" points="156.47,-137.28 146.61,-133.4 151.9,-142.58 156.47,-137.28"/>
</g>
<!-- Node6 -->
<g id="node6" class="node">
<title>Node6</title>
<g id="a_node6"><a xlink:title=" ">
<polygon fill="white" stroke="#bfbfbf" points="322.38,-0.5 322.38,-19.75 402.12,-19.75 402.12,-0.5 322.38,-0.5"/>
<text text-anchor="middle" x="362.25" y="-6.25" font-family="Helvetica,sans-Serif" font-size="10.00">rexxapitypes.h</text>
</a>
</g>
</g>
<!-- Node5&#45;&gt;Node6 -->
<g id="edge5" class="edge">
<title>Node5&#45;&gt;Node6</title>
<path fill="none" stroke="midnightblue" d="M220.03,-58.17C246.53,-49.4 291.73,-34.45 324.06,-23.76"/>
<polygon fill="midnightblue" stroke="midnightblue" points="325.08,-27.11 333.48,-20.64 322.88,-20.46 325.08,-27.11"/>
</g>
<!-- Node7 -->
<g id="node7" class="node">
<title>Node7</title>
<g id="a_node7"><a xlink:href="rexxapidefs_8h.html" target="_top" xlink:title=" ">
<polygon fill="white" stroke="black" points="0,-0.5 0,-19.75 74.5,-19.75 74.5,-0.5 0,-0.5"/>
<text text-anchor="middle" x="37.25" y="-6.25" font-family="Helvetica,sans-Serif" font-size="10.00">rexxapidefs.h</text>
</a>
</g>
</g>
<!-- Node5&#45;&gt;Node7 -->
<g id="edge6" class="edge">
<title>Node5&#45;&gt;Node7</title>
<path fill="none" stroke="midnightblue" d="M176.54,-58.06C150.51,-49.29 106.45,-34.44 74.85,-23.8"/>
<polygon fill="midnightblue" stroke="midnightblue" points="76.27,-20.58 65.68,-20.7 74.04,-27.21 76.27,-20.58"/>
</g>
<!-- Node8 -->
<g id="node8" class="node">
<title>Node8</title>
<g id="a_node8"><a xlink:title=" ">
<polygon fill="white" stroke="#bfbfbf" points="92.75,-0.5 92.75,-19.75 189.75,-19.75 189.75,-0.5 92.75,-0.5"/>
<text text-anchor="middle" x="141.25" y="-6.25" font-family="Helvetica,sans-Serif" font-size="10.00">rexxplatformdefs.h</text>
</a>
</g>
</g>
<!-- Node5&#45;&gt;Node8 -->
<g id="edge7" class="edge">
<title>Node5&#45;&gt;Node8</title>
<path fill="none" stroke="midnightblue" d="M188.84,-56.42C180.62,-48.6 168.48,-37.05 158.53,-27.57"/>
<polygon fill="midnightblue" stroke="midnightblue" points="161.24,-25.32 151.58,-20.96 156.41,-30.39 161.24,-25.32"/>
</g>
<!-- Node9 -->
<g id="node9" class="node">
<title>Node9</title>
<g id="a_node9"><a xlink:title=" ">
<polygon fill="white" stroke="#bfbfbf" points="208.12,-0.5 208.12,-19.75 304.38,-19.75 304.38,-0.5 208.12,-0.5"/>
<text text-anchor="middle" x="256.25" y="-6.25" font-family="Helvetica,sans-Serif" font-size="10.00">rexxplatformapis.h</text>
</a>
</g>
</g>
<!-- Node5&#45;&gt;Node9 -->
<g id="edge8" class="edge">
<title>Node5&#45;&gt;Node9</title>
<path fill="none" stroke="midnightblue" d="M207.83,-56.42C216.19,-48.6 228.54,-37.05 238.67,-27.57"/>
<polygon fill="midnightblue" stroke="midnightblue" points="240.83,-30.34 245.75,-20.95 236.05,-25.23 240.83,-30.34"/>
</g>
<!-- Node10&#45;&gt;Node5 -->
<g id="edge10" class="edge">
<title>Node10&#45;&gt;Node5</title>
<path fill="none" stroke="midnightblue" d="M271.72,-112.67C258.34,-104.42 238.24,-92.03 222.45,-82.29"/>
<polygon fill="midnightblue" stroke="midnightblue" points="224.44,-79.41 214.09,-77.14 220.77,-85.37 224.44,-79.41"/>
</g>
<!-- Node10&#45;&gt;Node11 -->
<g id="edge11" class="edge">
<title>Node10&#45;&gt;Node11</title>
<path fill="none" stroke="midnightblue" d="M324.58,-112.54C363.3,-103.37 423.29,-89.16 465.63,-79.13"/>
<polygon fill="midnightblue" stroke="midnightblue" points="466.4,-82.54 475.32,-76.83 464.79,-75.73 466.4,-82.54"/>
</g>
<!-- Node13 -->
<g id="node13" class="node">
<title>Node13</title>
<g id="a_node13"><a xlink:title=" ">
<polygon fill="white" stroke="#bfbfbf" points="237.38,-56.75 237.38,-76 335.12,-76 335.12,-56.75 237.38,-56.75"/>
<text text-anchor="middle" x="286.25" y="-62.5" font-family="Helvetica,sans-Serif" font-size="10.00">SysCSStream.hpp</text>
</a>
</g>
</g>
<!-- Node10&#45;&gt;Node13 -->
<g id="edge13" class="edge">
<title>Node10&#45;&gt;Node13</title>
<path fill="none" stroke="midnightblue" d="M286.25,-112.67C286.25,-105.87 286.25,-96.26 286.25,-87.65"/>
<polygon fill="midnightblue" stroke="midnightblue" points="289.75,-87.68 286.25,-77.68 282.75,-87.68 289.75,-87.68"/>
</g>
<!-- Node14 -->
<g id="node14" class="node">
<title>Node14</title>
<g id="a_node14"><a xlink:title=" ">
<polygon fill="white" stroke="#bfbfbf" points="353.25,-56.75 353.25,-76 441.25,-76 441.25,-56.75 353.25,-56.75"/>
<text text-anchor="middle" x="397.25" y="-62.5" font-family="Helvetica,sans-Serif" font-size="10.00">SysProcess.hpp</text>
</a>
</g>
</g>
<!-- Node10&#45;&gt;Node14 -->
<g id="edge14" class="edge">
<title>Node10&#45;&gt;Node14</title>
<path fill="none" stroke="midnightblue" d="M304.83,-112.54C322.2,-104.06 348.39,-91.25 368.47,-81.44"/>
<polygon fill="midnightblue" stroke="midnightblue" points="369.8,-84.69 377.25,-77.15 366.73,-78.4 369.8,-84.69"/>
</g>
<!-- Node12 -->
<g id="node12" class="node">
<title>Node12</title>
<g id="a_node12"><a xlink:title=" ">
<polygon fill="white" stroke="#bfbfbf" points="491.12,-0.5 491.12,-19.75 539.38,-19.75 539.38,-0.5 491.12,-0.5"/>
<text text-anchor="middle" x="515.25" y="-6.25" font-family="Helvetica,sans-Serif" font-size="10.00">string.h</text>
</a>
</g>
</g>
<!-- Node11&#45;&gt;Node12 -->
<g id="edge12" class="edge">
<title>Node11&#45;&gt;Node12</title>
<path fill="none" stroke="midnightblue" d="M515.25,-56.42C515.25,-49.62 515.25,-40.01 515.25,-31.4"/>
<polygon fill="midnightblue" stroke="midnightblue" points="518.75,-31.43 515.25,-21.43 511.75,-31.43 518.75,-31.43"/>
</g>
<!-- Node15&#45;&gt;Node5 -->
<g id="edge16" class="edge">
<title>Node15&#45;&gt;Node5</title>
<path fill="none" stroke="midnightblue" d="M145.65,-112.67C154.83,-104.77 168.42,-93.06 179.49,-83.53"/>
<polygon fill="midnightblue" stroke="midnightblue" points="181.6,-86.33 186.89,-77.15 177.03,-81.03 181.6,-86.33"/>
</g>
<!-- Node16 -->
<g id="node16" class="node">
<title>Node16</title>
<g id="a_node16"><a xlink:title=" ">
<polygon fill="white" stroke="#bfbfbf" points="22.75,-56.75 22.75,-76 89.75,-76 89.75,-56.75 22.75,-56.75"/>
<text text-anchor="middle" x="56.25" y="-62.5" font-family="Helvetica,sans-Serif" font-size="10.00">sys/types.h</text>
</a>
</g>
</g>
<!-- Node15&#45;&gt;Node16 -->
<g id="edge17" class="edge">
<title>Node15&#45;&gt;Node16</title>
<path fill="none" stroke="midnightblue" d="M122.2,-112.67C110.43,-104.58 92.84,-92.5 78.79,-82.85"/>
<polygon fill="midnightblue" stroke="midnightblue" points="80.79,-79.98 70.56,-77.2 76.82,-85.75 80.79,-79.98"/>
</g>
<!-- Node17 -->
<g id="node17" class="node">
<title>Node17</title>
<g id="a_node17"><a xlink:title=" ">
<polygon fill="white" stroke="#bfbfbf" points="107.62,-56.75 107.62,-76 158.88,-76 158.88,-56.75 107.62,-56.75"/>
<text text-anchor="middle" x="133.25" y="-62.5" font-family="Helvetica,sans-Serif" font-size="10.00">stdarg.h</text>
</a>
</g>
</g>
<!-- Node15&#45;&gt;Node17 -->
<g id="edge18" class="edge">
<title>Node15&#45;&gt;Node17</title>
<path fill="none" stroke="midnightblue" d="M134.92,-112.67C134.67,-105.87 134.32,-96.26 134,-87.65"/>
<polygon fill="midnightblue" stroke="midnightblue" points="137.5,-87.54 133.63,-77.68 130.5,-87.8 137.5,-87.54"/>
</g>
</g>
</svg>
        <g id="navigator" transform="translate(0 0)" fill="#404254">
                <rect fill="#f2f5e9" fill-opacity="0.5" stroke="#606060" stroke-width=".5" x="0" y="0" width="60" height="60"/>
                <use id="zoomplus" xlink:href="#zoomPlus" x="17" y="9" onmousedown="handleZoom(evt,'in')"/>
                <use id="zoomminus" xlink:href="#zoomMin" x="42" y="9" onmousedown="handleZoom(evt,'out')"/>
                <use id="reset" xlink:href="#resetDef" x="30" y="36" onmousedown="handleReset()"/>
                <g id="arrowUp" xlink:href="#dirArrow" transform="translate(30 24)" onmousedown="handlePan(0,-1)">
                  <use xlink:href="#rim" fill="#404040">
                        <set attributeName="fill" to="#808080" begin="arrowUp.mouseover" end="arrowUp.mouseout"/>
                  </use>
                  <path fill="none" stroke="white" stroke-width="1.5" d="M0,-3.0v7 M-2.5,-0.5L0,-3.0L2.5,-0.5"/>
                </g>
                <g id="arrowRight" xlink:href="#dirArrow" transform="rotate(90) translate(36 -43)" onmousedown="handlePan(1,0)">
                  <use xlink:href="#rim" fill="#404040">
                        <set attributeName="fill" to="#808080" begin="arrowRight.mouseover" end="arrowRight.mouseout"/>
                  </use>
                  <path fill="none" stroke="white" stroke-width="1.5" d="M0,-3.0v7 M-2.5,-0.5L0,-3.0L2.5,-0.5"/>
                </g>
                <g id="arrowDown" xlink:href="#dirArrow" transform="rotate(180) translate(-30 -48)" onmousedown="handlePan(0,1)">
                  <use xlink:href="#rim" fill="#404040">
                        <set attributeName="fill" to="#808080" begin="arrowDown.mouseover" end="arrowDown.mouseout"/>
                  </use>
                  <path fill="none" stroke="white" stroke-width="1.5" d="M0,-3.0v7 M-2.5,-0.5L0,-3.0L2.5,-0.5"/>
                </g>
                <g id="arrowLeft" xlink:href="#dirArrow" transform="rotate(270) translate(-36 17)" onmousedown="handlePan(-1,0)">
                  <use xlink:href="#rim" fill="#404040">
                        <set attributeName="fill" to="#808080" begin="arrowLeft.mouseover" end="arrowLeft.mouseout"/>
                  </use>
                  <path fill="none" stroke="white" stroke-width="1.5" d="M0,-3.0v7 M-2.5,-0.5L0,-3.0L2.5,-0.5"/>
                </g>
        </g>
        <svg viewBox="0 0 15 15" width="100%" height="30px" preserveAspectRatio="xMaxYMin meet">
         <g id="arrow_out" transform="scale(0.3 0.3)">
          <a xlink:href="_registration_manager_8cpp__incl_org.svg" target="_base">
           <rect id="button" ry="5" rx="5" y="6" x="6" height="38" width="38"
                fill="#f2f5e9" fill-opacity="0.5" stroke="#606060" stroke-width="1.0"/>
           <path id="arrow"
             d="M 11.500037,31.436501 C 11.940474,20.09759 22.043105,11.32322 32.158766,21.979434 L 37.068811,17.246167 C 37.068811,17.246167 37.088388,32 37.088388,32 L 22.160133,31.978069 C 22.160133,31.978069 26.997745,27.140456 26.997745,27.140456 C 18.528582,18.264221 13.291696,25.230495 11.500037,31.436501 z"
             style="fill:#404040;"/>
          </a>
         </g>
        </svg>
</svg>
