<?xml version="1.0" encoding="UTF-8" standalone="no"?>
<!DOCTYPE svg PUBLIC "-//W3C//DTD SVG 1.1//EN"
 "http://www.w3.org/Graphics/SVG/1.1/DTD/svg11.dtd">
<!-- Generated by graphviz version 2.30.1 (20130222.1704)
 -->
<!-- Title: RegistrationManager.cpp Pages: 1 -->
<!--zoomable 320 -->
<svg id="main" version="1.1" xmlns="http://www.w3.org/2000/svg" xmlns:xlink="http://www.w3.org/1999/xlink" xml:space="preserve" onload="init(evt)">
<style type="text/css"><![CDATA[
.edge:hover path { stroke: red; }
.edge:hover polygon { stroke: red; fill: red; }
]]></style>
<script type="text/javascript"><![CDATA[
var edges = document.getElementsByTagName('g');
if (edges && edges.length) {
  for (var i=0;i<edges.length;i++) {
    if (edges[i].id.substr(0,4)=='edge') {
      edges[i].setAttribute('class','edge');
    }
  }
}
]]></script>
        <defs>
                <circle id="rim" cx="0" cy="0" r="7"/>
                <circle id="rim2" cx="0" cy="0" r="3.5"/>
                <g id="zoomPlus">
                        <use xlink:href="#rim" fill="#404040">
                                <set attributeName="fill" to="#808080" begin="zoomplus.mouseover" end="zoomplus.mouseout"/>
                        </use>
                        <path d="M-4,0h8M0,-4v8" fill="none" stroke="white" stroke-width="1.5" pointer-events="none"/>
                </g>
                <g id="zoomMin">
                        <use xlink:href="#rim" fill="#404040">
                                <set attributeName="fill" to="#808080" begin="zoomminus.mouseover" end="zoomminus.mouseout"/>
                        </use>
                        <path d="M-4,0h8" fill="none" stroke="white" stroke-width="1.5" pointer-events="none"/>
                </g>
                <g id="dirArrow">
                        <path fill="none" stroke="white" stroke-width="1.5" d="M0,-3.0v7 M-2.5,-0.5L0,-3.0L2.5,-0.5"/>
                </g>
               <g id="resetDef">
                       <use xlink:href="#rim2" fill="#404040">
                               <set attributeName="fill" to="#808080" begin="reset.mouseover" end="reset.mouseout"/>
                       </use>
               </g>
        </defs>

<script type="text/javascript">
var viewWidth = 583;
var viewHeight = 320;
var sectionId = 'dynsection-0';
</script>
<script xlink:href="svgpan.js"/>
<svg id="graph" class="graph">
<g id="viewport">
<title>RegistrationManager.cpp</title>
<polygon fill="white" stroke="white" points="-4,5 -4,-316 580,-316 580,5 -4,5"/>
<!-- Node1 -->
<g id="node1" class="node"><title>Node1</title>
<g id="a_node1"><a xlink:title=" ">
<polygon fill="#bfbfbf" stroke="black" points="227.409,-291 227.409,-311 354.591,-311 354.591,-291 227.409,-291"/>
<text text-anchor="middle" x="291" y="-297" font-family="Helvetica,sans-Serif" font-size="10.00">RegistrationManager.cpp</text>
</a>
</g>
</g>
<!-- Node2 -->
<g id="node2" class="node"><title>Node2</title>
<g id="a_node2"><a xlink:href="_registration_manager_8hpp.html" target="_top" xlink:title=" ">
<polygon fill="white" stroke="black" points="135.128,-233 135.128,-253 262.872,-253 262.872,-233 135.128,-233"/>
<text text-anchor="middle" x="199" y="-239" font-family="Helvetica,sans-Serif" font-size="10.00">RegistrationManager.hpp</text>
</a>
</g>
</g>
<!-- Node1&#45;&gt;Node2 -->
<g id="edge1" class="edge"><title>Node1&#45;&gt;Node2</title>
<path fill="none" stroke="midnightblue" d="M275.808,-290.753C261.339,-281.946 239.345,-268.558 222.594,-258.362"/>
<polygon fill="midnightblue" stroke="midnightblue" points="224.271,-255.285 213.909,-253.075 220.631,-261.264 224.271,-255.285"/>
</g>
<!-- Node10 -->
<g id="node10" class="node"><title>Node10</title>
<g id="a_node10"><a xlink:href="_service_message_8hpp.html" target="_top" xlink:title=" ">
<polygon fill="white" stroke="black" points="235.308,-117 235.308,-137 344.692,-137 344.692,-117 235.308,-117"/>
<text text-anchor="middle" x="290" y="-123" font-family="Helvetica,sans-Serif" font-size="10.00">ServiceMessage.hpp</text>
</a>
</g>
</g>
<!-- Node1&#45;&gt;Node10 -->
<g id="edge19" class="edge"><title>Node1&#45;&gt;Node10</title>
<path fill="none" stroke="midnightblue" d="M290.946,-290.753C290.79,-263.804 290.331,-184.908 290.115,-147.766"/>
<polygon fill="midnightblue" stroke="midnightblue" points="293.612,-147.273 290.054,-137.293 286.612,-147.313 293.612,-147.273"/>
</g>
<!-- Node11 -->
<g id="node11" class="node"><title>Node11</title>
<g id="a_node11"><a xlink:href="_service_exception_8hpp.html" target="_top" xlink:title=" ">
<polygon fill="white" stroke="black" points="461.638,-59 461.638,-79 574.362,-79 574.362,-59 461.638,-59"/>
<text text-anchor="middle" x="518" y="-65" font-family="Helvetica,sans-Serif" font-size="10.00">ServiceException.hpp</text>
</a>
</g>
</g>
<!-- Node1&#45;&gt;Node11 -->
<g id="edge20" class="edge"><title>Node1&#45;&gt;Node11</title>
<path fill="none" stroke="midnightblue" d="M299.899,-290.984C334.078,-256.353 457.237,-131.566 501.779,-86.4349"/>
<polygon fill="midnightblue" stroke="midnightblue" points="504.383,-88.7798 508.916,-79.2039 499.401,-83.8627 504.383,-88.7798"/>
</g>
<!-- Node3 -->
<g id="node3" class="node"><title>Node3</title>
<g id="a_node3"><a xlink:title=" ">
<polygon fill="white" stroke="#bfbfbf" points="22.084,-175 22.084,-195 125.916,-195 125.916,-175 22.084,-175"/>
<text text-anchor="middle" x="74" y="-181" font-family="Helvetica,sans-Serif" font-size="10.00">SysSemaphore.hpp</text>
</a>
</g>
</g>
<!-- Node2&#45;&gt;Node3 -->
<g id="edge2" class="edge"><title>Node2&#45;&gt;Node3</title>
<path fill="none" stroke="midnightblue" d="M178.638,-232.878C158.299,-223.766 126.816,-209.662 103.694,-199.303"/>
<polygon fill="midnightblue" stroke="midnightblue" points="104.91,-196.013 94.3529,-195.118 102.048,-202.401 104.91,-196.013"/>
</g>
<!-- Node4 -->
<g id="node4" class="node"><title>Node4</title>
<g id="a_node4"><a xlink:href="_registration_table_8hpp.html" target="_top" xlink:title=" ">
<polygon fill="white" stroke="black" points="143.636,-175 143.636,-195 256.364,-195 256.364,-175 143.636,-175"/>
<text text-anchor="middle" x="200" y="-181" font-family="Helvetica,sans-Serif" font-size="10.00">RegistrationTable.hpp</text>
</a>
</g>
</g>
<!-- Node2&#45;&gt;Node4 -->
<g id="edge3" class="edge"><title>Node2&#45;&gt;Node4</title>
<path fill="none" stroke="midnightblue" d="M199.165,-232.753C199.299,-225.25 199.492,-214.424 199.659,-205.078"/>
<polygon fill="midnightblue" stroke="midnightblue" points="203.159,-205.136 199.838,-195.075 196.16,-205.011 203.159,-205.136"/>
</g>
<!-- Node5 -->
<g id="node5" class="node"><title>Node5</title>
<g id="a_node5"><a xlink:href="rexx_8h.html" target="_top" xlink:title=" ">
<polygon fill="white" stroke="black" points="178.384,-59 178.384,-79 221.616,-79 221.616,-59 178.384,-59"/>
<text text-anchor="middle" x="200" y="-65" font-family="Helvetica,sans-Serif" font-size="10.00">rexx.h</text>
</a>
</g>
</g>
<!-- Node4&#45;&gt;Node5 -->
<g id="edge4" class="edge"><title>Node4&#45;&gt;Node5</title>
<path fill="none" stroke="midnightblue" d="M200,-174.671C200,-156.041 200,-113.898 200,-89.1428"/>
<polygon fill="midnightblue" stroke="midnightblue" points="203.5,-89.1394 200,-79.1394 196.5,-89.1394 203.5,-89.1394"/>
</g>
<!-- Node4&#45;&gt;Node10 -->
<g id="edge9" class="edge"><title>Node4&#45;&gt;Node10</title>
<path fill="none" stroke="midnightblue" d="M214.862,-174.753C229.016,-165.946 250.533,-152.558 266.919,-142.362"/>
<polygon fill="midnightblue" stroke="midnightblue" points="268.773,-145.33 275.415,-137.075 265.075,-139.387 268.773,-145.33"/>
</g>
<!-- Node15 -->
<g id="node15" class="node"><title>Node15</title>
<g id="a_node15"><a xlink:href="_utilities_8hpp.html" target="_top" xlink:title=" ">
<polygon fill="white" stroke="black" points="102.155,-117 102.155,-137 169.845,-137 169.845,-117 102.155,-117"/>
<text text-anchor="middle" x="136" y="-123" font-family="Helvetica,sans-Serif" font-size="10.00">Utilities.hpp</text>
</a>
</g>
</g>
<!-- Node4&#45;&gt;Node15 -->
<g id="edge15" class="edge"><title>Node4&#45;&gt;Node15</title>
<path fill="none" stroke="midnightblue" d="M189.432,-174.753C179.832,-166.353 165.471,-153.787 154.054,-143.798"/>
<polygon fill="midnightblue" stroke="midnightblue" points="156.202,-141.026 146.372,-137.075 151.593,-146.294 156.202,-141.026"/>
</g>
<!-- Node6 -->
<g id="node6" class="node"><title>Node6</title>
<g id="a_node6"><a xlink:title=" ">
<polygon fill="white" stroke="#bfbfbf" points="324.761,-1 324.761,-21 405.239,-21 405.239,-1 324.761,-1"/>
<text text-anchor="middle" x="365" y="-7" font-family="Helvetica,sans-Serif" font-size="10.00">rexxapitypes.h</text>
</a>
</g>
</g>
<!-- Node5&#45;&gt;Node6 -->
<g id="edge5" class="edge"><title>Node5&#45;&gt;Node6</title>
<path fill="none" stroke="midnightblue" d="M221.911,-60.5636C249.16,-51.3154 296.064,-35.3966 328.713,-24.3156"/>
<polygon fill="midnightblue" stroke="midnightblue" points="330.006,-27.573 338.35,-21.0448 327.756,-20.9444 330.006,-27.573"/>
</g>
<!-- Node7 -->
<g id="node7" class="node"><title>Node7</title>
<g id="a_node7"><a xlink:href="rexxapidefs_8h.html" target="_top" xlink:title=" ">
<polygon fill="white" stroke="black" points="-0.73877,-1 -0.73877,-21 74.7388,-21 74.7388,-1 -0.73877,-1"/>
<text text-anchor="middle" x="37" y="-7" font-family="Helvetica,sans-Serif" font-size="10.00">rexxapidefs.h</text>
</a>
</g>
</g>
<!-- Node5&#45;&gt;Node7 -->
<g id="edge6" class="edge"><title>Node5&#45;&gt;Node7</title>
<path fill="none" stroke="midnightblue" d="M178.355,-60.5636C151.436,-51.3154 105.101,-35.3966 72.8472,-24.3156"/>
<polygon fill="midnightblue" stroke="midnightblue" points="73.9214,-20.9839 63.3267,-21.0448 71.6469,-27.6041 73.9214,-20.9839"/>
</g>
<!-- Node8 -->
<g id="node8" class="node"><title>Node8</title>
<g id="a_node8"><a xlink:title=" ">
<polygon fill="white" stroke="#bfbfbf" points="92.8721,-1 92.8721,-21 191.128,-21 191.128,-1 92.8721,-1"/>
<text text-anchor="middle" x="142" y="-7" font-family="Helvetica,sans-Serif" font-size="10.00">rexxplatformdefs.h</text>
</a>
</g>
</g>
<!-- Node5&#45;&gt;Node8 -->
<g id="edge7" class="edge"><title>Node5&#45;&gt;Node8</title>
<path fill="none" stroke="midnightblue" d="M190.422,-58.7527C181.808,-50.4349 168.961,-38.031 158.664,-28.0893"/>
<polygon fill="midnightblue" stroke="midnightblue" points="161.024,-25.5033 151.399,-21.0752 156.162,-30.5391 161.024,-25.5033"/>
</g>
<!-- Node9 -->
<g id="node9" class="node"><title>Node9</title>
<g id="a_node9"><a xlink:title=" ">
<polygon fill="white" stroke="#bfbfbf" points="209.15,-1 209.15,-21 306.85,-21 306.85,-1 209.15,-1"/>
<text text-anchor="middle" x="258" y="-7" font-family="Helvetica,sans-Serif" font-size="10.00">rexxplatformapis.h</text>
</a>
</g>
</g>
<!-- Node5&#45;&gt;Node9 -->
<g id="edge8" class="edge"><title>Node5&#45;&gt;Node9</title>
<path fill="none" stroke="midnightblue" d="M209.578,-58.7527C218.192,-50.4349 231.039,-38.031 241.336,-28.0893"/>
<polygon fill="midnightblue" stroke="midnightblue" points="243.838,-30.5391 248.601,-21.0752 238.976,-25.5033 243.838,-30.5391"/>
</g>
<!-- Node10&#45;&gt;Node5 -->
<g id="edge10" class="edge"><title>Node10&#45;&gt;Node5</title>
<path fill="none" stroke="midnightblue" d="M275.138,-116.753C260.984,-107.946 239.467,-94.5575 223.081,-84.3617"/>
<polygon fill="midnightblue" stroke="midnightblue" points="224.925,-81.3866 214.585,-79.0752 221.227,-87.33 224.925,-81.3866"/>
</g>
<!-- Node10&#45;&gt;Node11 -->
<g id="edge11" class="edge"><title>Node10&#45;&gt;Node11</title>
<path fill="none" stroke="midnightblue" d="M326.886,-116.94C366.206,-107.283 428.569,-91.9654 471.293,-81.4719"/>
<polygon fill="midnightblue" stroke="midnightblue" points="472.291,-84.8309 481.167,-79.0466 470.621,-78.0329 472.291,-84.8309"/>
</g>
<!-- Node13 -->
<g id="node13" class="node"><title>Node13</title>
<g id="a_node13"><a xlink:title=" ">
<polygon fill="white" stroke="#bfbfbf" points="239.872,-59 239.872,-79 338.128,-79 338.128,-59 239.872,-59"/>
<text text-anchor="middle" x="289" y="-65" font-family="Helvetica,sans-Serif" font-size="10.00">SysCSStream.hpp</text>
</a>
</g>
</g>
<!-- Node10&#45;&gt;Node13 -->
<g id="edge13" class="edge"><title>Node10&#45;&gt;Node13</title>
<path fill="none" stroke="midnightblue" d="M289.835,-116.753C289.701,-109.25 289.508,-98.4238 289.341,-89.0781"/>
<polygon fill="midnightblue" stroke="midnightblue" points="292.84,-89.0111 289.162,-79.0752 285.841,-89.1361 292.84,-89.0111"/>
</g>
<!-- Node14 -->
<g id="node14" class="node"><title>Node14</title>
<g id="a_node14"><a xlink:title=" ">
<polygon fill="white" stroke="#bfbfbf" points="355.872,-59 355.872,-79 444.128,-79 444.128,-59 355.872,-59"/>
<text text-anchor="middle" x="400" y="-65" font-family="Helvetica,sans-Serif" font-size="10.00">SysProcess.hpp</text>
</a>
</g>
</g>
<!-- Node10&#45;&gt;Node14 -->
<g id="edge14" class="edge"><title>Node10&#45;&gt;Node14</title>
<path fill="none" stroke="midnightblue" d="M308.164,-116.753C325.864,-107.742 352.984,-93.9353 373.17,-83.6589"/>
<polygon fill="midnightblue" stroke="midnightblue" points="374.85,-86.7312 382.174,-79.0752 371.674,-80.493 374.85,-86.7312"/>
</g>
<!-- Node12 -->
<g id="node12" class="node"><title>Node12</title>
<g id="a_node12"><a xlink:title=" ">
<polygon fill="white" stroke="#bfbfbf" points="493.604,-1 493.604,-21 542.396,-21 542.396,-1 493.604,-1"/>
<text text-anchor="middle" x="518" y="-7" font-family="Helvetica,sans-Serif" font-size="10.00">string.h</text>
</a>
</g>
</g>
<!-- Node11&#45;&gt;Node12 -->
<g id="edge12" class="edge"><title>Node11&#45;&gt;Node12</title>
<path fill="none" stroke="midnightblue" d="M518,-58.7527C518,-51.2504 518,-40.4238 518,-31.0781"/>
<polygon fill="midnightblue" stroke="midnightblue" points="521.5,-31.0752 518,-21.0752 514.5,-31.0752 521.5,-31.0752"/>
</g>
<!-- Node15&#45;&gt;Node5 -->
<g id="edge16" class="edge"><title>Node15&#45;&gt;Node5</title>
<path fill="none" stroke="midnightblue" d="M146.568,-116.753C156.168,-108.353 170.529,-95.7874 181.946,-85.7976"/>
<polygon fill="midnightblue" stroke="midnightblue" points="184.407,-88.2943 189.628,-79.0752 179.798,-83.0262 184.407,-88.2943"/>
</g>
<!-- Node16 -->
<g id="node16" class="node"><title>Node16</title>
<g id="a_node16"><a xlink:title=" ">
<polygon fill="white" stroke="#bfbfbf" points="23.9902,-59 23.9902,-79 90.0098,-79 90.0098,-59 23.9902,-59"/>
<text text-anchor="middle" x="57" y="-65" font-family="Helvetica,sans-Serif" font-size="10.00">sys/types.h</text>
</a>
</g>
</g>
<!-- Node15&#45;&gt;Node16 -->
<g id="edge17" class="edge"><title>Node15&#45;&gt;Node16</title>
<path fill="none" stroke="midnightblue" d="M122.955,-116.753C110.761,-108.109 92.341,-95.0518 78.0639,-84.9314"/>
<polygon fill="midnightblue" stroke="midnightblue" points="79.9848,-82.0029 69.8025,-79.0752 75.9367,-87.7137 79.9848,-82.0029"/>
</g>
<!-- Node17 -->
<g id="node17" class="node"><title>Node17</title>
<g id="a_node17"><a xlink:title=" ">
<polygon fill="white" stroke="#bfbfbf" points="107.934,-59 107.934,-79 160.066,-79 160.066,-59 107.934,-59"/>
<text text-anchor="middle" x="134" y="-65" font-family="Helvetica,sans-Serif" font-size="10.00">stdarg.h</text>
</a>
</g>
</g>
<!-- Node15&#45;&gt;Node17 -->
<g id="edge18" class="edge"><title>Node15&#45;&gt;Node17</title>
<path fill="none" stroke="midnightblue" d="M135.67,-116.753C135.402,-109.25 135.015,-98.4238 134.681,-89.0781"/>
<polygon fill="midnightblue" stroke="midnightblue" points="138.179,-88.9439 134.324,-79.0752 131.183,-89.1938 138.179,-88.9439"/>
</g>
</g>
</svg>
        <g id="navigator" transform="translate(0 0)" fill="#404254">
                <rect fill="#f2f5e9" fill-opacity="0.5" stroke="#606060" stroke-width=".5" x="0" y="0" width="60" height="60"/>
                <use id="zoomplus" xlink:href="#zoomPlus" x="17" y="9" onmousedown="handleZoom(evt,'in')"/>
                <use id="zoomminus" xlink:href="#zoomMin" x="42" y="9" onmousedown="handleZoom(evt,'out')"/>
                <use id="reset" xlink:href="#resetDef" x="30" y="36" onmousedown="handleReset()"/>
                <g id="arrowUp" xlink:href="#dirArrow" transform="translate(30 24)" onmousedown="handlePan(0,-1)">
                  <use xlink:href="#rim" fill="#404040">
                        <set attributeName="fill" to="#808080" begin="arrowUp.mouseover" end="arrowUp.mouseout"/>
                  </use>
                  <path fill="none" stroke="white" stroke-width="1.5" d="M0,-3.0v7 M-2.5,-0.5L0,-3.0L2.5,-0.5"/>
                </g>
                <g id="arrowRight" xlink:href="#dirArrow" transform="rotate(90) translate(36 -43)" onmousedown="handlePan(1,0)">
                  <use xlink:href="#rim" fill="#404040">
                        <set attributeName="fill" to="#808080" begin="arrowRight.mouseover" end="arrowRight.mouseout"/>
                  </use>
                  <path fill="none" stroke="white" stroke-width="1.5" d="M0,-3.0v7 M-2.5,-0.5L0,-3.0L2.5,-0.5"/>
                </g>
                <g id="arrowDown" xlink:href="#dirArrow" transform="rotate(180) translate(-30 -48)" onmousedown="handlePan(0,1)">
                  <use xlink:href="#rim" fill="#404040">
                        <set attributeName="fill" to="#808080" begin="arrowDown.mouseover" end="arrowDown.mouseout"/>
                  </use>
                  <path fill="none" stroke="white" stroke-width="1.5" d="M0,-3.0v7 M-2.5,-0.5L0,-3.0L2.5,-0.5"/>
                </g>
                <g id="arrowLeft" xlink:href="#dirArrow" transform="rotate(270) translate(-36 17)" onmousedown="handlePan(-1,0)">
                  <use xlink:href="#rim" fill="#404040">
                        <set attributeName="fill" to="#808080" begin="arrowLeft.mouseover" end="arrowLeft.mouseout"/>
                  </use>
                  <path fill="none" stroke="white" stroke-width="1.5" d="M0,-3.0v7 M-2.5,-0.5L0,-3.0L2.5,-0.5"/>
                </g>
        </g>
        <svg viewBox="0 0 15 15" width="100%" height="30px" preserveAspectRatio="xMaxYMin meet">
         <g id="arrow_out" transform="scale(0.3 0.3)">
          <a xlink:href="_registration_manager_8cpp__incl_org.svg" target="_base">
           <rect id="button" ry="5" rx="5" y="6" x="6" height="38" width="38"
                fill="#f2f5e9" fill-opacity="0.5" stroke="#606060" stroke-width="1.0"/>
           <path id="arrow"
             d="M 11.500037,31.436501 C 11.940474,20.09759 22.043105,11.32322 32.158766,21.979434 L 37.068811,17.246167 C 37.068811,17.246167 37.088388,32 37.088388,32 L 22.160133,31.978069 C 22.160133,31.978069 26.997745,27.140456 26.997745,27.140456 C 18.528582,18.264221 13.291696,25.230495 11.500037,31.436501 z"
             style="fill:#404040;"/>
          </a>
         </g>
        </svg>
</svg>
