<?xml version="1.0" encoding="UTF-8" standalone="no"?>
<!DOCTYPE svg PUBLIC "-//W3C//DTD SVG 1.1//EN"
 "http://www.w3.org/Graphics/SVG/1.1/DTD/svg11.dtd">
<!-- Generated by graphviz version 12.1.0 (20240811.2233)
 -->
<!-- Title: RelationClass.hpp Pages: 1 -->
<svg width="531pt" height="85pt"
 viewBox="0.00 0.00 530.75 84.50" xmlns="http://www.w3.org/2000/svg" xmlns:xlink="http://www.w3.org/1999/xlink">
<g id="graph0" class="graph" transform="scale(1 1) rotate(0) translate(4 80.5)">
<title>RelationClass.hpp</title>
<polygon fill="white" stroke="none" points="-4,4 -4,-80.5 526.75,-80.5 526.75,4 -4,4"/>
<!-- Node1 -->
<g id="node1" class="node">
<title>Node1</title>
<g id="a_node1"><a xlink:title=" ">
<polygon fill="#bfbfbf" stroke="black" points="188,-56.75 188,-76 284.25,-76 284.25,-56.75 188,-56.75"/>
<text text-anchor="middle" x="236.12" y="-62.5" font-family="Helvetica,sans-Serif" font-size="10.00">RelationClass.hpp</text>
</a>
</g>
</g>
<!-- Node2 -->
<g id="node2" class="node">
<title>Node2</title>
<g id="a_node2"><a xlink:href="_setup_8cpp.html" target="_top" xlink:title=" ">
<polygon fill="white" stroke="black" points="0,-0.5 0,-19.75 60.25,-19.75 60.25,-0.5 0,-0.5"/>
<text text-anchor="middle" x="30.12" y="-6.25" font-family="Helvetica,sans-Serif" font-size="10.00">Setup.cpp</text>
</a>
</g>
</g>
<!-- Node1&#45;&gt;Node2 -->
<g id="edge1" class="edge">
<title>Node1&#45;&gt;Node2</title>
<path fill="none" stroke="midnightblue" d="M190.72,-53.42C151.22,-43.01 95.05,-28.22 60.68,-19.17"/>
<polygon fill="midnightblue" stroke="midnightblue" points="189.62,-56.75 200.18,-55.91 191.4,-49.98 189.62,-56.75"/>
</g>
<!-- Node3 -->
<g id="node3" class="node">
<title>Node3</title>
<g id="a_node3"><a xlink:href="_rexx_memory_8cpp.html" target="_top" xlink:title=" ">
<polygon fill="white" stroke="black" points="78.25,-0.5 78.25,-19.75 170,-19.75 170,-0.5 78.25,-0.5"/>
<text text-anchor="middle" x="124.12" y="-6.25" font-family="Helvetica,sans-Serif" font-size="10.00">RexxMemory.cpp</text>
</a>
</g>
</g>
<!-- Node1&#45;&gt;Node3 -->
<g id="edge2" class="edge">
<title>Node1&#45;&gt;Node3</title>
<path fill="none" stroke="midnightblue" d="M207.15,-51.34C186.91,-41.54 160.48,-28.73 142.93,-20.23"/>
<polygon fill="midnightblue" stroke="midnightblue" points="205.49,-54.43 216.02,-55.63 208.54,-48.13 205.49,-54.43"/>
</g>
<!-- Node4 -->
<g id="node4" class="node">
<title>Node4</title>
<g id="a_node4"><a xlink:href="_relation_class_8cpp.html" target="_top" xlink:title=" ">
<polygon fill="white" stroke="black" points="188,-0.5 188,-19.75 284.25,-19.75 284.25,-0.5 188,-0.5"/>
<text text-anchor="middle" x="236.12" y="-6.25" font-family="Helvetica,sans-Serif" font-size="10.00">RelationClass.cpp</text>
</a>
</g>
</g>
<!-- Node1&#45;&gt;Node4 -->
<g id="edge3" class="edge">
<title>Node1&#45;&gt;Node4</title>
<path fill="none" stroke="midnightblue" d="M236.12,-45.19C236.12,-36.48 236.12,-26.74 236.12,-19.92"/>
<polygon fill="midnightblue" stroke="midnightblue" points="232.63,-44.9 236.13,-54.9 239.63,-44.9 232.63,-44.9"/>
</g>
<!-- Node5 -->
<g id="node5" class="node">
<title>Node5</title>
<g id="a_node5"><a xlink:href="_c_p_p_code_8cpp.html" target="_top" xlink:title=" ">
<polygon fill="white" stroke="black" points="302.62,-0.5 302.62,-19.75 381.62,-19.75 381.62,-0.5 302.62,-0.5"/>
<text text-anchor="middle" x="342.12" y="-6.25" font-family="Helvetica,sans-Serif" font-size="10.00">CPPCode.cpp</text>
</a>
</g>
</g>
<!-- Node1&#45;&gt;Node5 -->
<g id="edge4" class="edge">
<title>Node1&#45;&gt;Node5</title>
<path fill="none" stroke="midnightblue" d="M263.62,-51.3C282.87,-41.45 308.01,-28.58 324.6,-20.1"/>
<polygon fill="midnightblue" stroke="midnightblue" points="262.28,-48.06 254.98,-55.73 265.47,-54.29 262.28,-48.06"/>
</g>
<!-- Node6 -->
<g id="node6" class="node">
<title>Node6</title>
<g id="a_node6"><a xlink:href="_virtual_function_table_8cpp.html" target="_top" xlink:title=" ">
<polygon fill="white" stroke="black" points="399.5,-0.5 399.5,-19.75 522.75,-19.75 522.75,-0.5 399.5,-0.5"/>
<text text-anchor="middle" x="461.12" y="-6.25" font-family="Helvetica,sans-Serif" font-size="10.00">VirtualFunctionTable.cpp</text>
</a>
</g>
</g>
<!-- Node1&#45;&gt;Node6 -->
<g id="edge5" class="edge">
<title>Node1&#45;&gt;Node6</title>
<path fill="none" stroke="midnightblue" d="M284.75,-53.65C326.3,-43.63 385.25,-29.42 423.34,-20.23"/>
<polygon fill="midnightblue" stroke="midnightblue" points="284.16,-50.19 275.26,-55.94 285.8,-57 284.16,-50.19"/>
</g>
</g>
</svg>
