<?xml version="1.0" encoding="UTF-8" standalone="no"?>
<!DOCTYPE svg PUBLIC "-//W3C//DTD SVG 1.1//EN"
 "http://www.w3.org/Graphics/SVG/1.1/DTD/svg11.dtd">
<!-- Generated by graphviz version 12.1.0 (20240811.2233)
 -->
<!-- Title: ReturnInstruction.hpp Pages: 1 -->
<svg width="386pt" height="85pt"
 viewBox="0.00 0.00 385.50 84.50" xmlns="http://www.w3.org/2000/svg" xmlns:xlink="http://www.w3.org/1999/xlink">
<g id="graph0" class="graph" transform="scale(1 1) rotate(0) translate(4 80.5)">
<title>ReturnInstruction.hpp</title>
<polygon fill="white" stroke="none" points="-4,4 -4,-80.5 381.5,-80.5 381.5,4 -4,4"/>
<!-- Node1 -->
<g id="node1" class="node">
<title>Node1</title>
<g id="a_node1"><a xlink:title=" ">
<polygon fill="#bfbfbf" stroke="black" points="127,-56.75 127,-76 236.75,-76 236.75,-56.75 127,-56.75"/>
<text text-anchor="middle" x="181.88" y="-62.5" font-family="Helvetica,sans-Serif" font-size="10.00">ReturnInstruction.hpp</text>
</a>
</g>
</g>
<!-- Node2 -->
<g id="node2" class="node">
<title>Node2</title>
<g id="a_node2"><a xlink:href="_return_instruction_8cpp.html" target="_top" xlink:title=" ">
<polygon fill="white" stroke="black" points="0,-0.5 0,-19.75 109.75,-19.75 109.75,-0.5 0,-0.5"/>
<text text-anchor="middle" x="54.88" y="-6.25" font-family="Helvetica,sans-Serif" font-size="10.00">ReturnInstruction.cpp</text>
</a>
</g>
</g>
<!-- Node1&#45;&gt;Node2 -->
<g id="edge1" class="edge">
<title>Node1&#45;&gt;Node2</title>
<path fill="none" stroke="midnightblue" d="M150.29,-51.88C127.18,-42.01 96.46,-28.89 76.2,-20.23"/>
<polygon fill="midnightblue" stroke="midnightblue" points="148.66,-54.99 159.23,-55.7 151.4,-48.55 148.66,-54.99"/>
</g>
<!-- Node3 -->
<g id="node3" class="node">
<title>Node3</title>
<g id="a_node3"><a xlink:href="_instruction_parser_8cpp.html" target="_top" xlink:title=" ">
<polygon fill="white" stroke="black" points="127.75,-0.5 127.75,-19.75 236,-19.75 236,-0.5 127.75,-0.5"/>
<text text-anchor="middle" x="181.88" y="-6.25" font-family="Helvetica,sans-Serif" font-size="10.00">InstructionParser.cpp</text>
</a>
</g>
</g>
<!-- Node1&#45;&gt;Node3 -->
<g id="edge2" class="edge">
<title>Node1&#45;&gt;Node3</title>
<path fill="none" stroke="midnightblue" d="M181.88,-45.19C181.88,-36.48 181.88,-26.74 181.88,-19.92"/>
<polygon fill="midnightblue" stroke="midnightblue" points="178.38,-44.9 181.88,-54.9 185.38,-44.9 178.38,-44.9"/>
</g>
<!-- Node4 -->
<g id="node4" class="node">
<title>Node4</title>
<g id="a_node4"><a xlink:href="_virtual_function_table_8cpp.html" target="_top" xlink:title=" ">
<polygon fill="white" stroke="black" points="254.25,-0.5 254.25,-19.75 377.5,-19.75 377.5,-0.5 254.25,-0.5"/>
<text text-anchor="middle" x="315.88" y="-6.25" font-family="Helvetica,sans-Serif" font-size="10.00">VirtualFunctionTable.cpp</text>
</a>
</g>
</g>
<!-- Node1&#45;&gt;Node4 -->
<g id="edge3" class="edge">
<title>Node1&#45;&gt;Node4</title>
<path fill="none" stroke="midnightblue" d="M214.87,-52.02C239.29,-42.13 271.9,-28.93 293.37,-20.23"/>
<polygon fill="midnightblue" stroke="midnightblue" points="213.66,-48.73 205.71,-55.73 216.29,-55.22 213.66,-48.73"/>
</g>
</g>
</svg>
