<?xml version="1.0" encoding="UTF-8" standalone="no"?>
<!DOCTYPE svg PUBLIC "-//W3C//DTD SVG 1.1//EN"
 "http://www.w3.org/Graphics/SVG/1.1/DTD/svg11.dtd">
<!-- Generated by graphviz version 12.1.0 (20240811.2233)
 -->
<!-- Title: RexxInstruction.cpp Pages: 1 -->
<!--zoomable 310 -->
<svg id="main" version="1.1" xmlns="http://www.w3.org/2000/svg" xmlns:xlink="http://www.w3.org/1999/xlink" xml:space="preserve" onload="init(evt)">
<style type="text/css"><![CDATA[
.edge:hover path { stroke: red; }
.edge:hover polygon { stroke: red; fill: red; }
]]></style>
<script type="text/javascript"><![CDATA[
var edges = document.getElementsByTagName('g');
if (edges && edges.length) {
  for (var i=0;i<edges.length;i++) {
    if (edges[i].id.substr(0,4)=='edge') {
      edges[i].setAttribute('class','edge');
    }
  }
}
]]></script>
        <defs>
                <circle id="rim" cx="0" cy="0" r="7"/>
                <circle id="rim2" cx="0" cy="0" r="3.5"/>
                <g id="zoomPlus">
                        <use xlink:href="#rim" fill="#404040">
                                <set attributeName="fill" to="#808080" begin="zoomplus.mouseover" end="zoomplus.mouseout"/>
                        </use>
                        <path d="M-4,0h8M0,-4v8" fill="none" stroke="white" stroke-width="1.5" pointer-events="none"/>
                </g>
                <g id="zoomMin">
                        <use xlink:href="#rim" fill="#404040">
                                <set attributeName="fill" to="#808080" begin="zoomminus.mouseover" end="zoomminus.mouseout"/>
                        </use>
                        <path d="M-4,0h8" fill="none" stroke="white" stroke-width="1.5" pointer-events="none"/>
                </g>
                <g id="dirArrow">
                        <path fill="none" stroke="white" stroke-width="1.5" d="M0,-3.0v7 M-2.5,-0.5L0,-3.0L2.5,-0.5"/>
                </g>
               <g id="resetDef">
                       <use xlink:href="#rim2" fill="#404040">
                               <set attributeName="fill" to="#808080" begin="reset.mouseover" end="reset.mouseout"/>
                       </use>
               </g>
        </defs>

<script type="text/javascript">
var viewWidth = 2753;
var viewHeight = 310;
var sectionId = 'dynsection-0';
</script>
<script xlink:href="svgpan.js"/>
<svg id="graph" class="graph">
<g id="viewport">
<title>RexxInstruction.cpp</title>
<polygon fill="white" stroke="none" points="-4,4 -4,-305.5 2749.23,-305.5 2749.23,4 -4,4"/>
<!-- Node1 -->
<g id="node1" class="node">
<title>Node1</title>
<g id="a_node1"><a xlink:title=" ">
<polygon fill="#bfbfbf" stroke="black" points="1742.25,-281.75 1742.25,-301 1846,-301 1846,-281.75 1742.25,-281.75"/>
<text text-anchor="middle" x="1794.12" y="-287.5" font-family="Helvetica,sans-Serif" font-size="10.00">RexxInstruction.cpp</text>
</a>
</g>
</g>
<!-- Node2 -->
<g id="node2" class="node">
<title>Node2</title>
<g id="a_node2"><a xlink:title=" ">
<polygon fill="white" stroke="#bfbfbf" points="1423.38,-225.5 1423.38,-244.75 1470.88,-244.75 1470.88,-225.5 1423.38,-225.5"/>
<text text-anchor="middle" x="1447.12" y="-231.25" font-family="Helvetica,sans-Serif" font-size="10.00">stdlib.h</text>
</a>
</g>
</g>
<!-- Node1&#45;&gt;Node2 -->
<g id="edge1" class="edge">
<title>Node1&#45;&gt;Node2</title>
<path fill="none" stroke="midnightblue" d="M1741.82,-284.92C1681.53,-278.17 1579.3,-265.34 1482.37,-245.49"/>
<polygon fill="midnightblue" stroke="midnightblue" points="1483.17,-242.08 1472.67,-243.47 1481.75,-248.93 1483.17,-242.08"/>
</g>
<!-- Node3 -->
<g id="node3" class="node">
<title>Node3</title>
<g id="a_node3"><a xlink:href="_rexx_core_8h.html" target="_top" xlink:title=" ">
<polygon fill="white" stroke="black" points="1488.88,-225.5 1488.88,-244.75 1557.38,-244.75 1557.38,-225.5 1488.88,-225.5"/>
<text text-anchor="middle" x="1523.12" y="-231.25" font-family="Helvetica,sans-Serif" font-size="10.00">RexxCore.h</text>
</a>
</g>
</g>
<!-- Node1&#45;&gt;Node3 -->
<g id="edge2" class="edge">
<title>Node1&#45;&gt;Node3</title>
<path fill="none" stroke="midnightblue" d="M1748.77,-281.29C1698.86,-271.3 1619.1,-255.34 1568.99,-245.31"/>
<polygon fill="midnightblue" stroke="midnightblue" points="1569.83,-241.91 1559.34,-243.37 1568.46,-248.77 1569.83,-241.91"/>
</g>
<!-- Node70 -->
<g id="node48" class="node">
<title>Node70</title>
<g id="a_node48"><a xlink:href="_rexx_instruction_8hpp.html" target="_top" xlink:title=" ">
<polygon fill="white" stroke="black" points="2060.25,-225.5 2060.25,-244.75 2164,-244.75 2164,-225.5 2060.25,-225.5"/>
<text text-anchor="middle" x="2112.12" y="-231.25" font-family="Helvetica,sans-Serif" font-size="10.00">RexxInstruction.hpp</text>
</a>
</g>
</g>
<!-- Node1&#45;&gt;Node70 -->
<g id="edge53" class="edge">
<title>Node1&#45;&gt;Node70</title>
<path fill="none" stroke="midnightblue" d="M1846.28,-281.48C1901.73,-272.02 1989.46,-257.05 2048.83,-246.92"/>
<polygon fill="midnightblue" stroke="midnightblue" points="2049.18,-250.41 2058.45,-245.28 2048,-243.51 2049.18,-250.41"/>
</g>
<!-- Node71 -->
<g id="node49" class="node">
<title>Node71</title>
<g id="a_node49"><a xlink:href="_clause_8hpp.html" target="_top" xlink:title=" ">
<polygon fill="white" stroke="black" points="2620.38,-225.5 2620.38,-244.75 2685.88,-244.75 2685.88,-225.5 2620.38,-225.5"/>
<text text-anchor="middle" x="2653.12" y="-231.25" font-family="Helvetica,sans-Serif" font-size="10.00">Clause.hpp</text>
</a>
</g>
</g>
<!-- Node1&#45;&gt;Node71 -->
<g id="edge55" class="edge">
<title>Node1&#45;&gt;Node71</title>
<path fill="none" stroke="midnightblue" d="M1846.25,-287.08C2002.32,-277.23 2464.08,-248.06 2609.06,-238.91"/>
<polygon fill="midnightblue" stroke="midnightblue" points="2608.86,-242.43 2618.62,-238.3 2608.42,-235.44 2608.86,-242.43"/>
</g>
<!-- Node4 -->
<g id="node4" class="node">
<title>Node4</title>
<g id="a_node4"><a xlink:href="oorexxapi_8h.html" target="_top" xlink:title=" ">
<polygon fill="white" stroke="black" points="2310,-169.25 2310,-188.5 2376.25,-188.5 2376.25,-169.25 2310,-169.25"/>
<text text-anchor="middle" x="2343.12" y="-175" font-family="Helvetica,sans-Serif" font-size="10.00">oorexxapi.h</text>
</a>
</g>
</g>
<!-- Node3&#45;&gt;Node4 -->
<g id="edge3" class="edge">
<title>Node3&#45;&gt;Node4</title>
<path fill="none" stroke="midnightblue" d="M1557.79,-231.96C1659.22,-225.61 1964.17,-206.38 2217.12,-189 2244.11,-187.15 2274.33,-184.96 2298.42,-183.19"/>
<polygon fill="midnightblue" stroke="midnightblue" points="2298.48,-186.7 2308.19,-182.47 2297.96,-179.72 2298.48,-186.7"/>
</g>
<!-- Node11 -->
<g id="node7" class="node">
<title>Node11</title>
<g id="a_node7"><a xlink:title=" ">
<polygon fill="white" stroke="#bfbfbf" points="1957.5,-169.25 1957.5,-188.5 2002.75,-188.5 2002.75,-169.25 1957.5,-169.25"/>
<text text-anchor="middle" x="1980.12" y="-175" font-family="Helvetica,sans-Serif" font-size="10.00">stdio.h</text>
</a>
</g>
</g>
<!-- Node3&#45;&gt;Node11 -->
<g id="edge6" class="edge">
<title>Node3&#45;&gt;Node11</title>
<path fill="none" stroke="midnightblue" d="M1557.64,-232C1629.7,-227.21 1801.21,-214.01 1943.12,-189 1944.12,-188.82 1945.13,-188.64 1946.15,-188.44"/>
<polygon fill="midnightblue" stroke="midnightblue" points="1946.63,-191.92 1955.66,-186.37 1945.14,-185.08 1946.63,-191.92"/>
</g>
<!-- Node12 -->
<g id="node8" class="node">
<title>Node12</title>
<g id="a_node8"><a xlink:title=" ">
<polygon fill="white" stroke="#bfbfbf" points="2020.5,-169.25 2020.5,-188.5 2071.75,-188.5 2071.75,-169.25 2020.5,-169.25"/>
<text text-anchor="middle" x="2046.12" y="-175" font-family="Helvetica,sans-Serif" font-size="10.00">stdarg.h</text>
</a>
</g>
</g>
<!-- Node3&#45;&gt;Node12 -->
<g id="edge7" class="edge">
<title>Node3&#45;&gt;Node12</title>
<path fill="none" stroke="midnightblue" d="M1557.78,-232.95C1636.5,-229.86 1834.88,-219.63 2009.07,-189.29"/>
<polygon fill="midnightblue" stroke="midnightblue" points="2009.51,-192.76 2018.75,-187.57 2008.29,-185.87 2009.51,-192.76"/>
</g>
<!-- Node13 -->
<g id="node9" class="node">
<title>Node13</title>
<g id="a_node9"><a xlink:title=" ">
<polygon fill="white" stroke="#bfbfbf" points="2090,-169.25 2090,-188.5 2138.25,-188.5 2138.25,-169.25 2090,-169.25"/>
<text text-anchor="middle" x="2114.12" y="-175" font-family="Helvetica,sans-Serif" font-size="10.00">string.h</text>
</a>
</g>
</g>
<!-- Node3&#45;&gt;Node13 -->
<g id="edge8" class="edge">
<title>Node3&#45;&gt;Node13</title>
<path fill="none" stroke="midnightblue" d="M1557.7,-233.59C1644.13,-231.79 1876.57,-223.98 2078.61,-189.12"/>
<polygon fill="midnightblue" stroke="midnightblue" points="2079,-192.61 2088.24,-187.43 2077.79,-185.72 2079,-192.61"/>
</g>
<!-- Node14 -->
<g id="node10" class="node">
<title>Node14</title>
<g id="a_node10"><a xlink:title=" ">
<polygon fill="white" stroke="#bfbfbf" points="0,-169.25 0,-188.5 48.25,-188.5 48.25,-169.25 0,-169.25"/>
<text text-anchor="middle" x="24.12" y="-175" font-family="Helvetica,sans-Serif" font-size="10.00">ctype.h</text>
</a>
</g>
</g>
<!-- Node3&#45;&gt;Node14 -->
<g id="edge9" class="edge">
<title>Node3&#45;&gt;Node14</title>
<path fill="none" stroke="midnightblue" d="M1488.48,-226.2C1485.66,-225.73 1482.85,-225.32 1480.12,-225 855.5,-151.46 684.89,-280.47 59.59,-188.97"/>
<polygon fill="midnightblue" stroke="midnightblue" points="60.39,-185.55 49.99,-187.55 59.37,-192.47 60.39,-185.55"/>
</g>
<!-- Node15 -->
<g id="node11" class="node">
<title>Node15</title>
<g id="a_node11"><a xlink:title=" ">
<polygon fill="white" stroke="#bfbfbf" points="66.38,-169.25 66.38,-188.5 113.88,-188.5 113.88,-169.25 66.38,-169.25"/>
<text text-anchor="middle" x="90.12" y="-175" font-family="Helvetica,sans-Serif" font-size="10.00">limits.h</text>
</a>
</g>
</g>
<!-- Node3&#45;&gt;Node15 -->
<g id="edge10" class="edge">
<title>Node3&#45;&gt;Node15</title>
<path fill="none" stroke="midnightblue" d="M1488.48,-226.21C1485.66,-225.74 1482.85,-225.32 1480.12,-225 884.64,-154.52 721.82,-276.55 125.17,-188.88"/>
<polygon fill="midnightblue" stroke="midnightblue" points="126.03,-185.47 115.63,-187.46 125,-192.39 126.03,-185.47"/>
</g>
<!-- Node16 -->
<g id="node12" class="node">
<title>Node16</title>
<g id="a_node12"><a xlink:title=" ">
<polygon fill="white" stroke="#bfbfbf" points="131.75,-169.25 131.75,-188.5 190.5,-188.5 190.5,-169.25 131.75,-169.25"/>
<text text-anchor="middle" x="161.12" y="-175" font-family="Helvetica,sans-Serif" font-size="10.00">stdexcept</text>
</a>
</g>
</g>
<!-- Node3&#45;&gt;Node16 -->
<g id="edge11" class="edge">
<title>Node3&#45;&gt;Node16</title>
<path fill="none" stroke="midnightblue" d="M1488.48,-226.21C1485.66,-225.74 1482.85,-225.33 1480.12,-225 918.73,-158.1 766.51,-260.83 202.11,-188.93"/>
<polygon fill="midnightblue" stroke="midnightblue" points="202.69,-185.47 192.32,-187.67 201.79,-192.42 202.69,-185.47"/>
</g>
<!-- Node17 -->
<g id="node13" class="node">
<title>Node17</title>
<g id="a_node13"><a xlink:href="_rexx_platform_definitions_8h.html" target="_top" xlink:title=" ">
<polygon fill="white" stroke="black" points="208.75,-169.25 208.75,-188.5 339.5,-188.5 339.5,-169.25 208.75,-169.25"/>
<text text-anchor="middle" x="274.12" y="-175" font-family="Helvetica,sans-Serif" font-size="10.00">RexxPlatformDefinitions.h</text>
</a>
</g>
</g>
<!-- Node3&#45;&gt;Node17 -->
<g id="edge12" class="edge">
<title>Node3&#45;&gt;Node17</title>
<path fill="none" stroke="midnightblue" d="M1488.48,-226.22C1485.66,-225.75 1482.85,-225.33 1480.12,-225 984.07,-164.96 851.92,-226.92 351.01,-189.15"/>
<polygon fill="midnightblue" stroke="midnightblue" points="351.61,-185.68 341.37,-188.41 351.07,-192.66 351.61,-185.68"/>
</g>
<!-- Node20 -->
<g id="node16" class="node">
<title>Node20</title>
<g id="a_node16"><a xlink:href="_rexx_constants_8hpp.html" target="_top" xlink:title=" ">
<polygon fill="white" stroke="black" points="357.62,-169.25 357.62,-188.5 460.62,-188.5 460.62,-169.25 357.62,-169.25"/>
<text text-anchor="middle" x="409.12" y="-175" font-family="Helvetica,sans-Serif" font-size="10.00">RexxConstants.hpp</text>
</a>
</g>
</g>
<!-- Node3&#45;&gt;Node20 -->
<g id="edge15" class="edge">
<title>Node3&#45;&gt;Node20</title>
<path fill="none" stroke="midnightblue" d="M1488.48,-226.23C1485.66,-225.76 1482.85,-225.34 1480.12,-225 1036.52,-170.4 920.4,-227.66 475.12,-189 474.12,-188.91 473.1,-188.82 472.08,-188.72"/>
<polygon fill="midnightblue" stroke="midnightblue" points="472.77,-185.28 462.45,-187.71 472.03,-192.24 472.77,-185.28"/>
</g>
<!-- Node21 -->
<g id="node17" class="node">
<title>Node21</title>
<g id="a_node17"><a xlink:href="_class_type_codes_8h.html" target="_top" xlink:title=" ">
<polygon fill="white" stroke="black" points="496.5,-56.75 496.5,-76 595.75,-76 595.75,-56.75 496.5,-56.75"/>
<text text-anchor="middle" x="546.12" y="-62.5" font-family="Helvetica,sans-Serif" font-size="10.00">ClassTypeCodes.h</text>
</a>
</g>
</g>
<!-- Node3&#45;&gt;Node21 -->
<g id="edge16" class="edge">
<title>Node3&#45;&gt;Node21</title>
<path fill="none" stroke="midnightblue" d="M1488.48,-226.25C1485.66,-225.77 1482.85,-225.34 1480.12,-225 1381.04,-212.59 671.72,-233.1 582.12,-189 552.9,-174.61 546.24,-163.38 535.12,-132.75 529.72,-117.84 533.32,-100.04 537.8,-86.78"/>
<polygon fill="midnightblue" stroke="midnightblue" points="541.04,-88.09 541.38,-77.5 534.51,-85.57 541.04,-88.09"/>
</g>
<!-- Node22 -->
<g id="node18" class="node">
<title>Node22</title>
<g id="a_node18"><a xlink:href="_global_names_8h.html" target="_top" xlink:title=" ">
<polygon fill="white" stroke="black" points="1267.38,-169.25 1267.38,-188.5 1350.88,-188.5 1350.88,-169.25 1267.38,-169.25"/>
<text text-anchor="middle" x="1309.12" y="-175" font-family="Helvetica,sans-Serif" font-size="10.00">GlobalNames.h</text>
</a>
</g>
</g>
<!-- Node3&#45;&gt;Node22 -->
<g id="edge17" class="edge">
<title>Node3&#45;&gt;Node22</title>
<path fill="none" stroke="midnightblue" d="M1488.74,-225.41C1452.75,-216.28 1396,-201.9 1355.93,-191.74"/>
<polygon fill="midnightblue" stroke="midnightblue" points="1356.87,-188.37 1346.32,-189.3 1355.15,-195.15 1356.87,-188.37"/>
</g>
<!-- Node23 -->
<g id="node19" class="node">
<title>Node23</title>
<g id="a_node19"><a xlink:href="_object_class_8hpp.html" target="_top" xlink:title=" ">
<polygon fill="white" stroke="black" points="1021.75,-169.25 1021.75,-188.5 1110.5,-188.5 1110.5,-169.25 1021.75,-169.25"/>
<text text-anchor="middle" x="1066.12" y="-175" font-family="Helvetica,sans-Serif" font-size="10.00">ObjectClass.hpp</text>
</a>
</g>
</g>
<!-- Node3&#45;&gt;Node23 -->
<g id="edge18" class="edge">
<title>Node3&#45;&gt;Node23</title>
<path fill="none" stroke="midnightblue" d="M1488.45,-226.43C1485.64,-225.91 1482.84,-225.42 1480.12,-225 1324.81,-200.83 1281.43,-209.97 1122.05,-189.16"/>
<polygon fill="midnightblue" stroke="midnightblue" points="1122.75,-185.72 1112.38,-187.88 1121.83,-192.66 1122.75,-185.72"/>
</g>
<!-- Node26 -->
<g id="node22" class="node">
<title>Node26</title>
<g id="a_node22"><a xlink:href="_table_class_8hpp.html" target="_top" xlink:title=" ">
<polygon fill="white" stroke="black" points="648.38,-56.75 648.38,-76 731.88,-76 731.88,-56.75 648.38,-56.75"/>
<text text-anchor="middle" x="690.12" y="-62.5" font-family="Helvetica,sans-Serif" font-size="10.00">TableClass.hpp</text>
</a>
</g>
</g>
<!-- Node3&#45;&gt;Node26 -->
<g id="edge21" class="edge">
<title>Node3&#45;&gt;Node26</title>
<path fill="none" stroke="midnightblue" d="M1488.47,-226.29C1485.66,-225.8 1482.85,-225.36 1480.12,-225 1178.75,-185.33 1098.27,-230.38 797.12,-189 683.87,-173.44 617.58,-221.99 546.12,-132.75 517.99,-97.61 584.97,-80.66 636.77,-73.02"/>
<polygon fill="midnightblue" stroke="midnightblue" points="636.95,-76.53 646.38,-71.69 635.99,-69.6 636.95,-76.53"/>
</g>
<!-- Node29 -->
<g id="node24" class="node">
<title>Node29</title>
<g id="a_node24"><a xlink:href="_stack_class_8hpp.html" target="_top" xlink:title=" ">
<polygon fill="white" stroke="black" points="1369.25,-169.25 1369.25,-188.5 1455,-188.5 1455,-169.25 1369.25,-169.25"/>
<text text-anchor="middle" x="1412.12" y="-175" font-family="Helvetica,sans-Serif" font-size="10.00">StackClass.hpp</text>
</a>
</g>
</g>
<!-- Node3&#45;&gt;Node29 -->
<g id="edge23" class="edge">
<title>Node3&#45;&gt;Node29</title>
<path fill="none" stroke="midnightblue" d="M1504.55,-225.04C1487.18,-216.56 1460.98,-203.75 1440.91,-193.94"/>
<polygon fill="midnightblue" stroke="midnightblue" points="1442.65,-190.9 1432.12,-189.65 1439.57,-197.19 1442.65,-190.9"/>
</g>
<!-- Node30 -->
<g id="node25" class="node">
<title>Node30</title>
<g id="a_node25"><a xlink:href="_rexx_memory_8hpp.html" target="_top" xlink:title=" ">
<polygon fill="white" stroke="black" points="806.25,-169.25 806.25,-188.5 898,-188.5 898,-169.25 806.25,-169.25"/>
<text text-anchor="middle" x="852.12" y="-175" font-family="Helvetica,sans-Serif" font-size="10.00">RexxMemory.hpp</text>
</a>
</g>
</g>
<!-- Node3&#45;&gt;Node30 -->
<g id="edge24" class="edge">
<title>Node3&#45;&gt;Node30</title>
<path fill="none" stroke="midnightblue" d="M1488.46,-226.34C1485.65,-225.84 1482.85,-225.38 1480.12,-225 1424.54,-217.14 1053.74,-192.84 909.44,-183.54"/>
<polygon fill="midnightblue" stroke="midnightblue" points="909.94,-180.07 899.73,-182.92 909.49,-187.05 909.94,-180.07"/>
</g>
<!-- Node37 -->
<g id="node30" class="node">
<title>Node37</title>
<g id="a_node30"><a xlink:href="_rexx_behaviour_8hpp.html" target="_top" xlink:title=" ">
<polygon fill="white" stroke="black" points="1472.75,-169.25 1472.75,-188.5 1573.5,-188.5 1573.5,-169.25 1472.75,-169.25"/>
<text text-anchor="middle" x="1523.12" y="-175" font-family="Helvetica,sans-Serif" font-size="10.00">RexxBehaviour.hpp</text>
</a>
</g>
</g>
<!-- Node3&#45;&gt;Node37 -->
<g id="edge32" class="edge">
<title>Node3&#45;&gt;Node37</title>
<path fill="none" stroke="midnightblue" d="M1523.12,-225.17C1523.12,-218.37 1523.12,-208.76 1523.12,-200.15"/>
<polygon fill="midnightblue" stroke="midnightblue" points="1526.63,-200.18 1523.13,-190.18 1519.63,-200.18 1526.63,-200.18"/>
</g>
<!-- Node39 -->
<g id="node32" class="node">
<title>Node39</title>
<g id="a_node32"><a xlink:href="_class_class_8hpp.html" target="_top" xlink:title=" ">
<polygon fill="white" stroke="black" points="1591.25,-169.25 1591.25,-188.5 1677,-188.5 1677,-169.25 1591.25,-169.25"/>
<text text-anchor="middle" x="1634.12" y="-175" font-family="Helvetica,sans-Serif" font-size="10.00">ClassClass.hpp</text>
</a>
</g>
</g>
<!-- Node3&#45;&gt;Node39 -->
<g id="edge34" class="edge">
<title>Node3&#45;&gt;Node39</title>
<path fill="none" stroke="midnightblue" d="M1541.7,-225.04C1559.07,-216.56 1585.27,-203.75 1605.34,-193.94"/>
<polygon fill="midnightblue" stroke="midnightblue" points="1606.68,-197.19 1614.13,-189.65 1603.6,-190.9 1606.68,-197.19"/>
</g>
<!-- Node40 -->
<g id="node33" class="node">
<title>Node40</title>
<g id="a_node33"><a xlink:href="_rexx_envelope_8hpp.html" target="_top" xlink:title=" ">
<polygon fill="white" stroke="black" points="1694.88,-169.25 1694.88,-188.5 1793.38,-188.5 1793.38,-169.25 1694.88,-169.25"/>
<text text-anchor="middle" x="1744.12" y="-175" font-family="Helvetica,sans-Serif" font-size="10.00">RexxEnvelope.hpp</text>
</a>
</g>
</g>
<!-- Node3&#45;&gt;Node40 -->
<g id="edge35" class="edge">
<title>Node3&#45;&gt;Node40</title>
<path fill="none" stroke="midnightblue" d="M1557.66,-225.65C1594.91,-216.5 1654.49,-201.88 1696.25,-191.63"/>
<polygon fill="midnightblue" stroke="midnightblue" points="1696.91,-195.07 1705.79,-189.29 1695.24,-188.27 1696.91,-195.07"/>
</g>
<!-- Node41 -->
<g id="node34" class="node">
<title>Node41</title>
<g id="a_node34"><a xlink:href="_rexx_activity_8hpp.html" target="_top" xlink:title=" ">
<polygon fill="white" stroke="black" points="1811.38,-169.25 1811.38,-188.5 1900.88,-188.5 1900.88,-169.25 1811.38,-169.25"/>
<text text-anchor="middle" x="1856.12" y="-175" font-family="Helvetica,sans-Serif" font-size="10.00">RexxActivity.hpp</text>
</a>
</g>
</g>
<!-- Node3&#45;&gt;Node41 -->
<g id="edge36" class="edge">
<title>Node3&#45;&gt;Node41</title>
<path fill="none" stroke="midnightblue" d="M1557.5,-228.65C1608.17,-220.55 1706.18,-204.83 1799.94,-189.35"/>
<polygon fill="midnightblue" stroke="midnightblue" points="1800.26,-192.85 1809.55,-187.76 1799.12,-185.94 1800.26,-192.85"/>
</g>
<!-- Node52 -->
<g id="node45" class="node">
<title>Node52</title>
<g id="a_node45"><a xlink:href="_number_string_class_8hpp.html" target="_top" xlink:title=" ">
<polygon fill="white" stroke="black" points="1129,-169.25 1129,-188.5 1249.25,-188.5 1249.25,-169.25 1129,-169.25"/>
<text text-anchor="middle" x="1189.12" y="-175" font-family="Helvetica,sans-Serif" font-size="10.00">NumberStringClass.hpp</text>
</a>
</g>
</g>
<!-- Node3&#45;&gt;Node52 -->
<g id="edge49" class="edge">
<title>Node3&#45;&gt;Node52</title>
<path fill="none" stroke="midnightblue" d="M1488.42,-226.59C1485.62,-226.03 1482.83,-225.5 1480.12,-225 1405.49,-211.3 1319.57,-198.32 1260.55,-189.83"/>
<polygon fill="midnightblue" stroke="midnightblue" points="1261.37,-186.41 1250.98,-188.46 1260.38,-193.34 1261.37,-186.41"/>
</g>
<!-- Node68 -->
<g id="node47" class="node">
<title>Node68</title>
<g id="a_node47"><a xlink:href="_activity_manager_8hpp.html" target="_top" xlink:title=" ">
<polygon fill="white" stroke="red" points="2393.88,-169.25 2393.88,-188.5 2498.38,-188.5 2498.38,-169.25 2393.88,-169.25"/>
<text text-anchor="middle" x="2446.12" y="-175" font-family="Helvetica,sans-Serif" font-size="10.00">ActivityManager.hpp</text>
</a>
</g>
</g>
<!-- Node3&#45;&gt;Node68 -->
<g id="edge52" class="edge">
<title>Node3&#45;&gt;Node68</title>
<path fill="none" stroke="midnightblue" d="M1557.71,-233.51C1673.13,-231.2 2055.83,-221.51 2382.48,-189.17"/>
<polygon fill="midnightblue" stroke="midnightblue" points="2382.48,-192.69 2392.09,-188.21 2381.79,-185.72 2382.48,-192.69"/>
</g>
<!-- Node5 -->
<g id="node5" class="node">
<title>Node5</title>
<g id="a_node5"><a xlink:href="rexx_8h.html" target="_top" xlink:title=" ">
<polygon fill="white" stroke="red" points="2464.62,-113 2464.62,-132.25 2507.62,-132.25 2507.62,-113 2464.62,-113"/>
<text text-anchor="middle" x="2486.12" y="-118.75" font-family="Helvetica,sans-Serif" font-size="10.00">rexx.h</text>
</a>
</g>
</g>
<!-- Node4&#45;&gt;Node5 -->
<g id="edge4" class="edge">
<title>Node4&#45;&gt;Node5</title>
<path fill="none" stroke="midnightblue" d="M2367.06,-168.79C2390.85,-159.77 2427.51,-145.86 2453.86,-135.87"/>
<polygon fill="midnightblue" stroke="midnightblue" points="2454.93,-139.2 2463.04,-132.38 2452.45,-132.66 2454.93,-139.2"/>
</g>
<!-- Node10 -->
<g id="node6" class="node">
<title>Node10</title>
<g id="a_node6"><a xlink:href="oorexxerrors_8h.html" target="_top" xlink:title=" ">
<polygon fill="white" stroke="black" points="2526,-113 2526,-132.25 2604.25,-132.25 2604.25,-113 2526,-113"/>
<text text-anchor="middle" x="2565.12" y="-118.75" font-family="Helvetica,sans-Serif" font-size="10.00">oorexxerrors.h</text>
</a>
</g>
</g>
<!-- Node4&#45;&gt;Node10 -->
<g id="edge5" class="edge">
<title>Node4&#45;&gt;Node10</title>
<path fill="none" stroke="midnightblue" d="M2376.36,-169.75C2413.67,-160.64 2474.53,-145.76 2517.03,-135.38"/>
<polygon fill="midnightblue" stroke="midnightblue" points="2517.6,-138.84 2526.48,-133.07 2515.94,-132.04 2517.6,-138.84"/>
</g>
<!-- Node18 -->
<g id="node14" class="node">
<title>Node18</title>
<g id="a_node14"><a xlink:title=" ">
<polygon fill="white" stroke="#bfbfbf" points="160.38,-113 160.38,-132.25 267.88,-132.25 267.88,-113 160.38,-113"/>
<text text-anchor="middle" x="214.12" y="-118.75" font-family="Helvetica,sans-Serif" font-size="10.00">PlatformDefinitions.h</text>
</a>
</g>
</g>
<!-- Node17&#45;&gt;Node18 -->
<g id="edge13" class="edge">
<title>Node17&#45;&gt;Node18</title>
<path fill="none" stroke="midnightblue" d="M264.22,-168.92C255.57,-161.1 242.79,-149.55 232.31,-140.07"/>
<polygon fill="midnightblue" stroke="midnightblue" points="234.74,-137.54 224.97,-133.43 230.04,-142.73 234.74,-137.54"/>
</g>
<!-- Node19 -->
<g id="node15" class="node">
<title>Node19</title>
<g id="a_node15"><a xlink:href="_rexx_error_codes_8h.html" target="_top" xlink:title=" ">
<polygon fill="white" stroke="black" points="285.62,-113 285.62,-132.25 382.62,-132.25 382.62,-113 285.62,-113"/>
<text text-anchor="middle" x="334.12" y="-118.75" font-family="Helvetica,sans-Serif" font-size="10.00">RexxErrorCodes.h</text>
</a>
</g>
</g>
<!-- Node17&#45;&gt;Node19 -->
<g id="edge14" class="edge">
<title>Node17&#45;&gt;Node19</title>
<path fill="none" stroke="midnightblue" d="M284.03,-168.92C292.68,-161.1 305.46,-149.55 315.94,-140.07"/>
<polygon fill="midnightblue" stroke="midnightblue" points="318.21,-142.73 323.28,-133.43 313.51,-137.54 318.21,-142.73"/>
</g>
<!-- Node24 -->
<g id="node20" class="node">
<title>Node24</title>
<g id="a_node20"><a xlink:href="_numerics_8hpp.html" target="_top" xlink:title=" ">
<polygon fill="white" stroke="black" points="1085.75,-113 1085.75,-132.25 1162.5,-132.25 1162.5,-113 1085.75,-113"/>
<text text-anchor="middle" x="1124.12" y="-118.75" font-family="Helvetica,sans-Serif" font-size="10.00">Numerics.hpp</text>
</a>
</g>
</g>
<!-- Node23&#45;&gt;Node24 -->
<g id="edge19" class="edge">
<title>Node23&#45;&gt;Node24</title>
<path fill="none" stroke="midnightblue" d="M1075.7,-168.92C1084.06,-161.1 1096.41,-149.55 1106.55,-140.07"/>
<polygon fill="midnightblue" stroke="midnightblue" points="1108.71,-142.84 1113.62,-133.45 1103.93,-137.73 1108.71,-142.84"/>
</g>
<!-- Node25 -->
<g id="node21" class="node">
<title>Node25</title>
<g id="a_node21"><a xlink:title=" ">
<polygon fill="white" stroke="#bfbfbf" points="990.5,-56.75 990.5,-76 1041.75,-76 1041.75,-56.75 990.5,-56.75"/>
<text text-anchor="middle" x="1016.12" y="-62.5" font-family="Helvetica,sans-Serif" font-size="10.00">stddef.h</text>
</a>
</g>
</g>
<!-- Node23&#45;&gt;Node25 -->
<g id="edge20" class="edge">
<title>Node23&#45;&gt;Node25</title>
<path fill="none" stroke="midnightblue" d="M1062.68,-168.9C1057.75,-156.2 1048.27,-132.35 1039.12,-112.5 1035.13,-103.81 1030.37,-94.36 1026.23,-86.37"/>
<polygon fill="midnightblue" stroke="midnightblue" points="1029.37,-84.83 1021.62,-77.6 1023.18,-88.08 1029.37,-84.83"/>
</g>
<!-- Node27 -->
<g id="node23" class="node">
<title>Node27</title>
<g id="a_node23"><a xlink:href="_rexx_collection_8hpp.html" target="_top" xlink:title=" ">
<polygon fill="white" stroke="red" points="639.38,-0.5 639.38,-19.75 740.88,-19.75 740.88,-0.5 639.38,-0.5"/>
<text text-anchor="middle" x="690.12" y="-6.25" font-family="Helvetica,sans-Serif" font-size="10.00">RexxCollection.hpp</text>
</a>
</g>
</g>
<!-- Node26&#45;&gt;Node27 -->
<g id="edge22" class="edge">
<title>Node26&#45;&gt;Node27</title>
<path fill="none" stroke="midnightblue" d="M690.12,-56.42C690.12,-49.62 690.12,-40.01 690.12,-31.4"/>
<polygon fill="midnightblue" stroke="midnightblue" points="693.63,-31.43 690.13,-21.43 686.63,-31.43 693.63,-31.43"/>
</g>
<!-- Node31 -->
<g id="node26" class="node">
<title>Node31</title>
<g id="a_node26"><a xlink:title=" ">
<polygon fill="white" stroke="#bfbfbf" points="801.38,-113 801.38,-132.25 902.88,-132.25 902.88,-113 801.38,-113"/>
<text text-anchor="middle" x="852.12" y="-118.75" font-family="Helvetica,sans-Serif" font-size="10.00">SysSemaphore.hpp</text>
</a>
</g>
</g>
<!-- Node30&#45;&gt;Node31 -->
<g id="edge25" class="edge">
<title>Node30&#45;&gt;Node31</title>
<path fill="none" stroke="midnightblue" d="M852.12,-168.92C852.12,-162.12 852.12,-152.51 852.12,-143.9"/>
<polygon fill="midnightblue" stroke="midnightblue" points="855.63,-143.93 852.13,-133.93 848.63,-143.93 855.63,-143.93"/>
</g>
<!-- Node32 -->
<g id="node27" class="node">
<title>Node32</title>
<g id="a_node27"><a xlink:href="_identity_table_class_8hpp.html" target="_top" xlink:title=" ">
<polygon fill="white" stroke="black" points="667.25,-113 667.25,-132.25 783,-132.25 783,-113 667.25,-113"/>
<text text-anchor="middle" x="725.12" y="-118.75" font-family="Helvetica,sans-Serif" font-size="10.00">IdentityTableClass.hpp</text>
</a>
</g>
</g>
<!-- Node30&#45;&gt;Node32 -->
<g id="edge26" class="edge">
<title>Node30&#45;&gt;Node32</title>
<path fill="none" stroke="midnightblue" d="M830.87,-168.79C810.63,-160.15 779.91,-147.03 756.79,-137.15"/>
<polygon fill="midnightblue" stroke="midnightblue" points="758.41,-134.04 747.84,-133.33 755.66,-140.48 758.41,-134.04"/>
</g>
<!-- Node33 -->
<g id="node28" class="node">
<title>Node33</title>
<g id="a_node28"><a xlink:href="_memory_stats_8hpp.html" target="_top" xlink:title=" ">
<polygon fill="white" stroke="black" points="555.5,-113 555.5,-132.25 648.75,-132.25 648.75,-113 555.5,-113"/>
<text text-anchor="middle" x="602.12" y="-118.75" font-family="Helvetica,sans-Serif" font-size="10.00">MemoryStats.hpp</text>
</a>
</g>
</g>
<!-- Node30&#45;&gt;Node33 -->
<g id="edge28" class="edge">
<title>Node30&#45;&gt;Node33</title>
<path fill="none" stroke="midnightblue" d="M810.28,-168.79C767.65,-159.54 701.39,-145.17 655.12,-135.12"/>
<polygon fill="midnightblue" stroke="midnightblue" points="656.1,-131.76 645.59,-133.06 654.62,-138.6 656.1,-131.76"/>
</g>
<!-- Node34 -->
<g id="node29" class="node">
<title>Node34</title>
<g id="a_node29"><a xlink:href="_memory_segment_8hpp.html" target="_top" xlink:title=" ">
<polygon fill="white" stroke="red" points="920.62,-113 920.62,-132.25 1029.62,-132.25 1029.62,-113 920.62,-113"/>
<text text-anchor="middle" x="975.12" y="-118.75" font-family="Helvetica,sans-Serif" font-size="10.00">MemorySegment.hpp</text>
</a>
</g>
</g>
<!-- Node30&#45;&gt;Node34 -->
<g id="edge30" class="edge">
<title>Node30&#45;&gt;Node34</title>
<path fill="none" stroke="midnightblue" d="M872.71,-168.79C892.22,-160.19 921.79,-147.15 944.15,-137.29"/>
<polygon fill="midnightblue" stroke="midnightblue" points="945.35,-140.58 953.09,-133.35 942.52,-134.18 945.35,-140.58"/>
</g>
<!-- Node32&#45;&gt;Node26 -->
<g id="edge27" class="edge">
<title>Node32&#45;&gt;Node26</title>
<path fill="none" stroke="midnightblue" d="M719.35,-112.67C714.61,-105.32 707.74,-94.68 701.86,-85.56"/>
<polygon fill="midnightblue" stroke="midnightblue" points="704.98,-83.94 696.62,-77.44 699.1,-87.74 704.98,-83.94"/>
</g>
<!-- Node33&#45;&gt;Node21 -->
<g id="edge29" class="edge">
<title>Node33&#45;&gt;Node21</title>
<path fill="none" stroke="midnightblue" d="M592.88,-112.67C584.89,-104.92 573.12,-93.53 563.39,-84.11"/>
<polygon fill="midnightblue" stroke="midnightblue" points="565.9,-81.66 556.29,-77.22 561.03,-86.69 565.9,-81.66"/>
</g>
<!-- Node34&#45;&gt;Node25 -->
<g id="edge31" class="edge">
<title>Node34&#45;&gt;Node25</title>
<path fill="none" stroke="midnightblue" d="M981.9,-112.67C987.51,-105.24 995.66,-94.45 1002.6,-85.27"/>
<polygon fill="midnightblue" stroke="midnightblue" points="1005.33,-87.46 1008.57,-77.37 999.75,-83.24 1005.33,-87.46"/>
</g>
<!-- Node38 -->
<g id="node31" class="node">
<title>Node38</title>
<g id="a_node31"><a xlink:href="_primitive_behaviour_names_8h.html" target="_top" xlink:title=" ">
<polygon fill="white" stroke="black" points="1315.38,-113 1315.38,-132.25 1452.88,-132.25 1452.88,-113 1315.38,-113"/>
<text text-anchor="middle" x="1384.12" y="-118.75" font-family="Helvetica,sans-Serif" font-size="10.00">PrimitiveBehaviourNames.h</text>
</a>
</g>
</g>
<!-- Node37&#45;&gt;Node38 -->
<g id="edge33" class="edge">
<title>Node37&#45;&gt;Node38</title>
<path fill="none" stroke="midnightblue" d="M1499.86,-168.79C1477.51,-160.07 1443.48,-146.79 1418.1,-136.89"/>
<polygon fill="midnightblue" stroke="midnightblue" points="1419.46,-133.66 1408.88,-133.29 1416.92,-140.18 1419.46,-133.66"/>
</g>
<!-- Node42 -->
<g id="node35" class="node">
<title>Node42</title>
<g id="a_node35"><a xlink:href="_list_class_8hpp.html" target="_top" xlink:title=" ">
<polygon fill="white" stroke="red" points="1711.12,-113 1711.12,-132.25 1787.12,-132.25 1787.12,-113 1711.12,-113"/>
<text text-anchor="middle" x="1749.12" y="-118.75" font-family="Helvetica,sans-Serif" font-size="10.00">ListClass.hpp</text>
</a>
</g>
</g>
<!-- Node41&#45;&gt;Node42 -->
<g id="edge37" class="edge">
<title>Node41&#45;&gt;Node42</title>
<path fill="none" stroke="midnightblue" d="M1838.46,-168.92C1821.73,-160.44 1796.35,-147.57 1776.91,-137.71"/>
<polygon fill="midnightblue" stroke="midnightblue" points="1778.67,-134.68 1768.17,-133.28 1775.51,-140.92 1778.67,-134.68"/>
</g>
<!-- Node44 -->
<g id="node36" class="node">
<title>Node44</title>
<g id="a_node36"><a xlink:href="_rexx_internal_stack_8hpp.html" target="_top" xlink:title=" ">
<polygon fill="white" stroke="black" points="1805.25,-113 1805.25,-132.25 1921,-132.25 1921,-113 1805.25,-113"/>
<text text-anchor="middle" x="1863.12" y="-118.75" font-family="Helvetica,sans-Serif" font-size="10.00">RexxInternalStack.hpp</text>
</a>
</g>
</g>
<!-- Node41&#45;&gt;Node44 -->
<g id="edge38" class="edge">
<title>Node41&#45;&gt;Node44</title>
<path fill="none" stroke="midnightblue" d="M1857.28,-168.92C1858.17,-162.04 1859.43,-152.29 1860.55,-143.6"/>
<polygon fill="midnightblue" stroke="midnightblue" points="1863.99,-144.28 1861.8,-133.92 1857.05,-143.39 1863.99,-144.28"/>
</g>
<!-- Node45 -->
<g id="node37" class="node">
<title>Node45</title>
<g id="a_node37"><a xlink:href="_rexx_activation_stack_8hpp.html" target="_top" xlink:title=" ">
<polygon fill="white" stroke="black" points="1938.62,-113 1938.62,-132.25 2065.62,-132.25 2065.62,-113 1938.62,-113"/>
<text text-anchor="middle" x="2002.12" y="-118.75" font-family="Helvetica,sans-Serif" font-size="10.00">RexxActivationStack.hpp</text>
</a>
</g>
</g>
<!-- Node41&#45;&gt;Node45 -->
<g id="edge39" class="edge">
<title>Node41&#45;&gt;Node45</title>
<path fill="none" stroke="midnightblue" d="M1880.56,-168.79C1904.25,-159.99 1940.42,-146.55 1967.15,-136.62"/>
<polygon fill="midnightblue" stroke="midnightblue" points="1968.03,-140.03 1976.19,-133.26 1965.6,-133.46 1968.03,-140.03"/>
</g>
<!-- Node46 -->
<g id="node38" class="node">
<title>Node46</title>
<g id="a_node38"><a xlink:href="_expression_stack_8hpp.html" target="_top" xlink:title=" ">
<polygon fill="white" stroke="black" points="2083.62,-113 2083.62,-132.25 2192.62,-132.25 2192.62,-113 2083.62,-113"/>
<text text-anchor="middle" x="2138.12" y="-118.75" font-family="Helvetica,sans-Serif" font-size="10.00">ExpressionStack.hpp</text>
</a>
</g>
</g>
<!-- Node41&#45;&gt;Node46 -->
<g id="edge40" class="edge">
<title>Node41&#45;&gt;Node46</title>
<path fill="none" stroke="midnightblue" d="M1901.12,-169.22C1949.51,-159.91 2026.62,-145.08 2079.67,-134.87"/>
<polygon fill="midnightblue" stroke="midnightblue" points="2080.29,-138.31 2089.45,-132.99 2078.97,-131.44 2080.29,-138.31"/>
</g>
<!-- Node48 -->
<g id="node40" class="node">
<title>Node48</title>
<g id="a_node40"><a xlink:href="_rexx_local_variables_8hpp.html" target="_top" xlink:title=" ">
<polygon fill="white" stroke="red" points="1470.62,-113 1470.62,-132.25 1591.62,-132.25 1591.62,-113 1470.62,-113"/>
<text text-anchor="middle" x="1531.12" y="-118.75" font-family="Helvetica,sans-Serif" font-size="10.00">RexxLocalVariables.hpp</text>
</a>
</g>
</g>
<!-- Node41&#45;&gt;Node48 -->
<g id="edge42" class="edge">
<title>Node41&#45;&gt;Node48</title>
<path fill="none" stroke="midnightblue" d="M1811.05,-170.25C1808.03,-169.74 1805.03,-169.24 1802.12,-168.75 1732.3,-157.04 1652.33,-143.74 1597.46,-134.63"/>
<polygon fill="midnightblue" stroke="midnightblue" points="1598.08,-131.18 1587.64,-133 1596.93,-138.09 1598.08,-131.18"/>
</g>
<!-- Node63 -->
<g id="node41" class="node">
<title>Node63</title>
<g id="a_node41"><a xlink:href="_source_location_8hpp.html" target="_top" xlink:title=" ">
<polygon fill="white" stroke="black" points="2622,-113 2622,-132.25 2724.25,-132.25 2724.25,-113 2622,-113"/>
<text text-anchor="middle" x="2673.12" y="-118.75" font-family="Helvetica,sans-Serif" font-size="10.00">SourceLocation.hpp</text>
</a>
</g>
</g>
<!-- Node41&#45;&gt;Node63 -->
<g id="edge43" class="edge">
<title>Node41&#45;&gt;Node63</title>
<path fill="none" stroke="midnightblue" d="M1901.01,-173.02C1915.98,-171.5 1932.76,-169.93 1948.12,-168.75 2239.5,-146.42 2316.74,-162.61 2610.35,-132.94"/>
<polygon fill="midnightblue" stroke="midnightblue" points="2610.68,-136.42 2620.27,-131.92 2609.97,-129.46 2610.68,-136.42"/>
</g>
<!-- Node64 -->
<g id="node42" class="node">
<title>Node64</title>
<g id="a_node42"><a xlink:href="_exit_handler_8hpp.html" target="_top" xlink:title=" ">
<polygon fill="white" stroke="red" points="2210.62,-113 2210.62,-132.25 2295.62,-132.25 2295.62,-113 2210.62,-113"/>
<text text-anchor="middle" x="2253.12" y="-118.75" font-family="Helvetica,sans-Serif" font-size="10.00">ExitHandler.hpp</text>
</a>
</g>
</g>
<!-- Node41&#45;&gt;Node64 -->
<g id="edge44" class="edge">
<title>Node41&#45;&gt;Node64</title>
<path fill="none" stroke="midnightblue" d="M1901.2,-170.77C1905.9,-170.07 1910.61,-169.38 1915.12,-168.75 2038.83,-151.43 2073.11,-152.03 2199.05,-133.16"/>
<polygon fill="midnightblue" stroke="midnightblue" points="2199.44,-136.64 2208.8,-131.68 2198.39,-129.72 2199.44,-136.64"/>
</g>
<!-- Node66 -->
<g id="node43" class="node">
<title>Node66</title>
<g id="a_node43"><a xlink:href="_activation_api_contexts_8hpp.html" target="_top" xlink:title=" ">
<polygon fill="white" stroke="black" points="2314,-113 2314,-132.25 2446.25,-132.25 2446.25,-113 2314,-113"/>
<text text-anchor="middle" x="2380.12" y="-118.75" font-family="Helvetica,sans-Serif" font-size="10.00">ActivationApiContexts.hpp</text>
</a>
</g>
</g>
<!-- Node41&#45;&gt;Node66 -->
<g id="edge46" class="edge">
<title>Node41&#45;&gt;Node66</title>
<path fill="none" stroke="midnightblue" d="M1901.2,-173.4C2000.45,-163.54 2233.93,-140.29 2302.46,-133"/>
<polygon fill="midnightblue" stroke="midnightblue" points="2302.81,-136.48 2312.38,-131.92 2302.06,-129.52 2302.81,-136.48"/>
</g>
<!-- Node67 -->
<g id="node44" class="node">
<title>Node67</title>
<g id="a_node44"><a xlink:title=" ">
<polygon fill="white" stroke="#bfbfbf" points="1609.38,-113 1609.38,-132.25 1692.88,-132.25 1692.88,-113 1609.38,-113"/>
<text text-anchor="middle" x="1651.12" y="-118.75" font-family="Helvetica,sans-Serif" font-size="10.00">SysActivity.hpp</text>
</a>
</g>
</g>
<!-- Node41&#45;&gt;Node67 -->
<g id="edge48" class="edge">
<title>Node41&#45;&gt;Node67</title>
<path fill="none" stroke="midnightblue" d="M1821.81,-168.79C1787.37,-159.68 1734.13,-145.59 1696.28,-135.57"/>
<polygon fill="midnightblue" stroke="midnightblue" points="1697.58,-132.3 1687.01,-133.12 1695.78,-139.06 1697.58,-132.3"/>
</g>
<!-- Node47 -->
<g id="node39" class="node">
<title>Node47</title>
<g id="a_node39"><a xlink:href="_array_class_8hpp.html" target="_top" xlink:title=" ">
<polygon fill="white" stroke="black" points="2403.38,-56.75 2403.38,-76 2486.88,-76 2486.88,-56.75 2403.38,-56.75"/>
<text text-anchor="middle" x="2445.12" y="-62.5" font-family="Helvetica,sans-Serif" font-size="10.00">ArrayClass.hpp</text>
</a>
</g>
</g>
<!-- Node46&#45;&gt;Node47 -->
<g id="edge41" class="edge">
<title>Node46&#45;&gt;Node47</title>
<path fill="none" stroke="midnightblue" d="M2189.51,-112.54C2245.56,-102.64 2334.86,-86.86 2391.7,-76.82"/>
<polygon fill="midnightblue" stroke="midnightblue" points="2392.24,-80.27 2401.48,-75.09 2391.02,-73.38 2392.24,-80.27"/>
</g>
<!-- Node64&#45;&gt;Node3 -->
<g id="edge45" class="edge">
<title>Node64&#45;&gt;Node3</title>
<path fill="none" stroke="midnightblue" d="M2210.29,-131.4C2207.53,-131.87 2204.79,-132.32 2202.12,-132.75 2089.54,-150.79 2056.52,-133.4 1948.12,-168.75 1929.93,-174.68 1928.39,-183.29 1910.12,-189 1790.92,-226.25 1642.37,-233.24 1568.8,-234.24"/>
<polygon fill="midnightblue" stroke="midnightblue" points="1569.13,-230.74 1559.17,-234.34 1569.2,-237.74 1569.13,-230.74"/>
</g>
<!-- Node66&#45;&gt;Node3 -->
<g id="edge47" class="edge">
<title>Node66&#45;&gt;Node3</title>
<path fill="none" stroke="midnightblue" d="M2354.31,-132.72C2311.75,-147.29 2223.9,-175.59 2147.12,-189 1933.09,-226.37 1672.54,-232.89 1568.86,-233.96"/>
<polygon fill="midnightblue" stroke="midnightblue" points="1569.06,-230.45 1559.09,-234.04 1569.12,-237.45 1569.06,-230.45"/>
</g>
<!-- Node52&#45;&gt;Node24 -->
<g id="edge50" class="edge">
<title>Node52&#45;&gt;Node24</title>
<path fill="none" stroke="midnightblue" d="M1178.39,-168.92C1168.93,-161.02 1154.9,-149.31 1143.48,-139.78"/>
<polygon fill="midnightblue" stroke="midnightblue" points="1145.74,-137.11 1135.82,-133.39 1141.26,-142.48 1145.74,-137.11"/>
</g>
<!-- Node53 -->
<g id="node46" class="node">
<title>Node53</title>
<g id="a_node46"><a xlink:href="_number_string_math_8hpp.html" target="_top" xlink:title=" ">
<polygon fill="white" stroke="black" points="1180.88,-113 1180.88,-132.25 1297.38,-132.25 1297.38,-113 1180.88,-113"/>
<text text-anchor="middle" x="1239.12" y="-118.75" font-family="Helvetica,sans-Serif" font-size="10.00">NumberStringMath.hpp</text>
</a>
</g>
</g>
<!-- Node52&#45;&gt;Node53 -->
<g id="edge51" class="edge">
<title>Node52&#45;&gt;Node53</title>
<path fill="none" stroke="midnightblue" d="M1197.38,-168.92C1204.44,-161.25 1214.81,-150.01 1223.44,-140.64"/>
<polygon fill="midnightblue" stroke="midnightblue" points="1225.79,-143.25 1230,-133.53 1220.65,-138.51 1225.79,-143.25"/>
</g>
<!-- Node70&#45;&gt;Node63 -->
<g id="edge54" class="edge">
<title>Node70&#45;&gt;Node63</title>
<path fill="none" stroke="midnightblue" d="M2164.34,-232.49C2240.67,-229.14 2386.75,-219.03 2507.12,-189 2557.08,-176.54 2612.14,-152.7 2644.62,-137.51"/>
<polygon fill="midnightblue" stroke="midnightblue" points="2645.83,-140.81 2653.36,-133.37 2642.83,-134.49 2645.83,-140.81"/>
</g>
<!-- Node71&#45;&gt;Node47 -->
<g id="edge57" class="edge">
<title>Node71&#45;&gt;Node47</title>
<path fill="none" stroke="midnightblue" d="M2676.31,-225.11C2692.03,-217.77 2711.91,-205.85 2723.12,-189 2742.12,-160.45 2755.42,-138.56 2733.12,-112.5 2703.51,-77.89 2573.15,-69.64 2498.36,-67.79"/>
<polygon fill="midnightblue" stroke="midnightblue" points="2498.89,-64.3 2488.82,-67.59 2498.74,-71.3 2498.89,-64.3"/>
</g>
<!-- Node71&#45;&gt;Node63 -->
<g id="edge56" class="edge">
<title>Node71&#45;&gt;Node63</title>
<path fill="none" stroke="midnightblue" d="M2649.53,-225.07C2644.98,-212.28 2638.38,-188.32 2644.12,-168.75 2647,-158.95 2652.74,-149.26 2658.35,-141.39"/>
<polygon fill="midnightblue" stroke="midnightblue" points="2660.93,-143.78 2664.26,-133.72 2655.39,-139.51 2660.93,-143.78"/>
</g>
<!-- Node72 -->
<g id="node50" class="node">
<title>Node72</title>
<g id="a_node50"><a xlink:href="_token_8hpp.html" target="_top" xlink:title=" ">
<polygon fill="white" stroke="black" points="2652.62,-169.25 2652.62,-188.5 2713.62,-188.5 2713.62,-169.25 2652.62,-169.25"/>
<text text-anchor="middle" x="2683.12" y="-175" font-family="Helvetica,sans-Serif" font-size="10.00">Token.hpp</text>
</a>
</g>
</g>
<!-- Node71&#45;&gt;Node72 -->
<g id="edge58" class="edge">
<title>Node71&#45;&gt;Node72</title>
<path fill="none" stroke="midnightblue" d="M2658.08,-225.17C2662.05,-217.98 2667.77,-207.64 2672.74,-198.65"/>
<polygon fill="midnightblue" stroke="midnightblue" points="2675.75,-200.44 2677.53,-189.99 2669.63,-197.05 2675.75,-200.44"/>
</g>
<!-- Node72&#45;&gt;Node63 -->
<g id="edge59" class="edge">
<title>Node72&#45;&gt;Node63</title>
<path fill="none" stroke="midnightblue" d="M2681.47,-168.92C2680.21,-162.04 2678.41,-152.29 2676.81,-143.6"/>
<polygon fill="midnightblue" stroke="midnightblue" points="2680.27,-143.1 2675.02,-133.91 2673.39,-144.37 2680.27,-143.1"/>
</g>
</g>
</svg>
        <g id="navigator" transform="translate(0 0)" fill="#404254">
                <rect fill="#f2f5e9" fill-opacity="0.5" stroke="#606060" stroke-width=".5" x="0" y="0" width="60" height="60"/>
                <use id="zoomplus" xlink:href="#zoomPlus" x="17" y="9" onmousedown="handleZoom(evt,'in')"/>
                <use id="zoomminus" xlink:href="#zoomMin" x="42" y="9" onmousedown="handleZoom(evt,'out')"/>
                <use id="reset" xlink:href="#resetDef" x="30" y="36" onmousedown="handleReset()"/>
                <g id="arrowUp" xlink:href="#dirArrow" transform="translate(30 24)" onmousedown="handlePan(0,-1)">
                  <use xlink:href="#rim" fill="#404040">
                        <set attributeName="fill" to="#808080" begin="arrowUp.mouseover" end="arrowUp.mouseout"/>
                  </use>
                  <path fill="none" stroke="white" stroke-width="1.5" d="M0,-3.0v7 M-2.5,-0.5L0,-3.0L2.5,-0.5"/>
                </g>
                <g id="arrowRight" xlink:href="#dirArrow" transform="rotate(90) translate(36 -43)" onmousedown="handlePan(1,0)">
                  <use xlink:href="#rim" fill="#404040">
                        <set attributeName="fill" to="#808080" begin="arrowRight.mouseover" end="arrowRight.mouseout"/>
                  </use>
                  <path fill="none" stroke="white" stroke-width="1.5" d="M0,-3.0v7 M-2.5,-0.5L0,-3.0L2.5,-0.5"/>
                </g>
                <g id="arrowDown" xlink:href="#dirArrow" transform="rotate(180) translate(-30 -48)" onmousedown="handlePan(0,1)">
                  <use xlink:href="#rim" fill="#404040">
                        <set attributeName="fill" to="#808080" begin="arrowDown.mouseover" end="arrowDown.mouseout"/>
                  </use>
                  <path fill="none" stroke="white" stroke-width="1.5" d="M0,-3.0v7 M-2.5,-0.5L0,-3.0L2.5,-0.5"/>
                </g>
                <g id="arrowLeft" xlink:href="#dirArrow" transform="rotate(270) translate(-36 17)" onmousedown="handlePan(-1,0)">
                  <use xlink:href="#rim" fill="#404040">
                        <set attributeName="fill" to="#808080" begin="arrowLeft.mouseover" end="arrowLeft.mouseout"/>
                  </use>
                  <path fill="none" stroke="white" stroke-width="1.5" d="M0,-3.0v7 M-2.5,-0.5L0,-3.0L2.5,-0.5"/>
                </g>
        </g>
        <svg viewBox="0 0 15 15" width="100%" height="30px" preserveAspectRatio="xMaxYMin meet">
         <g id="arrow_out" transform="scale(0.3 0.3)">
          <a xlink:href="_rexx_instruction_8cpp__incl_org.svg" target="_base">
           <rect id="button" ry="5" rx="5" y="6" x="6" height="38" width="38"
                fill="#f2f5e9" fill-opacity="0.5" stroke="#606060" stroke-width="1.0"/>
           <path id="arrow"
             d="M 11.500037,31.436501 C 11.940474,20.09759 22.043105,11.32322 32.158766,21.979434 L 37.068811,17.246167 C 37.068811,17.246167 37.088388,32 37.088388,32 L 22.160133,31.978069 C 22.160133,31.978069 26.997745,27.140456 26.997745,27.140456 C 18.528582,18.264221 13.291696,25.230495 11.500037,31.436501 z"
             style="fill:#404040;"/>
          </a>
         </g>
        </svg>
</svg>
