<?xml version="1.0" encoding="UTF-8" standalone="no"?>
<!DOCTYPE svg PUBLIC "-//W3C//DTD SVG 1.1//EN"
 "http://www.w3.org/Graphics/SVG/1.1/DTD/svg11.dtd">
<!-- Generated by graphviz version 12.1.0 (20240811.2233)
 -->
<!-- Title: RexxCore.h Pages: 1 -->
<svg width="2856pt" height="310pt"
 viewBox="0.00 0.00 2856.00 309.50" xmlns="http://www.w3.org/2000/svg" xmlns:xlink="http://www.w3.org/1999/xlink">
<g id="graph0" class="graph" transform="scale(1 1) rotate(0) translate(4 305.5)">
<title>RexxCore.h</title>
<polygon fill="white" stroke="none" points="-4,4 -4,-305.5 2852,-305.5 2852,4 -4,4"/>
<!-- Node1 -->
<g id="node1" class="node">
<title>Node1</title>
<g id="a_node1"><a xlink:title=" ">
<polygon fill="#bfbfbf" stroke="black" points="1078.62,-281.75 1078.62,-301 1147.12,-301 1147.12,-281.75 1078.62,-281.75"/>
<text text-anchor="middle" x="1112.88" y="-287.5" font-family="Helvetica,sans-Serif" font-size="10.00">RexxCore.h</text>
</a>
</g>
</g>
<!-- Node2 -->
<g id="node2" class="node">
<title>Node2</title>
<g id="a_node2"><a xlink:href="oorexxapi_8h.html" target="_top" xlink:title=" ">
<polygon fill="white" stroke="black" points="192.75,-225.5 192.75,-244.75 259,-244.75 259,-225.5 192.75,-225.5"/>
<text text-anchor="middle" x="225.88" y="-231.25" font-family="Helvetica,sans-Serif" font-size="10.00">oorexxapi.h</text>
</a>
</g>
</g>
<!-- Node1&#45;&gt;Node2 -->
<g id="edge1" class="edge">
<title>Node1&#45;&gt;Node2</title>
<path fill="none" stroke="midnightblue" d="M1078.48,-290.51C964.62,-290.55 589.48,-287.36 270.58,-245.39"/>
<polygon fill="midnightblue" stroke="midnightblue" points="271.14,-241.94 260.76,-244.08 270.21,-248.88 271.14,-241.94"/>
</g>
<!-- Node9 -->
<g id="node9" class="node">
<title>Node9</title>
<g id="a_node9"><a xlink:title=" ">
<polygon fill="white" stroke="#bfbfbf" points="277.25,-225.5 277.25,-244.75 322.5,-244.75 322.5,-225.5 277.25,-225.5"/>
<text text-anchor="middle" x="299.88" y="-231.25" font-family="Helvetica,sans-Serif" font-size="10.00">stdio.h</text>
</a>
</g>
</g>
<!-- Node1&#45;&gt;Node9 -->
<g id="edge8" class="edge">
<title>Node1&#45;&gt;Node9</title>
<path fill="none" stroke="midnightblue" d="M1078.24,-289.43C949.6,-285.76 498.65,-271.42 333.67,-245.31"/>
<polygon fill="midnightblue" stroke="midnightblue" points="334.69,-241.94 324.25,-243.74 333.54,-248.84 334.69,-241.94"/>
</g>
<!-- Node10 -->
<g id="node10" class="node">
<title>Node10</title>
<g id="a_node10"><a xlink:title=" ">
<polygon fill="white" stroke="#bfbfbf" points="340.25,-225.5 340.25,-244.75 391.5,-244.75 391.5,-225.5 340.25,-225.5"/>
<text text-anchor="middle" x="365.88" y="-231.25" font-family="Helvetica,sans-Serif" font-size="10.00">stdarg.h</text>
</a>
</g>
</g>
<!-- Node1&#45;&gt;Node10 -->
<g id="edge9" class="edge">
<title>Node1&#45;&gt;Node10</title>
<path fill="none" stroke="midnightblue" d="M1078.16,-290.52C976,-290.46 667.51,-286.73 403.12,-245.27"/>
<polygon fill="midnightblue" stroke="midnightblue" points="403.67,-241.82 393.25,-243.7 402.57,-248.73 403.67,-241.82"/>
</g>
<!-- Node11 -->
<g id="node11" class="node">
<title>Node11</title>
<g id="a_node11"><a xlink:title=" ">
<polygon fill="white" stroke="#bfbfbf" points="409.75,-225.5 409.75,-244.75 458,-244.75 458,-225.5 409.75,-225.5"/>
<text text-anchor="middle" x="433.88" y="-231.25" font-family="Helvetica,sans-Serif" font-size="10.00">string.h</text>
</a>
</g>
</g>
<!-- Node1&#45;&gt;Node11 -->
<g id="edge10" class="edge">
<title>Node1&#45;&gt;Node11</title>
<path fill="none" stroke="midnightblue" d="M1078.27,-290.38C982.64,-289.89 706.72,-285.01 469.52,-245.37"/>
<polygon fill="midnightblue" stroke="midnightblue" points="470.2,-241.93 459.75,-243.71 469.02,-248.83 470.2,-241.93"/>
</g>
<!-- Node12 -->
<g id="node12" class="node">
<title>Node12</title>
<g id="a_node12"><a xlink:title=" ">
<polygon fill="white" stroke="#bfbfbf" points="475.75,-225.5 475.75,-244.75 524,-244.75 524,-225.5 475.75,-225.5"/>
<text text-anchor="middle" x="499.88" y="-231.25" font-family="Helvetica,sans-Serif" font-size="10.00">ctype.h</text>
</a>
</g>
</g>
<!-- Node1&#45;&gt;Node12 -->
<g id="edge11" class="edge">
<title>Node1&#45;&gt;Node12</title>
<path fill="none" stroke="midnightblue" d="M1078.27,-289.99C989.47,-288.52 746.3,-281.42 535.54,-245.39"/>
<polygon fill="midnightblue" stroke="midnightblue" points="536.21,-241.96 525.76,-243.69 535.01,-248.85 536.21,-241.96"/>
</g>
<!-- Node13 -->
<g id="node13" class="node">
<title>Node13</title>
<g id="a_node13"><a xlink:title=" ">
<polygon fill="white" stroke="#bfbfbf" points="542.12,-225.5 542.12,-244.75 589.62,-244.75 589.62,-225.5 542.12,-225.5"/>
<text text-anchor="middle" x="565.88" y="-231.25" font-family="Helvetica,sans-Serif" font-size="10.00">limits.h</text>
</a>
</g>
</g>
<!-- Node1&#45;&gt;Node13 -->
<g id="edge12" class="edge">
<title>Node1&#45;&gt;Node13</title>
<path fill="none" stroke="midnightblue" d="M1078.3,-289.51C996.77,-287.01 786.05,-277.86 601.2,-245.34"/>
<polygon fill="midnightblue" stroke="midnightblue" points="601.86,-241.9 591.4,-243.58 600.62,-248.79 601.86,-241.9"/>
</g>
<!-- Node14 -->
<g id="node14" class="node">
<title>Node14</title>
<g id="a_node14"><a xlink:title=" ">
<polygon fill="white" stroke="#bfbfbf" points="607.5,-225.5 607.5,-244.75 666.25,-244.75 666.25,-225.5 607.5,-225.5"/>
<text text-anchor="middle" x="636.88" y="-231.25" font-family="Helvetica,sans-Serif" font-size="10.00">stdexcept</text>
</a>
</g>
</g>
<!-- Node1&#45;&gt;Node14 -->
<g id="edge13" class="edge">
<title>Node1&#45;&gt;Node14</title>
<path fill="none" stroke="midnightblue" d="M1078.4,-288.31C1006.06,-283.65 832.98,-270.85 677.75,-245.35"/>
<polygon fill="midnightblue" stroke="midnightblue" points="678.54,-241.93 668.1,-243.74 677.39,-248.84 678.54,-241.93"/>
</g>
<!-- Node15 -->
<g id="node15" class="node">
<title>Node15</title>
<g id="a_node15"><a xlink:href="_rexx_platform_definitions_8h.html" target="_top" xlink:title=" ">
<polygon fill="white" stroke="black" points="684.5,-225.5 684.5,-244.75 815.25,-244.75 815.25,-225.5 684.5,-225.5"/>
<text text-anchor="middle" x="749.88" y="-231.25" font-family="Helvetica,sans-Serif" font-size="10.00">RexxPlatformDefinitions.h</text>
</a>
</g>
</g>
<!-- Node1&#45;&gt;Node15 -->
<g id="edge14" class="edge">
<title>Node1&#45;&gt;Node15</title>
<path fill="none" stroke="midnightblue" d="M1078.4,-285.22C1019.78,-276.46 899.52,-258.49 821.91,-246.89"/>
<polygon fill="midnightblue" stroke="midnightblue" points="822.68,-243.47 812.27,-245.45 821.65,-250.39 822.68,-243.47"/>
</g>
<!-- Node18 -->
<g id="node18" class="node">
<title>Node18</title>
<g id="a_node18"><a xlink:href="_rexx_constants_8hpp.html" target="_top" xlink:title=" ">
<polygon fill="white" stroke="black" points="833.38,-225.5 833.38,-244.75 936.38,-244.75 936.38,-225.5 833.38,-225.5"/>
<text text-anchor="middle" x="884.88" y="-231.25" font-family="Helvetica,sans-Serif" font-size="10.00">RexxConstants.hpp</text>
</a>
</g>
</g>
<!-- Node1&#45;&gt;Node18 -->
<g id="edge17" class="edge">
<title>Node1&#45;&gt;Node18</title>
<path fill="none" stroke="midnightblue" d="M1078.25,-282.14C1039.82,-272.99 977.52,-258.17 934.05,-247.83"/>
<polygon fill="midnightblue" stroke="midnightblue" points="934.89,-244.43 924.35,-245.52 933.27,-251.24 934.89,-244.43"/>
</g>
<!-- Node19 -->
<g id="node19" class="node">
<title>Node19</title>
<g id="a_node19"><a xlink:href="_class_type_codes_8h.html" target="_top" xlink:title=" ">
<polygon fill="white" stroke="black" points="698.25,-113 698.25,-132.25 797.5,-132.25 797.5,-113 698.25,-113"/>
<text text-anchor="middle" x="747.88" y="-118.75" font-family="Helvetica,sans-Serif" font-size="10.00">ClassTypeCodes.h</text>
</a>
</g>
</g>
<!-- Node1&#45;&gt;Node19 -->
<g id="edge18" class="edge">
<title>Node1&#45;&gt;Node19</title>
<path fill="none" stroke="midnightblue" d="M1082.66,-281.25C1056.19,-272.92 1016.91,-259.73 983.88,-245.25 966.35,-237.57 964,-231.15 945.88,-225 853.29,-193.6 792.09,-263.57 728.88,-189 717.68,-175.8 725.51,-156.3 734.27,-142.04"/>
<polygon fill="midnightblue" stroke="midnightblue" points="737,-144.24 739.7,-134 731.2,-140.33 737,-144.24"/>
</g>
<!-- Node20 -->
<g id="node20" class="node">
<title>Node20</title>
<g id="a_node20"><a xlink:href="_global_names_8h.html" target="_top" xlink:title=" ">
<polygon fill="white" stroke="black" points="1386.12,-225.5 1386.12,-244.75 1469.62,-244.75 1469.62,-225.5 1386.12,-225.5"/>
<text text-anchor="middle" x="1427.88" y="-231.25" font-family="Helvetica,sans-Serif" font-size="10.00">GlobalNames.h</text>
</a>
</g>
</g>
<!-- Node1&#45;&gt;Node20 -->
<g id="edge19" class="edge">
<title>Node1&#45;&gt;Node20</title>
<path fill="none" stroke="midnightblue" d="M1147.48,-284.55C1195.88,-276.38 1286.8,-260.96 1374.61,-245.64"/>
<polygon fill="midnightblue" stroke="midnightblue" points="1375.12,-249.1 1384.36,-243.93 1373.91,-242.2 1375.12,-249.1"/>
</g>
<!-- Node21 -->
<g id="node21" class="node">
<title>Node21</title>
<g id="a_node21"><a xlink:href="_object_class_8hpp.html" target="_top" xlink:title=" ">
<polygon fill="white" stroke="black" points="1140.5,-225.5 1140.5,-244.75 1229.25,-244.75 1229.25,-225.5 1140.5,-225.5"/>
<text text-anchor="middle" x="1184.88" y="-231.25" font-family="Helvetica,sans-Serif" font-size="10.00">ObjectClass.hpp</text>
</a>
</g>
</g>
<!-- Node1&#45;&gt;Node21 -->
<g id="edge20" class="edge">
<title>Node1&#45;&gt;Node21</title>
<path fill="none" stroke="midnightblue" d="M1124.76,-281.42C1135.46,-273.36 1151.41,-261.34 1164.19,-251.71"/>
<polygon fill="midnightblue" stroke="midnightblue" points="1166.12,-254.64 1172,-245.83 1161.91,-249.05 1166.12,-254.64"/>
</g>
<!-- Node24 -->
<g id="node24" class="node">
<title>Node24</title>
<g id="a_node24"><a xlink:href="_table_class_8hpp.html" target="_top" xlink:title=" ">
<polygon fill="white" stroke="black" points="1027.12,-113 1027.12,-132.25 1110.62,-132.25 1110.62,-113 1027.12,-113"/>
<text text-anchor="middle" x="1068.88" y="-118.75" font-family="Helvetica,sans-Serif" font-size="10.00">TableClass.hpp</text>
</a>
</g>
</g>
<!-- Node1&#45;&gt;Node24 -->
<g id="edge23" class="edge">
<title>Node1&#45;&gt;Node24</title>
<path fill="none" stroke="midnightblue" d="M1112.54,-281.27C1111.54,-260.67 1107.74,-209.18 1093.88,-168.75 1090.72,-159.55 1085.74,-150.03 1081.05,-142.12"/>
<polygon fill="midnightblue" stroke="midnightblue" points="1084.12,-140.42 1075.85,-133.8 1078.18,-144.13 1084.12,-140.42"/>
</g>
<!-- Node27 -->
<g id="node27" class="node">
<title>Node27</title>
<g id="a_node27"><a xlink:href="_stack_class_8hpp.html" target="_top" xlink:title=" ">
<polygon fill="white" stroke="black" points="1488,-225.5 1488,-244.75 1573.75,-244.75 1573.75,-225.5 1488,-225.5"/>
<text text-anchor="middle" x="1530.88" y="-231.25" font-family="Helvetica,sans-Serif" font-size="10.00">StackClass.hpp</text>
</a>
</g>
</g>
<!-- Node1&#45;&gt;Node27 -->
<g id="edge26" class="edge">
<title>Node1&#45;&gt;Node27</title>
<path fill="none" stroke="midnightblue" d="M1147.52,-286.7C1210.75,-279.86 1349.32,-264.29 1476.67,-245.51"/>
<polygon fill="midnightblue" stroke="midnightblue" points="1476.9,-249.02 1486.28,-244.09 1475.87,-242.09 1476.9,-249.02"/>
</g>
<!-- Node28 -->
<g id="node28" class="node">
<title>Node28</title>
<g id="a_node28"><a xlink:href="_rexx_memory_8hpp.html" target="_top" xlink:title=" ">
<polygon fill="white" stroke="black" points="993,-225.5 993,-244.75 1084.75,-244.75 1084.75,-225.5 993,-225.5"/>
<text text-anchor="middle" x="1038.88" y="-231.25" font-family="Helvetica,sans-Serif" font-size="10.00">RexxMemory.hpp</text>
</a>
</g>
</g>
<!-- Node1&#45;&gt;Node28 -->
<g id="edge27" class="edge">
<title>Node1&#45;&gt;Node28</title>
<path fill="none" stroke="midnightblue" d="M1100.66,-281.42C1089.73,-273.41 1073.47,-261.49 1060.37,-251.88"/>
<polygon fill="midnightblue" stroke="midnightblue" points="1062.47,-249.08 1052.33,-245.99 1058.33,-254.73 1062.47,-249.08"/>
</g>
<!-- Node35 -->
<g id="node33" class="node">
<title>Node35</title>
<g id="a_node33"><a xlink:href="_rexx_behaviour_8hpp.html" target="_top" xlink:title=" ">
<polygon fill="white" stroke="black" points="1591.5,-225.5 1591.5,-244.75 1692.25,-244.75 1692.25,-225.5 1591.5,-225.5"/>
<text text-anchor="middle" x="1641.88" y="-231.25" font-family="Helvetica,sans-Serif" font-size="10.00">RexxBehaviour.hpp</text>
</a>
</g>
</g>
<!-- Node1&#45;&gt;Node35 -->
<g id="edge35" class="edge">
<title>Node1&#45;&gt;Node35</title>
<path fill="none" stroke="midnightblue" d="M1147.45,-287.74C1223.62,-281.8 1411.89,-266.3 1579.77,-245.58"/>
<polygon fill="midnightblue" stroke="midnightblue" points="1580.06,-249.07 1589.55,-244.36 1579.19,-242.12 1580.06,-249.07"/>
</g>
<!-- Node37 -->
<g id="node35" class="node">
<title>Node37</title>
<g id="a_node35"><a xlink:href="_class_class_8hpp.html" target="_top" xlink:title=" ">
<polygon fill="white" stroke="black" points="1710,-225.5 1710,-244.75 1795.75,-244.75 1795.75,-225.5 1710,-225.5"/>
<text text-anchor="middle" x="1752.88" y="-231.25" font-family="Helvetica,sans-Serif" font-size="10.00">ClassClass.hpp</text>
</a>
</g>
</g>
<!-- Node1&#45;&gt;Node37 -->
<g id="edge37" class="edge">
<title>Node1&#45;&gt;Node37</title>
<path fill="none" stroke="midnightblue" d="M1147.46,-288.9C1236.84,-284.82 1483.01,-272.02 1698.31,-245.46"/>
<polygon fill="midnightblue" stroke="midnightblue" points="1698.52,-248.96 1708.01,-244.25 1697.65,-242.01 1698.52,-248.96"/>
</g>
<!-- Node38 -->
<g id="node36" class="node">
<title>Node38</title>
<g id="a_node36"><a xlink:href="_rexx_envelope_8hpp.html" target="_top" xlink:title=" ">
<polygon fill="white" stroke="black" points="1813.62,-225.5 1813.62,-244.75 1912.12,-244.75 1912.12,-225.5 1813.62,-225.5"/>
<text text-anchor="middle" x="1862.88" y="-231.25" font-family="Helvetica,sans-Serif" font-size="10.00">RexxEnvelope.hpp</text>
</a>
</g>
</g>
<!-- Node1&#45;&gt;Node38 -->
<g id="edge38" class="edge">
<title>Node1&#45;&gt;Node38</title>
<path fill="none" stroke="midnightblue" d="M1147.53,-289.23C1247.43,-285.69 1544.71,-273.52 1801.8,-245.5"/>
<polygon fill="midnightblue" stroke="midnightblue" points="1802.18,-248.98 1811.74,-244.4 1801.41,-242.02 1802.18,-248.98"/>
</g>
<!-- Node39 -->
<g id="node37" class="node">
<title>Node39</title>
<g id="a_node37"><a xlink:href="_rexx_activity_8hpp.html" target="_top" xlink:title=" ">
<polygon fill="white" stroke="black" points="2117.12,-225.5 2117.12,-244.75 2206.62,-244.75 2206.62,-225.5 2117.12,-225.5"/>
<text text-anchor="middle" x="2161.88" y="-231.25" font-family="Helvetica,sans-Serif" font-size="10.00">RexxActivity.hpp</text>
</a>
</g>
</g>
<!-- Node1&#45;&gt;Node39 -->
<g id="edge39" class="edge">
<title>Node1&#45;&gt;Node39</title>
<path fill="none" stroke="midnightblue" d="M1147.48,-288.59C1300.26,-280.68 1915.25,-248.88 2105.5,-239.04"/>
<polygon fill="midnightblue" stroke="midnightblue" points="2105.57,-242.54 2115.37,-238.53 2105.21,-235.55 2105.57,-242.54"/>
</g>
<!-- Node50 -->
<g id="node47" class="node">
<title>Node50</title>
<g id="a_node47"><a xlink:href="_number_string_class_8hpp.html" target="_top" xlink:title=" ">
<polygon fill="white" stroke="black" points="1247.75,-225.5 1247.75,-244.75 1368,-244.75 1368,-225.5 1247.75,-225.5"/>
<text text-anchor="middle" x="1307.88" y="-231.25" font-family="Helvetica,sans-Serif" font-size="10.00">NumberStringClass.hpp</text>
</a>
</g>
</g>
<!-- Node1&#45;&gt;Node50 -->
<g id="edge51" class="edge">
<title>Node1&#45;&gt;Node50</title>
<path fill="none" stroke="midnightblue" d="M1145.51,-281.29C1178.13,-272.22 1228.48,-258.21 1264.46,-248.2"/>
<polygon fill="midnightblue" stroke="midnightblue" points="1264.98,-251.69 1273.67,-245.64 1263.1,-244.95 1264.98,-251.69"/>
</g>
<!-- Node66 -->
<g id="node49" class="node">
<title>Node66</title>
<g id="a_node49"><a xlink:href="_activity_manager_8hpp.html" target="_top" xlink:title=" ">
<polygon fill="white" stroke="black" points="2731.62,-225.5 2731.62,-244.75 2836.12,-244.75 2836.12,-225.5 2731.62,-225.5"/>
<text text-anchor="middle" x="2783.88" y="-231.25" font-family="Helvetica,sans-Serif" font-size="10.00">ActivityManager.hpp</text>
</a>
</g>
</g>
<!-- Node1&#45;&gt;Node66 -->
<g id="edge54" class="edge">
<title>Node1&#45;&gt;Node66</title>
<path fill="none" stroke="midnightblue" d="M1147.41,-289.74C1312.58,-286.63 2038.48,-272.03 2632.88,-245.25 2661.46,-243.96 2693.06,-242.12 2719.93,-240.42"/>
<polygon fill="midnightblue" stroke="midnightblue" points="2719.87,-243.94 2729.63,-239.81 2719.42,-236.95 2719.87,-243.94"/>
</g>
<!-- Node3 -->
<g id="node3" class="node">
<title>Node3</title>
<g id="a_node3"><a xlink:href="rexx_8h.html" target="_top" xlink:title=" ">
<polygon fill="white" stroke="black" points="165.38,-169.25 165.38,-188.5 208.38,-188.5 208.38,-169.25 165.38,-169.25"/>
<text text-anchor="middle" x="186.88" y="-175" font-family="Helvetica,sans-Serif" font-size="10.00">rexx.h</text>
</a>
</g>
</g>
<!-- Node2&#45;&gt;Node3 -->
<g id="edge2" class="edge">
<title>Node2&#45;&gt;Node3</title>
<path fill="none" stroke="midnightblue" d="M219.43,-225.17C214.1,-217.74 206.34,-206.95 199.74,-197.77"/>
<polygon fill="midnightblue" stroke="midnightblue" points="202.76,-195.97 194.08,-189.9 197.07,-200.06 202.76,-195.97"/>
</g>
<!-- Node8 -->
<g id="node8" class="node">
<title>Node8</title>
<g id="a_node8"><a xlink:href="oorexxerrors_8h.html" target="_top" xlink:title=" ">
<polygon fill="white" stroke="black" points="226.75,-169.25 226.75,-188.5 305,-188.5 305,-169.25 226.75,-169.25"/>
<text text-anchor="middle" x="265.88" y="-175" font-family="Helvetica,sans-Serif" font-size="10.00">oorexxerrors.h</text>
</a>
</g>
</g>
<!-- Node2&#45;&gt;Node8 -->
<g id="edge7" class="edge">
<title>Node2&#45;&gt;Node8</title>
<path fill="none" stroke="midnightblue" d="M232.48,-225.17C237.96,-217.74 245.91,-206.95 252.68,-197.77"/>
<polygon fill="midnightblue" stroke="midnightblue" points="255.38,-200.01 258.49,-189.88 249.74,-195.86 255.38,-200.01"/>
</g>
<!-- Node4 -->
<g id="node4" class="node">
<title>Node4</title>
<g id="a_node4"><a xlink:title=" ">
<polygon fill="white" stroke="#bfbfbf" points="0,-113 0,-132.25 79.75,-132.25 79.75,-113 0,-113"/>
<text text-anchor="middle" x="39.88" y="-118.75" font-family="Helvetica,sans-Serif" font-size="10.00">rexxapitypes.h</text>
</a>
</g>
</g>
<!-- Node3&#45;&gt;Node4 -->
<g id="edge3" class="edge">
<title>Node3&#45;&gt;Node4</title>
<path fill="none" stroke="midnightblue" d="M165.18,-169.87C141.35,-161.08 102.74,-146.82 74.67,-136.46"/>
<polygon fill="midnightblue" stroke="midnightblue" points="76.12,-133.27 65.52,-133.09 73.69,-139.84 76.12,-133.27"/>
</g>
<!-- Node5 -->
<g id="node5" class="node">
<title>Node5</title>
<g id="a_node5"><a xlink:href="rexxapidefs_8h.html" target="_top" xlink:title=" ">
<polygon fill="white" stroke="black" points="97.62,-113 97.62,-132.25 172.12,-132.25 172.12,-113 97.62,-113"/>
<text text-anchor="middle" x="134.88" y="-118.75" font-family="Helvetica,sans-Serif" font-size="10.00">rexxapidefs.h</text>
</a>
</g>
</g>
<!-- Node3&#45;&gt;Node5 -->
<g id="edge4" class="edge">
<title>Node3&#45;&gt;Node5</title>
<path fill="none" stroke="midnightblue" d="M178.29,-168.92C170.94,-161.25 160.17,-150.01 151.19,-140.64"/>
<polygon fill="midnightblue" stroke="midnightblue" points="153.8,-138.31 144.35,-133.51 148.74,-143.15 153.8,-138.31"/>
</g>
<!-- Node6 -->
<g id="node6" class="node">
<title>Node6</title>
<g id="a_node6"><a xlink:title=" ">
<polygon fill="white" stroke="#bfbfbf" points="190.38,-113 190.38,-132.25 287.38,-132.25 287.38,-113 190.38,-113"/>
<text text-anchor="middle" x="238.88" y="-118.75" font-family="Helvetica,sans-Serif" font-size="10.00">rexxplatformdefs.h</text>
</a>
</g>
</g>
<!-- Node3&#45;&gt;Node6 -->
<g id="edge5" class="edge">
<title>Node3&#45;&gt;Node6</title>
<path fill="none" stroke="midnightblue" d="M195.46,-168.92C202.81,-161.25 213.58,-150.01 222.56,-140.64"/>
<polygon fill="midnightblue" stroke="midnightblue" points="225.01,-143.15 229.4,-133.51 219.95,-138.31 225.01,-143.15"/>
</g>
<!-- Node7 -->
<g id="node7" class="node">
<title>Node7</title>
<g id="a_node7"><a xlink:title=" ">
<polygon fill="white" stroke="#bfbfbf" points="305.75,-113 305.75,-132.25 402,-132.25 402,-113 305.75,-113"/>
<text text-anchor="middle" x="353.88" y="-118.75" font-family="Helvetica,sans-Serif" font-size="10.00">rexxplatformapis.h</text>
</a>
</g>
</g>
<!-- Node3&#45;&gt;Node7 -->
<g id="edge6" class="edge">
<title>Node3&#45;&gt;Node7</title>
<path fill="none" stroke="midnightblue" d="M208.71,-170.78C235.71,-162.01 282.17,-146.92 315.25,-136.17"/>
<polygon fill="midnightblue" stroke="midnightblue" points="316.04,-139.6 324.47,-133.18 313.88,-132.94 316.04,-139.6"/>
</g>
<!-- Node16 -->
<g id="node16" class="node">
<title>Node16</title>
<g id="a_node16"><a xlink:title=" ">
<polygon fill="white" stroke="#bfbfbf" points="459.12,-169.25 459.12,-188.5 566.62,-188.5 566.62,-169.25 459.12,-169.25"/>
<text text-anchor="middle" x="512.88" y="-175" font-family="Helvetica,sans-Serif" font-size="10.00">PlatformDefinitions.h</text>
</a>
</g>
</g>
<!-- Node15&#45;&gt;Node16 -->
<g id="edge15" class="edge">
<title>Node15&#45;&gt;Node16</title>
<path fill="none" stroke="midnightblue" d="M710.21,-225.04C669.96,-215.83 607.51,-201.54 563.67,-191.5"/>
<polygon fill="midnightblue" stroke="midnightblue" points="564.68,-188.14 554.15,-189.32 563.12,-194.97 564.68,-188.14"/>
</g>
<!-- Node17 -->
<g id="node17" class="node">
<title>Node17</title>
<g id="a_node17"><a xlink:href="_rexx_error_codes_8h.html" target="_top" xlink:title=" ">
<polygon fill="white" stroke="black" points="584.38,-169.25 584.38,-188.5 681.38,-188.5 681.38,-169.25 584.38,-169.25"/>
<text text-anchor="middle" x="632.88" y="-175" font-family="Helvetica,sans-Serif" font-size="10.00">RexxErrorCodes.h</text>
</a>
</g>
</g>
<!-- Node15&#45;&gt;Node17 -->
<g id="edge16" class="edge">
<title>Node15&#45;&gt;Node17</title>
<path fill="none" stroke="midnightblue" d="M730.29,-225.04C711.9,-216.52 684.12,-203.63 662.92,-193.81"/>
<polygon fill="midnightblue" stroke="midnightblue" points="664.44,-190.65 653.9,-189.62 661.5,-197 664.44,-190.65"/>
</g>
<!-- Node22 -->
<g id="node22" class="node">
<title>Node22</title>
<g id="a_node22"><a xlink:href="_numerics_8hpp.html" target="_top" xlink:title=" ">
<polygon fill="white" stroke="black" points="1306.5,-169.25 1306.5,-188.5 1383.25,-188.5 1383.25,-169.25 1306.5,-169.25"/>
<text text-anchor="middle" x="1344.88" y="-175" font-family="Helvetica,sans-Serif" font-size="10.00">Numerics.hpp</text>
</a>
</g>
</g>
<!-- Node21&#45;&gt;Node22 -->
<g id="edge21" class="edge">
<title>Node21&#45;&gt;Node22</title>
<path fill="none" stroke="midnightblue" d="M1211.66,-225.04C1237.84,-216.16 1277.96,-202.56 1307.33,-192.61"/>
<polygon fill="midnightblue" stroke="midnightblue" points="1308.23,-196 1316.57,-189.47 1305.98,-189.37 1308.23,-196"/>
</g>
<!-- Node23 -->
<g id="node23" class="node">
<title>Node23</title>
<g id="a_node23"><a xlink:title=" ">
<polygon fill="white" stroke="#bfbfbf" points="1211.25,-113 1211.25,-132.25 1262.5,-132.25 1262.5,-113 1211.25,-113"/>
<text text-anchor="middle" x="1236.88" y="-118.75" font-family="Helvetica,sans-Serif" font-size="10.00">stddef.h</text>
</a>
</g>
</g>
<!-- Node21&#45;&gt;Node23 -->
<g id="edge22" class="edge">
<title>Node21&#45;&gt;Node23</title>
<path fill="none" stroke="midnightblue" d="M1213.29,-225.07C1230.07,-218.09 1249.93,-206.59 1259.88,-189 1268.37,-173.98 1260.12,-155.26 1251.23,-141.71"/>
<polygon fill="midnightblue" stroke="midnightblue" points="1254.15,-139.78 1245.46,-133.73 1248.48,-143.89 1254.15,-139.78"/>
</g>
<!-- Node25 -->
<g id="node25" class="node">
<title>Node25</title>
<g id="a_node25"><a xlink:href="_rexx_collection_8hpp.html" target="_top" xlink:title=" ">
<polygon fill="white" stroke="black" points="1018.12,-56.75 1018.12,-76 1119.62,-76 1119.62,-56.75 1018.12,-56.75"/>
<text text-anchor="middle" x="1068.88" y="-62.5" font-family="Helvetica,sans-Serif" font-size="10.00">RexxCollection.hpp</text>
</a>
</g>
</g>
<!-- Node24&#45;&gt;Node25 -->
<g id="edge24" class="edge">
<title>Node24&#45;&gt;Node25</title>
<path fill="none" stroke="midnightblue" d="M1068.88,-112.67C1068.88,-105.87 1068.88,-96.26 1068.88,-87.65"/>
<polygon fill="midnightblue" stroke="midnightblue" points="1072.38,-87.68 1068.88,-77.68 1065.38,-87.68 1072.38,-87.68"/>
</g>
<!-- Node26 -->
<g id="node26" class="node">
<title>Node26</title>
<g id="a_node26"><a xlink:href="_rexx_hash_table_8hpp.html" target="_top" xlink:title=" ">
<polygon fill="white" stroke="black" points="1016.62,-0.5 1016.62,-19.75 1121.12,-19.75 1121.12,-0.5 1016.62,-0.5"/>
<text text-anchor="middle" x="1068.88" y="-6.25" font-family="Helvetica,sans-Serif" font-size="10.00">RexxHashTable.hpp</text>
</a>
</g>
</g>
<!-- Node25&#45;&gt;Node26 -->
<g id="edge25" class="edge">
<title>Node25&#45;&gt;Node26</title>
<path fill="none" stroke="midnightblue" d="M1068.88,-56.42C1068.88,-49.62 1068.88,-40.01 1068.88,-31.4"/>
<polygon fill="midnightblue" stroke="midnightblue" points="1072.38,-31.43 1068.88,-21.43 1065.38,-31.43 1072.38,-31.43"/>
</g>
<!-- Node29 -->
<g id="node29" class="node">
<title>Node29</title>
<g id="a_node29"><a xlink:title=" ">
<polygon fill="white" stroke="#bfbfbf" points="849.12,-169.25 849.12,-188.5 950.62,-188.5 950.62,-169.25 849.12,-169.25"/>
<text text-anchor="middle" x="899.88" y="-175" font-family="Helvetica,sans-Serif" font-size="10.00">SysSemaphore.hpp</text>
</a>
</g>
</g>
<!-- Node28&#45;&gt;Node29 -->
<g id="edge28" class="edge">
<title>Node28&#45;&gt;Node29</title>
<path fill="none" stroke="midnightblue" d="M1015.61,-225.04C993.26,-216.32 959.23,-203.04 933.85,-193.14"/>
<polygon fill="midnightblue" stroke="midnightblue" points="935.21,-189.91 924.63,-189.54 932.67,-196.43 935.21,-189.91"/>
</g>
<!-- Node30 -->
<g id="node30" class="node">
<title>Node30</title>
<g id="a_node30"><a xlink:href="_identity_table_class_8hpp.html" target="_top" xlink:title=" ">
<polygon fill="white" stroke="black" points="969,-169.25 969,-188.5 1084.75,-188.5 1084.75,-169.25 969,-169.25"/>
<text text-anchor="middle" x="1026.88" y="-175" font-family="Helvetica,sans-Serif" font-size="10.00">IdentityTableClass.hpp</text>
</a>
</g>
</g>
<!-- Node28&#45;&gt;Node30 -->
<g id="edge29" class="edge">
<title>Node28&#45;&gt;Node30</title>
<path fill="none" stroke="midnightblue" d="M1036.89,-225.17C1035.37,-218.29 1033.22,-208.54 1031.29,-199.85"/>
<polygon fill="midnightblue" stroke="midnightblue" points="1034.72,-199.15 1029.15,-190.14 1027.89,-200.66 1034.72,-199.15"/>
</g>
<!-- Node31 -->
<g id="node31" class="node">
<title>Node31</title>
<g id="a_node31"><a xlink:href="_memory_stats_8hpp.html" target="_top" xlink:title=" ">
<polygon fill="white" stroke="black" points="738.25,-169.25 738.25,-188.5 831.5,-188.5 831.5,-169.25 738.25,-169.25"/>
<text text-anchor="middle" x="784.88" y="-175" font-family="Helvetica,sans-Serif" font-size="10.00">MemoryStats.hpp</text>
</a>
</g>
</g>
<!-- Node28&#45;&gt;Node31 -->
<g id="edge31" class="edge">
<title>Node28&#45;&gt;Node31</title>
<path fill="none" stroke="midnightblue" d="M996.36,-225.04C953.05,-215.79 885.73,-201.42 838.72,-191.37"/>
<polygon fill="midnightblue" stroke="midnightblue" points="839.52,-187.97 829.01,-189.3 838.06,-194.81 839.52,-187.97"/>
</g>
<!-- Node32 -->
<g id="node32" class="node">
<title>Node32</title>
<g id="a_node32"><a xlink:href="_memory_segment_8hpp.html" target="_top" xlink:title=" ">
<polygon fill="white" stroke="red" points="1141.38,-169.25 1141.38,-188.5 1250.38,-188.5 1250.38,-169.25 1141.38,-169.25"/>
<text text-anchor="middle" x="1195.88" y="-175" font-family="Helvetica,sans-Serif" font-size="10.00">MemorySegment.hpp</text>
</a>
</g>
</g>
<!-- Node28&#45;&gt;Node32 -->
<g id="edge33" class="edge">
<title>Node28&#45;&gt;Node32</title>
<path fill="none" stroke="midnightblue" d="M1065.15,-225.04C1090.74,-216.2 1129.87,-202.68 1158.65,-192.74"/>
<polygon fill="midnightblue" stroke="midnightblue" points="1159.77,-196.05 1168.08,-189.48 1157.49,-189.44 1159.77,-196.05"/>
</g>
<!-- Node30&#45;&gt;Node24 -->
<g id="edge30" class="edge">
<title>Node30&#45;&gt;Node24</title>
<path fill="none" stroke="midnightblue" d="M1033.81,-168.92C1039.56,-161.49 1047.91,-150.7 1055.02,-141.52"/>
<polygon fill="midnightblue" stroke="midnightblue" points="1057.79,-143.66 1061.14,-133.61 1052.25,-139.38 1057.79,-143.66"/>
</g>
<!-- Node31&#45;&gt;Node19 -->
<g id="edge32" class="edge">
<title>Node31&#45;&gt;Node19</title>
<path fill="none" stroke="midnightblue" d="M778.77,-168.92C773.75,-161.57 766.5,-150.93 760.28,-141.81"/>
<polygon fill="midnightblue" stroke="midnightblue" points="763.25,-139.96 754.72,-133.67 757.47,-143.9 763.25,-139.96"/>
</g>
<!-- Node32&#45;&gt;Node23 -->
<g id="edge34" class="edge">
<title>Node32&#45;&gt;Node23</title>
<path fill="none" stroke="midnightblue" d="M1202.65,-168.92C1208.26,-161.49 1216.41,-150.7 1223.35,-141.52"/>
<polygon fill="midnightblue" stroke="midnightblue" points="1226.08,-143.71 1229.32,-133.62 1220.5,-139.49 1226.08,-143.71"/>
</g>
<!-- Node36 -->
<g id="node34" class="node">
<title>Node36</title>
<g id="a_node34"><a xlink:href="_primitive_behaviour_names_8h.html" target="_top" xlink:title=" ">
<polygon fill="white" stroke="black" points="1536.12,-169.25 1536.12,-188.5 1673.62,-188.5 1673.62,-169.25 1536.12,-169.25"/>
<text text-anchor="middle" x="1604.88" y="-175" font-family="Helvetica,sans-Serif" font-size="10.00">PrimitiveBehaviourNames.h</text>
</a>
</g>
</g>
<!-- Node35&#45;&gt;Node36 -->
<g id="edge36" class="edge">
<title>Node35&#45;&gt;Node36</title>
<path fill="none" stroke="midnightblue" d="M1635.77,-225.17C1630.75,-217.82 1623.5,-207.18 1617.28,-198.06"/>
<polygon fill="midnightblue" stroke="midnightblue" points="1620.25,-196.21 1611.72,-189.92 1614.47,-200.15 1620.25,-196.21"/>
</g>
<!-- Node40 -->
<g id="node38" class="node">
<title>Node40</title>
<g id="a_node38"><a xlink:href="_list_class_8hpp.html" target="_top" xlink:title=" ">
<polygon fill="white" stroke="red" points="1691.88,-169.25 1691.88,-188.5 1767.88,-188.5 1767.88,-169.25 1691.88,-169.25"/>
<text text-anchor="middle" x="1729.88" y="-175" font-family="Helvetica,sans-Serif" font-size="10.00">ListClass.hpp</text>
</a>
</g>
</g>
<!-- Node39&#45;&gt;Node40 -->
<g id="edge40" class="edge">
<title>Node39&#45;&gt;Node40</title>
<path fill="none" stroke="midnightblue" d="M2116.68,-229.94C2046.63,-223.21 1907.41,-208.86 1779.46,-189.3"/>
<polygon fill="midnightblue" stroke="midnightblue" points="1780.22,-185.88 1769.8,-187.81 1779.15,-192.8 1780.22,-185.88"/>
</g>
<!-- Node42 -->
<g id="node39" class="node">
<title>Node42</title>
<g id="a_node39"><a xlink:href="_rexx_internal_stack_8hpp.html" target="_top" xlink:title=" ">
<polygon fill="white" stroke="black" points="1786,-169.25 1786,-188.5 1901.75,-188.5 1901.75,-169.25 1786,-169.25"/>
<text text-anchor="middle" x="1843.88" y="-175" font-family="Helvetica,sans-Serif" font-size="10.00">RexxInternalStack.hpp</text>
</a>
</g>
</g>
<!-- Node39&#45;&gt;Node42 -->
<g id="edge41" class="edge">
<title>Node39&#45;&gt;Node42</title>
<path fill="none" stroke="midnightblue" d="M2116.65,-226.41C2062.17,-217.12 1970.26,-201.44 1908.36,-190.88"/>
<polygon fill="midnightblue" stroke="midnightblue" points="1909.1,-187.45 1898.66,-189.22 1907.93,-194.35 1909.1,-187.45"/>
</g>
<!-- Node43 -->
<g id="node40" class="node">
<title>Node43</title>
<g id="a_node40"><a xlink:href="_rexx_activation_stack_8hpp.html" target="_top" xlink:title=" ">
<polygon fill="white" stroke="black" points="1919.38,-169.25 1919.38,-188.5 2046.38,-188.5 2046.38,-169.25 1919.38,-169.25"/>
<text text-anchor="middle" x="1982.88" y="-175" font-family="Helvetica,sans-Serif" font-size="10.00">RexxActivationStack.hpp</text>
</a>
</g>
</g>
<!-- Node39&#45;&gt;Node43 -->
<g id="edge42" class="edge">
<title>Node39&#45;&gt;Node43</title>
<path fill="none" stroke="midnightblue" d="M2131.91,-225.04C2102.23,-216.05 2056.55,-202.2 2023.58,-192.21"/>
<polygon fill="midnightblue" stroke="midnightblue" points="2024.97,-188.97 2014.38,-189.42 2022.94,-195.67 2024.97,-188.97"/>
</g>
<!-- Node44 -->
<g id="node41" class="node">
<title>Node44</title>
<g id="a_node41"><a xlink:href="_expression_stack_8hpp.html" target="_top" xlink:title=" ">
<polygon fill="white" stroke="red" points="2064.38,-169.25 2064.38,-188.5 2173.38,-188.5 2173.38,-169.25 2064.38,-169.25"/>
<text text-anchor="middle" x="2118.88" y="-175" font-family="Helvetica,sans-Serif" font-size="10.00">ExpressionStack.hpp</text>
</a>
</g>
</g>
<!-- Node39&#45;&gt;Node44 -->
<g id="edge43" class="edge">
<title>Node39&#45;&gt;Node44</title>
<path fill="none" stroke="midnightblue" d="M2154.77,-225.17C2148.83,-217.66 2140.16,-206.72 2132.83,-197.48"/>
<polygon fill="midnightblue" stroke="midnightblue" points="2135.74,-195.52 2126.78,-189.85 2130.25,-199.86 2135.74,-195.52"/>
</g>
<!-- Node46 -->
<g id="node42" class="node">
<title>Node46</title>
<g id="a_node42"><a xlink:href="_rexx_local_variables_8hpp.html" target="_top" xlink:title=" ">
<polygon fill="white" stroke="red" points="2191.38,-169.25 2191.38,-188.5 2312.38,-188.5 2312.38,-169.25 2191.38,-169.25"/>
<text text-anchor="middle" x="2251.88" y="-175" font-family="Helvetica,sans-Serif" font-size="10.00">RexxLocalVariables.hpp</text>
</a>
</g>
</g>
<!-- Node39&#45;&gt;Node46 -->
<g id="edge44" class="edge">
<title>Node39&#45;&gt;Node46</title>
<path fill="none" stroke="midnightblue" d="M2176.74,-225.17C2190.55,-216.84 2211.36,-204.29 2227.59,-194.52"/>
<polygon fill="midnightblue" stroke="midnightblue" points="2228.94,-197.79 2235.69,-189.63 2225.32,-191.79 2228.94,-197.79"/>
</g>
<!-- Node61 -->
<g id="node43" class="node">
<title>Node61</title>
<g id="a_node43"><a xlink:href="_source_location_8hpp.html" target="_top" xlink:title=" ">
<polygon fill="white" stroke="black" points="2330.75,-169.25 2330.75,-188.5 2433,-188.5 2433,-169.25 2330.75,-169.25"/>
<text text-anchor="middle" x="2381.88" y="-175" font-family="Helvetica,sans-Serif" font-size="10.00">SourceLocation.hpp</text>
</a>
</g>
</g>
<!-- Node39&#45;&gt;Node61 -->
<g id="edge45" class="edge">
<title>Node39&#45;&gt;Node61</title>
<path fill="none" stroke="midnightblue" d="M2198.7,-225.04C2235.82,-215.89 2293.29,-201.72 2333.94,-191.69"/>
<polygon fill="midnightblue" stroke="midnightblue" points="2334.59,-195.14 2343.46,-189.35 2332.92,-188.34 2334.59,-195.14"/>
</g>
<!-- Node62 -->
<g id="node44" class="node">
<title>Node62</title>
<g id="a_node44"><a xlink:href="_exit_handler_8hpp.html" target="_top" xlink:title=" ">
<polygon fill="white" stroke="red" points="2552.38,-169.25 2552.38,-188.5 2637.38,-188.5 2637.38,-169.25 2552.38,-169.25"/>
<text text-anchor="middle" x="2594.88" y="-175" font-family="Helvetica,sans-Serif" font-size="10.00">ExitHandler.hpp</text>
</a>
</g>
</g>
<!-- Node39&#45;&gt;Node62 -->
<g id="edge46" class="edge">
<title>Node39&#45;&gt;Node62</title>
<path fill="none" stroke="midnightblue" d="M2206.98,-229.67C2276.53,-222.62 2414.4,-207.88 2541.01,-189.36"/>
<polygon fill="midnightblue" stroke="midnightblue" points="2541.17,-192.87 2550.56,-187.95 2540.15,-185.95 2541.17,-192.87"/>
</g>
<!-- Node64 -->
<g id="node45" class="node">
<title>Node64</title>
<g id="a_node45"><a xlink:href="_activation_api_contexts_8hpp.html" target="_top" xlink:title=" ">
<polygon fill="white" stroke="black" points="2655.75,-169.25 2655.75,-188.5 2788,-188.5 2788,-169.25 2655.75,-169.25"/>
<text text-anchor="middle" x="2721.88" y="-175" font-family="Helvetica,sans-Serif" font-size="10.00">ActivationApiContexts.hpp</text>
</a>
</g>
</g>
<!-- Node39&#45;&gt;Node64 -->
<g id="edge48" class="edge">
<title>Node39&#45;&gt;Node64</title>
<path fill="none" stroke="midnightblue" d="M2207.05,-230.35C2290.96,-223.25 2476.82,-207.08 2644.37,-189.24"/>
<polygon fill="midnightblue" stroke="midnightblue" points="2644.56,-192.74 2654.13,-188.2 2643.81,-185.78 2644.56,-192.74"/>
</g>
<!-- Node65 -->
<g id="node46" class="node">
<title>Node65</title>
<g id="a_node46"><a xlink:title=" ">
<polygon fill="white" stroke="#bfbfbf" points="2451.12,-169.25 2451.12,-188.5 2534.62,-188.5 2534.62,-169.25 2451.12,-169.25"/>
<text text-anchor="middle" x="2492.88" y="-175" font-family="Helvetica,sans-Serif" font-size="10.00">SysActivity.hpp</text>
</a>
</g>
</g>
<!-- Node39&#45;&gt;Node65 -->
<g id="edge50" class="edge">
<title>Node39&#45;&gt;Node65</title>
<path fill="none" stroke="midnightblue" d="M2207.02,-227.1C2260.12,-218.77 2351.25,-204.32 2439.55,-189.37"/>
<polygon fill="midnightblue" stroke="midnightblue" points="2440.09,-192.83 2449.37,-187.7 2438.92,-185.93 2440.09,-192.83"/>
</g>
<!-- Node62&#45;&gt;Node1 -->
<g id="edge47" class="edge">
<title>Node62&#45;&gt;Node1</title>
<path fill="none" stroke="midnightblue" d="M2552.78,-189C2483.1,-203.67 2339.21,-232.21 2215.88,-245.25 1807.22,-288.47 1309.36,-290.95 1158.39,-290.61"/>
<polygon fill="midnightblue" stroke="midnightblue" points="1158.83,-287.11 1148.82,-290.58 1158.81,-294.11 1158.83,-287.11"/>
</g>
<!-- Node64&#45;&gt;Node1 -->
<g id="edge49" class="edge">
<title>Node64&#45;&gt;Node1</title>
<path fill="none" stroke="midnightblue" d="M2674.72,-188.96C2596.68,-203.59 2435.59,-232.05 2297.88,-245.25 1855.52,-287.63 1316.68,-290.63 1158.54,-290.52"/>
<polygon fill="midnightblue" stroke="midnightblue" points="1158.9,-287.02 1148.9,-290.51 1158.9,-294.02 1158.9,-287.02"/>
</g>
<!-- Node50&#45;&gt;Node22 -->
<g id="edge52" class="edge">
<title>Node50&#45;&gt;Node22</title>
<path fill="none" stroke="midnightblue" d="M1313.98,-225.17C1319,-217.82 1326.25,-207.18 1332.47,-198.06"/>
<polygon fill="midnightblue" stroke="midnightblue" points="1335.28,-200.15 1338.03,-189.92 1329.5,-196.21 1335.28,-200.15"/>
</g>
<!-- Node51 -->
<g id="node48" class="node">
<title>Node51</title>
<g id="a_node48"><a xlink:href="_number_string_math_8hpp.html" target="_top" xlink:title=" ">
<polygon fill="white" stroke="black" points="1401.62,-169.25 1401.62,-188.5 1518.12,-188.5 1518.12,-169.25 1401.62,-169.25"/>
<text text-anchor="middle" x="1459.88" y="-175" font-family="Helvetica,sans-Serif" font-size="10.00">NumberStringMath.hpp</text>
</a>
</g>
</g>
<!-- Node50&#45;&gt;Node51 -->
<g id="edge53" class="edge">
<title>Node50&#45;&gt;Node51</title>
<path fill="none" stroke="midnightblue" d="M1333.32,-225.04C1358.09,-216.2 1395.97,-202.68 1423.84,-192.74"/>
<polygon fill="midnightblue" stroke="midnightblue" points="1424.68,-196.15 1432.93,-189.49 1422.33,-189.56 1424.68,-196.15"/>
</g>
<!-- Node67 -->
<g id="node50" class="node">
<title>Node67</title>
<g id="a_node50"><a xlink:title=" ">
<polygon fill="white" stroke="#bfbfbf" points="2805.75,-169.25 2805.75,-188.5 2848,-188.5 2848,-169.25 2805.75,-169.25"/>
<text text-anchor="middle" x="2826.88" y="-175" font-family="Helvetica,sans-Serif" font-size="10.00">deque</text>
</a>
</g>
</g>
<!-- Node66&#45;&gt;Node67 -->
<g id="edge55" class="edge">
<title>Node66&#45;&gt;Node67</title>
<path fill="none" stroke="midnightblue" d="M2790.98,-225.17C2796.92,-217.66 2805.59,-206.72 2812.92,-197.48"/>
<polygon fill="midnightblue" stroke="midnightblue" points="2815.5,-199.86 2818.97,-189.85 2810.01,-195.52 2815.5,-199.86"/>
</g>
</g>
</svg>
