<?xml version="1.0" encoding="UTF-8" standalone="no"?>
<!DOCTYPE svg PUBLIC "-//W3C//DTD SVG 1.1//EN"
 "http://www.w3.org/Graphics/SVG/1.1/DTD/svg11.dtd">
<!-- Generated by graphviz version 12.1.0 (20240811.2233)
 -->
<!-- Title: RexxVariable.cpp Pages: 1 -->
<svg width="2700pt" height="310pt"
 viewBox="0.00 0.00 2700.38 309.50" xmlns="http://www.w3.org/2000/svg" xmlns:xlink="http://www.w3.org/1999/xlink">
<g id="graph0" class="graph" transform="scale(1 1) rotate(0) translate(4 305.5)">
<title>RexxVariable.cpp</title>
<polygon fill="white" stroke="none" points="-4,4 -4,-305.5 2696.38,-305.5 2696.38,4 -4,4"/>
<!-- Node1 -->
<g id="node1" class="node">
<title>Node1</title>
<g id="a_node1"><a xlink:title=" ">
<polygon fill="#bfbfbf" stroke="black" points="1843.5,-281.75 1843.5,-301 1936,-301 1936,-281.75 1843.5,-281.75"/>
<text text-anchor="middle" x="1889.75" y="-287.5" font-family="Helvetica,sans-Serif" font-size="10.00">RexxVariable.cpp</text>
</a>
</g>
</g>
<!-- Node2 -->
<g id="node2" class="node">
<title>Node2</title>
<g id="a_node2"><a xlink:href="_rexx_core_8h.html" target="_top" xlink:title=" ">
<polygon fill="white" stroke="black" points="1100.5,-225.5 1100.5,-244.75 1169,-244.75 1169,-225.5 1100.5,-225.5"/>
<text text-anchor="middle" x="1134.75" y="-231.25" font-family="Helvetica,sans-Serif" font-size="10.00">RexxCore.h</text>
</a>
</g>
</g>
<!-- Node1&#45;&gt;Node2 -->
<g id="edge1" class="edge">
<title>Node1&#45;&gt;Node2</title>
<path fill="none" stroke="midnightblue" d="M1843.09,-287.02C1707.65,-277.29 1315.52,-249.11 1180.82,-239.44"/>
<polygon fill="midnightblue" stroke="midnightblue" points="1181.08,-235.95 1170.85,-238.72 1180.58,-242.93 1181.08,-235.95"/>
</g>
<!-- Node40 -->
<g id="node33" class="node">
<title>Node40</title>
<g id="a_node33"><a xlink:href="_rexx_activity_8hpp.html" target="_top" xlink:title=" ">
<polygon fill="white" stroke="black" points="1807,-169.25 1807,-188.5 1896.5,-188.5 1896.5,-169.25 1807,-169.25"/>
<text text-anchor="middle" x="1851.75" y="-175" font-family="Helvetica,sans-Serif" font-size="10.00">RexxActivity.hpp</text>
</a>
</g>
</g>
<!-- Node1&#45;&gt;Node40 -->
<g id="edge58" class="edge">
<title>Node1&#45;&gt;Node40</title>
<path fill="none" stroke="midnightblue" d="M1886.64,-281.33C1880.51,-263.52 1866.76,-223.52 1858.47,-199.41"/>
<polygon fill="midnightblue" stroke="midnightblue" points="1861.85,-198.48 1855.29,-190.17 1855.23,-200.76 1861.85,-198.48"/>
</g>
<!-- Node67 -->
<g id="node45" class="node">
<title>Node67</title>
<g id="a_node45"><a xlink:href="_activity_manager_8hpp.html" target="_top" xlink:title=" ">
<polygon fill="white" stroke="black" points="1914.5,-169.25 1914.5,-188.5 2019,-188.5 2019,-169.25 1914.5,-169.25"/>
<text text-anchor="middle" x="1966.75" y="-175" font-family="Helvetica,sans-Serif" font-size="10.00">ActivityManager.hpp</text>
</a>
</g>
</g>
<!-- Node1&#45;&gt;Node67 -->
<g id="edge59" class="edge">
<title>Node1&#45;&gt;Node67</title>
<path fill="none" stroke="midnightblue" d="M1896.05,-281.33C1908.69,-263.19 1937.36,-222.06 1954.05,-198.11"/>
<polygon fill="midnightblue" stroke="midnightblue" points="1956.87,-200.18 1959.71,-189.98 1951.12,-196.18 1956.87,-200.18"/>
</g>
<!-- Node49 -->
<g id="node47" class="node">
<title>Node49</title>
<g id="a_node47"><a xlink:href="_rexx_variable_8hpp.html" target="_top" xlink:title=" ">
<polygon fill="white" stroke="black" points="2198.5,-225.5 2198.5,-244.75 2291,-244.75 2291,-225.5 2198.5,-225.5"/>
<text text-anchor="middle" x="2244.75" y="-231.25" font-family="Helvetica,sans-Serif" font-size="10.00">RexxVariable.hpp</text>
</a>
</g>
</g>
<!-- Node1&#45;&gt;Node49 -->
<g id="edge52" class="edge">
<title>Node1&#45;&gt;Node49</title>
<path fill="none" stroke="midnightblue" d="M1936.16,-283.28C2000.52,-273.45 2116.83,-255.67 2186.81,-244.98"/>
<polygon fill="midnightblue" stroke="midnightblue" points="2187.19,-248.46 2196.55,-243.49 2186.14,-241.54 2187.19,-248.46"/>
</g>
<!-- Node3 -->
<g id="node3" class="node">
<title>Node3</title>
<g id="a_node3"><a xlink:href="oorexxapi_8h.html" target="_top" xlink:title=" ">
<polygon fill="white" stroke="black" points="865.62,-169.25 865.62,-188.5 931.88,-188.5 931.88,-169.25 865.62,-169.25"/>
<text text-anchor="middle" x="898.75" y="-175" font-family="Helvetica,sans-Serif" font-size="10.00">oorexxapi.h</text>
</a>
</g>
</g>
<!-- Node2&#45;&gt;Node3 -->
<g id="edge2" class="edge">
<title>Node2&#45;&gt;Node3</title>
<path fill="none" stroke="midnightblue" d="M1100.18,-226.18C1058.64,-216.63 988.84,-200.58 943.29,-190.11"/>
<polygon fill="midnightblue" stroke="midnightblue" points="944.27,-186.75 933.74,-187.92 942.7,-193.57 944.27,-186.75"/>
</g>
<!-- Node10 -->
<g id="node6" class="node">
<title>Node10</title>
<g id="a_node6"><a xlink:title=" ">
<polygon fill="white" stroke="#bfbfbf" points="1137.12,-169.25 1137.12,-188.5 1182.38,-188.5 1182.38,-169.25 1137.12,-169.25"/>
<text text-anchor="middle" x="1159.75" y="-175" font-family="Helvetica,sans-Serif" font-size="10.00">stdio.h</text>
</a>
</g>
</g>
<!-- Node2&#45;&gt;Node10 -->
<g id="edge5" class="edge">
<title>Node2&#45;&gt;Node10</title>
<path fill="none" stroke="midnightblue" d="M1138.88,-225.17C1142.15,-218.06 1146.85,-207.87 1150.96,-198.95"/>
<polygon fill="midnightblue" stroke="midnightblue" points="1154.06,-200.59 1155.07,-190.04 1147.7,-197.66 1154.06,-200.59"/>
</g>
<!-- Node11 -->
<g id="node7" class="node">
<title>Node11</title>
<g id="a_node7"><a xlink:title=" ">
<polygon fill="white" stroke="#bfbfbf" points="1200.12,-169.25 1200.12,-188.5 1251.38,-188.5 1251.38,-169.25 1200.12,-169.25"/>
<text text-anchor="middle" x="1225.75" y="-175" font-family="Helvetica,sans-Serif" font-size="10.00">stdarg.h</text>
</a>
</g>
</g>
<!-- Node2&#45;&gt;Node11 -->
<g id="edge6" class="edge">
<title>Node2&#45;&gt;Node11</title>
<path fill="none" stroke="midnightblue" d="M1149.78,-225.17C1163.74,-216.84 1184.79,-204.29 1201.19,-194.52"/>
<polygon fill="midnightblue" stroke="midnightblue" points="1202.6,-197.75 1209.4,-189.62 1199.02,-191.74 1202.6,-197.75"/>
</g>
<!-- Node12 -->
<g id="node8" class="node">
<title>Node12</title>
<g id="a_node8"><a xlink:title=" ">
<polygon fill="white" stroke="#bfbfbf" points="1269.62,-169.25 1269.62,-188.5 1317.88,-188.5 1317.88,-169.25 1269.62,-169.25"/>
<text text-anchor="middle" x="1293.75" y="-175" font-family="Helvetica,sans-Serif" font-size="10.00">string.h</text>
</a>
</g>
</g>
<!-- Node2&#45;&gt;Node12 -->
<g id="edge7" class="edge">
<title>Node2&#45;&gt;Node12</title>
<path fill="none" stroke="midnightblue" d="M1161.36,-225.04C1188.02,-215.95 1229.18,-201.91 1258.53,-191.89"/>
<polygon fill="midnightblue" stroke="midnightblue" points="1259.38,-195.3 1267.71,-188.76 1257.12,-188.68 1259.38,-195.3"/>
</g>
<!-- Node13 -->
<g id="node9" class="node">
<title>Node13</title>
<g id="a_node9"><a xlink:title=" ">
<polygon fill="white" stroke="#bfbfbf" points="1335.62,-169.25 1335.62,-188.5 1383.88,-188.5 1383.88,-169.25 1335.62,-169.25"/>
<text text-anchor="middle" x="1359.75" y="-175" font-family="Helvetica,sans-Serif" font-size="10.00">ctype.h</text>
</a>
</g>
</g>
<!-- Node2&#45;&gt;Node13 -->
<g id="edge8" class="edge">
<title>Node2&#45;&gt;Node13</title>
<path fill="none" stroke="midnightblue" d="M1169.18,-226.46C1205.43,-218.29 1264.42,-204.74 1324.12,-189.6"/>
<polygon fill="midnightblue" stroke="midnightblue" points="1324.98,-193 1333.8,-187.13 1323.25,-186.21 1324.98,-193"/>
</g>
<!-- Node14 -->
<g id="node10" class="node">
<title>Node14</title>
<g id="a_node10"><a xlink:title=" ">
<polygon fill="white" stroke="#bfbfbf" points="1402,-169.25 1402,-188.5 1449.5,-188.5 1449.5,-169.25 1402,-169.25"/>
<text text-anchor="middle" x="1425.75" y="-175" font-family="Helvetica,sans-Serif" font-size="10.00">limits.h</text>
</a>
</g>
</g>
<!-- Node2&#45;&gt;Node14 -->
<g id="edge9" class="edge">
<title>Node2&#45;&gt;Node14</title>
<path fill="none" stroke="midnightblue" d="M1169.18,-229.19C1216.76,-222.13 1305.49,-208.12 1390.51,-189.32"/>
<polygon fill="midnightblue" stroke="midnightblue" points="1391.2,-192.76 1400.19,-187.15 1389.67,-185.93 1391.2,-192.76"/>
</g>
<!-- Node15 -->
<g id="node11" class="node">
<title>Node15</title>
<g id="a_node11"><a xlink:title=" ">
<polygon fill="white" stroke="#bfbfbf" points="1505.38,-169.25 1505.38,-188.5 1564.12,-188.5 1564.12,-169.25 1505.38,-169.25"/>
<text text-anchor="middle" x="1534.75" y="-175" font-family="Helvetica,sans-Serif" font-size="10.00">stdexcept</text>
</a>
</g>
</g>
<!-- Node2&#45;&gt;Node15 -->
<g id="edge10" class="edge">
<title>Node2&#45;&gt;Node15</title>
<path fill="none" stroke="midnightblue" d="M1169.35,-230.72C1233.28,-224.22 1374.1,-208.88 1491.75,-189 1492.57,-188.86 1493.39,-188.72 1494.23,-188.57"/>
<polygon fill="midnightblue" stroke="midnightblue" points="1494.55,-192.07 1503.72,-186.77 1493.24,-185.2 1494.55,-192.07"/>
</g>
<!-- Node16 -->
<g id="node12" class="node">
<title>Node16</title>
<g id="a_node12"><a xlink:href="_rexx_platform_definitions_8h.html" target="_top" xlink:title=" ">
<polygon fill="white" stroke="black" points="950.38,-169.25 950.38,-188.5 1081.12,-188.5 1081.12,-169.25 950.38,-169.25"/>
<text text-anchor="middle" x="1015.75" y="-175" font-family="Helvetica,sans-Serif" font-size="10.00">RexxPlatformDefinitions.h</text>
</a>
</g>
</g>
<!-- Node2&#45;&gt;Node16 -->
<g id="edge11" class="edge">
<title>Node2&#45;&gt;Node16</title>
<path fill="none" stroke="midnightblue" d="M1114.83,-225.04C1096.04,-216.48 1067.61,-203.52 1046.01,-193.67"/>
<polygon fill="midnightblue" stroke="midnightblue" points="1047.66,-190.58 1037.11,-189.61 1044.76,-196.95 1047.66,-190.58"/>
</g>
<!-- Node19 -->
<g id="node15" class="node">
<title>Node19</title>
<g id="a_node15"><a xlink:href="_rexx_constants_8hpp.html" target="_top" xlink:title=" ">
<polygon fill="white" stroke="black" points="1582.25,-169.25 1582.25,-188.5 1685.25,-188.5 1685.25,-169.25 1582.25,-169.25"/>
<text text-anchor="middle" x="1633.75" y="-175" font-family="Helvetica,sans-Serif" font-size="10.00">RexxConstants.hpp</text>
</a>
</g>
</g>
<!-- Node2&#45;&gt;Node19 -->
<g id="edge14" class="edge">
<title>Node2&#45;&gt;Node19</title>
<path fill="none" stroke="midnightblue" d="M1169.45,-231.1C1241.86,-224.65 1414.61,-208.68 1570.65,-189.21"/>
<polygon fill="midnightblue" stroke="midnightblue" points="1570.87,-192.71 1580.36,-187.99 1570,-185.77 1570.87,-192.71"/>
</g>
<!-- Node20 -->
<g id="node16" class="node">
<title>Node20</title>
<g id="a_node16"><a xlink:href="_class_type_codes_8h.html" target="_top" xlink:title=" ">
<polygon fill="white" stroke="black" points="485.12,-56.75 485.12,-76 584.38,-76 584.38,-56.75 485.12,-56.75"/>
<text text-anchor="middle" x="534.75" y="-62.5" font-family="Helvetica,sans-Serif" font-size="10.00">ClassTypeCodes.h</text>
</a>
</g>
</g>
<!-- Node2&#45;&gt;Node20 -->
<g id="edge15" class="edge">
<title>Node2&#45;&gt;Node20</title>
<path fill="none" stroke="midnightblue" d="M1100.13,-233.56C946.48,-230.87 332.52,-218.32 304.75,-189 281.37,-164.31 283.15,-138.75 304.75,-112.5 325.73,-87 412.54,-75.7 473.29,-70.84"/>
<polygon fill="midnightblue" stroke="midnightblue" points="473.47,-74.34 483.18,-70.09 472.94,-67.35 473.47,-74.34"/>
</g>
<!-- Node21 -->
<g id="node17" class="node">
<title>Node21</title>
<g id="a_node17"><a xlink:href="_global_names_8h.html" target="_top" xlink:title=" ">
<polygon fill="white" stroke="black" points="136,-169.25 136,-188.5 219.5,-188.5 219.5,-169.25 136,-169.25"/>
<text text-anchor="middle" x="177.75" y="-175" font-family="Helvetica,sans-Serif" font-size="10.00">GlobalNames.h</text>
</a>
</g>
</g>
<!-- Node2&#45;&gt;Node21 -->
<g id="edge16" class="edge">
<title>Node2&#45;&gt;Node21</title>
<path fill="none" stroke="midnightblue" d="M1100.27,-233.78C980.31,-232.29 570.16,-224.72 233.75,-189 232.91,-188.91 232.05,-188.82 231.2,-188.72"/>
<polygon fill="midnightblue" stroke="midnightblue" points="231.75,-185.26 221.38,-187.45 230.85,-192.2 231.75,-185.26"/>
</g>
<!-- Node22 -->
<g id="node18" class="node">
<title>Node22</title>
<g id="a_node18"><a xlink:href="_object_class_8hpp.html" target="_top" xlink:title=" ">
<polygon fill="white" stroke="black" points="169.38,-113 169.38,-132.25 258.12,-132.25 258.12,-113 169.38,-113"/>
<text text-anchor="middle" x="213.75" y="-118.75" font-family="Helvetica,sans-Serif" font-size="10.00">ObjectClass.hpp</text>
</a>
</g>
</g>
<!-- Node2&#45;&gt;Node22 -->
<g id="edge17" class="edge">
<title>Node2&#45;&gt;Node22</title>
<path fill="none" stroke="midnightblue" d="M1100.21,-233.89C948.72,-232.63 347.28,-225.36 271.75,-189 250.87,-178.95 234.26,-157.62 224.25,-142.04"/>
<polygon fill="midnightblue" stroke="midnightblue" points="227.37,-140.43 219.2,-133.69 221.38,-144.06 227.37,-140.43"/>
</g>
<!-- Node25 -->
<g id="node21" class="node">
<title>Node25</title>
<g id="a_node21"><a xlink:href="_table_class_8hpp.html" target="_top" xlink:title=" ">
<polygon fill="white" stroke="black" points="9,-56.75 9,-76 92.5,-76 92.5,-56.75 9,-56.75"/>
<text text-anchor="middle" x="50.75" y="-62.5" font-family="Helvetica,sans-Serif" font-size="10.00">TableClass.hpp</text>
</a>
</g>
</g>
<!-- Node2&#45;&gt;Node25 -->
<g id="edge20" class="edge">
<title>Node2&#45;&gt;Node25</title>
<path fill="none" stroke="midnightblue" d="M1100.11,-233.53C933.86,-230.53 221.86,-216.2 126.75,-189 77.72,-174.98 52.49,-176.77 26.75,-132.75 17.91,-117.63 26.76,-98.69 36.1,-85.1"/>
<polygon fill="midnightblue" stroke="midnightblue" points="38.62,-87.57 41.84,-77.48 33.03,-83.36 38.62,-87.57"/>
</g>
<!-- Node28 -->
<g id="node23" class="node">
<title>Node28</title>
<g id="a_node23"><a xlink:href="_stack_class_8hpp.html" target="_top" xlink:title=" ">
<polygon fill="white" stroke="black" points="313.88,-169.25 313.88,-188.5 399.62,-188.5 399.62,-169.25 313.88,-169.25"/>
<text text-anchor="middle" x="356.75" y="-175" font-family="Helvetica,sans-Serif" font-size="10.00">StackClass.hpp</text>
</a>
</g>
</g>
<!-- Node2&#45;&gt;Node28 -->
<g id="edge22" class="edge">
<title>Node2&#45;&gt;Node28</title>
<path fill="none" stroke="midnightblue" d="M1100.24,-233.35C997.17,-230.73 682.44,-220.66 411.36,-189.18"/>
<polygon fill="midnightblue" stroke="midnightblue" points="411.95,-185.72 401.61,-188.03 411.13,-192.68 411.95,-185.72"/>
</g>
<!-- Node29 -->
<g id="node24" class="node">
<title>Node29</title>
<g id="a_node24"><a xlink:href="_rexx_memory_8hpp.html" target="_top" xlink:title=" ">
<polygon fill="white" stroke="black" points="417.88,-169.25 417.88,-188.5 509.62,-188.5 509.62,-169.25 417.88,-169.25"/>
<text text-anchor="middle" x="463.75" y="-175" font-family="Helvetica,sans-Serif" font-size="10.00">RexxMemory.hpp</text>
</a>
</g>
</g>
<!-- Node2&#45;&gt;Node29 -->
<g id="edge23" class="edge">
<title>Node2&#45;&gt;Node29</title>
<path fill="none" stroke="midnightblue" d="M1100.25,-232.7C1008.03,-228.67 747.98,-215.76 521.04,-189.17"/>
<polygon fill="midnightblue" stroke="midnightblue" points="521.77,-185.73 511.42,-188.03 520.94,-192.68 521.77,-185.73"/>
</g>
<!-- Node36 -->
<g id="node29" class="node">
<title>Node36</title>
<g id="a_node29"><a xlink:href="_rexx_behaviour_8hpp.html" target="_top" xlink:title=" ">
<polygon fill="white" stroke="black" points="527.38,-169.25 527.38,-188.5 628.12,-188.5 628.12,-169.25 527.38,-169.25"/>
<text text-anchor="middle" x="577.75" y="-175" font-family="Helvetica,sans-Serif" font-size="10.00">RexxBehaviour.hpp</text>
</a>
</g>
</g>
<!-- Node2&#45;&gt;Node36 -->
<g id="edge31" class="edge">
<title>Node2&#45;&gt;Node36</title>
<path fill="none" stroke="midnightblue" d="M1100.26,-231.75C1020.87,-226.13 818.89,-210.91 639.79,-189.31"/>
<polygon fill="midnightblue" stroke="midnightblue" points="640.42,-185.86 630.07,-188.13 639.58,-192.81 640.42,-185.86"/>
</g>
<!-- Node38 -->
<g id="node31" class="node">
<title>Node38</title>
<g id="a_node31"><a xlink:href="_class_class_8hpp.html" target="_top" xlink:title=" ">
<polygon fill="white" stroke="black" points="645.88,-169.25 645.88,-188.5 731.62,-188.5 731.62,-169.25 645.88,-169.25"/>
<text text-anchor="middle" x="688.75" y="-175" font-family="Helvetica,sans-Serif" font-size="10.00">ClassClass.hpp</text>
</a>
</g>
</g>
<!-- Node2&#45;&gt;Node38 -->
<g id="edge33" class="edge">
<title>Node2&#45;&gt;Node38</title>
<path fill="none" stroke="midnightblue" d="M1100.14,-230.86C1033.26,-224.41 881.4,-209.02 743.06,-189.26"/>
<polygon fill="midnightblue" stroke="midnightblue" points="743.74,-185.82 733.35,-187.86 742.75,-192.75 743.74,-185.82"/>
</g>
<!-- Node39 -->
<g id="node32" class="node">
<title>Node39</title>
<g id="a_node32"><a xlink:href="_rexx_envelope_8hpp.html" target="_top" xlink:title=" ">
<polygon fill="white" stroke="black" points="749.5,-169.25 749.5,-188.5 848,-188.5 848,-169.25 749.5,-169.25"/>
<text text-anchor="middle" x="798.75" y="-175" font-family="Helvetica,sans-Serif" font-size="10.00">RexxEnvelope.hpp</text>
</a>
</g>
</g>
<!-- Node2&#45;&gt;Node39 -->
<g id="edge34" class="edge">
<title>Node2&#45;&gt;Node39</title>
<path fill="none" stroke="midnightblue" d="M1100.06,-228.52C1043.36,-219.37 930.11,-201.08 859.75,-189.72"/>
<polygon fill="midnightblue" stroke="midnightblue" points="860.34,-186.27 849.91,-188.14 859.22,-193.18 860.34,-186.27"/>
</g>
<!-- Node2&#45;&gt;Node40 -->
<g id="edge35" class="edge">
<title>Node2&#45;&gt;Node40</title>
<path fill="none" stroke="midnightblue" d="M1169.33,-231.51C1284.15,-222.82 1653.46,-194.88 1795.42,-184.14"/>
<polygon fill="midnightblue" stroke="midnightblue" points="1795.63,-187.63 1805.34,-183.39 1795.1,-180.65 1795.63,-187.63"/>
</g>
<!-- Node51 -->
<g id="node43" class="node">
<title>Node51</title>
<g id="a_node43"><a xlink:href="_number_string_class_8hpp.html" target="_top" xlink:title=" ">
<polygon fill="white" stroke="black" points="1865.62,-56.75 1865.62,-76 1985.88,-76 1985.88,-56.75 1865.62,-56.75"/>
<text text-anchor="middle" x="1925.75" y="-62.5" font-family="Helvetica,sans-Serif" font-size="10.00">NumberStringClass.hpp</text>
</a>
</g>
</g>
<!-- Node2&#45;&gt;Node51 -->
<g id="edge47" class="edge">
<title>Node2&#45;&gt;Node51</title>
<path fill="none" stroke="midnightblue" d="M1169.22,-233.99C1285.51,-233.19 1658.14,-227.6 1693.75,-189 1787.93,-86.91 1296.76,-214.76 1390.75,-112.5 1421.47,-79.08 1715.14,-70.39 1853.85,-68.15"/>
<polygon fill="midnightblue" stroke="midnightblue" points="1853.72,-71.65 1863.66,-68 1853.61,-64.65 1853.72,-71.65"/>
</g>
<!-- Node2&#45;&gt;Node67 -->
<g id="edge50" class="edge">
<title>Node2&#45;&gt;Node67</title>
<path fill="none" stroke="midnightblue" d="M1169.42,-233.21C1276.81,-230.13 1613.65,-218.73 1903.07,-189.19"/>
<polygon fill="midnightblue" stroke="midnightblue" points="1903.12,-192.7 1912.71,-188.2 1902.4,-185.74 1903.12,-192.7"/>
</g>
<!-- Node4 -->
<g id="node4" class="node">
<title>Node4</title>
<g id="a_node4"><a xlink:href="rexx_8h.html" target="_top" xlink:title=" ">
<polygon fill="white" stroke="red" points="826.25,-113 826.25,-132.25 869.25,-132.25 869.25,-113 826.25,-113"/>
<text text-anchor="middle" x="847.75" y="-118.75" font-family="Helvetica,sans-Serif" font-size="10.00">rexx.h</text>
</a>
</g>
</g>
<!-- Node3&#45;&gt;Node4 -->
<g id="edge3" class="edge">
<title>Node3&#45;&gt;Node4</title>
<path fill="none" stroke="midnightblue" d="M890.33,-168.92C883.12,-161.25 872.56,-150.01 863.75,-140.64"/>
<polygon fill="midnightblue" stroke="midnightblue" points="866.45,-138.41 857.05,-133.52 861.35,-143.2 866.45,-138.41"/>
</g>
<!-- Node9 -->
<g id="node5" class="node">
<title>Node9</title>
<g id="a_node5"><a xlink:href="oorexxerrors_8h.html" target="_top" xlink:title=" ">
<polygon fill="white" stroke="black" points="887.62,-113 887.62,-132.25 965.88,-132.25 965.88,-113 887.62,-113"/>
<text text-anchor="middle" x="926.75" y="-118.75" font-family="Helvetica,sans-Serif" font-size="10.00">oorexxerrors.h</text>
</a>
</g>
</g>
<!-- Node3&#45;&gt;Node9 -->
<g id="edge4" class="edge">
<title>Node3&#45;&gt;Node9</title>
<path fill="none" stroke="midnightblue" d="M903.37,-168.92C907.08,-161.73 912.42,-151.39 917.06,-142.4"/>
<polygon fill="midnightblue" stroke="midnightblue" points="920.04,-144.25 921.52,-133.76 913.82,-141.04 920.04,-144.25"/>
</g>
<!-- Node17 -->
<g id="node13" class="node">
<title>Node17</title>
<g id="a_node13"><a xlink:title=" ">
<polygon fill="white" stroke="#bfbfbf" points="984,-113 984,-132.25 1091.5,-132.25 1091.5,-113 984,-113"/>
<text text-anchor="middle" x="1037.75" y="-118.75" font-family="Helvetica,sans-Serif" font-size="10.00">PlatformDefinitions.h</text>
</a>
</g>
</g>
<!-- Node16&#45;&gt;Node17 -->
<g id="edge12" class="edge">
<title>Node16&#45;&gt;Node17</title>
<path fill="none" stroke="midnightblue" d="M1019.38,-168.92C1022.23,-161.89 1026.31,-151.84 1029.89,-143"/>
<polygon fill="midnightblue" stroke="midnightblue" points="1033.1,-144.4 1033.62,-133.82 1026.61,-141.77 1033.1,-144.4"/>
</g>
<!-- Node18 -->
<g id="node14" class="node">
<title>Node18</title>
<g id="a_node14"><a xlink:href="_rexx_error_codes_8h.html" target="_top" xlink:title=" ">
<polygon fill="white" stroke="black" points="1109.25,-113 1109.25,-132.25 1206.25,-132.25 1206.25,-113 1109.25,-113"/>
<text text-anchor="middle" x="1157.75" y="-118.75" font-family="Helvetica,sans-Serif" font-size="10.00">RexxErrorCodes.h</text>
</a>
</g>
</g>
<!-- Node16&#45;&gt;Node18 -->
<g id="edge13" class="edge">
<title>Node16&#45;&gt;Node18</title>
<path fill="none" stroke="midnightblue" d="M1039.52,-168.79C1062.45,-160.03 1097.42,-146.67 1123.39,-136.75"/>
<polygon fill="midnightblue" stroke="midnightblue" points="1124.4,-140.11 1132.49,-133.28 1121.9,-133.57 1124.4,-140.11"/>
</g>
<!-- Node23 -->
<g id="node19" class="node">
<title>Node23</title>
<g id="a_node19"><a xlink:href="_numerics_8hpp.html" target="_top" xlink:title=" ">
<polygon fill="white" stroke="black" points="655.38,-0.5 655.38,-19.75 732.12,-19.75 732.12,-0.5 655.38,-0.5"/>
<text text-anchor="middle" x="693.75" y="-6.25" font-family="Helvetica,sans-Serif" font-size="10.00">Numerics.hpp</text>
</a>
</g>
</g>
<!-- Node22&#45;&gt;Node23 -->
<g id="edge18" class="edge">
<title>Node22&#45;&gt;Node23</title>
<path fill="none" stroke="midnightblue" d="M223.36,-112.57C239.54,-97.93 273.89,-69.36 308.75,-56.25 368.94,-33.61 553.85,-19.62 643.7,-13.99"/>
<polygon fill="midnightblue" stroke="midnightblue" points="643.67,-17.5 653.44,-13.39 643.24,-10.51 643.67,-17.5"/>
</g>
<!-- Node24 -->
<g id="node20" class="node">
<title>Node24</title>
<g id="a_node20"><a xlink:title=" ">
<polygon fill="white" stroke="#bfbfbf" points="318.12,-56.75 318.12,-76 369.38,-76 369.38,-56.75 318.12,-56.75"/>
<text text-anchor="middle" x="343.75" y="-62.5" font-family="Helvetica,sans-Serif" font-size="10.00">stddef.h</text>
</a>
</g>
</g>
<!-- Node22&#45;&gt;Node24 -->
<g id="edge19" class="edge">
<title>Node22&#45;&gt;Node24</title>
<path fill="none" stroke="midnightblue" d="M235.51,-112.54C256.23,-103.9 287.67,-90.78 311.33,-80.9"/>
<polygon fill="midnightblue" stroke="midnightblue" points="312.64,-84.15 320.52,-77.07 309.95,-77.69 312.64,-84.15"/>
</g>
<!-- Node26 -->
<g id="node22" class="node">
<title>Node26</title>
<g id="a_node22"><a xlink:href="_rexx_collection_8hpp.html" target="_top" xlink:title=" ">
<polygon fill="white" stroke="red" points="0,-0.5 0,-19.75 101.5,-19.75 101.5,-0.5 0,-0.5"/>
<text text-anchor="middle" x="50.75" y="-6.25" font-family="Helvetica,sans-Serif" font-size="10.00">RexxCollection.hpp</text>
</a>
</g>
</g>
<!-- Node25&#45;&gt;Node26 -->
<g id="edge21" class="edge">
<title>Node25&#45;&gt;Node26</title>
<path fill="none" stroke="midnightblue" d="M50.75,-56.42C50.75,-49.62 50.75,-40.01 50.75,-31.4"/>
<polygon fill="midnightblue" stroke="midnightblue" points="54.25,-31.43 50.75,-21.43 47.25,-31.43 54.25,-31.43"/>
</g>
<!-- Node30 -->
<g id="node25" class="node">
<title>Node30</title>
<g id="a_node25"><a xlink:title=" ">
<polygon fill="white" stroke="#bfbfbf" points="441,-113 441,-132.25 542.5,-132.25 542.5,-113 441,-113"/>
<text text-anchor="middle" x="491.75" y="-118.75" font-family="Helvetica,sans-Serif" font-size="10.00">SysSemaphore.hpp</text>
</a>
</g>
</g>
<!-- Node29&#45;&gt;Node30 -->
<g id="edge24" class="edge">
<title>Node29&#45;&gt;Node30</title>
<path fill="none" stroke="midnightblue" d="M468.37,-168.92C472.08,-161.73 477.42,-151.39 482.06,-142.4"/>
<polygon fill="midnightblue" stroke="midnightblue" points="485.04,-144.25 486.52,-133.76 478.82,-141.04 485.04,-144.25"/>
</g>
<!-- Node31 -->
<g id="node26" class="node">
<title>Node31</title>
<g id="a_node26"><a xlink:href="_identity_table_class_8hpp.html" target="_top" xlink:title=" ">
<polygon fill="white" stroke="black" points="35.88,-113 35.88,-132.25 151.62,-132.25 151.62,-113 35.88,-113"/>
<text text-anchor="middle" x="93.75" y="-118.75" font-family="Helvetica,sans-Serif" font-size="10.00">IdentityTableClass.hpp</text>
</a>
</g>
</g>
<!-- Node29&#45;&gt;Node31 -->
<g id="edge25" class="edge">
<title>Node29&#45;&gt;Node31</title>
<path fill="none" stroke="midnightblue" d="M417.55,-170.13C414.57,-169.66 411.62,-169.19 408.75,-168.75 324.28,-155.69 226.86,-141.94 163,-133.1"/>
<polygon fill="midnightblue" stroke="midnightblue" points="163.75,-129.67 153.36,-131.77 162.79,-136.6 163.75,-129.67"/>
</g>
<!-- Node32 -->
<g id="node27" class="node">
<title>Node32</title>
<g id="a_node27"><a xlink:href="_memory_stats_8hpp.html" target="_top" xlink:title=" ">
<polygon fill="white" stroke="black" points="560.12,-113 560.12,-132.25 653.38,-132.25 653.38,-113 560.12,-113"/>
<text text-anchor="middle" x="606.75" y="-118.75" font-family="Helvetica,sans-Serif" font-size="10.00">MemoryStats.hpp</text>
</a>
</g>
</g>
<!-- Node29&#45;&gt;Node32 -->
<g id="edge27" class="edge">
<title>Node29&#45;&gt;Node32</title>
<path fill="none" stroke="midnightblue" d="M487.68,-168.79C510.78,-160.03 546,-146.67 572.15,-136.75"/>
<polygon fill="midnightblue" stroke="midnightblue" points="573.21,-140.09 581.32,-133.27 570.73,-133.55 573.21,-140.09"/>
</g>
<!-- Node33 -->
<g id="node28" class="node">
<title>Node33</title>
<g id="a_node28"><a xlink:href="_memory_segment_8hpp.html" target="_top" xlink:title=" ">
<polygon fill="white" stroke="red" points="314.25,-113 314.25,-132.25 423.25,-132.25 423.25,-113 314.25,-113"/>
<text text-anchor="middle" x="368.75" y="-118.75" font-family="Helvetica,sans-Serif" font-size="10.00">MemorySegment.hpp</text>
</a>
</g>
</g>
<!-- Node29&#45;&gt;Node33 -->
<g id="edge29" class="edge">
<title>Node29&#45;&gt;Node33</title>
<path fill="none" stroke="midnightblue" d="M448.06,-168.92C433.49,-160.59 411.51,-148.04 394.39,-138.27"/>
<polygon fill="midnightblue" stroke="midnightblue" points="396.19,-135.27 385.77,-133.35 392.72,-141.35 396.19,-135.27"/>
</g>
<!-- Node31&#45;&gt;Node25 -->
<g id="edge26" class="edge">
<title>Node31&#45;&gt;Node25</title>
<path fill="none" stroke="midnightblue" d="M86.65,-112.67C80.7,-105.16 72.03,-94.22 64.7,-84.98"/>
<polygon fill="midnightblue" stroke="midnightblue" points="67.61,-83.02 58.66,-77.35 62.13,-87.36 67.61,-83.02"/>
</g>
<!-- Node32&#45;&gt;Node20 -->
<g id="edge28" class="edge">
<title>Node32&#45;&gt;Node20</title>
<path fill="none" stroke="midnightblue" d="M594.86,-112.67C584.17,-104.61 568.22,-92.59 555.44,-82.96"/>
<polygon fill="midnightblue" stroke="midnightblue" points="557.72,-80.3 547.63,-77.08 553.51,-85.89 557.72,-80.3"/>
</g>
<!-- Node33&#45;&gt;Node24 -->
<g id="edge30" class="edge">
<title>Node33&#45;&gt;Node24</title>
<path fill="none" stroke="midnightblue" d="M364.62,-112.67C361.35,-105.56 356.65,-95.37 352.54,-86.45"/>
<polygon fill="midnightblue" stroke="midnightblue" points="355.8,-85.16 348.43,-77.54 349.44,-88.09 355.8,-85.16"/>
</g>
<!-- Node37 -->
<g id="node30" class="node">
<title>Node37</title>
<g id="a_node30"><a xlink:href="_primitive_behaviour_names_8h.html" target="_top" xlink:title=" ">
<polygon fill="white" stroke="black" points="671,-113 671,-132.25 808.5,-132.25 808.5,-113 671,-113"/>
<text text-anchor="middle" x="739.75" y="-118.75" font-family="Helvetica,sans-Serif" font-size="10.00">PrimitiveBehaviourNames.h</text>
</a>
</g>
</g>
<!-- Node36&#45;&gt;Node37 -->
<g id="edge32" class="edge">
<title>Node36&#45;&gt;Node37</title>
<path fill="none" stroke="midnightblue" d="M604.87,-168.79C631.38,-159.91 672,-146.31 701.73,-136.36"/>
<polygon fill="midnightblue" stroke="midnightblue" points="702.74,-139.71 711.11,-133.22 700.52,-133.07 702.74,-139.71"/>
</g>
<!-- Node41 -->
<g id="node34" class="node">
<title>Node41</title>
<g id="a_node34"><a xlink:href="_list_class_8hpp.html" target="_top" xlink:title=" ">
<polygon fill="white" stroke="red" points="2316.75,-113 2316.75,-132.25 2392.75,-132.25 2392.75,-113 2316.75,-113"/>
<text text-anchor="middle" x="2354.75" y="-118.75" font-family="Helvetica,sans-Serif" font-size="10.00">ListClass.hpp</text>
</a>
</g>
</g>
<!-- Node40&#45;&gt;Node41 -->
<g id="edge36" class="edge">
<title>Node40&#45;&gt;Node41</title>
<path fill="none" stroke="midnightblue" d="M1896.79,-169.99C1899.82,-169.55 1902.83,-169.13 1905.75,-168.75 2080.01,-146.26 2128.18,-157.4 2305.05,-133"/>
<polygon fill="midnightblue" stroke="midnightblue" points="2305.41,-136.48 2314.83,-131.63 2304.44,-129.55 2305.41,-136.48"/>
</g>
<!-- Node43 -->
<g id="node35" class="node">
<title>Node43</title>
<g id="a_node35"><a xlink:href="_rexx_internal_stack_8hpp.html" target="_top" xlink:title=" ">
<polygon fill="white" stroke="black" points="1549.88,-113 1549.88,-132.25 1665.62,-132.25 1665.62,-113 1549.88,-113"/>
<text text-anchor="middle" x="1607.75" y="-118.75" font-family="Helvetica,sans-Serif" font-size="10.00">RexxInternalStack.hpp</text>
</a>
</g>
</g>
<!-- Node40&#45;&gt;Node43 -->
<g id="edge37" class="edge">
<title>Node40&#45;&gt;Node43</title>
<path fill="none" stroke="midnightblue" d="M1810.91,-168.79C1769.39,-159.56 1704.91,-145.23 1659.76,-135.19"/>
<polygon fill="midnightblue" stroke="midnightblue" points="1660.72,-131.82 1650.2,-133.06 1659.2,-138.65 1660.72,-131.82"/>
</g>
<!-- Node44 -->
<g id="node36" class="node">
<title>Node44</title>
<g id="a_node36"><a xlink:href="_rexx_activation_stack_8hpp.html" target="_top" xlink:title=" ">
<polygon fill="white" stroke="black" points="1683.25,-113 1683.25,-132.25 1810.25,-132.25 1810.25,-113 1683.25,-113"/>
<text text-anchor="middle" x="1746.75" y="-118.75" font-family="Helvetica,sans-Serif" font-size="10.00">RexxActivationStack.hpp</text>
</a>
</g>
</g>
<!-- Node40&#45;&gt;Node44 -->
<g id="edge38" class="edge">
<title>Node40&#45;&gt;Node44</title>
<path fill="none" stroke="midnightblue" d="M1834.41,-168.92C1818.07,-160.47 1793.32,-147.69 1774.29,-137.85"/>
<polygon fill="midnightblue" stroke="midnightblue" points="1775.95,-134.77 1765.46,-133.29 1772.74,-140.99 1775.95,-134.77"/>
</g>
<!-- Node45 -->
<g id="node37" class="node">
<title>Node45</title>
<g id="a_node37"><a xlink:href="_expression_stack_8hpp.html" target="_top" xlink:title=" ">
<polygon fill="white" stroke="red" points="1828.25,-113 1828.25,-132.25 1937.25,-132.25 1937.25,-113 1828.25,-113"/>
<text text-anchor="middle" x="1882.75" y="-118.75" font-family="Helvetica,sans-Serif" font-size="10.00">ExpressionStack.hpp</text>
</a>
</g>
</g>
<!-- Node40&#45;&gt;Node45 -->
<g id="edge39" class="edge">
<title>Node40&#45;&gt;Node45</title>
<path fill="none" stroke="midnightblue" d="M1856.87,-168.92C1860.98,-161.73 1866.89,-151.39 1872.02,-142.4"/>
<polygon fill="midnightblue" stroke="midnightblue" points="1875.05,-144.15 1876.98,-133.73 1868.98,-140.68 1875.05,-144.15"/>
</g>
<!-- Node47 -->
<g id="node38" class="node">
<title>Node47</title>
<g id="a_node38"><a xlink:href="_rexx_local_variables_8hpp.html" target="_top" xlink:title=" ">
<polygon fill="white" stroke="red" points="1955.25,-113 1955.25,-132.25 2076.25,-132.25 2076.25,-113 1955.25,-113"/>
<text text-anchor="middle" x="2015.75" y="-118.75" font-family="Helvetica,sans-Serif" font-size="10.00">RexxLocalVariables.hpp</text>
</a>
</g>
</g>
<!-- Node40&#45;&gt;Node47 -->
<g id="edge40" class="edge">
<title>Node40&#45;&gt;Node47</title>
<path fill="none" stroke="midnightblue" d="M1879.2,-168.79C1906.16,-159.88 1947.52,-146.19 1977.66,-136.22"/>
<polygon fill="midnightblue" stroke="midnightblue" points="1978.38,-139.67 1986.77,-133.21 1976.18,-133.03 1978.38,-139.67"/>
</g>
<!-- Node62 -->
<g id="node39" class="node">
<title>Node62</title>
<g id="a_node39"><a xlink:href="_source_location_8hpp.html" target="_top" xlink:title=" ">
<polygon fill="white" stroke="black" points="2094.62,-113 2094.62,-132.25 2196.88,-132.25 2196.88,-113 2094.62,-113"/>
<text text-anchor="middle" x="2145.75" y="-118.75" font-family="Helvetica,sans-Serif" font-size="10.00">SourceLocation.hpp</text>
</a>
</g>
</g>
<!-- Node40&#45;&gt;Node62 -->
<g id="edge41" class="edge">
<title>Node40&#45;&gt;Node62</title>
<path fill="none" stroke="midnightblue" d="M1896.72,-169.58C1947.14,-160.27 2029.14,-145.14 2085.17,-134.8"/>
<polygon fill="midnightblue" stroke="midnightblue" points="2085.68,-138.27 2094.87,-133.01 2084.41,-131.39 2085.68,-138.27"/>
</g>
<!-- Node63 -->
<g id="node40" class="node">
<title>Node63</title>
<g id="a_node40"><a xlink:href="_exit_handler_8hpp.html" target="_top" xlink:title=" ">
<polygon fill="white" stroke="red" points="1247.25,-113 1247.25,-132.25 1332.25,-132.25 1332.25,-113 1247.25,-113"/>
<text text-anchor="middle" x="1289.75" y="-118.75" font-family="Helvetica,sans-Serif" font-size="10.00">ExitHandler.hpp</text>
</a>
</g>
</g>
<!-- Node40&#45;&gt;Node63 -->
<g id="edge42" class="edge">
<title>Node40&#45;&gt;Node63</title>
<path fill="none" stroke="midnightblue" d="M1806.71,-173.53C1704.32,-163.64 1454.43,-139.52 1343.88,-128.85"/>
<polygon fill="midnightblue" stroke="midnightblue" points="1344.48,-125.39 1334.19,-127.91 1343.81,-132.36 1344.48,-125.39"/>
</g>
<!-- Node65 -->
<g id="node41" class="node">
<title>Node65</title>
<g id="a_node41"><a xlink:href="_activation_api_contexts_8hpp.html" target="_top" xlink:title=" ">
<polygon fill="white" stroke="black" points="1399.62,-113 1399.62,-132.25 1531.88,-132.25 1531.88,-113 1399.62,-113"/>
<text text-anchor="middle" x="1465.75" y="-118.75" font-family="Helvetica,sans-Serif" font-size="10.00">ActivationApiContexts.hpp</text>
</a>
</g>
</g>
<!-- Node40&#45;&gt;Node65 -->
<g id="edge44" class="edge">
<title>Node40&#45;&gt;Node65</title>
<path fill="none" stroke="midnightblue" d="M1806.72,-171.55C1741.7,-162.41 1620.7,-145.4 1541.71,-134.3"/>
<polygon fill="midnightblue" stroke="midnightblue" points="1542.27,-130.84 1531.88,-132.92 1541.29,-137.78 1542.27,-130.84"/>
</g>
<!-- Node66 -->
<g id="node42" class="node">
<title>Node66</title>
<g id="a_node42"><a xlink:title=" ">
<polygon fill="white" stroke="#bfbfbf" points="2215,-113 2215,-132.25 2298.5,-132.25 2298.5,-113 2215,-113"/>
<text text-anchor="middle" x="2256.75" y="-118.75" font-family="Helvetica,sans-Serif" font-size="10.00">SysActivity.hpp</text>
</a>
</g>
</g>
<!-- Node40&#45;&gt;Node66 -->
<g id="edge46" class="edge">
<title>Node40&#45;&gt;Node66</title>
<path fill="none" stroke="midnightblue" d="M1896.81,-170.1C1899.83,-169.62 1902.83,-169.17 1905.75,-168.75 2035.16,-150.06 2071.06,-152.44 2203.76,-132.97"/>
<polygon fill="midnightblue" stroke="midnightblue" points="2203.88,-136.49 2213.26,-131.56 2202.85,-129.56 2203.88,-136.49"/>
</g>
<!-- Node63&#45;&gt;Node2 -->
<g id="edge43" class="edge">
<title>Node63&#45;&gt;Node2</title>
<path fill="none" stroke="midnightblue" d="M1246.84,-129.66C1203.88,-136.69 1142.14,-149.8 1127.75,-168.75 1117.93,-181.67 1121.18,-200.41 1126.01,-214.51"/>
<polygon fill="midnightblue" stroke="midnightblue" points="1122.69,-215.63 1129.63,-223.64 1129.19,-213.05 1122.69,-215.63"/>
</g>
<!-- Node65&#45;&gt;Node2 -->
<g id="edge45" class="edge">
<title>Node65&#45;&gt;Node2</title>
<path fill="none" stroke="midnightblue" d="M1467.87,-132.65C1470.59,-146.74 1473.36,-173.91 1458.75,-189 1421.18,-227.78 1260.67,-233.85 1180.58,-234.4"/>
<polygon fill="midnightblue" stroke="midnightblue" points="1180.87,-230.9 1170.88,-234.44 1180.9,-237.9 1180.87,-230.9"/>
</g>
<!-- Node51&#45;&gt;Node23 -->
<g id="edge48" class="edge">
<title>Node51&#45;&gt;Node23</title>
<path fill="none" stroke="midnightblue" d="M1865.49,-62.72C1652.81,-53.36 939.52,-21.95 743.8,-13.33"/>
<polygon fill="midnightblue" stroke="midnightblue" points="744.11,-9.84 733.97,-12.9 743.81,-16.83 744.11,-9.84"/>
</g>
<!-- Node52 -->
<g id="node44" class="node">
<title>Node52</title>
<g id="a_node44"><a xlink:href="_number_string_math_8hpp.html" target="_top" xlink:title=" ">
<polygon fill="white" stroke="black" points="1867.5,-0.5 1867.5,-19.75 1984,-19.75 1984,-0.5 1867.5,-0.5"/>
<text text-anchor="middle" x="1925.75" y="-6.25" font-family="Helvetica,sans-Serif" font-size="10.00">NumberStringMath.hpp</text>
</a>
</g>
</g>
<!-- Node51&#45;&gt;Node52 -->
<g id="edge49" class="edge">
<title>Node51&#45;&gt;Node52</title>
<path fill="none" stroke="midnightblue" d="M1925.75,-56.42C1925.75,-49.62 1925.75,-40.01 1925.75,-31.4"/>
<polygon fill="midnightblue" stroke="midnightblue" points="1929.25,-31.43 1925.75,-21.43 1922.25,-31.43 1929.25,-31.43"/>
</g>
<!-- Node68 -->
<g id="node46" class="node">
<title>Node68</title>
<g id="a_node46"><a xlink:title=" ">
<polygon fill="white" stroke="#bfbfbf" points="2410.62,-113 2410.62,-132.25 2452.88,-132.25 2452.88,-113 2410.62,-113"/>
<text text-anchor="middle" x="2431.75" y="-118.75" font-family="Helvetica,sans-Serif" font-size="10.00">deque</text>
</a>
</g>
</g>
<!-- Node67&#45;&gt;Node68 -->
<g id="edge51" class="edge">
<title>Node67&#45;&gt;Node68</title>
<path fill="none" stroke="midnightblue" d="M2019.47,-175.67C2099.7,-171.61 2257.29,-160.83 2399.19,-132.92"/>
<polygon fill="midnightblue" stroke="midnightblue" points="2399.65,-136.4 2408.76,-131 2398.27,-129.54 2399.65,-136.4"/>
</g>
<!-- Node50 -->
<g id="node48" class="node">
<title>Node50</title>
<g id="a_node48"><a xlink:href="_string_class_8hpp.html" target="_top" xlink:title=" ">
<polygon fill="white" stroke="red" points="2473.88,-169.25 2473.88,-188.5 2559.62,-188.5 2559.62,-169.25 2473.88,-169.25"/>
<text text-anchor="middle" x="2516.75" y="-175" font-family="Helvetica,sans-Serif" font-size="10.00">StringClass.hpp</text>
</a>
</g>
</g>
<!-- Node49&#45;&gt;Node50 -->
<g id="edge53" class="edge">
<title>Node49&#45;&gt;Node50</title>
<path fill="none" stroke="midnightblue" d="M2290.28,-225.04C2337.8,-215.57 2412.3,-200.71 2462.76,-190.64"/>
<polygon fill="midnightblue" stroke="midnightblue" points="2463.16,-194.13 2472.29,-188.74 2461.79,-187.27 2463.16,-194.13"/>
</g>
<!-- Node50&#45;&gt;Node51 -->
<g id="edge54" class="edge">
<title>Node50&#45;&gt;Node51</title>
<path fill="none" stroke="midnightblue" d="M2512.41,-169.2C2504.57,-154.57 2486.51,-125.32 2461.75,-112.5 2382.74,-71.6 2124.38,-66.58 1997.44,-66.69"/>
<polygon fill="midnightblue" stroke="midnightblue" points="1997.46,-63.19 1987.46,-66.72 1997.47,-70.19 1997.46,-63.19"/>
</g>
<!-- Node53 -->
<g id="node49" class="node">
<title>Node53</title>
<g id="a_node49"><a xlink:href="_integer_class_8hpp.html" target="_top" xlink:title=" ">
<polygon fill="white" stroke="black" points="2508.62,-113 2508.62,-132.25 2598.88,-132.25 2598.88,-113 2508.62,-113"/>
<text text-anchor="middle" x="2553.75" y="-118.75" font-family="Helvetica,sans-Serif" font-size="10.00">IntegerClass.hpp</text>
</a>
</g>
</g>
<!-- Node50&#45;&gt;Node53 -->
<g id="edge55" class="edge">
<title>Node50&#45;&gt;Node53</title>
<path fill="none" stroke="midnightblue" d="M2522.86,-168.92C2527.87,-161.57 2535.13,-150.93 2541.35,-141.81"/>
<polygon fill="midnightblue" stroke="midnightblue" points="2544.16,-143.9 2546.9,-133.67 2538.37,-139.96 2544.16,-143.9"/>
</g>
<!-- Node54 -->
<g id="node50" class="node">
<title>Node54</title>
<g id="a_node50"><a xlink:href="_string_util_8hpp.html" target="_top" xlink:title=" ">
<polygon fill="white" stroke="black" points="2617.12,-113 2617.12,-132.25 2692.38,-132.25 2692.38,-113 2617.12,-113"/>
<text text-anchor="middle" x="2654.75" y="-118.75" font-family="Helvetica,sans-Serif" font-size="10.00">StringUtil.hpp</text>
</a>
</g>
</g>
<!-- Node50&#45;&gt;Node54 -->
<g id="edge57" class="edge">
<title>Node50&#45;&gt;Node54</title>
<path fill="none" stroke="midnightblue" d="M2539.85,-168.79C2562.04,-160.07 2595.82,-146.79 2621.02,-136.89"/>
<polygon fill="midnightblue" stroke="midnightblue" points="2622.14,-140.2 2630.17,-133.29 2619.58,-133.69 2622.14,-140.2"/>
</g>
<!-- Node53&#45;&gt;Node51 -->
<g id="edge56" class="edge">
<title>Node53&#45;&gt;Node51</title>
<path fill="none" stroke="midnightblue" d="M2508.38,-114.26C2503.78,-113.62 2499.18,-113.02 2494.75,-112.5 2316.45,-91.67 2105.58,-77.73 1997.51,-71.35"/>
<polygon fill="midnightblue" stroke="midnightblue" points="1997.81,-67.86 1987.62,-70.77 1997.4,-74.85 1997.81,-67.86"/>
</g>
</g>
</svg>
