<?xml version="1.0" encoding="UTF-8" standalone="no"?>
<!DOCTYPE svg PUBLIC "-//W3C//DTD SVG 1.1//EN"
 "http://www.w3.org/Graphics/SVG/1.1/DTD/svg11.dtd">
<!-- Generated by graphviz version 2.30.1 (20130222.1704)
 -->
<!-- Title: RexxCompoundElement.cpp Pages: 1 -->
<!--zoomable 378 -->
<svg id="main" version="1.1" xmlns="http://www.w3.org/2000/svg" xmlns:xlink="http://www.w3.org/1999/xlink" xml:space="preserve" onload="init(evt)">
<style type="text/css"><![CDATA[
.edge:hover path { stroke: red; }
.edge:hover polygon { stroke: red; fill: red; }
]]></style>
<script type="text/javascript"><![CDATA[
var edges = document.getElementsByTagName('g');
if (edges && edges.length) {
  for (var i=0;i<edges.length;i++) {
    if (edges[i].id.substr(0,4)=='edge') {
      edges[i].setAttribute('class','edge');
    }
  }
}
]]></script>
        <defs>
                <circle id="rim" cx="0" cy="0" r="7"/>
                <circle id="rim2" cx="0" cy="0" r="3.5"/>
                <g id="zoomPlus">
                        <use xlink:href="#rim" fill="#404040">
                                <set attributeName="fill" to="#808080" begin="zoomplus.mouseover" end="zoomplus.mouseout"/>
                        </use>
                        <path d="M-4,0h8M0,-4v8" fill="none" stroke="white" stroke-width="1.5" pointer-events="none"/>
                </g>
                <g id="zoomMin">
                        <use xlink:href="#rim" fill="#404040">
                                <set attributeName="fill" to="#808080" begin="zoomminus.mouseover" end="zoomminus.mouseout"/>
                        </use>
                        <path d="M-4,0h8" fill="none" stroke="white" stroke-width="1.5" pointer-events="none"/>
                </g>
                <g id="dirArrow">
                        <path fill="none" stroke="white" stroke-width="1.5" d="M0,-3.0v7 M-2.5,-0.5L0,-3.0L2.5,-0.5"/>
                </g>
               <g id="resetDef">
                       <use xlink:href="#rim2" fill="#404040">
                               <set attributeName="fill" to="#808080" begin="reset.mouseover" end="reset.mouseout"/>
                       </use>
               </g>
        </defs>

<script type="text/javascript">
var viewWidth = 2879;
var viewHeight = 378;
var sectionId = 'dynsection-0';
</script>
<script xlink:href="svgpan.js"/>
<svg id="graph" class="graph">
<g id="viewport">
<title>RexxCompoundElement.cpp</title>
<polygon fill="white" stroke="white" points="-4,5 -4,-374 2876,-374 2876,5 -4,5"/>
<!-- Node1 -->
<g id="node1" class="node"><title>Node1</title>
<g id="a_node1"><a xlink:title=" ">
<polygon fill="#bfbfbf" stroke="black" points="1158.35,-349 1158.35,-369 1301.65,-369 1301.65,-349 1158.35,-349"/>
<text text-anchor="middle" x="1230" y="-355" font-family="Helvetica,sans-Serif" font-size="10.00">RexxCompoundElement.cpp</text>
</a>
</g>
</g>
<!-- Node2 -->
<g id="node2" class="node"><title>Node2</title>
<g id="a_node2"><a xlink:href="_rexx_core_8h.html" target="_top" xlink:title=" ">
<polygon fill="white" stroke="black" points="1195.6,-291 1195.6,-311 1264.4,-311 1264.4,-291 1195.6,-291"/>
<text text-anchor="middle" x="1230" y="-297" font-family="Helvetica,sans-Serif" font-size="10.00">RexxCore.h</text>
</a>
</g>
</g>
<!-- Node1&#45;&gt;Node2 -->
<g id="edge1" class="edge"><title>Node1&#45;&gt;Node2</title>
<path fill="none" stroke="midnightblue" d="M1230,-348.753C1230,-341.25 1230,-330.424 1230,-321.078"/>
<polygon fill="midnightblue" stroke="midnightblue" points="1233.5,-321.075 1230,-311.075 1226.5,-321.075 1233.5,-321.075"/>
</g>
<!-- Node57 -->
<g id="node46" class="node"><title>Node57</title>
<g id="a_node46"><a xlink:href="_rexx_compound_element_8hpp.html" target="_top" xlink:title=" ">
<polygon fill="white" stroke="black" points="104.074,-291 104.074,-311 247.926,-311 247.926,-291 104.074,-291"/>
<text text-anchor="middle" x="176" y="-297" font-family="Helvetica,sans-Serif" font-size="10.00">RexxCompoundElement.hpp</text>
</a>
</g>
</g>
<!-- Node1&#45;&gt;Node57 -->
<g id="edge51" class="edge"><title>Node1&#45;&gt;Node57</title>
<path fill="none" stroke="midnightblue" d="M1157.97,-354.173C968.726,-344.118 458.312,-316.999 258.141,-306.364"/>
<polygon fill="midnightblue" stroke="midnightblue" points="258.157,-302.86 247.985,-305.825 257.785,-309.85 258.157,-302.86"/>
</g>
<!-- Node39 -->
<g id="node32" class="node"><title>Node39</title>
<g id="a_node32"><a xlink:href="_rexx_activity_8hpp.html" target="_top" xlink:title=" ">
<polygon fill="white" stroke="black" points="2177.41,-233 2177.41,-253 2266.59,-253 2266.59,-233 2177.41,-233"/>
<text text-anchor="middle" x="2222" y="-239" font-family="Helvetica,sans-Serif" font-size="10.00">RexxActivity.hpp</text>
</a>
</g>
</g>
<!-- Node1&#45;&gt;Node39 -->
<g id="edge59" class="edge"><title>Node1&#45;&gt;Node39</title>
<path fill="none" stroke="midnightblue" d="M1301.74,-349.756C1490.72,-328.039 1999.17,-269.607 2167.24,-250.293"/>
<polygon fill="midnightblue" stroke="midnightblue" points="2167.81,-253.751 2177.34,-249.132 2167.01,-246.797 2167.81,-253.751"/>
</g>
<!-- Node3 -->
<g id="node3" class="node"><title>Node3</title>
<g id="a_node3"><a xlink:href="oorexxapi_8h.html" target="_top" xlink:title=" ">
<polygon fill="white" stroke="black" points="1145.15,-233 1145.15,-253 1212.85,-253 1212.85,-233 1145.15,-233"/>
<text text-anchor="middle" x="1179" y="-239" font-family="Helvetica,sans-Serif" font-size="10.00">oorexxapi.h</text>
</a>
</g>
</g>
<!-- Node2&#45;&gt;Node3 -->
<g id="edge2" class="edge"><title>Node2&#45;&gt;Node3</title>
<path fill="none" stroke="midnightblue" d="M1221.58,-290.753C1214.15,-282.598 1203.15,-270.516 1194.19,-260.677"/>
<polygon fill="midnightblue" stroke="midnightblue" points="1196.59,-258.112 1187.26,-253.075 1191.41,-262.825 1196.59,-258.112"/>
</g>
<!-- Node10 -->
<g id="node6" class="node"><title>Node10</title>
<g id="a_node6"><a xlink:title=" ">
<polygon fill="white" stroke="#bfbfbf" points="751.269,-233 751.269,-253 796.731,-253 796.731,-233 751.269,-233"/>
<text text-anchor="middle" x="774" y="-239" font-family="Helvetica,sans-Serif" font-size="10.00">stdio.h</text>
</a>
</g>
</g>
<!-- Node2&#45;&gt;Node10 -->
<g id="edge5" class="edge"><title>Node2&#45;&gt;Node10</title>
<path fill="none" stroke="midnightblue" d="M1195.52,-298.025C1123.55,-293.507 952.301,-280.685 811,-254 809.713,-253.757 808.405,-253.492 807.087,-253.21"/>
<polygon fill="midnightblue" stroke="midnightblue" points="807.504,-249.712 796.965,-250.797 805.881,-256.521 807.504,-249.712"/>
</g>
<!-- Node11 -->
<g id="node7" class="node"><title>Node11</title>
<g id="a_node7"><a xlink:title=" ">
<polygon fill="white" stroke="#bfbfbf" points="1074.93,-233 1074.93,-253 1127.07,-253 1127.07,-233 1074.93,-233"/>
<text text-anchor="middle" x="1101" y="-239" font-family="Helvetica,sans-Serif" font-size="10.00">stdarg.h</text>
</a>
</g>
</g>
<!-- Node2&#45;&gt;Node11 -->
<g id="edge6" class="edge"><title>Node2&#45;&gt;Node11</title>
<path fill="none" stroke="midnightblue" d="M1208.99,-290.878C1187.9,-281.725 1155.22,-267.536 1131.32,-257.164"/>
<polygon fill="midnightblue" stroke="midnightblue" points="1132.57,-253.89 1122,-253.118 1129.78,-260.311 1132.57,-253.89"/>
</g>
<!-- Node12 -->
<g id="node8" class="node"><title>Node12</title>
<g id="a_node8"><a xlink:title=" ">
<polygon fill="white" stroke="#bfbfbf" points="1662.6,-233 1662.6,-253 1711.4,-253 1711.4,-233 1662.6,-233"/>
<text text-anchor="middle" x="1687" y="-239" font-family="Helvetica,sans-Serif" font-size="10.00">string.h</text>
</a>
</g>
</g>
<!-- Node2&#45;&gt;Node12 -->
<g id="edge7" class="edge"><title>Node2&#45;&gt;Node12</title>
<path fill="none" stroke="midnightblue" d="M1264.58,-298.324C1335.61,-294.437 1503.08,-282.98 1652.43,-253.783"/>
<polygon fill="midnightblue" stroke="midnightblue" points="1653.12,-257.215 1662.24,-251.834 1651.75,-250.35 1653.12,-257.215"/>
</g>
<!-- Node13 -->
<g id="node9" class="node"><title>Node13</title>
<g id="a_node9"><a xlink:title=" ">
<polygon fill="white" stroke="#bfbfbf" points="1729.88,-233 1729.88,-253 1778.12,-253 1778.12,-233 1729.88,-233"/>
<text text-anchor="middle" x="1754" y="-239" font-family="Helvetica,sans-Serif" font-size="10.00">ctype.h</text>
</a>
</g>
</g>
<!-- Node2&#45;&gt;Node13 -->
<g id="edge8" class="edge"><title>Node2&#45;&gt;Node13</title>
<path fill="none" stroke="midnightblue" d="M1264.48,-299.04C1343.45,-296.357 1543.53,-286.81 1719.66,-253.684"/>
<polygon fill="midnightblue" stroke="midnightblue" points="1720.46,-257.095 1729.62,-251.78 1719.14,-250.219 1720.46,-257.095"/>
</g>
<!-- Node14 -->
<g id="node10" class="node"><title>Node14</title>
<g id="a_node10"><a xlink:title=" ">
<polygon fill="white" stroke="#bfbfbf" points="1796.44,-233 1796.44,-253 1843.56,-253 1843.56,-233 1796.44,-233"/>
<text text-anchor="middle" x="1820" y="-239" font-family="Helvetica,sans-Serif" font-size="10.00">limits.h</text>
</a>
</g>
</g>
<!-- Node2&#45;&gt;Node14 -->
<g id="edge9" class="edge"><title>Node2&#45;&gt;Node14</title>
<path fill="none" stroke="midnightblue" d="M1264.57,-299.679C1351.14,-298.339 1584.17,-291.42 1786.44,-253.698"/>
<polygon fill="midnightblue" stroke="midnightblue" points="1787.18,-257.12 1796.36,-251.82 1785.88,-250.243 1787.18,-257.12"/>
</g>
<!-- Node15 -->
<g id="node11" class="node"><title>Node15</title>
<g id="a_node11"><a xlink:href="_rexx_platform_definitions_8h.html" target="_top" xlink:title=" ">
<polygon fill="white" stroke="black" points="1513.48,-233 1513.48,-253 1644.52,-253 1644.52,-233 1513.48,-233"/>
<text text-anchor="middle" x="1579" y="-239" font-family="Helvetica,sans-Serif" font-size="10.00">RexxPlatformDefinitions.h</text>
</a>
</g>
</g>
<!-- Node2&#45;&gt;Node15 -->
<g id="edge10" class="edge"><title>Node2&#45;&gt;Node15</title>
<path fill="none" stroke="midnightblue" d="M1264.42,-294.477C1321.99,-285.24 1438.75,-266.504 1512.7,-254.639"/>
<polygon fill="midnightblue" stroke="midnightblue" points="1513.52,-258.052 1522.84,-253.012 1512.41,-251.14 1513.52,-258.052"/>
</g>
<!-- Node18 -->
<g id="node14" class="node"><title>Node18</title>
<g id="a_node14"><a xlink:href="_rexx_constants_8hpp.html" target="_top" xlink:title=" ">
<polygon fill="white" stroke="black" points="1938.36,-233 1938.36,-253 2041.64,-253 2041.64,-233 1938.36,-233"/>
<text text-anchor="middle" x="1990" y="-239" font-family="Helvetica,sans-Serif" font-size="10.00">RexxConstants.hpp</text>
</a>
</g>
</g>
<!-- Node2&#45;&gt;Node18 -->
<g id="edge13" class="edge"><title>Node2&#45;&gt;Node18</title>
<path fill="none" stroke="midnightblue" d="M1264.75,-298.732C1366.4,-294.802 1671.91,-281.403 1924,-254 1925.3,-253.859 1926.61,-253.711 1927.93,-253.557"/>
<polygon fill="midnightblue" stroke="midnightblue" points="1928.69,-256.99 1938.17,-252.274 1927.82,-250.044 1928.69,-256.99"/>
</g>
<!-- Node19 -->
<g id="node15" class="node"><title>Node19</title>
<g id="a_node15"><a xlink:href="_class_type_codes_8h.html" target="_top" xlink:title=" ">
<polygon fill="white" stroke="black" points="358.032,-117 358.032,-137 457.968,-137 457.968,-117 358.032,-117"/>
<text text-anchor="middle" x="408" y="-123" font-family="Helvetica,sans-Serif" font-size="10.00">ClassTypeCodes.h</text>
</a>
</g>
</g>
<!-- Node2&#45;&gt;Node19 -->
<g id="edge14" class="edge"><title>Node2&#45;&gt;Node19</title>
<path fill="none" stroke="midnightblue" d="M1195.55,-299.863C1061.38,-299.049 573.861,-293.385 425,-254 368.892,-239.155 338.597,-245.318 308,-196 291.681,-169.695 327.333,-151.134 360.503,-140.122"/>
<polygon fill="midnightblue" stroke="midnightblue" points="361.706,-143.413 370.201,-137.082 359.612,-136.734 361.706,-143.413"/>
</g>
<!-- Node20 -->
<g id="node16" class="node"><title>Node20</title>
<g id="a_node16"><a xlink:href="_global_names_8h.html" target="_top" xlink:title=" ">
<polygon fill="white" stroke="black" points="545.54,-233 545.54,-253 630.46,-253 630.46,-233 545.54,-233"/>
<text text-anchor="middle" x="588" y="-239" font-family="Helvetica,sans-Serif" font-size="10.00">GlobalNames.h</text>
</a>
</g>
</g>
<!-- Node2&#45;&gt;Node20 -->
<g id="edge15" class="edge"><title>Node2&#45;&gt;Node20</title>
<path fill="none" stroke="midnightblue" d="M1195.54,-298.716C1105.74,-295.071 856.995,-283.076 640.475,-254.069"/>
<polygon fill="midnightblue" stroke="midnightblue" points="640.895,-250.594 630.515,-252.719 639.955,-257.53 640.895,-250.594"/>
</g>
<!-- Node21 -->
<g id="node17" class="node"><title>Node21</title>
<g id="a_node17"><a xlink:href="_object_class_8hpp.html" target="_top" xlink:title=" ">
<polygon fill="white" stroke="black" points="1417.32,-175 1417.32,-195 1506.68,-195 1506.68,-175 1417.32,-175"/>
<text text-anchor="middle" x="1462" y="-181" font-family="Helvetica,sans-Serif" font-size="10.00">ObjectClass.hpp</text>
</a>
</g>
</g>
<!-- Node2&#45;&gt;Node21 -->
<g id="edge16" class="edge"><title>Node2&#45;&gt;Node21</title>
<path fill="none" stroke="midnightblue" d="M1264.41,-298.48C1323.62,-295.065 1440.85,-284.526 1466,-254 1477.13,-240.486 1474.05,-219.858 1469.47,-204.865"/>
<polygon fill="midnightblue" stroke="midnightblue" points="1472.67,-203.403 1466.05,-195.126 1466.06,-205.721 1472.67,-203.403"/>
</g>
<!-- Node24 -->
<g id="node20" class="node"><title>Node24</title>
<g id="a_node20"><a xlink:href="_table_class_8hpp.html" target="_top" xlink:title=" ">
<polygon fill="white" stroke="black" points="672.813,-117 672.813,-137 757.187,-137 757.187,-117 672.813,-117"/>
<text text-anchor="middle" x="715" y="-123" font-family="Helvetica,sans-Serif" font-size="10.00">TableClass.hpp</text>
</a>
</g>
</g>
<!-- Node2&#45;&gt;Node24 -->
<g id="edge19" class="edge"><title>Node2&#45;&gt;Node24</title>
<path fill="none" stroke="midnightblue" d="M1195.33,-300.011C1111.39,-299.398 900.041,-293.831 844,-254 811.759,-231.084 832.704,-202.233 805,-174 790.586,-159.311 770.489,-148.426 752.942,-140.943"/>
<polygon fill="midnightblue" stroke="midnightblue" points="754.092,-137.633 743.508,-137.133 751.47,-144.123 754.092,-137.633"/>
</g>
<!-- Node27 -->
<g id="node22" class="node"><title>Node27</title>
<g id="a_node22"><a xlink:href="_stack_class_8hpp.html" target="_top" xlink:title=" ">
<polygon fill="white" stroke="black" points="648.261,-233 648.261,-253 733.739,-253 733.739,-233 648.261,-233"/>
<text text-anchor="middle" x="691" y="-239" font-family="Helvetica,sans-Serif" font-size="10.00">StackClass.hpp</text>
</a>
</g>
</g>
<!-- Node2&#45;&gt;Node27 -->
<g id="edge21" class="edge"><title>Node2&#45;&gt;Node27</title>
<path fill="none" stroke="midnightblue" d="M1195.54,-297.937C1117.06,-292.984 918.819,-279.043 743.706,-254.138"/>
<polygon fill="midnightblue" stroke="midnightblue" points="744.196,-250.672 733.8,-252.713 743.2,-257.601 744.196,-250.672"/>
</g>
<!-- Node28 -->
<g id="node23" class="node"><title>Node28</title>
<g id="a_node23"><a xlink:href="_rexx_memory_8hpp.html" target="_top" xlink:title=" ">
<polygon fill="white" stroke="black" points="434.189,-233 434.189,-253 527.811,-253 527.811,-233 434.189,-233"/>
<text text-anchor="middle" x="481" y="-239" font-family="Helvetica,sans-Serif" font-size="10.00">RexxMemory.hpp</text>
</a>
</g>
</g>
<!-- Node2&#45;&gt;Node28 -->
<g id="edge22" class="edge"><title>Node2&#45;&gt;Node28</title>
<path fill="none" stroke="midnightblue" d="M1195.26,-299.051C1094.95,-296.022 796.065,-284.974 537.934,-253.986"/>
<polygon fill="midnightblue" stroke="midnightblue" points="538.346,-250.51 527.997,-252.781 537.503,-257.459 538.346,-250.51"/>
</g>
<!-- Node35 -->
<g id="node28" class="node"><title>Node35</title>
<g id="a_node28"><a xlink:href="_rexx_behaviour_8hpp.html" target="_top" xlink:title=" ">
<polygon fill="white" stroke="black" points="1230.64,-233 1230.64,-253 1333.36,-253 1333.36,-233 1230.64,-233"/>
<text text-anchor="middle" x="1282" y="-239" font-family="Helvetica,sans-Serif" font-size="10.00">RexxBehaviour.hpp</text>
</a>
</g>
</g>
<!-- Node2&#45;&gt;Node35 -->
<g id="edge30" class="edge"><title>Node2&#45;&gt;Node35</title>
<path fill="none" stroke="midnightblue" d="M1238.59,-290.753C1246.16,-282.598 1257.38,-270.516 1266.51,-260.677"/>
<polygon fill="midnightblue" stroke="midnightblue" points="1269.33,-262.785 1273.57,-253.075 1264.2,-258.022 1269.33,-262.785"/>
</g>
<!-- Node37 -->
<g id="node30" class="node"><title>Node37</title>
<g id="a_node30"><a xlink:href="_class_class_8hpp.html" target="_top" xlink:title=" ">
<polygon fill="white" stroke="black" points="853.264,-233 853.264,-253 938.736,-253 938.736,-233 853.264,-233"/>
<text text-anchor="middle" x="896" y="-239" font-family="Helvetica,sans-Serif" font-size="10.00">ClassClass.hpp</text>
</a>
</g>
</g>
<!-- Node2&#45;&gt;Node37 -->
<g id="edge32" class="edge"><title>Node2&#45;&gt;Node37</title>
<path fill="none" stroke="midnightblue" d="M1195.22,-294.65C1143.74,-286.663 1044.01,-270.918 948.908,-254.123"/>
<polygon fill="midnightblue" stroke="midnightblue" points="949.288,-250.636 938.831,-252.336 948.066,-257.528 949.288,-250.636"/>
</g>
<!-- Node38 -->
<g id="node31" class="node"><title>Node38</title>
<g id="a_node31"><a xlink:href="_rexx_envelope_8hpp.html" target="_top" xlink:title=" ">
<polygon fill="white" stroke="black" points="957.027,-233 957.027,-253 1056.97,-253 1056.97,-233 957.027,-233"/>
<text text-anchor="middle" x="1007" y="-239" font-family="Helvetica,sans-Serif" font-size="10.00">RexxEnvelope.hpp</text>
</a>
</g>
</g>
<!-- Node2&#45;&gt;Node38 -->
<g id="edge33" class="edge"><title>Node2&#45;&gt;Node38</title>
<path fill="none" stroke="midnightblue" d="M1195.16,-291.25C1156.83,-281.624 1095.07,-266.116 1052.84,-255.51"/>
<polygon fill="midnightblue" stroke="midnightblue" points="1053.63,-252.101 1043.08,-253.06 1051.92,-258.89 1053.63,-252.101"/>
</g>
<!-- Node2&#45;&gt;Node39 -->
<g id="edge34" class="edge"><title>Node2&#45;&gt;Node39</title>
<path fill="none" stroke="midnightblue" d="M1264.77,-298.075C1377.89,-291.806 1745.72,-271.38 2050,-254 2089.11,-251.766 2133.21,-249.201 2166.97,-247.228"/>
<polygon fill="midnightblue" stroke="midnightblue" points="2167.32,-250.714 2177.09,-246.636 2166.91,-243.726 2167.32,-250.714"/>
</g>
<!-- Node50 -->
<g id="node42" class="node"><title>Node50</title>
<g id="a_node42"><a xlink:href="_number_string_class_8hpp.html" target="_top" xlink:title=" ">
<polygon fill="white" stroke="black" points="123.921,-59 123.921,-79 246.079,-79 246.079,-59 123.921,-59"/>
<text text-anchor="middle" x="185" y="-65" font-family="Helvetica,sans-Serif" font-size="10.00">NumberStringClass.hpp</text>
</a>
</g>
</g>
<!-- Node2&#45;&gt;Node50 -->
<g id="edge46" class="edge"><title>Node2&#45;&gt;Node50</title>
<path fill="none" stroke="midnightblue" d="M1195.4,-299.886C1040.86,-299.152 417.886,-293.734 341,-254 271.566,-218.118 284.257,-174.119 232,-116 222.671,-105.625 211.539,-94.6729 202.451,-86.0591"/>
<polygon fill="midnightblue" stroke="midnightblue" points="204.779,-83.4444 195.087,-79.1646 199.995,-88.5543 204.779,-83.4444"/>
</g>
<!-- Node66 -->
<g id="node44" class="node"><title>Node66</title>
<g id="a_node44"><a xlink:href="_activity_manager_8hpp.html" target="_top" xlink:title=" ">
<polygon fill="white" stroke="black" points="1350.97,-233 1350.97,-253 1457.03,-253 1457.03,-233 1350.97,-233"/>
<text text-anchor="middle" x="1404" y="-239" font-family="Helvetica,sans-Serif" font-size="10.00">ActivityManager.hpp</text>
</a>
</g>
</g>
<!-- Node2&#45;&gt;Node66 -->
<g id="edge49" class="edge"><title>Node2&#45;&gt;Node66</title>
<path fill="none" stroke="midnightblue" d="M1258.34,-290.878C1287.75,-281.413 1333.9,-266.56 1366.36,-256.115"/>
<polygon fill="midnightblue" stroke="midnightblue" points="1367.51,-259.421 1375.96,-253.025 1365.37,-252.757 1367.51,-259.421"/>
</g>
<!-- Node4 -->
<g id="node4" class="node"><title>Node4</title>
<g id="a_node4"><a xlink:href="rexx_8h.html" target="_top" xlink:title=" ">
<polygon fill="white" stroke="red" points="1136.38,-175 1136.38,-195 1179.62,-195 1179.62,-175 1136.38,-175"/>
<text text-anchor="middle" x="1158" y="-181" font-family="Helvetica,sans-Serif" font-size="10.00">rexx.h</text>
</a>
</g>
</g>
<!-- Node3&#45;&gt;Node4 -->
<g id="edge3" class="edge"><title>Node3&#45;&gt;Node4</title>
<path fill="none" stroke="midnightblue" d="M1175.53,-232.753C1172.66,-225.087 1168.48,-213.952 1164.93,-204.471"/>
<polygon fill="midnightblue" stroke="midnightblue" points="1168.19,-203.21 1161.4,-195.075 1161.64,-205.667 1168.19,-203.21"/>
</g>
<!-- Node9 -->
<g id="node5" class="node"><title>Node9</title>
<g id="a_node5"><a xlink:href="oorexxerrors_8h.html" target="_top" xlink:title=" ">
<polygon fill="white" stroke="black" points="1037.77,-175 1037.77,-195 1118.23,-195 1118.23,-175 1037.77,-175"/>
<text text-anchor="middle" x="1078" y="-181" font-family="Helvetica,sans-Serif" font-size="10.00">oorexxerrors.h</text>
</a>
</g>
</g>
<!-- Node3&#45;&gt;Node9 -->
<g id="edge4" class="edge"><title>Node3&#45;&gt;Node9</title>
<path fill="none" stroke="midnightblue" d="M1162.32,-232.753C1146.22,-223.823 1121.62,-210.185 1103.14,-199.939"/>
<polygon fill="midnightblue" stroke="midnightblue" points="1104.81,-196.863 1094.37,-195.075 1101.42,-202.985 1104.81,-196.863"/>
</g>
<!-- Node16 -->
<g id="node12" class="node"><title>Node16</title>
<g id="a_node12"><a xlink:title=" ">
<polygon fill="white" stroke="#bfbfbf" points="1524.87,-175 1524.87,-195 1633.13,-195 1633.13,-175 1524.87,-175"/>
<text text-anchor="middle" x="1579" y="-181" font-family="Helvetica,sans-Serif" font-size="10.00">PlatformDefinitions.h</text>
</a>
</g>
</g>
<!-- Node15&#45;&gt;Node16 -->
<g id="edge11" class="edge"><title>Node15&#45;&gt;Node16</title>
<path fill="none" stroke="midnightblue" d="M1579,-232.753C1579,-225.25 1579,-214.424 1579,-205.078"/>
<polygon fill="midnightblue" stroke="midnightblue" points="1582.5,-205.075 1579,-195.075 1575.5,-205.075 1582.5,-205.075"/>
</g>
<!-- Node17 -->
<g id="node13" class="node"><title>Node17</title>
<g id="a_node13"><a xlink:href="_rexx_error_codes_8h.html" target="_top" xlink:title=" ">
<polygon fill="white" stroke="black" points="1650.87,-175 1650.87,-195 1749.13,-195 1749.13,-175 1650.87,-175"/>
<text text-anchor="middle" x="1700" y="-181" font-family="Helvetica,sans-Serif" font-size="10.00">RexxErrorCodes.h</text>
</a>
</g>
</g>
<!-- Node15&#45;&gt;Node17 -->
<g id="edge12" class="edge"><title>Node15&#45;&gt;Node17</title>
<path fill="none" stroke="midnightblue" d="M1598.71,-232.878C1618.31,-223.807 1648.6,-209.788 1670.96,-199.442"/>
<polygon fill="midnightblue" stroke="midnightblue" points="1672.69,-202.495 1680.3,-195.118 1669.75,-196.142 1672.69,-202.495"/>
</g>
<!-- Node22 -->
<g id="node18" class="node"><title>Node22</title>
<g id="a_node18"><a xlink:href="_numerics_8hpp.html" target="_top" xlink:title=" ">
<polygon fill="white" stroke="black" points="792.155,-1 792.155,-21 869.845,-21 869.845,-1 792.155,-1"/>
<text text-anchor="middle" x="831" y="-7" font-family="Helvetica,sans-Serif" font-size="10.00">Numerics.hpp</text>
</a>
</g>
</g>
<!-- Node21&#45;&gt;Node22 -->
<g id="edge17" class="edge"><title>Node21&#45;&gt;Node22</title>
<path fill="none" stroke="midnightblue" d="M1428.96,-174.995C1323.13,-146.148 992.541,-56.0332 873.911,-23.6969"/>
<polygon fill="midnightblue" stroke="midnightblue" points="874.658,-20.2728 864.09,-21.0196 872.817,-27.0264 874.658,-20.2728"/>
</g>
<!-- Node23 -->
<g id="node19" class="node"><title>Node23</title>
<g id="a_node19"><a xlink:title=" ">
<polygon fill="white" stroke="#bfbfbf" points="882.209,-117 882.209,-137 933.791,-137 933.791,-117 882.209,-117"/>
<text text-anchor="middle" x="908" y="-123" font-family="Helvetica,sans-Serif" font-size="10.00">stddef.h</text>
</a>
</g>
</g>
<!-- Node21&#45;&gt;Node23 -->
<g id="edge18" class="edge"><title>Node21&#45;&gt;Node23</title>
<path fill="none" stroke="midnightblue" d="M1417.03,-175.491C1413.64,-174.952 1410.27,-174.447 1407,-174 1234.21,-150.374 1026.05,-135.543 943.868,-130.22"/>
<polygon fill="midnightblue" stroke="midnightblue" points="944.004,-126.721 933.8,-129.575 943.556,-133.707 944.004,-126.721"/>
</g>
<!-- Node25 -->
<g id="node21" class="node"><title>Node25</title>
<g id="a_node21"><a xlink:href="_rexx_collection_8hpp.html" target="_top" xlink:title=" ">
<polygon fill="white" stroke="red" points="663.921,-59 663.921,-79 766.079,-79 766.079,-59 663.921,-59"/>
<text text-anchor="middle" x="715" y="-65" font-family="Helvetica,sans-Serif" font-size="10.00">RexxCollection.hpp</text>
</a>
</g>
</g>
<!-- Node24&#45;&gt;Node25 -->
<g id="edge20" class="edge"><title>Node24&#45;&gt;Node25</title>
<path fill="none" stroke="midnightblue" d="M715,-116.753C715,-109.25 715,-98.4238 715,-89.0781"/>
<polygon fill="midnightblue" stroke="midnightblue" points="718.5,-89.0752 715,-79.0752 711.5,-89.0752 718.5,-89.0752"/>
</g>
<!-- Node29 -->
<g id="node24" class="node"><title>Node29</title>
<g id="a_node24"><a xlink:title=" ">
<polygon fill="white" stroke="#bfbfbf" points="317.084,-175 317.084,-195 420.916,-195 420.916,-175 317.084,-175"/>
<text text-anchor="middle" x="369" y="-181" font-family="Helvetica,sans-Serif" font-size="10.00">SysSemaphore.hpp</text>
</a>
</g>
</g>
<!-- Node28&#45;&gt;Node29 -->
<g id="edge23" class="edge"><title>Node28&#45;&gt;Node29</title>
<path fill="none" stroke="midnightblue" d="M462.505,-232.753C444.484,-223.742 416.871,-209.935 396.318,-199.659"/>
<polygon fill="midnightblue" stroke="midnightblue" points="397.66,-196.417 387.15,-195.075 394.529,-202.678 397.66,-196.417"/>
</g>
<!-- Node30 -->
<g id="node25" class="node"><title>Node30</title>
<g id="a_node25"><a xlink:href="_identity_table_class_8hpp.html" target="_top" xlink:title=" ">
<polygon fill="white" stroke="black" points="550.692,-175 550.692,-195 667.308,-195 667.308,-175 550.692,-175"/>
<text text-anchor="middle" x="609" y="-181" font-family="Helvetica,sans-Serif" font-size="10.00">IdentityTableClass.hpp</text>
</a>
</g>
</g>
<!-- Node28&#45;&gt;Node30 -->
<g id="edge24" class="edge"><title>Node28&#45;&gt;Node30</title>
<path fill="none" stroke="midnightblue" d="M501.85,-232.878C522.77,-223.725 555.204,-209.536 578.91,-199.164"/>
<polygon fill="midnightblue" stroke="midnightblue" points="580.4,-202.333 588.159,-195.118 577.594,-195.92 580.4,-202.333"/>
</g>
<!-- Node31 -->
<g id="node26" class="node"><title>Node31</title>
<g id="a_node26"><a xlink:href="_memory_stats_8hpp.html" target="_top" xlink:title=" ">
<polygon fill="white" stroke="black" points="438.818,-175 438.818,-195 533.182,-195 533.182,-175 438.818,-175"/>
<text text-anchor="middle" x="486" y="-181" font-family="Helvetica,sans-Serif" font-size="10.00">MemoryStats.hpp</text>
</a>
</g>
</g>
<!-- Node28&#45;&gt;Node31 -->
<g id="edge26" class="edge"><title>Node28&#45;&gt;Node31</title>
<path fill="none" stroke="midnightblue" d="M481.826,-232.753C482.495,-225.25 483.462,-214.424 484.297,-205.078"/>
<polygon fill="midnightblue" stroke="midnightblue" points="487.786,-205.347 485.19,-195.075 480.814,-204.724 487.786,-205.347"/>
</g>
<!-- Node32 -->
<g id="node27" class="node"><title>Node32</title>
<g id="a_node27"><a xlink:href="_memory_segment_8hpp.html" target="_top" xlink:title=" ">
<polygon fill="white" stroke="red" points="685.2,-175 685.2,-195 796.8,-195 796.8,-175 685.2,-175"/>
<text text-anchor="middle" x="741" y="-181" font-family="Helvetica,sans-Serif" font-size="10.00">MemorySegment.hpp</text>
</a>
</g>
</g>
<!-- Node28&#45;&gt;Node32 -->
<g id="edge28" class="edge"><title>Node28&#45;&gt;Node32</title>
<path fill="none" stroke="midnightblue" d="M523.062,-232.94C568.28,-223.201 640.22,-207.706 688.966,-197.207"/>
<polygon fill="midnightblue" stroke="midnightblue" points="689.959,-200.574 698.998,-195.047 688.485,-193.731 689.959,-200.574"/>
</g>
<!-- Node30&#45;&gt;Node24 -->
<g id="edge25" class="edge"><title>Node30&#45;&gt;Node24</title>
<path fill="none" stroke="midnightblue" d="M626.504,-174.753C643.483,-165.783 669.458,-152.06 688.881,-141.799"/>
<polygon fill="midnightblue" stroke="midnightblue" points="690.615,-144.841 697.822,-137.075 687.345,-138.652 690.615,-144.841"/>
</g>
<!-- Node31&#45;&gt;Node19 -->
<g id="edge27" class="edge"><title>Node31&#45;&gt;Node19</title>
<path fill="none" stroke="midnightblue" d="M473.12,-174.753C461.08,-166.109 442.894,-153.052 428.797,-142.931"/>
<polygon fill="midnightblue" stroke="midnightblue" points="430.805,-140.064 420.64,-137.075 426.722,-145.75 430.805,-140.064"/>
</g>
<!-- Node32&#45;&gt;Node23 -->
<g id="edge29" class="edge"><title>Node32&#45;&gt;Node23</title>
<path fill="none" stroke="midnightblue" d="M768.203,-174.878C796.642,-165.342 841.389,-150.336 872.572,-139.88"/>
<polygon fill="midnightblue" stroke="midnightblue" points="873.813,-143.155 882.182,-136.658 871.588,-136.519 873.813,-143.155"/>
</g>
<!-- Node36 -->
<g id="node29" class="node"><title>Node36</title>
<g id="a_node29"><a xlink:href="_primitive_behaviour_names_8h.html" target="_top" xlink:title=" ">
<polygon fill="white" stroke="black" points="1197.31,-175 1197.31,-195 1336.69,-195 1336.69,-175 1197.31,-175"/>
<text text-anchor="middle" x="1267" y="-181" font-family="Helvetica,sans-Serif" font-size="10.00">PrimitiveBehaviourNames.h</text>
</a>
</g>
</g>
<!-- Node35&#45;&gt;Node36 -->
<g id="edge31" class="edge"><title>Node35&#45;&gt;Node36</title>
<path fill="none" stroke="midnightblue" d="M1279.52,-232.753C1277.49,-225.169 1274.55,-214.188 1272.03,-204.774"/>
<polygon fill="midnightblue" stroke="midnightblue" points="1275.4,-203.829 1269.43,-195.075 1268.64,-205.64 1275.4,-203.829"/>
</g>
<!-- Node40 -->
<g id="node33" class="node"><title>Node40</title>
<g id="a_node33"><a xlink:href="_list_class_8hpp.html" target="_top" xlink:title=" ">
<polygon fill="white" stroke="red" points="2660.99,-175 2660.99,-195 2737.01,-195 2737.01,-175 2660.99,-175"/>
<text text-anchor="middle" x="2699" y="-181" font-family="Helvetica,sans-Serif" font-size="10.00">ListClass.hpp</text>
</a>
</g>
</g>
<!-- Node39&#45;&gt;Node40 -->
<g id="edge35" class="edge"><title>Node39&#45;&gt;Node40</title>
<path fill="none" stroke="midnightblue" d="M2266.66,-238.671C2343.09,-232.655 2504.08,-218.603 2650.73,-195.89"/>
<polygon fill="midnightblue" stroke="midnightblue" points="2651.47,-199.315 2660.81,-194.31 2650.39,-192.4 2651.47,-199.315"/>
</g>
<!-- Node42 -->
<g id="node34" class="node"><title>Node42</title>
<g id="a_node34"><a xlink:href="_rexx_internal_stack_8hpp.html" target="_top" xlink:title=" ">
<polygon fill="white" stroke="black" points="2754.69,-175 2754.69,-195 2871.31,-195 2871.31,-175 2754.69,-175"/>
<text text-anchor="middle" x="2813" y="-181" font-family="Helvetica,sans-Serif" font-size="10.00">RexxInternalStack.hpp</text>
</a>
</g>
</g>
<!-- Node39&#45;&gt;Node42 -->
<g id="edge36" class="edge"><title>Node39&#45;&gt;Node42</title>
<path fill="none" stroke="midnightblue" d="M2266.61,-239C2355.51,-232.823 2561.32,-217.532 2744.48,-196.123"/>
<polygon fill="midnightblue" stroke="midnightblue" points="2745.04,-199.581 2754.56,-194.935 2744.22,-192.629 2745.04,-199.581"/>
</g>
<!-- Node43 -->
<g id="node35" class="node"><title>Node43</title>
<g id="a_node35"><a xlink:href="_rexx_activation_stack_8hpp.html" target="_top" xlink:title=" ">
<polygon fill="white" stroke="black" points="2022.69,-175 2022.69,-195 2149.31,-195 2149.31,-175 2022.69,-175"/>
<text text-anchor="middle" x="2086" y="-181" font-family="Helvetica,sans-Serif" font-size="10.00">RexxActivationStack.hpp</text>
</a>
</g>
</g>
<!-- Node39&#45;&gt;Node43 -->
<g id="edge37" class="edge"><title>Node39&#45;&gt;Node43</title>
<path fill="none" stroke="midnightblue" d="M2199.85,-232.878C2177.52,-223.685 2142.85,-209.409 2117.64,-199.026"/>
<polygon fill="midnightblue" stroke="midnightblue" points="2118.72,-195.689 2108.14,-195.118 2116.06,-202.162 2118.72,-195.689"/>
</g>
<!-- Node44 -->
<g id="node36" class="node"><title>Node44</title>
<g id="a_node36"><a xlink:href="_expression_stack_8hpp.html" target="_top" xlink:title=" ">
<polygon fill="white" stroke="red" points="2167.03,-175 2167.03,-195 2276.97,-195 2276.97,-175 2167.03,-175"/>
<text text-anchor="middle" x="2222" y="-181" font-family="Helvetica,sans-Serif" font-size="10.00">ExpressionStack.hpp</text>
</a>
</g>
</g>
<!-- Node39&#45;&gt;Node44 -->
<g id="edge38" class="edge"><title>Node39&#45;&gt;Node44</title>
<path fill="none" stroke="midnightblue" d="M2222,-232.753C2222,-225.25 2222,-214.424 2222,-205.078"/>
<polygon fill="midnightblue" stroke="midnightblue" points="2225.5,-205.075 2222,-195.075 2218.5,-205.075 2225.5,-205.075"/>
</g>
<!-- Node46 -->
<g id="node37" class="node"><title>Node46</title>
<g id="a_node37"><a xlink:href="_rexx_local_variables_8hpp.html" target="_top" xlink:title=" ">
<polygon fill="white" stroke="red" points="2295.45,-175 2295.45,-195 2418.55,-195 2418.55,-175 2295.45,-175"/>
<text text-anchor="middle" x="2357" y="-181" font-family="Helvetica,sans-Serif" font-size="10.00">RexxLocalVariables.hpp</text>
</a>
</g>
</g>
<!-- Node39&#45;&gt;Node46 -->
<g id="edge39" class="edge"><title>Node39&#45;&gt;Node46</title>
<path fill="none" stroke="midnightblue" d="M2243.99,-232.878C2266.15,-223.685 2300.57,-209.409 2325.6,-199.026"/>
<polygon fill="midnightblue" stroke="midnightblue" points="2327.12,-202.183 2335.02,-195.118 2324.44,-195.717 2327.12,-202.183"/>
</g>
<!-- Node61 -->
<g id="node38" class="node"><title>Node61</title>
<g id="a_node38"><a xlink:href="_source_location_8hpp.html" target="_top" xlink:title=" ">
<polygon fill="white" stroke="black" points="2436.52,-175 2436.52,-195 2541.48,-195 2541.48,-175 2436.52,-175"/>
<text text-anchor="middle" x="2489" y="-181" font-family="Helvetica,sans-Serif" font-size="10.00">SourceLocation.hpp</text>
</a>
</g>
</g>
<!-- Node39&#45;&gt;Node61 -->
<g id="edge40" class="edge"><title>Node39&#45;&gt;Node61</title>
<path fill="none" stroke="midnightblue" d="M2265.19,-232.94C2311.73,-223.181 2385.82,-207.642 2435.88,-197.141"/>
<polygon fill="midnightblue" stroke="midnightblue" points="2436.8,-200.525 2445.87,-195.047 2435.36,-193.674 2436.8,-200.525"/>
</g>
<!-- Node62 -->
<g id="node39" class="node"><title>Node62</title>
<g id="a_node39"><a xlink:href="_exit_handler_8hpp.html" target="_top" xlink:title=" ">
<polygon fill="white" stroke="red" points="1766.7,-175 1766.7,-195 1853.3,-195 1853.3,-175 1766.7,-175"/>
<text text-anchor="middle" x="1810" y="-181" font-family="Helvetica,sans-Serif" font-size="10.00">ExitHandler.hpp</text>
</a>
</g>
</g>
<!-- Node39&#45;&gt;Node62 -->
<g id="edge41" class="edge"><title>Node39&#45;&gt;Node62</title>
<path fill="none" stroke="midnightblue" d="M2177.39,-237.141C2111.24,-229.75 1983.06,-214.704 1863.42,-195.982"/>
<polygon fill="midnightblue" stroke="midnightblue" points="1863.77,-192.495 1853.35,-194.395 1862.68,-199.41 1863.77,-192.495"/>
</g>
<!-- Node64 -->
<g id="node40" class="node"><title>Node64</title>
<g id="a_node40"><a xlink:href="_activation_api_contexts_8hpp.html" target="_top" xlink:title=" ">
<polygon fill="white" stroke="black" points="1871.63,-175 1871.63,-195 2004.37,-195 2004.37,-175 1871.63,-175"/>
<text text-anchor="middle" x="1938" y="-181" font-family="Helvetica,sans-Serif" font-size="10.00">ActivationApiContexts.hpp</text>
</a>
</g>
</g>
<!-- Node39&#45;&gt;Node64 -->
<g id="edge43" class="edge"><title>Node39&#45;&gt;Node64</title>
<path fill="none" stroke="midnightblue" d="M2177.31,-233.188C2127.71,-223.408 2047.59,-207.609 1993.88,-197.018"/>
<polygon fill="midnightblue" stroke="midnightblue" points="1994.33,-193.539 1983.84,-195.038 1992.97,-200.407 1994.33,-193.539"/>
</g>
<!-- Node65 -->
<g id="node41" class="node"><title>Node65</title>
<g id="a_node41"><a xlink:title=" ">
<polygon fill="white" stroke="#bfbfbf" points="2559.47,-175 2559.47,-195 2642.53,-195 2642.53,-175 2559.47,-175"/>
<text text-anchor="middle" x="2601" y="-181" font-family="Helvetica,sans-Serif" font-size="10.00">SysActivity.hpp</text>
</a>
</g>
</g>
<!-- Node39&#45;&gt;Node65 -->
<g id="edge45" class="edge"><title>Node39&#45;&gt;Node65</title>
<path fill="none" stroke="midnightblue" d="M2266.68,-236.515C2328,-228.815 2441.9,-213.899 2549.25,-196.051"/>
<polygon fill="midnightblue" stroke="midnightblue" points="2550,-199.474 2559.29,-194.371 2548.84,-192.57 2550,-199.474"/>
</g>
<!-- Node62&#45;&gt;Node2 -->
<g id="edge42" class="edge"><title>Node62&#45;&gt;Node2</title>
<path fill="none" stroke="midnightblue" d="M1822.81,-195.122C1840.71,-208.933 1869.19,-235.496 1852,-254 1812.9,-296.094 1411.18,-300.009 1274.92,-300.117"/>
<polygon fill="midnightblue" stroke="midnightblue" points="1274.82,-296.617 1264.82,-300.119 1274.82,-303.617 1274.82,-296.617"/>
</g>
<!-- Node64&#45;&gt;Node2 -->
<g id="edge44" class="edge"><title>Node64&#45;&gt;Node2</title>
<path fill="none" stroke="midnightblue" d="M1932.08,-195.085C1921.52,-210.401 1897.81,-240.963 1869,-254 1815.18,-278.358 1410.55,-293.97 1274.48,-298.575"/>
<polygon fill="midnightblue" stroke="midnightblue" points="1274.29,-295.079 1264.41,-298.912 1274.52,-302.076 1274.29,-295.079"/>
</g>
<!-- Node50&#45;&gt;Node22 -->
<g id="edge47" class="edge"><title>Node50&#45;&gt;Node22</title>
<path fill="none" stroke="midnightblue" d="M246.357,-62.6812C373.994,-51.6166 665.871,-26.3146 782.014,-16.2465"/>
<polygon fill="midnightblue" stroke="midnightblue" points="782.38,-19.728 792.04,-15.3773 781.775,-12.7541 782.38,-19.728"/>
</g>
<!-- Node51 -->
<g id="node43" class="node"><title>Node51</title>
<g id="a_node43"><a xlink:href="_number_string_math_8hpp.html" target="_top" xlink:title=" ">
<polygon fill="white" stroke="black" points="125.308,-1 125.308,-21 244.692,-21 244.692,-1 125.308,-1"/>
<text text-anchor="middle" x="185" y="-7" font-family="Helvetica,sans-Serif" font-size="10.00">NumberStringMath.hpp</text>
</a>
</g>
</g>
<!-- Node50&#45;&gt;Node51 -->
<g id="edge48" class="edge"><title>Node50&#45;&gt;Node51</title>
<path fill="none" stroke="midnightblue" d="M185,-58.7527C185,-51.2504 185,-40.4238 185,-31.0781"/>
<polygon fill="midnightblue" stroke="midnightblue" points="188.5,-31.0752 185,-21.0752 181.5,-31.0752 188.5,-31.0752"/>
</g>
<!-- Node67 -->
<g id="node45" class="node"><title>Node67</title>
<g id="a_node45"><a xlink:title=" ">
<polygon fill="white" stroke="#bfbfbf" points="1355.1,-175 1355.1,-195 1398.9,-195 1398.9,-175 1355.1,-175"/>
<text text-anchor="middle" x="1377" y="-181" font-family="Helvetica,sans-Serif" font-size="10.00">deque</text>
</a>
</g>
</g>
<!-- Node66&#45;&gt;Node67 -->
<g id="edge50" class="edge"><title>Node66&#45;&gt;Node67</title>
<path fill="none" stroke="midnightblue" d="M1399.54,-232.753C1395.81,-225.006 1390.36,-213.714 1385.76,-204.169"/>
<polygon fill="midnightblue" stroke="midnightblue" points="1388.87,-202.563 1381.38,-195.075 1382.57,-205.603 1388.87,-202.563"/>
</g>
<!-- Node48 -->
<g id="node47" class="node"><title>Node48</title>
<g id="a_node47"><a xlink:href="_rexx_variable_8hpp.html" target="_top" xlink:title=" ">
<polygon fill="white" stroke="black" points="128.901,-233 128.901,-253 223.099,-253 223.099,-233 128.901,-233"/>
<text text-anchor="middle" x="176" y="-239" font-family="Helvetica,sans-Serif" font-size="10.00">RexxVariable.hpp</text>
</a>
</g>
</g>
<!-- Node57&#45;&gt;Node48 -->
<g id="edge52" class="edge"><title>Node57&#45;&gt;Node48</title>
<path fill="none" stroke="midnightblue" d="M176,-290.753C176,-283.25 176,-272.424 176,-263.078"/>
<polygon fill="midnightblue" stroke="midnightblue" points="179.5,-263.075 176,-253.075 172.5,-263.075 179.5,-263.075"/>
</g>
<!-- Node49 -->
<g id="node48" class="node"><title>Node49</title>
<g id="a_node48"><a xlink:href="_string_class_8hpp.html" target="_top" xlink:title=" ">
<polygon fill="white" stroke="red" points="75.7046,-175 75.7046,-195 162.295,-195 162.295,-175 75.7046,-175"/>
<text text-anchor="middle" x="119" y="-181" font-family="Helvetica,sans-Serif" font-size="10.00">StringClass.hpp</text>
</a>
</g>
</g>
<!-- Node57&#45;&gt;Node49 -->
<g id="edge58" class="edge"><title>Node57&#45;&gt;Node49</title>
<path fill="none" stroke="midnightblue" d="M158.283,-290.986C145.065,-283.184 127.972,-270.549 120,-254 112.722,-238.892 113.212,-219.617 115.091,-205.449"/>
<polygon fill="midnightblue" stroke="midnightblue" points="118.581,-205.798 116.773,-195.359 111.676,-204.647 118.581,-205.798"/>
</g>
<!-- Node48&#45;&gt;Node49 -->
<g id="edge53" class="edge"><title>Node48&#45;&gt;Node49</title>
<path fill="none" stroke="midnightblue" d="M166.588,-232.753C158.121,-224.435 145.496,-212.031 135.377,-202.089"/>
<polygon fill="midnightblue" stroke="midnightblue" points="137.824,-199.587 128.237,-195.075 132.918,-204.58 137.824,-199.587"/>
</g>
<!-- Node49&#45;&gt;Node50 -->
<g id="edge54" class="edge"><title>Node49&#45;&gt;Node50</title>
<path fill="none" stroke="midnightblue" d="M120.059,-174.6C121.935,-160.893 126.764,-134.989 138,-116 144.835,-104.448 155.305,-93.8052 164.629,-85.6725"/>
<polygon fill="midnightblue" stroke="midnightblue" points="166.951,-88.2937 172.408,-79.2121 162.479,-82.9086 166.951,-88.2937"/>
</g>
<!-- Node52 -->
<g id="node49" class="node"><title>Node52</title>
<g id="a_node49"><a xlink:href="_integer_class_8hpp.html" target="_top" xlink:title=" ">
<polygon fill="white" stroke="black" points="-0.800293,-117 -0.800293,-137 90.8003,-137 90.8003,-117 -0.800293,-117"/>
<text text-anchor="middle" x="45" y="-123" font-family="Helvetica,sans-Serif" font-size="10.00">IntegerClass.hpp</text>
</a>
</g>
</g>
<!-- Node49&#45;&gt;Node52 -->
<g id="edge55" class="edge"><title>Node49&#45;&gt;Node52</title>
<path fill="none" stroke="midnightblue" d="M106.78,-174.753C95.4657,-166.19 78.4292,-153.298 65.1103,-143.219"/>
<polygon fill="midnightblue" stroke="midnightblue" points="67.0784,-140.319 56.9922,-137.075 62.8542,-145.901 67.0784,-140.319"/>
</g>
<!-- Node53 -->
<g id="node50" class="node"><title>Node53</title>
<g id="a_node50"><a xlink:href="_string_util_8hpp.html" target="_top" xlink:title=" ">
<polygon fill="white" stroke="black" points="146.985,-117 146.985,-137 223.015,-137 223.015,-117 146.985,-117"/>
<text text-anchor="middle" x="185" y="-123" font-family="Helvetica,sans-Serif" font-size="10.00">StringUtil.hpp</text>
</a>
</g>
</g>
<!-- Node49&#45;&gt;Node53 -->
<g id="edge57" class="edge"><title>Node49&#45;&gt;Node53</title>
<path fill="none" stroke="midnightblue" d="M129.899,-174.753C139.798,-166.353 154.608,-153.787 166.381,-143.798"/>
<polygon fill="midnightblue" stroke="midnightblue" points="168.944,-146.214 174.304,-137.075 164.415,-140.876 168.944,-146.214"/>
</g>
<!-- Node52&#45;&gt;Node50 -->
<g id="edge56" class="edge"><title>Node52&#45;&gt;Node50</title>
<path fill="none" stroke="midnightblue" d="M67.805,-116.878C90.8897,-107.644 126.792,-93.283 152.778,-82.8887"/>
<polygon fill="midnightblue" stroke="midnightblue" points="154.22,-86.0817 162.205,-79.1181 151.62,-79.5824 154.22,-86.0817"/>
</g>
</g>
</svg>
        <g id="navigator" transform="translate(0 0)" fill="#404254">
                <rect fill="#f2f5e9" fill-opacity="0.5" stroke="#606060" stroke-width=".5" x="0" y="0" width="60" height="60"/>
                <use id="zoomplus" xlink:href="#zoomPlus" x="17" y="9" onmousedown="handleZoom(evt,'in')"/>
                <use id="zoomminus" xlink:href="#zoomMin" x="42" y="9" onmousedown="handleZoom(evt,'out')"/>
                <use id="reset" xlink:href="#resetDef" x="30" y="36" onmousedown="handleReset()"/>
                <g id="arrowUp" xlink:href="#dirArrow" transform="translate(30 24)" onmousedown="handlePan(0,-1)">
                  <use xlink:href="#rim" fill="#404040">
                        <set attributeName="fill" to="#808080" begin="arrowUp.mouseover" end="arrowUp.mouseout"/>
                  </use>
                  <path fill="none" stroke="white" stroke-width="1.5" d="M0,-3.0v7 M-2.5,-0.5L0,-3.0L2.5,-0.5"/>
                </g>
                <g id="arrowRight" xlink:href="#dirArrow" transform="rotate(90) translate(36 -43)" onmousedown="handlePan(1,0)">
                  <use xlink:href="#rim" fill="#404040">
                        <set attributeName="fill" to="#808080" begin="arrowRight.mouseover" end="arrowRight.mouseout"/>
                  </use>
                  <path fill="none" stroke="white" stroke-width="1.5" d="M0,-3.0v7 M-2.5,-0.5L0,-3.0L2.5,-0.5"/>
                </g>
                <g id="arrowDown" xlink:href="#dirArrow" transform="rotate(180) translate(-30 -48)" onmousedown="handlePan(0,1)">
                  <use xlink:href="#rim" fill="#404040">
                        <set attributeName="fill" to="#808080" begin="arrowDown.mouseover" end="arrowDown.mouseout"/>
                  </use>
                  <path fill="none" stroke="white" stroke-width="1.5" d="M0,-3.0v7 M-2.5,-0.5L0,-3.0L2.5,-0.5"/>
                </g>
                <g id="arrowLeft" xlink:href="#dirArrow" transform="rotate(270) translate(-36 17)" onmousedown="handlePan(-1,0)">
                  <use xlink:href="#rim" fill="#404040">
                        <set attributeName="fill" to="#808080" begin="arrowLeft.mouseover" end="arrowLeft.mouseout"/>
                  </use>
                  <path fill="none" stroke="white" stroke-width="1.5" d="M0,-3.0v7 M-2.5,-0.5L0,-3.0L2.5,-0.5"/>
                </g>
        </g>
        <svg viewBox="0 0 15 15" width="100%" height="30px" preserveAspectRatio="xMaxYMin meet">
         <g id="arrow_out" transform="scale(0.3 0.3)">
          <a xlink:href="_rexx_compound_element_8cpp__incl_org.svg" target="_base">
           <rect id="button" ry="5" rx="5" y="6" x="6" height="38" width="38"
                fill="#f2f5e9" fill-opacity="0.5" stroke="#606060" stroke-width="1.0"/>
           <path id="arrow"
             d="M 11.500037,31.436501 C 11.940474,20.09759 22.043105,11.32322 32.158766,21.979434 L 37.068811,17.246167 C 37.068811,17.246167 37.088388,32 37.088388,32 L 22.160133,31.978069 C 22.160133,31.978069 26.997745,27.140456 26.997745,27.140456 C 18.528582,18.264221 13.291696,25.230495 11.500037,31.436501 z"
             style="fill:#404040;"/>
          </a>
         </g>
        </svg>
</svg>
