<?xml version="1.0" encoding="UTF-8" standalone="no"?>
<!DOCTYPE svg PUBLIC "-//W3C//DTD SVG 1.1//EN"
 "http://www.w3.org/Graphics/SVG/1.1/DTD/svg11.dtd">
<!-- Generated by graphviz version 12.1.0 (20240811.2233)
 -->
<!-- Title: RexxLocalVariables.cpp Pages: 1 -->
<!--zoomable 422 -->
<svg id="main" version="1.1" xmlns="http://www.w3.org/2000/svg" xmlns:xlink="http://www.w3.org/1999/xlink" xml:space="preserve" onload="init(evt)">
<style type="text/css"><![CDATA[
.edge:hover path { stroke: red; }
.edge:hover polygon { stroke: red; fill: red; }
]]></style>
<script type="text/javascript"><![CDATA[
var edges = document.getElementsByTagName('g');
if (edges && edges.length) {
  for (var i=0;i<edges.length;i++) {
    if (edges[i].id.substr(0,4)=='edge') {
      edges[i].setAttribute('class','edge');
    }
  }
}
]]></script>
        <defs>
                <circle id="rim" cx="0" cy="0" r="7"/>
                <circle id="rim2" cx="0" cy="0" r="3.5"/>
                <g id="zoomPlus">
                        <use xlink:href="#rim" fill="#404040">
                                <set attributeName="fill" to="#808080" begin="zoomplus.mouseover" end="zoomplus.mouseout"/>
                        </use>
                        <path d="M-4,0h8M0,-4v8" fill="none" stroke="white" stroke-width="1.5" pointer-events="none"/>
                </g>
                <g id="zoomMin">
                        <use xlink:href="#rim" fill="#404040">
                                <set attributeName="fill" to="#808080" begin="zoomminus.mouseover" end="zoomminus.mouseout"/>
                        </use>
                        <path d="M-4,0h8" fill="none" stroke="white" stroke-width="1.5" pointer-events="none"/>
                </g>
                <g id="dirArrow">
                        <path fill="none" stroke="white" stroke-width="1.5" d="M0,-3.0v7 M-2.5,-0.5L0,-3.0L2.5,-0.5"/>
                </g>
               <g id="resetDef">
                       <use xlink:href="#rim2" fill="#404040">
                               <set attributeName="fill" to="#808080" begin="reset.mouseover" end="reset.mouseout"/>
                       </use>
               </g>
        </defs>

<script type="text/javascript">
var viewWidth = 2287;
var viewHeight = 422;
var sectionId = 'dynsection-0';
</script>
<script xlink:href="svgpan.js"/>
<svg id="graph" class="graph">
<g id="viewport">
<title>RexxLocalVariables.cpp</title>
<polygon fill="white" stroke="none" points="-4,4 -4,-418 2282.75,-418 2282.75,4 -4,4"/>
<!-- Node1 -->
<g id="node1" class="node">
<title>Node1</title>
<g id="a_node1"><a xlink:title=" ">
<polygon fill="#bfbfbf" stroke="black" points="1287.62,-394.25 1287.62,-413.5 1408.62,-413.5 1408.62,-394.25 1287.62,-394.25"/>
<text text-anchor="middle" x="1348.12" y="-400" font-family="Helvetica,sans-Serif" font-size="10.00">RexxLocalVariables.cpp</text>
</a>
</g>
</g>
<!-- Node2 -->
<g id="node2" class="node">
<title>Node2</title>
<g id="a_node2"><a xlink:title=" ">
<polygon fill="white" stroke="#bfbfbf" points="1234.38,-338 1234.38,-357.25 1281.88,-357.25 1281.88,-338 1234.38,-338"/>
<text text-anchor="middle" x="1258.12" y="-343.75" font-family="Helvetica,sans-Serif" font-size="10.00">stdlib.h</text>
</a>
</g>
</g>
<!-- Node1&#45;&gt;Node2 -->
<g id="edge1" class="edge">
<title>Node1&#45;&gt;Node2</title>
<path fill="none" stroke="midnightblue" d="M1333.26,-393.92C1319.45,-385.59 1298.64,-373.04 1282.41,-363.27"/>
<polygon fill="midnightblue" stroke="midnightblue" points="1284.68,-360.54 1274.31,-358.38 1281.06,-366.54 1284.68,-360.54"/>
</g>
<!-- Node3 -->
<g id="node3" class="node">
<title>Node3</title>
<g id="a_node3"><a xlink:href="_rexx_core_8h.html" target="_top" xlink:title=" ">
<polygon fill="white" stroke="black" points="1011.88,-225.5 1011.88,-244.75 1080.38,-244.75 1080.38,-225.5 1011.88,-225.5"/>
<text text-anchor="middle" x="1046.12" y="-231.25" font-family="Helvetica,sans-Serif" font-size="10.00">RexxCore.h</text>
</a>
</g>
</g>
<!-- Node1&#45;&gt;Node3 -->
<g id="edge2" class="edge">
<title>Node1&#45;&gt;Node3</title>
<path fill="none" stroke="midnightblue" d="M1346.34,-393.98C1343.09,-380.07 1334.96,-353.14 1318.12,-337.5 1253.75,-277.69 1150.87,-252.32 1091.81,-242.23"/>
<polygon fill="midnightblue" stroke="midnightblue" points="1092.54,-238.8 1082.1,-240.65 1091.41,-245.71 1092.54,-238.8"/>
</g>
<!-- Node48 -->
<g id="node37" class="node">
<title>Node48</title>
<g id="a_node37"><a xlink:href="_rexx_local_variables_8hpp.html" target="_top" xlink:title=" ">
<polygon fill="white" stroke="black" points="2150.62,-113 2150.62,-132.25 2271.62,-132.25 2271.62,-113 2150.62,-113"/>
<text text-anchor="middle" x="2211.12" y="-118.75" font-family="Helvetica,sans-Serif" font-size="10.00">RexxLocalVariables.hpp</text>
</a>
</g>
</g>
<!-- Node1&#45;&gt;Node48 -->
<g id="edge52" class="edge">
<title>Node1&#45;&gt;Node48</title>
<path fill="none" stroke="midnightblue" d="M1408.99,-401.82C1611.4,-397.52 2249.12,-377.23 2249.12,-292.38 2249.12,-292.38 2249.12,-292.38 2249.12,-234.12 2249.12,-204.41 2245.31,-196.66 2235.12,-168.75 2231.86,-159.8 2227.11,-150.42 2222.7,-142.54"/>
<polygon fill="midnightblue" stroke="midnightblue" points="2225.72,-140.77 2217.64,-133.92 2219.68,-144.31 2225.72,-140.77"/>
</g>
<!-- Node51 -->
<g id="node41" class="node">
<title>Node51</title>
<g id="a_node41"><a xlink:href="_string_class_8hpp.html" target="_top" xlink:title=" ">
<polygon fill="white" stroke="black" points="141.25,-281.75 141.25,-301 227,-301 227,-281.75 141.25,-281.75"/>
<text text-anchor="middle" x="184.12" y="-287.5" font-family="Helvetica,sans-Serif" font-size="10.00">StringClass.hpp</text>
</a>
</g>
</g>
<!-- Node1&#45;&gt;Node51 -->
<g id="edge44" class="edge">
<title>Node1&#45;&gt;Node51</title>
<path fill="none" stroke="midnightblue" d="M1343.6,-394.08C1335.43,-379.26 1316.65,-349.74 1291.12,-337.5 1243.28,-314.55 455.25,-297.63 238.77,-293.4"/>
<polygon fill="midnightblue" stroke="midnightblue" points="238.99,-289.91 228.92,-293.21 238.85,-296.91 238.99,-289.91"/>
</g>
<!-- Node70 -->
<g id="node45" class="node">
<title>Node70</title>
<g id="a_node45"><a xlink:href="_rexx_activation_8hpp.html" target="_top" xlink:title=" ">
<polygon fill="white" stroke="black" points="1894.38,-338 1894.38,-357.25 1995.88,-357.25 1995.88,-338 1894.38,-338"/>
<text text-anchor="middle" x="1945.12" y="-343.75" font-family="Helvetica,sans-Serif" font-size="10.00">RexxActivation.hpp</text>
</a>
</g>
</g>
<!-- Node1&#45;&gt;Node70 -->
<g id="edge53" class="edge">
<title>Node1&#45;&gt;Node70</title>
<path fill="none" stroke="midnightblue" d="M1408.93,-397.35C1522.85,-387 1767.3,-364.78 1882.55,-354.31"/>
<polygon fill="midnightblue" stroke="midnightblue" points="1882.81,-357.8 1892.45,-353.41 1882.18,-350.83 1882.81,-357.8"/>
</g>
<!-- Node4 -->
<g id="node4" class="node">
<title>Node4</title>
<g id="a_node4"><a xlink:href="oorexxapi_8h.html" target="_top" xlink:title=" ">
<polygon fill="white" stroke="black" points="411,-169.25 411,-188.5 477.25,-188.5 477.25,-169.25 411,-169.25"/>
<text text-anchor="middle" x="444.12" y="-175" font-family="Helvetica,sans-Serif" font-size="10.00">oorexxapi.h</text>
</a>
</g>
</g>
<!-- Node3&#45;&gt;Node4 -->
<g id="edge3" class="edge">
<title>Node3&#45;&gt;Node4</title>
<path fill="none" stroke="midnightblue" d="M1011.53,-232.94C925.04,-229.65 692.29,-218.69 488.73,-189.2"/>
<polygon fill="midnightblue" stroke="midnightblue" points="489.42,-185.76 479.02,-187.77 488.4,-192.69 489.42,-185.76"/>
</g>
<!-- Node11 -->
<g id="node7" class="node">
<title>Node11</title>
<g id="a_node7"><a xlink:title=" ">
<polygon fill="white" stroke="#bfbfbf" points="605.5,-169.25 605.5,-188.5 650.75,-188.5 650.75,-169.25 605.5,-169.25"/>
<text text-anchor="middle" x="628.12" y="-175" font-family="Helvetica,sans-Serif" font-size="10.00">stdio.h</text>
</a>
</g>
</g>
<!-- Node3&#45;&gt;Node11 -->
<g id="edge6" class="edge">
<title>Node3&#45;&gt;Node11</title>
<path fill="none" stroke="midnightblue" d="M1011.49,-231.96C945.36,-227.42 796.44,-215.26 661.98,-189.06"/>
<polygon fill="midnightblue" stroke="midnightblue" points="663.06,-185.71 652.57,-187.2 661.7,-192.58 663.06,-185.71"/>
</g>
<!-- Node12 -->
<g id="node8" class="node">
<title>Node12</title>
<g id="a_node8"><a xlink:title=" ">
<polygon fill="white" stroke="#bfbfbf" points="341.5,-169.25 341.5,-188.5 392.75,-188.5 392.75,-169.25 341.5,-169.25"/>
<text text-anchor="middle" x="367.12" y="-175" font-family="Helvetica,sans-Serif" font-size="10.00">stdarg.h</text>
</a>
</g>
</g>
<!-- Node3&#45;&gt;Node12 -->
<g id="edge7" class="edge">
<title>Node3&#45;&gt;Node12</title>
<path fill="none" stroke="midnightblue" d="M1011.66,-233.95C916.4,-232.98 641.5,-227 404.27,-189.02"/>
<polygon fill="midnightblue" stroke="midnightblue" points="404.93,-185.59 394.5,-187.44 403.81,-192.5 404.93,-185.59"/>
</g>
<!-- Node13 -->
<g id="node9" class="node">
<title>Node13</title>
<g id="a_node9"><a xlink:title=" ">
<polygon fill="white" stroke="#bfbfbf" points="669,-169.25 669,-188.5 717.25,-188.5 717.25,-169.25 669,-169.25"/>
<text text-anchor="middle" x="693.12" y="-175" font-family="Helvetica,sans-Serif" font-size="10.00">string.h</text>
</a>
</g>
</g>
<!-- Node3&#45;&gt;Node13 -->
<g id="edge8" class="edge">
<title>Node3&#45;&gt;Node13</title>
<path fill="none" stroke="midnightblue" d="M1011.77,-230.76C954.86,-224.87 837.27,-211.35 728.7,-189.31"/>
<polygon fill="midnightblue" stroke="midnightblue" points="729.53,-185.91 719.03,-187.31 728.12,-192.76 729.53,-185.91"/>
</g>
<!-- Node14 -->
<g id="node10" class="node">
<title>Node14</title>
<g id="a_node10"><a xlink:title=" ">
<polygon fill="white" stroke="#bfbfbf" points="735,-169.25 735,-188.5 783.25,-188.5 783.25,-169.25 735,-169.25"/>
<text text-anchor="middle" x="759.12" y="-175" font-family="Helvetica,sans-Serif" font-size="10.00">ctype.h</text>
</a>
</g>
</g>
<!-- Node3&#45;&gt;Node14 -->
<g id="edge9" class="edge">
<title>Node3&#45;&gt;Node14</title>
<path fill="none" stroke="midnightblue" d="M1011.41,-229.02C964.41,-221.87 877.74,-207.89 794.72,-189.42"/>
<polygon fill="midnightblue" stroke="midnightblue" points="795.57,-186.03 785.05,-187.24 794.03,-192.85 795.57,-186.03"/>
</g>
<!-- Node15 -->
<g id="node11" class="node">
<title>Node15</title>
<g id="a_node11"><a xlink:title=" ">
<polygon fill="white" stroke="#bfbfbf" points="801.38,-169.25 801.38,-188.5 848.88,-188.5 848.88,-169.25 801.38,-169.25"/>
<text text-anchor="middle" x="825.12" y="-175" font-family="Helvetica,sans-Serif" font-size="10.00">limits.h</text>
</a>
</g>
</g>
<!-- Node3&#45;&gt;Node15 -->
<g id="edge10" class="edge">
<title>Node3&#45;&gt;Node15</title>
<path fill="none" stroke="midnightblue" d="M1011.39,-226.16C975.8,-217.92 918.63,-204.46 860.17,-189.46"/>
<polygon fill="midnightblue" stroke="midnightblue" points="861.27,-186.13 850.72,-187.03 859.53,-192.91 861.27,-186.13"/>
</g>
<!-- Node16 -->
<g id="node12" class="node">
<title>Node16</title>
<g id="a_node12"><a xlink:title=" ">
<polygon fill="white" stroke="#bfbfbf" points="866.75,-169.25 866.75,-188.5 925.5,-188.5 925.5,-169.25 866.75,-169.25"/>
<text text-anchor="middle" x="896.12" y="-175" font-family="Helvetica,sans-Serif" font-size="10.00">stdexcept</text>
</a>
</g>
</g>
<!-- Node3&#45;&gt;Node16 -->
<g id="edge11" class="edge">
<title>Node3&#45;&gt;Node16</title>
<path fill="none" stroke="midnightblue" d="M1021.02,-225.04C996.68,-216.24 959.52,-202.8 932.05,-192.87"/>
<polygon fill="midnightblue" stroke="midnightblue" points="933.33,-189.61 922.74,-189.5 930.95,-196.19 933.33,-189.61"/>
</g>
<!-- Node17 -->
<g id="node13" class="node">
<title>Node17</title>
<g id="a_node13"><a xlink:href="_rexx_platform_definitions_8h.html" target="_top" xlink:title=" ">
<polygon fill="white" stroke="black" points="980.75,-169.25 980.75,-188.5 1111.5,-188.5 1111.5,-169.25 980.75,-169.25"/>
<text text-anchor="middle" x="1046.12" y="-175" font-family="Helvetica,sans-Serif" font-size="10.00">RexxPlatformDefinitions.h</text>
</a>
</g>
</g>
<!-- Node3&#45;&gt;Node17 -->
<g id="edge12" class="edge">
<title>Node3&#45;&gt;Node17</title>
<path fill="none" stroke="midnightblue" d="M1046.12,-225.17C1046.12,-218.37 1046.12,-208.76 1046.12,-200.15"/>
<polygon fill="midnightblue" stroke="midnightblue" points="1049.63,-200.18 1046.13,-190.18 1042.63,-200.18 1049.63,-200.18"/>
</g>
<!-- Node20 -->
<g id="node16" class="node">
<title>Node20</title>
<g id="a_node16"><a xlink:href="_rexx_constants_8hpp.html" target="_top" xlink:title=" ">
<polygon fill="white" stroke="black" points="1286.62,-169.25 1286.62,-188.5 1389.62,-188.5 1389.62,-169.25 1286.62,-169.25"/>
<text text-anchor="middle" x="1338.12" y="-175" font-family="Helvetica,sans-Serif" font-size="10.00">RexxConstants.hpp</text>
</a>
</g>
</g>
<!-- Node3&#45;&gt;Node20 -->
<g id="edge15" class="edge">
<title>Node3&#45;&gt;Node20</title>
<path fill="none" stroke="midnightblue" d="M1080.77,-227.69C1129.38,-218.66 1218.53,-202.09 1278.07,-191.03"/>
<polygon fill="midnightblue" stroke="midnightblue" points="1278.51,-194.51 1287.71,-189.24 1277.24,-187.63 1278.51,-194.51"/>
</g>
<!-- Node21 -->
<g id="node17" class="node">
<title>Node21</title>
<g id="a_node17"><a xlink:href="_class_type_codes_8h.html" target="_top" xlink:title=" ">
<polygon fill="white" stroke="black" points="1078.5,-56.75 1078.5,-76 1177.75,-76 1177.75,-56.75 1078.5,-56.75"/>
<text text-anchor="middle" x="1128.12" y="-62.5" font-family="Helvetica,sans-Serif" font-size="10.00">ClassTypeCodes.h</text>
</a>
</g>
</g>
<!-- Node3&#45;&gt;Node21 -->
<g id="edge16" class="edge">
<title>Node3&#45;&gt;Node21</title>
<path fill="none" stroke="midnightblue" d="M1080.74,-228.85C1120,-222.23 1185.52,-209.22 1239.12,-189 1240.67,-188.42 1343.28,-134.17 1344.12,-132.75 1348.75,-125.03 1349.8,-119.48 1344.12,-112.5 1324.94,-88.89 1246.43,-77.21 1189.59,-71.74"/>
<polygon fill="midnightblue" stroke="midnightblue" points="1189.96,-68.26 1179.68,-70.84 1189.32,-75.23 1189.96,-68.26"/>
</g>
<!-- Node22 -->
<g id="node18" class="node">
<title>Node22</title>
<g id="a_node18"><a xlink:href="_global_names_8h.html" target="_top" xlink:title=" ">
<polygon fill="white" stroke="black" points="1407.38,-169.25 1407.38,-188.5 1490.88,-188.5 1490.88,-169.25 1407.38,-169.25"/>
<text text-anchor="middle" x="1449.12" y="-175" font-family="Helvetica,sans-Serif" font-size="10.00">GlobalNames.h</text>
</a>
</g>
</g>
<!-- Node3&#45;&gt;Node22 -->
<g id="edge17" class="edge">
<title>Node3&#45;&gt;Node22</title>
<path fill="none" stroke="midnightblue" d="M1080.78,-230.32C1142.22,-223.43 1274.49,-208.01 1395.81,-189.45"/>
<polygon fill="midnightblue" stroke="midnightblue" points="1396.29,-192.92 1405.64,-187.94 1395.23,-186 1396.29,-192.92"/>
</g>
<!-- Node23 -->
<g id="node19" class="node">
<title>Node23</title>
<g id="a_node19"><a xlink:href="_object_class_8hpp.html" target="_top" xlink:title=" ">
<polygon fill="white" stroke="black" points="196.75,-169.25 196.75,-188.5 285.5,-188.5 285.5,-169.25 196.75,-169.25"/>
<text text-anchor="middle" x="241.12" y="-175" font-family="Helvetica,sans-Serif" font-size="10.00">ObjectClass.hpp</text>
</a>
</g>
</g>
<!-- Node3&#45;&gt;Node23 -->
<g id="edge18" class="edge">
<title>Node3&#45;&gt;Node23</title>
<path fill="none" stroke="midnightblue" d="M1011.54,-232.39C908.25,-227.12 593.02,-210.32 332.12,-189 320.85,-188.08 308.8,-186.96 297.28,-185.83"/>
<polygon fill="midnightblue" stroke="midnightblue" points="297.8,-182.37 287.5,-184.86 297.1,-189.33 297.8,-182.37"/>
</g>
<!-- Node26 -->
<g id="node22" class="node">
<title>Node26</title>
<g id="a_node22"><a xlink:href="_table_class_8hpp.html" target="_top" xlink:title=" ">
<polygon fill="white" stroke="black" points="656.38,-56.75 656.38,-76 739.88,-76 739.88,-56.75 656.38,-56.75"/>
<text text-anchor="middle" x="698.12" y="-62.5" font-family="Helvetica,sans-Serif" font-size="10.00">TableClass.hpp</text>
</a>
</g>
</g>
<!-- Node3&#45;&gt;Node26 -->
<g id="edge21" class="edge">
<title>Node3&#45;&gt;Node26</title>
<path fill="none" stroke="midnightblue" d="M1031.49,-225.15C1005.79,-209.48 953.46,-177.9 934.12,-168.75 892.56,-149.09 879.07,-151.61 837.12,-132.75 819.67,-124.9 816.32,-120.91 799.12,-112.5 776.27,-101.32 750.03,-89.63 730.02,-80.95"/>
<polygon fill="midnightblue" stroke="midnightblue" points="731.56,-77.8 720.99,-77.06 728.79,-84.23 731.56,-77.8"/>
</g>
<!-- Node29 -->
<g id="node24" class="node">
<title>Node29</title>
<g id="a_node24"><a xlink:href="_stack_class_8hpp.html" target="_top" xlink:title=" ">
<polygon fill="white" stroke="black" points="1509.25,-169.25 1509.25,-188.5 1595,-188.5 1595,-169.25 1509.25,-169.25"/>
<text text-anchor="middle" x="1552.12" y="-175" font-family="Helvetica,sans-Serif" font-size="10.00">StackClass.hpp</text>
</a>
</g>
</g>
<!-- Node3&#45;&gt;Node29 -->
<g id="edge23" class="edge">
<title>Node3&#45;&gt;Node29</title>
<path fill="none" stroke="midnightblue" d="M1080.69,-231.58C1155.01,-225.9 1335.8,-211.09 1497.63,-189.25"/>
<polygon fill="midnightblue" stroke="midnightblue" points="1497.82,-192.76 1507.25,-187.94 1496.87,-185.82 1497.82,-192.76"/>
</g>
<!-- Node30 -->
<g id="node25" class="node">
<title>Node30</title>
<g id="a_node25"><a xlink:href="_rexx_memory_8hpp.html" target="_top" xlink:title=" ">
<polygon fill="white" stroke="black" points="495.25,-169.25 495.25,-188.5 587,-188.5 587,-169.25 495.25,-169.25"/>
<text text-anchor="middle" x="541.12" y="-175" font-family="Helvetica,sans-Serif" font-size="10.00">RexxMemory.hpp</text>
</a>
</g>
</g>
<!-- Node3&#45;&gt;Node30 -->
<g id="edge24" class="edge">
<title>Node3&#45;&gt;Node30</title>
<path fill="none" stroke="midnightblue" d="M1011.6,-231.43C937.78,-225.49 758.9,-210.25 598.34,-189.22"/>
<polygon fill="midnightblue" stroke="midnightblue" points="599.18,-185.8 588.81,-187.96 598.26,-192.74 599.18,-185.8"/>
</g>
<!-- Node37 -->
<g id="node30" class="node">
<title>Node37</title>
<g id="a_node30"><a xlink:href="_rexx_behaviour_8hpp.html" target="_top" xlink:title=" ">
<polygon fill="white" stroke="black" points="1129.75,-169.25 1129.75,-188.5 1230.5,-188.5 1230.5,-169.25 1129.75,-169.25"/>
<text text-anchor="middle" x="1180.12" y="-175" font-family="Helvetica,sans-Serif" font-size="10.00">RexxBehaviour.hpp</text>
</a>
</g>
</g>
<!-- Node3&#45;&gt;Node37 -->
<g id="edge32" class="edge">
<title>Node3&#45;&gt;Node37</title>
<path fill="none" stroke="midnightblue" d="M1068.55,-225.04C1090,-216.36 1122.61,-203.16 1147.04,-193.27"/>
<polygon fill="midnightblue" stroke="midnightblue" points="1148.26,-196.55 1156.22,-189.55 1145.64,-190.06 1148.26,-196.55"/>
</g>
<!-- Node39 -->
<g id="node32" class="node">
<title>Node39</title>
<g id="a_node32"><a xlink:href="_class_class_8hpp.html" target="_top" xlink:title=" ">
<polygon fill="white" stroke="black" points="1613.25,-169.25 1613.25,-188.5 1699,-188.5 1699,-169.25 1613.25,-169.25"/>
<text text-anchor="middle" x="1656.12" y="-175" font-family="Helvetica,sans-Serif" font-size="10.00">ClassClass.hpp</text>
</a>
</g>
</g>
<!-- Node3&#45;&gt;Node39 -->
<g id="edge34" class="edge">
<title>Node3&#45;&gt;Node39</title>
<path fill="none" stroke="midnightblue" d="M1080.85,-232.44C1167.14,-228.02 1398.42,-214.71 1601.58,-189.22"/>
<polygon fill="midnightblue" stroke="midnightblue" points="1601.78,-192.72 1611.26,-187.99 1600.9,-185.77 1601.78,-192.72"/>
</g>
<!-- Node40 -->
<g id="node33" class="node">
<title>Node40</title>
<g id="a_node33"><a xlink:href="_rexx_envelope_8hpp.html" target="_top" xlink:title=" ">
<polygon fill="white" stroke="black" points="1716.88,-169.25 1716.88,-188.5 1815.38,-188.5 1815.38,-169.25 1716.88,-169.25"/>
<text text-anchor="middle" x="1766.12" y="-175" font-family="Helvetica,sans-Serif" font-size="10.00">RexxEnvelope.hpp</text>
</a>
</g>
</g>
<!-- Node3&#45;&gt;Node40 -->
<g id="edge35" class="edge">
<title>Node3&#45;&gt;Node40</title>
<path fill="none" stroke="midnightblue" d="M1080.68,-232.84C1177.55,-229.02 1460.14,-216.31 1705.22,-189.24"/>
<polygon fill="midnightblue" stroke="midnightblue" points="1705.44,-192.73 1714.99,-188.15 1704.66,-185.78 1705.44,-192.73"/>
</g>
<!-- Node41 -->
<g id="node34" class="node">
<title>Node41</title>
<g id="a_node34"><a xlink:href="_rexx_activity_8hpp.html" target="_top" xlink:title=" ">
<polygon fill="white" stroke="red" points="1833.38,-169.25 1833.38,-188.5 1922.88,-188.5 1922.88,-169.25 1833.38,-169.25"/>
<text text-anchor="middle" x="1878.12" y="-175" font-family="Helvetica,sans-Serif" font-size="10.00">RexxActivity.hpp</text>
</a>
</g>
</g>
<!-- Node3&#45;&gt;Node41 -->
<g id="edge36" class="edge">
<title>Node3&#45;&gt;Node41</title>
<path fill="none" stroke="midnightblue" d="M1080.75,-233.47C1188.77,-231.13 1529.31,-221.61 1821.84,-189.13"/>
<polygon fill="midnightblue" stroke="midnightblue" points="1822.04,-192.63 1831.59,-188.03 1821.26,-185.67 1822.04,-192.63"/>
</g>
<!-- Node52 -->
<g id="node39" class="node">
<title>Node52</title>
<g id="a_node39"><a xlink:href="_number_string_class_8hpp.html" target="_top" xlink:title=" ">
<polygon fill="white" stroke="red" points="58,-169.25 58,-188.5 178.25,-188.5 178.25,-169.25 58,-169.25"/>
<text text-anchor="middle" x="118.12" y="-175" font-family="Helvetica,sans-Serif" font-size="10.00">NumberStringClass.hpp</text>
</a>
</g>
</g>
<!-- Node3&#45;&gt;Node52 -->
<g id="edge41" class="edge">
<title>Node3&#45;&gt;Node52</title>
<path fill="none" stroke="midnightblue" d="M1011.73,-233.27C896.91,-230.21 516.18,-218.44 189.53,-189.04"/>
<polygon fill="midnightblue" stroke="midnightblue" points="190.2,-185.59 179.93,-188.17 189.57,-192.56 190.2,-185.59"/>
</g>
<!-- Node68 -->
<g id="node40" class="node">
<title>Node68</title>
<g id="a_node40"><a xlink:href="_activity_manager_8hpp.html" target="_top" xlink:title=" ">
<polygon fill="white" stroke="red" points="1940.88,-169.25 1940.88,-188.5 2045.38,-188.5 2045.38,-169.25 1940.88,-169.25"/>
<text text-anchor="middle" x="1993.12" y="-175" font-family="Helvetica,sans-Serif" font-size="10.00">ActivityManager.hpp</text>
</a>
</g>
</g>
<!-- Node3&#45;&gt;Node68 -->
<g id="edge43" class="edge">
<title>Node3&#45;&gt;Node68</title>
<path fill="none" stroke="midnightblue" d="M1080.84,-233.57C1198.45,-231.45 1592.87,-222.24 1929.16,-189.2"/>
<polygon fill="midnightblue" stroke="midnightblue" points="1929.48,-192.69 1939.09,-188.22 1928.79,-185.72 1929.48,-192.69"/>
</g>
<!-- Node5 -->
<g id="node5" class="node">
<title>Node5</title>
<g id="a_node5"><a xlink:href="rexx_8h.html" target="_top" xlink:title=" ">
<polygon fill="white" stroke="red" points="269.62,-113 269.62,-132.25 312.62,-132.25 312.62,-113 269.62,-113"/>
<text text-anchor="middle" x="291.12" y="-118.75" font-family="Helvetica,sans-Serif" font-size="10.00">rexx.h</text>
</a>
</g>
</g>
<!-- Node4&#45;&gt;Node5 -->
<g id="edge4" class="edge">
<title>Node4&#45;&gt;Node5</title>
<path fill="none" stroke="midnightblue" d="M418.52,-168.79C392.38,-159.53 351.74,-145.12 323.42,-135.08"/>
<polygon fill="midnightblue" stroke="midnightblue" points="324.87,-131.88 314.28,-131.83 322.53,-138.47 324.87,-131.88"/>
</g>
<!-- Node10 -->
<g id="node6" class="node">
<title>Node10</title>
<g id="a_node6"><a xlink:href="oorexxerrors_8h.html" target="_top" xlink:title=" ">
<polygon fill="white" stroke="black" points="331,-113 331,-132.25 409.25,-132.25 409.25,-113 331,-113"/>
<text text-anchor="middle" x="370.12" y="-118.75" font-family="Helvetica,sans-Serif" font-size="10.00">oorexxerrors.h</text>
</a>
</g>
</g>
<!-- Node4&#45;&gt;Node10 -->
<g id="edge5" class="edge">
<title>Node4&#45;&gt;Node10</title>
<path fill="none" stroke="midnightblue" d="M431.91,-168.92C420.98,-160.91 404.72,-148.99 391.62,-139.38"/>
<polygon fill="midnightblue" stroke="midnightblue" points="393.72,-136.58 383.58,-133.49 389.58,-142.23 393.72,-136.58"/>
</g>
<!-- Node18 -->
<g id="node14" class="node">
<title>Node18</title>
<g id="a_node14"><a xlink:title=" ">
<polygon fill="white" stroke="#bfbfbf" points="957.38,-113 957.38,-132.25 1064.88,-132.25 1064.88,-113 957.38,-113"/>
<text text-anchor="middle" x="1011.12" y="-118.75" font-family="Helvetica,sans-Serif" font-size="10.00">PlatformDefinitions.h</text>
</a>
</g>
</g>
<!-- Node17&#45;&gt;Node18 -->
<g id="edge13" class="edge">
<title>Node17&#45;&gt;Node18</title>
<path fill="none" stroke="midnightblue" d="M1040.35,-168.92C1035.61,-161.57 1028.74,-150.93 1022.86,-141.81"/>
<polygon fill="midnightblue" stroke="midnightblue" points="1025.98,-140.19 1017.62,-133.69 1020.1,-143.99 1025.98,-140.19"/>
</g>
<!-- Node19 -->
<g id="node15" class="node">
<title>Node19</title>
<g id="a_node15"><a xlink:href="_rexx_error_codes_8h.html" target="_top" xlink:title=" ">
<polygon fill="white" stroke="black" points="1082.62,-113 1082.62,-132.25 1179.62,-132.25 1179.62,-113 1082.62,-113"/>
<text text-anchor="middle" x="1131.12" y="-118.75" font-family="Helvetica,sans-Serif" font-size="10.00">RexxErrorCodes.h</text>
</a>
</g>
</g>
<!-- Node17&#45;&gt;Node19 -->
<g id="edge14" class="edge">
<title>Node17&#45;&gt;Node19</title>
<path fill="none" stroke="midnightblue" d="M1060.16,-168.92C1073.08,-160.67 1092.49,-148.28 1107.75,-138.54"/>
<polygon fill="midnightblue" stroke="midnightblue" points="1109.25,-141.74 1115.79,-133.41 1105.48,-135.84 1109.25,-141.74"/>
</g>
<!-- Node24 -->
<g id="node20" class="node">
<title>Node24</title>
<g id="a_node20"><a xlink:href="_numerics_8hpp.html" target="_top" xlink:title=" ">
<polygon fill="white" stroke="black" points="108.75,-113 108.75,-132.25 185.5,-132.25 185.5,-113 108.75,-113"/>
<text text-anchor="middle" x="147.12" y="-118.75" font-family="Helvetica,sans-Serif" font-size="10.00">Numerics.hpp</text>
</a>
</g>
</g>
<!-- Node23&#45;&gt;Node24 -->
<g id="edge19" class="edge">
<title>Node23&#45;&gt;Node24</title>
<path fill="none" stroke="midnightblue" d="M225.6,-168.92C211.18,-160.59 189.44,-148.04 172.49,-138.27"/>
<polygon fill="midnightblue" stroke="midnightblue" points="174.39,-135.32 163.98,-133.35 170.89,-141.38 174.39,-135.32"/>
</g>
<!-- Node25 -->
<g id="node21" class="node">
<title>Node25</title>
<g id="a_node21"><a xlink:title=" ">
<polygon fill="white" stroke="#bfbfbf" points="336.5,-56.75 336.5,-76 387.75,-76 387.75,-56.75 336.5,-56.75"/>
<text text-anchor="middle" x="362.12" y="-62.5" font-family="Helvetica,sans-Serif" font-size="10.00">stddef.h</text>
</a>
</g>
</g>
<!-- Node23&#45;&gt;Node25 -->
<g id="edge20" class="edge">
<title>Node23&#45;&gt;Node25</title>
<path fill="none" stroke="midnightblue" d="M241.55,-169.15C242.66,-155.48 246.66,-128.86 261.12,-112.5 277.73,-93.71 303.66,-82.35 325.09,-75.73"/>
<polygon fill="midnightblue" stroke="midnightblue" points="326,-79.11 334.67,-73.02 324.1,-72.37 326,-79.11"/>
</g>
<!-- Node27 -->
<g id="node23" class="node">
<title>Node27</title>
<g id="a_node23"><a xlink:href="_rexx_collection_8hpp.html" target="_top" xlink:title=" ">
<polygon fill="white" stroke="red" points="647.38,-0.5 647.38,-19.75 748.88,-19.75 748.88,-0.5 647.38,-0.5"/>
<text text-anchor="middle" x="698.12" y="-6.25" font-family="Helvetica,sans-Serif" font-size="10.00">RexxCollection.hpp</text>
</a>
</g>
</g>
<!-- Node26&#45;&gt;Node27 -->
<g id="edge22" class="edge">
<title>Node26&#45;&gt;Node27</title>
<path fill="none" stroke="midnightblue" d="M698.12,-56.42C698.12,-49.62 698.12,-40.01 698.12,-31.4"/>
<polygon fill="midnightblue" stroke="midnightblue" points="701.63,-31.43 698.13,-21.43 694.63,-31.43 701.63,-31.43"/>
</g>
<!-- Node31 -->
<g id="node26" class="node">
<title>Node31</title>
<g id="a_node26"><a xlink:title=" ">
<polygon fill="white" stroke="#bfbfbf" points="688.38,-113 688.38,-132.25 789.88,-132.25 789.88,-113 688.38,-113"/>
<text text-anchor="middle" x="739.12" y="-118.75" font-family="Helvetica,sans-Serif" font-size="10.00">SysSemaphore.hpp</text>
</a>
</g>
</g>
<!-- Node30&#45;&gt;Node31 -->
<g id="edge25" class="edge">
<title>Node30&#45;&gt;Node31</title>
<path fill="none" stroke="midnightblue" d="M574.27,-168.79C607.39,-159.72 658.51,-145.71 695.04,-135.7"/>
<polygon fill="midnightblue" stroke="midnightblue" points="695.7,-139.15 704.42,-133.13 693.85,-132.4 695.7,-139.15"/>
</g>
<!-- Node32 -->
<g id="node27" class="node">
<title>Node32</title>
<g id="a_node27"><a xlink:href="_identity_table_class_8hpp.html" target="_top" xlink:title=" ">
<polygon fill="white" stroke="black" points="554.25,-113 554.25,-132.25 670,-132.25 670,-113 554.25,-113"/>
<text text-anchor="middle" x="612.12" y="-118.75" font-family="Helvetica,sans-Serif" font-size="10.00">IdentityTableClass.hpp</text>
</a>
</g>
</g>
<!-- Node30&#45;&gt;Node32 -->
<g id="edge26" class="edge">
<title>Node30&#45;&gt;Node32</title>
<path fill="none" stroke="midnightblue" d="M552.85,-168.92C563.39,-160.86 579.12,-148.84 591.73,-139.21"/>
<polygon fill="midnightblue" stroke="midnightblue" points="593.6,-142.19 599.42,-133.34 589.35,-136.63 593.6,-142.19"/>
</g>
<!-- Node33 -->
<g id="node28" class="node">
<title>Node33</title>
<g id="a_node28"><a xlink:href="_memory_stats_8hpp.html" target="_top" xlink:title=" ">
<polygon fill="white" stroke="black" points="846.5,-113 846.5,-132.25 939.75,-132.25 939.75,-113 846.5,-113"/>
<text text-anchor="middle" x="893.12" y="-118.75" font-family="Helvetica,sans-Serif" font-size="10.00">MemoryStats.hpp</text>
</a>
</g>
</g>
<!-- Node30&#45;&gt;Node33 -->
<g id="edge28" class="edge">
<title>Node30&#45;&gt;Node33</title>
<path fill="none" stroke="midnightblue" d="M587.33,-170.16C590.31,-169.68 593.26,-169.21 596.12,-168.75 678.99,-155.58 775,-141.14 834.91,-132.23"/>
<polygon fill="midnightblue" stroke="midnightblue" points="835.15,-135.73 844.53,-130.8 834.12,-128.81 835.15,-135.73"/>
</g>
<!-- Node34 -->
<g id="node29" class="node">
<title>Node34</title>
<g id="a_node29"><a xlink:href="_memory_segment_8hpp.html" target="_top" xlink:title=" ">
<polygon fill="white" stroke="red" points="427.62,-113 427.62,-132.25 536.62,-132.25 536.62,-113 427.62,-113"/>
<text text-anchor="middle" x="482.12" y="-118.75" font-family="Helvetica,sans-Serif" font-size="10.00">MemorySegment.hpp</text>
</a>
</g>
</g>
<!-- Node30&#45;&gt;Node34 -->
<g id="edge30" class="edge">
<title>Node30&#45;&gt;Node34</title>
<path fill="none" stroke="midnightblue" d="M531.38,-168.92C522.88,-161.1 510.32,-149.55 500.01,-140.07"/>
<polygon fill="midnightblue" stroke="midnightblue" points="502.53,-137.63 492.8,-133.44 497.79,-142.79 502.53,-137.63"/>
</g>
<!-- Node32&#45;&gt;Node26 -->
<g id="edge27" class="edge">
<title>Node32&#45;&gt;Node26</title>
<path fill="none" stroke="midnightblue" d="M626.33,-112.67C639.4,-104.42 659.04,-92.03 674.48,-82.29"/>
<polygon fill="midnightblue" stroke="midnightblue" points="676.03,-85.45 682.62,-77.15 672.3,-79.53 676.03,-85.45"/>
</g>
<!-- Node33&#45;&gt;Node21 -->
<g id="edge29" class="edge">
<title>Node33&#45;&gt;Node21</title>
<path fill="none" stroke="midnightblue" d="M932.46,-112.54C972.28,-103.35 1034.02,-89.1 1077.48,-79.07"/>
<polygon fill="midnightblue" stroke="midnightblue" points="1078.23,-82.49 1087.19,-76.83 1076.66,-75.66 1078.23,-82.49"/>
</g>
<!-- Node34&#45;&gt;Node25 -->
<g id="edge31" class="edge">
<title>Node34&#45;&gt;Node25</title>
<path fill="none" stroke="midnightblue" d="M462.04,-112.54C443.09,-103.98 414.42,-91.02 392.64,-81.17"/>
<polygon fill="midnightblue" stroke="midnightblue" points="394.21,-78.04 383.65,-77.11 391.33,-84.42 394.21,-78.04"/>
</g>
<!-- Node38 -->
<g id="node31" class="node">
<title>Node38</title>
<g id="a_node31"><a xlink:href="_primitive_behaviour_names_8h.html" target="_top" xlink:title=" ">
<polygon fill="white" stroke="black" points="1197.38,-113 1197.38,-132.25 1334.88,-132.25 1334.88,-113 1197.38,-113"/>
<text text-anchor="middle" x="1266.12" y="-118.75" font-family="Helvetica,sans-Serif" font-size="10.00">PrimitiveBehaviourNames.h</text>
</a>
</g>
</g>
<!-- Node37&#45;&gt;Node38 -->
<g id="edge33" class="edge">
<title>Node37&#45;&gt;Node38</title>
<path fill="none" stroke="midnightblue" d="M1194.33,-168.92C1207.4,-160.67 1227.04,-148.28 1242.48,-138.54"/>
<polygon fill="midnightblue" stroke="midnightblue" points="1244.03,-141.7 1250.62,-133.4 1240.3,-135.78 1244.03,-141.7"/>
</g>
<!-- Node42 -->
<g id="node35" class="node">
<title>Node42</title>
<g id="a_node35"><a xlink:href="_list_class_8hpp.html" target="_top" xlink:title=" ">
<polygon fill="white" stroke="red" points="1840.12,-113 1840.12,-132.25 1916.12,-132.25 1916.12,-113 1840.12,-113"/>
<text text-anchor="middle" x="1878.12" y="-118.75" font-family="Helvetica,sans-Serif" font-size="10.00">ListClass.hpp</text>
</a>
</g>
</g>
<!-- Node41&#45;&gt;Node42 -->
<g id="edge37" class="edge">
<title>Node41&#45;&gt;Node42</title>
<path fill="none" stroke="midnightblue" d="M1878.12,-168.92C1878.12,-162.12 1878.12,-152.51 1878.12,-143.9"/>
<polygon fill="midnightblue" stroke="midnightblue" points="1881.63,-143.93 1878.13,-133.93 1874.63,-143.93 1881.63,-143.93"/>
</g>
<!-- Node46 -->
<g id="node36" class="node">
<title>Node46</title>
<g id="a_node36"><a xlink:href="_expression_stack_8hpp.html" target="_top" xlink:title=" ">
<polygon fill="white" stroke="red" points="1976.62,-113 1976.62,-132.25 2085.62,-132.25 2085.62,-113 1976.62,-113"/>
<text text-anchor="middle" x="2031.12" y="-118.75" font-family="Helvetica,sans-Serif" font-size="10.00">ExpressionStack.hpp</text>
</a>
</g>
</g>
<!-- Node41&#45;&gt;Node46 -->
<g id="edge38" class="edge">
<title>Node41&#45;&gt;Node46</title>
<path fill="none" stroke="midnightblue" d="M1903.73,-168.79C1928.67,-159.95 1966.8,-146.43 1994.85,-136.49"/>
<polygon fill="midnightblue" stroke="midnightblue" points="1995.75,-139.88 2004.01,-133.24 1993.41,-133.28 1995.75,-139.88"/>
</g>
<!-- Node41&#45;&gt;Node48 -->
<g id="edge39" class="edge">
<title>Node41&#45;&gt;Node48</title>
<path fill="none" stroke="midnightblue" d="M1923.2,-170.23C1926.22,-169.73 1929.22,-169.23 1932.12,-168.75 2004.02,-156.86 2086.4,-143.58 2142.9,-134.52"/>
<polygon fill="midnightblue" stroke="midnightblue" points="2143.38,-137.99 2152.7,-132.95 2142.28,-131.08 2143.38,-137.99"/>
</g>
<!-- Node49 -->
<g id="node38" class="node">
<title>Node49</title>
<g id="a_node38"><a xlink:href="_rexx_variable_dictionary_8hpp.html" target="_top" xlink:title=" ">
<polygon fill="white" stroke="red" points="2143.5,-56.75 2143.5,-76 2278.75,-76 2278.75,-56.75 2143.5,-56.75"/>
<text text-anchor="middle" x="2211.12" y="-62.5" font-family="Helvetica,sans-Serif" font-size="10.00">RexxVariableDictionary.hpp</text>
</a>
</g>
</g>
<!-- Node48&#45;&gt;Node49 -->
<g id="edge40" class="edge">
<title>Node48&#45;&gt;Node49</title>
<path fill="none" stroke="midnightblue" d="M2211.12,-112.67C2211.12,-105.87 2211.12,-96.26 2211.12,-87.65"/>
<polygon fill="midnightblue" stroke="midnightblue" points="2214.63,-87.68 2211.13,-77.68 2207.63,-87.68 2214.63,-87.68"/>
</g>
<!-- Node52&#45;&gt;Node24 -->
<g id="edge42" class="edge">
<title>Node52&#45;&gt;Node24</title>
<path fill="none" stroke="midnightblue" d="M122.91,-168.92C126.76,-161.73 132.28,-151.39 137.09,-142.4"/>
<polygon fill="midnightblue" stroke="midnightblue" points="140.08,-144.22 141.71,-133.75 133.91,-140.92 140.08,-144.22"/>
</g>
<!-- Node51&#45;&gt;Node52 -->
<g id="edge45" class="edge">
<title>Node51&#45;&gt;Node52</title>
<path fill="none" stroke="midnightblue" d="M171.57,-281.37C160.93,-273.11 146.03,-259.96 137.12,-245.25 128.69,-231.32 123.83,-213.44 121.14,-199.9"/>
<polygon fill="midnightblue" stroke="midnightblue" points="124.65,-199.67 119.5,-190.42 117.76,-200.87 124.65,-199.67"/>
</g>
<!-- Node54 -->
<g id="node42" class="node">
<title>Node54</title>
<g id="a_node42"><a xlink:href="_integer_class_8hpp.html" target="_top" xlink:title=" ">
<polygon fill="white" stroke="black" points="0,-225.5 0,-244.75 90.25,-244.75 90.25,-225.5 0,-225.5"/>
<text text-anchor="middle" x="45.12" y="-231.25" font-family="Helvetica,sans-Serif" font-size="10.00">IntegerClass.hpp</text>
</a>
</g>
</g>
<!-- Node51&#45;&gt;Node54 -->
<g id="edge46" class="edge">
<title>Node51&#45;&gt;Node54</title>
<path fill="none" stroke="midnightblue" d="M160.86,-281.29C138.51,-272.57 104.48,-259.29 79.1,-249.39"/>
<polygon fill="midnightblue" stroke="midnightblue" points="80.46,-246.16 69.88,-245.79 77.92,-252.68 80.46,-246.16"/>
</g>
<!-- Node55 -->
<g id="node43" class="node">
<title>Node55</title>
<g id="a_node43"><a xlink:href="_string_util_8hpp.html" target="_top" xlink:title=" ">
<polygon fill="white" stroke="black" points="146.5,-225.5 146.5,-244.75 221.75,-244.75 221.75,-225.5 146.5,-225.5"/>
<text text-anchor="middle" x="184.12" y="-231.25" font-family="Helvetica,sans-Serif" font-size="10.00">StringUtil.hpp</text>
</a>
</g>
</g>
<!-- Node51&#45;&gt;Node55 -->
<g id="edge48" class="edge">
<title>Node51&#45;&gt;Node55</title>
<path fill="none" stroke="midnightblue" d="M184.12,-281.42C184.12,-274.62 184.12,-265.01 184.12,-256.4"/>
<polygon fill="midnightblue" stroke="midnightblue" points="187.63,-256.43 184.13,-246.43 180.63,-256.43 187.63,-256.43"/>
</g>
<!-- Node56 -->
<g id="node44" class="node">
<title>Node56</title>
<g id="a_node44"><a xlink:href="_utilities_8hpp.html" target="_top" xlink:title=" ">
<polygon fill="white" stroke="red" points="352.25,-225.5 352.25,-244.75 420,-244.75 420,-225.5 352.25,-225.5"/>
<text text-anchor="middle" x="386.12" y="-231.25" font-family="Helvetica,sans-Serif" font-size="10.00">Utilities.hpp</text>
</a>
</g>
</g>
<!-- Node51&#45;&gt;Node56 -->
<g id="edge49" class="edge">
<title>Node51&#45;&gt;Node56</title>
<path fill="none" stroke="midnightblue" d="M217.94,-281.29C251.73,-272.22 303.88,-258.21 341.15,-248.2"/>
<polygon fill="midnightblue" stroke="midnightblue" points="341.99,-251.6 350.74,-245.63 340.18,-244.84 341.99,-251.6"/>
</g>
<!-- Node54&#45;&gt;Node52 -->
<g id="edge47" class="edge">
<title>Node54&#45;&gt;Node52</title>
<path fill="none" stroke="midnightblue" d="M57.18,-225.17C68.02,-217.11 84.19,-205.09 97.15,-195.46"/>
<polygon fill="midnightblue" stroke="midnightblue" points="99.14,-198.34 105.08,-189.57 94.97,-192.72 99.14,-198.34"/>
</g>
<!-- Node56&#45;&gt;Node5 -->
<g id="edge50" class="edge">
<title>Node56&#45;&gt;Node5</title>
<path fill="none" stroke="midnightblue" d="M373.13,-225.09C361.52,-216.63 344.49,-203.18 332.12,-189 319.62,-174.66 308.37,-156.11 300.83,-142.43"/>
<polygon fill="midnightblue" stroke="midnightblue" points="304.14,-141.2 296.34,-134.02 297.96,-144.49 304.14,-141.2"/>
</g>
<!-- Node56&#45;&gt;Node12 -->
<g id="edge51" class="edge">
<title>Node56&#45;&gt;Node12</title>
<path fill="none" stroke="midnightblue" d="M382.99,-225.17C380.53,-218.14 377.01,-208.09 373.91,-199.25"/>
<polygon fill="midnightblue" stroke="midnightblue" points="377.31,-198.38 370.7,-190.1 370.71,-200.69 377.31,-198.38"/>
</g>
<!-- Node70&#45;&gt;Node46 -->
<g id="edge54" class="edge">
<title>Node70&#45;&gt;Node46</title>
<path fill="none" stroke="midnightblue" d="M1952.42,-337.64C1975.12,-309.48 2043.57,-222.82 2054.12,-189 2059.11,-173.03 2051.89,-155.12 2044.26,-142.09"/>
<polygon fill="midnightblue" stroke="midnightblue" points="2047.2,-140.2 2038.83,-133.71 2041.33,-144.01 2047.2,-140.2"/>
</g>
<!-- Node70&#45;&gt;Node48 -->
<g id="edge56" class="edge">
<title>Node70&#45;&gt;Node48</title>
<path fill="none" stroke="midnightblue" d="M1996.14,-344.31C2060.58,-340.25 2166.21,-329.41 2192.12,-301.5 2232.57,-257.93 2223.15,-180.06 2215.83,-143.55"/>
<polygon fill="midnightblue" stroke="midnightblue" points="2219.29,-142.98 2213.73,-133.96 2212.45,-144.48 2219.29,-142.98"/>
</g>
<!-- Node70&#45;&gt;Node68 -->
<g id="edge60" class="edge">
<title>Node70&#45;&gt;Node68</title>
<path fill="none" stroke="midnightblue" d="M1947.71,-337.66C1955.19,-311.65 1977.05,-235.71 1987.47,-199.51"/>
<polygon fill="midnightblue" stroke="midnightblue" points="1990.71,-200.92 1990.11,-190.34 1983.98,-198.98 1990.71,-200.92"/>
</g>
<!-- Node71 -->
<g id="node46" class="node">
<title>Node71</title>
<g id="a_node46"><a xlink:href="_do_block_8hpp.html" target="_top" xlink:title=" ">
<polygon fill="white" stroke="black" points="2011,-281.75 2011,-301 2083.25,-301 2083.25,-281.75 2011,-281.75"/>
<text text-anchor="middle" x="2047.12" y="-287.5" font-family="Helvetica,sans-Serif" font-size="10.00">DoBlock.hpp</text>
</a>
</g>
</g>
<!-- Node70&#45;&gt;Node71 -->
<g id="edge55" class="edge">
<title>Node70&#45;&gt;Node71</title>
<path fill="none" stroke="midnightblue" d="M1961.97,-337.67C1977.77,-329.26 2001.66,-316.56 2020.12,-306.74"/>
<polygon fill="midnightblue" stroke="midnightblue" points="2021.74,-309.84 2028.92,-302.06 2018.45,-303.66 2021.74,-309.84"/>
</g>
<!-- Node72 -->
<g id="node47" class="node">
<title>Node72</title>
<g id="a_node47"><a xlink:href="_rexx_date_time_8hpp.html" target="_top" xlink:title=" ">
<polygon fill="white" stroke="black" points="1816.75,-281.75 1816.75,-301 1917.5,-301 1917.5,-281.75 1816.75,-281.75"/>
<text text-anchor="middle" x="1867.12" y="-287.5" font-family="Helvetica,sans-Serif" font-size="10.00">RexxDateTime.hpp</text>
</a>
</g>
</g>
<!-- Node70&#45;&gt;Node72 -->
<g id="edge57" class="edge">
<title>Node70&#45;&gt;Node72</title>
<path fill="none" stroke="midnightblue" d="M1932.24,-337.67C1920.62,-329.58 1903.25,-317.5 1889.38,-307.85"/>
<polygon fill="midnightblue" stroke="midnightblue" points="1891.47,-305.05 1881.27,-302.21 1887.48,-310.79 1891.47,-305.05"/>
</g>
<!-- Node73 -->
<g id="node48" class="node">
<title>Node73</title>
<g id="a_node48"><a xlink:href="_rexx_code_8hpp.html" target="_top" xlink:title=" ">
<polygon fill="white" stroke="red" points="2101.5,-281.75 2101.5,-301 2182.75,-301 2182.75,-281.75 2101.5,-281.75"/>
<text text-anchor="middle" x="2142.12" y="-287.5" font-family="Helvetica,sans-Serif" font-size="10.00">RexxCode.hpp</text>
</a>
</g>
</g>
<!-- Node70&#45;&gt;Node73 -->
<g id="edge59" class="edge">
<title>Node70&#45;&gt;Node73</title>
<path fill="none" stroke="midnightblue" d="M1978.1,-337.54C2011.05,-328.47 2061.92,-314.46 2098.27,-304.45"/>
<polygon fill="midnightblue" stroke="midnightblue" points="2098.87,-307.92 2107.58,-301.89 2097.01,-301.17 2098.87,-307.92"/>
</g>
<!-- Node82 -->
<g id="node49" class="node">
<title>Node82</title>
<g id="a_node49"><a xlink:href="_rexx_compound_tail_8hpp.html" target="_top" xlink:title=" ">
<polygon fill="white" stroke="red" points="1678,-281.75 1678,-301 1798.25,-301 1798.25,-281.75 1678,-281.75"/>
<text text-anchor="middle" x="1738.12" y="-287.5" font-family="Helvetica,sans-Serif" font-size="10.00">RexxCompoundTail.hpp</text>
</a>
</g>
</g>
<!-- Node70&#45;&gt;Node82 -->
<g id="edge61" class="edge">
<title>Node70&#45;&gt;Node82</title>
<path fill="none" stroke="midnightblue" d="M1910.48,-337.54C1875.7,-328.43 1821.94,-314.34 1783.72,-304.32"/>
<polygon fill="midnightblue" stroke="midnightblue" points="1784.91,-301.02 1774.35,-301.87 1783.14,-307.79 1784.91,-301.02"/>
</g>
<!-- Node83 -->
<g id="node50" class="node">
<title>Node83</title>
<g id="a_node50"><a xlink:href="_context_class_8hpp.html" target="_top" xlink:title=" ">
<polygon fill="white" stroke="black" points="239.75,-225.5 239.75,-244.75 334.5,-244.75 334.5,-225.5 239.75,-225.5"/>
<text text-anchor="middle" x="287.12" y="-231.25" font-family="Helvetica,sans-Serif" font-size="10.00">ContextClass.hpp</text>
</a>
</g>
</g>
<!-- Node70&#45;&gt;Node83 -->
<g id="edge62" class="edge">
<title>Node70&#45;&gt;Node83</title>
<path fill="none" stroke="midnightblue" d="M1894.12,-345.22C1696.26,-339.4 960.38,-314.19 346.04,-245.48"/>
<polygon fill="midnightblue" stroke="midnightblue" points="346.57,-242.02 336.24,-244.38 345.79,-248.97 346.57,-242.02"/>
</g>
<!-- Node72&#45;&gt;Node3 -->
<g id="edge58" class="edge">
<title>Node72&#45;&gt;Node3</title>
<path fill="none" stroke="midnightblue" d="M1816.43,-282.33C1813.28,-281.94 1810.16,-281.57 1807.12,-281.25 1537.04,-252.76 1210.98,-240.95 1092.22,-237.39"/>
<polygon fill="midnightblue" stroke="midnightblue" points="1092.34,-233.89 1082.24,-237.09 1092.13,-240.88 1092.34,-233.89"/>
</g>
<!-- Node83&#45;&gt;Node23 -->
<g id="edge63" class="edge">
<title>Node83&#45;&gt;Node23</title>
<path fill="none" stroke="midnightblue" d="M279.53,-225.17C273.1,-217.58 263.69,-206.49 255.8,-197.18"/>
<polygon fill="midnightblue" stroke="midnightblue" points="258.7,-195.18 249.56,-189.82 253.36,-199.71 258.7,-195.18"/>
</g>
</g>
</svg>
        <g id="navigator" transform="translate(0 0)" fill="#404254">
                <rect fill="#f2f5e9" fill-opacity="0.5" stroke="#606060" stroke-width=".5" x="0" y="0" width="60" height="60"/>
                <use id="zoomplus" xlink:href="#zoomPlus" x="17" y="9" onmousedown="handleZoom(evt,'in')"/>
                <use id="zoomminus" xlink:href="#zoomMin" x="42" y="9" onmousedown="handleZoom(evt,'out')"/>
                <use id="reset" xlink:href="#resetDef" x="30" y="36" onmousedown="handleReset()"/>
                <g id="arrowUp" xlink:href="#dirArrow" transform="translate(30 24)" onmousedown="handlePan(0,-1)">
                  <use xlink:href="#rim" fill="#404040">
                        <set attributeName="fill" to="#808080" begin="arrowUp.mouseover" end="arrowUp.mouseout"/>
                  </use>
                  <path fill="none" stroke="white" stroke-width="1.5" d="M0,-3.0v7 M-2.5,-0.5L0,-3.0L2.5,-0.5"/>
                </g>
                <g id="arrowRight" xlink:href="#dirArrow" transform="rotate(90) translate(36 -43)" onmousedown="handlePan(1,0)">
                  <use xlink:href="#rim" fill="#404040">
                        <set attributeName="fill" to="#808080" begin="arrowRight.mouseover" end="arrowRight.mouseout"/>
                  </use>
                  <path fill="none" stroke="white" stroke-width="1.5" d="M0,-3.0v7 M-2.5,-0.5L0,-3.0L2.5,-0.5"/>
                </g>
                <g id="arrowDown" xlink:href="#dirArrow" transform="rotate(180) translate(-30 -48)" onmousedown="handlePan(0,1)">
                  <use xlink:href="#rim" fill="#404040">
                        <set attributeName="fill" to="#808080" begin="arrowDown.mouseover" end="arrowDown.mouseout"/>
                  </use>
                  <path fill="none" stroke="white" stroke-width="1.5" d="M0,-3.0v7 M-2.5,-0.5L0,-3.0L2.5,-0.5"/>
                </g>
                <g id="arrowLeft" xlink:href="#dirArrow" transform="rotate(270) translate(-36 17)" onmousedown="handlePan(-1,0)">
                  <use xlink:href="#rim" fill="#404040">
                        <set attributeName="fill" to="#808080" begin="arrowLeft.mouseover" end="arrowLeft.mouseout"/>
                  </use>
                  <path fill="none" stroke="white" stroke-width="1.5" d="M0,-3.0v7 M-2.5,-0.5L0,-3.0L2.5,-0.5"/>
                </g>
        </g>
        <svg viewBox="0 0 15 15" width="100%" height="30px" preserveAspectRatio="xMaxYMin meet">
         <g id="arrow_out" transform="scale(0.3 0.3)">
          <a xlink:href="_rexx_local_variables_8cpp__incl_org.svg" target="_base">
           <rect id="button" ry="5" rx="5" y="6" x="6" height="38" width="38"
                fill="#f2f5e9" fill-opacity="0.5" stroke="#606060" stroke-width="1.0"/>
           <path id="arrow"
             d="M 11.500037,31.436501 C 11.940474,20.09759 22.043105,11.32322 32.158766,21.979434 L 37.068811,17.246167 C 37.068811,17.246167 37.088388,32 37.088388,32 L 22.160133,31.978069 C 22.160133,31.978069 26.997745,27.140456 26.997745,27.140456 C 18.528582,18.264221 13.291696,25.230495 11.500037,31.436501 z"
             style="fill:#404040;"/>
          </a>
         </g>
        </svg>
</svg>
