<?xml version="1.0" encoding="UTF-8" standalone="no"?>
<!DOCTYPE svg PUBLIC "-//W3C//DTD SVG 1.1//EN"
 "http://www.w3.org/Graphics/SVG/1.1/DTD/svg11.dtd">
<!-- Generated by graphviz version 12.1.0 (20240811.2233)
 -->
<!-- Title: RexxActivation.cpp Pages: 1 -->
<svg width="3244pt" height="366pt"
 viewBox="0.00 0.00 3244.38 365.75" xmlns="http://www.w3.org/2000/svg" xmlns:xlink="http://www.w3.org/1999/xlink">
<g id="graph0" class="graph" transform="scale(1 1) rotate(0) translate(4 361.75)">
<title>RexxActivation.cpp</title>
<polygon fill="white" stroke="none" points="-4,4 -4,-361.75 3240.38,-361.75 3240.38,4 -4,4"/>
<!-- Node1 -->
<g id="node1" class="node">
<title>Node1</title>
<g id="a_node1"><a xlink:title=" ">
<polygon fill="#bfbfbf" stroke="black" points="1817.38,-338 1817.38,-357.25 1918.88,-357.25 1918.88,-338 1817.38,-338"/>
<text text-anchor="middle" x="1868.12" y="-343.75" font-family="Helvetica,sans-Serif" font-size="10.00">RexxActivation.cpp</text>
</a>
</g>
</g>
<!-- Node2 -->
<g id="node2" class="node">
<title>Node2</title>
<g id="a_node2"><a xlink:title=" ">
<polygon fill="white" stroke="#bfbfbf" points="0,-0.5 0,-19.75 48.25,-19.75 48.25,-0.5 0,-0.5"/>
<text text-anchor="middle" x="24.12" y="-6.25" font-family="Helvetica,sans-Serif" font-size="10.00">ctype.h</text>
</a>
</g>
</g>
<!-- Node1&#45;&gt;Node2 -->
<g id="edge1" class="edge">
<title>Node1&#45;&gt;Node2</title>
<path fill="none" stroke="midnightblue" d="M1816.92,-345.2C1569.44,-337.96 509.12,-303.03 509.12,-236.12 509.12,-236.12 509.12,-236.12 509.12,-121.62 509.12,-22.11 179.47,-43.34 59.54,-20.21"/>
<polygon fill="midnightblue" stroke="midnightblue" points="60.6,-16.86 50.09,-18.15 59.11,-23.7 60.6,-16.86"/>
</g>
<!-- Node3 -->
<g id="node3" class="node">
<title>Node3</title>
<g id="a_node3"><a xlink:title=" ">
<polygon fill="white" stroke="#bfbfbf" points="1604,-0.5 1604,-19.75 1652.25,-19.75 1652.25,-0.5 1604,-0.5"/>
<text text-anchor="middle" x="1628.12" y="-6.25" font-family="Helvetica,sans-Serif" font-size="10.00">string.h</text>
</a>
</g>
</g>
<!-- Node1&#45;&gt;Node3 -->
<g id="edge2" class="edge">
<title>Node1&#45;&gt;Node3</title>
<path fill="none" stroke="midnightblue" d="M1830.72,-337.55C1808.85,-330.67 1781.93,-319.29 1763.12,-301.5 1715.26,-256.22 1741.57,-217.39 1697.12,-168.75 1644.33,-110.97 1585.31,-144.82 1547.12,-76.5 1533.62,-52.34 1565.27,-33.69 1592.88,-22.6"/>
<polygon fill="midnightblue" stroke="midnightblue" points="1594,-25.92 1602.13,-19.12 1591.54,-19.37 1594,-25.92"/>
</g>
<!-- Node4 -->
<g id="node4" class="node">
<title>Node4</title>
<g id="a_node4"><a xlink:href="_rexx_core_8h.html" target="_top" xlink:title=" ">
<polygon fill="white" stroke="black" points="1169.88,-56.75 1169.88,-76 1238.38,-76 1238.38,-56.75 1169.88,-56.75"/>
<text text-anchor="middle" x="1204.12" y="-62.5" font-family="Helvetica,sans-Serif" font-size="10.00">RexxCore.h</text>
</a>
</g>
</g>
<!-- Node1&#45;&gt;Node4 -->
<g id="edge3" class="edge">
<title>Node1&#45;&gt;Node4</title>
<path fill="none" stroke="midnightblue" d="M1817.01,-345.54C1697.63,-342.52 1403.52,-332.11 1310.12,-301.5 1257.53,-284.26 1204.12,-291.48 1204.12,-236.12 1204.12,-236.12 1204.12,-236.12 1204.12,-177.88 1204.12,-146.28 1204.12,-109.61 1204.12,-87.47"/>
<polygon fill="midnightblue" stroke="midnightblue" points="1207.63,-87.77 1204.13,-77.77 1200.63,-87.77 1207.63,-87.77"/>
</g>
<!-- Node40 -->
<g id="node21" class="node">
<title>Node40</title>
<g id="a_node21"><a xlink:href="_rexx_activity_8hpp.html" target="_top" xlink:title=" ">
<polygon fill="white" stroke="red" points="2011.38,-0.5 2011.38,-19.75 2100.88,-19.75 2100.88,-0.5 2011.38,-0.5"/>
<text text-anchor="middle" x="2056.12" y="-6.25" font-family="Helvetica,sans-Serif" font-size="10.00">RexxActivity.hpp</text>
</a>
</g>
</g>
<!-- Node1&#45;&gt;Node40 -->
<g id="edge48" class="edge">
<title>Node1&#45;&gt;Node40</title>
<path fill="none" stroke="midnightblue" d="M1918.94,-346.01C1966.04,-343.28 2036.42,-333.53 2088.12,-301.5 2143.97,-266.9 2172.12,-245.57 2172.12,-179.88 2172.12,-179.88 2172.12,-179.88 2172.12,-121.62 2172.12,-75.12 2122.64,-42.23 2088.31,-25"/>
<polygon fill="midnightblue" stroke="midnightblue" points="2090.11,-21.98 2079.58,-20.81 2087.09,-28.29 2090.11,-21.98"/>
</g>
<!-- Node67 -->
<g id="node23" class="node">
<title>Node67</title>
<g id="a_node23"><a xlink:href="_activity_manager_8hpp.html" target="_top" xlink:title=" ">
<polygon fill="white" stroke="red" points="1877.88,-0.5 1877.88,-19.75 1982.38,-19.75 1982.38,-0.5 1877.88,-0.5"/>
<text text-anchor="middle" x="1930.12" y="-6.25" font-family="Helvetica,sans-Serif" font-size="10.00">ActivityManager.hpp</text>
</a>
</g>
</g>
<!-- Node1&#45;&gt;Node67 -->
<g id="edge60" class="edge">
<title>Node1&#45;&gt;Node67</title>
<path fill="none" stroke="midnightblue" d="M1861.37,-337.51C1855.33,-328.77 1846.86,-314.96 1843.12,-301.5 1820.57,-220.23 1828.39,-190.64 1860.12,-112.5 1873.28,-80.12 1898.16,-47.78 1914.43,-28.61"/>
<polygon fill="midnightblue" stroke="midnightblue" points="1916.93,-31.08 1920.86,-21.23 1911.65,-26.48 1916.93,-31.08"/>
</g>
<!-- Node50 -->
<g id="node24" class="node">
<title>Node50</title>
<g id="a_node24"><a xlink:href="_string_class_8hpp.html" target="_top" xlink:title=" ">
<polygon fill="white" stroke="black" points="1711.25,-113 1711.25,-132.25 1797,-132.25 1797,-113 1711.25,-113"/>
<text text-anchor="middle" x="1754.12" y="-118.75" font-family="Helvetica,sans-Serif" font-size="10.00">StringClass.hpp</text>
</a>
</g>
</g>
<!-- Node1&#45;&gt;Node50 -->
<g id="edge25" class="edge">
<title>Node1&#45;&gt;Node50</title>
<path fill="none" stroke="midnightblue" d="M1832.42,-337.56C1813.27,-330.81 1791.02,-319.57 1778.12,-301.5 1743.77,-253.39 1747.15,-178.91 1751.21,-143.56"/>
<polygon fill="midnightblue" stroke="midnightblue" points="1754.64,-144.29 1752.47,-133.92 1747.7,-143.39 1754.64,-144.29"/>
</g>
<!-- Node69 -->
<g id="node28" class="node">
<title>Node69</title>
<g id="a_node28"><a xlink:href="_buffer_class_8hpp.html" target="_top" xlink:title=" ">
<polygon fill="white" stroke="black" points="2129.88,-281.75 2129.88,-301 2216.38,-301 2216.38,-281.75 2129.88,-281.75"/>
<text text-anchor="middle" x="2173.12" y="-287.5" font-family="Helvetica,sans-Serif" font-size="10.00">BufferClass.hpp</text>
</a>
</g>
</g>
<!-- Node1&#45;&gt;Node69 -->
<g id="edge32" class="edge">
<title>Node1&#45;&gt;Node69</title>
<path fill="none" stroke="midnightblue" d="M1919.18,-337.54C1974.39,-327.72 2062.06,-312.13 2118.6,-302.07"/>
<polygon fill="midnightblue" stroke="midnightblue" points="2119.09,-305.54 2128.33,-300.34 2117.87,-298.65 2119.09,-305.54"/>
</g>
<!-- Node70 -->
<g id="node29" class="node">
<title>Node70</title>
<g id="a_node29"><a xlink:href="_directory_class_8hpp.html" target="_top" xlink:title=" ">
<polygon fill="white" stroke="red" points="2234.12,-281.75 2234.12,-301 2334.12,-301 2334.12,-281.75 2234.12,-281.75"/>
<text text-anchor="middle" x="2284.12" y="-287.5" font-family="Helvetica,sans-Serif" font-size="10.00">DirectoryClass.hpp</text>
</a>
</g>
</g>
<!-- Node1&#45;&gt;Node70 -->
<g id="edge33" class="edge">
<title>Node1&#45;&gt;Node70</title>
<path fill="none" stroke="midnightblue" d="M1919.32,-340.61C1986.46,-332.61 2108.23,-317.77 2222.53,-301.83"/>
<polygon fill="midnightblue" stroke="midnightblue" points="2223.01,-305.3 2232.43,-300.45 2222.04,-298.37 2223.01,-305.3"/>
</g>
<!-- Node48 -->
<g id="node30" class="node">
<title>Node48</title>
<g id="a_node30"><a xlink:href="_rexx_variable_dictionary_8hpp.html" target="_top" xlink:title=" ">
<polygon fill="white" stroke="red" points="2352.5,-281.75 2352.5,-301 2487.75,-301 2487.75,-281.75 2352.5,-281.75"/>
<text text-anchor="middle" x="2420.12" y="-287.5" font-family="Helvetica,sans-Serif" font-size="10.00">RexxVariableDictionary.hpp</text>
</a>
</g>
</g>
<!-- Node1&#45;&gt;Node48 -->
<g id="edge34" class="edge">
<title>Node1&#45;&gt;Node48</title>
<path fill="none" stroke="midnightblue" d="M1919.13,-342.17C2004.2,-334.66 2180.73,-318.7 2341.09,-301.7"/>
<polygon fill="midnightblue" stroke="midnightblue" points="2341.04,-305.22 2350.61,-300.68 2340.3,-298.26 2341.04,-305.22"/>
</g>
<!-- Node71 -->
<g id="node31" class="node">
<title>Node71</title>
<g id="a_node31"><a xlink:href="_rexx_activation_8hpp.html" target="_top" xlink:title=" ">
<polygon fill="white" stroke="red" points="1896.38,-281.75 1896.38,-301 1997.88,-301 1997.88,-281.75 1896.38,-281.75"/>
<text text-anchor="middle" x="1947.12" y="-287.5" font-family="Helvetica,sans-Serif" font-size="10.00">RexxActivation.hpp</text>
</a>
</g>
</g>
<!-- Node1&#45;&gt;Node71 -->
<g id="edge35" class="edge">
<title>Node1&#45;&gt;Node71</title>
<path fill="none" stroke="midnightblue" d="M1881.17,-337.67C1892.95,-329.58 1910.54,-317.5 1924.59,-307.85"/>
<polygon fill="midnightblue" stroke="midnightblue" points="1926.55,-310.75 1932.81,-302.2 1922.59,-304.98 1926.55,-310.75"/>
</g>
<!-- Node72 -->
<g id="node32" class="node">
<title>Node72</title>
<g id="a_node32"><a xlink:href="_do_block_8hpp.html" target="_top" xlink:title=" ">
<polygon fill="white" stroke="black" points="2034,-225.5 2034,-244.75 2106.25,-244.75 2106.25,-225.5 2034,-225.5"/>
<text text-anchor="middle" x="2070.12" y="-231.25" font-family="Helvetica,sans-Serif" font-size="10.00">DoBlock.hpp</text>
</a>
</g>
</g>
<!-- Node1&#45;&gt;Node72 -->
<g id="edge56" class="edge">
<title>Node1&#45;&gt;Node72</title>
<path fill="none" stroke="midnightblue" d="M1914.7,-337.54C1942.93,-330.61 1978.84,-319.19 2007.12,-301.5 2027.1,-289 2045.23,-268.81 2056.86,-254.17"/>
<polygon fill="midnightblue" stroke="midnightblue" points="2059.6,-256.35 2062.89,-246.28 2054.04,-252.1 2059.6,-256.35"/>
</g>
<!-- Node74 -->
<g id="node33" class="node">
<title>Node74</title>
<g id="a_node33"><a xlink:href="_rexx_code_8hpp.html" target="_top" xlink:title=" ">
<polygon fill="white" stroke="red" points="1483.5,-225.5 1483.5,-244.75 1564.75,-244.75 1564.75,-225.5 1483.5,-225.5"/>
<text text-anchor="middle" x="1524.12" y="-231.25" font-family="Helvetica,sans-Serif" font-size="10.00">RexxCode.hpp</text>
</a>
</g>
</g>
<!-- Node1&#45;&gt;Node74 -->
<g id="edge51" class="edge">
<title>Node1&#45;&gt;Node74</title>
<path fill="none" stroke="midnightblue" d="M1816.94,-346.77C1760.02,-345.04 1666.68,-336.42 1595.12,-301.5 1571.93,-290.18 1550.94,-268.82 1537.9,-253.59"/>
<polygon fill="midnightblue" stroke="midnightblue" points="1540.89,-251.71 1531.83,-246.22 1535.49,-256.16 1540.89,-251.71"/>
</g>
<!-- Node75 -->
<g id="node34" class="node">
<title>Node75</title>
<g id="a_node34"><a xlink:href="_source_file_8hpp.html" target="_top" xlink:title=" ">
<polygon fill="white" stroke="red" points="1478.5,-169.25 1478.5,-188.5 1559.75,-188.5 1559.75,-169.25 1478.5,-169.25"/>
<text text-anchor="middle" x="1519.12" y="-175" font-family="Helvetica,sans-Serif" font-size="10.00">SourceFile.hpp</text>
</a>
</g>
</g>
<!-- Node1&#45;&gt;Node75 -->
<g id="edge52" class="edge">
<title>Node1&#45;&gt;Node75</title>
<path fill="none" stroke="midnightblue" d="M1817.28,-340.34C1778.1,-334.13 1723.34,-322.43 1679.12,-301.5 1663.72,-294.21 1578.58,-227.16 1539.16,-195.85"/>
<polygon fill="midnightblue" stroke="midnightblue" points="1541.39,-193.15 1531.38,-189.66 1537.03,-198.62 1541.39,-193.15"/>
</g>
<!-- Node81 -->
<g id="node35" class="node">
<title>Node81</title>
<g id="a_node35"><a xlink:href="_method_class_8hpp.html" target="_top" xlink:title=" ">
<polygon fill="white" stroke="black" points="1365.88,-113 1365.88,-132.25 1458.38,-132.25 1458.38,-113 1365.88,-113"/>
<text text-anchor="middle" x="1412.12" y="-118.75" font-family="Helvetica,sans-Serif" font-size="10.00">MethodClass.hpp</text>
</a>
</g>
</g>
<!-- Node1&#45;&gt;Node81 -->
<g id="edge49" class="edge">
<title>Node1&#45;&gt;Node81</title>
<path fill="none" stroke="midnightblue" d="M1817.15,-345.5C1755.26,-342.69 1648.57,-333.2 1563.12,-301.5 1519.25,-285.22 1505.65,-279.83 1474.12,-245.25 1446.14,-214.56 1427.42,-168.89 1418.39,-143.13"/>
<polygon fill="midnightblue" stroke="midnightblue" points="1421.81,-142.34 1415.31,-133.97 1415.17,-144.56 1421.81,-142.34"/>
</g>
<!-- Node83 -->
<g id="node36" class="node">
<title>Node83</title>
<g id="a_node36"><a xlink:href="_rexx_compound_tail_8hpp.html" target="_top" xlink:title=" ">
<polygon fill="white" stroke="black" points="1858,-225.5 1858,-244.75 1978.25,-244.75 1978.25,-225.5 1858,-225.5"/>
<text text-anchor="middle" x="1918.12" y="-231.25" font-family="Helvetica,sans-Serif" font-size="10.00">RexxCompoundTail.hpp</text>
</a>
</g>
</g>
<!-- Node1&#45;&gt;Node83 -->
<g id="edge67" class="edge">
<title>Node1&#45;&gt;Node83</title>
<path fill="none" stroke="midnightblue" d="M1869.75,-337.84C1872.32,-324.99 1878.02,-300.48 1887.12,-281.25 1891.65,-271.71 1898.08,-261.95 1903.92,-253.96"/>
<polygon fill="midnightblue" stroke="midnightblue" points="1906.6,-256.21 1909.88,-246.14 1901.04,-251.97 1906.6,-256.21"/>
</g>
<!-- Node80 -->
<g id="node37" class="node">
<title>Node80</title>
<g id="a_node37"><a xlink:href="_protected_object_8hpp.html" target="_top" xlink:title=" ">
<polygon fill="white" stroke="black" points="1869.5,-113 1869.5,-132.25 1974.75,-132.25 1974.75,-113 1869.5,-113"/>
<text text-anchor="middle" x="1922.12" y="-118.75" font-family="Helvetica,sans-Serif" font-size="10.00">ProtectedObject.hpp</text>
</a>
</g>
</g>
<!-- Node1&#45;&gt;Node80 -->
<g id="edge59" class="edge">
<title>Node1&#45;&gt;Node80</title>
<path fill="none" stroke="midnightblue" d="M1863.91,-337.55C1854.98,-317.03 1836,-265.68 1849.12,-225 1860,-191.3 1886.7,-159.35 1904.61,-140.62"/>
<polygon fill="midnightblue" stroke="midnightblue" points="1906.99,-143.2 1911.53,-133.62 1902.01,-138.28 1906.99,-143.2"/>
</g>
<!-- Node85 -->
<g id="node38" class="node">
<title>Node85</title>
<g id="a_node38"><a xlink:href="_message_class_8hpp.html" target="_top" xlink:title=" ">
<polygon fill="white" stroke="black" points="2506.12,-281.75 2506.12,-301 2606.12,-301 2606.12,-281.75 2506.12,-281.75"/>
<text text-anchor="middle" x="2556.12" y="-287.5" font-family="Helvetica,sans-Serif" font-size="10.00">MessageClass.hpp</text>
</a>
</g>
</g>
<!-- Node1&#45;&gt;Node85 -->
<g id="edge50" class="edge">
<title>Node1&#45;&gt;Node85</title>
<path fill="none" stroke="midnightblue" d="M1919.21,-344.38C2024.68,-339.44 2274.36,-326.15 2494.19,-301.75"/>
<polygon fill="midnightblue" stroke="midnightblue" points="2494.58,-305.22 2504.13,-300.63 2493.8,-298.27 2494.58,-305.22"/>
</g>
<!-- Node86 -->
<g id="node39" class="node">
<title>Node86</title>
<g id="a_node39"><a xlink:href="_rexx_instruction_8hpp.html" target="_top" xlink:title=" ">
<polygon fill="white" stroke="red" points="2659.25,-225.5 2659.25,-244.75 2763,-244.75 2763,-225.5 2659.25,-225.5"/>
<text text-anchor="middle" x="2711.12" y="-231.25" font-family="Helvetica,sans-Serif" font-size="10.00">RexxInstruction.hpp</text>
</a>
</g>
</g>
<!-- Node1&#45;&gt;Node86 -->
<g id="edge53" class="edge">
<title>Node1&#45;&gt;Node86</title>
<path fill="none" stroke="midnightblue" d="M1919.31,-347.05C2066.06,-347.71 2486.03,-345.59 2615.12,-301.5 2631.15,-296.03 2667.49,-269.58 2690.57,-252.05"/>
<polygon fill="midnightblue" stroke="midnightblue" points="2692.55,-254.95 2698.36,-246.09 2688.29,-249.39 2692.55,-254.95"/>
</g>
<!-- Node87 -->
<g id="node40" class="node">
<title>Node87</title>
<g id="a_node40"><a xlink:href="_call_instruction_8hpp.html" target="_top" xlink:title=" ">
<polygon fill="white" stroke="black" points="2662.25,-281.75 2662.25,-301 2760,-301 2760,-281.75 2662.25,-281.75"/>
<text text-anchor="middle" x="2711.12" y="-287.5" font-family="Helvetica,sans-Serif" font-size="10.00">CallInstruction.hpp</text>
</a>
</g>
</g>
<!-- Node1&#45;&gt;Node87 -->
<g id="edge54" class="edge">
<title>Node1&#45;&gt;Node87</title>
<path fill="none" stroke="midnightblue" d="M1919.35,-345.19C2044.23,-341.35 2374.17,-329.21 2648.12,-301.5 2648.97,-301.41 2649.82,-301.33 2650.68,-301.23"/>
<polygon fill="midnightblue" stroke="midnightblue" points="2650.97,-304.72 2660.49,-300.08 2650.15,-297.77 2650.97,-304.72"/>
</g>
<!-- Node88 -->
<g id="node41" class="node">
<title>Node88</title>
<g id="a_node41"><a xlink:href="_do_instruction_8hpp.html" target="_top" xlink:title=" ">
<polygon fill="white" stroke="black" points="2778.5,-281.75 2778.5,-301 2871.75,-301 2871.75,-281.75 2778.5,-281.75"/>
<text text-anchor="middle" x="2825.12" y="-287.5" font-family="Helvetica,sans-Serif" font-size="10.00">DoInstruction.hpp</text>
</a>
</g>
</g>
<!-- Node1&#45;&gt;Node88 -->
<g id="edge57" class="edge">
<title>Node1&#45;&gt;Node88</title>
<path fill="none" stroke="midnightblue" d="M1919.33,-346.06C2055.54,-344.12 2438.2,-335.9 2766.94,-301.6"/>
<polygon fill="midnightblue" stroke="midnightblue" points="2767.04,-305.11 2776.62,-300.58 2766.31,-298.15 2767.04,-305.11"/>
</g>
<!-- Node35 -->
<g id="node42" class="node">
<title>Node35</title>
<g id="a_node42"><a xlink:href="_interpreter_8hpp.html" target="_top" xlink:title=" ">
<polygon fill="white" stroke="red" points="1241,-225.5 1241,-244.75 1319.25,-244.75 1319.25,-225.5 1241,-225.5"/>
<text text-anchor="middle" x="1280.12" y="-231.25" font-family="Helvetica,sans-Serif" font-size="10.00">Interpreter.hpp</text>
</a>
</g>
</g>
<!-- Node1&#45;&gt;Node35 -->
<g id="edge61" class="edge">
<title>Node1&#45;&gt;Node35</title>
<path fill="none" stroke="midnightblue" d="M1817.21,-346.8C1702.05,-346.49 1425.12,-341.46 1342.12,-301.5 1320.39,-291.03 1302.34,-269.45 1291.43,-253.95"/>
<polygon fill="midnightblue" stroke="midnightblue" points="1294.63,-252.44 1286.16,-246.07 1288.81,-256.33 1294.63,-252.44"/>
</g>
<!-- Node89 -->
<g id="node43" class="node">
<title>Node89</title>
<g id="a_node43"><a xlink:title=" ">
<polygon fill="white" stroke="#bfbfbf" points="2890.12,-281.75 2890.12,-301 3002.12,-301 3002.12,-281.75 2890.12,-281.75"/>
<text text-anchor="middle" x="2946.12" y="-287.5" font-family="Helvetica,sans-Serif" font-size="10.00">SystemInterpreter.hpp</text>
</a>
</g>
</g>
<!-- Node1&#45;&gt;Node89 -->
<g id="edge63" class="edge">
<title>Node1&#45;&gt;Node89</title>
<path fill="none" stroke="midnightblue" d="M1919.37,-346.06C2066.74,-344.07 2504.55,-335.59 2878.47,-301.65"/>
<polygon fill="midnightblue" stroke="midnightblue" points="2878.65,-305.15 2888.29,-300.75 2878.01,-298.18 2878.65,-305.15"/>
</g>
<!-- Node90 -->
<g id="node44" class="node">
<title>Node90</title>
<g id="a_node44"><a xlink:href="_rexx_internal_apis_8h.html" target="_top" xlink:title=" ">
<polygon fill="white" stroke="black" points="3020.5,-281.75 3020.5,-301 3119.75,-301 3119.75,-281.75 3020.5,-281.75"/>
<text text-anchor="middle" x="3070.12" y="-287.5" font-family="Helvetica,sans-Serif" font-size="10.00">RexxInternalApis.h</text>
</a>
</g>
</g>
<!-- Node1&#45;&gt;Node90 -->
<g id="edge64" class="edge">
<title>Node1&#45;&gt;Node90</title>
<path fill="none" stroke="midnightblue" d="M1919.25,-346.68C2078.8,-346.41 2581.88,-342.24 3008.94,-301.58"/>
<polygon fill="midnightblue" stroke="midnightblue" points="3009.16,-305.08 3018.78,-300.64 3008.49,-298.11 3009.16,-305.08"/>
</g>
<!-- Node91 -->
<g id="node45" class="node">
<title>Node91</title>
<g id="a_node45"><a xlink:href="_package_manager_8hpp.html" target="_top" xlink:title=" ">
<polygon fill="white" stroke="red" points="1578.25,-169.25 1578.25,-188.5 1688,-188.5 1688,-169.25 1578.25,-169.25"/>
<text text-anchor="middle" x="1633.12" y="-175" font-family="Helvetica,sans-Serif" font-size="10.00">PackageManager.hpp</text>
</a>
</g>
</g>
<!-- Node1&#45;&gt;Node91 -->
<g id="edge65" class="edge">
<title>Node1&#45;&gt;Node91</title>
<path fill="none" stroke="midnightblue" d="M1817.11,-343.02C1781.7,-338.23 1735.15,-327.14 1702.12,-301.5 1668.03,-275.04 1648.02,-226.68 1638.97,-199.59"/>
<polygon fill="midnightblue" stroke="midnightblue" points="1642.36,-198.73 1636.02,-190.24 1635.69,-200.83 1642.36,-198.73"/>
</g>
<!-- Node95 -->
<g id="node46" class="node">
<title>Node95</title>
<g id="a_node46"><a xlink:href="_command_handler_8hpp.html" target="_top" xlink:title=" ">
<polygon fill="white" stroke="red" points="1022.75,-169.25 1022.75,-188.5 1135.5,-188.5 1135.5,-169.25 1022.75,-169.25"/>
<text text-anchor="middle" x="1079.12" y="-175" font-family="Helvetica,sans-Serif" font-size="10.00">CommandHandler.hpp</text>
</a>
</g>
</g>
<!-- Node1&#45;&gt;Node95 -->
<g id="edge68" class="edge">
<title>Node1&#45;&gt;Node95</title>
<path fill="none" stroke="midnightblue" d="M1817.13,-346.15C1662.75,-344.33 1207.53,-336.05 1151.12,-301.5 1113.58,-278.5 1093.29,-227.99 1084.52,-199.83"/>
<polygon fill="midnightblue" stroke="midnightblue" points="1087.93,-199.04 1081.78,-190.41 1081.21,-200.99 1087.93,-199.04"/>
</g>
<!-- Node96 -->
<g id="node47" class="node">
<title>Node96</title>
<g id="a_node47"><a xlink:href="_activation_frame_8hpp.html" target="_top" xlink:title=" ">
<polygon fill="white" stroke="black" points="2036.12,-113 2036.12,-132.25 2142.12,-132.25 2142.12,-113 2036.12,-113"/>
<text text-anchor="middle" x="2089.12" y="-118.75" font-family="Helvetica,sans-Serif" font-size="10.00">ActivationFrame.hpp</text>
</a>
</g>
</g>
<!-- Node1&#45;&gt;Node96 -->
<g id="edge70" class="edge">
<title>Node1&#45;&gt;Node96</title>
<path fill="none" stroke="midnightblue" d="M1919.32,-343.78C1980.24,-337.19 2078.34,-315.59 2115.12,-245.25 2132.57,-211.9 2114.2,-167.58 2100.71,-142.69"/>
<polygon fill="midnightblue" stroke="midnightblue" points="2103.76,-140.98 2095.75,-134.04 2097.69,-144.46 2103.76,-140.98"/>
</g>
<!-- Node97 -->
<g id="node48" class="node">
<title>Node97</title>
<g id="a_node48"><a xlink:href="_stack_frame_class_8hpp.html" target="_top" xlink:title=" ">
<polygon fill="white" stroke="red" points="1270.38,-169.25 1270.38,-188.5 1383.88,-188.5 1383.88,-169.25 1270.38,-169.25"/>
<text text-anchor="middle" x="1327.12" y="-175" font-family="Helvetica,sans-Serif" font-size="10.00">StackFrameClass.hpp</text>
</a>
</g>
</g>
<!-- Node1&#45;&gt;Node97 -->
<g id="edge72" class="edge">
<title>Node1&#45;&gt;Node97</title>
<path fill="none" stroke="midnightblue" d="M1817.21,-347.46C1710.26,-348.31 1466.49,-345.23 1398.12,-301.5 1361.16,-277.86 1341.13,-227.6 1332.46,-199.66"/>
<polygon fill="midnightblue" stroke="midnightblue" points="1335.9,-198.96 1329.76,-190.33 1329.18,-200.91 1335.9,-198.96"/>
</g>
<!-- Node98 -->
<g id="node49" class="node">
<title>Node98</title>
<g id="a_node49"><a xlink:href="_interpreter_instance_8hpp.html" target="_top" xlink:title=" ">
<polygon fill="white" stroke="red" points="1059.88,-113 1059.88,-132.25 1176.38,-132.25 1176.38,-113 1059.88,-113"/>
<text text-anchor="middle" x="1118.12" y="-118.75" font-family="Helvetica,sans-Serif" font-size="10.00">InterpreterInstance.hpp</text>
</a>
</g>
</g>
<!-- Node1&#45;&gt;Node98 -->
<g id="edge74" class="edge">
<title>Node1&#45;&gt;Node98</title>
<path fill="none" stroke="midnightblue" d="M1816.96,-346.43C1667.6,-345.42 1239.57,-339.23 1190.12,-301.5 1140.49,-263.62 1170.05,-225.56 1144.12,-168.75 1140.05,-159.82 1134.75,-150.34 1130,-142.39"/>
<polygon fill="midnightblue" stroke="midnightblue" points="1133.05,-140.66 1124.82,-133.98 1127.08,-144.33 1133.05,-140.66"/>
</g>
<!-- Node100 -->
<g id="node50" class="node">
<title>Node100</title>
<g id="a_node50"><a xlink:href="_package_class_8hpp.html" target="_top" xlink:title=" ">
<polygon fill="white" stroke="black" points="3137.88,-281.75 3137.88,-301 3236.38,-301 3236.38,-281.75 3137.88,-281.75"/>
<text text-anchor="middle" x="3187.12" y="-287.5" font-family="Helvetica,sans-Serif" font-size="10.00">PackageClass.hpp</text>
</a>
</g>
</g>
<!-- Node1&#45;&gt;Node100 -->
<g id="edge76" class="edge">
<title>Node1&#45;&gt;Node100</title>
<path fill="none" stroke="midnightblue" d="M1919.32,-347C2089.51,-347.77 2651.97,-346.57 3126.31,-301.65"/>
<polygon fill="midnightblue" stroke="midnightblue" points="3126.37,-305.16 3135.99,-300.73 3125.71,-298.2 3126.37,-305.16"/>
</g>
<!-- Node4&#45;&gt;Node2 -->
<g id="edge8" class="edge">
<title>Node4&#45;&gt;Node2</title>
<path fill="none" stroke="midnightblue" d="M1169.49,-65.05C1005.21,-63.36 302.88,-54.32 59.73,-20.02"/>
<polygon fill="midnightblue" stroke="midnightblue" points="60.4,-16.58 50,-18.58 59.38,-23.5 60.4,-16.58"/>
</g>
<!-- Node4&#45;&gt;Node3 -->
<g id="edge7" class="edge">
<title>Node4&#45;&gt;Node3</title>
<path fill="none" stroke="midnightblue" d="M1238.66,-63.19C1305.34,-58.6 1456.58,-46.29 1592.69,-20.46"/>
<polygon fill="midnightblue" stroke="midnightblue" points="1593.08,-23.95 1602.23,-18.61 1591.75,-17.07 1593.08,-23.95"/>
</g>
<!-- Node5 -->
<g id="node5" class="node">
<title>Node5</title>
<g id="a_node5"><a xlink:href="oorexxapi_8h.html" target="_top" xlink:title=" ">
<polygon fill="white" stroke="red" points="1211,-0.5 1211,-19.75 1277.25,-19.75 1277.25,-0.5 1211,-0.5"/>
<text text-anchor="middle" x="1244.12" y="-6.25" font-family="Helvetica,sans-Serif" font-size="10.00">oorexxapi.h</text>
</a>
</g>
</g>
<!-- Node4&#45;&gt;Node5 -->
<g id="edge4" class="edge">
<title>Node4&#45;&gt;Node5</title>
<path fill="none" stroke="midnightblue" d="M1210.73,-56.42C1216.21,-48.99 1224.16,-38.2 1230.93,-29.02"/>
<polygon fill="midnightblue" stroke="midnightblue" points="1233.63,-31.26 1236.74,-21.13 1227.99,-27.11 1233.63,-31.26"/>
</g>
<!-- Node12 -->
<g id="node6" class="node">
<title>Node12</title>
<g id="a_node6"><a xlink:title=" ">
<polygon fill="white" stroke="#bfbfbf" points="1295.5,-0.5 1295.5,-19.75 1340.75,-19.75 1340.75,-0.5 1295.5,-0.5"/>
<text text-anchor="middle" x="1318.12" y="-6.25" font-family="Helvetica,sans-Serif" font-size="10.00">stdio.h</text>
</a>
</g>
</g>
<!-- Node4&#45;&gt;Node12 -->
<g id="edge5" class="edge">
<title>Node4&#45;&gt;Node12</title>
<path fill="none" stroke="midnightblue" d="M1223.21,-56.29C1241.13,-47.77 1268.2,-34.88 1288.85,-25.06"/>
<polygon fill="midnightblue" stroke="midnightblue" points="1290.09,-28.34 1297.62,-20.89 1287.08,-22.02 1290.09,-28.34"/>
</g>
<!-- Node13 -->
<g id="node7" class="node">
<title>Node13</title>
<g id="a_node7"><a xlink:title=" ">
<polygon fill="white" stroke="#bfbfbf" points="1670.5,-0.5 1670.5,-19.75 1721.75,-19.75 1721.75,-0.5 1670.5,-0.5"/>
<text text-anchor="middle" x="1696.12" y="-6.25" font-family="Helvetica,sans-Serif" font-size="10.00">stdarg.h</text>
</a>
</g>
</g>
<!-- Node4&#45;&gt;Node13 -->
<g id="edge6" class="edge">
<title>Node4&#45;&gt;Node13</title>
<path fill="none" stroke="midnightblue" d="M1238.78,-63.81C1313.7,-60.03 1496.48,-48.67 1659.06,-20.34"/>
<polygon fill="midnightblue" stroke="midnightblue" points="1659.51,-23.81 1668.74,-18.62 1658.28,-16.92 1659.51,-23.81"/>
</g>
<!-- Node14 -->
<g id="node8" class="node">
<title>Node14</title>
<g id="a_node8"><a xlink:title=" ">
<polygon fill="white" stroke="#bfbfbf" points="1358.38,-0.5 1358.38,-19.75 1405.88,-19.75 1405.88,-0.5 1358.38,-0.5"/>
<text text-anchor="middle" x="1382.12" y="-6.25" font-family="Helvetica,sans-Serif" font-size="10.00">limits.h</text>
</a>
</g>
</g>
<!-- Node4&#45;&gt;Node14 -->
<g id="edge9" class="edge">
<title>Node4&#45;&gt;Node14</title>
<path fill="none" stroke="midnightblue" d="M1233.92,-56.29C1265.08,-46.8 1313.97,-31.9 1346.99,-21.83"/>
<polygon fill="midnightblue" stroke="midnightblue" points="1347.96,-25.2 1356.51,-18.93 1345.92,-18.5 1347.96,-25.2"/>
</g>
<!-- Node15 -->
<g id="node9" class="node">
<title>Node15</title>
<g id="a_node9"><a xlink:title=" ">
<polygon fill="white" stroke="#bfbfbf" points="1423.75,-0.5 1423.75,-19.75 1482.5,-19.75 1482.5,-0.5 1423.75,-0.5"/>
<text text-anchor="middle" x="1453.12" y="-6.25" font-family="Helvetica,sans-Serif" font-size="10.00">stdexcept</text>
</a>
</g>
</g>
<!-- Node4&#45;&gt;Node15 -->
<g id="edge10" class="edge">
<title>Node4&#45;&gt;Node15</title>
<path fill="none" stroke="midnightblue" d="M1238.54,-58.29C1278.15,-50.08 1345.44,-35.94 1412.14,-20.89"/>
<polygon fill="midnightblue" stroke="midnightblue" points="1412.81,-24.33 1421.79,-18.7 1411.27,-17.5 1412.81,-24.33"/>
</g>
<!-- Node16 -->
<g id="node10" class="node">
<title>Node16</title>
<g id="a_node10"><a xlink:href="_rexx_platform_definitions_8h.html" target="_top" xlink:title=" ">
<polygon fill="white" stroke="red" points="66.75,-0.5 66.75,-19.75 197.5,-19.75 197.5,-0.5 66.75,-0.5"/>
<text text-anchor="middle" x="132.12" y="-6.25" font-family="Helvetica,sans-Serif" font-size="10.00">RexxPlatformDefinitions.h</text>
</a>
</g>
</g>
<!-- Node4&#45;&gt;Node16 -->
<g id="edge11" class="edge">
<title>Node4&#45;&gt;Node16</title>
<path fill="none" stroke="midnightblue" d="M1169.59,-64.78C1042.94,-62.41 591.82,-52.15 209.17,-20.44"/>
<polygon fill="midnightblue" stroke="midnightblue" points="209.63,-16.97 199.37,-19.63 209.05,-23.95 209.63,-16.97"/>
</g>
<!-- Node19 -->
<g id="node11" class="node">
<title>Node19</title>
<g id="a_node11"><a xlink:href="_rexx_constants_8hpp.html" target="_top" xlink:title=" ">
<polygon fill="white" stroke="black" points="215.62,-0.5 215.62,-19.75 318.62,-19.75 318.62,-0.5 215.62,-0.5"/>
<text text-anchor="middle" x="267.12" y="-6.25" font-family="Helvetica,sans-Serif" font-size="10.00">RexxConstants.hpp</text>
</a>
</g>
</g>
<!-- Node4&#45;&gt;Node19 -->
<g id="edge12" class="edge">
<title>Node4&#45;&gt;Node19</title>
<path fill="none" stroke="midnightblue" d="M1169.76,-64.84C1053.33,-62.75 662.9,-53.64 330.42,-20.49"/>
<polygon fill="midnightblue" stroke="midnightblue" points="330.93,-17.03 320.62,-19.51 330.22,-23.99 330.93,-17.03"/>
</g>
<!-- Node20 -->
<g id="node12" class="node">
<title>Node20</title>
<g id="a_node12"><a xlink:href="_class_type_codes_8h.html" target="_top" xlink:title=" ">
<polygon fill="white" stroke="black" points="336.5,-0.5 336.5,-19.75 435.75,-19.75 435.75,-0.5 336.5,-0.5"/>
<text text-anchor="middle" x="386.12" y="-6.25" font-family="Helvetica,sans-Serif" font-size="10.00">ClassTypeCodes.h</text>
</a>
</g>
</g>
<!-- Node4&#45;&gt;Node20 -->
<g id="edge13" class="edge">
<title>Node4&#45;&gt;Node20</title>
<path fill="none" stroke="midnightblue" d="M1169.56,-64.51C1063.31,-61.61 731.94,-50.69 447.45,-20.52"/>
<polygon fill="midnightblue" stroke="midnightblue" points="447.89,-17.04 437.58,-19.46 447.15,-24 447.89,-17.04"/>
</g>
<!-- Node21 -->
<g id="node13" class="node">
<title>Node21</title>
<g id="a_node13"><a xlink:href="_global_names_8h.html" target="_top" xlink:title=" ">
<polygon fill="white" stroke="black" points="453.38,-0.5 453.38,-19.75 536.88,-19.75 536.88,-0.5 453.38,-0.5"/>
<text text-anchor="middle" x="495.12" y="-6.25" font-family="Helvetica,sans-Serif" font-size="10.00">GlobalNames.h</text>
</a>
</g>
</g>
<!-- Node4&#45;&gt;Node21 -->
<g id="edge14" class="edge">
<title>Node4&#45;&gt;Node21</title>
<path fill="none" stroke="midnightblue" d="M1169.4,-64.32C1072.7,-61.11 792.03,-49.87 548.57,-20.42"/>
<polygon fill="midnightblue" stroke="midnightblue" points="549.23,-16.97 538.87,-19.23 548.38,-23.92 549.23,-16.97"/>
</g>
<!-- Node22 -->
<g id="node14" class="node">
<title>Node22</title>
<g id="a_node14"><a xlink:href="_object_class_8hpp.html" target="_top" xlink:title=" ">
<polygon fill="white" stroke="red" points="554.75,-0.5 554.75,-19.75 643.5,-19.75 643.5,-0.5 554.75,-0.5"/>
<text text-anchor="middle" x="599.12" y="-6.25" font-family="Helvetica,sans-Serif" font-size="10.00">ObjectClass.hpp</text>
</a>
</g>
</g>
<!-- Node4&#45;&gt;Node22 -->
<g id="edge15" class="edge">
<title>Node4&#45;&gt;Node22</title>
<path fill="none" stroke="midnightblue" d="M1169.46,-63.61C1083.9,-59.04 855.64,-45.45 655.24,-20.55"/>
<polygon fill="midnightblue" stroke="midnightblue" points="655.76,-17.09 645.4,-19.31 654.89,-24.03 655.76,-17.09"/>
</g>
<!-- Node25 -->
<g id="node15" class="node">
<title>Node25</title>
<g id="a_node15"><a xlink:href="_table_class_8hpp.html" target="_top" xlink:title=" ">
<polygon fill="white" stroke="red" points="661.38,-0.5 661.38,-19.75 744.88,-19.75 744.88,-0.5 661.38,-0.5"/>
<text text-anchor="middle" x="703.12" y="-6.25" font-family="Helvetica,sans-Serif" font-size="10.00">TableClass.hpp</text>
</a>
</g>
</g>
<!-- Node4&#45;&gt;Node25 -->
<g id="edge16" class="edge">
<title>Node4&#45;&gt;Node25</title>
<path fill="none" stroke="midnightblue" d="M1169.58,-62.82C1095.72,-57.18 916.77,-42.45 756.15,-20.43"/>
<polygon fill="midnightblue" stroke="midnightblue" points="756.99,-17.01 746.61,-19.11 756.03,-23.95 756.99,-17.01"/>
</g>
<!-- Node28 -->
<g id="node16" class="node">
<title>Node28</title>
<g id="a_node16"><a xlink:href="_stack_class_8hpp.html" target="_top" xlink:title=" ">
<polygon fill="white" stroke="black" points="1500.25,-0.5 1500.25,-19.75 1586,-19.75 1586,-0.5 1500.25,-0.5"/>
<text text-anchor="middle" x="1543.12" y="-6.25" font-family="Helvetica,sans-Serif" font-size="10.00">StackClass.hpp</text>
</a>
</g>
</g>
<!-- Node4&#45;&gt;Node28 -->
<g id="edge17" class="edge">
<title>Node4&#45;&gt;Node28</title>
<path fill="none" stroke="midnightblue" d="M1238.62,-60.15C1290.54,-52.25 1392.17,-36.61 1488.85,-20.6"/>
<polygon fill="midnightblue" stroke="midnightblue" points="1489.22,-24.09 1498.51,-19 1488.07,-17.19 1489.22,-24.09"/>
</g>
<!-- Node29 -->
<g id="node17" class="node">
<title>Node29</title>
<g id="a_node17"><a xlink:href="_rexx_memory_8hpp.html" target="_top" xlink:title=" ">
<polygon fill="white" stroke="red" points="763.25,-0.5 763.25,-19.75 855,-19.75 855,-0.5 763.25,-0.5"/>
<text text-anchor="middle" x="809.12" y="-6.25" font-family="Helvetica,sans-Serif" font-size="10.00">RexxMemory.hpp</text>
</a>
</g>
</g>
<!-- Node4&#45;&gt;Node29 -->
<g id="edge18" class="edge">
<title>Node4&#45;&gt;Node29</title>
<path fill="none" stroke="midnightblue" d="M1169.81,-61.19C1110.33,-53.87 983.95,-37.95 866.64,-20.59"/>
<polygon fill="midnightblue" stroke="midnightblue" points="867.22,-17.13 856.82,-19.12 866.19,-24.06 867.22,-17.13"/>
</g>
<!-- Node36 -->
<g id="node18" class="node">
<title>Node36</title>
<g id="a_node18"><a xlink:href="_rexx_behaviour_8hpp.html" target="_top" xlink:title=" ">
<polygon fill="white" stroke="red" points="872.75,-0.5 872.75,-19.75 973.5,-19.75 973.5,-0.5 872.75,-0.5"/>
<text text-anchor="middle" x="923.12" y="-6.25" font-family="Helvetica,sans-Serif" font-size="10.00">RexxBehaviour.hpp</text>
</a>
</g>
</g>
<!-- Node4&#45;&gt;Node36 -->
<g id="edge19" class="edge">
<title>Node4&#45;&gt;Node36</title>
<path fill="none" stroke="midnightblue" d="M1169.39,-58.67C1122.31,-49.58 1037.62,-33.23 980.89,-22.28"/>
<polygon fill="midnightblue" stroke="midnightblue" points="981.9,-18.91 971.42,-20.45 980.58,-25.78 981.9,-18.91"/>
</g>
<!-- Node38 -->
<g id="node19" class="node">
<title>Node38</title>
<g id="a_node19"><a xlink:href="_class_class_8hpp.html" target="_top" xlink:title=" ">
<polygon fill="white" stroke="black" points="991.25,-0.5 991.25,-19.75 1077,-19.75 1077,-0.5 991.25,-0.5"/>
<text text-anchor="middle" x="1034.12" y="-6.25" font-family="Helvetica,sans-Serif" font-size="10.00">ClassClass.hpp</text>
</a>
</g>
</g>
<!-- Node4&#45;&gt;Node38 -->
<g id="edge20" class="edge">
<title>Node4&#45;&gt;Node38</title>
<path fill="none" stroke="midnightblue" d="M1175.67,-56.29C1147.72,-47.38 1104.85,-33.69 1073.61,-23.72"/>
<polygon fill="midnightblue" stroke="midnightblue" points="1074.7,-20.4 1064.11,-20.69 1072.58,-27.07 1074.7,-20.4"/>
</g>
<!-- Node39 -->
<g id="node20" class="node">
<title>Node39</title>
<g id="a_node20"><a xlink:href="_rexx_envelope_8hpp.html" target="_top" xlink:title=" ">
<polygon fill="white" stroke="black" points="1094.88,-0.5 1094.88,-19.75 1193.38,-19.75 1193.38,-0.5 1094.88,-0.5"/>
<text text-anchor="middle" x="1144.12" y="-6.25" font-family="Helvetica,sans-Serif" font-size="10.00">RexxEnvelope.hpp</text>
</a>
</g>
</g>
<!-- Node4&#45;&gt;Node39 -->
<g id="edge21" class="edge">
<title>Node4&#45;&gt;Node39</title>
<path fill="none" stroke="midnightblue" d="M1194.22,-56.42C1185.57,-48.6 1172.79,-37.05 1162.31,-27.57"/>
<polygon fill="midnightblue" stroke="midnightblue" points="1164.74,-25.04 1154.97,-20.93 1160.04,-30.23 1164.74,-25.04"/>
</g>
<!-- Node4&#45;&gt;Node40 -->
<g id="edge22" class="edge">
<title>Node4&#45;&gt;Node40</title>
<path fill="none" stroke="midnightblue" d="M1238.72,-64.41C1348.85,-61.11 1701.03,-48.88 1991.12,-20.25 1993.95,-19.97 1996.85,-19.66 1999.77,-19.32"/>
<polygon fill="midnightblue" stroke="midnightblue" points="2000.07,-22.81 2009.57,-18.12 1999.22,-15.87 2000.07,-22.81"/>
</g>
<!-- Node51 -->
<g id="node22" class="node">
<title>Node51</title>
<g id="a_node22"><a xlink:href="_number_string_class_8hpp.html" target="_top" xlink:title=" ">
<polygon fill="white" stroke="red" points="1740,-0.5 1740,-19.75 1860.25,-19.75 1860.25,-0.5 1740,-0.5"/>
<text text-anchor="middle" x="1800.12" y="-6.25" font-family="Helvetica,sans-Serif" font-size="10.00">NumberStringClass.hpp</text>
</a>
</g>
</g>
<!-- Node4&#45;&gt;Node51 -->
<g id="edge23" class="edge">
<title>Node4&#45;&gt;Node51</title>
<path fill="none" stroke="midnightblue" d="M1238.71,-62.97C1321.37,-57.1 1537.16,-41.07 1728.18,-20.53"/>
<polygon fill="midnightblue" stroke="midnightblue" points="1728.49,-24.01 1738.06,-19.46 1727.74,-17.05 1728.49,-24.01"/>
</g>
<!-- Node4&#45;&gt;Node67 -->
<g id="edge24" class="edge">
<title>Node4&#45;&gt;Node67</title>
<path fill="none" stroke="midnightblue" d="M1238.83,-64.01C1336.11,-59.97 1619.92,-46.76 1866.26,-20.48"/>
<polygon fill="midnightblue" stroke="midnightblue" points="1866.52,-23.97 1876.08,-19.42 1865.77,-17.01 1866.52,-23.97"/>
</g>
<!-- Node50&#45;&gt;Node51 -->
<g id="edge26" class="edge">
<title>Node50&#45;&gt;Node51</title>
<path fill="none" stroke="midnightblue" d="M1786.38,-112.55C1804.12,-105.72 1824.6,-94.4 1835.12,-76.5 1844.65,-60.29 1831.92,-41.31 1819.23,-27.98"/>
<polygon fill="midnightblue" stroke="midnightblue" points="1821.83,-25.63 1812.21,-21.18 1816.96,-30.66 1821.83,-25.63"/>
</g>
<!-- Node53 -->
<g id="node25" class="node">
<title>Node53</title>
<g id="a_node25"><a xlink:href="_integer_class_8hpp.html" target="_top" xlink:title=" ">
<polygon fill="white" stroke="black" points="1736,-56.75 1736,-76 1826.25,-76 1826.25,-56.75 1736,-56.75"/>
<text text-anchor="middle" x="1781.12" y="-62.5" font-family="Helvetica,sans-Serif" font-size="10.00">IntegerClass.hpp</text>
</a>
</g>
</g>
<!-- Node50&#45;&gt;Node53 -->
<g id="edge27" class="edge">
<title>Node50&#45;&gt;Node53</title>
<path fill="none" stroke="midnightblue" d="M1758.58,-112.67C1762.12,-105.56 1767.19,-95.37 1771.63,-86.45"/>
<polygon fill="midnightblue" stroke="midnightblue" points="1774.75,-88.03 1776.08,-77.52 1768.49,-84.91 1774.75,-88.03"/>
</g>
<!-- Node54 -->
<g id="node26" class="node">
<title>Node54</title>
<g id="a_node26"><a xlink:href="_string_util_8hpp.html" target="_top" xlink:title=" ">
<polygon fill="white" stroke="black" points="1642.5,-56.75 1642.5,-76 1717.75,-76 1717.75,-56.75 1642.5,-56.75"/>
<text text-anchor="middle" x="1680.12" y="-62.5" font-family="Helvetica,sans-Serif" font-size="10.00">StringUtil.hpp</text>
</a>
</g>
</g>
<!-- Node50&#45;&gt;Node54 -->
<g id="edge29" class="edge">
<title>Node50&#45;&gt;Node54</title>
<path fill="none" stroke="midnightblue" d="M1741.91,-112.67C1730.98,-104.66 1714.72,-92.74 1701.62,-83.13"/>
<polygon fill="midnightblue" stroke="midnightblue" points="1703.72,-80.33 1693.58,-77.24 1699.58,-85.98 1703.72,-80.33"/>
</g>
<!-- Node55 -->
<g id="node27" class="node">
<title>Node55</title>
<g id="a_node27"><a xlink:href="_utilities_8hpp.html" target="_top" xlink:title=" ">
<polygon fill="white" stroke="red" points="1556.25,-56.75 1556.25,-76 1624,-76 1624,-56.75 1556.25,-56.75"/>
<text text-anchor="middle" x="1590.12" y="-62.5" font-family="Helvetica,sans-Serif" font-size="10.00">Utilities.hpp</text>
</a>
</g>
</g>
<!-- Node50&#45;&gt;Node55 -->
<g id="edge30" class="edge">
<title>Node50&#45;&gt;Node55</title>
<path fill="none" stroke="midnightblue" d="M1726.68,-112.54C1699.71,-103.63 1658.35,-89.94 1628.21,-79.97"/>
<polygon fill="midnightblue" stroke="midnightblue" points="1629.69,-76.78 1619.1,-76.96 1627.5,-83.42 1629.69,-76.78"/>
</g>
<!-- Node53&#45;&gt;Node51 -->
<g id="edge28" class="edge">
<title>Node53&#45;&gt;Node51</title>
<path fill="none" stroke="midnightblue" d="M1784.26,-56.42C1786.72,-49.39 1790.24,-39.34 1793.34,-30.5"/>
<polygon fill="midnightblue" stroke="midnightblue" points="1796.54,-31.94 1796.55,-21.35 1789.94,-29.63 1796.54,-31.94"/>
</g>
<!-- Node55&#45;&gt;Node13 -->
<g id="edge31" class="edge">
<title>Node55&#45;&gt;Node13</title>
<path fill="none" stroke="midnightblue" d="M1607.63,-56.42C1624.2,-47.94 1649.34,-35.07 1668.6,-25.21"/>
<polygon fill="midnightblue" stroke="midnightblue" points="1669.94,-28.46 1677.25,-20.79 1666.75,-22.23 1669.94,-28.46"/>
</g>
<!-- Node71&#45;&gt;Node67 -->
<g id="edge43" class="edge">
<title>Node71&#45;&gt;Node67</title>
<path fill="none" stroke="midnightblue" d="M1957.41,-281.32C1966.44,-272.83 1979.34,-259.37 1987.12,-245.25 2001.74,-218.76 2006.12,-210.13 2006.12,-179.88 2006.12,-179.88 2006.12,-179.88 2006.12,-121.62 2006.12,-82.33 1973.1,-46.83 1950.59,-27.19"/>
<polygon fill="midnightblue" stroke="midnightblue" points="1953.08,-24.71 1943.16,-20.98 1948.59,-30.08 1953.08,-24.71"/>
</g>
<!-- Node71&#45;&gt;Node72 -->
<g id="edge36" class="edge">
<title>Node71&#45;&gt;Node72</title>
<path fill="none" stroke="midnightblue" d="M1967.71,-281.29C1987.22,-272.69 2016.79,-259.65 2039.15,-249.79"/>
<polygon fill="midnightblue" stroke="midnightblue" points="2040.35,-253.08 2048.09,-245.85 2037.52,-246.68 2040.35,-253.08"/>
</g>
<!-- Node71&#45;&gt;Node74 -->
<g id="edge37" class="edge">
<title>Node71&#45;&gt;Node74</title>
<path fill="none" stroke="midnightblue" d="M1896.1,-283.83C1815.18,-273.45 1658.21,-253.32 1576.47,-242.84"/>
<polygon fill="midnightblue" stroke="midnightblue" points="1577.08,-239.39 1566.71,-241.59 1576.18,-246.33 1577.08,-239.39"/>
</g>
<!-- Node71&#45;&gt;Node83 -->
<g id="edge44" class="edge">
<title>Node71&#45;&gt;Node83</title>
<path fill="none" stroke="midnightblue" d="M1942.34,-281.42C1938.49,-274.23 1932.97,-263.89 1928.16,-254.9"/>
<polygon fill="midnightblue" stroke="midnightblue" points="1931.34,-253.42 1923.54,-246.25 1925.17,-256.72 1931.34,-253.42"/>
</g>
<!-- Node74&#45;&gt;Node75 -->
<g id="edge38" class="edge">
<title>Node74&#45;&gt;Node75</title>
<path fill="none" stroke="midnightblue" d="M1523.3,-225.17C1522.67,-218.29 1521.77,-208.54 1520.97,-199.85"/>
<polygon fill="midnightblue" stroke="midnightblue" points="1524.48,-199.81 1520.07,-190.17 1517.51,-200.45 1524.48,-199.81"/>
</g>
<!-- Node74&#45;&gt;Node81 -->
<g id="edge42" class="edge">
<title>Node74&#45;&gt;Node81</title>
<path fill="none" stroke="midnightblue" d="M1512.27,-225.32C1500.8,-216.59 1483.13,-202.59 1469.12,-189 1453.47,-173.81 1437.29,-154.88 1426.18,-141.31"/>
<polygon fill="midnightblue" stroke="midnightblue" points="1429.03,-139.26 1420.02,-133.68 1423.58,-143.66 1429.03,-139.26"/>
</g>
<!-- Node75&#45;&gt;Node28 -->
<g id="edge39" class="edge">
<title>Node75&#45;&gt;Node28</title>
<path fill="none" stroke="midnightblue" d="M1516.8,-168.78C1511.97,-148.23 1502.22,-96.8 1514.12,-56.25 1517,-46.45 1522.74,-36.76 1528.35,-28.89"/>
<polygon fill="midnightblue" stroke="midnightblue" points="1530.93,-31.28 1534.26,-21.22 1525.39,-27.01 1530.93,-31.28"/>
</g>
<!-- Node75&#45;&gt;Node81 -->
<g id="edge40" class="edge">
<title>Node75&#45;&gt;Node81</title>
<path fill="none" stroke="midnightblue" d="M1501.46,-168.92C1484.73,-160.44 1459.35,-147.57 1439.91,-137.71"/>
<polygon fill="midnightblue" stroke="midnightblue" points="1441.67,-134.68 1431.17,-133.28 1438.51,-140.92 1441.67,-134.68"/>
</g>
<!-- Node81&#45;&gt;Node4 -->
<g id="edge41" class="edge">
<title>Node81&#45;&gt;Node4</title>
<path fill="none" stroke="midnightblue" d="M1377.31,-112.54C1342.26,-103.4 1288.02,-89.26 1249.59,-79.23"/>
<polygon fill="midnightblue" stroke="midnightblue" points="1250.73,-75.91 1240.17,-76.78 1248.96,-82.69 1250.73,-75.91"/>
</g>
<!-- Node83&#45;&gt;Node80 -->
<g id="edge45" class="edge">
<title>Node83&#45;&gt;Node80</title>
<path fill="none" stroke="midnightblue" d="M1918.45,-225.08C1919.09,-207.43 1920.52,-168 1921.39,-143.83"/>
<polygon fill="midnightblue" stroke="midnightblue" points="1924.89,-144.12 1921.75,-134 1917.89,-143.86 1924.89,-144.12"/>
</g>
<!-- Node80&#45;&gt;Node40 -->
<g id="edge46" class="edge">
<title>Node80&#45;&gt;Node40</title>
<path fill="none" stroke="midnightblue" d="M1933.09,-112.58C1955.78,-93.87 2008.13,-50.7 2036.69,-27.15"/>
<polygon fill="midnightblue" stroke="midnightblue" points="2038.73,-30.01 2044.21,-20.95 2034.27,-24.61 2038.73,-30.01"/>
</g>
<!-- Node80&#45;&gt;Node67 -->
<g id="edge47" class="edge">
<title>Node80&#45;&gt;Node67</title>
<path fill="none" stroke="midnightblue" d="M1922.78,-112.58C1924.06,-94.93 1926.91,-55.5 1928.66,-31.33"/>
<polygon fill="midnightblue" stroke="midnightblue" points="1932.14,-31.72 1929.37,-21.49 1925.16,-31.21 1932.14,-31.72"/>
</g>
<!-- Node87&#45;&gt;Node86 -->
<g id="edge55" class="edge">
<title>Node87&#45;&gt;Node86</title>
<path fill="none" stroke="midnightblue" d="M2711.12,-281.42C2711.12,-274.62 2711.12,-265.01 2711.12,-256.4"/>
<polygon fill="midnightblue" stroke="midnightblue" points="2714.63,-256.43 2711.13,-246.43 2707.63,-256.43 2714.63,-256.43"/>
</g>
<!-- Node88&#45;&gt;Node86 -->
<g id="edge58" class="edge">
<title>Node88&#45;&gt;Node86</title>
<path fill="none" stroke="midnightblue" d="M2806.04,-281.29C2788.12,-272.77 2761.05,-259.88 2740.4,-250.06"/>
<polygon fill="midnightblue" stroke="midnightblue" points="2742.17,-247.02 2731.63,-245.89 2739.16,-253.34 2742.17,-247.02"/>
</g>
<!-- Node35&#45;&gt;Node4 -->
<g id="edge62" class="edge">
<title>Node35&#45;&gt;Node4</title>
<path fill="none" stroke="midnightblue" d="M1276.04,-225.16C1264.13,-199.03 1229.27,-122.55 1212.86,-86.54"/>
<polygon fill="midnightblue" stroke="midnightblue" points="1216.19,-85.41 1208.86,-77.76 1209.82,-88.31 1216.19,-85.41"/>
</g>
<!-- Node91&#45;&gt;Node4 -->
<g id="edge66" class="edge">
<title>Node91&#45;&gt;Node4</title>
<path fill="none" stroke="midnightblue" d="M1613.9,-168.8C1583.42,-154.76 1521.86,-127.8 1467.12,-112.5 1392.46,-91.63 1303.03,-78.76 1250.04,-72.35"/>
<polygon fill="midnightblue" stroke="midnightblue" points="1250.51,-68.89 1240.17,-71.19 1249.69,-75.84 1250.51,-68.89"/>
</g>
<!-- Node95&#45;&gt;Node4 -->
<g id="edge69" class="edge">
<title>Node95&#45;&gt;Node4</title>
<path fill="none" stroke="midnightblue" d="M1070.09,-169.16C1057.5,-155.95 1037.67,-130.5 1051.12,-112.5 1075.67,-79.68 1122.96,-69.72 1158.5,-67.17"/>
<polygon fill="midnightblue" stroke="midnightblue" points="1158.27,-70.68 1168.07,-66.66 1157.9,-63.69 1158.27,-70.68"/>
</g>
<!-- Node96&#45;&gt;Node40 -->
<g id="edge71" class="edge">
<title>Node96&#45;&gt;Node40</title>
<path fill="none" stroke="midnightblue" d="M2086.42,-112.58C2081.13,-94.85 2069.27,-55.14 2062.06,-30.99"/>
<polygon fill="midnightblue" stroke="midnightblue" points="2065.42,-30.01 2059.2,-21.43 2058.71,-32.02 2065.42,-30.01"/>
</g>
<!-- Node97&#45;&gt;Node81 -->
<g id="edge73" class="edge">
<title>Node97&#45;&gt;Node81</title>
<path fill="none" stroke="midnightblue" d="M1341.16,-168.92C1354.08,-160.67 1373.49,-148.28 1388.75,-138.54"/>
<polygon fill="midnightblue" stroke="midnightblue" points="1390.25,-141.74 1396.79,-133.41 1386.48,-135.84 1390.25,-141.74"/>
</g>
<!-- Node98&#45;&gt;Node4 -->
<g id="edge75" class="edge">
<title>Node98&#45;&gt;Node4</title>
<path fill="none" stroke="midnightblue" d="M1132.33,-112.67C1145.4,-104.42 1165.04,-92.03 1180.48,-82.29"/>
<polygon fill="midnightblue" stroke="midnightblue" points="1182.03,-85.45 1188.62,-77.15 1178.3,-79.53 1182.03,-85.45"/>
</g>
</g>
</svg>
