<?xml version="1.0" encoding="UTF-8" standalone="no"?>
<!DOCTYPE svg PUBLIC "-//W3C//DTD SVG 1.1//EN"
 "http://www.w3.org/Graphics/SVG/1.1/DTD/svg11.dtd">
<!-- Generated by graphviz version 12.1.0 (20240811.2233)
 -->
<!-- Title: RexxSmartBuffer.hpp Pages: 1 -->
<!--zoomable 85 -->
<svg id="main" version="1.1" xmlns="http://www.w3.org/2000/svg" xmlns:xlink="http://www.w3.org/1999/xlink" xml:space="preserve" onload="init(evt)">
<style type="text/css"><![CDATA[
.edge:hover path { stroke: red; }
.edge:hover polygon { stroke: red; fill: red; }
]]></style>
<script type="text/javascript"><![CDATA[
var edges = document.getElementsByTagName('g');
if (edges && edges.length) {
  for (var i=0;i<edges.length;i++) {
    if (edges[i].id.substr(0,4)=='edge') {
      edges[i].setAttribute('class','edge');
    }
  }
}
]]></script>
        <defs>
                <circle id="rim" cx="0" cy="0" r="7"/>
                <circle id="rim2" cx="0" cy="0" r="3.5"/>
                <g id="zoomPlus">
                        <use xlink:href="#rim" fill="#404040">
                                <set attributeName="fill" to="#808080" begin="zoomplus.mouseover" end="zoomplus.mouseout"/>
                        </use>
                        <path d="M-4,0h8M0,-4v8" fill="none" stroke="white" stroke-width="1.5" pointer-events="none"/>
                </g>
                <g id="zoomMin">
                        <use xlink:href="#rim" fill="#404040">
                                <set attributeName="fill" to="#808080" begin="zoomminus.mouseover" end="zoomminus.mouseout"/>
                        </use>
                        <path d="M-4,0h8" fill="none" stroke="white" stroke-width="1.5" pointer-events="none"/>
                </g>
                <g id="dirArrow">
                        <path fill="none" stroke="white" stroke-width="1.5" d="M0,-3.0v7 M-2.5,-0.5L0,-3.0L2.5,-0.5"/>
                </g>
               <g id="resetDef">
                       <use xlink:href="#rim2" fill="#404040">
                               <set attributeName="fill" to="#808080" begin="reset.mouseover" end="reset.mouseout"/>
                       </use>
               </g>
        </defs>

<script type="text/javascript">
var viewWidth = 694;
var viewHeight = 85;
var sectionId = 'dynsection-0';
</script>
<script xlink:href="svgpan.js"/>
<svg id="graph" class="graph">
<g id="viewport">
<title>RexxSmartBuffer.hpp</title>
<polygon fill="white" stroke="none" points="-4,4 -4,-80.5 689.5,-80.5 689.5,4 -4,4"/>
<!-- Node1 -->
<g id="node1" class="node">
<title>Node1</title>
<g id="a_node1"><a xlink:title=" ">
<polygon fill="#bfbfbf" stroke="black" points="288,-56.75 288,-76 397.75,-76 397.75,-56.75 288,-56.75"/>
<text text-anchor="middle" x="342.88" y="-62.5" font-family="Helvetica,sans-Serif" font-size="10.00">RexxSmartBuffer.hpp</text>
</a>
</g>
</g>
<!-- Node2 -->
<g id="node2" class="node">
<title>Node2</title>
<g id="a_node2"><a xlink:href="_rexx_smart_buffer_8cpp.html" target="_top" xlink:title=" ">
<polygon fill="white" stroke="black" points="0,-0.5 0,-19.75 109.75,-19.75 109.75,-0.5 0,-0.5"/>
<text text-anchor="middle" x="54.88" y="-6.25" font-family="Helvetica,sans-Serif" font-size="10.00">RexxSmartBuffer.cpp</text>
</a>
</g>
</g>
<!-- Node1&#45;&gt;Node2 -->
<g id="edge1" class="edge">
<title>Node1&#45;&gt;Node2</title>
<path fill="none" stroke="midnightblue" d="M283.68,-54.22C230.35,-44.18 152.93,-29.6 103.24,-20.23"/>
<polygon fill="midnightblue" stroke="midnightblue" points="282.71,-57.6 293.18,-56.01 284,-50.72 282.71,-57.6"/>
</g>
<!-- Node3 -->
<g id="node3" class="node">
<title>Node3</title>
<g id="a_node3"><a xlink:href="_rexx_envelope_8cpp.html" target="_top" xlink:title=" ">
<polygon fill="white" stroke="black" points="127.62,-0.5 127.62,-19.75 226.12,-19.75 226.12,-0.5 127.62,-0.5"/>
<text text-anchor="middle" x="176.88" y="-6.25" font-family="Helvetica,sans-Serif" font-size="10.00">RexxEnvelope.cpp</text>
</a>
</g>
</g>
<!-- Node1&#45;&gt;Node3 -->
<g id="edge2" class="edge">
<title>Node1&#45;&gt;Node3</title>
<path fill="none" stroke="midnightblue" d="M304.42,-52.81C273.94,-42.85 232.07,-29.16 204.75,-20.23"/>
<polygon fill="midnightblue" stroke="midnightblue" points="303.06,-56.04 313.65,-55.82 305.23,-49.39 303.06,-56.04"/>
</g>
<!-- Node4 -->
<g id="node4" class="node">
<title>Node4</title>
<g id="a_node4"><a xlink:href="_object_class_8cpp.html" target="_top" xlink:title=" ">
<polygon fill="white" stroke="black" points="244.5,-0.5 244.5,-19.75 333.25,-19.75 333.25,-0.5 244.5,-0.5"/>
<text text-anchor="middle" x="288.88" y="-6.25" font-family="Helvetica,sans-Serif" font-size="10.00">ObjectClass.cpp</text>
</a>
</g>
</g>
<!-- Node1&#45;&gt;Node4 -->
<g id="edge3" class="edge">
<title>Node1&#45;&gt;Node4</title>
<path fill="none" stroke="midnightblue" d="M326.02,-48.44C316.61,-38.99 305.28,-27.61 297.63,-19.92"/>
<polygon fill="midnightblue" stroke="midnightblue" points="323.35,-50.73 332.89,-55.34 328.32,-45.79 323.35,-50.73"/>
</g>
<!-- Node5 -->
<g id="node5" class="node">
<title>Node5</title>
<g id="a_node5"><a xlink:href="_routine_class_8cpp.html" target="_top" xlink:title=" ">
<polygon fill="white" stroke="black" points="350.88,-0.5 350.88,-19.75 444.88,-19.75 444.88,-0.5 350.88,-0.5"/>
<text text-anchor="middle" x="397.88" y="-6.25" font-family="Helvetica,sans-Serif" font-size="10.00">RoutineClass.cpp</text>
</a>
</g>
</g>
<!-- Node1&#45;&gt;Node5 -->
<g id="edge4" class="edge">
<title>Node1&#45;&gt;Node5</title>
<path fill="none" stroke="midnightblue" d="M360.04,-48.44C369.63,-38.99 381.17,-27.61 388.96,-19.92"/>
<polygon fill="midnightblue" stroke="midnightblue" points="357.7,-45.84 353.03,-55.35 362.61,-50.82 357.7,-45.84"/>
</g>
<!-- Node6 -->
<g id="node6" class="node">
<title>Node6</title>
<g id="a_node6"><a xlink:href="_source_file_8cpp.html" target="_top" xlink:title=" ">
<polygon fill="white" stroke="black" points="463.25,-0.5 463.25,-19.75 544.5,-19.75 544.5,-0.5 463.25,-0.5"/>
<text text-anchor="middle" x="503.88" y="-6.25" font-family="Helvetica,sans-Serif" font-size="10.00">SourceFile.cpp</text>
</a>
</g>
</g>
<!-- Node1&#45;&gt;Node6 -->
<g id="edge5" class="edge">
<title>Node1&#45;&gt;Node6</title>
<path fill="none" stroke="midnightblue" d="M380.56,-52.68C410.09,-42.73 450.46,-29.13 476.84,-20.23"/>
<polygon fill="midnightblue" stroke="midnightblue" points="379.62,-49.3 371.26,-55.81 381.85,-55.94 379.62,-49.3"/>
</g>
<!-- Node7 -->
<g id="node7" class="node">
<title>Node7</title>
<g id="a_node7"><a xlink:href="_virtual_function_table_8cpp.html" target="_top" xlink:title=" ">
<polygon fill="white" stroke="black" points="562.25,-0.5 562.25,-19.75 685.5,-19.75 685.5,-0.5 562.25,-0.5"/>
<text text-anchor="middle" x="623.88" y="-6.25" font-family="Helvetica,sans-Serif" font-size="10.00">VirtualFunctionTable.cpp</text>
</a>
</g>
</g>
<!-- Node1&#45;&gt;Node7 -->
<g id="edge6" class="edge">
<title>Node1&#45;&gt;Node7</title>
<path fill="none" stroke="midnightblue" d="M400.96,-54.16C452.98,-44.12 528.31,-29.58 576.69,-20.23"/>
<polygon fill="midnightblue" stroke="midnightblue" points="400.55,-50.68 391.39,-56.01 401.88,-57.55 400.55,-50.68"/>
</g>
</g>
</svg>
        <g id="navigator" transform="translate(0 0)" fill="#404254">
                <rect fill="#f2f5e9" fill-opacity="0.5" stroke="#606060" stroke-width=".5" x="0" y="0" width="60" height="60"/>
                <use id="zoomplus" xlink:href="#zoomPlus" x="17" y="9" onmousedown="handleZoom(evt,'in')"/>
                <use id="zoomminus" xlink:href="#zoomMin" x="42" y="9" onmousedown="handleZoom(evt,'out')"/>
                <use id="reset" xlink:href="#resetDef" x="30" y="36" onmousedown="handleReset()"/>
                <g id="arrowUp" xlink:href="#dirArrow" transform="translate(30 24)" onmousedown="handlePan(0,-1)">
                  <use xlink:href="#rim" fill="#404040">
                        <set attributeName="fill" to="#808080" begin="arrowUp.mouseover" end="arrowUp.mouseout"/>
                  </use>
                  <path fill="none" stroke="white" stroke-width="1.5" d="M0,-3.0v7 M-2.5,-0.5L0,-3.0L2.5,-0.5"/>
                </g>
                <g id="arrowRight" xlink:href="#dirArrow" transform="rotate(90) translate(36 -43)" onmousedown="handlePan(1,0)">
                  <use xlink:href="#rim" fill="#404040">
                        <set attributeName="fill" to="#808080" begin="arrowRight.mouseover" end="arrowRight.mouseout"/>
                  </use>
                  <path fill="none" stroke="white" stroke-width="1.5" d="M0,-3.0v7 M-2.5,-0.5L0,-3.0L2.5,-0.5"/>
                </g>
                <g id="arrowDown" xlink:href="#dirArrow" transform="rotate(180) translate(-30 -48)" onmousedown="handlePan(0,1)">
                  <use xlink:href="#rim" fill="#404040">
                        <set attributeName="fill" to="#808080" begin="arrowDown.mouseover" end="arrowDown.mouseout"/>
                  </use>
                  <path fill="none" stroke="white" stroke-width="1.5" d="M0,-3.0v7 M-2.5,-0.5L0,-3.0L2.5,-0.5"/>
                </g>
                <g id="arrowLeft" xlink:href="#dirArrow" transform="rotate(270) translate(-36 17)" onmousedown="handlePan(-1,0)">
                  <use xlink:href="#rim" fill="#404040">
                        <set attributeName="fill" to="#808080" begin="arrowLeft.mouseover" end="arrowLeft.mouseout"/>
                  </use>
                  <path fill="none" stroke="white" stroke-width="1.5" d="M0,-3.0v7 M-2.5,-0.5L0,-3.0L2.5,-0.5"/>
                </g>
        </g>
        <svg viewBox="0 0 15 15" width="100%" height="30px" preserveAspectRatio="xMaxYMin meet">
         <g id="arrow_out" transform="scale(0.3 0.3)">
          <a xlink:href="_rexx_smart_buffer_8hpp__dep__incl_org.svg" target="_base">
           <rect id="button" ry="5" rx="5" y="6" x="6" height="38" width="38"
                fill="#f2f5e9" fill-opacity="0.5" stroke="#606060" stroke-width="1.0"/>
           <path id="arrow"
             d="M 11.500037,31.436501 C 11.940474,20.09759 22.043105,11.32322 32.158766,21.979434 L 37.068811,17.246167 C 37.068811,17.246167 37.088388,32 37.088388,32 L 22.160133,31.978069 C 22.160133,31.978069 26.997745,27.140456 26.997745,27.140456 C 18.528582,18.264221 13.291696,25.230495 11.500037,31.436501 z"
             style="fill:#404040;"/>
          </a>
         </g>
        </svg>
</svg>
