<?xml version="1.0" encoding="UTF-8" standalone="no"?>
<!DOCTYPE svg PUBLIC "-//W3C//DTD SVG 1.1//EN"
 "http://www.w3.org/Graphics/SVG/1.1/DTD/svg11.dtd">
<!-- Generated by graphviz version 12.1.0 (20240811.2233)
 -->
<!-- Title: RexxNativeCode.hpp Pages: 1 -->
<!--zoomable 197 -->
<svg id="main" version="1.1" xmlns="http://www.w3.org/2000/svg" xmlns:xlink="http://www.w3.org/1999/xlink" xml:space="preserve" onload="init(evt)">
<style type="text/css"><![CDATA[
.edge:hover path { stroke: red; }
.edge:hover polygon { stroke: red; fill: red; }
]]></style>
<script type="text/javascript"><![CDATA[
var edges = document.getElementsByTagName('g');
if (edges && edges.length) {
  for (var i=0;i<edges.length;i++) {
    if (edges[i].id.substr(0,4)=='edge') {
      edges[i].setAttribute('class','edge');
    }
  }
}
]]></script>
        <defs>
                <circle id="rim" cx="0" cy="0" r="7"/>
                <circle id="rim2" cx="0" cy="0" r="3.5"/>
                <g id="zoomPlus">
                        <use xlink:href="#rim" fill="#404040">
                                <set attributeName="fill" to="#808080" begin="zoomplus.mouseover" end="zoomplus.mouseout"/>
                        </use>
                        <path d="M-4,0h8M0,-4v8" fill="none" stroke="white" stroke-width="1.5" pointer-events="none"/>
                </g>
                <g id="zoomMin">
                        <use xlink:href="#rim" fill="#404040">
                                <set attributeName="fill" to="#808080" begin="zoomminus.mouseover" end="zoomminus.mouseout"/>
                        </use>
                        <path d="M-4,0h8" fill="none" stroke="white" stroke-width="1.5" pointer-events="none"/>
                </g>
                <g id="dirArrow">
                        <path fill="none" stroke="white" stroke-width="1.5" d="M0,-3.0v7 M-2.5,-0.5L0,-3.0L2.5,-0.5"/>
                </g>
               <g id="resetDef">
                       <use xlink:href="#rim2" fill="#404040">
                               <set attributeName="fill" to="#808080" begin="reset.mouseover" end="reset.mouseout"/>
                       </use>
               </g>
        </defs>

<script type="text/javascript">
var viewWidth = 1994;
var viewHeight = 197;
var sectionId = 'dynsection-1';
</script>
<script xlink:href="svgpan.js"/>
<svg id="graph" class="graph">
<g id="viewport">
<title>RexxNativeCode.hpp</title>
<polygon fill="white" stroke="none" points="-4,4 -4,-193 1990,-193 1990,4 -4,4"/>
<!-- Node1 -->
<g id="node1" class="node">
<title>Node1</title>
<g id="a_node1"><a xlink:title=" ">
<polygon fill="#bfbfbf" stroke="black" points="425.25,-169.25 425.25,-188.5 535,-188.5 535,-169.25 425.25,-169.25"/>
<text text-anchor="middle" x="480.12" y="-175" font-family="Helvetica,sans-Serif" font-size="10.00">RexxNativeCode.hpp</text>
</a>
</g>
</g>
<!-- Node2 -->
<g id="node2" class="node">
<title>Node2</title>
<g id="a_node2"><a xlink:href="_setup_8cpp.html" target="_top" xlink:title=" ">
<polygon fill="white" stroke="black" points="0,-0.5 0,-19.75 60.25,-19.75 60.25,-0.5 0,-0.5"/>
<text text-anchor="middle" x="30.12" y="-6.25" font-family="Helvetica,sans-Serif" font-size="10.00">Setup.cpp</text>
</a>
</g>
</g>
<!-- Node1&#45;&gt;Node2 -->
<g id="edge1" class="edge">
<title>Node1&#45;&gt;Node2</title>
<path fill="none" stroke="midnightblue" d="M413.56,-175.23C325.45,-170.73 175.66,-159.34 128.12,-132.75 79.37,-105.48 45.62,-43.34 34.3,-20.11"/>
<polygon fill="midnightblue" stroke="midnightblue" points="413.37,-178.72 423.53,-175.72 413.72,-171.73 413.37,-178.72"/>
</g>
<!-- Node3 -->
<g id="node3" class="node">
<title>Node3</title>
<g id="a_node3"><a xlink:href="_message_class_8cpp.html" target="_top" xlink:title=" ">
<polygon fill="white" stroke="black" points="137.12,-113 137.12,-132.25 237.12,-132.25 237.12,-113 137.12,-113"/>
<text text-anchor="middle" x="187.12" y="-118.75" font-family="Helvetica,sans-Serif" font-size="10.00">MessageClass.cpp</text>
</a>
</g>
</g>
<!-- Node1&#45;&gt;Node3 -->
<g id="edge2" class="edge">
<title>Node1&#45;&gt;Node3</title>
<path fill="none" stroke="midnightblue" d="M419.9,-166.72C365.65,-156.68 286.88,-142.1 236.33,-132.73"/>
<polygon fill="midnightblue" stroke="midnightblue" points="419.13,-170.14 429.6,-168.52 420.4,-163.26 419.13,-170.14"/>
</g>
<!-- Node4 -->
<g id="node4" class="node">
<title>Node4</title>
<g id="a_node4"><a xlink:href="_method_class_8cpp.html" target="_top" xlink:title=" ">
<polygon fill="white" stroke="black" points="77.88,-0.5 77.88,-19.75 170.38,-19.75 170.38,-0.5 77.88,-0.5"/>
<text text-anchor="middle" x="124.12" y="-6.25" font-family="Helvetica,sans-Serif" font-size="10.00">MethodClass.cpp</text>
</a>
</g>
</g>
<!-- Node1&#45;&gt;Node4 -->
<g id="edge3" class="edge">
<title>Node1&#45;&gt;Node4</title>
<path fill="none" stroke="midnightblue" d="M422.65,-166.3C390.78,-158.82 350.88,-147.67 317.12,-132.75 243.23,-100.09 164.55,-42.25 135.63,-20.1"/>
<polygon fill="midnightblue" stroke="midnightblue" points="421.56,-169.64 432.09,-168.46 423.12,-162.82 421.56,-169.64"/>
</g>
<!-- Node5 -->
<g id="node5" class="node">
<title>Node5</title>
<g id="a_node5"><a xlink:href="_routine_class_8cpp.html" target="_top" xlink:title=" ">
<polygon fill="white" stroke="black" points="188.12,-0.5 188.12,-19.75 282.12,-19.75 282.12,-0.5 188.12,-0.5"/>
<text text-anchor="middle" x="235.12" y="-6.25" font-family="Helvetica,sans-Serif" font-size="10.00">RoutineClass.cpp</text>
</a>
</g>
</g>
<!-- Node1&#45;&gt;Node5 -->
<g id="edge4" class="edge">
<title>Node1&#45;&gt;Node5</title>
<path fill="none" stroke="midnightblue" d="M421.62,-165.96C396.33,-158.99 367.3,-148.38 344.12,-132.75 307.14,-107.8 309.16,-89.24 279.12,-56.25 267.34,-43.3 253.1,-28.91 244.07,-19.94"/>
<polygon fill="midnightblue" stroke="midnightblue" points="420.54,-169.3 431.1,-168.44 422.31,-162.53 420.54,-169.3"/>
</g>
<!-- Node6 -->
<g id="node6" class="node">
<title>Node6</title>
<g id="a_node6"><a xlink:href="_source_file_8cpp.html" target="_top" xlink:title=" ">
<polygon fill="white" stroke="black" points="300.5,-0.5 300.5,-19.75 381.75,-19.75 381.75,-0.5 300.5,-0.5"/>
<text text-anchor="middle" x="341.12" y="-6.25" font-family="Helvetica,sans-Serif" font-size="10.00">SourceFile.cpp</text>
</a>
</g>
</g>
<!-- Node1&#45;&gt;Node6 -->
<g id="edge5" class="edge">
<title>Node1&#45;&gt;Node6</title>
<path fill="none" stroke="midnightblue" d="M414.03,-166.49C393.95,-159.86 373.64,-149.36 360.12,-132.75 332.61,-98.93 336.88,-41.78 339.75,-19.96"/>
<polygon fill="midnightblue" stroke="midnightblue" points="412.76,-169.77 423.34,-169.28 414.76,-163.06 412.76,-169.77"/>
</g>
<!-- Node7 -->
<g id="node7" class="node">
<title>Node7</title>
<g id="a_node7"><a xlink:href="_rexx_native_activation_8cpp.html" target="_top" xlink:title=" ">
<polygon fill="white" stroke="black" points="369.12,-113 369.12,-132.25 499.12,-132.25 499.12,-113 369.12,-113"/>
<text text-anchor="middle" x="434.12" y="-118.75" font-family="Helvetica,sans-Serif" font-size="10.00">RexxNativeActivation.cpp</text>
</a>
</g>
</g>
<!-- Node1&#45;&gt;Node7 -->
<g id="edge6" class="edge">
<title>Node1&#45;&gt;Node7</title>
<path fill="none" stroke="midnightblue" d="M465.27,-160.36C457.36,-151.03 447.97,-139.95 441.58,-132.42"/>
<polygon fill="midnightblue" stroke="midnightblue" points="462.41,-162.4 471.55,-167.76 467.75,-157.87 462.41,-162.4"/>
</g>
<!-- Node8 -->
<g id="node8" class="node">
<title>Node8</title>
<g id="a_node8"><a xlink:href="_rexx_native_code_8cpp.html" target="_top" xlink:title=" ">
<polygon fill="white" stroke="black" points="400.25,-0.5 400.25,-19.75 510,-19.75 510,-0.5 400.25,-0.5"/>
<text text-anchor="middle" x="455.12" y="-6.25" font-family="Helvetica,sans-Serif" font-size="10.00">RexxNativeCode.cpp</text>
</a>
</g>
</g>
<!-- Node1&#45;&gt;Node8 -->
<g id="edge7" class="edge">
<title>Node1&#45;&gt;Node8</title>
<path fill="none" stroke="midnightblue" d="M494.57,-159.77C499.94,-151.94 505.38,-142.37 508.12,-132.75 510.59,-124.09 510.27,-121.24 508.12,-112.5 499.03,-75.47 473.76,-36.96 461.7,-20.02"/>
<polygon fill="midnightblue" stroke="midnightblue" points="491.83,-157.59 488.7,-167.71 497.46,-161.75 491.83,-157.59"/>
</g>
<!-- Node9 -->
<g id="node9" class="node">
<title>Node9</title>
<g id="a_node9"><a xlink:href="_c_p_p_code_8cpp.html" target="_top" xlink:title=" ">
<polygon fill="white" stroke="black" points="555.62,-113 555.62,-132.25 634.62,-132.25 634.62,-113 555.62,-113"/>
<text text-anchor="middle" x="595.12" y="-118.75" font-family="Helvetica,sans-Serif" font-size="10.00">CPPCode.cpp</text>
</a>
</g>
</g>
<!-- Node1&#45;&gt;Node9 -->
<g id="edge8" class="edge">
<title>Node1&#45;&gt;Node9</title>
<path fill="none" stroke="midnightblue" d="M509.58,-163.98C530.4,-154.16 557.72,-141.27 575.81,-132.73"/>
<polygon fill="midnightblue" stroke="midnightblue" points="508.29,-160.72 500.74,-168.15 511.28,-167.05 508.29,-160.72"/>
</g>
<!-- Node10 -->
<g id="node10" class="node">
<title>Node10</title>
<g id="a_node10"><a xlink:href="_virtual_function_table_8cpp.html" target="_top" xlink:title=" ">
<polygon fill="white" stroke="black" points="686.5,-56.75 686.5,-76 809.75,-76 809.75,-56.75 686.5,-56.75"/>
<text text-anchor="middle" x="748.12" y="-62.5" font-family="Helvetica,sans-Serif" font-size="10.00">VirtualFunctionTable.cpp</text>
</a>
</g>
</g>
<!-- Node1&#45;&gt;Node10 -->
<g id="edge9" class="edge">
<title>Node1&#45;&gt;Node10</title>
<path fill="none" stroke="midnightblue" d="M537.23,-166.31C569.15,-158.8 609.21,-147.63 643.12,-132.75 679.11,-116.96 717.3,-90.34 736.16,-76.44"/>
<polygon fill="midnightblue" stroke="midnightblue" points="536.74,-162.83 527.77,-168.47 538.3,-169.65 536.74,-162.83"/>
</g>
<!-- Node11 -->
<g id="node11" class="node">
<title>Node11</title>
<g id="a_node11"><a xlink:href="_library_package_8cpp.html" target="_top" xlink:title=" ">
<polygon fill="white" stroke="black" points="1756,-0.5 1756,-19.75 1858.25,-19.75 1858.25,-0.5 1756,-0.5"/>
<text text-anchor="middle" x="1807.12" y="-6.25" font-family="Helvetica,sans-Serif" font-size="10.00">LibraryPackage.cpp</text>
</a>
</g>
</g>
<!-- Node1&#45;&gt;Node11 -->
<g id="edge10" class="edge">
<title>Node1&#45;&gt;Node11</title>
<path fill="none" stroke="midnightblue" d="M546.86,-173.93C650.05,-167.48 854.47,-153.3 1027.12,-132.75 1304.07,-99.78 1633.6,-42.37 1757.11,-20.21"/>
<polygon fill="midnightblue" stroke="midnightblue" points="546.66,-170.44 536.89,-174.55 547.09,-177.42 546.66,-170.44"/>
</g>
<!-- Node12 -->
<g id="node12" class="node">
<title>Node12</title>
<g id="a_node12"><a xlink:href="_package_manager_8cpp.html" target="_top" xlink:title=" ">
<polygon fill="white" stroke="black" points="1876.25,-0.5 1876.25,-19.75 1986,-19.75 1986,-0.5 1876.25,-0.5"/>
<text text-anchor="middle" x="1931.12" y="-6.25" font-family="Helvetica,sans-Serif" font-size="10.00">PackageManager.cpp</text>
</a>
</g>
</g>
<!-- Node1&#45;&gt;Node12 -->
<g id="edge11" class="edge">
<title>Node1&#45;&gt;Node12</title>
<path fill="none" stroke="midnightblue" d="M546.69,-174.75C662.75,-168.95 909.57,-155.04 1117.12,-132.75 1291.25,-114.05 1333.92,-102.34 1507.12,-76.5 1639.54,-56.74 1795.04,-32.5 1875.93,-19.81"/>
<polygon fill="midnightblue" stroke="midnightblue" points="546.53,-171.26 536.71,-175.25 546.87,-178.25 546.53,-171.26"/>
</g>
<!-- Node13 -->
<g id="node13" class="node">
<title>Node13</title>
<g id="a_node13"><a xlink:href="_library_package_8hpp.html" target="_top" xlink:title=" ">
<polygon fill="white" stroke="black" points="916,-113 916,-132.25 1018.25,-132.25 1018.25,-113 916,-113"/>
<text text-anchor="middle" x="967.12" y="-118.75" font-family="Helvetica,sans-Serif" font-size="10.00">LibraryPackage.hpp</text>
</a>
</g>
</g>
<!-- Node1&#45;&gt;Node13 -->
<g id="edge12" class="edge">
<title>Node1&#45;&gt;Node13</title>
<path fill="none" stroke="midnightblue" d="M546.3,-170.5C644.53,-159.56 826.83,-139.25 915.72,-129.35"/>
<polygon fill="midnightblue" stroke="midnightblue" points="546.1,-167 536.55,-171.59 546.87,-173.96 546.1,-167"/>
</g>
<!-- Node13&#45;&gt;Node10 -->
<g id="edge13" class="edge">
<title>Node13&#45;&gt;Node10</title>
<path fill="none" stroke="midnightblue" d="M919.54,-109.84C879.11,-99.82 821.9,-85.65 784.9,-76.48"/>
<polygon fill="midnightblue" stroke="midnightblue" points="918.45,-113.17 929,-112.18 920.14,-106.38 918.45,-113.17"/>
</g>
<!-- Node13&#45;&gt;Node11 -->
<g id="edge32" class="edge">
<title>Node13&#45;&gt;Node11</title>
<path fill="none" stroke="midnightblue" d="M1026.21,-110.5C1103.27,-96.31 1242.38,-71.74 1362.12,-56.25 1532.56,-34.21 1576.55,-41.18 1747.12,-20.25 1749.95,-19.9 1752.84,-19.53 1755.76,-19.14"/>
<polygon fill="midnightblue" stroke="midnightblue" points="1025.99,-106.99 1016.79,-112.24 1027.26,-113.87 1025.99,-106.99"/>
</g>
<!-- Node13&#45;&gt;Node12 -->
<g id="edge33" class="edge">
<title>Node13&#45;&gt;Node12</title>
<path fill="none" stroke="midnightblue" d="M1030.1,-115.18C1176.93,-100 1553.34,-60.28 1867.12,-20.25 1870.02,-19.88 1872.99,-19.49 1875.98,-19.09"/>
<polygon fill="midnightblue" stroke="midnightblue" points="1029.78,-111.69 1020.19,-116.2 1030.49,-118.65 1029.78,-111.69"/>
</g>
<!-- Node14 -->
<g id="node14" class="node">
<title>Node14</title>
<g id="a_node14"><a xlink:href="_package_manager_8hpp.html" target="_top" xlink:title=" ">
<polygon fill="white" stroke="black" points="912.25,-56.75 912.25,-76 1022,-76 1022,-56.75 912.25,-56.75"/>
<text text-anchor="middle" x="967.12" y="-62.5" font-family="Helvetica,sans-Serif" font-size="10.00">PackageManager.hpp</text>
</a>
</g>
</g>
<!-- Node13&#45;&gt;Node14 -->
<g id="edge14" class="edge">
<title>Node13&#45;&gt;Node14</title>
<path fill="none" stroke="midnightblue" d="M967.12,-101.44C967.12,-92.73 967.12,-82.99 967.12,-76.17"/>
<polygon fill="midnightblue" stroke="midnightblue" points="963.63,-101.15 967.13,-111.15 970.63,-101.15 963.63,-101.15"/>
</g>
<!-- Node14&#45;&gt;Node2 -->
<g id="edge15" class="edge">
<title>Node14&#45;&gt;Node2</title>
<path fill="none" stroke="midnightblue" d="M900.56,-61.08C875.09,-59.48 845.76,-57.71 819.12,-56.25 485.91,-37.98 399.63,-66.45 69.12,-20.25 66.37,-19.86 63.52,-19.38 60.68,-18.83"/>
<polygon fill="midnightblue" stroke="midnightblue" points="900.25,-64.57 910.45,-61.7 900.69,-57.58 900.25,-64.57"/>
</g>
<!-- Node14&#45;&gt;Node4 -->
<g id="edge17" class="edge">
<title>Node14&#45;&gt;Node4</title>
<path fill="none" stroke="midnightblue" d="M900.55,-61.19C875.08,-59.61 845.76,-57.82 819.12,-56.25 534.72,-39.48 462.29,-51.61 179.12,-20.25 176.34,-19.94 173.47,-19.58 170.59,-19.2"/>
<polygon fill="midnightblue" stroke="midnightblue" points="900.25,-64.68 910.45,-61.81 900.68,-57.7 900.25,-64.68"/>
</g>
<!-- Node14&#45;&gt;Node5 -->
<g id="edge19" class="edge">
<title>Node14&#45;&gt;Node5</title>
<path fill="none" stroke="midnightblue" d="M900.5,-61.29C741.86,-51.51 350.51,-27.06 291.12,-20.25 288.29,-19.92 285.37,-19.56 282.44,-19.16"/>
<polygon fill="midnightblue" stroke="midnightblue" points="900.26,-64.78 910.45,-61.9 900.69,-57.79 900.26,-64.78"/>
</g>
<!-- Node14&#45;&gt;Node6 -->
<g id="edge25" class="edge">
<title>Node14&#45;&gt;Node6</title>
<path fill="none" stroke="midnightblue" d="M900.86,-61.04C771.17,-52.42 488.04,-32.86 391.12,-20.25 388.15,-19.86 385.08,-19.42 382,-18.94"/>
<polygon fill="midnightblue" stroke="midnightblue" points="900.45,-64.52 910.66,-61.69 900.91,-57.54 900.45,-64.52"/>
</g>
<!-- Node14&#45;&gt;Node8 -->
<g id="edge27" class="edge">
<title>Node14&#45;&gt;Node8</title>
<path fill="none" stroke="midnightblue" d="M900.51,-59.53C812.92,-51.65 654.29,-36.69 519.12,-20.25 516.23,-19.9 513.26,-19.52 510.26,-19.13"/>
<polygon fill="midnightblue" stroke="midnightblue" points="900.09,-63.01 910.36,-60.41 900.71,-56.03 900.09,-63.01"/>
</g>
<!-- Node14&#45;&gt;Node11 -->
<g id="edge30" class="edge">
<title>Node14&#45;&gt;Node11</title>
<path fill="none" stroke="midnightblue" d="M1033.62,-62.33C1196,-54.76 1609.54,-34.66 1747.12,-20.25 1749.95,-19.95 1752.85,-19.62 1755.78,-19.26"/>
<polygon fill="midnightblue" stroke="midnightblue" points="1033.7,-58.82 1023.88,-62.78 1034.03,-65.81 1033.7,-58.82"/>
</g>
<!-- Node14&#45;&gt;Node12 -->
<g id="edge31" class="edge">
<title>Node14&#45;&gt;Node12</title>
<path fill="none" stroke="midnightblue" d="M1033.5,-64.12C1182.77,-60.86 1556.18,-50.15 1867.12,-20.25 1870.03,-19.97 1873,-19.65 1876.01,-19.31"/>
<polygon fill="midnightblue" stroke="midnightblue" points="1033.73,-60.62 1023.81,-64.33 1033.88,-67.62 1033.73,-60.62"/>
</g>
<!-- Node15 -->
<g id="node15" class="node">
<title>Node15</title>
<g id="a_node15"><a xlink:href="_rexx_memory_8cpp.html" target="_top" xlink:title=" ">
<polygon fill="white" stroke="black" points="1170.25,-0.5 1170.25,-19.75 1262,-19.75 1262,-0.5 1170.25,-0.5"/>
<text text-anchor="middle" x="1216.12" y="-6.25" font-family="Helvetica,sans-Serif" font-size="10.00">RexxMemory.cpp</text>
</a>
</g>
</g>
<!-- Node14&#45;&gt;Node15 -->
<g id="edge16" class="edge">
<title>Node14&#45;&gt;Node15</title>
<path fill="none" stroke="midnightblue" d="M1019.76,-53.91C1065.81,-43.87 1131.8,-29.5 1174.31,-20.23"/>
<polygon fill="midnightblue" stroke="midnightblue" points="1019.31,-50.42 1010.28,-55.97 1020.8,-57.26 1019.31,-50.42"/>
</g>
<!-- Node16 -->
<g id="node16" class="node">
<title>Node16</title>
<g id="a_node16"><a xlink:href="_package_class_8cpp.html" target="_top" xlink:title=" ">
<polygon fill="white" stroke="black" points="1279.88,-0.5 1279.88,-19.75 1378.38,-19.75 1378.38,-0.5 1279.88,-0.5"/>
<text text-anchor="middle" x="1329.12" y="-6.25" font-family="Helvetica,sans-Serif" font-size="10.00">PackageClass.cpp</text>
</a>
</g>
</g>
<!-- Node14&#45;&gt;Node16 -->
<g id="edge18" class="edge">
<title>Node14&#45;&gt;Node16</title>
<path fill="none" stroke="midnightblue" d="M1033.45,-55.7C1095.06,-46.67 1189.32,-32.76 1271.12,-20.25 1273.85,-19.83 1276.64,-19.4 1279.46,-18.97"/>
<polygon fill="midnightblue" stroke="midnightblue" points="1033.23,-52.19 1023.84,-57.11 1034.24,-59.12 1033.23,-52.19"/>
</g>
<!-- Node17 -->
<g id="node17" class="node">
<title>Node17</title>
<g id="a_node17"><a xlink:href="unix_2_external_functions_8cpp.html" target="_top" xlink:title=" ">
<polygon fill="white" stroke="black" points="1396.38,-0.5 1396.38,-19.75 1509.88,-19.75 1509.88,-0.5 1396.38,-0.5"/>
<text text-anchor="middle" x="1453.12" y="-6.25" font-family="Helvetica,sans-Serif" font-size="10.00">ExternalFunctions.cpp</text>
</a>
</g>
</g>
<!-- Node14&#45;&gt;Node17 -->
<g id="edge20" class="edge">
<title>Node14&#45;&gt;Node17</title>
<path fill="none" stroke="midnightblue" d="M1033.48,-58.87C1116.33,-50.61 1262.34,-35.58 1387.12,-20.25 1390,-19.9 1392.93,-19.53 1395.9,-19.14"/>
<polygon fill="midnightblue" stroke="midnightblue" points="1033.33,-55.37 1023.73,-59.84 1034.03,-62.34 1033.33,-55.37"/>
</g>
<!-- Node18 -->
<g id="node18" class="node">
<title>Node18</title>
<g id="a_node18"><a xlink:href="windows_2_external_functions_8cpp.html" target="_top" xlink:title=" ">
<polygon fill="white" stroke="black" points="1528.38,-0.5 1528.38,-19.75 1641.88,-19.75 1641.88,-0.5 1528.38,-0.5"/>
<text text-anchor="middle" x="1585.12" y="-6.25" font-family="Helvetica,sans-Serif" font-size="10.00">ExternalFunctions.cpp</text>
</a>
</g>
</g>
<!-- Node14&#45;&gt;Node18 -->
<g id="edge21" class="edge">
<title>Node14&#45;&gt;Node18</title>
<path fill="none" stroke="midnightblue" d="M1033.7,-61.14C1137.54,-54.26 1344.32,-39.46 1519.12,-20.25 1522,-19.93 1524.94,-19.59 1527.91,-19.23"/>
<polygon fill="midnightblue" stroke="midnightblue" points="1033.72,-57.63 1023.97,-61.78 1034.18,-64.61 1033.72,-57.63"/>
</g>
<!-- Node19 -->
<g id="node19" class="node">
<title>Node19</title>
<g id="a_node19"><a xlink:href="_interpreter_8cpp.html" target="_top" xlink:title=" ">
<polygon fill="white" stroke="black" points="1660,-0.5 1660,-19.75 1738.25,-19.75 1738.25,-0.5 1660,-0.5"/>
<text text-anchor="middle" x="1699.12" y="-6.25" font-family="Helvetica,sans-Serif" font-size="10.00">Interpreter.cpp</text>
</a>
</g>
</g>
<!-- Node14&#45;&gt;Node19 -->
<g id="edge22" class="edge">
<title>Node14&#45;&gt;Node19</title>
<path fill="none" stroke="midnightblue" d="M1033.71,-63.68C1156.31,-59.96 1425.83,-48.99 1651.12,-20.25 1653.9,-19.9 1656.76,-19.48 1659.63,-19.03"/>
<polygon fill="midnightblue" stroke="midnightblue" points="1033.72,-60.18 1023.83,-63.97 1033.93,-67.17 1033.72,-60.18"/>
</g>
<!-- Node20 -->
<g id="node20" class="node">
<title>Node20</title>
<g id="a_node20"><a xlink:href="_interpreter_instance_8cpp.html" target="_top" xlink:title=" ">
<polygon fill="white" stroke="black" points="527.88,-0.5 527.88,-19.75 644.38,-19.75 644.38,-0.5 527.88,-0.5"/>
<text text-anchor="middle" x="586.12" y="-6.25" font-family="Helvetica,sans-Serif" font-size="10.00">InterpreterInstance.cpp</text>
</a>
</g>
</g>
<!-- Node14&#45;&gt;Node20 -->
<g id="edge23" class="edge">
<title>Node14&#45;&gt;Node20</title>
<path fill="none" stroke="midnightblue" d="M900.91,-55.95C828.64,-45.66 714.03,-29.34 644.86,-19.49"/>
<polygon fill="midnightblue" stroke="midnightblue" points="900.24,-59.39 910.63,-57.33 901.23,-52.46 900.24,-59.39"/>
</g>
<!-- Node21 -->
<g id="node21" class="node">
<title>Node21</title>
<g id="a_node21"><a xlink:href="_internal_package_8cpp.html" target="_top" xlink:title=" ">
<polygon fill="white" stroke="black" points="662.5,-0.5 662.5,-19.75 767.75,-19.75 767.75,-0.5 662.5,-0.5"/>
<text text-anchor="middle" x="715.12" y="-6.25" font-family="Helvetica,sans-Serif" font-size="10.00">InternalPackage.cpp</text>
</a>
</g>
</g>
<!-- Node14&#45;&gt;Node21 -->
<g id="edge24" class="edge">
<title>Node14&#45;&gt;Node21</title>
<path fill="none" stroke="midnightblue" d="M913.85,-53.91C867.25,-43.87 800.47,-29.5 757.44,-20.23"/>
<polygon fill="midnightblue" stroke="midnightblue" points="912.95,-57.29 923.47,-55.98 914.43,-50.45 912.95,-57.29"/>
</g>
<!-- Node22 -->
<g id="node22" class="node">
<title>Node22</title>
<g id="a_node22"><a xlink:href="_rexx_activation_8cpp.html" target="_top" xlink:title=" ">
<polygon fill="white" stroke="black" points="785.38,-0.5 785.38,-19.75 886.88,-19.75 886.88,-0.5 785.38,-0.5"/>
<text text-anchor="middle" x="836.12" y="-6.25" font-family="Helvetica,sans-Serif" font-size="10.00">RexxActivation.cpp</text>
</a>
</g>
</g>
<!-- Node14&#45;&gt;Node22 -->
<g id="edge26" class="edge">
<title>Node14&#45;&gt;Node22</title>
<path fill="none" stroke="midnightblue" d="M934.86,-52.02C911,-42.13 879.12,-28.93 858.12,-20.23"/>
<polygon fill="midnightblue" stroke="midnightblue" points="933.22,-55.12 943.8,-55.72 935.9,-48.66 933.22,-55.12"/>
</g>
<!-- Node23 -->
<g id="node23" class="node">
<title>Node23</title>
<g id="a_node23"><a xlink:href="_thread_context_stubs_8cpp.html" target="_top" xlink:title=" ">
<polygon fill="white" stroke="black" points="904.75,-0.5 904.75,-19.75 1029.5,-19.75 1029.5,-0.5 904.75,-0.5"/>
<text text-anchor="middle" x="967.12" y="-6.25" font-family="Helvetica,sans-Serif" font-size="10.00">ThreadContextStubs.cpp</text>
</a>
</g>
</g>
<!-- Node14&#45;&gt;Node23 -->
<g id="edge28" class="edge">
<title>Node14&#45;&gt;Node23</title>
<path fill="none" stroke="midnightblue" d="M967.12,-45.19C967.12,-36.48 967.12,-26.74 967.12,-19.92"/>
<polygon fill="midnightblue" stroke="midnightblue" points="963.63,-44.9 967.13,-54.9 970.63,-44.9 963.63,-44.9"/>
</g>
<!-- Node24 -->
<g id="node24" class="node">
<title>Node24</title>
<g id="a_node24"><a xlink:href="_builtin_functions_8cpp.html" target="_top" xlink:title=" ">
<polygon fill="white" stroke="black" points="1047.88,-0.5 1047.88,-19.75 1152.38,-19.75 1152.38,-0.5 1047.88,-0.5"/>
<text text-anchor="middle" x="1100.12" y="-6.25" font-family="Helvetica,sans-Serif" font-size="10.00">BuiltinFunctions.cpp</text>
</a>
</g>
</g>
<!-- Node14&#45;&gt;Node24 -->
<g id="edge29" class="edge">
<title>Node14&#45;&gt;Node24</title>
<path fill="none" stroke="midnightblue" d="M999.88,-52.02C1024.11,-42.13 1056.48,-28.93 1077.79,-20.23"/>
<polygon fill="midnightblue" stroke="midnightblue" points="998.73,-48.71 990.79,-55.72 1001.37,-55.19 998.73,-48.71"/>
</g>
</g>
</svg>
        <g id="navigator" transform="translate(0 0)" fill="#404254">
                <rect fill="#f2f5e9" fill-opacity="0.5" stroke="#606060" stroke-width=".5" x="0" y="0" width="60" height="60"/>
                <use id="zoomplus" xlink:href="#zoomPlus" x="17" y="9" onmousedown="handleZoom(evt,'in')"/>
                <use id="zoomminus" xlink:href="#zoomMin" x="42" y="9" onmousedown="handleZoom(evt,'out')"/>
                <use id="reset" xlink:href="#resetDef" x="30" y="36" onmousedown="handleReset()"/>
                <g id="arrowUp" xlink:href="#dirArrow" transform="translate(30 24)" onmousedown="handlePan(0,-1)">
                  <use xlink:href="#rim" fill="#404040">
                        <set attributeName="fill" to="#808080" begin="arrowUp.mouseover" end="arrowUp.mouseout"/>
                  </use>
                  <path fill="none" stroke="white" stroke-width="1.5" d="M0,-3.0v7 M-2.5,-0.5L0,-3.0L2.5,-0.5"/>
                </g>
                <g id="arrowRight" xlink:href="#dirArrow" transform="rotate(90) translate(36 -43)" onmousedown="handlePan(1,0)">
                  <use xlink:href="#rim" fill="#404040">
                        <set attributeName="fill" to="#808080" begin="arrowRight.mouseover" end="arrowRight.mouseout"/>
                  </use>
                  <path fill="none" stroke="white" stroke-width="1.5" d="M0,-3.0v7 M-2.5,-0.5L0,-3.0L2.5,-0.5"/>
                </g>
                <g id="arrowDown" xlink:href="#dirArrow" transform="rotate(180) translate(-30 -48)" onmousedown="handlePan(0,1)">
                  <use xlink:href="#rim" fill="#404040">
                        <set attributeName="fill" to="#808080" begin="arrowDown.mouseover" end="arrowDown.mouseout"/>
                  </use>
                  <path fill="none" stroke="white" stroke-width="1.5" d="M0,-3.0v7 M-2.5,-0.5L0,-3.0L2.5,-0.5"/>
                </g>
                <g id="arrowLeft" xlink:href="#dirArrow" transform="rotate(270) translate(-36 17)" onmousedown="handlePan(-1,0)">
                  <use xlink:href="#rim" fill="#404040">
                        <set attributeName="fill" to="#808080" begin="arrowLeft.mouseover" end="arrowLeft.mouseout"/>
                  </use>
                  <path fill="none" stroke="white" stroke-width="1.5" d="M0,-3.0v7 M-2.5,-0.5L0,-3.0L2.5,-0.5"/>
                </g>
        </g>
        <svg viewBox="0 0 15 15" width="100%" height="30px" preserveAspectRatio="xMaxYMin meet">
         <g id="arrow_out" transform="scale(0.3 0.3)">
          <a xlink:href="_rexx_native_code_8hpp__dep__incl_org.svg" target="_base">
           <rect id="button" ry="5" rx="5" y="6" x="6" height="38" width="38"
                fill="#f2f5e9" fill-opacity="0.5" stroke="#606060" stroke-width="1.0"/>
           <path id="arrow"
             d="M 11.500037,31.436501 C 11.940474,20.09759 22.043105,11.32322 32.158766,21.979434 L 37.068811,17.246167 C 37.068811,17.246167 37.088388,32 37.088388,32 L 22.160133,31.978069 C 22.160133,31.978069 26.997745,27.140456 26.997745,27.140456 C 18.528582,18.264221 13.291696,25.230495 11.500037,31.436501 z"
             style="fill:#404040;"/>
          </a>
         </g>
        </svg>
</svg>
