<?xml version="1.0" encoding="UTF-8" standalone="no"?>
<!DOCTYPE svg PUBLIC "-//W3C//DTD SVG 1.1//EN"
 "http://www.w3.org/Graphics/SVG/1.1/DTD/svg11.dtd">
<!-- Generated by graphviz version 12.1.0 (20240811.2233)
 -->
<!-- Title: Scanner.cpp Pages: 1 -->
<svg width="2196pt" height="422pt"
 viewBox="0.00 0.00 2196.38 422.00" xmlns="http://www.w3.org/2000/svg" xmlns:xlink="http://www.w3.org/1999/xlink">
<g id="graph0" class="graph" transform="scale(1 1) rotate(0) translate(4 418)">
<title>Scanner.cpp</title>
<polygon fill="white" stroke="none" points="-4,4 -4,-418 2192.38,-418 2192.38,4 -4,4"/>
<!-- Node1 -->
<g id="node1" class="node">
<title>Node1</title>
<g id="a_node1"><a xlink:title=" ">
<polygon fill="#bfbfbf" stroke="black" points="161.12,-394.25 161.12,-413.5 231.12,-413.5 231.12,-394.25 161.12,-394.25"/>
<text text-anchor="middle" x="196.12" y="-400" font-family="Helvetica,sans-Serif" font-size="10.00">Scanner.cpp</text>
</a>
</g>
</g>
<!-- Node2 -->
<g id="node2" class="node">
<title>Node2</title>
<g id="a_node2"><a xlink:title=" ">
<polygon fill="white" stroke="#bfbfbf" points="0,-169.25 0,-188.5 48.25,-188.5 48.25,-169.25 0,-169.25"/>
<text text-anchor="middle" x="24.12" y="-175" font-family="Helvetica,sans-Serif" font-size="10.00">ctype.h</text>
</a>
</g>
</g>
<!-- Node1&#45;&gt;Node2 -->
<g id="edge1" class="edge">
<title>Node1&#45;&gt;Node2</title>
<path fill="none" stroke="midnightblue" d="M189.17,-393.86C163.34,-360.37 72.66,-242.8 37.86,-197.69"/>
<polygon fill="midnightblue" stroke="midnightblue" points="40.78,-195.74 31.9,-189.96 35.24,-200.02 40.78,-195.74"/>
</g>
<!-- Node3 -->
<g id="node3" class="node">
<title>Node3</title>
<g id="a_node3"><a xlink:title=" ">
<polygon fill="white" stroke="#bfbfbf" points="66,-169.25 66,-188.5 114.25,-188.5 114.25,-169.25 66,-169.25"/>
<text text-anchor="middle" x="90.12" y="-175" font-family="Helvetica,sans-Serif" font-size="10.00">string.h</text>
</a>
</g>
</g>
<!-- Node1&#45;&gt;Node3 -->
<g id="edge2" class="edge">
<title>Node1&#45;&gt;Node3</title>
<path fill="none" stroke="midnightblue" d="M191.84,-393.86C176.09,-360.73 121.21,-245.26 99.28,-199.13"/>
<polygon fill="midnightblue" stroke="midnightblue" points="102.45,-197.66 95,-190.13 96.13,-200.66 102.45,-197.66"/>
</g>
<!-- Node4 -->
<g id="node4" class="node">
<title>Node4</title>
<g id="a_node4"><a xlink:href="_rexx_core_8h.html" target="_top" xlink:title=" ">
<polygon fill="white" stroke="black" points="843.88,-225.5 843.88,-244.75 912.38,-244.75 912.38,-225.5 843.88,-225.5"/>
<text text-anchor="middle" x="878.12" y="-231.25" font-family="Helvetica,sans-Serif" font-size="10.00">RexxCore.h</text>
</a>
</g>
</g>
<!-- Node1&#45;&gt;Node4 -->
<g id="edge3" class="edge">
<title>Node1&#45;&gt;Node4</title>
<path fill="none" stroke="midnightblue" d="M193.47,-393.95C187.38,-371.39 175.18,-311.73 206.12,-281.25 228.45,-259.25 684.91,-242.44 832.51,-237.57"/>
<polygon fill="midnightblue" stroke="midnightblue" points="832.42,-241.07 842.3,-237.25 832.19,-234.08 832.42,-241.07"/>
</g>
<!-- Node50 -->
<g id="node40" class="node">
<title>Node50</title>
<g id="a_node40"><a xlink:href="_string_class_8hpp.html" target="_top" xlink:title=" ">
<polygon fill="white" stroke="black" points="215.25,-281.75 215.25,-301 301,-301 301,-281.75 215.25,-281.75"/>
<text text-anchor="middle" x="258.12" y="-287.5" font-family="Helvetica,sans-Serif" font-size="10.00">StringClass.hpp</text>
</a>
</g>
</g>
<!-- Node1&#45;&gt;Node50 -->
<g id="edge45" class="edge">
<title>Node1&#45;&gt;Node50</title>
<path fill="none" stroke="midnightblue" d="M201.2,-393.83C211.29,-375.86 234.04,-335.29 247.53,-311.26"/>
<polygon fill="midnightblue" stroke="midnightblue" points="250.57,-312.99 252.41,-302.55 244.47,-309.56 250.57,-312.99"/>
</g>
<!-- Node46 -->
<g id="node44" class="node">
<title>Node46</title>
<g id="a_node44"><a xlink:href="_array_class_8hpp.html" target="_top" xlink:title=" ">
<polygon fill="white" stroke="black" points="1776.38,-225.5 1776.38,-244.75 1859.88,-244.75 1859.88,-225.5 1776.38,-225.5"/>
<text text-anchor="middle" x="1818.12" y="-231.25" font-family="Helvetica,sans-Serif" font-size="10.00">ArrayClass.hpp</text>
</a>
</g>
</g>
<!-- Node1&#45;&gt;Node46 -->
<g id="edge53" class="edge">
<title>Node1&#45;&gt;Node46</title>
<path fill="none" stroke="midnightblue" d="M231.46,-402.67C417.85,-401.42 1288.28,-393.74 1555.12,-357.75 1661.56,-343.4 1708.02,-370.73 1790.12,-301.5 1803.84,-289.93 1811.01,-270.43 1814.64,-255.73"/>
<polygon fill="midnightblue" stroke="midnightblue" points="1818,-256.78 1816.62,-246.28 1811.15,-255.35 1818,-256.78"/>
</g>
<!-- Node69 -->
<g id="node45" class="node">
<title>Node69</title>
<g id="a_node45"><a xlink:href="_source_file_8hpp.html" target="_top" xlink:title=" ">
<polygon fill="white" stroke="black" points="1464.5,-338 1464.5,-357.25 1545.75,-357.25 1545.75,-338 1464.5,-338"/>
<text text-anchor="middle" x="1505.12" y="-343.75" font-family="Helvetica,sans-Serif" font-size="10.00">SourceFile.hpp</text>
</a>
</g>
</g>
<!-- Node1&#45;&gt;Node69 -->
<g id="edge54" class="edge">
<title>Node1&#45;&gt;Node69</title>
<path fill="none" stroke="midnightblue" d="M231.48,-401.41C412.54,-393.91 1235.89,-359.78 1452.68,-350.8"/>
<polygon fill="midnightblue" stroke="midnightblue" points="1452.67,-354.3 1462.51,-350.39 1452.38,-347.31 1452.67,-354.3"/>
</g>
<!-- Node4&#45;&gt;Node2 -->
<g id="edge10" class="edge">
<title>Node4&#45;&gt;Node2</title>
<path fill="none" stroke="midnightblue" d="M843.64,-233.22C711.14,-229.58 233.88,-215.07 59.77,-189.02"/>
<polygon fill="midnightblue" stroke="midnightblue" points="60.42,-185.58 50,-187.48 59.33,-192.49 60.42,-185.58"/>
</g>
<!-- Node4&#45;&gt;Node3 -->
<g id="edge9" class="edge">
<title>Node4&#45;&gt;Node3</title>
<path fill="none" stroke="midnightblue" d="M843.73,-232.75C740.31,-228.46 423.1,-214.05 161.12,-189 149.65,-187.9 137.16,-186.4 125.91,-184.93"/>
<polygon fill="midnightblue" stroke="midnightblue" points="126.6,-181.5 116.22,-183.64 125.67,-188.43 126.6,-181.5"/>
</g>
<!-- Node5 -->
<g id="node5" class="node">
<title>Node5</title>
<g id="a_node5"><a xlink:href="oorexxapi_8h.html" target="_top" xlink:title=" ">
<polygon fill="white" stroke="black" points="378,-169.25 378,-188.5 444.25,-188.5 444.25,-169.25 378,-169.25"/>
<text text-anchor="middle" x="411.12" y="-175" font-family="Helvetica,sans-Serif" font-size="10.00">oorexxapi.h</text>
</a>
</g>
</g>
<!-- Node4&#45;&gt;Node5 -->
<g id="edge4" class="edge">
<title>Node4&#45;&gt;Node5</title>
<path fill="none" stroke="midnightblue" d="M843.62,-231.67C772.92,-226.37 606.36,-212.55 455.68,-189.07"/>
<polygon fill="midnightblue" stroke="midnightblue" points="456.31,-185.63 445.89,-187.53 455.22,-192.54 456.31,-185.63"/>
</g>
<!-- Node12 -->
<g id="node8" class="node">
<title>Node12</title>
<g id="a_node8"><a xlink:title=" ">
<polygon fill="white" stroke="#bfbfbf" points="755.5,-169.25 755.5,-188.5 800.75,-188.5 800.75,-169.25 755.5,-169.25"/>
<text text-anchor="middle" x="778.12" y="-175" font-family="Helvetica,sans-Serif" font-size="10.00">stdio.h</text>
</a>
</g>
</g>
<!-- Node4&#45;&gt;Node12 -->
<g id="edge7" class="edge">
<title>Node4&#45;&gt;Node12</title>
<path fill="none" stroke="midnightblue" d="M861.61,-225.17C846.12,-216.76 822.7,-204.06 804.6,-194.24"/>
<polygon fill="midnightblue" stroke="midnightblue" points="806.45,-191.26 795.99,-189.57 803.11,-197.41 806.45,-191.26"/>
</g>
<!-- Node13 -->
<g id="node9" class="node">
<title>Node13</title>
<g id="a_node9"><a xlink:title=" ">
<polygon fill="white" stroke="#bfbfbf" points="170.5,-169.25 170.5,-188.5 221.75,-188.5 221.75,-169.25 170.5,-169.25"/>
<text text-anchor="middle" x="196.12" y="-175" font-family="Helvetica,sans-Serif" font-size="10.00">stdarg.h</text>
</a>
</g>
</g>
<!-- Node4&#45;&gt;Node13 -->
<g id="edge8" class="edge">
<title>Node4&#45;&gt;Node13</title>
<path fill="none" stroke="midnightblue" d="M843.5,-233.96C747.8,-233.03 471.62,-227.13 233.32,-189.03"/>
<polygon fill="midnightblue" stroke="midnightblue" points="233.93,-185.58 223.5,-187.44 232.81,-192.49 233.93,-185.58"/>
</g>
<!-- Node14 -->
<g id="node10" class="node">
<title>Node14</title>
<g id="a_node10"><a xlink:title=" ">
<polygon fill="white" stroke="#bfbfbf" points="818.38,-169.25 818.38,-188.5 865.88,-188.5 865.88,-169.25 818.38,-169.25"/>
<text text-anchor="middle" x="842.12" y="-175" font-family="Helvetica,sans-Serif" font-size="10.00">limits.h</text>
</a>
</g>
</g>
<!-- Node4&#45;&gt;Node14 -->
<g id="edge11" class="edge">
<title>Node4&#45;&gt;Node14</title>
<path fill="none" stroke="midnightblue" d="M872.18,-225.17C867.3,-217.82 860.25,-207.18 854.19,-198.06"/>
<polygon fill="midnightblue" stroke="midnightblue" points="857.24,-196.32 848.8,-189.93 851.41,-200.2 857.24,-196.32"/>
</g>
<!-- Node15 -->
<g id="node11" class="node">
<title>Node15</title>
<g id="a_node11"><a xlink:title=" ">
<polygon fill="white" stroke="#bfbfbf" points="883.75,-169.25 883.75,-188.5 942.5,-188.5 942.5,-169.25 883.75,-169.25"/>
<text text-anchor="middle" x="913.12" y="-175" font-family="Helvetica,sans-Serif" font-size="10.00">stdexcept</text>
</a>
</g>
</g>
<!-- Node4&#45;&gt;Node15 -->
<g id="edge12" class="edge">
<title>Node4&#45;&gt;Node15</title>
<path fill="none" stroke="midnightblue" d="M883.9,-225.17C888.64,-217.82 895.51,-207.18 901.39,-198.06"/>
<polygon fill="midnightblue" stroke="midnightblue" points="904.15,-200.24 906.63,-189.94 898.27,-196.44 904.15,-200.24"/>
</g>
<!-- Node16 -->
<g id="node12" class="node">
<title>Node16</title>
<g id="a_node12"><a xlink:href="_rexx_platform_definitions_8h.html" target="_top" xlink:title=" ">
<polygon fill="white" stroke="black" points="960.75,-169.25 960.75,-188.5 1091.5,-188.5 1091.5,-169.25 960.75,-169.25"/>
<text text-anchor="middle" x="1026.12" y="-175" font-family="Helvetica,sans-Serif" font-size="10.00">RexxPlatformDefinitions.h</text>
</a>
</g>
</g>
<!-- Node4&#45;&gt;Node16 -->
<g id="edge13" class="edge">
<title>Node4&#45;&gt;Node16</title>
<path fill="none" stroke="midnightblue" d="M902.9,-225.04C926.91,-216.24 963.58,-202.8 990.67,-192.87"/>
<polygon fill="midnightblue" stroke="midnightblue" points="991.67,-196.23 999.85,-189.51 989.26,-189.66 991.67,-196.23"/>
</g>
<!-- Node19 -->
<g id="node15" class="node">
<title>Node19</title>
<g id="a_node15"><a xlink:href="_rexx_constants_8hpp.html" target="_top" xlink:title=" ">
<polygon fill="white" stroke="black" points="1109.62,-169.25 1109.62,-188.5 1212.62,-188.5 1212.62,-169.25 1109.62,-169.25"/>
<text text-anchor="middle" x="1161.12" y="-175" font-family="Helvetica,sans-Serif" font-size="10.00">RexxConstants.hpp</text>
</a>
</g>
</g>
<!-- Node4&#45;&gt;Node19 -->
<g id="edge16" class="edge">
<title>Node4&#45;&gt;Node19</title>
<path fill="none" stroke="midnightblue" d="M912.83,-227.47C960.15,-218.4 1045.57,-202.03 1102.82,-191.05"/>
<polygon fill="midnightblue" stroke="midnightblue" points="1103.23,-194.54 1112.39,-189.22 1101.91,-187.66 1103.23,-194.54"/>
</g>
<!-- Node20 -->
<g id="node16" class="node">
<title>Node20</title>
<g id="a_node16"><a xlink:href="_class_type_codes_8h.html" target="_top" xlink:title=" ">
<polygon fill="white" stroke="black" points="750.5,-56.75 750.5,-76 849.75,-76 849.75,-56.75 750.5,-56.75"/>
<text text-anchor="middle" x="800.12" y="-62.5" font-family="Helvetica,sans-Serif" font-size="10.00">ClassTypeCodes.h</text>
</a>
</g>
</g>
<!-- Node4&#45;&gt;Node20 -->
<g id="edge17" class="edge">
<title>Node4&#45;&gt;Node20</title>
<path fill="none" stroke="midnightblue" d="M843.49,-232.92C812.31,-229.77 768.1,-219.73 746.12,-189 713.85,-143.85 801.16,-171.35 826.12,-132.75 835.73,-117.89 826.14,-98.92 816.01,-85.24"/>
<polygon fill="midnightblue" stroke="midnightblue" points="818.77,-83.09 809.75,-77.53 813.33,-87.5 818.77,-83.09"/>
</g>
<!-- Node21 -->
<g id="node17" class="node">
<title>Node21</title>
<g id="a_node17"><a xlink:href="_global_names_8h.html" target="_top" xlink:title=" ">
<polygon fill="white" stroke="black" points="1230.38,-169.25 1230.38,-188.5 1313.88,-188.5 1313.88,-169.25 1230.38,-169.25"/>
<text text-anchor="middle" x="1272.12" y="-175" font-family="Helvetica,sans-Serif" font-size="10.00">GlobalNames.h</text>
</a>
</g>
</g>
<!-- Node4&#45;&gt;Node21 -->
<g id="edge18" class="edge">
<title>Node4&#45;&gt;Node21</title>
<path fill="none" stroke="midnightblue" d="M912.38,-230.21C972.46,-223.21 1100.97,-207.7 1219.11,-189.42"/>
<polygon fill="midnightblue" stroke="midnightblue" points="1219.3,-192.93 1228.64,-187.93 1218.22,-186.01 1219.3,-192.93"/>
</g>
<!-- Node22 -->
<g id="node18" class="node">
<title>Node22</title>
<g id="a_node18"><a xlink:href="_object_class_8hpp.html" target="_top" xlink:title=" ">
<polygon fill="white" stroke="black" points="462.75,-169.25 462.75,-188.5 551.5,-188.5 551.5,-169.25 462.75,-169.25"/>
<text text-anchor="middle" x="507.12" y="-175" font-family="Helvetica,sans-Serif" font-size="10.00">ObjectClass.hpp</text>
</a>
</g>
</g>
<!-- Node4&#45;&gt;Node22 -->
<g id="edge19" class="edge">
<title>Node4&#45;&gt;Node22</title>
<path fill="none" stroke="midnightblue" d="M843.72,-229.58C787.27,-222.05 671.18,-206.27 563.04,-189.42"/>
<polygon fill="midnightblue" stroke="midnightblue" points="563.85,-186.01 553.42,-187.92 562.76,-192.92 563.85,-186.01"/>
</g>
<!-- Node25 -->
<g id="node21" class="node">
<title>Node25</title>
<g id="a_node21"><a xlink:href="_table_class_8hpp.html" target="_top" xlink:title=" ">
<polygon fill="white" stroke="black" points="623.38,-56.75 623.38,-76 706.88,-76 706.88,-56.75 623.38,-56.75"/>
<text text-anchor="middle" x="665.12" y="-62.5" font-family="Helvetica,sans-Serif" font-size="10.00">TableClass.hpp</text>
</a>
</g>
</g>
<!-- Node4&#45;&gt;Node25 -->
<g id="edge22" class="edge">
<title>Node4&#45;&gt;Node25</title>
<path fill="none" stroke="midnightblue" d="M843.6,-230.4C812.36,-225.49 766.57,-214.28 735.12,-189 701.37,-161.86 680.74,-113.76 671.28,-86.9"/>
<polygon fill="midnightblue" stroke="midnightblue" points="674.68,-86.02 668.2,-77.64 668.04,-88.24 674.68,-86.02"/>
</g>
<!-- Node28 -->
<g id="node23" class="node">
<title>Node28</title>
<g id="a_node23"><a xlink:href="_stack_class_8hpp.html" target="_top" xlink:title=" ">
<polygon fill="white" stroke="black" points="1440.25,-169.25 1440.25,-188.5 1526,-188.5 1526,-169.25 1440.25,-169.25"/>
<text text-anchor="middle" x="1483.12" y="-175" font-family="Helvetica,sans-Serif" font-size="10.00">StackClass.hpp</text>
</a>
</g>
</g>
<!-- Node4&#45;&gt;Node28 -->
<g id="edge24" class="edge">
<title>Node4&#45;&gt;Node28</title>
<path fill="none" stroke="midnightblue" d="M912.86,-232.41C998.59,-227.93 1227.28,-214.54 1428.38,-189.24"/>
<polygon fill="midnightblue" stroke="midnightblue" points="1428.78,-192.72 1438.26,-187.98 1427.9,-185.77 1428.78,-192.72"/>
</g>
<!-- Node29 -->
<g id="node24" class="node">
<title>Node29</title>
<g id="a_node24"><a xlink:href="_rexx_memory_8hpp.html" target="_top" xlink:title=" ">
<polygon fill="white" stroke="black" points="569.25,-169.25 569.25,-188.5 661,-188.5 661,-169.25 569.25,-169.25"/>
<text text-anchor="middle" x="615.12" y="-175" font-family="Helvetica,sans-Serif" font-size="10.00">RexxMemory.hpp</text>
</a>
</g>
</g>
<!-- Node4&#45;&gt;Node29 -->
<g id="edge25" class="edge">
<title>Node4&#45;&gt;Node29</title>
<path fill="none" stroke="midnightblue" d="M843.47,-226.98C799.29,-217.86 722.38,-202 670.14,-191.22"/>
<polygon fill="midnightblue" stroke="midnightblue" points="671.05,-187.84 660.55,-189.24 669.63,-194.69 671.05,-187.84"/>
</g>
<!-- Node36 -->
<g id="node29" class="node">
<title>Node36</title>
<g id="a_node29"><a xlink:href="_rexx_behaviour_8hpp.html" target="_top" xlink:title=" ">
<polygon fill="white" stroke="black" points="1744.75,-169.25 1744.75,-188.5 1845.5,-188.5 1845.5,-169.25 1744.75,-169.25"/>
<text text-anchor="middle" x="1795.12" y="-175" font-family="Helvetica,sans-Serif" font-size="10.00">RexxBehaviour.hpp</text>
</a>
</g>
</g>
<!-- Node4&#45;&gt;Node36 -->
<g id="edge33" class="edge">
<title>Node4&#45;&gt;Node36</title>
<path fill="none" stroke="midnightblue" d="M912.68,-232.08C1049.6,-223.98 1555.28,-194.06 1732.93,-183.55"/>
<polygon fill="midnightblue" stroke="midnightblue" points="1733.11,-187.05 1742.88,-182.97 1732.69,-180.06 1733.11,-187.05"/>
</g>
<!-- Node38 -->
<g id="node31" class="node">
<title>Node38</title>
<g id="a_node31"><a xlink:href="_class_class_8hpp.html" target="_top" xlink:title=" ">
<polygon fill="white" stroke="black" points="1863.25,-169.25 1863.25,-188.5 1949,-188.5 1949,-169.25 1863.25,-169.25"/>
<text text-anchor="middle" x="1906.12" y="-175" font-family="Helvetica,sans-Serif" font-size="10.00">ClassClass.hpp</text>
</a>
</g>
</g>
<!-- Node4&#45;&gt;Node38 -->
<g id="edge35" class="edge">
<title>Node4&#45;&gt;Node38</title>
<path fill="none" stroke="midnightblue" d="M912.83,-234.12C1038.05,-233.75 1478.48,-229.57 1851.48,-189.15"/>
<polygon fill="midnightblue" stroke="midnightblue" points="1851.71,-192.64 1861.27,-188.07 1850.95,-185.68 1851.71,-192.64"/>
</g>
<!-- Node39 -->
<g id="node32" class="node">
<title>Node39</title>
<g id="a_node32"><a xlink:href="_rexx_envelope_8hpp.html" target="_top" xlink:title=" ">
<polygon fill="white" stroke="black" points="1966.88,-169.25 1966.88,-188.5 2065.38,-188.5 2065.38,-169.25 1966.88,-169.25"/>
<text text-anchor="middle" x="2016.12" y="-175" font-family="Helvetica,sans-Serif" font-size="10.00">RexxEnvelope.hpp</text>
</a>
</g>
</g>
<!-- Node4&#45;&gt;Node39 -->
<g id="edge36" class="edge">
<title>Node4&#45;&gt;Node39</title>
<path fill="none" stroke="midnightblue" d="M912.73,-234.12C1046.04,-233.78 1539.2,-229.75 1955.14,-189.18"/>
<polygon fill="midnightblue" stroke="midnightblue" points="1955.38,-192.68 1964.99,-188.21 1954.7,-185.71 1955.38,-192.68"/>
</g>
<!-- Node40 -->
<g id="node33" class="node">
<title>Node40</title>
<g id="a_node33"><a xlink:href="_rexx_activity_8hpp.html" target="_top" xlink:title=" ">
<polygon fill="white" stroke="red" points="1332.38,-169.25 1332.38,-188.5 1421.88,-188.5 1421.88,-169.25 1332.38,-169.25"/>
<text text-anchor="middle" x="1377.12" y="-175" font-family="Helvetica,sans-Serif" font-size="10.00">RexxActivity.hpp</text>
</a>
</g>
</g>
<!-- Node4&#45;&gt;Node40 -->
<g id="edge37" class="edge">
<title>Node4&#45;&gt;Node40</title>
<path fill="none" stroke="midnightblue" d="M912.84,-231.39C986.12,-225.46 1162.24,-210.31 1320.7,-189.24"/>
<polygon fill="midnightblue" stroke="midnightblue" points="1321.13,-192.72 1330.58,-187.92 1320.2,-185.78 1321.13,-192.72"/>
</g>
<!-- Node51 -->
<g id="node38" class="node">
<title>Node51</title>
<g id="a_node38"><a xlink:href="_number_string_class_8hpp.html" target="_top" xlink:title=" ">
<polygon fill="white" stroke="red" points="240,-169.25 240,-188.5 360.25,-188.5 360.25,-169.25 240,-169.25"/>
<text text-anchor="middle" x="300.12" y="-175" font-family="Helvetica,sans-Serif" font-size="10.00">NumberStringClass.hpp</text>
</a>
</g>
</g>
<!-- Node4&#45;&gt;Node51 -->
<g id="edge42" class="edge">
<title>Node4&#45;&gt;Node51</title>
<path fill="none" stroke="midnightblue" d="M843.51,-231.57C762.83,-225.52 555.76,-209.33 371.93,-189.27"/>
<polygon fill="midnightblue" stroke="midnightblue" points="372.52,-185.81 362.19,-188.2 371.75,-192.77 372.52,-185.81"/>
</g>
<!-- Node67 -->
<g id="node39" class="node">
<title>Node67</title>
<g id="a_node39"><a xlink:href="_activity_manager_8hpp.html" target="_top" xlink:title=" ">
<polygon fill="white" stroke="red" points="2083.88,-169.25 2083.88,-188.5 2188.38,-188.5 2188.38,-169.25 2083.88,-169.25"/>
<text text-anchor="middle" x="2136.12" y="-175" font-family="Helvetica,sans-Serif" font-size="10.00">ActivityManager.hpp</text>
</a>
</g>
</g>
<!-- Node4&#45;&gt;Node67 -->
<g id="edge44" class="edge">
<title>Node4&#45;&gt;Node67</title>
<path fill="none" stroke="midnightblue" d="M912.46,-234.19C1054.09,-234.17 1606.81,-231.29 2072.09,-189.07"/>
<polygon fill="midnightblue" stroke="midnightblue" points="2072.26,-192.57 2081.9,-188.17 2071.62,-185.6 2072.26,-192.57"/>
</g>
<!-- Node6 -->
<g id="node6" class="node">
<title>Node6</title>
<g id="a_node6"><a xlink:href="rexx_8h.html" target="_top" xlink:title=" ">
<polygon fill="white" stroke="red" points="13.62,-113 13.62,-132.25 56.62,-132.25 56.62,-113 13.62,-113"/>
<text text-anchor="middle" x="35.12" y="-118.75" font-family="Helvetica,sans-Serif" font-size="10.00">rexx.h</text>
</a>
</g>
</g>
<!-- Node5&#45;&gt;Node6 -->
<g id="edge5" class="edge">
<title>Node5&#45;&gt;Node6</title>
<path fill="none" stroke="midnightblue" d="M377.71,-170.31C374.81,-169.75 371.92,-169.22 369.12,-168.75 238.9,-146.92 200.96,-159.3 68.04,-132.81"/>
<polygon fill="midnightblue" stroke="midnightblue" points="69.01,-129.43 58.51,-130.87 67.61,-136.29 69.01,-129.43"/>
</g>
<!-- Node11 -->
<g id="node7" class="node">
<title>Node11</title>
<g id="a_node7"><a xlink:href="oorexxerrors_8h.html" target="_top" xlink:title=" ">
<polygon fill="white" stroke="black" points="170,-113 170,-132.25 248.25,-132.25 248.25,-113 170,-113"/>
<text text-anchor="middle" x="209.12" y="-118.75" font-family="Helvetica,sans-Serif" font-size="10.00">oorexxerrors.h</text>
</a>
</g>
</g>
<!-- Node5&#45;&gt;Node11 -->
<g id="edge6" class="edge">
<title>Node5&#45;&gt;Node11</title>
<path fill="none" stroke="midnightblue" d="M377.77,-168.92C343.95,-159.83 291.41,-145.72 253.97,-135.67"/>
<polygon fill="midnightblue" stroke="midnightblue" points="254.9,-132.29 244.33,-133.08 253.08,-139.05 254.9,-132.29"/>
</g>
<!-- Node17 -->
<g id="node13" class="node">
<title>Node17</title>
<g id="a_node13"><a xlink:title=" ">
<polygon fill="white" stroke="#bfbfbf" points="923.38,-113 923.38,-132.25 1030.88,-132.25 1030.88,-113 923.38,-113"/>
<text text-anchor="middle" x="977.12" y="-118.75" font-family="Helvetica,sans-Serif" font-size="10.00">PlatformDefinitions.h</text>
</a>
</g>
</g>
<!-- Node16&#45;&gt;Node17 -->
<g id="edge14" class="edge">
<title>Node16&#45;&gt;Node17</title>
<path fill="none" stroke="midnightblue" d="M1018.03,-168.92C1011.18,-161.33 1001.17,-150.24 992.76,-140.93"/>
<polygon fill="midnightblue" stroke="midnightblue" points="995.38,-138.61 986.08,-133.54 990.19,-143.31 995.38,-138.61"/>
</g>
<!-- Node18 -->
<g id="node14" class="node">
<title>Node18</title>
<g id="a_node14"><a xlink:href="_rexx_error_codes_8h.html" target="_top" xlink:title=" ">
<polygon fill="white" stroke="black" points="1048.62,-113 1048.62,-132.25 1145.62,-132.25 1145.62,-113 1048.62,-113"/>
<text text-anchor="middle" x="1097.12" y="-118.75" font-family="Helvetica,sans-Serif" font-size="10.00">RexxErrorCodes.h</text>
</a>
</g>
</g>
<!-- Node16&#45;&gt;Node18 -->
<g id="edge15" class="edge">
<title>Node16&#45;&gt;Node18</title>
<path fill="none" stroke="midnightblue" d="M1037.85,-168.92C1048.39,-160.86 1064.12,-148.84 1076.73,-139.21"/>
<polygon fill="midnightblue" stroke="midnightblue" points="1078.6,-142.19 1084.42,-133.34 1074.35,-136.63 1078.6,-142.19"/>
</g>
<!-- Node23 -->
<g id="node19" class="node">
<title>Node23</title>
<g id="a_node19"><a xlink:href="_numerics_8hpp.html" target="_top" xlink:title=" ">
<polygon fill="white" stroke="black" points="74.75,-113 74.75,-132.25 151.5,-132.25 151.5,-113 74.75,-113"/>
<text text-anchor="middle" x="113.12" y="-118.75" font-family="Helvetica,sans-Serif" font-size="10.00">Numerics.hpp</text>
</a>
</g>
</g>
<!-- Node22&#45;&gt;Node23 -->
<g id="edge20" class="edge">
<title>Node22&#45;&gt;Node23</title>
<path fill="none" stroke="midnightblue" d="M462.36,-170.15C459.24,-169.66 456.14,-169.19 453.12,-168.75 327.28,-150.37 292.21,-152.82 162.99,-132.94"/>
<polygon fill="midnightblue" stroke="midnightblue" points="163.77,-129.52 153.36,-131.45 162.7,-136.44 163.77,-129.52"/>
</g>
<!-- Node24 -->
<g id="node20" class="node">
<title>Node24</title>
<g id="a_node20"><a xlink:title=" ">
<polygon fill="white" stroke="#bfbfbf" points="292.5,-56.75 292.5,-76 343.75,-76 343.75,-56.75 292.5,-56.75"/>
<text text-anchor="middle" x="318.12" y="-62.5" font-family="Helvetica,sans-Serif" font-size="10.00">stddef.h</text>
</a>
</g>
</g>
<!-- Node22&#45;&gt;Node24 -->
<g id="edge21" class="edge">
<title>Node22&#45;&gt;Node24</title>
<path fill="none" stroke="midnightblue" d="M462.27,-169.76C401.89,-158.62 301.38,-139.25 296.12,-132.75 285.1,-119.11 293.89,-99.68 303.43,-85.55"/>
<polygon fill="midnightblue" stroke="midnightblue" points="306.2,-87.69 309.34,-77.57 300.57,-83.53 306.2,-87.69"/>
</g>
<!-- Node26 -->
<g id="node22" class="node">
<title>Node26</title>
<g id="a_node22"><a xlink:href="_rexx_collection_8hpp.html" target="_top" xlink:title=" ">
<polygon fill="white" stroke="red" points="614.38,-0.5 614.38,-19.75 715.88,-19.75 715.88,-0.5 614.38,-0.5"/>
<text text-anchor="middle" x="665.12" y="-6.25" font-family="Helvetica,sans-Serif" font-size="10.00">RexxCollection.hpp</text>
</a>
</g>
</g>
<!-- Node25&#45;&gt;Node26 -->
<g id="edge23" class="edge">
<title>Node25&#45;&gt;Node26</title>
<path fill="none" stroke="midnightblue" d="M665.12,-56.42C665.12,-49.62 665.12,-40.01 665.12,-31.4"/>
<polygon fill="midnightblue" stroke="midnightblue" points="668.63,-31.43 665.13,-21.43 661.63,-31.43 668.63,-31.43"/>
</g>
<!-- Node30 -->
<g id="node25" class="node">
<title>Node30</title>
<g id="a_node25"><a xlink:title=" ">
<polygon fill="white" stroke="#bfbfbf" points="431.38,-113 431.38,-132.25 532.88,-132.25 532.88,-113 431.38,-113"/>
<text text-anchor="middle" x="482.12" y="-118.75" font-family="Helvetica,sans-Serif" font-size="10.00">SysSemaphore.hpp</text>
</a>
</g>
</g>
<!-- Node29&#45;&gt;Node30 -->
<g id="edge26" class="edge">
<title>Node29&#45;&gt;Node30</title>
<path fill="none" stroke="midnightblue" d="M592.86,-168.79C571.57,-160.11 539.21,-146.91 514.96,-137.02"/>
<polygon fill="midnightblue" stroke="midnightblue" points="516.44,-133.84 505.86,-133.31 513.8,-140.32 516.44,-133.84"/>
</g>
<!-- Node31 -->
<g id="node26" class="node">
<title>Node31</title>
<g id="a_node26"><a xlink:href="_identity_table_class_8hpp.html" target="_top" xlink:title=" ">
<polygon fill="white" stroke="black" points="551.25,-113 551.25,-132.25 667,-132.25 667,-113 551.25,-113"/>
<text text-anchor="middle" x="609.12" y="-118.75" font-family="Helvetica,sans-Serif" font-size="10.00">IdentityTableClass.hpp</text>
</a>
</g>
</g>
<!-- Node29&#45;&gt;Node31 -->
<g id="edge27" class="edge">
<title>Node29&#45;&gt;Node31</title>
<path fill="none" stroke="midnightblue" d="M614.13,-168.92C613.37,-162.04 612.3,-152.29 611.33,-143.6"/>
<polygon fill="midnightblue" stroke="midnightblue" points="614.84,-143.48 610.26,-133.92 607.88,-144.25 614.84,-143.48"/>
</g>
<!-- Node32 -->
<g id="node27" class="node">
<title>Node32</title>
<g id="a_node27"><a xlink:href="_memory_stats_8hpp.html" target="_top" xlink:title=" ">
<polygon fill="white" stroke="black" points="723.5,-113 723.5,-132.25 816.75,-132.25 816.75,-113 723.5,-113"/>
<text text-anchor="middle" x="770.12" y="-118.75" font-family="Helvetica,sans-Serif" font-size="10.00">MemoryStats.hpp</text>
</a>
</g>
</g>
<!-- Node29&#45;&gt;Node32 -->
<g id="edge29" class="edge">
<title>Node29&#45;&gt;Node32</title>
<path fill="none" stroke="midnightblue" d="M641.07,-168.79C666.33,-159.95 704.96,-146.43 733.38,-136.49"/>
<polygon fill="midnightblue" stroke="midnightblue" points="734.39,-139.84 742.67,-133.23 732.07,-133.23 734.39,-139.84"/>
</g>
<!-- Node33 -->
<g id="node28" class="node">
<title>Node33</title>
<g id="a_node28"><a xlink:href="_memory_segment_8hpp.html" target="_top" xlink:title=" ">
<polygon fill="white" stroke="red" points="304.62,-113 304.62,-132.25 413.62,-132.25 413.62,-113 304.62,-113"/>
<text text-anchor="middle" x="359.12" y="-118.75" font-family="Helvetica,sans-Serif" font-size="10.00">MemorySegment.hpp</text>
</a>
</g>
</g>
<!-- Node29&#45;&gt;Node33 -->
<g id="edge31" class="edge">
<title>Node29&#45;&gt;Node33</title>
<path fill="none" stroke="midnightblue" d="M572.28,-168.79C528.53,-159.52 460.49,-145.11 413.09,-135.06"/>
<polygon fill="midnightblue" stroke="midnightblue" points="414.1,-131.7 403.59,-133.05 412.65,-138.55 414.1,-131.7"/>
</g>
<!-- Node31&#45;&gt;Node25 -->
<g id="edge28" class="edge">
<title>Node31&#45;&gt;Node25</title>
<path fill="none" stroke="midnightblue" d="M618.37,-112.67C626.36,-104.92 638.13,-93.53 647.86,-84.11"/>
<polygon fill="midnightblue" stroke="midnightblue" points="650.22,-86.69 654.96,-77.22 645.35,-81.66 650.22,-86.69"/>
</g>
<!-- Node32&#45;&gt;Node20 -->
<g id="edge30" class="edge">
<title>Node32&#45;&gt;Node20</title>
<path fill="none" stroke="midnightblue" d="M775.08,-112.67C779.05,-105.48 784.77,-95.14 789.74,-86.15"/>
<polygon fill="midnightblue" stroke="midnightblue" points="792.75,-87.94 794.53,-77.49 786.63,-84.55 792.75,-87.94"/>
</g>
<!-- Node33&#45;&gt;Node24 -->
<g id="edge32" class="edge">
<title>Node33&#45;&gt;Node24</title>
<path fill="none" stroke="midnightblue" d="M352.35,-112.67C346.74,-105.24 338.59,-94.45 331.65,-85.27"/>
<polygon fill="midnightblue" stroke="midnightblue" points="334.5,-83.24 325.68,-77.37 328.92,-87.46 334.5,-83.24"/>
</g>
<!-- Node37 -->
<g id="node30" class="node">
<title>Node37</title>
<g id="a_node30"><a xlink:href="_primitive_behaviour_names_8h.html" target="_top" xlink:title=" ">
<polygon fill="white" stroke="black" points="1728.38,-113 1728.38,-132.25 1865.88,-132.25 1865.88,-113 1728.38,-113"/>
<text text-anchor="middle" x="1797.12" y="-118.75" font-family="Helvetica,sans-Serif" font-size="10.00">PrimitiveBehaviourNames.h</text>
</a>
</g>
</g>
<!-- Node36&#45;&gt;Node37 -->
<g id="edge34" class="edge">
<title>Node36&#45;&gt;Node37</title>
<path fill="none" stroke="midnightblue" d="M1795.46,-168.92C1795.71,-162.12 1796.06,-152.51 1796.38,-143.9"/>
<polygon fill="midnightblue" stroke="midnightblue" points="1799.87,-144.05 1796.75,-133.93 1792.88,-143.79 1799.87,-144.05"/>
</g>
<!-- Node41 -->
<g id="node34" class="node">
<title>Node41</title>
<g id="a_node34"><a xlink:href="_list_class_8hpp.html" target="_top" xlink:title=" ">
<polygon fill="white" stroke="red" points="1514.12,-113 1514.12,-132.25 1590.12,-132.25 1590.12,-113 1514.12,-113"/>
<text text-anchor="middle" x="1552.12" y="-118.75" font-family="Helvetica,sans-Serif" font-size="10.00">ListClass.hpp</text>
</a>
</g>
</g>
<!-- Node40&#45;&gt;Node41 -->
<g id="edge38" class="edge">
<title>Node40&#45;&gt;Node41</title>
<path fill="none" stroke="midnightblue" d="M1406.42,-168.79C1435.31,-159.84 1479.71,-146.07 1511.91,-136.09"/>
<polygon fill="midnightblue" stroke="midnightblue" points="1512.78,-139.49 1521.29,-133.18 1510.7,-132.8 1512.78,-139.49"/>
</g>
<!-- Node43 -->
<g id="node35" class="node">
<title>Node43</title>
<g id="a_node35"><a xlink:href="_rexx_internal_stack_8hpp.html" target="_top" xlink:title=" ">
<polygon fill="white" stroke="black" points="1230.25,-113 1230.25,-132.25 1346,-132.25 1346,-113 1230.25,-113"/>
<text text-anchor="middle" x="1288.12" y="-118.75" font-family="Helvetica,sans-Serif" font-size="10.00">RexxInternalStack.hpp</text>
</a>
</g>
</g>
<!-- Node40&#45;&gt;Node43 -->
<g id="edge39" class="edge">
<title>Node40&#45;&gt;Node43</title>
<path fill="none" stroke="midnightblue" d="M1362.43,-168.92C1348.9,-160.67 1328.57,-148.28 1312.6,-138.54"/>
<polygon fill="midnightblue" stroke="midnightblue" points="1314.5,-135.6 1304.14,-133.38 1310.85,-141.58 1314.5,-135.6"/>
</g>
<!-- Node44 -->
<g id="node36" class="node">
<title>Node44</title>
<g id="a_node36"><a xlink:href="_rexx_activation_stack_8hpp.html" target="_top" xlink:title=" ">
<polygon fill="white" stroke="black" points="1363.62,-113 1363.62,-132.25 1490.62,-132.25 1490.62,-113 1363.62,-113"/>
<text text-anchor="middle" x="1427.12" y="-118.75" font-family="Helvetica,sans-Serif" font-size="10.00">RexxActivationStack.hpp</text>
</a>
</g>
</g>
<!-- Node40&#45;&gt;Node44 -->
<g id="edge40" class="edge">
<title>Node40&#45;&gt;Node44</title>
<path fill="none" stroke="midnightblue" d="M1385.38,-168.92C1392.44,-161.25 1402.81,-150.01 1411.44,-140.64"/>
<polygon fill="midnightblue" stroke="midnightblue" points="1413.79,-143.25 1418,-133.53 1408.65,-138.51 1413.79,-143.25"/>
</g>
<!-- Node62 -->
<g id="node37" class="node">
<title>Node62</title>
<g id="a_node37"><a xlink:href="_source_location_8hpp.html" target="_top" xlink:title=" ">
<polygon fill="white" stroke="black" points="1608,-113 1608,-132.25 1710.25,-132.25 1710.25,-113 1608,-113"/>
<text text-anchor="middle" x="1659.12" y="-118.75" font-family="Helvetica,sans-Serif" font-size="10.00">SourceLocation.hpp</text>
</a>
</g>
</g>
<!-- Node40&#45;&gt;Node62 -->
<g id="edge41" class="edge">
<title>Node40&#45;&gt;Node62</title>
<path fill="none" stroke="midnightblue" d="M1422.12,-169.22C1470.51,-159.91 1547.62,-145.08 1600.67,-134.87"/>
<polygon fill="midnightblue" stroke="midnightblue" points="1601.29,-138.31 1610.45,-132.99 1599.97,-131.44 1601.29,-138.31"/>
</g>
<!-- Node51&#45;&gt;Node23 -->
<g id="edge43" class="edge">
<title>Node51&#45;&gt;Node23</title>
<path fill="none" stroke="midnightblue" d="M268.83,-168.79C237.68,-159.76 189.67,-145.83 155.2,-135.83"/>
<polygon fill="midnightblue" stroke="midnightblue" points="156.56,-132.58 145.98,-133.16 154.61,-139.3 156.56,-132.58"/>
</g>
<!-- Node50&#45;&gt;Node51 -->
<g id="edge46" class="edge">
<title>Node50&#45;&gt;Node51</title>
<path fill="none" stroke="midnightblue" d="M260.18,-281.31C263.22,-268.53 269.38,-244.56 277.12,-225 280.6,-216.22 285.21,-206.87 289.39,-198.96"/>
<polygon fill="midnightblue" stroke="midnightblue" points="292.4,-200.75 294.12,-190.3 286.25,-197.4 292.4,-200.75"/>
</g>
<!-- Node53 -->
<g id="node41" class="node">
<title>Node53</title>
<g id="a_node41"><a xlink:href="_integer_class_8hpp.html" target="_top" xlink:title=" ">
<polygon fill="white" stroke="black" points="286,-225.5 286,-244.75 376.25,-244.75 376.25,-225.5 286,-225.5"/>
<text text-anchor="middle" x="331.12" y="-231.25" font-family="Helvetica,sans-Serif" font-size="10.00">IntegerClass.hpp</text>
</a>
</g>
</g>
<!-- Node50&#45;&gt;Node53 -->
<g id="edge47" class="edge">
<title>Node50&#45;&gt;Node53</title>
<path fill="none" stroke="midnightblue" d="M270.18,-281.42C281.02,-273.36 297.19,-261.34 310.15,-251.71"/>
<polygon fill="midnightblue" stroke="midnightblue" points="312.14,-254.59 318.08,-245.82 307.97,-248.97 312.14,-254.59"/>
</g>
<!-- Node54 -->
<g id="node42" class="node">
<title>Node54</title>
<g id="a_node42"><a xlink:href="_string_util_8hpp.html" target="_top" xlink:title=" ">
<polygon fill="white" stroke="black" points="394.5,-225.5 394.5,-244.75 469.75,-244.75 469.75,-225.5 394.5,-225.5"/>
<text text-anchor="middle" x="432.12" y="-231.25" font-family="Helvetica,sans-Serif" font-size="10.00">StringUtil.hpp</text>
</a>
</g>
</g>
<!-- Node50&#45;&gt;Node54 -->
<g id="edge49" class="edge">
<title>Node50&#45;&gt;Node54</title>
<path fill="none" stroke="midnightblue" d="M287.25,-281.29C315.98,-272.34 360.13,-258.57 392.14,-248.59"/>
<polygon fill="midnightblue" stroke="midnightblue" points="392.96,-252 401.46,-245.69 390.87,-245.32 392.96,-252"/>
</g>
<!-- Node55 -->
<g id="node43" class="node">
<title>Node55</title>
<g id="a_node43"><a xlink:href="_utilities_8hpp.html" target="_top" xlink:title=" ">
<polygon fill="white" stroke="red" points="162.25,-225.5 162.25,-244.75 230,-244.75 230,-225.5 162.25,-225.5"/>
<text text-anchor="middle" x="196.12" y="-231.25" font-family="Helvetica,sans-Serif" font-size="10.00">Utilities.hpp</text>
</a>
</g>
</g>
<!-- Node50&#45;&gt;Node55 -->
<g id="edge50" class="edge">
<title>Node50&#45;&gt;Node55</title>
<path fill="none" stroke="midnightblue" d="M247.89,-281.42C238.86,-273.52 225.48,-261.81 214.59,-252.28"/>
<polygon fill="midnightblue" stroke="midnightblue" points="217.14,-249.86 207.31,-245.91 212.53,-255.13 217.14,-249.86"/>
</g>
<!-- Node53&#45;&gt;Node51 -->
<g id="edge48" class="edge">
<title>Node53&#45;&gt;Node51</title>
<path fill="none" stroke="midnightblue" d="M326.01,-225.17C321.9,-217.98 315.99,-207.64 310.86,-198.65"/>
<polygon fill="midnightblue" stroke="midnightblue" points="313.9,-196.93 305.9,-189.98 307.82,-200.4 313.9,-196.93"/>
</g>
<!-- Node55&#45;&gt;Node6 -->
<g id="edge51" class="edge">
<title>Node55&#45;&gt;Node6</title>
<path fill="none" stroke="midnightblue" d="M187.75,-225.29C174.77,-211.93 148.64,-186.29 123.12,-168.75 105.31,-156.51 83.74,-145.4 66.41,-137.26"/>
<polygon fill="midnightblue" stroke="midnightblue" points="68.17,-134.22 57.62,-133.23 65.25,-140.58 68.17,-134.22"/>
</g>
<!-- Node55&#45;&gt;Node13 -->
<g id="edge52" class="edge">
<title>Node55&#45;&gt;Node13</title>
<path fill="none" stroke="midnightblue" d="M196.12,-225.17C196.12,-218.37 196.12,-208.76 196.12,-200.15"/>
<polygon fill="midnightblue" stroke="midnightblue" points="199.63,-200.18 196.13,-190.18 192.63,-200.18 199.63,-200.18"/>
</g>
<!-- Node69&#45;&gt;Node28 -->
<g id="edge59" class="edge">
<title>Node69&#45;&gt;Node28</title>
<path fill="none" stroke="midnightblue" d="M1501.7,-337.79C1498.39,-328.81 1493.52,-314.4 1491.12,-301.5 1484.59,-266.23 1483.2,-224.33 1483.01,-200.06"/>
<polygon fill="midnightblue" stroke="midnightblue" points="1486.51,-200.33 1483,-190.33 1479.51,-200.33 1486.51,-200.33"/>
</g>
<!-- Node69&#45;&gt;Node41 -->
<g id="edge56" class="edge">
<title>Node69&#45;&gt;Node41</title>
<path fill="none" stroke="midnightblue" d="M1507.03,-337.61C1513.96,-304.69 1538.03,-190.48 1547.88,-143.77"/>
<polygon fill="midnightblue" stroke="midnightblue" points="1551.3,-144.5 1549.94,-133.99 1544.45,-143.06 1551.3,-144.5"/>
</g>
<!-- Node69&#45;&gt;Node62 -->
<g id="edge55" class="edge">
<title>Node69&#45;&gt;Node62</title>
<path fill="none" stroke="midnightblue" d="M1542.81,-337.52C1575.29,-328.9 1618.7,-315.26 1630.12,-301.5 1640.11,-289.48 1652.17,-187.87 1656.99,-143.84"/>
<polygon fill="midnightblue" stroke="midnightblue" points="1660.47,-144.22 1658.06,-133.91 1653.51,-143.48 1660.47,-144.22"/>
</g>
<!-- Node70 -->
<g id="node46" class="node">
<title>Node70</title>
<g id="a_node46"><a xlink:href="_queue_class_8hpp.html" target="_top" xlink:title=" ">
<polygon fill="white" stroke="black" points="1532.75,-281.75 1532.75,-301 1621.5,-301 1621.5,-281.75 1532.75,-281.75"/>
<text text-anchor="middle" x="1577.12" y="-287.5" font-family="Helvetica,sans-Serif" font-size="10.00">QueueClass.hpp</text>
</a>
</g>
</g>
<!-- Node69&#45;&gt;Node70 -->
<g id="edge57" class="edge">
<title>Node69&#45;&gt;Node70</title>
<path fill="none" stroke="midnightblue" d="M1517.01,-337.67C1527.71,-329.61 1543.66,-317.59 1556.44,-307.96"/>
<polygon fill="midnightblue" stroke="midnightblue" points="1558.37,-310.89 1564.25,-302.08 1554.16,-305.3 1558.37,-310.89"/>
</g>
<!-- Node71 -->
<g id="node47" class="node">
<title>Node71</title>
<g id="a_node47"><a xlink:href="_token_8hpp.html" target="_top" xlink:title=" ">
<polygon fill="white" stroke="black" points="1658.62,-225.5 1658.62,-244.75 1719.62,-244.75 1719.62,-225.5 1658.62,-225.5"/>
<text text-anchor="middle" x="1689.12" y="-231.25" font-family="Helvetica,sans-Serif" font-size="10.00">Token.hpp</text>
</a>
</g>
</g>
<!-- Node69&#45;&gt;Node71 -->
<g id="edge60" class="edge">
<title>Node69&#45;&gt;Node71</title>
<path fill="none" stroke="midnightblue" d="M1546.24,-344.73C1581.29,-341.04 1630.96,-330.59 1663.12,-301.5 1676.02,-289.84 1682.61,-270.94 1685.92,-256.45"/>
<polygon fill="midnightblue" stroke="midnightblue" points="1689.36,-257.12 1687.79,-246.64 1682.48,-255.81 1689.36,-257.12"/>
</g>
<!-- Node72 -->
<g id="node48" class="node">
<title>Node72</title>
<g id="a_node48"><a xlink:href="_clause_8hpp.html" target="_top" xlink:title=" ">
<polygon fill="white" stroke="black" points="1715.38,-281.75 1715.38,-301 1780.88,-301 1780.88,-281.75 1715.38,-281.75"/>
<text text-anchor="middle" x="1748.12" y="-287.5" font-family="Helvetica,sans-Serif" font-size="10.00">Clause.hpp</text>
</a>
</g>
</g>
<!-- Node69&#45;&gt;Node72 -->
<g id="edge62" class="edge">
<title>Node69&#45;&gt;Node72</title>
<path fill="none" stroke="midnightblue" d="M1545.8,-337.54C1589.55,-327.78 1658.89,-312.3 1703.95,-302.24"/>
<polygon fill="midnightblue" stroke="midnightblue" points="1704.66,-305.67 1713.65,-300.07 1703.13,-298.83 1704.66,-305.67"/>
</g>
<!-- Node73 -->
<g id="node49" class="node">
<title>Node73</title>
<g id="a_node49"><a xlink:href="_security_manager_8hpp.html" target="_top" xlink:title=" ">
<polygon fill="white" stroke="red" points="950.38,-281.75 950.38,-301 1057.88,-301 1057.88,-281.75 950.38,-281.75"/>
<text text-anchor="middle" x="1004.12" y="-287.5" font-family="Helvetica,sans-Serif" font-size="10.00">SecurityManager.hpp</text>
</a>
</g>
</g>
<!-- Node69&#45;&gt;Node73 -->
<g id="edge66" class="edge">
<title>Node69&#45;&gt;Node73</title>
<path fill="none" stroke="midnightblue" d="M1464.13,-342.19C1377.29,-332.78 1174.22,-310.79 1069.36,-299.44"/>
<polygon fill="midnightblue" stroke="midnightblue" points="1069.82,-295.97 1059.5,-298.37 1069.06,-302.93 1069.82,-295.97"/>
</g>
<!-- Node75 -->
<g id="node50" class="node">
<title>Node75</title>
<g id="a_node50"><a xlink:href="_method_class_8hpp.html" target="_top" xlink:title=" ">
<polygon fill="white" stroke="black" points="1256.88,-281.75 1256.88,-301 1349.38,-301 1349.38,-281.75 1256.88,-281.75"/>
<text text-anchor="middle" x="1303.12" y="-287.5" font-family="Helvetica,sans-Serif" font-size="10.00">MethodClass.hpp</text>
</a>
</g>
</g>
<!-- Node69&#45;&gt;Node75 -->
<g id="edge68" class="edge">
<title>Node69&#45;&gt;Node75</title>
<path fill="none" stroke="midnightblue" d="M1471.31,-337.54C1437.52,-328.47 1385.37,-314.46 1348.1,-304.45"/>
<polygon fill="midnightblue" stroke="midnightblue" points="1349.07,-301.09 1338.51,-301.88 1347.26,-307.85 1349.07,-301.09"/>
</g>
<!-- Node70&#45;&gt;Node41 -->
<g id="edge58" class="edge">
<title>Node70&#45;&gt;Node41</title>
<path fill="none" stroke="midnightblue" d="M1577.27,-281.41C1577.43,-261.11 1576.84,-210.19 1568.12,-168.75 1566.31,-160.11 1563.24,-150.87 1560.28,-143.01"/>
<polygon fill="midnightblue" stroke="midnightblue" points="1563.56,-141.8 1556.6,-133.82 1557.07,-144.4 1563.56,-141.8"/>
</g>
<!-- Node71&#45;&gt;Node62 -->
<g id="edge61" class="edge">
<title>Node71&#45;&gt;Node62</title>
<path fill="none" stroke="midnightblue" d="M1686.67,-225.08C1681.86,-207.35 1671.07,-167.64 1664.52,-143.49"/>
<polygon fill="midnightblue" stroke="midnightblue" points="1667.92,-142.68 1661.93,-133.94 1661.17,-144.51 1667.92,-142.68"/>
</g>
<!-- Node72&#45;&gt;Node62 -->
<g id="edge63" class="edge">
<title>Node72&#45;&gt;Node62</title>
<path fill="none" stroke="midnightblue" d="M1746.51,-281.59C1743.94,-268.73 1738.26,-244.22 1729.12,-225 1714.12,-193.42 1689.73,-160.82 1674.06,-141.4"/>
<polygon fill="midnightblue" stroke="midnightblue" points="1676.77,-139.18 1667.72,-133.68 1671.36,-143.63 1676.77,-139.18"/>
</g>
<!-- Node72&#45;&gt;Node46 -->
<g id="edge64" class="edge">
<title>Node72&#45;&gt;Node46</title>
<path fill="none" stroke="midnightblue" d="M1759.68,-281.42C1770.08,-273.36 1785.59,-261.34 1798.01,-251.71"/>
<polygon fill="midnightblue" stroke="midnightblue" points="1799.82,-254.74 1805.58,-245.84 1795.54,-249.2 1799.82,-254.74"/>
</g>
<!-- Node72&#45;&gt;Node71 -->
<g id="edge65" class="edge">
<title>Node72&#45;&gt;Node71</title>
<path fill="none" stroke="midnightblue" d="M1738.38,-281.42C1729.88,-273.6 1717.32,-262.05 1707.01,-252.57"/>
<polygon fill="midnightblue" stroke="midnightblue" points="1709.53,-250.13 1699.8,-245.94 1704.79,-255.29 1709.53,-250.13"/>
</g>
<!-- Node73&#45;&gt;Node4 -->
<g id="edge67" class="edge">
<title>Node73&#45;&gt;Node4</title>
<path fill="none" stroke="midnightblue" d="M983.04,-281.29C963.05,-272.69 932.76,-259.65 909.86,-249.79"/>
<polygon fill="midnightblue" stroke="midnightblue" points="911.24,-246.57 900.67,-245.83 908.47,-253 911.24,-246.57"/>
</g>
<!-- Node75&#45;&gt;Node4 -->
<g id="edge69" class="edge">
<title>Node75&#45;&gt;Node4</title>
<path fill="none" stroke="midnightblue" d="M1256.43,-284.41C1174.42,-273.95 1005.53,-252.39 924.06,-241.99"/>
<polygon fill="midnightblue" stroke="midnightblue" points="924.56,-238.52 914.2,-240.73 923.68,-245.47 924.56,-238.52"/>
</g>
</g>
</svg>
