<?xml version="1.0" encoding="UTF-8" standalone="no"?>
<!DOCTYPE svg PUBLIC "-//W3C//DTD SVG 1.1//EN"
 "http://www.w3.org/Graphics/SVG/1.1/DTD/svg11.dtd">
<!-- Generated by graphviz version 12.1.0 (20240811.2233)
 -->
<!-- Title: SecurityManager.cpp Pages: 1 -->
<!--zoomable 422 -->
<svg id="main" version="1.1" xmlns="http://www.w3.org/2000/svg" xmlns:xlink="http://www.w3.org/1999/xlink" xml:space="preserve" onload="init(evt)">
<style type="text/css"><![CDATA[
.edge:hover path { stroke: red; }
.edge:hover polygon { stroke: red; fill: red; }
]]></style>
<script type="text/javascript"><![CDATA[
var edges = document.getElementsByTagName('g');
if (edges && edges.length) {
  for (var i=0;i<edges.length;i++) {
    if (edges[i].id.substr(0,4)=='edge') {
      edges[i].setAttribute('class','edge');
    }
  }
}
]]></script>
        <defs>
                <circle id="rim" cx="0" cy="0" r="7"/>
                <circle id="rim2" cx="0" cy="0" r="3.5"/>
                <g id="zoomPlus">
                        <use xlink:href="#rim" fill="#404040">
                                <set attributeName="fill" to="#808080" begin="zoomplus.mouseover" end="zoomplus.mouseout"/>
                        </use>
                        <path d="M-4,0h8M0,-4v8" fill="none" stroke="white" stroke-width="1.5" pointer-events="none"/>
                </g>
                <g id="zoomMin">
                        <use xlink:href="#rim" fill="#404040">
                                <set attributeName="fill" to="#808080" begin="zoomminus.mouseover" end="zoomminus.mouseout"/>
                        </use>
                        <path d="M-4,0h8" fill="none" stroke="white" stroke-width="1.5" pointer-events="none"/>
                </g>
                <g id="dirArrow">
                        <path fill="none" stroke="white" stroke-width="1.5" d="M0,-3.0v7 M-2.5,-0.5L0,-3.0L2.5,-0.5"/>
                </g>
               <g id="resetDef">
                       <use xlink:href="#rim2" fill="#404040">
                               <set attributeName="fill" to="#808080" begin="reset.mouseover" end="reset.mouseout"/>
                       </use>
               </g>
        </defs>

<script type="text/javascript">
var viewWidth = 2994;
var viewHeight = 422;
var sectionId = 'dynsection-0';
</script>
<script xlink:href="svgpan.js"/>
<svg id="graph" class="graph">
<g id="viewport">
<title>SecurityManager.cpp</title>
<polygon fill="white" stroke="none" points="-4,4 -4,-418 2989.62,-418 2989.62,4 -4,4"/>
<!-- Node1 -->
<g id="node1" class="node">
<title>Node1</title>
<g id="a_node1"><a xlink:title=" ">
<polygon fill="#bfbfbf" stroke="black" points="2014.88,-394.25 2014.88,-413.5 2122.38,-413.5 2122.38,-394.25 2014.88,-394.25"/>
<text text-anchor="middle" x="2068.62" y="-400" font-family="Helvetica,sans-Serif" font-size="10.00">SecurityManager.cpp</text>
</a>
</g>
</g>
<!-- Node2 -->
<g id="node2" class="node">
<title>Node2</title>
<g id="a_node2"><a xlink:href="_rexx_core_8h.html" target="_top" xlink:title=" ">
<polygon fill="white" stroke="black" points="1534.38,-281.75 1534.38,-301 1602.88,-301 1602.88,-281.75 1534.38,-281.75"/>
<text text-anchor="middle" x="1568.62" y="-287.5" font-family="Helvetica,sans-Serif" font-size="10.00">RexxCore.h</text>
</a>
</g>
</g>
<!-- Node1&#45;&gt;Node2 -->
<g id="edge1" class="edge">
<title>Node1&#45;&gt;Node2</title>
<path fill="none" stroke="midnightblue" d="M2027.71,-393.83C1935.37,-373.43 1711.34,-323.91 1614.49,-302.51"/>
<polygon fill="midnightblue" stroke="midnightblue" points="1615.32,-299.11 1604.8,-300.37 1613.81,-305.95 1615.32,-299.11"/>
</g>
<!-- Node69 -->
<g id="node48" class="node">
<title>Node69</title>
<g id="a_node48"><a xlink:href="_security_manager_8hpp.html" target="_top" xlink:title=" ">
<polygon fill="white" stroke="black" points="2014.88,-338 2014.88,-357.25 2122.38,-357.25 2122.38,-338 2014.88,-338"/>
<text text-anchor="middle" x="2068.62" y="-343.75" font-family="Helvetica,sans-Serif" font-size="10.00">SecurityManager.hpp</text>
</a>
</g>
</g>
<!-- Node1&#45;&gt;Node69 -->
<g id="edge53" class="edge">
<title>Node1&#45;&gt;Node69</title>
<path fill="none" stroke="midnightblue" d="M2068.62,-393.92C2068.62,-387.12 2068.62,-377.51 2068.62,-368.9"/>
<polygon fill="midnightblue" stroke="midnightblue" points="2072.13,-368.93 2068.63,-358.93 2065.13,-368.93 2072.13,-368.93"/>
</g>
<!-- Node71 -->
<g id="node50" class="node">
<title>Node71</title>
<g id="a_node50"><a xlink:href="_directory_class_8hpp.html" target="_top" xlink:title=" ">
<polygon fill="white" stroke="black" points="2538.62,-338 2538.62,-357.25 2638.62,-357.25 2638.62,-338 2538.62,-338"/>
<text text-anchor="middle" x="2588.62" y="-343.75" font-family="Helvetica,sans-Serif" font-size="10.00">DirectoryClass.hpp</text>
</a>
</g>
</g>
<!-- Node1&#45;&gt;Node71 -->
<g id="edge58" class="edge">
<title>Node1&#45;&gt;Node71</title>
<path fill="none" stroke="midnightblue" d="M2122.8,-397.22C2220.24,-387.06 2424.42,-365.76 2527.01,-355.05"/>
<polygon fill="midnightblue" stroke="midnightblue" points="2527.32,-358.54 2536.9,-354.02 2526.6,-351.58 2527.32,-358.54"/>
</g>
<!-- Node3 -->
<g id="node3" class="node">
<title>Node3</title>
<g id="a_node3"><a xlink:href="oorexxapi_8h.html" target="_top" xlink:title=" ">
<polygon fill="white" stroke="black" points="565.5,-225.5 565.5,-244.75 631.75,-244.75 631.75,-225.5 565.5,-225.5"/>
<text text-anchor="middle" x="598.62" y="-231.25" font-family="Helvetica,sans-Serif" font-size="10.00">oorexxapi.h</text>
</a>
</g>
</g>
<!-- Node2&#45;&gt;Node3 -->
<g id="edge2" class="edge">
<title>Node2&#45;&gt;Node3</title>
<path fill="none" stroke="midnightblue" d="M1533.94,-290.69C1412.67,-291.35 996.44,-290.11 643.09,-245.18"/>
<polygon fill="midnightblue" stroke="midnightblue" points="643.74,-241.73 633.37,-243.92 642.84,-248.67 643.74,-241.73"/>
</g>
<!-- Node10 -->
<g id="node6" class="node">
<title>Node10</title>
<g id="a_node6"><a xlink:title=" ">
<polygon fill="white" stroke="#bfbfbf" points="1440,-225.5 1440,-244.75 1485.25,-244.75 1485.25,-225.5 1440,-225.5"/>
<text text-anchor="middle" x="1462.62" y="-231.25" font-family="Helvetica,sans-Serif" font-size="10.00">stdio.h</text>
</a>
</g>
</g>
<!-- Node2&#45;&gt;Node10 -->
<g id="edge5" class="edge">
<title>Node2&#45;&gt;Node10</title>
<path fill="none" stroke="midnightblue" d="M1551.12,-281.42C1534.55,-272.94 1509.41,-260.07 1490.15,-250.21"/>
<polygon fill="midnightblue" stroke="midnightblue" points="1492,-247.23 1481.5,-245.79 1488.81,-253.46 1492,-247.23"/>
</g>
<!-- Node11 -->
<g id="node7" class="node">
<title>Node11</title>
<g id="a_node7"><a xlink:title=" ">
<polygon fill="white" stroke="#bfbfbf" points="1652,-225.5 1652,-244.75 1703.25,-244.75 1703.25,-225.5 1652,-225.5"/>
<text text-anchor="middle" x="1677.62" y="-231.25" font-family="Helvetica,sans-Serif" font-size="10.00">stdarg.h</text>
</a>
</g>
</g>
<!-- Node2&#45;&gt;Node11 -->
<g id="edge6" class="edge">
<title>Node2&#45;&gt;Node11</title>
<path fill="none" stroke="midnightblue" d="M1586.62,-281.42C1603.66,-272.94 1629.52,-260.07 1649.32,-250.21"/>
<polygon fill="midnightblue" stroke="midnightblue" points="1650.85,-253.36 1658.24,-245.77 1647.73,-247.09 1650.85,-253.36"/>
</g>
<!-- Node12 -->
<g id="node8" class="node">
<title>Node12</title>
<g id="a_node8"><a xlink:title=" ">
<polygon fill="white" stroke="#bfbfbf" points="1721.5,-225.5 1721.5,-244.75 1769.75,-244.75 1769.75,-225.5 1721.5,-225.5"/>
<text text-anchor="middle" x="1745.62" y="-231.25" font-family="Helvetica,sans-Serif" font-size="10.00">string.h</text>
</a>
</g>
</g>
<!-- Node2&#45;&gt;Node12 -->
<g id="edge7" class="edge">
<title>Node2&#45;&gt;Node12</title>
<path fill="none" stroke="midnightblue" d="M1598.25,-281.29C1629.06,-271.85 1677.3,-257.07 1710.13,-247"/>
<polygon fill="midnightblue" stroke="midnightblue" points="1711.06,-250.38 1719.6,-244.1 1709.01,-243.69 1711.06,-250.38"/>
</g>
<!-- Node13 -->
<g id="node9" class="node">
<title>Node13</title>
<g id="a_node9"><a xlink:title=" ">
<polygon fill="white" stroke="#bfbfbf" points="1787.5,-225.5 1787.5,-244.75 1835.75,-244.75 1835.75,-225.5 1787.5,-225.5"/>
<text text-anchor="middle" x="1811.62" y="-231.25" font-family="Helvetica,sans-Serif" font-size="10.00">ctype.h</text>
</a>
</g>
</g>
<!-- Node2&#45;&gt;Node13 -->
<g id="edge8" class="edge">
<title>Node2&#45;&gt;Node13</title>
<path fill="none" stroke="midnightblue" d="M1603.32,-283.56C1642.88,-275.66 1709.71,-261.87 1776.08,-245.77"/>
<polygon fill="midnightblue" stroke="midnightblue" points="1776.81,-249.2 1785.69,-243.42 1775.14,-242.4 1776.81,-249.2"/>
</g>
<!-- Node14 -->
<g id="node10" class="node">
<title>Node14</title>
<g id="a_node10"><a xlink:title=" ">
<polygon fill="white" stroke="#bfbfbf" points="1853.88,-225.5 1853.88,-244.75 1901.38,-244.75 1901.38,-225.5 1853.88,-225.5"/>
<text text-anchor="middle" x="1877.62" y="-231.25" font-family="Helvetica,sans-Serif" font-size="10.00">limits.h</text>
</a>
</g>
</g>
<!-- Node2&#45;&gt;Node14 -->
<g id="edge9" class="edge">
<title>Node2&#45;&gt;Node14</title>
<path fill="none" stroke="midnightblue" d="M1603.27,-285.93C1653.74,-279.2 1750.6,-265.27 1842.38,-245.54"/>
<polygon fill="midnightblue" stroke="midnightblue" points="1843.05,-248.98 1852.07,-243.43 1841.55,-242.14 1843.05,-248.98"/>
</g>
<!-- Node15 -->
<g id="node11" class="node">
<title>Node15</title>
<g id="a_node11"><a xlink:title=" ">
<polygon fill="white" stroke="#bfbfbf" points="1957.25,-225.5 1957.25,-244.75 2016,-244.75 2016,-225.5 1957.25,-225.5"/>
<text text-anchor="middle" x="1986.62" y="-231.25" font-family="Helvetica,sans-Serif" font-size="10.00">stdexcept</text>
</a>
</g>
</g>
<!-- Node2&#45;&gt;Node15 -->
<g id="edge10" class="edge">
<title>Node2&#45;&gt;Node15</title>
<path fill="none" stroke="midnightblue" d="M1603.15,-287.26C1669.42,-281.06 1818.94,-265.94 1943.62,-245.25 1944.44,-245.11 1945.27,-244.97 1946.1,-244.83"/>
<polygon fill="midnightblue" stroke="midnightblue" points="1946.42,-248.33 1955.6,-243.04 1945.12,-241.45 1946.42,-248.33"/>
</g>
<!-- Node16 -->
<g id="node12" class="node">
<title>Node16</title>
<g id="a_node12"><a xlink:href="_rexx_platform_definitions_8h.html" target="_top" xlink:title=" ">
<polygon fill="white" stroke="black" points="1503.25,-225.5 1503.25,-244.75 1634,-244.75 1634,-225.5 1503.25,-225.5"/>
<text text-anchor="middle" x="1568.62" y="-231.25" font-family="Helvetica,sans-Serif" font-size="10.00">RexxPlatformDefinitions.h</text>
</a>
</g>
</g>
<!-- Node2&#45;&gt;Node16 -->
<g id="edge11" class="edge">
<title>Node2&#45;&gt;Node16</title>
<path fill="none" stroke="midnightblue" d="M1568.62,-281.42C1568.62,-274.62 1568.62,-265.01 1568.62,-256.4"/>
<polygon fill="midnightblue" stroke="midnightblue" points="1572.13,-256.43 1568.63,-246.43 1565.13,-256.43 1572.13,-256.43"/>
</g>
<!-- Node19 -->
<g id="node15" class="node">
<title>Node19</title>
<g id="a_node15"><a xlink:href="_rexx_constants_8hpp.html" target="_top" xlink:title=" ">
<polygon fill="white" stroke="black" points="2034.12,-225.5 2034.12,-244.75 2137.12,-244.75 2137.12,-225.5 2034.12,-225.5"/>
<text text-anchor="middle" x="2085.62" y="-231.25" font-family="Helvetica,sans-Serif" font-size="10.00">RexxConstants.hpp</text>
</a>
</g>
</g>
<!-- Node2&#45;&gt;Node19 -->
<g id="edge14" class="edge">
<title>Node2&#45;&gt;Node19</title>
<path fill="none" stroke="midnightblue" d="M1603.3,-287.54C1677.88,-281.31 1859.32,-265.47 2022.52,-245.45"/>
<polygon fill="midnightblue" stroke="midnightblue" points="2022.74,-248.95 2032.23,-244.25 2021.88,-242.01 2022.74,-248.95"/>
</g>
<!-- Node20 -->
<g id="node16" class="node">
<title>Node20</title>
<g id="a_node16"><a xlink:href="_class_type_codes_8h.html" target="_top" xlink:title=" ">
<polygon fill="white" stroke="black" points="0,-113 0,-132.25 99.25,-132.25 99.25,-113 0,-113"/>
<text text-anchor="middle" x="49.62" y="-118.75" font-family="Helvetica,sans-Serif" font-size="10.00">ClassTypeCodes.h</text>
</a>
</g>
</g>
<!-- Node2&#45;&gt;Node20 -->
<g id="edge15" class="edge">
<title>Node2&#45;&gt;Node20</title>
<path fill="none" stroke="midnightblue" d="M1534,-290.03C1355.08,-288.11 534.01,-277.67 281.62,-245.25 168.23,-230.68 102.08,-278.24 30.62,-189 19.81,-175.49 27.58,-156.04 36.22,-141.87"/>
<polygon fill="midnightblue" stroke="midnightblue" points="38.9,-144.16 41.57,-133.9 33.09,-140.26 38.9,-144.16"/>
</g>
<!-- Node21 -->
<g id="node17" class="node">
<title>Node21</title>
<g id="a_node17"><a xlink:href="_global_names_8h.html" target="_top" xlink:title=" ">
<polygon fill="white" stroke="black" points="895.88,-225.5 895.88,-244.75 979.38,-244.75 979.38,-225.5 895.88,-225.5"/>
<text text-anchor="middle" x="937.62" y="-231.25" font-family="Helvetica,sans-Serif" font-size="10.00">GlobalNames.h</text>
</a>
</g>
</g>
<!-- Node2&#45;&gt;Node21 -->
<g id="edge16" class="edge">
<title>Node2&#45;&gt;Node21</title>
<path fill="none" stroke="midnightblue" d="M1534.18,-288.89C1445.78,-284.83 1203.47,-272.1 990.98,-245.42"/>
<polygon fill="midnightblue" stroke="midnightblue" points="991.46,-241.96 981.1,-244.17 990.58,-248.9 991.46,-241.96"/>
</g>
<!-- Node22 -->
<g id="node18" class="node">
<title>Node22</title>
<g id="a_node18"><a xlink:href="_object_class_8hpp.html" target="_top" xlink:title=" ">
<polygon fill="white" stroke="black" points="650.25,-225.5 650.25,-244.75 739,-244.75 739,-225.5 650.25,-225.5"/>
<text text-anchor="middle" x="694.62" y="-231.25" font-family="Helvetica,sans-Serif" font-size="10.00">ObjectClass.hpp</text>
</a>
</g>
</g>
<!-- Node2&#45;&gt;Node22 -->
<g id="edge17" class="edge">
<title>Node2&#45;&gt;Node22</title>
<path fill="none" stroke="midnightblue" d="M1534.14,-289.86C1422.46,-287.91 1060.47,-279.31 750.37,-245.3"/>
<polygon fill="midnightblue" stroke="midnightblue" points="751.19,-241.87 740.86,-244.25 750.42,-248.83 751.19,-241.87"/>
</g>
<!-- Node25 -->
<g id="node21" class="node">
<title>Node25</title>
<g id="a_node21"><a xlink:href="_table_class_8hpp.html" target="_top" xlink:title=" ">
<polygon fill="white" stroke="black" points="373.88,-113 373.88,-132.25 457.38,-132.25 457.38,-113 373.88,-113"/>
<text text-anchor="middle" x="415.62" y="-118.75" font-family="Helvetica,sans-Serif" font-size="10.00">TableClass.hpp</text>
</a>
</g>
</g>
<!-- Node2&#45;&gt;Node25 -->
<g id="edge20" class="edge">
<title>Node2&#45;&gt;Node25</title>
<path fill="none" stroke="midnightblue" d="M1534.11,-290.62C1379.29,-291.42 748.03,-291.74 556.62,-245.25 498.6,-231.16 473.58,-234.25 434.62,-189 423.76,-176.38 419.1,-157.85 417.11,-143.74"/>
<polygon fill="midnightblue" stroke="midnightblue" points="420.59,-143.41 416.08,-133.82 413.63,-144.13 420.59,-143.41"/>
</g>
<!-- Node28 -->
<g id="node24" class="node">
<title>Node28</title>
<g id="a_node24"><a xlink:href="_stack_class_8hpp.html" target="_top" xlink:title=" ">
<polygon fill="white" stroke="black" points="997.75,-225.5 997.75,-244.75 1083.5,-244.75 1083.5,-225.5 997.75,-225.5"/>
<text text-anchor="middle" x="1040.62" y="-231.25" font-family="Helvetica,sans-Serif" font-size="10.00">StackClass.hpp</text>
</a>
</g>
</g>
<!-- Node2&#45;&gt;Node28 -->
<g id="edge23" class="edge">
<title>Node2&#45;&gt;Node28</title>
<path fill="none" stroke="midnightblue" d="M1533.88,-288.03C1456.83,-282.62 1265.6,-268.09 1095.19,-245.5"/>
<polygon fill="midnightblue" stroke="midnightblue" points="1095.87,-242.06 1085.5,-244.2 1094.94,-249 1095.87,-242.06"/>
</g>
<!-- Node29 -->
<g id="node25" class="node">
<title>Node29</title>
<g id="a_node25"><a xlink:href="_rexx_memory_8hpp.html" target="_top" xlink:title=" ">
<polygon fill="white" stroke="black" points="290.75,-225.5 290.75,-244.75 382.5,-244.75 382.5,-225.5 290.75,-225.5"/>
<text text-anchor="middle" x="336.62" y="-231.25" font-family="Helvetica,sans-Serif" font-size="10.00">RexxMemory.hpp</text>
</a>
</g>
</g>
<!-- Node2&#45;&gt;Node29 -->
<g id="edge24" class="edge">
<title>Node2&#45;&gt;Node29</title>
<path fill="none" stroke="midnightblue" d="M1534.18,-290.31C1393.38,-289.78 847.94,-285.1 401.62,-245.25 399.14,-245.03 396.59,-244.78 394.03,-244.5"/>
<polygon fill="midnightblue" stroke="midnightblue" points="394.56,-241.04 384.22,-243.36 393.75,-247.99 394.56,-241.04"/>
</g>
<!-- Node36 -->
<g id="node30" class="node">
<title>Node36</title>
<g id="a_node30"><a xlink:href="_rexx_behaviour_8hpp.html" target="_top" xlink:title=" ">
<polygon fill="white" stroke="black" points="1101.25,-225.5 1101.25,-244.75 1202,-244.75 1202,-225.5 1101.25,-225.5"/>
<text text-anchor="middle" x="1151.62" y="-231.25" font-family="Helvetica,sans-Serif" font-size="10.00">RexxBehaviour.hpp</text>
</a>
</g>
</g>
<!-- Node2&#45;&gt;Node36 -->
<g id="edge32" class="edge">
<title>Node2&#45;&gt;Node36</title>
<path fill="none" stroke="midnightblue" d="M1534.02,-286.34C1471.95,-279.03 1337.31,-262.86 1213.63,-245.64"/>
<polygon fill="midnightblue" stroke="midnightblue" points="1214.35,-242.21 1203.96,-244.29 1213.38,-249.14 1214.35,-242.21"/>
</g>
<!-- Node38 -->
<g id="node32" class="node">
<title>Node38</title>
<g id="a_node32"><a xlink:href="_class_class_8hpp.html" target="_top" xlink:title=" ">
<polygon fill="white" stroke="black" points="1219.75,-225.5 1219.75,-244.75 1305.5,-244.75 1305.5,-225.5 1219.75,-225.5"/>
<text text-anchor="middle" x="1262.62" y="-231.25" font-family="Helvetica,sans-Serif" font-size="10.00">ClassClass.hpp</text>
</a>
</g>
</g>
<!-- Node2&#45;&gt;Node38 -->
<g id="edge34" class="edge">
<title>Node2&#45;&gt;Node38</title>
<path fill="none" stroke="midnightblue" d="M1534.12,-284.26C1481.29,-274.89 1379.91,-256.92 1317.1,-245.78"/>
<polygon fill="midnightblue" stroke="midnightblue" points="1317.78,-242.35 1307.33,-244.05 1316.56,-249.24 1317.78,-242.35"/>
</g>
<!-- Node39 -->
<g id="node33" class="node">
<title>Node39</title>
<g id="a_node33"><a xlink:href="_rexx_envelope_8hpp.html" target="_top" xlink:title=" ">
<polygon fill="white" stroke="black" points="1323.38,-225.5 1323.38,-244.75 1421.88,-244.75 1421.88,-225.5 1323.38,-225.5"/>
<text text-anchor="middle" x="1372.62" y="-231.25" font-family="Helvetica,sans-Serif" font-size="10.00">RexxEnvelope.hpp</text>
</a>
</g>
</g>
<!-- Node2&#45;&gt;Node39 -->
<g id="edge35" class="edge">
<title>Node2&#45;&gt;Node39</title>
<path fill="none" stroke="midnightblue" d="M1535.82,-281.29C1503.03,-272.22 1452.42,-258.21 1416.26,-248.2"/>
<polygon fill="midnightblue" stroke="midnightblue" points="1417.57,-244.93 1407,-245.64 1415.7,-251.68 1417.57,-244.93"/>
</g>
<!-- Node40 -->
<g id="node34" class="node">
<title>Node40</title>
<g id="a_node34"><a xlink:href="_rexx_activity_8hpp.html" target="_top" xlink:title=" ">
<polygon fill="white" stroke="black" points="2315.88,-225.5 2315.88,-244.75 2405.38,-244.75 2405.38,-225.5 2315.88,-225.5"/>
<text text-anchor="middle" x="2360.62" y="-231.25" font-family="Helvetica,sans-Serif" font-size="10.00">RexxActivity.hpp</text>
</a>
</g>
</g>
<!-- Node2&#45;&gt;Node40 -->
<g id="edge36" class="edge">
<title>Node2&#45;&gt;Node40</title>
<path fill="none" stroke="midnightblue" d="M1603.07,-289.38C1708.1,-286.11 2033.52,-274.17 2301.62,-245.25 2302.48,-245.16 2303.33,-245.06 2304.19,-244.96"/>
<polygon fill="midnightblue" stroke="midnightblue" points="2304.6,-248.44 2314.08,-243.72 2303.72,-241.5 2304.6,-248.44"/>
</g>
<!-- Node51 -->
<g id="node44" class="node">
<title>Node51</title>
<g id="a_node44"><a xlink:href="_number_string_class_8hpp.html" target="_top" xlink:title=" ">
<polygon fill="white" stroke="black" points="757.5,-225.5 757.5,-244.75 877.75,-244.75 877.75,-225.5 757.5,-225.5"/>
<text text-anchor="middle" x="817.62" y="-231.25" font-family="Helvetica,sans-Serif" font-size="10.00">NumberStringClass.hpp</text>
</a>
</g>
</g>
<!-- Node2&#45;&gt;Node51 -->
<g id="edge48" class="edge">
<title>Node2&#45;&gt;Node51</title>
<path fill="none" stroke="midnightblue" d="M1534.14,-288.89C1435.42,-284.48 1143.04,-270.22 889.46,-245.47"/>
<polygon fill="midnightblue" stroke="midnightblue" points="889.98,-242.01 879.69,-244.51 889.3,-248.97 889.98,-242.01"/>
</g>
<!-- Node67 -->
<g id="node46" class="node">
<title>Node67</title>
<g id="a_node46"><a xlink:href="_activity_manager_8hpp.html" target="_top" xlink:title=" ">
<polygon fill="white" stroke="black" points="2155.38,-225.5 2155.38,-244.75 2259.88,-244.75 2259.88,-225.5 2155.38,-225.5"/>
<text text-anchor="middle" x="2207.62" y="-231.25" font-family="Helvetica,sans-Serif" font-size="10.00">ActivityManager.hpp</text>
</a>
</g>
</g>
<!-- Node2&#45;&gt;Node67 -->
<g id="edge51" class="edge">
<title>Node2&#45;&gt;Node67</title>
<path fill="none" stroke="midnightblue" d="M1603.24,-288.53C1691.51,-283.63 1932.44,-269.14 2143.77,-245.5"/>
<polygon fill="midnightblue" stroke="midnightblue" points="2144.04,-248.99 2153.58,-244.39 2143.25,-242.04 2144.04,-248.99"/>
</g>
<!-- Node4 -->
<g id="node4" class="node">
<title>Node4</title>
<g id="a_node4"><a xlink:href="rexx_8h.html" target="_top" xlink:title=" ">
<polygon fill="white" stroke="red" points="668.12,-169.25 668.12,-188.5 711.12,-188.5 711.12,-169.25 668.12,-169.25"/>
<text text-anchor="middle" x="689.62" y="-175" font-family="Helvetica,sans-Serif" font-size="10.00">rexx.h</text>
</a>
</g>
</g>
<!-- Node3&#45;&gt;Node4 -->
<g id="edge3" class="edge">
<title>Node3&#45;&gt;Node4</title>
<path fill="none" stroke="midnightblue" d="M613.65,-225.17C627.61,-216.84 648.66,-204.29 665.07,-194.52"/>
<polygon fill="midnightblue" stroke="midnightblue" points="666.48,-197.75 673.28,-189.62 662.89,-191.74 666.48,-197.75"/>
</g>
<!-- Node9 -->
<g id="node5" class="node">
<title>Node9</title>
<g id="a_node5"><a xlink:href="oorexxerrors_8h.html" target="_top" xlink:title=" ">
<polygon fill="white" stroke="black" points="571.5,-169.25 571.5,-188.5 649.75,-188.5 649.75,-169.25 571.5,-169.25"/>
<text text-anchor="middle" x="610.62" y="-175" font-family="Helvetica,sans-Serif" font-size="10.00">oorexxerrors.h</text>
</a>
</g>
</g>
<!-- Node3&#45;&gt;Node9 -->
<g id="edge4" class="edge">
<title>Node3&#45;&gt;Node9</title>
<path fill="none" stroke="midnightblue" d="M600.61,-225.17C602.13,-218.29 604.28,-208.54 606.21,-199.85"/>
<polygon fill="midnightblue" stroke="midnightblue" points="609.61,-200.66 608.35,-190.14 602.78,-199.15 609.61,-200.66"/>
</g>
<!-- Node17 -->
<g id="node13" class="node">
<title>Node17</title>
<g id="a_node13"><a xlink:title=" ">
<polygon fill="white" stroke="#bfbfbf" points="1574.88,-169.25 1574.88,-188.5 1682.38,-188.5 1682.38,-169.25 1574.88,-169.25"/>
<text text-anchor="middle" x="1628.62" y="-175" font-family="Helvetica,sans-Serif" font-size="10.00">PlatformDefinitions.h</text>
</a>
</g>
</g>
<!-- Node16&#45;&gt;Node17 -->
<g id="edge12" class="edge">
<title>Node16&#45;&gt;Node17</title>
<path fill="none" stroke="midnightblue" d="M1578.53,-225.17C1587.18,-217.35 1599.96,-205.8 1610.44,-196.32"/>
<polygon fill="midnightblue" stroke="midnightblue" points="1612.71,-198.98 1617.78,-189.68 1608.01,-193.79 1612.71,-198.98"/>
</g>
<!-- Node18 -->
<g id="node14" class="node">
<title>Node18</title>
<g id="a_node14"><a xlink:href="_rexx_error_codes_8h.html" target="_top" xlink:title=" ">
<polygon fill="white" stroke="black" points="1460.12,-169.25 1460.12,-188.5 1557.12,-188.5 1557.12,-169.25 1460.12,-169.25"/>
<text text-anchor="middle" x="1508.62" y="-175" font-family="Helvetica,sans-Serif" font-size="10.00">RexxErrorCodes.h</text>
</a>
</g>
</g>
<!-- Node16&#45;&gt;Node18 -->
<g id="edge13" class="edge">
<title>Node16&#45;&gt;Node18</title>
<path fill="none" stroke="midnightblue" d="M1558.72,-225.17C1550.07,-217.35 1537.29,-205.8 1526.81,-196.32"/>
<polygon fill="midnightblue" stroke="midnightblue" points="1529.24,-193.79 1519.47,-189.68 1524.54,-198.98 1529.24,-193.79"/>
</g>
<!-- Node23 -->
<g id="node19" class="node">
<title>Node23</title>
<g id="a_node19"><a xlink:href="_numerics_8hpp.html" target="_top" xlink:title=" ">
<polygon fill="white" stroke="black" points="767.25,-169.25 767.25,-188.5 844,-188.5 844,-169.25 767.25,-169.25"/>
<text text-anchor="middle" x="805.62" y="-175" font-family="Helvetica,sans-Serif" font-size="10.00">Numerics.hpp</text>
</a>
</g>
</g>
<!-- Node22&#45;&gt;Node23 -->
<g id="edge18" class="edge">
<title>Node22&#45;&gt;Node23</title>
<path fill="none" stroke="midnightblue" d="M713.2,-225.04C730.57,-216.56 756.77,-203.75 776.84,-193.94"/>
<polygon fill="midnightblue" stroke="midnightblue" points="778.18,-197.19 785.63,-189.65 775.1,-190.9 778.18,-197.19"/>
</g>
<!-- Node24 -->
<g id="node20" class="node">
<title>Node24</title>
<g id="a_node20"><a xlink:title=" ">
<polygon fill="white" stroke="#bfbfbf" points="595,-113 595,-132.25 646.25,-132.25 646.25,-113 595,-113"/>
<text text-anchor="middle" x="620.62" y="-118.75" font-family="Helvetica,sans-Serif" font-size="10.00">stddef.h</text>
</a>
</g>
</g>
<!-- Node22&#45;&gt;Node24 -->
<g id="edge19" class="edge">
<title>Node22&#45;&gt;Node24</title>
<path fill="none" stroke="midnightblue" d="M703.06,-225.12C714.29,-211.99 731.46,-187.15 719.62,-168.75 705.96,-147.51 679.57,-136.15 657.47,-130.14"/>
<polygon fill="midnightblue" stroke="midnightblue" points="658.41,-126.76 647.86,-127.82 656.76,-133.57 658.41,-126.76"/>
</g>
<!-- Node26 -->
<g id="node22" class="node">
<title>Node26</title>
<g id="a_node22"><a xlink:href="_rexx_collection_8hpp.html" target="_top" xlink:title=" ">
<polygon fill="white" stroke="black" points="1615.88,-56.75 1615.88,-76 1717.38,-76 1717.38,-56.75 1615.88,-56.75"/>
<text text-anchor="middle" x="1666.62" y="-62.5" font-family="Helvetica,sans-Serif" font-size="10.00">RexxCollection.hpp</text>
</a>
</g>
</g>
<!-- Node25&#45;&gt;Node26 -->
<g id="edge21" class="edge">
<title>Node25&#45;&gt;Node26</title>
<path fill="none" stroke="midnightblue" d="M457.54,-119.24C491.94,-117.31 541.93,-114.58 585.62,-112.5 972.69,-94.03 1437.92,-76.03 1603.98,-69.73"/>
<polygon fill="midnightblue" stroke="midnightblue" points="1604.04,-73.23 1613.9,-69.35 1603.77,-66.23 1604.04,-73.23"/>
</g>
<!-- Node27 -->
<g id="node23" class="node">
<title>Node27</title>
<g id="a_node23"><a xlink:href="_rexx_hash_table_8hpp.html" target="_top" xlink:title=" ">
<polygon fill="white" stroke="black" points="1614.38,-0.5 1614.38,-19.75 1718.88,-19.75 1718.88,-0.5 1614.38,-0.5"/>
<text text-anchor="middle" x="1666.62" y="-6.25" font-family="Helvetica,sans-Serif" font-size="10.00">RexxHashTable.hpp</text>
</a>
</g>
</g>
<!-- Node26&#45;&gt;Node27 -->
<g id="edge22" class="edge">
<title>Node26&#45;&gt;Node27</title>
<path fill="none" stroke="midnightblue" d="M1666.62,-56.42C1666.62,-49.62 1666.62,-40.01 1666.62,-31.4"/>
<polygon fill="midnightblue" stroke="midnightblue" points="1670.13,-31.43 1666.63,-21.43 1663.13,-31.43 1670.13,-31.43"/>
</g>
<!-- Node30 -->
<g id="node26" class="node">
<title>Node30</title>
<g id="a_node26"><a xlink:title=" ">
<polygon fill="white" stroke="#bfbfbf" points="285.88,-169.25 285.88,-188.5 387.38,-188.5 387.38,-169.25 285.88,-169.25"/>
<text text-anchor="middle" x="336.62" y="-175" font-family="Helvetica,sans-Serif" font-size="10.00">SysSemaphore.hpp</text>
</a>
</g>
</g>
<!-- Node29&#45;&gt;Node30 -->
<g id="edge25" class="edge">
<title>Node29&#45;&gt;Node30</title>
<path fill="none" stroke="midnightblue" d="M336.62,-225.17C336.62,-218.37 336.62,-208.76 336.62,-200.15"/>
<polygon fill="midnightblue" stroke="midnightblue" points="340.13,-200.18 336.63,-190.18 333.13,-200.18 340.13,-200.18"/>
</g>
<!-- Node31 -->
<g id="node27" class="node">
<title>Node31</title>
<g id="a_node27"><a xlink:href="_identity_table_class_8hpp.html" target="_top" xlink:title=" ">
<polygon fill="white" stroke="black" points="151.75,-169.25 151.75,-188.5 267.5,-188.5 267.5,-169.25 151.75,-169.25"/>
<text text-anchor="middle" x="209.62" y="-175" font-family="Helvetica,sans-Serif" font-size="10.00">IdentityTableClass.hpp</text>
</a>
</g>
</g>
<!-- Node29&#45;&gt;Node31 -->
<g id="edge26" class="edge">
<title>Node29&#45;&gt;Node31</title>
<path fill="none" stroke="midnightblue" d="M315.37,-225.04C295.13,-216.4 264.41,-203.28 241.29,-193.4"/>
<polygon fill="midnightblue" stroke="midnightblue" points="242.91,-190.29 232.34,-189.58 240.16,-196.73 242.91,-190.29"/>
</g>
<!-- Node32 -->
<g id="node28" class="node">
<title>Node32</title>
<g id="a_node28"><a xlink:href="_memory_stats_8hpp.html" target="_top" xlink:title=" ">
<polygon fill="white" stroke="black" points="40,-169.25 40,-188.5 133.25,-188.5 133.25,-169.25 40,-169.25"/>
<text text-anchor="middle" x="86.62" y="-175" font-family="Helvetica,sans-Serif" font-size="10.00">MemoryStats.hpp</text>
</a>
</g>
</g>
<!-- Node29&#45;&gt;Node32 -->
<g id="edge28" class="edge">
<title>Node29&#45;&gt;Node32</title>
<path fill="none" stroke="midnightblue" d="M294.78,-225.04C252.15,-215.79 185.89,-201.42 139.62,-191.37"/>
<polygon fill="midnightblue" stroke="midnightblue" points="140.6,-188.01 130.09,-189.31 139.12,-194.85 140.6,-188.01"/>
</g>
<!-- Node33 -->
<g id="node29" class="node">
<title>Node33</title>
<g id="a_node29"><a xlink:href="_memory_segment_8hpp.html" target="_top" xlink:title=" ">
<polygon fill="white" stroke="red" points="444.12,-169.25 444.12,-188.5 553.12,-188.5 553.12,-169.25 444.12,-169.25"/>
<text text-anchor="middle" x="498.62" y="-175" font-family="Helvetica,sans-Serif" font-size="10.00">MemorySegment.hpp</text>
</a>
</g>
</g>
<!-- Node29&#45;&gt;Node33 -->
<g id="edge30" class="edge">
<title>Node29&#45;&gt;Node33</title>
<path fill="none" stroke="midnightblue" d="M363.74,-225.04C390.26,-216.16 430.87,-202.56 460.61,-192.61"/>
<polygon fill="midnightblue" stroke="midnightblue" points="461.62,-195.96 469.99,-189.47 459.39,-189.32 461.62,-195.96"/>
</g>
<!-- Node31&#45;&gt;Node25 -->
<g id="edge27" class="edge">
<title>Node31&#45;&gt;Node25</title>
<path fill="none" stroke="midnightblue" d="M244.1,-168.79C278.71,-159.68 332.22,-145.59 370.25,-135.57"/>
<polygon fill="midnightblue" stroke="midnightblue" points="370.79,-139.05 379.57,-133.12 369.01,-132.28 370.79,-139.05"/>
</g>
<!-- Node32&#45;&gt;Node20 -->
<g id="edge29" class="edge">
<title>Node32&#45;&gt;Node20</title>
<path fill="none" stroke="midnightblue" d="M80.52,-168.92C75.5,-161.57 68.25,-150.93 62.03,-141.81"/>
<polygon fill="midnightblue" stroke="midnightblue" points="65,-139.96 56.47,-133.67 59.22,-143.9 65,-139.96"/>
</g>
<!-- Node33&#45;&gt;Node24 -->
<g id="edge31" class="edge">
<title>Node33&#45;&gt;Node24</title>
<path fill="none" stroke="midnightblue" d="M519.05,-168.79C538.4,-160.19 567.73,-147.15 589.9,-137.29"/>
<polygon fill="midnightblue" stroke="midnightblue" points="591.04,-140.61 598.76,-133.35 588.2,-134.21 591.04,-140.61"/>
</g>
<!-- Node37 -->
<g id="node31" class="node">
<title>Node37</title>
<g id="a_node31"><a xlink:href="_primitive_behaviour_names_8h.html" target="_top" xlink:title=" ">
<polygon fill="white" stroke="black" points="1082.88,-169.25 1082.88,-188.5 1220.38,-188.5 1220.38,-169.25 1082.88,-169.25"/>
<text text-anchor="middle" x="1151.62" y="-175" font-family="Helvetica,sans-Serif" font-size="10.00">PrimitiveBehaviourNames.h</text>
</a>
</g>
</g>
<!-- Node36&#45;&gt;Node37 -->
<g id="edge33" class="edge">
<title>Node36&#45;&gt;Node37</title>
<path fill="none" stroke="midnightblue" d="M1151.62,-225.17C1151.62,-218.37 1151.62,-208.76 1151.62,-200.15"/>
<polygon fill="midnightblue" stroke="midnightblue" points="1155.13,-200.18 1151.63,-190.18 1148.13,-200.18 1155.13,-200.18"/>
</g>
<!-- Node41 -->
<g id="node35" class="node">
<title>Node41</title>
<g id="a_node35"><a xlink:href="_list_class_8hpp.html" target="_top" xlink:title=" ">
<polygon fill="white" stroke="red" points="2475.62,-169.25 2475.62,-188.5 2551.62,-188.5 2551.62,-169.25 2475.62,-169.25"/>
<text text-anchor="middle" x="2513.62" y="-175" font-family="Helvetica,sans-Serif" font-size="10.00">ListClass.hpp</text>
</a>
</g>
</g>
<!-- Node40&#45;&gt;Node41 -->
<g id="edge37" class="edge">
<title>Node40&#45;&gt;Node41</title>
<path fill="none" stroke="midnightblue" d="M2386.23,-225.04C2411.17,-216.2 2449.3,-202.68 2477.35,-192.74"/>
<polygon fill="midnightblue" stroke="midnightblue" points="2478.25,-196.13 2486.51,-189.49 2475.91,-189.53 2478.25,-196.13"/>
</g>
<!-- Node43 -->
<g id="node36" class="node">
<title>Node43</title>
<g id="a_node36"><a xlink:href="_rexx_internal_stack_8hpp.html" target="_top" xlink:title=" ">
<polygon fill="white" stroke="black" points="2569.75,-169.25 2569.75,-188.5 2685.5,-188.5 2685.5,-169.25 2569.75,-169.25"/>
<text text-anchor="middle" x="2627.62" y="-175" font-family="Helvetica,sans-Serif" font-size="10.00">RexxInternalStack.hpp</text>
</a>
</g>
</g>
<!-- Node40&#45;&gt;Node43 -->
<g id="edge38" class="edge">
<title>Node40&#45;&gt;Node43</title>
<path fill="none" stroke="midnightblue" d="M2405.31,-225.04C2451.04,-215.75 2522.2,-201.29 2571.65,-191.25"/>
<polygon fill="midnightblue" stroke="midnightblue" points="2572.2,-194.71 2581.31,-189.29 2570.81,-187.85 2572.2,-194.71"/>
</g>
<!-- Node44 -->
<g id="node37" class="node">
<title>Node44</title>
<g id="a_node37"><a xlink:href="_rexx_activation_stack_8hpp.html" target="_top" xlink:title=" ">
<polygon fill="white" stroke="black" points="2703.12,-169.25 2703.12,-188.5 2830.12,-188.5 2830.12,-169.25 2703.12,-169.25"/>
<text text-anchor="middle" x="2766.62" y="-175" font-family="Helvetica,sans-Serif" font-size="10.00">RexxActivationStack.hpp</text>
</a>
</g>
</g>
<!-- Node40&#45;&gt;Node44 -->
<g id="edge39" class="edge">
<title>Node40&#45;&gt;Node44</title>
<path fill="none" stroke="midnightblue" d="M2405.63,-228.11C2474.71,-218.88 2607.69,-201.11 2691.54,-189.91"/>
<polygon fill="midnightblue" stroke="midnightblue" points="2691.83,-193.4 2701.28,-188.61 2690.9,-186.46 2691.83,-193.4"/>
</g>
<!-- Node45 -->
<g id="node38" class="node">
<title>Node45</title>
<g id="a_node38"><a xlink:href="_expression_stack_8hpp.html" target="_top" xlink:title=" ">
<polygon fill="white" stroke="red" points="2848.12,-169.25 2848.12,-188.5 2957.12,-188.5 2957.12,-169.25 2848.12,-169.25"/>
<text text-anchor="middle" x="2902.62" y="-175" font-family="Helvetica,sans-Serif" font-size="10.00">ExpressionStack.hpp</text>
</a>
</g>
</g>
<!-- Node40&#45;&gt;Node45 -->
<g id="edge40" class="edge">
<title>Node40&#45;&gt;Node45</title>
<path fill="none" stroke="midnightblue" d="M2405.61,-230.64C2488.66,-224.04 2671.91,-208.73 2836.37,-189.34"/>
<polygon fill="midnightblue" stroke="midnightblue" points="2836.65,-192.83 2846.17,-188.18 2835.83,-185.88 2836.65,-192.83"/>
</g>
<!-- Node47 -->
<g id="node39" class="node">
<title>Node47</title>
<g id="a_node39"><a xlink:href="_rexx_local_variables_8hpp.html" target="_top" xlink:title=" ">
<polygon fill="white" stroke="red" points="2114.12,-169.25 2114.12,-188.5 2235.12,-188.5 2235.12,-169.25 2114.12,-169.25"/>
<text text-anchor="middle" x="2174.62" y="-175" font-family="Helvetica,sans-Serif" font-size="10.00">RexxLocalVariables.hpp</text>
</a>
</g>
</g>
<!-- Node40&#45;&gt;Node47 -->
<g id="edge41" class="edge">
<title>Node40&#45;&gt;Node47</title>
<path fill="none" stroke="midnightblue" d="M2329.49,-225.04C2298.51,-216.01 2250.76,-202.08 2216.48,-192.08"/>
<polygon fill="midnightblue" stroke="midnightblue" points="2217.89,-188.85 2207.31,-189.41 2215.93,-195.57 2217.89,-188.85"/>
</g>
<!-- Node62 -->
<g id="node40" class="node">
<title>Node62</title>
<g id="a_node40"><a xlink:href="_source_location_8hpp.html" target="_top" xlink:title=" ">
<polygon fill="white" stroke="black" points="2253.5,-169.25 2253.5,-188.5 2355.75,-188.5 2355.75,-169.25 2253.5,-169.25"/>
<text text-anchor="middle" x="2304.62" y="-175" font-family="Helvetica,sans-Serif" font-size="10.00">SourceLocation.hpp</text>
</a>
</g>
</g>
<!-- Node40&#45;&gt;Node62 -->
<g id="edge42" class="edge">
<title>Node40&#45;&gt;Node62</title>
<path fill="none" stroke="midnightblue" d="M2351.38,-225.17C2343.39,-217.42 2331.62,-206.03 2321.89,-196.61"/>
<polygon fill="midnightblue" stroke="midnightblue" points="2324.4,-194.16 2314.79,-189.72 2319.53,-199.19 2324.4,-194.16"/>
</g>
<!-- Node63 -->
<g id="node41" class="node">
<title>Node63</title>
<g id="a_node41"><a xlink:href="_exit_handler_8hpp.html" target="_top" xlink:title=" ">
<polygon fill="white" stroke="red" points="1800.12,-169.25 1800.12,-188.5 1885.12,-188.5 1885.12,-169.25 1800.12,-169.25"/>
<text text-anchor="middle" x="1842.62" y="-175" font-family="Helvetica,sans-Serif" font-size="10.00">ExitHandler.hpp</text>
</a>
</g>
</g>
<!-- Node40&#45;&gt;Node63 -->
<g id="edge43" class="edge">
<title>Node40&#45;&gt;Node63</title>
<path fill="none" stroke="midnightblue" d="M2315.71,-229.64C2300.73,-228.16 2283.96,-226.5 2268.62,-225 2106,-209.11 2061.98,-211.34 1896.51,-189.16"/>
<polygon fill="midnightblue" stroke="midnightblue" points="1897.31,-185.73 1886.93,-187.86 1896.37,-192.67 1897.31,-185.73"/>
</g>
<!-- Node65 -->
<g id="node42" class="node">
<title>Node65</title>
<g id="a_node42"><a xlink:href="_activation_api_contexts_8hpp.html" target="_top" xlink:title=" ">
<polygon fill="white" stroke="black" points="1963.5,-169.25 1963.5,-188.5 2095.75,-188.5 2095.75,-169.25 1963.5,-169.25"/>
<text text-anchor="middle" x="2029.62" y="-175" font-family="Helvetica,sans-Serif" font-size="10.00">ActivationApiContexts.hpp</text>
</a>
</g>
</g>
<!-- Node40&#45;&gt;Node65 -->
<g id="edge45" class="edge">
<title>Node40&#45;&gt;Node65</title>
<path fill="none" stroke="midnightblue" d="M2315.64,-226.75C2259.08,-217.48 2161.5,-201.49 2096.27,-190.8"/>
<polygon fill="midnightblue" stroke="midnightblue" points="2097.21,-187.41 2086.78,-189.24 2096.08,-194.31 2097.21,-187.41"/>
</g>
<!-- Node66 -->
<g id="node43" class="node">
<title>Node66</title>
<g id="a_node43"><a xlink:title=" ">
<polygon fill="white" stroke="#bfbfbf" points="2373.88,-169.25 2373.88,-188.5 2457.38,-188.5 2457.38,-169.25 2373.88,-169.25"/>
<text text-anchor="middle" x="2415.62" y="-175" font-family="Helvetica,sans-Serif" font-size="10.00">SysActivity.hpp</text>
</a>
</g>
</g>
<!-- Node40&#45;&gt;Node66 -->
<g id="edge47" class="edge">
<title>Node40&#45;&gt;Node66</title>
<path fill="none" stroke="midnightblue" d="M2369.71,-225.17C2377.56,-217.42 2389.11,-206.03 2398.66,-196.61"/>
<polygon fill="midnightblue" stroke="midnightblue" points="2400.97,-199.24 2405.63,-189.73 2396.06,-194.26 2400.97,-199.24"/>
</g>
<!-- Node63&#45;&gt;Node2 -->
<g id="edge44" class="edge">
<title>Node63&#45;&gt;Node2</title>
<path fill="none" stroke="midnightblue" d="M1864.41,-188.9C1890.8,-201.06 1929.52,-223.7 1910.62,-245.25 1891.4,-267.18 1703.49,-281.86 1614.68,-287.63"/>
<polygon fill="midnightblue" stroke="midnightblue" points="1614.61,-284.12 1604.85,-288.25 1615.05,-291.11 1614.61,-284.12"/>
</g>
<!-- Node65&#45;&gt;Node2 -->
<g id="edge46" class="edge">
<title>Node65&#45;&gt;Node2</title>
<path fill="none" stroke="midnightblue" d="M2096.07,-188.05C2162.89,-196.95 2257.59,-211.69 2268.62,-225 2274.37,-231.93 2274.78,-238.68 2268.62,-245.25 2246.2,-269.17 1765.99,-284.78 1614.19,-289.13"/>
<polygon fill="midnightblue" stroke="midnightblue" points="1614.42,-285.63 1604.52,-289.41 1614.62,-292.62 1614.42,-285.63"/>
</g>
<!-- Node51&#45;&gt;Node23 -->
<g id="edge49" class="edge">
<title>Node51&#45;&gt;Node23</title>
<path fill="none" stroke="midnightblue" d="M815.64,-225.17C814.12,-218.29 811.97,-208.54 810.04,-199.85"/>
<polygon fill="midnightblue" stroke="midnightblue" points="813.47,-199.15 807.9,-190.14 806.64,-200.66 813.47,-199.15"/>
</g>
<!-- Node52 -->
<g id="node45" class="node">
<title>Node52</title>
<g id="a_node45"><a xlink:href="_number_string_math_8hpp.html" target="_top" xlink:title=" ">
<polygon fill="white" stroke="black" points="862.38,-169.25 862.38,-188.5 978.88,-188.5 978.88,-169.25 862.38,-169.25"/>
<text text-anchor="middle" x="920.62" y="-175" font-family="Helvetica,sans-Serif" font-size="10.00">NumberStringMath.hpp</text>
</a>
</g>
</g>
<!-- Node51&#45;&gt;Node52 -->
<g id="edge50" class="edge">
<title>Node51&#45;&gt;Node52</title>
<path fill="none" stroke="midnightblue" d="M834.63,-225.17C850.66,-216.72 874.94,-203.94 893.61,-194.1"/>
<polygon fill="midnightblue" stroke="midnightblue" points="895.04,-197.31 902.25,-189.55 891.77,-191.12 895.04,-197.31"/>
</g>
<!-- Node68 -->
<g id="node47" class="node">
<title>Node68</title>
<g id="a_node47"><a xlink:title=" ">
<polygon fill="white" stroke="#bfbfbf" points="1903.5,-169.25 1903.5,-188.5 1945.75,-188.5 1945.75,-169.25 1903.5,-169.25"/>
<text text-anchor="middle" x="1924.62" y="-175" font-family="Helvetica,sans-Serif" font-size="10.00">deque</text>
</a>
</g>
</g>
<!-- Node67&#45;&gt;Node68 -->
<g id="edge52" class="edge">
<title>Node67&#45;&gt;Node68</title>
<path fill="none" stroke="midnightblue" d="M2155.01,-225.5C2097.08,-215.88 2006.5,-200.44 1957.2,-189.34"/>
<polygon fill="midnightblue" stroke="midnightblue" points="1958.18,-185.98 1947.64,-187.11 1956.58,-192.79 1958.18,-185.98"/>
</g>
<!-- Node69&#45;&gt;Node2 -->
<g id="edge54" class="edge">
<title>Node69&#45;&gt;Node2</title>
<path fill="none" stroke="midnightblue" d="M2014.64,-340.77C1915.72,-330.03 1707.07,-307.4 1614.51,-297.35"/>
<polygon fill="midnightblue" stroke="midnightblue" points="1615.11,-293.9 1604.79,-296.3 1614.36,-300.86 1615.11,-293.9"/>
</g>
<!-- Node70 -->
<g id="node49" class="node">
<title>Node70</title>
<g id="a_node49"><a xlink:href="_protected_object_8hpp.html" target="_top" xlink:title=" ">
<polygon fill="white" stroke="black" points="2155,-281.75 2155,-301 2260.25,-301 2260.25,-281.75 2155,-281.75"/>
<text text-anchor="middle" x="2207.62" y="-287.5" font-family="Helvetica,sans-Serif" font-size="10.00">ProtectedObject.hpp</text>
</a>
</g>
</g>
<!-- Node69&#45;&gt;Node70 -->
<g id="edge55" class="edge">
<title>Node69&#45;&gt;Node70</title>
<path fill="none" stroke="midnightblue" d="M2091.89,-337.54C2114.24,-328.82 2148.27,-315.54 2173.65,-305.64"/>
<polygon fill="midnightblue" stroke="midnightblue" points="2174.83,-308.93 2182.87,-302.04 2172.29,-302.41 2174.83,-308.93"/>
</g>
<!-- Node70&#45;&gt;Node40 -->
<g id="edge56" class="edge">
<title>Node70&#45;&gt;Node40</title>
<path fill="none" stroke="midnightblue" d="M2233.23,-281.29C2258.17,-272.45 2296.3,-258.93 2324.35,-248.99"/>
<polygon fill="midnightblue" stroke="midnightblue" points="2325.25,-252.38 2333.51,-245.74 2322.91,-245.78 2325.25,-252.38"/>
</g>
<!-- Node70&#45;&gt;Node67 -->
<g id="edge57" class="edge">
<title>Node70&#45;&gt;Node67</title>
<path fill="none" stroke="midnightblue" d="M2207.62,-281.42C2207.62,-274.62 2207.62,-265.01 2207.62,-256.4"/>
<polygon fill="midnightblue" stroke="midnightblue" points="2211.13,-256.43 2207.63,-246.43 2204.13,-256.43 2211.13,-256.43"/>
</g>
<!-- Node71&#45;&gt;Node26 -->
<g id="edge59" class="edge">
<title>Node71&#45;&gt;Node26</title>
<path fill="none" stroke="midnightblue" d="M2638.91,-343.22C2745.73,-334.6 2985.62,-307.31 2985.62,-236.12 2985.62,-236.12 2985.62,-236.12 2985.62,-177.88 2985.62,-113.98 1989.75,-77.69 1728.67,-69.28"/>
<polygon fill="midnightblue" stroke="midnightblue" points="1729.14,-65.79 1719.04,-68.97 1728.92,-72.79 1729.14,-65.79"/>
</g>
</g>
</svg>
        <g id="navigator" transform="translate(0 0)" fill="#404254">
                <rect fill="#f2f5e9" fill-opacity="0.5" stroke="#606060" stroke-width=".5" x="0" y="0" width="60" height="60"/>
                <use id="zoomplus" xlink:href="#zoomPlus" x="17" y="9" onmousedown="handleZoom(evt,'in')"/>
                <use id="zoomminus" xlink:href="#zoomMin" x="42" y="9" onmousedown="handleZoom(evt,'out')"/>
                <use id="reset" xlink:href="#resetDef" x="30" y="36" onmousedown="handleReset()"/>
                <g id="arrowUp" xlink:href="#dirArrow" transform="translate(30 24)" onmousedown="handlePan(0,-1)">
                  <use xlink:href="#rim" fill="#404040">
                        <set attributeName="fill" to="#808080" begin="arrowUp.mouseover" end="arrowUp.mouseout"/>
                  </use>
                  <path fill="none" stroke="white" stroke-width="1.5" d="M0,-3.0v7 M-2.5,-0.5L0,-3.0L2.5,-0.5"/>
                </g>
                <g id="arrowRight" xlink:href="#dirArrow" transform="rotate(90) translate(36 -43)" onmousedown="handlePan(1,0)">
                  <use xlink:href="#rim" fill="#404040">
                        <set attributeName="fill" to="#808080" begin="arrowRight.mouseover" end="arrowRight.mouseout"/>
                  </use>
                  <path fill="none" stroke="white" stroke-width="1.5" d="M0,-3.0v7 M-2.5,-0.5L0,-3.0L2.5,-0.5"/>
                </g>
                <g id="arrowDown" xlink:href="#dirArrow" transform="rotate(180) translate(-30 -48)" onmousedown="handlePan(0,1)">
                  <use xlink:href="#rim" fill="#404040">
                        <set attributeName="fill" to="#808080" begin="arrowDown.mouseover" end="arrowDown.mouseout"/>
                  </use>
                  <path fill="none" stroke="white" stroke-width="1.5" d="M0,-3.0v7 M-2.5,-0.5L0,-3.0L2.5,-0.5"/>
                </g>
                <g id="arrowLeft" xlink:href="#dirArrow" transform="rotate(270) translate(-36 17)" onmousedown="handlePan(-1,0)">
                  <use xlink:href="#rim" fill="#404040">
                        <set attributeName="fill" to="#808080" begin="arrowLeft.mouseover" end="arrowLeft.mouseout"/>
                  </use>
                  <path fill="none" stroke="white" stroke-width="1.5" d="M0,-3.0v7 M-2.5,-0.5L0,-3.0L2.5,-0.5"/>
                </g>
        </g>
        <svg viewBox="0 0 15 15" width="100%" height="30px" preserveAspectRatio="xMaxYMin meet">
         <g id="arrow_out" transform="scale(0.3 0.3)">
          <a xlink:href="_security_manager_8cpp__incl_org.svg" target="_base">
           <rect id="button" ry="5" rx="5" y="6" x="6" height="38" width="38"
                fill="#f2f5e9" fill-opacity="0.5" stroke="#606060" stroke-width="1.0"/>
           <path id="arrow"
             d="M 11.500037,31.436501 C 11.940474,20.09759 22.043105,11.32322 32.158766,21.979434 L 37.068811,17.246167 C 37.068811,17.246167 37.088388,32 37.088388,32 L 22.160133,31.978069 C 22.160133,31.978069 26.997745,27.140456 26.997745,27.140456 C 18.528582,18.264221 13.291696,25.230495 11.500037,31.436501 z"
             style="fill:#404040;"/>
          </a>
         </g>
        </svg>
</svg>
