<?xml version="1.0" encoding="UTF-8" standalone="no"?>
<!DOCTYPE svg PUBLIC "-//W3C//DTD SVG 1.1//EN"
 "http://www.w3.org/Graphics/SVG/1.1/DTD/svg11.dtd">
<!-- Generated by graphviz version 12.1.0 (20240811.2233)
 -->
<!-- Title: ServiceMessage.hpp Pages: 1 -->
<svg width="675pt" height="141pt"
 viewBox="0.00 0.00 674.88 140.75" xmlns="http://www.w3.org/2000/svg" xmlns:xlink="http://www.w3.org/1999/xlink">
<g id="graph0" class="graph" transform="scale(1 1) rotate(0) translate(4 136.75)">
<title>ServiceMessage.hpp</title>
<polygon fill="white" stroke="none" points="-4,4 -4,-136.75 670.88,-136.75 670.88,4 -4,4"/>
<!-- Node1 -->
<g id="node1" class="node">
<title>Node1</title>
<g id="a_node1"><a xlink:title=" ">
<polygon fill="#bfbfbf" stroke="black" points="396.12,-113 396.12,-132.25 503.62,-132.25 503.62,-113 396.12,-113"/>
<text text-anchor="middle" x="449.88" y="-118.75" font-family="Helvetica,sans-Serif" font-size="10.00">ServiceMessage.hpp</text>
</a>
</g>
</g>
<!-- Node2 -->
<g id="node2" class="node">
<title>Node2</title>
<g id="a_node2"><a xlink:href="rexx_8h.html" target="_top" xlink:title=" ">
<polygon fill="white" stroke="black" points="217.38,-56.75 217.38,-76 260.38,-76 260.38,-56.75 217.38,-56.75"/>
<text text-anchor="middle" x="238.88" y="-62.5" font-family="Helvetica,sans-Serif" font-size="10.00">rexx.h</text>
</a>
</g>
</g>
<!-- Node1&#45;&gt;Node2 -->
<g id="edge1" class="edge">
<title>Node1&#45;&gt;Node2</title>
<path fill="none" stroke="midnightblue" d="M414.56,-112.54C374.62,-102.28 310.14,-85.7 271.39,-75.74"/>
<polygon fill="midnightblue" stroke="midnightblue" points="272.74,-72.47 262.19,-73.37 271,-79.25 272.74,-72.47"/>
</g>
<!-- Node7 -->
<g id="node7" class="node">
<title>Node7</title>
<g id="a_node7"><a xlink:href="_service_exception_8hpp.html" target="_top" xlink:title=" ">
<polygon fill="white" stroke="black" points="333.25,-56.75 333.25,-76 444.5,-76 444.5,-56.75 333.25,-56.75"/>
<text text-anchor="middle" x="388.88" y="-62.5" font-family="Helvetica,sans-Serif" font-size="10.00">ServiceException.hpp</text>
</a>
</g>
</g>
<!-- Node1&#45;&gt;Node7 -->
<g id="edge6" class="edge">
<title>Node1&#45;&gt;Node7</title>
<path fill="none" stroke="midnightblue" d="M439.8,-112.67C431.01,-104.85 418.02,-93.3 407.36,-83.82"/>
<polygon fill="midnightblue" stroke="midnightblue" points="409.69,-81.2 399.89,-77.17 405.04,-86.43 409.69,-81.2"/>
</g>
<!-- Node9 -->
<g id="node9" class="node">
<title>Node9</title>
<g id="a_node9"><a xlink:title=" ">
<polygon fill="white" stroke="#bfbfbf" points="463,-56.75 463,-76 560.75,-76 560.75,-56.75 463,-56.75"/>
<text text-anchor="middle" x="511.88" y="-62.5" font-family="Helvetica,sans-Serif" font-size="10.00">SysCSStream.hpp</text>
</a>
</g>
</g>
<!-- Node1&#45;&gt;Node9 -->
<g id="edge8" class="edge">
<title>Node1&#45;&gt;Node9</title>
<path fill="none" stroke="midnightblue" d="M460.11,-112.67C469.14,-104.77 482.52,-93.06 493.41,-83.53"/>
<polygon fill="midnightblue" stroke="midnightblue" points="495.47,-86.38 500.69,-77.16 490.86,-81.11 495.47,-86.38"/>
</g>
<!-- Node10 -->
<g id="node10" class="node">
<title>Node10</title>
<g id="a_node10"><a xlink:title=" ">
<polygon fill="white" stroke="#bfbfbf" points="578.88,-56.75 578.88,-76 666.88,-76 666.88,-56.75 578.88,-56.75"/>
<text text-anchor="middle" x="622.88" y="-62.5" font-family="Helvetica,sans-Serif" font-size="10.00">SysProcess.hpp</text>
</a>
</g>
</g>
<!-- Node1&#45;&gt;Node10 -->
<g id="edge9" class="edge">
<title>Node1&#45;&gt;Node10</title>
<path fill="none" stroke="midnightblue" d="M478.83,-112.54C507.4,-103.59 551.29,-89.82 583.11,-79.84"/>
<polygon fill="midnightblue" stroke="midnightblue" points="583.89,-83.27 592.38,-76.94 581.79,-76.59 583.89,-83.27"/>
</g>
<!-- Node3 -->
<g id="node3" class="node">
<title>Node3</title>
<g id="a_node3"><a xlink:title=" ">
<polygon fill="white" stroke="#bfbfbf" points="0,-0.5 0,-19.75 79.75,-19.75 79.75,-0.5 0,-0.5"/>
<text text-anchor="middle" x="39.88" y="-6.25" font-family="Helvetica,sans-Serif" font-size="10.00">rexxapitypes.h</text>
</a>
</g>
</g>
<!-- Node2&#45;&gt;Node3 -->
<g id="edge2" class="edge">
<title>Node2&#45;&gt;Node3</title>
<path fill="none" stroke="midnightblue" d="M217.2,-59.47C185.36,-50.79 125.27,-34.41 83.93,-23.14"/>
<polygon fill="midnightblue" stroke="midnightblue" points="85.1,-19.83 74.53,-20.57 83.26,-26.58 85.1,-19.83"/>
</g>
<!-- Node4 -->
<g id="node4" class="node">
<title>Node4</title>
<g id="a_node4"><a xlink:href="rexxapidefs_8h.html" target="_top" xlink:title=" ">
<polygon fill="white" stroke="black" points="97.62,-0.5 97.62,-19.75 172.12,-19.75 172.12,-0.5 97.62,-0.5"/>
<text text-anchor="middle" x="134.88" y="-6.25" font-family="Helvetica,sans-Serif" font-size="10.00">rexxapidefs.h</text>
</a>
</g>
</g>
<!-- Node2&#45;&gt;Node4 -->
<g id="edge3" class="edge">
<title>Node2&#45;&gt;Node4</title>
<path fill="none" stroke="midnightblue" d="M221.7,-56.42C205.52,-47.97 181.01,-35.19 162.15,-25.35"/>
<polygon fill="midnightblue" stroke="midnightblue" points="163.9,-22.32 153.42,-20.8 160.66,-28.52 163.9,-22.32"/>
</g>
<!-- Node5 -->
<g id="node5" class="node">
<title>Node5</title>
<g id="a_node5"><a xlink:title=" ">
<polygon fill="white" stroke="#bfbfbf" points="190.38,-0.5 190.38,-19.75 287.38,-19.75 287.38,-0.5 190.38,-0.5"/>
<text text-anchor="middle" x="238.88" y="-6.25" font-family="Helvetica,sans-Serif" font-size="10.00">rexxplatformdefs.h</text>
</a>
</g>
</g>
<!-- Node2&#45;&gt;Node5 -->
<g id="edge4" class="edge">
<title>Node2&#45;&gt;Node5</title>
<path fill="none" stroke="midnightblue" d="M238.88,-56.42C238.88,-49.62 238.88,-40.01 238.88,-31.4"/>
<polygon fill="midnightblue" stroke="midnightblue" points="242.38,-31.43 238.88,-21.43 235.38,-31.43 242.38,-31.43"/>
</g>
<!-- Node6 -->
<g id="node6" class="node">
<title>Node6</title>
<g id="a_node6"><a xlink:title=" ">
<polygon fill="white" stroke="#bfbfbf" points="305.75,-0.5 305.75,-19.75 402,-19.75 402,-0.5 305.75,-0.5"/>
<text text-anchor="middle" x="353.88" y="-6.25" font-family="Helvetica,sans-Serif" font-size="10.00">rexxplatformapis.h</text>
</a>
</g>
</g>
<!-- Node2&#45;&gt;Node6 -->
<g id="edge5" class="edge">
<title>Node2&#45;&gt;Node6</title>
<path fill="none" stroke="midnightblue" d="M258.12,-56.29C276.2,-47.77 303.51,-34.88 324.34,-25.06"/>
<polygon fill="midnightblue" stroke="midnightblue" points="325.64,-28.31 333.19,-20.88 322.66,-21.98 325.64,-28.31"/>
</g>
<!-- Node8 -->
<g id="node8" class="node">
<title>Node8</title>
<g id="a_node8"><a xlink:title=" ">
<polygon fill="white" stroke="#bfbfbf" points="419.75,-0.5 419.75,-19.75 468,-19.75 468,-0.5 419.75,-0.5"/>
<text text-anchor="middle" x="443.88" y="-6.25" font-family="Helvetica,sans-Serif" font-size="10.00">string.h</text>
</a>
</g>
</g>
<!-- Node7&#45;&gt;Node8 -->
<g id="edge7" class="edge">
<title>Node7&#45;&gt;Node8</title>
<path fill="none" stroke="midnightblue" d="M397.96,-56.42C405.81,-48.67 417.36,-37.28 426.91,-27.86"/>
<polygon fill="midnightblue" stroke="midnightblue" points="429.22,-30.49 433.88,-20.98 424.31,-25.51 429.22,-30.49"/>
</g>
</g>
</svg>
