<?xml version="1.0" encoding="UTF-8" standalone="no"?>
<!DOCTYPE svg PUBLIC "-//W3C//DTD SVG 1.1//EN"
 "http://www.w3.org/Graphics/SVG/1.1/DTD/svg11.dtd">
<!-- Generated by graphviz version 12.1.0 (20240811.2233)
 -->
<!-- Title: StreamNative.hpp Pages: 1 -->
<svg width="196pt" height="85pt"
 viewBox="0.00 0.00 195.62 84.50" xmlns="http://www.w3.org/2000/svg" xmlns:xlink="http://www.w3.org/1999/xlink">
<g id="graph0" class="graph" transform="scale(1 1) rotate(0) translate(4 80.5)">
<title>StreamNative.hpp</title>
<polygon fill="white" stroke="none" points="-4,4 -4,-80.5 191.62,-80.5 191.62,4 -4,4"/>
<!-- Node1 -->
<g id="node1" class="node">
<title>Node1</title>
<g id="a_node1"><a xlink:title=" ">
<polygon fill="#bfbfbf" stroke="black" points="54.38,-56.75 54.38,-76 149.12,-76 149.12,-56.75 54.38,-56.75"/>
<text text-anchor="middle" x="101.75" y="-62.5" font-family="Helvetica,sans-Serif" font-size="10.00">StreamNative.hpp</text>
</a>
</g>
</g>
<!-- Node2 -->
<g id="node2" class="node">
<title>Node2</title>
<g id="a_node2"><a xlink:title=" ">
<polygon fill="white" stroke="#bfbfbf" points="0,-0.5 0,-19.75 101.5,-19.75 101.5,-0.5 0,-0.5"/>
<text text-anchor="middle" x="50.75" y="-6.25" font-family="Helvetica,sans-Serif" font-size="10.00">SysFileSystem.hpp</text>
</a>
</g>
</g>
<!-- Node1&#45;&gt;Node2 -->
<g id="edge1" class="edge">
<title>Node1&#45;&gt;Node2</title>
<path fill="none" stroke="midnightblue" d="M93.33,-56.42C86.12,-48.75 75.56,-37.51 66.75,-28.14"/>
<polygon fill="midnightblue" stroke="midnightblue" points="69.45,-25.91 60.05,-21.02 64.35,-30.7 69.45,-25.91"/>
</g>
<!-- Node3 -->
<g id="node3" class="node">
<title>Node3</title>
<g id="a_node3"><a xlink:title=" ">
<polygon fill="white" stroke="#bfbfbf" points="119.88,-0.5 119.88,-19.75 187.62,-19.75 187.62,-0.5 119.88,-0.5"/>
<text text-anchor="middle" x="153.75" y="-6.25" font-family="Helvetica,sans-Serif" font-size="10.00">SysFile.hpp</text>
</a>
</g>
</g>
<!-- Node1&#45;&gt;Node3 -->
<g id="edge2" class="edge">
<title>Node1&#45;&gt;Node3</title>
<path fill="none" stroke="midnightblue" d="M110.34,-56.42C117.68,-48.75 128.46,-37.51 137.44,-28.14"/>
<polygon fill="midnightblue" stroke="midnightblue" points="139.88,-30.65 144.28,-21.01 134.83,-25.81 139.88,-30.65"/>
</g>
</g>
</svg>
