<?xml version="1.0" encoding="UTF-8" standalone="no"?>
<!DOCTYPE svg PUBLIC "-//W3C//DTD SVG 1.1//EN"
 "http://www.w3.org/Graphics/SVG/1.1/DTD/svg11.dtd">
<!-- Generated by graphviz version 2.30.1 (20130222.1704)
 -->
<!-- Title: StringClassConversion.cpp Pages: 1 -->
<svg width="2703pt" height="320pt"
 viewBox="0.00 0.00 2703.00 320.00" xmlns="http://www.w3.org/2000/svg" xmlns:xlink="http://www.w3.org/1999/xlink">
<g id="graph0" class="graph" transform="scale(1 1) rotate(0) translate(4 316)">
<title>StringClassConversion.cpp</title>
<polygon fill="white" stroke="white" points="-4,5 -4,-316 2700,-316 2700,5 -4,5"/>
<!-- Node1 -->
<g id="node1" class="node"><title>Node1</title>
<g id="a_node1"><a xlink:title=" ">
<polygon fill="#bfbfbf" stroke="black" points="1304.69,-291 1304.69,-311 1441.31,-311 1441.31,-291 1304.69,-291"/>
<text text-anchor="middle" x="1373" y="-297" font-family="Helvetica,sans-Serif" font-size="10.00">StringClassConversion.cpp</text>
</a>
</g>
</g>
<!-- Node2 -->
<g id="node2" class="node"><title>Node2</title>
<g id="a_node2"><a xlink:title=" ">
<polygon fill="white" stroke="#bfbfbf" points="547.879,-175 547.879,-195 596.121,-195 596.121,-175 547.879,-175"/>
<text text-anchor="middle" x="572" y="-181" font-family="Helvetica,sans-Serif" font-size="10.00">ctype.h</text>
</a>
</g>
</g>
<!-- Node1&#45;&gt;Node2 -->
<g id="edge1" class="edge"><title>Node1&#45;&gt;Node2</title>
<path fill="none" stroke="midnightblue" d="M1304.58,-295.029C1214.53,-288.059 1051.42,-273.958 913,-254 778.784,-234.648 742.673,-228.793 606.422,-195.917"/>
<polygon fill="midnightblue" stroke="midnightblue" points="606.978,-192.451 596.436,-193.502 605.333,-199.254 606.978,-192.451"/>
</g>
<!-- Node3 -->
<g id="node3" class="node"><title>Node3</title>
<g id="a_node3"><a xlink:title=" ">
<polygon fill="white" stroke="#bfbfbf" points="1710.16,-233 1710.16,-253 1757.84,-253 1757.84,-233 1710.16,-233"/>
<text text-anchor="middle" x="1734" y="-239" font-family="Helvetica,sans-Serif" font-size="10.00">stdlib.h</text>
</a>
</g>
</g>
<!-- Node1&#45;&gt;Node3 -->
<g id="edge2" class="edge"><title>Node1&#45;&gt;Node3</title>
<path fill="none" stroke="midnightblue" d="M1441.45,-292.585C1507.1,-284.925 1608.83,-271.614 1696,-254 1697.28,-253.742 1698.58,-253.466 1699.89,-253.177"/>
<polygon fill="midnightblue" stroke="midnightblue" points="1701.06,-256.496 1709.98,-250.772 1699.44,-249.687 1701.06,-256.496"/>
</g>
<!-- Node4 -->
<g id="node4" class="node"><title>Node4</title>
<g id="a_node4"><a xlink:title=" ">
<polygon fill="white" stroke="#bfbfbf" points="614.604,-175 614.604,-195 663.396,-195 663.396,-175 614.604,-175"/>
<text text-anchor="middle" x="639" y="-181" font-family="Helvetica,sans-Serif" font-size="10.00">string.h</text>
</a>
</g>
</g>
<!-- Node1&#45;&gt;Node4 -->
<g id="edge3" class="edge"><title>Node1&#45;&gt;Node4</title>
<path fill="none" stroke="midnightblue" d="M1309.9,-290.973C1150.25,-268.076 738.518,-208.651 677,-196 675.76,-195.745 674.499,-195.474 673.229,-195.192"/>
<polygon fill="midnightblue" stroke="midnightblue" points="673.977,-191.772 663.437,-192.85 672.349,-198.58 673.977,-191.772"/>
</g>
<!-- Node5 -->
<g id="node5" class="node"><title>Node5</title>
<g id="a_node5"><a xlink:title=" ">
<polygon fill="white" stroke="#bfbfbf" points="1775.71,-233 1775.71,-253 1822.29,-253 1822.29,-233 1775.71,-233"/>
<text text-anchor="middle" x="1799" y="-239" font-family="Helvetica,sans-Serif" font-size="10.00">math.h</text>
</a>
</g>
</g>
<!-- Node1&#45;&gt;Node5 -->
<g id="edge4" class="edge"><title>Node1&#45;&gt;Node5</title>
<path fill="none" stroke="midnightblue" d="M1441.4,-295.696C1518.11,-290.039 1646.28,-278.106 1765.65,-253.709"/>
<polygon fill="midnightblue" stroke="midnightblue" points="1766.62,-257.083 1775.7,-251.621 1765.19,-250.229 1766.62,-257.083"/>
</g>
<!-- Node6 -->
<g id="node6" class="node"><title>Node6</title>
<g id="a_node6"><a xlink:href="_rexx_core_8h.html" target="_top" xlink:title=" ">
<polygon fill="white" stroke="black" points="1585.6,-233 1585.6,-253 1654.4,-253 1654.4,-233 1585.6,-233"/>
<text text-anchor="middle" x="1620" y="-239" font-family="Helvetica,sans-Serif" font-size="10.00">RexxCore.h</text>
</a>
</g>
</g>
<!-- Node1&#45;&gt;Node6 -->
<g id="edge5" class="edge"><title>Node1&#45;&gt;Node6</title>
<path fill="none" stroke="midnightblue" d="M1412.96,-290.94C1457.39,-280.868 1528.97,-264.639 1575.24,-254.147"/>
<polygon fill="midnightblue" stroke="midnightblue" points="1576.31,-257.495 1585.29,-251.87 1574.76,-250.668 1576.31,-257.495"/>
</g>
<!-- Node51 -->
<g id="node46" class="node"><title>Node51</title>
<g id="a_node46"><a xlink:href="_string_class_8hpp.html" target="_top" xlink:title=" ">
<polygon fill="white" stroke="black" points="448.705,-233 448.705,-253 535.295,-253 535.295,-233 448.705,-233"/>
<text text-anchor="middle" x="492" y="-239" font-family="Helvetica,sans-Serif" font-size="10.00">StringClass.hpp</text>
</a>
</g>
</g>
<!-- Node1&#45;&gt;Node51 -->
<g id="edge52" class="edge"><title>Node1&#45;&gt;Node51</title>
<path fill="none" stroke="midnightblue" d="M1304.56,-295.76C1175.28,-287.736 886.309,-269.722 643,-254 610.776,-251.918 574.689,-249.53 545.875,-247.61"/>
<polygon fill="midnightblue" stroke="midnightblue" points="545.82,-244.098 535.609,-246.925 545.354,-251.083 545.82,-244.098"/>
</g>
<!-- Node70 -->
<g id="node50" class="node"><title>Node70</title>
<g id="a_node50"><a xlink:href="_buffer_class_8hpp.html" target="_top" xlink:title=" ">
<polygon fill="white" stroke="black" points="1840.51,-233 1840.51,-253 1927.49,-253 1927.49,-233 1840.51,-233"/>
<text text-anchor="middle" x="1884" y="-239" font-family="Helvetica,sans-Serif" font-size="10.00">BufferClass.hpp</text>
</a>
</g>
</g>
<!-- Node1&#45;&gt;Node70 -->
<g id="edge60" class="edge"><title>Node1&#45;&gt;Node70</title>
<path fill="none" stroke="midnightblue" d="M1441.51,-294.977C1529.23,-288.129 1686.13,-274.487 1830.45,-253.965"/>
<polygon fill="midnightblue" stroke="midnightblue" points="1830.98,-257.426 1840.38,-252.54 1829.98,-250.497 1830.98,-257.426"/>
</g>
<!-- Node53 -->
<g id="node43" class="node"><title>Node53</title>
<g id="a_node43"><a xlink:href="_number_string_math_8hpp.html" target="_top" xlink:title=" ">
<polygon fill="white" stroke="black" points="-0.691895,-59 -0.691895,-79 118.692,-79 118.692,-59 -0.691895,-59"/>
<text text-anchor="middle" x="59" y="-65" font-family="Helvetica,sans-Serif" font-size="10.00">NumberStringMath.hpp</text>
</a>
</g>
</g>
<!-- Node1&#45;&gt;Node53 -->
<g id="edge61" class="edge"><title>Node1&#45;&gt;Node53</title>
<path fill="none" stroke="midnightblue" d="M1304.3,-298.16C1051.05,-290.882 178.95,-261.26 74,-196 47.1921,-179.33 42.56,-168.086 33,-138 27.4643,-120.579 36.4814,-101.139 45.3752,-87.5211"/>
<polygon fill="midnightblue" stroke="midnightblue" points="48.4031,-89.3019 51.3323,-79.12 42.6929,-85.2529 48.4031,-89.3019"/>
</g>
<!-- Node68 -->
<g id="node44" class="node"><title>Node68</title>
<g id="a_node44"><a xlink:href="_activity_manager_8hpp.html" target="_top" xlink:title=" ">
<polygon fill="white" stroke="black" points="2587.97,-175 2587.97,-195 2694.03,-195 2694.03,-175 2587.97,-175"/>
<text text-anchor="middle" x="2641" y="-181" font-family="Helvetica,sans-Serif" font-size="10.00">ActivityManager.hpp</text>
</a>
</g>
</g>
<!-- Node1&#45;&gt;Node68 -->
<g id="edge62" class="edge"><title>Node1&#45;&gt;Node68</title>
<path fill="none" stroke="midnightblue" d="M1441.54,-296.225C1501.43,-291.274 1589.98,-279.917 1663,-254 1681.39,-247.473 1682.26,-237.448 1701,-232 1885.28,-178.428 2368.01,-214.128 2577.7,-195.836"/>
<polygon fill="midnightblue" stroke="midnightblue" points="2578.15,-199.31 2587.78,-194.894 2577.5,-192.34 2578.15,-199.31"/>
</g>
<!-- Node55 -->
<g id="node48" class="node"><title>Node55</title>
<g id="a_node48"><a xlink:href="_string_util_8hpp.html" target="_top" xlink:title=" ">
<polygon fill="white" stroke="black" points="453.985,-175 453.985,-195 530.015,-195 530.015,-175 453.985,-175"/>
<text text-anchor="middle" x="492" y="-181" font-family="Helvetica,sans-Serif" font-size="10.00">StringUtil.hpp</text>
</a>
</g>
</g>
<!-- Node1&#45;&gt;Node55 -->
<g id="edge63" class="edge"><title>Node1&#45;&gt;Node55</title>
<path fill="none" stroke="midnightblue" d="M1304.42,-298.388C1192.23,-294.94 962.768,-284.488 771,-254 684.733,-240.285 585.862,-213.491 532.049,-197.945"/>
<polygon fill="midnightblue" stroke="midnightblue" points="532.8,-194.519 522.221,-195.086 530.845,-201.24 532.8,-194.519"/>
</g>
<!-- Node7 -->
<g id="node7" class="node"><title>Node7</title>
<g id="a_node7"><a xlink:href="oorexxapi_8h.html" target="_top" xlink:title=" ">
<polygon fill="white" stroke="black" points="719.15,-175 719.15,-195 786.85,-195 786.85,-175 719.15,-175"/>
<text text-anchor="middle" x="753" y="-181" font-family="Helvetica,sans-Serif" font-size="10.00">oorexxapi.h</text>
</a>
</g>
</g>
<!-- Node6&#45;&gt;Node7 -->
<g id="edge6" class="edge"><title>Node6&#45;&gt;Node7</title>
<path fill="none" stroke="midnightblue" d="M1585.42,-240.867C1452.21,-236.381 971.484,-219.047 797.211,-195.897"/>
<polygon fill="midnightblue" stroke="midnightblue" points="797.552,-192.411 787.167,-194.507 796.592,-199.345 797.552,-192.411"/>
</g>
<!-- Node14 -->
<g id="node10" class="node"><title>Node14</title>
<g id="a_node10"><a xlink:title=" ">
<polygon fill="white" stroke="#bfbfbf" points="1760.27,-175 1760.27,-195 1805.73,-195 1805.73,-175 1760.27,-175"/>
<text text-anchor="middle" x="1783" y="-181" font-family="Helvetica,sans-Serif" font-size="10.00">stdio.h</text>
</a>
</g>
</g>
<!-- Node6&#45;&gt;Node14 -->
<g id="edge9" class="edge"><title>Node6&#45;&gt;Node14</title>
<path fill="none" stroke="midnightblue" d="M1646.55,-232.878C1674.92,-223.132 1719.91,-207.675 1750.41,-197.198"/>
<polygon fill="midnightblue" stroke="midnightblue" points="1751.83,-200.411 1760.15,-193.852 1749.55,-193.791 1751.83,-200.411"/>
</g>
<!-- Node15 -->
<g id="node11" class="node"><title>Node15</title>
<g id="a_node11"><a xlink:title=" ">
<polygon fill="white" stroke="#bfbfbf" points="341.934,-117 341.934,-137 394.066,-137 394.066,-117 341.934,-117"/>
<text text-anchor="middle" x="368" y="-123" font-family="Helvetica,sans-Serif" font-size="10.00">stdarg.h</text>
</a>
</g>
</g>
<!-- Node6&#45;&gt;Node15 -->
<g id="edge10" class="edge"><title>Node6&#45;&gt;Node15</title>
<path fill="none" stroke="midnightblue" d="M1585.45,-241.754C1462.51,-240.566 1046.78,-233.781 920,-196 900.928,-190.317 900.045,-179.774 881,-174 680.305,-113.149 614.774,-173.51 404.369,-137.885"/>
<polygon fill="midnightblue" stroke="midnightblue" points="404.692,-134.389 394.239,-136.116 403.487,-141.285 404.692,-134.389"/>
</g>
<!-- Node6&#45;&gt;Node4 -->
<g id="edge11" class="edge"><title>Node6&#45;&gt;Node4</title>
<path fill="none" stroke="midnightblue" d="M1585.34,-240.739C1426.05,-234.882 768.021,-210.039 677,-196 675.921,-195.834 674.829,-195.649 673.729,-195.449"/>
<polygon fill="midnightblue" stroke="midnightblue" points="674.293,-191.99 663.781,-193.314 672.824,-198.835 674.293,-191.99"/>
</g>
<!-- Node6&#45;&gt;Node2 -->
<g id="edge12" class="edge"><title>Node6&#45;&gt;Node2</title>
<path fill="none" stroke="midnightblue" d="M1585.55,-241.549C1433.43,-239.391 820.248,-228.889 606.236,-195.53"/>
<polygon fill="midnightblue" stroke="midnightblue" points="606.782,-192.073 596.35,-193.925 605.659,-198.983 606.782,-192.073"/>
</g>
<!-- Node16 -->
<g id="node12" class="node"><title>Node16</title>
<g id="a_node12"><a xlink:title=" ">
<polygon fill="white" stroke="#bfbfbf" points="1974.44,-175 1974.44,-195 2021.56,-195 2021.56,-175 1974.44,-175"/>
<text text-anchor="middle" x="1998" y="-181" font-family="Helvetica,sans-Serif" font-size="10.00">limits.h</text>
</a>
</g>
</g>
<!-- Node6&#45;&gt;Node16 -->
<g id="edge13" class="edge"><title>Node6&#45;&gt;Node16</title>
<path fill="none" stroke="midnightblue" d="M1654.54,-234.447C1659.06,-233.565 1663.63,-232.723 1668,-232 1797.01,-210.647 1831.59,-220.695 1960,-196 1961.47,-195.718 1962.96,-195.411 1964.46,-195.086"/>
<polygon fill="midnightblue" stroke="midnightblue" points="1965.47,-198.445 1974.4,-192.738 1963.86,-191.632 1965.47,-198.445"/>
</g>
<!-- Node17 -->
<g id="node13" class="node"><title>Node17</title>
<g id="a_node13"><a xlink:href="_rexx_platform_definitions_8h.html" target="_top" xlink:title=" ">
<polygon fill="white" stroke="black" points="929.478,-175 929.478,-195 1060.52,-195 1060.52,-175 929.478,-175"/>
<text text-anchor="middle" x="995" y="-181" font-family="Helvetica,sans-Serif" font-size="10.00">RexxPlatformDefinitions.h</text>
</a>
</g>
</g>
<!-- Node6&#45;&gt;Node17 -->
<g id="edge14" class="edge"><title>Node6&#45;&gt;Node17</title>
<path fill="none" stroke="midnightblue" d="M1585.51,-238.909C1487.74,-230.149 1207.09,-205.003 1070.92,-192.802"/>
<polygon fill="midnightblue" stroke="midnightblue" points="1070.85,-189.282 1060.58,-191.876 1070.22,-196.254 1070.85,-189.282"/>
</g>
<!-- Node20 -->
<g id="node16" class="node"><title>Node20</title>
<g id="a_node16"><a xlink:href="_rexx_constants_8hpp.html" target="_top" xlink:title=" ">
<polygon fill="white" stroke="black" points="2039.36,-175 2039.36,-195 2142.64,-195 2142.64,-175 2039.36,-175"/>
<text text-anchor="middle" x="2091" y="-181" font-family="Helvetica,sans-Serif" font-size="10.00">RexxConstants.hpp</text>
</a>
</g>
</g>
<!-- Node6&#45;&gt;Node20 -->
<g id="edge17" class="edge"><title>Node6&#45;&gt;Node20</title>
<path fill="none" stroke="midnightblue" d="M1654.53,-234.349C1659.05,-233.483 1663.62,-232.671 1668,-232 1824.53,-207.98 1867.93,-216.709 2028.85,-196.07"/>
<polygon fill="midnightblue" stroke="midnightblue" points="2029.65,-199.496 2039.12,-194.735 2028.75,-192.554 2029.65,-199.496"/>
</g>
<!-- Node21 -->
<g id="node17" class="node"><title>Node21</title>
<g id="a_node17"><a xlink:href="_class_type_codes_8h.html" target="_top" xlink:title=" ">
<polygon fill="white" stroke="black" points="1862.03,-59 1862.03,-79 1961.97,-79 1961.97,-59 1862.03,-59"/>
<text text-anchor="middle" x="1912" y="-65" font-family="Helvetica,sans-Serif" font-size="10.00">ClassTypeCodes.h</text>
</a>
</g>
</g>
<!-- Node6&#45;&gt;Node21 -->
<g id="edge18" class="edge"><title>Node6&#45;&gt;Node21</title>
<path fill="none" stroke="midnightblue" d="M1633.13,-232.918C1664.43,-211.428 1746.21,-156.245 1818,-116 1839.19,-104.122 1863.88,-92.1048 1882.64,-83.3329"/>
<polygon fill="midnightblue" stroke="midnightblue" points="1884.26,-86.4405 1891.86,-79.0595 1881.32,-80.0896 1884.26,-86.4405"/>
</g>
<!-- Node22 -->
<g id="node18" class="node"><title>Node22</title>
<g id="a_node18"><a xlink:href="_global_names_8h.html" target="_top" xlink:title=" ">
<polygon fill="white" stroke="black" points="2160.54,-175 2160.54,-195 2245.46,-195 2245.46,-175 2160.54,-175"/>
<text text-anchor="middle" x="2203" y="-181" font-family="Helvetica,sans-Serif" font-size="10.00">GlobalNames.h</text>
</a>
</g>
</g>
<!-- Node6&#45;&gt;Node22 -->
<g id="edge19" class="edge"><title>Node6&#45;&gt;Node22</title>
<path fill="none" stroke="midnightblue" d="M1654.51,-234.246C1659.03,-233.396 1663.62,-232.617 1668,-232 1877.93,-202.438 1935.87,-223.707 2150.49,-195.905"/>
<polygon fill="midnightblue" stroke="midnightblue" points="2151.04,-199.363 2160.5,-194.588 2150.13,-192.423 2151.04,-199.363"/>
</g>
<!-- Node23 -->
<g id="node19" class="node"><title>Node23</title>
<g id="a_node19"><a xlink:href="_object_class_8hpp.html" target="_top" xlink:title=" ">
<polygon fill="white" stroke="black" points="1681.32,-117 1681.32,-137 1770.68,-137 1770.68,-117 1681.32,-117"/>
<text text-anchor="middle" x="1726" y="-123" font-family="Helvetica,sans-Serif" font-size="10.00">ObjectClass.hpp</text>
</a>
</g>
</g>
<!-- Node6&#45;&gt;Node23 -->
<g id="edge20" class="edge"><title>Node6&#45;&gt;Node23</title>
<path fill="none" stroke="midnightblue" d="M1628.67,-232.671C1646.62,-213.369 1688.04,-168.83 1710.62,-144.536"/>
<polygon fill="midnightblue" stroke="midnightblue" points="1713.26,-146.846 1717.5,-137.139 1708.13,-142.079 1713.26,-146.846"/>
</g>
<!-- Node26 -->
<g id="node22" class="node"><title>Node26</title>
<g id="a_node22"><a xlink:href="_table_class_8hpp.html" target="_top" xlink:title=" ">
<polygon fill="white" stroke="black" points="2249.81,-59 2249.81,-79 2334.19,-79 2334.19,-59 2249.81,-59"/>
<text text-anchor="middle" x="2292" y="-65" font-family="Helvetica,sans-Serif" font-size="10.00">TableClass.hpp</text>
</a>
</g>
</g>
<!-- Node6&#45;&gt;Node26 -->
<g id="edge23" class="edge"><title>Node6&#45;&gt;Node26</title>
<path fill="none" stroke="midnightblue" d="M1654.4,-232.946C1655.95,-232.612 1657.49,-232.294 1659,-232 1776.53,-209.091 1812.48,-234.1 1926,-196 1944.87,-189.668 1946.03,-180.031 1965,-174 2039.72,-150.237 2263.46,-196.203 2316,-138 2328.9,-123.706 2317.64,-102.041 2306.59,-87.0221"/>
<polygon fill="midnightblue" stroke="midnightblue" points="2309.24,-84.7295 2300.29,-79.0533 2303.74,-89.0695 2309.24,-84.7295"/>
</g>
<!-- Node29 -->
<g id="node24" class="node"><title>Node29</title>
<g id="a_node24"><a xlink:href="_stack_class_8hpp.html" target="_top" xlink:title=" ">
<polygon fill="white" stroke="black" points="2263.26,-175 2263.26,-195 2348.74,-195 2348.74,-175 2263.26,-175"/>
<text text-anchor="middle" x="2306" y="-181" font-family="Helvetica,sans-Serif" font-size="10.00">StackClass.hpp</text>
</a>
</g>
</g>
<!-- Node6&#45;&gt;Node29 -->
<g id="edge25" class="edge"><title>Node6&#45;&gt;Node29</title>
<path fill="none" stroke="midnightblue" d="M1654.51,-234.192C1659.03,-233.351 1663.61,-232.589 1668,-232 1923.33,-197.741 1993.35,-227.919 2253.11,-195.943"/>
<polygon fill="midnightblue" stroke="midnightblue" points="2253.73,-199.392 2263.22,-194.679 2252.86,-192.446 2253.73,-199.392"/>
</g>
<!-- Node30 -->
<g id="node25" class="node"><title>Node30</title>
<g id="a_node25"><a xlink:href="_rexx_memory_8hpp.html" target="_top" xlink:title=" ">
<polygon fill="white" stroke="black" points="1824.19,-175 1824.19,-195 1917.81,-195 1917.81,-175 1824.19,-175"/>
<text text-anchor="middle" x="1871" y="-181" font-family="Helvetica,sans-Serif" font-size="10.00">RexxMemory.hpp</text>
</a>
</g>
</g>
<!-- Node6&#45;&gt;Node30 -->
<g id="edge26" class="edge"><title>Node6&#45;&gt;Node30</title>
<path fill="none" stroke="midnightblue" d="M1654.64,-234.272C1697.67,-224.672 1771.41,-208.219 1820.68,-197.227"/>
<polygon fill="midnightblue" stroke="midnightblue" points="1821.49,-200.631 1830.49,-195.037 1819.97,-193.799 1821.49,-200.631"/>
</g>
<!-- Node37 -->
<g id="node30" class="node"><title>Node37</title>
<g id="a_node30"><a xlink:href="_rexx_behaviour_8hpp.html" target="_top" xlink:title=" ">
<polygon fill="white" stroke="black" points="1182.64,-175 1182.64,-195 1285.36,-195 1285.36,-175 1182.64,-175"/>
<text text-anchor="middle" x="1234" y="-181" font-family="Helvetica,sans-Serif" font-size="10.00">RexxBehaviour.hpp</text>
</a>
</g>
</g>
<!-- Node6&#45;&gt;Node37 -->
<g id="edge34" class="edge"><title>Node6&#45;&gt;Node37</title>
<path fill="none" stroke="midnightblue" d="M1585.41,-236.981C1520.03,-227.497 1377.58,-206.83 1295.54,-194.927"/>
<polygon fill="midnightblue" stroke="midnightblue" points="1295.99,-191.457 1285.59,-193.485 1294.99,-198.385 1295.99,-191.457"/>
</g>
<!-- Node39 -->
<g id="node32" class="node"><title>Node39</title>
<g id="a_node32"><a xlink:href="_class_class_8hpp.html" target="_top" xlink:title=" ">
<polygon fill="white" stroke="black" points="2366.26,-175 2366.26,-195 2451.74,-195 2451.74,-175 2366.26,-175"/>
<text text-anchor="middle" x="2409" y="-181" font-family="Helvetica,sans-Serif" font-size="10.00">ClassClass.hpp</text>
</a>
</g>
</g>
<!-- Node6&#45;&gt;Node39 -->
<g id="edge36" class="edge"><title>Node6&#45;&gt;Node39</title>
<path fill="none" stroke="midnightblue" d="M1654.5,-234.153C1659.02,-233.319 1663.61,-232.569 1668,-232 1968.83,-193.037 2050.85,-232.183 2356.2,-195.918"/>
<polygon fill="midnightblue" stroke="midnightblue" points="2356.72,-199.381 2366.22,-194.71 2355.88,-192.432 2356.72,-199.381"/>
</g>
<!-- Node40 -->
<g id="node33" class="node"><title>Node40</title>
<g id="a_node33"><a xlink:href="_rexx_envelope_8hpp.html" target="_top" xlink:title=" ">
<polygon fill="white" stroke="black" points="2470.03,-175 2470.03,-195 2569.97,-195 2569.97,-175 2470.03,-175"/>
<text text-anchor="middle" x="2520" y="-181" font-family="Helvetica,sans-Serif" font-size="10.00">RexxEnvelope.hpp</text>
</a>
</g>
</g>
<!-- Node6&#45;&gt;Node40 -->
<g id="edge37" class="edge"><title>Node6&#45;&gt;Node40</title>
<path fill="none" stroke="midnightblue" d="M1654.5,-234.125C1659.02,-233.295 1663.61,-232.554 1668,-232 2017.6,-187.926 2109.59,-233.03 2460,-196 2460.1,-195.989 2460.2,-195.978 2460.31,-195.968"/>
<polygon fill="midnightblue" stroke="midnightblue" points="2460.46,-199.474 2469.97,-194.798 2459.62,-192.525 2460.46,-199.474"/>
</g>
<!-- Node41 -->
<g id="node34" class="node"><title>Node41</title>
<g id="a_node34"><a xlink:href="_rexx_activity_8hpp.html" target="_top" xlink:title=" ">
<polygon fill="white" stroke="red" points="1355.41,-175 1355.41,-195 1444.59,-195 1444.59,-175 1355.41,-175"/>
<text text-anchor="middle" x="1400" y="-181" font-family="Helvetica,sans-Serif" font-size="10.00">RexxActivity.hpp</text>
</a>
</g>
</g>
<!-- Node6&#45;&gt;Node41 -->
<g id="edge38" class="edge"><title>Node6&#45;&gt;Node41</title>
<path fill="none" stroke="midnightblue" d="M1585.14,-233.127C1547.31,-223.496 1486.76,-208.084 1445.27,-197.524"/>
<polygon fill="midnightblue" stroke="midnightblue" points="1445.98,-194.092 1435.43,-195.017 1444.25,-200.876 1445.98,-194.092"/>
</g>
<!-- Node52 -->
<g id="node42" class="node"><title>Node52</title>
<g id="a_node42"><a xlink:href="_number_string_class_8hpp.html" target="_top" xlink:title=" ">
<polygon fill="white" stroke="black" points="41.9214,-117 41.9214,-137 164.079,-137 164.079,-117 41.9214,-117"/>
<text text-anchor="middle" x="103" y="-123" font-family="Helvetica,sans-Serif" font-size="10.00">NumberStringClass.hpp</text>
</a>
</g>
</g>
<!-- Node6&#45;&gt;Node52 -->
<g id="edge47" class="edge"><title>Node6&#45;&gt;Node52</title>
<path fill="none" stroke="midnightblue" d="M1585.51,-242.413C1440.32,-243.82 878.564,-245.871 710,-196 691.287,-190.464 690.653,-179.737 672,-174 462.586,-109.586 396.031,-160.207 174.417,-138.06"/>
<polygon fill="midnightblue" stroke="midnightblue" points="174.738,-134.574 164.43,-137.023 174.015,-141.537 174.738,-134.574"/>
</g>
<!-- Node6&#45;&gt;Node68 -->
<g id="edge50" class="edge"><title>Node6&#45;&gt;Node68</title>
<path fill="none" stroke="midnightblue" d="M1654.49,-234.1C1659.02,-233.274 1663.61,-232.541 1668,-232 2066.39,-182.964 2173.43,-234.919 2577.57,-195.898"/>
<polygon fill="midnightblue" stroke="midnightblue" points="2578.17,-199.356 2587.78,-194.899 2577.49,-192.39 2578.17,-199.356"/>
</g>
<!-- Node8 -->
<g id="node8" class="node"><title>Node8</title>
<g id="a_node8"><a xlink:href="rexx_8h.html" target="_top" xlink:title=" ">
<polygon fill="white" stroke="red" points="280.384,-117 280.384,-137 323.616,-137 323.616,-117 280.384,-117"/>
<text text-anchor="middle" x="302" y="-123" font-family="Helvetica,sans-Serif" font-size="10.00">rexx.h</text>
</a>
</g>
</g>
<!-- Node7&#45;&gt;Node8 -->
<g id="edge7" class="edge"><title>Node7&#45;&gt;Node8</title>
<path fill="none" stroke="midnightblue" d="M718.994,-176.438C714.307,-175.536 709.544,-174.691 705,-174 543.99,-149.512 497.461,-170.826 333.782,-137.739"/>
<polygon fill="midnightblue" stroke="midnightblue" points="334.359,-134.284 323.859,-135.696 332.947,-141.141 334.359,-134.284"/>
</g>
<!-- Node13 -->
<g id="node9" class="node"><title>Node13</title>
<g id="a_node9"><a xlink:href="oorexxerrors_8h.html" target="_top" xlink:title=" ">
<polygon fill="white" stroke="black" points="181.766,-117 181.766,-137 262.234,-137 262.234,-117 181.766,-117"/>
<text text-anchor="middle" x="222" y="-123" font-family="Helvetica,sans-Serif" font-size="10.00">oorexxerrors.h</text>
</a>
</g>
</g>
<!-- Node7&#45;&gt;Node13 -->
<g id="edge8" class="edge"><title>Node7&#45;&gt;Node13</title>
<path fill="none" stroke="midnightblue" d="M719.003,-176.38C714.315,-175.486 709.549,-174.66 705,-174 516.728,-146.685 464.381,-164.757 272.45,-138.055"/>
<polygon fill="midnightblue" stroke="midnightblue" points="272.702,-134.556 262.311,-136.621 271.722,-141.487 272.702,-134.556"/>
</g>
<!-- Node18 -->
<g id="node14" class="node"><title>Node18</title>
<g id="a_node14"><a xlink:title=" ">
<polygon fill="white" stroke="#bfbfbf" points="527.87,-117 527.87,-137 636.13,-137 636.13,-117 527.87,-117"/>
<text text-anchor="middle" x="582" y="-123" font-family="Helvetica,sans-Serif" font-size="10.00">PlatformDefinitions.h</text>
</a>
</g>
</g>
<!-- Node17&#45;&gt;Node18 -->
<g id="edge15" class="edge"><title>Node17&#45;&gt;Node18</title>
<path fill="none" stroke="midnightblue" d="M929.46,-175.599C848.139,-165.14 712.988,-147.635 646.367,-138.16"/>
<polygon fill="midnightblue" stroke="midnightblue" points="646.678,-134.669 636.282,-136.711 645.682,-141.598 646.678,-134.669"/>
</g>
<!-- Node19 -->
<g id="node15" class="node"><title>Node19</title>
<g id="a_node15"><a xlink:href="_rexx_error_codes_8h.html" target="_top" xlink:title=" ">
<polygon fill="white" stroke="black" points="411.875,-117 411.875,-137 510.125,-137 510.125,-117 411.875,-117"/>
<text text-anchor="middle" x="461" y="-123" font-family="Helvetica,sans-Serif" font-size="10.00">RexxErrorCodes.h</text>
</a>
</g>
</g>
<!-- Node17&#45;&gt;Node19 -->
<g id="edge16" class="edge"><title>Node17&#45;&gt;Node19</title>
<path fill="none" stroke="midnightblue" d="M929.099,-175.584C924.33,-175.03 919.592,-174.496 915,-174 742.555,-155.389 695.936,-160.818 520.415,-138.099"/>
<polygon fill="midnightblue" stroke="midnightblue" points="520.689,-134.605 510.32,-136.78 519.782,-141.546 520.689,-134.605"/>
</g>
<!-- Node24 -->
<g id="node20" class="node"><title>Node24</title>
<g id="a_node20"><a xlink:href="_numerics_8hpp.html" target="_top" xlink:title=" ">
<polygon fill="white" stroke="black" points="917.155,-59 917.155,-79 994.845,-79 994.845,-59 917.155,-59"/>
<text text-anchor="middle" x="956" y="-65" font-family="Helvetica,sans-Serif" font-size="10.00">Numerics.hpp</text>
</a>
</g>
</g>
<!-- Node23&#45;&gt;Node24 -->
<g id="edge21" class="edge"><title>Node23&#45;&gt;Node24</title>
<path fill="none" stroke="midnightblue" d="M1681.27,-117.294C1678.14,-116.815 1675.03,-116.376 1672,-116 1422.42,-84.9854 1121.14,-74.2791 1004.97,-71.1393"/>
<polygon fill="midnightblue" stroke="midnightblue" points="1005.05,-67.6403 994.959,-70.8753 1004.86,-74.6379 1005.05,-67.6403"/>
</g>
<!-- Node25 -->
<g id="node21" class="node"><title>Node25</title>
<g id="a_node21"><a xlink:title=" ">
<polygon fill="white" stroke="#bfbfbf" points="1746.21,-59 1746.21,-79 1797.79,-79 1797.79,-59 1746.21,-59"/>
<text text-anchor="middle" x="1772" y="-65" font-family="Helvetica,sans-Serif" font-size="10.00">stddef.h</text>
</a>
</g>
</g>
<!-- Node23&#45;&gt;Node25 -->
<g id="edge22" class="edge"><title>Node23&#45;&gt;Node25</title>
<path fill="none" stroke="midnightblue" d="M1733.6,-116.753C1740.23,-108.68 1750.02,-96.7571 1758.06,-86.9727"/>
<polygon fill="midnightblue" stroke="midnightblue" points="1760.9,-89.0241 1764.55,-79.0752 1755.49,-84.5809 1760.9,-89.0241"/>
</g>
<!-- Node27 -->
<g id="node23" class="node"><title>Node27</title>
<g id="a_node23"><a xlink:href="_rexx_collection_8hpp.html" target="_top" xlink:title=" ">
<polygon fill="white" stroke="red" points="2240.92,-1 2240.92,-21 2343.08,-21 2343.08,-1 2240.92,-1"/>
<text text-anchor="middle" x="2292" y="-7" font-family="Helvetica,sans-Serif" font-size="10.00">RexxCollection.hpp</text>
</a>
</g>
</g>
<!-- Node26&#45;&gt;Node27 -->
<g id="edge24" class="edge"><title>Node26&#45;&gt;Node27</title>
<path fill="none" stroke="midnightblue" d="M2292,-58.7527C2292,-51.2504 2292,-40.4238 2292,-31.0781"/>
<polygon fill="midnightblue" stroke="midnightblue" points="2295.5,-31.0752 2292,-21.0752 2288.5,-31.0752 2295.5,-31.0752"/>
</g>
<!-- Node31 -->
<g id="node26" class="node"><title>Node31</title>
<g id="a_node26"><a xlink:title=" ">
<polygon fill="white" stroke="#bfbfbf" points="2069.08,-117 2069.08,-137 2172.92,-137 2172.92,-117 2069.08,-117"/>
<text text-anchor="middle" x="2121" y="-123" font-family="Helvetica,sans-Serif" font-size="10.00">SysSemaphore.hpp</text>
</a>
</g>
</g>
<!-- Node30&#45;&gt;Node31 -->
<g id="edge27" class="edge"><title>Node30&#45;&gt;Node31</title>
<path fill="none" stroke="midnightblue" d="M1911.44,-174.94C1954.83,-165.222 2023.81,-149.771 2070.67,-139.273"/>
<polygon fill="midnightblue" stroke="midnightblue" points="2071.62,-142.648 2080.61,-137.047 2070.09,-135.817 2071.62,-142.648"/>
</g>
<!-- Node32 -->
<g id="node27" class="node"><title>Node32</title>
<g id="a_node27"><a xlink:href="_identity_table_class_8hpp.html" target="_top" xlink:title=" ">
<polygon fill="white" stroke="black" points="2190.69,-117 2190.69,-137 2307.31,-137 2307.31,-117 2190.69,-117"/>
<text text-anchor="middle" x="2249" y="-123" font-family="Helvetica,sans-Serif" font-size="10.00">IdentityTableClass.hpp</text>
</a>
</g>
</g>
<!-- Node30&#45;&gt;Node32 -->
<g id="edge28" class="edge"><title>Node30&#45;&gt;Node32</title>
<path fill="none" stroke="midnightblue" d="M1917.94,-176.213C1922.69,-175.453 1927.44,-174.703 1932,-174 2039.38,-157.437 2068.71,-154.306 2180.41,-138.08"/>
<polygon fill="midnightblue" stroke="midnightblue" points="2181,-141.531 2190.4,-136.627 2180,-134.604 2181,-141.531"/>
</g>
<!-- Node33 -->
<g id="node28" class="node"><title>Node33</title>
<g id="a_node28"><a xlink:href="_memory_stats_8hpp.html" target="_top" xlink:title=" ">
<polygon fill="white" stroke="black" points="1956.82,-117 1956.82,-137 2051.18,-137 2051.18,-117 1956.82,-117"/>
<text text-anchor="middle" x="2004" y="-123" font-family="Helvetica,sans-Serif" font-size="10.00">MemoryStats.hpp</text>
</a>
</g>
</g>
<!-- Node30&#45;&gt;Node33 -->
<g id="edge30" class="edge"><title>Node30&#45;&gt;Node33</title>
<path fill="none" stroke="midnightblue" d="M1892.66,-174.878C1914.5,-165.685 1948.4,-151.409 1973.06,-141.026"/>
<polygon fill="midnightblue" stroke="midnightblue" points="1974.49,-144.224 1982.34,-137.118 1971.77,-137.773 1974.49,-144.224"/>
</g>
<!-- Node34 -->
<g id="node29" class="node"><title>Node34</title>
<g id="a_node29"><a xlink:href="_memory_segment_8hpp.html" target="_top" xlink:title=" ">
<polygon fill="white" stroke="red" points="1827.2,-117 1827.2,-137 1938.8,-137 1938.8,-117 1827.2,-117"/>
<text text-anchor="middle" x="1883" y="-123" font-family="Helvetica,sans-Serif" font-size="10.00">MemorySegment.hpp</text>
</a>
</g>
</g>
<!-- Node30&#45;&gt;Node34 -->
<g id="edge32" class="edge"><title>Node30&#45;&gt;Node34</title>
<path fill="none" stroke="midnightblue" d="M1872.98,-174.753C1874.59,-167.25 1876.91,-156.424 1878.91,-147.078"/>
<polygon fill="midnightblue" stroke="midnightblue" points="1882.38,-147.587 1881.06,-137.075 1875.54,-146.12 1882.38,-147.587"/>
</g>
<!-- Node32&#45;&gt;Node26 -->
<g id="edge29" class="edge"><title>Node32&#45;&gt;Node26</title>
<path fill="none" stroke="midnightblue" d="M2256.1,-116.753C2262.24,-108.761 2271.27,-96.9975 2278.74,-87.2698"/>
<polygon fill="midnightblue" stroke="midnightblue" points="2281.72,-89.1383 2285.03,-79.0752 2276.17,-84.8751 2281.72,-89.1383"/>
</g>
<!-- Node33&#45;&gt;Node21 -->
<g id="edge31" class="edge"><title>Node33&#45;&gt;Node21</title>
<path fill="none" stroke="midnightblue" d="M1988.81,-116.753C1974.34,-107.946 1952.34,-94.5575 1935.59,-84.3617"/>
<polygon fill="midnightblue" stroke="midnightblue" points="1937.27,-81.285 1926.91,-79.0752 1933.63,-87.2644 1937.27,-81.285"/>
</g>
<!-- Node34&#45;&gt;Node25 -->
<g id="edge33" class="edge"><title>Node34&#45;&gt;Node25</title>
<path fill="none" stroke="midnightblue" d="M1864.67,-116.753C1846.81,-107.742 1819.44,-93.9353 1799.07,-83.6589"/>
<polygon fill="midnightblue" stroke="midnightblue" points="1800.49,-80.4547 1789.99,-79.0752 1797.34,-86.7044 1800.49,-80.4547"/>
</g>
<!-- Node38 -->
<g id="node31" class="node"><title>Node38</title>
<g id="a_node31"><a xlink:href="_primitive_behaviour_names_8h.html" target="_top" xlink:title=" ">
<polygon fill="white" stroke="black" points="654.311,-117 654.311,-137 793.689,-137 793.689,-117 654.311,-117"/>
<text text-anchor="middle" x="724" y="-123" font-family="Helvetica,sans-Serif" font-size="10.00">PrimitiveBehaviourNames.h</text>
</a>
</g>
</g>
<!-- Node37&#45;&gt;Node38 -->
<g id="edge35" class="edge"><title>Node37&#45;&gt;Node38</title>
<path fill="none" stroke="midnightblue" d="M1182.55,-178.838C1103.59,-170.843 947.506,-154.754 804.081,-138.107"/>
<polygon fill="midnightblue" stroke="midnightblue" points="804.116,-134.588 793.778,-136.908 803.306,-141.541 804.116,-134.588"/>
</g>
<!-- Node42 -->
<g id="node35" class="node"><title>Node42</title>
<g id="a_node35"><a xlink:href="_list_class_8hpp.html" target="_top" xlink:title=" ">
<polygon fill="white" stroke="red" points="1482.99,-117 1482.99,-137 1559.01,-137 1559.01,-117 1482.99,-117"/>
<text text-anchor="middle" x="1521" y="-123" font-family="Helvetica,sans-Serif" font-size="10.00">ListClass.hpp</text>
</a>
</g>
</g>
<!-- Node41&#45;&gt;Node42 -->
<g id="edge39" class="edge"><title>Node41&#45;&gt;Node42</title>
<path fill="none" stroke="midnightblue" d="M1419.71,-174.878C1439.31,-165.807 1469.6,-151.788 1491.96,-141.442"/>
<polygon fill="midnightblue" stroke="midnightblue" points="1493.69,-144.495 1501.3,-137.118 1490.75,-138.142 1493.69,-144.495"/>
</g>
<!-- Node44 -->
<g id="node36" class="node"><title>Node44</title>
<g id="a_node36"><a xlink:href="_rexx_internal_stack_8hpp.html" target="_top" xlink:title=" ">
<polygon fill="white" stroke="black" points="811.695,-117 811.695,-137 928.305,-137 928.305,-117 811.695,-117"/>
<text text-anchor="middle" x="870" y="-123" font-family="Helvetica,sans-Serif" font-size="10.00">RexxInternalStack.hpp</text>
</a>
</g>
</g>
<!-- Node41&#45;&gt;Node44 -->
<g id="edge40" class="edge"><title>Node41&#45;&gt;Node44</title>
<path fill="none" stroke="midnightblue" d="M1355.21,-179.661C1253.19,-169.762 1007.64,-145.837 938.71,-137.988"/>
<polygon fill="midnightblue" stroke="midnightblue" points="938.923,-134.489 928.582,-136.793 938.103,-141.44 938.923,-134.489"/>
</g>
<!-- Node45 -->
<g id="node37" class="node"><title>Node45</title>
<g id="a_node37"><a xlink:href="_rexx_activation_stack_8hpp.html" target="_top" xlink:title=" ">
<polygon fill="white" stroke="black" points="946.695,-117 946.695,-137 1073.31,-137 1073.31,-117 946.695,-117"/>
<text text-anchor="middle" x="1010" y="-123" font-family="Helvetica,sans-Serif" font-size="10.00">RexxActivationStack.hpp</text>
</a>
</g>
</g>
<!-- Node41&#45;&gt;Node45 -->
<g id="edge41" class="edge"><title>Node41&#45;&gt;Node45</title>
<path fill="none" stroke="midnightblue" d="M1355.26,-177.576C1288.68,-168.016 1162.8,-149.941 1082.83,-138.458"/>
<polygon fill="midnightblue" stroke="midnightblue" points="1083.23,-134.979 1072.83,-137.022 1082.23,-141.908 1083.23,-134.979"/>
</g>
<!-- Node46 -->
<g id="node38" class="node"><title>Node46</title>
<g id="a_node38"><a xlink:href="_expression_stack_8hpp.html" target="_top" xlink:title=" ">
<polygon fill="white" stroke="red" points="1091.03,-117 1091.03,-137 1200.97,-137 1200.97,-117 1091.03,-117"/>
<text text-anchor="middle" x="1146" y="-123" font-family="Helvetica,sans-Serif" font-size="10.00">ExpressionStack.hpp</text>
</a>
</g>
</g>
<!-- Node41&#45;&gt;Node46 -->
<g id="edge42" class="edge"><title>Node41&#45;&gt;Node46</title>
<path fill="none" stroke="midnightblue" d="M1358.91,-174.94C1314.73,-165.201 1244.45,-149.706 1196.83,-139.207"/>
<polygon fill="midnightblue" stroke="midnightblue" points="1197.55,-135.782 1187.03,-137.047 1196.04,-142.618 1197.55,-135.782"/>
</g>
<!-- Node48 -->
<g id="node39" class="node"><title>Node48</title>
<g id="a_node39"><a xlink:href="_rexx_local_variables_8hpp.html" target="_top" xlink:title=" ">
<polygon fill="white" stroke="red" points="1219.45,-117 1219.45,-137 1342.55,-137 1342.55,-117 1219.45,-117"/>
<text text-anchor="middle" x="1281" y="-123" font-family="Helvetica,sans-Serif" font-size="10.00">RexxLocalVariables.hpp</text>
</a>
</g>
</g>
<!-- Node41&#45;&gt;Node48 -->
<g id="edge43" class="edge"><title>Node41&#45;&gt;Node48</title>
<path fill="none" stroke="midnightblue" d="M1380.62,-174.878C1361.34,-165.807 1331.55,-151.788 1309.56,-141.442"/>
<polygon fill="midnightblue" stroke="midnightblue" points="1310.91,-138.209 1300.38,-137.118 1307.93,-144.543 1310.91,-138.209"/>
</g>
<!-- Node63 -->
<g id="node40" class="node"><title>Node63</title>
<g id="a_node40"><a xlink:href="_source_location_8hpp.html" target="_top" xlink:title=" ">
<polygon fill="white" stroke="black" points="1360.52,-117 1360.52,-137 1465.48,-137 1465.48,-117 1360.52,-117"/>
<text text-anchor="middle" x="1413" y="-123" font-family="Helvetica,sans-Serif" font-size="10.00">SourceLocation.hpp</text>
</a>
</g>
</g>
<!-- Node41&#45;&gt;Node63 -->
<g id="edge44" class="edge"><title>Node41&#45;&gt;Node63</title>
<path fill="none" stroke="midnightblue" d="M1402.15,-174.753C1403.89,-167.25 1406.4,-156.424 1408.57,-147.078"/>
<polygon fill="midnightblue" stroke="midnightblue" points="1412.04,-147.608 1410.89,-137.075 1405.22,-146.025 1412.04,-147.608"/>
</g>
<!-- Node64 -->
<g id="node41" class="node"><title>Node64</title>
<g id="a_node41"><a xlink:href="_exit_handler_8hpp.html" target="_top" xlink:title=" ">
<polygon fill="white" stroke="red" points="1576.7,-117 1576.7,-137 1663.3,-137 1663.3,-117 1576.7,-117"/>
<text text-anchor="middle" x="1620" y="-123" font-family="Helvetica,sans-Serif" font-size="10.00">ExitHandler.hpp</text>
</a>
</g>
</g>
<!-- Node41&#45;&gt;Node64 -->
<g id="edge45" class="edge"><title>Node41&#45;&gt;Node64</title>
<path fill="none" stroke="midnightblue" d="M1435.84,-174.878C1473.74,-165.229 1533.64,-149.982 1574.77,-139.512"/>
<polygon fill="midnightblue" stroke="midnightblue" points="1575.72,-142.884 1584.54,-137.025 1573.99,-136.1 1575.72,-142.884"/>
</g>
<!-- Node64&#45;&gt;Node6 -->
<g id="edge46" class="edge"><title>Node64&#45;&gt;Node6</title>
<path fill="none" stroke="midnightblue" d="M1620,-137.139C1620,-155.609 1620,-197.731 1620,-222.603"/>
<polygon fill="midnightblue" stroke="midnightblue" points="1616.5,-222.671 1620,-232.671 1623.5,-222.671 1616.5,-222.671"/>
</g>
<!-- Node52&#45;&gt;Node24 -->
<g id="edge48" class="edge"><title>Node52&#45;&gt;Node24</title>
<path fill="none" stroke="midnightblue" d="M164.047,-116.974C167.071,-116.623 170.069,-116.295 173,-116 449.466,-88.1801 782.67,-75.4841 906.513,-71.4771"/>
<polygon fill="midnightblue" stroke="midnightblue" points="906.918,-74.966 916.802,-71.1487 906.695,-67.9696 906.918,-74.966"/>
</g>
<!-- Node52&#45;&gt;Node53 -->
<g id="edge49" class="edge"><title>Node52&#45;&gt;Node53</title>
<path fill="none" stroke="midnightblue" d="M95.7343,-116.753C89.3911,-108.68 80.0234,-96.7571 72.3357,-86.9727"/>
<polygon fill="midnightblue" stroke="midnightblue" points="75.0609,-84.776 66.1305,-79.0752 69.5566,-89.1008 75.0609,-84.776"/>
</g>
<!-- Node69 -->
<g id="node45" class="node"><title>Node69</title>
<g id="a_node45"><a xlink:title=" ">
<polygon fill="white" stroke="#bfbfbf" points="2619.1,-117 2619.1,-137 2662.9,-137 2662.9,-117 2619.1,-117"/>
<text text-anchor="middle" x="2641" y="-123" font-family="Helvetica,sans-Serif" font-size="10.00">deque</text>
</a>
</g>
</g>
<!-- Node68&#45;&gt;Node69 -->
<g id="edge51" class="edge"><title>Node68&#45;&gt;Node69</title>
<path fill="none" stroke="midnightblue" d="M2641,-174.753C2641,-167.25 2641,-156.424 2641,-147.078"/>
<polygon fill="midnightblue" stroke="midnightblue" points="2644.5,-147.075 2641,-137.075 2637.5,-147.075 2644.5,-147.075"/>
</g>
<!-- Node51&#45;&gt;Node52 -->
<g id="edge53" class="edge"><title>Node51&#45;&gt;Node52</title>
<path fill="none" stroke="midnightblue" d="M461.151,-232.959C391.499,-212.547 222.051,-162.889 143.821,-139.963"/>
<polygon fill="midnightblue" stroke="midnightblue" points="144.433,-136.495 133.853,-137.042 142.465,-143.213 144.433,-136.495"/>
</g>
<!-- Node54 -->
<g id="node47" class="node"><title>Node54</title>
<g id="a_node47"><a xlink:href="_integer_class_8hpp.html" target="_top" xlink:title=" ">
<polygon fill="white" stroke="black" points="83.1997,-175 83.1997,-195 174.8,-195 174.8,-175 83.1997,-175"/>
<text text-anchor="middle" x="129" y="-181" font-family="Helvetica,sans-Serif" font-size="10.00">IntegerClass.hpp</text>
</a>
</g>
</g>
<!-- Node51&#45;&gt;Node54 -->
<g id="edge54" class="edge"><title>Node51&#45;&gt;Node54</title>
<path fill="none" stroke="midnightblue" d="M448.574,-235.301C382.702,-225.139 257.531,-205.828 184.93,-194.628"/>
<polygon fill="midnightblue" stroke="midnightblue" points="185.463,-191.169 175.046,-193.104 184.396,-198.087 185.463,-191.169"/>
</g>
<!-- Node51&#45;&gt;Node55 -->
<g id="edge56" class="edge"><title>Node51&#45;&gt;Node55</title>
<path fill="none" stroke="midnightblue" d="M492,-232.753C492,-225.25 492,-214.424 492,-205.078"/>
<polygon fill="midnightblue" stroke="midnightblue" points="495.5,-205.075 492,-195.075 488.5,-205.075 495.5,-205.075"/>
</g>
<!-- Node56 -->
<g id="node49" class="node"><title>Node56</title>
<g id="a_node49"><a xlink:href="_utilities_8hpp.html" target="_top" xlink:title=" ">
<polygon fill="white" stroke="red" points="805.155,-175 805.155,-195 872.845,-195 872.845,-175 805.155,-175"/>
<text text-anchor="middle" x="839" y="-181" font-family="Helvetica,sans-Serif" font-size="10.00">Utilities.hpp</text>
</a>
</g>
</g>
<!-- Node51&#45;&gt;Node56 -->
<g id="edge57" class="edge"><title>Node51&#45;&gt;Node56</title>
<path fill="none" stroke="midnightblue" d="M535.32,-236.433C594.279,-228.627 702.99,-213.416 795,-196 795.101,-195.981 795.202,-195.962 795.303,-195.942"/>
<polygon fill="midnightblue" stroke="midnightblue" points="795.831,-199.407 804.941,-193.998 794.447,-192.545 795.831,-199.407"/>
</g>
<!-- Node54&#45;&gt;Node52 -->
<g id="edge55" class="edge"><title>Node54&#45;&gt;Node52</title>
<path fill="none" stroke="midnightblue" d="M124.707,-174.753C121.11,-167.006 115.867,-155.714 111.435,-146.169"/>
<polygon fill="midnightblue" stroke="midnightblue" points="114.599,-144.671 107.213,-137.075 108.25,-147.619 114.599,-144.671"/>
</g>
<!-- Node56&#45;&gt;Node8 -->
<g id="edge58" class="edge"><title>Node56&#45;&gt;Node8</title>
<path fill="none" stroke="midnightblue" d="M804.984,-175.754C801.623,-175.095 798.253,-174.494 795,-174 594.657,-143.594 536.91,-176.784 333.938,-137.726"/>
<polygon fill="midnightblue" stroke="midnightblue" points="334.334,-134.237 323.848,-135.748 332.988,-141.106 334.334,-134.237"/>
</g>
<!-- Node56&#45;&gt;Node15 -->
<g id="edge59" class="edge"><title>Node56&#45;&gt;Node15</title>
<path fill="none" stroke="midnightblue" d="M804.976,-175.801C801.617,-175.132 798.249,-174.516 795,-174 625.417,-147.063 576.768,-169.313 404.171,-137.908"/>
<polygon fill="midnightblue" stroke="midnightblue" points="404.718,-134.45 394.248,-136.068 403.442,-141.332 404.718,-134.45"/>
</g>
</g>
</svg>
