<?xml version="1.0" encoding="UTF-8" standalone="no"?>
<!DOCTYPE svg PUBLIC "-//W3C//DTD SVG 1.1//EN"
 "http://www.w3.org/Graphics/SVG/1.1/DTD/svg11.dtd">
<!-- Generated by graphviz version 12.1.0 (20240811.2233)
 -->
<!-- Title: StringClassConversion.cpp Pages: 1 -->
<!--zoomable 310 -->
<svg id="main" version="1.1" xmlns="http://www.w3.org/2000/svg" xmlns:xlink="http://www.w3.org/1999/xlink" xml:space="preserve" onload="init(evt)">
<style type="text/css"><![CDATA[
.edge:hover path { stroke: red; }
.edge:hover polygon { stroke: red; fill: red; }
]]></style>
<script type="text/javascript"><![CDATA[
var edges = document.getElementsByTagName('g');
if (edges && edges.length) {
  for (var i=0;i<edges.length;i++) {
    if (edges[i].id.substr(0,4)=='edge') {
      edges[i].setAttribute('class','edge');
    }
  }
}
]]></script>
        <defs>
                <circle id="rim" cx="0" cy="0" r="7"/>
                <circle id="rim2" cx="0" cy="0" r="3.5"/>
                <g id="zoomPlus">
                        <use xlink:href="#rim" fill="#404040">
                                <set attributeName="fill" to="#808080" begin="zoomplus.mouseover" end="zoomplus.mouseout"/>
                        </use>
                        <path d="M-4,0h8M0,-4v8" fill="none" stroke="white" stroke-width="1.5" pointer-events="none"/>
                </g>
                <g id="zoomMin">
                        <use xlink:href="#rim" fill="#404040">
                                <set attributeName="fill" to="#808080" begin="zoomminus.mouseover" end="zoomminus.mouseout"/>
                        </use>
                        <path d="M-4,0h8" fill="none" stroke="white" stroke-width="1.5" pointer-events="none"/>
                </g>
                <g id="dirArrow">
                        <path fill="none" stroke="white" stroke-width="1.5" d="M0,-3.0v7 M-2.5,-0.5L0,-3.0L2.5,-0.5"/>
                </g>
               <g id="resetDef">
                       <use xlink:href="#rim2" fill="#404040">
                               <set attributeName="fill" to="#808080" begin="reset.mouseover" end="reset.mouseout"/>
                       </use>
               </g>
        </defs>

<script type="text/javascript">
var viewWidth = 2573;
var viewHeight = 310;
var sectionId = 'dynsection-0';
</script>
<script xlink:href="svgpan.js"/>
<svg id="graph" class="graph">
<g id="viewport">
<title>StringClassConversion.cpp</title>
<polygon fill="white" stroke="none" points="-4,4 -4,-305.5 2568.87,-305.5 2568.87,4 -4,4"/>
<!-- Node1 -->
<g id="node1" class="node">
<title>Node1</title>
<g id="a_node1"><a xlink:title=" ">
<polygon fill="#bfbfbf" stroke="black" points="783.99,-281.75 783.99,-301 919.24,-301 919.24,-281.75 783.99,-281.75"/>
<text text-anchor="middle" x="851.62" y="-287.5" font-family="Helvetica,sans-Serif" font-size="10.00">StringClassConversion.cpp</text>
</a>
</g>
</g>
<!-- Node2 -->
<g id="node2" class="node">
<title>Node2</title>
<g id="a_node2"><a xlink:title=" ">
<polygon fill="white" stroke="#bfbfbf" points="342.49,-169.25 342.49,-188.5 390.74,-188.5 390.74,-169.25 342.49,-169.25"/>
<text text-anchor="middle" x="366.62" y="-175" font-family="Helvetica,sans-Serif" font-size="10.00">ctype.h</text>
</a>
</g>
</g>
<!-- Node1&#45;&gt;Node2 -->
<g id="edge1" class="edge">
<title>Node1&#45;&gt;Node2</title>
<path fill="none" stroke="midnightblue" d="M791.96,-281.28C740.9,-273.11 665.57,-260.13 600.62,-245.25 529.36,-228.93 447.34,-204.74 401.78,-190.82"/>
<polygon fill="midnightblue" stroke="midnightblue" points="403.05,-187.55 392.46,-187.96 401,-194.24 403.05,-187.55"/>
</g>
<!-- Node3 -->
<g id="node3" class="node">
<title>Node3</title>
<g id="a_node3"><a xlink:title=" ">
<polygon fill="white" stroke="#bfbfbf" points="1081.87,-225.5 1081.87,-244.75 1129.37,-244.75 1129.37,-225.5 1081.87,-225.5"/>
<text text-anchor="middle" x="1105.62" y="-231.25" font-family="Helvetica,sans-Serif" font-size="10.00">stdlib.h</text>
</a>
</g>
</g>
<!-- Node1&#45;&gt;Node3 -->
<g id="edge2" class="edge">
<title>Node1&#45;&gt;Node3</title>
<path fill="none" stroke="midnightblue" d="M897.21,-281.26C940.99,-272.41 1008.93,-258.42 1067.62,-245.25 1068.6,-245.03 1069.6,-244.8 1070.61,-244.57"/>
<polygon fill="midnightblue" stroke="midnightblue" points="1071.11,-248.05 1080.05,-242.37 1069.51,-241.23 1071.11,-248.05"/>
</g>
<!-- Node4 -->
<g id="node4" class="node">
<title>Node4</title>
<g id="a_node4"><a xlink:title=" ">
<polygon fill="white" stroke="#bfbfbf" points="408.49,-169.25 408.49,-188.5 456.74,-188.5 456.74,-169.25 408.49,-169.25"/>
<text text-anchor="middle" x="432.62" y="-175" font-family="Helvetica,sans-Serif" font-size="10.00">string.h</text>
</a>
</g>
</g>
<!-- Node1&#45;&gt;Node4 -->
<g id="edge3" class="edge">
<title>Node1&#45;&gt;Node4</title>
<path fill="none" stroke="midnightblue" d="M817.33,-281.33C739,-260.67 547.57,-210.19 468.1,-189.23"/>
<polygon fill="midnightblue" stroke="midnightblue" points="469.24,-185.91 458.68,-186.75 467.45,-192.68 469.24,-185.91"/>
</g>
<!-- Node5 -->
<g id="node5" class="node">
<title>Node5</title>
<g id="a_node5"><a xlink:title=" ">
<polygon fill="white" stroke="#bfbfbf" points="1147.62,-225.5 1147.62,-244.75 1193.62,-244.75 1193.62,-225.5 1147.62,-225.5"/>
<text text-anchor="middle" x="1170.62" y="-231.25" font-family="Helvetica,sans-Serif" font-size="10.00">math.h</text>
</a>
</g>
</g>
<!-- Node1&#45;&gt;Node5 -->
<g id="edge4" class="edge">
<title>Node1&#45;&gt;Node5</title>
<path fill="none" stroke="midnightblue" d="M919.61,-282.06C975.42,-274.7 1056.67,-262.75 1136.09,-245.59"/>
<polygon fill="midnightblue" stroke="midnightblue" points="1136.79,-249.02 1145.81,-243.46 1135.29,-242.18 1136.79,-249.02"/>
</g>
<!-- Node6 -->
<g id="node6" class="node">
<title>Node6</title>
<g id="a_node6"><a xlink:href="_rexx_core_8h.html" target="_top" xlink:title=" ">
<polygon fill="white" stroke="black" points="957.37,-225.5 957.37,-244.75 1025.87,-244.75 1025.87,-225.5 957.37,-225.5"/>
<text text-anchor="middle" x="991.62" y="-231.25" font-family="Helvetica,sans-Serif" font-size="10.00">RexxCore.h</text>
</a>
</g>
</g>
<!-- Node1&#45;&gt;Node6 -->
<g id="edge5" class="edge">
<title>Node1&#45;&gt;Node6</title>
<path fill="none" stroke="midnightblue" d="M875.05,-281.29C897.56,-272.57 931.84,-259.29 957.4,-249.39"/>
<polygon fill="midnightblue" stroke="midnightblue" points="958.64,-252.66 966.7,-245.78 956.11,-246.13 958.64,-252.66"/>
</g>
<!-- Node54 -->
<g id="node43" class="node">
<title>Node54</title>
<g id="a_node43"><a xlink:href="_number_string_math_8hpp.html" target="_top" xlink:title=" ">
<polygon fill="white" stroke="black" points="3.37,-56.75 3.37,-76 119.87,-76 119.87,-56.75 3.37,-56.75"/>
<text text-anchor="middle" x="61.62" y="-62.5" font-family="Helvetica,sans-Serif" font-size="10.00">NumberStringMath.hpp</text>
</a>
</g>
</g>
<!-- Node1&#45;&gt;Node54 -->
<g id="edge60" class="edge">
<title>Node1&#45;&gt;Node54</title>
<path fill="none" stroke="midnightblue" d="M783.57,-288.85C630.85,-284.96 264.84,-272.98 144.62,-245.25 80.48,-230.46 44.27,-243.67 7.62,-189 -15.41,-154.65 20.17,-108.87 43.66,-84.44"/>
<polygon fill="midnightblue" stroke="midnightblue" points="45.97,-87.08 50.56,-77.53 41.02,-82.13 45.97,-87.08"/>
</g>
<!-- Node69 -->
<g id="node44" class="node">
<title>Node69</title>
<g id="a_node44"><a xlink:href="_activity_manager_8hpp.html" target="_top" xlink:title=" ">
<polygon fill="white" stroke="black" points="2460.37,-169.25 2460.37,-188.5 2564.87,-188.5 2564.87,-169.25 2460.37,-169.25"/>
<text text-anchor="middle" x="2512.62" y="-175" font-family="Helvetica,sans-Serif" font-size="10.00">ActivityManager.hpp</text>
</a>
</g>
</g>
<!-- Node1&#45;&gt;Node69 -->
<g id="edge61" class="edge">
<title>Node1&#45;&gt;Node69</title>
<path fill="none" stroke="midnightblue" d="M902.75,-281.31C940.03,-273.85 991.38,-261.81 1034.62,-245.25 1052.49,-238.41 1054.12,-229.88 1072.62,-225 1217.71,-186.73 2254.07,-201.7 2448.75,-189"/>
<polygon fill="midnightblue" stroke="midnightblue" points="2448.88,-192.5 2458.59,-188.26 2448.35,-185.52 2448.88,-192.5"/>
</g>
<!-- Node52 -->
<g id="node46" class="node">
<title>Node52</title>
<g id="a_node46"><a xlink:href="_string_class_8hpp.html" target="_top" xlink:title=" ">
<polygon fill="white" stroke="black" points="153.74,-225.5 153.74,-244.75 239.49,-244.75 239.49,-225.5 153.74,-225.5"/>
<text text-anchor="middle" x="196.62" y="-231.25" font-family="Helvetica,sans-Serif" font-size="10.00">StringClass.hpp</text>
</a>
</g>
</g>
<!-- Node1&#45;&gt;Node52 -->
<g id="edge51" class="edge">
<title>Node1&#45;&gt;Node52</title>
<path fill="none" stroke="midnightblue" d="M783.75,-284.94C679.74,-276.59 474.68,-260.01 300.62,-245.25 284.56,-243.89 267.11,-242.37 251.17,-240.97"/>
<polygon fill="midnightblue" stroke="midnightblue" points="251.65,-237.5 241.39,-240.11 251.04,-244.47 251.65,-237.5"/>
</g>
<!-- Node56 -->
<g id="node48" class="node">
<title>Node56</title>
<g id="a_node48"><a xlink:href="_string_util_8hpp.html" target="_top" xlink:title=" ">
<polygon fill="white" stroke="black" points="248.99,-169.25 248.99,-188.5 324.24,-188.5 324.24,-169.25 248.99,-169.25"/>
<text text-anchor="middle" x="286.62" y="-175" font-family="Helvetica,sans-Serif" font-size="10.00">StringUtil.hpp</text>
</a>
</g>
</g>
<!-- Node1&#45;&gt;Node56 -->
<g id="edge62" class="edge">
<title>Node1&#45;&gt;Node56</title>
<path fill="none" stroke="midnightblue" d="M783.54,-283.97C715.91,-276.95 609.45,-264.1 518.62,-245.25 449.5,-230.9 370.73,-207.07 325.04,-192.49"/>
<polygon fill="midnightblue" stroke="midnightblue" points="326.2,-189.19 315.61,-189.46 324.05,-195.85 326.2,-189.19"/>
</g>
<!-- Node71 -->
<g id="node50" class="node">
<title>Node71</title>
<g id="a_node50"><a xlink:href="_buffer_class_8hpp.html" target="_top" xlink:title=" ">
<polygon fill="white" stroke="black" points="1211.37,-225.5 1211.37,-244.75 1297.87,-244.75 1297.87,-225.5 1211.37,-225.5"/>
<text text-anchor="middle" x="1254.62" y="-231.25" font-family="Helvetica,sans-Serif" font-size="10.00">BufferClass.hpp</text>
</a>
</g>
</g>
<!-- Node1&#45;&gt;Node71 -->
<g id="edge59" class="edge">
<title>Node1&#45;&gt;Node71</title>
<path fill="none" stroke="midnightblue" d="M919.69,-282.56C988.01,-274.51 1096.56,-261.14 1199.7,-245.64"/>
<polygon fill="midnightblue" stroke="midnightblue" points="1200.09,-249.12 1209.45,-244.16 1199.04,-242.2 1200.09,-249.12"/>
</g>
<!-- Node6&#45;&gt;Node2 -->
<g id="edge12" class="edge">
<title>Node6&#45;&gt;Node2</title>
<path fill="none" stroke="midnightblue" d="M956.96,-233.82C866.85,-232.53 617.75,-225.82 402.22,-189.13"/>
<polygon fill="midnightblue" stroke="midnightblue" points="402.95,-185.7 392.5,-187.44 401.76,-192.6 402.95,-185.7"/>
</g>
<!-- Node6&#45;&gt;Node4 -->
<g id="edge11" class="edge">
<title>Node6&#45;&gt;Node4</title>
<path fill="none" stroke="midnightblue" d="M956.96,-232.91C873.01,-229.58 652.31,-218.51 470.62,-189 469.79,-188.87 468.95,-188.72 468.11,-188.57"/>
<polygon fill="midnightblue" stroke="midnightblue" points="469.02,-185.19 458.52,-186.61 467.62,-192.04 469.02,-185.19"/>
</g>
<!-- Node7 -->
<g id="node7" class="node">
<title>Node7</title>
<g id="a_node7"><a xlink:href="oorexxapi_8h.html" target="_top" xlink:title=" ">
<polygon fill="white" stroke="black" points="1389.49,-169.25 1389.49,-188.5 1455.74,-188.5 1455.74,-169.25 1389.49,-169.25"/>
<text text-anchor="middle" x="1422.62" y="-175" font-family="Helvetica,sans-Serif" font-size="10.00">oorexxapi.h</text>
</a>
</g>
</g>
<!-- Node6&#45;&gt;Node7 -->
<g id="edge6" class="edge">
<title>Node6&#45;&gt;Node7</title>
<path fill="none" stroke="midnightblue" d="M1026.17,-227.2C1030.68,-226.4 1035.26,-225.64 1039.62,-225 1186.42,-203.31 1227.62,-212.35 1378.31,-189.03"/>
<polygon fill="midnightblue" stroke="midnightblue" points="1378.52,-192.54 1387.85,-187.53 1377.43,-185.62 1378.52,-192.54"/>
</g>
<!-- Node14 -->
<g id="node10" class="node">
<title>Node14</title>
<g id="a_node10"><a xlink:title=" ">
<polygon fill="white" stroke="#bfbfbf" points="2396.99,-169.25 2396.99,-188.5 2442.24,-188.5 2442.24,-169.25 2396.99,-169.25"/>
<text text-anchor="middle" x="2419.62" y="-175" font-family="Helvetica,sans-Serif" font-size="10.00">stdio.h</text>
</a>
</g>
</g>
<!-- Node6&#45;&gt;Node14 -->
<g id="edge9" class="edge">
<title>Node6&#45;&gt;Node14</title>
<path fill="none" stroke="midnightblue" d="M1026.13,-226.88C1030.65,-226.13 1035.23,-225.47 1039.62,-225 1633.29,-161.04 1790.89,-268.95 2382.62,-189 2383.62,-188.86 2384.64,-188.71 2385.66,-188.55"/>
<polygon fill="midnightblue" stroke="midnightblue" points="2386.07,-192.03 2395.19,-186.64 2384.7,-185.17 2386.07,-192.03"/>
</g>
<!-- Node15 -->
<g id="node11" class="node">
<title>Node15</title>
<g id="a_node11"><a xlink:title=" ">
<polygon fill="white" stroke="#bfbfbf" points="271.99,-113 271.99,-132.25 323.24,-132.25 323.24,-113 271.99,-113"/>
<text text-anchor="middle" x="297.62" y="-118.75" font-family="Helvetica,sans-Serif" font-size="10.00">stdarg.h</text>
</a>
</g>
</g>
<!-- Node6&#45;&gt;Node15 -->
<g id="edge10" class="edge">
<title>Node6&#45;&gt;Node15</title>
<path fill="none" stroke="midnightblue" d="M991.98,-225.22C992.02,-210.8 989.75,-182.53 972.62,-168.75 969.48,-166.23 476.13,-134.9 334.96,-125.98"/>
<polygon fill="midnightblue" stroke="midnightblue" points="335.24,-122.49 325.04,-125.35 334.8,-129.48 335.24,-122.49"/>
</g>
<!-- Node16 -->
<g id="node12" class="node">
<title>Node16</title>
<g id="a_node12"><a xlink:title=" ">
<polygon fill="white" stroke="#bfbfbf" points="512.87,-169.25 512.87,-188.5 560.37,-188.5 560.37,-169.25 512.87,-169.25"/>
<text text-anchor="middle" x="536.62" y="-175" font-family="Helvetica,sans-Serif" font-size="10.00">limits.h</text>
</a>
</g>
</g>
<!-- Node6&#45;&gt;Node16 -->
<g id="edge13" class="edge">
<title>Node6&#45;&gt;Node16</title>
<path fill="none" stroke="midnightblue" d="M956.88,-232.33C886.14,-228.28 720.21,-216.67 571.77,-189.11"/>
<polygon fill="midnightblue" stroke="midnightblue" points="572.63,-185.71 562.15,-187.29 571.33,-192.59 572.63,-185.71"/>
</g>
<!-- Node17 -->
<g id="node13" class="node">
<title>Node17</title>
<g id="a_node13"><a xlink:title=" ">
<polygon fill="white" stroke="#bfbfbf" points="578.24,-169.25 578.24,-188.5 636.99,-188.5 636.99,-169.25 578.24,-169.25"/>
<text text-anchor="middle" x="607.62" y="-175" font-family="Helvetica,sans-Serif" font-size="10.00">stdexcept</text>
</a>
</g>
</g>
<!-- Node6&#45;&gt;Node17 -->
<g id="edge14" class="edge">
<title>Node6&#45;&gt;Node17</title>
<path fill="none" stroke="midnightblue" d="M957.05,-230.84C896.46,-224.83 766.96,-210.79 648.49,-189.38"/>
<polygon fill="midnightblue" stroke="midnightblue" points="649.38,-185.98 638.92,-187.62 648.12,-192.87 649.38,-185.98"/>
</g>
<!-- Node18 -->
<g id="node14" class="node">
<title>Node18</title>
<g id="a_node14"><a xlink:href="_rexx_platform_definitions_8h.html" target="_top" xlink:title=" ">
<polygon fill="white" stroke="black" points="1240.24,-169.25 1240.24,-188.5 1370.99,-188.5 1370.99,-169.25 1240.24,-169.25"/>
<text text-anchor="middle" x="1305.62" y="-175" font-family="Helvetica,sans-Serif" font-size="10.00">RexxPlatformDefinitions.h</text>
</a>
</g>
</g>
<!-- Node6&#45;&gt;Node18 -->
<g id="edge15" class="edge">
<title>Node6&#45;&gt;Node18</title>
<path fill="none" stroke="midnightblue" d="M1026.21,-227.46C1030.72,-226.62 1035.28,-225.78 1039.62,-225 1107.41,-212.81 1185.08,-199.73 1238.92,-190.81"/>
<polygon fill="midnightblue" stroke="midnightblue" points="1239.24,-194.31 1248.54,-189.22 1238.1,-187.4 1239.24,-194.31"/>
</g>
<!-- Node21 -->
<g id="node17" class="node">
<title>Node21</title>
<g id="a_node17"><a xlink:href="_rexx_constants_8hpp.html" target="_top" xlink:title=" ">
<polygon fill="white" stroke="black" points="655.12,-169.25 655.12,-188.5 758.12,-188.5 758.12,-169.25 655.12,-169.25"/>
<text text-anchor="middle" x="706.62" y="-175" font-family="Helvetica,sans-Serif" font-size="10.00">RexxConstants.hpp</text>
</a>
</g>
</g>
<!-- Node6&#45;&gt;Node21 -->
<g id="edge18" class="edge">
<title>Node6&#45;&gt;Node21</title>
<path fill="none" stroke="midnightblue" d="M956.96,-227.53C909.39,-218.47 823.23,-202.07 765.46,-191.08"/>
<polygon fill="midnightblue" stroke="midnightblue" points="766.27,-187.67 755.8,-189.24 764.96,-194.54 766.27,-187.67"/>
</g>
<!-- Node22 -->
<g id="node18" class="node">
<title>Node22</title>
<g id="a_node18"><a xlink:href="_class_type_codes_8h.html" target="_top" xlink:title=" ">
<polygon fill="white" stroke="black" points="2328.99,-56.75 2328.99,-76 2428.24,-76 2428.24,-56.75 2328.99,-56.75"/>
<text text-anchor="middle" x="2378.62" y="-62.5" font-family="Helvetica,sans-Serif" font-size="10.00">ClassTypeCodes.h</text>
</a>
</g>
</g>
<!-- Node6&#45;&gt;Node22 -->
<g id="edge19" class="edge">
<title>Node6&#45;&gt;Node22</title>
<path fill="none" stroke="midnightblue" d="M1026,-225.69C1027.56,-225.43 1029.1,-225.2 1030.62,-225 1526.15,-159.75 1659.01,-253.67 2154.62,-189 2264.54,-174.66 2328.64,-219.53 2397.62,-132.75 2408.39,-119.2 2400.62,-99.76 2392,-85.6"/>
<polygon fill="midnightblue" stroke="midnightblue" points="2395.14,-84 2386.66,-77.64 2389.32,-87.9 2395.14,-84"/>
</g>
<!-- Node23 -->
<g id="node19" class="node">
<title>Node23</title>
<g id="a_node19"><a xlink:href="_global_names_8h.html" target="_top" xlink:title=" ">
<polygon fill="white" stroke="black" points="775.87,-169.25 775.87,-188.5 859.37,-188.5 859.37,-169.25 775.87,-169.25"/>
<text text-anchor="middle" x="817.62" y="-175" font-family="Helvetica,sans-Serif" font-size="10.00">GlobalNames.h</text>
</a>
</g>
</g>
<!-- Node6&#45;&gt;Node23 -->
<g id="edge20" class="edge">
<title>Node6&#45;&gt;Node23</title>
<path fill="none" stroke="midnightblue" d="M962.5,-225.04C933.76,-216.09 889.62,-202.32 857.61,-192.34"/>
<polygon fill="midnightblue" stroke="midnightblue" points="858.87,-189.07 848.28,-189.44 856.79,-195.75 858.87,-189.07"/>
</g>
<!-- Node24 -->
<g id="node20" class="node">
<title>Node24</title>
<g id="a_node20"><a xlink:href="_object_class_8hpp.html" target="_top" xlink:title=" ">
<polygon fill="white" stroke="black" points="1770.24,-113 1770.24,-132.25 1858.99,-132.25 1858.99,-113 1770.24,-113"/>
<text text-anchor="middle" x="1814.62" y="-118.75" font-family="Helvetica,sans-Serif" font-size="10.00">ObjectClass.hpp</text>
</a>
</g>
</g>
<!-- Node6&#45;&gt;Node24 -->
<g id="edge21" class="edge">
<title>Node6&#45;&gt;Node24</title>
<path fill="none" stroke="midnightblue" d="M1026.14,-227C1030.66,-226.23 1035.24,-225.53 1039.62,-225 1183.66,-207.41 1551.84,-227.96 1691.62,-189 1729.57,-178.42 1769.02,-154.84 1792.7,-139.08"/>
<polygon fill="midnightblue" stroke="midnightblue" points="1794.58,-142.04 1800.87,-133.52 1790.64,-136.25 1794.58,-142.04"/>
</g>
<!-- Node27 -->
<g id="node23" class="node">
<title>Node27</title>
<g id="a_node23"><a xlink:href="_table_class_8hpp.html" target="_top" xlink:title=" ">
<polygon fill="white" stroke="black" points="1957.87,-56.75 1957.87,-76 2041.37,-76 2041.37,-56.75 1957.87,-56.75"/>
<text text-anchor="middle" x="1999.62" y="-62.5" font-family="Helvetica,sans-Serif" font-size="10.00">TableClass.hpp</text>
</a>
</g>
</g>
<!-- Node6&#45;&gt;Node27 -->
<g id="edge24" class="edge">
<title>Node6&#45;&gt;Node27</title>
<path fill="none" stroke="midnightblue" d="M1026.01,-225.73C1027.56,-225.46 1029.1,-225.21 1030.62,-225 1339.07,-181.34 1426.64,-257.13 1730.62,-189 1813.85,-170.35 1830.4,-150.77 1906.62,-112.5 1927.84,-101.85 1951.96,-90.15 1970.32,-81.34"/>
<polygon fill="midnightblue" stroke="midnightblue" points="1971.79,-84.52 1979.3,-77.04 1968.77,-78.2 1971.79,-84.52"/>
</g>
<!-- Node30 -->
<g id="node25" class="node">
<title>Node30</title>
<g id="a_node25"><a xlink:href="_stack_class_8hpp.html" target="_top" xlink:title=" ">
<polygon fill="white" stroke="black" points="877.74,-169.25 877.74,-188.5 963.49,-188.5 963.49,-169.25 877.74,-169.25"/>
<text text-anchor="middle" x="920.62" y="-175" font-family="Helvetica,sans-Serif" font-size="10.00">StackClass.hpp</text>
</a>
</g>
</g>
<!-- Node6&#45;&gt;Node30 -->
<g id="edge26" class="edge">
<title>Node6&#45;&gt;Node30</title>
<path fill="none" stroke="midnightblue" d="M979.9,-225.17C969.35,-217.11 953.62,-205.09 941.02,-195.46"/>
<polygon fill="midnightblue" stroke="midnightblue" points="943.4,-192.88 933.33,-189.59 939.15,-198.44 943.4,-192.88"/>
</g>
<!-- Node31 -->
<g id="node26" class="node">
<title>Node31</title>
<g id="a_node26"><a xlink:href="_rexx_memory_8hpp.html" target="_top" xlink:title=" ">
<polygon fill="white" stroke="black" points="2053.74,-169.25 2053.74,-188.5 2145.49,-188.5 2145.49,-169.25 2053.74,-169.25"/>
<text text-anchor="middle" x="2099.62" y="-175" font-family="Helvetica,sans-Serif" font-size="10.00">RexxMemory.hpp</text>
</a>
</g>
</g>
<!-- Node6&#45;&gt;Node31 -->
<g id="edge27" class="edge">
<title>Node6&#45;&gt;Node31</title>
<path fill="none" stroke="midnightblue" d="M1026.14,-226.94C1030.66,-226.18 1035.24,-225.51 1039.62,-225 1420.1,-181.12 1517.99,-205.77 1900.62,-189 1948.26,-186.91 2002.32,-184.43 2042.05,-182.58"/>
<polygon fill="midnightblue" stroke="midnightblue" points="2042.04,-186.08 2051.87,-182.12 2041.72,-179.09 2042.04,-186.08"/>
</g>
<!-- Node38 -->
<g id="node31" class="node">
<title>Node38</title>
<g id="a_node31"><a xlink:href="_rexx_behaviour_8hpp.html" target="_top" xlink:title=" ">
<polygon fill="white" stroke="black" points="1474.24,-169.25 1474.24,-188.5 1574.99,-188.5 1574.99,-169.25 1474.24,-169.25"/>
<text text-anchor="middle" x="1524.62" y="-175" font-family="Helvetica,sans-Serif" font-size="10.00">RexxBehaviour.hpp</text>
</a>
</g>
</g>
<!-- Node6&#45;&gt;Node38 -->
<g id="edge35" class="edge">
<title>Node6&#45;&gt;Node38</title>
<path fill="none" stroke="midnightblue" d="M1026.16,-227.12C1030.67,-226.33 1035.25,-225.6 1039.62,-225 1223.76,-199.77 1274.4,-210.81 1462.51,-189.16"/>
<polygon fill="midnightblue" stroke="midnightblue" points="1462.88,-192.64 1472.41,-188 1462.07,-185.69 1462.88,-192.64"/>
</g>
<!-- Node40 -->
<g id="node33" class="node">
<title>Node40</title>
<g id="a_node33"><a xlink:href="_class_class_8hpp.html" target="_top" xlink:title=" ">
<polygon fill="white" stroke="black" points="1019.74,-169.25 1019.74,-188.5 1105.49,-188.5 1105.49,-169.25 1019.74,-169.25"/>
<text text-anchor="middle" x="1062.62" y="-175" font-family="Helvetica,sans-Serif" font-size="10.00">ClassClass.hpp</text>
</a>
</g>
</g>
<!-- Node6&#45;&gt;Node40 -->
<g id="edge37" class="edge">
<title>Node6&#45;&gt;Node40</title>
<path fill="none" stroke="midnightblue" d="M1003.34,-225.17C1013.89,-217.11 1029.62,-205.09 1042.22,-195.46"/>
<polygon fill="midnightblue" stroke="midnightblue" points="1044.09,-198.44 1049.91,-189.59 1039.84,-192.88 1044.09,-198.44"/>
</g>
<!-- Node41 -->
<g id="node34" class="node">
<title>Node41</title>
<g id="a_node34"><a xlink:href="_rexx_envelope_8hpp.html" target="_top" xlink:title=" ">
<polygon fill="white" stroke="black" points="1123.37,-169.25 1123.37,-188.5 1221.87,-188.5 1221.87,-169.25 1123.37,-169.25"/>
<text text-anchor="middle" x="1172.62" y="-175" font-family="Helvetica,sans-Serif" font-size="10.00">RexxEnvelope.hpp</text>
</a>
</g>
</g>
<!-- Node6&#45;&gt;Node41 -->
<g id="edge38" class="edge">
<title>Node6&#45;&gt;Node41</title>
<path fill="none" stroke="midnightblue" d="M1021.92,-225.04C1051.93,-216.05 1098.12,-202.2 1131.46,-192.21"/>
<polygon fill="midnightblue" stroke="midnightblue" points="1132.2,-195.64 1140.78,-189.42 1130.19,-188.94 1132.2,-195.64"/>
</g>
<!-- Node42 -->
<g id="node35" class="node">
<title>Node42</title>
<g id="a_node35"><a xlink:href="_rexx_activity_8hpp.html" target="_top" xlink:title=" ">
<polygon fill="white" stroke="red" points="1592.87,-169.25 1592.87,-188.5 1682.37,-188.5 1682.37,-169.25 1592.87,-169.25"/>
<text text-anchor="middle" x="1637.62" y="-175" font-family="Helvetica,sans-Serif" font-size="10.00">RexxActivity.hpp</text>
</a>
</g>
</g>
<!-- Node6&#45;&gt;Node42 -->
<g id="edge39" class="edge">
<title>Node6&#45;&gt;Node42</title>
<path fill="none" stroke="midnightblue" d="M1026.15,-227.04C1030.67,-226.27 1035.24,-225.56 1039.62,-225 1276.34,-194.78 1341.01,-216.54 1581.38,-189.13"/>
<polygon fill="midnightblue" stroke="midnightblue" points="1581.55,-192.64 1591.08,-188.01 1580.75,-185.68 1581.55,-192.64"/>
</g>
<!-- Node53 -->
<g id="node42" class="node">
<title>Node53</title>
<g id="a_node42"><a xlink:href="_number_string_class_8hpp.html" target="_top" xlink:title=" ">
<polygon fill="white" stroke="black" points="74.49,-113 74.49,-132.25 194.74,-132.25 194.74,-113 74.49,-113"/>
<text text-anchor="middle" x="134.62" y="-118.75" font-family="Helvetica,sans-Serif" font-size="10.00">NumberStringClass.hpp</text>
</a>
</g>
</g>
<!-- Node6&#45;&gt;Node53 -->
<g id="edge46" class="edge">
<title>Node6&#45;&gt;Node53</title>
<path fill="none" stroke="midnightblue" d="M956.93,-232.7C860.16,-228.44 588.8,-214.5 503.62,-189 485.29,-183.51 483.83,-174.63 465.62,-168.75 418.84,-153.63 288.87,-138.75 206.39,-130.42"/>
<polygon fill="midnightblue" stroke="midnightblue" points="206.89,-126.95 196.59,-129.44 206.19,-133.92 206.89,-126.95"/>
</g>
<!-- Node6&#45;&gt;Node69 -->
<g id="edge49" class="edge">
<title>Node6&#45;&gt;Node69</title>
<path fill="none" stroke="midnightblue" d="M1026.13,-226.87C1030.65,-226.13 1035.23,-225.47 1039.62,-225 1660.15,-158.55 1824.31,-242.54 2449,-189.11"/>
<polygon fill="midnightblue" stroke="midnightblue" points="2448.93,-192.63 2458.59,-188.28 2448.32,-185.66 2448.93,-192.63"/>
</g>
<!-- Node8 -->
<g id="node8" class="node">
<title>Node8</title>
<g id="a_node8"><a xlink:href="rexx_8h.html" target="_top" xlink:title=" ">
<polygon fill="white" stroke="red" points="573.12,-113 573.12,-132.25 616.12,-132.25 616.12,-113 573.12,-113"/>
<text text-anchor="middle" x="594.62" y="-118.75" font-family="Helvetica,sans-Serif" font-size="10.00">rexx.h</text>
</a>
</g>
</g>
<!-- Node7&#45;&gt;Node8 -->
<g id="edge7" class="edge">
<title>Node7&#45;&gt;Node8</title>
<path fill="none" stroke="midnightblue" d="M1389.38,-170.27C1386.09,-169.68 1382.8,-169.16 1379.62,-168.75 1050.19,-126.22 957.7,-188.64 627.76,-132.89"/>
<polygon fill="midnightblue" stroke="midnightblue" points="628.36,-129.44 617.92,-131.2 627.18,-136.34 628.36,-129.44"/>
</g>
<!-- Node13 -->
<g id="node9" class="node">
<title>Node13</title>
<g id="a_node9"><a xlink:href="oorexxerrors_8h.html" target="_top" xlink:title=" ">
<polygon fill="white" stroke="black" points="759.49,-113 759.49,-132.25 837.74,-132.25 837.74,-113 759.49,-113"/>
<text text-anchor="middle" x="798.62" y="-118.75" font-family="Helvetica,sans-Serif" font-size="10.00">oorexxerrors.h</text>
</a>
</g>
</g>
<!-- Node7&#45;&gt;Node13 -->
<g id="edge8" class="edge">
<title>Node7&#45;&gt;Node13</title>
<path fill="none" stroke="midnightblue" d="M1389.37,-170.33C1386.08,-169.73 1382.79,-169.19 1379.62,-168.75 1148.13,-136.54 1084.11,-162.15 849.42,-132.96"/>
<polygon fill="midnightblue" stroke="midnightblue" points="849.97,-129.5 839.61,-131.71 849.09,-136.44 849.97,-129.5"/>
</g>
<!-- Node19 -->
<g id="node15" class="node">
<title>Node19</title>
<g id="a_node15"><a xlink:title=" ">
<polygon fill="white" stroke="#bfbfbf" points="633.87,-113 633.87,-132.25 741.37,-132.25 741.37,-113 633.87,-113"/>
<text text-anchor="middle" x="687.62" y="-118.75" font-family="Helvetica,sans-Serif" font-size="10.00">PlatformDefinitions.h</text>
</a>
</g>
</g>
<!-- Node18&#45;&gt;Node19 -->
<g id="edge16" class="edge">
<title>Node18&#45;&gt;Node19</title>
<path fill="none" stroke="midnightblue" d="M1239.79,-169.69C1236.69,-169.36 1233.62,-169.05 1230.62,-168.75 1021.35,-148.18 965.18,-155.82 752.77,-132.91"/>
<polygon fill="midnightblue" stroke="midnightblue" points="753.37,-129.45 743.05,-131.85 752.61,-136.41 753.37,-129.45"/>
</g>
<!-- Node20 -->
<g id="node16" class="node">
<title>Node20</title>
<g id="a_node16"><a xlink:href="_rexx_error_codes_8h.html" target="_top" xlink:title=" ">
<polygon fill="white" stroke="black" points="458.12,-113 458.12,-132.25 555.12,-132.25 555.12,-113 458.12,-113"/>
<text text-anchor="middle" x="506.62" y="-118.75" font-family="Helvetica,sans-Serif" font-size="10.00">RexxErrorCodes.h</text>
</a>
</g>
</g>
<!-- Node18&#45;&gt;Node20 -->
<g id="edge17" class="edge">
<title>Node18&#45;&gt;Node20</title>
<path fill="none" stroke="midnightblue" d="M1239.8,-169.61C1236.7,-169.3 1233.63,-169.01 1230.62,-168.75 938.63,-143.14 860.79,-163.72 566.84,-132.99"/>
<polygon fill="midnightblue" stroke="midnightblue" points="567.21,-129.51 556.9,-131.94 566.47,-136.47 567.21,-129.51"/>
</g>
<!-- Node25 -->
<g id="node21" class="node">
<title>Node25</title>
<g id="a_node21"><a xlink:href="_numerics_8hpp.html" target="_top" xlink:title=" ">
<polygon fill="white" stroke="black" points="995.24,-56.75 995.24,-76 1071.99,-76 1071.99,-56.75 995.24,-56.75"/>
<text text-anchor="middle" x="1033.62" y="-62.5" font-family="Helvetica,sans-Serif" font-size="10.00">Numerics.hpp</text>
</a>
</g>
</g>
<!-- Node24&#45;&gt;Node25 -->
<g id="edge22" class="edge">
<title>Node24&#45;&gt;Node25</title>
<path fill="none" stroke="midnightblue" d="M1769.85,-113.57C1767.07,-113.17 1764.31,-112.81 1761.62,-112.5 1507.82,-82.88 1201.83,-71.92 1083.6,-68.6"/>
<polygon fill="midnightblue" stroke="midnightblue" points="1084.03,-65.11 1073.94,-68.34 1083.84,-72.11 1084.03,-65.11"/>
</g>
<!-- Node26 -->
<g id="node22" class="node">
<title>Node26</title>
<g id="a_node22"><a xlink:title=" ">
<polygon fill="white" stroke="#bfbfbf" points="1838.99,-56.75 1838.99,-76 1890.24,-76 1890.24,-56.75 1838.99,-56.75"/>
<text text-anchor="middle" x="1864.62" y="-62.5" font-family="Helvetica,sans-Serif" font-size="10.00">stddef.h</text>
</a>
</g>
</g>
<!-- Node24&#45;&gt;Node26 -->
<g id="edge23" class="edge">
<title>Node24&#45;&gt;Node26</title>
<path fill="none" stroke="midnightblue" d="M1822.88,-112.67C1829.94,-105 1840.3,-93.76 1848.93,-84.39"/>
<polygon fill="midnightblue" stroke="midnightblue" points="1851.29,-87 1855.49,-77.28 1846.14,-82.26 1851.29,-87"/>
</g>
<!-- Node28 -->
<g id="node24" class="node">
<title>Node28</title>
<g id="a_node24"><a xlink:href="_rexx_collection_8hpp.html" target="_top" xlink:title=" ">
<polygon fill="white" stroke="red" points="1948.87,-0.5 1948.87,-19.75 2050.37,-19.75 2050.37,-0.5 1948.87,-0.5"/>
<text text-anchor="middle" x="1999.62" y="-6.25" font-family="Helvetica,sans-Serif" font-size="10.00">RexxCollection.hpp</text>
</a>
</g>
</g>
<!-- Node27&#45;&gt;Node28 -->
<g id="edge25" class="edge">
<title>Node27&#45;&gt;Node28</title>
<path fill="none" stroke="midnightblue" d="M1999.62,-56.42C1999.62,-49.62 1999.62,-40.01 1999.62,-31.4"/>
<polygon fill="midnightblue" stroke="midnightblue" points="2003.12,-31.43 1999.62,-21.43 1996.12,-31.43 2003.12,-31.43"/>
</g>
<!-- Node32 -->
<g id="node27" class="node">
<title>Node32</title>
<g id="a_node27"><a xlink:title=" ">
<polygon fill="white" stroke="#bfbfbf" points="2175.87,-113 2175.87,-132.25 2277.37,-132.25 2277.37,-113 2175.87,-113"/>
<text text-anchor="middle" x="2226.62" y="-118.75" font-family="Helvetica,sans-Serif" font-size="10.00">SysSemaphore.hpp</text>
</a>
</g>
</g>
<!-- Node31&#45;&gt;Node32 -->
<g id="edge28" class="edge">
<title>Node31&#45;&gt;Node32</title>
<path fill="none" stroke="midnightblue" d="M2120.88,-168.79C2141.11,-160.15 2171.83,-147.03 2194.95,-137.15"/>
<polygon fill="midnightblue" stroke="midnightblue" points="2196.08,-140.48 2203.9,-133.33 2193.33,-134.04 2196.08,-140.48"/>
</g>
<!-- Node33 -->
<g id="node28" class="node">
<title>Node33</title>
<g id="a_node28"><a xlink:href="_identity_table_class_8hpp.html" target="_top" xlink:title=" ">
<polygon fill="white" stroke="black" points="2041.74,-113 2041.74,-132.25 2157.49,-132.25 2157.49,-113 2041.74,-113"/>
<text text-anchor="middle" x="2099.62" y="-118.75" font-family="Helvetica,sans-Serif" font-size="10.00">IdentityTableClass.hpp</text>
</a>
</g>
</g>
<!-- Node31&#45;&gt;Node33 -->
<g id="edge29" class="edge">
<title>Node31&#45;&gt;Node33</title>
<path fill="none" stroke="midnightblue" d="M2099.62,-168.92C2099.62,-162.12 2099.62,-152.51 2099.62,-143.9"/>
<polygon fill="midnightblue" stroke="midnightblue" points="2103.12,-143.93 2099.62,-133.93 2096.12,-143.93 2103.12,-143.93"/>
</g>
<!-- Node34 -->
<g id="node29" class="node">
<title>Node34</title>
<g id="a_node29"><a xlink:href="_memory_stats_8hpp.html" target="_top" xlink:title=" ">
<polygon fill="white" stroke="black" points="2294.99,-113 2294.99,-132.25 2388.24,-132.25 2388.24,-113 2294.99,-113"/>
<text text-anchor="middle" x="2341.62" y="-118.75" font-family="Helvetica,sans-Serif" font-size="10.00">MemoryStats.hpp</text>
</a>
</g>
</g>
<!-- Node31&#45;&gt;Node34 -->
<g id="edge31" class="edge">
<title>Node31&#45;&gt;Node34</title>
<path fill="none" stroke="midnightblue" d="M2140.13,-168.79C2181.22,-159.58 2244.98,-145.29 2289.75,-135.25"/>
<polygon fill="midnightblue" stroke="midnightblue" points="2290.51,-138.67 2299.51,-133.07 2288.98,-131.84 2290.51,-138.67"/>
</g>
<!-- Node35 -->
<g id="node30" class="node">
<title>Node35</title>
<g id="a_node30"><a xlink:href="_memory_segment_8hpp.html" target="_top" xlink:title=" ">
<polygon fill="white" stroke="red" points="1915.12,-113 1915.12,-132.25 2024.12,-132.25 2024.12,-113 1915.12,-113"/>
<text text-anchor="middle" x="1969.62" y="-118.75" font-family="Helvetica,sans-Serif" font-size="10.00">MemorySegment.hpp</text>
</a>
</g>
</g>
<!-- Node31&#45;&gt;Node35 -->
<g id="edge33" class="edge">
<title>Node31&#45;&gt;Node35</title>
<path fill="none" stroke="midnightblue" d="M2077.86,-168.79C2057.14,-160.15 2025.7,-147.03 2002.04,-137.15"/>
<polygon fill="midnightblue" stroke="midnightblue" points="2003.42,-133.94 1992.85,-133.32 2000.73,-140.4 2003.42,-133.94"/>
</g>
<!-- Node33&#45;&gt;Node27 -->
<g id="edge30" class="edge">
<title>Node33&#45;&gt;Node27</title>
<path fill="none" stroke="midnightblue" d="M2083.11,-112.67C2067.62,-104.26 2044.2,-91.56 2026.1,-81.74"/>
<polygon fill="midnightblue" stroke="midnightblue" points="2027.95,-78.76 2017.49,-77.07 2024.61,-84.91 2027.95,-78.76"/>
</g>
<!-- Node34&#45;&gt;Node22 -->
<g id="edge32" class="edge">
<title>Node34&#45;&gt;Node22</title>
<path fill="none" stroke="midnightblue" d="M2347.73,-112.67C2352.74,-105.32 2360,-94.68 2366.22,-85.56"/>
<polygon fill="midnightblue" stroke="midnightblue" points="2369.03,-87.65 2371.77,-77.42 2363.24,-83.71 2369.03,-87.65"/>
</g>
<!-- Node35&#45;&gt;Node26 -->
<g id="edge34" class="edge">
<title>Node35&#45;&gt;Node26</title>
<path fill="none" stroke="midnightblue" d="M1952.28,-112.67C1935.94,-104.22 1911.19,-91.44 1892.16,-81.6"/>
<polygon fill="midnightblue" stroke="midnightblue" points="1893.82,-78.52 1883.33,-77.04 1890.61,-84.74 1893.82,-78.52"/>
</g>
<!-- Node39 -->
<g id="node32" class="node">
<title>Node39</title>
<g id="a_node32"><a xlink:href="_primitive_behaviour_names_8h.html" target="_top" xlink:title=" ">
<polygon fill="white" stroke="black" points="855.87,-113 855.87,-132.25 993.37,-132.25 993.37,-113 855.87,-113"/>
<text text-anchor="middle" x="924.62" y="-118.75" font-family="Helvetica,sans-Serif" font-size="10.00">PrimitiveBehaviourNames.h</text>
</a>
</g>
</g>
<!-- Node38&#45;&gt;Node39 -->
<g id="edge36" class="edge">
<title>Node38&#45;&gt;Node39</title>
<path fill="none" stroke="midnightblue" d="M1473.92,-169.9C1470.77,-169.49 1467.66,-169.1 1464.62,-168.75 1263.71,-145.68 1209.55,-152.46 1004.96,-132.94"/>
<polygon fill="midnightblue" stroke="midnightblue" points="1005.3,-129.45 995.01,-131.98 1004.63,-136.42 1005.3,-129.45"/>
</g>
<!-- Node43 -->
<g id="node36" class="node">
<title>Node43</title>
<g id="a_node36"><a xlink:href="_list_class_8hpp.html" target="_top" xlink:title=" ">
<polygon fill="white" stroke="red" points="1542.62,-113 1542.62,-132.25 1618.62,-132.25 1618.62,-113 1542.62,-113"/>
<text text-anchor="middle" x="1580.62" y="-118.75" font-family="Helvetica,sans-Serif" font-size="10.00">ListClass.hpp</text>
</a>
</g>
</g>
<!-- Node42&#45;&gt;Node43 -->
<g id="edge40" class="edge">
<title>Node42&#45;&gt;Node43</title>
<path fill="none" stroke="midnightblue" d="M1628.21,-168.92C1619.99,-161.1 1607.85,-149.55 1597.9,-140.07"/>
<polygon fill="midnightblue" stroke="midnightblue" points="1600.61,-137.82 1590.95,-133.46 1595.78,-142.89 1600.61,-137.82"/>
</g>
<!-- Node45 -->
<g id="node37" class="node">
<title>Node45</title>
<g id="a_node37"><a xlink:href="_rexx_internal_stack_8hpp.html" target="_top" xlink:title=" ">
<polygon fill="white" stroke="black" points="1636.74,-113 1636.74,-132.25 1752.49,-132.25 1752.49,-113 1636.74,-113"/>
<text text-anchor="middle" x="1694.62" y="-118.75" font-family="Helvetica,sans-Serif" font-size="10.00">RexxInternalStack.hpp</text>
</a>
</g>
</g>
<!-- Node42&#45;&gt;Node45 -->
<g id="edge41" class="edge">
<title>Node42&#45;&gt;Node45</title>
<path fill="none" stroke="midnightblue" d="M1647.03,-168.92C1655.25,-161.1 1667.38,-149.55 1677.34,-140.07"/>
<polygon fill="midnightblue" stroke="midnightblue" points="1679.46,-142.89 1684.29,-133.46 1674.63,-137.82 1679.46,-142.89"/>
</g>
<!-- Node46 -->
<g id="node38" class="node">
<title>Node46</title>
<g id="a_node38"><a xlink:href="_rexx_activation_stack_8hpp.html" target="_top" xlink:title=" ">
<polygon fill="white" stroke="black" points="1011.12,-113 1011.12,-132.25 1138.12,-132.25 1138.12,-113 1011.12,-113"/>
<text text-anchor="middle" x="1074.62" y="-118.75" font-family="Helvetica,sans-Serif" font-size="10.00">RexxActivationStack.hpp</text>
</a>
</g>
</g>
<!-- Node42&#45;&gt;Node46 -->
<g id="edge42" class="edge">
<title>Node42&#45;&gt;Node46</title>
<path fill="none" stroke="midnightblue" d="M1592.58,-169.97C1589.55,-169.53 1586.54,-169.12 1583.62,-168.75 1394.37,-144.99 1342.96,-152.51 1149.72,-132.92"/>
<polygon fill="midnightblue" stroke="midnightblue" points="1150.11,-129.44 1139.81,-131.9 1149.4,-136.4 1150.11,-129.44"/>
</g>
<!-- Node47 -->
<g id="node39" class="node">
<title>Node47</title>
<g id="a_node39"><a xlink:href="_expression_stack_8hpp.html" target="_top" xlink:title=" ">
<polygon fill="white" stroke="red" points="1156.12,-113 1156.12,-132.25 1265.12,-132.25 1265.12,-113 1156.12,-113"/>
<text text-anchor="middle" x="1210.62" y="-118.75" font-family="Helvetica,sans-Serif" font-size="10.00">ExpressionStack.hpp</text>
</a>
</g>
</g>
<!-- Node42&#45;&gt;Node47 -->
<g id="edge43" class="edge">
<title>Node42&#45;&gt;Node47</title>
<path fill="none" stroke="midnightblue" d="M1592.57,-170.08C1589.54,-169.62 1586.54,-169.17 1583.62,-168.75 1450.35,-149.74 1413.65,-150.46 1276.77,-132.99"/>
<polygon fill="midnightblue" stroke="midnightblue" points="1277.29,-129.53 1266.92,-131.73 1276.39,-136.47 1277.29,-129.53"/>
</g>
<!-- Node49 -->
<g id="node40" class="node">
<title>Node49</title>
<g id="a_node40"><a xlink:href="_rexx_local_variables_8hpp.html" target="_top" xlink:title=" ">
<polygon fill="white" stroke="red" points="1283.12,-113 1283.12,-132.25 1404.12,-132.25 1404.12,-113 1283.12,-113"/>
<text text-anchor="middle" x="1343.62" y="-118.75" font-family="Helvetica,sans-Serif" font-size="10.00">RexxLocalVariables.hpp</text>
</a>
</g>
</g>
<!-- Node42&#45;&gt;Node49 -->
<g id="edge44" class="edge">
<title>Node42&#45;&gt;Node49</title>
<path fill="none" stroke="midnightblue" d="M1592.65,-169.58C1542.23,-160.27 1460.23,-145.14 1404.2,-134.8"/>
<polygon fill="midnightblue" stroke="midnightblue" points="1404.96,-131.39 1394.5,-133.01 1403.69,-138.27 1404.96,-131.39"/>
</g>
<!-- Node64 -->
<g id="node41" class="node">
<title>Node64</title>
<g id="a_node41"><a xlink:href="_source_location_8hpp.html" target="_top" xlink:title=" ">
<polygon fill="white" stroke="black" points="1422.49,-113 1422.49,-132.25 1524.74,-132.25 1524.74,-113 1422.49,-113"/>
<text text-anchor="middle" x="1473.62" y="-118.75" font-family="Helvetica,sans-Serif" font-size="10.00">SourceLocation.hpp</text>
</a>
</g>
</g>
<!-- Node42&#45;&gt;Node64 -->
<g id="edge45" class="edge">
<title>Node42&#45;&gt;Node64</title>
<path fill="none" stroke="midnightblue" d="M1610.17,-168.79C1583.21,-159.88 1541.84,-146.19 1511.71,-136.22"/>
<polygon fill="midnightblue" stroke="midnightblue" points="1513.19,-133.03 1502.6,-133.21 1510.99,-139.67 1513.19,-133.03"/>
</g>
<!-- Node53&#45;&gt;Node25 -->
<g id="edge47" class="edge">
<title>Node53&#45;&gt;Node25</title>
<path fill="none" stroke="midnightblue" d="M195.16,-117.15C216.48,-115.62 240.61,-113.93 262.62,-112.5 534.82,-94.83 861.29,-76.75 983.88,-70.07"/>
<polygon fill="midnightblue" stroke="midnightblue" points="983.8,-73.58 993.59,-69.54 983.41,-66.59 983.8,-73.58"/>
</g>
<!-- Node53&#45;&gt;Node54 -->
<g id="edge48" class="edge">
<title>Node53&#45;&gt;Node54</title>
<path fill="none" stroke="midnightblue" d="M122.57,-112.67C111.72,-104.61 95.55,-92.59 82.59,-82.96"/>
<polygon fill="midnightblue" stroke="midnightblue" points="84.78,-80.22 74.66,-77.07 80.6,-85.84 84.78,-80.22"/>
</g>
<!-- Node70 -->
<g id="node45" class="node">
<title>Node70</title>
<g id="a_node45"><a xlink:title=" ">
<polygon fill="white" stroke="#bfbfbf" points="2491.49,-113 2491.49,-132.25 2533.74,-132.25 2533.74,-113 2491.49,-113"/>
<text text-anchor="middle" x="2512.62" y="-118.75" font-family="Helvetica,sans-Serif" font-size="10.00">deque</text>
</a>
</g>
</g>
<!-- Node69&#45;&gt;Node70 -->
<g id="edge50" class="edge">
<title>Node69&#45;&gt;Node70</title>
<path fill="none" stroke="midnightblue" d="M2512.62,-168.92C2512.62,-162.12 2512.62,-152.51 2512.62,-143.9"/>
<polygon fill="midnightblue" stroke="midnightblue" points="2516.12,-143.93 2512.62,-133.93 2509.12,-143.93 2516.12,-143.93"/>
</g>
<!-- Node52&#45;&gt;Node53 -->
<g id="edge52" class="edge">
<title>Node52&#45;&gt;Node53</title>
<path fill="none" stroke="midnightblue" d="M185.54,-225.22C175.8,-216.84 161.93,-203.45 153.62,-189 145.5,-174.88 140.61,-157.02 137.84,-143.53"/>
<polygon fill="midnightblue" stroke="midnightblue" points="141.35,-143.31 136.12,-134.1 134.47,-144.57 141.35,-143.31"/>
</g>
<!-- Node55 -->
<g id="node47" class="node">
<title>Node55</title>
<g id="a_node47"><a xlink:href="_integer_class_8hpp.html" target="_top" xlink:title=" ">
<polygon fill="white" stroke="black" points="16.49,-169.25 16.49,-188.5 106.74,-188.5 106.74,-169.25 16.49,-169.25"/>
<text text-anchor="middle" x="61.62" y="-175" font-family="Helvetica,sans-Serif" font-size="10.00">IntegerClass.hpp</text>
</a>
</g>
</g>
<!-- Node52&#45;&gt;Node55 -->
<g id="edge53" class="edge">
<title>Node52&#45;&gt;Node55</title>
<path fill="none" stroke="midnightblue" d="M174.02,-225.04C152.41,-216.36 119.56,-203.16 94.95,-193.27"/>
<polygon fill="midnightblue" stroke="midnightblue" points="96.28,-190.03 85.69,-189.55 93.67,-196.53 96.28,-190.03"/>
</g>
<!-- Node52&#45;&gt;Node56 -->
<g id="edge55" class="edge">
<title>Node52&#45;&gt;Node56</title>
<path fill="none" stroke="midnightblue" d="M211.48,-225.17C225.29,-216.84 246.11,-204.29 262.33,-194.52"/>
<polygon fill="midnightblue" stroke="midnightblue" points="263.68,-197.79 270.44,-189.63 260.07,-191.79 263.68,-197.79"/>
</g>
<!-- Node57 -->
<g id="node49" class="node">
<title>Node57</title>
<g id="a_node49"><a xlink:href="_utilities_8hpp.html" target="_top" xlink:title=" ">
<polygon fill="white" stroke="red" points="162.74,-169.25 162.74,-188.5 230.49,-188.5 230.49,-169.25 162.74,-169.25"/>
<text text-anchor="middle" x="196.62" y="-175" font-family="Helvetica,sans-Serif" font-size="10.00">Utilities.hpp</text>
</a>
</g>
</g>
<!-- Node52&#45;&gt;Node57 -->
<g id="edge56" class="edge">
<title>Node52&#45;&gt;Node57</title>
<path fill="none" stroke="midnightblue" d="M196.62,-225.17C196.62,-218.37 196.62,-208.76 196.62,-200.15"/>
<polygon fill="midnightblue" stroke="midnightblue" points="200.12,-200.18 196.62,-190.18 193.12,-200.18 200.12,-200.18"/>
</g>
<!-- Node55&#45;&gt;Node53 -->
<g id="edge54" class="edge">
<title>Node55&#45;&gt;Node53</title>
<path fill="none" stroke="midnightblue" d="M73.67,-168.92C84.52,-160.86 100.69,-148.84 113.65,-139.21"/>
<polygon fill="midnightblue" stroke="midnightblue" points="115.64,-142.09 121.57,-133.32 111.46,-136.47 115.64,-142.09"/>
</g>
<!-- Node57&#45;&gt;Node8 -->
<g id="edge57" class="edge">
<title>Node57&#45;&gt;Node8</title>
<path fill="none" stroke="midnightblue" d="M230.83,-170.3C233.8,-169.74 236.76,-169.21 239.62,-168.75 379.17,-146.25 419.62,-160.58 561.85,-132.76"/>
<polygon fill="midnightblue" stroke="midnightblue" points="562.12,-136.27 571.24,-130.88 560.75,-129.41 562.12,-136.27"/>
</g>
<!-- Node57&#45;&gt;Node15 -->
<g id="edge58" class="edge">
<title>Node57&#45;&gt;Node15</title>
<path fill="none" stroke="midnightblue" d="M213.3,-168.92C228.94,-160.51 252.6,-147.81 270.88,-137.99"/>
<polygon fill="midnightblue" stroke="midnightblue" points="272.43,-141.13 279.58,-133.31 269.12,-134.96 272.43,-141.13"/>
</g>
</g>
</svg>
        <g id="navigator" transform="translate(0 0)" fill="#404254">
                <rect fill="#f2f5e9" fill-opacity="0.5" stroke="#606060" stroke-width=".5" x="0" y="0" width="60" height="60"/>
                <use id="zoomplus" xlink:href="#zoomPlus" x="17" y="9" onmousedown="handleZoom(evt,'in')"/>
                <use id="zoomminus" xlink:href="#zoomMin" x="42" y="9" onmousedown="handleZoom(evt,'out')"/>
                <use id="reset" xlink:href="#resetDef" x="30" y="36" onmousedown="handleReset()"/>
                <g id="arrowUp" xlink:href="#dirArrow" transform="translate(30 24)" onmousedown="handlePan(0,-1)">
                  <use xlink:href="#rim" fill="#404040">
                        <set attributeName="fill" to="#808080" begin="arrowUp.mouseover" end="arrowUp.mouseout"/>
                  </use>
                  <path fill="none" stroke="white" stroke-width="1.5" d="M0,-3.0v7 M-2.5,-0.5L0,-3.0L2.5,-0.5"/>
                </g>
                <g id="arrowRight" xlink:href="#dirArrow" transform="rotate(90) translate(36 -43)" onmousedown="handlePan(1,0)">
                  <use xlink:href="#rim" fill="#404040">
                        <set attributeName="fill" to="#808080" begin="arrowRight.mouseover" end="arrowRight.mouseout"/>
                  </use>
                  <path fill="none" stroke="white" stroke-width="1.5" d="M0,-3.0v7 M-2.5,-0.5L0,-3.0L2.5,-0.5"/>
                </g>
                <g id="arrowDown" xlink:href="#dirArrow" transform="rotate(180) translate(-30 -48)" onmousedown="handlePan(0,1)">
                  <use xlink:href="#rim" fill="#404040">
                        <set attributeName="fill" to="#808080" begin="arrowDown.mouseover" end="arrowDown.mouseout"/>
                  </use>
                  <path fill="none" stroke="white" stroke-width="1.5" d="M0,-3.0v7 M-2.5,-0.5L0,-3.0L2.5,-0.5"/>
                </g>
                <g id="arrowLeft" xlink:href="#dirArrow" transform="rotate(270) translate(-36 17)" onmousedown="handlePan(-1,0)">
                  <use xlink:href="#rim" fill="#404040">
                        <set attributeName="fill" to="#808080" begin="arrowLeft.mouseover" end="arrowLeft.mouseout"/>
                  </use>
                  <path fill="none" stroke="white" stroke-width="1.5" d="M0,-3.0v7 M-2.5,-0.5L0,-3.0L2.5,-0.5"/>
                </g>
        </g>
        <svg viewBox="0 0 15 15" width="100%" height="30px" preserveAspectRatio="xMaxYMin meet">
         <g id="arrow_out" transform="scale(0.3 0.3)">
          <a xlink:href="_string_class_conversion_8cpp__incl_org.svg" target="_base">
           <rect id="button" ry="5" rx="5" y="6" x="6" height="38" width="38"
                fill="#f2f5e9" fill-opacity="0.5" stroke="#606060" stroke-width="1.0"/>
           <path id="arrow"
             d="M 11.500037,31.436501 C 11.940474,20.09759 22.043105,11.32322 32.158766,21.979434 L 37.068811,17.246167 C 37.068811,17.246167 37.088388,32 37.088388,32 L 22.160133,31.978069 C 22.160133,31.978069 26.997745,27.140456 26.997745,27.140456 C 18.528582,18.264221 13.291696,25.230495 11.500037,31.436501 z"
             style="fill:#404040;"/>
          </a>
         </g>
        </svg>
</svg>
