<?xml version="1.0" encoding="UTF-8" standalone="no"?>
<!DOCTYPE svg PUBLIC "-//W3C//DTD SVG 1.1//EN"
 "http://www.w3.org/Graphics/SVG/1.1/DTD/svg11.dtd">
<!-- Generated by graphviz version 12.1.0 (20240811.2233)
 -->
<!-- Title: StringClassBit.cpp Pages: 1 -->
<svg width="2611pt" height="310pt"
 viewBox="0.00 0.00 2610.50 309.50" xmlns="http://www.w3.org/2000/svg" xmlns:xlink="http://www.w3.org/1999/xlink">
<g id="graph0" class="graph" transform="scale(1 1) rotate(0) translate(4 305.5)">
<title>StringClassBit.cpp</title>
<polygon fill="white" stroke="none" points="-4,4 -4,-305.5 2606.5,-305.5 2606.5,4 -4,4"/>
<!-- Node1 -->
<g id="node1" class="node">
<title>Node1</title>
<g id="a_node1"><a xlink:title=" ">
<polygon fill="#bfbfbf" stroke="black" points="1110.75,-281.75 1110.75,-301 1208.5,-301 1208.5,-281.75 1110.75,-281.75"/>
<text text-anchor="middle" x="1159.62" y="-287.5" font-family="Helvetica,sans-Serif" font-size="10.00">StringClassBit.cpp</text>
</a>
</g>
</g>
<!-- Node2 -->
<g id="node2" class="node">
<title>Node2</title>
<g id="a_node2"><a xlink:title=" ">
<polygon fill="white" stroke="#bfbfbf" points="239.5,-169.25 239.5,-188.5 287.75,-188.5 287.75,-169.25 239.5,-169.25"/>
<text text-anchor="middle" x="263.62" y="-175" font-family="Helvetica,sans-Serif" font-size="10.00">ctype.h</text>
</a>
</g>
</g>
<!-- Node1&#45;&gt;Node2 -->
<g id="edge1" class="edge">
<title>Node1&#45;&gt;Node2</title>
<path fill="none" stroke="midnightblue" d="M1110.6,-287.05C1020.51,-280.7 822.62,-265.64 656.62,-245.25 499.5,-225.95 456.83,-223.25 299.11,-189.35"/>
<polygon fill="midnightblue" stroke="midnightblue" points="300.05,-185.97 289.54,-187.29 298.57,-192.82 300.05,-185.97"/>
</g>
<!-- Node3 -->
<g id="node3" class="node">
<title>Node3</title>
<g id="a_node3"><a xlink:title=" ">
<polygon fill="white" stroke="#bfbfbf" points="1334.88,-225.5 1334.88,-244.75 1382.38,-244.75 1382.38,-225.5 1334.88,-225.5"/>
<text text-anchor="middle" x="1358.62" y="-231.25" font-family="Helvetica,sans-Serif" font-size="10.00">stdlib.h</text>
</a>
</g>
</g>
<!-- Node1&#45;&gt;Node3 -->
<g id="edge2" class="edge">
<title>Node1&#45;&gt;Node3</title>
<path fill="none" stroke="midnightblue" d="M1193.89,-281.27C1225.36,-272.87 1273.59,-259.91 1323.51,-246.09"/>
<polygon fill="midnightblue" stroke="midnightblue" points="1324.36,-249.49 1333.06,-243.44 1322.49,-242.74 1324.36,-249.49"/>
</g>
<!-- Node4 -->
<g id="node4" class="node">
<title>Node4</title>
<g id="a_node4"><a xlink:title=" ">
<polygon fill="white" stroke="#bfbfbf" points="305.5,-169.25 305.5,-188.5 353.75,-188.5 353.75,-169.25 305.5,-169.25"/>
<text text-anchor="middle" x="329.62" y="-175" font-family="Helvetica,sans-Serif" font-size="10.00">string.h</text>
</a>
</g>
</g>
<!-- Node1&#45;&gt;Node4 -->
<g id="edge3" class="edge">
<title>Node1&#45;&gt;Node4</title>
<path fill="none" stroke="midnightblue" d="M1110.37,-283.89C1020.32,-272.04 823.04,-246.18 656.62,-225 528.22,-208.66 494.98,-212.15 367.62,-189 366.8,-188.85 365.96,-188.69 365.12,-188.53"/>
<polygon fill="midnightblue" stroke="midnightblue" points="366.06,-185.15 355.55,-186.49 364.6,-192 366.06,-185.15"/>
</g>
<!-- Node5 -->
<g id="node5" class="node">
<title>Node5</title>
<g id="a_node5"><a xlink:title=" ">
<polygon fill="white" stroke="#bfbfbf" points="1400.62,-225.5 1400.62,-244.75 1446.62,-244.75 1446.62,-225.5 1400.62,-225.5"/>
<text text-anchor="middle" x="1423.62" y="-231.25" font-family="Helvetica,sans-Serif" font-size="10.00">math.h</text>
</a>
</g>
</g>
<!-- Node1&#45;&gt;Node5 -->
<g id="edge4" class="edge">
<title>Node1&#45;&gt;Node5</title>
<path fill="none" stroke="midnightblue" d="M1208.77,-282.08C1253.52,-274.24 1321.62,-261.61 1389.4,-245.63"/>
<polygon fill="midnightblue" stroke="midnightblue" points="1389.88,-249.11 1398.8,-243.39 1388.26,-242.3 1389.88,-249.11"/>
</g>
<!-- Node6 -->
<g id="node6" class="node">
<title>Node6</title>
<g id="a_node6"><a xlink:href="_rexx_core_8h.html" target="_top" xlink:title=" ">
<polygon fill="white" stroke="black" points="1125.38,-225.5 1125.38,-244.75 1193.88,-244.75 1193.88,-225.5 1125.38,-225.5"/>
<text text-anchor="middle" x="1159.62" y="-231.25" font-family="Helvetica,sans-Serif" font-size="10.00">RexxCore.h</text>
</a>
</g>
</g>
<!-- Node1&#45;&gt;Node6 -->
<g id="edge5" class="edge">
<title>Node1&#45;&gt;Node6</title>
<path fill="none" stroke="midnightblue" d="M1159.62,-281.42C1159.62,-274.62 1159.62,-265.01 1159.62,-256.4"/>
<polygon fill="midnightblue" stroke="midnightblue" points="1163.13,-256.43 1159.63,-246.43 1156.13,-256.43 1163.13,-256.43"/>
</g>
<!-- Node52 -->
<g id="node46" class="node">
<title>Node52</title>
<g id="a_node46"><a xlink:href="_string_class_8hpp.html" target="_top" xlink:title=" ">
<polygon fill="white" stroke="black" points="133.75,-225.5 133.75,-244.75 219.5,-244.75 219.5,-225.5 133.75,-225.5"/>
<text text-anchor="middle" x="176.62" y="-231.25" font-family="Helvetica,sans-Serif" font-size="10.00">StringClass.hpp</text>
</a>
</g>
</g>
<!-- Node1&#45;&gt;Node52 -->
<g id="edge53" class="edge">
<title>Node1&#45;&gt;Node52</title>
<path fill="none" stroke="midnightblue" d="M1110.54,-287.67C944.64,-278.51 405.45,-248.75 231.36,-239.15"/>
<polygon fill="midnightblue" stroke="midnightblue" points="231.64,-235.66 221.46,-238.6 231.25,-242.65 231.64,-235.66"/>
</g>
<!-- Node71 -->
<g id="node50" class="node">
<title>Node71</title>
<g id="a_node50"><a xlink:href="_protected_object_8hpp.html" target="_top" xlink:title=" ">
<polygon fill="white" stroke="black" points="1212,-225.5 1212,-244.75 1317.25,-244.75 1317.25,-225.5 1212,-225.5"/>
<text text-anchor="middle" x="1264.62" y="-231.25" font-family="Helvetica,sans-Serif" font-size="10.00">ProtectedObject.hpp</text>
</a>
</g>
</g>
<!-- Node1&#45;&gt;Node71 -->
<g id="edge61" class="edge">
<title>Node1&#45;&gt;Node71</title>
<path fill="none" stroke="midnightblue" d="M1176.96,-281.42C1193.3,-272.97 1218.05,-260.19 1237.09,-250.35"/>
<polygon fill="midnightblue" stroke="midnightblue" points="1238.64,-253.49 1245.92,-245.79 1235.43,-247.27 1238.64,-253.49"/>
</g>
<!-- Node6&#45;&gt;Node2 -->
<g id="edge12" class="edge">
<title>Node6&#45;&gt;Node2</title>
<path fill="none" stroke="midnightblue" d="M1125.29,-233.33C988.64,-230 482.34,-216.2 299.32,-189.02"/>
<polygon fill="midnightblue" stroke="midnightblue" points="299.92,-185.57 289.5,-187.49 298.84,-192.49 299.92,-185.57"/>
</g>
<!-- Node6&#45;&gt;Node4 -->
<g id="edge11" class="edge">
<title>Node6&#45;&gt;Node4</title>
<path fill="none" stroke="midnightblue" d="M1125.05,-234.35C1014.24,-234.61 658.18,-231.81 367.62,-189 366.79,-188.88 365.96,-188.75 365.11,-188.61"/>
<polygon fill="midnightblue" stroke="midnightblue" points="366,-185.21 355.51,-186.71 364.65,-192.08 366,-185.21"/>
</g>
<!-- Node7 -->
<g id="node7" class="node">
<title>Node7</title>
<g id="a_node7"><a xlink:href="oorexxapi_8h.html" target="_top" xlink:title=" ">
<polygon fill="white" stroke="black" points="409.5,-169.25 409.5,-188.5 475.75,-188.5 475.75,-169.25 409.5,-169.25"/>
<text text-anchor="middle" x="442.62" y="-175" font-family="Helvetica,sans-Serif" font-size="10.00">oorexxapi.h</text>
</a>
</g>
</g>
<!-- Node6&#45;&gt;Node7 -->
<g id="edge6" class="edge">
<title>Node6&#45;&gt;Node7</title>
<path fill="none" stroke="midnightblue" d="M1125.02,-233.61C1026.65,-231.75 736.92,-223.66 487.13,-189.15"/>
<polygon fill="midnightblue" stroke="midnightblue" points="487.9,-185.72 477.51,-187.8 486.93,-192.66 487.9,-185.72"/>
</g>
<!-- Node14 -->
<g id="node10" class="node">
<title>Node14</title>
<g id="a_node10"><a xlink:title=" ">
<polygon fill="white" stroke="#bfbfbf" points="1225,-169.25 1225,-188.5 1270.25,-188.5 1270.25,-169.25 1225,-169.25"/>
<text text-anchor="middle" x="1247.62" y="-175" font-family="Helvetica,sans-Serif" font-size="10.00">stdio.h</text>
</a>
</g>
</g>
<!-- Node6&#45;&gt;Node14 -->
<g id="edge9" class="edge">
<title>Node6&#45;&gt;Node14</title>
<path fill="none" stroke="midnightblue" d="M1174.16,-225.17C1187.53,-216.92 1207.63,-204.53 1223.43,-194.79"/>
<polygon fill="midnightblue" stroke="midnightblue" points="1225.11,-197.87 1231.78,-189.64 1221.43,-191.91 1225.11,-197.87"/>
</g>
<!-- Node15 -->
<g id="node11" class="node">
<title>Node15</title>
<g id="a_node11"><a xlink:title=" ">
<polygon fill="white" stroke="#bfbfbf" points="467,-113 467,-132.25 518.25,-132.25 518.25,-113 467,-113"/>
<text text-anchor="middle" x="492.62" y="-118.75" font-family="Helvetica,sans-Serif" font-size="10.00">stdarg.h</text>
</a>
</g>
</g>
<!-- Node6&#45;&gt;Node15 -->
<g id="edge10" class="edge">
<title>Node6&#45;&gt;Node15</title>
<path fill="none" stroke="midnightblue" d="M1124.9,-234.99C1049.99,-235.9 868.4,-232.92 724.62,-189 706.32,-183.41 704.57,-175.41 686.62,-168.75 621.63,-144.62 599.55,-149.61 529.73,-133.38"/>
<polygon fill="midnightblue" stroke="midnightblue" points="530.6,-129.99 520.06,-131.06 528.96,-136.8 530.6,-129.99"/>
</g>
<!-- Node16 -->
<g id="node12" class="node">
<title>Node16</title>
<g id="a_node12"><a xlink:title=" ">
<polygon fill="white" stroke="#bfbfbf" points="1364.88,-169.25 1364.88,-188.5 1412.38,-188.5 1412.38,-169.25 1364.88,-169.25"/>
<text text-anchor="middle" x="1388.62" y="-175" font-family="Helvetica,sans-Serif" font-size="10.00">limits.h</text>
</a>
</g>
</g>
<!-- Node6&#45;&gt;Node16 -->
<g id="edge13" class="edge">
<title>Node6&#45;&gt;Node16</title>
<path fill="none" stroke="midnightblue" d="M1194.14,-226.01C1232.4,-217.01 1295.94,-202.03 1350.62,-189 1351.61,-188.77 1352.6,-188.53 1353.61,-188.29"/>
<polygon fill="midnightblue" stroke="midnightblue" points="1354.12,-191.76 1363.03,-186.03 1352.49,-184.96 1354.12,-191.76"/>
</g>
<!-- Node17 -->
<g id="node13" class="node">
<title>Node17</title>
<g id="a_node13"><a xlink:title=" ">
<polygon fill="white" stroke="#bfbfbf" points="1430.25,-169.25 1430.25,-188.5 1489,-188.5 1489,-169.25 1430.25,-169.25"/>
<text text-anchor="middle" x="1459.62" y="-175" font-family="Helvetica,sans-Serif" font-size="10.00">stdexcept</text>
</a>
</g>
</g>
<!-- Node6&#45;&gt;Node17 -->
<g id="edge14" class="edge">
<title>Node6&#45;&gt;Node17</title>
<path fill="none" stroke="midnightblue" d="M1194.33,-226.62C1197.13,-226.05 1199.93,-225.51 1202.62,-225 1296.06,-207.42 1323.01,-208.43 1418.74,-189.47"/>
<polygon fill="midnightblue" stroke="midnightblue" points="1419.2,-192.95 1428.32,-187.55 1417.82,-186.09 1419.2,-192.95"/>
</g>
<!-- Node18 -->
<g id="node14" class="node">
<title>Node18</title>
<g id="a_node14"><a xlink:href="_rexx_platform_definitions_8h.html" target="_top" xlink:title=" ">
<polygon fill="white" stroke="black" points="733.25,-169.25 733.25,-188.5 864,-188.5 864,-169.25 733.25,-169.25"/>
<text text-anchor="middle" x="798.62" y="-175" font-family="Helvetica,sans-Serif" font-size="10.00">RexxPlatformDefinitions.h</text>
</a>
</g>
</g>
<!-- Node6&#45;&gt;Node18 -->
<g id="edge15" class="edge">
<title>Node6&#45;&gt;Node18</title>
<path fill="none" stroke="midnightblue" d="M1125.01,-228.92C1066.56,-220.14 947.15,-202.19 870.11,-190.62"/>
<polygon fill="midnightblue" stroke="midnightblue" points="870.97,-187.21 860.56,-189.18 869.92,-194.13 870.97,-187.21"/>
</g>
<!-- Node21 -->
<g id="node17" class="node">
<title>Node21</title>
<g id="a_node17"><a xlink:href="_rexx_constants_8hpp.html" target="_top" xlink:title=" ">
<polygon fill="white" stroke="black" points="1507.12,-169.25 1507.12,-188.5 1610.12,-188.5 1610.12,-169.25 1507.12,-169.25"/>
<text text-anchor="middle" x="1558.62" y="-175" font-family="Helvetica,sans-Serif" font-size="10.00">RexxConstants.hpp</text>
</a>
</g>
</g>
<!-- Node6&#45;&gt;Node21 -->
<g id="edge18" class="edge">
<title>Node6&#45;&gt;Node21</title>
<path fill="none" stroke="midnightblue" d="M1194.31,-226.49C1197.12,-225.96 1199.92,-225.45 1202.62,-225 1329.35,-203.86 1364.82,-206.6 1495.48,-189.25"/>
<polygon fill="midnightblue" stroke="midnightblue" points="1495.78,-192.74 1505.22,-187.94 1494.85,-185.8 1495.78,-192.74"/>
</g>
<!-- Node22 -->
<g id="node18" class="node">
<title>Node22</title>
<g id="a_node18"><a xlink:href="_class_type_codes_8h.html" target="_top" xlink:title=" ">
<polygon fill="white" stroke="black" points="1111,-56.75 1111,-76 1210.25,-76 1210.25,-56.75 1111,-56.75"/>
<text text-anchor="middle" x="1160.62" y="-62.5" font-family="Helvetica,sans-Serif" font-size="10.00">ClassTypeCodes.h</text>
</a>
</g>
</g>
<!-- Node6&#45;&gt;Node22 -->
<g id="edge19" class="edge">
<title>Node6&#45;&gt;Node22</title>
<path fill="none" stroke="midnightblue" d="M1124.99,-226.79C1104.48,-220.47 1080.14,-209.08 1067.62,-189 1060.51,-177.58 1050.34,-141.26 1068.62,-112.5 1078.18,-97.48 1094.32,-87.3 1110.44,-80.48"/>
<polygon fill="midnightblue" stroke="midnightblue" points="1111.45,-83.84 1119.55,-77.01 1108.96,-77.3 1111.45,-83.84"/>
</g>
<!-- Node23 -->
<g id="node19" class="node">
<title>Node23</title>
<g id="a_node19"><a xlink:href="_global_names_8h.html" target="_top" xlink:title=" ">
<polygon fill="white" stroke="black" points="1627.88,-169.25 1627.88,-188.5 1711.38,-188.5 1711.38,-169.25 1627.88,-169.25"/>
<text text-anchor="middle" x="1669.62" y="-175" font-family="Helvetica,sans-Serif" font-size="10.00">GlobalNames.h</text>
</a>
</g>
</g>
<!-- Node6&#45;&gt;Node23 -->
<g id="edge20" class="edge">
<title>Node6&#45;&gt;Node23</title>
<path fill="none" stroke="midnightblue" d="M1194.29,-226.39C1197.1,-225.87 1199.91,-225.4 1202.62,-225 1382.94,-198.19 1433.25,-213.1 1616.02,-189.38"/>
<polygon fill="midnightblue" stroke="midnightblue" points="1616.43,-192.85 1625.89,-188.07 1615.51,-185.91 1616.43,-192.85"/>
</g>
<!-- Node24 -->
<g id="node20" class="node">
<title>Node24</title>
<g id="a_node20"><a xlink:href="_object_class_8hpp.html" target="_top" xlink:title=" ">
<polygon fill="white" stroke="black" points="932.25,-113 932.25,-132.25 1021,-132.25 1021,-113 932.25,-113"/>
<text text-anchor="middle" x="976.62" y="-118.75" font-family="Helvetica,sans-Serif" font-size="10.00">ObjectClass.hpp</text>
</a>
</g>
</g>
<!-- Node6&#45;&gt;Node24 -->
<g id="edge21" class="edge">
<title>Node6&#45;&gt;Node24</title>
<path fill="none" stroke="midnightblue" d="M1125.12,-226.62C1098.74,-219.76 1062.32,-207.77 1034.62,-189 1015.85,-176.27 999.22,-156.11 988.64,-141.55"/>
<polygon fill="midnightblue" stroke="midnightblue" points="991.79,-139.94 983.19,-133.75 986.05,-143.95 991.79,-139.94"/>
</g>
<!-- Node27 -->
<g id="node23" class="node">
<title>Node27</title>
<g id="a_node23"><a xlink:href="_table_class_8hpp.html" target="_top" xlink:title=" ">
<polygon fill="white" stroke="black" points="1493.88,-56.75 1493.88,-76 1577.38,-76 1577.38,-56.75 1493.88,-56.75"/>
<text text-anchor="middle" x="1535.62" y="-62.5" font-family="Helvetica,sans-Serif" font-size="10.00">TableClass.hpp</text>
</a>
</g>
</g>
<!-- Node6&#45;&gt;Node27 -->
<g id="edge24" class="edge">
<title>Node6&#45;&gt;Node27</title>
<path fill="none" stroke="midnightblue" d="M1164.38,-225.03C1172.6,-210.33 1191.01,-181.67 1215.62,-168.75 1283.68,-133.03 1508.18,-189.86 1559.62,-132.75 1571.72,-119.32 1561.51,-99.28 1550.91,-84.93"/>
<polygon fill="midnightblue" stroke="midnightblue" points="1553.72,-82.84 1544.73,-77.24 1548.27,-87.23 1553.72,-82.84"/>
</g>
<!-- Node30 -->
<g id="node25" class="node">
<title>Node30</title>
<g id="a_node25"><a xlink:href="_stack_class_8hpp.html" target="_top" xlink:title=" ">
<polygon fill="white" stroke="black" points="1729.75,-169.25 1729.75,-188.5 1815.5,-188.5 1815.5,-169.25 1729.75,-169.25"/>
<text text-anchor="middle" x="1772.62" y="-175" font-family="Helvetica,sans-Serif" font-size="10.00">StackClass.hpp</text>
</a>
</g>
</g>
<!-- Node6&#45;&gt;Node30 -->
<g id="edge26" class="edge">
<title>Node6&#45;&gt;Node30</title>
<path fill="none" stroke="midnightblue" d="M1194.29,-226.34C1197.1,-225.84 1199.9,-225.38 1202.62,-225 1427.49,-193.48 1489.56,-216.22 1717.91,-189.2"/>
<polygon fill="midnightblue" stroke="midnightblue" points="1718.25,-192.68 1727.76,-188.01 1717.41,-185.74 1718.25,-192.68"/>
</g>
<!-- Node31 -->
<g id="node26" class="node">
<title>Node31</title>
<g id="a_node26"><a xlink:href="_rexx_memory_8hpp.html" target="_top" xlink:title=" ">
<polygon fill="white" stroke="black" points="1076.75,-169.25 1076.75,-188.5 1168.5,-188.5 1168.5,-169.25 1076.75,-169.25"/>
<text text-anchor="middle" x="1122.62" y="-175" font-family="Helvetica,sans-Serif" font-size="10.00">RexxMemory.hpp</text>
</a>
</g>
</g>
<!-- Node6&#45;&gt;Node31 -->
<g id="edge27" class="edge">
<title>Node6&#45;&gt;Node31</title>
<path fill="none" stroke="midnightblue" d="M1153.52,-225.17C1148.5,-217.82 1141.25,-207.18 1135.03,-198.06"/>
<polygon fill="midnightblue" stroke="midnightblue" points="1138,-196.21 1129.47,-189.92 1132.22,-200.15 1138,-196.21"/>
</g>
<!-- Node38 -->
<g id="node31" class="node">
<title>Node38</title>
<g id="a_node31"><a xlink:href="_rexx_behaviour_8hpp.html" target="_top" xlink:title=" ">
<polygon fill="white" stroke="black" points="882.25,-169.25 882.25,-188.5 983,-188.5 983,-169.25 882.25,-169.25"/>
<text text-anchor="middle" x="932.62" y="-175" font-family="Helvetica,sans-Serif" font-size="10.00">RexxBehaviour.hpp</text>
</a>
</g>
</g>
<!-- Node6&#45;&gt;Node38 -->
<g id="edge35" class="edge">
<title>Node6&#45;&gt;Node38</title>
<path fill="none" stroke="midnightblue" d="M1125.15,-225.89C1086.89,-216.74 1024.86,-201.92 981.58,-191.58"/>
<polygon fill="midnightblue" stroke="midnightblue" points="982.47,-188.19 971.93,-189.27 980.84,-195 982.47,-188.19"/>
</g>
<!-- Node40 -->
<g id="node33" class="node">
<title>Node40</title>
<g id="a_node33"><a xlink:href="_class_class_8hpp.html" target="_top" xlink:title=" ">
<polygon fill="white" stroke="black" points="1833.75,-169.25 1833.75,-188.5 1919.5,-188.5 1919.5,-169.25 1833.75,-169.25"/>
<text text-anchor="middle" x="1876.62" y="-175" font-family="Helvetica,sans-Serif" font-size="10.00">ClassClass.hpp</text>
</a>
</g>
</g>
<!-- Node6&#45;&gt;Node40 -->
<g id="edge37" class="edge">
<title>Node6&#45;&gt;Node40</title>
<path fill="none" stroke="midnightblue" d="M1194.28,-226.3C1197.09,-225.81 1199.9,-225.37 1202.62,-225 1473.45,-188.64 1547.62,-220.13 1822.16,-189.15"/>
<polygon fill="midnightblue" stroke="midnightblue" points="1822.23,-192.66 1831.76,-188.04 1821.43,-185.71 1822.23,-192.66"/>
</g>
<!-- Node41 -->
<g id="node34" class="node">
<title>Node41</title>
<g id="a_node34"><a xlink:href="_rexx_envelope_8hpp.html" target="_top" xlink:title=" ">
<polygon fill="white" stroke="black" points="579.38,-169.25 579.38,-188.5 677.88,-188.5 677.88,-169.25 579.38,-169.25"/>
<text text-anchor="middle" x="628.62" y="-175" font-family="Helvetica,sans-Serif" font-size="10.00">RexxEnvelope.hpp</text>
</a>
</g>
</g>
<!-- Node6&#45;&gt;Node41 -->
<g id="edge38" class="edge">
<title>Node6&#45;&gt;Node41</title>
<path fill="none" stroke="midnightblue" d="M1124.92,-231.35C1047.21,-225.01 853.3,-208.49 691.62,-189 690.8,-188.9 689.97,-188.8 689.14,-188.7"/>
<polygon fill="midnightblue" stroke="midnightblue" points="689.99,-185.28 679.62,-187.47 689.09,-192.22 689.99,-185.28"/>
</g>
<!-- Node42 -->
<g id="node35" class="node">
<title>Node42</title>
<g id="a_node35"><a xlink:href="_rexx_activity_8hpp.html" target="_top" xlink:title=" ">
<polygon fill="white" stroke="red" points="2059.88,-169.25 2059.88,-188.5 2149.38,-188.5 2149.38,-169.25 2059.88,-169.25"/>
<text text-anchor="middle" x="2104.62" y="-175" font-family="Helvetica,sans-Serif" font-size="10.00">RexxActivity.hpp</text>
</a>
</g>
</g>
<!-- Node6&#45;&gt;Node42 -->
<g id="edge39" class="edge">
<title>Node6&#45;&gt;Node42</title>
<path fill="none" stroke="midnightblue" d="M1194.27,-226.25C1197.09,-225.77 1199.9,-225.34 1202.62,-225 1573.13,-178.16 1673.47,-227.5 2048.15,-189.11"/>
<polygon fill="midnightblue" stroke="midnightblue" points="2048.51,-192.59 2058.1,-188.07 2047.79,-185.63 2048.51,-192.59"/>
</g>
<!-- Node53 -->
<g id="node44" class="node">
<title>Node53</title>
<g id="a_node44"><a xlink:href="_number_string_class_8hpp.html" target="_top" xlink:title=" ">
<polygon fill="white" stroke="red" points="144.5,-113 144.5,-132.25 264.75,-132.25 264.75,-113 144.5,-113"/>
<text text-anchor="middle" x="204.62" y="-118.75" font-family="Helvetica,sans-Serif" font-size="10.00">NumberStringClass.hpp</text>
</a>
</g>
</g>
<!-- Node6&#45;&gt;Node53 -->
<g id="edge50" class="edge">
<title>Node6&#45;&gt;Node53</title>
<path fill="none" stroke="midnightblue" d="M1124.88,-232.93C985.47,-228.04 470.83,-208.77 400.62,-189 382.2,-183.81 380.37,-175.92 362.62,-168.75 328.11,-154.81 287.74,-143.36 256.44,-135.48"/>
<polygon fill="midnightblue" stroke="midnightblue" points="257.37,-132.1 246.82,-133.1 255.69,-138.9 257.37,-132.1"/>
</g>
<!-- Node69 -->
<g id="node45" class="node">
<title>Node69</title>
<g id="a_node45"><a xlink:href="_activity_manager_8hpp.html" target="_top" xlink:title=" ">
<polygon fill="white" stroke="red" points="1937.38,-169.25 1937.38,-188.5 2041.88,-188.5 2041.88,-169.25 1937.38,-169.25"/>
<text text-anchor="middle" x="1989.62" y="-175" font-family="Helvetica,sans-Serif" font-size="10.00">ActivityManager.hpp</text>
</a>
</g>
</g>
<!-- Node6&#45;&gt;Node69 -->
<g id="edge52" class="edge">
<title>Node6&#45;&gt;Node69</title>
<path fill="none" stroke="midnightblue" d="M1194.28,-226.28C1197.09,-225.79 1199.9,-225.35 1202.62,-225 1519.39,-183.8 1605.22,-220.1 1926.07,-189.15"/>
<polygon fill="midnightblue" stroke="midnightblue" points="1925.98,-192.68 1935.59,-188.22 1925.29,-185.71 1925.98,-192.68"/>
</g>
<!-- Node8 -->
<g id="node8" class="node">
<title>Node8</title>
<g id="a_node8"><a xlink:href="rexx_8h.html" target="_top" xlink:title=" ">
<polygon fill="white" stroke="red" points="406.12,-113 406.12,-132.25 449.12,-132.25 449.12,-113 406.12,-113"/>
<text text-anchor="middle" x="427.62" y="-118.75" font-family="Helvetica,sans-Serif" font-size="10.00">rexx.h</text>
</a>
</g>
</g>
<!-- Node7&#45;&gt;Node8 -->
<g id="edge7" class="edge">
<title>Node7&#45;&gt;Node8</title>
<path fill="none" stroke="midnightblue" d="M440.15,-168.92C438.23,-161.96 435.49,-152.07 433.06,-143.3"/>
<polygon fill="midnightblue" stroke="midnightblue" points="436.5,-142.58 430.46,-133.88 429.75,-144.45 436.5,-142.58"/>
</g>
<!-- Node13 -->
<g id="node9" class="node">
<title>Node13</title>
<g id="a_node9"><a xlink:href="oorexxerrors_8h.html" target="_top" xlink:title=" ">
<polygon fill="white" stroke="black" points="309.5,-113 309.5,-132.25 387.75,-132.25 387.75,-113 309.5,-113"/>
<text text-anchor="middle" x="348.62" y="-118.75" font-family="Helvetica,sans-Serif" font-size="10.00">oorexxerrors.h</text>
</a>
</g>
</g>
<!-- Node7&#45;&gt;Node13 -->
<g id="edge8" class="edge">
<title>Node7&#45;&gt;Node13</title>
<path fill="none" stroke="midnightblue" d="M427.1,-168.92C412.68,-160.59 390.94,-148.04 373.99,-138.27"/>
<polygon fill="midnightblue" stroke="midnightblue" points="375.89,-135.32 365.48,-133.35 372.39,-141.38 375.89,-135.32"/>
</g>
<!-- Node19 -->
<g id="node15" class="node">
<title>Node19</title>
<g id="a_node15"><a xlink:title=" ">
<polygon fill="white" stroke="#bfbfbf" points="650.88,-113 650.88,-132.25 758.38,-132.25 758.38,-113 650.88,-113"/>
<text text-anchor="middle" x="704.62" y="-118.75" font-family="Helvetica,sans-Serif" font-size="10.00">PlatformDefinitions.h</text>
</a>
</g>
</g>
<!-- Node18&#45;&gt;Node19 -->
<g id="edge16" class="edge">
<title>Node18&#45;&gt;Node19</title>
<path fill="none" stroke="midnightblue" d="M783.1,-168.92C768.68,-160.59 746.94,-148.04 729.99,-138.27"/>
<polygon fill="midnightblue" stroke="midnightblue" points="731.89,-135.32 721.48,-133.35 728.39,-141.38 731.89,-135.32"/>
</g>
<!-- Node20 -->
<g id="node16" class="node">
<title>Node20</title>
<g id="a_node16"><a xlink:href="_rexx_error_codes_8h.html" target="_top" xlink:title=" ">
<polygon fill="white" stroke="black" points="536.12,-113 536.12,-132.25 633.12,-132.25 633.12,-113 536.12,-113"/>
<text text-anchor="middle" x="584.62" y="-118.75" font-family="Helvetica,sans-Serif" font-size="10.00">RexxErrorCodes.h</text>
</a>
</g>
</g>
<!-- Node18&#45;&gt;Node20 -->
<g id="edge17" class="edge">
<title>Node18&#45;&gt;Node20</title>
<path fill="none" stroke="midnightblue" d="M762.81,-168.79C726.77,-159.66 671.04,-145.53 631.5,-135.51"/>
<polygon fill="midnightblue" stroke="midnightblue" points="632.58,-132.17 622.03,-133.11 630.86,-138.96 632.58,-132.17"/>
</g>
<!-- Node25 -->
<g id="node21" class="node">
<title>Node25</title>
<g id="a_node21"><a xlink:href="_numerics_8hpp.html" target="_top" xlink:title=" ">
<polygon fill="white" stroke="black" points="570.25,-56.75 570.25,-76 647,-76 647,-56.75 570.25,-56.75"/>
<text text-anchor="middle" x="608.62" y="-62.5" font-family="Helvetica,sans-Serif" font-size="10.00">Numerics.hpp</text>
</a>
</g>
</g>
<!-- Node24&#45;&gt;Node25 -->
<g id="edge22" class="edge">
<title>Node24&#45;&gt;Node25</title>
<path fill="none" stroke="midnightblue" d="M931.82,-113.82C929.05,-113.37 926.3,-112.92 923.62,-112.5 830.12,-97.76 720.68,-82.54 658.52,-74.08"/>
<polygon fill="midnightblue" stroke="midnightblue" points="659.35,-70.66 648.97,-72.78 658.41,-77.6 659.35,-70.66"/>
</g>
<!-- Node26 -->
<g id="node22" class="node">
<title>Node26</title>
<g id="a_node22"><a xlink:title=" ">
<polygon fill="white" stroke="#bfbfbf" points="996,-56.75 996,-76 1047.25,-76 1047.25,-56.75 996,-56.75"/>
<text text-anchor="middle" x="1021.62" y="-62.5" font-family="Helvetica,sans-Serif" font-size="10.00">stddef.h</text>
</a>
</g>
</g>
<!-- Node24&#45;&gt;Node26 -->
<g id="edge23" class="edge">
<title>Node24&#45;&gt;Node26</title>
<path fill="none" stroke="midnightblue" d="M984.06,-112.67C990.28,-105.16 999.35,-94.22 1007.03,-84.98"/>
<polygon fill="midnightblue" stroke="midnightblue" points="1009.68,-87.26 1013.37,-77.33 1004.29,-82.79 1009.68,-87.26"/>
</g>
<!-- Node28 -->
<g id="node24" class="node">
<title>Node28</title>
<g id="a_node24"><a xlink:href="_rexx_collection_8hpp.html" target="_top" xlink:title=" ">
<polygon fill="white" stroke="red" points="1484.88,-0.5 1484.88,-19.75 1586.38,-19.75 1586.38,-0.5 1484.88,-0.5"/>
<text text-anchor="middle" x="1535.62" y="-6.25" font-family="Helvetica,sans-Serif" font-size="10.00">RexxCollection.hpp</text>
</a>
</g>
</g>
<!-- Node27&#45;&gt;Node28 -->
<g id="edge25" class="edge">
<title>Node27&#45;&gt;Node28</title>
<path fill="none" stroke="midnightblue" d="M1535.62,-56.42C1535.62,-49.62 1535.62,-40.01 1535.62,-31.4"/>
<polygon fill="midnightblue" stroke="midnightblue" points="1539.13,-31.43 1535.63,-21.43 1532.13,-31.43 1539.13,-31.43"/>
</g>
<!-- Node32 -->
<g id="node27" class="node">
<title>Node32</title>
<g id="a_node27"><a xlink:title=" ">
<polygon fill="white" stroke="#bfbfbf" points="1314.88,-113 1314.88,-132.25 1416.38,-132.25 1416.38,-113 1314.88,-113"/>
<text text-anchor="middle" x="1365.62" y="-118.75" font-family="Helvetica,sans-Serif" font-size="10.00">SysSemaphore.hpp</text>
</a>
</g>
</g>
<!-- Node31&#45;&gt;Node32 -->
<g id="edge28" class="edge">
<title>Node31&#45;&gt;Node32</title>
<path fill="none" stroke="midnightblue" d="M1163.3,-168.79C1204.65,-159.56 1268.86,-145.23 1313.83,-135.19"/>
<polygon fill="midnightblue" stroke="midnightblue" points="1314.35,-138.66 1323.34,-133.06 1312.82,-131.83 1314.35,-138.66"/>
</g>
<!-- Node33 -->
<g id="node28" class="node">
<title>Node33</title>
<g id="a_node28"><a xlink:href="_identity_table_class_8hpp.html" target="_top" xlink:title=" ">
<polygon fill="white" stroke="black" points="1434.75,-113 1434.75,-132.25 1550.5,-132.25 1550.5,-113 1434.75,-113"/>
<text text-anchor="middle" x="1492.62" y="-118.75" font-family="Helvetica,sans-Serif" font-size="10.00">IdentityTableClass.hpp</text>
</a>
</g>
</g>
<!-- Node31&#45;&gt;Node33 -->
<g id="edge29" class="edge">
<title>Node31&#45;&gt;Node33</title>
<path fill="none" stroke="midnightblue" d="M1168.81,-170.82C1173.47,-170.12 1178.14,-169.42 1182.62,-168.75 1265.17,-156.47 1360.14,-142.69 1422.98,-133.63"/>
<polygon fill="midnightblue" stroke="midnightblue" points="1423.43,-137.1 1432.83,-132.21 1422.44,-130.18 1423.43,-137.1"/>
</g>
<!-- Node34 -->
<g id="node29" class="node">
<title>Node34</title>
<g id="a_node29"><a xlink:href="_memory_stats_8hpp.html" target="_top" xlink:title=" ">
<polygon fill="white" stroke="black" points="1204,-113 1204,-132.25 1297.25,-132.25 1297.25,-113 1204,-113"/>
<text text-anchor="middle" x="1250.62" y="-118.75" font-family="Helvetica,sans-Serif" font-size="10.00">MemoryStats.hpp</text>
</a>
</g>
</g>
<!-- Node31&#45;&gt;Node34 -->
<g id="edge31" class="edge">
<title>Node31&#45;&gt;Node34</title>
<path fill="none" stroke="midnightblue" d="M1144.05,-168.79C1164.45,-160.15 1195.4,-147.03 1218.71,-137.15"/>
<polygon fill="midnightblue" stroke="midnightblue" points="1219.9,-140.45 1227.74,-133.33 1217.16,-134.01 1219.9,-140.45"/>
</g>
<!-- Node35 -->
<g id="node30" class="node">
<title>Node35</title>
<g id="a_node30"><a xlink:href="_memory_segment_8hpp.html" target="_top" xlink:title=" ">
<polygon fill="white" stroke="red" points="1077.12,-113 1077.12,-132.25 1186.12,-132.25 1186.12,-113 1077.12,-113"/>
<text text-anchor="middle" x="1131.62" y="-118.75" font-family="Helvetica,sans-Serif" font-size="10.00">MemorySegment.hpp</text>
</a>
</g>
</g>
<!-- Node31&#45;&gt;Node35 -->
<g id="edge33" class="edge">
<title>Node31&#45;&gt;Node35</title>
<path fill="none" stroke="midnightblue" d="M1124.11,-168.92C1125.25,-162.04 1126.87,-152.29 1128.31,-143.6"/>
<polygon fill="midnightblue" stroke="midnightblue" points="1131.73,-144.35 1129.92,-133.91 1124.83,-143.2 1131.73,-144.35"/>
</g>
<!-- Node33&#45;&gt;Node27 -->
<g id="edge30" class="edge">
<title>Node33&#45;&gt;Node27</title>
<path fill="none" stroke="midnightblue" d="M1499.73,-112.67C1505.67,-105.16 1514.34,-94.22 1521.67,-84.98"/>
<polygon fill="midnightblue" stroke="midnightblue" points="1524.25,-87.36 1527.72,-77.35 1518.76,-83.02 1524.25,-87.36"/>
</g>
<!-- Node34&#45;&gt;Node22 -->
<g id="edge32" class="edge">
<title>Node34&#45;&gt;Node22</title>
<path fill="none" stroke="midnightblue" d="M1235.76,-112.67C1221.95,-104.34 1201.14,-91.79 1184.91,-82.02"/>
<polygon fill="midnightblue" stroke="midnightblue" points="1187.18,-79.29 1176.81,-77.13 1183.56,-85.29 1187.18,-79.29"/>
</g>
<!-- Node35&#45;&gt;Node26 -->
<g id="edge34" class="edge">
<title>Node35&#45;&gt;Node26</title>
<path fill="none" stroke="midnightblue" d="M1113.46,-112.67C1096.18,-104.15 1069.93,-91.2 1049.92,-81.33"/>
<polygon fill="midnightblue" stroke="midnightblue" points="1051.69,-78.3 1041.17,-77.02 1048.59,-84.58 1051.69,-78.3"/>
</g>
<!-- Node39 -->
<g id="node32" class="node">
<title>Node39</title>
<g id="a_node32"><a xlink:href="_primitive_behaviour_names_8h.html" target="_top" xlink:title=" ">
<polygon fill="white" stroke="black" points="776.88,-113 776.88,-132.25 914.38,-132.25 914.38,-113 776.88,-113"/>
<text text-anchor="middle" x="845.62" y="-118.75" font-family="Helvetica,sans-Serif" font-size="10.00">PrimitiveBehaviourNames.h</text>
</a>
</g>
</g>
<!-- Node38&#45;&gt;Node39 -->
<g id="edge36" class="edge">
<title>Node38&#45;&gt;Node39</title>
<path fill="none" stroke="midnightblue" d="M918.26,-168.92C905.04,-160.67 885.17,-148.28 869.55,-138.54"/>
<polygon fill="midnightblue" stroke="midnightblue" points="871.63,-135.72 861.3,-133.4 867.93,-141.66 871.63,-135.72"/>
</g>
<!-- Node43 -->
<g id="node36" class="node">
<title>Node43</title>
<g id="a_node36"><a xlink:href="_list_class_8hpp.html" target="_top" xlink:title=" ">
<polygon fill="white" stroke="red" points="2392.62,-113 2392.62,-132.25 2468.62,-132.25 2468.62,-113 2392.62,-113"/>
<text text-anchor="middle" x="2430.62" y="-118.75" font-family="Helvetica,sans-Serif" font-size="10.00">ListClass.hpp</text>
</a>
</g>
</g>
<!-- Node42&#45;&gt;Node43 -->
<g id="edge40" class="edge">
<title>Node42&#45;&gt;Node43</title>
<path fill="none" stroke="midnightblue" d="M2149.64,-171.04C2202.58,-162.9 2293.42,-148.63 2380.96,-133.18"/>
<polygon fill="midnightblue" stroke="midnightblue" points="2381.44,-136.65 2390.68,-131.46 2380.22,-129.76 2381.44,-136.65"/>
</g>
<!-- Node45 -->
<g id="node37" class="node">
<title>Node45</title>
<g id="a_node37"><a xlink:href="_rexx_internal_stack_8hpp.html" target="_top" xlink:title=" ">
<polygon fill="white" stroke="black" points="2486.75,-113 2486.75,-132.25 2602.5,-132.25 2602.5,-113 2486.75,-113"/>
<text text-anchor="middle" x="2544.62" y="-118.75" font-family="Helvetica,sans-Serif" font-size="10.00">RexxInternalStack.hpp</text>
</a>
</g>
</g>
<!-- Node42&#45;&gt;Node45 -->
<g id="edge41" class="edge">
<title>Node42&#45;&gt;Node45</title>
<path fill="none" stroke="midnightblue" d="M2149.72,-172.64C2217.83,-164.69 2351.28,-148.91 2475.32,-133.03"/>
<polygon fill="midnightblue" stroke="midnightblue" points="2475.55,-136.53 2485.03,-131.78 2474.66,-129.59 2475.55,-136.53"/>
</g>
<!-- Node46 -->
<g id="node38" class="node">
<title>Node46</title>
<g id="a_node38"><a xlink:href="_rexx_activation_stack_8hpp.html" target="_top" xlink:title=" ">
<polygon fill="white" stroke="black" points="1861.12,-113 1861.12,-132.25 1988.12,-132.25 1988.12,-113 1861.12,-113"/>
<text text-anchor="middle" x="1924.62" y="-118.75" font-family="Helvetica,sans-Serif" font-size="10.00">RexxActivationStack.hpp</text>
</a>
</g>
</g>
<!-- Node42&#45;&gt;Node46 -->
<g id="edge42" class="edge">
<title>Node42&#45;&gt;Node46</title>
<path fill="none" stroke="midnightblue" d="M2074.5,-168.79C2044.64,-159.8 1998.71,-145.95 1965.56,-135.96"/>
<polygon fill="midnightblue" stroke="midnightblue" points="1966.89,-132.71 1956.3,-133.17 1964.86,-139.41 1966.89,-132.71"/>
</g>
<!-- Node47 -->
<g id="node39" class="node">
<title>Node47</title>
<g id="a_node39"><a xlink:href="_expression_stack_8hpp.html" target="_top" xlink:title=" ">
<polygon fill="white" stroke="red" points="2006.12,-113 2006.12,-132.25 2115.12,-132.25 2115.12,-113 2006.12,-113"/>
<text text-anchor="middle" x="2060.62" y="-118.75" font-family="Helvetica,sans-Serif" font-size="10.00">ExpressionStack.hpp</text>
</a>
</g>
</g>
<!-- Node42&#45;&gt;Node47 -->
<g id="edge43" class="edge">
<title>Node42&#45;&gt;Node47</title>
<path fill="none" stroke="midnightblue" d="M2097.36,-168.92C2091.27,-161.41 2082.4,-150.47 2074.9,-141.23"/>
<polygon fill="midnightblue" stroke="midnightblue" points="2077.73,-139.15 2068.71,-133.59 2072.29,-143.56 2077.73,-139.15"/>
</g>
<!-- Node49 -->
<g id="node40" class="node">
<title>Node49</title>
<g id="a_node40"><a xlink:href="_rexx_local_variables_8hpp.html" target="_top" xlink:title=" ">
<polygon fill="white" stroke="red" points="2133.12,-113 2133.12,-132.25 2254.12,-132.25 2254.12,-113 2133.12,-113"/>
<text text-anchor="middle" x="2193.62" y="-118.75" font-family="Helvetica,sans-Serif" font-size="10.00">RexxLocalVariables.hpp</text>
</a>
</g>
</g>
<!-- Node42&#45;&gt;Node49 -->
<g id="edge44" class="edge">
<title>Node42&#45;&gt;Node49</title>
<path fill="none" stroke="midnightblue" d="M2119.32,-168.92C2132.85,-160.67 2153.18,-148.28 2169.15,-138.54"/>
<polygon fill="midnightblue" stroke="midnightblue" points="2170.9,-141.58 2177.61,-133.38 2167.25,-135.6 2170.9,-141.58"/>
</g>
<!-- Node64 -->
<g id="node41" class="node">
<title>Node64</title>
<g id="a_node41"><a xlink:href="_source_location_8hpp.html" target="_top" xlink:title=" ">
<polygon fill="white" stroke="black" points="2272.5,-113 2272.5,-132.25 2374.75,-132.25 2374.75,-113 2272.5,-113"/>
<text text-anchor="middle" x="2323.62" y="-118.75" font-family="Helvetica,sans-Serif" font-size="10.00">SourceLocation.hpp</text>
</a>
</g>
</g>
<!-- Node42&#45;&gt;Node64 -->
<g id="edge45" class="edge">
<title>Node42&#45;&gt;Node64</title>
<path fill="none" stroke="midnightblue" d="M2141.28,-168.79C2178.23,-159.64 2235.44,-145.47 2275.91,-135.44"/>
<polygon fill="midnightblue" stroke="midnightblue" points="2276.52,-138.9 2285.38,-133.1 2274.83,-132.11 2276.52,-138.9"/>
</g>
<!-- Node65 -->
<g id="node42" class="node">
<title>Node65</title>
<g id="a_node42"><a xlink:href="_exit_handler_8hpp.html" target="_top" xlink:title=" ">
<polygon fill="white" stroke="red" points="1607.12,-113 1607.12,-132.25 1692.12,-132.25 1692.12,-113 1607.12,-113"/>
<text text-anchor="middle" x="1649.62" y="-118.75" font-family="Helvetica,sans-Serif" font-size="10.00">ExitHandler.hpp</text>
</a>
</g>
</g>
<!-- Node42&#45;&gt;Node65 -->
<g id="edge46" class="edge">
<title>Node42&#45;&gt;Node65</title>
<path fill="none" stroke="midnightblue" d="M2059.58,-170.04C2056.55,-169.58 2053.55,-169.15 2050.62,-168.75 1899.73,-148.24 1858.01,-153.95 1703.74,-132.94"/>
<polygon fill="midnightblue" stroke="midnightblue" points="1704.32,-129.49 1693.94,-131.59 1703.36,-136.43 1704.32,-129.49"/>
</g>
<!-- Node67 -->
<g id="node43" class="node">
<title>Node67</title>
<g id="a_node43"><a xlink:href="_activation_api_contexts_8hpp.html" target="_top" xlink:title=" ">
<polygon fill="white" stroke="black" points="1710.5,-113 1710.5,-132.25 1842.75,-132.25 1842.75,-113 1710.5,-113"/>
<text text-anchor="middle" x="1776.62" y="-118.75" font-family="Helvetica,sans-Serif" font-size="10.00">ActivationApiContexts.hpp</text>
</a>
</g>
</g>
<!-- Node42&#45;&gt;Node67 -->
<g id="edge48" class="edge">
<title>Node42&#45;&gt;Node67</title>
<path fill="none" stroke="midnightblue" d="M2059.55,-170.24C2056.53,-169.74 2053.53,-169.24 2050.62,-168.75 1979.89,-156.95 1898.85,-143.63 1843.36,-134.54"/>
<polygon fill="midnightblue" stroke="midnightblue" points="1844.19,-131.13 1833.76,-132.96 1843.06,-138.03 1844.19,-131.13"/>
</g>
<!-- Node65&#45;&gt;Node6 -->
<g id="edge47" class="edge">
<title>Node65&#45;&gt;Node6</title>
<path fill="none" stroke="midnightblue" d="M1606.69,-130.62C1601.95,-131.36 1597.19,-132.08 1592.62,-132.75 1472.84,-150.32 1438.76,-134.56 1322.62,-168.75 1302.36,-174.72 1299.08,-180.78 1279.62,-189 1252.02,-200.67 1220.25,-212.55 1196.33,-221.19"/>
<polygon fill="midnightblue" stroke="midnightblue" points="1195.27,-217.85 1187.04,-224.52 1197.63,-224.44 1195.27,-217.85"/>
</g>
<!-- Node67&#45;&gt;Node6 -->
<g id="edge49" class="edge">
<title>Node67&#45;&gt;Node6</title>
<path fill="none" stroke="midnightblue" d="M1710.38,-131.75C1707.42,-132.09 1704.49,-132.43 1701.62,-132.75 1547.99,-150.09 1503.95,-125.11 1355.62,-168.75 1336.51,-174.37 1334.17,-181.7 1315.62,-189 1279.41,-203.26 1236.89,-215.26 1205.4,-223.3"/>
<polygon fill="midnightblue" stroke="midnightblue" points="1204.64,-219.88 1195.79,-225.7 1206.34,-226.67 1204.64,-219.88"/>
</g>
<!-- Node53&#45;&gt;Node25 -->
<g id="edge51" class="edge">
<title>Node53&#45;&gt;Node25</title>
<path fill="none" stroke="midnightblue" d="M265.11,-113.5C345.03,-102.77 484.35,-84.06 558.63,-74.09"/>
<polygon fill="midnightblue" stroke="midnightblue" points="559.03,-77.57 568.47,-72.77 558.1,-70.63 559.03,-77.57"/>
</g>
<!-- Node52&#45;&gt;Node53 -->
<g id="edge54" class="edge">
<title>Node52&#45;&gt;Node53</title>
<path fill="none" stroke="midnightblue" d="M159.54,-225.09C139.22,-213.08 109.59,-190.8 122.62,-168.75 131.29,-154.09 146.61,-143.87 161.67,-136.91"/>
<polygon fill="midnightblue" stroke="midnightblue" points="162.71,-140.27 170.58,-133.18 160.01,-133.81 162.71,-140.27"/>
</g>
<!-- Node55 -->
<g id="node47" class="node">
<title>Node55</title>
<g id="a_node47"><a xlink:href="_integer_class_8hpp.html" target="_top" xlink:title=" ">
<polygon fill="white" stroke="black" points="131.5,-169.25 131.5,-188.5 221.75,-188.5 221.75,-169.25 131.5,-169.25"/>
<text text-anchor="middle" x="176.62" y="-175" font-family="Helvetica,sans-Serif" font-size="10.00">IntegerClass.hpp</text>
</a>
</g>
</g>
<!-- Node52&#45;&gt;Node55 -->
<g id="edge55" class="edge">
<title>Node52&#45;&gt;Node55</title>
<path fill="none" stroke="midnightblue" d="M176.62,-225.17C176.62,-218.37 176.62,-208.76 176.62,-200.15"/>
<polygon fill="midnightblue" stroke="midnightblue" points="180.13,-200.18 176.63,-190.18 173.13,-200.18 180.13,-200.18"/>
</g>
<!-- Node56 -->
<g id="node48" class="node">
<title>Node56</title>
<g id="a_node48"><a xlink:href="_string_util_8hpp.html" target="_top" xlink:title=" ">
<polygon fill="white" stroke="black" points="0,-169.25 0,-188.5 75.25,-188.5 75.25,-169.25 0,-169.25"/>
<text text-anchor="middle" x="37.62" y="-175" font-family="Helvetica,sans-Serif" font-size="10.00">StringUtil.hpp</text>
</a>
</g>
</g>
<!-- Node52&#45;&gt;Node56 -->
<g id="edge57" class="edge">
<title>Node52&#45;&gt;Node56</title>
<path fill="none" stroke="midnightblue" d="M153.36,-225.04C131.01,-216.32 96.98,-203.04 71.6,-193.14"/>
<polygon fill="midnightblue" stroke="midnightblue" points="72.96,-189.91 62.38,-189.54 70.42,-196.43 72.96,-189.91"/>
</g>
<!-- Node57 -->
<g id="node49" class="node">
<title>Node57</title>
<g id="a_node49"><a xlink:href="_utilities_8hpp.html" target="_top" xlink:title=" ">
<polygon fill="white" stroke="red" points="493.75,-169.25 493.75,-188.5 561.5,-188.5 561.5,-169.25 493.75,-169.25"/>
<text text-anchor="middle" x="527.62" y="-175" font-family="Helvetica,sans-Serif" font-size="10.00">Utilities.hpp</text>
</a>
</g>
</g>
<!-- Node52&#45;&gt;Node57 -->
<g id="edge58" class="edge">
<title>Node52&#45;&gt;Node57</title>
<path fill="none" stroke="midnightblue" d="M219.87,-228.67C277.43,-221.22 382.65,-206.93 482.22,-189.34"/>
<polygon fill="midnightblue" stroke="midnightblue" points="482.68,-192.81 491.91,-187.61 481.45,-185.92 482.68,-192.81"/>
</g>
<!-- Node55&#45;&gt;Node53 -->
<g id="edge56" class="edge">
<title>Node55&#45;&gt;Node53</title>
<path fill="none" stroke="midnightblue" d="M181.25,-168.92C184.96,-161.73 190.3,-151.39 194.93,-142.4"/>
<polygon fill="midnightblue" stroke="midnightblue" points="197.92,-144.25 199.39,-133.76 191.7,-141.04 197.92,-144.25"/>
</g>
<!-- Node57&#45;&gt;Node8 -->
<g id="edge59" class="edge">
<title>Node57&#45;&gt;Node8</title>
<path fill="none" stroke="midnightblue" d="M511.11,-168.92C495.62,-160.51 472.2,-147.81 454.1,-137.99"/>
<polygon fill="midnightblue" stroke="midnightblue" points="455.95,-135.01 445.49,-133.32 452.61,-141.16 455.95,-135.01"/>
</g>
<!-- Node57&#45;&gt;Node15 -->
<g id="edge60" class="edge">
<title>Node57&#45;&gt;Node15</title>
<path fill="none" stroke="midnightblue" d="M521.85,-168.92C517.11,-161.57 510.24,-150.93 504.36,-141.81"/>
<polygon fill="midnightblue" stroke="midnightblue" points="507.48,-140.19 499.12,-133.69 501.6,-143.99 507.48,-140.19"/>
</g>
<!-- Node71&#45;&gt;Node42 -->
<g id="edge62" class="edge">
<title>Node71&#45;&gt;Node42</title>
<path fill="none" stroke="midnightblue" d="M1317.49,-225.89C1320.24,-225.56 1322.96,-225.26 1325.62,-225 1643.06,-193.45 1728,-223.25 2048.58,-189.08"/>
<polygon fill="midnightblue" stroke="midnightblue" points="2048.53,-192.61 2058.09,-188.05 2047.78,-185.65 2048.53,-192.61"/>
</g>
<!-- Node71&#45;&gt;Node69 -->
<g id="edge63" class="edge">
<title>Node71&#45;&gt;Node69</title>
<path fill="none" stroke="midnightblue" d="M1317.49,-225.92C1320.24,-225.59 1322.96,-225.28 1325.62,-225 1589,-197.49 1659.68,-216.36 1925.91,-189.19"/>
<polygon fill="midnightblue" stroke="midnightblue" points="1926,-192.7 1935.58,-188.19 1925.28,-185.74 1926,-192.7"/>
</g>
</g>
</svg>
