<?xml version="1.0" encoding="UTF-8" standalone="no"?>
<!DOCTYPE svg PUBLIC "-//W3C//DTD SVG 1.1//EN"
 "http://www.w3.org/Graphics/SVG/1.1/DTD/svg11.dtd">
<!-- Generated by graphviz version 12.1.0 (20240811.2233)
 -->
<!-- Title: TrappingDispatcher.cpp Pages: 1 -->
<!--zoomable 366 -->
<svg id="main" version="1.1" xmlns="http://www.w3.org/2000/svg" xmlns:xlink="http://www.w3.org/1999/xlink" xml:space="preserve" onload="init(evt)">
<style type="text/css"><![CDATA[
.edge:hover path { stroke: red; }
.edge:hover polygon { stroke: red; fill: red; }
]]></style>
<script type="text/javascript"><![CDATA[
var edges = document.getElementsByTagName('g');
if (edges && edges.length) {
  for (var i=0;i<edges.length;i++) {
    if (edges[i].id.substr(0,4)=='edge') {
      edges[i].setAttribute('class','edge');
    }
  }
}
]]></script>
        <defs>
                <circle id="rim" cx="0" cy="0" r="7"/>
                <circle id="rim2" cx="0" cy="0" r="3.5"/>
                <g id="zoomPlus">
                        <use xlink:href="#rim" fill="#404040">
                                <set attributeName="fill" to="#808080" begin="zoomplus.mouseover" end="zoomplus.mouseout"/>
                        </use>
                        <path d="M-4,0h8M0,-4v8" fill="none" stroke="white" stroke-width="1.5" pointer-events="none"/>
                </g>
                <g id="zoomMin">
                        <use xlink:href="#rim" fill="#404040">
                                <set attributeName="fill" to="#808080" begin="zoomminus.mouseover" end="zoomminus.mouseout"/>
                        </use>
                        <path d="M-4,0h8" fill="none" stroke="white" stroke-width="1.5" pointer-events="none"/>
                </g>
                <g id="dirArrow">
                        <path fill="none" stroke="white" stroke-width="1.5" d="M0,-3.0v7 M-2.5,-0.5L0,-3.0L2.5,-0.5"/>
                </g>
               <g id="resetDef">
                       <use xlink:href="#rim2" fill="#404040">
                               <set attributeName="fill" to="#808080" begin="reset.mouseover" end="reset.mouseout"/>
                       </use>
               </g>
        </defs>

<script type="text/javascript">
var viewWidth = 2551;
var viewHeight = 366;
var sectionId = 'dynsection-0';
</script>
<script xlink:href="svgpan.js"/>
<svg id="graph" class="graph">
<g id="viewport">
<title>TrappingDispatcher.cpp</title>
<polygon fill="white" stroke="none" points="-4,4 -4,-361.75 2546.5,-361.75 2546.5,4 -4,4"/>
<!-- Node1 -->
<g id="node1" class="node">
<title>Node1</title>
<g id="a_node1"><a xlink:title=" ">
<polygon fill="#bfbfbf" stroke="black" points="1537.62,-338 1537.62,-357.25 1656.38,-357.25 1656.38,-338 1537.62,-338"/>
<text text-anchor="middle" x="1597" y="-343.75" font-family="Helvetica,sans-Serif" font-size="10.00">TrappingDispatcher.cpp</text>
</a>
</g>
</g>
<!-- Node2 -->
<g id="node2" class="node">
<title>Node2</title>
<g id="a_node2"><a xlink:href="_rexx_core_8h.html" target="_top" xlink:title=" ">
<polygon fill="white" stroke="black" points="1095.75,-225.5 1095.75,-244.75 1164.25,-244.75 1164.25,-225.5 1095.75,-225.5"/>
<text text-anchor="middle" x="1130" y="-231.25" font-family="Helvetica,sans-Serif" font-size="10.00">RexxCore.h</text>
</a>
</g>
</g>
<!-- Node1&#45;&gt;Node2 -->
<g id="edge1" class="edge">
<title>Node1&#45;&gt;Node2</title>
<path fill="none" stroke="midnightblue" d="M1558.78,-337.58C1473.45,-317.39 1267.68,-268.7 1175.73,-246.94"/>
<polygon fill="midnightblue" stroke="midnightblue" points="1176.58,-243.55 1166.05,-244.65 1174.97,-250.36 1176.58,-243.55"/>
</g>
<!-- Node35 -->
<g id="node29" class="node">
<title>Node35</title>
<g id="a_node29"><a xlink:href="_interpreter_8hpp.html" target="_top" xlink:title=" ">
<polygon fill="white" stroke="black" points="7.88,-56.75 7.88,-76 86.12,-76 86.12,-56.75 7.88,-56.75"/>
<text text-anchor="middle" x="47" y="-62.5" font-family="Helvetica,sans-Serif" font-size="10.00">Interpreter.hpp</text>
</a>
</g>
</g>
<!-- Node1&#45;&gt;Node35 -->
<g id="edge55" class="edge">
<title>Node1&#45;&gt;Node35</title>
<path fill="none" stroke="midnightblue" d="M1537.31,-345.68C1247.39,-340.7 0,-314.72 0,-236.12 0,-236.12 0,-236.12 0,-177.88 0,-143.1 19.96,-106.72 33.86,-85.6"/>
<polygon fill="midnightblue" stroke="midnightblue" points="36.63,-87.75 39.41,-77.53 30.86,-83.79 36.63,-87.75"/>
</g>
<!-- Node40 -->
<g id="node34" class="node">
<title>Node40</title>
<g id="a_node34"><a xlink:href="_rexx_activity_8hpp.html" target="_top" xlink:title=" ">
<polygon fill="white" stroke="black" points="1626.25,-169.25 1626.25,-188.5 1715.75,-188.5 1715.75,-169.25 1626.25,-169.25"/>
<text text-anchor="middle" x="1671" y="-175" font-family="Helvetica,sans-Serif" font-size="10.00">RexxActivity.hpp</text>
</a>
</g>
</g>
<!-- Node1&#45;&gt;Node40 -->
<g id="edge61" class="edge">
<title>Node1&#45;&gt;Node40</title>
<path fill="none" stroke="midnightblue" d="M1594.21,-337.64C1588.19,-316.42 1576.12,-262.19 1597,-225 1604.87,-210.99 1619.05,-200.82 1632.9,-193.72"/>
<polygon fill="midnightblue" stroke="midnightblue" points="1634.36,-196.9 1641.95,-189.51 1631.41,-190.55 1634.36,-196.9"/>
</g>
<!-- Node69 -->
<g id="node47" class="node">
<title>Node69</title>
<g id="a_node47"><a xlink:href="_trapping_dispatcher_8hpp.html" target="_top" xlink:title=" ">
<polygon fill="white" stroke="black" points="1851.62,-281.75 1851.62,-301 1970.38,-301 1970.38,-281.75 1851.62,-281.75"/>
<text text-anchor="middle" x="1911" y="-287.5" font-family="Helvetica,sans-Serif" font-size="10.00">TrappingDispatcher.hpp</text>
</a>
</g>
</g>
<!-- Node1&#45;&gt;Node69 -->
<g id="edge54" class="edge">
<title>Node1&#45;&gt;Node69</title>
<path fill="none" stroke="midnightblue" d="M1649.56,-337.54C1703.9,-328.16 1788.79,-313.49 1847,-303.43"/>
<polygon fill="midnightblue" stroke="midnightblue" points="1847.52,-306.89 1856.78,-301.74 1846.33,-300 1847.52,-306.89"/>
</g>
<!-- Node70 -->
<g id="node48" class="node">
<title>Node70</title>
<g id="a_node48"><a xlink:href="_interpreter_instance_8hpp.html" target="_top" xlink:title=" ">
<polygon fill="white" stroke="black" points="1716.75,-281.75 1716.75,-301 1833.25,-301 1833.25,-281.75 1716.75,-281.75"/>
<text text-anchor="middle" x="1775" y="-287.5" font-family="Helvetica,sans-Serif" font-size="10.00">InterpreterInstance.hpp</text>
</a>
</g>
</g>
<!-- Node1&#45;&gt;Node70 -->
<g id="edge56" class="edge">
<title>Node1&#45;&gt;Node70</title>
<path fill="none" stroke="midnightblue" d="M1626.79,-337.54C1656.31,-328.55 1701.74,-314.7 1734.52,-304.71"/>
<polygon fill="midnightblue" stroke="midnightblue" points="1735.12,-308.19 1743.66,-301.93 1733.08,-301.49 1735.12,-308.19"/>
</g>
<!-- Node72 -->
<g id="node50" class="node">
<title>Node72</title>
<g id="a_node50"><a xlink:href="_rexx_native_activation_8hpp.html" target="_top" xlink:title=" ">
<polygon fill="white" stroke="black" points="1606,-225.5 1606,-244.75 1736,-244.75 1736,-225.5 1606,-225.5"/>
<text text-anchor="middle" x="1671" y="-231.25" font-family="Helvetica,sans-Serif" font-size="10.00">RexxNativeActivation.hpp</text>
</a>
</g>
</g>
<!-- Node1&#45;&gt;Node72 -->
<g id="edge62" class="edge">
<title>Node1&#45;&gt;Node72</title>
<path fill="none" stroke="midnightblue" d="M1603.06,-337.58C1615.2,-319.44 1642.75,-278.31 1658.79,-254.36"/>
<polygon fill="midnightblue" stroke="midnightblue" points="1661.57,-256.5 1664.23,-246.24 1655.75,-252.6 1661.57,-256.5"/>
</g>
<!-- Node3 -->
<g id="node3" class="node">
<title>Node3</title>
<g id="a_node3"><a xlink:href="oorexxapi_8h.html" target="_top" xlink:title=" ">
<polygon fill="white" stroke="black" points="1771.88,-169.25 1771.88,-188.5 1838.12,-188.5 1838.12,-169.25 1771.88,-169.25"/>
<text text-anchor="middle" x="1805" y="-175" font-family="Helvetica,sans-Serif" font-size="10.00">oorexxapi.h</text>
</a>
</g>
</g>
<!-- Node2&#45;&gt;Node3 -->
<g id="edge2" class="edge">
<title>Node2&#45;&gt;Node3</title>
<path fill="none" stroke="midnightblue" d="M1164.53,-233.1C1259.56,-229.96 1532.88,-218.83 1758,-189 1758.82,-188.89 1759.64,-188.78 1760.48,-188.66"/>
<polygon fill="midnightblue" stroke="midnightblue" points="1760.63,-192.18 1769.95,-187.14 1759.52,-185.27 1760.63,-192.18"/>
</g>
<!-- Node10 -->
<g id="node6" class="node">
<title>Node10</title>
<g id="a_node6"><a xlink:title=" ">
<polygon fill="white" stroke="#bfbfbf" points="1494.38,-169.25 1494.38,-188.5 1539.62,-188.5 1539.62,-169.25 1494.38,-169.25"/>
<text text-anchor="middle" x="1517" y="-175" font-family="Helvetica,sans-Serif" font-size="10.00">stdio.h</text>
</a>
</g>
</g>
<!-- Node2&#45;&gt;Node10 -->
<g id="edge5" class="edge">
<title>Node2&#45;&gt;Node10</title>
<path fill="none" stroke="midnightblue" d="M1164.55,-231.48C1226.49,-226.37 1360.59,-213.6 1482.98,-189.12"/>
<polygon fill="midnightblue" stroke="midnightblue" points="1483.45,-192.6 1492.55,-187.18 1482.05,-185.74 1483.45,-192.6"/>
</g>
<!-- Node11 -->
<g id="node7" class="node">
<title>Node11</title>
<g id="a_node7"><a xlink:title=" ">
<polygon fill="white" stroke="#bfbfbf" points="1557.38,-169.25 1557.38,-188.5 1608.62,-188.5 1608.62,-169.25 1557.38,-169.25"/>
<text text-anchor="middle" x="1583" y="-175" font-family="Helvetica,sans-Serif" font-size="10.00">stdarg.h</text>
</a>
</g>
</g>
<!-- Node2&#45;&gt;Node11 -->
<g id="edge6" class="edge">
<title>Node2&#45;&gt;Node11</title>
<path fill="none" stroke="midnightblue" d="M1164.48,-232.23C1234.69,-227.97 1399.38,-216.01 1546.12,-189.3"/>
<polygon fill="midnightblue" stroke="midnightblue" points="1546.42,-192.81 1555.62,-187.54 1545.15,-185.92 1546.42,-192.81"/>
</g>
<!-- Node12 -->
<g id="node8" class="node">
<title>Node12</title>
<g id="a_node8"><a xlink:title=" ">
<polygon fill="white" stroke="#bfbfbf" points="1893.88,-169.25 1893.88,-188.5 1942.12,-188.5 1942.12,-169.25 1893.88,-169.25"/>
<text text-anchor="middle" x="1918" y="-175" font-family="Helvetica,sans-Serif" font-size="10.00">string.h</text>
</a>
</g>
</g>
<!-- Node2&#45;&gt;Node12 -->
<g id="edge7" class="edge">
<title>Node2&#45;&gt;Node12</title>
<path fill="none" stroke="midnightblue" d="M1164.61,-234.2C1271.63,-233.95 1606.48,-229.75 1880,-189 1880.83,-188.88 1881.67,-188.74 1882.51,-188.6"/>
<polygon fill="midnightblue" stroke="midnightblue" points="1882.98,-192.08 1892.11,-186.7 1881.62,-185.21 1882.98,-192.08"/>
</g>
<!-- Node13 -->
<g id="node9" class="node">
<title>Node13</title>
<g id="a_node9"><a xlink:title=" ">
<polygon fill="white" stroke="#bfbfbf" points="65.88,-169.25 65.88,-188.5 114.12,-188.5 114.12,-169.25 65.88,-169.25"/>
<text text-anchor="middle" x="90" y="-175" font-family="Helvetica,sans-Serif" font-size="10.00">ctype.h</text>
</a>
</g>
</g>
<!-- Node2&#45;&gt;Node13 -->
<g id="edge8" class="edge">
<title>Node2&#45;&gt;Node13</title>
<path fill="none" stroke="midnightblue" d="M1095.29,-233.62C943.77,-231.24 338.78,-220.08 125.73,-189.01"/>
<polygon fill="midnightblue" stroke="midnightblue" points="126.28,-185.55 115.87,-187.5 125.23,-192.47 126.28,-185.55"/>
</g>
<!-- Node14 -->
<g id="node10" class="node">
<title>Node14</title>
<g id="a_node10"><a xlink:title=" ">
<polygon fill="white" stroke="#bfbfbf" points="132.25,-169.25 132.25,-188.5 179.75,-188.5 179.75,-169.25 132.25,-169.25"/>
<text text-anchor="middle" x="156" y="-175" font-family="Helvetica,sans-Serif" font-size="10.00">limits.h</text>
</a>
</g>
</g>
<!-- Node2&#45;&gt;Node14 -->
<g id="edge9" class="edge">
<title>Node2&#45;&gt;Node14</title>
<path fill="none" stroke="midnightblue" d="M1095.6,-233.5C950.97,-230.7 390.77,-218.3 191.22,-188.91"/>
<polygon fill="midnightblue" stroke="midnightblue" points="191.93,-185.48 181.51,-187.41 190.86,-192.39 191.93,-185.48"/>
</g>
<!-- Node15 -->
<g id="node11" class="node">
<title>Node15</title>
<g id="a_node11"><a xlink:title=" ">
<polygon fill="white" stroke="#bfbfbf" points="197.62,-169.25 197.62,-188.5 256.38,-188.5 256.38,-169.25 197.62,-169.25"/>
<text text-anchor="middle" x="227" y="-175" font-family="Helvetica,sans-Serif" font-size="10.00">stdexcept</text>
</a>
</g>
</g>
<!-- Node2&#45;&gt;Node15 -->
<g id="edge10" class="edge">
<title>Node2&#45;&gt;Node15</title>
<path fill="none" stroke="midnightblue" d="M1095.58,-234.59C979.84,-235.67 594.14,-235.42 267.86,-189.16"/>
<polygon fill="midnightblue" stroke="midnightblue" points="268.66,-185.74 258.27,-187.79 267.67,-192.67 268.66,-185.74"/>
</g>
<!-- Node16 -->
<g id="node12" class="node">
<title>Node16</title>
<g id="a_node12"><a xlink:href="_rexx_platform_definitions_8h.html" target="_top" xlink:title=" ">
<polygon fill="white" stroke="black" points="2308.62,-169.25 2308.62,-188.5 2439.38,-188.5 2439.38,-169.25 2308.62,-169.25"/>
<text text-anchor="middle" x="2374" y="-175" font-family="Helvetica,sans-Serif" font-size="10.00">RexxPlatformDefinitions.h</text>
</a>
</g>
</g>
<!-- Node2&#45;&gt;Node16 -->
<g id="edge11" class="edge">
<title>Node2&#45;&gt;Node16</title>
<path fill="none" stroke="midnightblue" d="M1164.57,-232.62C1331.65,-225.33 2057.23,-193.69 2296.87,-183.24"/>
<polygon fill="midnightblue" stroke="midnightblue" points="2296.9,-186.74 2306.74,-182.81 2296.59,-179.75 2296.9,-186.74"/>
</g>
<!-- Node19 -->
<g id="node15" class="node">
<title>Node19</title>
<g id="a_node15"><a xlink:href="_rexx_constants_8hpp.html" target="_top" xlink:title=" ">
<polygon fill="white" stroke="black" points="274.5,-169.25 274.5,-188.5 377.5,-188.5 377.5,-169.25 274.5,-169.25"/>
<text text-anchor="middle" x="326" y="-175" font-family="Helvetica,sans-Serif" font-size="10.00">RexxConstants.hpp</text>
</a>
</g>
</g>
<!-- Node2&#45;&gt;Node19 -->
<g id="edge14" class="edge">
<title>Node2&#45;&gt;Node19</title>
<path fill="none" stroke="midnightblue" d="M1095.42,-233.14C990.62,-229.92 667.16,-218.24 389.12,-189.25"/>
<polygon fill="midnightblue" stroke="midnightblue" points="389.81,-185.8 379.5,-188.24 389.08,-192.76 389.81,-185.8"/>
</g>
<!-- Node20 -->
<g id="node16" class="node">
<title>Node20</title>
<g id="a_node16"><a xlink:href="_class_type_codes_8h.html" target="_top" xlink:title=" ">
<polygon fill="white" stroke="black" points="601.38,-56.75 601.38,-76 700.62,-76 700.62,-56.75 601.38,-56.75"/>
<text text-anchor="middle" x="651" y="-62.5" font-family="Helvetica,sans-Serif" font-size="10.00">ClassTypeCodes.h</text>
</a>
</g>
</g>
<!-- Node2&#45;&gt;Node20 -->
<g id="edge15" class="edge">
<title>Node2&#45;&gt;Node20</title>
<path fill="none" stroke="midnightblue" d="M1106.77,-225.04C1084.92,-216.32 1051.4,-202.52 1023,-189 1005.72,-180.77 1002.68,-176.06 985,-168.75 931.63,-146.68 772.55,-101.27 694.78,-79.51"/>
<polygon fill="midnightblue" stroke="midnightblue" points="695.95,-76.21 685.37,-76.89 694.06,-82.95 695.95,-76.21"/>
</g>
<!-- Node21 -->
<g id="node17" class="node">
<title>Node21</title>
<g id="a_node17"><a xlink:href="_global_names_8h.html" target="_top" xlink:title=" ">
<polygon fill="white" stroke="black" points="788.25,-169.25 788.25,-188.5 871.75,-188.5 871.75,-169.25 788.25,-169.25"/>
<text text-anchor="middle" x="830" y="-175" font-family="Helvetica,sans-Serif" font-size="10.00">GlobalNames.h</text>
</a>
</g>
</g>
<!-- Node2&#45;&gt;Node21 -->
<g id="edge16" class="edge">
<title>Node2&#45;&gt;Node21</title>
<path fill="none" stroke="midnightblue" d="M1095.29,-227.85C1043.17,-218.42 944.26,-200.54 883.05,-189.47"/>
<polygon fill="midnightblue" stroke="midnightblue" points="884.03,-186.09 873.57,-187.75 882.79,-192.98 884.03,-186.09"/>
</g>
<!-- Node22 -->
<g id="node18" class="node">
<title>Node22</title>
<g id="a_node18"><a xlink:href="_object_class_8hpp.html" target="_top" xlink:title=" ">
<polygon fill="white" stroke="black" points="504.62,-169.25 504.62,-188.5 593.38,-188.5 593.38,-169.25 504.62,-169.25"/>
<text text-anchor="middle" x="549" y="-175" font-family="Helvetica,sans-Serif" font-size="10.00">ObjectClass.hpp</text>
</a>
</g>
</g>
<!-- Node2&#45;&gt;Node22 -->
<g id="edge17" class="edge">
<title>Node2&#45;&gt;Node22</title>
<path fill="none" stroke="midnightblue" d="M1095.37,-232.15C1012.6,-227.2 796.58,-213.07 605.16,-189.17"/>
<polygon fill="midnightblue" stroke="midnightblue" points="605.61,-185.7 595.25,-187.92 604.73,-192.64 605.61,-185.7"/>
</g>
<!-- Node25 -->
<g id="node21" class="node">
<title>Node25</title>
<g id="a_node21"><a xlink:href="_table_class_8hpp.html" target="_top" xlink:title=" ">
<polygon fill="white" stroke="black" points="295.25,-56.75 295.25,-76 378.75,-76 378.75,-56.75 295.25,-56.75"/>
<text text-anchor="middle" x="337" y="-62.5" font-family="Helvetica,sans-Serif" font-size="10.00">TableClass.hpp</text>
</a>
</g>
</g>
<!-- Node2&#45;&gt;Node25 -->
<g id="edge20" class="edge">
<title>Node2&#45;&gt;Node25</title>
<path fill="none" stroke="midnightblue" d="M1095.32,-233.73C1016.99,-232.21 829.3,-224.82 779,-189 748.08,-166.98 772.11,-134.26 741,-112.5 685.57,-73.72 486.6,-67.72 390.16,-67.15"/>
<polygon fill="midnightblue" stroke="midnightblue" points="390.45,-63.65 380.43,-67.11 390.42,-70.65 390.45,-63.65"/>
</g>
<!-- Node28 -->
<g id="node23" class="node">
<title>Node28</title>
<g id="a_node23"><a xlink:href="_stack_class_8hpp.html" target="_top" xlink:title=" ">
<polygon fill="white" stroke="black" points="890.12,-169.25 890.12,-188.5 975.88,-188.5 975.88,-169.25 890.12,-169.25"/>
<text text-anchor="middle" x="933" y="-175" font-family="Helvetica,sans-Serif" font-size="10.00">StackClass.hpp</text>
</a>
</g>
</g>
<!-- Node2&#45;&gt;Node28 -->
<g id="edge22" class="edge">
<title>Node2&#45;&gt;Node28</title>
<path fill="none" stroke="midnightblue" d="M1097.03,-225.04C1064.07,-215.97 1013.2,-201.96 976.86,-191.95"/>
<polygon fill="midnightblue" stroke="midnightblue" points="978.11,-188.67 967.54,-189.39 976.25,-195.42 978.11,-188.67"/>
</g>
<!-- Node29 -->
<g id="node24" class="node">
<title>Node29</title>
<g id="a_node24"><a xlink:href="_rexx_memory_8hpp.html" target="_top" xlink:title=" ">
<polygon fill="white" stroke="black" points="395.12,-169.25 395.12,-188.5 486.88,-188.5 486.88,-169.25 395.12,-169.25"/>
<text text-anchor="middle" x="441" y="-175" font-family="Helvetica,sans-Serif" font-size="10.00">RexxMemory.hpp</text>
</a>
</g>
</g>
<!-- Node2&#45;&gt;Node29 -->
<g id="edge23" class="edge">
<title>Node2&#45;&gt;Node29</title>
<path fill="none" stroke="midnightblue" d="M1095.53,-232.8C1001.51,-228.96 732.52,-216.36 498.3,-189.16"/>
<polygon fill="midnightblue" stroke="midnightblue" points="499.01,-185.72 488.67,-188.03 498.2,-192.67 499.01,-185.72"/>
</g>
<!-- Node36 -->
<g id="node30" class="node">
<title>Node36</title>
<g id="a_node30"><a xlink:href="_rexx_behaviour_8hpp.html" target="_top" xlink:title=" ">
<polygon fill="white" stroke="black" points="1252.62,-169.25 1252.62,-188.5 1353.38,-188.5 1353.38,-169.25 1252.62,-169.25"/>
<text text-anchor="middle" x="1303" y="-175" font-family="Helvetica,sans-Serif" font-size="10.00">RexxBehaviour.hpp</text>
</a>
</g>
</g>
<!-- Node2&#45;&gt;Node36 -->
<g id="edge34" class="edge">
<title>Node2&#45;&gt;Node36</title>
<path fill="none" stroke="midnightblue" d="M1158.96,-225.04C1187.52,-216.09 1231.41,-202.32 1263.24,-192.34"/>
<polygon fill="midnightblue" stroke="midnightblue" points="1264.01,-195.77 1272.51,-189.44 1261.92,-189.09 1264.01,-195.77"/>
</g>
<!-- Node38 -->
<g id="node32" class="node">
<title>Node38</title>
<g id="a_node32"><a xlink:href="_class_class_8hpp.html" target="_top" xlink:title=" ">
<polygon fill="white" stroke="black" points="1032.12,-169.25 1032.12,-188.5 1117.88,-188.5 1117.88,-169.25 1032.12,-169.25"/>
<text text-anchor="middle" x="1075" y="-175" font-family="Helvetica,sans-Serif" font-size="10.00">ClassClass.hpp</text>
</a>
</g>
</g>
<!-- Node2&#45;&gt;Node38 -->
<g id="edge36" class="edge">
<title>Node2&#45;&gt;Node38</title>
<path fill="none" stroke="midnightblue" d="M1120.92,-225.17C1113.07,-217.42 1101.52,-206.03 1091.96,-196.61"/>
<polygon fill="midnightblue" stroke="midnightblue" points="1094.57,-194.26 1084.99,-189.73 1089.65,-199.24 1094.57,-194.26"/>
</g>
<!-- Node39 -->
<g id="node33" class="node">
<title>Node39</title>
<g id="a_node33"><a xlink:href="_rexx_envelope_8hpp.html" target="_top" xlink:title=" ">
<polygon fill="white" stroke="black" points="1135.75,-169.25 1135.75,-188.5 1234.25,-188.5 1234.25,-169.25 1135.75,-169.25"/>
<text text-anchor="middle" x="1185" y="-175" font-family="Helvetica,sans-Serif" font-size="10.00">RexxEnvelope.hpp</text>
</a>
</g>
</g>
<!-- Node2&#45;&gt;Node39 -->
<g id="edge37" class="edge">
<title>Node2&#45;&gt;Node39</title>
<path fill="none" stroke="midnightblue" d="M1139.08,-225.17C1146.93,-217.42 1158.48,-206.03 1168.04,-196.61"/>
<polygon fill="midnightblue" stroke="midnightblue" points="1170.35,-199.24 1175.01,-189.73 1165.43,-194.26 1170.35,-199.24"/>
</g>
<!-- Node2&#45;&gt;Node40 -->
<g id="edge38" class="edge">
<title>Node2&#45;&gt;Node40</title>
<path fill="none" stroke="midnightblue" d="M1164.72,-231.85C1243.14,-226.52 1440.16,-212 1614.73,-189.35"/>
<polygon fill="midnightblue" stroke="midnightblue" points="1614.97,-192.85 1624.43,-188.08 1614.06,-185.91 1614.97,-192.85"/>
</g>
<!-- Node51 -->
<g id="node44" class="node">
<title>Node51</title>
<g id="a_node44"><a xlink:href="_number_string_class_8hpp.html" target="_top" xlink:title=" ">
<polygon fill="white" stroke="black" points="611.88,-169.25 611.88,-188.5 732.12,-188.5 732.12,-169.25 611.88,-169.25"/>
<text text-anchor="middle" x="672" y="-175" font-family="Helvetica,sans-Serif" font-size="10.00">NumberStringClass.hpp</text>
</a>
</g>
</g>
<!-- Node2&#45;&gt;Node51 -->
<g id="edge50" class="edge">
<title>Node2&#45;&gt;Node51</title>
<path fill="none" stroke="midnightblue" d="M1095.31,-230.12C1027.96,-222.32 874.79,-204.51 746,-189 745.32,-188.92 744.63,-188.84 743.94,-188.75"/>
<polygon fill="midnightblue" stroke="midnightblue" points="744.42,-185.28 734.08,-187.56 743.58,-192.23 744.42,-185.28"/>
</g>
<!-- Node67 -->
<g id="node46" class="node">
<title>Node67</title>
<g id="a_node46"><a xlink:href="_activity_manager_8hpp.html" target="_top" xlink:title=" ">
<polygon fill="white" stroke="red" points="1371.75,-169.25 1371.75,-188.5 1476.25,-188.5 1476.25,-169.25 1371.75,-169.25"/>
<text text-anchor="middle" x="1424" y="-175" font-family="Helvetica,sans-Serif" font-size="10.00">ActivityManager.hpp</text>
</a>
</g>
</g>
<!-- Node2&#45;&gt;Node67 -->
<g id="edge53" class="edge">
<title>Node2&#45;&gt;Node67</title>
<path fill="none" stroke="midnightblue" d="M1164.59,-227.74C1213.43,-218.73 1303.34,-202.14 1363.4,-191.06"/>
<polygon fill="midnightblue" stroke="midnightblue" points="1363.94,-194.52 1373.14,-189.26 1362.67,-187.63 1363.94,-194.52"/>
</g>
<!-- Node4 -->
<g id="node4" class="node">
<title>Node4</title>
<g id="a_node4"><a xlink:href="rexx_8h.html" target="_top" xlink:title=" ">
<polygon fill="white" stroke="red" points="2012.5,-113 2012.5,-132.25 2055.5,-132.25 2055.5,-113 2012.5,-113"/>
<text text-anchor="middle" x="2034" y="-118.75" font-family="Helvetica,sans-Serif" font-size="10.00">rexx.h</text>
</a>
</g>
</g>
<!-- Node3&#45;&gt;Node4 -->
<g id="edge3" class="edge">
<title>Node3&#45;&gt;Node4</title>
<path fill="none" stroke="midnightblue" d="M1838.28,-171.1C1875.77,-163.29 1938.76,-149.69 2001.26,-133.35"/>
<polygon fill="midnightblue" stroke="midnightblue" points="2001.86,-136.81 2010.63,-130.87 2000.07,-130.04 2001.86,-136.81"/>
</g>
<!-- Node9 -->
<g id="node5" class="node">
<title>Node9</title>
<g id="a_node5"><a xlink:href="oorexxerrors_8h.html" target="_top" xlink:title=" ">
<polygon fill="white" stroke="black" points="2073.88,-113 2073.88,-132.25 2152.12,-132.25 2152.12,-113 2073.88,-113"/>
<text text-anchor="middle" x="2113" y="-118.75" font-family="Helvetica,sans-Serif" font-size="10.00">oorexxerrors.h</text>
</a>
</g>
</g>
<!-- Node3&#45;&gt;Node9 -->
<g id="edge4" class="edge">
<title>Node3&#45;&gt;Node9</title>
<path fill="none" stroke="midnightblue" d="M1838.61,-171.25C1843.11,-170.39 1847.67,-169.54 1852,-168.75 1942.96,-152.24 1968.62,-149.88 2062.32,-133.2"/>
<polygon fill="midnightblue" stroke="midnightblue" points="2062.74,-136.68 2071.97,-131.47 2061.51,-129.79 2062.74,-136.68"/>
</g>
<!-- Node17 -->
<g id="node13" class="node">
<title>Node17</title>
<g id="a_node13"><a xlink:title=" ">
<polygon fill="white" stroke="#bfbfbf" points="2320.25,-113 2320.25,-132.25 2427.75,-132.25 2427.75,-113 2320.25,-113"/>
<text text-anchor="middle" x="2374" y="-118.75" font-family="Helvetica,sans-Serif" font-size="10.00">PlatformDefinitions.h</text>
</a>
</g>
</g>
<!-- Node16&#45;&gt;Node17 -->
<g id="edge12" class="edge">
<title>Node16&#45;&gt;Node17</title>
<path fill="none" stroke="midnightblue" d="M2374,-168.92C2374,-162.12 2374,-152.51 2374,-143.9"/>
<polygon fill="midnightblue" stroke="midnightblue" points="2377.5,-143.93 2374,-133.93 2370.5,-143.93 2377.5,-143.93"/>
</g>
<!-- Node18 -->
<g id="node14" class="node">
<title>Node18</title>
<g id="a_node14"><a xlink:href="_rexx_error_codes_8h.html" target="_top" xlink:title=" ">
<polygon fill="white" stroke="black" points="2445.5,-113 2445.5,-132.25 2542.5,-132.25 2542.5,-113 2445.5,-113"/>
<text text-anchor="middle" x="2494" y="-118.75" font-family="Helvetica,sans-Serif" font-size="10.00">RexxErrorCodes.h</text>
</a>
</g>
</g>
<!-- Node16&#45;&gt;Node18 -->
<g id="edge13" class="edge">
<title>Node16&#45;&gt;Node18</title>
<path fill="none" stroke="midnightblue" d="M2394.09,-168.79C2413.04,-160.23 2441.71,-147.27 2463.48,-137.42"/>
<polygon fill="midnightblue" stroke="midnightblue" points="2464.8,-140.67 2472.47,-133.36 2461.92,-134.29 2464.8,-140.67"/>
</g>
<!-- Node23 -->
<g id="node19" class="node">
<title>Node23</title>
<g id="a_node19"><a xlink:href="_numerics_8hpp.html" target="_top" xlink:title=" ">
<polygon fill="white" stroke="black" points="520.62,-113 520.62,-132.25 597.38,-132.25 597.38,-113 520.62,-113"/>
<text text-anchor="middle" x="559" y="-118.75" font-family="Helvetica,sans-Serif" font-size="10.00">Numerics.hpp</text>
</a>
</g>
</g>
<!-- Node22&#45;&gt;Node23 -->
<g id="edge18" class="edge">
<title>Node22&#45;&gt;Node23</title>
<path fill="none" stroke="midnightblue" d="M550.65,-168.92C551.92,-162.04 553.72,-152.29 555.32,-143.6"/>
<polygon fill="midnightblue" stroke="midnightblue" points="558.73,-144.37 557.11,-133.91 551.85,-143.1 558.73,-144.37"/>
</g>
<!-- Node24 -->
<g id="node20" class="node">
<title>Node24</title>
<g id="a_node20"><a xlink:title=" ">
<polygon fill="white" stroke="#bfbfbf" points="121.38,-56.75 121.38,-76 172.62,-76 172.62,-56.75 121.38,-56.75"/>
<text text-anchor="middle" x="147" y="-62.5" font-family="Helvetica,sans-Serif" font-size="10.00">stddef.h</text>
</a>
</g>
</g>
<!-- Node22&#45;&gt;Node24 -->
<g id="edge19" class="edge">
<title>Node22&#45;&gt;Node24</title>
<path fill="none" stroke="midnightblue" d="M511.87,-168.8C481.29,-160.81 437.09,-148.08 400,-132.75 382.31,-125.44 379.99,-119.03 362,-112.5 301.58,-90.56 227.52,-77.95 183.97,-71.9"/>
<polygon fill="midnightblue" stroke="midnightblue" points="184.68,-68.46 174.3,-70.59 183.74,-75.4 184.68,-68.46"/>
</g>
<!-- Node26 -->
<g id="node22" class="node">
<title>Node26</title>
<g id="a_node22"><a xlink:href="_rexx_collection_8hpp.html" target="_top" xlink:title=" ">
<polygon fill="white" stroke="red" points="286.25,-0.5 286.25,-19.75 387.75,-19.75 387.75,-0.5 286.25,-0.5"/>
<text text-anchor="middle" x="337" y="-6.25" font-family="Helvetica,sans-Serif" font-size="10.00">RexxCollection.hpp</text>
</a>
</g>
</g>
<!-- Node25&#45;&gt;Node26 -->
<g id="edge21" class="edge">
<title>Node25&#45;&gt;Node26</title>
<path fill="none" stroke="midnightblue" d="M337,-56.42C337,-49.62 337,-40.01 337,-31.4"/>
<polygon fill="midnightblue" stroke="midnightblue" points="340.5,-31.43 337,-21.43 333.5,-31.43 340.5,-31.43"/>
</g>
<!-- Node30 -->
<g id="node25" class="node">
<title>Node30</title>
<g id="a_node25"><a xlink:title=" ">
<polygon fill="white" stroke="#bfbfbf" points="115.25,-0.5 115.25,-19.75 216.75,-19.75 216.75,-0.5 115.25,-0.5"/>
<text text-anchor="middle" x="166" y="-6.25" font-family="Helvetica,sans-Serif" font-size="10.00">SysSemaphore.hpp</text>
</a>
</g>
</g>
<!-- Node29&#45;&gt;Node30 -->
<g id="edge24" class="edge">
<title>Node29&#45;&gt;Node30</title>
<path fill="none" stroke="midnightblue" d="M394.71,-170.25C336.11,-160.25 241.14,-142.83 228,-132.75 210.56,-119.38 185.87,-61.59 173.57,-30.73"/>
<polygon fill="midnightblue" stroke="midnightblue" points="176.83,-29.47 169.93,-21.44 170.32,-32.02 176.83,-29.47"/>
</g>
<!-- Node31 -->
<g id="node26" class="node">
<title>Node31</title>
<g id="a_node26"><a xlink:href="_identity_table_class_8hpp.html" target="_top" xlink:title=" ">
<polygon fill="white" stroke="black" points="237.12,-113 237.12,-132.25 352.88,-132.25 352.88,-113 237.12,-113"/>
<text text-anchor="middle" x="295" y="-118.75" font-family="Helvetica,sans-Serif" font-size="10.00">IdentityTableClass.hpp</text>
</a>
</g>
</g>
<!-- Node29&#45;&gt;Node31 -->
<g id="edge25" class="edge">
<title>Node29&#45;&gt;Node31</title>
<path fill="none" stroke="midnightblue" d="M416.56,-168.79C392.88,-159.99 356.7,-146.55 329.97,-136.62"/>
<polygon fill="midnightblue" stroke="midnightblue" points="331.53,-133.46 320.94,-133.26 329.09,-140.03 331.53,-133.46"/>
</g>
<!-- Node32 -->
<g id="node27" class="node">
<title>Node32</title>
<g id="a_node27"><a xlink:href="_memory_stats_8hpp.html" target="_top" xlink:title=" ">
<polygon fill="white" stroke="black" points="409.38,-113 409.38,-132.25 502.62,-132.25 502.62,-113 409.38,-113"/>
<text text-anchor="middle" x="456" y="-118.75" font-family="Helvetica,sans-Serif" font-size="10.00">MemoryStats.hpp</text>
</a>
</g>
</g>
<!-- Node29&#45;&gt;Node32 -->
<g id="edge27" class="edge">
<title>Node29&#45;&gt;Node32</title>
<path fill="none" stroke="midnightblue" d="M443.48,-168.92C445.4,-161.96 448.14,-152.07 450.56,-143.3"/>
<polygon fill="midnightblue" stroke="midnightblue" points="453.87,-144.45 453.17,-133.88 447.13,-142.58 453.87,-144.45"/>
</g>
<!-- Node33 -->
<g id="node28" class="node">
<title>Node33</title>
<g id="a_node28"><a xlink:href="_memory_segment_8hpp.html" target="_top" xlink:title=" ">
<polygon fill="white" stroke="red" points="71.5,-113 71.5,-132.25 180.5,-132.25 180.5,-113 71.5,-113"/>
<text text-anchor="middle" x="126" y="-118.75" font-family="Helvetica,sans-Serif" font-size="10.00">MemorySegment.hpp</text>
</a>
</g>
</g>
<!-- Node29&#45;&gt;Node33 -->
<g id="edge29" class="edge">
<title>Node29&#45;&gt;Node33</title>
<path fill="none" stroke="midnightblue" d="M394.86,-169.93C340.72,-160.61 250.66,-145.09 189.84,-134.62"/>
<polygon fill="midnightblue" stroke="midnightblue" points="190.78,-131.23 180.33,-132.98 189.6,-138.13 190.78,-131.23"/>
</g>
<!-- Node31&#45;&gt;Node25 -->
<g id="edge26" class="edge">
<title>Node31&#45;&gt;Node25</title>
<path fill="none" stroke="midnightblue" d="M301.94,-112.67C307.68,-105.24 316.04,-94.45 323.15,-85.27"/>
<polygon fill="midnightblue" stroke="midnightblue" points="325.91,-87.41 329.27,-77.36 320.38,-83.13 325.91,-87.41"/>
</g>
<!-- Node32&#45;&gt;Node20 -->
<g id="edge28" class="edge">
<title>Node32&#45;&gt;Node20</title>
<path fill="none" stroke="midnightblue" d="M488.64,-112.54C521.26,-103.47 571.61,-89.46 607.59,-79.45"/>
<polygon fill="midnightblue" stroke="midnightblue" points="608.1,-82.94 616.8,-76.89 606.22,-76.2 608.1,-82.94"/>
</g>
<!-- Node33&#45;&gt;Node24 -->
<g id="edge30" class="edge">
<title>Node33&#45;&gt;Node24</title>
<path fill="none" stroke="midnightblue" d="M129.47,-112.67C132.19,-105.64 136.08,-95.59 139.5,-86.75"/>
<polygon fill="midnightblue" stroke="midnightblue" points="142.7,-88.17 143.05,-77.58 136.18,-85.64 142.7,-88.17"/>
</g>
<!-- Node33&#45;&gt;Node35 -->
<g id="edge31" class="edge">
<title>Node33&#45;&gt;Node35</title>
<path fill="none" stroke="midnightblue" d="M112.95,-112.67C101.18,-104.58 83.59,-92.5 69.54,-82.85"/>
<polygon fill="midnightblue" stroke="midnightblue" points="71.54,-79.98 61.31,-77.2 67.57,-85.75 71.54,-79.98"/>
</g>
<!-- Node35&#45;&gt;Node2 -->
<g id="edge32" class="edge">
<title>Node35&#45;&gt;Node2</title>
<path fill="none" stroke="midnightblue" d="M44.3,-76.35C38.11,-99.02 25.68,-158.91 57,-189 94.55,-225.08 883.85,-232.55 1084.12,-233.87"/>
<polygon fill="midnightblue" stroke="midnightblue" points="1083.84,-237.37 1093.87,-233.93 1083.89,-230.37 1083.84,-237.37"/>
</g>
<!-- Node35&#45;&gt;Node30 -->
<g id="edge33" class="edge">
<title>Node35&#45;&gt;Node30</title>
<path fill="none" stroke="midnightblue" d="M66.92,-56.29C85.71,-47.73 114.14,-34.77 135.74,-24.92"/>
<polygon fill="midnightblue" stroke="midnightblue" points="136.99,-28.2 144.64,-20.86 134.09,-21.83 136.99,-28.2"/>
</g>
<!-- Node37 -->
<g id="node31" class="node">
<title>Node37</title>
<g id="a_node31"><a xlink:href="_primitive_behaviour_names_8h.html" target="_top" xlink:title=" ">
<polygon fill="white" stroke="black" points="893.25,-113 893.25,-132.25 1030.75,-132.25 1030.75,-113 893.25,-113"/>
<text text-anchor="middle" x="962" y="-118.75" font-family="Helvetica,sans-Serif" font-size="10.00">PrimitiveBehaviourNames.h</text>
</a>
</g>
</g>
<!-- Node36&#45;&gt;Node37 -->
<g id="edge35" class="edge">
<title>Node36&#45;&gt;Node37</title>
<path fill="none" stroke="midnightblue" d="M1252.32,-169.81C1193.39,-160.44 1095.85,-144.92 1030.28,-134.49"/>
<polygon fill="midnightblue" stroke="midnightblue" points="1031.15,-131.08 1020.73,-132.97 1030.05,-138 1031.15,-131.08"/>
</g>
<!-- Node41 -->
<g id="node35" class="node">
<title>Node41</title>
<g id="a_node35"><a xlink:href="_list_class_8hpp.html" target="_top" xlink:title=" ">
<polygon fill="white" stroke="red" points="1537,-113 1537,-132.25 1613,-132.25 1613,-113 1537,-113"/>
<text text-anchor="middle" x="1575" y="-118.75" font-family="Helvetica,sans-Serif" font-size="10.00">ListClass.hpp</text>
</a>
</g>
</g>
<!-- Node40&#45;&gt;Node41 -->
<g id="edge39" class="edge">
<title>Node40&#45;&gt;Node41</title>
<path fill="none" stroke="midnightblue" d="M1655.15,-168.92C1640.28,-160.51 1617.79,-147.81 1600.42,-137.99"/>
<polygon fill="midnightblue" stroke="midnightblue" points="1602.62,-135.21 1592.19,-133.34 1599.18,-141.31 1602.62,-135.21"/>
</g>
<!-- Node43 -->
<g id="node36" class="node">
<title>Node43</title>
<g id="a_node36"><a xlink:href="_rexx_internal_stack_8hpp.html" target="_top" xlink:title=" ">
<polygon fill="white" stroke="black" points="1631.12,-113 1631.12,-132.25 1746.88,-132.25 1746.88,-113 1631.12,-113"/>
<text text-anchor="middle" x="1689" y="-118.75" font-family="Helvetica,sans-Serif" font-size="10.00">RexxInternalStack.hpp</text>
</a>
</g>
</g>
<!-- Node40&#45;&gt;Node43 -->
<g id="edge40" class="edge">
<title>Node40&#45;&gt;Node43</title>
<path fill="none" stroke="midnightblue" d="M1673.97,-168.92C1676.28,-161.96 1679.56,-152.07 1682.47,-143.3"/>
<polygon fill="midnightblue" stroke="midnightblue" points="1685.78,-144.45 1685.61,-133.85 1679.14,-142.24 1685.78,-144.45"/>
</g>
<!-- Node44 -->
<g id="node37" class="node">
<title>Node44</title>
<g id="a_node37"><a xlink:href="_rexx_activation_stack_8hpp.html" target="_top" xlink:title=" ">
<polygon fill="white" stroke="black" points="1764.5,-113 1764.5,-132.25 1891.5,-132.25 1891.5,-113 1764.5,-113"/>
<text text-anchor="middle" x="1828" y="-118.75" font-family="Helvetica,sans-Serif" font-size="10.00">RexxActivationStack.hpp</text>
</a>
</g>
</g>
<!-- Node40&#45;&gt;Node44 -->
<g id="edge41" class="edge">
<title>Node40&#45;&gt;Node44</title>
<path fill="none" stroke="midnightblue" d="M1697.28,-168.79C1722.86,-159.95 1761.99,-146.43 1790.78,-136.49"/>
<polygon fill="midnightblue" stroke="midnightblue" points="1791.9,-139.8 1800.21,-133.23 1789.61,-133.19 1791.9,-139.8"/>
</g>
<!-- Node45 -->
<g id="node38" class="node">
<title>Node45</title>
<g id="a_node38"><a xlink:href="_expression_stack_8hpp.html" target="_top" xlink:title=" ">
<polygon fill="white" stroke="red" points="1048.5,-113 1048.5,-132.25 1157.5,-132.25 1157.5,-113 1048.5,-113"/>
<text text-anchor="middle" x="1103" y="-118.75" font-family="Helvetica,sans-Serif" font-size="10.00">ExpressionStack.hpp</text>
</a>
</g>
</g>
<!-- Node40&#45;&gt;Node45 -->
<g id="edge42" class="edge">
<title>Node40&#45;&gt;Node45</title>
<path fill="none" stroke="midnightblue" d="M1625.94,-169.83C1623.25,-169.44 1620.59,-169.08 1618,-168.75 1421.76,-144.09 1368.24,-154.79 1169.38,-133.06"/>
<polygon fill="midnightblue" stroke="midnightblue" points="1169.78,-129.59 1159.45,-131.96 1169.01,-136.54 1169.78,-129.59"/>
</g>
<!-- Node47 -->
<g id="node39" class="node">
<title>Node47</title>
<g id="a_node39"><a xlink:href="_rexx_local_variables_8hpp.html" target="_top" xlink:title=" ">
<polygon fill="white" stroke="red" points="1175.5,-113 1175.5,-132.25 1296.5,-132.25 1296.5,-113 1175.5,-113"/>
<text text-anchor="middle" x="1236" y="-118.75" font-family="Helvetica,sans-Serif" font-size="10.00">RexxLocalVariables.hpp</text>
</a>
</g>
</g>
<!-- Node40&#45;&gt;Node47 -->
<g id="edge43" class="edge">
<title>Node40&#45;&gt;Node47</title>
<path fill="none" stroke="midnightblue" d="M1625.92,-169.94C1623.24,-169.52 1620.59,-169.12 1618,-168.75 1483.34,-149.4 1446.4,-149.74 1307.75,-132.94"/>
<polygon fill="midnightblue" stroke="midnightblue" points="1308.55,-129.51 1298.2,-131.78 1307.7,-136.46 1308.55,-129.51"/>
</g>
<!-- Node62 -->
<g id="node40" class="node">
<title>Node62</title>
<g id="a_node40"><a xlink:href="_source_location_8hpp.html" target="_top" xlink:title=" ">
<polygon fill="white" stroke="black" points="1314.88,-113 1314.88,-132.25 1417.12,-132.25 1417.12,-113 1314.88,-113"/>
<text text-anchor="middle" x="1366" y="-118.75" font-family="Helvetica,sans-Serif" font-size="10.00">SourceLocation.hpp</text>
</a>
</g>
</g>
<!-- Node40&#45;&gt;Node62 -->
<g id="edge44" class="edge">
<title>Node40&#45;&gt;Node62</title>
<path fill="none" stroke="midnightblue" d="M1626,-169.87C1573.61,-160.55 1486.8,-145.11 1428.04,-134.66"/>
<polygon fill="midnightblue" stroke="midnightblue" points="1429,-131.28 1418.54,-132.97 1427.77,-138.17 1429,-131.28"/>
</g>
<!-- Node63 -->
<g id="node41" class="node">
<title>Node63</title>
<g id="a_node41"><a xlink:href="_exit_handler_8hpp.html" target="_top" xlink:title=" ">
<polygon fill="white" stroke="red" points="1909.5,-113 1909.5,-132.25 1994.5,-132.25 1994.5,-113 1909.5,-113"/>
<text text-anchor="middle" x="1952" y="-118.75" font-family="Helvetica,sans-Serif" font-size="10.00">ExitHandler.hpp</text>
</a>
</g>
</g>
<!-- Node40&#45;&gt;Node63 -->
<g id="edge45" class="edge">
<title>Node40&#45;&gt;Node63</title>
<path fill="none" stroke="midnightblue" d="M1716.15,-169.16C1765.72,-159.59 1845.29,-144.23 1898.1,-134.03"/>
<polygon fill="midnightblue" stroke="midnightblue" points="1898.63,-137.49 1907.78,-132.16 1897.3,-130.62 1898.63,-137.49"/>
</g>
<!-- Node65 -->
<g id="node42" class="node">
<title>Node65</title>
<g id="a_node42"><a xlink:href="_activation_api_contexts_8hpp.html" target="_top" xlink:title=" ">
<polygon fill="white" stroke="black" points="2169.88,-113 2169.88,-132.25 2302.12,-132.25 2302.12,-113 2169.88,-113"/>
<text text-anchor="middle" x="2236" y="-118.75" font-family="Helvetica,sans-Serif" font-size="10.00">ActivationApiContexts.hpp</text>
</a>
</g>
</g>
<!-- Node40&#45;&gt;Node65 -->
<g id="edge47" class="edge">
<title>Node40&#45;&gt;Node65</title>
<path fill="none" stroke="midnightblue" d="M1715.91,-173.34C1730.89,-171.85 1747.66,-170.2 1763,-168.75 1936.19,-152.33 1982.5,-151.51 2158.53,-132.98"/>
<polygon fill="midnightblue" stroke="midnightblue" points="2158.68,-136.49 2168.25,-131.96 2157.94,-129.53 2158.68,-136.49"/>
</g>
<!-- Node66 -->
<g id="node43" class="node">
<title>Node66</title>
<g id="a_node43"><a xlink:title=" ">
<polygon fill="white" stroke="#bfbfbf" points="1435.25,-113 1435.25,-132.25 1518.75,-132.25 1518.75,-113 1435.25,-113"/>
<text text-anchor="middle" x="1477" y="-118.75" font-family="Helvetica,sans-Serif" font-size="10.00">SysActivity.hpp</text>
</a>
</g>
</g>
<!-- Node40&#45;&gt;Node66 -->
<g id="edge49" class="edge">
<title>Node40&#45;&gt;Node66</title>
<path fill="none" stroke="midnightblue" d="M1638.53,-168.79C1606.21,-159.76 1556.41,-145.83 1520.65,-135.83"/>
<polygon fill="midnightblue" stroke="midnightblue" points="1521.61,-132.46 1511.03,-133.14 1519.72,-139.21 1521.61,-132.46"/>
</g>
<!-- Node63&#45;&gt;Node2 -->
<g id="edge46" class="edge">
<title>Node63&#45;&gt;Node2</title>
<path fill="none" stroke="midnightblue" d="M1909.33,-132.49C1862.18,-142.51 1789.42,-158.74 1763,-168.75 1745.1,-175.53 1743.38,-183.66 1725,-189 1622.1,-218.88 1296.99,-229.94 1175.98,-233.08"/>
<polygon fill="midnightblue" stroke="midnightblue" points="1176,-229.58 1166.1,-233.33 1176.18,-236.57 1176,-229.58"/>
</g>
<!-- Node65&#45;&gt;Node2 -->
<g id="edge48" class="edge">
<title>Node65&#45;&gt;Node2</title>
<path fill="none" stroke="midnightblue" d="M2169.51,-131.87C2069.63,-144.29 1891.72,-166.61 1885,-168.75 1866.77,-174.56 1865.41,-183.78 1847,-189 1720.05,-224.99 1313.17,-232.31 1175.8,-233.77"/>
<polygon fill="midnightblue" stroke="midnightblue" points="1175.96,-230.27 1166,-233.87 1176.03,-237.27 1175.96,-230.27"/>
</g>
<!-- Node51&#45;&gt;Node23 -->
<g id="edge51" class="edge">
<title>Node51&#45;&gt;Node23</title>
<path fill="none" stroke="midnightblue" d="M653.09,-168.79C635.4,-160.31 608.74,-147.5 588.3,-137.69"/>
<polygon fill="midnightblue" stroke="midnightblue" points="589.87,-134.56 579.34,-133.39 586.84,-140.87 589.87,-134.56"/>
</g>
<!-- Node52 -->
<g id="node45" class="node">
<title>Node52</title>
<g id="a_node45"><a xlink:href="_number_string_math_8hpp.html" target="_top" xlink:title=" ">
<polygon fill="white" stroke="black" points="615.75,-113 615.75,-132.25 732.25,-132.25 732.25,-113 615.75,-113"/>
<text text-anchor="middle" x="674" y="-118.75" font-family="Helvetica,sans-Serif" font-size="10.00">NumberStringMath.hpp</text>
</a>
</g>
</g>
<!-- Node51&#45;&gt;Node52 -->
<g id="edge52" class="edge">
<title>Node51&#45;&gt;Node52</title>
<path fill="none" stroke="midnightblue" d="M672.33,-168.92C672.58,-162.12 672.93,-152.51 673.25,-143.9"/>
<polygon fill="midnightblue" stroke="midnightblue" points="676.75,-144.05 673.62,-133.93 669.75,-143.79 676.75,-144.05"/>
</g>
<!-- Node70&#45;&gt;Node2 -->
<g id="edge57" class="edge">
<title>Node70&#45;&gt;Node2</title>
<path fill="none" stroke="midnightblue" d="M1716.34,-285.44C1589.19,-274.75 1290.44,-249.62 1175.85,-239.98"/>
<polygon fill="midnightblue" stroke="midnightblue" points="1176.48,-236.52 1166.22,-239.17 1175.89,-243.5 1176.48,-236.52"/>
</g>
<!-- Node70&#45;&gt;Node63 -->
<g id="edge58" class="edge">
<title>Node70&#45;&gt;Node63</title>
<path fill="none" stroke="midnightblue" d="M1812.53,-281.26C1837.76,-274.02 1871.03,-262.27 1897,-245.25 1925.99,-226.26 1937.82,-221.05 1951,-189 1956.89,-174.68 1956.79,-157.06 1955.4,-143.72"/>
<polygon fill="midnightblue" stroke="midnightblue" points="1958.9,-143.41 1954.05,-133.99 1951.96,-144.38 1958.9,-143.41"/>
</g>
<!-- Node70&#45;&gt;Node65 -->
<g id="edge59" class="edge">
<title>Node70&#45;&gt;Node65</title>
<path fill="none" stroke="midnightblue" d="M1808.24,-281.3C1839.01,-272.7 1885.91,-259.08 1926,-245.25 2029.03,-209.71 2148.42,-160.56 2204.21,-137.12"/>
<polygon fill="midnightblue" stroke="midnightblue" points="2205.56,-140.35 2213.41,-133.24 2202.84,-133.9 2205.56,-140.35"/>
</g>
<!-- Node71 -->
<g id="node49" class="node">
<title>Node71</title>
<g id="a_node49"><a xlink:title=" ">
<polygon fill="white" stroke="#bfbfbf" points="1754.12,-225.5 1754.12,-244.75 1887.88,-244.75 1887.88,-225.5 1754.12,-225.5"/>
<text text-anchor="middle" x="1821" y="-231.25" font-family="Helvetica,sans-Serif" font-size="10.00">SysInterpreterInstance.hpp</text>
</a>
</g>
</g>
<!-- Node70&#45;&gt;Node71 -->
<g id="edge60" class="edge">
<title>Node70&#45;&gt;Node71</title>
<path fill="none" stroke="midnightblue" d="M1782.6,-281.42C1789.03,-273.83 1798.43,-262.74 1806.32,-253.43"/>
<polygon fill="midnightblue" stroke="midnightblue" points="1808.77,-255.96 1812.57,-246.07 1803.43,-251.43 1808.77,-255.96"/>
</g>
<!-- Node72&#45;&gt;Node40 -->
<g id="edge63" class="edge">
<title>Node72&#45;&gt;Node40</title>
<path fill="none" stroke="midnightblue" d="M1671,-225.17C1671,-218.37 1671,-208.76 1671,-200.15"/>
<polygon fill="midnightblue" stroke="midnightblue" points="1674.5,-200.18 1671,-190.18 1667.5,-200.18 1674.5,-200.18"/>
</g>
</g>
</svg>
        <g id="navigator" transform="translate(0 0)" fill="#404254">
                <rect fill="#f2f5e9" fill-opacity="0.5" stroke="#606060" stroke-width=".5" x="0" y="0" width="60" height="60"/>
                <use id="zoomplus" xlink:href="#zoomPlus" x="17" y="9" onmousedown="handleZoom(evt,'in')"/>
                <use id="zoomminus" xlink:href="#zoomMin" x="42" y="9" onmousedown="handleZoom(evt,'out')"/>
                <use id="reset" xlink:href="#resetDef" x="30" y="36" onmousedown="handleReset()"/>
                <g id="arrowUp" xlink:href="#dirArrow" transform="translate(30 24)" onmousedown="handlePan(0,-1)">
                  <use xlink:href="#rim" fill="#404040">
                        <set attributeName="fill" to="#808080" begin="arrowUp.mouseover" end="arrowUp.mouseout"/>
                  </use>
                  <path fill="none" stroke="white" stroke-width="1.5" d="M0,-3.0v7 M-2.5,-0.5L0,-3.0L2.5,-0.5"/>
                </g>
                <g id="arrowRight" xlink:href="#dirArrow" transform="rotate(90) translate(36 -43)" onmousedown="handlePan(1,0)">
                  <use xlink:href="#rim" fill="#404040">
                        <set attributeName="fill" to="#808080" begin="arrowRight.mouseover" end="arrowRight.mouseout"/>
                  </use>
                  <path fill="none" stroke="white" stroke-width="1.5" d="M0,-3.0v7 M-2.5,-0.5L0,-3.0L2.5,-0.5"/>
                </g>
                <g id="arrowDown" xlink:href="#dirArrow" transform="rotate(180) translate(-30 -48)" onmousedown="handlePan(0,1)">
                  <use xlink:href="#rim" fill="#404040">
                        <set attributeName="fill" to="#808080" begin="arrowDown.mouseover" end="arrowDown.mouseout"/>
                  </use>
                  <path fill="none" stroke="white" stroke-width="1.5" d="M0,-3.0v7 M-2.5,-0.5L0,-3.0L2.5,-0.5"/>
                </g>
                <g id="arrowLeft" xlink:href="#dirArrow" transform="rotate(270) translate(-36 17)" onmousedown="handlePan(-1,0)">
                  <use xlink:href="#rim" fill="#404040">
                        <set attributeName="fill" to="#808080" begin="arrowLeft.mouseover" end="arrowLeft.mouseout"/>
                  </use>
                  <path fill="none" stroke="white" stroke-width="1.5" d="M0,-3.0v7 M-2.5,-0.5L0,-3.0L2.5,-0.5"/>
                </g>
        </g>
        <svg viewBox="0 0 15 15" width="100%" height="30px" preserveAspectRatio="xMaxYMin meet">
         <g id="arrow_out" transform="scale(0.3 0.3)">
          <a xlink:href="_trapping_dispatcher_8cpp__incl_org.svg" target="_base">
           <rect id="button" ry="5" rx="5" y="6" x="6" height="38" width="38"
                fill="#f2f5e9" fill-opacity="0.5" stroke="#606060" stroke-width="1.0"/>
           <path id="arrow"
             d="M 11.500037,31.436501 C 11.940474,20.09759 22.043105,11.32322 32.158766,21.979434 L 37.068811,17.246167 C 37.068811,17.246167 37.088388,32 37.088388,32 L 22.160133,31.978069 C 22.160133,31.978069 26.997745,27.140456 26.997745,27.140456 C 18.528582,18.264221 13.291696,25.230495 11.500037,31.436501 z"
             style="fill:#404040;"/>
          </a>
         </g>
        </svg>
</svg>
