<?xml version="1.0" encoding="UTF-8" standalone="no"?>
<!DOCTYPE svg PUBLIC "-//W3C//DTD SVG 1.1//EN"
 "http://www.w3.org/Graphics/SVG/1.1/DTD/svg11.dtd">
<!-- Generated by graphviz version 2.30.1 (20130222.1704)
 -->
<!-- Title: automaton.hpp Pages: 1 -->
<svg width="137pt" height="146pt"
 viewBox="0.00 0.00 137.00 146.00" xmlns="http://www.w3.org/2000/svg" xmlns:xlink="http://www.w3.org/1999/xlink">
<g id="graph0" class="graph" transform="scale(1 1) rotate(0) translate(4 142)">
<title>automaton.hpp</title>
<polygon fill="white" stroke="white" points="-4,5 -4,-142 134,-142 134,5 -4,5"/>
<!-- Node1 -->
<g id="node1" class="node"><title>Node1</title>
<g id="a_node1"><a xlink:title=" ">
<polygon fill="#bfbfbf" stroke="black" points="17.6406,-117 17.6406,-137 100.359,-137 100.359,-117 17.6406,-117"/>
<text text-anchor="middle" x="59" y="-123" font-family="Helvetica,sans-Serif" font-size="10.00">automaton.hpp</text>
</a>
</g>
</g>
<!-- Node2 -->
<g id="node2" class="node"><title>Node2</title>
<g id="a_node2"><a xlink:href="dblqueue_8hpp.html" target="_top" xlink:title=" ">
<polygon fill="white" stroke="black" points="20.6924,-59 20.6924,-79 97.3076,-79 97.3076,-59 20.6924,-59"/>
<text text-anchor="middle" x="59" y="-65" font-family="Helvetica,sans-Serif" font-size="10.00">dblqueue.hpp</text>
</a>
</g>
</g>
<!-- Node1&#45;&gt;Node2 -->
<g id="edge1" class="edge"><title>Node1&#45;&gt;Node2</title>
<path fill="none" stroke="midnightblue" d="M59,-116.753C59,-109.25 59,-98.4238 59,-89.0781"/>
<polygon fill="midnightblue" stroke="midnightblue" points="62.5001,-89.0752 59,-79.0752 55.5001,-89.0752 62.5001,-89.0752"/>
</g>
<!-- Node3 -->
<g id="node3" class="node"><title>Node3</title>
<g id="a_node3"><a xlink:title=" ">
<polygon fill="white" stroke="#bfbfbf" points="-0.731445,-1 -0.731445,-21 44.7314,-21 44.7314,-1 -0.731445,-1"/>
<text text-anchor="middle" x="22" y="-7" font-family="Helvetica,sans-Serif" font-size="10.00">stdio.h</text>
</a>
</g>
</g>
<!-- Node2&#45;&gt;Node3 -->
<g id="edge2" class="edge"><title>Node2&#45;&gt;Node3</title>
<path fill="none" stroke="midnightblue" d="M52.8902,-58.7527C47.6639,-50.8427 39.996,-39.2372 33.6076,-29.5683"/>
<polygon fill="midnightblue" stroke="midnightblue" points="36.4289,-27.4891 27.9961,-21.0752 30.5885,-31.348 36.4289,-27.4891"/>
</g>
<!-- Node4 -->
<g id="node4" class="node"><title>Node4</title>
<g id="a_node4"><a xlink:href="regexp_8hpp.html" target="_top" xlink:title=" ">
<polygon fill="white" stroke="black" points="62.9805,-1 62.9805,-21 129.02,-21 129.02,-1 62.9805,-1"/>
<text text-anchor="middle" x="96" y="-7" font-family="Helvetica,sans-Serif" font-size="10.00">regexp.hpp</text>
</a>
</g>
</g>
<!-- Node2&#45;&gt;Node4 -->
<g id="edge3" class="edge"><title>Node2&#45;&gt;Node4</title>
<path fill="none" stroke="midnightblue" d="M65.1098,-58.7527C70.3361,-50.8427 78.004,-39.2372 84.3924,-29.5683"/>
<polygon fill="midnightblue" stroke="midnightblue" points="87.4115,-31.348 90.0039,-21.0752 81.5711,-27.4891 87.4115,-31.348"/>
</g>
</g>
</svg>
