<?xml version="1.0" encoding="UTF-8" standalone="no"?>
<!DOCTYPE svg PUBLIC "-//W3C//DTD SVG 1.1//EN"
 "http://www.w3.org/Graphics/SVG/1.1/DTD/svg11.dtd">
<!-- Generated by graphviz version 2.30.1 (20130222.1704)
 -->
<!-- Title: RexxInstructionEndIf Pages: 1 -->
<svg width="116pt" height="262pt"
 viewBox="0.00 0.00 116.00 262.00" xmlns="http://www.w3.org/2000/svg" xmlns:xlink="http://www.w3.org/1999/xlink">
<g id="graph0" class="graph" transform="scale(1 1) rotate(0) translate(4 258)">
<title>RexxInstructionEndIf</title>
<polygon fill="white" stroke="white" points="-4,5 -4,-258 113,-258 113,5 -4,5"/>
<!-- Node1 -->
<g id="node1" class="node"><title>Node1</title>
<g id="a_node1"><a xlink:title=" ">
<polygon fill="#bfbfbf" stroke="black" points="-0.132812,-1 -0.132812,-21 108.133,-21 108.133,-1 -0.132812,-1"/>
<text text-anchor="middle" x="54" y="-7" font-family="Helvetica,sans-Serif" font-size="10.00">RexxInstructionEndIf</text>
</a>
</g>
</g>
<!-- Node2 -->
<g id="node2" class="node"><title>Node2</title>
<g id="a_node2"><a xlink:href="class_rexx_instruction_set.html" target="_top" xlink:title=" ">
<polygon fill="white" stroke="black" points="4.03711,-59 4.03711,-79 103.963,-79 103.963,-59 4.03711,-59"/>
<text text-anchor="middle" x="54" y="-65" font-family="Helvetica,sans-Serif" font-size="10.00">RexxInstructionSet</text>
</a>
</g>
</g>
<!-- Node2&#45;&gt;Node1 -->
<g id="edge1" class="edge"><title>Node2&#45;&gt;Node1</title>
<path fill="none" stroke="midnightblue" d="M54,-48.7065C54,-39.3384 54,-28.5262 54,-21.0752"/>
<polygon fill="midnightblue" stroke="midnightblue" points="50.5001,-48.7527 54,-58.7527 57.5001,-48.7528 50.5001,-48.7527"/>
</g>
<!-- Node3 -->
<g id="node3" class="node"><title>Node3</title>
<g id="a_node3"><a xlink:href="class_rexx_instruction.html" target="_top" xlink:title=" ">
<polygon fill="white" stroke="black" points="11.542,-117 11.542,-137 96.458,-137 96.458,-117 11.542,-117"/>
<text text-anchor="middle" x="54" y="-123" font-family="Helvetica,sans-Serif" font-size="10.00">RexxInstruction</text>
</a>
</g>
</g>
<!-- Node3&#45;&gt;Node2 -->
<g id="edge2" class="edge"><title>Node3&#45;&gt;Node2</title>
<path fill="none" stroke="midnightblue" d="M54,-106.707C54,-97.3384 54,-86.5262 54,-79.0752"/>
<polygon fill="midnightblue" stroke="midnightblue" points="50.5001,-106.753 54,-116.753 57.5001,-106.753 50.5001,-106.753"/>
</g>
<!-- Node4 -->
<g id="node4" class="node"><title>Node4</title>
<g id="a_node4"><a xlink:href="class_rexx_internal_object.html" target="_top" xlink:title=" ">
<polygon fill="white" stroke="black" points="3.48047,-175 3.48047,-195 104.52,-195 104.52,-175 3.48047,-175"/>
<text text-anchor="middle" x="54" y="-181" font-family="Helvetica,sans-Serif" font-size="10.00">RexxInternalObject</text>
</a>
</g>
</g>
<!-- Node4&#45;&gt;Node3 -->
<g id="edge3" class="edge"><title>Node4&#45;&gt;Node3</title>
<path fill="none" stroke="midnightblue" d="M54,-164.707C54,-155.338 54,-144.526 54,-137.075"/>
<polygon fill="midnightblue" stroke="midnightblue" points="50.5001,-164.753 54,-174.753 57.5001,-164.753 50.5001,-164.753"/>
</g>
<!-- Node5 -->
<g id="node5" class="node"><title>Node5</title>
<g id="a_node5"><a xlink:href="class_rexx_virtual_base.html" target="_top" xlink:title=" ">
<polygon fill="white" stroke="black" points="9.12744,-233 9.12744,-253 98.8726,-253 98.8726,-233 9.12744,-233"/>
<text text-anchor="middle" x="54" y="-239" font-family="Helvetica,sans-Serif" font-size="10.00">RexxVirtualBase</text>
</a>
</g>
</g>
<!-- Node5&#45;&gt;Node4 -->
<g id="edge4" class="edge"><title>Node5&#45;&gt;Node4</title>
<path fill="none" stroke="midnightblue" d="M54,-222.707C54,-213.338 54,-202.526 54,-195.075"/>
<polygon fill="midnightblue" stroke="midnightblue" points="50.5001,-222.753 54,-232.753 57.5001,-222.753 50.5001,-222.753"/>
</g>
</g>
</svg>
