<?xml version="1.0" encoding="UTF-8" standalone="no"?>
<!DOCTYPE svg PUBLIC "-//W3C//DTD SVG 1.1//EN"
 "http://www.w3.org/Graphics/SVG/1.1/DTD/svg11.dtd">
<!-- Generated by graphviz version 2.30.1 (20130222.1704)
 -->
<!-- Title: ActivityDispatcher Pages: 1 -->
<svg width="276pt" height="223pt"
 viewBox="0.00 0.00 276.00 223.00" xmlns="http://www.w3.org/2000/svg" xmlns:xlink="http://www.w3.org/1999/xlink">
<g id="graph0" class="graph" transform="scale(1 1) rotate(0) translate(4 219)">
<title>ActivityDispatcher</title>
<polygon fill="white" stroke="white" points="-4,5 -4,-219 273,-219 273,5 -4,5"/>
<!-- Node1 -->
<g id="node1" class="node"><title>Node1</title>
<g id="a_node1"><a xlink:title=" ">
<polygon fill="#bfbfbf" stroke="black" points="0.266113,-97 0.266113,-117 95.7339,-117 95.7339,-97 0.266113,-97"/>
<text text-anchor="middle" x="48" y="-103" font-family="Helvetica,sans-Serif" font-size="10.00">ActivityDispatcher</text>
</a>
</g>
</g>
<!-- Node2 -->
<g id="node2" class="node"><title>Node2</title>
<g id="a_node2"><a xlink:href="class_call_program_dispatcher.html" target="_top" xlink:title=" ">
<polygon fill="white" stroke="black" points="140.315,-195 140.315,-215 259.685,-215 259.685,-195 140.315,-195"/>
<text text-anchor="middle" x="200" y="-201" font-family="Helvetica,sans-Serif" font-size="10.00">CallProgramDispatcher</text>
</a>
</g>
</g>
<!-- Node1&#45;&gt;Node2 -->
<g id="edge1" class="edge"><title>Node1&#45;&gt;Node2</title>
<path fill="none" stroke="midnightblue" d="M63.7381,-125.074C79.0618,-142.747 104.605,-169.234 132,-185 138.944,-188.996 146.761,-192.261 154.539,-194.907"/>
<polygon fill="midnightblue" stroke="midnightblue" points="66.2026,-122.568 57.0732,-117.191 60.8573,-127.087 66.2026,-122.568"/>
</g>
<!-- Node3 -->
<g id="node3" class="node"><title>Node3</title>
<g id="a_node3"><a xlink:href="class_call_routine_dispatcher.html" target="_top" xlink:title=" ">
<polygon fill="white" stroke="black" points="142.254,-156 142.254,-176 257.746,-176 257.746,-156 142.254,-156"/>
<text text-anchor="middle" x="200" y="-162" font-family="Helvetica,sans-Serif" font-size="10.00">CallRoutineDispatcher</text>
</a>
</g>
</g>
<!-- Node1&#45;&gt;Node3 -->
<g id="edge2" class="edge"><title>Node1&#45;&gt;Node3</title>
<path fill="none" stroke="midnightblue" d="M77.6502,-121.757C93.4355,-129.556 113.523,-138.947 132,-146 141.526,-149.637 152.015,-153.04 161.808,-155.972"/>
<polygon fill="midnightblue" stroke="midnightblue" points="78.9394,-118.488 68.4305,-117.141 75.8059,-124.747 78.9394,-118.488"/>
</g>
<!-- Node4 -->
<g id="node4" class="node"><title>Node4</title>
<g id="a_node4"><a xlink:href="class_message_dispatcher.html" target="_top" xlink:title=" ">
<polygon fill="white" stroke="black" points="147.813,-117 147.813,-137 252.187,-137 252.187,-117 147.813,-117"/>
<text text-anchor="middle" x="200" y="-123" font-family="Helvetica,sans-Serif" font-size="10.00">MessageDispatcher</text>
</a>
</g>
</g>
<!-- Node1&#45;&gt;Node4 -->
<g id="edge3" class="edge"><title>Node1&#45;&gt;Node4</title>
<path fill="none" stroke="midnightblue" d="M106.275,-114.637C119.9,-116.453 134.354,-118.38 147.692,-120.159"/>
<polygon fill="midnightblue" stroke="midnightblue" points="106.424,-111.126 96.0494,-113.273 105.499,-118.064 106.424,-111.126"/>
</g>
<!-- Node5 -->
<g id="node5" class="node"><title>Node5</title>
<g id="a_node5"><a xlink:href="class_rexx_start_dispatcher.html" target="_top" xlink:title=" ">
<polygon fill="white" stroke="black" points="146.15,-78 146.15,-98 253.85,-98 253.85,-78 146.15,-78"/>
<text text-anchor="middle" x="200" y="-84" font-family="Helvetica,sans-Serif" font-size="10.00">RexxStartDispatcher</text>
</a>
</g>
</g>
<!-- Node1&#45;&gt;Node5 -->
<g id="edge4" class="edge"><title>Node1&#45;&gt;Node5</title>
<path fill="none" stroke="midnightblue" d="M106.336,-99.7374C119.406,-98.0819 133.235,-96.3302 146.11,-94.6994"/>
<polygon fill="midnightblue" stroke="midnightblue" points="105.53,-96.3114 96.0494,-101.04 106.41,-103.256 105.53,-96.3114"/>
</g>
<!-- Node6 -->
<g id="node6" class="node"><title>Node6</title>
<g id="a_node6"><a xlink:href="class_translate_dispatcher.html" target="_top" xlink:title=" ">
<polygon fill="white" stroke="black" points="147.442,-39 147.442,-59 252.558,-59 252.558,-39 147.442,-39"/>
<text text-anchor="middle" x="200" y="-45" font-family="Helvetica,sans-Serif" font-size="10.00">TranslateDispatcher</text>
</a>
</g>
</g>
<!-- Node1&#45;&gt;Node6 -->
<g id="edge5" class="edge"><title>Node1&#45;&gt;Node6</title>
<path fill="none" stroke="midnightblue" d="M78.0066,-92.5153C93.7549,-84.9596 113.696,-75.8836 132,-69 141.544,-65.4106 152.039,-62.0234 161.832,-59.0922"/>
<polygon fill="midnightblue" stroke="midnightblue" points="76.2605,-89.4724 68.795,-96.9902 79.3192,-95.7688 76.2605,-89.4724"/>
</g>
<!-- Node7 -->
<g id="node7" class="node"><title>Node7</title>
<g id="a_node7"><a xlink:href="class_translate_instore_dispatcher.html" target="_top" xlink:title=" ">
<polygon fill="white" stroke="black" points="132.156,-0 132.156,-20 267.844,-20 267.844,-0 132.156,-0"/>
<text text-anchor="middle" x="200" y="-6" font-family="Helvetica,sans-Serif" font-size="10.00">TranslateInstoreDispatcher</text>
</a>
</g>
</g>
<!-- Node1&#45;&gt;Node7 -->
<g id="edge6" class="edge"><title>Node1&#45;&gt;Node7</title>
<path fill="none" stroke="midnightblue" d="M63.7863,-89.1665C79.1474,-71.7264 104.719,-45.5839 132,-30 139.062,-25.9658 147.017,-22.6733 154.914,-20.0107"/>
<polygon fill="midnightblue" stroke="midnightblue" points="60.9655,-87.0789 57.1029,-96.9445 66.2747,-91.6409 60.9655,-87.0789"/>
</g>
</g>
</svg>
