<?xml version="1.0" encoding="UTF-8" standalone="no"?>
<!DOCTYPE svg PUBLIC "-//W3C//DTD SVG 1.1//EN"
 "http://www.w3.org/Graphics/SVG/1.1/DTD/svg11.dtd">
<!-- Generated by graphviz version 2.30.1 (20130222.1704)
 -->
<!-- Title: RexxDirective Pages: 1 -->
<svg width="419pt" height="262pt"
 viewBox="0.00 0.00 419.00 262.00" xmlns="http://www.w3.org/2000/svg" xmlns:xlink="http://www.w3.org/1999/xlink">
<g id="graph0" class="graph" transform="scale(1 1) rotate(0) translate(4 258)">
<title>RexxDirective</title>
<polygon fill="white" stroke="white" points="-4,5 -4,-258 416,-258 416,5 -4,5"/>
<!-- Node1 -->
<g id="node1" class="node"><title>Node1</title>
<g id="a_node1"><a xlink:title=" ">
<polygon fill="#bfbfbf" stroke="black" points="162.16,-59 162.16,-79 239.84,-79 239.84,-59 162.16,-59"/>
<text text-anchor="middle" x="201" y="-65" font-family="Helvetica,sans-Serif" font-size="10.00">RexxDirective</text>
</a>
</g>
</g>
<!-- Node5 -->
<g id="node5" class="node"><title>Node5</title>
<g id="a_node5"><a xlink:href="class_class_directive.html" target="_top" xlink:title=" ">
<polygon fill="white" stroke="black" points="-0.950684,-1 -0.950684,-21 78.9507,-21 78.9507,-1 -0.950684,-1"/>
<text text-anchor="middle" x="39" y="-7" font-family="Helvetica,sans-Serif" font-size="10.00">ClassDirective</text>
</a>
</g>
</g>
<!-- Node1&#45;&gt;Node5 -->
<g id="edge4" class="edge"><title>Node1&#45;&gt;Node5</title>
<path fill="none" stroke="midnightblue" d="M164.858,-55.5065C134.602,-45.0475 92.1491,-30.3725 65.1089,-21.0253"/>
<polygon fill="midnightblue" stroke="midnightblue" points="164.017,-58.9188 174.611,-58.878 166.304,-52.3029 164.017,-58.9188"/>
</g>
<!-- Node6 -->
<g id="node6" class="node"><title>Node6</title>
<g id="a_node6"><a xlink:href="class_extension_directive.html" target="_top" xlink:title=" ">
<polygon fill="white" stroke="black" points="96.5938,-1 96.5938,-21 195.406,-21 195.406,-1 96.5938,-1"/>
<text text-anchor="middle" x="146" y="-7" font-family="Helvetica,sans-Serif" font-size="10.00">ExtensionDirective</text>
</a>
</g>
</g>
<!-- Node1&#45;&gt;Node6 -->
<g id="edge5" class="edge"><title>Node1&#45;&gt;Node6</title>
<path fill="none" stroke="midnightblue" d="M184.706,-51.4099C174.959,-41.486 162.947,-29.2551 154.913,-21.0752"/>
<polygon fill="midnightblue" stroke="midnightblue" points="182.414,-54.0707 191.918,-58.7527 187.408,-49.1657 182.414,-54.0707"/>
</g>
<!-- Node7 -->
<g id="node7" class="node"><title>Node7</title>
<g id="a_node7"><a xlink:href="class_library_directive.html" target="_top" xlink:title=" ">
<polygon fill="white" stroke="black" points="213.269,-1 213.269,-21 298.731,-21 298.731,-1 213.269,-1"/>
<text text-anchor="middle" x="256" y="-7" font-family="Helvetica,sans-Serif" font-size="10.00">LibraryDirective</text>
</a>
</g>
</g>
<!-- Node1&#45;&gt;Node7 -->
<g id="edge6" class="edge"><title>Node1&#45;&gt;Node7</title>
<path fill="none" stroke="midnightblue" d="M217.294,-51.4099C227.041,-41.486 239.053,-29.2551 247.087,-21.0752"/>
<polygon fill="midnightblue" stroke="midnightblue" points="214.592,-49.1657 210.082,-58.7527 219.586,-54.0707 214.592,-49.1657"/>
</g>
<!-- Node8 -->
<g id="node8" class="node"><title>Node8</title>
<g id="a_node8"><a xlink:href="class_requires_directive.html" target="_top" xlink:title=" ">
<polygon fill="white" stroke="black" points="316.542,-1 316.542,-21 411.458,-21 411.458,-1 316.542,-1"/>
<text text-anchor="middle" x="364" y="-7" font-family="Helvetica,sans-Serif" font-size="10.00">RequiresDirective</text>
</a>
</g>
</g>
<!-- Node1&#45;&gt;Node8 -->
<g id="edge7" class="edge"><title>Node1&#45;&gt;Node8</title>
<path fill="none" stroke="midnightblue" d="M237.365,-55.5065C267.808,-45.0475 310.523,-30.3725 337.73,-21.0253"/>
<polygon fill="midnightblue" stroke="midnightblue" points="235.872,-52.3187 227.552,-58.878 238.146,-58.9389 235.872,-52.3187"/>
</g>
<!-- Node2 -->
<g id="node2" class="node"><title>Node2</title>
<g id="a_node2"><a xlink:href="class_rexx_instruction.html" target="_top" xlink:title=" ">
<polygon fill="white" stroke="black" points="158.542,-117 158.542,-137 243.458,-137 243.458,-117 158.542,-117"/>
<text text-anchor="middle" x="201" y="-123" font-family="Helvetica,sans-Serif" font-size="10.00">RexxInstruction</text>
</a>
</g>
</g>
<!-- Node2&#45;&gt;Node1 -->
<g id="edge1" class="edge"><title>Node2&#45;&gt;Node1</title>
<path fill="none" stroke="midnightblue" d="M201,-106.707C201,-97.3384 201,-86.5262 201,-79.0752"/>
<polygon fill="midnightblue" stroke="midnightblue" points="197.5,-106.753 201,-116.753 204.5,-106.753 197.5,-106.753"/>
</g>
<!-- Node3 -->
<g id="node3" class="node"><title>Node3</title>
<g id="a_node3"><a xlink:href="class_rexx_internal_object.html" target="_top" xlink:title=" ">
<polygon fill="white" stroke="black" points="150.48,-175 150.48,-195 251.52,-195 251.52,-175 150.48,-175"/>
<text text-anchor="middle" x="201" y="-181" font-family="Helvetica,sans-Serif" font-size="10.00">RexxInternalObject</text>
</a>
</g>
</g>
<!-- Node3&#45;&gt;Node2 -->
<g id="edge2" class="edge"><title>Node3&#45;&gt;Node2</title>
<path fill="none" stroke="midnightblue" d="M201,-164.707C201,-155.338 201,-144.526 201,-137.075"/>
<polygon fill="midnightblue" stroke="midnightblue" points="197.5,-164.753 201,-174.753 204.5,-164.753 197.5,-164.753"/>
</g>
<!-- Node4 -->
<g id="node4" class="node"><title>Node4</title>
<g id="a_node4"><a xlink:href="class_rexx_virtual_base.html" target="_top" xlink:title=" ">
<polygon fill="white" stroke="black" points="156.127,-233 156.127,-253 245.873,-253 245.873,-233 156.127,-233"/>
<text text-anchor="middle" x="201" y="-239" font-family="Helvetica,sans-Serif" font-size="10.00">RexxVirtualBase</text>
</a>
</g>
</g>
<!-- Node4&#45;&gt;Node3 -->
<g id="edge3" class="edge"><title>Node4&#45;&gt;Node3</title>
<path fill="none" stroke="midnightblue" d="M201,-222.707C201,-213.338 201,-202.526 201,-195.075"/>
<polygon fill="midnightblue" stroke="midnightblue" points="197.5,-222.753 201,-232.753 204.5,-222.753 197.5,-222.753"/>
</g>
</g>
</svg>
