<?xml version="1.0" encoding="UTF-8" standalone="no"?>
<!DOCTYPE svg PUBLIC "-//W3C//DTD SVG 1.1//EN"
 "http://www.w3.org/Graphics/SVG/1.1/DTD/svg11.dtd">
<!-- Generated by graphviz version 2.30.1 (20130222.1704)
 -->
<!-- Title: RexxInstructionThen Pages: 1 -->
<svg width="114pt" height="262pt"
 viewBox="0.00 0.00 114.00 262.00" xmlns="http://www.w3.org/2000/svg" xmlns:xlink="http://www.w3.org/1999/xlink">
<g id="graph0" class="graph" transform="scale(1 1) rotate(0) translate(4 258)">
<title>RexxInstructionThen</title>
<polygon fill="white" stroke="white" points="-4,5 -4,-258 111,-258 111,5 -4,5"/>
<!-- Node1 -->
<g id="node1" class="node"><title>Node1</title>
<g id="a_node1"><a xlink:title=" ">
<polygon fill="#bfbfbf" stroke="black" points="-0.854492,-1 -0.854492,-21 106.854,-21 106.854,-1 -0.854492,-1"/>
<text text-anchor="middle" x="53" y="-7" font-family="Helvetica,sans-Serif" font-size="10.00">RexxInstructionThen</text>
</a>
</g>
</g>
<!-- Node2 -->
<g id="node2" class="node"><title>Node2</title>
<g id="a_node2"><a xlink:href="class_rexx_instruction_set.html" target="_top" xlink:title=" ">
<polygon fill="white" stroke="black" points="3.03711,-59 3.03711,-79 102.963,-79 102.963,-59 3.03711,-59"/>
<text text-anchor="middle" x="53" y="-65" font-family="Helvetica,sans-Serif" font-size="10.00">RexxInstructionSet</text>
</a>
</g>
</g>
<!-- Node2&#45;&gt;Node1 -->
<g id="edge1" class="edge"><title>Node2&#45;&gt;Node1</title>
<path fill="none" stroke="midnightblue" d="M53,-48.7065C53,-39.3384 53,-28.5262 53,-21.0752"/>
<polygon fill="midnightblue" stroke="midnightblue" points="49.5001,-48.7527 53,-58.7527 56.5001,-48.7528 49.5001,-48.7527"/>
</g>
<!-- Node3 -->
<g id="node3" class="node"><title>Node3</title>
<g id="a_node3"><a xlink:href="class_rexx_instruction.html" target="_top" xlink:title=" ">
<polygon fill="white" stroke="black" points="10.542,-117 10.542,-137 95.458,-137 95.458,-117 10.542,-117"/>
<text text-anchor="middle" x="53" y="-123" font-family="Helvetica,sans-Serif" font-size="10.00">RexxInstruction</text>
</a>
</g>
</g>
<!-- Node3&#45;&gt;Node2 -->
<g id="edge2" class="edge"><title>Node3&#45;&gt;Node2</title>
<path fill="none" stroke="midnightblue" d="M53,-106.707C53,-97.3384 53,-86.5262 53,-79.0752"/>
<polygon fill="midnightblue" stroke="midnightblue" points="49.5001,-106.753 53,-116.753 56.5001,-106.753 49.5001,-106.753"/>
</g>
<!-- Node4 -->
<g id="node4" class="node"><title>Node4</title>
<g id="a_node4"><a xlink:href="class_rexx_internal_object.html" target="_top" xlink:title=" ">
<polygon fill="white" stroke="black" points="2.48047,-175 2.48047,-195 103.52,-195 103.52,-175 2.48047,-175"/>
<text text-anchor="middle" x="53" y="-181" font-family="Helvetica,sans-Serif" font-size="10.00">RexxInternalObject</text>
</a>
</g>
</g>
<!-- Node4&#45;&gt;Node3 -->
<g id="edge3" class="edge"><title>Node4&#45;&gt;Node3</title>
<path fill="none" stroke="midnightblue" d="M53,-164.707C53,-155.338 53,-144.526 53,-137.075"/>
<polygon fill="midnightblue" stroke="midnightblue" points="49.5001,-164.753 53,-174.753 56.5001,-164.753 49.5001,-164.753"/>
</g>
<!-- Node5 -->
<g id="node5" class="node"><title>Node5</title>
<g id="a_node5"><a xlink:href="class_rexx_virtual_base.html" target="_top" xlink:title=" ">
<polygon fill="white" stroke="black" points="8.12744,-233 8.12744,-253 97.8726,-253 97.8726,-233 8.12744,-233"/>
<text text-anchor="middle" x="53" y="-239" font-family="Helvetica,sans-Serif" font-size="10.00">RexxVirtualBase</text>
</a>
</g>
</g>
<!-- Node5&#45;&gt;Node4 -->
<g id="edge4" class="edge"><title>Node5&#45;&gt;Node4</title>
<path fill="none" stroke="midnightblue" d="M53,-222.707C53,-213.338 53,-202.526 53,-195.075"/>
<polygon fill="midnightblue" stroke="midnightblue" points="49.5001,-222.753 53,-232.753 56.5001,-222.753 49.5001,-222.753"/>
</g>
</g>
</svg>
