<?xml version="1.0" encoding="UTF-8" standalone="no"?>
<!DOCTYPE svg PUBLIC "-//W3C//DTD SVG 1.1//EN"
 "http://www.w3.org/Graphics/SVG/1.1/DTD/svg11.dtd">
<!-- Generated by graphviz version 2.30.1 (20130222.1704)
 -->
<!-- Title: RexxExpressionMessage Pages: 1 -->
<svg width="136pt" height="204pt"
 viewBox="0.00 0.00 136.00 204.00" xmlns="http://www.w3.org/2000/svg" xmlns:xlink="http://www.w3.org/1999/xlink">
<g id="graph0" class="graph" transform="scale(1 1) rotate(0) translate(4 200)">
<title>RexxExpressionMessage</title>
<polygon fill="white" stroke="white" points="-4,5 -4,-200 133,-200 133,5 -4,5"/>
<!-- Node1 -->
<g id="node1" class="node"><title>Node1</title>
<g id="a_node1"><a xlink:title=" ">
<polygon fill="#bfbfbf" stroke="black" points="-0.413574,-1 -0.413574,-21 128.414,-21 128.414,-1 -0.413574,-1"/>
<text text-anchor="middle" x="64" y="-7" font-family="Helvetica,sans-Serif" font-size="10.00">RexxExpressionMessage</text>
</a>
</g>
</g>
<!-- Node2 -->
<g id="node2" class="node"><title>Node2</title>
<g id="a_node2"><a xlink:href="class_rexx_variable_base.html" target="_top" xlink:title=" ">
<polygon fill="white" stroke="black" points="15.2358,-59 15.2358,-79 112.764,-79 112.764,-59 15.2358,-59"/>
<text text-anchor="middle" x="64" y="-65" font-family="Helvetica,sans-Serif" font-size="10.00">RexxVariableBase</text>
</a>
</g>
</g>
<!-- Node2&#45;&gt;Node1 -->
<g id="edge1" class="edge"><title>Node2&#45;&gt;Node1</title>
<path fill="none" stroke="midnightblue" d="M64,-48.7065C64,-39.3384 64,-28.5262 64,-21.0752"/>
<polygon fill="midnightblue" stroke="midnightblue" points="60.5001,-48.7527 64,-58.7527 67.5001,-48.7528 60.5001,-48.7527"/>
</g>
<!-- Node3 -->
<g id="node3" class="node"><title>Node3</title>
<g id="a_node3"><a xlink:href="class_rexx_internal_object.html" target="_top" xlink:title=" ">
<polygon fill="white" stroke="black" points="13.4805,-117 13.4805,-137 114.52,-137 114.52,-117 13.4805,-117"/>
<text text-anchor="middle" x="64" y="-123" font-family="Helvetica,sans-Serif" font-size="10.00">RexxInternalObject</text>
</a>
</g>
</g>
<!-- Node3&#45;&gt;Node2 -->
<g id="edge2" class="edge"><title>Node3&#45;&gt;Node2</title>
<path fill="none" stroke="midnightblue" d="M64,-106.707C64,-97.3384 64,-86.5262 64,-79.0752"/>
<polygon fill="midnightblue" stroke="midnightblue" points="60.5001,-106.753 64,-116.753 67.5001,-106.753 60.5001,-106.753"/>
</g>
<!-- Node4 -->
<g id="node4" class="node"><title>Node4</title>
<g id="a_node4"><a xlink:href="class_rexx_virtual_base.html" target="_top" xlink:title=" ">
<polygon fill="white" stroke="black" points="19.1274,-175 19.1274,-195 108.873,-195 108.873,-175 19.1274,-175"/>
<text text-anchor="middle" x="64" y="-181" font-family="Helvetica,sans-Serif" font-size="10.00">RexxVirtualBase</text>
</a>
</g>
</g>
<!-- Node4&#45;&gt;Node3 -->
<g id="edge3" class="edge"><title>Node4&#45;&gt;Node3</title>
<path fill="none" stroke="midnightblue" d="M64,-164.707C64,-155.338 64,-144.526 64,-137.075"/>
<polygon fill="midnightblue" stroke="midnightblue" points="60.5001,-164.753 64,-174.753 67.5001,-164.753 60.5001,-164.753"/>
</g>
</g>
</svg>
