<?xml version="1.0" encoding="UTF-8" standalone="no"?>
<!DOCTYPE svg PUBLIC "-//W3C//DTD SVG 1.1//EN"
 "http://www.w3.org/Graphics/SVG/1.1/DTD/svg11.dtd">
<!-- Generated by graphviz version 12.1.0 (20240811.2233)
 -->
<!-- Title: RexxInstructionProcedure Pages: 1 -->
<svg width="137pt" height="197pt"
 viewBox="0.00 0.00 137.25 197.00" xmlns="http://www.w3.org/2000/svg" xmlns:xlink="http://www.w3.org/1999/xlink">
<g id="graph0" class="graph" transform="scale(1 1) rotate(0) translate(4 193)">
<title>RexxInstructionProcedure</title>
<polygon fill="white" stroke="none" points="-4,4 -4,-193 133.25,-193 133.25,4 -4,4"/>
<!-- Node1 -->
<g id="node1" class="node">
<title>Node1</title>
<g id="a_node1"><a xlink:title=" ">
<polygon fill="#bfbfbf" stroke="black" points="0,-0.5 0,-19.75 129.25,-19.75 129.25,-0.5 0,-0.5"/>
<text text-anchor="middle" x="64.62" y="-6.25" font-family="Helvetica,sans-Serif" font-size="10.00">RexxInstructionProcedure</text>
</a>
</g>
</g>
<!-- Node2 -->
<g id="node2" class="node">
<title>Node2</title>
<g id="a_node2"><a xlink:href="class_rexx_instruction.html" target="_top" xlink:title=" ">
<polygon fill="white" stroke="black" points="22.12,-56.75 22.12,-76 107.12,-76 107.12,-56.75 22.12,-56.75"/>
<text text-anchor="middle" x="64.62" y="-62.5" font-family="Helvetica,sans-Serif" font-size="10.00">RexxInstruction</text>
</a>
</g>
</g>
<!-- Node2&#45;&gt;Node1 -->
<g id="edge1" class="edge">
<title>Node2&#45;&gt;Node1</title>
<path fill="none" stroke="midnightblue" d="M64.62,-45.19C64.62,-36.48 64.62,-26.74 64.62,-19.92"/>
<polygon fill="midnightblue" stroke="midnightblue" points="61.13,-44.9 64.63,-54.9 68.13,-44.9 61.13,-44.9"/>
</g>
<!-- Node3 -->
<g id="node3" class="node">
<title>Node3</title>
<g id="a_node3"><a xlink:href="class_rexx_internal_object.html" target="_top" xlink:title=" ">
<polygon fill="white" stroke="black" points="14.62,-113 14.62,-132.25 114.62,-132.25 114.62,-113 14.62,-113"/>
<text text-anchor="middle" x="64.62" y="-118.75" font-family="Helvetica,sans-Serif" font-size="10.00">RexxInternalObject</text>
</a>
</g>
</g>
<!-- Node3&#45;&gt;Node2 -->
<g id="edge2" class="edge">
<title>Node3&#45;&gt;Node2</title>
<path fill="none" stroke="midnightblue" d="M64.62,-101.44C64.62,-92.73 64.62,-82.99 64.62,-76.17"/>
<polygon fill="midnightblue" stroke="midnightblue" points="61.13,-101.15 64.63,-111.15 68.13,-101.15 61.13,-101.15"/>
</g>
<!-- Node4 -->
<g id="node4" class="node">
<title>Node4</title>
<g id="a_node4"><a xlink:href="class_rexx_virtual_base.html" target="_top" xlink:title=" ">
<polygon fill="white" stroke="black" points="19.88,-169.25 19.88,-188.5 109.38,-188.5 109.38,-169.25 19.88,-169.25"/>
<text text-anchor="middle" x="64.62" y="-175" font-family="Helvetica,sans-Serif" font-size="10.00">RexxVirtualBase</text>
</a>
</g>
</g>
<!-- Node4&#45;&gt;Node3 -->
<g id="edge3" class="edge">
<title>Node4&#45;&gt;Node3</title>
<path fill="none" stroke="midnightblue" d="M64.62,-157.69C64.62,-148.98 64.62,-139.24 64.62,-132.42"/>
<polygon fill="midnightblue" stroke="midnightblue" points="61.13,-157.4 64.63,-167.4 68.13,-157.4 61.13,-157.4"/>
</g>
</g>
</svg>
