<?xml version="1.0" encoding="UTF-8" standalone="no"?>
<!DOCTYPE svg PUBLIC "-//W3C//DTD SVG 1.1//EN"
 "http://www.w3.org/Graphics/SVG/1.1/DTD/svg11.dtd">
<!-- Generated by graphviz version 12.1.0 (20240811.2233)
 -->
<!-- Title: RexxMutableBufferClass Pages: 1 -->
<svg width="134pt" height="253pt"
 viewBox="0.00 0.00 133.50 253.25" xmlns="http://www.w3.org/2000/svg" xmlns:xlink="http://www.w3.org/1999/xlink">
<g id="graph0" class="graph" transform="scale(1 1) rotate(0) translate(4 249.25)">
<title>RexxMutableBufferClass</title>
<polygon fill="white" stroke="none" points="-4,4 -4,-249.25 129.5,-249.25 129.5,4 -4,4"/>
<!-- Node1 -->
<g id="node1" class="node">
<title>Node1</title>
<g id="a_node1"><a xlink:title=" ">
<polygon fill="#bfbfbf" stroke="black" points="0,-0.5 0,-19.75 125.5,-19.75 125.5,-0.5 0,-0.5"/>
<text text-anchor="middle" x="62.75" y="-6.25" font-family="Helvetica,sans-Serif" font-size="10.00">RexxMutableBufferClass</text>
</a>
</g>
</g>
<!-- Node2 -->
<g id="node2" class="node">
<title>Node2</title>
<g id="a_node2"><a xlink:href="class_rexx_class.html" target="_top" xlink:title=" ">
<polygon fill="white" stroke="black" points="30.38,-56.75 30.38,-76 95.12,-76 95.12,-56.75 30.38,-56.75"/>
<text text-anchor="middle" x="62.75" y="-62.5" font-family="Helvetica,sans-Serif" font-size="10.00">RexxClass</text>
</a>
</g>
</g>
<!-- Node2&#45;&gt;Node1 -->
<g id="edge1" class="edge">
<title>Node2&#45;&gt;Node1</title>
<path fill="none" stroke="midnightblue" d="M62.75,-45.19C62.75,-36.48 62.75,-26.74 62.75,-19.92"/>
<polygon fill="midnightblue" stroke="midnightblue" points="59.25,-44.9 62.75,-54.9 66.25,-44.9 59.25,-44.9"/>
</g>
<!-- Node3 -->
<g id="node3" class="node">
<title>Node3</title>
<g id="a_node3"><a xlink:href="class_rexx_object.html" target="_top" xlink:title=" ">
<polygon fill="white" stroke="black" points="28.88,-113 28.88,-132.25 96.62,-132.25 96.62,-113 28.88,-113"/>
<text text-anchor="middle" x="62.75" y="-118.75" font-family="Helvetica,sans-Serif" font-size="10.00">RexxObject</text>
</a>
</g>
</g>
<!-- Node3&#45;&gt;Node2 -->
<g id="edge2" class="edge">
<title>Node3&#45;&gt;Node2</title>
<path fill="none" stroke="midnightblue" d="M62.75,-101.44C62.75,-92.73 62.75,-82.99 62.75,-76.17"/>
<polygon fill="midnightblue" stroke="midnightblue" points="59.25,-101.15 62.75,-111.15 66.25,-101.15 59.25,-101.15"/>
</g>
<!-- Node4 -->
<g id="node4" class="node">
<title>Node4</title>
<g id="a_node4"><a xlink:href="class_rexx_internal_object.html" target="_top" xlink:title=" ">
<polygon fill="white" stroke="black" points="12.75,-169.25 12.75,-188.5 112.75,-188.5 112.75,-169.25 12.75,-169.25"/>
<text text-anchor="middle" x="62.75" y="-175" font-family="Helvetica,sans-Serif" font-size="10.00">RexxInternalObject</text>
</a>
</g>
</g>
<!-- Node4&#45;&gt;Node3 -->
<g id="edge3" class="edge">
<title>Node4&#45;&gt;Node3</title>
<path fill="none" stroke="midnightblue" d="M62.75,-157.69C62.75,-148.98 62.75,-139.24 62.75,-132.42"/>
<polygon fill="midnightblue" stroke="midnightblue" points="59.25,-157.4 62.75,-167.4 66.25,-157.4 59.25,-157.4"/>
</g>
<!-- Node5 -->
<g id="node5" class="node">
<title>Node5</title>
<g id="a_node5"><a xlink:href="class_rexx_virtual_base.html" target="_top" xlink:title=" ">
<polygon fill="white" stroke="black" points="18,-225.5 18,-244.75 107.5,-244.75 107.5,-225.5 18,-225.5"/>
<text text-anchor="middle" x="62.75" y="-231.25" font-family="Helvetica,sans-Serif" font-size="10.00">RexxVirtualBase</text>
</a>
</g>
</g>
<!-- Node5&#45;&gt;Node4 -->
<g id="edge4" class="edge">
<title>Node5&#45;&gt;Node4</title>
<path fill="none" stroke="midnightblue" d="M62.75,-213.94C62.75,-205.23 62.75,-195.49 62.75,-188.67"/>
<polygon fill="midnightblue" stroke="midnightblue" points="59.25,-213.65 62.75,-223.65 66.25,-213.65 59.25,-213.65"/>
</g>
</g>
</svg>
