<?xml version="1.0" encoding="UTF-8" standalone="no"?>
<!DOCTYPE svg PUBLIC "-//W3C//DTD SVG 1.1//EN"
 "http://www.w3.org/Graphics/SVG/1.1/DTD/svg11.dtd">
<!-- Generated by graphviz version 12.1.0 (20240811.2233)
 -->
<!-- Title: RexxObject Pages: 1 -->
<!--zoomable 921 -->
<svg id="main" version="1.1" xmlns="http://www.w3.org/2000/svg" xmlns:xlink="http://www.w3.org/1999/xlink" xml:space="preserve" onload="init(evt)">
<style type="text/css"><![CDATA[
.edge:hover path { stroke: red; }
.edge:hover polygon { stroke: red; fill: red; }
]]></style>
<script type="text/javascript"><![CDATA[
var edges = document.getElementsByTagName('g');
if (edges && edges.length) {
  for (var i=0;i<edges.length;i++) {
    if (edges[i].id.substr(0,4)=='edge') {
      edges[i].setAttribute('class','edge');
    }
  }
}
]]></script>
        <defs>
                <circle id="rim" cx="0" cy="0" r="7"/>
                <circle id="rim2" cx="0" cy="0" r="3.5"/>
                <g id="zoomPlus">
                        <use xlink:href="#rim" fill="#404040">
                                <set attributeName="fill" to="#808080" begin="zoomplus.mouseover" end="zoomplus.mouseout"/>
                        </use>
                        <path d="M-4,0h8M0,-4v8" fill="none" stroke="white" stroke-width="1.5" pointer-events="none"/>
                </g>
                <g id="zoomMin">
                        <use xlink:href="#rim" fill="#404040">
                                <set attributeName="fill" to="#808080" begin="zoomminus.mouseover" end="zoomminus.mouseout"/>
                        </use>
                        <path d="M-4,0h8" fill="none" stroke="white" stroke-width="1.5" pointer-events="none"/>
                </g>
                <g id="dirArrow">
                        <path fill="none" stroke="white" stroke-width="1.5" d="M0,-3.0v7 M-2.5,-0.5L0,-3.0L2.5,-0.5"/>
                </g>
               <g id="resetDef">
                       <use xlink:href="#rim2" fill="#404040">
                               <set attributeName="fill" to="#808080" begin="reset.mouseover" end="reset.mouseout"/>
                       </use>
               </g>
        </defs>

<script type="text/javascript">
var viewWidth = 795;
var viewHeight = 921;
var sectionId = 'dynsection-0';
</script>
<script xlink:href="svgpan.js"/>
<svg id="graph" class="graph">
<g id="viewport">
<title>RexxObject</title>
<polygon fill="white" stroke="none" points="-4,4 -4,-917.25 790.75,-917.25 790.75,4 -4,4"/>
<!-- Node1 -->
<g id="node1" class="node">
<title>Node1</title>
<g id="a_node1"><a xlink:title=" ">
<polygon fill="#bfbfbf" stroke="black" points="261.5,-437.5 261.5,-456.75 329.25,-456.75 329.25,-437.5 261.5,-437.5"/>
<text text-anchor="middle" x="295.38" y="-443.25" font-family="Helvetica,sans-Serif" font-size="10.00">RexxObject</text>
</a>
</g>
</g>
<!-- Node4 -->
<g id="node4" class="node">
<title>Node4</title>
<g id="a_node4"><a xlink:href="class_base_executable.html" target="_top" xlink:title=" ">
<polygon fill="white" stroke="black" points="386.25,-874.5 386.25,-893.75 473.5,-893.75 473.5,-874.5 386.25,-874.5"/>
<text text-anchor="middle" x="429.88" y="-880.25" font-family="Helvetica,sans-Serif" font-size="10.00">BaseExecutable</text>
</a>
</g>
</g>
<!-- Node1&#45;&gt;Node4 -->
<g id="edge3" class="edge">
<title>Node1&#45;&gt;Node4</title>
<path fill="none" stroke="midnightblue" d="M297,-468.65C299.64,-545.53 312.41,-805.12 365.25,-865.12 370.74,-871.35 378.17,-875.58 386.02,-878.44"/>
<polygon fill="midnightblue" stroke="midnightblue" points="300.5,-468.62 296.68,-458.73 293.5,-468.84 300.5,-468.62"/>
</g>
<!-- Node7 -->
<g id="node7" class="node">
<title>Node7</title>
<g id="a_node7"><a xlink:href="class_package_class.html" target="_top" xlink:title=" ">
<polygon fill="white" stroke="black" points="390,-836.5 390,-855.75 469.75,-855.75 469.75,-836.5 390,-836.5"/>
<text text-anchor="middle" x="429.88" y="-842.25" font-family="Helvetica,sans-Serif" font-size="10.00">PackageClass</text>
</a>
</g>
</g>
<!-- Node1&#45;&gt;Node7 -->
<g id="edge6" class="edge">
<title>Node1&#45;&gt;Node7</title>
<path fill="none" stroke="midnightblue" d="M297.36,-468.08C301.12,-539.67 316.96,-773.16 365.25,-827.12 371.63,-834.26 380.56,-838.76 389.72,-841.59"/>
<polygon fill="midnightblue" stroke="midnightblue" points="300.87,-468.33 296.88,-458.52 293.88,-468.68 300.87,-468.33"/>
</g>
<!-- Node8 -->
<g id="node8" class="node">
<title>Node8</title>
<g id="a_node8"><a xlink:href="class_rexx_array.html" target="_top" xlink:title=" ">
<polygon fill="white" stroke="black" points="398.62,-798.5 398.62,-817.75 461.12,-817.75 461.12,-798.5 398.62,-798.5"/>
<text text-anchor="middle" x="429.88" y="-804.25" font-family="Helvetica,sans-Serif" font-size="10.00">RexxArray</text>
</a>
</g>
</g>
<!-- Node1&#45;&gt;Node8 -->
<g id="edge7" class="edge">
<title>Node1&#45;&gt;Node8</title>
<path fill="none" stroke="midnightblue" d="M297.82,-468.11C302.84,-534.96 321.62,-741.31 365.25,-789.12 373.72,-798.41 386.51,-803.23 398.41,-805.71"/>
<polygon fill="midnightblue" stroke="midnightblue" points="301.34,-468.24 297.13,-458.51 294.36,-468.74 301.34,-468.24"/>
</g>
<!-- Node9 -->
<g id="node9" class="node">
<title>Node9</title>
<g id="a_node9"><a xlink:href="class_rexx_block.html" target="_top" xlink:title=" ">
<polygon fill="white" stroke="black" points="397.88,-760.5 397.88,-779.75 461.88,-779.75 461.88,-760.5 397.88,-760.5"/>
<text text-anchor="middle" x="429.88" y="-766.25" font-family="Helvetica,sans-Serif" font-size="10.00">RexxBlock</text>
</a>
</g>
</g>
<!-- Node1&#45;&gt;Node9 -->
<g id="edge8" class="edge">
<title>Node1&#45;&gt;Node9</title>
<path fill="none" stroke="midnightblue" d="M298.44,-468.56C304.85,-530.75 326.35,-709.51 365.25,-751.12 373.59,-760.05 385.94,-764.84 397.54,-767.39"/>
<polygon fill="midnightblue" stroke="midnightblue" points="301.93,-468.25 297.45,-458.65 294.96,-468.95 301.93,-468.25"/>
</g>
<!-- Node10 -->
<g id="node10" class="node">
<title>Node10</title>
<g id="a_node10"><a xlink:href="class_rexx_buffer_base.html" target="_top" xlink:title=" ">
<polygon fill="white" stroke="black" points="385.88,-722.5 385.88,-741.75 473.88,-741.75 473.88,-722.5 385.88,-722.5"/>
<text text-anchor="middle" x="429.88" y="-728.25" font-family="Helvetica,sans-Serif" font-size="10.00">RexxBufferBase</text>
</a>
</g>
</g>
<!-- Node1&#45;&gt;Node10 -->
<g id="edge9" class="edge">
<title>Node1&#45;&gt;Node10</title>
<path fill="none" stroke="midnightblue" d="M299.17,-468.44C307.02,-525.09 330.93,-677.52 365.25,-713.12 370.77,-718.85 377.94,-722.87 385.46,-725.69"/>
<polygon fill="midnightblue" stroke="midnightblue" points="302.64,-467.98 297.84,-458.54 295.71,-468.92 302.64,-467.98"/>
</g>
<!-- Node12 -->
<g id="node12" class="node">
<title>Node12</title>
<g id="a_node12"><a xlink:href="class_rexx_class.html" target="_top" xlink:title=" ">
<polygon fill="white" stroke="black" points="397.5,-684.5 397.5,-703.75 462.25,-703.75 462.25,-684.5 397.5,-684.5"/>
<text text-anchor="middle" x="429.88" y="-690.25" font-family="Helvetica,sans-Serif" font-size="10.00">RexxClass</text>
</a>
</g>
</g>
<!-- Node1&#45;&gt;Node12 -->
<g id="edge11" class="edge">
<title>Node1&#45;&gt;Node12</title>
<path fill="none" stroke="midnightblue" d="M296.46,-468.37C297.82,-513.07 307.41,-617.47 365.25,-675.12 373.74,-683.59 385.83,-688.31 397.2,-690.94"/>
<polygon fill="midnightblue" stroke="midnightblue" points="299.96,-468.43 296.29,-458.49 292.96,-468.55 299.96,-468.43"/>
</g>
<!-- Node17 -->
<g id="node17" class="node">
<title>Node17</title>
<g id="a_node17"><a xlink:href="class_rexx_closure.html" target="_top" xlink:title=" ">
<polygon fill="white" stroke="black" points="393.38,-646.5 393.38,-665.75 466.38,-665.75 466.38,-646.5 393.38,-646.5"/>
<text text-anchor="middle" x="429.88" y="-652.25" font-family="Helvetica,sans-Serif" font-size="10.00">RexxClosure</text>
</a>
</g>
</g>
<!-- Node1&#45;&gt;Node17 -->
<g id="edge16" class="edge">
<title>Node1&#45;&gt;Node17</title>
<path fill="none" stroke="midnightblue" d="M297.99,-468.53C302.11,-507.68 316.43,-591.03 365.25,-637.12 372.88,-644.33 383.12,-648.81 393.16,-651.6"/>
<polygon fill="midnightblue" stroke="midnightblue" points="301.48,-468.21 297.09,-458.57 294.51,-468.85 301.48,-468.21"/>
</g>
<!-- Node18 -->
<g id="node18" class="node">
<title>Node18</title>
<g id="a_node18"><a xlink:href="class_rexx_context.html" target="_top" xlink:title=" ">
<polygon fill="white" stroke="black" points="393,-608.5 393,-627.75 466.75,-627.75 466.75,-608.5 393,-608.5"/>
<text text-anchor="middle" x="429.88" y="-614.25" font-family="Helvetica,sans-Serif" font-size="10.00">RexxContext</text>
</a>
</g>
</g>
<!-- Node1&#45;&gt;Node18 -->
<g id="edge17" class="edge">
<title>Node1&#45;&gt;Node18</title>
<path fill="none" stroke="midnightblue" d="M300.08,-467.88C307,-500.58 325,-563.98 365.25,-599.12 372.89,-605.8 382.8,-610.13 392.51,-612.94"/>
<polygon fill="midnightblue" stroke="midnightblue" points="303.59,-467.6 298.23,-458.46 296.72,-468.94 303.59,-467.6"/>
</g>
<!-- Node19 -->
<g id="node19" class="node">
<title>Node19</title>
<g id="a_node19"><a xlink:href="class_rexx_hash_table_collection.html" target="_top" xlink:title=" ">
<polygon fill="white" stroke="black" points="365.25,-570.5 365.25,-589.75 494.5,-589.75 494.5,-570.5 365.25,-570.5"/>
<text text-anchor="middle" x="429.88" y="-576.25" font-family="Helvetica,sans-Serif" font-size="10.00">RexxHashTableCollection</text>
</a>
</g>
</g>
<!-- Node1&#45;&gt;Node19 -->
<g id="edge18" class="edge">
<title>Node1&#45;&gt;Node19</title>
<path fill="none" stroke="midnightblue" d="M303.48,-467.74C313.37,-493.36 333.68,-536.69 365.25,-561.12 369.9,-564.72 375.22,-567.64 380.76,-570.01"/>
<polygon fill="midnightblue" stroke="midnightblue" points="306.81,-466.65 300.09,-458.46 300.24,-469.05 306.81,-466.65"/>
</g>
<!-- Node24 -->
<g id="node24" class="node">
<title>Node24</title>
<g id="a_node24"><a xlink:href="class_rexx_integer.html" target="_top" xlink:title=" ">
<polygon fill="white" stroke="black" points="395.25,-532.5 395.25,-551.75 464.5,-551.75 464.5,-532.5 395.25,-532.5"/>
<text text-anchor="middle" x="429.88" y="-538.25" font-family="Helvetica,sans-Serif" font-size="10.00">RexxInteger</text>
</a>
</g>
</g>
<!-- Node1&#45;&gt;Node24 -->
<g id="edge23" class="edge">
<title>Node1&#45;&gt;Node24</title>
<path fill="none" stroke="midnightblue" d="M309.06,-466.25C321.45,-483.5 341.83,-508.36 365.25,-523.12 374.22,-528.78 384.96,-532.82 395.04,-535.69"/>
<polygon fill="midnightblue" stroke="midnightblue" points="312.16,-464.57 303.58,-458.35 306.4,-468.56 312.16,-464.57"/>
</g>
<!-- Node25 -->
<g id="node25" class="node">
<title>Node25</title>
<g id="a_node25"><a xlink:href="class_rexx_list.html" target="_top" xlink:title=" ">
<polygon fill="white" stroke="black" points="402.38,-494.5 402.38,-513.75 457.38,-513.75 457.38,-494.5 402.38,-494.5"/>
<text text-anchor="middle" x="429.88" y="-500.25" font-family="Helvetica,sans-Serif" font-size="10.00">RexxList</text>
</a>
</g>
</g>
<!-- Node1&#45;&gt;Node25 -->
<g id="edge24" class="edge">
<title>Node1&#45;&gt;Node25</title>
<path fill="none" stroke="midnightblue" d="M322.15,-463.07C334.81,-470.45 350.49,-478.93 365.25,-485.12 377.05,-490.07 390.58,-494.3 402.12,-497.51"/>
<polygon fill="midnightblue" stroke="midnightblue" points="323.99,-460.09 313.61,-457.97 320.4,-466.1 323.99,-460.09"/>
</g>
<!-- Node27 -->
<g id="node27" class="node">
<title>Node27</title>
<g id="a_node27"><a xlink:href="class_rexx_local.html" target="_top" xlink:title=" ">
<polygon fill="white" stroke="black" points="398.62,-456.5 398.62,-475.75 461.12,-475.75 461.12,-456.5 398.62,-456.5"/>
<text text-anchor="middle" x="429.88" y="-462.25" font-family="Helvetica,sans-Serif" font-size="10.00">RexxLocal</text>
</a>
</g>
</g>
<!-- Node1&#45;&gt;Node27 -->
<g id="edge26" class="edge">
<title>Node1&#45;&gt;Node27</title>
<path fill="none" stroke="midnightblue" d="M340.85,-453.5C359.79,-456.22 381.4,-459.32 398.47,-461.76"/>
<polygon fill="midnightblue" stroke="midnightblue" points="341.36,-450.04 330.97,-452.09 340.37,-456.97 341.36,-450.04"/>
</g>
<!-- Node28 -->
<g id="node28" class="node">
<title>Node28</title>
<g id="a_node28"><a xlink:href="class_rexx_message.html" target="_top" xlink:title=" ">
<polygon fill="white" stroke="black" points="390.38,-418.5 390.38,-437.75 469.38,-437.75 469.38,-418.5 390.38,-418.5"/>
<text text-anchor="middle" x="429.88" y="-424.25" font-family="Helvetica,sans-Serif" font-size="10.00">RexxMessage</text>
</a>
</g>
</g>
<!-- Node1&#45;&gt;Node28 -->
<g id="edge27" class="edge">
<title>Node1&#45;&gt;Node28</title>
<path fill="none" stroke="midnightblue" d="M340.71,-440.77C356.7,-438.47 374.61,-435.91 390.09,-433.69"/>
<polygon fill="midnightblue" stroke="midnightblue" points="340.37,-437.28 330.97,-442.16 341.36,-444.21 340.37,-437.28"/>
</g>
<!-- Node29 -->
<g id="node29" class="node">
<title>Node29</title>
<g id="a_node29"><a xlink:href="class_rexx_mutable_buffer.html" target="_top" xlink:title=" ">
<polygon fill="white" stroke="black" points="379.88,-380.5 379.88,-399.75 479.88,-399.75 479.88,-380.5 379.88,-380.5"/>
<text text-anchor="middle" x="429.88" y="-386.25" font-family="Helvetica,sans-Serif" font-size="10.00">RexxMutableBuffer</text>
</a>
</g>
</g>
<!-- Node1&#45;&gt;Node29 -->
<g id="edge28" class="edge">
<title>Node1&#45;&gt;Node29</title>
<path fill="none" stroke="midnightblue" d="M322.15,-431.18C334.81,-423.8 350.49,-415.32 365.25,-409.12 373.22,-405.78 381.99,-402.76 390.39,-400.17"/>
<polygon fill="midnightblue" stroke="midnightblue" points="320.4,-428.15 313.61,-436.28 323.99,-434.16 320.4,-428.15"/>
</g>
<!-- Node30 -->
<g id="node30" class="node">
<title>Node30</title>
<g id="a_node30"><a xlink:href="class_rexx_nil_object.html" target="_top" xlink:title=" ">
<polygon fill="white" stroke="black" points="390,-342.5 390,-361.75 469.75,-361.75 469.75,-342.5 390,-342.5"/>
<text text-anchor="middle" x="429.88" y="-348.25" font-family="Helvetica,sans-Serif" font-size="10.00">RexxNilObject</text>
</a>
</g>
</g>
<!-- Node1&#45;&gt;Node30 -->
<g id="edge29" class="edge">
<title>Node1&#45;&gt;Node30</title>
<path fill="none" stroke="midnightblue" d="M309.06,-428C321.45,-410.75 341.83,-385.89 365.25,-371.12 372.66,-366.45 381.28,-362.88 389.74,-360.17"/>
<polygon fill="midnightblue" stroke="midnightblue" points="306.4,-425.69 303.58,-435.9 312.16,-429.68 306.4,-425.69"/>
</g>
<!-- Node31 -->
<g id="node31" class="node">
<title>Node31</title>
<g id="a_node31"><a xlink:href="class_rexx_number_string_base.html" target="_top" xlink:title=" ">
<polygon fill="white" stroke="black" points="369,-304.5 369,-323.75 490.75,-323.75 490.75,-304.5 369,-304.5"/>
<text text-anchor="middle" x="429.88" y="-310.25" font-family="Helvetica,sans-Serif" font-size="10.00">RexxNumberStringBase</text>
</a>
</g>
</g>
<!-- Node1&#45;&gt;Node31 -->
<g id="edge30" class="edge">
<title>Node1&#45;&gt;Node31</title>
<path fill="none" stroke="midnightblue" d="M303.48,-426.51C313.37,-400.89 333.68,-357.56 365.25,-333.12 369.9,-329.53 375.22,-326.61 380.76,-324.24"/>
<polygon fill="midnightblue" stroke="midnightblue" points="300.24,-425.2 300.09,-435.79 306.81,-427.6 300.24,-425.2"/>
</g>
<!-- Node33 -->
<g id="node33" class="node">
<title>Node33</title>
<g id="a_node33"><a xlink:href="class_rexx_pointer.html" target="_top" xlink:title=" ">
<polygon fill="white" stroke="black" points="394.88,-266.5 394.88,-285.75 464.88,-285.75 464.88,-266.5 394.88,-266.5"/>
<text text-anchor="middle" x="429.88" y="-272.25" font-family="Helvetica,sans-Serif" font-size="10.00">RexxPointer</text>
</a>
</g>
</g>
<!-- Node1&#45;&gt;Node33 -->
<g id="edge32" class="edge">
<title>Node1&#45;&gt;Node33</title>
<path fill="none" stroke="midnightblue" d="M300.08,-426.37C307,-393.67 325,-330.27 365.25,-295.12 373.41,-288 384.16,-283.54 394.49,-280.76"/>
<polygon fill="midnightblue" stroke="midnightblue" points="296.72,-425.31 298.23,-435.79 303.59,-426.65 296.72,-425.31"/>
</g>
<!-- Node34 -->
<g id="node34" class="node">
<title>Node34</title>
<g id="a_node34"><a xlink:href="class_rexx_stem.html" target="_top" xlink:title=" ">
<polygon fill="white" stroke="black" points="398.62,-228.5 398.62,-247.75 461.12,-247.75 461.12,-228.5 398.62,-228.5"/>
<text text-anchor="middle" x="429.88" y="-234.25" font-family="Helvetica,sans-Serif" font-size="10.00">RexxStem</text>
</a>
</g>
</g>
<!-- Node1&#45;&gt;Node34 -->
<g id="edge33" class="edge">
<title>Node1&#45;&gt;Node34</title>
<path fill="none" stroke="midnightblue" d="M297.99,-425.72C302.11,-386.57 316.43,-303.22 365.25,-257.12 374.22,-248.66 386.81,-243.95 398.42,-241.34"/>
<polygon fill="midnightblue" stroke="midnightblue" points="294.51,-425.4 297.09,-435.68 301.48,-426.04 294.51,-425.4"/>
</g>
<!-- Node35 -->
<g id="node35" class="node">
<title>Node35</title>
<g id="a_node35"><a xlink:href="class_rexx_string.html" target="_top" xlink:title=" ">
<polygon fill="white" stroke="black" points="397.5,-190.5 397.5,-209.75 462.25,-209.75 462.25,-190.5 397.5,-190.5"/>
<text text-anchor="middle" x="429.88" y="-196.25" font-family="Helvetica,sans-Serif" font-size="10.00">RexxString</text>
</a>
</g>
</g>
<!-- Node1&#45;&gt;Node35 -->
<g id="edge34" class="edge">
<title>Node1&#45;&gt;Node35</title>
<path fill="none" stroke="midnightblue" d="M296.46,-425.88C297.82,-381.18 307.41,-276.78 365.25,-219.12 373.74,-210.66 385.83,-205.94 397.2,-203.31"/>
<polygon fill="midnightblue" stroke="midnightblue" points="292.96,-425.7 296.29,-435.76 299.96,-425.82 292.96,-425.7"/>
</g>
<!-- Node36 -->
<g id="node36" class="node">
<title>Node36</title>
<g id="a_node36"><a xlink:href="class_rexx_supplier.html" target="_top" xlink:title=" ">
<polygon fill="white" stroke="black" points="392.62,-152.5 392.62,-171.75 467.12,-171.75 467.12,-152.5 392.62,-152.5"/>
<text text-anchor="middle" x="429.88" y="-158.25" font-family="Helvetica,sans-Serif" font-size="10.00">RexxSupplier</text>
</a>
</g>
</g>
<!-- Node1&#45;&gt;Node36 -->
<g id="edge35" class="edge">
<title>Node1&#45;&gt;Node36</title>
<path fill="none" stroke="midnightblue" d="M299.17,-425.81C307.02,-369.16 330.93,-216.73 365.25,-181.12 372.45,-173.65 382.45,-169.09 392.39,-166.31"/>
<polygon fill="midnightblue" stroke="midnightblue" points="295.71,-425.33 297.84,-435.71 302.64,-426.27 295.71,-425.33"/>
</g>
<!-- Node37 -->
<g id="node37" class="node">
<title>Node37</title>
<g id="a_node37"><a xlink:href="class_rexx_text.html" target="_top" xlink:title=" ">
<polygon fill="white" stroke="black" points="400.88,-114.5 400.88,-133.75 458.88,-133.75 458.88,-114.5 400.88,-114.5"/>
<text text-anchor="middle" x="429.88" y="-120.25" font-family="Helvetica,sans-Serif" font-size="10.00">RexxText</text>
</a>
</g>
</g>
<!-- Node1&#45;&gt;Node37 -->
<g id="edge36" class="edge">
<title>Node1&#45;&gt;Node37</title>
<path fill="none" stroke="midnightblue" d="M298.44,-425.69C304.85,-363.5 326.35,-184.74 365.25,-143.12 374.3,-133.44 388.06,-128.62 400.47,-126.25"/>
<polygon fill="midnightblue" stroke="midnightblue" points="294.96,-425.3 297.45,-435.6 301.93,-426 294.96,-425.3"/>
</g>
<!-- Node38 -->
<g id="node38" class="node">
<title>Node38</title>
<g id="a_node38"><a xlink:href="class_stack_frame_class.html" target="_top" xlink:title=" ">
<polygon fill="white" stroke="black" points="382.5,-76.5 382.5,-95.75 477.25,-95.75 477.25,-76.5 382.5,-76.5"/>
<text text-anchor="middle" x="429.88" y="-82.25" font-family="Helvetica,sans-Serif" font-size="10.00">StackFrameClass</text>
</a>
</g>
</g>
<!-- Node1&#45;&gt;Node38 -->
<g id="edge37" class="edge">
<title>Node1&#45;&gt;Node38</title>
<path fill="none" stroke="midnightblue" d="M297.82,-426.14C302.84,-359.29 321.62,-152.94 365.25,-105.12 369.91,-100.02 375.88,-96.26 382.3,-93.5"/>
<polygon fill="midnightblue" stroke="midnightblue" points="294.36,-425.51 297.13,-435.74 301.34,-426.01 294.36,-425.51"/>
</g>
<!-- Node39 -->
<g id="node39" class="node">
<title>Node39</title>
<g id="a_node39"><a xlink:href="class_unicode.html" target="_top" xlink:title=" ">
<polygon fill="white" stroke="black" points="403.88,-38.5 403.88,-57.75 455.88,-57.75 455.88,-38.5 403.88,-38.5"/>
<text text-anchor="middle" x="429.88" y="-44.25" font-family="Helvetica,sans-Serif" font-size="10.00">Unicode</text>
</a>
</g>
</g>
<!-- Node1&#45;&gt;Node39 -->
<g id="edge38" class="edge">
<title>Node1&#45;&gt;Node39</title>
<path fill="none" stroke="midnightblue" d="M297.36,-426.17C301.12,-354.58 316.96,-121.09 365.25,-67.12 374.86,-56.39 390.25,-51.6 403.49,-49.52"/>
<polygon fill="midnightblue" stroke="midnightblue" points="293.88,-425.57 296.88,-435.73 300.87,-425.92 293.88,-425.57"/>
</g>
<!-- Node40 -->
<g id="node40" class="node">
<title>Node40</title>
<g id="a_node40"><a xlink:href="class_weak_reference.html" target="_top" xlink:title=" ">
<polygon fill="white" stroke="black" points="387,-0.5 387,-19.75 472.75,-19.75 472.75,-0.5 387,-0.5"/>
<text text-anchor="middle" x="429.88" y="-6.25" font-family="Helvetica,sans-Serif" font-size="10.00">WeakReference</text>
</a>
</g>
</g>
<!-- Node1&#45;&gt;Node40 -->
<g id="edge39" class="edge">
<title>Node1&#45;&gt;Node40</title>
<path fill="none" stroke="midnightblue" d="M297,-425.6C299.64,-348.72 312.41,-89.13 365.25,-29.12 370.89,-22.72 378.58,-18.43 386.67,-15.57"/>
<polygon fill="midnightblue" stroke="midnightblue" points="293.5,-425.41 296.68,-435.52 300.5,-425.63 293.5,-425.41"/>
</g>
<!-- Node2 -->
<g id="node2" class="node">
<title>Node2</title>
<g id="a_node2"><a xlink:href="class_rexx_internal_object.html" target="_top" xlink:title=" ">
<polygon fill="white" stroke="black" points="125.5,-437.5 125.5,-456.75 225.5,-456.75 225.5,-437.5 125.5,-437.5"/>
<text text-anchor="middle" x="175.5" y="-443.25" font-family="Helvetica,sans-Serif" font-size="10.00">RexxInternalObject</text>
</a>
</g>
</g>
<!-- Node2&#45;&gt;Node1 -->
<g id="edge1" class="edge">
<title>Node2&#45;&gt;Node1</title>
<path fill="none" stroke="midnightblue" d="M237.3,-447.12C245.46,-447.12 253.57,-447.12 261,-447.12"/>
<polygon fill="midnightblue" stroke="midnightblue" points="237.32,-443.63 227.32,-447.13 237.32,-450.63 237.32,-443.63"/>
</g>
<!-- Node3 -->
<g id="node3" class="node">
<title>Node3</title>
<g id="a_node3"><a xlink:href="class_rexx_virtual_base.html" target="_top" xlink:title=" ">
<polygon fill="white" stroke="black" points="0,-437.5 0,-456.75 89.5,-456.75 89.5,-437.5 0,-437.5"/>
<text text-anchor="middle" x="44.75" y="-443.25" font-family="Helvetica,sans-Serif" font-size="10.00">RexxVirtualBase</text>
</a>
</g>
</g>
<!-- Node3&#45;&gt;Node2 -->
<g id="edge2" class="edge">
<title>Node3&#45;&gt;Node2</title>
<path fill="none" stroke="midnightblue" d="M101.13,-447.12C109.07,-447.12 117.19,-447.12 125,-447.12"/>
<polygon fill="midnightblue" stroke="midnightblue" points="101.21,-443.63 91.21,-447.13 101.21,-450.63 101.21,-443.63"/>
</g>
<!-- Node5 -->
<g id="node5" class="node">
<title>Node5</title>
<g id="a_node5"><a xlink:href="class_rexx_method.html" target="_top" xlink:title=" ">
<polygon fill="white" stroke="black" points="557.5,-893.5 557.5,-912.75 629,-912.75 629,-893.5 557.5,-893.5"/>
<text text-anchor="middle" x="593.25" y="-899.25" font-family="Helvetica,sans-Serif" font-size="10.00">RexxMethod</text>
</a>
</g>
</g>
<!-- Node4&#45;&gt;Node5 -->
<g id="edge4" class="edge">
<title>Node4&#45;&gt;Node5</title>
<path fill="none" stroke="midnightblue" d="M485.05,-890.5C508.83,-893.3 536.06,-896.51 557.13,-898.99"/>
<polygon fill="midnightblue" stroke="midnightblue" points="485.54,-887.04 475.2,-889.34 484.72,-893.99 485.54,-887.04"/>
</g>
<!-- Node6 -->
<g id="node6" class="node">
<title>Node6</title>
<g id="a_node6"><a xlink:href="class_routine_class.html" target="_top" xlink:title=" ">
<polygon fill="white" stroke="black" points="555.62,-855.5 555.62,-874.75 630.88,-874.75 630.88,-855.5 555.62,-855.5"/>
<text text-anchor="middle" x="593.25" y="-861.25" font-family="Helvetica,sans-Serif" font-size="10.00">RoutineClass</text>
</a>
</g>
</g>
<!-- Node4&#45;&gt;Node6 -->
<g id="edge5" class="edge">
<title>Node4&#45;&gt;Node6</title>
<path fill="none" stroke="midnightblue" d="M485.07,-877.74C508.15,-875.03 534.48,-871.93 555.27,-869.48"/>
<polygon fill="midnightblue" stroke="midnightblue" points="484.72,-874.26 475.2,-878.91 485.54,-881.21 484.72,-874.26"/>
</g>
<!-- Node11 -->
<g id="node11" class="node">
<title>Node11</title>
<g id="a_node11"><a xlink:href="class_rexx_buffer.html" target="_top" xlink:title=" ">
<polygon fill="white" stroke="black" points="560.5,-760.5 560.5,-779.75 626,-779.75 626,-760.5 560.5,-760.5"/>
<text text-anchor="middle" x="593.25" y="-766.25" font-family="Helvetica,sans-Serif" font-size="10.00">RexxBuffer</text>
</a>
</g>
</g>
<!-- Node10&#45;&gt;Node11 -->
<g id="edge10" class="edge">
<title>Node10&#45;&gt;Node11</title>
<path fill="none" stroke="midnightblue" d="M484.88,-744.84C509.88,-750.73 538.74,-757.53 560.24,-762.59"/>
<polygon fill="midnightblue" stroke="midnightblue" points="485.71,-741.44 475.17,-742.56 484.1,-748.25 485.71,-741.44"/>
</g>
<!-- Node13 -->
<g id="node13" class="node">
<title>Node13</title>
<g id="a_node13"><a xlink:href="class_rexx_integer_class.html" target="_top" xlink:title=" ">
<polygon fill="white" stroke="black" points="545.88,-722.5 545.88,-741.75 640.62,-741.75 640.62,-722.5 545.88,-722.5"/>
<text text-anchor="middle" x="593.25" y="-728.25" font-family="Helvetica,sans-Serif" font-size="10.00">RexxIntegerClass</text>
</a>
</g>
</g>
<!-- Node12&#45;&gt;Node13 -->
<g id="edge12" class="edge">
<title>Node12&#45;&gt;Node13</title>
<path fill="none" stroke="midnightblue" d="M473.41,-704.14C496.9,-709.67 526.01,-716.53 549.53,-722.07"/>
<polygon fill="midnightblue" stroke="midnightblue" points="474.38,-700.77 463.85,-701.89 472.78,-707.59 474.38,-700.77"/>
</g>
<!-- Node14 -->
<g id="node14" class="node">
<title>Node14</title>
<g id="a_node14"><a xlink:href="class_rexx_mutable_buffer_class.html" target="_top" xlink:title=" ">
<polygon fill="white" stroke="black" points="530.5,-684.5 530.5,-703.75 656,-703.75 656,-684.5 530.5,-684.5"/>
<text text-anchor="middle" x="593.25" y="-690.25" font-family="Helvetica,sans-Serif" font-size="10.00">RexxMutableBufferClass</text>
</a>
</g>
</g>
<!-- Node12&#45;&gt;Node14 -->
<g id="edge13" class="edge">
<title>Node12&#45;&gt;Node14</title>
<path fill="none" stroke="midnightblue" d="M473.79,-694.12C491.05,-694.12 511.29,-694.12 530.1,-694.12"/>
<polygon fill="midnightblue" stroke="midnightblue" points="473.89,-690.63 463.89,-694.13 473.89,-697.63 473.89,-690.63"/>
</g>
<!-- Node15 -->
<g id="node15" class="node">
<title>Node15</title>
<g id="a_node15"><a xlink:href="class_rexx_supplier_class.html" target="_top" xlink:title=" ">
<polygon fill="white" stroke="black" points="543.25,-646.5 543.25,-665.75 643.25,-665.75 643.25,-646.5 543.25,-646.5"/>
<text text-anchor="middle" x="593.25" y="-652.25" font-family="Helvetica,sans-Serif" font-size="10.00">RexxSupplierClass</text>
</a>
</g>
</g>
<!-- Node12&#45;&gt;Node15 -->
<g id="edge14" class="edge">
<title>Node12&#45;&gt;Node15</title>
<path fill="none" stroke="midnightblue" d="M473.41,-684.11C496.9,-678.58 526.01,-671.72 549.53,-666.18"/>
<polygon fill="midnightblue" stroke="midnightblue" points="472.78,-680.66 463.85,-686.36 474.38,-687.48 472.78,-680.66"/>
</g>
<!-- Node16 -->
<g id="node16" class="node">
<title>Node16</title>
<g id="a_node16"><a xlink:href="class_rexx_text_class.html" target="_top" xlink:title=" ">
<polygon fill="white" stroke="black" points="551.5,-608.5 551.5,-627.75 635,-627.75 635,-608.5 551.5,-608.5"/>
<text text-anchor="middle" x="593.25" y="-614.25" font-family="Helvetica,sans-Serif" font-size="10.00">RexxTextClass</text>
</a>
</g>
</g>
<!-- Node12&#45;&gt;Node16 -->
<g id="edge15" class="edge">
<title>Node12&#45;&gt;Node16</title>
<path fill="none" stroke="midnightblue" d="M473.59,-684.74C480.86,-682.21 488.11,-679.05 494.5,-675.12 514.32,-662.94 510.73,-649.39 530.5,-637.12 536.79,-633.22 543.94,-630.07 551.09,-627.54"/>
<polygon fill="midnightblue" stroke="midnightblue" points="472.64,-681.37 464.12,-687.66 474.7,-688.06 472.64,-681.37"/>
</g>
<!-- Node20 -->
<g id="node20" class="node">
<title>Node20</title>
<g id="a_node20"><a xlink:href="class_rexx_directory.html" target="_top" xlink:title=" ">
<polygon fill="white" stroke="black" points="553.75,-570.5 553.75,-589.75 632.75,-589.75 632.75,-570.5 553.75,-570.5"/>
<text text-anchor="middle" x="593.25" y="-576.25" font-family="Helvetica,sans-Serif" font-size="10.00">RexxDirectory</text>
</a>
</g>
</g>
<!-- Node19&#45;&gt;Node20 -->
<g id="edge19" class="edge">
<title>Node19&#45;&gt;Node20</title>
<path fill="none" stroke="midnightblue" d="M505.97,-580.12C522.44,-580.12 539.22,-580.12 553.55,-580.12"/>
<polygon fill="midnightblue" stroke="midnightblue" points="506.17,-576.63 496.17,-580.13 506.17,-583.63 506.17,-576.63"/>
</g>
<!-- Node21 -->
<g id="node21" class="node">
<title>Node21</title>
<g id="a_node21"><a xlink:href="class_rexx_table.html" target="_top" xlink:title=" ">
<polygon fill="white" stroke="black" points="562,-532.5 562,-551.75 624.5,-551.75 624.5,-532.5 562,-532.5"/>
<text text-anchor="middle" x="593.25" y="-538.25" font-family="Helvetica,sans-Serif" font-size="10.00">RexxTable</text>
</a>
</g>
</g>
<!-- Node19&#45;&gt;Node21 -->
<g id="edge20" class="edge">
<title>Node19&#45;&gt;Node21</title>
<path fill="none" stroke="midnightblue" d="M484.73,-567.44C510.26,-561.43 539.85,-554.46 561.51,-549.36"/>
<polygon fill="midnightblue" stroke="midnightblue" points="484.1,-564 475.17,-569.69 485.71,-570.81 484.1,-564"/>
</g>
<!-- Node22 -->
<g id="node22" class="node">
<title>Node22</title>
<g id="a_node22"><a xlink:href="class_rexx_identity_table.html" target="_top" xlink:title=" ">
<polygon fill="white" stroke="black" points="692,-551.5 692,-570.75 786.75,-570.75 786.75,-551.5 692,-551.5"/>
<text text-anchor="middle" x="739.38" y="-557.25" font-family="Helvetica,sans-Serif" font-size="10.00">RexxIdentityTable</text>
</a>
</g>
</g>
<!-- Node21&#45;&gt;Node22 -->
<g id="edge21" class="edge">
<title>Node21&#45;&gt;Node22</title>
<path fill="none" stroke="midnightblue" d="M635.82,-547.6C653.29,-549.91 673.69,-552.6 691.68,-554.97"/>
<polygon fill="midnightblue" stroke="midnightblue" points="636.69,-544.19 626.32,-546.35 635.77,-551.13 636.69,-544.19"/>
</g>
<!-- Node23 -->
<g id="node23" class="node">
<title>Node23</title>
<g id="a_node23"><a xlink:href="class_rexx_relation.html" target="_top" xlink:title=" ">
<polygon fill="white" stroke="black" points="701.75,-513.5 701.75,-532.75 777,-532.75 777,-513.5 701.75,-513.5"/>
<text text-anchor="middle" x="739.38" y="-519.25" font-family="Helvetica,sans-Serif" font-size="10.00">RexxRelation</text>
</a>
</g>
</g>
<!-- Node21&#45;&gt;Node23 -->
<g id="edge22" class="edge">
<title>Node21&#45;&gt;Node23</title>
<path fill="none" stroke="midnightblue" d="M636.14,-536.6C656.81,-533.88 681.51,-530.62 701.46,-527.99"/>
<polygon fill="midnightblue" stroke="midnightblue" points="635.77,-533.12 626.32,-537.9 636.69,-540.06 635.77,-533.12"/>
</g>
<!-- Node26 -->
<g id="node26" class="node">
<title>Node26</title>
<g id="a_node26"><a xlink:href="class_rexx_queue.html" target="_top" xlink:title=" ">
<polygon fill="white" stroke="black" points="559.38,-494.5 559.38,-513.75 627.12,-513.75 627.12,-494.5 559.38,-494.5"/>
<text text-anchor="middle" x="593.25" y="-500.25" font-family="Helvetica,sans-Serif" font-size="10.00">RexxQueue</text>
</a>
</g>
</g>
<!-- Node25&#45;&gt;Node26 -->
<g id="edge25" class="edge">
<title>Node25&#45;&gt;Node26</title>
<path fill="none" stroke="midnightblue" d="M469.02,-504.12C496.41,-504.12 532.96,-504.12 559.13,-504.12"/>
<polygon fill="midnightblue" stroke="midnightblue" points="469.04,-500.63 459.04,-504.13 469.04,-507.63 469.04,-500.63"/>
</g>
<!-- Node32 -->
<g id="node32" class="node">
<title>Node32</title>
<g id="a_node32"><a xlink:href="class_rexx_number_string.html" target="_top" xlink:title=" ">
<polygon fill="white" stroke="black" points="543.62,-304.5 543.62,-323.75 642.88,-323.75 642.88,-304.5 543.62,-304.5"/>
<text text-anchor="middle" x="593.25" y="-310.25" font-family="Helvetica,sans-Serif" font-size="10.00">RexxNumberString</text>
</a>
</g>
</g>
<!-- Node31&#45;&gt;Node32 -->
<g id="edge31" class="edge">
<title>Node31&#45;&gt;Node32</title>
<path fill="none" stroke="midnightblue" d="M502.41,-314.12C516.18,-314.12 530.32,-314.12 543.17,-314.12"/>
<polygon fill="midnightblue" stroke="midnightblue" points="502.48,-310.63 492.48,-314.13 502.48,-317.63 502.48,-310.63"/>
</g>
</g>
</svg>
        <g id="navigator" transform="translate(0 0)" fill="#404254">
                <rect fill="#f2f5e9" fill-opacity="0.5" stroke="#606060" stroke-width=".5" x="0" y="0" width="60" height="60"/>
                <use id="zoomplus" xlink:href="#zoomPlus" x="17" y="9" onmousedown="handleZoom(evt,'in')"/>
                <use id="zoomminus" xlink:href="#zoomMin" x="42" y="9" onmousedown="handleZoom(evt,'out')"/>
                <use id="reset" xlink:href="#resetDef" x="30" y="36" onmousedown="handleReset()"/>
                <g id="arrowUp" xlink:href="#dirArrow" transform="translate(30 24)" onmousedown="handlePan(0,-1)">
                  <use xlink:href="#rim" fill="#404040">
                        <set attributeName="fill" to="#808080" begin="arrowUp.mouseover" end="arrowUp.mouseout"/>
                  </use>
                  <path fill="none" stroke="white" stroke-width="1.5" d="M0,-3.0v7 M-2.5,-0.5L0,-3.0L2.5,-0.5"/>
                </g>
                <g id="arrowRight" xlink:href="#dirArrow" transform="rotate(90) translate(36 -43)" onmousedown="handlePan(1,0)">
                  <use xlink:href="#rim" fill="#404040">
                        <set attributeName="fill" to="#808080" begin="arrowRight.mouseover" end="arrowRight.mouseout"/>
                  </use>
                  <path fill="none" stroke="white" stroke-width="1.5" d="M0,-3.0v7 M-2.5,-0.5L0,-3.0L2.5,-0.5"/>
                </g>
                <g id="arrowDown" xlink:href="#dirArrow" transform="rotate(180) translate(-30 -48)" onmousedown="handlePan(0,1)">
                  <use xlink:href="#rim" fill="#404040">
                        <set attributeName="fill" to="#808080" begin="arrowDown.mouseover" end="arrowDown.mouseout"/>
                  </use>
                  <path fill="none" stroke="white" stroke-width="1.5" d="M0,-3.0v7 M-2.5,-0.5L0,-3.0L2.5,-0.5"/>
                </g>
                <g id="arrowLeft" xlink:href="#dirArrow" transform="rotate(270) translate(-36 17)" onmousedown="handlePan(-1,0)">
                  <use xlink:href="#rim" fill="#404040">
                        <set attributeName="fill" to="#808080" begin="arrowLeft.mouseover" end="arrowLeft.mouseout"/>
                  </use>
                  <path fill="none" stroke="white" stroke-width="1.5" d="M0,-3.0v7 M-2.5,-0.5L0,-3.0L2.5,-0.5"/>
                </g>
        </g>
        <svg viewBox="0 0 15 15" width="100%" height="30px" preserveAspectRatio="xMaxYMin meet">
         <g id="arrow_out" transform="scale(0.3 0.3)">
          <a xlink:href="class_rexx_object__inherit__graph_org.svg" target="_base">
           <rect id="button" ry="5" rx="5" y="6" x="6" height="38" width="38"
                fill="#f2f5e9" fill-opacity="0.5" stroke="#606060" stroke-width="1.0"/>
           <path id="arrow"
             d="M 11.500037,31.436501 C 11.940474,20.09759 22.043105,11.32322 32.158766,21.979434 L 37.068811,17.246167 C 37.068811,17.246167 37.088388,32 37.088388,32 L 22.160133,31.978069 C 22.160133,31.978069 26.997745,27.140456 26.997745,27.140456 C 18.528582,18.264221 13.291696,25.230495 11.500037,31.436501 z"
             style="fill:#404040;"/>
          </a>
         </g>
        </svg>
</svg>
