<?xml version="1.0" encoding="UTF-8" standalone="no"?>
<!DOCTYPE svg PUBLIC "-//W3C//DTD SVG 1.1//EN"
 "http://www.w3.org/Graphics/SVG/1.1/DTD/svg11.dtd">
<!-- Generated by graphviz version 12.1.0 (20240811.2233)
 -->
<!-- Title: MemorySegmentSet Pages: 1 -->
<svg width="352pt" height="85pt"
 viewBox="0.00 0.00 352.38 84.50" xmlns="http://www.w3.org/2000/svg" xmlns:xlink="http://www.w3.org/1999/xlink">
<g id="graph0" class="graph" transform="scale(1 1) rotate(0) translate(4 80.5)">
<title>MemorySegmentSet</title>
<polygon fill="white" stroke="none" points="-4,4 -4,-80.5 348.38,-80.5 348.38,4 -4,4"/>
<!-- Node1 -->
<g id="node1" class="node">
<title>Node1</title>
<g id="a_node1"><a xlink:title=" ">
<polygon fill="#bfbfbf" stroke="black" points="110.38,-56.75 110.38,-76 215.62,-76 215.62,-56.75 110.38,-56.75"/>
<text text-anchor="middle" x="163" y="-62.5" font-family="Helvetica,sans-Serif" font-size="10.00">MemorySegmentSet</text>
</a>
</g>
</g>
<!-- Node2 -->
<g id="node2" class="node">
<title>Node2</title>
<g id="a_node2"><a xlink:href="class_large_segment_set.html" target="_top" xlink:title=" ">
<polygon fill="white" stroke="black" points="0,-0.5 0,-19.75 94,-19.75 94,-0.5 0,-0.5"/>
<text text-anchor="middle" x="47" y="-6.25" font-family="Helvetica,sans-Serif" font-size="10.00">LargeSegmentSet</text>
</a>
</g>
</g>
<!-- Node1&#45;&gt;Node2 -->
<g id="edge1" class="edge">
<title>Node1&#45;&gt;Node2</title>
<path fill="none" stroke="midnightblue" d="M133.28,-51.48C112.28,-41.66 84.74,-28.77 66.48,-20.23"/>
<polygon fill="midnightblue" stroke="midnightblue" points="131.67,-54.59 142.21,-55.65 134.64,-48.25 131.67,-54.59"/>
</g>
<!-- Node3 -->
<g id="node3" class="node">
<title>Node3</title>
<g id="a_node3"><a xlink:href="class_normal_segment_set.html" target="_top" xlink:title=" ">
<polygon fill="white" stroke="black" points="112.25,-0.5 112.25,-19.75 213.75,-19.75 213.75,-0.5 112.25,-0.5"/>
<text text-anchor="middle" x="163" y="-6.25" font-family="Helvetica,sans-Serif" font-size="10.00">NormalSegmentSet</text>
</a>
</g>
</g>
<!-- Node1&#45;&gt;Node3 -->
<g id="edge2" class="edge">
<title>Node1&#45;&gt;Node3</title>
<path fill="none" stroke="midnightblue" d="M163,-45.19C163,-36.48 163,-26.74 163,-19.92"/>
<polygon fill="midnightblue" stroke="midnightblue" points="159.5,-44.9 163,-54.9 166.5,-44.9 159.5,-44.9"/>
</g>
<!-- Node4 -->
<g id="node4" class="node">
<title>Node4</title>
<g id="a_node4"><a xlink:href="class_old_space_segment_set.html" target="_top" xlink:title=" ">
<polygon fill="white" stroke="black" points="231.62,-0.5 231.62,-19.75 344.38,-19.75 344.38,-0.5 231.62,-0.5"/>
<text text-anchor="middle" x="288" y="-6.25" font-family="Helvetica,sans-Serif" font-size="10.00">OldSpaceSegmentSet</text>
</a>
</g>
</g>
<!-- Node1&#45;&gt;Node4 -->
<g id="edge3" class="edge">
<title>Node1&#45;&gt;Node4</title>
<path fill="none" stroke="midnightblue" d="M194.4,-51.75C217.1,-41.89 247.16,-28.85 267.01,-20.23"/>
<polygon fill="midnightblue" stroke="midnightblue" points="193.09,-48.5 185.31,-55.69 195.88,-54.92 193.09,-48.5"/>
</g>
</g>
</svg>
