<?xml version="1.0" encoding="UTF-8" standalone="no"?>
<!DOCTYPE svg PUBLIC "-//W3C//DTD SVG 1.1//EN"
 "http://www.w3.org/Graphics/SVG/1.1/DTD/svg11.dtd">
<!-- Generated by graphviz version 12.1.0 (20240811.2233)
 -->
<!-- Title: RexxNumberStringBase Pages: 1 -->
<svg width="130pt" height="253pt"
 viewBox="0.00 0.00 129.75 253.25" xmlns="http://www.w3.org/2000/svg" xmlns:xlink="http://www.w3.org/1999/xlink">
<g id="graph0" class="graph" transform="scale(1 1) rotate(0) translate(4 249.25)">
<title>RexxNumberStringBase</title>
<polygon fill="white" stroke="none" points="-4,4 -4,-249.25 125.75,-249.25 125.75,4 -4,4"/>
<!-- Node1 -->
<g id="node1" class="node">
<title>Node1</title>
<g id="a_node1"><a xlink:title=" ">
<polygon fill="#bfbfbf" stroke="black" points="0,-56.75 0,-76 121.75,-76 121.75,-56.75 0,-56.75"/>
<text text-anchor="middle" x="60.88" y="-62.5" font-family="Helvetica,sans-Serif" font-size="10.00">RexxNumberStringBase</text>
</a>
</g>
</g>
<!-- Node5 -->
<g id="node5" class="node">
<title>Node5</title>
<g id="a_node5"><a xlink:href="class_rexx_number_string.html" target="_top" xlink:title=" ">
<polygon fill="white" stroke="black" points="11.25,-0.5 11.25,-19.75 110.5,-19.75 110.5,-0.5 11.25,-0.5"/>
<text text-anchor="middle" x="60.88" y="-6.25" font-family="Helvetica,sans-Serif" font-size="10.00">RexxNumberString</text>
</a>
</g>
</g>
<!-- Node1&#45;&gt;Node5 -->
<g id="edge4" class="edge">
<title>Node1&#45;&gt;Node5</title>
<path fill="none" stroke="midnightblue" d="M60.88,-45.19C60.88,-36.48 60.88,-26.74 60.88,-19.92"/>
<polygon fill="midnightblue" stroke="midnightblue" points="57.38,-44.9 60.88,-54.9 64.38,-44.9 57.38,-44.9"/>
</g>
<!-- Node2 -->
<g id="node2" class="node">
<title>Node2</title>
<g id="a_node2"><a xlink:href="class_rexx_object.html" target="_top" xlink:title=" ">
<polygon fill="white" stroke="black" points="27,-113 27,-132.25 94.75,-132.25 94.75,-113 27,-113"/>
<text text-anchor="middle" x="60.88" y="-118.75" font-family="Helvetica,sans-Serif" font-size="10.00">RexxObject</text>
</a>
</g>
</g>
<!-- Node2&#45;&gt;Node1 -->
<g id="edge1" class="edge">
<title>Node2&#45;&gt;Node1</title>
<path fill="none" stroke="midnightblue" d="M60.88,-101.44C60.88,-92.73 60.88,-82.99 60.88,-76.17"/>
<polygon fill="midnightblue" stroke="midnightblue" points="57.38,-101.15 60.88,-111.15 64.38,-101.15 57.38,-101.15"/>
</g>
<!-- Node3 -->
<g id="node3" class="node">
<title>Node3</title>
<g id="a_node3"><a xlink:href="class_rexx_internal_object.html" target="_top" xlink:title=" ">
<polygon fill="white" stroke="black" points="10.88,-169.25 10.88,-188.5 110.88,-188.5 110.88,-169.25 10.88,-169.25"/>
<text text-anchor="middle" x="60.88" y="-175" font-family="Helvetica,sans-Serif" font-size="10.00">RexxInternalObject</text>
</a>
</g>
</g>
<!-- Node3&#45;&gt;Node2 -->
<g id="edge2" class="edge">
<title>Node3&#45;&gt;Node2</title>
<path fill="none" stroke="midnightblue" d="M60.88,-157.69C60.88,-148.98 60.88,-139.24 60.88,-132.42"/>
<polygon fill="midnightblue" stroke="midnightblue" points="57.38,-157.4 60.88,-167.4 64.38,-157.4 57.38,-157.4"/>
</g>
<!-- Node4 -->
<g id="node4" class="node">
<title>Node4</title>
<g id="a_node4"><a xlink:href="class_rexx_virtual_base.html" target="_top" xlink:title=" ">
<polygon fill="white" stroke="black" points="16.12,-225.5 16.12,-244.75 105.62,-244.75 105.62,-225.5 16.12,-225.5"/>
<text text-anchor="middle" x="60.88" y="-231.25" font-family="Helvetica,sans-Serif" font-size="10.00">RexxVirtualBase</text>
</a>
</g>
</g>
<!-- Node4&#45;&gt;Node3 -->
<g id="edge3" class="edge">
<title>Node4&#45;&gt;Node3</title>
<path fill="none" stroke="midnightblue" d="M60.88,-213.94C60.88,-205.23 60.88,-195.49 60.88,-188.67"/>
<polygon fill="midnightblue" stroke="midnightblue" points="57.38,-213.65 60.88,-223.65 64.38,-213.65 57.38,-213.65"/>
</g>
</g>
</svg>
