<?xml version="1.0" encoding="UTF-8" standalone="no"?>
<!DOCTYPE svg PUBLIC "-//W3C//DTD SVG 1.1//EN"
 "http://www.w3.org/Graphics/SVG/1.1/DTD/svg11.dtd">
<!-- Generated by graphviz version 12.1.0 (20240811.2233)
 -->
<!-- Title: RexxExpressionMessage Pages: 1 -->
<svg width="136pt" height="197pt"
 viewBox="0.00 0.00 135.75 197.00" xmlns="http://www.w3.org/2000/svg" xmlns:xlink="http://www.w3.org/1999/xlink">
<g id="graph0" class="graph" transform="scale(1 1) rotate(0) translate(4 193)">
<title>RexxExpressionMessage</title>
<polygon fill="white" stroke="none" points="-4,4 -4,-193 131.75,-193 131.75,4 -4,4"/>
<!-- Node1 -->
<g id="node1" class="node">
<title>Node1</title>
<g id="a_node1"><a xlink:title=" ">
<polygon fill="#bfbfbf" stroke="black" points="0,-0.5 0,-19.75 127.75,-19.75 127.75,-0.5 0,-0.5"/>
<text text-anchor="middle" x="63.88" y="-6.25" font-family="Helvetica,sans-Serif" font-size="10.00">RexxExpressionMessage</text>
</a>
</g>
</g>
<!-- Node2 -->
<g id="node2" class="node">
<title>Node2</title>
<g id="a_node2"><a xlink:href="class_rexx_variable_base.html" target="_top" xlink:title=" ">
<polygon fill="white" stroke="black" points="15.75,-56.75 15.75,-76 112,-76 112,-56.75 15.75,-56.75"/>
<text text-anchor="middle" x="63.88" y="-62.5" font-family="Helvetica,sans-Serif" font-size="10.00">RexxVariableBase</text>
</a>
</g>
</g>
<!-- Node2&#45;&gt;Node1 -->
<g id="edge1" class="edge">
<title>Node2&#45;&gt;Node1</title>
<path fill="none" stroke="midnightblue" d="M63.88,-45.19C63.88,-36.48 63.88,-26.74 63.88,-19.92"/>
<polygon fill="midnightblue" stroke="midnightblue" points="60.38,-44.9 63.88,-54.9 67.38,-44.9 60.38,-44.9"/>
</g>
<!-- Node3 -->
<g id="node3" class="node">
<title>Node3</title>
<g id="a_node3"><a xlink:href="class_rexx_internal_object.html" target="_top" xlink:title=" ">
<polygon fill="white" stroke="black" points="13.88,-113 13.88,-132.25 113.88,-132.25 113.88,-113 13.88,-113"/>
<text text-anchor="middle" x="63.88" y="-118.75" font-family="Helvetica,sans-Serif" font-size="10.00">RexxInternalObject</text>
</a>
</g>
</g>
<!-- Node3&#45;&gt;Node2 -->
<g id="edge2" class="edge">
<title>Node3&#45;&gt;Node2</title>
<path fill="none" stroke="midnightblue" d="M63.88,-101.44C63.88,-92.73 63.88,-82.99 63.88,-76.17"/>
<polygon fill="midnightblue" stroke="midnightblue" points="60.38,-101.15 63.88,-111.15 67.38,-101.15 60.38,-101.15"/>
</g>
<!-- Node4 -->
<g id="node4" class="node">
<title>Node4</title>
<g id="a_node4"><a xlink:href="class_rexx_virtual_base.html" target="_top" xlink:title=" ">
<polygon fill="white" stroke="black" points="19.12,-169.25 19.12,-188.5 108.62,-188.5 108.62,-169.25 19.12,-169.25"/>
<text text-anchor="middle" x="63.88" y="-175" font-family="Helvetica,sans-Serif" font-size="10.00">RexxVirtualBase</text>
</a>
</g>
</g>
<!-- Node4&#45;&gt;Node3 -->
<g id="edge3" class="edge">
<title>Node4&#45;&gt;Node3</title>
<path fill="none" stroke="midnightblue" d="M63.88,-157.69C63.88,-148.98 63.88,-139.24 63.88,-132.42"/>
<polygon fill="midnightblue" stroke="midnightblue" points="60.38,-157.4 63.88,-167.4 67.38,-157.4 60.38,-157.4"/>
</g>
</g>
</svg>
