<?xml version="1.0" encoding="UTF-8" standalone="no"?>
<!DOCTYPE svg PUBLIC "-//W3C//DTD SVG 1.1//EN"
 "http://www.w3.org/Graphics/SVG/1.1/DTD/svg11.dtd">
<!-- Generated by graphviz version 12.1.0 (20240811.2233)
 -->
<!-- Title: ActivationFrame Pages: 1 -->
<svg width="251pt" height="142pt"
 viewBox="0.00 0.00 250.75 142.25" xmlns="http://www.w3.org/2000/svg" xmlns:xlink="http://www.w3.org/1999/xlink">
<g id="graph0" class="graph" transform="scale(1 1) rotate(0) translate(4 138.25)">
<title>ActivationFrame</title>
<polygon fill="white" stroke="none" points="-4,4 -4,-138.25 246.75,-138.25 246.75,4 -4,4"/>
<!-- Node1 -->
<g id="node1" class="node">
<title>Node1</title>
<g id="a_node1"><a xlink:title=" ">
<polygon fill="#bfbfbf" stroke="black" points="0,-57.5 0,-76.75 87.25,-76.75 87.25,-57.5 0,-57.5"/>
<text text-anchor="middle" x="43.62" y="-63.25" font-family="Helvetica,sans-Serif" font-size="10.00">ActivationFrame</text>
</a>
</g>
</g>
<!-- Node2 -->
<g id="node2" class="node">
<title>Node2</title>
<g id="a_node2"><a xlink:href="class_internal_activation_frame.html" target="_top" xlink:title=" ">
<polygon fill="white" stroke="black" points="123.25,-114.5 123.25,-133.75 242.75,-133.75 242.75,-114.5 123.25,-114.5"/>
<text text-anchor="middle" x="183" y="-120.25" font-family="Helvetica,sans-Serif" font-size="10.00">InternalActivationFrame</text>
</a>
</g>
</g>
<!-- Node1&#45;&gt;Node2 -->
<g id="edge1" class="edge">
<title>Node1&#45;&gt;Node2</title>
<path fill="none" stroke="midnightblue" d="M73.66,-82.34C88.31,-89.71 106.49,-98.4 123.25,-105.12 131.21,-108.32 139.93,-111.37 148.16,-114.06"/>
<polygon fill="midnightblue" stroke="midnightblue" points="75.53,-79.36 65.03,-77.94 72.35,-85.6 75.53,-79.36"/>
</g>
<!-- Node3 -->
<g id="node3" class="node">
<title>Node3</title>
<g id="a_node3"><a xlink:href="class_native_activation_frame.html" target="_top" xlink:title=" ">
<polygon fill="white" stroke="black" points="125.12,-76.5 125.12,-95.75 240.88,-95.75 240.88,-76.5 125.12,-76.5"/>
<text text-anchor="middle" x="183" y="-82.25" font-family="Helvetica,sans-Serif" font-size="10.00">NativeActivationFrame</text>
</a>
</g>
</g>
<!-- Node1&#45;&gt;Node3 -->
<g id="edge2" class="edge">
<title>Node1&#45;&gt;Node3</title>
<path fill="none" stroke="midnightblue" d="M99.07,-74.66C107.58,-75.83 116.39,-77.05 124.95,-78.23"/>
<polygon fill="midnightblue" stroke="midnightblue" points="99.6,-71.2 89.21,-73.29 98.64,-78.13 99.6,-71.2"/>
</g>
<!-- Node4 -->
<g id="node4" class="node">
<title>Node4</title>
<g id="a_node4"><a xlink:href="class_parse_activation_frame.html" target="_top" xlink:title=" ">
<polygon fill="white" stroke="black" points="126.62,-38.5 126.62,-57.75 239.38,-57.75 239.38,-38.5 126.62,-38.5"/>
<text text-anchor="middle" x="183" y="-44.25" font-family="Helvetica,sans-Serif" font-size="10.00">ParseActivationFrame</text>
</a>
</g>
</g>
<!-- Node1&#45;&gt;Node4 -->
<g id="edge3" class="edge">
<title>Node1&#45;&gt;Node4</title>
<path fill="none" stroke="midnightblue" d="M98.93,-59.61C107.98,-58.36 117.37,-57.06 126.44,-55.81"/>
<polygon fill="midnightblue" stroke="midnightblue" points="98.64,-56.12 89.21,-60.96 99.6,-63.05 98.64,-56.12"/>
</g>
<!-- Node5 -->
<g id="node5" class="node">
<title>Node5</title>
<g id="a_node5"><a xlink:href="class_rexx_activation_frame.html" target="_top" xlink:title=" ">
<polygon fill="white" stroke="black" points="127.75,-0.5 127.75,-19.75 238.25,-19.75 238.25,-0.5 127.75,-0.5"/>
<text text-anchor="middle" x="183" y="-6.25" font-family="Helvetica,sans-Serif" font-size="10.00">RexxActivationFrame</text>
</a>
</g>
</g>
<!-- Node1&#45;&gt;Node5 -->
<g id="edge4" class="edge">
<title>Node1&#45;&gt;Node5</title>
<path fill="none" stroke="midnightblue" d="M73.66,-51.91C88.31,-44.54 106.49,-35.85 123.25,-29.12 131.21,-25.93 139.93,-22.88 148.16,-20.19"/>
<polygon fill="midnightblue" stroke="midnightblue" points="72.35,-48.65 65.03,-56.31 75.53,-54.89 72.35,-48.65"/>
</g>
</g>
</svg>
