<?xml version="1.0" encoding="UTF-8" standalone="no"?>
<!DOCTYPE svg PUBLIC "-//W3C//DTD SVG 1.1//EN"
 "http://www.w3.org/Graphics/SVG/1.1/DTD/svg11.dtd">
<!-- Generated by graphviz version 12.1.0 (20240811.2233)
 -->
<!-- Title: RexxStemVariable Pages: 1 -->
<svg width="108pt" height="197pt"
 viewBox="0.00 0.00 108.00 197.00" xmlns="http://www.w3.org/2000/svg" xmlns:xlink="http://www.w3.org/1999/xlink">
<g id="graph0" class="graph" transform="scale(1 1) rotate(0) translate(4 193)">
<title>RexxStemVariable</title>
<polygon fill="white" stroke="none" points="-4,4 -4,-193 104,-193 104,4 -4,4"/>
<!-- Node1 -->
<g id="node1" class="node">
<title>Node1</title>
<g id="a_node1"><a xlink:title=" ">
<polygon fill="#bfbfbf" stroke="black" points="1.5,-0.5 1.5,-19.75 98.5,-19.75 98.5,-0.5 1.5,-0.5"/>
<text text-anchor="middle" x="50" y="-6.25" font-family="Helvetica,sans-Serif" font-size="10.00">RexxStemVariable</text>
</a>
</g>
</g>
<!-- Node2 -->
<g id="node2" class="node">
<title>Node2</title>
<g id="a_node2"><a xlink:href="class_rexx_variable_base.html" target="_top" xlink:title=" ">
<polygon fill="white" stroke="black" points="1.88,-56.75 1.88,-76 98.12,-76 98.12,-56.75 1.88,-56.75"/>
<text text-anchor="middle" x="50" y="-62.5" font-family="Helvetica,sans-Serif" font-size="10.00">RexxVariableBase</text>
</a>
</g>
</g>
<!-- Node2&#45;&gt;Node1 -->
<g id="edge1" class="edge">
<title>Node2&#45;&gt;Node1</title>
<path fill="none" stroke="midnightblue" d="M50,-45.19C50,-36.48 50,-26.74 50,-19.92"/>
<polygon fill="midnightblue" stroke="midnightblue" points="46.5,-44.9 50,-54.9 53.5,-44.9 46.5,-44.9"/>
</g>
<!-- Node3 -->
<g id="node3" class="node">
<title>Node3</title>
<g id="a_node3"><a xlink:href="class_rexx_internal_object.html" target="_top" xlink:title=" ">
<polygon fill="white" stroke="black" points="0,-113 0,-132.25 100,-132.25 100,-113 0,-113"/>
<text text-anchor="middle" x="50" y="-118.75" font-family="Helvetica,sans-Serif" font-size="10.00">RexxInternalObject</text>
</a>
</g>
</g>
<!-- Node3&#45;&gt;Node2 -->
<g id="edge2" class="edge">
<title>Node3&#45;&gt;Node2</title>
<path fill="none" stroke="midnightblue" d="M50,-101.44C50,-92.73 50,-82.99 50,-76.17"/>
<polygon fill="midnightblue" stroke="midnightblue" points="46.5,-101.15 50,-111.15 53.5,-101.15 46.5,-101.15"/>
</g>
<!-- Node4 -->
<g id="node4" class="node">
<title>Node4</title>
<g id="a_node4"><a xlink:href="class_rexx_virtual_base.html" target="_top" xlink:title=" ">
<polygon fill="white" stroke="black" points="5.25,-169.25 5.25,-188.5 94.75,-188.5 94.75,-169.25 5.25,-169.25"/>
<text text-anchor="middle" x="50" y="-175" font-family="Helvetica,sans-Serif" font-size="10.00">RexxVirtualBase</text>
</a>
</g>
</g>
<!-- Node4&#45;&gt;Node3 -->
<g id="edge3" class="edge">
<title>Node4&#45;&gt;Node3</title>
<path fill="none" stroke="midnightblue" d="M50,-157.69C50,-148.98 50,-139.24 50,-132.42"/>
<polygon fill="midnightblue" stroke="midnightblue" points="46.5,-157.4 50,-167.4 53.5,-157.4 46.5,-157.4"/>
</g>
</g>
</svg>
