<?xml version="1.0" encoding="UTF-8" standalone="no"?>
<!DOCTYPE svg PUBLIC "-//W3C//DTD SVG 1.1//EN"
 "http://www.w3.org/Graphics/SVG/1.1/DTD/svg11.dtd">
<!-- Generated by graphviz version 12.1.0 (20240811.2233)
 -->
<!-- Title: RexxInstructionSelect Pages: 1 -->
<svg width="121pt" height="253pt"
 viewBox="0.00 0.00 120.75 253.25" xmlns="http://www.w3.org/2000/svg" xmlns:xlink="http://www.w3.org/1999/xlink">
<g id="graph0" class="graph" transform="scale(1 1) rotate(0) translate(4 249.25)">
<title>RexxInstructionSelect</title>
<polygon fill="white" stroke="none" points="-4,4 -4,-249.25 116.75,-249.25 116.75,4 -4,4"/>
<!-- Node1 -->
<g id="node1" class="node">
<title>Node1</title>
<g id="a_node1"><a xlink:title=" ">
<polygon fill="#bfbfbf" stroke="black" points="0,-0.5 0,-19.75 112.75,-19.75 112.75,-0.5 0,-0.5"/>
<text text-anchor="middle" x="56.38" y="-6.25" font-family="Helvetica,sans-Serif" font-size="10.00">RexxInstructionSelect</text>
</a>
</g>
</g>
<!-- Node2 -->
<g id="node2" class="node">
<title>Node2</title>
<g id="a_node2"><a xlink:href="class_rexx_block_instruction.html" target="_top" xlink:title=" ">
<polygon fill="white" stroke="black" points="1.5,-56.75 1.5,-76 111.25,-76 111.25,-56.75 1.5,-56.75"/>
<text text-anchor="middle" x="56.38" y="-62.5" font-family="Helvetica,sans-Serif" font-size="10.00">RexxBlockInstruction</text>
</a>
</g>
</g>
<!-- Node2&#45;&gt;Node1 -->
<g id="edge1" class="edge">
<title>Node2&#45;&gt;Node1</title>
<path fill="none" stroke="midnightblue" d="M56.38,-45.19C56.38,-36.48 56.38,-26.74 56.38,-19.92"/>
<polygon fill="midnightblue" stroke="midnightblue" points="52.88,-44.9 56.38,-54.9 59.88,-44.9 52.88,-44.9"/>
</g>
<!-- Node3 -->
<g id="node3" class="node">
<title>Node3</title>
<g id="a_node3"><a xlink:href="class_rexx_instruction.html" target="_top" xlink:title=" ">
<polygon fill="white" stroke="black" points="13.88,-113 13.88,-132.25 98.88,-132.25 98.88,-113 13.88,-113"/>
<text text-anchor="middle" x="56.38" y="-118.75" font-family="Helvetica,sans-Serif" font-size="10.00">RexxInstruction</text>
</a>
</g>
</g>
<!-- Node3&#45;&gt;Node2 -->
<g id="edge2" class="edge">
<title>Node3&#45;&gt;Node2</title>
<path fill="none" stroke="midnightblue" d="M56.38,-101.44C56.38,-92.73 56.38,-82.99 56.38,-76.17"/>
<polygon fill="midnightblue" stroke="midnightblue" points="52.88,-101.15 56.38,-111.15 59.88,-101.15 52.88,-101.15"/>
</g>
<!-- Node4 -->
<g id="node4" class="node">
<title>Node4</title>
<g id="a_node4"><a xlink:href="class_rexx_internal_object.html" target="_top" xlink:title=" ">
<polygon fill="white" stroke="black" points="6.38,-169.25 6.38,-188.5 106.38,-188.5 106.38,-169.25 6.38,-169.25"/>
<text text-anchor="middle" x="56.38" y="-175" font-family="Helvetica,sans-Serif" font-size="10.00">RexxInternalObject</text>
</a>
</g>
</g>
<!-- Node4&#45;&gt;Node3 -->
<g id="edge3" class="edge">
<title>Node4&#45;&gt;Node3</title>
<path fill="none" stroke="midnightblue" d="M56.38,-157.69C56.38,-148.98 56.38,-139.24 56.38,-132.42"/>
<polygon fill="midnightblue" stroke="midnightblue" points="52.88,-157.4 56.38,-167.4 59.88,-157.4 52.88,-157.4"/>
</g>
<!-- Node5 -->
<g id="node5" class="node">
<title>Node5</title>
<g id="a_node5"><a xlink:href="class_rexx_virtual_base.html" target="_top" xlink:title=" ">
<polygon fill="white" stroke="black" points="11.62,-225.5 11.62,-244.75 101.12,-244.75 101.12,-225.5 11.62,-225.5"/>
<text text-anchor="middle" x="56.38" y="-231.25" font-family="Helvetica,sans-Serif" font-size="10.00">RexxVirtualBase</text>
</a>
</g>
</g>
<!-- Node5&#45;&gt;Node4 -->
<g id="edge4" class="edge">
<title>Node5&#45;&gt;Node4</title>
<path fill="none" stroke="midnightblue" d="M56.38,-213.94C56.38,-205.23 56.38,-195.49 56.38,-188.67"/>
<polygon fill="midnightblue" stroke="midnightblue" points="52.88,-213.65 56.38,-223.65 59.88,-213.65 52.88,-213.65"/>
</g>
</g>
</svg>
