<?xml version="1.0" encoding="UTF-8" standalone="no"?>
<!DOCTYPE svg PUBLIC "-//W3C//DTD SVG 1.1//EN"
 "http://www.w3.org/Graphics/SVG/1.1/DTD/svg11.dtd">
<!-- Generated by graphviz version 12.1.0 (20240811.2233)
 -->
<!-- Title: RexxVariableDictionary Pages: 1 -->
<svg width="126pt" height="141pt"
 viewBox="0.00 0.00 126.00 140.75" xmlns="http://www.w3.org/2000/svg" xmlns:xlink="http://www.w3.org/1999/xlink">
<g id="graph0" class="graph" transform="scale(1 1) rotate(0) translate(4 136.75)">
<title>RexxVariableDictionary</title>
<polygon fill="white" stroke="none" points="-4,4 -4,-136.75 122,-136.75 122,4 -4,4"/>
<!-- Node1 -->
<g id="node1" class="node">
<title>Node1</title>
<g id="a_node1"><a xlink:title=" ">
<polygon fill="#bfbfbf" stroke="black" points="0,-0.5 0,-19.75 118,-19.75 118,-0.5 0,-0.5"/>
<text text-anchor="middle" x="59" y="-6.25" font-family="Helvetica,sans-Serif" font-size="10.00">RexxVariableDictionary</text>
</a>
</g>
</g>
<!-- Node2 -->
<g id="node2" class="node">
<title>Node2</title>
<g id="a_node2"><a xlink:href="class_rexx_internal_object.html" target="_top" xlink:title=" ">
<polygon fill="white" stroke="black" points="9,-56.75 9,-76 109,-76 109,-56.75 9,-56.75"/>
<text text-anchor="middle" x="59" y="-62.5" font-family="Helvetica,sans-Serif" font-size="10.00">RexxInternalObject</text>
</a>
</g>
</g>
<!-- Node2&#45;&gt;Node1 -->
<g id="edge1" class="edge">
<title>Node2&#45;&gt;Node1</title>
<path fill="none" stroke="midnightblue" d="M59,-45.19C59,-36.48 59,-26.74 59,-19.92"/>
<polygon fill="midnightblue" stroke="midnightblue" points="55.5,-44.9 59,-54.9 62.5,-44.9 55.5,-44.9"/>
</g>
<!-- Node3 -->
<g id="node3" class="node">
<title>Node3</title>
<g id="a_node3"><a xlink:href="class_rexx_virtual_base.html" target="_top" xlink:title=" ">
<polygon fill="white" stroke="black" points="14.25,-113 14.25,-132.25 103.75,-132.25 103.75,-113 14.25,-113"/>
<text text-anchor="middle" x="59" y="-118.75" font-family="Helvetica,sans-Serif" font-size="10.00">RexxVirtualBase</text>
</a>
</g>
</g>
<!-- Node3&#45;&gt;Node2 -->
<g id="edge2" class="edge">
<title>Node3&#45;&gt;Node2</title>
<path fill="none" stroke="midnightblue" d="M59,-101.44C59,-92.73 59,-82.99 59,-76.17"/>
<polygon fill="midnightblue" stroke="midnightblue" points="55.5,-101.15 59,-111.15 62.5,-101.15 55.5,-101.15"/>
</g>
</g>
</svg>
