<?xml version="1.0" encoding="UTF-8" standalone="no"?>
<!DOCTYPE svg PUBLIC "-//W3C//DTD SVG 1.1//EN"
 "http://www.w3.org/Graphics/SVG/1.1/DTD/svg11.dtd">
<!-- Generated by graphviz version 12.1.0 (20240811.2233)
 -->
<!-- Title: RexxTable Pages: 1 -->
<svg width="196pt" height="310pt"
 viewBox="0.00 0.00 196.00 309.50" xmlns="http://www.w3.org/2000/svg" xmlns:xlink="http://www.w3.org/1999/xlink">
<g id="graph0" class="graph" transform="scale(1 1) rotate(0) translate(4 305.5)">
<title>RexxTable</title>
<polygon fill="white" stroke="none" points="-4,4 -4,-305.5 192,-305.5 192,4 -4,4"/>
<!-- Node1 -->
<g id="node1" class="node">
<title>Node1</title>
<g id="a_node1"><a xlink:title=" ">
<polygon fill="#bfbfbf" stroke="black" points="67.12,-56.75 67.12,-76 129.62,-76 129.62,-56.75 67.12,-56.75"/>
<text text-anchor="middle" x="98.38" y="-62.5" font-family="Helvetica,sans-Serif" font-size="10.00">RexxTable</text>
</a>
</g>
</g>
<!-- Node6 -->
<g id="node6" class="node">
<title>Node6</title>
<g id="a_node6"><a xlink:href="class_rexx_identity_table.html" target="_top" xlink:title=" ">
<polygon fill="white" stroke="black" points="0,-0.5 0,-19.75 94.75,-19.75 94.75,-0.5 0,-0.5"/>
<text text-anchor="middle" x="47.38" y="-6.25" font-family="Helvetica,sans-Serif" font-size="10.00">RexxIdentityTable</text>
</a>
</g>
</g>
<!-- Node1&#45;&gt;Node6 -->
<g id="edge5" class="edge">
<title>Node1&#45;&gt;Node6</title>
<path fill="none" stroke="midnightblue" d="M82.18,-48.15C73.35,-38.76 62.79,-27.53 55.64,-19.92"/>
<polygon fill="midnightblue" stroke="midnightblue" points="79.52,-50.43 88.92,-55.31 84.62,-45.63 79.52,-50.43"/>
</g>
<!-- Node7 -->
<g id="node7" class="node">
<title>Node7</title>
<g id="a_node7"><a xlink:href="class_rexx_relation.html" target="_top" xlink:title=" ">
<polygon fill="white" stroke="black" points="112.75,-0.5 112.75,-19.75 188,-19.75 188,-0.5 112.75,-0.5"/>
<text text-anchor="middle" x="150.38" y="-6.25" font-family="Helvetica,sans-Serif" font-size="10.00">RexxRelation</text>
</a>
</g>
</g>
<!-- Node1&#45;&gt;Node7 -->
<g id="edge6" class="edge">
<title>Node1&#45;&gt;Node7</title>
<path fill="none" stroke="midnightblue" d="M114.88,-48.15C123.89,-38.76 134.65,-27.53 141.95,-19.92"/>
<polygon fill="midnightblue" stroke="midnightblue" points="112.4,-45.68 108.01,-55.32 117.46,-50.53 112.4,-45.68"/>
</g>
<!-- Node2 -->
<g id="node2" class="node">
<title>Node2</title>
<g id="a_node2"><a xlink:href="class_rexx_hash_table_collection.html" target="_top" xlink:title=" ">
<polygon fill="white" stroke="black" points="33.75,-113 33.75,-132.25 163,-132.25 163,-113 33.75,-113"/>
<text text-anchor="middle" x="98.38" y="-118.75" font-family="Helvetica,sans-Serif" font-size="10.00">RexxHashTableCollection</text>
</a>
</g>
</g>
<!-- Node2&#45;&gt;Node1 -->
<g id="edge1" class="edge">
<title>Node2&#45;&gt;Node1</title>
<path fill="none" stroke="midnightblue" d="M98.38,-101.44C98.38,-92.73 98.38,-82.99 98.38,-76.17"/>
<polygon fill="midnightblue" stroke="midnightblue" points="94.88,-101.15 98.38,-111.15 101.88,-101.15 94.88,-101.15"/>
</g>
<!-- Node3 -->
<g id="node3" class="node">
<title>Node3</title>
<g id="a_node3"><a xlink:href="class_rexx_object.html" target="_top" xlink:title=" ">
<polygon fill="white" stroke="black" points="64.5,-169.25 64.5,-188.5 132.25,-188.5 132.25,-169.25 64.5,-169.25"/>
<text text-anchor="middle" x="98.38" y="-175" font-family="Helvetica,sans-Serif" font-size="10.00">RexxObject</text>
</a>
</g>
</g>
<!-- Node3&#45;&gt;Node2 -->
<g id="edge2" class="edge">
<title>Node3&#45;&gt;Node2</title>
<path fill="none" stroke="midnightblue" d="M98.38,-157.69C98.38,-148.98 98.38,-139.24 98.38,-132.42"/>
<polygon fill="midnightblue" stroke="midnightblue" points="94.88,-157.4 98.38,-167.4 101.88,-157.4 94.88,-157.4"/>
</g>
<!-- Node4 -->
<g id="node4" class="node">
<title>Node4</title>
<g id="a_node4"><a xlink:href="class_rexx_internal_object.html" target="_top" xlink:title=" ">
<polygon fill="white" stroke="black" points="48.38,-225.5 48.38,-244.75 148.38,-244.75 148.38,-225.5 48.38,-225.5"/>
<text text-anchor="middle" x="98.38" y="-231.25" font-family="Helvetica,sans-Serif" font-size="10.00">RexxInternalObject</text>
</a>
</g>
</g>
<!-- Node4&#45;&gt;Node3 -->
<g id="edge3" class="edge">
<title>Node4&#45;&gt;Node3</title>
<path fill="none" stroke="midnightblue" d="M98.38,-213.94C98.38,-205.23 98.38,-195.49 98.38,-188.67"/>
<polygon fill="midnightblue" stroke="midnightblue" points="94.88,-213.65 98.38,-223.65 101.88,-213.65 94.88,-213.65"/>
</g>
<!-- Node5 -->
<g id="node5" class="node">
<title>Node5</title>
<g id="a_node5"><a xlink:href="class_rexx_virtual_base.html" target="_top" xlink:title=" ">
<polygon fill="white" stroke="black" points="53.62,-281.75 53.62,-301 143.12,-301 143.12,-281.75 53.62,-281.75"/>
<text text-anchor="middle" x="98.38" y="-287.5" font-family="Helvetica,sans-Serif" font-size="10.00">RexxVirtualBase</text>
</a>
</g>
</g>
<!-- Node5&#45;&gt;Node4 -->
<g id="edge4" class="edge">
<title>Node5&#45;&gt;Node4</title>
<path fill="none" stroke="midnightblue" d="M98.38,-270.19C98.38,-261.48 98.38,-251.74 98.38,-244.92"/>
<polygon fill="midnightblue" stroke="midnightblue" points="94.88,-269.9 98.38,-279.9 101.88,-269.9 94.88,-269.9"/>
</g>
</g>
</svg>
