<?xml version="1.0" encoding="UTF-8" standalone="no"?>
<!DOCTYPE svg PUBLIC "-//W3C//DTD SVG 1.1//EN"
 "http://www.w3.org/Graphics/SVG/1.1/DTD/svg11.dtd">
<!-- Generated by graphviz version 2.30.1 (20130222.1704)
 -->
<!-- Title: lib Pages: 1 -->
<svg width="102pt" height="168pt"
 viewBox="0.00 0.00 102.00 168.00" xmlns="http://www.w3.org/2000/svg" xmlns:xlink="http://www.w3.org/1999/xlink">
<g id="graph0" class="graph" transform="scale(1 1) rotate(0) translate(4 164)">
<title>lib</title>
<polygon fill="white" stroke="white" points="-4,5 -4,-164 99,-164 99,5 -4,5"/>
<g id="clust1" class="cluster"><title>clusterdir_4796bfee7d29ff8f3ba63e631cf48035</title>
<g id="a_clust1"><a xlink:href="dir_4796bfee7d29ff8f3ba63e631cf48035.html" target="_top" xlink:title="trunk">
<polygon fill="#ddddee" stroke="black" points="8,-8 8,-152 86,-152 86,-8 8,-8"/>
<text text-anchor="middle" x="47" y="-138" font-family="Helvetica,sans-Serif" font-size="10.00">trunk</text>
</a>
</g>
</g>
<!-- dir_568b253ddbf98cea92a6c65945d41c59 -->
<g id="node1" class="node"><title>dir_568b253ddbf98cea92a6c65945d41c59</title>
<g id="a_node1"><a xlink:href="dir_568b253ddbf98cea92a6c65945d41c59.html" target="_top" xlink:title="interpreter">
<polygon fill="white" stroke="red" points="77.1863,-52 16.8137,-52 16.8137,-16 77.1863,-16 77.1863,-52"/>
<text text-anchor="middle" x="47" y="-30" font-family="Helvetica,sans-Serif" font-size="10.00">interpreter</text>
</a>
</g>
</g>
<!-- dir_70e43ea110b80f78607e61f4493826e7 -->
<g id="node2" class="node"><title>dir_70e43ea110b80f78607e61f4493826e7</title>
<g id="a_node2"><a xlink:href="dir_70e43ea110b80f78607e61f4493826e7.html" target="_top" xlink:title="lib">
<polygon fill="#eeeeff" stroke="black" points="74,-124 20,-124 20,-88 74,-88 74,-124"/>
<text text-anchor="middle" x="47" y="-102" font-family="Helvetica,sans-Serif" font-size="10.00">lib</text>
</a>
</g>
</g>
<!-- dir_70e43ea110b80f78607e61f4493826e7&#45;&gt;dir_568b253ddbf98cea92a6c65945d41c59 -->
<g id="edge1" class="edge"><title>dir_70e43ea110b80f78607e61f4493826e7&#45;&gt;dir_568b253ddbf98cea92a6c65945d41c59</title>
<path fill="none" stroke="black" d="M47,-87.6966C47,-79.9827 47,-70.7125 47,-62.1124"/>
<polygon fill="black" stroke="black" points="50.5001,-62.1043 47,-52.1043 43.5001,-62.1044 50.5001,-62.1043"/>
<g id="a_edge1&#45;headlabel"><a xlink:href="dir_000076_000005.html" target="_top" xlink:title="1">
<text text-anchor="middle" x="53.3393" y="-61.699" font-family="Helvetica,sans-Serif" font-size="10.00">1</text>
</a>
</g>
</g>
</g>
</svg>
