<?xml version="1.0" encoding="UTF-8" standalone="no"?>
<!DOCTYPE svg PUBLIC "-//W3C//DTD SVG 1.1//EN"
 "http://www.w3.org/Graphics/SVG/1.1/DTD/svg11.dtd">
<!-- Generated by graphviz version 12.1.0 (20240811.2233)
 -->
<!-- Title: windows Pages: 1 -->
<svg width="136pt" height="223pt"
 viewBox="0.00 0.00 136.00 223.25" xmlns="http://www.w3.org/2000/svg" xmlns:xlink="http://www.w3.org/1999/xlink">
<g id="graph0" class="graph" transform="scale(1 1) rotate(0) translate(4 219.25)">
<title>windows</title>
<polygon fill="white" stroke="none" points="-4,4 -4,-219.25 132,-219.25 132,4 -4,4"/>
<g id="clust1" class="cluster">
<title>clusterdir_9148d2abec19931e0ad10b1b64847cb7</title>
<g id="a_clust1"><a xlink:href="dir_9148d2abec19931e0ad10b1b64847cb7.html" target="_top" xlink:title="platform">
<polygon fill="#ddddee" stroke="black" points="50,-136 50,-207.25 120,-207.25 120,-136 50,-136"/>
<text text-anchor="middle" x="85" y="-193.75" font-family="Helvetica,sans-Serif" font-size="10.00">platform</text>
</a>
</g>
</g>
<!-- dir_8f5e5dc562c1f6b98111b369de39e182 -->
<g id="node1" class="node">
<title>dir_8f5e5dc562c1f6b98111b369de39e182</title>
<g id="a_node1"><a xlink:href="dir_8f5e5dc562c1f6b98111b369de39e182.html" target="_top" xlink:title="windows">
<polygon fill="#eeeeff" stroke="black" points="112.12,-180 57.88,-180 57.88,-144 112.12,-144 112.12,-180"/>
<text text-anchor="middle" x="85" y="-158.12" font-family="Helvetica,sans-Serif" font-size="10.00">windows</text>
</a>
</g>
</g>
<!-- dir_362247ee011c51bb6078fba078fa4338 -->
<g id="node2" class="node">
<title>dir_362247ee011c51bb6078fba078fa4338</title>
<g id="a_node2"><a xlink:href="dir_362247ee011c51bb6078fba078fa4338.html" target="_top" xlink:title="api">
<polygon fill="white" stroke="red" points="54,-36 0,-36 0,0 54,0 54,-36"/>
<text text-anchor="middle" x="27" y="-14.12" font-family="Helvetica,sans-Serif" font-size="10.00">api</text>
</a>
</g>
</g>
<!-- dir_8f5e5dc562c1f6b98111b369de39e182&#45;&gt;dir_362247ee011c51bb6078fba078fa4338 -->
<g id="edge4" class="edge">
<title>dir_8f5e5dc562c1f6b98111b369de39e182&#45;&gt;dir_362247ee011c51bb6078fba078fa4338</title>
<path fill="none" stroke="black" d="M69.22,-143.56C61.14,-133.76 51.81,-120.92 46,-108 37.38,-88.82 32.59,-65.53 29.97,-47.59"/>
<polygon fill="black" stroke="black" points="33.47,-47.37 28.72,-37.9 26.53,-48.27 33.47,-47.37"/>
<g id="a_edge4&#45;headlabel"><a xlink:href="dir_000093_000048.html" target="_top" xlink:title="1">
<text text-anchor="middle" x="36.56" y="-45.19" font-family="Helvetica,sans-Serif" font-size="10.00">1</text>
</a>
</g>
</g>
<!-- dir_568b253ddbf98cea92a6c65945d41c59 -->
<g id="node3" class="node">
<title>dir_568b253ddbf98cea92a6c65945d41c59</title>
<g id="a_node3"><a xlink:href="dir_568b253ddbf98cea92a6c65945d41c59.html" target="_top" xlink:title="interpreter">
<polygon fill="white" stroke="red" points="114.75,-108 55.25,-108 55.25,-72 114.75,-72 114.75,-108"/>
<text text-anchor="middle" x="85" y="-86.12" font-family="Helvetica,sans-Serif" font-size="10.00">interpreter</text>
</a>
</g>
</g>
<!-- dir_8f5e5dc562c1f6b98111b369de39e182&#45;&gt;dir_568b253ddbf98cea92a6c65945d41c59 -->
<g id="edge5" class="edge">
<title>dir_8f5e5dc562c1f6b98111b369de39e182&#45;&gt;dir_568b253ddbf98cea92a6c65945d41c59</title>
<path fill="none" stroke="black" d="M85,-143.7C85,-136.41 85,-127.73 85,-119.54"/>
<polygon fill="black" stroke="black" points="88.5,-119.62 85,-109.62 81.5,-119.62 88.5,-119.62"/>
<g id="a_edge5&#45;headlabel"><a xlink:href="dir_000093_000005.html" target="_top" xlink:title="1">
<text text-anchor="middle" x="91.34" y="-117.82" font-family="Helvetica,sans-Serif" font-size="10.00">1</text>
</a>
</g>
</g>
<!-- dir_70e43ea110b80f78607e61f4493826e7 -->
<g id="node4" class="node">
<title>dir_70e43ea110b80f78607e61f4493826e7</title>
<g id="a_node4"><a xlink:href="dir_70e43ea110b80f78607e61f4493826e7.html" target="_top" xlink:title="lib">
<polygon fill="none" stroke="black" points="126,-36 72,-36 72,0 126,0 126,-36"/>
<text text-anchor="middle" x="99" y="-14.12" font-family="Helvetica,sans-Serif" font-size="10.00">lib</text>
</a>
</g>
</g>
<!-- dir_8f5e5dc562c1f6b98111b369de39e182&#45;&gt;dir_70e43ea110b80f78607e61f4493826e7 -->
<g id="edge6" class="edge">
<title>dir_8f5e5dc562c1f6b98111b369de39e182&#45;&gt;dir_70e43ea110b80f78607e61f4493826e7</title>
<path fill="none" stroke="black" d="M102.3,-143.52C110.59,-133.9 119.65,-121.24 124,-108 130.72,-87.54 123.53,-64.08 115.16,-46.39"/>
<polygon fill="black" stroke="black" points="118.3,-44.83 110.61,-37.54 112.07,-48.03 118.3,-44.83"/>
<g id="a_edge6&#45;headlabel"><a xlink:href="dir_000093_000076.html" target="_top" xlink:title="1">
<text text-anchor="middle" x="121.77" y="-41.51" font-family="Helvetica,sans-Serif" font-size="10.00">1</text>
</a>
</g>
</g>
<!-- dir_568b253ddbf98cea92a6c65945d41c59&#45;&gt;dir_362247ee011c51bb6078fba078fa4338 -->
<g id="edge1" class="edge">
<title>dir_568b253ddbf98cea92a6c65945d41c59&#45;&gt;dir_362247ee011c51bb6078fba078fa4338</title>
<path fill="none" stroke="black" d="M70.66,-71.7C63.92,-63.56 55.74,-53.69 48.3,-44.7"/>
<polygon fill="black" stroke="black" points="51.21,-42.74 42.14,-37.27 45.82,-47.2 51.21,-42.74"/>
<g id="a_edge1&#45;headlabel"><a xlink:href="dir_000005_000048.html" target="_top" xlink:title="5">
<text text-anchor="middle" x="54.73" y="-38.65" font-family="Helvetica,sans-Serif" font-size="10.00">5</text>
</a>
</g>
</g>
<!-- dir_568b253ddbf98cea92a6c65945d41c59&#45;&gt;dir_70e43ea110b80f78607e61f4493826e7 -->
<g id="edge2" class="edge">
<title>dir_568b253ddbf98cea92a6c65945d41c59&#45;&gt;dir_70e43ea110b80f78607e61f4493826e7</title>
<path fill="none" stroke="black" d="M82.54,-71.7C83.27,-64.24 84.81,-55.32 86.78,-46.97"/>
<polygon fill="black" stroke="black" points="90.09,-48.13 89.29,-37.57 83.33,-46.32 90.09,-48.13"/>
<g id="a_edge2&#45;headlabel"><a xlink:href="dir_000005_000076.html" target="_top" xlink:title="13">
<text text-anchor="middle" x="92.3" y="-47" font-family="Helvetica,sans-Serif" font-size="10.00">13</text>
</a>
</g>
</g>
<!-- dir_70e43ea110b80f78607e61f4493826e7&#45;&gt;dir_568b253ddbf98cea92a6c65945d41c59 -->
<g id="edge3" class="edge">
<title>dir_70e43ea110b80f78607e61f4493826e7&#45;&gt;dir_568b253ddbf98cea92a6c65945d41c59</title>
<path fill="none" stroke="black" d="M101.47,-36.1C100.77,-43.54 99.23,-52.44 97.27,-60.81"/>
<polygon fill="black" stroke="black" points="93.95,-59.67 94.77,-70.23 100.72,-61.47 93.95,-59.67"/>
<g id="a_edge3&#45;headlabel"><a xlink:href="dir_000076_000005.html" target="_top" xlink:title="1">
<text text-anchor="middle" x="91.75" y="-53.05" font-family="Helvetica,sans-Serif" font-size="10.00">1</text>
</a>
</g>
</g>
</g>
</svg>
