<?xml version="1.0" encoding="UTF-8" standalone="no"?>
<!DOCTYPE svg PUBLIC "-//W3C//DTD SVG 1.1//EN"
 "http://www.w3.org/Graphics/SVG/1.1/DTD/svg11.dtd">
<!-- Generated by graphviz version 12.1.0 (20240811.2233)
 -->
<!-- Title: orxncurses Pages: 1 -->
<svg width="104pt" height="151pt"
 viewBox="0.00 0.00 104.00 151.25" xmlns="http://www.w3.org/2000/svg" xmlns:xlink="http://www.w3.org/1999/xlink">
<g id="graph0" class="graph" transform="scale(1 1) rotate(0) translate(4 147.25)">
<title>orxncurses</title>
<polygon fill="white" stroke="none" points="-4,4 -4,-147.25 100,-147.25 100,4 -4,4"/>
<g id="clust1" class="cluster">
<title>clusterdir_810b14902c641731e177eb53eeb0aca8</title>
<g id="a_clust1"><a xlink:href="dir_810b14902c641731e177eb53eeb0aca8.html" target="_top" xlink:title="extensions">
<polygon fill="#ddddee" stroke="black" points="8,-64 8,-135.25 88,-135.25 88,-64 8,-64"/>
<text text-anchor="middle" x="48" y="-121.75" font-family="Helvetica,sans-Serif" font-size="10.00">extensions</text>
</a>
</g>
</g>
<!-- dir_63739c600fb226836c3222e37390953e -->
<g id="node1" class="node">
<title>dir_63739c600fb226836c3222e37390953e</title>
<g id="a_node1"><a xlink:href="dir_63739c600fb226836c3222e37390953e.html" target="_top" xlink:title="orxncurses">
<polygon fill="#eeeeff" stroke="black" points="80,-108 16,-108 16,-72 80,-72 80,-108"/>
<text text-anchor="middle" x="48" y="-86.12" font-family="Helvetica,sans-Serif" font-size="10.00">orxncurses</text>
</a>
</g>
</g>
<!-- dir_362247ee011c51bb6078fba078fa4338 -->
<g id="node2" class="node">
<title>dir_362247ee011c51bb6078fba078fa4338</title>
<g id="a_node2"><a xlink:href="dir_362247ee011c51bb6078fba078fa4338.html" target="_top" xlink:title="api">
<polygon fill="white" stroke="red" points="75,-36 21,-36 21,0 75,0 75,-36"/>
<text text-anchor="middle" x="48" y="-14.12" font-family="Helvetica,sans-Serif" font-size="10.00">api</text>
</a>
</g>
</g>
<!-- dir_63739c600fb226836c3222e37390953e&#45;&gt;dir_362247ee011c51bb6078fba078fa4338 -->
<g id="edge1" class="edge">
<title>dir_63739c600fb226836c3222e37390953e&#45;&gt;dir_362247ee011c51bb6078fba078fa4338</title>
<path fill="none" stroke="black" d="M48,-71.7C48,-64.41 48,-55.73 48,-47.54"/>
<polygon fill="black" stroke="black" points="51.5,-47.62 48,-37.62 44.5,-47.62 51.5,-47.62"/>
<g id="a_edge1&#45;headlabel"><a xlink:href="dir_000049_000048.html" target="_top" xlink:title="1">
<text text-anchor="middle" x="54.34" y="-45.82" font-family="Helvetica,sans-Serif" font-size="10.00">1</text>
</a>
</g>
</g>
</g>
</svg>
