<?xml version="1.0" encoding="UTF-8" standalone="no"?>
<!DOCTYPE svg PUBLIC "-//W3C//DTD SVG 1.1//EN"
 "http://www.w3.org/Graphics/SVG/1.1/DTD/svg11.dtd">
<!-- Generated by graphviz version 12.1.0 (20240811.2233)
 -->
<!-- Title: unix Pages: 1 -->
<svg width="110pt" height="223pt"
 viewBox="0.00 0.00 109.75 223.25" xmlns="http://www.w3.org/2000/svg" xmlns:xlink="http://www.w3.org/1999/xlink">
<g id="graph0" class="graph" transform="scale(1 1) rotate(0) translate(4 219.25)">
<title>unix</title>
<polygon fill="white" stroke="none" points="-4,4 -4,-219.25 105.75,-219.25 105.75,4 -4,4"/>
<g id="clust1" class="cluster">
<title>clusterdir_3090708b3f70e53761ae3b78f758dc5b</title>
<g id="a_clust1"><a xlink:href="dir_3090708b3f70e53761ae3b78f758dc5b.html" target="_top" xlink:title="platform">
<polygon fill="#ddddee" stroke="black" points="8,-136 8,-207.25 78,-207.25 78,-136 8,-136"/>
<text text-anchor="middle" x="43" y="-193.75" font-family="Helvetica,sans-Serif" font-size="10.00">platform</text>
</a>
</g>
</g>
<!-- dir_da9a379d7f35f4329759d8ffcca1c638 -->
<g id="node1" class="node">
<title>dir_da9a379d7f35f4329759d8ffcca1c638</title>
<g id="a_node1"><a xlink:href="dir_da9a379d7f35f4329759d8ffcca1c638.html" target="_top" xlink:title="unix">
<polygon fill="#eeeeff" stroke="black" points="70,-180 16,-180 16,-144 70,-144 70,-180"/>
<text text-anchor="middle" x="43" y="-158.12" font-family="Helvetica,sans-Serif" font-size="10.00">unix</text>
</a>
</g>
</g>
<!-- dir_362247ee011c51bb6078fba078fa4338 -->
<g id="node2" class="node">
<title>dir_362247ee011c51bb6078fba078fa4338</title>
<g id="a_node2"><a xlink:href="dir_362247ee011c51bb6078fba078fa4338.html" target="_top" xlink:title="api">
<polygon fill="white" stroke="red" points="70,-36 16,-36 16,0 70,0 70,-36"/>
<text text-anchor="middle" x="43" y="-14.12" font-family="Helvetica,sans-Serif" font-size="10.00">api</text>
</a>
</g>
</g>
<!-- dir_da9a379d7f35f4329759d8ffcca1c638&#45;&gt;dir_362247ee011c51bb6078fba078fa4338 -->
<g id="edge2" class="edge">
<title>dir_da9a379d7f35f4329759d8ffcca1c638&#45;&gt;dir_362247ee011c51bb6078fba078fa4338</title>
<path fill="none" stroke="black" d="M38.94,-143.93C36.69,-133.6 34.13,-120.12 33,-108 31.51,-92.07 31.51,-87.93 33,-72 33.76,-63.86 35.17,-55.1 36.69,-47.1"/>
<polygon fill="black" stroke="black" points="40.07,-48.05 38.64,-37.55 33.21,-46.65 40.07,-48.05"/>
<g id="a_edge2&#45;headlabel"><a xlink:href="dir_000087_000048.html" target="_top" xlink:title="1">
<text text-anchor="middle" x="42.43" y="-46.78" font-family="Helvetica,sans-Serif" font-size="10.00">1</text>
</a>
</g>
</g>
<!-- dir_568b253ddbf98cea92a6c65945d41c59 -->
<g id="node3" class="node">
<title>dir_568b253ddbf98cea92a6c65945d41c59</title>
<g id="a_node3"><a xlink:href="dir_568b253ddbf98cea92a6c65945d41c59.html" target="_top" xlink:title="interpreter">
<polygon fill="white" stroke="red" points="101.75,-108 42.25,-108 42.25,-72 101.75,-72 101.75,-108"/>
<text text-anchor="middle" x="72" y="-86.12" font-family="Helvetica,sans-Serif" font-size="10.00">interpreter</text>
</a>
</g>
</g>
<!-- dir_da9a379d7f35f4329759d8ffcca1c638&#45;&gt;dir_568b253ddbf98cea92a6c65945d41c59 -->
<g id="edge3" class="edge">
<title>dir_da9a379d7f35f4329759d8ffcca1c638&#45;&gt;dir_568b253ddbf98cea92a6c65945d41c59</title>
<path fill="none" stroke="black" d="M50.17,-143.7C53.29,-136.15 57.04,-127.12 60.53,-118.68"/>
<polygon fill="black" stroke="black" points="63.74,-120.08 64.33,-109.5 57.27,-117.4 63.74,-120.08"/>
<g id="a_edge3&#45;headlabel"><a xlink:href="dir_000087_000005.html" target="_top" xlink:title="1">
<text text-anchor="middle" x="65.57" y="-119.22" font-family="Helvetica,sans-Serif" font-size="10.00">1</text>
</a>
</g>
</g>
<!-- dir_568b253ddbf98cea92a6c65945d41c59&#45;&gt;dir_362247ee011c51bb6078fba078fa4338 -->
<g id="edge1" class="edge">
<title>dir_568b253ddbf98cea92a6c65945d41c59&#45;&gt;dir_362247ee011c51bb6078fba078fa4338</title>
<path fill="none" stroke="black" d="M64.83,-71.7C61.71,-64.15 57.96,-55.12 54.47,-46.68"/>
<polygon fill="black" stroke="black" points="57.73,-45.4 50.67,-37.5 51.26,-48.08 57.73,-45.4"/>
<g id="a_edge1&#45;headlabel"><a xlink:href="dir_000005_000048.html" target="_top" xlink:title="5">
<text text-anchor="middle" x="61.15" y="-42.36" font-family="Helvetica,sans-Serif" font-size="10.00">5</text>
</a>
</g>
</g>
</g>
</svg>
