<?xml version="1.0" encoding="UTF-8" standalone="no"?>
<!DOCTYPE svg PUBLIC "-//W3C//DTD SVG 1.1//EN"
 "http://www.w3.org/Graphics/SVG/1.1/DTD/svg11.dtd">
<!-- Generated by graphviz version 2.30.1 (20130222.1704)
 -->
<!-- Title: streamLibrary Pages: 1 -->
<svg width="188pt" height="224pt"
 viewBox="0.00 0.00 187.67 224.00" xmlns="http://www.w3.org/2000/svg" xmlns:xlink="http://www.w3.org/1999/xlink">
<g id="graph0" class="graph" transform="scale(1 1) rotate(0) translate(4 220)">
<title>streamLibrary</title>
<polygon fill="white" stroke="white" points="-4,5 -4,-220 184.671,-220 184.671,5 -4,5"/>
<g id="clust1" class="cluster"><title>clusterdir_568b253ddbf98cea92a6c65945d41c59</title>
<g id="a_clust1"><a xlink:href="dir_568b253ddbf98cea92a6c65945d41c59.html" target="_top" xlink:title="interpreter">
<polygon fill="#ddddee" stroke="black" points="8,-64 8,-208 102,-208 102,-64 8,-64"/>
<text text-anchor="middle" x="55" y="-194" font-family="Helvetica,sans-Serif" font-size="10.00">interpreter</text>
</a>
</g>
</g>
<!-- dir_5cc6b507b984e69ca0492dffaa6cb29d -->
<g id="node1" class="node"><title>dir_5cc6b507b984e69ca0492dffaa6cb29d</title>
<g id="a_node1"><a xlink:href="dir_5cc6b507b984e69ca0492dffaa6cb29d.html" target="_top" xlink:title="runtime">
<polygon fill="none" stroke="black" points="87,-108 33,-108 33,-72 87,-72 87,-108"/>
<text text-anchor="middle" x="60" y="-86" font-family="Helvetica,sans-Serif" font-size="10.00">runtime</text>
</a>
</g>
</g>
<!-- dir_362247ee011c51bb6078fba078fa4338 -->
<g id="node4" class="node"><title>dir_362247ee011c51bb6078fba078fa4338</title>
<g id="a_node4"><a xlink:href="dir_362247ee011c51bb6078fba078fa4338.html" target="_top" xlink:title="api">
<polygon fill="white" stroke="red" points="164,-36 110,-36 110,-0 164,-0 164,-36"/>
<text text-anchor="middle" x="137" y="-14" font-family="Helvetica,sans-Serif" font-size="10.00">api</text>
</a>
</g>
</g>
<!-- dir_5cc6b507b984e69ca0492dffaa6cb29d&#45;&gt;dir_362247ee011c51bb6078fba078fa4338 -->
<g id="edge2" class="edge"><title>dir_5cc6b507b984e69ca0492dffaa6cb29d&#45;&gt;dir_362247ee011c51bb6078fba078fa4338</title>
<path fill="none" stroke="black" d="M79.0337,-71.6966C88.5447,-63.0503 100.207,-52.4486 110.57,-43.027"/>
<polygon fill="black" stroke="black" points="113.14,-45.4209 118.185,-36.1043 108.431,-40.2413 113.14,-45.4209"/>
<g id="a_edge2&#45;headlabel"><a xlink:href="dir_000043_000048.html" target="_top" xlink:title="1">
<text text-anchor="middle" x="112.39" y="-45.9397" font-family="Helvetica,sans-Serif" font-size="10.00">1</text>
</a>
</g>
</g>
<!-- dir_d7fbbfbed36c6ded299606a60fe0c65c -->
<g id="node2" class="node"><title>dir_d7fbbfbed36c6ded299606a60fe0c65c</title>
<g id="a_node2"><a xlink:href="dir_d7fbbfbed36c6ded299606a60fe0c65c.html" target="_top" xlink:title="streamLibrary">
<polygon fill="#eeeeff" stroke="black" points="93.3456,-180 16.6544,-180 16.6544,-144 93.3456,-144 93.3456,-180"/>
<text text-anchor="middle" x="55" y="-158" font-family="Helvetica,sans-Serif" font-size="10.00">streamLibrary</text>
</a>
</g>
</g>
<!-- dir_0787eb24e4fa3097d898136aceda6c5b -->
<g id="node3" class="node"><title>dir_0787eb24e4fa3097d898136aceda6c5b</title>
<g id="a_node3"><a xlink:href="dir_0787eb24e4fa3097d898136aceda6c5b.html" target="_top" xlink:title="common">
<polygon fill="white" stroke="red" points="164.259,-108 109.741,-108 109.741,-72 164.259,-72 164.259,-108"/>
<text text-anchor="middle" x="137" y="-86" font-family="Helvetica,sans-Serif" font-size="10.00">common</text>
</a>
</g>
</g>
<!-- dir_d7fbbfbed36c6ded299606a60fe0c65c&#45;&gt;dir_0787eb24e4fa3097d898136aceda6c5b -->
<g id="edge3" class="edge"><title>dir_d7fbbfbed36c6ded299606a60fe0c65c&#45;&gt;dir_0787eb24e4fa3097d898136aceda6c5b</title>
<path fill="none" stroke="black" d="M75.2697,-143.697C85.4976,-134.965 98.0611,-124.24 109.178,-114.75"/>
<polygon fill="black" stroke="black" points="111.63,-117.259 116.963,-108.104 107.085,-111.935 111.63,-117.259"/>
<g id="a_edge3&#45;headlabel"><a xlink:href="dir_000042_000018.html" target="_top" xlink:title="2">
<text text-anchor="middle" x="110.74" y="-117.752" font-family="Helvetica,sans-Serif" font-size="10.00">2</text>
</a>
</g>
</g>
<!-- dir_d7fbbfbed36c6ded299606a60fe0c65c&#45;&gt;dir_362247ee011c51bb6078fba078fa4338 -->
<g id="edge4" class="edge"><title>dir_d7fbbfbed36c6ded299606a60fe0c65c&#45;&gt;dir_362247ee011c51bb6078fba078fa4338</title>
<path fill="none" stroke="black" d="M93.4785,-154.897C120.779,-148.34 155.553,-134.962 173,-108 183.624,-91.5819 179.473,-82.4532 173,-64 170.496,-56.8603 166.329,-50.0119 161.701,-43.9057"/>
<polygon fill="black" stroke="black" points="164.293,-41.5479 155.217,-36.0815 158.903,-46.0145 164.293,-41.5479"/>
<g id="a_edge4&#45;headlabel"><a xlink:href="dir_000042_000048.html" target="_top" xlink:title="2">
<text text-anchor="middle" x="168.773" y="-38.5039" font-family="Helvetica,sans-Serif" font-size="10.00">2</text>
</a>
</g>
</g>
<!-- dir_d7fbbfbed36c6ded299606a60fe0c65c&#45;&gt;dir_5cc6b507b984e69ca0492dffaa6cb29d -->
<g id="edge5" class="edge"><title>dir_d7fbbfbed36c6ded299606a60fe0c65c&#45;&gt;dir_5cc6b507b984e69ca0492dffaa6cb29d</title>
<path fill="none" stroke="black" d="M56.236,-143.697C56.7869,-135.983 57.4491,-126.712 58.0634,-118.112"/>
<polygon fill="black" stroke="black" points="61.5568,-118.328 58.7783,-108.104 54.5746,-117.83 61.5568,-118.328"/>
<g id="a_edge5&#45;headlabel"><a xlink:href="dir_000042_000043.html" target="_top" xlink:title="1">
<text text-anchor="middle" x="64.1328" y="-118.116" font-family="Helvetica,sans-Serif" font-size="10.00">1</text>
</a>
</g>
</g>
<!-- dir_0787eb24e4fa3097d898136aceda6c5b&#45;&gt;dir_362247ee011c51bb6078fba078fa4338 -->
<g id="edge1" class="edge"><title>dir_0787eb24e4fa3097d898136aceda6c5b&#45;&gt;dir_362247ee011c51bb6078fba078fa4338</title>
<path fill="none" stroke="black" d="M137,-71.6966C137,-63.9827 137,-54.7125 137,-46.1124"/>
<polygon fill="black" stroke="black" points="140.5,-46.1043 137,-36.1043 133.5,-46.1044 140.5,-46.1043"/>
<g id="a_edge1&#45;headlabel"><a xlink:href="dir_000018_000048.html" target="_top" xlink:title="7">
<text text-anchor="middle" x="143.339" y="-45.699" font-family="Helvetica,sans-Serif" font-size="10.00">7</text>
</a>
</g>
</g>
</g>
</svg>
