<?xml version="1.0" encoding="UTF-8" standalone="no"?>
<!DOCTYPE svg PUBLIC "-//W3C//DTD SVG 1.1//EN"
 "http://www.w3.org/Graphics/SVG/1.1/DTD/svg11.dtd">
<!-- Generated by graphviz version 12.1.0 (20240811.2233)
 -->
<!-- Title: platform Pages: 1 -->
<svg width="254pt" height="159pt"
 viewBox="0.00 0.00 254.00 159.25" xmlns="http://www.w3.org/2000/svg" xmlns:xlink="http://www.w3.org/1999/xlink">
<g id="graph0" class="graph" transform="scale(1 1) rotate(0) translate(4 155.25)">
<title>platform</title>
<polygon fill="white" stroke="none" points="-4,4 -4,-155.25 250,-155.25 250,4 -4,4"/>
<g id="clust1" class="cluster">
<title>clusterdir_ec4aace3d06759fa84e1eb7fd5fe3432</title>
<g id="a_clust1"><a xlink:href="dir_ec4aace3d06759fa84e1eb7fd5fe3432.html" target="_top" xlink:title="common">
<polygon fill="#ddddee" stroke="black" points="8,-56 8,-143.25 238,-143.25 238,-56 8,-56"/>
<text text-anchor="middle" x="123" y="-129.75" font-family="Helvetica,sans-Serif" font-size="10.00">common</text>
</a>
</g>
</g>
<g id="clust2" class="cluster">
<title>clusterdir_ef8efd70d8975846c40a50116097d6db</title>
<g id="a_clust2"><a xlink:href="dir_ef8efd70d8975846c40a50116097d6db.html" target="_top">
<polygon fill="#eeeeff" stroke="black" points="16,-64 16,-116 230,-116 230,-64 16,-64"/>
</a>
</g>
</g>
<!-- dir_ef8efd70d8975846c40a50116097d6db -->
<g id="node1" class="node">
<title>dir_ef8efd70d8975846c40a50116097d6db</title>
<text text-anchor="middle" x="51" y="-86.12" font-family="Helvetica,sans-Serif" font-size="10.00">platform</text>
</g>
<!-- dir_d5740e98f218a14191c28d686b2fa31e -->
<g id="node2" class="node">
<title>dir_d5740e98f218a14191c28d686b2fa31e</title>
<g id="a_node2"><a xlink:href="dir_d5740e98f218a14191c28d686b2fa31e.html" target="_top" xlink:title="unix">
<polygon fill="white" stroke="black" points="150,-108 96,-108 96,-72 150,-72 150,-108"/>
<text text-anchor="middle" x="123" y="-86.12" font-family="Helvetica,sans-Serif" font-size="10.00">unix</text>
</a>
</g>
</g>
<!-- dir_362247ee011c51bb6078fba078fa4338 -->
<g id="node4" class="node">
<title>dir_362247ee011c51bb6078fba078fa4338</title>
<g id="a_node4"><a xlink:href="dir_362247ee011c51bb6078fba078fa4338.html" target="_top" xlink:title="api">
<polygon fill="white" stroke="red" points="186,-36 132,-36 132,0 186,0 186,-36"/>
<text text-anchor="middle" x="159" y="-14.12" font-family="Helvetica,sans-Serif" font-size="10.00">api</text>
</a>
</g>
</g>
<!-- dir_d5740e98f218a14191c28d686b2fa31e&#45;&gt;dir_362247ee011c51bb6078fba078fa4338 -->
<g id="edge2" class="edge">
<title>dir_d5740e98f218a14191c28d686b2fa31e&#45;&gt;dir_362247ee011c51bb6078fba078fa4338</title>
<path fill="none" stroke="black" d="M131.9,-71.7C135.87,-63.98 140.63,-54.71 145.06,-46.11"/>
<polygon fill="black" stroke="black" points="148.05,-47.94 149.51,-37.45 141.83,-44.74 148.05,-47.94"/>
<g id="a_edge2&#45;headlabel"><a xlink:href="dir_000100_000048.html" target="_top" xlink:title="1">
<text text-anchor="middle" x="149.62" y="-47.22" font-family="Helvetica,sans-Serif" font-size="10.00">1</text>
</a>
</g>
</g>
<!-- dir_430891e32124c185f5bff0c49a2e63f4 -->
<g id="node3" class="node">
<title>dir_430891e32124c185f5bff0c49a2e63f4</title>
<g id="a_node3"><a xlink:href="dir_430891e32124c185f5bff0c49a2e63f4.html" target="_top" xlink:title="windows">
<polygon fill="white" stroke="black" points="222.12,-108 167.88,-108 167.88,-72 222.12,-72 222.12,-108"/>
<text text-anchor="middle" x="195" y="-86.12" font-family="Helvetica,sans-Serif" font-size="10.00">windows</text>
</a>
</g>
</g>
<!-- dir_430891e32124c185f5bff0c49a2e63f4&#45;&gt;dir_362247ee011c51bb6078fba078fa4338 -->
<g id="edge1" class="edge">
<title>dir_430891e32124c185f5bff0c49a2e63f4&#45;&gt;dir_362247ee011c51bb6078fba078fa4338</title>
<path fill="none" stroke="black" d="M186.1,-71.7C182.13,-63.98 177.37,-54.71 172.94,-46.11"/>
<polygon fill="black" stroke="black" points="176.17,-44.74 168.49,-37.45 169.95,-47.94 176.17,-44.74"/>
<g id="a_edge1&#45;headlabel"><a xlink:href="dir_000101_000048.html" target="_top" xlink:title="1">
<text text-anchor="middle" x="179.65" y="-41.42" font-family="Helvetica,sans-Serif" font-size="10.00">1</text>
</a>
</g>
</g>
</g>
</svg>
