<?xml version="1.0" encoding="UTF-8" standalone="no"?>
<!DOCTYPE svg PUBLIC "-//W3C//DTD SVG 1.1//EN"
 "http://www.w3.org/Graphics/SVG/1.1/DTD/svg11.dtd">
<!-- Generated by graphviz version 12.1.0 (20240811.2233)
 -->
<!-- Title: client Pages: 1 -->
<svg width="252pt" height="303pt"
 viewBox="0.00 0.00 252.09 303.25" xmlns="http://www.w3.org/2000/svg" xmlns:xlink="http://www.w3.org/1999/xlink">
<g id="graph0" class="graph" transform="scale(1 1) rotate(0) translate(4 299.25)">
<title>client</title>
<polygon fill="white" stroke="none" points="-4,4 -4,-299.25 248.09,-299.25 248.09,4 -4,4"/>
<g id="clust1" class="cluster">
<title>clusterdir_d68ff9bd086ab418430d56b10fffff18</title>
<g id="a_clust1"><a xlink:href="dir_d68ff9bd086ab418430d56b10fffff18.html" target="_top" xlink:title="rexxapi">
<polygon fill="#ddddee" stroke="black" points="8,-136 8,-287.25 166,-287.25 166,-136 8,-136"/>
<text text-anchor="middle" x="87" y="-273.75" font-family="Helvetica,sans-Serif" font-size="10.00">rexxapi</text>
</a>
</g>
</g>
<g id="clust2" class="cluster">
<title>clusterdir_e40047532096a67dadc0272ae80e75ba</title>
<g id="a_clust2"><a xlink:href="dir_e40047532096a67dadc0272ae80e75ba.html" target="_top">
<polygon fill="#eeeeff" stroke="black" points="16,-208 16,-260 158,-260 158,-208 16,-208"/>
</a>
</g>
</g>
<!-- dir_ec4aace3d06759fa84e1eb7fd5fe3432 -->
<g id="node1" class="node">
<title>dir_ec4aace3d06759fa84e1eb7fd5fe3432</title>
<g id="a_node1"><a xlink:href="dir_ec4aace3d06759fa84e1eb7fd5fe3432.html" target="_top" xlink:title="common">
<polygon fill="white" stroke="red" points="98,-180 44,-180 44,-144 98,-144 98,-180"/>
<text text-anchor="middle" x="71" y="-158.12" font-family="Helvetica,sans-Serif" font-size="10.00">common</text>
</a>
</g>
</g>
<!-- dir_0787eb24e4fa3097d898136aceda6c5b -->
<g id="node4" class="node">
<title>dir_0787eb24e4fa3097d898136aceda6c5b</title>
<g id="a_node4"><a xlink:href="dir_0787eb24e4fa3097d898136aceda6c5b.html" target="_top" xlink:title="common">
<polygon fill="white" stroke="red" points="60,-108 6,-108 6,-72 60,-72 60,-108"/>
<text text-anchor="middle" x="33" y="-86.12" font-family="Helvetica,sans-Serif" font-size="10.00">common</text>
</a>
</g>
</g>
<!-- dir_ec4aace3d06759fa84e1eb7fd5fe3432&#45;&gt;dir_0787eb24e4fa3097d898136aceda6c5b -->
<g id="edge7" class="edge">
<title>dir_ec4aace3d06759fa84e1eb7fd5fe3432&#45;&gt;dir_0787eb24e4fa3097d898136aceda6c5b</title>
<path fill="none" stroke="black" d="M61.61,-143.7C57.42,-135.98 52.39,-126.71 47.72,-118.11"/>
<polygon fill="black" stroke="black" points="50.85,-116.55 43.01,-109.43 44.7,-119.89 50.85,-116.55"/>
<g id="a_edge7&#45;headlabel"><a xlink:href="dir_000040_000018.html" target="_top" xlink:title="1">
<text text-anchor="middle" x="54.34" y="-113.15" font-family="Helvetica,sans-Serif" font-size="10.00">1</text>
</a>
</g>
</g>
<!-- dir_362247ee011c51bb6078fba078fa4338 -->
<g id="node5" class="node">
<title>dir_362247ee011c51bb6078fba078fa4338</title>
<g id="a_node5"><a xlink:href="dir_362247ee011c51bb6078fba078fa4338.html" target="_top" xlink:title="api">
<polygon fill="white" stroke="red" points="134,-36 80,-36 80,0 134,0 134,-36"/>
<text text-anchor="middle" x="107" y="-14.12" font-family="Helvetica,sans-Serif" font-size="10.00">api</text>
</a>
</g>
</g>
<!-- dir_ec4aace3d06759fa84e1eb7fd5fe3432&#45;&gt;dir_362247ee011c51bb6078fba078fa4338 -->
<g id="edge8" class="edge">
<title>dir_ec4aace3d06759fa84e1eb7fd5fe3432&#45;&gt;dir_362247ee011c51bb6078fba078fa4338</title>
<path fill="none" stroke="black" d="M75.41,-143.59C81.52,-119.5 92.61,-75.75 99.89,-47.03"/>
<polygon fill="black" stroke="black" points="103.23,-48.13 102.29,-37.58 96.44,-46.41 103.23,-48.13"/>
<g id="a_edge8&#45;headlabel"><a xlink:href="dir_000040_000048.html" target="_top" xlink:title="5">
<text text-anchor="middle" x="105.47" y="-46.97" font-family="Helvetica,sans-Serif" font-size="10.00">5</text>
</a>
</g>
</g>
<!-- dir_e40047532096a67dadc0272ae80e75ba -->
<g id="node2" class="node">
<title>dir_e40047532096a67dadc0272ae80e75ba</title>
<text text-anchor="middle" x="51" y="-230.12" font-family="Helvetica,sans-Serif" font-size="10.00">client</text>
</g>
<!-- dir_e40047532096a67dadc0272ae80e75ba&#45;&gt;dir_ec4aace3d06759fa84e1eb7fd5fe3432 -->
<g id="edge6" class="edge">
<title>dir_e40047532096a67dadc0272ae80e75ba&#45;&gt;dir_ec4aace3d06759fa84e1eb7fd5fe3432</title>
<path fill="none" stroke="black" d="M55.84,-216.05C57.97,-208.6 60.53,-199.64 62.94,-191.22"/>
<polygon fill="black" stroke="black" points="66.27,-192.31 65.65,-181.73 59.54,-190.38 66.27,-192.31"/>
<g id="a_edge6&#45;headlabel"><a xlink:href="dir_000036_000040.html" target="_top" xlink:title="14">
<text text-anchor="middle" x="68.42" y="-191.21" font-family="Helvetica,sans-Serif" font-size="10.00">14</text>
</a>
</g>
</g>
<!-- dir_e40047532096a67dadc0272ae80e75ba&#45;&gt;dir_0787eb24e4fa3097d898136aceda6c5b -->
<g id="edge3" class="edge">
<title>dir_e40047532096a67dadc0272ae80e75ba&#45;&gt;dir_0787eb24e4fa3097d898136aceda6c5b</title>
<path fill="none" stroke="black" d="M42.5,-216.31C37.79,-206.11 32.41,-192.64 30,-180 26.18,-160.01 27.09,-137.05 28.86,-119.46"/>
<polygon fill="black" stroke="black" points="32.31,-120.08 30.01,-109.74 25.36,-119.26 32.31,-120.08"/>
<g id="a_edge3&#45;headlabel"><a xlink:href="dir_000036_000018.html" target="_top" xlink:title="5">
<text text-anchor="middle" x="34.89" y="-118.6" font-family="Helvetica,sans-Serif" font-size="10.00">5</text>
</a>
</g>
</g>
<!-- dir_e40047532096a67dadc0272ae80e75ba&#45;&gt;dir_362247ee011c51bb6078fba078fa4338 -->
<g id="edge4" class="edge">
<title>dir_e40047532096a67dadc0272ae80e75ba&#45;&gt;dir_362247ee011c51bb6078fba078fa4338</title>
<path fill="none" stroke="black" d="M74.06,-216.22C89.55,-204.38 107.87,-189.06 112,-180 131.61,-136.98 123.14,-80.56 115.12,-47.21"/>
<polygon fill="black" stroke="black" points="118.61,-46.71 112.73,-37.89 111.83,-48.45 118.61,-46.71"/>
<g id="a_edge4&#45;headlabel"><a xlink:href="dir_000036_000048.html" target="_top" xlink:title="14">
<text text-anchor="middle" x="121.88" y="-44.14" font-family="Helvetica,sans-Serif" font-size="10.00">14</text>
</a>
</g>
</g>
<!-- dir_70e43ea110b80f78607e61f4493826e7 -->
<g id="node6" class="node">
<title>dir_70e43ea110b80f78607e61f4493826e7</title>
<g id="a_node6"><a xlink:href="dir_70e43ea110b80f78607e61f4493826e7.html" target="_top" xlink:title="lib">
<polygon fill="none" stroke="black" points="228,-180 174,-180 174,-144 228,-144 228,-180"/>
<text text-anchor="middle" x="201" y="-158.12" font-family="Helvetica,sans-Serif" font-size="10.00">lib</text>
</a>
</g>
</g>
<!-- dir_e40047532096a67dadc0272ae80e75ba&#45;&gt;dir_70e43ea110b80f78607e61f4493826e7 -->
<g id="edge5" class="edge">
<title>dir_e40047532096a67dadc0272ae80e75ba&#45;&gt;dir_70e43ea110b80f78607e61f4493826e7</title>
<path fill="none" stroke="black" d="M73.74,-216.04C78.03,-213.18 82.57,-210.37 87,-208 111.5,-194.88 140.68,-183.44 163.39,-175.37"/>
<polygon fill="black" stroke="black" points="164.24,-178.78 172.53,-172.19 161.94,-172.17 164.24,-178.78"/>
<g id="a_edge5&#45;headlabel"><a xlink:href="dir_000036_000076.html" target="_top" xlink:title="3">
<text text-anchor="middle" x="163.21" y="-178.27" font-family="Helvetica,sans-Serif" font-size="10.00">3</text>
</a>
</g>
</g>
<!-- dir_3e1e4a8db3a6de532d763ac2c20892eb -->
<g id="node3" class="node">
<title>dir_3e1e4a8db3a6de532d763ac2c20892eb</title>
<g id="a_node3"><a xlink:href="dir_3e1e4a8db3a6de532d763ac2c20892eb.html" target="_top" xlink:title="platform">
<polygon fill="white" stroke="red" points="150,-252 96,-252 96,-216 150,-216 150,-252"/>
<text text-anchor="middle" x="123" y="-230.12" font-family="Helvetica,sans-Serif" font-size="10.00">platform</text>
</a>
</g>
</g>
<!-- dir_3e1e4a8db3a6de532d763ac2c20892eb&#45;&gt;dir_362247ee011c51bb6078fba078fa4338 -->
<g id="edge2" class="edge">
<title>dir_3e1e4a8db3a6de532d763ac2c20892eb&#45;&gt;dir_362247ee011c51bb6078fba078fa4338</title>
<path fill="none" stroke="black" d="M150.38,-228.81C177.63,-223.03 218.04,-209.72 237,-180 247.52,-163.51 244.96,-153.86 237,-136 218.11,-93.58 175.39,-60.08 144.05,-39.99"/>
<polygon fill="black" stroke="black" points="145.95,-37.05 135.61,-34.74 142.26,-42.99 145.95,-37.05"/>
<g id="a_edge2&#45;headlabel"><a xlink:href="dir_000103_000048.html" target="_top" xlink:title="2">
<text text-anchor="middle" x="149.22" y="-31.86" font-family="Helvetica,sans-Serif" font-size="10.00">2</text>
</a>
</g>
</g>
<!-- dir_0787eb24e4fa3097d898136aceda6c5b&#45;&gt;dir_362247ee011c51bb6078fba078fa4338 -->
<g id="edge1" class="edge">
<title>dir_0787eb24e4fa3097d898136aceda6c5b&#45;&gt;dir_362247ee011c51bb6078fba078fa4338</title>
<path fill="none" stroke="black" d="M51.29,-71.7C60.1,-63.37 70.82,-53.22 80.5,-44.07"/>
<polygon fill="black" stroke="black" points="82.7,-46.8 87.56,-37.39 77.89,-41.72 82.7,-46.8"/>
<g id="a_edge1&#45;headlabel"><a xlink:href="dir_000018_000048.html" target="_top" xlink:title="7">
<text text-anchor="middle" x="83.14" y="-46.42" font-family="Helvetica,sans-Serif" font-size="10.00">7</text>
</a>
</g>
</g>
</g>
</svg>
