<?xml version="1.0" encoding="UTF-8" standalone="no"?>
<!DOCTYPE svg PUBLIC "-//W3C//DTD SVG 1.1//EN"
 "http://www.w3.org/Graphics/SVG/1.1/DTD/svg11.dtd">
<!-- Generated by graphviz version 2.30.1 (20130222.1704)
 -->
<!-- Title: wpipe Pages: 1 -->
<svg width="326pt" height="160pt"
 viewBox="0.00 0.00 326.00 160.00" xmlns="http://www.w3.org/2000/svg" xmlns:xlink="http://www.w3.org/1999/xlink">
<g id="graph0" class="graph" transform="scale(1 1) rotate(0) translate(4 156)">
<title>wpipe</title>
<polygon fill="white" stroke="white" points="-4,5 -4,-156 323,-156 323,5 -4,5"/>
<g id="clust1" class="cluster"><title>clusterdir_69ad5d9726257e7d6b41584e133e49ef</title>
<g id="a_clust1"><a xlink:href="dir_69ad5d9726257e7d6b41584e133e49ef.html" target="_top" xlink:title="api">
<polygon fill="#ddddee" stroke="black" points="8,-56 8,-144 310,-144 310,-56 8,-56"/>
<text text-anchor="middle" x="159" y="-130" font-family="Helvetica,sans-Serif" font-size="10.00">api</text>
</a>
</g>
</g>
<g id="clust2" class="cluster"><title>clusterdir_4fbe58b26f4ca4288c2989a4b886b05e</title>
<g id="a_clust2"><a xlink:href="dir_4fbe58b26f4ca4288c2989a4b886b05e.html" target="_top">
<polygon fill="#eeeeff" stroke="black" points="16,-64 16,-116 302,-116 302,-64 16,-64"/>
</a>
</g>
</g>
<!-- dir_4fbe58b26f4ca4288c2989a4b886b05e -->
<g id="node1" class="node"><title>dir_4fbe58b26f4ca4288c2989a4b886b05e</title>
<text text-anchor="middle" x="267" y="-86" font-family="Helvetica,sans-Serif" font-size="10.00">wpipe</text>
</g>
<!-- dir_61e51c158d49a2b8e8bff64a0d552326 -->
<g id="node2" class="node"><title>dir_61e51c158d49a2b8e8bff64a0d552326</title>
<g id="a_node2"><a xlink:href="dir_61e51c158d49a2b8e8bff64a0d552326.html" target="_top" xlink:title="wpipe1">
<polygon fill="white" stroke="black" points="222,-108 168,-108 168,-72 222,-72 222,-108"/>
<text text-anchor="middle" x="195" y="-86" font-family="Helvetica,sans-Serif" font-size="10.00">wpipe1</text>
</a>
</g>
</g>
<!-- dir_362247ee011c51bb6078fba078fa4338 -->
<g id="node5" class="node"><title>dir_362247ee011c51bb6078fba078fa4338</title>
<g id="a_node5"><a xlink:href="dir_362247ee011c51bb6078fba078fa4338.html" target="_top" xlink:title="api">
<polygon fill="white" stroke="red" points="150,-36 96,-36 96,-0 150,-0 150,-36"/>
<text text-anchor="middle" x="123" y="-14" font-family="Helvetica,sans-Serif" font-size="10.00">api</text>
</a>
</g>
</g>
<!-- dir_61e51c158d49a2b8e8bff64a0d552326&#45;&gt;dir_362247ee011c51bb6078fba078fa4338 -->
<g id="edge2" class="edge"><title>dir_61e51c158d49a2b8e8bff64a0d552326&#45;&gt;dir_362247ee011c51bb6078fba078fa4338</title>
<path fill="none" stroke="black" d="M177.202,-71.6966C168.396,-63.135 157.618,-52.6562 147.999,-43.3045"/>
<polygon fill="black" stroke="black" points="150.203,-40.5657 140.593,-36.1043 145.323,-45.5846 150.203,-40.5657"/>
<g id="a_edge2&#45;headlabel"><a xlink:href="dir_000057_000048.html" target="_top" xlink:title="1">
<text text-anchor="middle" x="154.759" y="-37.0356" font-family="Helvetica,sans-Serif" font-size="10.00">1</text>
</a>
</g>
</g>
<!-- dir_1ab19fa7f8e4d1780a897dff177faced -->
<g id="node3" class="node"><title>dir_1ab19fa7f8e4d1780a897dff177faced</title>
<g id="a_node3"><a xlink:href="dir_1ab19fa7f8e4d1780a897dff177faced.html" target="_top" xlink:title="wpipe2">
<polygon fill="white" stroke="black" points="150,-108 96,-108 96,-72 150,-72 150,-108"/>
<text text-anchor="middle" x="123" y="-86" font-family="Helvetica,sans-Serif" font-size="10.00">wpipe2</text>
</a>
</g>
</g>
<!-- dir_1ab19fa7f8e4d1780a897dff177faced&#45;&gt;dir_362247ee011c51bb6078fba078fa4338 -->
<g id="edge1" class="edge"><title>dir_1ab19fa7f8e4d1780a897dff177faced&#45;&gt;dir_362247ee011c51bb6078fba078fa4338</title>
<path fill="none" stroke="black" d="M123,-71.6966C123,-63.9827 123,-54.7125 123,-46.1124"/>
<polygon fill="black" stroke="black" points="126.5,-46.1043 123,-36.1043 119.5,-46.1044 126.5,-46.1043"/>
<g id="a_edge1&#45;headlabel"><a xlink:href="dir_000058_000048.html" target="_top" xlink:title="1">
<text text-anchor="middle" x="129.339" y="-45.699" font-family="Helvetica,sans-Serif" font-size="10.00">1</text>
</a>
</g>
</g>
<!-- dir_9935383012441e3fa2293ba7222317c7 -->
<g id="node4" class="node"><title>dir_9935383012441e3fa2293ba7222317c7</title>
<g id="a_node4"><a xlink:href="dir_9935383012441e3fa2293ba7222317c7.html" target="_top" xlink:title="wpipe3">
<polygon fill="white" stroke="black" points="78,-108 24,-108 24,-72 78,-72 78,-108"/>
<text text-anchor="middle" x="51" y="-86" font-family="Helvetica,sans-Serif" font-size="10.00">wpipe3</text>
</a>
</g>
</g>
<!-- dir_9935383012441e3fa2293ba7222317c7&#45;&gt;dir_362247ee011c51bb6078fba078fa4338 -->
<g id="edge3" class="edge"><title>dir_9935383012441e3fa2293ba7222317c7&#45;&gt;dir_362247ee011c51bb6078fba078fa4338</title>
<path fill="none" stroke="black" d="M68.7978,-71.6966C77.604,-63.135 88.3821,-52.6562 98.0011,-43.3045"/>
<polygon fill="black" stroke="black" points="100.677,-45.5846 105.407,-36.1043 95.7972,-40.5657 100.677,-45.5846"/>
<g id="a_edge3&#45;headlabel"><a xlink:href="dir_000059_000048.html" target="_top" xlink:title="1">
<text text-anchor="middle" x="100.079" y="-46.1261" font-family="Helvetica,sans-Serif" font-size="10.00">1</text>
</a>
</g>
</g>
</g>
</svg>
