<?xml version="1.0" encoding="UTF-8" standalone="no"?>
<!DOCTYPE svg PUBLIC "-//W3C//DTD SVG 1.1//EN"
 "http://www.w3.org/Graphics/SVG/1.1/DTD/svg11.dtd">
<!-- Generated by graphviz version 12.1.0 (20240811.2233)
 -->
<!-- Title: platform Pages: 1 -->
<svg width="254pt" height="231pt"
 viewBox="0.00 0.00 254.00 231.25" xmlns="http://www.w3.org/2000/svg" xmlns:xlink="http://www.w3.org/1999/xlink">
<g id="graph0" class="graph" transform="scale(1 1) rotate(0) translate(4 227.25)">
<title>platform</title>
<polygon fill="white" stroke="none" points="-4,4 -4,-227.25 250,-227.25 250,4 -4,4"/>
<g id="clust1" class="cluster">
<title>clusterdir_8c2e7e3e32e4dde54cf30a2a67c1cab3</title>
<g id="a_clust1"><a xlink:href="dir_8c2e7e3e32e4dde54cf30a2a67c1cab3.html" target="_top" xlink:title="rxsubcom">
<polygon fill="#ddddee" stroke="black" points="8,-128 8,-215.25 238,-215.25 238,-128 8,-128"/>
<text text-anchor="middle" x="123" y="-201.75" font-family="Helvetica,sans-Serif" font-size="10.00">rxsubcom</text>
</a>
</g>
</g>
<g id="clust2" class="cluster">
<title>clusterdir_9148d2abec19931e0ad10b1b64847cb7</title>
<g id="a_clust2"><a xlink:href="dir_9148d2abec19931e0ad10b1b64847cb7.html" target="_top">
<polygon fill="#eeeeff" stroke="black" points="16,-136 16,-188 230,-188 230,-136 16,-136"/>
</a>
</g>
</g>
<!-- dir_9148d2abec19931e0ad10b1b64847cb7 -->
<g id="node1" class="node">
<title>dir_9148d2abec19931e0ad10b1b64847cb7</title>
<text text-anchor="middle" x="51" y="-158.12" font-family="Helvetica,sans-Serif" font-size="10.00">platform</text>
</g>
<!-- dir_66ad874757985506156dceada3b825d8 -->
<g id="node2" class="node">
<title>dir_66ad874757985506156dceada3b825d8</title>
<g id="a_node2"><a xlink:href="dir_66ad874757985506156dceada3b825d8.html" target="_top" xlink:title="unix">
<polygon fill="white" stroke="black" points="150,-180 96,-180 96,-144 150,-144 150,-180"/>
<text text-anchor="middle" x="123" y="-158.12" font-family="Helvetica,sans-Serif" font-size="10.00">unix</text>
</a>
</g>
</g>
<!-- dir_362247ee011c51bb6078fba078fa4338 -->
<g id="node4" class="node">
<title>dir_362247ee011c51bb6078fba078fa4338</title>
<g id="a_node4"><a xlink:href="dir_362247ee011c51bb6078fba078fa4338.html" target="_top" xlink:title="api">
<polygon fill="white" stroke="red" points="119,-36 65,-36 65,0 119,0 119,-36"/>
<text text-anchor="middle" x="92" y="-14.12" font-family="Helvetica,sans-Serif" font-size="10.00">api</text>
</a>
</g>
</g>
<!-- dir_66ad874757985506156dceada3b825d8&#45;&gt;dir_362247ee011c51bb6078fba078fa4338 -->
<g id="edge3" class="edge">
<title>dir_66ad874757985506156dceada3b825d8&#45;&gt;dir_362247ee011c51bb6078fba078fa4338</title>
<path fill="none" stroke="black" d="M102.62,-143.53C93.19,-134.09 82.99,-121.6 78,-108 70.79,-88.37 74.93,-64.96 80.53,-47.08"/>
<polygon fill="black" stroke="black" points="83.83,-48.25 83.82,-37.66 77.22,-45.95 83.83,-48.25"/>
<g id="a_edge3&#45;headlabel"><a xlink:href="dir_000092_000048.html" target="_top" xlink:title="1">
<text text-anchor="middle" x="85.83" y="-47.28" font-family="Helvetica,sans-Serif" font-size="10.00">1</text>
</a>
</g>
</g>
<!-- dir_70e43ea110b80f78607e61f4493826e7 -->
<g id="node5" class="node">
<title>dir_70e43ea110b80f78607e61f4493826e7</title>
<g id="a_node5"><a xlink:href="dir_70e43ea110b80f78607e61f4493826e7.html" target="_top" xlink:title="lib">
<polygon fill="none" stroke="black" points="215,-36 161,-36 161,0 215,0 215,-36"/>
<text text-anchor="middle" x="188" y="-14.12" font-family="Helvetica,sans-Serif" font-size="10.00">lib</text>
</a>
</g>
</g>
<!-- dir_66ad874757985506156dceada3b825d8&#45;&gt;dir_70e43ea110b80f78607e61f4493826e7 -->
<g id="edge5" class="edge">
<title>dir_66ad874757985506156dceada3b825d8&#45;&gt;dir_70e43ea110b80f78607e61f4493826e7</title>
<path fill="none" stroke="black" d="M126.2,-143.61C130.01,-125.17 137.37,-95.52 149,-72 153.59,-62.73 159.81,-53.38 165.94,-45.18"/>
<polygon fill="black" stroke="black" points="168.66,-47.37 172.05,-37.33 163.14,-43.07 168.66,-47.37"/>
<g id="a_edge5&#45;headlabel"><a xlink:href="dir_000092_000076.html" target="_top" xlink:title="1">
<text text-anchor="middle" x="169.62" y="-46.88" font-family="Helvetica,sans-Serif" font-size="10.00">1</text>
</a>
</g>
</g>
<!-- dir_568b253ddbf98cea92a6c65945d41c59 -->
<g id="node6" class="node">
<title>dir_568b253ddbf98cea92a6c65945d41c59</title>
<g id="a_node6"><a xlink:href="dir_568b253ddbf98cea92a6c65945d41c59.html" target="_top" xlink:title="interpreter">
<polygon fill="white" stroke="red" points="217.75,-108 158.25,-108 158.25,-72 217.75,-72 217.75,-108"/>
<text text-anchor="middle" x="188" y="-86.12" font-family="Helvetica,sans-Serif" font-size="10.00">interpreter</text>
</a>
</g>
</g>
<!-- dir_66ad874757985506156dceada3b825d8&#45;&gt;dir_568b253ddbf98cea92a6c65945d41c59 -->
<g id="edge4" class="edge">
<title>dir_66ad874757985506156dceada3b825d8&#45;&gt;dir_568b253ddbf98cea92a6c65945d41c59</title>
<path fill="none" stroke="black" d="M139.07,-143.7C146.7,-135.47 155.98,-125.48 164.4,-116.42"/>
<polygon fill="black" stroke="black" points="166.85,-118.92 171.09,-109.21 161.72,-114.16 166.85,-118.92"/>
<g id="a_edge4&#45;headlabel"><a xlink:href="dir_000092_000005.html" target="_top" xlink:title="2">
<text text-anchor="middle" x="167.51" y="-118.5" font-family="Helvetica,sans-Serif" font-size="10.00">2</text>
</a>
</g>
</g>
<!-- dir_8f5e5dc562c1f6b98111b369de39e182 -->
<g id="node3" class="node">
<title>dir_8f5e5dc562c1f6b98111b369de39e182</title>
<g id="a_node3"><a xlink:href="dir_8f5e5dc562c1f6b98111b369de39e182.html" target="_top" xlink:title="windows">
<polygon fill="white" stroke="black" points="222.12,-180 167.88,-180 167.88,-144 222.12,-144 222.12,-180"/>
<text text-anchor="middle" x="195" y="-158.12" font-family="Helvetica,sans-Serif" font-size="10.00">windows</text>
</a>
</g>
</g>
<!-- dir_8f5e5dc562c1f6b98111b369de39e182&#45;&gt;dir_362247ee011c51bb6078fba078fa4338 -->
<g id="edge7" class="edge">
<title>dir_8f5e5dc562c1f6b98111b369de39e182&#45;&gt;dir_362247ee011c51bb6078fba078fa4338</title>
<path fill="none" stroke="black" d="M179.01,-143.87C169.84,-133.74 158.34,-120.49 149,-108 134.02,-87.98 118.84,-64.06 107.92,-46.06"/>
<polygon fill="black" stroke="black" points="110.94,-44.29 102.79,-37.52 104.94,-47.89 110.94,-44.29"/>
<g id="a_edge7&#45;headlabel"><a xlink:href="dir_000093_000048.html" target="_top" xlink:title="1">
<text text-anchor="middle" x="114.44" y="-40.74" font-family="Helvetica,sans-Serif" font-size="10.00">1</text>
</a>
</g>
</g>
<!-- dir_8f5e5dc562c1f6b98111b369de39e182&#45;&gt;dir_70e43ea110b80f78607e61f4493826e7 -->
<g id="edge9" class="edge">
<title>dir_8f5e5dc562c1f6b98111b369de39e182&#45;&gt;dir_70e43ea110b80f78607e61f4493826e7</title>
<path fill="none" stroke="black" d="M208.56,-143.97C215.56,-134.09 223.37,-121.05 227,-108 231.29,-92.59 231.99,-87.2 227,-72 223.88,-62.48 218.32,-53.27 212.36,-45.26"/>
<polygon fill="black" stroke="black" points="215.24,-43.26 206.24,-37.66 209.78,-47.64 215.24,-43.26"/>
<g id="a_edge9&#45;headlabel"><a xlink:href="dir_000093_000076.html" target="_top" xlink:title="1">
<text text-anchor="middle" x="218.75" y="-39.23" font-family="Helvetica,sans-Serif" font-size="10.00">1</text>
</a>
</g>
</g>
<!-- dir_8f5e5dc562c1f6b98111b369de39e182&#45;&gt;dir_568b253ddbf98cea92a6c65945d41c59 -->
<g id="edge8" class="edge">
<title>dir_8f5e5dc562c1f6b98111b369de39e182&#45;&gt;dir_568b253ddbf98cea92a6c65945d41c59</title>
<path fill="none" stroke="black" d="M193.27,-143.7C192.54,-136.41 191.67,-127.73 190.85,-119.54"/>
<polygon fill="black" stroke="black" points="194.34,-119.21 189.86,-109.61 187.37,-119.91 194.34,-119.21"/>
<g id="a_edge8&#45;headlabel"><a xlink:href="dir_000093_000005.html" target="_top" xlink:title="1">
<text text-anchor="middle" x="197.37" y="-117.13" font-family="Helvetica,sans-Serif" font-size="10.00">1</text>
</a>
</g>
</g>
<!-- dir_70e43ea110b80f78607e61f4493826e7&#45;&gt;dir_568b253ddbf98cea92a6c65945d41c59 -->
<g id="edge6" class="edge">
<title>dir_70e43ea110b80f78607e61f4493826e7&#45;&gt;dir_568b253ddbf98cea92a6c65945d41c59</title>
<path fill="none" stroke="black" d="M193.9,-36.1C194.66,-43.37 194.91,-52.04 194.65,-60.24"/>
<polygon fill="black" stroke="black" points="191.16,-59.98 194.01,-70.19 198.15,-60.43 191.16,-59.98"/>
<g id="a_edge6&#45;headlabel"><a xlink:href="dir_000076_000005.html" target="_top" xlink:title="1">
<text text-anchor="middle" x="188.46" y="-53.85" font-family="Helvetica,sans-Serif" font-size="10.00">1</text>
</a>
</g>
</g>
<!-- dir_568b253ddbf98cea92a6c65945d41c59&#45;&gt;dir_362247ee011c51bb6078fba078fa4338 -->
<g id="edge1" class="edge">
<title>dir_568b253ddbf98cea92a6c65945d41c59&#45;&gt;dir_362247ee011c51bb6078fba078fa4338</title>
<path fill="none" stroke="black" d="M164.27,-71.7C152.38,-63.03 137.81,-52.4 124.86,-42.96"/>
<polygon fill="black" stroke="black" points="127.16,-40.3 117.01,-37.24 123.03,-45.96 127.16,-40.3"/>
<g id="a_edge1&#45;headlabel"><a xlink:href="dir_000005_000048.html" target="_top" xlink:title="5">
<text text-anchor="middle" x="130.51" y="-35.36" font-family="Helvetica,sans-Serif" font-size="10.00">5</text>
</a>
</g>
</g>
<!-- dir_568b253ddbf98cea92a6c65945d41c59&#45;&gt;dir_70e43ea110b80f78607e61f4493826e7 -->
<g id="edge2" class="edge">
<title>dir_568b253ddbf98cea92a6c65945d41c59&#45;&gt;dir_70e43ea110b80f78607e61f4493826e7</title>
<path fill="none" stroke="black" d="M182.08,-71.7C181.33,-64.41 181.09,-55.73 181.35,-47.54"/>
<polygon fill="black" stroke="black" points="184.84,-47.82 182.01,-37.61 177.86,-47.36 184.84,-47.82"/>
<g id="a_edge2&#45;headlabel"><a xlink:href="dir_000005_000076.html" target="_top" xlink:title="13">
<text text-anchor="middle" x="187.54" y="-46.21" font-family="Helvetica,sans-Serif" font-size="10.00">13</text>
</a>
</g>
</g>
</g>
</svg>
