<?xml version="1.0" encoding="UTF-8" standalone="no"?>
<!DOCTYPE svg PUBLIC "-//W3C//DTD SVG 1.1//EN"
 "http://www.w3.org/Graphics/SVG/1.1/DTD/svg11.dtd">
<!-- Generated by graphviz version 12.1.0 (20240811.2233)
 -->
<!-- Title: rxsock.cpp Pages: 1 -->
<svg width="900pt" height="253pt"
 viewBox="0.00 0.00 900.38 253.25" xmlns="http://www.w3.org/2000/svg" xmlns:xlink="http://www.w3.org/1999/xlink">
<g id="graph0" class="graph" transform="scale(1 1) rotate(0) translate(4 249.25)">
<title>rxsock.cpp</title>
<polygon fill="white" stroke="none" points="-4,4 -4,-249.25 896.38,-249.25 896.38,4 -4,4"/>
<!-- Node1 -->
<g id="node1" class="node">
<title>Node1</title>
<g id="a_node1"><a xlink:title=" ">
<polygon fill="#bfbfbf" stroke="black" points="372.62,-225.5 372.62,-244.75 436.62,-244.75 436.62,-225.5 372.62,-225.5"/>
<text text-anchor="middle" x="404.62" y="-231.25" font-family="Helvetica,sans-Serif" font-size="10.00">rxsock.cpp</text>
</a>
</g>
</g>
<!-- Node2 -->
<g id="node2" class="node">
<title>Node2</title>
<g id="a_node2"><a xlink:title=" ">
<polygon fill="white" stroke="#bfbfbf" points="0,-169.25 0,-188.5 45.25,-188.5 45.25,-169.25 0,-169.25"/>
<text text-anchor="middle" x="22.62" y="-175" font-family="Helvetica,sans-Serif" font-size="10.00">stdio.h</text>
</a>
</g>
</g>
<!-- Node1&#45;&gt;Node2 -->
<g id="edge1" class="edge">
<title>Node1&#45;&gt;Node2</title>
<path fill="none" stroke="midnightblue" d="M372.4,-231.7C312.06,-226.79 177.84,-214.15 56.49,-189.34"/>
<polygon fill="midnightblue" stroke="midnightblue" points="57.53,-185.98 47.03,-187.37 56.1,-192.83 57.53,-185.98"/>
</g>
<!-- Node3 -->
<g id="node3" class="node">
<title>Node3</title>
<g id="a_node3"><a xlink:title=" ">
<polygon fill="white" stroke="#bfbfbf" points="62.88,-169.25 62.88,-188.5 110.38,-188.5 110.38,-169.25 62.88,-169.25"/>
<text text-anchor="middle" x="86.62" y="-175" font-family="Helvetica,sans-Serif" font-size="10.00">stdlib.h</text>
</a>
</g>
</g>
<!-- Node1&#45;&gt;Node3 -->
<g id="edge2" class="edge">
<title>Node1&#45;&gt;Node3</title>
<path fill="none" stroke="midnightblue" d="M372.35,-230.22C321.26,-223.78 218.45,-209.77 121.84,-189.27"/>
<polygon fill="midnightblue" stroke="midnightblue" points="122.69,-185.87 112.18,-187.19 121.22,-192.72 122.69,-185.87"/>
</g>
<!-- Node4 -->
<g id="node4" class="node">
<title>Node4</title>
<g id="a_node4"><a xlink:title=" ">
<polygon fill="white" stroke="#bfbfbf" points="128.5,-169.25 128.5,-188.5 176.75,-188.5 176.75,-169.25 128.5,-169.25"/>
<text text-anchor="middle" x="152.62" y="-175" font-family="Helvetica,sans-Serif" font-size="10.00">string.h</text>
</a>
</g>
</g>
<!-- Node1&#45;&gt;Node4 -->
<g id="edge3" class="edge">
<title>Node1&#45;&gt;Node4</title>
<path fill="none" stroke="midnightblue" d="M372.19,-228.14C331.4,-220.47 259,-206.34 188,-189.46"/>
<polygon fill="midnightblue" stroke="midnightblue" points="189.1,-186.12 178.56,-187.19 187.46,-192.93 189.1,-186.12"/>
</g>
<!-- Node5 -->
<g id="node5" class="node">
<title>Node5</title>
<g id="a_node5"><a xlink:title=" ">
<polygon fill="white" stroke="#bfbfbf" points="194.5,-169.25 194.5,-188.5 242.75,-188.5 242.75,-169.25 194.5,-169.25"/>
<text text-anchor="middle" x="218.62" y="-175" font-family="Helvetica,sans-Serif" font-size="10.00">ctype.h</text>
</a>
</g>
</g>
<!-- Node1&#45;&gt;Node5 -->
<g id="edge4" class="edge">
<title>Node1&#45;&gt;Node5</title>
<path fill="none" stroke="midnightblue" d="M373.49,-225.04C340.51,-215.42 288.52,-200.26 254.01,-190.19"/>
<polygon fill="midnightblue" stroke="midnightblue" points="255.06,-186.86 244.48,-187.42 253.1,-193.58 255.06,-186.86"/>
</g>
<!-- Node6 -->
<g id="node6" class="node">
<title>Node6</title>
<g id="a_node6"><a xlink:title=" ">
<polygon fill="white" stroke="#bfbfbf" points="260.88,-169.25 260.88,-188.5 314.38,-188.5 314.38,-169.25 260.88,-169.25"/>
<text text-anchor="middle" x="287.62" y="-175" font-family="Helvetica,sans-Serif" font-size="10.00">setjmp.h</text>
</a>
</g>
</g>
<!-- Node1&#45;&gt;Node6 -->
<g id="edge5" class="edge">
<title>Node1&#45;&gt;Node6</title>
<path fill="none" stroke="midnightblue" d="M385.04,-225.04C366.65,-216.52 338.87,-203.63 317.67,-193.81"/>
<polygon fill="midnightblue" stroke="midnightblue" points="319.19,-190.65 308.65,-189.62 316.25,-197 319.19,-190.65"/>
</g>
<!-- Node7 -->
<g id="node7" class="node">
<title>Node7</title>
<g id="a_node7"><a xlink:href="oorexxapi_8h.html" target="_top" xlink:title=" ">
<polygon fill="white" stroke="black" points="570.5,-113 570.5,-132.25 636.75,-132.25 636.75,-113 570.5,-113"/>
<text text-anchor="middle" x="603.62" y="-118.75" font-family="Helvetica,sans-Serif" font-size="10.00">oorexxapi.h</text>
</a>
</g>
</g>
<!-- Node1&#45;&gt;Node7 -->
<g id="edge6" class="edge">
<title>Node1&#45;&gt;Node7</title>
<path fill="none" stroke="midnightblue" d="M391.62,-225.2C374.18,-212.16 347.12,-187.43 362.62,-168.75 387.13,-139.23 496.64,-128.91 559.28,-125.38"/>
<polygon fill="midnightblue" stroke="midnightblue" points="559.08,-128.9 568.88,-124.88 558.72,-121.91 559.08,-128.9"/>
</g>
<!-- Node14 -->
<g id="node14" class="node">
<title>Node14</title>
<g id="a_node14"><a xlink:title=" ">
<polygon fill="white" stroke="#bfbfbf" points="371.12,-169.25 371.12,-188.5 438.12,-188.5 438.12,-169.25 371.12,-169.25"/>
<text text-anchor="middle" x="404.62" y="-175" font-family="Helvetica,sans-Serif" font-size="10.00">sys/types.h</text>
</a>
</g>
</g>
<!-- Node1&#45;&gt;Node14 -->
<g id="edge13" class="edge">
<title>Node1&#45;&gt;Node14</title>
<path fill="none" stroke="midnightblue" d="M404.62,-225.17C404.62,-218.37 404.62,-208.76 404.62,-200.15"/>
<polygon fill="midnightblue" stroke="midnightblue" points="408.13,-200.18 404.63,-190.18 401.13,-200.18 408.13,-200.18"/>
</g>
<!-- Node15 -->
<g id="node15" class="node">
<title>Node15</title>
<g id="a_node15"><a xlink:title=" ">
<polygon fill="white" stroke="#bfbfbf" points="456.62,-169.25 456.62,-188.5 502.62,-188.5 502.62,-169.25 456.62,-169.25"/>
<text text-anchor="middle" x="479.62" y="-175" font-family="Helvetica,sans-Serif" font-size="10.00">errno.h</text>
</a>
</g>
</g>
<!-- Node1&#45;&gt;Node15 -->
<g id="edge14" class="edge">
<title>Node1&#45;&gt;Node15</title>
<path fill="none" stroke="midnightblue" d="M417.01,-225.17C428.19,-217.08 444.89,-205 458.23,-195.35"/>
<polygon fill="midnightblue" stroke="midnightblue" points="459.94,-198.43 466,-189.73 455.84,-192.76 459.94,-198.43"/>
</g>
<!-- Node16 -->
<g id="node16" class="node">
<title>Node16</title>
<g id="a_node16"><a xlink:title=" ">
<polygon fill="white" stroke="#bfbfbf" points="520.5,-169.25 520.5,-188.5 568.75,-188.5 568.75,-169.25 520.5,-169.25"/>
<text text-anchor="middle" x="544.62" y="-175" font-family="Helvetica,sans-Serif" font-size="10.00">netdb.h</text>
</a>
</g>
</g>
<!-- Node1&#45;&gt;Node16 -->
<g id="edge15" class="edge">
<title>Node1&#45;&gt;Node16</title>
<path fill="none" stroke="midnightblue" d="M428.06,-225.04C450.57,-216.32 484.84,-203.04 510.41,-193.14"/>
<polygon fill="midnightblue" stroke="midnightblue" points="511.64,-196.41 519.7,-189.53 509.12,-189.88 511.64,-196.41"/>
</g>
<!-- Node17 -->
<g id="node17" class="node">
<title>Node17</title>
<g id="a_node17"><a xlink:title=" ">
<polygon fill="white" stroke="#bfbfbf" points="586.62,-169.25 586.62,-188.5 650.62,-188.5 650.62,-169.25 586.62,-169.25"/>
<text text-anchor="middle" x="618.62" y="-175" font-family="Helvetica,sans-Serif" font-size="10.00">netinet/in.h</text>
</a>
</g>
</g>
<!-- Node1&#45;&gt;Node17 -->
<g id="edge16" class="edge">
<title>Node1&#45;&gt;Node17</title>
<path fill="none" stroke="midnightblue" d="M436.66,-226C473.54,-216.65 534.29,-201.25 575.35,-190.85"/>
<polygon fill="midnightblue" stroke="midnightblue" points="576.07,-194.27 584.9,-188.42 574.35,-187.49 576.07,-194.27"/>
</g>
<!-- Node18 -->
<g id="node18" class="node">
<title>Node18</title>
<g id="a_node18"><a xlink:title=" ">
<polygon fill="white" stroke="#bfbfbf" points="668.5,-169.25 668.5,-188.5 740.75,-188.5 740.75,-169.25 668.5,-169.25"/>
<text text-anchor="middle" x="704.62" y="-175" font-family="Helvetica,sans-Serif" font-size="10.00">sys/socket.h</text>
</a>
</g>
</g>
<!-- Node1&#45;&gt;Node18 -->
<g id="edge17" class="edge">
<title>Node1&#45;&gt;Node18</title>
<path fill="none" stroke="midnightblue" d="M436.88,-228.68C483.27,-220.8 571.83,-205.53 657.1,-189.44"/>
<polygon fill="midnightblue" stroke="midnightblue" points="657.63,-192.91 666.8,-187.61 656.33,-186.03 657.63,-192.91"/>
</g>
<!-- Node19 -->
<g id="node19" class="node">
<title>Node19</title>
<g id="a_node19"><a xlink:title=" ">
<polygon fill="white" stroke="#bfbfbf" points="758.75,-169.25 758.75,-188.5 820.5,-188.5 820.5,-169.25 758.75,-169.25"/>
<text text-anchor="middle" x="789.62" y="-175" font-family="Helvetica,sans-Serif" font-size="10.00">arpa/inet.h</text>
</a>
</g>
</g>
<!-- Node1&#45;&gt;Node19 -->
<g id="edge18" class="edge">
<title>Node1&#45;&gt;Node19</title>
<path fill="none" stroke="midnightblue" d="M436.65,-230.96C495.92,-224.87 626.91,-210.41 747.42,-189.24"/>
<polygon fill="midnightblue" stroke="midnightblue" points="747.95,-192.7 757.18,-187.5 746.73,-185.81 747.95,-192.7"/>
</g>
<!-- Node20 -->
<g id="node20" class="node">
<title>Node20</title>
<g id="a_node20"><a xlink:href="rxsock_8h.html" target="_top" xlink:title=" ">
<polygon fill="white" stroke="black" points="838.88,-169.25 838.88,-188.5 892.38,-188.5 892.38,-169.25 838.88,-169.25"/>
<text text-anchor="middle" x="865.62" y="-175" font-family="Helvetica,sans-Serif" font-size="10.00">rxsock.h</text>
</a>
</g>
</g>
<!-- Node1&#45;&gt;Node20 -->
<g id="edge19" class="edge">
<title>Node1&#45;&gt;Node20</title>
<path fill="none" stroke="midnightblue" d="M437.1,-232.26C506.79,-227.92 675.93,-215.59 827.26,-189.18"/>
<polygon fill="midnightblue" stroke="midnightblue" points="827.86,-192.63 837.1,-187.43 826.64,-185.73 827.86,-192.63"/>
</g>
<!-- Node8 -->
<g id="node8" class="node">
<title>Node8</title>
<g id="a_node8"><a xlink:href="rexx_8h.html" target="_top" xlink:title=" ">
<polygon fill="white" stroke="black" points="543.12,-56.75 543.12,-76 586.12,-76 586.12,-56.75 543.12,-56.75"/>
<text text-anchor="middle" x="564.62" y="-62.5" font-family="Helvetica,sans-Serif" font-size="10.00">rexx.h</text>
</a>
</g>
</g>
<!-- Node7&#45;&gt;Node8 -->
<g id="edge7" class="edge">
<title>Node7&#45;&gt;Node8</title>
<path fill="none" stroke="midnightblue" d="M597.18,-112.67C591.85,-105.24 584.09,-94.45 577.49,-85.27"/>
<polygon fill="midnightblue" stroke="midnightblue" points="580.51,-83.47 571.83,-77.4 574.82,-87.56 580.51,-83.47"/>
</g>
<!-- Node13 -->
<g id="node13" class="node">
<title>Node13</title>
<g id="a_node13"><a xlink:href="oorexxerrors_8h.html" target="_top" xlink:title=" ">
<polygon fill="white" stroke="black" points="604.5,-56.75 604.5,-76 682.75,-76 682.75,-56.75 604.5,-56.75"/>
<text text-anchor="middle" x="643.62" y="-62.5" font-family="Helvetica,sans-Serif" font-size="10.00">oorexxerrors.h</text>
</a>
</g>
</g>
<!-- Node7&#45;&gt;Node13 -->
<g id="edge12" class="edge">
<title>Node7&#45;&gt;Node13</title>
<path fill="none" stroke="midnightblue" d="M610.23,-112.67C615.71,-105.24 623.66,-94.45 630.43,-85.27"/>
<polygon fill="midnightblue" stroke="midnightblue" points="633.13,-87.51 636.24,-77.38 627.49,-83.36 633.13,-87.51"/>
</g>
<!-- Node9 -->
<g id="node9" class="node">
<title>Node9</title>
<g id="a_node9"><a xlink:title=" ">
<polygon fill="white" stroke="#bfbfbf" points="377.75,-0.5 377.75,-19.75 457.5,-19.75 457.5,-0.5 377.75,-0.5"/>
<text text-anchor="middle" x="417.62" y="-6.25" font-family="Helvetica,sans-Serif" font-size="10.00">rexxapitypes.h</text>
</a>
</g>
</g>
<!-- Node8&#45;&gt;Node9 -->
<g id="edge8" class="edge">
<title>Node8&#45;&gt;Node9</title>
<path fill="none" stroke="midnightblue" d="M542.93,-57.37C519.1,-48.58 480.49,-34.32 452.42,-23.96"/>
<polygon fill="midnightblue" stroke="midnightblue" points="453.87,-20.77 443.27,-20.59 451.44,-27.34 453.87,-20.77"/>
</g>
<!-- Node10 -->
<g id="node10" class="node">
<title>Node10</title>
<g id="a_node10"><a xlink:href="rexxapidefs_8h.html" target="_top" xlink:title=" ">
<polygon fill="white" stroke="black" points="475.38,-0.5 475.38,-19.75 549.88,-19.75 549.88,-0.5 475.38,-0.5"/>
<text text-anchor="middle" x="512.62" y="-6.25" font-family="Helvetica,sans-Serif" font-size="10.00">rexxapidefs.h</text>
</a>
</g>
</g>
<!-- Node8&#45;&gt;Node10 -->
<g id="edge9" class="edge">
<title>Node8&#45;&gt;Node10</title>
<path fill="none" stroke="midnightblue" d="M556.04,-56.42C548.69,-48.75 537.92,-37.51 528.94,-28.14"/>
<polygon fill="midnightblue" stroke="midnightblue" points="531.55,-25.81 522.1,-21.01 526.49,-30.65 531.55,-25.81"/>
</g>
<!-- Node11 -->
<g id="node11" class="node">
<title>Node11</title>
<g id="a_node11"><a xlink:title=" ">
<polygon fill="white" stroke="#bfbfbf" points="568.12,-0.5 568.12,-19.75 665.12,-19.75 665.12,-0.5 568.12,-0.5"/>
<text text-anchor="middle" x="616.62" y="-6.25" font-family="Helvetica,sans-Serif" font-size="10.00">rexxplatformdefs.h</text>
</a>
</g>
</g>
<!-- Node8&#45;&gt;Node11 -->
<g id="edge10" class="edge">
<title>Node8&#45;&gt;Node11</title>
<path fill="none" stroke="midnightblue" d="M573.21,-56.42C580.56,-48.75 591.33,-37.51 600.31,-28.14"/>
<polygon fill="midnightblue" stroke="midnightblue" points="602.76,-30.65 607.15,-21.01 597.7,-25.81 602.76,-30.65"/>
</g>
<!-- Node12 -->
<g id="node12" class="node">
<title>Node12</title>
<g id="a_node12"><a xlink:title=" ">
<polygon fill="white" stroke="#bfbfbf" points="683.5,-0.5 683.5,-19.75 779.75,-19.75 779.75,-0.5 683.5,-0.5"/>
<text text-anchor="middle" x="731.62" y="-6.25" font-family="Helvetica,sans-Serif" font-size="10.00">rexxplatformapis.h</text>
</a>
</g>
</g>
<!-- Node8&#45;&gt;Node12 -->
<g id="edge11" class="edge">
<title>Node8&#45;&gt;Node12</title>
<path fill="none" stroke="midnightblue" d="M586.46,-58.28C613.46,-49.51 659.92,-34.42 693,-23.67"/>
<polygon fill="midnightblue" stroke="midnightblue" points="693.79,-27.1 702.22,-20.68 691.63,-20.44 693.79,-27.1"/>
</g>
<!-- Node20&#45;&gt;Node7 -->
<g id="edge20" class="edge">
<title>Node20&#45;&gt;Node7</title>
<path fill="none" stroke="midnightblue" d="M838.53,-170.85C835.53,-170.12 832.52,-169.4 829.62,-168.75 766.98,-154.57 694.04,-140.43 648.34,-131.85"/>
<polygon fill="midnightblue" stroke="midnightblue" points="649.01,-128.42 638.54,-130.02 647.73,-135.3 649.01,-128.42"/>
</g>
</g>
</svg>
