<?xml version="1.0" encoding="UTF-8" standalone="no"?>
<!DOCTYPE svg PUBLIC "-//W3C//DTD SVG 1.1//EN"
 "http://www.w3.org/Graphics/SVG/1.1/DTD/svg11.dtd">
<!-- Generated by graphviz version 12.1.0 (20240811.2233)
 -->
<!-- Title: hostemu.cpp Pages: 1 -->
<svg width="760pt" height="197pt"
 viewBox="0.00 0.00 759.62 197.00" xmlns="http://www.w3.org/2000/svg" xmlns:xlink="http://www.w3.org/1999/xlink">
<g id="graph0" class="graph" transform="scale(1 1) rotate(0) translate(4 193)">
<title>hostemu.cpp</title>
<polygon fill="white" stroke="none" points="-4,4 -4,-193 755.62,-193 755.62,4 -4,4"/>
<!-- Node1 -->
<g id="node1" class="node">
<title>Node1</title>
<g id="a_node1"><a xlink:title=" ">
<polygon fill="#bfbfbf" stroke="black" points="305.62,-169.25 305.62,-188.5 377.88,-188.5 377.88,-169.25 305.62,-169.25"/>
<text text-anchor="middle" x="341.75" y="-175" font-family="Helvetica,sans-Serif" font-size="10.00">hostemu.cpp</text>
</a>
</g>
</g>
<!-- Node2 -->
<g id="node2" class="node">
<title>Node2</title>
<g id="a_node2"><a xlink:title=" ">
<polygon fill="white" stroke="#bfbfbf" points="0,-113 0,-132.25 47.5,-132.25 47.5,-113 0,-113"/>
<text text-anchor="middle" x="23.75" y="-118.75" font-family="Helvetica,sans-Serif" font-size="10.00">stdlib.h</text>
</a>
</g>
</g>
<!-- Node1&#45;&gt;Node2 -->
<g id="edge1" class="edge">
<title>Node1&#45;&gt;Node2</title>
<path fill="none" stroke="midnightblue" d="M305.52,-173.47C253.21,-166.82 153.35,-153.05 59,-133.03"/>
<polygon fill="midnightblue" stroke="midnightblue" points="59.82,-129.62 49.3,-130.94 58.34,-136.47 59.82,-129.62"/>
</g>
<!-- Node3 -->
<g id="node3" class="node">
<title>Node3</title>
<g id="a_node3"><a xlink:title=" ">
<polygon fill="white" stroke="#bfbfbf" points="65.62,-113 65.62,-132.25 113.88,-132.25 113.88,-113 65.62,-113"/>
<text text-anchor="middle" x="89.75" y="-118.75" font-family="Helvetica,sans-Serif" font-size="10.00">string.h</text>
</a>
</g>
</g>
<!-- Node1&#45;&gt;Node3 -->
<g id="edge2" class="edge">
<title>Node1&#45;&gt;Node3</title>
<path fill="none" stroke="midnightblue" d="M305.16,-171.11C263.76,-163.28 194.07,-149.6 125.24,-133.23"/>
<polygon fill="midnightblue" stroke="midnightblue" points="126.22,-129.87 115.68,-130.94 124.59,-136.68 126.22,-129.87"/>
</g>
<!-- Node4 -->
<g id="node4" class="node">
<title>Node4</title>
<g id="a_node4"><a xlink:title=" ">
<polygon fill="white" stroke="#bfbfbf" points="132.12,-113 132.12,-132.25 177.38,-132.25 177.38,-113 132.12,-113"/>
<text text-anchor="middle" x="154.75" y="-118.75" font-family="Helvetica,sans-Serif" font-size="10.00">stdio.h</text>
</a>
</g>
</g>
<!-- Node1&#45;&gt;Node4 -->
<g id="edge3" class="edge">
<title>Node1&#45;&gt;Node4</title>
<path fill="none" stroke="midnightblue" d="M310.45,-168.79C276.82,-159.04 223.55,-143.58 188.87,-133.52"/>
<polygon fill="midnightblue" stroke="midnightblue" points="189.91,-130.18 179.33,-130.75 187.96,-136.9 189.91,-130.18"/>
</g>
<!-- Node5 -->
<g id="node5" class="node">
<title>Node5</title>
<g id="a_node5"><a xlink:title=" ">
<polygon fill="white" stroke="#bfbfbf" points="195.25,-113 195.25,-132.25 262.25,-132.25 262.25,-113 195.25,-113"/>
<text text-anchor="middle" x="228.75" y="-118.75" font-family="Helvetica,sans-Serif" font-size="10.00">sys/types.h</text>
</a>
</g>
</g>
<!-- Node1&#45;&gt;Node5 -->
<g id="edge4" class="edge">
<title>Node1&#45;&gt;Node5</title>
<path fill="none" stroke="midnightblue" d="M322.84,-168.79C305.15,-160.31 278.49,-147.5 258.05,-137.69"/>
<polygon fill="midnightblue" stroke="midnightblue" points="259.62,-134.56 249.09,-133.39 256.59,-140.87 259.62,-134.56"/>
</g>
<!-- Node6 -->
<g id="node6" class="node">
<title>Node6</title>
<g id="a_node6"><a xlink:title=" ">
<polygon fill="white" stroke="#bfbfbf" points="280.5,-113 280.5,-132.25 331,-132.25 331,-113 280.5,-113"/>
<text text-anchor="middle" x="305.75" y="-118.75" font-family="Helvetica,sans-Serif" font-size="10.00">unistd.h</text>
</a>
</g>
</g>
<!-- Node1&#45;&gt;Node6 -->
<g id="edge5" class="edge">
<title>Node1&#45;&gt;Node6</title>
<path fill="none" stroke="midnightblue" d="M335.81,-168.92C330.93,-161.57 323.87,-150.93 317.82,-141.81"/>
<polygon fill="midnightblue" stroke="midnightblue" points="320.87,-140.07 312.42,-133.68 315.03,-143.95 320.87,-140.07"/>
</g>
<!-- Node7 -->
<g id="node7" class="node">
<title>Node7</title>
<g id="a_node7"><a xlink:title=" ">
<polygon fill="white" stroke="#bfbfbf" points="349.5,-113 349.5,-132.25 406,-132.25 406,-113 349.5,-113"/>
<text text-anchor="middle" x="377.75" y="-118.75" font-family="Helvetica,sans-Serif" font-size="10.00">pthread.h</text>
</a>
</g>
</g>
<!-- Node1&#45;&gt;Node7 -->
<g id="edge6" class="edge">
<title>Node1&#45;&gt;Node7</title>
<path fill="none" stroke="midnightblue" d="M347.69,-168.92C352.57,-161.57 359.63,-150.93 365.68,-141.81"/>
<polygon fill="midnightblue" stroke="midnightblue" points="368.47,-143.95 371.08,-133.68 362.63,-140.07 368.47,-143.95"/>
</g>
<!-- Node8 -->
<g id="node8" class="node">
<title>Node8</title>
<g id="a_node8"><a xlink:href="rexx_8h.html" target="_top" xlink:title=" ">
<polygon fill="white" stroke="black" points="412.25,-56.75 412.25,-76 455.25,-76 455.25,-56.75 412.25,-56.75"/>
<text text-anchor="middle" x="433.75" y="-62.5" font-family="Helvetica,sans-Serif" font-size="10.00">rexx.h</text>
</a>
</g>
</g>
<!-- Node1&#45;&gt;Node8 -->
<g id="edge7" class="edge">
<title>Node1&#45;&gt;Node8</title>
<path fill="none" stroke="midnightblue" d="M365.01,-168.86C381.18,-161.47 402.04,-149.47 414.75,-132.75 424.72,-119.64 429.46,-101.43 431.72,-87.56"/>
<polygon fill="midnightblue" stroke="midnightblue" points="435.17,-88.18 432.97,-77.81 428.23,-87.28 435.17,-88.18"/>
</g>
<!-- Node13 -->
<g id="node13" class="node">
<title>Node13</title>
<g id="a_node13"><a xlink:href="oorexxapi_8h.html" target="_top" xlink:title=" ">
<polygon fill="white" stroke="black" points="461.62,-113 461.62,-132.25 527.88,-132.25 527.88,-113 461.62,-113"/>
<text text-anchor="middle" x="494.75" y="-118.75" font-family="Helvetica,sans-Serif" font-size="10.00">oorexxapi.h</text>
</a>
</g>
</g>
<!-- Node1&#45;&gt;Node13 -->
<g id="edge12" class="edge">
<title>Node1&#45;&gt;Node13</title>
<path fill="none" stroke="midnightblue" d="M367.36,-168.79C392.29,-159.95 430.43,-146.43 458.47,-136.49"/>
<polygon fill="midnightblue" stroke="midnightblue" points="459.38,-139.88 467.63,-133.24 457.04,-133.28 459.38,-139.88"/>
</g>
<!-- Node15 -->
<g id="node15" class="node">
<title>Node15</title>
<g id="a_node15"><a xlink:title=" ">
<polygon fill="white" stroke="#bfbfbf" points="546,-113 546,-132.25 653.5,-132.25 653.5,-113 546,-113"/>
<text text-anchor="middle" x="599.75" y="-118.75" font-family="Helvetica,sans-Serif" font-size="10.00">PlatformDefinitions.h</text>
</a>
</g>
</g>
<!-- Node1&#45;&gt;Node15 -->
<g id="edge15" class="edge">
<title>Node1&#45;&gt;Node15</title>
<path fill="none" stroke="midnightblue" d="M378.17,-170.22C421.82,-161.04 495.35,-145.58 545.65,-135"/>
<polygon fill="midnightblue" stroke="midnightblue" points="546.09,-138.48 555.16,-133 544.65,-131.63 546.09,-138.48"/>
</g>
<!-- Node16 -->
<g id="node16" class="node">
<title>Node16</title>
<g id="a_node16"><a xlink:href="hostemu_8h.html" target="_top" xlink:title=" ">
<polygon fill="white" stroke="black" points="671.88,-113 671.88,-132.25 751.62,-132.25 751.62,-113 671.88,-113"/>
<text text-anchor="middle" x="711.75" y="-118.75" font-family="Helvetica,sans-Serif" font-size="10.00">../../hostemu.h</text>
</a>
</g>
</g>
<!-- Node1&#45;&gt;Node16 -->
<g id="edge16" class="edge">
<title>Node1&#45;&gt;Node16</title>
<path fill="none" stroke="midnightblue" d="M377.93,-173.32C435.48,-165.96 551.67,-150.64 660.24,-133.1"/>
<polygon fill="midnightblue" stroke="midnightblue" points="660.6,-136.59 669.9,-131.53 659.47,-129.68 660.6,-136.59"/>
</g>
<!-- Node9 -->
<g id="node9" class="node">
<title>Node9</title>
<g id="a_node9"><a xlink:title=" ">
<polygon fill="white" stroke="#bfbfbf" points="246.88,-0.5 246.88,-19.75 326.62,-19.75 326.62,-0.5 246.88,-0.5"/>
<text text-anchor="middle" x="286.75" y="-6.25" font-family="Helvetica,sans-Serif" font-size="10.00">rexxapitypes.h</text>
</a>
</g>
</g>
<!-- Node8&#45;&gt;Node9 -->
<g id="edge8" class="edge">
<title>Node8&#45;&gt;Node9</title>
<path fill="none" stroke="midnightblue" d="M412.06,-57.37C388.23,-48.58 349.61,-34.32 321.54,-23.96"/>
<polygon fill="midnightblue" stroke="midnightblue" points="322.99,-20.77 312.4,-20.59 320.57,-27.34 322.99,-20.77"/>
</g>
<!-- Node10 -->
<g id="node10" class="node">
<title>Node10</title>
<g id="a_node10"><a xlink:href="rexxapidefs_8h.html" target="_top" xlink:title=" ">
<polygon fill="white" stroke="black" points="344.5,-0.5 344.5,-19.75 419,-19.75 419,-0.5 344.5,-0.5"/>
<text text-anchor="middle" x="381.75" y="-6.25" font-family="Helvetica,sans-Serif" font-size="10.00">rexxapidefs.h</text>
</a>
</g>
</g>
<!-- Node8&#45;&gt;Node10 -->
<g id="edge9" class="edge">
<title>Node8&#45;&gt;Node10</title>
<path fill="none" stroke="midnightblue" d="M425.16,-56.42C417.82,-48.75 407.04,-37.51 398.06,-28.14"/>
<polygon fill="midnightblue" stroke="midnightblue" points="400.67,-25.81 391.22,-21.01 395.62,-30.65 400.67,-25.81"/>
</g>
<!-- Node11 -->
<g id="node11" class="node">
<title>Node11</title>
<g id="a_node11"><a xlink:title=" ">
<polygon fill="white" stroke="#bfbfbf" points="437.25,-0.5 437.25,-19.75 534.25,-19.75 534.25,-0.5 437.25,-0.5"/>
<text text-anchor="middle" x="485.75" y="-6.25" font-family="Helvetica,sans-Serif" font-size="10.00">rexxplatformdefs.h</text>
</a>
</g>
</g>
<!-- Node8&#45;&gt;Node11 -->
<g id="edge10" class="edge">
<title>Node8&#45;&gt;Node11</title>
<path fill="none" stroke="midnightblue" d="M442.34,-56.42C449.68,-48.75 460.46,-37.51 469.44,-28.14"/>
<polygon fill="midnightblue" stroke="midnightblue" points="471.88,-30.65 476.28,-21.01 466.83,-25.81 471.88,-30.65"/>
</g>
<!-- Node12 -->
<g id="node12" class="node">
<title>Node12</title>
<g id="a_node12"><a xlink:title=" ">
<polygon fill="white" stroke="#bfbfbf" points="552.62,-0.5 552.62,-19.75 648.88,-19.75 648.88,-0.5 552.62,-0.5"/>
<text text-anchor="middle" x="600.75" y="-6.25" font-family="Helvetica,sans-Serif" font-size="10.00">rexxplatformapis.h</text>
</a>
</g>
</g>
<!-- Node8&#45;&gt;Node12 -->
<g id="edge11" class="edge">
<title>Node8&#45;&gt;Node12</title>
<path fill="none" stroke="midnightblue" d="M455.58,-58.28C482.59,-49.51 529.04,-34.42 562.13,-23.67"/>
<polygon fill="midnightblue" stroke="midnightblue" points="562.92,-27.1 571.35,-20.68 560.75,-20.44 562.92,-27.1"/>
</g>
<!-- Node13&#45;&gt;Node8 -->
<g id="edge13" class="edge">
<title>Node13&#45;&gt;Node8</title>
<path fill="none" stroke="midnightblue" d="M484.68,-112.67C475.88,-104.85 462.9,-93.3 452.24,-83.82"/>
<polygon fill="midnightblue" stroke="midnightblue" points="454.56,-81.2 444.77,-77.17 449.91,-86.43 454.56,-81.2"/>
</g>
<!-- Node14 -->
<g id="node14" class="node">
<title>Node14</title>
<g id="a_node14"><a xlink:href="oorexxerrors_8h.html" target="_top" xlink:title=" ">
<polygon fill="white" stroke="black" points="473.62,-56.75 473.62,-76 551.88,-76 551.88,-56.75 473.62,-56.75"/>
<text text-anchor="middle" x="512.75" y="-62.5" font-family="Helvetica,sans-Serif" font-size="10.00">oorexxerrors.h</text>
</a>
</g>
</g>
<!-- Node13&#45;&gt;Node14 -->
<g id="edge14" class="edge">
<title>Node13&#45;&gt;Node14</title>
<path fill="none" stroke="midnightblue" d="M497.72,-112.67C500.03,-105.71 503.31,-95.82 506.22,-87.05"/>
<polygon fill="midnightblue" stroke="midnightblue" points="509.53,-88.2 509.36,-77.6 502.89,-85.99 509.53,-88.2"/>
</g>
</g>
</svg>
