<?xml version="1.0" encoding="UTF-8" standalone="no"?>
<!DOCTYPE svg PUBLIC "-//W3C//DTD SVG 1.1//EN"
 "http://www.w3.org/Graphics/SVG/1.1/DTD/svg11.dtd">
<!-- Generated by graphviz version 12.1.0 (20240811.2233)
 -->
<!-- Title: SysSemaphore.cpp Pages: 1 -->
<svg width="434pt" height="253pt"
 viewBox="0.00 0.00 434.38 253.25" xmlns="http://www.w3.org/2000/svg" xmlns:xlink="http://www.w3.org/1999/xlink">
<g id="graph0" class="graph" transform="scale(1 1) rotate(0) translate(4 249.25)">
<title>SysSemaphore.cpp</title>
<polygon fill="white" stroke="none" points="-4,4 -4,-249.25 430.38,-249.25 430.38,4 -4,4"/>
<!-- Node1 -->
<g id="node1" class="node">
<title>Node1</title>
<g id="a_node1"><a xlink:title=" ">
<polygon fill="#bfbfbf" stroke="black" points="164.5,-225.5 164.5,-244.75 266,-244.75 266,-225.5 164.5,-225.5"/>
<text text-anchor="middle" x="215.25" y="-231.25" font-family="Helvetica,sans-Serif" font-size="10.00">SysSemaphore.cpp</text>
</a>
</g>
</g>
<!-- Node2 -->
<g id="node2" class="node">
<title>Node2</title>
<g id="a_node2"><a xlink:title=" ">
<polygon fill="white" stroke="#bfbfbf" points="0,-113 0,-132.25 56.5,-132.25 56.5,-113 0,-113"/>
<text text-anchor="middle" x="28.25" y="-118.75" font-family="Helvetica,sans-Serif" font-size="10.00">pthread.h</text>
</a>
</g>
</g>
<!-- Node1&#45;&gt;Node2 -->
<g id="edge1" class="edge">
<title>Node1&#45;&gt;Node2</title>
<path fill="none" stroke="midnightblue" d="M183.85,-225.02C160.13,-217.38 127.32,-205.12 101.25,-189 79.2,-175.37 57.54,-154.8 43.61,-140.39"/>
<polygon fill="midnightblue" stroke="midnightblue" points="46.45,-138.3 37.04,-133.43 41.36,-143.1 46.45,-138.3"/>
</g>
<!-- Node3 -->
<g id="node3" class="node">
<title>Node3</title>
<g id="a_node3"><a xlink:title=" ">
<polygon fill="white" stroke="#bfbfbf" points="283.25,-169.25 283.25,-188.5 341.25,-188.5 341.25,-169.25 283.25,-169.25"/>
<text text-anchor="middle" x="312.25" y="-175" font-family="Helvetica,sans-Serif" font-size="10.00">memory.h</text>
</a>
</g>
</g>
<!-- Node1&#45;&gt;Node3 -->
<g id="edge2" class="edge">
<title>Node1&#45;&gt;Node3</title>
<path fill="none" stroke="midnightblue" d="M231.27,-225.17C246.29,-216.76 269.01,-204.06 286.57,-194.24"/>
<polygon fill="midnightblue" stroke="midnightblue" points="287.87,-197.52 294.89,-189.59 284.45,-191.41 287.87,-197.52"/>
</g>
<!-- Node4 -->
<g id="node4" class="node">
<title>Node4</title>
<g id="a_node4"><a xlink:title=" ">
<polygon fill="white" stroke="#bfbfbf" points="74.62,-113 74.62,-132.25 119.88,-132.25 119.88,-113 74.62,-113"/>
<text text-anchor="middle" x="97.25" y="-118.75" font-family="Helvetica,sans-Serif" font-size="10.00">stdio.h</text>
</a>
</g>
</g>
<!-- Node1&#45;&gt;Node4 -->
<g id="edge3" class="edge">
<title>Node1&#45;&gt;Node4</title>
<path fill="none" stroke="midnightblue" d="M177.12,-225.12C156.43,-218.39 131.94,-207.15 116.25,-189 105.36,-176.41 100.7,-157.88 98.71,-143.76"/>
<polygon fill="midnightblue" stroke="midnightblue" points="102.2,-143.42 97.69,-133.83 95.23,-144.14 102.2,-143.42"/>
</g>
<!-- Node5 -->
<g id="node5" class="node">
<title>Node5</title>
<g id="a_node5"><a xlink:title=" ">
<polygon fill="white" stroke="#bfbfbf" points="359.25,-169.25 359.25,-188.5 405.25,-188.5 405.25,-169.25 359.25,-169.25"/>
<text text-anchor="middle" x="382.25" y="-175" font-family="Helvetica,sans-Serif" font-size="10.00">errno.h</text>
</a>
</g>
</g>
<!-- Node1&#45;&gt;Node5 -->
<g id="edge4" class="edge">
<title>Node1&#45;&gt;Node5</title>
<path fill="none" stroke="midnightblue" d="M243.2,-225.04C272.06,-215.67 317.13,-201.03 348.09,-190.97"/>
<polygon fill="midnightblue" stroke="midnightblue" points="348.93,-194.38 357.36,-187.96 346.77,-187.72 348.93,-194.38"/>
</g>
<!-- Node6 -->
<g id="node6" class="node">
<title>Node6</title>
<g id="a_node6"><a xlink:href="unix_2_sys_semaphore_8hpp.html" target="_top" xlink:title=" ">
<polygon fill="white" stroke="black" points="125.5,-169.25 125.5,-188.5 227,-188.5 227,-169.25 125.5,-169.25"/>
<text text-anchor="middle" x="176.25" y="-175" font-family="Helvetica,sans-Serif" font-size="10.00">SysSemaphore.hpp</text>
</a>
</g>
</g>
<!-- Node1&#45;&gt;Node6 -->
<g id="edge5" class="edge">
<title>Node1&#45;&gt;Node6</title>
<path fill="none" stroke="midnightblue" d="M208.81,-225.17C203.47,-217.74 195.72,-206.95 189.11,-197.77"/>
<polygon fill="midnightblue" stroke="midnightblue" points="192.13,-195.97 183.45,-189.9 186.45,-200.06 192.13,-195.97"/>
</g>
<!-- Node13 -->
<g id="node13" class="node">
<title>Node13</title>
<g id="a_node13"><a xlink:href="unix_2_sys_debug_8hpp.html" target="_top" xlink:title=" ">
<polygon fill="white" stroke="black" points="327,-113 327,-132.25 407.5,-132.25 407.5,-113 327,-113"/>
<text text-anchor="middle" x="367.25" y="-118.75" font-family="Helvetica,sans-Serif" font-size="10.00">SysDebug.hpp</text>
</a>
</g>
</g>
<!-- Node1&#45;&gt;Node13 -->
<g id="edge19" class="edge">
<title>Node1&#45;&gt;Node13</title>
<path fill="none" stroke="midnightblue" d="M221.61,-225.08C231.57,-211.45 252,-185.46 274.25,-168.75 291.68,-155.66 313.51,-144.83 331.64,-137.07"/>
<polygon fill="midnightblue" stroke="midnightblue" points="332.79,-140.38 340.7,-133.32 330.12,-133.91 332.79,-140.38"/>
</g>
<!-- Node6&#45;&gt;Node2 -->
<g id="edge6" class="edge">
<title>Node6&#45;&gt;Node2</title>
<path fill="none" stroke="midnightblue" d="M151.48,-168.79C127.47,-159.99 90.8,-146.55 63.7,-136.62"/>
<polygon fill="midnightblue" stroke="midnightblue" points="65.12,-133.41 54.52,-133.26 62.71,-139.98 65.12,-133.41"/>
</g>
<!-- Node6&#45;&gt;Node4 -->
<g id="edge8" class="edge">
<title>Node6&#45;&gt;Node4</title>
<path fill="none" stroke="midnightblue" d="M163.2,-168.92C151.43,-160.83 133.84,-148.75 119.79,-139.1"/>
<polygon fill="midnightblue" stroke="midnightblue" points="121.79,-136.23 111.56,-133.45 117.82,-142 121.79,-136.23"/>
</g>
<!-- Node7 -->
<g id="node7" class="node">
<title>Node7</title>
<g id="a_node7"><a xlink:title=" ">
<polygon fill="white" stroke="#bfbfbf" points="137.5,-113 137.5,-132.25 185,-132.25 185,-113 137.5,-113"/>
<text text-anchor="middle" x="161.25" y="-118.75" font-family="Helvetica,sans-Serif" font-size="10.00">stdlib.h</text>
</a>
</g>
</g>
<!-- Node6&#45;&gt;Node7 -->
<g id="edge7" class="edge">
<title>Node6&#45;&gt;Node7</title>
<path fill="none" stroke="midnightblue" d="M173.77,-168.92C171.85,-161.96 169.11,-152.07 166.69,-143.3"/>
<polygon fill="midnightblue" stroke="midnightblue" points="170.12,-142.58 164.08,-133.88 163.38,-144.45 170.12,-142.58"/>
</g>
<!-- Node8 -->
<g id="node8" class="node">
<title>Node8</title>
<g id="a_node8"><a xlink:href="rexx_8h.html" target="_top" xlink:title=" ">
<polygon fill="white" stroke="black" points="189.75,-56.75 189.75,-76 232.75,-76 232.75,-56.75 189.75,-56.75"/>
<text text-anchor="middle" x="211.25" y="-62.5" font-family="Helvetica,sans-Serif" font-size="10.00">rexx.h</text>
</a>
</g>
</g>
<!-- Node6&#45;&gt;Node8 -->
<g id="edge9" class="edge">
<title>Node6&#45;&gt;Node8</title>
<path fill="none" stroke="midnightblue" d="M180.17,-169.01C184.06,-159.99 190.04,-145.57 194.25,-132.75 199.18,-117.72 203.64,-100.38 206.75,-87.33"/>
<polygon fill="midnightblue" stroke="midnightblue" points="210.1,-88.37 208.95,-77.83 203.28,-86.79 210.1,-88.37"/>
</g>
<!-- Node6&#45;&gt;Node13 -->
<g id="edge14" class="edge">
<title>Node6&#45;&gt;Node13</title>
<path fill="none" stroke="midnightblue" d="M208.22,-168.79C240.03,-159.76 289.06,-145.83 324.27,-135.83"/>
<polygon fill="midnightblue" stroke="midnightblue" points="325.06,-139.25 333.72,-133.15 323.14,-132.51 325.06,-139.25"/>
</g>
<!-- Node14 -->
<g id="node14" class="node">
<title>Node14</title>
<g id="a_node14"><a xlink:href="_utilities_8hpp.html" target="_top" xlink:title=" ">
<polygon fill="white" stroke="black" points="241.38,-113 241.38,-132.25 309.12,-132.25 309.12,-113 241.38,-113"/>
<text text-anchor="middle" x="275.25" y="-118.75" font-family="Helvetica,sans-Serif" font-size="10.00">Utilities.hpp</text>
</a>
</g>
</g>
<!-- Node6&#45;&gt;Node14 -->
<g id="edge15" class="edge">
<title>Node6&#45;&gt;Node14</title>
<path fill="none" stroke="midnightblue" d="M192.6,-168.92C207.86,-160.55 230.9,-147.93 248.79,-138.13"/>
<polygon fill="midnightblue" stroke="midnightblue" points="250.46,-141.2 257.55,-133.32 247.1,-135.06 250.46,-141.2"/>
</g>
<!-- Node9 -->
<g id="node9" class="node">
<title>Node9</title>
<g id="a_node9"><a xlink:title=" ">
<polygon fill="white" stroke="#bfbfbf" points="24.38,-0.5 24.38,-19.75 104.12,-19.75 104.12,-0.5 24.38,-0.5"/>
<text text-anchor="middle" x="64.25" y="-6.25" font-family="Helvetica,sans-Serif" font-size="10.00">rexxapitypes.h</text>
</a>
</g>
</g>
<!-- Node8&#45;&gt;Node9 -->
<g id="edge10" class="edge">
<title>Node8&#45;&gt;Node9</title>
<path fill="none" stroke="midnightblue" d="M189.56,-57.37C165.73,-48.58 127.11,-34.32 99.04,-23.96"/>
<polygon fill="midnightblue" stroke="midnightblue" points="100.49,-20.77 89.9,-20.59 98.07,-27.34 100.49,-20.77"/>
</g>
<!-- Node10 -->
<g id="node10" class="node">
<title>Node10</title>
<g id="a_node10"><a xlink:href="rexxapidefs_8h.html" target="_top" xlink:title=" ">
<polygon fill="white" stroke="black" points="122,-0.5 122,-19.75 196.5,-19.75 196.5,-0.5 122,-0.5"/>
<text text-anchor="middle" x="159.25" y="-6.25" font-family="Helvetica,sans-Serif" font-size="10.00">rexxapidefs.h</text>
</a>
</g>
</g>
<!-- Node8&#45;&gt;Node10 -->
<g id="edge11" class="edge">
<title>Node8&#45;&gt;Node10</title>
<path fill="none" stroke="midnightblue" d="M202.66,-56.42C195.32,-48.75 184.54,-37.51 175.56,-28.14"/>
<polygon fill="midnightblue" stroke="midnightblue" points="178.17,-25.81 168.72,-21.01 173.12,-30.65 178.17,-25.81"/>
</g>
<!-- Node11 -->
<g id="node11" class="node">
<title>Node11</title>
<g id="a_node11"><a xlink:title=" ">
<polygon fill="white" stroke="#bfbfbf" points="214.75,-0.5 214.75,-19.75 311.75,-19.75 311.75,-0.5 214.75,-0.5"/>
<text text-anchor="middle" x="263.25" y="-6.25" font-family="Helvetica,sans-Serif" font-size="10.00">rexxplatformdefs.h</text>
</a>
</g>
</g>
<!-- Node8&#45;&gt;Node11 -->
<g id="edge12" class="edge">
<title>Node8&#45;&gt;Node11</title>
<path fill="none" stroke="midnightblue" d="M219.84,-56.42C227.18,-48.75 237.96,-37.51 246.94,-28.14"/>
<polygon fill="midnightblue" stroke="midnightblue" points="249.38,-30.65 253.78,-21.01 244.33,-25.81 249.38,-30.65"/>
</g>
<!-- Node12 -->
<g id="node12" class="node">
<title>Node12</title>
<g id="a_node12"><a xlink:title=" ">
<polygon fill="white" stroke="#bfbfbf" points="330.12,-0.5 330.12,-19.75 426.38,-19.75 426.38,-0.5 330.12,-0.5"/>
<text text-anchor="middle" x="378.25" y="-6.25" font-family="Helvetica,sans-Serif" font-size="10.00">rexxplatformapis.h</text>
</a>
</g>
</g>
<!-- Node8&#45;&gt;Node12 -->
<g id="edge13" class="edge">
<title>Node8&#45;&gt;Node12</title>
<path fill="none" stroke="midnightblue" d="M233.08,-58.28C260.09,-49.51 306.54,-34.42 339.63,-23.67"/>
<polygon fill="midnightblue" stroke="midnightblue" points="340.42,-27.1 348.85,-20.68 338.25,-20.44 340.42,-27.1"/>
</g>
<!-- Node14&#45;&gt;Node8 -->
<g id="edge16" class="edge">
<title>Node14&#45;&gt;Node8</title>
<path fill="none" stroke="midnightblue" d="M264.68,-112.67C255.36,-104.77 241.55,-93.06 230.31,-83.53"/>
<polygon fill="midnightblue" stroke="midnightblue" points="232.67,-80.94 222.78,-77.15 228.14,-86.28 232.67,-80.94"/>
</g>
<!-- Node15 -->
<g id="node15" class="node">
<title>Node15</title>
<g id="a_node15"><a xlink:title=" ">
<polygon fill="white" stroke="#bfbfbf" points="319.75,-56.75 319.75,-76 386.75,-76 386.75,-56.75 319.75,-56.75"/>
<text text-anchor="middle" x="353.25" y="-62.5" font-family="Helvetica,sans-Serif" font-size="10.00">sys/types.h</text>
</a>
</g>
</g>
<!-- Node14&#45;&gt;Node15 -->
<g id="edge17" class="edge">
<title>Node14&#45;&gt;Node15</title>
<path fill="none" stroke="midnightblue" d="M288.13,-112.67C299.76,-104.58 317.12,-92.5 331,-82.85"/>
<polygon fill="midnightblue" stroke="midnightblue" points="332.9,-85.79 339.11,-77.21 328.9,-80.05 332.9,-85.79"/>
</g>
<!-- Node16 -->
<g id="node16" class="node">
<title>Node16</title>
<g id="a_node16"><a xlink:title=" ">
<polygon fill="white" stroke="#bfbfbf" points="250.62,-56.75 250.62,-76 301.88,-76 301.88,-56.75 250.62,-56.75"/>
<text text-anchor="middle" x="276.25" y="-62.5" font-family="Helvetica,sans-Serif" font-size="10.00">stdarg.h</text>
</a>
</g>
</g>
<!-- Node14&#45;&gt;Node16 -->
<g id="edge18" class="edge">
<title>Node14&#45;&gt;Node16</title>
<path fill="none" stroke="midnightblue" d="M275.42,-112.67C275.54,-105.87 275.72,-96.26 275.88,-87.65"/>
<polygon fill="midnightblue" stroke="midnightblue" points="279.38,-87.74 276.06,-77.68 272.38,-87.61 279.38,-87.74"/>
</g>
</g>
</svg>
