<?xml version="1.0" encoding="UTF-8" standalone="no"?>
<!DOCTYPE svg PUBLIC "-//W3C//DTD SVG 1.1//EN"
 "http://www.w3.org/Graphics/SVG/1.1/DTD/svg11.dtd">
<!-- Generated by graphviz version 2.30.1 (20130222.1704)
 -->
<!-- Title: SystemInitialization.cpp Pages: 1 -->
<svg width="2804pt" height="378pt"
 viewBox="0.00 0.00 2804.00 378.00" xmlns="http://www.w3.org/2000/svg" xmlns:xlink="http://www.w3.org/1999/xlink">
<g id="graph0" class="graph" transform="scale(1 1) rotate(0) translate(4 374)">
<title>SystemInitialization.cpp</title>
<polygon fill="white" stroke="white" points="-4,5 -4,-374 2801,-374 2801,5 -4,5"/>
<!-- Node1 -->
<g id="node1" class="node"><title>Node1</title>
<g id="a_node1"><a xlink:title=" ">
<polygon fill="#bfbfbf" stroke="black" points="1018.75,-349 1018.75,-369 1139.25,-369 1139.25,-349 1018.75,-349"/>
<text text-anchor="middle" x="1079" y="-355" font-family="Helvetica,sans-Serif" font-size="10.00">SystemInitialization.cpp</text>
</a>
</g>
</g>
<!-- Node2 -->
<g id="node2" class="node"><title>Node2</title>
<g id="a_node2"><a xlink:href="_rexx_core_8h.html" target="_top" xlink:title=" ">
<polygon fill="white" stroke="black" points="1044.6,-233 1044.6,-253 1113.4,-253 1113.4,-233 1044.6,-233"/>
<text text-anchor="middle" x="1079" y="-239" font-family="Helvetica,sans-Serif" font-size="10.00">RexxCore.h</text>
</a>
</g>
</g>
<!-- Node1&#45;&gt;Node2 -->
<g id="edge1" class="edge"><title>Node1&#45;&gt;Node2</title>
<path fill="none" stroke="midnightblue" d="M1072.89,-348.974C1067.24,-340.034 1059.24,-325.73 1056,-312 1053.75,-302.484 1053.75,-299.516 1056,-290 1058.33,-280.132 1063.12,-269.966 1067.73,-261.71"/>
<polygon fill="midnightblue" stroke="midnightblue" points="1070.79,-263.409 1072.89,-253.026 1064.77,-259.829 1070.79,-263.409"/>
</g>
<!-- Node68 -->
<g id="node50" class="node"><title>Node68</title>
<g id="a_node50"><a xlink:href="unix_2_system_interpreter_8hpp.html" target="_top" xlink:title=" ">
<polygon fill="white" stroke="black" points="1064.81,-291 1064.81,-311 1179.19,-311 1179.19,-291 1064.81,-291"/>
<text text-anchor="middle" x="1122" y="-297" font-family="Helvetica,sans-Serif" font-size="10.00">SystemInterpreter.hpp</text>
</a>
</g>
</g>
<!-- Node1&#45;&gt;Node68 -->
<g id="edge55" class="edge"><title>Node1&#45;&gt;Node68</title>
<path fill="none" stroke="midnightblue" d="M1086.1,-348.753C1092.24,-340.761 1101.27,-328.998 1108.74,-319.27"/>
<polygon fill="midnightblue" stroke="midnightblue" points="1111.72,-321.138 1115.03,-311.075 1106.17,-316.875 1111.72,-321.138"/>
</g>
<!-- Node3 -->
<g id="node3" class="node"><title>Node3</title>
<g id="a_node3"><a xlink:href="oorexxapi_8h.html" target="_top" xlink:title=" ">
<polygon fill="white" stroke="black" points="194.15,-175 194.15,-195 261.85,-195 261.85,-175 194.15,-175"/>
<text text-anchor="middle" x="228" y="-181" font-family="Helvetica,sans-Serif" font-size="10.00">oorexxapi.h</text>
</a>
</g>
</g>
<!-- Node2&#45;&gt;Node3 -->
<g id="edge2" class="edge"><title>Node2&#45;&gt;Node3</title>
<path fill="none" stroke="midnightblue" d="M1044.53,-242.144C933.689,-242.166 576.425,-238.784 272.502,-195.977"/>
<polygon fill="midnightblue" stroke="midnightblue" points="272.561,-192.45 262.167,-194.503 271.573,-199.38 272.561,-192.45"/>
</g>
<!-- Node10 -->
<g id="node10" class="node"><title>Node10</title>
<g id="a_node10"><a xlink:title=" ">
<polygon fill="white" stroke="#bfbfbf" points="280.269,-175 280.269,-195 325.731,-195 325.731,-175 280.269,-175"/>
<text text-anchor="middle" x="303" y="-181" font-family="Helvetica,sans-Serif" font-size="10.00">stdio.h</text>
</a>
</g>
</g>
<!-- Node2&#45;&gt;Node10 -->
<g id="edge9" class="edge"><title>Node2&#45;&gt;Node10</title>
<path fill="none" stroke="midnightblue" d="M1044.3,-240.965C919.456,-237.071 492.764,-222.26 335.845,-195.654"/>
<polygon fill="midnightblue" stroke="midnightblue" points="336.364,-192.191 325.905,-193.884 335.137,-199.083 336.364,-192.191"/>
</g>
<!-- Node11 -->
<g id="node11" class="node"><title>Node11</title>
<g id="a_node11"><a xlink:title=" ">
<polygon fill="white" stroke="#bfbfbf" points="343.934,-175 343.934,-195 396.066,-195 396.066,-175 343.934,-175"/>
<text text-anchor="middle" x="370" y="-181" font-family="Helvetica,sans-Serif" font-size="10.00">stdarg.h</text>
</a>
</g>
</g>
<!-- Node2&#45;&gt;Node11 -->
<g id="edge10" class="edge"><title>Node2&#45;&gt;Node11</title>
<path fill="none" stroke="midnightblue" d="M1044.32,-242.19C945.632,-242.192 654.841,-238.451 406.178,-195.864"/>
<polygon fill="midnightblue" stroke="midnightblue" points="406.687,-192.4 396.235,-194.136 405.488,-199.296 406.687,-192.4"/>
</g>
<!-- Node12 -->
<g id="node12" class="node"><title>Node12</title>
<g id="a_node12"><a xlink:title=" ">
<polygon fill="white" stroke="#bfbfbf" points="413.604,-175 413.604,-195 462.396,-195 462.396,-175 413.604,-175"/>
<text text-anchor="middle" x="438" y="-181" font-family="Helvetica,sans-Serif" font-size="10.00">string.h</text>
</a>
</g>
</g>
<!-- Node2&#45;&gt;Node12 -->
<g id="edge11" class="edge"><title>Node2&#45;&gt;Node12</title>
<path fill="none" stroke="midnightblue" d="M1044.45,-241.914C952.617,-241.15 694.898,-235.516 472.626,-195.727"/>
<polygon fill="midnightblue" stroke="midnightblue" points="473.202,-192.274 462.737,-193.93 471.95,-199.162 473.202,-192.274"/>
</g>
<!-- Node13 -->
<g id="node13" class="node"><title>Node13</title>
<g id="a_node13"><a xlink:title=" ">
<polygon fill="white" stroke="#bfbfbf" points="480.879,-175 480.879,-195 529.121,-195 529.121,-175 480.879,-175"/>
<text text-anchor="middle" x="505" y="-181" font-family="Helvetica,sans-Serif" font-size="10.00">ctype.h</text>
</a>
</g>
</g>
<!-- Node2&#45;&gt;Node13 -->
<g id="edge12" class="edge"><title>Node2&#45;&gt;Node13</title>
<path fill="none" stroke="midnightblue" d="M1044.48,-241.561C959.693,-239.955 734.496,-232.482 539.229,-195.884"/>
<polygon fill="midnightblue" stroke="midnightblue" points="539.844,-192.438 529.366,-194.005 538.534,-199.314 539.844,-192.438"/>
</g>
<!-- Node14 -->
<g id="node14" class="node"><title>Node14</title>
<g id="a_node14"><a xlink:title=" ">
<polygon fill="white" stroke="#bfbfbf" points="547.443,-175 547.443,-195 594.557,-195 594.557,-175 547.443,-175"/>
<text text-anchor="middle" x="571" y="-181" font-family="Helvetica,sans-Serif" font-size="10.00">limits.h</text>
</a>
</g>
</g>
<!-- Node2&#45;&gt;Node14 -->
<g id="edge13" class="edge"><title>Node2&#45;&gt;Node14</title>
<path fill="none" stroke="midnightblue" d="M1044.59,-241.106C967.228,-238.578 773.714,-229.368 604.453,-195.953"/>
<polygon fill="midnightblue" stroke="midnightblue" points="605.117,-192.517 594.624,-193.98 603.739,-199.38 605.117,-192.517"/>
</g>
<!-- Node15 -->
<g id="node15" class="node"><title>Node15</title>
<g id="a_node15"><a xlink:href="_rexx_platform_definitions_8h.html" target="_top" xlink:title=" ">
<polygon fill="white" stroke="black" points="612.478,-175 612.478,-195 743.522,-195 743.522,-175 612.478,-175"/>
<text text-anchor="middle" x="678" y="-181" font-family="Helvetica,sans-Serif" font-size="10.00">RexxPlatformDefinitions.h</text>
</a>
</g>
</g>
<!-- Node2&#45;&gt;Node15 -->
<g id="edge14" class="edge"><title>Node2&#45;&gt;Node15</title>
<path fill="none" stroke="midnightblue" d="M1044.46,-237.177C979.956,-228.168 839.83,-208.6 752.757,-196.44"/>
<polygon fill="midnightblue" stroke="midnightblue" points="753.06,-192.948 742.672,-195.032 752.092,-199.881 753.06,-192.948"/>
</g>
<!-- Node18 -->
<g id="node18" class="node"><title>Node18</title>
<g id="a_node18"><a xlink:href="_rexx_constants_8hpp.html" target="_top" xlink:title=" ">
<polygon fill="white" stroke="black" points="761.365,-175 761.365,-195 864.635,-195 864.635,-175 761.365,-175"/>
<text text-anchor="middle" x="813" y="-181" font-family="Helvetica,sans-Serif" font-size="10.00">RexxConstants.hpp</text>
</a>
</g>
</g>
<!-- Node2&#45;&gt;Node18 -->
<g id="edge17" class="edge"><title>Node2&#45;&gt;Node18</title>
<path fill="none" stroke="midnightblue" d="M1044.5,-234.736C999.069,-225.172 918.759,-208.265 865.7,-197.095"/>
<polygon fill="midnightblue" stroke="midnightblue" points="866.304,-193.645 855.797,-195.01 864.862,-200.495 866.304,-193.645"/>
</g>
<!-- Node19 -->
<g id="node19" class="node"><title>Node19</title>
<g id="a_node19"><a xlink:href="_class_type_codes_8h.html" target="_top" xlink:title=" ">
<polygon fill="white" stroke="black" points="625.032,-59 625.032,-79 724.968,-79 724.968,-59 625.032,-59"/>
<text text-anchor="middle" x="675" y="-65" font-family="Helvetica,sans-Serif" font-size="10.00">ClassTypeCodes.h</text>
</a>
</g>
</g>
<!-- Node2&#45;&gt;Node19 -->
<g id="edge18" class="edge"><title>Node2&#45;&gt;Node19</title>
<path fill="none" stroke="midnightblue" d="M1044.28,-235.045C1009.92,-227.561 956.204,-214.232 912,-196 893.602,-188.412 891.768,-180.618 873,-174 780.801,-141.489 719.219,-212.571 656,-138 643.922,-123.753 652.953,-102.375 662.244,-87.4023"/>
<polygon fill="midnightblue" stroke="midnightblue" points="665.199,-89.2797 667.876,-79.0285 659.39,-85.3732 665.199,-89.2797"/>
</g>
<!-- Node20 -->
<g id="node20" class="node"><title>Node20</title>
<g id="a_node20"><a xlink:href="_global_names_8h.html" target="_top" xlink:title=" ">
<polygon fill="white" stroke="black" points="1319.54,-175 1319.54,-195 1404.46,-195 1404.46,-175 1319.54,-175"/>
<text text-anchor="middle" x="1362" y="-181" font-family="Helvetica,sans-Serif" font-size="10.00">GlobalNames.h</text>
</a>
</g>
</g>
<!-- Node2&#45;&gt;Node20 -->
<g id="edge19" class="edge"><title>Node2&#45;&gt;Node20</title>
<path fill="none" stroke="midnightblue" d="M1113.42,-235.189C1162.33,-225.51 1252.36,-207.696 1309.6,-196.369"/>
<polygon fill="midnightblue" stroke="midnightblue" points="1310.41,-199.777 1319.54,-194.403 1309.05,-192.911 1310.41,-199.777"/>
</g>
<!-- Node21 -->
<g id="node21" class="node"><title>Node21</title>
<g id="a_node21"><a xlink:href="_object_class_8hpp.html" target="_top" xlink:title=" ">
<polygon fill="white" stroke="black" points="1071.32,-175 1071.32,-195 1160.68,-195 1160.68,-175 1071.32,-175"/>
<text text-anchor="middle" x="1116" y="-181" font-family="Helvetica,sans-Serif" font-size="10.00">ObjectClass.hpp</text>
</a>
</g>
</g>
<!-- Node2&#45;&gt;Node21 -->
<g id="edge20" class="edge"><title>Node2&#45;&gt;Node21</title>
<path fill="none" stroke="midnightblue" d="M1085.11,-232.753C1090.34,-224.843 1098,-213.237 1104.39,-203.568"/>
<polygon fill="midnightblue" stroke="midnightblue" points="1107.41,-205.348 1110,-195.075 1101.57,-201.489 1107.41,-205.348"/>
</g>
<!-- Node24 -->
<g id="node24" class="node"><title>Node24</title>
<g id="a_node24"><a xlink:href="_table_class_8hpp.html" target="_top" xlink:title=" ">
<polygon fill="white" stroke="black" points="957.813,-59 957.813,-79 1042.19,-79 1042.19,-59 957.813,-59"/>
<text text-anchor="middle" x="1000" y="-65" font-family="Helvetica,sans-Serif" font-size="10.00">TableClass.hpp</text>
</a>
</g>
</g>
<!-- Node2&#45;&gt;Node24 -->
<g id="edge23" class="edge"><title>Node2&#45;&gt;Node24</title>
<path fill="none" stroke="midnightblue" d="M1075.21,-232.732C1066.58,-211.744 1044.6,-159.062 1024,-116 1019.53,-106.655 1014.23,-96.4237 1009.75,-87.9876"/>
<polygon fill="midnightblue" stroke="midnightblue" points="1012.78,-86.2277 1004.97,-79.0699 1006.61,-89.5366 1012.78,-86.2277"/>
</g>
<!-- Node27 -->
<g id="node26" class="node"><title>Node27</title>
<g id="a_node26"><a xlink:href="_stack_class_8hpp.html" target="_top" xlink:title=" ">
<polygon fill="white" stroke="black" points="1422.26,-175 1422.26,-195 1507.74,-195 1507.74,-175 1422.26,-175"/>
<text text-anchor="middle" x="1465" y="-181" font-family="Helvetica,sans-Serif" font-size="10.00">StackClass.hpp</text>
</a>
</g>
</g>
<!-- Node2&#45;&gt;Node27 -->
<g id="edge25" class="edge"><title>Node2&#45;&gt;Node27</title>
<path fill="none" stroke="midnightblue" d="M1113.71,-237.836C1172.78,-230.617 1296.85,-214.876 1412.13,-196.073"/>
<polygon fill="midnightblue" stroke="midnightblue" points="1412.88,-199.495 1422.18,-194.421 1411.75,-192.588 1412.88,-199.495"/>
</g>
<!-- Node28 -->
<g id="node27" class="node"><title>Node28</title>
<g id="a_node27"><a xlink:href="_rexx_memory_8hpp.html" target="_top" xlink:title=" ">
<polygon fill="white" stroke="black" points="921.189,-175 921.189,-195 1014.81,-195 1014.81,-175 921.189,-175"/>
<text text-anchor="middle" x="968" y="-181" font-family="Helvetica,sans-Serif" font-size="10.00">RexxMemory.hpp</text>
</a>
</g>
</g>
<!-- Node2&#45;&gt;Node28 -->
<g id="edge26" class="edge"><title>Node2&#45;&gt;Node28</title>
<path fill="none" stroke="midnightblue" d="M1060.67,-232.753C1042.81,-223.742 1015.44,-209.935 995.074,-199.659"/>
<polygon fill="midnightblue" stroke="midnightblue" points="996.493,-196.455 985.988,-195.075 993.34,-202.704 996.493,-196.455"/>
</g>
<!-- Node35 -->
<g id="node32" class="node"><title>Node35</title>
<g id="a_node32"><a xlink:href="_rexx_behaviour_8hpp.html" target="_top" xlink:title=" ">
<polygon fill="white" stroke="black" points="1525.64,-175 1525.64,-195 1628.36,-195 1628.36,-175 1525.64,-175"/>
<text text-anchor="middle" x="1577" y="-181" font-family="Helvetica,sans-Serif" font-size="10.00">RexxBehaviour.hpp</text>
</a>
</g>
</g>
<!-- Node2&#45;&gt;Node35 -->
<g id="edge34" class="edge"><title>Node2&#45;&gt;Node35</title>
<path fill="none" stroke="midnightblue" d="M1113.64,-239.038C1186.07,-232.696 1359.03,-216.785 1515.19,-196.039"/>
<polygon fill="midnightblue" stroke="midnightblue" points="1516,-199.462 1525.45,-194.666 1515.07,-192.523 1516,-199.462"/>
</g>
<!-- Node37 -->
<g id="node34" class="node"><title>Node37</title>
<g id="a_node34"><a xlink:href="_class_class_8hpp.html" target="_top" xlink:title=" ">
<polygon fill="white" stroke="black" points="1646.26,-175 1646.26,-195 1731.74,-195 1731.74,-175 1646.26,-175"/>
<text text-anchor="middle" x="1689" y="-181" font-family="Helvetica,sans-Serif" font-size="10.00">ClassClass.hpp</text>
</a>
</g>
</g>
<!-- Node2&#45;&gt;Node37 -->
<g id="edge36" class="edge"><title>Node2&#45;&gt;Node37</title>
<path fill="none" stroke="midnightblue" d="M1113.43,-240.455C1199.69,-236.307 1432.16,-223.432 1636.21,-195.968"/>
<polygon fill="midnightblue" stroke="midnightblue" points="1636.77,-199.424 1646.21,-194.607 1635.83,-192.488 1636.77,-199.424"/>
</g>
<!-- Node38 -->
<g id="node35" class="node"><title>Node38</title>
<g id="a_node35"><a xlink:href="_rexx_envelope_8hpp.html" target="_top" xlink:title=" ">
<polygon fill="white" stroke="black" points="1750.03,-175 1750.03,-195 1849.97,-195 1849.97,-175 1750.03,-175"/>
<text text-anchor="middle" x="1800" y="-181" font-family="Helvetica,sans-Serif" font-size="10.00">RexxEnvelope.hpp</text>
</a>
</g>
</g>
<!-- Node2&#45;&gt;Node38 -->
<g id="edge37" class="edge"><title>Node2&#45;&gt;Node38</title>
<path fill="none" stroke="midnightblue" d="M1113.51,-240.763C1211.76,-236.993 1501.23,-224.14 1740,-196 1740.1,-195.988 1740.2,-195.976 1740.31,-195.964"/>
<polygon fill="midnightblue" stroke="midnightblue" points="1740.5,-199.469 1749.96,-194.708 1739.59,-192.527 1740.5,-199.469"/>
</g>
<!-- Node39 -->
<g id="node36" class="node"><title>Node39</title>
<g id="a_node36"><a xlink:href="_rexx_activity_8hpp.html" target="_top" xlink:title=" ">
<polygon fill="white" stroke="black" points="2056.41,-175 2056.41,-195 2145.59,-195 2145.59,-175 2056.41,-175"/>
<text text-anchor="middle" x="2101" y="-181" font-family="Helvetica,sans-Serif" font-size="10.00">RexxActivity.hpp</text>
</a>
</g>
</g>
<!-- Node2&#45;&gt;Node39 -->
<g id="edge38" class="edge"><title>Node2&#45;&gt;Node39</title>
<path fill="none" stroke="midnightblue" d="M1113.59,-240.105C1263.91,-231.868 1861.12,-199.144 2046.09,-189.009"/>
<polygon fill="midnightblue" stroke="midnightblue" points="2046.34,-192.5 2056.14,-188.458 2045.96,-185.511 2046.34,-192.5"/>
</g>
<!-- Node50 -->
<g id="node46" class="node"><title>Node50</title>
<g id="a_node46"><a xlink:href="_number_string_class_8hpp.html" target="_top" xlink:title=" ">
<polygon fill="white" stroke="black" points="1178.92,-175 1178.92,-195 1301.08,-195 1301.08,-175 1178.92,-175"/>
<text text-anchor="middle" x="1240" y="-181" font-family="Helvetica,sans-Serif" font-size="10.00">NumberStringClass.hpp</text>
</a>
</g>
</g>
<!-- Node2&#45;&gt;Node50 -->
<g id="edge50" class="edge"><title>Node2&#45;&gt;Node50</title>
<path fill="none" stroke="midnightblue" d="M1105.23,-232.878C1132.2,-223.494 1174.41,-208.815 1204.39,-198.386"/>
<polygon fill="midnightblue" stroke="midnightblue" points="1205.76,-201.616 1214.05,-195.025 1203.46,-195.005 1205.76,-201.616"/>
</g>
<!-- Node66 -->
<g id="node48" class="node"><title>Node66</title>
<g id="a_node48"><a xlink:href="_activity_manager_8hpp.html" target="_top" xlink:title=" ">
<polygon fill="white" stroke="black" points="2676.97,-175 2676.97,-195 2783.03,-195 2783.03,-175 2676.97,-175"/>
<text text-anchor="middle" x="2730" y="-181" font-family="Helvetica,sans-Serif" font-size="10.00">ActivityManager.hpp</text>
</a>
</g>
</g>
<!-- Node2&#45;&gt;Node66 -->
<g id="edge53" class="edge"><title>Node2&#45;&gt;Node66</title>
<path fill="none" stroke="midnightblue" d="M1113.58,-241.38C1277.42,-238.35 1991.92,-224.095 2577,-196 2606.47,-194.585 2639.1,-192.521 2666.64,-190.634"/>
<polygon fill="midnightblue" stroke="midnightblue" points="2667.19,-194.105 2676.92,-189.922 2666.7,-187.121 2667.19,-194.105"/>
</g>
<!-- Node4 -->
<g id="node4" class="node"><title>Node4</title>
<g id="a_node4"><a xlink:href="rexx_8h.html" target="_top" xlink:title=" ">
<polygon fill="white" stroke="black" points="166.384,-117 166.384,-137 209.616,-137 209.616,-117 166.384,-117"/>
<text text-anchor="middle" x="188" y="-123" font-family="Helvetica,sans-Serif" font-size="10.00">rexx.h</text>
</a>
</g>
</g>
<!-- Node3&#45;&gt;Node4 -->
<g id="edge3" class="edge"><title>Node3&#45;&gt;Node4</title>
<path fill="none" stroke="midnightblue" d="M221.395,-174.753C215.687,-166.761 207.284,-154.998 200.336,-145.27"/>
<polygon fill="midnightblue" stroke="midnightblue" points="203.143,-143.178 194.482,-137.075 197.447,-147.247 203.143,-143.178"/>
</g>
<!-- Node9 -->
<g id="node9" class="node"><title>Node9</title>
<g id="a_node9"><a xlink:href="oorexxerrors_8h.html" target="_top" xlink:title=" ">
<polygon fill="white" stroke="black" points="227.766,-117 227.766,-137 308.234,-137 308.234,-117 227.766,-117"/>
<text text-anchor="middle" x="268" y="-123" font-family="Helvetica,sans-Serif" font-size="10.00">oorexxerrors.h</text>
</a>
</g>
</g>
<!-- Node3&#45;&gt;Node9 -->
<g id="edge8" class="edge"><title>Node3&#45;&gt;Node9</title>
<path fill="none" stroke="midnightblue" d="M234.605,-174.753C240.313,-166.761 248.716,-154.998 255.664,-145.27"/>
<polygon fill="midnightblue" stroke="midnightblue" points="258.553,-147.247 261.518,-137.075 252.857,-143.178 258.553,-147.247"/>
</g>
<!-- Node5 -->
<g id="node5" class="node"><title>Node5</title>
<g id="a_node5"><a xlink:title=" ">
<polygon fill="white" stroke="#bfbfbf" points="-0.23877,-59 -0.23877,-79 80.2388,-79 80.2388,-59 -0.23877,-59"/>
<text text-anchor="middle" x="40" y="-65" font-family="Helvetica,sans-Serif" font-size="10.00">rexxapitypes.h</text>
</a>
</g>
</g>
<!-- Node4&#45;&gt;Node5 -->
<g id="edge4" class="edge"><title>Node4&#45;&gt;Node5</title>
<path fill="none" stroke="midnightblue" d="M166.162,-117.737C141.707,-108.484 101.787,-93.379 73.4054,-82.6399"/>
<polygon fill="midnightblue" stroke="midnightblue" points="74.4833,-79.3056 63.8918,-79.0401 72.006,-85.8526 74.4833,-79.3056"/>
</g>
<!-- Node6 -->
<g id="node6" class="node"><title>Node6</title>
<g id="a_node6"><a xlink:href="rexxapidefs_8h.html" target="_top" xlink:title=" ">
<polygon fill="white" stroke="black" points="98.2612,-59 98.2612,-79 173.739,-79 173.739,-59 98.2612,-59"/>
<text text-anchor="middle" x="136" y="-65" font-family="Helvetica,sans-Serif" font-size="10.00">rexxapidefs.h</text>
</a>
</g>
</g>
<!-- Node4&#45;&gt;Node6 -->
<g id="edge5" class="edge"><title>Node4&#45;&gt;Node6</title>
<path fill="none" stroke="midnightblue" d="M179.413,-116.753C171.841,-108.598 160.622,-96.5158 151.486,-86.6769"/>
<polygon fill="midnightblue" stroke="midnightblue" points="153.796,-84.0216 144.427,-79.0752 148.667,-88.7847 153.796,-84.0216"/>
</g>
<!-- Node7 -->
<g id="node7" class="node"><title>Node7</title>
<g id="a_node7"><a xlink:title=" ">
<polygon fill="white" stroke="#bfbfbf" points="191.872,-59 191.872,-79 290.128,-79 290.128,-59 191.872,-59"/>
<text text-anchor="middle" x="241" y="-65" font-family="Helvetica,sans-Serif" font-size="10.00">rexxplatformdefs.h</text>
</a>
</g>
</g>
<!-- Node4&#45;&gt;Node7 -->
<g id="edge6" class="edge"><title>Node4&#45;&gt;Node7</title>
<path fill="none" stroke="midnightblue" d="M196.752,-116.753C204.547,-108.516 216.134,-96.2738 225.495,-86.3824"/>
<polygon fill="midnightblue" stroke="midnightblue" points="228.079,-88.744 232.411,-79.0752 222.995,-83.9323 228.079,-88.744"/>
</g>
<!-- Node8 -->
<g id="node8" class="node"><title>Node8</title>
<g id="a_node8"><a xlink:title=" ">
<polygon fill="white" stroke="#bfbfbf" points="308.15,-59 308.15,-79 405.85,-79 405.85,-59 308.15,-59"/>
<text text-anchor="middle" x="357" y="-65" font-family="Helvetica,sans-Serif" font-size="10.00">rexxplatformapis.h</text>
</a>
</g>
</g>
<!-- Node4&#45;&gt;Node8 -->
<g id="edge7" class="edge"><title>Node4&#45;&gt;Node8</title>
<path fill="none" stroke="midnightblue" d="M209.748,-118.794C237.66,-109.545 286.499,-93.3612 320.234,-82.1829"/>
<polygon fill="midnightblue" stroke="midnightblue" points="321.356,-85.4983 329.748,-79.0304 319.154,-78.8535 321.356,-85.4983"/>
</g>
<!-- Node16 -->
<g id="node16" class="node"><title>Node16</title>
<g id="a_node16"><a xlink:title=" ">
<polygon fill="white" stroke="#bfbfbf" points="384.87,-117 384.87,-137 493.13,-137 493.13,-117 384.87,-117"/>
<text text-anchor="middle" x="439" y="-123" font-family="Helvetica,sans-Serif" font-size="10.00">PlatformDefinitions.h</text>
</a>
</g>
</g>
<!-- Node15&#45;&gt;Node16 -->
<g id="edge15" class="edge"><title>Node15&#45;&gt;Node16</title>
<path fill="none" stroke="midnightblue" d="M639.335,-174.94C597.943,-165.242 532.193,-149.836 487.395,-139.339"/>
<polygon fill="midnightblue" stroke="midnightblue" points="488.144,-135.92 477.61,-137.047 486.547,-142.736 488.144,-135.92"/>
</g>
<!-- Node17 -->
<g id="node17" class="node"><title>Node17</title>
<g id="a_node17"><a xlink:href="_rexx_error_codes_8h.html" target="_top" xlink:title=" ">
<polygon fill="white" stroke="black" points="510.875,-117 510.875,-137 609.125,-137 609.125,-117 510.875,-117"/>
<text text-anchor="middle" x="560" y="-123" font-family="Helvetica,sans-Serif" font-size="10.00">RexxErrorCodes.h</text>
</a>
</g>
</g>
<!-- Node15&#45;&gt;Node17 -->
<g id="edge16" class="edge"><title>Node15&#45;&gt;Node17</title>
<path fill="none" stroke="midnightblue" d="M658.779,-174.878C639.664,-165.807 610.124,-151.788 588.324,-141.442"/>
<polygon fill="midnightblue" stroke="midnightblue" points="589.748,-138.244 579.213,-137.118 586.747,-144.568 589.748,-138.244"/>
</g>
<!-- Node22 -->
<g id="node22" class="node"><title>Node22</title>
<g id="a_node22"><a xlink:href="_numerics_8hpp.html" target="_top" xlink:title=" ">
<polygon fill="white" stroke="black" points="1239.16,-117 1239.16,-137 1316.84,-137 1316.84,-117 1239.16,-117"/>
<text text-anchor="middle" x="1278" y="-123" font-family="Helvetica,sans-Serif" font-size="10.00">Numerics.hpp</text>
</a>
</g>
</g>
<!-- Node21&#45;&gt;Node22 -->
<g id="edge21" class="edge"><title>Node21&#45;&gt;Node22</title>
<path fill="none" stroke="midnightblue" d="M1142.39,-174.878C1169.53,-165.494 1212,-150.815 1242.17,-140.386"/>
<polygon fill="midnightblue" stroke="midnightblue" points="1243.58,-143.6 1251.89,-137.025 1241.3,-136.985 1243.58,-143.6"/>
</g>
<!-- Node23 -->
<g id="node23" class="node"><title>Node23</title>
<g id="a_node23"><a xlink:title=" ">
<polygon fill="white" stroke="#bfbfbf" points="1143.21,-59 1143.21,-79 1194.79,-79 1194.79,-59 1143.21,-59"/>
<text text-anchor="middle" x="1169" y="-65" font-family="Helvetica,sans-Serif" font-size="10.00">stddef.h</text>
</a>
</g>
</g>
<!-- Node21&#45;&gt;Node23 -->
<g id="edge22" class="edge"><title>Node21&#45;&gt;Node23</title>
<path fill="none" stroke="midnightblue" d="M1143.68,-174.944C1160.62,-167.802 1180.93,-155.994 1191,-138 1199.95,-122.013 1191.26,-101.846 1182.29,-87.6394"/>
<polygon fill="midnightblue" stroke="midnightblue" points="1185.09,-85.533 1176.55,-79.2681 1179.32,-89.4938 1185.09,-85.533"/>
</g>
<!-- Node25 -->
<g id="node25" class="node"><title>Node25</title>
<g id="a_node25"><a xlink:href="_rexx_collection_8hpp.html" target="_top" xlink:title=" ">
<polygon fill="white" stroke="red" points="948.921,-1 948.921,-21 1051.08,-21 1051.08,-1 948.921,-1"/>
<text text-anchor="middle" x="1000" y="-7" font-family="Helvetica,sans-Serif" font-size="10.00">RexxCollection.hpp</text>
</a>
</g>
</g>
<!-- Node24&#45;&gt;Node25 -->
<g id="edge24" class="edge"><title>Node24&#45;&gt;Node25</title>
<path fill="none" stroke="midnightblue" d="M1000,-58.7527C1000,-51.2504 1000,-40.4238 1000,-31.0781"/>
<polygon fill="midnightblue" stroke="midnightblue" points="1003.5,-31.0752 1000,-21.0752 996.5,-31.0752 1003.5,-31.0752"/>
</g>
<!-- Node29 -->
<g id="node28" class="node"><title>Node29</title>
<g id="a_node28"><a xlink:title=" ">
<polygon fill="white" stroke="#bfbfbf" points="777.084,-117 777.084,-137 880.916,-137 880.916,-117 777.084,-117"/>
<text text-anchor="middle" x="829" y="-123" font-family="Helvetica,sans-Serif" font-size="10.00">SysSemaphore.hpp</text>
</a>
</g>
</g>
<!-- Node28&#45;&gt;Node29 -->
<g id="edge27" class="edge"><title>Node28&#45;&gt;Node29</title>
<path fill="none" stroke="midnightblue" d="M945.358,-174.878C922.438,-165.644 886.792,-151.283 860.992,-140.889"/>
<polygon fill="midnightblue" stroke="midnightblue" points="862.216,-137.609 851.632,-137.118 859.6,-144.102 862.216,-137.609"/>
</g>
<!-- Node30 -->
<g id="node29" class="node"><title>Node30</title>
<g id="a_node29"><a xlink:href="_identity_table_class_8hpp.html" target="_top" xlink:title=" ">
<polygon fill="white" stroke="black" points="898.692,-117 898.692,-137 1015.31,-137 1015.31,-117 898.692,-117"/>
<text text-anchor="middle" x="957" y="-123" font-family="Helvetica,sans-Serif" font-size="10.00">IdentityTableClass.hpp</text>
</a>
</g>
</g>
<!-- Node28&#45;&gt;Node30 -->
<g id="edge28" class="edge"><title>Node28&#45;&gt;Node30</title>
<path fill="none" stroke="midnightblue" d="M966.184,-174.753C964.71,-167.25 962.583,-156.424 960.747,-147.078"/>
<polygon fill="midnightblue" stroke="midnightblue" points="964.145,-146.213 958.783,-137.075 957.276,-147.562 964.145,-146.213"/>
</g>
<!-- Node31 -->
<g id="node30" class="node"><title>Node31</title>
<g id="a_node30"><a xlink:href="_memory_stats_8hpp.html" target="_top" xlink:title=" ">
<polygon fill="white" stroke="black" points="664.818,-117 664.818,-137 759.182,-137 759.182,-117 664.818,-117"/>
<text text-anchor="middle" x="712" y="-123" font-family="Helvetica,sans-Serif" font-size="10.00">MemoryStats.hpp</text>
</a>
</g>
</g>
<!-- Node28&#45;&gt;Node31 -->
<g id="edge30" class="edge"><title>Node28&#45;&gt;Node31</title>
<path fill="none" stroke="midnightblue" d="M926.585,-174.94C882.062,-165.201 811.23,-149.706 763.233,-139.207"/>
<polygon fill="midnightblue" stroke="midnightblue" points="763.873,-135.764 753.356,-137.047 762.377,-142.603 763.873,-135.764"/>
</g>
<!-- Node32 -->
<g id="node31" class="node"><title>Node32</title>
<g id="a_node31"><a xlink:href="_memory_segment_8hpp.html" target="_top" xlink:title=" ">
<polygon fill="white" stroke="red" points="1071.2,-117 1071.2,-137 1182.8,-137 1182.8,-117 1071.2,-117"/>
<text text-anchor="middle" x="1127" y="-123" font-family="Helvetica,sans-Serif" font-size="10.00">MemorySegment.hpp</text>
</a>
</g>
</g>
<!-- Node28&#45;&gt;Node32 -->
<g id="edge32" class="edge"><title>Node28&#45;&gt;Node32</title>
<path fill="none" stroke="midnightblue" d="M993.9,-174.878C1020.54,-165.494 1062.22,-150.815 1091.83,-140.386"/>
<polygon fill="midnightblue" stroke="midnightblue" points="1093.11,-143.649 1101.37,-137.025 1090.78,-137.046 1093.11,-143.649"/>
</g>
<!-- Node30&#45;&gt;Node24 -->
<g id="edge29" class="edge"><title>Node30&#45;&gt;Node24</title>
<path fill="none" stroke="midnightblue" d="M964.101,-116.753C970.237,-108.761 979.27,-96.9975 986.739,-87.2698"/>
<polygon fill="midnightblue" stroke="midnightblue" points="989.717,-89.1383 993.032,-79.0752 984.165,-84.8751 989.717,-89.1383"/>
</g>
<!-- Node31&#45;&gt;Node19 -->
<g id="edge31" class="edge"><title>Node31&#45;&gt;Node19</title>
<path fill="none" stroke="midnightblue" d="M705.89,-116.753C700.664,-108.843 692.996,-97.2372 686.608,-87.5683"/>
<polygon fill="midnightblue" stroke="midnightblue" points="689.429,-85.4891 680.996,-79.0752 683.589,-89.348 689.429,-85.4891"/>
</g>
<!-- Node32&#45;&gt;Node23 -->
<g id="edge33" class="edge"><title>Node32&#45;&gt;Node23</title>
<path fill="none" stroke="midnightblue" d="M1133.94,-116.753C1139.93,-108.761 1148.75,-96.9975 1156.05,-87.2698"/>
<polygon fill="midnightblue" stroke="midnightblue" points="1158.99,-89.1752 1162.19,-79.0752 1153.39,-84.9752 1158.99,-89.1752"/>
</g>
<!-- Node36 -->
<g id="node33" class="node"><title>Node36</title>
<g id="a_node33"><a xlink:href="_primitive_behaviour_names_8h.html" target="_top" xlink:title=" ">
<polygon fill="white" stroke="black" points="1472.31,-117 1472.31,-137 1611.69,-137 1611.69,-117 1472.31,-117"/>
<text text-anchor="middle" x="1542" y="-123" font-family="Helvetica,sans-Serif" font-size="10.00">PrimitiveBehaviourNames.h</text>
</a>
</g>
</g>
<!-- Node35&#45;&gt;Node36 -->
<g id="edge35" class="edge"><title>Node35&#45;&gt;Node36</title>
<path fill="none" stroke="midnightblue" d="M1571.22,-174.753C1566.28,-166.843 1559.02,-155.237 1552.98,-145.568"/>
<polygon fill="midnightblue" stroke="midnightblue" points="1555.94,-143.7 1547.67,-137.075 1550,-147.41 1555.94,-143.7"/>
</g>
<!-- Node40 -->
<g id="node37" class="node"><title>Node40</title>
<g id="a_node37"><a xlink:href="_list_class_8hpp.html" target="_top" xlink:title=" ">
<polygon fill="white" stroke="red" points="1629.99,-117 1629.99,-137 1706.01,-137 1706.01,-117 1629.99,-117"/>
<text text-anchor="middle" x="1668" y="-123" font-family="Helvetica,sans-Serif" font-size="10.00">ListClass.hpp</text>
</a>
</g>
</g>
<!-- Node39&#45;&gt;Node40 -->
<g id="edge39" class="edge"><title>Node39&#45;&gt;Node40</title>
<path fill="none" stroke="midnightblue" d="M2056.24,-180.001C1985.94,-173.429 1845.22,-159.097 1716.22,-138.08"/>
<polygon fill="midnightblue" stroke="midnightblue" points="1716.6,-134.595 1706.16,-136.424 1715.46,-141.502 1716.6,-134.595"/>
</g>
<!-- Node42 -->
<g id="node38" class="node"><title>Node42</title>
<g id="a_node38"><a xlink:href="_rexx_internal_stack_8hpp.html" target="_top" xlink:title=" ">
<polygon fill="white" stroke="black" points="1723.69,-117 1723.69,-137 1840.31,-137 1840.31,-117 1723.69,-117"/>
<text text-anchor="middle" x="1782" y="-123" font-family="Helvetica,sans-Serif" font-size="10.00">RexxInternalStack.hpp</text>
</a>
</g>
</g>
<!-- Node39&#45;&gt;Node42 -->
<g id="edge40" class="edge"><title>Node39&#45;&gt;Node42</title>
<path fill="none" stroke="midnightblue" d="M2056.31,-176.154C2000.84,-166.417 1905.96,-149.761 1843.61,-138.816"/>
<polygon fill="midnightblue" stroke="midnightblue" points="1843.97,-135.326 1833.52,-137.044 1842.76,-142.22 1843.97,-135.326"/>
</g>
<!-- Node43 -->
<g id="node39" class="node"><title>Node43</title>
<g id="a_node39"><a xlink:href="_rexx_activation_stack_8hpp.html" target="_top" xlink:title=" ">
<polygon fill="white" stroke="black" points="1858.69,-117 1858.69,-137 1985.31,-137 1985.31,-117 1858.69,-117"/>
<text text-anchor="middle" x="1922" y="-123" font-family="Helvetica,sans-Serif" font-size="10.00">RexxActivationStack.hpp</text>
</a>
</g>
</g>
<!-- Node39&#45;&gt;Node43 -->
<g id="edge41" class="edge"><title>Node39&#45;&gt;Node43</title>
<path fill="none" stroke="midnightblue" d="M2071.84,-174.878C2041.59,-165.413 1994.11,-150.56 1960.72,-140.115"/>
<polygon fill="midnightblue" stroke="midnightblue" points="1961.44,-136.671 1950.85,-137.025 1959.35,-143.352 1961.44,-136.671"/>
</g>
<!-- Node44 -->
<g id="node40" class="node"><title>Node44</title>
<g id="a_node40"><a xlink:href="_expression_stack_8hpp.html" target="_top" xlink:title=" ">
<polygon fill="white" stroke="red" points="2003.03,-117 2003.03,-137 2112.97,-137 2112.97,-117 2003.03,-117"/>
<text text-anchor="middle" x="2058" y="-123" font-family="Helvetica,sans-Serif" font-size="10.00">ExpressionStack.hpp</text>
</a>
</g>
</g>
<!-- Node39&#45;&gt;Node44 -->
<g id="edge42" class="edge"><title>Node39&#45;&gt;Node44</title>
<path fill="none" stroke="midnightblue" d="M2093.9,-174.753C2087.76,-166.761 2078.73,-154.998 2071.26,-145.27"/>
<polygon fill="midnightblue" stroke="midnightblue" points="2073.83,-142.875 2064.97,-137.075 2068.28,-147.138 2073.83,-142.875"/>
</g>
<!-- Node46 -->
<g id="node41" class="node"><title>Node46</title>
<g id="a_node41"><a xlink:href="_rexx_local_variables_8hpp.html" target="_top" xlink:title=" ">
<polygon fill="white" stroke="red" points="2131.45,-117 2131.45,-137 2254.55,-137 2254.55,-117 2131.45,-117"/>
<text text-anchor="middle" x="2193" y="-123" font-family="Helvetica,sans-Serif" font-size="10.00">RexxLocalVariables.hpp</text>
</a>
</g>
</g>
<!-- Node39&#45;&gt;Node46 -->
<g id="edge43" class="edge"><title>Node39&#45;&gt;Node46</title>
<path fill="none" stroke="midnightblue" d="M2116.19,-174.753C2130.66,-165.946 2152.66,-152.558 2169.41,-142.362"/>
<polygon fill="midnightblue" stroke="midnightblue" points="2171.37,-145.264 2178.09,-137.075 2167.73,-139.285 2171.37,-145.264"/>
</g>
<!-- Node61 -->
<g id="node42" class="node"><title>Node61</title>
<g id="a_node42"><a xlink:href="_source_location_8hpp.html" target="_top" xlink:title=" ">
<polygon fill="white" stroke="black" points="2272.52,-117 2272.52,-137 2377.48,-137 2377.48,-117 2272.52,-117"/>
<text text-anchor="middle" x="2325" y="-123" font-family="Helvetica,sans-Serif" font-size="10.00">SourceLocation.hpp</text>
</a>
</g>
</g>
<!-- Node39&#45;&gt;Node61 -->
<g id="edge44" class="edge"><title>Node39&#45;&gt;Node61</title>
<path fill="none" stroke="midnightblue" d="M2137.49,-174.878C2176.08,-165.229 2237.07,-149.982 2278.95,-139.512"/>
<polygon fill="midnightblue" stroke="midnightblue" points="2280.05,-142.846 2288.9,-137.025 2278.35,-136.055 2280.05,-142.846"/>
</g>
<!-- Node62 -->
<g id="node43" class="node"><title>Node62</title>
<g id="a_node43"><a xlink:href="_exit_handler_8hpp.html" target="_top" xlink:title=" ">
<polygon fill="white" stroke="red" points="2496.7,-117 2496.7,-137 2583.3,-137 2583.3,-117 2496.7,-117"/>
<text text-anchor="middle" x="2540" y="-123" font-family="Helvetica,sans-Serif" font-size="10.00">ExitHandler.hpp</text>
</a>
</g>
</g>
<!-- Node39&#45;&gt;Node62 -->
<g id="edge45" class="edge"><title>Node39&#45;&gt;Node62</title>
<path fill="none" stroke="midnightblue" d="M2145.71,-179.667C2215.93,-172.645 2356.56,-157.705 2486.52,-137.978"/>
<polygon fill="midnightblue" stroke="midnightblue" points="2487.3,-141.399 2496.66,-136.426 2486.24,-134.48 2487.3,-141.399"/>
</g>
<!-- Node64 -->
<g id="node44" class="node"><title>Node64</title>
<g id="a_node44"><a xlink:href="_activation_api_contexts_8hpp.html" target="_top" xlink:title=" ">
<polygon fill="white" stroke="black" points="2601.63,-117 2601.63,-137 2734.37,-137 2734.37,-117 2601.63,-117"/>
<text text-anchor="middle" x="2668" y="-123" font-family="Helvetica,sans-Serif" font-size="10.00">ActivationApiContexts.hpp</text>
</a>
</g>
</g>
<!-- Node39&#45;&gt;Node64 -->
<g id="edge47" class="edge"><title>Node39&#45;&gt;Node64</title>
<path fill="none" stroke="midnightblue" d="M2145.74,-180.373C2230.42,-173.384 2420.2,-157.139 2591.1,-138.064"/>
<polygon fill="midnightblue" stroke="midnightblue" points="2591.74,-141.514 2601.29,-136.921 2590.96,-134.558 2591.74,-141.514"/>
</g>
<!-- Node65 -->
<g id="node45" class="node"><title>Node65</title>
<g id="a_node45"><a xlink:title=" ">
<polygon fill="white" stroke="#bfbfbf" points="2395.47,-117 2395.47,-137 2478.53,-137 2478.53,-117 2395.47,-117"/>
<text text-anchor="middle" x="2437" y="-123" font-family="Helvetica,sans-Serif" font-size="10.00">SysActivity.hpp</text>
</a>
</g>
</g>
<!-- Node39&#45;&gt;Node65 -->
<g id="edge49" class="edge"><title>Node39&#45;&gt;Node65</title>
<path fill="none" stroke="midnightblue" d="M2146,-177.215C2200.26,-168.928 2294.47,-154.201 2385.35,-138.069"/>
<polygon fill="midnightblue" stroke="midnightblue" points="2386.04,-141.501 2395.27,-136.3 2384.81,-134.61 2386.04,-141.501"/>
</g>
<!-- Node62&#45;&gt;Node2 -->
<g id="edge46" class="edge"><title>Node62&#45;&gt;Node2</title>
<path fill="none" stroke="midnightblue" d="M2499.13,-137.057C2428.95,-152.189 2280.85,-182.298 2154,-196 1755.89,-239.004 1270.78,-242.243 1123.48,-242.158"/>
<polygon fill="midnightblue" stroke="midnightblue" points="1123.47,-238.658 1113.47,-242.147 1123.46,-245.658 1123.47,-238.658"/>
</g>
<!-- Node64&#45;&gt;Node2 -->
<g id="edge48" class="edge"><title>Node64&#45;&gt;Node2</title>
<path fill="none" stroke="midnightblue" d="M2622.94,-137.024C2545.6,-152.105 2382.42,-182.141 2243,-196 1808.72,-239.168 1279.51,-242.245 1123.98,-242.147"/>
<polygon fill="midnightblue" stroke="midnightblue" points="1123.87,-238.647 1113.86,-242.136 1123.86,-245.647 1123.87,-238.647"/>
</g>
<!-- Node50&#45;&gt;Node22 -->
<g id="edge51" class="edge"><title>Node50&#45;&gt;Node22</title>
<path fill="none" stroke="midnightblue" d="M1246.27,-174.753C1251.64,-166.843 1259.52,-155.237 1266.08,-145.568"/>
<polygon fill="midnightblue" stroke="midnightblue" points="1269.12,-147.315 1271.84,-137.075 1263.33,-143.385 1269.12,-147.315"/>
</g>
<!-- Node51 -->
<g id="node47" class="node"><title>Node51</title>
<g id="a_node47"><a xlink:href="_number_string_math_8hpp.html" target="_top" xlink:title=" ">
<polygon fill="white" stroke="black" points="1335.31,-117 1335.31,-137 1454.69,-137 1454.69,-117 1335.31,-117"/>
<text text-anchor="middle" x="1395" y="-123" font-family="Helvetica,sans-Serif" font-size="10.00">NumberStringMath.hpp</text>
</a>
</g>
</g>
<!-- Node50&#45;&gt;Node51 -->
<g id="edge52" class="edge"><title>Node50&#45;&gt;Node51</title>
<path fill="none" stroke="midnightblue" d="M1265.25,-174.878C1291.11,-165.535 1331.5,-150.943 1360.34,-140.522"/>
<polygon fill="midnightblue" stroke="midnightblue" points="1361.8,-143.715 1370.02,-137.025 1359.42,-137.132 1361.8,-143.715"/>
</g>
<!-- Node67 -->
<g id="node49" class="node"><title>Node67</title>
<g id="a_node49"><a xlink:title=" ">
<polygon fill="white" stroke="#bfbfbf" points="2752.1,-117 2752.1,-137 2795.9,-137 2795.9,-117 2752.1,-117"/>
<text text-anchor="middle" x="2774" y="-123" font-family="Helvetica,sans-Serif" font-size="10.00">deque</text>
</a>
</g>
</g>
<!-- Node66&#45;&gt;Node67 -->
<g id="edge54" class="edge"><title>Node66&#45;&gt;Node67</title>
<path fill="none" stroke="midnightblue" d="M2737.27,-174.753C2743.61,-166.68 2752.98,-154.757 2760.66,-144.973"/>
<polygon fill="midnightblue" stroke="midnightblue" points="2763.44,-147.101 2766.87,-137.075 2757.94,-142.776 2763.44,-147.101"/>
</g>
<!-- Node68&#45;&gt;Node2 -->
<g id="edge56" class="edge"><title>Node68&#45;&gt;Node2</title>
<path fill="none" stroke="midnightblue" d="M1114.9,-290.753C1108.76,-282.761 1099.73,-270.998 1092.26,-261.27"/>
<polygon fill="midnightblue" stroke="midnightblue" points="1094.83,-258.875 1085.97,-253.075 1089.28,-263.138 1094.83,-258.875"/>
</g>
</g>
</svg>
