<?xml version="1.0" encoding="UTF-8" standalone="no"?>
<!DOCTYPE svg PUBLIC "-//W3C//DTD SVG 1.1//EN"
 "http://www.w3.org/Graphics/SVG/1.1/DTD/svg11.dtd">
<!-- Generated by graphviz version 2.30.1 (20130222.1704)
 -->
<!-- Title: SysThread.hpp Pages: 1 -->
<svg width="413pt" height="146pt"
 viewBox="0.00 0.00 413.00 146.00" xmlns="http://www.w3.org/2000/svg" xmlns:xlink="http://www.w3.org/1999/xlink">
<g id="graph0" class="graph" transform="scale(1 1) rotate(0) translate(4 142)">
<title>SysThread.hpp</title>
<polygon fill="white" stroke="white" points="-4,5 -4,-142 410,-142 410,5 -4,5"/>
<!-- Node1 -->
<g id="node1" class="node"><title>Node1</title>
<g id="a_node1"><a xlink:title=" ">
<polygon fill="#bfbfbf" stroke="black" points="111.091,-117 111.091,-137 194.909,-137 194.909,-117 111.091,-117"/>
<text text-anchor="middle" x="153" y="-123" font-family="Helvetica,sans-Serif" font-size="10.00">SysThread.hpp</text>
</a>
</g>
</g>
<!-- Node2 -->
<g id="node2" class="node"><title>Node2</title>
<g id="a_node2"><a xlink:title=" ">
<polygon fill="white" stroke="#bfbfbf" points="89.8721,-59 89.8721,-79 148.128,-79 148.128,-59 89.8721,-59"/>
<text text-anchor="middle" x="119" y="-65" font-family="Helvetica,sans-Serif" font-size="10.00">pthread.h</text>
</a>
</g>
</g>
<!-- Node1&#45;&gt;Node2 -->
<g id="edge1" class="edge"><title>Node1&#45;&gt;Node2</title>
<path fill="none" stroke="midnightblue" d="M147.386,-116.753C142.633,-108.924 135.682,-97.4761 129.848,-87.8679"/>
<polygon fill="midnightblue" stroke="midnightblue" points="132.692,-85.8066 124.51,-79.0752 126.708,-89.4395 132.692,-85.8066"/>
</g>
<!-- Node3 -->
<g id="node3" class="node"><title>Node3</title>
<g id="a_node3"><a xlink:href="rexx_8h.html" target="_top" xlink:title=" ">
<polygon fill="white" stroke="black" points="166.384,-59 166.384,-79 209.616,-79 209.616,-59 166.384,-59"/>
<text text-anchor="middle" x="188" y="-65" font-family="Helvetica,sans-Serif" font-size="10.00">rexx.h</text>
</a>
</g>
</g>
<!-- Node1&#45;&gt;Node3 -->
<g id="edge2" class="edge"><title>Node1&#45;&gt;Node3</title>
<path fill="none" stroke="midnightblue" d="M158.78,-116.753C163.723,-108.843 170.977,-97.2372 177.02,-87.5683"/>
<polygon fill="midnightblue" stroke="midnightblue" points="179.996,-89.4102 182.328,-79.0752 174.06,-85.7002 179.996,-89.4102"/>
</g>
<!-- Node4 -->
<g id="node4" class="node"><title>Node4</title>
<g id="a_node4"><a xlink:title=" ">
<polygon fill="white" stroke="#bfbfbf" points="-0.23877,-1 -0.23877,-21 80.2388,-21 80.2388,-1 -0.23877,-1"/>
<text text-anchor="middle" x="40" y="-7" font-family="Helvetica,sans-Serif" font-size="10.00">rexxapitypes.h</text>
</a>
</g>
</g>
<!-- Node3&#45;&gt;Node4 -->
<g id="edge3" class="edge"><title>Node3&#45;&gt;Node4</title>
<path fill="none" stroke="midnightblue" d="M166.162,-59.737C141.707,-50.4837 101.787,-35.379 73.4054,-24.6399"/>
<polygon fill="midnightblue" stroke="midnightblue" points="74.4833,-21.3056 63.8918,-21.0401 72.006,-27.8526 74.4833,-21.3056"/>
</g>
<!-- Node5 -->
<g id="node5" class="node"><title>Node5</title>
<g id="a_node5"><a xlink:href="rexxapidefs_8h.html" target="_top" xlink:title=" ">
<polygon fill="white" stroke="black" points="98.2612,-1 98.2612,-21 173.739,-21 173.739,-1 98.2612,-1"/>
<text text-anchor="middle" x="136" y="-7" font-family="Helvetica,sans-Serif" font-size="10.00">rexxapidefs.h</text>
</a>
</g>
</g>
<!-- Node3&#45;&gt;Node5 -->
<g id="edge4" class="edge"><title>Node3&#45;&gt;Node5</title>
<path fill="none" stroke="midnightblue" d="M179.413,-58.7527C171.841,-50.598 160.622,-38.5158 151.486,-28.6769"/>
<polygon fill="midnightblue" stroke="midnightblue" points="153.796,-26.0216 144.427,-21.0752 148.667,-30.7847 153.796,-26.0216"/>
</g>
<!-- Node6 -->
<g id="node6" class="node"><title>Node6</title>
<g id="a_node6"><a xlink:title=" ">
<polygon fill="white" stroke="#bfbfbf" points="191.872,-1 191.872,-21 290.128,-21 290.128,-1 191.872,-1"/>
<text text-anchor="middle" x="241" y="-7" font-family="Helvetica,sans-Serif" font-size="10.00">rexxplatformdefs.h</text>
</a>
</g>
</g>
<!-- Node3&#45;&gt;Node6 -->
<g id="edge5" class="edge"><title>Node3&#45;&gt;Node6</title>
<path fill="none" stroke="midnightblue" d="M196.752,-58.7527C204.547,-50.5165 216.134,-38.2738 225.495,-28.3824"/>
<polygon fill="midnightblue" stroke="midnightblue" points="228.079,-30.744 232.411,-21.0752 222.995,-25.9323 228.079,-30.744"/>
</g>
<!-- Node7 -->
<g id="node7" class="node"><title>Node7</title>
<g id="a_node7"><a xlink:title=" ">
<polygon fill="white" stroke="#bfbfbf" points="308.15,-1 308.15,-21 405.85,-21 405.85,-1 308.15,-1"/>
<text text-anchor="middle" x="357" y="-7" font-family="Helvetica,sans-Serif" font-size="10.00">rexxplatformapis.h</text>
</a>
</g>
</g>
<!-- Node3&#45;&gt;Node7 -->
<g id="edge6" class="edge"><title>Node3&#45;&gt;Node7</title>
<path fill="none" stroke="midnightblue" d="M209.748,-60.7936C237.66,-51.5447 286.499,-35.3612 320.234,-24.1829"/>
<polygon fill="midnightblue" stroke="midnightblue" points="321.356,-27.4983 329.748,-21.0304 319.154,-20.8535 321.356,-27.4983"/>
</g>
</g>
</svg>
