<?xml version="1.0" encoding="UTF-8" standalone="no"?>
<!DOCTYPE svg PUBLIC "-//W3C//DTD SVG 1.1//EN"
 "http://www.w3.org/Graphics/SVG/1.1/DTD/svg11.dtd">
<!-- Generated by graphviz version 12.1.0 (20240811.2233)
 -->
<!-- Title: ErrorMessages.cpp Pages: 1 -->
<!--zoomable 366 -->
<svg id="main" version="1.1" xmlns="http://www.w3.org/2000/svg" xmlns:xlink="http://www.w3.org/1999/xlink" xml:space="preserve" onload="init(evt)">
<style type="text/css"><![CDATA[
.edge:hover path { stroke: red; }
.edge:hover polygon { stroke: red; fill: red; }
]]></style>
<script type="text/javascript"><![CDATA[
var edges = document.getElementsByTagName('g');
if (edges && edges.length) {
  for (var i=0;i<edges.length;i++) {
    if (edges[i].id.substr(0,4)=='edge') {
      edges[i].setAttribute('class','edge');
    }
  }
}
]]></script>
        <defs>
                <circle id="rim" cx="0" cy="0" r="7"/>
                <circle id="rim2" cx="0" cy="0" r="3.5"/>
                <g id="zoomPlus">
                        <use xlink:href="#rim" fill="#404040">
                                <set attributeName="fill" to="#808080" begin="zoomplus.mouseover" end="zoomplus.mouseout"/>
                        </use>
                        <path d="M-4,0h8M0,-4v8" fill="none" stroke="white" stroke-width="1.5" pointer-events="none"/>
                </g>
                <g id="zoomMin">
                        <use xlink:href="#rim" fill="#404040">
                                <set attributeName="fill" to="#808080" begin="zoomminus.mouseover" end="zoomminus.mouseout"/>
                        </use>
                        <path d="M-4,0h8" fill="none" stroke="white" stroke-width="1.5" pointer-events="none"/>
                </g>
                <g id="dirArrow">
                        <path fill="none" stroke="white" stroke-width="1.5" d="M0,-3.0v7 M-2.5,-0.5L0,-3.0L2.5,-0.5"/>
                </g>
               <g id="resetDef">
                       <use xlink:href="#rim2" fill="#404040">
                               <set attributeName="fill" to="#808080" begin="reset.mouseover" end="reset.mouseout"/>
                       </use>
               </g>
        </defs>

<script type="text/javascript">
var viewWidth = 2033;
var viewHeight = 366;
var sectionId = 'dynsection-0';
</script>
<script xlink:href="svgpan.js"/>
<svg id="graph" class="graph">
<g id="viewport">
<title>ErrorMessages.cpp</title>
<polygon fill="white" stroke="none" points="-4,4 -4,-361.75 2029.12,-361.75 2029.12,4 -4,4"/>
<!-- Node1 -->
<g id="node1" class="node">
<title>Node1</title>
<g id="a_node1"><a xlink:title=" ">
<polygon fill="#bfbfbf" stroke="black" points="560.5,-338 560.5,-357.25 661.25,-357.25 661.25,-338 560.5,-338"/>
<text text-anchor="middle" x="610.88" y="-343.75" font-family="Helvetica,sans-Serif" font-size="10.00">ErrorMessages.cpp</text>
</a>
</g>
</g>
<!-- Node2 -->
<g id="node2" class="node">
<title>Node2</title>
<g id="a_node2"><a xlink:title=" ">
<polygon fill="white" stroke="#bfbfbf" points="29.25,-169.25 29.25,-188.5 74.5,-188.5 74.5,-169.25 29.25,-169.25"/>
<text text-anchor="middle" x="51.88" y="-175" font-family="Helvetica,sans-Serif" font-size="10.00">stdio.h</text>
</a>
</g>
</g>
<!-- Node1&#45;&gt;Node2 -->
<g id="edge1" class="edge">
<title>Node1&#45;&gt;Node2</title>
<path fill="none" stroke="midnightblue" d="M560.31,-340.16C510.13,-333.09 431.33,-320.22 364.88,-301.5 297.94,-282.65 283.7,-270.42 218.88,-245.25 172.59,-227.27 119.17,-206.33 85.46,-193.08"/>
<polygon fill="midnightblue" stroke="midnightblue" points="86.82,-189.86 76.23,-189.46 84.26,-196.37 86.82,-189.86"/>
</g>
<!-- Node3 -->
<g id="node3" class="node">
<title>Node3</title>
<g id="a_node3"><a xlink:title=" ">
<polygon fill="white" stroke="#bfbfbf" points="92.75,-169.25 92.75,-188.5 141,-188.5 141,-169.25 92.75,-169.25"/>
<text text-anchor="middle" x="116.88" y="-175" font-family="Helvetica,sans-Serif" font-size="10.00">string.h</text>
</a>
</g>
</g>
<!-- Node1&#45;&gt;Node3 -->
<g id="edge2" class="edge">
<title>Node1&#45;&gt;Node3</title>
<path fill="none" stroke="midnightblue" d="M565.42,-337.53C527.25,-329.44 471.47,-316.59 423.88,-301.5 320.34,-268.68 201.92,-217.83 147.34,-193.61"/>
<polygon fill="midnightblue" stroke="midnightblue" points="148.94,-190.49 138.38,-189.61 146.09,-196.88 148.94,-190.49"/>
</g>
<!-- Node4 -->
<g id="node4" class="node">
<title>Node4</title>
<g id="a_node4"><a xlink:title=" ">
<polygon fill="white" stroke="#bfbfbf" points="158.75,-169.25 158.75,-188.5 207,-188.5 207,-169.25 158.75,-169.25"/>
<text text-anchor="middle" x="182.88" y="-175" font-family="Helvetica,sans-Serif" font-size="10.00">ctype.h</text>
</a>
</g>
</g>
<!-- Node1&#45;&gt;Node4 -->
<g id="edge3" class="edge">
<title>Node1&#45;&gt;Node4</title>
<path fill="none" stroke="midnightblue" d="M579.22,-337.55C550.98,-329.16 508.68,-315.84 472.88,-301.5 399.71,-272.19 385.78,-254.97 312.88,-225 281.17,-211.96 244.16,-199.36 217.76,-190.81"/>
<polygon fill="midnightblue" stroke="midnightblue" points="219.17,-187.58 208.58,-187.86 217.03,-194.25 219.17,-187.58"/>
</g>
<!-- Node5 -->
<g id="node5" class="node">
<title>Node5</title>
<g id="a_node5"><a xlink:title=" ">
<polygon fill="white" stroke="#bfbfbf" points="225.12,-169.25 225.12,-188.5 272.62,-188.5 272.62,-169.25 225.12,-169.25"/>
<text text-anchor="middle" x="248.88" y="-175" font-family="Helvetica,sans-Serif" font-size="10.00">limits.h</text>
</a>
</g>
</g>
<!-- Node1&#45;&gt;Node5 -->
<g id="edge4" class="edge">
<title>Node1&#45;&gt;Node5</title>
<path fill="none" stroke="midnightblue" d="M588.43,-337.55C567.7,-328.95 536.24,-315.32 509.88,-301.5 451.85,-271.08 443.31,-252.56 383.88,-225 365.9,-216.67 317.46,-201.06 283.79,-190.57"/>
<polygon fill="midnightblue" stroke="midnightblue" points="285.03,-187.29 274.45,-187.68 282.96,-193.98 285.03,-187.29"/>
</g>
<!-- Node6 -->
<g id="node6" class="node">
<title>Node6</title>
<g id="a_node6"><a xlink:title=" ">
<polygon fill="white" stroke="#bfbfbf" points="518.62,-281.75 518.62,-301 569.12,-301 569.12,-281.75 518.62,-281.75"/>
<text text-anchor="middle" x="543.88" y="-287.5" font-family="Helvetica,sans-Serif" font-size="10.00">unistd.h</text>
</a>
</g>
</g>
<!-- Node1&#45;&gt;Node6 -->
<g id="edge5" class="edge">
<title>Node1&#45;&gt;Node6</title>
<path fill="none" stroke="midnightblue" d="M599.81,-337.67C589.96,-329.69 575.31,-317.83 563.48,-308.25"/>
<polygon fill="midnightblue" stroke="midnightblue" points="565.88,-305.69 555.91,-302.12 561.48,-311.13 565.88,-305.69"/>
</g>
<!-- Node7 -->
<g id="node7" class="node">
<title>Node7</title>
<g id="a_node7"><a xlink:title=" ">
<polygon fill="white" stroke="#bfbfbf" points="587.12,-281.75 587.12,-301 634.62,-301 634.62,-281.75 587.12,-281.75"/>
<text text-anchor="middle" x="610.88" y="-287.5" font-family="Helvetica,sans-Serif" font-size="10.00">stdlib.h</text>
</a>
</g>
</g>
<!-- Node1&#45;&gt;Node7 -->
<g id="edge6" class="edge">
<title>Node1&#45;&gt;Node7</title>
<path fill="none" stroke="midnightblue" d="M610.88,-337.67C610.88,-330.87 610.88,-321.26 610.88,-312.65"/>
<polygon fill="midnightblue" stroke="midnightblue" points="614.38,-312.68 610.88,-302.68 607.38,-312.68 614.38,-312.68"/>
</g>
<!-- Node8 -->
<g id="node8" class="node">
<title>Node8</title>
<g id="a_node8"><a xlink:href="_rexx_core_8h.html" target="_top" xlink:title=" ">
<polygon fill="white" stroke="black" points="758.62,-225.5 758.62,-244.75 827.12,-244.75 827.12,-225.5 758.62,-225.5"/>
<text text-anchor="middle" x="792.88" y="-231.25" font-family="Helvetica,sans-Serif" font-size="10.00">RexxCore.h</text>
</a>
</g>
</g>
<!-- Node1&#45;&gt;Node8 -->
<g id="edge7" class="edge">
<title>Node1&#45;&gt;Node8</title>
<path fill="none" stroke="midnightblue" d="M661.41,-345.18C697.3,-341.47 744.2,-330.79 773.88,-301.5 785.84,-289.68 790.38,-270.8 792.04,-256.36"/>
<polygon fill="midnightblue" stroke="midnightblue" points="795.52,-256.85 792.77,-246.61 788.54,-256.32 795.52,-256.85"/>
</g>
<!-- Node52 -->
<g id="node44" class="node">
<title>Node52</title>
<g id="a_node44"><a xlink:href="_string_class_8hpp.html" target="_top" xlink:title=" ">
<polygon fill="white" stroke="black" points="1666,-281.75 1666,-301 1751.75,-301 1751.75,-281.75 1666,-281.75"/>
<text text-anchor="middle" x="1708.88" y="-287.5" font-family="Helvetica,sans-Serif" font-size="10.00">StringClass.hpp</text>
</a>
</g>
</g>
<!-- Node1&#45;&gt;Node52 -->
<g id="edge51" class="edge">
<title>Node1&#45;&gt;Node52</title>
<path fill="none" stroke="midnightblue" d="M661.63,-344.12C844.13,-335.1 1466.1,-304.37 1654.41,-295.07"/>
<polygon fill="midnightblue" stroke="midnightblue" points="1654.34,-298.57 1664.15,-294.58 1653.99,-291.58 1654.34,-298.57"/>
</g>
<!-- Node71 -->
<g id="node48" class="node">
<title>Node71</title>
<g id="a_node48"><a xlink:href="unix_2_system_interpreter_8hpp.html" target="_top" xlink:title=" ">
<polygon fill="white" stroke="black" points="652.88,-281.75 652.88,-301 764.88,-301 764.88,-281.75 652.88,-281.75"/>
<text text-anchor="middle" x="708.88" y="-287.5" font-family="Helvetica,sans-Serif" font-size="10.00">SystemInterpreter.hpp</text>
</a>
</g>
</g>
<!-- Node1&#45;&gt;Node71 -->
<g id="edge59" class="edge">
<title>Node1&#45;&gt;Node71</title>
<path fill="none" stroke="midnightblue" d="M627.06,-337.67C642.24,-329.26 665.19,-316.56 682.93,-306.74"/>
<polygon fill="midnightblue" stroke="midnightblue" points="684.29,-309.98 691.34,-302.08 680.9,-303.86 684.29,-309.98"/>
</g>
<!-- Node72 -->
<g id="node49" class="node">
<title>Node72</title>
<g id="a_node49"><a xlink:href="_rexx_message_numbers_8h.html" target="_top" xlink:title=" ">
<polygon fill="white" stroke="black" points="1769.38,-281.75 1769.38,-301 1896.38,-301 1896.38,-281.75 1769.38,-281.75"/>
<text text-anchor="middle" x="1832.88" y="-287.5" font-family="Helvetica,sans-Serif" font-size="10.00">RexxMessageNumbers.h</text>
</a>
</g>
</g>
<!-- Node1&#45;&gt;Node72 -->
<g id="edge61" class="edge">
<title>Node1&#45;&gt;Node72</title>
<path fill="none" stroke="midnightblue" d="M661.7,-346.2C821.46,-344.55 1327.98,-336.75 1757.51,-301.71"/>
<polygon fill="midnightblue" stroke="midnightblue" points="1757.73,-305.21 1767.41,-300.9 1757.15,-298.23 1757.73,-305.21"/>
</g>
<!-- Node73 -->
<g id="node50" class="node">
<title>Node73</title>
<g id="a_node50"><a xlink:href="_rexx_message_table_8h.html" target="_top" xlink:title=" ">
<polygon fill="white" stroke="black" points="1914.62,-281.75 1914.62,-301 2025.12,-301 2025.12,-281.75 1914.62,-281.75"/>
<text text-anchor="middle" x="1969.88" y="-287.5" font-family="Helvetica,sans-Serif" font-size="10.00">RexxMessageTable.h</text>
</a>
</g>
</g>
<!-- Node1&#45;&gt;Node73 -->
<g id="edge62" class="edge">
<title>Node1&#45;&gt;Node73</title>
<path fill="none" stroke="midnightblue" d="M661.6,-346.8C834.1,-346.99 1414.1,-344.26 1903.24,-301.63"/>
<polygon fill="midnightblue" stroke="midnightblue" points="1903.25,-305.15 1912.91,-300.78 1902.64,-298.17 1903.25,-305.15"/>
</g>
<!-- Node8&#45;&gt;Node2 -->
<g id="edge11" class="edge">
<title>Node8&#45;&gt;Node2</title>
<path fill="none" stroke="midnightblue" d="M758.26,-234.53C656.4,-235.18 348.91,-233.21 86.11,-188.98"/>
<polygon fill="midnightblue" stroke="midnightblue" points="86.75,-185.54 76.3,-187.31 85.57,-192.44 86.75,-185.54"/>
</g>
<!-- Node8&#45;&gt;Node3 -->
<g id="edge13" class="edge">
<title>Node8&#45;&gt;Node3</title>
<path fill="none" stroke="midnightblue" d="M758.43,-234.12C663.25,-233.58 388.6,-228.61 152.47,-189.11"/>
<polygon fill="midnightblue" stroke="midnightblue" points="153.2,-185.68 142.75,-187.46 152.02,-192.58 153.2,-185.68"/>
</g>
<!-- Node8&#45;&gt;Node4 -->
<g id="edge14" class="edge">
<title>Node8&#45;&gt;Node4</title>
<path fill="none" stroke="midnightblue" d="M758.44,-233.73C670.11,-232.22 428.2,-225.03 218.49,-189.13"/>
<polygon fill="midnightblue" stroke="midnightblue" points="219.21,-185.71 208.76,-187.44 218.01,-192.6 219.21,-185.71"/>
</g>
<!-- Node8&#45;&gt;Node5 -->
<g id="edge15" class="edge">
<title>Node8&#45;&gt;Node5</title>
<path fill="none" stroke="midnightblue" d="M758.2,-233.23C676.91,-230.68 467.72,-221.44 284.13,-189.08"/>
<polygon fill="midnightblue" stroke="midnightblue" points="284.86,-185.65 274.4,-187.33 283.62,-192.54 284.86,-185.65"/>
</g>
<!-- Node9 -->
<g id="node9" class="node">
<title>Node9</title>
<g id="a_node9"><a xlink:href="oorexxapi_8h.html" target="_top" xlink:title=" ">
<polygon fill="white" stroke="black" points="1227.75,-169.25 1227.75,-188.5 1294,-188.5 1294,-169.25 1227.75,-169.25"/>
<text text-anchor="middle" x="1260.88" y="-175" font-family="Helvetica,sans-Serif" font-size="10.00">oorexxapi.h</text>
</a>
</g>
</g>
<!-- Node8&#45;&gt;Node9 -->
<g id="edge8" class="edge">
<title>Node8&#45;&gt;Node9</title>
<path fill="none" stroke="midnightblue" d="M827.46,-231.67C898.32,-226.38 1065.28,-212.59 1216.3,-189.07"/>
<polygon fill="midnightblue" stroke="midnightblue" points="1216.78,-192.54 1226.11,-187.53 1215.69,-185.63 1216.78,-192.54"/>
</g>
<!-- Node16 -->
<g id="node12" class="node">
<title>Node16</title>
<g id="a_node12"><a xlink:title=" ">
<polygon fill="white" stroke="#bfbfbf" points="1683.25,-169.25 1683.25,-188.5 1734.5,-188.5 1734.5,-169.25 1683.25,-169.25"/>
<text text-anchor="middle" x="1708.88" y="-175" font-family="Helvetica,sans-Serif" font-size="10.00">stdarg.h</text>
</a>
</g>
</g>
<!-- Node8&#45;&gt;Node16 -->
<g id="edge12" class="edge">
<title>Node8&#45;&gt;Node16</title>
<path fill="none" stroke="midnightblue" d="M827.47,-233.33C966.46,-229.99 1485.26,-216.08 1671.74,-189.13"/>
<polygon fill="midnightblue" stroke="midnightblue" points="1672.15,-192.61 1681.51,-187.65 1671.1,-185.69 1672.15,-192.61"/>
</g>
<!-- Node17 -->
<g id="node13" class="node">
<title>Node17</title>
<g id="a_node13"><a xlink:title=" ">
<polygon fill="white" stroke="#bfbfbf" points="1150.5,-169.25 1150.5,-188.5 1209.25,-188.5 1209.25,-169.25 1150.5,-169.25"/>
<text text-anchor="middle" x="1179.88" y="-175" font-family="Helvetica,sans-Serif" font-size="10.00">stdexcept</text>
</a>
</g>
</g>
<!-- Node8&#45;&gt;Node17 -->
<g id="edge16" class="edge">
<title>Node8&#45;&gt;Node17</title>
<path fill="none" stroke="midnightblue" d="M827.13,-230.84C887.84,-224.77 1018.46,-210.6 1138.88,-189.19"/>
<polygon fill="midnightblue" stroke="midnightblue" points="1139.42,-192.65 1148.64,-187.43 1138.18,-185.76 1139.42,-192.65"/>
</g>
<!-- Node18 -->
<g id="node14" class="node">
<title>Node18</title>
<g id="a_node14"><a xlink:href="_rexx_platform_definitions_8h.html" target="_top" xlink:title=" ">
<polygon fill="white" stroke="black" points="1433.5,-169.25 1433.5,-188.5 1564.25,-188.5 1564.25,-169.25 1433.5,-169.25"/>
<text text-anchor="middle" x="1498.88" y="-175" font-family="Helvetica,sans-Serif" font-size="10.00">RexxPlatformDefinitions.h</text>
</a>
</g>
</g>
<!-- Node8&#45;&gt;Node18 -->
<g id="edge17" class="edge">
<title>Node8&#45;&gt;Node18</title>
<path fill="none" stroke="midnightblue" d="M827.52,-232.28C921.38,-227.14 1188.62,-211.64 1421.7,-189.27"/>
<polygon fill="midnightblue" stroke="midnightblue" points="1422,-192.75 1431.62,-188.31 1421.33,-185.79 1422,-192.75"/>
</g>
<!-- Node21 -->
<g id="node17" class="node">
<title>Node21</title>
<g id="a_node17"><a xlink:href="_rexx_constants_8hpp.html" target="_top" xlink:title=" ">
<polygon fill="white" stroke="black" points="1312.38,-169.25 1312.38,-188.5 1415.38,-188.5 1415.38,-169.25 1312.38,-169.25"/>
<text text-anchor="middle" x="1363.88" y="-175" font-family="Helvetica,sans-Serif" font-size="10.00">RexxConstants.hpp</text>
</a>
</g>
</g>
<!-- Node8&#45;&gt;Node21 -->
<g id="edge20" class="edge">
<title>Node8&#45;&gt;Node21</title>
<path fill="none" stroke="midnightblue" d="M827.58,-231.78C908.47,-226.16 1116.04,-210.83 1300.7,-189.19"/>
<polygon fill="midnightblue" stroke="midnightblue" points="1300.97,-192.68 1310.49,-188.03 1300.14,-185.73 1300.97,-192.68"/>
</g>
<!-- Node22 -->
<g id="node18" class="node">
<title>Node22</title>
<g id="a_node18"><a xlink:href="_class_type_codes_8h.html" target="_top" xlink:title=" ">
<polygon fill="white" stroke="black" points="326.25,-56.75 326.25,-76 425.5,-76 425.5,-56.75 326.25,-56.75"/>
<text text-anchor="middle" x="375.88" y="-62.5" font-family="Helvetica,sans-Serif" font-size="10.00">ClassTypeCodes.h</text>
</a>
</g>
</g>
<!-- Node8&#45;&gt;Node22 -->
<g id="edge21" class="edge">
<title>Node8&#45;&gt;Node22</title>
<path fill="none" stroke="midnightblue" d="M758.14,-229.65C714.04,-223.38 635.98,-210.3 571.88,-189 551.83,-182.34 548.34,-176.97 528.88,-168.75 486.89,-151.03 470.32,-158.71 432.88,-132.75 414.55,-120.05 398.36,-100.17 387.96,-85.67"/>
<polygon fill="midnightblue" stroke="midnightblue" points="390.88,-83.73 382.32,-77.48 385.11,-87.7 390.88,-83.73"/>
</g>
<!-- Node23 -->
<g id="node19" class="node">
<title>Node23</title>
<g id="a_node19"><a xlink:href="_global_names_8h.html" target="_top" xlink:title=" ">
<polygon fill="white" stroke="black" points="1582.12,-169.25 1582.12,-188.5 1665.62,-188.5 1665.62,-169.25 1582.12,-169.25"/>
<text text-anchor="middle" x="1623.88" y="-175" font-family="Helvetica,sans-Serif" font-size="10.00">GlobalNames.h</text>
</a>
</g>
</g>
<!-- Node8&#45;&gt;Node23 -->
<g id="edge22" class="edge">
<title>Node8&#45;&gt;Node23</title>
<path fill="none" stroke="midnightblue" d="M827.6,-233.59C935.94,-231.61 1277.46,-223.03 1570.36,-189.15"/>
<polygon fill="midnightblue" stroke="midnightblue" points="1570.6,-192.65 1580.13,-188.01 1569.79,-185.7 1570.6,-192.65"/>
</g>
<!-- Node24 -->
<g id="node20" class="node">
<title>Node24</title>
<g id="a_node20"><a xlink:href="_object_class_8hpp.html" target="_top" xlink:title=" ">
<polygon fill="white" stroke="black" points="1790.5,-169.25 1790.5,-188.5 1879.25,-188.5 1879.25,-169.25 1790.5,-169.25"/>
<text text-anchor="middle" x="1834.88" y="-175" font-family="Helvetica,sans-Serif" font-size="10.00">ObjectClass.hpp</text>
</a>
</g>
</g>
<!-- Node8&#45;&gt;Node24 -->
<g id="edge23" class="edge">
<title>Node8&#45;&gt;Node24</title>
<path fill="none" stroke="midnightblue" d="M827.46,-233.14C951.57,-229.47 1386.17,-215.4 1743.88,-189 1755.16,-188.17 1767.21,-187.09 1778.73,-185.97"/>
<polygon fill="midnightblue" stroke="midnightblue" points="1778.91,-189.47 1788.51,-185 1778.21,-182.51 1778.91,-189.47"/>
</g>
<!-- Node27 -->
<g id="node23" class="node">
<title>Node27</title>
<g id="a_node23"><a xlink:href="_table_class_8hpp.html" target="_top" xlink:title=" ">
<polygon fill="white" stroke="black" points="139.12,-56.75 139.12,-76 222.62,-76 222.62,-56.75 139.12,-56.75"/>
<text text-anchor="middle" x="180.88" y="-62.5" font-family="Helvetica,sans-Serif" font-size="10.00">TableClass.hpp</text>
</a>
</g>
</g>
<!-- Node8&#45;&gt;Node27 -->
<g id="edge26" class="edge">
<title>Node8&#45;&gt;Node27</title>
<path fill="none" stroke="midnightblue" d="M758.46,-232.41C707,-228.92 607.65,-218.64 528.88,-189 512.77,-182.94 511.99,-174.79 495.88,-168.75 405.98,-135.03 372.43,-167.35 282.88,-132.75 266.41,-126.39 227.68,-100.26 202.96,-83.02"/>
<polygon fill="midnightblue" stroke="midnightblue" points="205.07,-80.23 194.88,-77.35 201.05,-85.96 205.07,-80.23"/>
</g>
<!-- Node30 -->
<g id="node25" class="node">
<title>Node30</title>
<g id="a_node25"><a xlink:href="_stack_class_8hpp.html" target="_top" xlink:title=" ">
<polygon fill="white" stroke="black" points="401,-169.25 401,-188.5 486.75,-188.5 486.75,-169.25 401,-169.25"/>
<text text-anchor="middle" x="443.88" y="-175" font-family="Helvetica,sans-Serif" font-size="10.00">StackClass.hpp</text>
</a>
</g>
</g>
<!-- Node8&#45;&gt;Node30 -->
<g id="edge28" class="edge">
<title>Node8&#45;&gt;Node30</title>
<path fill="none" stroke="midnightblue" d="M758.25,-228.84C703.57,-220.47 593.86,-203.63 500.88,-189 500.04,-188.87 499.2,-188.74 498.35,-188.6"/>
<polygon fill="midnightblue" stroke="midnightblue" points="499.05,-185.17 488.63,-187.06 497.96,-192.08 499.05,-185.17"/>
</g>
<!-- Node31 -->
<g id="node26" class="node">
<title>Node31</title>
<g id="a_node26"><a xlink:href="_rexx_memory_8hpp.html" target="_top" xlink:title=" ">
<polygon fill="white" stroke="black" points="291,-169.25 291,-188.5 382.75,-188.5 382.75,-169.25 291,-169.25"/>
<text text-anchor="middle" x="336.88" y="-175" font-family="Helvetica,sans-Serif" font-size="10.00">RexxMemory.hpp</text>
</a>
</g>
</g>
<!-- Node8&#45;&gt;Node31 -->
<g id="edge29" class="edge">
<title>Node8&#45;&gt;Node31</title>
<path fill="none" stroke="midnightblue" d="M758.2,-230.84C690.38,-224.28 535.16,-208.62 394.06,-189.24"/>
<polygon fill="midnightblue" stroke="midnightblue" points="394.95,-185.83 384.56,-187.93 393.99,-192.76 394.95,-185.83"/>
</g>
<!-- Node38 -->
<g id="node31" class="node">
<title>Node38</title>
<g id="a_node31"><a xlink:href="_rexx_behaviour_8hpp.html" target="_top" xlink:title=" ">
<polygon fill="white" stroke="black" points="801.5,-169.25 801.5,-188.5 902.25,-188.5 902.25,-169.25 801.5,-169.25"/>
<text text-anchor="middle" x="851.88" y="-175" font-family="Helvetica,sans-Serif" font-size="10.00">RexxBehaviour.hpp</text>
</a>
</g>
</g>
<!-- Node8&#45;&gt;Node38 -->
<g id="edge37" class="edge">
<title>Node8&#45;&gt;Node38</title>
<path fill="none" stroke="midnightblue" d="M802.62,-225.17C811.12,-217.35 823.68,-205.8 833.99,-196.32"/>
<polygon fill="midnightblue" stroke="midnightblue" points="836.21,-199.04 841.2,-189.69 831.47,-193.88 836.21,-199.04"/>
</g>
<!-- Node40 -->
<g id="node33" class="node">
<title>Node40</title>
<g id="a_node33"><a xlink:href="_class_class_8hpp.html" target="_top" xlink:title=" ">
<polygon fill="white" stroke="black" points="581,-169.25 581,-188.5 666.75,-188.5 666.75,-169.25 581,-169.25"/>
<text text-anchor="middle" x="623.88" y="-175" font-family="Helvetica,sans-Serif" font-size="10.00">ClassClass.hpp</text>
</a>
</g>
</g>
<!-- Node8&#45;&gt;Node40 -->
<g id="edge39" class="edge">
<title>Node8&#45;&gt;Node40</title>
<path fill="none" stroke="midnightblue" d="M764.59,-225.04C736.8,-216.13 694.18,-202.44 663.12,-192.47"/>
<polygon fill="midnightblue" stroke="midnightblue" points="664.29,-189.17 653.7,-189.45 662.15,-195.84 664.29,-189.17"/>
</g>
<!-- Node41 -->
<g id="node34" class="node">
<title>Node41</title>
<g id="a_node34"><a xlink:href="_rexx_envelope_8hpp.html" target="_top" xlink:title=" ">
<polygon fill="white" stroke="black" points="684.62,-169.25 684.62,-188.5 783.12,-188.5 783.12,-169.25 684.62,-169.25"/>
<text text-anchor="middle" x="733.88" y="-175" font-family="Helvetica,sans-Serif" font-size="10.00">RexxEnvelope.hpp</text>
</a>
</g>
</g>
<!-- Node8&#45;&gt;Node41 -->
<g id="edge40" class="edge">
<title>Node8&#45;&gt;Node41</title>
<path fill="none" stroke="midnightblue" d="M783.13,-225.17C774.63,-217.35 762.07,-205.8 751.76,-196.32"/>
<polygon fill="midnightblue" stroke="midnightblue" points="754.28,-193.88 744.55,-189.69 749.54,-199.04 754.28,-193.88"/>
</g>
<!-- Node42 -->
<g id="node35" class="node">
<title>Node42</title>
<g id="a_node35"><a xlink:href="_rexx_activity_8hpp.html" target="_top" xlink:title=" ">
<polygon fill="white" stroke="red" points="920.12,-169.25 920.12,-188.5 1009.62,-188.5 1009.62,-169.25 920.12,-169.25"/>
<text text-anchor="middle" x="964.88" y="-175" font-family="Helvetica,sans-Serif" font-size="10.00">RexxActivity.hpp</text>
</a>
</g>
</g>
<!-- Node8&#45;&gt;Node42 -->
<g id="edge41" class="edge">
<title>Node8&#45;&gt;Node42</title>
<path fill="none" stroke="midnightblue" d="M821.66,-225.04C850.07,-216.09 893.7,-202.32 925.34,-192.34"/>
<polygon fill="midnightblue" stroke="midnightblue" points="926.06,-195.79 934.55,-189.44 923.96,-189.11 926.06,-195.79"/>
</g>
<!-- Node53 -->
<g id="node42" class="node">
<title>Node53</title>
<g id="a_node42"><a xlink:href="_number_string_class_8hpp.html" target="_top" xlink:title=" ">
<polygon fill="white" stroke="red" points="1897.75,-169.25 1897.75,-188.5 2018,-188.5 2018,-169.25 1897.75,-169.25"/>
<text text-anchor="middle" x="1957.88" y="-175" font-family="Helvetica,sans-Serif" font-size="10.00">NumberStringClass.hpp</text>
</a>
</g>
</g>
<!-- Node8&#45;&gt;Node53 -->
<g id="edge48" class="edge">
<title>Node8&#45;&gt;Node53</title>
<path fill="none" stroke="midnightblue" d="M827.47,-233.81C961.86,-232.36 1462.39,-224.8 1886.32,-189.04"/>
<polygon fill="midnightblue" stroke="midnightblue" points="1886.41,-192.54 1896.07,-188.21 1885.81,-185.57 1886.41,-192.54"/>
</g>
<!-- Node69 -->
<g id="node43" class="node">
<title>Node69</title>
<g id="a_node43"><a xlink:href="_activity_manager_8hpp.html" target="_top" xlink:title=" ">
<polygon fill="white" stroke="red" points="1027.62,-169.25 1027.62,-188.5 1132.12,-188.5 1132.12,-169.25 1027.62,-169.25"/>
<text text-anchor="middle" x="1079.88" y="-175" font-family="Helvetica,sans-Serif" font-size="10.00">ActivityManager.hpp</text>
</a>
</g>
</g>
<!-- Node8&#45;&gt;Node69 -->
<g id="edge50" class="edge">
<title>Node8&#45;&gt;Node69</title>
<path fill="none" stroke="midnightblue" d="M827.49,-227.58C875.3,-218.55 962.2,-202.12 1020.49,-191.1"/>
<polygon fill="midnightblue" stroke="midnightblue" points="1021.08,-194.55 1030.26,-189.25 1019.78,-187.67 1021.08,-194.55"/>
</g>
<!-- Node10 -->
<g id="node10" class="node">
<title>Node10</title>
<g id="a_node10"><a xlink:href="rexx_8h.html" target="_top" xlink:title=" ">
<polygon fill="white" stroke="red" points="1820.38,-113 1820.38,-132.25 1863.38,-132.25 1863.38,-113 1820.38,-113"/>
<text text-anchor="middle" x="1841.88" y="-118.75" font-family="Helvetica,sans-Serif" font-size="10.00">rexx.h</text>
</a>
</g>
</g>
<!-- Node9&#45;&gt;Node10 -->
<g id="edge9" class="edge">
<title>Node9&#45;&gt;Node10</title>
<path fill="none" stroke="midnightblue" d="M1294.13,-170.34C1297.41,-169.74 1300.7,-169.2 1303.88,-168.75 1524.4,-137.69 1587.29,-172.78 1809.04,-132.9"/>
<polygon fill="midnightblue" stroke="midnightblue" points="1809.37,-136.4 1818.57,-131.15 1808.1,-129.51 1809.37,-136.4"/>
</g>
<!-- Node15 -->
<g id="node11" class="node">
<title>Node15</title>
<g id="a_node11"><a xlink:href="oorexxerrors_8h.html" target="_top" xlink:title=" ">
<polygon fill="white" stroke="black" points="1483.75,-113 1483.75,-132.25 1562,-132.25 1562,-113 1483.75,-113"/>
<text text-anchor="middle" x="1522.88" y="-118.75" font-family="Helvetica,sans-Serif" font-size="10.00">oorexxerrors.h</text>
</a>
</g>
</g>
<!-- Node9&#45;&gt;Node15 -->
<g id="edge10" class="edge">
<title>Node9&#45;&gt;Node15</title>
<path fill="none" stroke="midnightblue" d="M1294.21,-170.78C1297.47,-170.09 1300.74,-169.41 1303.88,-168.75 1361.55,-156.69 1427.82,-143.07 1472.22,-133.97"/>
<polygon fill="midnightblue" stroke="midnightblue" points="1472.72,-137.44 1481.81,-132.01 1471.32,-130.59 1472.72,-137.44"/>
</g>
<!-- Node19 -->
<g id="node15" class="node">
<title>Node19</title>
<g id="a_node15"><a xlink:title=" ">
<polygon fill="white" stroke="#bfbfbf" points="1580.12,-113 1580.12,-132.25 1687.62,-132.25 1687.62,-113 1580.12,-113"/>
<text text-anchor="middle" x="1633.88" y="-118.75" font-family="Helvetica,sans-Serif" font-size="10.00">PlatformDefinitions.h</text>
</a>
</g>
</g>
<!-- Node18&#45;&gt;Node19 -->
<g id="edge18" class="edge">
<title>Node18&#45;&gt;Node19</title>
<path fill="none" stroke="midnightblue" d="M1521.47,-168.79C1543.08,-160.11 1575.93,-146.91 1600.55,-137.02"/>
<polygon fill="midnightblue" stroke="midnightblue" points="1601.83,-140.28 1609.8,-133.3 1599.22,-133.78 1601.83,-140.28"/>
</g>
<!-- Node20 -->
<g id="node16" class="node">
<title>Node20</title>
<g id="a_node16"><a xlink:href="_rexx_error_codes_8h.html" target="_top" xlink:title=" ">
<polygon fill="white" stroke="black" points="1705.38,-113 1705.38,-132.25 1802.38,-132.25 1802.38,-113 1705.38,-113"/>
<text text-anchor="middle" x="1753.88" y="-118.75" font-family="Helvetica,sans-Serif" font-size="10.00">RexxErrorCodes.h</text>
</a>
</g>
</g>
<!-- Node18&#45;&gt;Node20 -->
<g id="edge19" class="edge">
<title>Node18&#45;&gt;Node20</title>
<path fill="none" stroke="midnightblue" d="M1541.56,-168.79C1585.04,-159.54 1652.62,-145.17 1699.82,-135.12"/>
<polygon fill="midnightblue" stroke="midnightblue" points="1700.52,-138.55 1709.57,-133.05 1699.06,-131.71 1700.52,-138.55"/>
</g>
<!-- Node25 -->
<g id="node21" class="node">
<title>Node25</title>
<g id="a_node21"><a xlink:href="_numerics_8hpp.html" target="_top" xlink:title=" ">
<polygon fill="white" stroke="black" points="1919.5,-113 1919.5,-132.25 1996.25,-132.25 1996.25,-113 1919.5,-113"/>
<text text-anchor="middle" x="1957.88" y="-118.75" font-family="Helvetica,sans-Serif" font-size="10.00">Numerics.hpp</text>
</a>
</g>
</g>
<!-- Node24&#45;&gt;Node25 -->
<g id="edge24" class="edge">
<title>Node24&#45;&gt;Node25</title>
<path fill="none" stroke="midnightblue" d="M1855.46,-168.79C1874.97,-160.19 1904.54,-147.15 1926.9,-137.29"/>
<polygon fill="midnightblue" stroke="midnightblue" points="1928.1,-140.58 1935.84,-133.35 1925.27,-134.18 1928.1,-140.58"/>
</g>
<!-- Node26 -->
<g id="node22" class="node">
<title>Node26</title>
<g id="a_node22"><a xlink:title=" ">
<polygon fill="white" stroke="#bfbfbf" points="1168.25,-56.75 1168.25,-76 1219.5,-76 1219.5,-56.75 1168.25,-56.75"/>
<text text-anchor="middle" x="1193.88" y="-62.5" font-family="Helvetica,sans-Serif" font-size="10.00">stddef.h</text>
</a>
</g>
</g>
<!-- Node24&#45;&gt;Node26 -->
<g id="edge25" class="edge">
<title>Node24&#45;&gt;Node26</title>
<path fill="none" stroke="midnightblue" d="M1846.93,-168.8C1863.39,-155.35 1889.11,-129.85 1872.88,-112.5 1828.85,-65.45 1366.73,-65.82 1231.1,-66.96"/>
<polygon fill="midnightblue" stroke="midnightblue" points="1231.21,-63.46 1221.24,-67.05 1231.28,-70.46 1231.21,-63.46"/>
</g>
<!-- Node28 -->
<g id="node24" class="node">
<title>Node28</title>
<g id="a_node24"><a xlink:href="_rexx_collection_8hpp.html" target="_top" xlink:title=" ">
<polygon fill="white" stroke="red" points="130.12,-0.5 130.12,-19.75 231.62,-19.75 231.62,-0.5 130.12,-0.5"/>
<text text-anchor="middle" x="180.88" y="-6.25" font-family="Helvetica,sans-Serif" font-size="10.00">RexxCollection.hpp</text>
</a>
</g>
</g>
<!-- Node27&#45;&gt;Node28 -->
<g id="edge27" class="edge">
<title>Node27&#45;&gt;Node28</title>
<path fill="none" stroke="midnightblue" d="M180.88,-56.42C180.88,-49.62 180.88,-40.01 180.88,-31.4"/>
<polygon fill="midnightblue" stroke="midnightblue" points="184.38,-31.43 180.88,-21.43 177.38,-31.43 184.38,-31.43"/>
</g>
<!-- Node32 -->
<g id="node27" class="node">
<title>Node32</title>
<g id="a_node27"><a xlink:title=" ">
<polygon fill="white" stroke="#bfbfbf" points="134.12,-113 134.12,-132.25 235.62,-132.25 235.62,-113 134.12,-113"/>
<text text-anchor="middle" x="184.88" y="-118.75" font-family="Helvetica,sans-Serif" font-size="10.00">SysSemaphore.hpp</text>
</a>
</g>
</g>
<!-- Node31&#45;&gt;Node32 -->
<g id="edge30" class="edge">
<title>Node31&#45;&gt;Node32</title>
<path fill="none" stroke="midnightblue" d="M311.43,-168.79C286.66,-159.95 248.78,-146.43 220.91,-136.49"/>
<polygon fill="midnightblue" stroke="midnightblue" points="222.42,-133.31 211.82,-133.24 220.07,-139.9 222.42,-133.31"/>
</g>
<!-- Node33 -->
<g id="node28" class="node">
<title>Node33</title>
<g id="a_node28"><a xlink:href="_identity_table_class_8hpp.html" target="_top" xlink:title=" ">
<polygon fill="white" stroke="black" points="0,-113 0,-132.25 115.75,-132.25 115.75,-113 0,-113"/>
<text text-anchor="middle" x="57.88" y="-118.75" font-family="Helvetica,sans-Serif" font-size="10.00">IdentityTableClass.hpp</text>
</a>
</g>
</g>
<!-- Node31&#45;&gt;Node33 -->
<g id="edge31" class="edge">
<title>Node31&#45;&gt;Node33</title>
<path fill="none" stroke="midnightblue" d="M290.8,-168.92C242.79,-159.58 167.44,-144.93 115.51,-134.83"/>
<polygon fill="midnightblue" stroke="midnightblue" points="116.45,-131.45 105.97,-132.98 115.11,-138.32 116.45,-131.45"/>
</g>
<!-- Node34 -->
<g id="node29" class="node">
<title>Node34</title>
<g id="a_node29"><a xlink:href="_memory_stats_8hpp.html" target="_top" xlink:title=" ">
<polygon fill="white" stroke="black" points="292.25,-113 292.25,-132.25 385.5,-132.25 385.5,-113 292.25,-113"/>
<text text-anchor="middle" x="338.88" y="-118.75" font-family="Helvetica,sans-Serif" font-size="10.00">MemoryStats.hpp</text>
</a>
</g>
</g>
<!-- Node31&#45;&gt;Node34 -->
<g id="edge33" class="edge">
<title>Node31&#45;&gt;Node34</title>
<path fill="none" stroke="midnightblue" d="M337.21,-168.92C337.46,-162.12 337.81,-152.51 338.13,-143.9"/>
<polygon fill="midnightblue" stroke="midnightblue" points="341.62,-144.05 338.5,-133.93 334.63,-143.79 341.62,-144.05"/>
</g>
<!-- Node35 -->
<g id="node30" class="node">
<title>Node35</title>
<g id="a_node30"><a xlink:href="_memory_segment_8hpp.html" target="_top" xlink:title=" ">
<polygon fill="white" stroke="red" points="442.38,-113 442.38,-132.25 551.38,-132.25 551.38,-113 442.38,-113"/>
<text text-anchor="middle" x="496.88" y="-118.75" font-family="Helvetica,sans-Serif" font-size="10.00">MemorySegment.hpp</text>
</a>
</g>
</g>
<!-- Node31&#45;&gt;Node35 -->
<g id="edge35" class="edge">
<title>Node31&#45;&gt;Node35</title>
<path fill="none" stroke="midnightblue" d="M363.66,-168.79C389.84,-159.91 429.96,-146.31 459.33,-136.36"/>
<polygon fill="midnightblue" stroke="midnightblue" points="460.23,-139.75 468.57,-133.22 457.98,-133.12 460.23,-139.75"/>
</g>
<!-- Node33&#45;&gt;Node27 -->
<g id="edge32" class="edge">
<title>Node33&#45;&gt;Node27</title>
<path fill="none" stroke="midnightblue" d="M78.46,-112.54C97.97,-103.94 127.54,-90.9 149.9,-81.04"/>
<polygon fill="midnightblue" stroke="midnightblue" points="151.1,-84.33 158.84,-77.1 148.27,-77.93 151.1,-84.33"/>
</g>
<!-- Node34&#45;&gt;Node22 -->
<g id="edge34" class="edge">
<title>Node34&#45;&gt;Node22</title>
<path fill="none" stroke="midnightblue" d="M344.98,-112.67C350,-105.32 357.25,-94.68 363.47,-85.56"/>
<polygon fill="midnightblue" stroke="midnightblue" points="366.28,-87.65 369.03,-77.42 360.5,-83.71 366.28,-87.65"/>
</g>
<!-- Node35&#45;&gt;Node26 -->
<g id="edge36" class="edge">
<title>Node35&#45;&gt;Node26</title>
<path fill="none" stroke="midnightblue" d="M551.82,-113.43C554.54,-113.1 557.24,-112.78 559.88,-112.5 785.78,-88.13 1058.45,-73.77 1156.5,-69.08"/>
<polygon fill="midnightblue" stroke="midnightblue" points="1156.51,-72.59 1166.33,-68.62 1156.18,-65.59 1156.51,-72.59"/>
</g>
<!-- Node39 -->
<g id="node32" class="node">
<title>Node39</title>
<g id="a_node32"><a xlink:href="_primitive_behaviour_names_8h.html" target="_top" xlink:title=" ">
<polygon fill="white" stroke="black" points="569.12,-113 569.12,-132.25 706.62,-132.25 706.62,-113 569.12,-113"/>
<text text-anchor="middle" x="637.88" y="-118.75" font-family="Helvetica,sans-Serif" font-size="10.00">PrimitiveBehaviourNames.h</text>
</a>
</g>
</g>
<!-- Node38&#45;&gt;Node39 -->
<g id="edge38" class="edge">
<title>Node38&#45;&gt;Node39</title>
<path fill="none" stroke="midnightblue" d="M816.06,-168.79C780.02,-159.66 724.29,-145.53 684.75,-135.51"/>
<polygon fill="midnightblue" stroke="midnightblue" points="685.83,-132.17 675.28,-133.11 684.11,-138.96 685.83,-132.17"/>
</g>
<!-- Node43 -->
<g id="node36" class="node">
<title>Node43</title>
<g id="a_node36"><a xlink:href="_list_class_8hpp.html" target="_top" xlink:title=" ">
<polygon fill="white" stroke="red" points="1389.88,-113 1389.88,-132.25 1465.88,-132.25 1465.88,-113 1389.88,-113"/>
<text text-anchor="middle" x="1427.88" y="-118.75" font-family="Helvetica,sans-Serif" font-size="10.00">ListClass.hpp</text>
</a>
</g>
</g>
<!-- Node42&#45;&gt;Node43 -->
<g id="edge42" class="edge">
<title>Node42&#45;&gt;Node43</title>
<path fill="none" stroke="midnightblue" d="M1009.92,-170.03C1012.95,-169.57 1015.95,-169.14 1018.88,-168.75 1175.52,-147.75 1218.96,-155.8 1378.28,-133.01"/>
<polygon fill="midnightblue" stroke="midnightblue" points="1378.56,-136.5 1387.95,-131.6 1377.55,-129.58 1378.56,-136.5"/>
</g>
<!-- Node45 -->
<g id="node37" class="node">
<title>Node45</title>
<g id="a_node37"><a xlink:href="_rexx_internal_stack_8hpp.html" target="_top" xlink:title=" ">
<polygon fill="white" stroke="black" points="725,-113 725,-132.25 840.75,-132.25 840.75,-113 725,-113"/>
<text text-anchor="middle" x="782.88" y="-118.75" font-family="Helvetica,sans-Serif" font-size="10.00">RexxInternalStack.hpp</text>
</a>
</g>
</g>
<!-- Node42&#45;&gt;Node45 -->
<g id="edge43" class="edge">
<title>Node42&#45;&gt;Node45</title>
<path fill="none" stroke="midnightblue" d="M934.41,-168.79C904.23,-159.8 857.78,-145.95 824.27,-135.96"/>
<polygon fill="midnightblue" stroke="midnightblue" points="825.47,-132.67 814.89,-133.17 823.47,-139.38 825.47,-132.67"/>
</g>
<!-- Node46 -->
<g id="node38" class="node">
<title>Node46</title>
<g id="a_node38"><a xlink:href="_rexx_activation_stack_8hpp.html" target="_top" xlink:title=" ">
<polygon fill="white" stroke="black" points="858.38,-113 858.38,-132.25 985.38,-132.25 985.38,-113 858.38,-113"/>
<text text-anchor="middle" x="921.88" y="-118.75" font-family="Helvetica,sans-Serif" font-size="10.00">RexxActivationStack.hpp</text>
</a>
</g>
</g>
<!-- Node42&#45;&gt;Node46 -->
<g id="edge44" class="edge">
<title>Node42&#45;&gt;Node46</title>
<path fill="none" stroke="midnightblue" d="M957.77,-168.92C951.83,-161.41 943.16,-150.47 935.83,-141.23"/>
<polygon fill="midnightblue" stroke="midnightblue" points="938.74,-139.27 929.78,-133.6 933.25,-143.61 938.74,-139.27"/>
</g>
<!-- Node47 -->
<g id="node39" class="node">
<title>Node47</title>
<g id="a_node39"><a xlink:href="_expression_stack_8hpp.html" target="_top" xlink:title=" ">
<polygon fill="white" stroke="red" points="1003.38,-113 1003.38,-132.25 1112.38,-132.25 1112.38,-113 1003.38,-113"/>
<text text-anchor="middle" x="1057.88" y="-118.75" font-family="Helvetica,sans-Serif" font-size="10.00">ExpressionStack.hpp</text>
</a>
</g>
</g>
<!-- Node42&#45;&gt;Node47 -->
<g id="edge45" class="edge">
<title>Node42&#45;&gt;Node47</title>
<path fill="none" stroke="midnightblue" d="M980.23,-168.92C994.5,-160.59 1016.01,-148.04 1032.78,-138.27"/>
<polygon fill="midnightblue" stroke="midnightblue" points="1034.31,-141.42 1041.19,-133.36 1030.79,-135.37 1034.31,-141.42"/>
</g>
<!-- Node49 -->
<g id="node40" class="node">
<title>Node49</title>
<g id="a_node40"><a xlink:href="_rexx_local_variables_8hpp.html" target="_top" xlink:title=" ">
<polygon fill="white" stroke="red" points="1130.38,-113 1130.38,-132.25 1251.38,-132.25 1251.38,-113 1130.38,-113"/>
<text text-anchor="middle" x="1190.88" y="-118.75" font-family="Helvetica,sans-Serif" font-size="10.00">RexxLocalVariables.hpp</text>
</a>
</g>
</g>
<!-- Node42&#45;&gt;Node49 -->
<g id="edge46" class="edge">
<title>Node42&#45;&gt;Node49</title>
<path fill="none" stroke="midnightblue" d="M1002.7,-168.79C1040.92,-159.62 1100.12,-145.41 1141.9,-135.38"/>
<polygon fill="midnightblue" stroke="midnightblue" points="1142.55,-138.83 1151.45,-133.09 1140.91,-132.02 1142.55,-138.83"/>
</g>
<!-- Node64 -->
<g id="node41" class="node">
<title>Node64</title>
<g id="a_node41"><a xlink:href="_source_location_8hpp.html" target="_top" xlink:title=" ">
<polygon fill="white" stroke="black" points="1269.75,-113 1269.75,-132.25 1372,-132.25 1372,-113 1269.75,-113"/>
<text text-anchor="middle" x="1320.88" y="-118.75" font-family="Helvetica,sans-Serif" font-size="10.00">SourceLocation.hpp</text>
</a>
</g>
</g>
<!-- Node42&#45;&gt;Node64 -->
<g id="edge47" class="edge">
<title>Node42&#45;&gt;Node64</title>
<path fill="none" stroke="midnightblue" d="M1009.95,-170.19C1012.97,-169.7 1015.96,-169.21 1018.88,-168.75 1122.7,-152.26 1151.46,-149.12 1258.21,-133.14"/>
<polygon fill="midnightblue" stroke="midnightblue" points="1258.62,-136.62 1267.99,-131.68 1257.58,-129.7 1258.62,-136.62"/>
</g>
<!-- Node53&#45;&gt;Node25 -->
<g id="edge49" class="edge">
<title>Node53&#45;&gt;Node25</title>
<path fill="none" stroke="midnightblue" d="M1957.88,-168.92C1957.88,-162.12 1957.88,-152.51 1957.88,-143.9"/>
<polygon fill="midnightblue" stroke="midnightblue" points="1961.38,-143.93 1957.88,-133.93 1954.38,-143.93 1961.38,-143.93"/>
</g>
<!-- Node52&#45;&gt;Node53 -->
<g id="edge52" class="edge">
<title>Node52&#45;&gt;Node53</title>
<path fill="none" stroke="midnightblue" d="M1743.12,-281.27C1771.3,-273.26 1811.97,-260.52 1845.88,-245.25 1878.13,-230.72 1912.98,-209.4 1935.09,-195.1"/>
<polygon fill="midnightblue" stroke="midnightblue" points="1936.86,-198.12 1943.31,-189.71 1933.03,-192.27 1936.86,-198.12"/>
</g>
<!-- Node55 -->
<g id="node45" class="node">
<title>Node55</title>
<g id="a_node45"><a xlink:href="_integer_class_8hpp.html" target="_top" xlink:title=" ">
<polygon fill="white" stroke="black" points="1907.75,-225.5 1907.75,-244.75 1998,-244.75 1998,-225.5 1907.75,-225.5"/>
<text text-anchor="middle" x="1952.88" y="-231.25" font-family="Helvetica,sans-Serif" font-size="10.00">IntegerClass.hpp</text>
</a>
</g>
</g>
<!-- Node52&#45;&gt;Node55 -->
<g id="edge53" class="edge">
<title>Node52&#45;&gt;Node55</title>
<path fill="none" stroke="midnightblue" d="M1749.72,-281.29C1791.24,-272.06 1855.71,-257.73 1900.86,-247.69"/>
<polygon fill="midnightblue" stroke="midnightblue" points="1901.42,-251.15 1910.42,-245.56 1899.9,-244.32 1901.42,-251.15"/>
</g>
<!-- Node56 -->
<g id="node46" class="node">
<title>Node56</title>
<g id="a_node46"><a xlink:href="_string_util_8hpp.html" target="_top" xlink:title=" ">
<polygon fill="white" stroke="black" points="1761.25,-225.5 1761.25,-244.75 1836.5,-244.75 1836.5,-225.5 1761.25,-225.5"/>
<text text-anchor="middle" x="1798.88" y="-231.25" font-family="Helvetica,sans-Serif" font-size="10.00">StringUtil.hpp</text>
</a>
</g>
</g>
<!-- Node52&#45;&gt;Node56 -->
<g id="edge55" class="edge">
<title>Node52&#45;&gt;Node56</title>
<path fill="none" stroke="midnightblue" d="M1723.74,-281.42C1737.55,-273.09 1758.36,-260.54 1774.59,-250.77"/>
<polygon fill="midnightblue" stroke="midnightblue" points="1775.94,-254.04 1782.69,-245.88 1772.32,-248.04 1775.94,-254.04"/>
</g>
<!-- Node57 -->
<g id="node47" class="node">
<title>Node57</title>
<g id="a_node47"><a xlink:href="_utilities_8hpp.html" target="_top" xlink:title=" ">
<polygon fill="white" stroke="red" points="1675,-225.5 1675,-244.75 1742.75,-244.75 1742.75,-225.5 1675,-225.5"/>
<text text-anchor="middle" x="1708.88" y="-231.25" font-family="Helvetica,sans-Serif" font-size="10.00">Utilities.hpp</text>
</a>
</g>
</g>
<!-- Node52&#45;&gt;Node57 -->
<g id="edge56" class="edge">
<title>Node52&#45;&gt;Node57</title>
<path fill="none" stroke="midnightblue" d="M1708.88,-281.42C1708.88,-274.62 1708.88,-265.01 1708.88,-256.4"/>
<polygon fill="midnightblue" stroke="midnightblue" points="1712.38,-256.43 1708.88,-246.43 1705.38,-256.43 1712.38,-256.43"/>
</g>
<!-- Node55&#45;&gt;Node53 -->
<g id="edge54" class="edge">
<title>Node55&#45;&gt;Node53</title>
<path fill="none" stroke="midnightblue" d="M1953.7,-225.17C1954.33,-218.29 1955.23,-208.54 1956.03,-199.85"/>
<polygon fill="midnightblue" stroke="midnightblue" points="1959.49,-200.45 1956.93,-190.17 1952.52,-199.81 1959.49,-200.45"/>
</g>
<!-- Node57&#45;&gt;Node10 -->
<g id="edge57" class="edge">
<title>Node57&#45;&gt;Node10</title>
<path fill="none" stroke="midnightblue" d="M1718.1,-225.4C1731.73,-212.61 1758.21,-188.19 1781.88,-168.75 1794.18,-158.64 1808.41,-147.9 1819.92,-139.44"/>
<polygon fill="midnightblue" stroke="midnightblue" points="1821.98,-142.27 1828,-133.55 1817.86,-136.61 1821.98,-142.27"/>
</g>
<!-- Node57&#45;&gt;Node16 -->
<g id="edge58" class="edge">
<title>Node57&#45;&gt;Node16</title>
<path fill="none" stroke="midnightblue" d="M1708.88,-225.17C1708.88,-218.37 1708.88,-208.76 1708.88,-200.15"/>
<polygon fill="midnightblue" stroke="midnightblue" points="1712.38,-200.18 1708.88,-190.18 1705.38,-200.18 1712.38,-200.18"/>
</g>
<!-- Node71&#45;&gt;Node8 -->
<g id="edge60" class="edge">
<title>Node71&#45;&gt;Node8</title>
<path fill="none" stroke="midnightblue" d="M722.75,-281.42C735.39,-273.25 754.33,-261.02 769.34,-251.32"/>
<polygon fill="midnightblue" stroke="midnightblue" points="771.21,-254.28 777.71,-245.92 767.41,-248.4 771.21,-254.28"/>
</g>
</g>
</svg>
        <g id="navigator" transform="translate(0 0)" fill="#404254">
                <rect fill="#f2f5e9" fill-opacity="0.5" stroke="#606060" stroke-width=".5" x="0" y="0" width="60" height="60"/>
                <use id="zoomplus" xlink:href="#zoomPlus" x="17" y="9" onmousedown="handleZoom(evt,'in')"/>
                <use id="zoomminus" xlink:href="#zoomMin" x="42" y="9" onmousedown="handleZoom(evt,'out')"/>
                <use id="reset" xlink:href="#resetDef" x="30" y="36" onmousedown="handleReset()"/>
                <g id="arrowUp" xlink:href="#dirArrow" transform="translate(30 24)" onmousedown="handlePan(0,-1)">
                  <use xlink:href="#rim" fill="#404040">
                        <set attributeName="fill" to="#808080" begin="arrowUp.mouseover" end="arrowUp.mouseout"/>
                  </use>
                  <path fill="none" stroke="white" stroke-width="1.5" d="M0,-3.0v7 M-2.5,-0.5L0,-3.0L2.5,-0.5"/>
                </g>
                <g id="arrowRight" xlink:href="#dirArrow" transform="rotate(90) translate(36 -43)" onmousedown="handlePan(1,0)">
                  <use xlink:href="#rim" fill="#404040">
                        <set attributeName="fill" to="#808080" begin="arrowRight.mouseover" end="arrowRight.mouseout"/>
                  </use>
                  <path fill="none" stroke="white" stroke-width="1.5" d="M0,-3.0v7 M-2.5,-0.5L0,-3.0L2.5,-0.5"/>
                </g>
                <g id="arrowDown" xlink:href="#dirArrow" transform="rotate(180) translate(-30 -48)" onmousedown="handlePan(0,1)">
                  <use xlink:href="#rim" fill="#404040">
                        <set attributeName="fill" to="#808080" begin="arrowDown.mouseover" end="arrowDown.mouseout"/>
                  </use>
                  <path fill="none" stroke="white" stroke-width="1.5" d="M0,-3.0v7 M-2.5,-0.5L0,-3.0L2.5,-0.5"/>
                </g>
                <g id="arrowLeft" xlink:href="#dirArrow" transform="rotate(270) translate(-36 17)" onmousedown="handlePan(-1,0)">
                  <use xlink:href="#rim" fill="#404040">
                        <set attributeName="fill" to="#808080" begin="arrowLeft.mouseover" end="arrowLeft.mouseout"/>
                  </use>
                  <path fill="none" stroke="white" stroke-width="1.5" d="M0,-3.0v7 M-2.5,-0.5L0,-3.0L2.5,-0.5"/>
                </g>
        </g>
        <svg viewBox="0 0 15 15" width="100%" height="30px" preserveAspectRatio="xMaxYMin meet">
         <g id="arrow_out" transform="scale(0.3 0.3)">
          <a xlink:href="unix_2_error_messages_8cpp__incl_org.svg" target="_base">
           <rect id="button" ry="5" rx="5" y="6" x="6" height="38" width="38"
                fill="#f2f5e9" fill-opacity="0.5" stroke="#606060" stroke-width="1.0"/>
           <path id="arrow"
             d="M 11.500037,31.436501 C 11.940474,20.09759 22.043105,11.32322 32.158766,21.979434 L 37.068811,17.246167 C 37.068811,17.246167 37.088388,32 37.088388,32 L 22.160133,31.978069 C 22.160133,31.978069 26.997745,27.140456 26.997745,27.140456 C 18.528582,18.264221 13.291696,25.230495 11.500037,31.436501 z"
             style="fill:#404040;"/>
          </a>
         </g>
        </svg>
</svg>
