<?xml version="1.0" encoding="UTF-8" standalone="no"?>
<!DOCTYPE svg PUBLIC "-//W3C//DTD SVG 1.1//EN"
 "http://www.w3.org/Graphics/SVG/1.1/DTD/svg11.dtd">
<!-- Generated by graphviz version 12.1.0 (20240811.2233)
 -->
<!-- Title: rxsubcom.cpp Pages: 1 -->
<svg width="623pt" height="141pt"
 viewBox="0.00 0.00 623.25 140.75" xmlns="http://www.w3.org/2000/svg" xmlns:xlink="http://www.w3.org/1999/xlink">
<g id="graph0" class="graph" transform="scale(1 1) rotate(0) translate(4 136.75)">
<title>rxsubcom.cpp</title>
<polygon fill="white" stroke="none" points="-4,4 -4,-136.75 619.25,-136.75 619.25,4 -4,4"/>
<!-- Node1 -->
<g id="node1" class="node">
<title>Node1</title>
<g id="a_node1"><a xlink:title=" ">
<polygon fill="#bfbfbf" stroke="black" points="178,-113 178,-132.25 255.5,-132.25 255.5,-113 178,-113"/>
<text text-anchor="middle" x="216.75" y="-118.75" font-family="Helvetica,sans-Serif" font-size="10.00">rxsubcom.cpp</text>
</a>
</g>
</g>
<!-- Node2 -->
<g id="node2" class="node">
<title>Node2</title>
<g id="a_node2"><a xlink:title=" ">
<polygon fill="white" stroke="#bfbfbf" points="0,-56.75 0,-76 47.5,-76 47.5,-56.75 0,-56.75"/>
<text text-anchor="middle" x="23.75" y="-62.5" font-family="Helvetica,sans-Serif" font-size="10.00">limits.h</text>
</a>
</g>
</g>
<!-- Node1&#45;&gt;Node2 -->
<g id="edge1" class="edge">
<title>Node1&#45;&gt;Node2</title>
<path fill="none" stroke="midnightblue" d="M184.45,-112.54C149.68,-102.77 94.58,-87.29 58.79,-77.23"/>
<polygon fill="midnightblue" stroke="midnightblue" points="59.93,-73.91 49.36,-74.57 58.04,-80.65 59.93,-73.91"/>
</g>
<!-- Node3 -->
<g id="node3" class="node">
<title>Node3</title>
<g id="a_node3"><a xlink:title=" ">
<polygon fill="white" stroke="#bfbfbf" points="65.62,-56.75 65.62,-76 113.88,-76 113.88,-56.75 65.62,-56.75"/>
<text text-anchor="middle" x="89.75" y="-62.5" font-family="Helvetica,sans-Serif" font-size="10.00">string.h</text>
</a>
</g>
</g>
<!-- Node1&#45;&gt;Node3 -->
<g id="edge2" class="edge">
<title>Node1&#45;&gt;Node3</title>
<path fill="none" stroke="midnightblue" d="M195.49,-112.54C175.25,-103.9 144.54,-90.78 121.42,-80.9"/>
<polygon fill="midnightblue" stroke="midnightblue" points="123.04,-77.79 112.47,-77.08 120.29,-84.23 123.04,-77.79"/>
</g>
<!-- Node4 -->
<g id="node4" class="node">
<title>Node4</title>
<g id="a_node4"><a xlink:title=" ">
<polygon fill="white" stroke="#bfbfbf" points="132.12,-56.75 132.12,-76 177.38,-76 177.38,-56.75 132.12,-56.75"/>
<text text-anchor="middle" x="154.75" y="-62.5" font-family="Helvetica,sans-Serif" font-size="10.00">stdio.h</text>
</a>
</g>
</g>
<!-- Node1&#45;&gt;Node4 -->
<g id="edge3" class="edge">
<title>Node1&#45;&gt;Node4</title>
<path fill="none" stroke="midnightblue" d="M206.51,-112.67C197.48,-104.77 184.11,-93.06 173.21,-83.53"/>
<polygon fill="midnightblue" stroke="midnightblue" points="175.77,-81.11 165.94,-77.16 171.16,-86.38 175.77,-81.11"/>
</g>
<!-- Node5 -->
<g id="node5" class="node">
<title>Node5</title>
<g id="a_node5"><a xlink:href="rexx_8h.html" target="_top" xlink:title=" ">
<polygon fill="white" stroke="black" points="195.25,-56.75 195.25,-76 238.25,-76 238.25,-56.75 195.25,-56.75"/>
<text text-anchor="middle" x="216.75" y="-62.5" font-family="Helvetica,sans-Serif" font-size="10.00">rexx.h</text>
</a>
</g>
</g>
<!-- Node1&#45;&gt;Node5 -->
<g id="edge4" class="edge">
<title>Node1&#45;&gt;Node5</title>
<path fill="none" stroke="midnightblue" d="M216.75,-112.67C216.75,-105.87 216.75,-96.26 216.75,-87.65"/>
<polygon fill="midnightblue" stroke="midnightblue" points="220.25,-87.68 216.75,-77.68 213.25,-87.68 220.25,-87.68"/>
</g>
<!-- Node10 -->
<g id="node10" class="node">
<title>Node10</title>
<g id="a_node10"><a xlink:href="_rexx_internal_apis_8h.html" target="_top" xlink:title=" ">
<polygon fill="white" stroke="black" points="256.12,-56.75 256.12,-76 355.38,-76 355.38,-56.75 256.12,-56.75"/>
<text text-anchor="middle" x="305.75" y="-62.5" font-family="Helvetica,sans-Serif" font-size="10.00">RexxInternalApis.h</text>
</a>
</g>
</g>
<!-- Node1&#45;&gt;Node10 -->
<g id="edge9" class="edge">
<title>Node1&#45;&gt;Node10</title>
<path fill="none" stroke="midnightblue" d="M231.45,-112.67C244.97,-104.42 265.3,-92.03 281.28,-82.29"/>
<polygon fill="midnightblue" stroke="midnightblue" points="283.02,-85.33 289.74,-77.13 279.38,-79.35 283.02,-85.33"/>
</g>
<!-- Node11 -->
<g id="node11" class="node">
<title>Node11</title>
<g id="a_node11"><a xlink:href="_rexx_error_codes_8h.html" target="_top" xlink:title=" ">
<polygon fill="white" stroke="black" points="373.25,-56.75 373.25,-76 470.25,-76 470.25,-56.75 373.25,-56.75"/>
<text text-anchor="middle" x="421.75" y="-62.5" font-family="Helvetica,sans-Serif" font-size="10.00">RexxErrorCodes.h</text>
</a>
</g>
</g>
<!-- Node1&#45;&gt;Node11 -->
<g id="edge10" class="edge">
<title>Node1&#45;&gt;Node11</title>
<path fill="none" stroke="midnightblue" d="M251.06,-112.54C285.5,-103.43 338.74,-89.34 376.6,-79.32"/>
<polygon fill="midnightblue" stroke="midnightblue" points="377.09,-82.81 385.86,-76.87 375.3,-76.05 377.09,-82.81"/>
</g>
<!-- Node12 -->
<g id="node12" class="node">
<title>Node12</title>
<g id="a_node12"><a xlink:href="_rexx_message_numbers_8h.html" target="_top" xlink:title=" ">
<polygon fill="white" stroke="black" points="488.25,-56.75 488.25,-76 615.25,-76 615.25,-56.75 488.25,-56.75"/>
<text text-anchor="middle" x="551.75" y="-62.5" font-family="Helvetica,sans-Serif" font-size="10.00">RexxMessageNumbers.h</text>
</a>
</g>
</g>
<!-- Node1&#45;&gt;Node12 -->
<g id="edge11" class="edge">
<title>Node1&#45;&gt;Node12</title>
<path fill="none" stroke="midnightblue" d="M255.83,-115.3C311.91,-106.21 415.99,-89.36 484.55,-78.26"/>
<polygon fill="midnightblue" stroke="midnightblue" points="484.86,-81.75 494.17,-76.7 483.74,-74.84 484.86,-81.75"/>
</g>
<!-- Node6 -->
<g id="node6" class="node">
<title>Node6</title>
<g id="a_node6"><a xlink:title=" ">
<polygon fill="white" stroke="#bfbfbf" points="29.88,-0.5 29.88,-19.75 109.62,-19.75 109.62,-0.5 29.88,-0.5"/>
<text text-anchor="middle" x="69.75" y="-6.25" font-family="Helvetica,sans-Serif" font-size="10.00">rexxapitypes.h</text>
</a>
</g>
</g>
<!-- Node5&#45;&gt;Node6 -->
<g id="edge5" class="edge">
<title>Node5&#45;&gt;Node6</title>
<path fill="none" stroke="midnightblue" d="M195.06,-57.37C171.23,-48.58 132.61,-34.32 104.54,-23.96"/>
<polygon fill="midnightblue" stroke="midnightblue" points="105.99,-20.77 95.4,-20.59 103.57,-27.34 105.99,-20.77"/>
</g>
<!-- Node7 -->
<g id="node7" class="node">
<title>Node7</title>
<g id="a_node7"><a xlink:href="rexxapidefs_8h.html" target="_top" xlink:title=" ">
<polygon fill="white" stroke="black" points="127.5,-0.5 127.5,-19.75 202,-19.75 202,-0.5 127.5,-0.5"/>
<text text-anchor="middle" x="164.75" y="-6.25" font-family="Helvetica,sans-Serif" font-size="10.00">rexxapidefs.h</text>
</a>
</g>
</g>
<!-- Node5&#45;&gt;Node7 -->
<g id="edge6" class="edge">
<title>Node5&#45;&gt;Node7</title>
<path fill="none" stroke="midnightblue" d="M208.16,-56.42C200.82,-48.75 190.04,-37.51 181.06,-28.14"/>
<polygon fill="midnightblue" stroke="midnightblue" points="183.67,-25.81 174.22,-21.01 178.62,-30.65 183.67,-25.81"/>
</g>
<!-- Node8 -->
<g id="node8" class="node">
<title>Node8</title>
<g id="a_node8"><a xlink:title=" ">
<polygon fill="white" stroke="#bfbfbf" points="220.25,-0.5 220.25,-19.75 317.25,-19.75 317.25,-0.5 220.25,-0.5"/>
<text text-anchor="middle" x="268.75" y="-6.25" font-family="Helvetica,sans-Serif" font-size="10.00">rexxplatformdefs.h</text>
</a>
</g>
</g>
<!-- Node5&#45;&gt;Node8 -->
<g id="edge7" class="edge">
<title>Node5&#45;&gt;Node8</title>
<path fill="none" stroke="midnightblue" d="M225.34,-56.42C232.68,-48.75 243.46,-37.51 252.44,-28.14"/>
<polygon fill="midnightblue" stroke="midnightblue" points="254.88,-30.65 259.28,-21.01 249.83,-25.81 254.88,-30.65"/>
</g>
<!-- Node9 -->
<g id="node9" class="node">
<title>Node9</title>
<g id="a_node9"><a xlink:title=" ">
<polygon fill="white" stroke="#bfbfbf" points="335.62,-0.5 335.62,-19.75 431.88,-19.75 431.88,-0.5 335.62,-0.5"/>
<text text-anchor="middle" x="383.75" y="-6.25" font-family="Helvetica,sans-Serif" font-size="10.00">rexxplatformapis.h</text>
</a>
</g>
</g>
<!-- Node5&#45;&gt;Node9 -->
<g id="edge8" class="edge">
<title>Node5&#45;&gt;Node9</title>
<path fill="none" stroke="midnightblue" d="M238.58,-58.28C265.59,-49.51 312.04,-34.42 345.13,-23.67"/>
<polygon fill="midnightblue" stroke="midnightblue" points="345.92,-27.1 354.35,-20.68 343.75,-20.44 345.92,-27.1"/>
</g>
</g>
</svg>
