<?xml version="1.0" encoding="UTF-8" standalone="no"?>
<!DOCTYPE svg PUBLIC "-//W3C//DTD SVG 1.1//EN"
 "http://www.w3.org/Graphics/SVG/1.1/DTD/svg11.dtd">
<!-- Generated by graphviz version 2.30.1 (20130222.1704)
 -->
<!-- Title: SysSemaphore.hpp Pages: 1 -->
<svg width="496pt" height="204pt"
 viewBox="0.00 0.00 496.00 204.00" xmlns="http://www.w3.org/2000/svg" xmlns:xlink="http://www.w3.org/1999/xlink">
<g id="graph0" class="graph" transform="scale(1 1) rotate(0) translate(4 200)">
<title>SysSemaphore.hpp</title>
<polygon fill="white" stroke="white" points="-4,5 -4,-200 493,-200 493,5 -4,5"/>
<!-- Node1 -->
<g id="node1" class="node"><title>Node1</title>
<g id="a_node1"><a xlink:title=" ">
<polygon fill="#bfbfbf" stroke="black" points="273.084,-175 273.084,-195 376.916,-195 376.916,-175 273.084,-175"/>
<text text-anchor="middle" x="325" y="-181" font-family="Helvetica,sans-Serif" font-size="10.00">SysSemaphore.hpp</text>
</a>
</g>
</g>
<!-- Node2 -->
<g id="node2" class="node"><title>Node2</title>
<g id="a_node2"><a xlink:href="rexx_8h.html" target="_top" xlink:title=" ">
<polygon fill="white" stroke="black" points="166.384,-59 166.384,-79 209.616,-79 209.616,-59 166.384,-59"/>
<text text-anchor="middle" x="188" y="-65" font-family="Helvetica,sans-Serif" font-size="10.00">rexx.h</text>
</a>
</g>
</g>
<!-- Node1&#45;&gt;Node2 -->
<g id="edge1" class="edge"><title>Node1&#45;&gt;Node2</title>
<path fill="none" stroke="midnightblue" d="M272.902,-181.906C241.083,-177.605 202.659,-166.347 182,-138 171.777,-123.973 175.215,-103.74 180.029,-88.993"/>
<polygon fill="midnightblue" stroke="midnightblue" points="183.394,-89.984 183.601,-79.3912 176.834,-87.5428 183.394,-89.984"/>
</g>
<!-- Node7 -->
<g id="node7" class="node"><title>Node7</title>
<g id="a_node7"><a xlink:href="windows_2_sys_debug_8hpp.html" target="_top" xlink:title=" ">
<polygon fill="white" stroke="black" points="191.2,-117 191.2,-137 272.8,-137 272.8,-117 191.2,-117"/>
<text text-anchor="middle" x="232" y="-123" font-family="Helvetica,sans-Serif" font-size="10.00">SysDebug.hpp</text>
</a>
</g>
</g>
<!-- Node1&#45;&gt;Node7 -->
<g id="edge6" class="edge"><title>Node1&#45;&gt;Node7</title>
<path fill="none" stroke="midnightblue" d="M309.643,-174.753C295.017,-165.946 272.783,-152.558 255.851,-142.362"/>
<polygon fill="midnightblue" stroke="midnightblue" points="257.444,-139.235 247.071,-137.075 253.833,-145.232 257.444,-139.235"/>
</g>
<!-- Node8 -->
<g id="node8" class="node"><title>Node8</title>
<g id="a_node8"><a xlink:href="_utilities_8hpp.html" target="_top" xlink:title=" ">
<polygon fill="white" stroke="black" points="291.155,-117 291.155,-137 358.845,-137 358.845,-117 291.155,-117"/>
<text text-anchor="middle" x="325" y="-123" font-family="Helvetica,sans-Serif" font-size="10.00">Utilities.hpp</text>
</a>
</g>
</g>
<!-- Node1&#45;&gt;Node8 -->
<g id="edge7" class="edge"><title>Node1&#45;&gt;Node8</title>
<path fill="none" stroke="midnightblue" d="M325,-174.753C325,-167.25 325,-156.424 325,-147.078"/>
<polygon fill="midnightblue" stroke="midnightblue" points="328.5,-147.075 325,-137.075 321.5,-147.075 328.5,-147.075"/>
</g>
<!-- Node11 -->
<g id="node11" class="node"><title>Node11</title>
<g id="a_node11"><a xlink:title=" ">
<polygon fill="white" stroke="#bfbfbf" points="377.158,-117 377.158,-137 424.842,-137 424.842,-117 377.158,-117"/>
<text text-anchor="middle" x="401" y="-123" font-family="Helvetica,sans-Serif" font-size="10.00">stdlib.h</text>
</a>
</g>
</g>
<!-- Node1&#45;&gt;Node11 -->
<g id="edge11" class="edge"><title>Node1&#45;&gt;Node11</title>
<path fill="none" stroke="midnightblue" d="M337.55,-174.753C349.17,-166.19 366.667,-153.298 380.346,-143.219"/>
<polygon fill="midnightblue" stroke="midnightblue" points="382.709,-145.825 388.684,-137.075 378.557,-140.19 382.709,-145.825"/>
</g>
<!-- Node12 -->
<g id="node12" class="node"><title>Node12</title>
<g id="a_node12"><a xlink:title=" ">
<polygon fill="white" stroke="#bfbfbf" points="443.269,-117 443.269,-137 488.731,-137 488.731,-117 443.269,-117"/>
<text text-anchor="middle" x="466" y="-123" font-family="Helvetica,sans-Serif" font-size="10.00">stdio.h</text>
</a>
</g>
</g>
<!-- Node1&#45;&gt;Node12 -->
<g id="edge12" class="edge"><title>Node1&#45;&gt;Node12</title>
<path fill="none" stroke="midnightblue" d="M347.968,-174.878C371.218,-165.644 407.377,-151.283 433.548,-140.889"/>
<polygon fill="midnightblue" stroke="midnightblue" points="435.04,-144.062 443.042,-137.118 432.456,-137.556 435.04,-144.062"/>
</g>
<!-- Node3 -->
<g id="node3" class="node"><title>Node3</title>
<g id="a_node3"><a xlink:title=" ">
<polygon fill="white" stroke="#bfbfbf" points="-0.23877,-1 -0.23877,-21 80.2388,-21 80.2388,-1 -0.23877,-1"/>
<text text-anchor="middle" x="40" y="-7" font-family="Helvetica,sans-Serif" font-size="10.00">rexxapitypes.h</text>
</a>
</g>
</g>
<!-- Node2&#45;&gt;Node3 -->
<g id="edge2" class="edge"><title>Node2&#45;&gt;Node3</title>
<path fill="none" stroke="midnightblue" d="M166.162,-59.737C141.707,-50.4837 101.787,-35.379 73.4054,-24.6399"/>
<polygon fill="midnightblue" stroke="midnightblue" points="74.4833,-21.3056 63.8918,-21.0401 72.006,-27.8526 74.4833,-21.3056"/>
</g>
<!-- Node4 -->
<g id="node4" class="node"><title>Node4</title>
<g id="a_node4"><a xlink:href="rexxapidefs_8h.html" target="_top" xlink:title=" ">
<polygon fill="white" stroke="black" points="98.2612,-1 98.2612,-21 173.739,-21 173.739,-1 98.2612,-1"/>
<text text-anchor="middle" x="136" y="-7" font-family="Helvetica,sans-Serif" font-size="10.00">rexxapidefs.h</text>
</a>
</g>
</g>
<!-- Node2&#45;&gt;Node4 -->
<g id="edge3" class="edge"><title>Node2&#45;&gt;Node4</title>
<path fill="none" stroke="midnightblue" d="M179.413,-58.7527C171.841,-50.598 160.622,-38.5158 151.486,-28.6769"/>
<polygon fill="midnightblue" stroke="midnightblue" points="153.796,-26.0216 144.427,-21.0752 148.667,-30.7847 153.796,-26.0216"/>
</g>
<!-- Node5 -->
<g id="node5" class="node"><title>Node5</title>
<g id="a_node5"><a xlink:title=" ">
<polygon fill="white" stroke="#bfbfbf" points="191.872,-1 191.872,-21 290.128,-21 290.128,-1 191.872,-1"/>
<text text-anchor="middle" x="241" y="-7" font-family="Helvetica,sans-Serif" font-size="10.00">rexxplatformdefs.h</text>
</a>
</g>
</g>
<!-- Node2&#45;&gt;Node5 -->
<g id="edge4" class="edge"><title>Node2&#45;&gt;Node5</title>
<path fill="none" stroke="midnightblue" d="M196.752,-58.7527C204.547,-50.5165 216.134,-38.2738 225.495,-28.3824"/>
<polygon fill="midnightblue" stroke="midnightblue" points="228.079,-30.744 232.411,-21.0752 222.995,-25.9323 228.079,-30.744"/>
</g>
<!-- Node6 -->
<g id="node6" class="node"><title>Node6</title>
<g id="a_node6"><a xlink:title=" ">
<polygon fill="white" stroke="#bfbfbf" points="308.15,-1 308.15,-21 405.85,-21 405.85,-1 308.15,-1"/>
<text text-anchor="middle" x="357" y="-7" font-family="Helvetica,sans-Serif" font-size="10.00">rexxplatformapis.h</text>
</a>
</g>
</g>
<!-- Node2&#45;&gt;Node6 -->
<g id="edge5" class="edge"><title>Node2&#45;&gt;Node6</title>
<path fill="none" stroke="midnightblue" d="M209.748,-60.7936C237.66,-51.5447 286.499,-35.3612 320.234,-24.1829"/>
<polygon fill="midnightblue" stroke="midnightblue" points="321.356,-27.4983 329.748,-21.0304 319.154,-20.8535 321.356,-27.4983"/>
</g>
<!-- Node8&#45;&gt;Node2 -->
<g id="edge8" class="edge"><title>Node8&#45;&gt;Node2</title>
<path fill="none" stroke="midnightblue" d="M302.684,-116.878C280.059,-107.63 244.853,-93.2393 219.415,-82.8413"/>
<polygon fill="midnightblue" stroke="midnightblue" points="220.434,-79.4768 209.854,-78.9329 217.786,-85.9564 220.434,-79.4768"/>
</g>
<!-- Node9 -->
<g id="node9" class="node"><title>Node9</title>
<g id="a_node9"><a xlink:title=" ">
<polygon fill="white" stroke="#bfbfbf" points="252.99,-59 252.99,-79 319.01,-79 319.01,-59 252.99,-59"/>
<text text-anchor="middle" x="286" y="-65" font-family="Helvetica,sans-Serif" font-size="10.00">sys/types.h</text>
</a>
</g>
</g>
<!-- Node8&#45;&gt;Node9 -->
<g id="edge9" class="edge"><title>Node8&#45;&gt;Node9</title>
<path fill="none" stroke="midnightblue" d="M318.56,-116.753C313.051,-108.843 304.969,-97.2372 298.235,-87.5683"/>
<polygon fill="midnightblue" stroke="midnightblue" points="300.907,-85.281 292.32,-79.0752 295.163,-89.2815 300.907,-85.281"/>
</g>
<!-- Node10 -->
<g id="node10" class="node"><title>Node10</title>
<g id="a_node10"><a xlink:title=" ">
<polygon fill="white" stroke="#bfbfbf" points="336.934,-59 336.934,-79 389.066,-79 389.066,-59 336.934,-59"/>
<text text-anchor="middle" x="363" y="-65" font-family="Helvetica,sans-Serif" font-size="10.00">stdarg.h</text>
</a>
</g>
</g>
<!-- Node8&#45;&gt;Node10 -->
<g id="edge10" class="edge"><title>Node8&#45;&gt;Node10</title>
<path fill="none" stroke="midnightblue" d="M331.275,-116.753C336.642,-108.843 344.518,-97.2372 351.079,-87.5683"/>
<polygon fill="midnightblue" stroke="midnightblue" points="354.123,-89.3152 356.842,-79.0752 348.331,-85.3847 354.123,-89.3152"/>
</g>
</g>
</svg>
