<?xml version="1.0" encoding="UTF-8" standalone="no"?>
<!DOCTYPE svg PUBLIC "-//W3C//DTD SVG 1.1//EN"
 "http://www.w3.org/Graphics/SVG/1.1/DTD/svg11.dtd">
<!-- Generated by graphviz version 13.1.0 (20250701.0955)
 -->
<!-- Title: APIServerInstance.hpp Pages: 1 -->
<!--zoomable 310 -->
<svg id="main" version="1.1" xmlns="http://www.w3.org/2000/svg" xmlns:xlink="http://www.w3.org/1999/xlink" xml:space="preserve" onload="init(evt)">
<style type="text/css"><![CDATA[
.edge:hover path { stroke: red; }
.edge:hover polygon { stroke: red; fill: red; }
]]></style>
<script type="text/javascript"><![CDATA[
var edges = document.getElementsByTagName('g');
if (edges && edges.length) {
  for (var i=0;i<edges.length;i++) {
    if (edges[i].id.substr(0,4)=='edge') {
      edges[i].setAttribute('class','edge');
    }
  }
}
]]></script>
        <defs>
                <circle id="rim" cx="0" cy="0" r="7"/>
                <circle id="rim2" cx="0" cy="0" r="3.5"/>
                <g id="zoomPlus">
                        <use xlink:href="#rim" fill="#404040">
                                <set attributeName="fill" to="#808080" begin="zoomplus.mouseover" end="zoomplus.mouseout"/>
                        </use>
                        <path d="M-4,0h8M0,-4v8" fill="none" stroke="white" stroke-width="1.5" pointer-events="none"/>
                </g>
                <g id="zoomMin">
                        <use xlink:href="#rim" fill="#404040">
                                <set attributeName="fill" to="#808080" begin="zoomminus.mouseover" end="zoomminus.mouseout"/>
                        </use>
                        <path d="M-4,0h8" fill="none" stroke="white" stroke-width="1.5" pointer-events="none"/>
                </g>
                <g id="dirArrow">
                        <path fill="none" stroke="white" stroke-width="1.5" d="M0,-3.0v7 M-2.5,-0.5L0,-3.0L2.5,-0.5"/>
                </g>
               <g id="resetDef">
                       <use xlink:href="#rim2" fill="#404040">
                               <set attributeName="fill" to="#808080" begin="reset.mouseover" end="reset.mouseout"/>
                       </use>
               </g>
        </defs>

<script type="text/javascript">
var viewWidth = 647;
var viewHeight = 310;
var sectionId = 'dynsection-0';
</script>
<script xlink:href="svgpan.js"/>
<svg id="graph" class="graph">
<g id="viewport">
<title>APIServerInstance.hpp</title>
<polygon fill="white" stroke="none" points="-4,4 -4,-305.5 642.5,-305.5 642.5,4 -4,4"/>
<!-- Node1 -->
<g id="node1" class="node">
<title>Node1</title>
<g id="a_node1"><a xlink:title=" ">
<polygon fill="#bfbfbf" stroke="black" points="310.88,-281.75 310.88,-301 428.12,-301 428.12,-281.75 310.88,-281.75"/>
<text xml:space="preserve" text-anchor="middle" x="369.5" y="-287.5" font-family="Helvetica,sans-Serif" font-size="10.00">APIServerInstance.hpp</text>
</a>
</g>
</g>
<!-- Node2 -->
<g id="node2" class="node">
<title>Node2</title>
<g id="a_node2"><a xlink:href="_service_message_8hpp.html" target="_top" xlink:title=" ">
<polygon fill="white" stroke="black" points="324.75,-113 324.75,-132.25 432.25,-132.25 432.25,-113 324.75,-113"/>
<text xml:space="preserve" text-anchor="middle" x="378.5" y="-118.75" font-family="Helvetica,sans-Serif" font-size="10.00">ServiceMessage.hpp</text>
</a>
</g>
</g>
<!-- Node1&#45;&gt;Node2 -->
<g id="edge1" class="edge">
<title>Node1&#45;&gt;Node2</title>
<path fill="none" stroke="midnightblue" d="M362.37,-281.34C356,-272.65 347.14,-258.88 343.5,-245.25 334.71,-212.4 332.49,-200.92 343.5,-168.75 347.05,-158.37 354.08,-148.53 360.91,-140.7"/>
<polygon fill="midnightblue" stroke="midnightblue" points="363.26,-143.31 367.58,-133.63 358.17,-138.5 363.26,-143.31"/>
</g>
<!-- Node14 -->
<g id="node14" class="node">
<title>Node14</title>
<g id="a_node14"><a xlink:href="_macro_space_manager_8hpp.html" target="_top" xlink:title=" ">
<polygon fill="white" stroke="black" points="352.38,-225.5 352.38,-244.75 478.62,-244.75 478.62,-225.5 352.38,-225.5"/>
<text xml:space="preserve" text-anchor="middle" x="415.5" y="-231.25" font-family="Helvetica,sans-Serif" font-size="10.00">MacroSpaceManager.hpp</text>
</a>
</g>
</g>
<!-- Node1&#45;&gt;Node14 -->
<g id="edge13" class="edge">
<title>Node1&#45;&gt;Node14</title>
<path fill="none" stroke="midnightblue" d="M377.1,-281.42C383.53,-273.83 392.93,-262.74 400.82,-253.43"/>
<polygon fill="midnightblue" stroke="midnightblue" points="403.27,-255.96 407.07,-246.07 397.93,-251.43 403.27,-255.96"/>
</g>
<!-- Node16 -->
<g id="node16" class="node">
<title>Node16</title>
<g id="a_node16"><a xlink:href="_registration_manager_8hpp.html" target="_top" xlink:title=" ">
<polygon fill="white" stroke="black" points="172.5,-225.5 172.5,-244.75 296.5,-244.75 296.5,-225.5 172.5,-225.5"/>
<text xml:space="preserve" text-anchor="middle" x="234.5" y="-231.25" font-family="Helvetica,sans-Serif" font-size="10.00">RegistrationManager.hpp</text>
</a>
</g>
</g>
<!-- Node1&#45;&gt;Node16 -->
<g id="edge16" class="edge">
<title>Node1&#45;&gt;Node16</title>
<path fill="none" stroke="midnightblue" d="M346.9,-281.29C325.29,-272.61 292.44,-259.41 267.83,-249.52"/>
<polygon fill="midnightblue" stroke="midnightblue" points="269.16,-246.28 258.57,-245.8 266.55,-252.78 269.16,-246.28"/>
</g>
<!-- Node18 -->
<g id="node18" class="node">
<title>Node18</title>
<g id="a_node18"><a xlink:href="_queue_manager_8hpp.html" target="_top" xlink:title=" ">
<polygon fill="white" stroke="black" points="496.5,-225.5 496.5,-244.75 596.5,-244.75 596.5,-225.5 496.5,-225.5"/>
<text xml:space="preserve" text-anchor="middle" x="546.5" y="-231.25" font-family="Helvetica,sans-Serif" font-size="10.00">QueueManager.hpp</text>
</a>
</g>
</g>
<!-- Node1&#45;&gt;Node18 -->
<g id="edge22" class="edge">
<title>Node1&#45;&gt;Node18</title>
<path fill="none" stroke="midnightblue" d="M399.13,-281.29C428.35,-272.34 473.26,-258.57 505.82,-248.59"/>
<polygon fill="midnightblue" stroke="midnightblue" points="506.8,-251.96 515.33,-245.68 504.74,-245.26 506.8,-251.96"/>
</g>
<!-- Node3 -->
<g id="node3" class="node">
<title>Node3</title>
<g id="a_node3"><a xlink:href="rexx_8h.html" target="_top" xlink:title=" ">
<polygon fill="white" stroke="black" points="262,-56.75 262,-76 305,-76 305,-56.75 262,-56.75"/>
<text xml:space="preserve" text-anchor="middle" x="283.5" y="-62.5" font-family="Helvetica,sans-Serif" font-size="10.00">rexx.h</text>
</a>
</g>
</g>
<!-- Node2&#45;&gt;Node3 -->
<g id="edge2" class="edge">
<title>Node2&#45;&gt;Node3</title>
<path fill="none" stroke="midnightblue" d="M362.81,-112.67C348.24,-104.34 326.26,-91.79 309.14,-82.02"/>
<polygon fill="midnightblue" stroke="midnightblue" points="310.94,-79.02 300.52,-77.1 307.47,-85.1 310.94,-79.02"/>
</g>
<!-- Node8 -->
<g id="node8" class="node">
<title>Node8</title>
<g id="a_node8"><a xlink:href="_service_exception_8hpp.html" target="_top" xlink:title=" ">
<polygon fill="white" stroke="black" points="322.88,-56.75 322.88,-76 434.12,-76 434.12,-56.75 322.88,-56.75"/>
<text xml:space="preserve" text-anchor="middle" x="378.5" y="-62.5" font-family="Helvetica,sans-Serif" font-size="10.00">ServiceException.hpp</text>
</a>
</g>
</g>
<!-- Node2&#45;&gt;Node8 -->
<g id="edge7" class="edge">
<title>Node2&#45;&gt;Node8</title>
<path fill="none" stroke="midnightblue" d="M378.5,-112.67C378.5,-105.87 378.5,-96.26 378.5,-87.65"/>
<polygon fill="midnightblue" stroke="midnightblue" points="382,-87.68 378.5,-77.68 375,-87.68 382,-87.68"/>
</g>
<!-- Node10 -->
<g id="node10" class="node">
<title>Node10</title>
<g id="a_node10"><a xlink:href="_c_s_stream_8hpp.html" target="_top" xlink:title=" ">
<polygon fill="white" stroke="black" points="452.25,-56.75 452.25,-76 532.75,-76 532.75,-56.75 452.25,-56.75"/>
<text xml:space="preserve" text-anchor="middle" x="492.5" y="-62.5" font-family="Helvetica,sans-Serif" font-size="10.00">CSStream.hpp</text>
</a>
</g>
</g>
<!-- Node2&#45;&gt;Node10 -->
<g id="edge9" class="edge">
<title>Node2&#45;&gt;Node10</title>
<path fill="none" stroke="midnightblue" d="M397.58,-112.54C415.5,-104.02 442.57,-91.13 463.22,-81.31"/>
<polygon fill="midnightblue" stroke="midnightblue" points="464.46,-84.59 471.99,-77.14 461.46,-78.27 464.46,-84.59"/>
</g>
<!-- Node11 -->
<g id="node11" class="node">
<title>Node11</title>
<g id="a_node11"><a xlink:title=" ">
<polygon fill="white" stroke="#bfbfbf" points="550.5,-56.75 550.5,-76 638.5,-76 638.5,-56.75 550.5,-56.75"/>
<text xml:space="preserve" text-anchor="middle" x="594.5" y="-62.5" font-family="Helvetica,sans-Serif" font-size="10.00">SysProcess.hpp</text>
</a>
</g>
</g>
<!-- Node2&#45;&gt;Node11 -->
<g id="edge10" class="edge">
<title>Node2&#45;&gt;Node11</title>
<path fill="none" stroke="midnightblue" d="M414.65,-112.54C451.02,-103.41 507.28,-89.28 547.18,-79.26"/>
<polygon fill="midnightblue" stroke="midnightblue" points="547.91,-82.68 556.76,-76.85 546.21,-75.89 547.91,-82.68"/>
</g>
<!-- Node12 -->
<g id="node12" class="node">
<title>Node12</title>
<g id="a_node12"><a xlink:href="_utilities_8hpp.html" target="_top" xlink:title=" ">
<polygon fill="white" stroke="black" points="176.62,-56.75 176.62,-76 244.38,-76 244.38,-56.75 176.62,-56.75"/>
<text xml:space="preserve" text-anchor="middle" x="210.5" y="-62.5" font-family="Helvetica,sans-Serif" font-size="10.00">Utilities.hpp</text>
</a>
</g>
</g>
<!-- Node2&#45;&gt;Node12 -->
<g id="edge11" class="edge">
<title>Node2&#45;&gt;Node12</title>
<path fill="none" stroke="midnightblue" d="M350.38,-112.54C322.76,-103.63 280.39,-89.94 249.52,-79.97"/>
<polygon fill="midnightblue" stroke="midnightblue" points="250.74,-76.69 240.15,-76.95 248.59,-83.35 250.74,-76.69"/>
</g>
<!-- Node4 -->
<g id="node4" class="node">
<title>Node4</title>
<g id="a_node4"><a xlink:title=" ">
<polygon fill="white" stroke="#bfbfbf" points="407.62,-0.5 407.62,-19.75 487.38,-19.75 487.38,-0.5 407.62,-0.5"/>
<text xml:space="preserve" text-anchor="middle" x="447.5" y="-6.25" font-family="Helvetica,sans-Serif" font-size="10.00">rexxapitypes.h</text>
</a>
</g>
</g>
<!-- Node3&#45;&gt;Node4 -->
<g id="edge3" class="edge">
<title>Node3&#45;&gt;Node4</title>
<path fill="none" stroke="midnightblue" d="M305.28,-58.17C331.78,-49.4 376.98,-34.45 409.31,-23.76"/>
<polygon fill="midnightblue" stroke="midnightblue" points="410.33,-27.11 418.73,-20.64 408.13,-20.46 410.33,-27.11"/>
</g>
<!-- Node5 -->
<g id="node5" class="node">
<title>Node5</title>
<g id="a_node5"><a xlink:href="rexxapidefs_8h.html" target="_top" xlink:title=" ">
<polygon fill="white" stroke="black" points="85.25,-0.5 85.25,-19.75 159.75,-19.75 159.75,-0.5 85.25,-0.5"/>
<text xml:space="preserve" text-anchor="middle" x="122.5" y="-6.25" font-family="Helvetica,sans-Serif" font-size="10.00">rexxapidefs.h</text>
</a>
</g>
</g>
<!-- Node3&#45;&gt;Node5 -->
<g id="edge4" class="edge">
<title>Node3&#45;&gt;Node5</title>
<path fill="none" stroke="midnightblue" d="M261.79,-58.06C235.76,-49.29 191.7,-34.44 160.1,-23.8"/>
<polygon fill="midnightblue" stroke="midnightblue" points="161.52,-20.58 150.93,-20.7 159.29,-27.21 161.52,-20.58"/>
</g>
<!-- Node6 -->
<g id="node6" class="node">
<title>Node6</title>
<g id="a_node6"><a xlink:title=" ">
<polygon fill="white" stroke="#bfbfbf" points="178,-0.5 178,-19.75 275,-19.75 275,-0.5 178,-0.5"/>
<text xml:space="preserve" text-anchor="middle" x="226.5" y="-6.25" font-family="Helvetica,sans-Serif" font-size="10.00">rexxplatformdefs.h</text>
</a>
</g>
</g>
<!-- Node3&#45;&gt;Node6 -->
<g id="edge5" class="edge">
<title>Node3&#45;&gt;Node6</title>
<path fill="none" stroke="midnightblue" d="M274.09,-56.42C265.87,-48.6 253.73,-37.05 243.78,-27.57"/>
<polygon fill="midnightblue" stroke="midnightblue" points="246.49,-25.32 236.83,-20.96 241.66,-30.39 246.49,-25.32"/>
</g>
<!-- Node7 -->
<g id="node7" class="node">
<title>Node7</title>
<g id="a_node7"><a xlink:title=" ">
<polygon fill="white" stroke="#bfbfbf" points="293.38,-0.5 293.38,-19.75 389.62,-19.75 389.62,-0.5 293.38,-0.5"/>
<text xml:space="preserve" text-anchor="middle" x="341.5" y="-6.25" font-family="Helvetica,sans-Serif" font-size="10.00">rexxplatformapis.h</text>
</a>
</g>
</g>
<!-- Node3&#45;&gt;Node7 -->
<g id="edge6" class="edge">
<title>Node3&#45;&gt;Node7</title>
<path fill="none" stroke="midnightblue" d="M293.08,-56.42C301.44,-48.6 313.79,-37.05 323.92,-27.57"/>
<polygon fill="midnightblue" stroke="midnightblue" points="326.08,-30.34 331,-20.95 321.3,-25.23 326.08,-30.34"/>
</g>
<!-- Node9 -->
<g id="node9" class="node">
<title>Node9</title>
<g id="a_node9"><a xlink:title=" ">
<polygon fill="white" stroke="#bfbfbf" points="505.38,-0.5 505.38,-19.75 553.62,-19.75 553.62,-0.5 505.38,-0.5"/>
<text xml:space="preserve" text-anchor="middle" x="529.5" y="-6.25" font-family="Helvetica,sans-Serif" font-size="10.00">string.h</text>
</a>
</g>
</g>
<!-- Node8&#45;&gt;Node9 -->
<g id="edge8" class="edge">
<title>Node8&#45;&gt;Node9</title>
<path fill="none" stroke="midnightblue" d="M403.77,-56.29C428.49,-47.41 466.36,-33.81 494.08,-23.85"/>
<polygon fill="midnightblue" stroke="midnightblue" points="495.24,-27.15 503.47,-20.48 492.88,-20.56 495.24,-27.15"/>
</g>
<!-- Node13 -->
<g id="node13" class="node">
<title>Node13</title>
<g id="a_node13"><a xlink:title=" ">
<polygon fill="white" stroke="#bfbfbf" points="0,-0.5 0,-19.75 67,-19.75 67,-0.5 0,-0.5"/>
<text xml:space="preserve" text-anchor="middle" x="33.5" y="-6.25" font-family="Helvetica,sans-Serif" font-size="10.00">sys/types.h</text>
</a>
</g>
</g>
<!-- Node12&#45;&gt;Node13 -->
<g id="edge12" class="edge">
<title>Node12&#45;&gt;Node13</title>
<path fill="none" stroke="midnightblue" d="M180.87,-56.29C151.65,-47.34 106.74,-33.57 74.18,-23.59"/>
<polygon fill="midnightblue" stroke="midnightblue" points="75.26,-20.26 64.67,-20.68 73.2,-26.96 75.26,-20.26"/>
</g>
<!-- Node14&#45;&gt;Node2 -->
<g id="edge14" class="edge">
<title>Node14&#45;&gt;Node2</title>
<path fill="none" stroke="midnightblue" d="M430.37,-225.18C448.79,-212.92 476.27,-189.99 463.5,-168.75 454.62,-153.98 439.08,-143.78 423.71,-136.87"/>
<polygon fill="midnightblue" stroke="midnightblue" points="425.15,-133.68 414.57,-133.17 422.52,-140.17 425.15,-133.68"/>
</g>
<!-- Node15 -->
<g id="node15" class="node">
<title>Node15</title>
<g id="a_node15"><a xlink:title=" ">
<polygon fill="white" stroke="#bfbfbf" points="352.75,-169.25 352.75,-188.5 454.25,-188.5 454.25,-169.25 352.75,-169.25"/>
<text xml:space="preserve" text-anchor="middle" x="403.5" y="-175" font-family="Helvetica,sans-Serif" font-size="10.00">SysSemaphore.hpp</text>
</a>
</g>
</g>
<!-- Node14&#45;&gt;Node15 -->
<g id="edge15" class="edge">
<title>Node14&#45;&gt;Node15</title>
<path fill="none" stroke="midnightblue" d="M413.52,-225.17C412,-218.29 409.84,-208.54 407.92,-199.85"/>
<polygon fill="midnightblue" stroke="midnightblue" points="411.35,-199.15 405.77,-190.14 404.51,-200.66 411.35,-199.15"/>
</g>
<!-- Node16&#45;&gt;Node15 -->
<g id="edge17" class="edge">
<title>Node16&#45;&gt;Node15</title>
<path fill="none" stroke="midnightblue" d="M262.79,-225.04C290.57,-216.13 333.19,-202.44 364.25,-192.47"/>
<polygon fill="midnightblue" stroke="midnightblue" points="365.23,-195.84 373.68,-189.45 363.09,-189.17 365.23,-195.84"/>
</g>
<!-- Node17 -->
<g id="node17" class="node">
<title>Node17</title>
<g id="a_node17"><a xlink:href="_registration_table_8hpp.html" target="_top" xlink:title=" ">
<polygon fill="white" stroke="black" points="183.25,-169.25 183.25,-188.5 293.75,-188.5 293.75,-169.25 183.25,-169.25"/>
<text xml:space="preserve" text-anchor="middle" x="238.5" y="-175" font-family="Helvetica,sans-Serif" font-size="10.00">RegistrationTable.hpp</text>
</a>
</g>
</g>
<!-- Node16&#45;&gt;Node17 -->
<g id="edge18" class="edge">
<title>Node16&#45;&gt;Node17</title>
<path fill="none" stroke="midnightblue" d="M235.16,-225.17C235.66,-218.37 236.37,-208.76 237.01,-200.15"/>
<polygon fill="midnightblue" stroke="midnightblue" points="240.5,-200.41 237.74,-190.18 233.51,-199.89 240.5,-200.41"/>
</g>
<!-- Node17&#45;&gt;Node2 -->
<g id="edge20" class="edge">
<title>Node17&#45;&gt;Node2</title>
<path fill="none" stroke="midnightblue" d="M261.93,-168.79C284.44,-160.07 318.72,-146.79 344.28,-136.89"/>
<polygon fill="midnightblue" stroke="midnightblue" points="345.52,-140.16 353.58,-133.28 342.99,-133.63 345.52,-140.16"/>
</g>
<!-- Node17&#45;&gt;Node3 -->
<g id="edge19" class="edge">
<title>Node17&#45;&gt;Node3</title>
<path fill="none" stroke="midnightblue" d="M242.18,-168.83C249.47,-150.94 265.87,-110.66 275.68,-86.58"/>
<polygon fill="midnightblue" stroke="midnightblue" points="278.79,-88.22 279.32,-77.64 272.31,-85.58 278.79,-88.22"/>
</g>
<!-- Node17&#45;&gt;Node12 -->
<g id="edge21" class="edge">
<title>Node17&#45;&gt;Node12</title>
<path fill="none" stroke="midnightblue" d="M236.21,-168.83C231.72,-151.1 221.65,-111.39 215.53,-87.24"/>
<polygon fill="midnightblue" stroke="midnightblue" points="218.97,-86.53 213.12,-77.7 212.18,-88.25 218.97,-86.53"/>
</g>
<!-- Node18&#45;&gt;Node2 -->
<g id="edge23" class="edge">
<title>Node18&#45;&gt;Node2</title>
<path fill="none" stroke="midnightblue" d="M539.07,-225.06C527.51,-211.4 503.97,-185.37 479.5,-168.75 460.02,-155.52 436.03,-144.61 416.32,-136.83"/>
<polygon fill="midnightblue" stroke="midnightblue" points="417.58,-133.57 406.98,-133.27 415.08,-140.11 417.58,-133.57"/>
</g>
<!-- Node18&#45;&gt;Node15 -->
<g id="edge24" class="edge">
<title>Node18&#45;&gt;Node15</title>
<path fill="none" stroke="midnightblue" d="M522.57,-225.04C499.47,-216.28 464.25,-202.92 438.1,-193"/>
<polygon fill="midnightblue" stroke="midnightblue" points="439.52,-189.8 428.93,-189.52 437.04,-196.34 439.52,-189.8"/>
</g>
<!-- Node19 -->
<g id="node19" class="node">
<title>Node19</title>
<g id="a_node19"><a xlink:title=" ">
<polygon fill="white" stroke="#bfbfbf" points="548.5,-169.25 548.5,-188.5 630.5,-188.5 630.5,-169.25 548.5,-169.25"/>
<text xml:space="preserve" text-anchor="middle" x="589.5" y="-175" font-family="Helvetica,sans-Serif" font-size="10.00">SysThread.hpp</text>
</a>
</g>
</g>
<!-- Node18&#45;&gt;Node19 -->
<g id="edge25" class="edge">
<title>Node18&#45;&gt;Node19</title>
<path fill="none" stroke="midnightblue" d="M553.6,-225.17C559.55,-217.66 568.22,-206.72 575.55,-197.48"/>
<polygon fill="midnightblue" stroke="midnightblue" points="578.12,-199.86 581.59,-189.85 572.64,-195.52 578.12,-199.86"/>
</g>
</g>
</svg>
        <g id="navigator" transform="translate(0 0)" fill="#404254">
                <rect fill="#f2f5e9" fill-opacity="0.5" stroke="#606060" stroke-width=".5" x="0" y="0" width="60" height="60"/>
                <use id="zoomplus" xlink:href="#zoomPlus" x="17" y="9" onmousedown="handleZoom(evt,'in')"/>
                <use id="zoomminus" xlink:href="#zoomMin" x="42" y="9" onmousedown="handleZoom(evt,'out')"/>
                <use id="reset" xlink:href="#resetDef" x="30" y="36" onmousedown="handleReset()"/>
                <g id="arrowUp" xlink:href="#dirArrow" transform="translate(30 24)" onmousedown="handlePan(0,-1)">
                  <use xlink:href="#rim" fill="#404040">
                        <set attributeName="fill" to="#808080" begin="arrowUp.mouseover" end="arrowUp.mouseout"/>
                  </use>
                  <path fill="none" stroke="white" stroke-width="1.5" d="M0,-3.0v7 M-2.5,-0.5L0,-3.0L2.5,-0.5"/>
                </g>
                <g id="arrowRight" xlink:href="#dirArrow" transform="rotate(90) translate(36 -43)" onmousedown="handlePan(1,0)">
                  <use xlink:href="#rim" fill="#404040">
                        <set attributeName="fill" to="#808080" begin="arrowRight.mouseover" end="arrowRight.mouseout"/>
                  </use>
                  <path fill="none" stroke="white" stroke-width="1.5" d="M0,-3.0v7 M-2.5,-0.5L0,-3.0L2.5,-0.5"/>
                </g>
                <g id="arrowDown" xlink:href="#dirArrow" transform="rotate(180) translate(-30 -48)" onmousedown="handlePan(0,1)">
                  <use xlink:href="#rim" fill="#404040">
                        <set attributeName="fill" to="#808080" begin="arrowDown.mouseover" end="arrowDown.mouseout"/>
                  </use>
                  <path fill="none" stroke="white" stroke-width="1.5" d="M0,-3.0v7 M-2.5,-0.5L0,-3.0L2.5,-0.5"/>
                </g>
                <g id="arrowLeft" xlink:href="#dirArrow" transform="rotate(270) translate(-36 17)" onmousedown="handlePan(-1,0)">
                  <use xlink:href="#rim" fill="#404040">
                        <set attributeName="fill" to="#808080" begin="arrowLeft.mouseover" end="arrowLeft.mouseout"/>
                  </use>
                  <path fill="none" stroke="white" stroke-width="1.5" d="M0,-3.0v7 M-2.5,-0.5L0,-3.0L2.5,-0.5"/>
                </g>
        </g>
        <svg viewBox="0 0 15 15" width="100%" height="30px" preserveAspectRatio="xMaxYMin meet">
         <g id="arrow_out" transform="scale(0.3 0.3)">
          <a xlink:href="_a_p_i_server_instance_8hpp__incl_org.svg" target="_base">
           <rect id="button" ry="5" rx="5" y="6" x="6" height="38" width="38"
                fill="#f2f5e9" fill-opacity="0.5" stroke="#606060" stroke-width="1.0"/>
           <path id="arrow"
             d="M 11.500037,31.436501 C 11.940474,20.09759 22.043105,11.32322 32.158766,21.979434 L 37.068811,17.246167 C 37.068811,17.246167 37.088388,32 37.088388,32 L 22.160133,31.978069 C 22.160133,31.978069 26.997745,27.140456 26.997745,27.140456 C 18.528582,18.264221 13.291696,25.230495 11.500037,31.436501 z"
             style="fill:#404040;"/>
          </a>
         </g>
        </svg>
</svg>
