<?xml version="1.0" encoding="UTF-8" standalone="no"?>
<!DOCTYPE svg PUBLIC "-//W3C//DTD SVG 1.1//EN"
 "http://www.w3.org/Graphics/SVG/1.1/DTD/svg11.dtd">
<!-- Generated by graphviz version 13.1.0 (20250701.0955)
 -->
<!-- Title: CompoundVariableTail.hpp Pages: 1 -->
<svg width="1608pt" height="591pt"
 viewBox="0.00 0.00 1608.00 591.00" xmlns="http://www.w3.org/2000/svg" xmlns:xlink="http://www.w3.org/1999/xlink">
<g id="graph0" class="graph" transform="scale(1 1) rotate(0) translate(4 586.75)">
<title>CompoundVariableTail.hpp</title>
<polygon fill="white" stroke="none" points="-4,4 -4,-586.75 1604,-586.75 1604,4 -4,4"/>
<!-- Node1 -->
<g id="node1" class="node">
<title>Node1</title>
<g id="a_node1"><a xlink:title=" ">
<polygon fill="#bfbfbf" stroke="black" points="874.25,-563 874.25,-582.25 1005.75,-582.25 1005.75,-563 874.25,-563"/>
<text xml:space="preserve" text-anchor="middle" x="940" y="-568.75" font-family="Helvetica,sans-Serif" font-size="10.00">CompoundVariableTail.hpp</text>
</a>
</g>
</g>
<!-- Node2 -->
<g id="node2" class="node">
<title>Node2</title>
<g id="a_node2"><a xlink:href="_language_parser_8hpp.html" target="_top" xlink:title=" ">
<polygon fill="white" stroke="black" points="887.75,-506.75 887.75,-526 992.25,-526 992.25,-506.75 887.75,-506.75"/>
<text xml:space="preserve" text-anchor="middle" x="940" y="-512.5" font-family="Helvetica,sans-Serif" font-size="10.00">LanguageParser.hpp</text>
</a>
</g>
</g>
<!-- Node1&#45;&gt;Node2 -->
<g id="edge1" class="edge">
<title>Node1&#45;&gt;Node2</title>
<path fill="none" stroke="midnightblue" d="M940,-562.67C940,-555.87 940,-546.26 940,-537.65"/>
<polygon fill="midnightblue" stroke="midnightblue" points="943.5,-537.68 940,-527.68 936.5,-537.68 943.5,-537.68"/>
</g>
<!-- Node69 -->
<g id="node49" class="node">
<title>Node69</title>
<g id="a_node49"><a xlink:href="_protected_object_8hpp.html" target="_top" xlink:title=" ">
<polygon fill="white" stroke="black" points="37.38,-281.75 37.38,-301 142.62,-301 142.62,-281.75 37.38,-281.75"/>
<text xml:space="preserve" text-anchor="middle" x="90" y="-287.5" font-family="Helvetica,sans-Serif" font-size="10.00">ProtectedObject.hpp</text>
</a>
</g>
</g>
<!-- Node1&#45;&gt;Node69 -->
<g id="edge72" class="edge">
<title>Node1&#45;&gt;Node69</title>
<path fill="none" stroke="midnightblue" d="M874.04,-570.47C666.1,-565.97 38,-545.38 38,-461.12 38,-461.12 38,-461.12 38,-402.88 38,-372.62 43.64,-364.65 57,-337.5 61.75,-327.84 68.58,-318.08 74.79,-310.12"/>
<polygon fill="midnightblue" stroke="midnightblue" points="77.32,-312.57 80.93,-302.61 71.89,-308.14 77.32,-312.57"/>
</g>
<!-- Node70 -->
<g id="node50" class="node">
<title>Node70</title>
<g id="a_node50"><a xlink:href="_buffer_class_8hpp.html" target="_top" xlink:title=" ">
<polygon fill="white" stroke="black" points="1283.75,-506.75 1283.75,-526 1370.25,-526 1370.25,-506.75 1283.75,-506.75"/>
<text xml:space="preserve" text-anchor="middle" x="1327" y="-512.5" font-family="Helvetica,sans-Serif" font-size="10.00">BufferClass.hpp</text>
</a>
</g>
</g>
<!-- Node1&#45;&gt;Node70 -->
<g id="edge70" class="edge">
<title>Node1&#45;&gt;Node70</title>
<path fill="none" stroke="midnightblue" d="M1004.78,-562.54C1079.68,-552.04 1201.69,-534.94 1272.12,-525.07"/>
<polygon fill="midnightblue" stroke="midnightblue" points="1272.47,-528.55 1281.89,-523.7 1271.5,-521.62 1272.47,-528.55"/>
</g>
<!-- Node3 -->
<g id="node3" class="node">
<title>Node3</title>
<g id="a_node3"><a xlink:href="_flag_set_8hpp.html" target="_top" xlink:title=" ">
<polygon fill="white" stroke="black" points="33.75,-113 33.75,-132.25 102.25,-132.25 102.25,-113 33.75,-113"/>
<text xml:space="preserve" text-anchor="middle" x="68" y="-118.75" font-family="Helvetica,sans-Serif" font-size="10.00">FlagSet.hpp</text>
</a>
</g>
</g>
<!-- Node2&#45;&gt;Node3 -->
<g id="edge2" class="edge">
<title>Node2&#45;&gt;Node3</title>
<path fill="none" stroke="midnightblue" d="M887.45,-511.67C689.49,-497.02 0,-439.47 0,-348.62 0,-348.62 0,-348.62 0,-234.12 0,-196.25 29.33,-160.47 49.46,-140.36"/>
<polygon fill="midnightblue" stroke="midnightblue" points="51.77,-143 56.58,-133.56 46.93,-137.94 51.77,-143"/>
</g>
<!-- Node5 -->
<g id="node5" class="node">
<title>Node5</title>
<g id="a_node5"><a xlink:href="_source_location_8hpp.html" target="_top" xlink:title=" ">
<polygon fill="white" stroke="black" points="950.88,-338 950.88,-357.25 1053.12,-357.25 1053.12,-338 950.88,-338"/>
<text xml:space="preserve" text-anchor="middle" x="1002" y="-343.75" font-family="Helvetica,sans-Serif" font-size="10.00">SourceLocation.hpp</text>
</a>
</g>
</g>
<!-- Node2&#45;&gt;Node5 -->
<g id="edge4" class="edge">
<title>Node2&#45;&gt;Node5</title>
<path fill="none" stroke="midnightblue" d="M939.47,-506.27C939,-493.42 939.12,-469.39 945,-450 954.53,-418.55 974.98,-386.12 988.61,-366.66"/>
<polygon fill="midnightblue" stroke="midnightblue" points="991.32,-368.9 994.32,-358.74 985.64,-364.81 991.32,-368.9"/>
</g>
<!-- Node6 -->
<g id="node6" class="node">
<title>Node6</title>
<g id="a_node6"><a xlink:href="_list_class_8hpp.html" target="_top" xlink:title=" ">
<polygon fill="white" stroke="black" points="1458,-450.5 1458,-469.75 1534,-469.75 1534,-450.5 1458,-450.5"/>
<text xml:space="preserve" text-anchor="middle" x="1496" y="-456.25" font-family="Helvetica,sans-Serif" font-size="10.00">ListClass.hpp</text>
</a>
</g>
</g>
<!-- Node2&#45;&gt;Node6 -->
<g id="edge5" class="edge">
<title>Node2&#45;&gt;Node6</title>
<path fill="none" stroke="midnightblue" d="M992.6,-512.51C1083.19,-507.18 1274.73,-494.21 1446.31,-470.5"/>
<polygon fill="midnightblue" stroke="midnightblue" points="1446.66,-473.98 1456.08,-469.13 1445.69,-467.05 1446.66,-473.98"/>
</g>
<!-- Node35 -->
<g id="node24" class="node">
<title>Node35</title>
<g id="a_node24"><a xlink:href="_memory_stack_8hpp.html" target="_top" xlink:title=" ">
<polygon fill="white" stroke="black" points="1400.25,-113 1400.25,-132.25 1495.75,-132.25 1495.75,-113 1400.25,-113"/>
<text xml:space="preserve" text-anchor="middle" x="1448" y="-118.75" font-family="Helvetica,sans-Serif" font-size="10.00">MemoryStack.hpp</text>
</a>
</g>
</g>
<!-- Node2&#45;&gt;Node35 -->
<g id="edge46" class="edge">
<title>Node2&#45;&gt;Node35</title>
<path fill="none" stroke="midnightblue" d="M992.68,-514.82C1131.7,-512.87 1500.75,-504.51 1543,-470.25 1566.5,-451.19 1562,-435.13 1562,-404.88 1562,-404.88 1562,-404.88 1562,-234.12 1562,-187.91 1513.11,-154.84 1479.36,-137.51"/>
<polygon fill="midnightblue" stroke="midnightblue" points="1481.32,-134.57 1470.8,-133.31 1478.24,-140.86 1481.32,-134.57"/>
</g>
<!-- Node38 -->
<g id="node27" class="node">
<title>Node38</title>
<g id="a_node27"><a xlink:href="_queue_class_8hpp.html" target="_top" xlink:title=" ">
<polygon fill="white" stroke="black" points="1148.62,-113 1148.62,-132.25 1237.38,-132.25 1237.38,-113 1148.62,-113"/>
<text xml:space="preserve" text-anchor="middle" x="1193" y="-118.75" font-family="Helvetica,sans-Serif" font-size="10.00">QueueClass.hpp</text>
</a>
</g>
</g>
<!-- Node2&#45;&gt;Node38 -->
<g id="edge45" class="edge">
<title>Node2&#45;&gt;Node38</title>
<path fill="none" stroke="midnightblue" d="M934.05,-506.5C928.52,-497.71 920.6,-483.67 917,-470.25 901.67,-413.17 894.35,-388.04 925,-337.5 984.89,-238.76 1107.91,-166.85 1163.99,-137.81"/>
<polygon fill="midnightblue" stroke="midnightblue" points="1165.29,-141.07 1172.62,-133.42 1162.12,-134.84 1165.29,-141.07"/>
</g>
<!-- Node50 -->
<g id="node37" class="node">
<title>Node50</title>
<g id="a_node37"><a xlink:href="_rexx_error_codes_8h.html" target="_top" xlink:title=" ">
<polygon fill="white" stroke="black" points="1214.5,-281.75 1214.5,-301 1311.5,-301 1311.5,-281.75 1214.5,-281.75"/>
<text xml:space="preserve" text-anchor="middle" x="1263" y="-287.5" font-family="Helvetica,sans-Serif" font-size="10.00">RexxErrorCodes.h</text>
</a>
</g>
</g>
<!-- Node2&#45;&gt;Node50 -->
<g id="edge60" class="edge">
<title>Node2&#45;&gt;Node50</title>
<path fill="none" stroke="midnightblue" d="M936.55,-506.53C926.02,-477.84 897.55,-386.4 942,-337.5 975.94,-300.16 1119.83,-292.99 1202.98,-292.05"/>
<polygon fill="midnightblue" stroke="midnightblue" points="1202.81,-295.55 1212.78,-291.96 1202.75,-288.55 1202.81,-295.55"/>
</g>
<!-- Node51 -->
<g id="node38" class="node">
<title>Node51</title>
<g id="a_node38"><a xlink:href="_token_8hpp.html" target="_top" xlink:title=" ">
<polygon fill="white" stroke="black" points="1000.5,-394.25 1000.5,-413.5 1061.5,-413.5 1061.5,-394.25 1000.5,-394.25"/>
<text xml:space="preserve" text-anchor="middle" x="1031" y="-400" font-family="Helvetica,sans-Serif" font-size="10.00">Token.hpp</text>
</a>
</g>
</g>
<!-- Node2&#45;&gt;Node51 -->
<g id="edge47" class="edge">
<title>Node2&#45;&gt;Node51</title>
<path fill="none" stroke="midnightblue" d="M940.59,-506.45C941.9,-492.97 946.03,-467.17 959,-450 968.99,-436.77 984.08,-426.46 997.87,-419.06"/>
<polygon fill="midnightblue" stroke="midnightblue" points="999.32,-422.25 1006.7,-414.64 996.19,-415.99 999.32,-422.25"/>
</g>
<!-- Node52 -->
<g id="node39" class="node">
<title>Node52</title>
<g id="a_node39"><a xlink:href="_clause_8hpp.html" target="_top" xlink:title=" ">
<polygon fill="white" stroke="black" points="968.25,-450.5 968.25,-469.75 1033.75,-469.75 1033.75,-450.5 968.25,-450.5"/>
<text xml:space="preserve" text-anchor="middle" x="1001" y="-456.25" font-family="Helvetica,sans-Serif" font-size="10.00">Clause.hpp</text>
</a>
</g>
</g>
<!-- Node2&#45;&gt;Node52 -->
<g id="edge49" class="edge">
<title>Node2&#45;&gt;Node52</title>
<path fill="none" stroke="midnightblue" d="M950.07,-506.42C958.87,-498.6 971.85,-487.05 982.51,-477.57"/>
<polygon fill="midnightblue" stroke="midnightblue" points="984.84,-480.18 989.98,-470.92 980.19,-474.95 984.84,-480.18"/>
</g>
<!-- Node53 -->
<g id="node40" class="node">
<title>Node53</title>
<g id="a_node40"><a xlink:href="_rexx_instruction_8hpp.html" target="_top" xlink:title=" ">
<polygon fill="white" stroke="black" points="1336.12,-450.5 1336.12,-469.75 1439.88,-469.75 1439.88,-450.5 1336.12,-450.5"/>
<text xml:space="preserve" text-anchor="middle" x="1388" y="-456.25" font-family="Helvetica,sans-Serif" font-size="10.00">RexxInstruction.hpp</text>
</a>
</g>
</g>
<!-- Node2&#45;&gt;Node53 -->
<g id="edge53" class="edge">
<title>Node2&#45;&gt;Node53</title>
<path fill="none" stroke="midnightblue" d="M992.65,-509.78C1064.99,-501.98 1199.47,-487.04 1324.48,-470.55"/>
<polygon fill="midnightblue" stroke="midnightblue" points="1324.82,-474.03 1334.27,-469.25 1323.9,-467.1 1324.82,-474.03"/>
</g>
<!-- Node54 -->
<g id="node41" class="node">
<title>Node54</title>
<g id="a_node41"><a xlink:href="_do_block_components_8hpp.html" target="_top" xlink:title=" ">
<polygon fill="white" stroke="black" points="615.12,-450.5 615.12,-469.75 742.88,-469.75 742.88,-450.5 615.12,-450.5"/>
<text xml:space="preserve" text-anchor="middle" x="679" y="-456.25" font-family="Helvetica,sans-Serif" font-size="10.00">DoBlockComponents.hpp</text>
</a>
</g>
</g>
<!-- Node2&#45;&gt;Node54 -->
<g id="edge56" class="edge">
<title>Node2&#45;&gt;Node54</title>
<path fill="none" stroke="midnightblue" d="M896.31,-506.29C851.71,-497.02 782.35,-482.61 734.02,-472.56"/>
<polygon fill="midnightblue" stroke="midnightblue" points="734.81,-469.15 724.31,-470.54 733.39,-476 734.81,-469.15"/>
</g>
<!-- Node56 -->
<g id="node43" class="node">
<title>Node56</title>
<g id="a_node43"><a xlink:href="_language_level_8hpp.html" target="_top" xlink:title=" ">
<polygon fill="white" stroke="black" points="1052,-450.5 1052,-469.75 1152,-469.75 1152,-450.5 1052,-450.5"/>
<text xml:space="preserve" text-anchor="middle" x="1102" y="-456.25" font-family="Helvetica,sans-Serif" font-size="10.00">LanguageLevel.hpp</text>
</a>
</g>
</g>
<!-- Node2&#45;&gt;Node56 -->
<g id="edge59" class="edge">
<title>Node2&#45;&gt;Node56</title>
<path fill="none" stroke="midnightblue" d="M967.12,-506.29C993.63,-497.41 1034.25,-483.81 1063.98,-473.86"/>
<polygon fill="midnightblue" stroke="midnightblue" points="1064.99,-477.21 1073.36,-470.72 1062.77,-470.57 1064.99,-477.21"/>
</g>
<!-- Node57 -->
<g id="node44" class="node">
<title>Node57</title>
<g id="a_node44"><a xlink:href="_command_i_o_configuration_8hpp.html" target="_top" xlink:title=" ">
<polygon fill="white" stroke="black" points="1170,-450.5 1170,-469.75 1318,-469.75 1318,-450.5 1170,-450.5"/>
<text xml:space="preserve" text-anchor="middle" x="1244" y="-456.25" font-family="Helvetica,sans-Serif" font-size="10.00">CommandIOConfiguration.hpp</text>
</a>
</g>
</g>
<!-- Node2&#45;&gt;Node57 -->
<g id="edge61" class="edge">
<title>Node2&#45;&gt;Node57</title>
<path fill="none" stroke="midnightblue" d="M990.88,-506.29C1043.38,-496.93 1125.34,-482.3 1181.69,-472.24"/>
<polygon fill="midnightblue" stroke="midnightblue" points="1182.23,-475.7 1191.46,-470.5 1181,-468.81 1182.23,-475.7"/>
</g>
<!-- Node58 -->
<g id="node45" class="node">
<title>Node58</title>
<g id="a_node45"><a xlink:href="_method_class_8hpp.html" target="_top" xlink:title=" ">
<polygon fill="white" stroke="black" points="263.75,-394.25 263.75,-413.5 356.25,-413.5 356.25,-394.25 263.75,-394.25"/>
<text xml:space="preserve" text-anchor="middle" x="310" y="-400" font-family="Helvetica,sans-Serif" font-size="10.00">MethodClass.hpp</text>
</a>
</g>
</g>
<!-- Node2&#45;&gt;Node58 -->
<g id="edge62" class="edge">
<title>Node2&#45;&gt;Node58</title>
<path fill="none" stroke="midnightblue" d="M887.44,-509.64C821.46,-502.13 704.95,-487.83 606,-470.25 517.59,-454.54 415.54,-430.73 357.31,-416.6"/>
<polygon fill="midnightblue" stroke="midnightblue" points="358.28,-413.23 347.73,-414.26 356.62,-420.03 358.28,-413.23"/>
</g>
<!-- Node4 -->
<g id="node4" class="node">
<title>Node4</title>
<g id="a_node4"><a xlink:href="_bit_set_8hpp.html" target="_top" xlink:title=" ">
<polygon fill="white" stroke="black" points="37.12,-56.75 37.12,-76 98.88,-76 98.88,-56.75 37.12,-56.75"/>
<text xml:space="preserve" text-anchor="middle" x="68" y="-62.5" font-family="Helvetica,sans-Serif" font-size="10.00">BitSet.hpp</text>
</a>
</g>
</g>
<!-- Node3&#45;&gt;Node4 -->
<g id="edge3" class="edge">
<title>Node3&#45;&gt;Node4</title>
<path fill="none" stroke="midnightblue" d="M68,-112.67C68,-105.87 68,-96.26 68,-87.65"/>
<polygon fill="midnightblue" stroke="midnightblue" points="71.5,-87.68 68,-77.68 64.5,-87.68 71.5,-87.68"/>
</g>
<!-- Node7 -->
<g id="node7" class="node">
<title>Node7</title>
<g id="a_node7"><a xlink:href="_list_contents_8hpp.html" target="_top" xlink:title=" ">
<polygon fill="white" stroke="black" points="1422.88,-394.25 1422.88,-413.5 1513.12,-413.5 1513.12,-394.25 1422.88,-394.25"/>
<text xml:space="preserve" text-anchor="middle" x="1468" y="-400" font-family="Helvetica,sans-Serif" font-size="10.00">ListContents.hpp</text>
</a>
</g>
</g>
<!-- Node6&#45;&gt;Node7 -->
<g id="edge6" class="edge">
<title>Node6&#45;&gt;Node7</title>
<path fill="none" stroke="midnightblue" d="M1491.38,-450.17C1487.67,-442.98 1482.33,-432.64 1477.69,-423.65"/>
<polygon fill="midnightblue" stroke="midnightblue" points="1480.93,-422.29 1473.23,-415.01 1474.71,-425.5 1480.93,-422.29"/>
</g>
<!-- Node8 -->
<g id="node8" class="node">
<title>Node8</title>
<g id="a_node8"><a xlink:href="_object_class_8hpp.html" target="_top" xlink:title=" ">
<polygon fill="white" stroke="black" points="1382.62,-338 1382.62,-357.25 1471.38,-357.25 1471.38,-338 1382.62,-338"/>
<text xml:space="preserve" text-anchor="middle" x="1427" y="-343.75" font-family="Helvetica,sans-Serif" font-size="10.00">ObjectClass.hpp</text>
</a>
</g>
</g>
<!-- Node7&#45;&gt;Node8 -->
<g id="edge7" class="edge">
<title>Node7&#45;&gt;Node8</title>
<path fill="none" stroke="midnightblue" d="M1461.23,-393.92C1455.62,-386.49 1447.46,-375.7 1440.52,-366.52"/>
<polygon fill="midnightblue" stroke="midnightblue" points="1443.38,-364.49 1434.56,-358.62 1437.79,-368.71 1443.38,-364.49"/>
</g>
<!-- Node9 -->
<g id="node9" class="node">
<title>Node9</title>
<g id="a_node9"><a xlink:title=" ">
<polygon fill="white" stroke="#bfbfbf" points="1462,-281.75 1462,-301 1496,-301 1496,-281.75 1462,-281.75"/>
<text xml:space="preserve" text-anchor="middle" x="1479" y="-287.5" font-family="Helvetica,sans-Serif" font-size="10.00">new</text>
</a>
</g>
</g>
<!-- Node8&#45;&gt;Node9 -->
<g id="edge8" class="edge">
<title>Node8&#45;&gt;Node9</title>
<path fill="none" stroke="midnightblue" d="M1435.59,-337.67C1442.93,-330 1453.71,-318.76 1462.69,-309.39"/>
<polygon fill="midnightblue" stroke="midnightblue" points="1465.13,-311.9 1469.53,-302.26 1460.08,-307.06 1465.13,-311.9"/>
</g>
<!-- Node10 -->
<g id="node10" class="node">
<title>Node10</title>
<g id="a_node10"><a xlink:title=" ">
<polygon fill="white" stroke="#bfbfbf" points="1499.88,-56.75 1499.88,-76 1548.12,-76 1548.12,-56.75 1499.88,-56.75"/>
<text xml:space="preserve" text-anchor="middle" x="1524" y="-62.5" font-family="Helvetica,sans-Serif" font-size="10.00">string.h</text>
</a>
</g>
</g>
<!-- Node8&#45;&gt;Node10 -->
<g id="edge9" class="edge">
<title>Node8&#45;&gt;Node10</title>
<path fill="none" stroke="midnightblue" d="M1452.95,-337.53C1470.06,-330.28 1491.69,-318.49 1505,-301.5 1523.66,-277.68 1524,-266.38 1524,-236.12 1524,-236.12 1524,-236.12 1524,-177.88 1524,-146.28 1524,-109.61 1524,-87.47"/>
<polygon fill="midnightblue" stroke="midnightblue" points="1527.5,-87.77 1524,-77.77 1520.5,-87.77 1527.5,-87.77"/>
</g>
<!-- Node11 -->
<g id="node11" class="node">
<title>Node11</title>
<g id="a_node11"><a xlink:href="_numerics_8hpp.html" target="_top" xlink:title=" ">
<polygon fill="white" stroke="black" points="1367.62,-281.75 1367.62,-301 1444.38,-301 1444.38,-281.75 1367.62,-281.75"/>
<text xml:space="preserve" text-anchor="middle" x="1406" y="-287.5" font-family="Helvetica,sans-Serif" font-size="10.00">Numerics.hpp</text>
</a>
</g>
</g>
<!-- Node8&#45;&gt;Node11 -->
<g id="edge10" class="edge">
<title>Node8&#45;&gt;Node11</title>
<path fill="none" stroke="midnightblue" d="M1423.53,-337.67C1420.81,-330.64 1416.92,-320.59 1413.5,-311.75"/>
<polygon fill="midnightblue" stroke="midnightblue" points="1416.82,-310.64 1409.95,-302.58 1410.3,-313.17 1416.82,-310.64"/>
</g>
<!-- Node8&#45;&gt;Node50 -->
<g id="edge44" class="edge">
<title>Node8&#45;&gt;Node50</title>
<path fill="none" stroke="midnightblue" d="M1399.55,-337.54C1372.59,-328.63 1331.23,-314.94 1301.09,-304.97"/>
<polygon fill="midnightblue" stroke="midnightblue" points="1302.57,-301.78 1291.98,-301.96 1300.37,-308.42 1302.57,-301.78"/>
</g>
<!-- Node12 -->
<g id="node12" class="node">
<title>Node12</title>
<g id="a_node12"><a xlink:title=" ">
<polygon fill="white" stroke="#bfbfbf" points="1378.12,-225.5 1378.12,-244.75 1433.88,-244.75 1433.88,-225.5 1378.12,-225.5"/>
<text xml:space="preserve" text-anchor="middle" x="1406" y="-231.25" font-family="Helvetica,sans-Serif" font-size="10.00">algorithm</text>
</a>
</g>
</g>
<!-- Node11&#45;&gt;Node12 -->
<g id="edge11" class="edge">
<title>Node11&#45;&gt;Node12</title>
<path fill="none" stroke="midnightblue" d="M1406,-281.42C1406,-274.62 1406,-265.01 1406,-256.4"/>
<polygon fill="midnightblue" stroke="midnightblue" points="1409.5,-256.43 1406,-246.43 1402.5,-256.43 1409.5,-256.43"/>
</g>
<!-- Node13 -->
<g id="node13" class="node">
<title>Node13</title>
<g id="a_node13"><a xlink:href="_rexx_core_8h.html" target="_top" xlink:title=" ">
<polygon fill="white" stroke="black" points="473.75,-225.5 473.75,-244.75 542.25,-244.75 542.25,-225.5 473.75,-225.5"/>
<text xml:space="preserve" text-anchor="middle" x="508" y="-231.25" font-family="Helvetica,sans-Serif" font-size="10.00">RexxCore.h</text>
</a>
</g>
</g>
<!-- Node11&#45;&gt;Node13 -->
<g id="edge12" class="edge">
<title>Node11&#45;&gt;Node13</title>
<path fill="none" stroke="midnightblue" d="M1367.17,-283.04C1362.74,-282.35 1358.28,-281.74 1354,-281.25 1049.67,-246.56 680.64,-238.45 553.56,-236.63"/>
<polygon fill="midnightblue" stroke="midnightblue" points="553.93,-233.13 543.89,-236.5 553.84,-240.13 553.93,-233.13"/>
</g>
<!-- Node13&#45;&gt;Node8 -->
<g id="edge19" class="edge">
<title>Node13&#45;&gt;Node8</title>
<path fill="none" stroke="midnightblue" d="M542.45,-235.79C677.73,-234.83 1172.46,-234.64 1321,-281.25 1329.91,-284.05 1375.08,-312.85 1403.5,-331.28"/>
<polygon fill="midnightblue" stroke="midnightblue" points="1401.56,-334.19 1411.85,-336.71 1405.38,-328.32 1401.56,-334.19"/>
</g>
<!-- Node14 -->
<g id="node14" class="node">
<title>Node14</title>
<g id="a_node14"><a xlink:href="oorexxapi_8h.html" target="_top" xlink:title=" ">
<polygon fill="white" stroke="black" points="413.88,-169.25 413.88,-188.5 480.12,-188.5 480.12,-169.25 413.88,-169.25"/>
<text xml:space="preserve" text-anchor="middle" x="447" y="-175" font-family="Helvetica,sans-Serif" font-size="10.00">oorexxapi.h</text>
</a>
</g>
</g>
<!-- Node13&#45;&gt;Node14 -->
<g id="edge13" class="edge">
<title>Node13&#45;&gt;Node14</title>
<path fill="none" stroke="midnightblue" d="M497.93,-225.17C489.13,-217.35 476.15,-205.8 465.49,-196.32"/>
<polygon fill="midnightblue" stroke="midnightblue" points="467.81,-193.7 458.02,-189.67 463.16,-198.93 467.81,-193.7"/>
</g>
<!-- Node21 -->
<g id="node18" class="node">
<title>Node21</title>
<g id="a_node18"><a xlink:title=" ">
<polygon fill="white" stroke="#bfbfbf" points="288.25,-169.25 288.25,-188.5 395.75,-188.5 395.75,-169.25 288.25,-169.25"/>
<text xml:space="preserve" text-anchor="middle" x="342" y="-175" font-family="Helvetica,sans-Serif" font-size="10.00">PlatformDefinitions.h</text>
</a>
</g>
</g>
<!-- Node13&#45;&gt;Node21 -->
<g id="edge17" class="edge">
<title>Node13&#45;&gt;Node21</title>
<path fill="none" stroke="midnightblue" d="M480.22,-225.04C452.92,-216.13 411.06,-202.44 380.55,-192.47"/>
<polygon fill="midnightblue" stroke="midnightblue" points="381.91,-189.23 371.31,-189.46 379.73,-195.89 381.91,-189.23"/>
</g>
<!-- Node22 -->
<g id="node19" class="node">
<title>Node22</title>
<g id="a_node19"><a xlink:href="_class_type_codes_8h.html" target="_top" xlink:title=" ">
<polygon fill="white" stroke="black" points="474.38,-56.75 474.38,-76 573.62,-76 573.62,-56.75 474.38,-56.75"/>
<text xml:space="preserve" text-anchor="middle" x="524" y="-62.5" font-family="Helvetica,sans-Serif" font-size="10.00">ClassTypeCodes.h</text>
</a>
</g>
</g>
<!-- Node13&#45;&gt;Node22 -->
<g id="edge18" class="edge">
<title>Node13&#45;&gt;Node22</title>
<path fill="none" stroke="midnightblue" d="M507.29,-225.2C505.86,-204.98 503.33,-154.21 510,-112.5 511.38,-103.89 514.02,-94.66 516.65,-86.8"/>
<polygon fill="midnightblue" stroke="midnightblue" points="519.86,-88.21 519.93,-77.61 513.27,-85.85 519.86,-88.21"/>
</g>
<!-- Node23 -->
<g id="node20" class="node">
<title>Node23</title>
<g id="a_node20"><a xlink:href="_table_class_8hpp.html" target="_top" xlink:title=" ">
<polygon fill="white" stroke="black" points="629.25,-169.25 629.25,-188.5 712.75,-188.5 712.75,-169.25 629.25,-169.25"/>
<text xml:space="preserve" text-anchor="middle" x="671" y="-175" font-family="Helvetica,sans-Serif" font-size="10.00">TableClass.hpp</text>
</a>
</g>
</g>
<!-- Node13&#45;&gt;Node23 -->
<g id="edge20" class="edge">
<title>Node13&#45;&gt;Node23</title>
<path fill="none" stroke="midnightblue" d="M535.28,-225.04C561.96,-216.16 602.83,-202.56 632.75,-192.61"/>
<polygon fill="midnightblue" stroke="midnightblue" points="633.81,-195.94 642.19,-189.46 631.6,-189.3 633.81,-195.94"/>
</g>
<!-- Node33 -->
<g id="node22" class="node">
<title>Node33</title>
<g id="a_node22"><a xlink:href="_rexx_memory_8hpp.html" target="_top" xlink:title=" ">
<polygon fill="white" stroke="black" points="749.12,-169.25 749.12,-188.5 840.88,-188.5 840.88,-169.25 749.12,-169.25"/>
<text xml:space="preserve" text-anchor="middle" x="795" y="-175" font-family="Helvetica,sans-Serif" font-size="10.00">RexxMemory.hpp</text>
</a>
</g>
</g>
<!-- Node13&#45;&gt;Node33 -->
<g id="edge22" class="edge">
<title>Node13&#45;&gt;Node33</title>
<path fill="none" stroke="midnightblue" d="M542.62,-227.58C590.91,-218.45 679.11,-201.78 737.39,-190.76"/>
<polygon fill="midnightblue" stroke="midnightblue" points="737.97,-194.22 747.14,-188.92 736.67,-187.34 737.97,-194.22"/>
</g>
<!-- Node47 -->
<g id="node33" class="node">
<title>Node47</title>
<g id="a_node33"><a xlink:href="_rexx_behaviour_8hpp.html" target="_top" xlink:title=" ">
<polygon fill="white" stroke="black" points="169.62,-169.25 169.62,-188.5 270.38,-188.5 270.38,-169.25 169.62,-169.25"/>
<text xml:space="preserve" text-anchor="middle" x="220" y="-175" font-family="Helvetica,sans-Serif" font-size="10.00">RexxBehaviour.hpp</text>
</a>
</g>
</g>
<!-- Node13&#45;&gt;Node47 -->
<g id="edge38" class="edge">
<title>Node13&#45;&gt;Node47</title>
<path fill="none" stroke="midnightblue" d="M473.26,-227.58C425.29,-218.55 338.08,-202.12 279.59,-191.1"/>
<polygon fill="midnightblue" stroke="midnightblue" points="280.26,-187.66 269.79,-189.25 278.97,-194.54 280.26,-187.66"/>
</g>
<!-- Node28 -->
<g id="node35" class="node">
<title>Node28</title>
<g id="a_node35"><a xlink:href="_class_class_8hpp.html" target="_top" xlink:title=" ">
<polygon fill="white" stroke="black" points="66.12,-169.25 66.12,-188.5 151.88,-188.5 151.88,-169.25 66.12,-169.25"/>
<text xml:space="preserve" text-anchor="middle" x="109" y="-175" font-family="Helvetica,sans-Serif" font-size="10.00">ClassClass.hpp</text>
</a>
</g>
</g>
<!-- Node13&#45;&gt;Node28 -->
<g id="edge41" class="edge">
<title>Node13&#45;&gt;Node28</title>
<path fill="none" stroke="midnightblue" d="M473.45,-230.15C412.87,-223.06 283.26,-207.41 163.31,-189.29"/>
<polygon fill="midnightblue" stroke="midnightblue" points="164.01,-185.86 153.6,-187.82 162.96,-192.78 164.01,-185.86"/>
</g>
<!-- Node49 -->
<g id="node36" class="node">
<title>Node49</title>
<g id="a_node36"><a xlink:href="_envelope_8hpp.html" target="_top" xlink:title=" ">
<polygon fill="white" stroke="black" points="536.38,-169.25 536.38,-188.5 611.62,-188.5 611.62,-169.25 536.38,-169.25"/>
<text xml:space="preserve" text-anchor="middle" x="574" y="-175" font-family="Helvetica,sans-Serif" font-size="10.00">Envelope.hpp</text>
</a>
</g>
</g>
<!-- Node13&#45;&gt;Node49 -->
<g id="edge43" class="edge">
<title>Node13&#45;&gt;Node49</title>
<path fill="none" stroke="midnightblue" d="M518.9,-225.17C528.61,-217.19 543.03,-205.33 554.69,-195.75"/>
<polygon fill="midnightblue" stroke="midnightblue" points="556.63,-198.68 562.13,-189.63 552.19,-193.27 556.63,-198.68"/>
</g>
<!-- Node15 -->
<g id="node15" class="node">
<title>Node15</title>
<g id="a_node15"><a xlink:href="rexx_8h.html" target="_top" xlink:title=" ">
<polygon fill="white" stroke="red" points="323.5,-113 323.5,-132.25 366.5,-132.25 366.5,-113 323.5,-113"/>
<text xml:space="preserve" text-anchor="middle" x="345" y="-118.75" font-family="Helvetica,sans-Serif" font-size="10.00">rexx.h</text>
</a>
</g>
</g>
<!-- Node14&#45;&gt;Node15 -->
<g id="edge14" class="edge">
<title>Node14&#45;&gt;Node15</title>
<path fill="none" stroke="midnightblue" d="M430.16,-168.92C414.36,-160.51 390.47,-147.81 372.01,-137.99"/>
<polygon fill="midnightblue" stroke="midnightblue" points="373.68,-134.91 363.2,-133.31 370.39,-141.09 373.68,-134.91"/>
</g>
<!-- Node20 -->
<g id="node17" class="node">
<title>Node20</title>
<g id="a_node17"><a xlink:href="oorexxerrors_8h.html" target="_top" xlink:title=" ">
<polygon fill="white" stroke="black" points="384.88,-113 384.88,-132.25 463.12,-132.25 463.12,-113 384.88,-113"/>
<text xml:space="preserve" text-anchor="middle" x="424" y="-118.75" font-family="Helvetica,sans-Serif" font-size="10.00">oorexxerrors.h</text>
</a>
</g>
</g>
<!-- Node14&#45;&gt;Node20 -->
<g id="edge16" class="edge">
<title>Node14&#45;&gt;Node20</title>
<path fill="none" stroke="midnightblue" d="M443.2,-168.92C440.22,-161.89 435.96,-151.84 432.21,-143"/>
<polygon fill="midnightblue" stroke="midnightblue" points="435.44,-141.65 428.32,-133.81 429,-144.38 435.44,-141.65"/>
</g>
<!-- Node16 -->
<g id="node16" class="node">
<title>Node16</title>
<g id="a_node16"><a xlink:title=" ">
<polygon fill="white" stroke="#bfbfbf" points="305.12,-56.75 305.12,-76 384.88,-76 384.88,-56.75 305.12,-56.75"/>
<text xml:space="preserve" text-anchor="middle" x="345" y="-62.5" font-family="Helvetica,sans-Serif" font-size="10.00">rexxapitypes.h</text>
</a>
</g>
</g>
<!-- Node15&#45;&gt;Node16 -->
<g id="edge15" class="edge">
<title>Node15&#45;&gt;Node16</title>
<path fill="none" stroke="midnightblue" d="M345,-112.67C345,-105.87 345,-96.26 345,-87.65"/>
<polygon fill="midnightblue" stroke="midnightblue" points="348.5,-87.68 345,-77.68 341.5,-87.68 348.5,-87.68"/>
</g>
<!-- Node24 -->
<g id="node21" class="node">
<title>Node24</title>
<g id="a_node21"><a xlink:href="_hash_collection_8hpp.html" target="_top" xlink:title=" ">
<polygon fill="white" stroke="red" points="650.25,-56.75 650.25,-76 751.75,-76 751.75,-56.75 650.25,-56.75"/>
<text xml:space="preserve" text-anchor="middle" x="701" y="-62.5" font-family="Helvetica,sans-Serif" font-size="10.00">HashCollection.hpp</text>
</a>
</g>
</g>
<!-- Node23&#45;&gt;Node24 -->
<g id="edge21" class="edge">
<title>Node23&#45;&gt;Node24</title>
<path fill="none" stroke="midnightblue" d="M666.69,-169.12C661,-156.29 652.53,-131.82 660,-112.5 664.26,-101.48 672.6,-91.49 680.65,-83.73"/>
<polygon fill="midnightblue" stroke="midnightblue" points="682.8,-86.5 687.94,-77.24 678.14,-81.28 682.8,-86.5"/>
</g>
<!-- Node34 -->
<g id="node23" class="node">
<title>Node34</title>
<g id="a_node23"><a xlink:href="_memory_8hpp.html" target="_top" xlink:title=" ">
<polygon fill="white" stroke="black" points="803.75,-56.75 803.75,-76 872.25,-76 872.25,-56.75 803.75,-56.75"/>
<text xml:space="preserve" text-anchor="middle" x="838" y="-62.5" font-family="Helvetica,sans-Serif" font-size="10.00">Memory.hpp</text>
</a>
</g>
</g>
<!-- Node33&#45;&gt;Node34 -->
<g id="edge23" class="edge">
<title>Node33&#45;&gt;Node34</title>
<path fill="none" stroke="midnightblue" d="M798.52,-168.83C805.45,-151.02 821.01,-111.02 830.4,-86.91"/>
<polygon fill="midnightblue" stroke="midnightblue" points="833.64,-88.23 834,-77.64 827.12,-85.69 833.64,-88.23"/>
</g>
<!-- Node33&#45;&gt;Node35 -->
<g id="edge24" class="edge">
<title>Node33&#45;&gt;Node35</title>
<path fill="none" stroke="midnightblue" d="M841.18,-174.04C957.07,-164.41 1260.13,-139.23 1388.82,-128.54"/>
<polygon fill="midnightblue" stroke="midnightblue" points="1388.8,-132.06 1398.48,-127.74 1388.22,-125.08 1388.8,-132.06"/>
</g>
<!-- Node36 -->
<g id="node25" class="node">
<title>Node36</title>
<g id="a_node25"><a xlink:title=" ">
<polygon fill="white" stroke="#bfbfbf" points="841.25,-113 841.25,-132.25 942.75,-132.25 942.75,-113 841.25,-113"/>
<text xml:space="preserve" text-anchor="middle" x="892" y="-118.75" font-family="Helvetica,sans-Serif" font-size="10.00">SysSemaphore.hpp</text>
</a>
</g>
</g>
<!-- Node33&#45;&gt;Node36 -->
<g id="edge26" class="edge">
<title>Node33&#45;&gt;Node36</title>
<path fill="none" stroke="midnightblue" d="M811.02,-168.92C826.04,-160.51 848.76,-147.81 866.32,-137.99"/>
<polygon fill="midnightblue" stroke="midnightblue" points="867.62,-141.27 874.64,-133.34 864.2,-135.16 867.62,-141.27"/>
</g>
<!-- Node37 -->
<g id="node26" class="node">
<title>Node37</title>
<g id="a_node26"><a xlink:href="_identity_table_class_8hpp.html" target="_top" xlink:title=" ">
<polygon fill="white" stroke="black" points="669.12,-113 669.12,-132.25 784.88,-132.25 784.88,-113 669.12,-113"/>
<text xml:space="preserve" text-anchor="middle" x="727" y="-118.75" font-family="Helvetica,sans-Serif" font-size="10.00">IdentityTableClass.hpp</text>
</a>
</g>
</g>
<!-- Node33&#45;&gt;Node37 -->
<g id="edge27" class="edge">
<title>Node33&#45;&gt;Node37</title>
<path fill="none" stroke="midnightblue" d="M783.77,-168.92C773.77,-160.94 758.9,-149.08 746.89,-139.5"/>
<polygon fill="midnightblue" stroke="midnightblue" points="749.2,-136.86 739.2,-133.36 744.84,-142.33 749.2,-136.86"/>
</g>
<!-- Node33&#45;&gt;Node38 -->
<g id="edge29" class="edge">
<title>Node33&#45;&gt;Node38</title>
<path fill="none" stroke="midnightblue" d="M841.17,-170.73C845.84,-170.05 850.51,-169.37 855,-168.75 977.87,-151.65 1011.82,-151.58 1137.02,-133.14"/>
<polygon fill="midnightblue" stroke="midnightblue" points="1137.33,-136.63 1146.71,-131.71 1136.3,-129.71 1137.33,-136.63"/>
</g>
<!-- Node41 -->
<g id="node30" class="node">
<title>Node41</title>
<g id="a_node30"><a xlink:title=" ">
<polygon fill="white" stroke="#bfbfbf" points="1087.5,-113 1087.5,-132.25 1130.5,-132.25 1130.5,-113 1087.5,-113"/>
<text xml:space="preserve" text-anchor="middle" x="1109" y="-118.75" font-family="Helvetica,sans-Serif" font-size="10.00">vector</text>
</a>
</g>
</g>
<!-- Node33&#45;&gt;Node41 -->
<g id="edge33" class="edge">
<title>Node33&#45;&gt;Node41</title>
<path fill="none" stroke="midnightblue" d="M841.12,-170.72C909.96,-160.01 1035.25,-140.44 1076.06,-132.89"/>
<polygon fill="midnightblue" stroke="midnightblue" points="1076.54,-136.36 1085.66,-130.95 1075.16,-129.5 1076.54,-136.36"/>
</g>
<!-- Node42 -->
<g id="node31" class="node">
<title>Node42</title>
<g id="a_node31"><a xlink:href="_memory_stats_8hpp.html" target="_top" xlink:title=" ">
<polygon fill="white" stroke="black" points="519.38,-113 519.38,-132.25 612.62,-132.25 612.62,-113 519.38,-113"/>
<text xml:space="preserve" text-anchor="middle" x="566" y="-118.75" font-family="Helvetica,sans-Serif" font-size="10.00">MemoryStats.hpp</text>
</a>
</g>
</g>
<!-- Node33&#45;&gt;Node42 -->
<g id="edge34" class="edge">
<title>Node33&#45;&gt;Node42</title>
<path fill="none" stroke="midnightblue" d="M756.67,-168.79C717.95,-159.62 657.96,-145.41 615.62,-135.38"/>
<polygon fill="midnightblue" stroke="midnightblue" points="616.46,-131.98 605.93,-133.08 614.85,-138.79 616.46,-131.98"/>
</g>
<!-- Node43 -->
<g id="node32" class="node">
<title>Node43</title>
<g id="a_node32"><a xlink:href="_memory_segment_8hpp.html" target="_top" xlink:title=" ">
<polygon fill="white" stroke="red" points="960.5,-113 960.5,-132.25 1069.5,-132.25 1069.5,-113 960.5,-113"/>
<text xml:space="preserve" text-anchor="middle" x="1015" y="-118.75" font-family="Helvetica,sans-Serif" font-size="10.00">MemorySegment.hpp</text>
</a>
</g>
</g>
<!-- Node33&#45;&gt;Node43 -->
<g id="edge36" class="edge">
<title>Node33&#45;&gt;Node43</title>
<path fill="none" stroke="midnightblue" d="M831.82,-168.79C868.94,-159.64 926.41,-145.47 967.07,-135.44"/>
<polygon fill="midnightblue" stroke="midnightblue" points="967.72,-138.89 976.59,-133.1 966.04,-132.09 967.72,-138.89"/>
</g>
<!-- Node35&#45;&gt;Node10 -->
<g id="edge25" class="edge">
<title>Node35&#45;&gt;Node10</title>
<path fill="none" stroke="midnightblue" d="M1460.55,-112.67C1471.88,-104.58 1488.8,-92.5 1502.32,-82.85"/>
<polygon fill="midnightblue" stroke="midnightblue" points="1504.09,-85.88 1510.2,-77.23 1500.03,-80.19 1504.09,-85.88"/>
</g>
<!-- Node37&#45;&gt;Node24 -->
<g id="edge28" class="edge">
<title>Node37&#45;&gt;Node24</title>
<path fill="none" stroke="midnightblue" d="M722.71,-112.67C719.3,-105.56 714.41,-95.37 710.14,-86.45"/>
<polygon fill="midnightblue" stroke="midnightblue" points="713.35,-85.04 705.87,-77.53 707.03,-88.06 713.35,-85.04"/>
</g>
<!-- Node39 -->
<g id="node28" class="node">
<title>Node39</title>
<g id="a_node28"><a xlink:href="_array_class_8hpp.html" target="_top" xlink:title=" ">
<polygon fill="white" stroke="black" points="1223.25,-56.75 1223.25,-76 1306.75,-76 1306.75,-56.75 1223.25,-56.75"/>
<text xml:space="preserve" text-anchor="middle" x="1265" y="-62.5" font-family="Helvetica,sans-Serif" font-size="10.00">ArrayClass.hpp</text>
</a>
</g>
</g>
<!-- Node38&#45;&gt;Node39 -->
<g id="edge30" class="edge">
<title>Node38&#45;&gt;Node39</title>
<path fill="none" stroke="midnightblue" d="M1204.89,-112.67C1215.58,-104.61 1231.53,-92.59 1244.31,-82.96"/>
<polygon fill="midnightblue" stroke="midnightblue" points="1246.24,-85.89 1252.12,-77.08 1242.03,-80.3 1246.24,-85.89"/>
</g>
<!-- Node39&#45;&gt;Node11 -->
<g id="edge32" class="edge">
<title>Node39&#45;&gt;Node11</title>
<path fill="none" stroke="midnightblue" d="M1269.51,-76.19C1283.19,-102.63 1325.89,-183.29 1369,-245.25 1375.57,-254.69 1383.59,-264.64 1390.49,-272.78"/>
<polygon fill="midnightblue" stroke="midnightblue" points="1387.73,-274.95 1396.92,-280.23 1393.03,-270.37 1387.73,-274.95"/>
</g>
<!-- Node40 -->
<g id="node29" class="node">
<title>Node40</title>
<g id="a_node29"><a xlink:href="_number_array_8hpp.html" target="_top" xlink:title=" ">
<polygon fill="white" stroke="black" points="1219.5,-0.5 1219.5,-19.75 1310.5,-19.75 1310.5,-0.5 1219.5,-0.5"/>
<text xml:space="preserve" text-anchor="middle" x="1265" y="-6.25" font-family="Helvetica,sans-Serif" font-size="10.00">NumberArray.hpp</text>
</a>
</g>
</g>
<!-- Node39&#45;&gt;Node40 -->
<g id="edge31" class="edge">
<title>Node39&#45;&gt;Node40</title>
<path fill="none" stroke="midnightblue" d="M1265,-56.42C1265,-49.62 1265,-40.01 1265,-31.4"/>
<polygon fill="midnightblue" stroke="midnightblue" points="1268.5,-31.43 1265,-21.43 1261.5,-31.43 1268.5,-31.43"/>
</g>
<!-- Node42&#45;&gt;Node22 -->
<g id="edge35" class="edge">
<title>Node42&#45;&gt;Node22</title>
<path fill="none" stroke="midnightblue" d="M559.06,-112.67C553.32,-105.24 544.96,-94.45 537.85,-85.27"/>
<polygon fill="midnightblue" stroke="midnightblue" points="540.62,-83.13 531.73,-77.36 535.09,-87.41 540.62,-83.13"/>
</g>
<!-- Node43&#45;&gt;Node34 -->
<g id="edge37" class="edge">
<title>Node43&#45;&gt;Node34</title>
<path fill="none" stroke="midnightblue" d="M985.37,-112.54C956.15,-103.59 911.24,-89.82 878.68,-79.84"/>
<polygon fill="midnightblue" stroke="midnightblue" points="879.76,-76.51 869.17,-76.93 877.7,-83.21 879.76,-76.51"/>
</g>
<!-- Node47&#45;&gt;Node3 -->
<g id="edge39" class="edge">
<title>Node47&#45;&gt;Node3</title>
<path fill="none" stroke="midnightblue" d="M194.56,-168.79C169.79,-159.95 131.9,-146.43 104.04,-136.49"/>
<polygon fill="midnightblue" stroke="midnightblue" points="105.54,-133.31 94.95,-133.24 103.19,-139.9 105.54,-133.31"/>
</g>
<!-- Node48 -->
<g id="node34" class="node">
<title>Node48</title>
<g id="a_node34"><a xlink:href="_primitive_behaviour_names_8h.html" target="_top" xlink:title=" ">
<polygon fill="white" stroke="black" points="151.25,-113 151.25,-132.25 288.75,-132.25 288.75,-113 151.25,-113"/>
<text xml:space="preserve" text-anchor="middle" x="220" y="-118.75" font-family="Helvetica,sans-Serif" font-size="10.00">PrimitiveBehaviourNames.h</text>
</a>
</g>
</g>
<!-- Node47&#45;&gt;Node48 -->
<g id="edge40" class="edge">
<title>Node47&#45;&gt;Node48</title>
<path fill="none" stroke="midnightblue" d="M220,-168.92C220,-162.12 220,-152.51 220,-143.9"/>
<polygon fill="midnightblue" stroke="midnightblue" points="223.5,-143.93 220,-133.93 216.5,-143.93 223.5,-143.93"/>
</g>
<!-- Node28&#45;&gt;Node3 -->
<g id="edge42" class="edge">
<title>Node28&#45;&gt;Node3</title>
<path fill="none" stroke="midnightblue" d="M102.23,-168.92C96.62,-161.49 88.46,-150.7 81.52,-141.52"/>
<polygon fill="midnightblue" stroke="midnightblue" points="84.38,-139.49 75.56,-133.62 78.79,-143.71 84.38,-139.49"/>
</g>
<!-- Node51&#45;&gt;Node5 -->
<g id="edge48" class="edge">
<title>Node51&#45;&gt;Node5</title>
<path fill="none" stroke="midnightblue" d="M1026.21,-393.92C1022.37,-386.73 1016.84,-376.39 1012.04,-367.4"/>
<polygon fill="midnightblue" stroke="midnightblue" points="1015.21,-365.92 1007.41,-358.75 1009.04,-369.22 1015.21,-365.92"/>
</g>
<!-- Node52&#45;&gt;Node5 -->
<g id="edge50" class="edge">
<title>Node52&#45;&gt;Node5</title>
<path fill="none" stroke="midnightblue" d="M998.38,-450.26C995,-437.71 989.78,-414.02 992,-393.75 992.92,-385.37 994.76,-376.28 996.62,-368.46"/>
<polygon fill="midnightblue" stroke="midnightblue" points="999.96,-369.54 999.05,-358.98 993.18,-367.8 999.96,-369.54"/>
</g>
<!-- Node52&#45;&gt;Node39 -->
<g id="edge51" class="edge">
<title>Node52&#45;&gt;Node39</title>
<path fill="none" stroke="midnightblue" d="M1019.54,-450.11C1034.65,-442.12 1055.89,-429.36 1071,-414 1174.27,-309.07 1186.01,-267.19 1246,-132.75 1252.57,-118.03 1257.53,-100.43 1260.74,-87.21"/>
<polygon fill="midnightblue" stroke="midnightblue" points="1264.12,-88.11 1262.93,-77.58 1257.3,-86.55 1264.12,-88.11"/>
</g>
<!-- Node52&#45;&gt;Node51 -->
<g id="edge52" class="edge">
<title>Node52&#45;&gt;Node51</title>
<path fill="none" stroke="midnightblue" d="M1005.95,-450.17C1009.93,-442.98 1015.65,-432.64 1020.62,-423.65"/>
<polygon fill="midnightblue" stroke="midnightblue" points="1023.63,-425.44 1025.41,-414.99 1017.5,-422.05 1023.63,-425.44"/>
</g>
<!-- Node53&#45;&gt;Node5 -->
<g id="edge55" class="edge">
<title>Node53&#45;&gt;Node5</title>
<path fill="none" stroke="midnightblue" d="M1356.41,-450.08C1287.34,-430.31 1122.8,-383.21 1044.64,-360.83"/>
<polygon fill="midnightblue" stroke="midnightblue" points="1045.79,-357.52 1035.21,-358.13 1043.86,-364.25 1045.79,-357.52"/>
</g>
<!-- Node53&#45;&gt;Node51 -->
<g id="edge54" class="edge">
<title>Node53&#45;&gt;Node51</title>
<path fill="none" stroke="midnightblue" d="M1335.71,-451.18C1264.45,-440.35 1138.27,-421.18 1072.89,-411.24"/>
<polygon fill="midnightblue" stroke="midnightblue" points="1073.7,-407.82 1063.29,-409.78 1072.65,-414.74 1073.7,-407.82"/>
</g>
<!-- Node54&#45;&gt;Node13 -->
<g id="edge57" class="edge">
<title>Node54&#45;&gt;Node13</title>
<path fill="none" stroke="midnightblue" d="M677.79,-450.13C675.73,-437 670.66,-412.16 660,-393.75 624.79,-332.97 561.23,-277.82 528.58,-251.83"/>
<polygon fill="midnightblue" stroke="midnightblue" points="531.1,-249.35 521.06,-245.94 526.78,-254.86 531.1,-249.35"/>
</g>
<!-- Node55 -->
<g id="node42" class="node">
<title>Node55</title>
<g id="a_node42"><a xlink:href="_expression_base_variable_8hpp.html" target="_top" xlink:title=" ">
<polygon fill="white" stroke="black" points="510.75,-394.25 510.75,-413.5 651.25,-413.5 651.25,-394.25 510.75,-394.25"/>
<text xml:space="preserve" text-anchor="middle" x="581" y="-400" font-family="Helvetica,sans-Serif" font-size="10.00">ExpressionBaseVariable.hpp</text>
</a>
</g>
</g>
<!-- Node54&#45;&gt;Node55 -->
<g id="edge58" class="edge">
<title>Node54&#45;&gt;Node55</title>
<path fill="none" stroke="midnightblue" d="M662.82,-450.17C647.64,-441.76 624.68,-429.06 606.95,-419.24"/>
<polygon fill="midnightblue" stroke="midnightblue" points="608.98,-416.36 598.53,-414.58 605.58,-422.48 608.98,-416.36"/>
</g>
<!-- Node58&#45;&gt;Node3 -->
<g id="edge69" class="edge">
<title>Node58&#45;&gt;Node3</title>
<path fill="none" stroke="midnightblue" d="M298.18,-393.84C250.02,-356.9 70.41,-217.89 57,-189 50.25,-174.47 54.1,-156.41 59.01,-142.95"/>
<polygon fill="midnightblue" stroke="midnightblue" points="62.16,-144.49 62.78,-133.92 55.7,-141.8 62.16,-144.49"/>
</g>
<!-- Node58&#45;&gt;Node13 -->
<g id="edge63" class="edge">
<title>Node58&#45;&gt;Node13</title>
<path fill="none" stroke="midnightblue" d="M320.65,-393.91C352.54,-367.05 447.65,-286.95 488.74,-252.35"/>
<polygon fill="midnightblue" stroke="midnightblue" points="490.75,-255.23 496.14,-246.11 486.24,-249.87 490.75,-255.23"/>
</g>
<!-- Node59 -->
<g id="node46" class="node">
<title>Node59</title>
<g id="a_node46"><a xlink:href="_base_executable_8hpp.html" target="_top" xlink:title=" ">
<polygon fill="white" stroke="black" points="66,-338 66,-357.25 172,-357.25 172,-338 66,-338"/>
<text xml:space="preserve" text-anchor="middle" x="119" y="-343.75" font-family="Helvetica,sans-Serif" font-size="10.00">BaseExecutable.hpp</text>
</a>
</g>
</g>
<!-- Node58&#45;&gt;Node59 -->
<g id="edge64" class="edge">
<title>Node58&#45;&gt;Node59</title>
<path fill="none" stroke="midnightblue" d="M278.03,-393.79C246.22,-384.76 197.19,-370.83 161.98,-360.83"/>
<polygon fill="midnightblue" stroke="midnightblue" points="163.11,-357.51 152.53,-358.15 161.19,-364.25 163.11,-357.51"/>
</g>
<!-- Node60 -->
<g id="node47" class="node">
<title>Node60</title>
<g id="a_node47"><a xlink:href="_base_code_8hpp.html" target="_top" xlink:title=" ">
<polygon fill="white" stroke="black" points="287.75,-281.75 287.75,-301 368.25,-301 368.25,-281.75 287.75,-281.75"/>
<text xml:space="preserve" text-anchor="middle" x="328" y="-287.5" font-family="Helvetica,sans-Serif" font-size="10.00">BaseCode.hpp</text>
</a>
</g>
</g>
<!-- Node59&#45;&gt;Node60 -->
<g id="edge65" class="edge">
<title>Node59&#45;&gt;Node60</title>
<path fill="none" stroke="midnightblue" d="M153.98,-337.54C189.1,-328.43 243.38,-314.34 281.97,-304.32"/>
<polygon fill="midnightblue" stroke="midnightblue" points="282.64,-307.77 291.44,-301.87 280.88,-300.99 282.64,-307.77"/>
</g>
<!-- Node59&#45;&gt;Node69 -->
<g id="edge68" class="edge">
<title>Node59&#45;&gt;Node69</title>
<path fill="none" stroke="midnightblue" d="M114.21,-337.67C110.37,-330.48 104.84,-320.14 100.04,-311.15"/>
<polygon fill="midnightblue" stroke="midnightblue" points="103.21,-309.67 95.41,-302.5 97.04,-312.97 103.21,-309.67"/>
</g>
<!-- Node60&#45;&gt;Node13 -->
<g id="edge66" class="edge">
<title>Node60&#45;&gt;Node13</title>
<path fill="none" stroke="midnightblue" d="M358.13,-281.29C387.98,-272.3 433.92,-258.45 467.06,-248.46"/>
<polygon fill="midnightblue" stroke="midnightblue" points="467.76,-251.91 476.32,-245.67 465.74,-245.21 467.76,-251.91"/>
</g>
<!-- Node61 -->
<g id="node48" class="node">
<title>Node61</title>
<g id="a_node48"><a xlink:href="_activation_settings_8hpp.html" target="_top" xlink:title=" ">
<polygon fill="white" stroke="red" points="270.88,-225.5 270.88,-244.75 385.12,-244.75 385.12,-225.5 270.88,-225.5"/>
<text xml:space="preserve" text-anchor="middle" x="328" y="-231.25" font-family="Helvetica,sans-Serif" font-size="10.00">ActivationSettings.hpp</text>
</a>
</g>
</g>
<!-- Node60&#45;&gt;Node61 -->
<g id="edge67" class="edge">
<title>Node60&#45;&gt;Node61</title>
<path fill="none" stroke="midnightblue" d="M328,-281.42C328,-274.62 328,-265.01 328,-256.4"/>
<polygon fill="midnightblue" stroke="midnightblue" points="331.5,-256.43 328,-246.43 324.5,-256.43 331.5,-256.43"/>
</g>
<!-- Node70&#45;&gt;Node10 -->
<g id="edge71" class="edge">
<title>Node70&#45;&gt;Node10</title>
<path fill="none" stroke="midnightblue" d="M1370.66,-511.6C1430.68,-505.68 1534.7,-492.49 1565,-470.25 1591.57,-450.75 1600,-437.83 1600,-404.88 1600,-404.88 1600,-404.88 1600,-177.88 1600,-138.58 1566.98,-103.08 1544.47,-83.44"/>
<polygon fill="midnightblue" stroke="midnightblue" points="1546.95,-80.96 1537.04,-77.23 1542.46,-86.33 1546.95,-80.96"/>
</g>
</g>
</svg>
