<?xml version="1.0" encoding="UTF-8" standalone="no"?>
<!DOCTYPE svg PUBLIC "-//W3C//DTD SVG 1.1//EN"
 "http://www.w3.org/Graphics/SVG/1.1/DTD/svg11.dtd">
<!-- Generated by graphviz version 13.1.0 (20250701.0955)
 -->
<!-- Title: ElseInstruction.hpp Pages: 1 -->
<svg width="618pt" height="85pt"
 viewBox="0.00 0.00 618.00 85.00" xmlns="http://www.w3.org/2000/svg" xmlns:xlink="http://www.w3.org/1999/xlink">
<g id="graph0" class="graph" transform="scale(1 1) rotate(0) translate(4 80.5)">
<title>ElseInstruction.hpp</title>
<polygon fill="white" stroke="none" points="-4,4 -4,-80.5 613.62,-80.5 613.62,4 -4,4"/>
<!-- Node1 -->
<g id="node1" class="node">
<title>Node1</title>
<g id="a_node1"><a xlink:title=" ">
<polygon fill="#bfbfbf" stroke="black" points="240,-56.75 240,-76 340,-76 340,-56.75 240,-56.75"/>
<text xml:space="preserve" text-anchor="middle" x="290" y="-62.5" font-family="Helvetica,sans-Serif" font-size="10.00">ElseInstruction.hpp</text>
</a>
</g>
</g>
<!-- Node2 -->
<g id="node2" class="node">
<title>Node2</title>
<g id="a_node2"><a xlink:href="_else_instruction_8cpp.html" target="_top" xlink:title=" ">
<polygon fill="white" stroke="black" points="0,-0.5 0,-19.75 100,-19.75 100,-0.5 0,-0.5"/>
<text xml:space="preserve" text-anchor="middle" x="50" y="-6.25" font-family="Helvetica,sans-Serif" font-size="10.00">ElseInstruction.cpp</text>
</a>
</g>
</g>
<!-- Node1&#45;&gt;Node2 -->
<g id="edge1" class="edge">
<title>Node1&#45;&gt;Node2</title>
<path fill="none" stroke="midnightblue" d="M238.7,-53.78C194.35,-43.75 131.1,-29.46 90.3,-20.23"/>
<polygon fill="midnightblue" stroke="midnightblue" points="237.83,-57.17 248.35,-55.96 239.37,-50.34 237.83,-57.17"/>
</g>
<!-- Node3 -->
<g id="node3" class="node">
<title>Node3</title>
<g id="a_node3"><a xlink:href="_then_instruction_8cpp.html" target="_top" xlink:title=" ">
<polygon fill="white" stroke="black" points="117.88,-0.5 117.88,-19.75 220.12,-19.75 220.12,-0.5 117.88,-0.5"/>
<text xml:space="preserve" text-anchor="middle" x="169" y="-6.25" font-family="Helvetica,sans-Serif" font-size="10.00">ThenInstruction.cpp</text>
</a>
</g>
</g>
<!-- Node1&#45;&gt;Node3 -->
<g id="edge2" class="edge">
<title>Node1&#45;&gt;Node3</title>
<path fill="none" stroke="midnightblue" d="M259.3,-51.61C237.36,-41.78 208.45,-28.81 189.32,-20.23"/>
<polygon fill="midnightblue" stroke="midnightblue" points="257.81,-54.78 268.37,-55.68 260.67,-48.39 257.81,-54.78"/>
</g>
<!-- Node4 -->
<g id="node4" class="node">
<title>Node4</title>
<g id="a_node4"><a xlink:href="_language_parser_8cpp.html" target="_top" xlink:title=" ">
<polygon fill="white" stroke="black" points="237.75,-0.5 237.75,-19.75 342.25,-19.75 342.25,-0.5 237.75,-0.5"/>
<text xml:space="preserve" text-anchor="middle" x="290" y="-6.25" font-family="Helvetica,sans-Serif" font-size="10.00">LanguageParser.cpp</text>
</a>
</g>
</g>
<!-- Node1&#45;&gt;Node4 -->
<g id="edge3" class="edge">
<title>Node1&#45;&gt;Node4</title>
<path fill="none" stroke="midnightblue" d="M290,-45.19C290,-36.48 290,-26.74 290,-19.92"/>
<polygon fill="midnightblue" stroke="midnightblue" points="286.5,-44.9 290,-54.9 293.5,-44.9 286.5,-44.9"/>
</g>
<!-- Node5 -->
<g id="node5" class="node">
<title>Node5</title>
<g id="a_node5"><a xlink:href="_instruction_parser_8cpp.html" target="_top" xlink:title=" ">
<polygon fill="white" stroke="black" points="359.88,-0.5 359.88,-19.75 468.12,-19.75 468.12,-0.5 359.88,-0.5"/>
<text xml:space="preserve" text-anchor="middle" x="414" y="-6.25" font-family="Helvetica,sans-Serif" font-size="10.00">InstructionParser.cpp</text>
</a>
</g>
</g>
<!-- Node1&#45;&gt;Node5 -->
<g id="edge4" class="edge">
<title>Node1&#45;&gt;Node5</title>
<path fill="none" stroke="midnightblue" d="M321.15,-51.75C343.67,-41.89 373.48,-28.85 393.18,-20.23"/>
<polygon fill="midnightblue" stroke="midnightblue" points="319.9,-48.47 312.14,-55.69 322.71,-54.89 319.9,-48.47"/>
</g>
<!-- Node6 -->
<g id="node6" class="node">
<title>Node6</title>
<g id="a_node6"><a xlink:href="_virtual_function_table_8cpp.html" target="_top" xlink:title=" ">
<polygon fill="white" stroke="black" points="486.38,-0.5 486.38,-19.75 609.62,-19.75 609.62,-0.5 486.38,-0.5"/>
<text xml:space="preserve" text-anchor="middle" x="548" y="-6.25" font-family="Helvetica,sans-Serif" font-size="10.00">VirtualFunctionTable.cpp</text>
</a>
</g>
</g>
<!-- Node1&#45;&gt;Node6 -->
<g id="edge5" class="edge">
<title>Node1&#45;&gt;Node6</title>
<path fill="none" stroke="midnightblue" d="M344.24,-53.97C391.96,-43.94 460.53,-29.52 504.68,-20.23"/>
<polygon fill="midnightblue" stroke="midnightblue" points="343.73,-50.5 334.66,-55.98 345.17,-57.35 343.73,-50.5"/>
</g>
</g>
</svg>
