<?xml version="1.0" encoding="UTF-8" standalone="no"?>
<!DOCTYPE svg PUBLIC "-//W3C//DTD SVG 1.1//EN"
 "http://www.w3.org/Graphics/SVG/1.1/DTD/svg11.dtd">
<!-- Generated by graphviz version 13.1.0 (20250701.0955)
 -->
<!-- Title: Envelope.hpp Pages: 1 -->
<!--zoomable 197 -->
<svg id="main" version="1.1" xmlns="http://www.w3.org/2000/svg" xmlns:xlink="http://www.w3.org/1999/xlink" xml:space="preserve" onload="init(evt)">
<style type="text/css"><![CDATA[
.edge:hover path { stroke: red; }
.edge:hover polygon { stroke: red; fill: red; }
]]></style>
<script type="text/javascript"><![CDATA[
var edges = document.getElementsByTagName('g');
if (edges && edges.length) {
  for (var i=0;i<edges.length;i++) {
    if (edges[i].id.substr(0,4)=='edge') {
      edges[i].setAttribute('class','edge');
    }
  }
}
]]></script>
        <defs>
                <circle id="rim" cx="0" cy="0" r="7"/>
                <circle id="rim2" cx="0" cy="0" r="3.5"/>
                <g id="zoomPlus">
                        <use xlink:href="#rim" fill="#404040">
                                <set attributeName="fill" to="#808080" begin="zoomplus.mouseover" end="zoomplus.mouseout"/>
                        </use>
                        <path d="M-4,0h8M0,-4v8" fill="none" stroke="white" stroke-width="1.5" pointer-events="none"/>
                </g>
                <g id="zoomMin">
                        <use xlink:href="#rim" fill="#404040">
                                <set attributeName="fill" to="#808080" begin="zoomminus.mouseover" end="zoomminus.mouseout"/>
                        </use>
                        <path d="M-4,0h8" fill="none" stroke="white" stroke-width="1.5" pointer-events="none"/>
                </g>
                <g id="dirArrow">
                        <path fill="none" stroke="white" stroke-width="1.5" d="M0,-3.0v7 M-2.5,-0.5L0,-3.0L2.5,-0.5"/>
                </g>
               <g id="resetDef">
                       <use xlink:href="#rim2" fill="#404040">
                               <set attributeName="fill" to="#808080" begin="reset.mouseover" end="reset.mouseout"/>
                       </use>
               </g>
        </defs>

<script type="text/javascript">
var viewWidth = 5887;
var viewHeight = 197;
var sectionId = 'dynsection-0';
</script>
<script xlink:href="svgpan.js"/>
<svg id="graph" class="graph">
<g id="viewport">
<title>Envelope.hpp</title>
<polygon fill="white" stroke="none" points="-4,4 -4,-193 5883.1,-193 5883.1,4 -4,4"/>
<!-- Node1 -->
<g id="node1" class="node">
<title>Node1</title>
<g id="a_node1"><a xlink:title=" ">
<polygon fill="#bfbfbf" stroke="black" points="97.98,-169.25 97.98,-188.5 173.23,-188.5 173.23,-169.25 97.98,-169.25"/>
<text xml:space="preserve" text-anchor="middle" x="135.6" y="-175" font-family="Helvetica,sans-Serif" font-size="10.00">Envelope.hpp</text>
</a>
</g>
</g>
<!-- Node2 -->
<g id="node2" class="node">
<title>Node2</title>
<g id="a_node2"><a xlink:href="_setup_8cpp.html" target="_top" xlink:title=" ">
<polygon fill="white" stroke="black" points="19.48,-56.75 19.48,-76 79.73,-76 79.73,-56.75 19.48,-56.75"/>
<text xml:space="preserve" text-anchor="middle" x="49.6" y="-62.5" font-family="Helvetica,sans-Serif" font-size="10.00">Setup.cpp</text>
</a>
</g>
</g>
<!-- Node1&#45;&gt;Node2 -->
<g id="edge1" class="edge">
<title>Node1&#45;&gt;Node2</title>
<path fill="none" stroke="midnightblue" d="M121.72,-160.04C103.07,-136.07 70.62,-94.38 56.5,-76.23"/>
<polygon fill="midnightblue" stroke="midnightblue" points="118.73,-161.9 127.64,-167.64 124.26,-157.6 118.73,-161.9"/>
</g>
<!-- Node3 -->
<g id="node3" class="node">
<title>Node3</title>
<g id="a_node3"><a xlink:href="_envelope_8cpp.html" target="_top" xlink:title=" ">
<polygon fill="white" stroke="black" points="97.98,-56.75 97.98,-76 173.23,-76 173.23,-56.75 97.98,-56.75"/>
<text xml:space="preserve" text-anchor="middle" x="135.6" y="-62.5" font-family="Helvetica,sans-Serif" font-size="10.00">Envelope.cpp</text>
</a>
</g>
</g>
<!-- Node1&#45;&gt;Node3 -->
<g id="edge2" class="edge">
<title>Node1&#45;&gt;Node3</title>
<path fill="none" stroke="midnightblue" d="M135.6,-157.42C135.6,-133.14 135.6,-93.73 135.6,-76.23"/>
<polygon fill="midnightblue" stroke="midnightblue" points="132.1,-157.32 135.6,-167.32 139.1,-157.32 132.1,-157.32"/>
</g>
<!-- Node4 -->
<g id="node4" class="node">
<title>Node4</title>
<g id="a_node4"><a xlink:href="_rexx_core_8h.html" target="_top" xlink:title=" ">
<polygon fill="white" stroke="red" points="2892.35,-113 2892.35,-132.25 2960.85,-132.25 2960.85,-113 2892.35,-113"/>
<text xml:space="preserve" text-anchor="middle" x="2926.6" y="-118.75" font-family="Helvetica,sans-Serif" font-size="10.00">RexxCore.h</text>
</a>
</g>
</g>
<!-- Node1&#45;&gt;Node4 -->
<g id="edge3" class="edge">
<title>Node1&#45;&gt;Node4</title>
<path fill="none" stroke="midnightblue" d="M184.84,-176.92C531.51,-170.18 2600.01,-129.97 2892.28,-124.29"/>
<polygon fill="midnightblue" stroke="midnightblue" points="184.91,-173.42 174.98,-177.11 185.05,-180.41 184.91,-173.42"/>
</g>
<!-- Node42 -->
<g id="node39" class="node">
<title>Node42</title>
<g id="a_node39"><a xlink:href="_virtual_function_table_8cpp.html" target="_top" xlink:title=" ">
<polygon fill="white" stroke="black" points="1458.98,-0.5 1458.98,-19.75 1582.23,-19.75 1582.23,-0.5 1458.98,-0.5"/>
<text xml:space="preserve" text-anchor="middle" x="1520.6" y="-6.25" font-family="Helvetica,sans-Serif" font-size="10.00">VirtualFunctionTable.cpp</text>
</a>
</g>
</g>
<!-- Node1&#45;&gt;Node42 -->
<g id="edge55" class="edge">
<title>Node1&#45;&gt;Node42</title>
<path fill="none" stroke="midnightblue" d="M102.73,-164.11C53.83,-141.84 -28.31,-96.35 10.6,-56.25 36.23,-29.84 1178.17,-15.05 1458.81,-11.81"/>
<polygon fill="midnightblue" stroke="midnightblue" points="101.24,-167.28 111.8,-168.14 104.08,-160.88 101.24,-167.28"/>
</g>
<!-- Node87 -->
<g id="node50" class="node">
<title>Node87</title>
<g id="a_node50"><a xlink:href="_c_p_p_code_8cpp.html" target="_top" xlink:title=" ">
<polygon fill="white" stroke="black" points="5800.1,-56.75 5800.1,-76 5879.1,-76 5879.1,-56.75 5800.1,-56.75"/>
<text xml:space="preserve" text-anchor="middle" x="5839.6" y="-62.5" font-family="Helvetica,sans-Serif" font-size="10.00">CPPCode.cpp</text>
</a>
</g>
</g>
<!-- Node1&#45;&gt;Node87 -->
<g id="edge54" class="edge">
<title>Node1&#45;&gt;Node87</title>
<path fill="none" stroke="midnightblue" d="M184.87,-177.5C706.23,-173.43 5201.83,-136.78 5790.6,-76.5 5793.62,-76.19 5796.72,-75.8 5799.84,-75.35"/>
<polygon fill="midnightblue" stroke="midnightblue" points="185.12,-174 175.15,-177.57 185.18,-180.99 185.12,-174"/>
</g>
<!-- Node4&#45;&gt;Node2 -->
<g id="edge50" class="edge">
<title>Node4&#45;&gt;Node2</title>
<path fill="none" stroke="midnightblue" d="M2880.82,-121.49C2537.89,-120.39 376.63,-112.07 88.6,-76.5 85.84,-76.16 82.99,-75.7 80.15,-75.17"/>
<polygon fill="midnightblue" stroke="midnightblue" points="2880.72,-124.99 2890.73,-121.52 2880.74,-117.99 2880.72,-124.99"/>
</g>
<!-- Node4&#45;&gt;Node3 -->
<g id="edge51" class="edge">
<title>Node4&#45;&gt;Node3</title>
<path fill="none" stroke="midnightblue" d="M2880.52,-121.36C2543.26,-119.32 461.18,-105.61 182.6,-76.5 179.63,-76.19 176.56,-75.79 173.48,-75.32"/>
<polygon fill="midnightblue" stroke="midnightblue" points="2880.46,-124.85 2890.48,-121.41 2880.5,-117.85 2880.46,-124.85"/>
</g>
<!-- Node5 -->
<g id="node5" class="node">
<title>Node5</title>
<g id="a_node5"><a xlink:href="_do_block_8cpp.html" target="_top" xlink:title=" ">
<polygon fill="white" stroke="black" points="4268.48,-56.75 4268.48,-76 4340.73,-76 4340.73,-56.75 4268.48,-56.75"/>
<text xml:space="preserve" text-anchor="middle" x="4304.6" y="-62.5" font-family="Helvetica,sans-Serif" font-size="10.00">DoBlock.cpp</text>
</a>
</g>
</g>
<!-- Node4&#45;&gt;Node5 -->
<g id="edge4" class="edge">
<title>Node4&#45;&gt;Node5</title>
<path fill="none" stroke="midnightblue" d="M2972.71,-121.09C3177.07,-118.58 4002.41,-106.72 4259.6,-76.5 4262.45,-76.17 4265.39,-75.74 4268.34,-75.27"/>
<polygon fill="midnightblue" stroke="midnightblue" points="2972.71,-117.59 2962.76,-121.21 2972.8,-124.59 2972.71,-117.59"/>
</g>
<!-- Node6 -->
<g id="node6" class="node">
<title>Node6</title>
<g id="a_node6"><a xlink:href="_trace_instruction_8cpp.html" target="_top" xlink:title=" ">
<polygon fill="white" stroke="black" points="4358.98,-56.75 4358.98,-76 4464.23,-76 4464.23,-56.75 4358.98,-56.75"/>
<text xml:space="preserve" text-anchor="middle" x="4411.6" y="-62.5" font-family="Helvetica,sans-Serif" font-size="10.00">TraceInstruction.cpp</text>
</a>
</g>
</g>
<!-- Node4&#45;&gt;Node6 -->
<g id="edge5" class="edge">
<title>Node4&#45;&gt;Node6</title>
<path fill="none" stroke="midnightblue" d="M2972.58,-122.08C3150.34,-123.41 3809.61,-124.64 4349.6,-76.5 4352.53,-76.24 4355.53,-75.93 4358.55,-75.59"/>
<polygon fill="midnightblue" stroke="midnightblue" points="2972.64,-118.58 2962.61,-122 2972.58,-125.58 2972.64,-118.58"/>
</g>
<!-- Node7 -->
<g id="node7" class="node">
<title>Node7</title>
<g id="a_node7"><a xlink:href="_say_instruction_8cpp.html" target="_top" xlink:title=" ">
<polygon fill="white" stroke="black" points="4482.73,-56.75 4482.73,-76 4580.48,-76 4580.48,-56.75 4482.73,-56.75"/>
<text xml:space="preserve" text-anchor="middle" x="4531.6" y="-62.5" font-family="Helvetica,sans-Serif" font-size="10.00">SayInstruction.cpp</text>
</a>
</g>
</g>
<!-- Node4&#45;&gt;Node7 -->
<g id="edge6" class="edge">
<title>Node4&#45;&gt;Node7</title>
<path fill="none" stroke="midnightblue" d="M2972.3,-121.08C3195.33,-118.27 4171.01,-104.6 4473.6,-76.5 4476.44,-76.24 4479.36,-75.92 4482.3,-75.57"/>
<polygon fill="midnightblue" stroke="midnightblue" points="2972.53,-117.57 2962.57,-121.2 2972.62,-124.57 2972.53,-117.57"/>
</g>
<!-- Node8 -->
<g id="node8" class="node">
<title>Node8</title>
<g id="a_node8"><a xlink:href="_otherwise_instruction_8cpp.html" target="_top" xlink:title=" ">
<polygon fill="white" stroke="black" points="4598.23,-56.75 4598.23,-76 4722.98,-76 4722.98,-56.75 4598.23,-56.75"/>
<text xml:space="preserve" text-anchor="middle" x="4660.6" y="-62.5" font-family="Helvetica,sans-Serif" font-size="10.00">OtherwiseInstruction.cpp</text>
</a>
</g>
</g>
<!-- Node4&#45;&gt;Node8 -->
<g id="edge7" class="edge">
<title>Node4&#45;&gt;Node8</title>
<path fill="none" stroke="midnightblue" d="M2972.67,-121C3206.36,-117.75 4262.52,-101.89 4589.6,-76.5 4592.33,-76.29 4595.11,-76.05 4597.92,-75.78"/>
<polygon fill="midnightblue" stroke="midnightblue" points="2972.69,-117.5 2962.74,-121.14 2972.79,-124.5 2972.69,-117.5"/>
</g>
<!-- Node9 -->
<g id="node9" class="node">
<title>Node9</title>
<g id="a_node9"><a xlink:href="_else_instruction_8cpp.html" target="_top" xlink:title=" ">
<polygon fill="white" stroke="black" points="4740.6,-56.75 4740.6,-76 4840.6,-76 4840.6,-56.75 4740.6,-56.75"/>
<text xml:space="preserve" text-anchor="middle" x="4790.6" y="-62.5" font-family="Helvetica,sans-Serif" font-size="10.00">ElseInstruction.cpp</text>
</a>
</g>
</g>
<!-- Node4&#45;&gt;Node9 -->
<g id="edge8" class="edge">
<title>Node4&#45;&gt;Node9</title>
<path fill="none" stroke="midnightblue" d="M2972.64,-121.28C3218.1,-119.3 4375.07,-108.39 4731.6,-76.5 4734.39,-76.25 4737.25,-75.95 4740.12,-75.62"/>
<polygon fill="midnightblue" stroke="midnightblue" points="2972.8,-117.77 2962.83,-121.35 2972.86,-124.77 2972.8,-117.77"/>
</g>
<!-- Node10 -->
<g id="node10" class="node">
<title>Node10</title>
<g id="a_node10"><a xlink:href="_guard_instruction-trace_8cpp.html" target="_top" xlink:title=" ">
<polygon fill="white" stroke="black" points="4858.85,-56.75 4858.85,-76 4990.35,-76 4990.35,-56.75 4858.85,-56.75"/>
<text xml:space="preserve" text-anchor="middle" x="4924.6" y="-62.5" font-family="Helvetica,sans-Serif" font-size="10.00">GuardInstruction&#45;trace.cpp</text>
</a>
</g>
</g>
<!-- Node4&#45;&gt;Node10 -->
<g id="edge9" class="edge">
<title>Node4&#45;&gt;Node10</title>
<path fill="none" stroke="midnightblue" d="M2972.74,-121.15C3227.84,-118.46 4467.84,-104.14 4849.6,-76.5 4852.48,-76.29 4855.42,-76.05 4858.38,-75.79"/>
<polygon fill="midnightblue" stroke="midnightblue" points="2972.82,-117.65 2962.86,-121.26 2972.9,-124.65 2972.82,-117.65"/>
</g>
<!-- Node11 -->
<g id="node11" class="node">
<title>Node11</title>
<g id="a_node11"><a xlink:href="_signal_instruction_8cpp.html" target="_top" xlink:title=" ">
<polygon fill="white" stroke="black" points="5008.85,-56.75 5008.85,-76 5116.35,-76 5116.35,-56.75 5008.85,-56.75"/>
<text xml:space="preserve" text-anchor="middle" x="5062.6" y="-62.5" font-family="Helvetica,sans-Serif" font-size="10.00">SignalInstruction.cpp</text>
</a>
</g>
</g>
<!-- Node4&#45;&gt;Node11 -->
<g id="edge10" class="edge">
<title>Node4&#45;&gt;Node11</title>
<path fill="none" stroke="midnightblue" d="M2972.47,-121.39C3238.58,-119.91 4586.44,-110.79 4999.6,-76.5 5002.47,-76.26 5005.4,-75.98 5008.35,-75.66"/>
<polygon fill="midnightblue" stroke="midnightblue" points="2972.47,-117.89 2962.49,-121.44 2972.51,-124.89 2972.47,-117.89"/>
</g>
<!-- Node12 -->
<g id="node12" class="node">
<title>Node12</title>
<g id="a_node12"><a xlink:href="_numeric_instruction_8cpp.html" target="_top" xlink:title=" ">
<polygon fill="white" stroke="black" points="5133.98,-56.75 5133.98,-76 5251.23,-76 5251.23,-56.75 5133.98,-56.75"/>
<text xml:space="preserve" text-anchor="middle" x="5192.6" y="-62.5" font-family="Helvetica,sans-Serif" font-size="10.00">NumericInstruction.cpp</text>
</a>
</g>
</g>
<!-- Node4&#45;&gt;Node12 -->
<g id="edge11" class="edge">
<title>Node4&#45;&gt;Node12</title>
<path fill="none" stroke="midnightblue" d="M2972.2,-121.4C3247.01,-119.96 4685.56,-110.87 5125.6,-76.5 5128.29,-76.29 5131.04,-76.04 5133.82,-75.77"/>
<polygon fill="midnightblue" stroke="midnightblue" points="2972.58,-117.9 2962.6,-121.45 2972.62,-124.9 2972.58,-117.9"/>
</g>
<!-- Node13 -->
<g id="node13" class="node">
<title>Node13</title>
<g id="a_node13"><a xlink:href="_call_instruction_8cpp.html" target="_top" xlink:title=" ">
<polygon fill="white" stroke="black" points="5425.73,-56.75 5425.73,-76 5523.48,-76 5523.48,-56.75 5425.73,-56.75"/>
<text xml:space="preserve" text-anchor="middle" x="5474.6" y="-62.5" font-family="Helvetica,sans-Serif" font-size="10.00">CallInstruction.cpp</text>
</a>
</g>
</g>
<!-- Node4&#45;&gt;Node13 -->
<g id="edge12" class="edge">
<title>Node4&#45;&gt;Node13</title>
<path fill="none" stroke="midnightblue" d="M2972.4,-121.58C3268.1,-121.18 4911.33,-117.11 5411.6,-76.5 5416.12,-76.13 5420.8,-75.65 5425.49,-75.1"/>
<polygon fill="midnightblue" stroke="midnightblue" points="2972.78,-118.08 2962.79,-121.59 2972.79,-125.08 2972.78,-118.08"/>
</g>
<!-- Node14 -->
<g id="node14" class="node">
<title>Node14</title>
<g id="a_node14"><a xlink:href="_interpret_instruction_8cpp.html" target="_top" xlink:title=" ">
<polygon fill="white" stroke="black" points="5541.35,-56.75 5541.35,-76 5657.85,-76 5657.85,-56.75 5541.35,-56.75"/>
<text xml:space="preserve" text-anchor="middle" x="5599.6" y="-62.5" font-family="Helvetica,sans-Serif" font-size="10.00">InterpretInstruction.cpp</text>
</a>
</g>
</g>
<!-- Node4&#45;&gt;Node14 -->
<g id="edge13" class="edge">
<title>Node4&#45;&gt;Node14</title>
<path fill="none" stroke="midnightblue" d="M2972.67,-121.57C3277.38,-121.11 5006.67,-116.73 5532.6,-76.5 5535.41,-76.29 5538.28,-76.03 5541.18,-75.75"/>
<polygon fill="midnightblue" stroke="midnightblue" points="2972.73,-118.07 2962.74,-121.59 2972.74,-125.07 2972.73,-118.07"/>
</g>
<!-- Node15 -->
<g id="node15" class="node">
<title>Node15</title>
<g id="a_node15"><a xlink:href="_reply_instruction_8cpp.html" target="_top" xlink:title=" ">
<polygon fill="white" stroke="black" points="5675.6,-56.75 5675.6,-76 5781.6,-76 5781.6,-56.75 5675.6,-56.75"/>
<text xml:space="preserve" text-anchor="middle" x="5728.6" y="-62.5" font-family="Helvetica,sans-Serif" font-size="10.00">ReplyInstruction.cpp</text>
</a>
</g>
</g>
<!-- Node4&#45;&gt;Node15 -->
<g id="edge14" class="edge">
<title>Node4&#45;&gt;Node15</title>
<path fill="none" stroke="midnightblue" d="M2972.61,-121.23C3309.29,-118.27 5387.84,-99.21 5666.6,-76.5 5669.42,-76.27 5672.31,-75.99 5675.22,-75.68"/>
<polygon fill="midnightblue" stroke="midnightblue" points="2972.63,-117.73 2962.67,-121.31 2972.7,-124.73 2972.63,-117.73"/>
</g>
<!-- Node16 -->
<g id="node16" class="node">
<title>Node16</title>
<g id="a_node16"><a xlink:href="_leave_instruction_8cpp.html" target="_top" xlink:title=" ">
<polygon fill="white" stroke="black" points="191.23,-56.75 191.23,-76 297.98,-76 297.98,-56.75 191.23,-56.75"/>
<text xml:space="preserve" text-anchor="middle" x="244.6" y="-62.5" font-family="Helvetica,sans-Serif" font-size="10.00">LeaveInstruction.cpp</text>
</a>
</g>
</g>
<!-- Node4&#45;&gt;Node16 -->
<g id="edge15" class="edge">
<title>Node4&#45;&gt;Node16</title>
<path fill="none" stroke="midnightblue" d="M2880.79,-121.63C2575.89,-121.54 836.26,-119.17 307.6,-76.5 304.52,-76.25 301.36,-75.95 298.17,-75.6"/>
<polygon fill="midnightblue" stroke="midnightblue" points="2880.72,-125.13 2890.72,-121.63 2880.72,-118.13 2880.72,-125.13"/>
</g>
<!-- Node17 -->
<g id="node17" class="node">
<title>Node17</title>
<g id="a_node17"><a xlink:href="_message_instruction_8cpp.html" target="_top" xlink:title=" ">
<polygon fill="white" stroke="black" points="316.48,-56.75 316.48,-76 436.73,-76 436.73,-56.75 316.48,-56.75"/>
<text xml:space="preserve" text-anchor="middle" x="376.6" y="-62.5" font-family="Helvetica,sans-Serif" font-size="10.00">MessageInstruction.cpp</text>
</a>
</g>
</g>
<!-- Node4&#45;&gt;Node17 -->
<g id="edge16" class="edge">
<title>Node4&#45;&gt;Node17</title>
<path fill="none" stroke="midnightblue" d="M2880.89,-121.5C2585.7,-120.6 945.31,-113.97 445.6,-76.5 442.83,-76.29 440,-76.05 437.14,-75.78"/>
<polygon fill="midnightblue" stroke="midnightblue" points="2880.47,-125 2890.48,-121.53 2880.49,-118 2880.47,-125"/>
</g>
<!-- Node18 -->
<g id="node18" class="node">
<title>Node18</title>
<g id="a_node18"><a xlink:href="_assignment_instruction_8cpp.html" target="_top" xlink:title=" ">
<polygon fill="white" stroke="black" points="454.48,-56.75 454.48,-76 586.73,-76 586.73,-56.75 454.48,-56.75"/>
<text xml:space="preserve" text-anchor="middle" x="520.6" y="-62.5" font-family="Helvetica,sans-Serif" font-size="10.00">AssignmentInstruction.cpp</text>
</a>
</g>
</g>
<!-- Node4&#45;&gt;Node18 -->
<g id="edge17" class="edge">
<title>Node4&#45;&gt;Node18</title>
<path fill="none" stroke="midnightblue" d="M2881,-121.38C2596.66,-119.73 1063.79,-109.43 595.6,-76.5 592.86,-76.31 590.05,-76.08 587.23,-75.84"/>
<polygon fill="midnightblue" stroke="midnightblue" points="2880.57,-124.87 2890.59,-121.43 2880.61,-117.87 2880.57,-124.87"/>
</g>
<!-- Node19 -->
<g id="node19" class="node">
<title>Node19</title>
<g id="a_node19"><a xlink:href="_rexx_instruction_8cpp.html" target="_top" xlink:title=" ">
<polygon fill="white" stroke="black" points="604.73,-56.75 604.73,-76 708.48,-76 708.48,-56.75 604.73,-56.75"/>
<text xml:space="preserve" text-anchor="middle" x="656.6" y="-62.5" font-family="Helvetica,sans-Serif" font-size="10.00">RexxInstruction.cpp</text>
</a>
</g>
</g>
<!-- Node4&#45;&gt;Node19 -->
<g id="edge18" class="edge">
<title>Node4&#45;&gt;Node19</title>
<path fill="none" stroke="midnightblue" d="M2880.79,-121.49C2604.69,-120.55 1159.41,-113.9 717.6,-76.5 714.72,-76.26 711.77,-75.96 708.79,-75.63"/>
<polygon fill="midnightblue" stroke="midnightblue" points="2880.44,-124.99 2890.45,-121.52 2880.46,-117.99 2880.44,-124.99"/>
</g>
<!-- Node20 -->
<g id="node20" class="node">
<title>Node20</title>
<g id="a_node20"><a xlink:href="_select_instruction_8cpp.html" target="_top" xlink:title=" ">
<polygon fill="white" stroke="black" points="726.48,-56.75 726.48,-76 834.73,-76 834.73,-56.75 726.48,-56.75"/>
<text xml:space="preserve" text-anchor="middle" x="780.6" y="-62.5" font-family="Helvetica,sans-Serif" font-size="10.00">SelectInstruction.cpp</text>
</a>
</g>
</g>
<!-- Node4&#45;&gt;Node20 -->
<g id="edge19" class="edge">
<title>Node4&#45;&gt;Node20</title>
<path fill="none" stroke="midnightblue" d="M2880.91,-121.4C2614.46,-119.94 1258.96,-110.95 843.6,-76.5 840.85,-76.27 838.03,-76 835.19,-75.7"/>
<polygon fill="midnightblue" stroke="midnightblue" points="2880.53,-124.89 2890.55,-121.45 2880.57,-117.89 2880.53,-124.89"/>
</g>
<!-- Node21 -->
<g id="node21" class="node">
<title>Node21</title>
<g id="a_node21"><a xlink:href="_return_instruction_8cpp.html" target="_top" xlink:title=" ">
<polygon fill="white" stroke="black" points="852.73,-56.75 852.73,-76 962.48,-76 962.48,-56.75 852.73,-56.75"/>
<text xml:space="preserve" text-anchor="middle" x="907.6" y="-62.5" font-family="Helvetica,sans-Serif" font-size="10.00">ReturnInstruction.cpp</text>
</a>
</g>
</g>
<!-- Node4&#45;&gt;Node21 -->
<g id="edge20" class="edge">
<title>Node4&#45;&gt;Node21</title>
<path fill="none" stroke="midnightblue" d="M2880.52,-121.3C2622.99,-119.4 1359.83,-108.54 971.6,-76.5 968.69,-76.26 965.72,-75.97 962.71,-75.66"/>
<polygon fill="midnightblue" stroke="midnightblue" points="2880.47,-124.8 2890.5,-121.38 2880.52,-117.8 2880.47,-124.8"/>
</g>
<!-- Node22 -->
<g id="node22" class="node">
<title>Node22</title>
<g id="a_node22"><a xlink:href="_address_instruction_8cpp.html" target="_top" xlink:title=" ">
<polygon fill="white" stroke="black" points="980.35,-56.75 980.35,-76 1096.85,-76 1096.85,-56.75 980.35,-56.75"/>
<text xml:space="preserve" text-anchor="middle" x="1038.6" y="-62.5" font-family="Helvetica,sans-Serif" font-size="10.00">AddressInstruction.cpp</text>
</a>
</g>
</g>
<!-- Node4&#45;&gt;Node22 -->
<g id="edge21" class="edge">
<title>Node4&#45;&gt;Node22</title>
<path fill="none" stroke="midnightblue" d="M2880.6,-121.16C2634.01,-118.58 1466.6,-105.03 1106.6,-76.5 1103.52,-76.26 1100.35,-75.97 1097.17,-75.64"/>
<polygon fill="midnightblue" stroke="midnightblue" points="2880.41,-124.66 2890.45,-121.26 2880.49,-117.66 2880.41,-124.66"/>
</g>
<!-- Node23 -->
<g id="node23" class="node">
<title>Node23</title>
<g id="a_node23"><a xlink:href="_procedure_instruction_8cpp.html" target="_top" xlink:title=" ">
<polygon fill="white" stroke="black" points="1115.23,-56.75 1115.23,-76 1239.98,-76 1239.98,-56.75 1115.23,-56.75"/>
<text xml:space="preserve" text-anchor="middle" x="1177.6" y="-62.5" font-family="Helvetica,sans-Serif" font-size="10.00">ProcedureInstruction.cpp</text>
</a>
</g>
</g>
<!-- Node4&#45;&gt;Node23 -->
<g id="edge22" class="edge">
<title>Node4&#45;&gt;Node23</title>
<path fill="none" stroke="midnightblue" d="M2880.51,-121.02C2645.48,-117.81 1578.81,-102.09 1248.6,-76.5 1245.88,-76.29 1243.1,-76.05 1240.29,-75.78"/>
<polygon fill="midnightblue" stroke="midnightblue" points="2880.44,-124.52 2890.49,-121.15 2880.54,-117.52 2880.44,-124.52"/>
</g>
<!-- Node24 -->
<g id="node24" class="node">
<title>Node24</title>
<g id="a_node24"><a xlink:href="_library_directive_8cpp.html" target="_top" xlink:title=" ">
<polygon fill="white" stroke="black" points="1258.1,-56.75 1258.1,-76 1361.1,-76 1361.1,-56.75 1258.1,-56.75"/>
<text xml:space="preserve" text-anchor="middle" x="1309.6" y="-62.5" font-family="Helvetica,sans-Serif" font-size="10.00">LibraryDirective.cpp</text>
</a>
</g>
</g>
<!-- Node4&#45;&gt;Node24 -->
<g id="edge23" class="edge">
<title>Node4&#45;&gt;Node24</title>
<path fill="none" stroke="midnightblue" d="M2880.61,-121.05C2656.15,-118.13 1674.22,-103.97 1369.6,-76.5 1366.98,-76.26 1364.3,-75.99 1361.59,-75.68"/>
<polygon fill="midnightblue" stroke="midnightblue" points="2880.37,-124.55 2890.41,-121.18 2880.46,-117.55 2880.37,-124.55"/>
</g>
<!-- Node25 -->
<g id="node25" class="node">
<title>Node25</title>
<g id="a_node25"><a xlink:href="_do_with_instruction_8cpp.html" target="_top" xlink:title=" ">
<polygon fill="white" stroke="black" points="1378.85,-56.75 1378.85,-76 1492.35,-76 1492.35,-56.75 1378.85,-56.75"/>
<text xml:space="preserve" text-anchor="middle" x="1435.6" y="-62.5" font-family="Helvetica,sans-Serif" font-size="10.00">DoWithInstruction.cpp</text>
</a>
</g>
</g>
<!-- Node4&#45;&gt;Node25 -->
<g id="edge24" class="edge">
<title>Node4&#45;&gt;Node25</title>
<path fill="none" stroke="midnightblue" d="M2880.45,-121.77C2702.72,-121.97 2045.58,-119.6 1506.6,-76.5 1502.02,-76.13 1497.28,-75.68 1492.52,-75.18"/>
<polygon fill="midnightblue" stroke="midnightblue" points="2880.43,-125.27 2890.42,-121.75 2880.42,-118.27 2880.43,-125.27"/>
</g>
<!-- Node26 -->
<g id="node26" class="node">
<title>Node26</title>
<g id="a_node26"><a xlink:href="_command_i_o_configuration_8cpp.html" target="_top" xlink:title=" ">
<polygon fill="white" stroke="black" points="5284.6,-0.5 5284.6,-19.75 5432.6,-19.75 5432.6,-0.5 5284.6,-0.5"/>
<text xml:space="preserve" text-anchor="middle" x="5358.6" y="-6.25" font-family="Helvetica,sans-Serif" font-size="10.00">CommandIOConfiguration.cpp</text>
</a>
</g>
</g>
<!-- Node4&#45;&gt;Node26 -->
<g id="edge25" class="edge">
<title>Node4&#45;&gt;Node26</title>
<path fill="none" stroke="midnightblue" d="M2972.05,-121.22C3305.11,-118.22 5356.68,-98.83 5378.6,-76.5 5393.9,-60.92 5376.88,-33.96 5366.09,-20.03"/>
<polygon fill="midnightblue" stroke="midnightblue" points="2972.42,-117.72 2962.45,-121.31 2972.48,-124.72 2972.42,-117.72"/>
</g>
<!-- Node27 -->
<g id="node27" class="node">
<title>Node27</title>
<g id="a_node27"><a xlink:href="_class_directive_8cpp.html" target="_top" xlink:title=" ">
<polygon fill="white" stroke="black" points="1548.98,-56.75 1548.98,-76 1648.23,-76 1648.23,-56.75 1548.98,-56.75"/>
<text xml:space="preserve" text-anchor="middle" x="1598.6" y="-62.5" font-family="Helvetica,sans-Serif" font-size="10.00">ClassDirective.cpp</text>
</a>
</g>
</g>
<!-- Node4&#45;&gt;Node27 -->
<g id="edge26" class="edge">
<title>Node4&#45;&gt;Node27</title>
<path fill="none" stroke="midnightblue" d="M2880.75,-121.94C2715.39,-122.68 2134.21,-121.67 1657.6,-76.5 1654.61,-76.22 1651.54,-75.88 1648.44,-75.51"/>
<polygon fill="midnightblue" stroke="midnightblue" points="2880.44,-125.45 2890.42,-121.9 2880.4,-118.45 2880.44,-125.45"/>
</g>
<!-- Node28 -->
<g id="node28" class="node">
<title>Node28</title>
<g id="a_node28"><a xlink:href="_end_instruction_8cpp.html" target="_top" xlink:title=" ">
<polygon fill="white" stroke="black" points="1666.73,-56.75 1666.73,-76 1764.48,-76 1764.48,-56.75 1666.73,-56.75"/>
<text xml:space="preserve" text-anchor="middle" x="1715.6" y="-62.5" font-family="Helvetica,sans-Serif" font-size="10.00">EndInstruction.cpp</text>
</a>
</g>
</g>
<!-- Node4&#45;&gt;Node28 -->
<g id="edge27" class="edge">
<title>Node4&#45;&gt;Node28</title>
<path fill="none" stroke="midnightblue" d="M2880.65,-121.75C2724.86,-121.77 2202.55,-118.49 1773.6,-76.5 1770.76,-76.22 1767.85,-75.9 1764.91,-75.53"/>
<polygon fill="midnightblue" stroke="midnightblue" points="2880.56,-125.25 2890.56,-121.75 2880.56,-118.25 2880.56,-125.25"/>
</g>
<!-- Node29 -->
<g id="node29" class="node">
<title>Node29</title>
<g id="a_node29"><a xlink:href="_guard_instruction_8cpp.html" target="_top" xlink:title=" ">
<polygon fill="white" stroke="black" points="1782.23,-56.75 1782.23,-76 1888.98,-76 1888.98,-56.75 1782.23,-56.75"/>
<text xml:space="preserve" text-anchor="middle" x="1835.6" y="-62.5" font-family="Helvetica,sans-Serif" font-size="10.00">GuardInstruction.cpp</text>
</a>
</g>
</g>
<!-- Node4&#45;&gt;Node29 -->
<g id="edge28" class="edge">
<title>Node4&#45;&gt;Node29</title>
<path fill="none" stroke="midnightblue" d="M2880.43,-121.24C2735.48,-119.68 2276.6,-112.08 1898.6,-76.5 1895.52,-76.21 1892.36,-75.87 1889.18,-75.51"/>
<polygon fill="midnightblue" stroke="midnightblue" points="2880.36,-124.74 2890.39,-121.34 2880.43,-117.74 2880.36,-124.74"/>
</g>
<!-- Node30 -->
<g id="node30" class="node">
<title>Node30</title>
<g id="a_node30"><a xlink:href="_address_with_instruction_8cpp.html" target="_top" xlink:title=" ">
<polygon fill="white" stroke="black" points="1907.23,-56.75 1907.23,-76 2043.98,-76 2043.98,-56.75 1907.23,-56.75"/>
<text xml:space="preserve" text-anchor="middle" x="1975.6" y="-62.5" font-family="Helvetica,sans-Serif" font-size="10.00">AddressWithInstruction.cpp</text>
</a>
</g>
</g>
<!-- Node4&#45;&gt;Node30 -->
<g id="edge29" class="edge">
<title>Node4&#45;&gt;Node30</title>
<path fill="none" stroke="midnightblue" d="M2880.54,-120.32C2750.35,-116.42 2368.61,-103.35 2052.6,-76.5 2049.92,-76.27 2047.19,-76.02 2044.43,-75.76"/>
<polygon fill="midnightblue" stroke="midnightblue" points="2880.38,-123.82 2890.47,-120.62 2880.58,-116.82 2880.38,-123.82"/>
</g>
<!-- Node31 -->
<g id="node31" class="node">
<title>Node31</title>
<g id="a_node31"><a xlink:href="_when_case_instruction_8cpp.html" target="_top" xlink:title=" ">
<polygon fill="white" stroke="black" points="2061.98,-56.75 2061.98,-76 2191.23,-76 2191.23,-56.75 2061.98,-56.75"/>
<text xml:space="preserve" text-anchor="middle" x="2126.6" y="-62.5" font-family="Helvetica,sans-Serif" font-size="10.00">WhenCaseInstruction.cpp</text>
</a>
</g>
</g>
<!-- Node4&#45;&gt;Node31 -->
<g id="edge30" class="edge">
<title>Node4&#45;&gt;Node31</title>
<path fill="none" stroke="midnightblue" d="M2880.71,-119.74C2765.92,-114.81 2457.16,-100.27 2200.6,-76.5 2197.64,-76.23 2194.61,-75.93 2191.55,-75.61"/>
<polygon fill="midnightblue" stroke="midnightblue" points="2880.51,-123.23 2890.65,-120.16 2880.8,-116.24 2880.51,-123.23"/>
</g>
<!-- Node32 -->
<g id="node32" class="node">
<title>Node32</title>
<g id="a_node32"><a xlink:href="_then_instruction_8cpp.html" target="_top" xlink:title=" ">
<polygon fill="white" stroke="black" points="2209.48,-56.75 2209.48,-76 2311.73,-76 2311.73,-56.75 2209.48,-56.75"/>
<text xml:space="preserve" text-anchor="middle" x="2260.6" y="-62.5" font-family="Helvetica,sans-Serif" font-size="10.00">ThenInstruction.cpp</text>
</a>
</g>
</g>
<!-- Node4&#45;&gt;Node32 -->
<g id="edge31" class="edge">
<title>Node4&#45;&gt;Node32</title>
<path fill="none" stroke="midnightblue" d="M2880.69,-119.41C2779.37,-114.26 2529.09,-100.08 2320.6,-76.5 2317.78,-76.18 2314.88,-75.83 2311.96,-75.45"/>
<polygon fill="midnightblue" stroke="midnightblue" points="2880.34,-122.9 2890.5,-119.9 2880.69,-115.9 2880.34,-122.9"/>
</g>
<!-- Node33 -->
<g id="node33" class="node">
<title>Node33</title>
<g id="a_node33"><a xlink:href="_base_do_instruction_8cpp.html" target="_top" xlink:title=" ">
<polygon fill="white" stroke="black" points="2329.73,-56.75 2329.73,-76 2445.48,-76 2445.48,-56.75 2329.73,-56.75"/>
<text xml:space="preserve" text-anchor="middle" x="2387.6" y="-62.5" font-family="Helvetica,sans-Serif" font-size="10.00">BaseDoInstruction.cpp</text>
</a>
</g>
</g>
<!-- Node4&#45;&gt;Node33 -->
<g id="edge32" class="edge">
<title>Node4&#45;&gt;Node33</title>
<path fill="none" stroke="midnightblue" d="M2880.68,-117.85C2796.22,-110.77 2610.6,-94.57 2454.6,-76.5 2451.69,-76.16 2448.7,-75.8 2445.69,-75.43"/>
<polygon fill="midnightblue" stroke="midnightblue" points="2880.15,-121.32 2890.4,-118.66 2880.73,-114.34 2880.15,-121.32"/>
</g>
<!-- Node34 -->
<g id="node34" class="node">
<title>Node34</title>
<g id="a_node34"><a xlink:href="_use_instruction_8cpp.html" target="_top" xlink:title=" ">
<polygon fill="white" stroke="black" points="2463.35,-56.75 2463.35,-76 2561.85,-76 2561.85,-56.75 2463.35,-56.75"/>
<text xml:space="preserve" text-anchor="middle" x="2512.6" y="-62.5" font-family="Helvetica,sans-Serif" font-size="10.00">UseInstruction.cpp</text>
</a>
</g>
</g>
<!-- Node4&#45;&gt;Node34 -->
<g id="edge33" class="edge">
<title>Node4&#45;&gt;Node34</title>
<path fill="none" stroke="midnightblue" d="M2880.82,-116.27C2812.99,-108.23 2681.83,-92.29 2570.6,-76.5 2567.88,-76.11 2565.08,-75.71 2562.26,-75.29"/>
<polygon fill="midnightblue" stroke="midnightblue" points="2880.1,-119.71 2890.44,-117.4 2880.92,-112.75 2880.1,-119.71"/>
</g>
<!-- Node35 -->
<g id="node35" class="node">
<title>Node35</title>
<g id="a_node35"><a xlink:href="_do_over_instruction_8cpp.html" target="_top" xlink:title=" ">
<polygon fill="white" stroke="black" points="2579.48,-56.75 2579.48,-76 2693.73,-76 2693.73,-56.75 2579.48,-56.75"/>
<text xml:space="preserve" text-anchor="middle" x="2636.6" y="-62.5" font-family="Helvetica,sans-Serif" font-size="10.00">DoOverInstruction.cpp</text>
</a>
</g>
</g>
<!-- Node4&#45;&gt;Node35 -->
<g id="edge34" class="edge">
<title>Node4&#45;&gt;Node35</title>
<path fill="none" stroke="midnightblue" d="M2880.76,-113.05C2827.46,-103.08 2739.85,-86.69 2685.35,-76.49"/>
<polygon fill="midnightblue" stroke="midnightblue" points="2879.95,-116.46 2890.42,-114.86 2881.24,-109.58 2879.95,-116.46"/>
</g>
<!-- Node36 -->
<g id="node36" class="node">
<title>Node36</title>
<g id="a_node36"><a xlink:href="_controlled_do_instruction_8cpp.html" target="_top" xlink:title=" ">
<polygon fill="white" stroke="black" points="2711.85,-56.75 2711.85,-76 2849.35,-76 2849.35,-56.75 2711.85,-56.75"/>
<text xml:space="preserve" text-anchor="middle" x="2780.6" y="-62.5" font-family="Helvetica,sans-Serif" font-size="10.00">ControlledDoInstruction.cpp</text>
</a>
</g>
</g>
<!-- Node4&#45;&gt;Node36 -->
<g id="edge35" class="edge">
<title>Node4&#45;&gt;Node36</title>
<path fill="none" stroke="midnightblue" d="M2891.72,-108.66C2865.01,-98.74 2828.84,-85.3 2805.12,-76.48"/>
<polygon fill="midnightblue" stroke="midnightblue" points="2890.15,-111.82 2900.75,-112.02 2892.59,-105.25 2890.15,-111.82"/>
</g>
<!-- Node37 -->
<g id="node37" class="node">
<title>Node37</title>
<g id="a_node37"><a xlink:href="_do_while_instruction_8cpp.html" target="_top" xlink:title=" ">
<polygon fill="white" stroke="black" points="2867.6,-56.75 2867.6,-76 2985.6,-76 2985.6,-56.75 2867.6,-56.75"/>
<text xml:space="preserve" text-anchor="middle" x="2926.6" y="-62.5" font-family="Helvetica,sans-Serif" font-size="10.00">DoWhileInstruction.cpp</text>
</a>
</g>
</g>
<!-- Node4&#45;&gt;Node37 -->
<g id="edge36" class="edge">
<title>Node4&#45;&gt;Node37</title>
<path fill="none" stroke="midnightblue" d="M2926.6,-101.44C2926.6,-92.73 2926.6,-82.99 2926.6,-76.17"/>
<polygon fill="midnightblue" stroke="midnightblue" points="2923.1,-101.15 2926.6,-111.15 2930.1,-101.15 2923.1,-101.15"/>
</g>
<!-- Node38 -->
<g id="node38" class="node">
<title>Node38</title>
<g id="a_node38"><a xlink:href="_input_redirector_8hpp.html" target="_top" xlink:title=" ">
<polygon fill="white" stroke="red" points="5269.23,-56.75 5269.23,-76 5369.98,-76 5369.98,-56.75 5269.23,-56.75"/>
<text xml:space="preserve" text-anchor="middle" x="5319.6" y="-62.5" font-family="Helvetica,sans-Serif" font-size="10.00">InputRedirector.hpp</text>
</a>
</g>
</g>
<!-- Node4&#45;&gt;Node38 -->
<g id="edge37" class="edge">
<title>Node4&#45;&gt;Node38</title>
<path fill="none" stroke="midnightblue" d="M2972.28,-121.58C3257.08,-121.16 4792.41,-117.05 5260.6,-76.5 5263.29,-76.27 5266.04,-75.99 5268.81,-75.67"/>
<polygon fill="midnightblue" stroke="midnightblue" points="2972.67,-118.08 2962.67,-121.59 2972.68,-125.08 2972.67,-118.08"/>
</g>
<!-- Node4&#45;&gt;Node42 -->
<g id="edge53" class="edge">
<title>Node4&#45;&gt;Node42</title>
<path fill="none" stroke="midnightblue" d="M2880.63,-121.63C2646.29,-121.49 1593.7,-118.51 1539.6,-76.5 1522.24,-63.02 1520.08,-34.62 1520.19,-20.09"/>
<polygon fill="midnightblue" stroke="midnightblue" points="2880.58,-125.13 2890.59,-121.64 2880.59,-118.13 2880.58,-125.13"/>
</g>
<!-- Node43 -->
<g id="node40" class="node">
<title>Node43</title>
<g id="a_node40"><a xlink:href="_parse_instruction_8cpp.html" target="_top" xlink:title=" ">
<polygon fill="white" stroke="black" points="3003.6,-56.75 3003.6,-76 3109.6,-76 3109.6,-56.75 3003.6,-56.75"/>
<text xml:space="preserve" text-anchor="middle" x="3056.6" y="-62.5" font-family="Helvetica,sans-Serif" font-size="10.00">ParseInstruction.cpp</text>
</a>
</g>
</g>
<!-- Node4&#45;&gt;Node43 -->
<g id="edge40" class="edge">
<title>Node4&#45;&gt;Node43</title>
<path fill="none" stroke="midnightblue" d="M2958.94,-108.13C2982.59,-98.26 3014.03,-85.14 3034.77,-76.48"/>
<polygon fill="midnightblue" stroke="midnightblue" points="2957.64,-104.88 2949.76,-111.96 2960.34,-111.34 2957.64,-104.88"/>
</g>
<!-- Node44 -->
<g id="node41" class="node">
<title>Node44</title>
<g id="a_node41"><a xlink:href="_queue_instruction_8cpp.html" target="_top" xlink:title=" ">
<polygon fill="white" stroke="black" points="3128.1,-56.75 3128.1,-76 3237.1,-76 3237.1,-56.75 3128.1,-56.75"/>
<text xml:space="preserve" text-anchor="middle" x="3182.6" y="-62.5" font-family="Helvetica,sans-Serif" font-size="10.00">QueueInstruction.cpp</text>
</a>
</g>
</g>
<!-- Node4&#45;&gt;Node44 -->
<g id="edge41" class="edge">
<title>Node4&#45;&gt;Node44</title>
<path fill="none" stroke="midnightblue" d="M2972.29,-111.94C3019.72,-101.89 3093.31,-86.3 3139.68,-76.47"/>
<polygon fill="midnightblue" stroke="midnightblue" points="2971.67,-108.5 2962.61,-113.99 2973.12,-115.35 2971.67,-108.5"/>
</g>
<!-- Node45 -->
<g id="node42" class="node">
<title>Node45</title>
<g id="a_node42"><a xlink:href="_do_count_instruction_8cpp.html" target="_top" xlink:title=" ">
<polygon fill="white" stroke="black" points="3254.85,-56.75 3254.85,-76 3374.35,-76 3374.35,-56.75 3254.85,-56.75"/>
<text xml:space="preserve" text-anchor="middle" x="3314.6" y="-62.5" font-family="Helvetica,sans-Serif" font-size="10.00">DoCountInstruction.cpp</text>
</a>
</g>
</g>
<!-- Node4&#45;&gt;Node45 -->
<g id="edge42" class="edge">
<title>Node4&#45;&gt;Node45</title>
<path fill="none" stroke="midnightblue" d="M2972.12,-115.26C3042.19,-105.46 3176.55,-86.68 3254.52,-75.78"/>
<polygon fill="midnightblue" stroke="midnightblue" points="2971.95,-111.75 2962.53,-116.6 2972.92,-118.68 2971.95,-111.75"/>
</g>
<!-- Node46 -->
<g id="node43" class="node">
<title>Node46</title>
<g id="a_node43"><a xlink:href="_use_arg_variable_ref_8cpp.html" target="_top" xlink:title=" ">
<polygon fill="white" stroke="black" points="3392.6,-56.75 3392.6,-76 3510.6,-76 3510.6,-56.75 3392.6,-56.75"/>
<text xml:space="preserve" text-anchor="middle" x="3451.6" y="-62.5" font-family="Helvetica,sans-Serif" font-size="10.00">UseArgVariableRef.cpp</text>
</a>
</g>
</g>
<!-- Node4&#45;&gt;Node46 -->
<g id="edge43" class="edge">
<title>Node4&#45;&gt;Node46</title>
<path fill="none" stroke="midnightblue" d="M2972.55,-117.62C3054.99,-110.33 3233.43,-93.98 3383.6,-76.5 3386.44,-76.17 3389.35,-75.82 3392.28,-75.46"/>
<polygon fill="midnightblue" stroke="midnightblue" points="2972.49,-114.12 2962.84,-118.48 2973.11,-121.09 2972.49,-114.12"/>
</g>
<!-- Node47 -->
<g id="node44" class="node">
<title>Node47</title>
<g id="a_node44"><a xlink:href="_raise_instruction_8cpp.html" target="_top" xlink:title=" ">
<polygon fill="white" stroke="black" points="3528.6,-56.75 3528.6,-76 3634.6,-76 3634.6,-56.75 3528.6,-56.75"/>
<text xml:space="preserve" text-anchor="middle" x="3581.6" y="-62.5" font-family="Helvetica,sans-Serif" font-size="10.00">RaiseInstruction.cpp</text>
</a>
</g>
</g>
<!-- Node4&#45;&gt;Node47 -->
<g id="edge44" class="edge">
<title>Node4&#45;&gt;Node47</title>
<path fill="none" stroke="midnightblue" d="M2972.55,-119.23C3072.33,-113.79 3316.23,-99.18 3519.6,-76.5 3522.41,-76.19 3525.29,-75.84 3528.2,-75.48"/>
<polygon fill="midnightblue" stroke="midnightblue" points="2972.41,-115.73 2962.62,-119.77 2972.79,-122.72 2972.41,-115.73"/>
</g>
<!-- Node48 -->
<g id="node45" class="node">
<title>Node48</title>
<g id="a_node45"><a xlink:href="_exit_instruction_8cpp.html" target="_top" xlink:title=" ">
<polygon fill="white" stroke="black" points="3652.73,-56.75 3652.73,-76 3750.48,-76 3750.48,-56.75 3652.73,-56.75"/>
<text xml:space="preserve" text-anchor="middle" x="3701.6" y="-62.5" font-family="Helvetica,sans-Serif" font-size="10.00">ExitInstruction.cpp</text>
</a>
</g>
</g>
<!-- Node4&#45;&gt;Node48 -->
<g id="edge45" class="edge">
<title>Node4&#45;&gt;Node48</title>
<path fill="none" stroke="midnightblue" d="M2972.38,-120.22C3086.19,-116.42 3390.95,-104.26 3643.6,-76.5 3646.44,-76.19 3649.35,-75.84 3652.28,-75.45"/>
<polygon fill="midnightblue" stroke="midnightblue" points="2972.42,-116.72 2962.54,-120.55 2972.65,-123.72 2972.42,-116.72"/>
</g>
<!-- Node49 -->
<g id="node46" class="node">
<title>Node49</title>
<g id="a_node46"><a xlink:href="_requires_directive_8cpp.html" target="_top" xlink:title=" ">
<polygon fill="white" stroke="black" points="3768.23,-56.75 3768.23,-76 3880.98,-76 3880.98,-56.75 3768.23,-56.75"/>
<text xml:space="preserve" text-anchor="middle" x="3824.6" y="-62.5" font-family="Helvetica,sans-Serif" font-size="10.00">RequiresDirective.cpp</text>
</a>
</g>
</g>
<!-- Node4&#45;&gt;Node49 -->
<g id="edge46" class="edge">
<title>Node4&#45;&gt;Node49</title>
<path fill="none" stroke="midnightblue" d="M2972.66,-120.51C3098.81,-117.16 3460.41,-105.55 3759.6,-76.5 3762.33,-76.24 3765.11,-75.94 3767.92,-75.62"/>
<polygon fill="midnightblue" stroke="midnightblue" points="2972.62,-117.01 2962.71,-120.77 2972.8,-124.01 2972.62,-117.01"/>
</g>
<!-- Node50 -->
<g id="node47" class="node">
<title>Node50</title>
<g id="a_node47"><a xlink:href="_if_instruction_8cpp.html" target="_top" xlink:title=" ">
<polygon fill="white" stroke="black" points="3899.35,-56.75 3899.35,-76 3985.85,-76 3985.85,-56.75 3899.35,-56.75"/>
<text xml:space="preserve" text-anchor="middle" x="3942.6" y="-62.5" font-family="Helvetica,sans-Serif" font-size="10.00">IfInstruction.cpp</text>
</a>
</g>
</g>
<!-- Node4&#45;&gt;Node50 -->
<g id="edge47" class="edge">
<title>Node4&#45;&gt;Node50</title>
<path fill="none" stroke="midnightblue" d="M2972.67,-121.48C3111.59,-120.62 3538.37,-114.82 3889.6,-76.5 3892.67,-76.17 3895.82,-75.77 3898.99,-75.32"/>
<polygon fill="midnightblue" stroke="midnightblue" points="2972.76,-117.98 2962.78,-121.54 2972.8,-124.98 2972.76,-117.98"/>
</g>
<!-- Node51 -->
<g id="node48" class="node">
<title>Node51</title>
<g id="a_node48"><a xlink:href="_simple_do_instruction_8cpp.html" target="_top" xlink:title=" ">
<polygon fill="white" stroke="black" points="4003.98,-56.75 4003.98,-76 4127.23,-76 4127.23,-56.75 4003.98,-56.75"/>
<text xml:space="preserve" text-anchor="middle" x="4065.6" y="-62.5" font-family="Helvetica,sans-Serif" font-size="10.00">SimpleDoInstruction.cpp</text>
</a>
</g>
</g>
<!-- Node4&#45;&gt;Node51 -->
<g id="edge48" class="edge">
<title>Node4&#45;&gt;Node51</title>
<path fill="none" stroke="midnightblue" d="M2972.56,-121.09C3120.83,-119.06 3599.87,-110.14 3994.6,-76.5 3997.57,-76.25 4000.61,-75.96 4003.68,-75.65"/>
<polygon fill="midnightblue" stroke="midnightblue" points="2972.71,-117.59 2962.76,-121.22 2972.81,-124.58 2972.71,-117.59"/>
</g>
<!-- Node52 -->
<g id="node49" class="node">
<title>Node52</title>
<g id="a_node49"><a xlink:href="_block_instruction_8cpp.html" target="_top" xlink:title=" ">
<polygon fill="white" stroke="black" points="4144.98,-56.75 4144.98,-76 4250.23,-76 4250.23,-56.75 4144.98,-56.75"/>
<text xml:space="preserve" text-anchor="middle" x="4197.6" y="-62.5" font-family="Helvetica,sans-Serif" font-size="10.00">BlockInstruction.cpp</text>
</a>
</g>
</g>
<!-- Node4&#45;&gt;Node52 -->
<g id="edge49" class="edge">
<title>Node4&#45;&gt;Node52</title>
<path fill="none" stroke="midnightblue" d="M2972.67,-121.75C3133.43,-121.79 3684.3,-118.63 4136.6,-76.5 4139.27,-76.25 4142,-75.96 4144.75,-75.65"/>
<polygon fill="midnightblue" stroke="midnightblue" points="2972.86,-118.25 2962.86,-121.74 2972.86,-125.25 2972.86,-118.25"/>
</g>
<!-- Node4&#45;&gt;Node87 -->
<g id="edge52" class="edge">
<title>Node4&#45;&gt;Node87</title>
<path fill="none" stroke="midnightblue" d="M2972.54,-121.37C3317.68,-119.38 5499.12,-105.73 5790.6,-76.5 5793.62,-76.2 5796.72,-75.81 5799.84,-75.36"/>
<polygon fill="midnightblue" stroke="midnightblue" points="2972.76,-117.87 2962.78,-121.42 2972.8,-124.87 2972.76,-117.87"/>
</g>
<!-- Node38&#45;&gt;Node26 -->
<g id="edge38" class="edge">
<title>Node38&#45;&gt;Node26</title>
<path fill="none" stroke="midnightblue" d="M5332.62,-47.27C5339.24,-38.07 5346.98,-27.29 5352.28,-19.92"/>
<polygon fill="midnightblue" stroke="midnightblue" points="5329.92,-45.03 5326.93,-55.19 5335.61,-49.11 5329.92,-45.03"/>
</g>
<!-- Node38&#45;&gt;Node42 -->
<g id="edge39" class="edge">
<title>Node38&#45;&gt;Node42</title>
<path fill="none" stroke="midnightblue" d="M5257.36,-56.16C4827.4,-24.46 2034.88,-13 1582.47,-11.34"/>
<polygon fill="midnightblue" stroke="midnightblue" points="5257.06,-59.64 5267.3,-56.93 5257.6,-52.67 5257.06,-59.64"/>
</g>
</g>
</svg>
        <g id="navigator" transform="translate(0 0)" fill="#404254">
                <rect fill="#f2f5e9" fill-opacity="0.5" stroke="#606060" stroke-width=".5" x="0" y="0" width="60" height="60"/>
                <use id="zoomplus" xlink:href="#zoomPlus" x="17" y="9" onmousedown="handleZoom(evt,'in')"/>
                <use id="zoomminus" xlink:href="#zoomMin" x="42" y="9" onmousedown="handleZoom(evt,'out')"/>
                <use id="reset" xlink:href="#resetDef" x="30" y="36" onmousedown="handleReset()"/>
                <g id="arrowUp" xlink:href="#dirArrow" transform="translate(30 24)" onmousedown="handlePan(0,-1)">
                  <use xlink:href="#rim" fill="#404040">
                        <set attributeName="fill" to="#808080" begin="arrowUp.mouseover" end="arrowUp.mouseout"/>
                  </use>
                  <path fill="none" stroke="white" stroke-width="1.5" d="M0,-3.0v7 M-2.5,-0.5L0,-3.0L2.5,-0.5"/>
                </g>
                <g id="arrowRight" xlink:href="#dirArrow" transform="rotate(90) translate(36 -43)" onmousedown="handlePan(1,0)">
                  <use xlink:href="#rim" fill="#404040">
                        <set attributeName="fill" to="#808080" begin="arrowRight.mouseover" end="arrowRight.mouseout"/>
                  </use>
                  <path fill="none" stroke="white" stroke-width="1.5" d="M0,-3.0v7 M-2.5,-0.5L0,-3.0L2.5,-0.5"/>
                </g>
                <g id="arrowDown" xlink:href="#dirArrow" transform="rotate(180) translate(-30 -48)" onmousedown="handlePan(0,1)">
                  <use xlink:href="#rim" fill="#404040">
                        <set attributeName="fill" to="#808080" begin="arrowDown.mouseover" end="arrowDown.mouseout"/>
                  </use>
                  <path fill="none" stroke="white" stroke-width="1.5" d="M0,-3.0v7 M-2.5,-0.5L0,-3.0L2.5,-0.5"/>
                </g>
                <g id="arrowLeft" xlink:href="#dirArrow" transform="rotate(270) translate(-36 17)" onmousedown="handlePan(-1,0)">
                  <use xlink:href="#rim" fill="#404040">
                        <set attributeName="fill" to="#808080" begin="arrowLeft.mouseover" end="arrowLeft.mouseout"/>
                  </use>
                  <path fill="none" stroke="white" stroke-width="1.5" d="M0,-3.0v7 M-2.5,-0.5L0,-3.0L2.5,-0.5"/>
                </g>
        </g>
        <svg viewBox="0 0 15 15" width="100%" height="30px" preserveAspectRatio="xMaxYMin meet">
         <g id="arrow_out" transform="scale(0.3 0.3)">
          <a xlink:href="_envelope_8hpp__dep__incl_org.svg" target="_base">
           <rect id="button" ry="5" rx="5" y="6" x="6" height="38" width="38"
                fill="#f2f5e9" fill-opacity="0.5" stroke="#606060" stroke-width="1.0"/>
           <path id="arrow"
             d="M 11.500037,31.436501 C 11.940474,20.09759 22.043105,11.32322 32.158766,21.979434 L 37.068811,17.246167 C 37.068811,17.246167 37.088388,32 37.088388,32 L 22.160133,31.978069 C 22.160133,31.978069 26.997745,27.140456 26.997745,27.140456 C 18.528582,18.264221 13.291696,25.230495 11.500037,31.436501 z"
             style="fill:#404040;"/>
          </a>
         </g>
        </svg>
</svg>
