<?xml version="1.0" encoding="UTF-8" standalone="no"?>
<!DOCTYPE svg PUBLIC "-//W3C//DTD SVG 1.1//EN"
 "http://www.w3.org/Graphics/SVG/1.1/DTD/svg11.dtd">
<!-- Generated by graphviz version 13.1.0 (20250701.0955)
 -->
<!-- Title: ExpressionOperator.hpp Pages: 1 -->
<svg width="128pt" height="141pt"
 viewBox="0.00 0.00 128.00 141.00" xmlns="http://www.w3.org/2000/svg" xmlns:xlink="http://www.w3.org/1999/xlink">
<g id="graph0" class="graph" transform="scale(1 1) rotate(0) translate(4 136.75)">
<title>ExpressionOperator.hpp</title>
<polygon fill="white" stroke="none" points="-4,4 -4,-136.75 124.25,-136.75 124.25,4 -4,4"/>
<!-- Node1 -->
<g id="node1" class="node">
<title>Node1</title>
<g id="a_node1"><a xlink:title=" ">
<polygon fill="#bfbfbf" stroke="black" points="0,-113 0,-132.25 120.25,-132.25 120.25,-113 0,-113"/>
<text xml:space="preserve" text-anchor="middle" x="60.12" y="-118.75" font-family="Helvetica,sans-Serif" font-size="10.00">ExpressionOperator.hpp</text>
</a>
</g>
</g>
<!-- Node2 -->
<g id="node2" class="node">
<title>Node2</title>
<g id="a_node2"><a xlink:href="_token_8hpp.html" target="_top" xlink:title=" ">
<polygon fill="white" stroke="black" points="29.62,-56.75 29.62,-76 90.62,-76 90.62,-56.75 29.62,-56.75"/>
<text xml:space="preserve" text-anchor="middle" x="60.12" y="-62.5" font-family="Helvetica,sans-Serif" font-size="10.00">Token.hpp</text>
</a>
</g>
</g>
<!-- Node1&#45;&gt;Node2 -->
<g id="edge1" class="edge">
<title>Node1&#45;&gt;Node2</title>
<path fill="none" stroke="midnightblue" d="M60.12,-112.67C60.12,-105.87 60.12,-96.26 60.12,-87.65"/>
<polygon fill="midnightblue" stroke="midnightblue" points="63.63,-87.68 60.13,-77.68 56.63,-87.68 63.63,-87.68"/>
</g>
<!-- Node3 -->
<g id="node3" class="node">
<title>Node3</title>
<g id="a_node3"><a xlink:href="_source_location_8hpp.html" target="_top" xlink:title=" ">
<polygon fill="white" stroke="black" points="9,-0.5 9,-19.75 111.25,-19.75 111.25,-0.5 9,-0.5"/>
<text xml:space="preserve" text-anchor="middle" x="60.12" y="-6.25" font-family="Helvetica,sans-Serif" font-size="10.00">SourceLocation.hpp</text>
</a>
</g>
</g>
<!-- Node2&#45;&gt;Node3 -->
<g id="edge2" class="edge">
<title>Node2&#45;&gt;Node3</title>
<path fill="none" stroke="midnightblue" d="M60.12,-56.42C60.12,-49.62 60.12,-40.01 60.12,-31.4"/>
<polygon fill="midnightblue" stroke="midnightblue" points="63.63,-31.43 60.13,-21.43 56.63,-31.43 63.63,-31.43"/>
</g>
</g>
</svg>
