<?xml version="1.0" encoding="UTF-8" standalone="no"?>
<!DOCTYPE svg PUBLIC "-//W3C//DTD SVG 1.1//EN"
 "http://www.w3.org/Graphics/SVG/1.1/DTD/svg11.dtd">
<!-- Generated by graphviz version 13.1.0 (20250701.0955)
 -->
<!-- Title: ExpressionDotVariable.hpp Pages: 1 -->
<svg width="536pt" height="85pt"
 viewBox="0.00 0.00 536.00 85.00" xmlns="http://www.w3.org/2000/svg" xmlns:xlink="http://www.w3.org/1999/xlink">
<g id="graph0" class="graph" transform="scale(1 1) rotate(0) translate(4 80.5)">
<title>ExpressionDotVariable.hpp</title>
<polygon fill="white" stroke="none" points="-4,4 -4,-80.5 531.88,-80.5 531.88,4 -4,4"/>
<!-- Node1 -->
<g id="node1" class="node">
<title>Node1</title>
<g id="a_node1"><a xlink:title=" ">
<polygon fill="#bfbfbf" stroke="black" points="181.38,-56.75 181.38,-76 315.12,-76 315.12,-56.75 181.38,-56.75"/>
<text xml:space="preserve" text-anchor="middle" x="248.25" y="-62.5" font-family="Helvetica,sans-Serif" font-size="10.00">ExpressionDotVariable.hpp</text>
</a>
</g>
</g>
<!-- Node2 -->
<g id="node2" class="node">
<title>Node2</title>
<g id="a_node2"><a xlink:href="_language_parser_8cpp.html" target="_top" xlink:title=" ">
<polygon fill="white" stroke="black" points="0,-0.5 0,-19.75 104.5,-19.75 104.5,-0.5 0,-0.5"/>
<text xml:space="preserve" text-anchor="middle" x="52.25" y="-6.25" font-family="Helvetica,sans-Serif" font-size="10.00">LanguageParser.cpp</text>
</a>
</g>
</g>
<!-- Node1&#45;&gt;Node2 -->
<g id="edge1" class="edge">
<title>Node1&#45;&gt;Node2</title>
<path fill="none" stroke="midnightblue" d="M204.73,-53.33C168.6,-43.33 117.99,-29.32 85.16,-20.23"/>
<polygon fill="midnightblue" stroke="midnightblue" points="203.41,-56.6 213.99,-55.89 205.28,-49.85 203.41,-56.6"/>
</g>
<!-- Node3 -->
<g id="node3" class="node">
<title>Node3</title>
<g id="a_node3"><a xlink:href="_variable_dictionary_8cpp.html" target="_top" xlink:title=" ">
<polygon fill="white" stroke="black" points="122.25,-0.5 122.25,-19.75 234.25,-19.75 234.25,-0.5 122.25,-0.5"/>
<text xml:space="preserve" text-anchor="middle" x="178.25" y="-6.25" font-family="Helvetica,sans-Serif" font-size="10.00">VariableDictionary.cpp</text>
</a>
</g>
</g>
<!-- Node1&#45;&gt;Node3 -->
<g id="edge2" class="edge">
<title>Node1&#45;&gt;Node3</title>
<path fill="none" stroke="midnightblue" d="M227.88,-49.59C215.41,-39.92 199.92,-27.92 189.59,-19.92"/>
<polygon fill="midnightblue" stroke="midnightblue" points="225.45,-52.13 235.49,-55.49 229.73,-46.6 225.45,-52.13"/>
</g>
<!-- Node4 -->
<g id="node4" class="node">
<title>Node4</title>
<g id="a_node4"><a xlink:href="_expression_dot_variable_8cpp.html" target="_top" xlink:title=" ">
<polygon fill="white" stroke="black" points="252.38,-0.5 252.38,-19.75 386.12,-19.75 386.12,-0.5 252.38,-0.5"/>
<text xml:space="preserve" text-anchor="middle" x="319.25" y="-6.25" font-family="Helvetica,sans-Serif" font-size="10.00">ExpressionDotVariable.cpp</text>
</a>
</g>
</g>
<!-- Node1&#45;&gt;Node4 -->
<g id="edge3" class="edge">
<title>Node1&#45;&gt;Node4</title>
<path fill="none" stroke="midnightblue" d="M268.91,-49.59C281.56,-39.92 297.27,-27.92 307.74,-19.92"/>
<polygon fill="midnightblue" stroke="midnightblue" points="267,-46.65 261.18,-55.5 271.25,-52.21 267,-46.65"/>
</g>
<!-- Node5 -->
<g id="node5" class="node">
<title>Node5</title>
<g id="a_node5"><a xlink:href="_virtual_function_table_8cpp.html" target="_top" xlink:title=" ">
<polygon fill="white" stroke="black" points="404.62,-0.5 404.62,-19.75 527.88,-19.75 527.88,-0.5 404.62,-0.5"/>
<text xml:space="preserve" text-anchor="middle" x="466.25" y="-6.25" font-family="Helvetica,sans-Serif" font-size="10.00">VirtualFunctionTable.cpp</text>
</a>
</g>
</g>
<!-- Node1&#45;&gt;Node5 -->
<g id="edge4" class="edge">
<title>Node1&#45;&gt;Node5</title>
<path fill="none" stroke="midnightblue" d="M295.88,-53.52C336.11,-43.51 392.89,-29.38 429.64,-20.23"/>
<polygon fill="midnightblue" stroke="midnightblue" points="295.07,-50.12 286.21,-55.93 296.76,-56.91 295.07,-50.12"/>
</g>
</g>
</svg>
