<?xml version="1.0" encoding="UTF-8" standalone="no"?>
<!DOCTYPE svg PUBLIC "-//W3C//DTD SVG 1.1//EN"
 "http://www.w3.org/Graphics/SVG/1.1/DTD/svg11.dtd">
<!-- Generated by graphviz version 13.1.0 (20250701.0955)
 -->
<!-- Title: ExpressionMessage.cpp Pages: 1 -->
<svg width="2821pt" height="310pt"
 viewBox="0.00 0.00 2821.00 310.00" xmlns="http://www.w3.org/2000/svg" xmlns:xlink="http://www.w3.org/1999/xlink">
<g id="graph0" class="graph" transform="scale(1 1) rotate(0) translate(4 305.5)">
<title>ExpressionMessage.cpp</title>
<polygon fill="white" stroke="none" points="-4,4 -4,-305.5 2816.6,-305.5 2816.6,4 -4,4"/>
<!-- Node1 -->
<g id="node1" class="node">
<title>Node1</title>
<g id="a_node1"><a xlink:title=" ">
<polygon fill="#bfbfbf" stroke="black" points="1721.35,-281.75 1721.35,-301 1844.6,-301 1844.6,-281.75 1721.35,-281.75"/>
<text xml:space="preserve" text-anchor="middle" x="1782.97" y="-287.5" font-family="Helvetica,sans-Serif" font-size="10.00">ExpressionMessage.cpp</text>
</a>
</g>
</g>
<!-- Node2 -->
<g id="node2" class="node">
<title>Node2</title>
<g id="a_node2"><a xlink:href="_rexx_core_8h.html" target="_top" xlink:title=" ">
<polygon fill="white" stroke="black" points="454.72,-225.5 454.72,-244.75 523.22,-244.75 523.22,-225.5 454.72,-225.5"/>
<text xml:space="preserve" text-anchor="middle" x="488.97" y="-231.25" font-family="Helvetica,sans-Serif" font-size="10.00">RexxCore.h</text>
</a>
</g>
</g>
<!-- Node1&#45;&gt;Node2 -->
<g id="edge1" class="edge">
<title>Node1&#45;&gt;Node2</title>
<path fill="none" stroke="midnightblue" d="M1720.99,-287.78C1496.71,-278.37 730.29,-246.24 534.7,-238.04"/>
<polygon fill="midnightblue" stroke="midnightblue" points="535.09,-234.56 524.95,-237.63 534.79,-241.55 535.09,-234.56"/>
</g>
<!-- Node35 -->
<g id="node20" class="node">
<title>Node35</title>
<g id="a_node20"><a xlink:href="_queue_class_8hpp.html" target="_top" xlink:title=" ">
<polygon fill="white" stroke="black" points="1324.6,-113 1324.6,-132.25 1413.35,-132.25 1413.35,-113 1324.6,-113"/>
<text xml:space="preserve" text-anchor="middle" x="1368.97" y="-118.75" font-family="Helvetica,sans-Serif" font-size="10.00">QueueClass.hpp</text>
</a>
</g>
</g>
<!-- Node1&#45;&gt;Node35 -->
<g id="edge45" class="edge">
<title>Node1&#45;&gt;Node35</title>
<path fill="none" stroke="midnightblue" d="M1759.42,-281.33C1713.97,-263.81 1611.03,-223.94 1524.97,-189 1481.65,-171.41 1431.87,-150.41 1400.42,-137.05"/>
<polygon fill="midnightblue" stroke="midnightblue" points="1402.07,-133.95 1391.5,-133.25 1399.33,-140.39 1402.07,-133.95"/>
</g>
<!-- Node21 -->
<g id="node30" class="node">
<title>Node21</title>
<g id="a_node30"><a xlink:href="_string_class_8hpp.html" target="_top" xlink:title=" ">
<polygon fill="white" stroke="black" points="1287.1,-225.5 1287.1,-244.75 1372.85,-244.75 1372.85,-225.5 1287.1,-225.5"/>
<text xml:space="preserve" text-anchor="middle" x="1329.97" y="-231.25" font-family="Helvetica,sans-Serif" font-size="10.00">StringClass.hpp</text>
</a>
</g>
</g>
<!-- Node1&#45;&gt;Node21 -->
<g id="edge36" class="edge">
<title>Node1&#45;&gt;Node21</title>
<path fill="none" stroke="midnightblue" d="M1720.93,-282.95C1631.95,-272.29 1469.49,-252.83 1384.73,-242.68"/>
<polygon fill="midnightblue" stroke="midnightblue" points="1385.15,-239.21 1374.8,-241.49 1384.31,-246.16 1385.15,-239.21"/>
</g>
<!-- Node47 -->
<g id="node35" class="node">
<title>Node47</title>
<g id="a_node35"><a xlink:href="_rexx_activation_8hpp.html" target="_top" xlink:title=" ">
<polygon fill="white" stroke="black" points="2103.22,-225.5 2103.22,-244.75 2204.72,-244.75 2204.72,-225.5 2103.22,-225.5"/>
<text xml:space="preserve" text-anchor="middle" x="2153.97" y="-231.25" font-family="Helvetica,sans-Serif" font-size="10.00">RexxActivation.hpp</text>
</a>
</g>
</g>
<!-- Node1&#45;&gt;Node47 -->
<g id="edge46" class="edge">
<title>Node1&#45;&gt;Node47</title>
<path fill="none" stroke="midnightblue" d="M1845.07,-281.29C1913.56,-271.28 2023.12,-255.26 2091.68,-245.23"/>
<polygon fill="midnightblue" stroke="midnightblue" points="2091.85,-248.75 2101.24,-243.84 2090.84,-241.82 2091.85,-248.75"/>
</g>
<!-- Node51 -->
<g id="node39" class="node">
<title>Node51</title>
<g id="a_node39"><a xlink:href="_token_8hpp.html" target="_top" xlink:title=" ">
<polygon fill="white" stroke="black" points="2598.47,-113 2598.47,-132.25 2659.47,-132.25 2659.47,-113 2598.47,-113"/>
<text xml:space="preserve" text-anchor="middle" x="2628.97" y="-118.75" font-family="Helvetica,sans-Serif" font-size="10.00">Token.hpp</text>
</a>
</g>
</g>
<!-- Node1&#45;&gt;Node51 -->
<g id="edge70" class="edge">
<title>Node1&#45;&gt;Node51</title>
<path fill="none" stroke="midnightblue" d="M1845.06,-287.75C2033.53,-279.16 2589.43,-248.9 2641.97,-189 2653.16,-176.24 2647.27,-156.65 2640.19,-142.24"/>
<polygon fill="midnightblue" stroke="midnightblue" points="2643.41,-140.84 2635.54,-133.76 2637.28,-144.21 2643.41,-140.84"/>
</g>
<!-- Node76 -->
<g id="node46" class="node">
<title>Node76</title>
<g id="a_node46"><a xlink:href="_protected_object_8hpp.html" target="_top" xlink:title=" ">
<polygon fill="white" stroke="black" points="1815.35,-113 1815.35,-132.25 1920.6,-132.25 1920.6,-113 1815.35,-113"/>
<text xml:space="preserve" text-anchor="middle" x="1867.97" y="-118.75" font-family="Helvetica,sans-Serif" font-size="10.00">ProtectedObject.hpp</text>
</a>
</g>
</g>
<!-- Node1&#45;&gt;Node76 -->
<g id="edge71" class="edge">
<title>Node1&#45;&gt;Node76</title>
<path fill="none" stroke="midnightblue" d="M1785.46,-281.39C1791.45,-260.63 1807.85,-208.09 1830.97,-168.75 1836.73,-158.96 1844.54,-149.09 1851.5,-141.08"/>
<polygon fill="midnightblue" stroke="midnightblue" points="1853.99,-143.55 1858.1,-133.79 1848.79,-138.86 1853.99,-143.55"/>
</g>
<!-- Node98 -->
<g id="node50" class="node">
<title>Node98</title>
<g id="a_node50"><a xlink:href="_expression_message_8hpp.html" target="_top" xlink:title=" ">
<polygon fill="white" stroke="black" points="2689.35,-225.5 2689.35,-244.75 2812.6,-244.75 2812.6,-225.5 2689.35,-225.5"/>
<text xml:space="preserve" text-anchor="middle" x="2750.97" y="-231.25" font-family="Helvetica,sans-Serif" font-size="10.00">ExpressionMessage.hpp</text>
</a>
</g>
</g>
<!-- Node1&#45;&gt;Node98 -->
<g id="edge69" class="edge">
<title>Node1&#45;&gt;Node98</title>
<path fill="none" stroke="midnightblue" d="M1844.98,-288.71C1990.25,-284.49 2363.85,-271.77 2674.97,-245.25 2675.99,-245.16 2677.01,-245.07 2678.03,-244.98"/>
<polygon fill="midnightblue" stroke="midnightblue" points="2678.08,-248.49 2687.7,-244.05 2677.41,-241.53 2678.08,-248.49"/>
</g>
<!-- Node3 -->
<g id="node3" class="node">
<title>Node3</title>
<g id="a_node3"><a xlink:href="oorexxapi_8h.html" target="_top" xlink:title=" ">
<polygon fill="white" stroke="black" points="86.85,-169.25 86.85,-188.5 153.1,-188.5 153.1,-169.25 86.85,-169.25"/>
<text xml:space="preserve" text-anchor="middle" x="119.97" y="-175" font-family="Helvetica,sans-Serif" font-size="10.00">oorexxapi.h</text>
</a>
</g>
</g>
<!-- Node2&#45;&gt;Node3 -->
<g id="edge2" class="edge">
<title>Node2&#45;&gt;Node3</title>
<path fill="none" stroke="midnightblue" d="M454.57,-229.91C395.57,-222.54 271.37,-206.44 166.97,-189 166.16,-188.86 165.33,-188.72 164.51,-188.58"/>
<polygon fill="midnightblue" stroke="midnightblue" points="165.52,-185.21 155.05,-186.89 164.28,-192.1 165.52,-185.21"/>
</g>
<!-- Node10 -->
<g id="node6" class="node">
<title>Node10</title>
<g id="a_node6"><a xlink:title=" ">
<polygon fill="white" stroke="#bfbfbf" points="557.22,-169.25 557.22,-188.5 664.72,-188.5 664.72,-169.25 557.22,-169.25"/>
<text xml:space="preserve" text-anchor="middle" x="610.97" y="-175" font-family="Helvetica,sans-Serif" font-size="10.00">PlatformDefinitions.h</text>
</a>
</g>
</g>
<!-- Node2&#45;&gt;Node10 -->
<g id="edge5" class="edge">
<title>Node2&#45;&gt;Node10</title>
<path fill="none" stroke="midnightblue" d="M509.39,-225.04C528.74,-216.44 558.07,-203.4 580.25,-193.54"/>
<polygon fill="midnightblue" stroke="midnightblue" points="581.39,-196.86 589.1,-189.6 578.54,-190.46 581.39,-196.86"/>
</g>
<!-- Node11 -->
<g id="node7" class="node">
<title>Node11</title>
<g id="a_node7"><a xlink:href="_class_type_codes_8h.html" target="_top" xlink:title=" ">
<polygon fill="white" stroke="black" points="304.35,-56.75 304.35,-76 403.6,-76 403.6,-56.75 304.35,-56.75"/>
<text xml:space="preserve" text-anchor="middle" x="353.97" y="-62.5" font-family="Helvetica,sans-Serif" font-size="10.00">ClassTypeCodes.h</text>
</a>
</g>
</g>
<!-- Node2&#45;&gt;Node11 -->
<g id="edge6" class="edge">
<title>Node2&#45;&gt;Node11</title>
<path fill="none" stroke="midnightblue" d="M454.36,-232.7C368.21,-228.77 146.23,-216.23 77.97,-189 39.6,-173.69 22.33,-169.76 3.97,-132.75 -0.03,-124.69 -1.97,-119.26 3.97,-112.5 22.71,-91.2 197.55,-77.1 292.8,-70.93"/>
<polygon fill="midnightblue" stroke="midnightblue" points="292.73,-74.44 302.49,-70.31 292.29,-67.46 292.73,-74.44"/>
</g>
<!-- Node12 -->
<g id="node8" class="node">
<title>Node12</title>
<g id="a_node8"><a xlink:href="_object_class_8hpp.html" target="_top" xlink:title=" ">
<polygon fill="white" stroke="black" points="1645.6,-113 1645.6,-132.25 1734.35,-132.25 1734.35,-113 1645.6,-113"/>
<text xml:space="preserve" text-anchor="middle" x="1689.97" y="-118.75" font-family="Helvetica,sans-Serif" font-size="10.00">ObjectClass.hpp</text>
</a>
</g>
</g>
<!-- Node2&#45;&gt;Node12 -->
<g id="edge7" class="edge">
<title>Node2&#45;&gt;Node12</title>
<path fill="none" stroke="midnightblue" d="M523.47,-234.67C645.34,-236.11 1066.73,-237.08 1409.97,-189 1495.82,-176.98 1594.03,-151.18 1648.34,-135.83"/>
<polygon fill="midnightblue" stroke="midnightblue" points="1649.13,-139.25 1657.78,-133.14 1647.21,-132.52 1649.13,-139.25"/>
</g>
<!-- Node18 -->
<g id="node13" class="node">
<title>Node18</title>
<g id="a_node13"><a xlink:href="_table_class_8hpp.html" target="_top" xlink:title=" ">
<polygon fill="white" stroke="black" points="337.22,-169.25 337.22,-188.5 420.72,-188.5 420.72,-169.25 337.22,-169.25"/>
<text xml:space="preserve" text-anchor="middle" x="378.97" y="-175" font-family="Helvetica,sans-Serif" font-size="10.00">TableClass.hpp</text>
</a>
</g>
</g>
<!-- Node2&#45;&gt;Node18 -->
<g id="edge13" class="edge">
<title>Node2&#45;&gt;Node18</title>
<path fill="none" stroke="midnightblue" d="M470.81,-225.17C453.53,-216.65 427.28,-203.7 407.26,-193.83"/>
<polygon fill="midnightblue" stroke="midnightblue" points="409.04,-190.8 398.52,-189.52 405.94,-197.08 409.04,-190.8"/>
</g>
<!-- Node30 -->
<g id="node15" class="node">
<title>Node30</title>
<g id="a_node15"><a xlink:href="_rexx_memory_8hpp.html" target="_top" xlink:title=" ">
<polygon fill="white" stroke="black" points="777.1,-169.25 777.1,-188.5 868.85,-188.5 868.85,-169.25 777.1,-169.25"/>
<text xml:space="preserve" text-anchor="middle" x="822.97" y="-175" font-family="Helvetica,sans-Serif" font-size="10.00">RexxMemory.hpp</text>
</a>
</g>
</g>
<!-- Node2&#45;&gt;Node30 -->
<g id="edge15" class="edge">
<title>Node2&#45;&gt;Node30</title>
<path fill="none" stroke="midnightblue" d="M523.46,-228.52C580.69,-219.23 695.88,-200.52 765.54,-189.2"/>
<polygon fill="midnightblue" stroke="midnightblue" points="765.93,-192.69 775.23,-187.63 764.8,-185.78 765.93,-192.69"/>
</g>
<!-- Node44 -->
<g id="node25" class="node">
<title>Node44</title>
<g id="a_node25"><a xlink:href="_rexx_behaviour_8hpp.html" target="_top" xlink:title=" ">
<polygon fill="white" stroke="black" points="438.6,-169.25 438.6,-188.5 539.35,-188.5 539.35,-169.25 438.6,-169.25"/>
<text xml:space="preserve" text-anchor="middle" x="488.97" y="-175" font-family="Helvetica,sans-Serif" font-size="10.00">RexxBehaviour.hpp</text>
</a>
</g>
</g>
<!-- Node2&#45;&gt;Node44 -->
<g id="edge30" class="edge">
<title>Node2&#45;&gt;Node44</title>
<path fill="none" stroke="midnightblue" d="M488.97,-225.17C488.97,-218.37 488.97,-208.76 488.97,-200.15"/>
<polygon fill="midnightblue" stroke="midnightblue" points="492.47,-200.18 488.97,-190.18 485.47,-200.18 492.47,-200.18"/>
</g>
<!-- Node23 -->
<g id="node28" class="node">
<title>Node23</title>
<g id="a_node28"><a xlink:href="_class_class_8hpp.html" target="_top" xlink:title=" ">
<polygon fill="white" stroke="black" points="1145.1,-113 1145.1,-132.25 1230.85,-132.25 1230.85,-113 1145.1,-113"/>
<text xml:space="preserve" text-anchor="middle" x="1187.97" y="-118.75" font-family="Helvetica,sans-Serif" font-size="10.00">ClassClass.hpp</text>
</a>
</g>
</g>
<!-- Node2&#45;&gt;Node23 -->
<g id="edge33" class="edge">
<title>Node2&#45;&gt;Node23</title>
<path fill="none" stroke="midnightblue" d="M523.46,-231.2C591.52,-225.2 747.8,-210.23 877.97,-189 971.04,-173.82 1078.5,-149.65 1139.32,-135.34"/>
<polygon fill="midnightblue" stroke="midnightblue" points="1140.08,-138.76 1149.01,-133.05 1138.47,-131.94 1140.08,-138.76"/>
</g>
<!-- Node46 -->
<g id="node29" class="node">
<title>Node46</title>
<g id="a_node29"><a xlink:href="_envelope_8hpp.html" target="_top" xlink:title=" ">
<polygon fill="white" stroke="black" points="244.35,-169.25 244.35,-188.5 319.6,-188.5 319.6,-169.25 244.35,-169.25"/>
<text xml:space="preserve" text-anchor="middle" x="281.97" y="-175" font-family="Helvetica,sans-Serif" font-size="10.00">Envelope.hpp</text>
</a>
</g>
</g>
<!-- Node2&#45;&gt;Node46 -->
<g id="edge35" class="edge">
<title>Node2&#45;&gt;Node46</title>
<path fill="none" stroke="midnightblue" d="M454.32,-225.04C419.55,-215.93 365.79,-201.84 327.56,-191.82"/>
<polygon fill="midnightblue" stroke="midnightblue" points="328.76,-188.52 318.2,-189.37 326.98,-195.29 328.76,-188.52"/>
</g>
<!-- Node4 -->
<g id="node4" class="node">
<title>Node4</title>
<g id="a_node4"><a xlink:href="rexx_8h.html" target="_top" xlink:title=" ">
<polygon fill="white" stroke="red" points="109.47,-113 109.47,-132.25 152.47,-132.25 152.47,-113 109.47,-113"/>
<text xml:space="preserve" text-anchor="middle" x="130.97" y="-118.75" font-family="Helvetica,sans-Serif" font-size="10.00">rexx.h</text>
</a>
</g>
</g>
<!-- Node3&#45;&gt;Node4 -->
<g id="edge3" class="edge">
<title>Node3&#45;&gt;Node4</title>
<path fill="none" stroke="midnightblue" d="M121.79,-168.92C123.18,-162.04 125.16,-152.29 126.92,-143.6"/>
<polygon fill="midnightblue" stroke="midnightblue" points="130.33,-144.4 128.89,-133.9 123.47,-143 130.33,-144.4"/>
</g>
<!-- Node9 -->
<g id="node5" class="node">
<title>Node9</title>
<g id="a_node5"><a xlink:href="oorexxerrors_8h.html" target="_top" xlink:title=" ">
<polygon fill="white" stroke="black" points="12.85,-113 12.85,-132.25 91.1,-132.25 91.1,-113 12.85,-113"/>
<text xml:space="preserve" text-anchor="middle" x="51.97" y="-118.75" font-family="Helvetica,sans-Serif" font-size="10.00">oorexxerrors.h</text>
</a>
</g>
</g>
<!-- Node3&#45;&gt;Node9 -->
<g id="edge4" class="edge">
<title>Node3&#45;&gt;Node9</title>
<path fill="none" stroke="midnightblue" d="M108.74,-168.92C98.74,-160.94 83.88,-149.08 71.86,-139.5"/>
<polygon fill="midnightblue" stroke="midnightblue" points="74.17,-136.86 64.17,-133.36 69.81,-142.33 74.17,-136.86"/>
</g>
<!-- Node13 -->
<g id="node9" class="node">
<title>Node13</title>
<g id="a_node9"><a xlink:title=" ">
<polygon fill="white" stroke="#bfbfbf" points="1640.97,-56.75 1640.97,-76 1674.97,-76 1674.97,-56.75 1640.97,-56.75"/>
<text xml:space="preserve" text-anchor="middle" x="1657.97" y="-62.5" font-family="Helvetica,sans-Serif" font-size="10.00">new</text>
</a>
</g>
</g>
<!-- Node12&#45;&gt;Node13 -->
<g id="edge8" class="edge">
<title>Node12&#45;&gt;Node13</title>
<path fill="none" stroke="midnightblue" d="M1684.69,-112.67C1680.4,-105.4 1674.21,-94.91 1668.87,-85.86"/>
<polygon fill="midnightblue" stroke="midnightblue" points="1672.02,-84.31 1663.93,-77.47 1665.99,-87.86 1672.02,-84.31"/>
</g>
<!-- Node14 -->
<g id="node10" class="node">
<title>Node14</title>
<g id="a_node10"><a xlink:title=" ">
<polygon fill="white" stroke="#bfbfbf" points="1272.85,-56.75 1272.85,-76 1321.1,-76 1321.1,-56.75 1272.85,-56.75"/>
<text xml:space="preserve" text-anchor="middle" x="1296.97" y="-62.5" font-family="Helvetica,sans-Serif" font-size="10.00">string.h</text>
</a>
</g>
</g>
<!-- Node12&#45;&gt;Node14 -->
<g id="edge9" class="edge">
<title>Node12&#45;&gt;Node14</title>
<path fill="none" stroke="midnightblue" d="M1645.27,-115.45C1566.37,-104.56 1404,-82.15 1332.31,-72.25"/>
<polygon fill="midnightblue" stroke="midnightblue" points="1333.1,-68.83 1322.71,-70.93 1332.14,-75.76 1333.1,-68.83"/>
</g>
<!-- Node15 -->
<g id="node11" class="node">
<title>Node15</title>
<g id="a_node11"><a xlink:href="_numerics_8hpp.html" target="_top" xlink:title=" ">
<polygon fill="white" stroke="red" points="1603.6,-0.5 1603.6,-19.75 1680.35,-19.75 1680.35,-0.5 1603.6,-0.5"/>
<text xml:space="preserve" text-anchor="middle" x="1641.97" y="-6.25" font-family="Helvetica,sans-Serif" font-size="10.00">Numerics.hpp</text>
</a>
</g>
</g>
<!-- Node12&#45;&gt;Node15 -->
<g id="edge10" class="edge">
<title>Node12&#45;&gt;Node15</title>
<path fill="none" stroke="midnightblue" d="M1690.91,-112.71C1691.91,-99.69 1692.35,-74.98 1683.97,-56.25 1679.09,-45.34 1670.48,-35.37 1662.33,-27.59"/>
<polygon fill="midnightblue" stroke="midnightblue" points="1664.78,-25.09 1654.98,-21.07 1660.14,-30.32 1664.78,-25.09"/>
</g>
<!-- Node17 -->
<g id="node12" class="node">
<title>Node17</title>
<g id="a_node12"><a xlink:href="_rexx_error_codes_8h.html" target="_top" xlink:title=" ">
<polygon fill="white" stroke="black" points="2003.47,-56.75 2003.47,-76 2100.47,-76 2100.47,-56.75 2003.47,-56.75"/>
<text xml:space="preserve" text-anchor="middle" x="2051.97" y="-62.5" font-family="Helvetica,sans-Serif" font-size="10.00">RexxErrorCodes.h</text>
</a>
</g>
</g>
<!-- Node12&#45;&gt;Node17 -->
<g id="edge12" class="edge">
<title>Node12&#45;&gt;Node17</title>
<path fill="none" stroke="midnightblue" d="M1734.72,-114.92C1799.45,-105.22 1919.37,-87.25 1991.79,-76.39"/>
<polygon fill="midnightblue" stroke="midnightblue" points="1992.12,-79.88 2001.49,-74.94 1991.09,-72.96 1992.12,-79.88"/>
</g>
<!-- Node15&#45;&gt;Node2 -->
<g id="edge11" class="edge">
<title>Node15&#45;&gt;Node2</title>
<path fill="none" stroke="midnightblue" d="M1603.33,-10.89C1395.93,-9.83 419.49,-7.46 294.97,-56.25 234.69,-79.87 191.23,-141.27 234.97,-189 262.3,-218.83 377.55,-229.03 443.02,-232.45"/>
<polygon fill="midnightblue" stroke="midnightblue" points="442.57,-235.93 452.73,-232.92 442.91,-228.94 442.57,-235.93"/>
</g>
<!-- Node19 -->
<g id="node14" class="node">
<title>Node19</title>
<g id="a_node14"><a xlink:href="_hash_collection_8hpp.html" target="_top" xlink:title=" ">
<polygon fill="white" stroke="red" points="490.22,-56.75 490.22,-76 591.72,-76 591.72,-56.75 490.22,-56.75"/>
<text xml:space="preserve" text-anchor="middle" x="540.97" y="-62.5" font-family="Helvetica,sans-Serif" font-size="10.00">HashCollection.hpp</text>
</a>
</g>
</g>
<!-- Node18&#45;&gt;Node19 -->
<g id="edge14" class="edge">
<title>Node18&#45;&gt;Node19</title>
<path fill="none" stroke="midnightblue" d="M337,-170.09C299.88,-162.24 249.83,-148.99 237.97,-132.75 232.67,-125.48 232.09,-119.32 237.97,-112.5 253.46,-94.54 394.45,-79.7 478.54,-72.35"/>
<polygon fill="midnightblue" stroke="midnightblue" points="478.84,-75.84 488.5,-71.5 478.24,-68.87 478.84,-75.84"/>
</g>
<!-- Node31 -->
<g id="node16" class="node">
<title>Node31</title>
<g id="a_node16"><a xlink:href="_memory_8hpp.html" target="_top" xlink:title=" ">
<polygon fill="white" stroke="black" points="747.72,-56.75 747.72,-76 816.22,-76 816.22,-56.75 747.72,-56.75"/>
<text xml:space="preserve" text-anchor="middle" x="781.97" y="-62.5" font-family="Helvetica,sans-Serif" font-size="10.00">Memory.hpp</text>
</a>
</g>
</g>
<!-- Node30&#45;&gt;Node31 -->
<g id="edge16" class="edge">
<title>Node30&#45;&gt;Node31</title>
<path fill="none" stroke="midnightblue" d="M820.86,-168.83C817.77,-156.07 811.54,-132.13 803.97,-112.5 800.56,-103.66 796.08,-94.18 792.05,-86.21"/>
<polygon fill="midnightblue" stroke="midnightblue" points="795.24,-84.76 787.51,-77.51 789.03,-87.99 795.24,-84.76"/>
</g>
<!-- Node32 -->
<g id="node17" class="node">
<title>Node32</title>
<g id="a_node17"><a xlink:href="_memory_stack_8hpp.html" target="_top" xlink:title=" ">
<polygon fill="white" stroke="black" points="1031.22,-113 1031.22,-132.25 1126.72,-132.25 1126.72,-113 1031.22,-113"/>
<text xml:space="preserve" text-anchor="middle" x="1078.97" y="-118.75" font-family="Helvetica,sans-Serif" font-size="10.00">MemoryStack.hpp</text>
</a>
</g>
</g>
<!-- Node30&#45;&gt;Node32 -->
<g id="edge17" class="edge">
<title>Node30&#45;&gt;Node32</title>
<path fill="none" stroke="midnightblue" d="M865.82,-168.79C909.57,-159.52 977.61,-145.11 1025,-135.06"/>
<polygon fill="midnightblue" stroke="midnightblue" points="1025.45,-138.55 1034.5,-133.05 1023.99,-131.7 1025.45,-138.55"/>
</g>
<!-- Node33 -->
<g id="node18" class="node">
<title>Node33</title>
<g id="a_node18"><a xlink:title=" ">
<polygon fill="white" stroke="#bfbfbf" points="851.22,-113 851.22,-132.25 952.72,-132.25 952.72,-113 851.22,-113"/>
<text xml:space="preserve" text-anchor="middle" x="901.97" y="-118.75" font-family="Helvetica,sans-Serif" font-size="10.00">SysSemaphore.hpp</text>
</a>
</g>
</g>
<!-- Node30&#45;&gt;Node33 -->
<g id="edge19" class="edge">
<title>Node30&#45;&gt;Node33</title>
<path fill="none" stroke="midnightblue" d="M836.02,-168.92C847.8,-160.83 865.38,-148.75 879.43,-139.1"/>
<polygon fill="midnightblue" stroke="midnightblue" points="881.4,-142 887.66,-133.45 877.43,-136.23 881.4,-142"/>
</g>
<!-- Node34 -->
<g id="node19" class="node">
<title>Node34</title>
<g id="a_node19"><a xlink:href="_identity_table_class_8hpp.html" target="_top" xlink:title=" ">
<polygon fill="white" stroke="black" points="552.1,-113 552.1,-132.25 667.85,-132.25 667.85,-113 552.1,-113"/>
<text xml:space="preserve" text-anchor="middle" x="609.97" y="-118.75" font-family="Helvetica,sans-Serif" font-size="10.00">IdentityTableClass.hpp</text>
</a>
</g>
</g>
<!-- Node30&#45;&gt;Node34 -->
<g id="edge20" class="edge">
<title>Node30&#45;&gt;Node34</title>
<path fill="none" stroke="midnightblue" d="M787.32,-168.79C751.53,-159.68 696.22,-145.59 656.88,-135.57"/>
<polygon fill="midnightblue" stroke="midnightblue" points="657.76,-132.18 647.21,-133.11 656.03,-138.97 657.76,-132.18"/>
</g>
<!-- Node30&#45;&gt;Node35 -->
<g id="edge22" class="edge">
<title>Node30&#45;&gt;Node35</title>
<path fill="none" stroke="midnightblue" d="M869.05,-173.3C968.9,-163.38 1204.89,-139.93 1313.05,-129.18"/>
<polygon fill="midnightblue" stroke="midnightblue" points="1313.24,-132.68 1322.85,-128.21 1312.55,-125.71 1313.24,-132.68"/>
</g>
<!-- Node38 -->
<g id="node22" class="node">
<title>Node38</title>
<g id="a_node22"><a xlink:title=" ">
<polygon fill="white" stroke="#bfbfbf" points="970.47,-113 970.47,-132.25 1013.47,-132.25 1013.47,-113 970.47,-113"/>
<text xml:space="preserve" text-anchor="middle" x="991.97" y="-118.75" font-family="Helvetica,sans-Serif" font-size="10.00">vector</text>
</a>
</g>
</g>
<!-- Node30&#45;&gt;Node38 -->
<g id="edge25" class="edge">
<title>Node30&#45;&gt;Node38</title>
<path fill="none" stroke="midnightblue" d="M851.26,-168.79C881.05,-159.23 927.91,-144.19 959.27,-134.12"/>
<polygon fill="midnightblue" stroke="midnightblue" points="960.17,-137.51 968.62,-131.12 958.03,-130.85 960.17,-137.51"/>
</g>
<!-- Node39 -->
<g id="node23" class="node">
<title>Node39</title>
<g id="a_node23"><a xlink:href="_memory_stats_8hpp.html" target="_top" xlink:title=" ">
<polygon fill="white" stroke="black" points="402.35,-113 402.35,-132.25 495.6,-132.25 495.6,-113 402.35,-113"/>
<text xml:space="preserve" text-anchor="middle" x="448.97" y="-118.75" font-family="Helvetica,sans-Serif" font-size="10.00">MemoryStats.hpp</text>
</a>
</g>
</g>
<!-- Node30&#45;&gt;Node39 -->
<g id="edge26" class="edge">
<title>Node30&#45;&gt;Node39</title>
<path fill="none" stroke="midnightblue" d="M776.74,-171.17C708.61,-161.29 581.31,-142.82 506.99,-132.04"/>
<polygon fill="midnightblue" stroke="midnightblue" points="507.88,-128.63 497.48,-130.66 506.87,-135.56 507.88,-128.63"/>
</g>
<!-- Node40 -->
<g id="node24" class="node">
<title>Node40</title>
<g id="a_node24"><a xlink:href="_memory_segment_8hpp.html" target="_top" xlink:title=" ">
<polygon fill="white" stroke="red" points="685.47,-113 685.47,-132.25 794.47,-132.25 794.47,-113 685.47,-113"/>
<text xml:space="preserve" text-anchor="middle" x="739.97" y="-118.75" font-family="Helvetica,sans-Serif" font-size="10.00">MemorySegment.hpp</text>
</a>
</g>
</g>
<!-- Node30&#45;&gt;Node40 -->
<g id="edge28" class="edge">
<title>Node30&#45;&gt;Node40</title>
<path fill="none" stroke="midnightblue" d="M809.27,-168.92C796.77,-160.75 778.05,-148.52 763.22,-138.82"/>
<polygon fill="midnightblue" stroke="midnightblue" points="765.25,-135.97 754.96,-133.42 761.42,-141.83 765.25,-135.97"/>
</g>
<!-- Node32&#45;&gt;Node14 -->
<g id="edge18" class="edge">
<title>Node32&#45;&gt;Node14</title>
<path fill="none" stroke="midnightblue" d="M1115.46,-112.54C1156.06,-102.44 1221.22,-86.23 1261.43,-76.22"/>
<polygon fill="midnightblue" stroke="midnightblue" points="1262.23,-79.63 1271.09,-73.82 1260.54,-72.83 1262.23,-79.63"/>
</g>
<!-- Node34&#45;&gt;Node19 -->
<g id="edge21" class="edge">
<title>Node34&#45;&gt;Node19</title>
<path fill="none" stroke="midnightblue" d="M598.58,-112.67C588.43,-104.69 573.34,-92.83 561.16,-83.25"/>
<polygon fill="midnightblue" stroke="midnightblue" points="563.37,-80.53 553.34,-77.1 559.04,-86.03 563.37,-80.53"/>
</g>
<!-- Node36 -->
<g id="node21" class="node">
<title>Node36</title>
<g id="a_node21"><a xlink:href="_array_class_8hpp.html" target="_top" xlink:title=" ">
<polygon fill="white" stroke="red" points="1539.22,-56.75 1539.22,-76 1622.72,-76 1622.72,-56.75 1539.22,-56.75"/>
<text xml:space="preserve" text-anchor="middle" x="1580.97" y="-62.5" font-family="Helvetica,sans-Serif" font-size="10.00">ArrayClass.hpp</text>
</a>
</g>
</g>
<!-- Node35&#45;&gt;Node36 -->
<g id="edge23" class="edge">
<title>Node35&#45;&gt;Node36</title>
<path fill="none" stroke="midnightblue" d="M1404.46,-112.54C1440.07,-103.43 1495.13,-89.34 1534.28,-79.32"/>
<polygon fill="midnightblue" stroke="midnightblue" points="1535.09,-82.73 1543.91,-76.86 1533.35,-75.95 1535.09,-82.73"/>
</g>
<!-- Node36&#45;&gt;Node15 -->
<g id="edge24" class="edge">
<title>Node36&#45;&gt;Node15</title>
<path fill="none" stroke="midnightblue" d="M1591.04,-56.42C1599.84,-48.6 1612.83,-37.05 1623.48,-27.57"/>
<polygon fill="midnightblue" stroke="midnightblue" points="1625.81,-30.18 1630.95,-20.92 1621.16,-24.95 1625.81,-30.18"/>
</g>
<!-- Node39&#45;&gt;Node11 -->
<g id="edge27" class="edge">
<title>Node39&#45;&gt;Node11</title>
<path fill="none" stroke="midnightblue" d="M433.28,-112.67C418.71,-104.34 396.73,-91.79 379.61,-82.02"/>
<polygon fill="midnightblue" stroke="midnightblue" points="381.42,-79.02 371,-77.1 377.94,-85.1 381.42,-79.02"/>
</g>
<!-- Node40&#45;&gt;Node31 -->
<g id="edge29" class="edge">
<title>Node40&#45;&gt;Node31</title>
<path fill="none" stroke="midnightblue" d="M746.91,-112.67C752.66,-105.24 761.01,-94.45 768.12,-85.27"/>
<polygon fill="midnightblue" stroke="midnightblue" points="770.88,-87.41 774.24,-77.36 765.35,-83.13 770.88,-87.41"/>
</g>
<!-- Node24 -->
<g id="node26" class="node">
<title>Node24</title>
<g id="a_node26"><a xlink:href="_flag_set_8hpp.html" target="_top" xlink:title=" ">
<polygon fill="white" stroke="red" points="1153.72,-56.75 1153.72,-76 1222.22,-76 1222.22,-56.75 1153.72,-56.75"/>
<text xml:space="preserve" text-anchor="middle" x="1187.97" y="-62.5" font-family="Helvetica,sans-Serif" font-size="10.00">FlagSet.hpp</text>
</a>
</g>
</g>
<!-- Node44&#45;&gt;Node24 -->
<g id="edge31" class="edge">
<title>Node44&#45;&gt;Node24</title>
<path fill="none" stroke="midnightblue" d="M493.17,-169.17C500.77,-154.48 518.36,-125.16 542.97,-112.5 595.89,-85.28 1003.76,-72.19 1142.18,-68.5"/>
<polygon fill="midnightblue" stroke="midnightblue" points="1142.17,-72 1152.07,-68.24 1141.98,-65 1142.17,-72"/>
</g>
<!-- Node45 -->
<g id="node27" class="node">
<title>Node45</title>
<g id="a_node27"><a xlink:href="_primitive_behaviour_names_8h.html" target="_top" xlink:title=" ">
<polygon fill="white" stroke="black" points="247.22,-113 247.22,-132.25 384.72,-132.25 384.72,-113 247.22,-113"/>
<text xml:space="preserve" text-anchor="middle" x="315.97" y="-118.75" font-family="Helvetica,sans-Serif" font-size="10.00">PrimitiveBehaviourNames.h</text>
</a>
</g>
</g>
<!-- Node44&#45;&gt;Node45 -->
<g id="edge32" class="edge">
<title>Node44&#45;&gt;Node45</title>
<path fill="none" stroke="midnightblue" d="M460.02,-168.79C431.45,-159.84 387.56,-146.07 355.73,-136.09"/>
<polygon fill="midnightblue" stroke="midnightblue" points="357.06,-132.84 346.47,-133.19 354.96,-139.52 357.06,-132.84"/>
</g>
<!-- Node23&#45;&gt;Node24 -->
<g id="edge34" class="edge">
<title>Node23&#45;&gt;Node24</title>
<path fill="none" stroke="midnightblue" d="M1187.97,-112.67C1187.97,-105.87 1187.97,-96.26 1187.97,-87.65"/>
<polygon fill="midnightblue" stroke="midnightblue" points="1191.47,-87.68 1187.97,-77.68 1184.47,-87.68 1191.47,-87.68"/>
</g>
<!-- Node21&#45;&gt;Node14 -->
<g id="edge44" class="edge">
<title>Node21&#45;&gt;Node14</title>
<path fill="none" stroke="midnightblue" d="M1326.79,-225.24C1323.66,-216.22 1318.94,-201.78 1315.97,-189 1307.79,-153.71 1302.11,-111.82 1299.21,-87.55"/>
<polygon fill="midnightblue" stroke="midnightblue" points="1302.71,-87.35 1298.09,-77.81 1295.75,-88.15 1302.71,-87.35"/>
</g>
<!-- Node21&#45;&gt;Node24 -->
<g id="edge43" class="edge">
<title>Node21&#45;&gt;Node24</title>
<path fill="none" stroke="midnightblue" d="M1324.26,-225.06C1310.86,-204.13 1275.83,-151.26 1239.97,-112.5 1230.37,-102.13 1218.55,-91.71 1208.61,-83.51"/>
<polygon fill="midnightblue" stroke="midnightblue" points="1210.94,-80.89 1200.96,-77.34 1206.54,-86.34 1210.94,-80.89"/>
</g>
<!-- Node22 -->
<g id="node31" class="node">
<title>Node22</title>
<g id="a_node31"><a xlink:href="_integer_class_8hpp.html" target="_top" xlink:title=" ">
<polygon fill="white" stroke="black" points="1140.85,-169.25 1140.85,-188.5 1231.1,-188.5 1231.1,-169.25 1140.85,-169.25"/>
<text xml:space="preserve" text-anchor="middle" x="1185.97" y="-175" font-family="Helvetica,sans-Serif" font-size="10.00">IntegerClass.hpp</text>
</a>
</g>
</g>
<!-- Node21&#45;&gt;Node22 -->
<g id="edge37" class="edge">
<title>Node21&#45;&gt;Node22</title>
<path fill="none" stroke="midnightblue" d="M1305.87,-225.04C1282.61,-216.28 1247.15,-202.92 1220.82,-193"/>
<polygon fill="midnightblue" stroke="midnightblue" points="1222.16,-189.77 1211.57,-189.52 1219.69,-196.32 1222.16,-189.77"/>
</g>
<!-- Node26 -->
<g id="node32" class="node">
<title>Node26</title>
<g id="a_node32"><a xlink:href="_string_util_8hpp.html" target="_top" xlink:title=" ">
<polygon fill="white" stroke="black" points="1325.35,-169.25 1325.35,-188.5 1400.6,-188.5 1400.6,-169.25 1325.35,-169.25"/>
<text xml:space="preserve" text-anchor="middle" x="1362.97" y="-175" font-family="Helvetica,sans-Serif" font-size="10.00">StringUtil.hpp</text>
</a>
</g>
</g>
<!-- Node21&#45;&gt;Node26 -->
<g id="edge39" class="edge">
<title>Node21&#45;&gt;Node26</title>
<path fill="none" stroke="midnightblue" d="M1335.42,-225.17C1339.84,-217.9 1346.22,-207.41 1351.73,-198.36"/>
<polygon fill="midnightblue" stroke="midnightblue" points="1354.63,-200.32 1356.84,-189.96 1348.65,-196.68 1354.63,-200.32"/>
</g>
<!-- Node28 -->
<g id="node34" class="node">
<title>Node28</title>
<g id="a_node34"><a xlink:href="_utilities_8hpp.html" target="_top" xlink:title=" ">
<polygon fill="white" stroke="red" points="1498.1,-113 1498.1,-132.25 1565.85,-132.25 1565.85,-113 1498.1,-113"/>
<text xml:space="preserve" text-anchor="middle" x="1531.97" y="-118.75" font-family="Helvetica,sans-Serif" font-size="10.00">Utilities.hpp</text>
</a>
</g>
</g>
<!-- Node21&#45;&gt;Node28 -->
<g id="edge42" class="edge">
<title>Node21&#45;&gt;Node28</title>
<path fill="none" stroke="midnightblue" d="M1346.5,-225.08C1381.51,-205.93 1463.37,-161.15 1505.65,-138.02"/>
<polygon fill="midnightblue" stroke="midnightblue" points="1507.07,-141.23 1514.17,-133.36 1503.71,-135.09 1507.07,-141.23"/>
</g>
<!-- Node22&#45;&gt;Node23 -->
<g id="edge38" class="edge">
<title>Node22&#45;&gt;Node23</title>
<path fill="none" stroke="midnightblue" d="M1186.3,-168.92C1186.55,-162.12 1186.91,-152.51 1187.22,-143.9"/>
<polygon fill="midnightblue" stroke="midnightblue" points="1190.72,-144.05 1187.59,-133.93 1183.73,-143.79 1190.72,-144.05"/>
</g>
<!-- Node27 -->
<g id="node33" class="node">
<title>Node27</title>
<g id="a_node33"><a xlink:title=" ">
<polygon fill="white" stroke="#bfbfbf" points="1431.85,-113 1431.85,-132.25 1480.1,-132.25 1480.1,-113 1431.85,-113"/>
<text xml:space="preserve" text-anchor="middle" x="1455.97" y="-118.75" font-family="Helvetica,sans-Serif" font-size="10.00">ctype.h</text>
</a>
</g>
</g>
<!-- Node26&#45;&gt;Node27 -->
<g id="edge40" class="edge">
<title>Node26&#45;&gt;Node27</title>
<path fill="none" stroke="midnightblue" d="M1378.33,-168.92C1392.6,-160.59 1414.11,-148.04 1430.87,-138.27"/>
<polygon fill="midnightblue" stroke="midnightblue" points="1432.41,-141.42 1439.28,-133.36 1428.88,-135.37 1432.41,-141.42"/>
</g>
<!-- Node26&#45;&gt;Node28 -->
<g id="edge41" class="edge">
<title>Node26&#45;&gt;Node28</title>
<path fill="none" stroke="midnightblue" d="M1391.26,-168.79C1419.04,-159.88 1461.67,-146.19 1492.72,-136.22"/>
<polygon fill="midnightblue" stroke="midnightblue" points="1493.7,-139.59 1502.15,-133.2 1491.56,-132.92 1493.7,-139.59"/>
</g>
<!-- Node48 -->
<g id="node36" class="node">
<title>Node48</title>
<g id="a_node36"><a xlink:href="_activation_base_8hpp.html" target="_top" xlink:title=" ">
<polygon fill="white" stroke="black" points="2305.6,-56.75 2305.6,-76 2406.35,-76 2406.35,-56.75 2305.6,-56.75"/>
<text xml:space="preserve" text-anchor="middle" x="2355.97" y="-62.5" font-family="Helvetica,sans-Serif" font-size="10.00">ActivationBase.hpp</text>
</a>
</g>
</g>
<!-- Node47&#45;&gt;Node48 -->
<g id="edge47" class="edge">
<title>Node47&#45;&gt;Node48</title>
<path fill="none" stroke="midnightblue" d="M2204.99,-231.41C2299.46,-225.86 2493.86,-211.79 2513.97,-189 2555.8,-141.6 2457.53,-99.93 2397.77,-79.94"/>
<polygon fill="midnightblue" stroke="midnightblue" points="2399.14,-76.7 2388.54,-76.93 2396.97,-83.36 2399.14,-76.7"/>
</g>
<!-- Node49 -->
<g id="node37" class="node">
<title>Node49</title>
<g id="a_node37"><a xlink:href="_expression_stack_8hpp.html" target="_top" xlink:title=" ">
<polygon fill="white" stroke="black" points="1533.47,-169.25 1533.47,-188.5 1642.47,-188.5 1642.47,-169.25 1533.47,-169.25"/>
<text xml:space="preserve" text-anchor="middle" x="1587.97" y="-175" font-family="Helvetica,sans-Serif" font-size="10.00">ExpressionStack.hpp</text>
</a>
</g>
</g>
<!-- Node47&#45;&gt;Node49 -->
<g id="edge49" class="edge">
<title>Node47&#45;&gt;Node49</title>
<path fill="none" stroke="midnightblue" d="M2102.93,-230.42C2014.05,-223.77 1824.82,-208.77 1653.98,-189.17"/>
<polygon fill="midnightblue" stroke="midnightblue" points="1654.6,-185.72 1644.26,-188.05 1653.8,-192.68 1654.6,-185.72"/>
</g>
<!-- Node50 -->
<g id="node38" class="node">
<title>Node50</title>
<g id="a_node38"><a xlink:href="_do_block_8hpp.html" target="_top" xlink:title=" ">
<polygon fill="white" stroke="black" points="2560.85,-169.25 2560.85,-188.5 2633.1,-188.5 2633.1,-169.25 2560.85,-169.25"/>
<text xml:space="preserve" text-anchor="middle" x="2596.97" y="-175" font-family="Helvetica,sans-Serif" font-size="10.00">DoBlock.hpp</text>
</a>
</g>
</g>
<!-- Node47&#45;&gt;Node50 -->
<g id="edge51" class="edge">
<title>Node47&#45;&gt;Node50</title>
<path fill="none" stroke="midnightblue" d="M2204.99,-229.36C2280.08,-222.09 2424.69,-207.16 2546.97,-189 2547.79,-188.88 2548.61,-188.75 2549.45,-188.63"/>
<polygon fill="midnightblue" stroke="midnightblue" points="2549.63,-192.14 2558.93,-187.08 2548.5,-185.23 2549.63,-192.14"/>
</g>
<!-- Node53 -->
<g id="node41" class="node">
<title>Node53</title>
<g id="a_node41"><a xlink:href="_rexx_code_8hpp.html" target="_top" xlink:title=" ">
<polygon fill="white" stroke="red" points="2423.35,-169.25 2423.35,-188.5 2504.6,-188.5 2504.6,-169.25 2423.35,-169.25"/>
<text xml:space="preserve" text-anchor="middle" x="2463.97" y="-175" font-family="Helvetica,sans-Serif" font-size="10.00">RexxCode.hpp</text>
</a>
</g>
</g>
<!-- Node47&#45;&gt;Node53 -->
<g id="edge54" class="edge">
<title>Node47&#45;&gt;Node53</title>
<path fill="none" stroke="midnightblue" d="M2205.16,-225.17C2262.4,-215.15 2354.58,-199.02 2412.09,-188.95"/>
<polygon fill="midnightblue" stroke="midnightblue" points="2412.37,-192.46 2421.62,-187.29 2411.17,-185.56 2412.37,-192.46"/>
</g>
<!-- Node83 -->
<g id="node42" class="node">
<title>Node83</title>
<g id="a_node42"><a xlink:href="_activity_manager_8hpp.html" target="_top" xlink:title=" ">
<polygon fill="white" stroke="red" points="2262.72,-169.25 2262.72,-188.5 2367.22,-188.5 2367.22,-169.25 2262.72,-169.25"/>
<text xml:space="preserve" text-anchor="middle" x="2314.97" y="-175" font-family="Helvetica,sans-Serif" font-size="10.00">ActivityManager.hpp</text>
</a>
</g>
</g>
<!-- Node47&#45;&gt;Node83 -->
<g id="edge55" class="edge">
<title>Node47&#45;&gt;Node83</title>
<path fill="none" stroke="midnightblue" d="M2180.92,-225.04C2207.27,-216.16 2247.64,-202.56 2277.19,-192.61"/>
<polygon fill="midnightblue" stroke="midnightblue" points="2278.14,-195.98 2286.5,-189.47 2275.91,-189.34 2278.14,-195.98"/>
</g>
<!-- Node55 -->
<g id="node43" class="node">
<title>Node55</title>
<g id="a_node43"><a xlink:href="_activation_settings_8hpp.html" target="_top" xlink:title=" ">
<polygon fill="white" stroke="red" points="2340.85,-113 2340.85,-132.25 2455.1,-132.25 2455.1,-113 2340.85,-113"/>
<text xml:space="preserve" text-anchor="middle" x="2397.97" y="-118.75" font-family="Helvetica,sans-Serif" font-size="10.00">ActivationSettings.hpp</text>
</a>
</g>
</g>
<!-- Node47&#45;&gt;Node55 -->
<g id="edge64" class="edge">
<title>Node47&#45;&gt;Node55</title>
<path fill="none" stroke="midnightblue" d="M2205.09,-229.63C2262.55,-223.58 2351.1,-210.97 2375.97,-189 2388.88,-177.6 2394.23,-158.37 2396.44,-143.7"/>
<polygon fill="midnightblue" stroke="midnightblue" points="2399.91,-144.13 2397.52,-133.81 2392.95,-143.38 2399.91,-144.13"/>
</g>
<!-- Node92 -->
<g id="node44" class="node">
<title>Node92</title>
<g id="a_node44"><a xlink:title=" ">
<polygon fill="white" stroke="#bfbfbf" points="2172.97,-113 2172.97,-132.25 2284.97,-132.25 2284.97,-113 2172.97,-113"/>
<text xml:space="preserve" text-anchor="middle" x="2228.97" y="-118.75" font-family="Helvetica,sans-Serif" font-size="10.00">SystemInterpreter.hpp</text>
</a>
</g>
</g>
<!-- Node47&#45;&gt;Node92 -->
<g id="edge68" class="edge">
<title>Node47&#45;&gt;Node92</title>
<path fill="none" stroke="midnightblue" d="M2173.26,-225.04C2187.32,-217.41 2205.64,-205.15 2215.97,-189 2224.66,-175.42 2227.74,-157.25 2228.75,-143.52"/>
<polygon fill="midnightblue" stroke="midnightblue" points="2232.23,-144.05 2229.13,-133.92 2225.23,-143.77 2232.23,-144.05"/>
</g>
<!-- Node93 -->
<g id="node45" class="node">
<title>Node93</title>
<g id="a_node45"><a xlink:href="_compound_variable_tail_8hpp.html" target="_top" xlink:title=" ">
<polygon fill="white" stroke="red" points="1849.22,-169.25 1849.22,-188.5 1980.72,-188.5 1980.72,-169.25 1849.22,-169.25"/>
<text xml:space="preserve" text-anchor="middle" x="1914.97" y="-175" font-family="Helvetica,sans-Serif" font-size="10.00">CompoundVariableTail.hpp</text>
</a>
</g>
</g>
<!-- Node47&#45;&gt;Node93 -->
<g id="edge59" class="edge">
<title>Node47&#45;&gt;Node93</title>
<path fill="none" stroke="midnightblue" d="M2113.97,-225.04C2073.38,-215.83 2010.41,-201.54 1966.2,-191.5"/>
<polygon fill="midnightblue" stroke="midnightblue" points="1967.11,-188.12 1956.58,-189.32 1965.56,-194.95 1967.11,-188.12"/>
</g>
<!-- Node47&#45;&gt;Node76 -->
<g id="edge67" class="edge">
<title>Node47&#45;&gt;Node76</title>
<path fill="none" stroke="midnightblue" d="M2102.93,-234.52C2022.86,-233.94 1873.38,-227.55 1839.97,-189 1827.9,-175.07 1839.43,-155.15 1851.14,-140.97"/>
<polygon fill="midnightblue" stroke="midnightblue" points="1853.56,-143.52 1857.61,-133.73 1848.34,-138.85 1853.56,-143.52"/>
</g>
<!-- Node95 -->
<g id="node47" class="node">
<title>Node95</title>
<g id="a_node47"><a xlink:href="_context_class_8hpp.html" target="_top" xlink:title=" ">
<polygon fill="white" stroke="black" points="1660.6,-169.25 1660.6,-188.5 1755.35,-188.5 1755.35,-169.25 1660.6,-169.25"/>
<text xml:space="preserve" text-anchor="middle" x="1707.97" y="-175" font-family="Helvetica,sans-Serif" font-size="10.00">ContextClass.hpp</text>
</a>
</g>
</g>
<!-- Node47&#45;&gt;Node95 -->
<g id="edge61" class="edge">
<title>Node47&#45;&gt;Node95</title>
<path fill="none" stroke="midnightblue" d="M2102.81,-227.9C2019.6,-217.78 1855.39,-197.81 1767.23,-187.08"/>
<polygon fill="midnightblue" stroke="midnightblue" points="1767.69,-183.61 1757.34,-185.88 1766.84,-190.56 1767.69,-183.61"/>
</g>
<!-- Node96 -->
<g id="node48" class="node">
<title>Node96</title>
<g id="a_node48"><a xlink:href="_stem_class_8hpp.html" target="_top" xlink:title=" ">
<polygon fill="white" stroke="red" points="1999.22,-169.25 1999.22,-188.5 2082.72,-188.5 2082.72,-169.25 1999.22,-169.25"/>
<text xml:space="preserve" text-anchor="middle" x="2040.97" y="-175" font-family="Helvetica,sans-Serif" font-size="10.00">StemClass.hpp</text>
</a>
</g>
</g>
<!-- Node47&#45;&gt;Node96 -->
<g id="edge63" class="edge">
<title>Node47&#45;&gt;Node96</title>
<path fill="none" stroke="midnightblue" d="M2135.06,-225.04C2117.38,-216.56 2090.71,-203.75 2070.27,-193.94"/>
<polygon fill="midnightblue" stroke="midnightblue" points="2071.84,-190.81 2061.31,-189.64 2068.81,-197.12 2071.84,-190.81"/>
</g>
<!-- Node75 -->
<g id="node49" class="node">
<title>Node75</title>
<g id="a_node49"><a xlink:href="_base_executable_8hpp.html" target="_top" xlink:title=" ">
<polygon fill="white" stroke="red" points="2100.97,-169.25 2100.97,-188.5 2206.97,-188.5 2206.97,-169.25 2100.97,-169.25"/>
<text xml:space="preserve" text-anchor="middle" x="2153.97" y="-175" font-family="Helvetica,sans-Serif" font-size="10.00">BaseExecutable.hpp</text>
</a>
</g>
</g>
<!-- Node47&#45;&gt;Node75 -->
<g id="edge65" class="edge">
<title>Node47&#45;&gt;Node75</title>
<path fill="none" stroke="midnightblue" d="M2153.97,-225.17C2153.97,-218.37 2153.97,-208.76 2153.97,-200.15"/>
<polygon fill="midnightblue" stroke="midnightblue" points="2157.47,-200.18 2153.97,-190.18 2150.47,-200.18 2157.47,-200.18"/>
</g>
<!-- Node48&#45;&gt;Node15 -->
<g id="edge48" class="edge">
<title>Node48&#45;&gt;Node15</title>
<path fill="none" stroke="midnightblue" d="M2305.19,-61.52C2173.6,-51.52 1822.71,-24.86 1691.98,-14.92"/>
<polygon fill="midnightblue" stroke="midnightblue" points="1692.5,-11.45 1682.27,-14.19 1691.97,-18.43 1692.5,-11.45"/>
</g>
<!-- Node49&#45;&gt;Node36 -->
<g id="edge50" class="edge">
<title>Node49&#45;&gt;Node36</title>
<path fill="none" stroke="midnightblue" d="M1587.4,-168.83C1586.28,-151.18 1583.78,-111.75 1582.25,-87.58"/>
<polygon fill="midnightblue" stroke="midnightblue" points="1585.75,-87.5 1581.63,-77.74 1578.77,-87.95 1585.75,-87.5"/>
</g>
<!-- Node50&#45;&gt;Node51 -->
<g id="edge52" class="edge">
<title>Node50&#45;&gt;Node51</title>
<path fill="none" stroke="midnightblue" d="M2602.26,-168.92C2606.54,-161.65 2612.73,-151.16 2618.07,-142.11"/>
<polygon fill="midnightblue" stroke="midnightblue" points="2620.95,-144.11 2623.02,-133.72 2614.92,-140.56 2620.95,-144.11"/>
</g>
<!-- Node52 -->
<g id="node40" class="node">
<title>Node52</title>
<g id="a_node40"><a xlink:href="_source_location_8hpp.html" target="_top" xlink:title=" ">
<polygon fill="white" stroke="black" points="2577.85,-56.75 2577.85,-76 2680.1,-76 2680.1,-56.75 2577.85,-56.75"/>
<text xml:space="preserve" text-anchor="middle" x="2628.97" y="-62.5" font-family="Helvetica,sans-Serif" font-size="10.00">SourceLocation.hpp</text>
</a>
</g>
</g>
<!-- Node51&#45;&gt;Node52 -->
<g id="edge53" class="edge">
<title>Node51&#45;&gt;Node52</title>
<path fill="none" stroke="midnightblue" d="M2628.97,-112.67C2628.97,-105.87 2628.97,-96.26 2628.97,-87.65"/>
<polygon fill="midnightblue" stroke="midnightblue" points="2632.47,-87.68 2628.97,-77.68 2625.47,-87.68 2632.47,-87.68"/>
</g>
<!-- Node83&#45;&gt;Node17 -->
<g id="edge58" class="edge">
<title>Node83&#45;&gt;Node17</title>
<path fill="none" stroke="midnightblue" d="M2314.85,-169.17C2314.16,-155.03 2310.61,-127.16 2293.97,-112.5 2267.55,-89.23 2174.92,-77.22 2112.23,-71.62"/>
<polygon fill="midnightblue" stroke="midnightblue" points="2112.66,-68.14 2102.4,-70.77 2112.07,-75.12 2112.66,-68.14"/>
</g>
<!-- Node83&#45;&gt;Node55 -->
<g id="edge56" class="edge">
<title>Node83&#45;&gt;Node55</title>
<path fill="none" stroke="midnightblue" d="M2328.68,-168.92C2341.17,-160.75 2359.89,-148.52 2374.72,-138.82"/>
<polygon fill="midnightblue" stroke="midnightblue" points="2376.52,-141.83 2382.98,-133.42 2372.69,-135.97 2376.52,-141.83"/>
</g>
<!-- Node83&#45;&gt;Node92 -->
<g id="edge57" class="edge">
<title>Node83&#45;&gt;Node92</title>
<path fill="none" stroke="midnightblue" d="M2300.77,-168.92C2287.7,-160.67 2268.06,-148.28 2252.62,-138.54"/>
<polygon fill="midnightblue" stroke="midnightblue" points="2254.8,-135.78 2244.47,-133.4 2251.06,-141.7 2254.8,-135.78"/>
</g>
<!-- Node93&#45;&gt;Node76 -->
<g id="edge60" class="edge">
<title>Node93&#45;&gt;Node76</title>
<path fill="none" stroke="midnightblue" d="M1907.21,-168.92C1900.64,-161.33 1891.03,-150.24 1882.97,-140.93"/>
<polygon fill="midnightblue" stroke="midnightblue" points="1885.77,-138.83 1876.58,-133.56 1880.48,-143.41 1885.77,-138.83"/>
</g>
<!-- Node95&#45;&gt;Node12 -->
<g id="edge62" class="edge">
<title>Node95&#45;&gt;Node12</title>
<path fill="none" stroke="midnightblue" d="M1705,-168.92C1702.69,-161.96 1699.41,-152.07 1696.5,-143.3"/>
<polygon fill="midnightblue" stroke="midnightblue" points="1699.84,-142.24 1693.36,-133.85 1693.19,-144.45 1699.84,-142.24"/>
</g>
<!-- Node75&#45;&gt;Node76 -->
<g id="edge66" class="edge">
<title>Node75&#45;&gt;Node76</title>
<path fill="none" stroke="midnightblue" d="M2106.1,-168.79C2056.92,-159.47 1980.25,-144.92 1927.26,-134.87"/>
<polygon fill="midnightblue" stroke="midnightblue" points="1927.96,-131.44 1917.48,-133.02 1926.66,-138.32 1927.96,-131.44"/>
</g>
</g>
</svg>
