<?xml version="1.0" encoding="UTF-8" standalone="no"?>
<!DOCTYPE svg PUBLIC "-//W3C//DTD SVG 1.1//EN"
 "http://www.w3.org/Graphics/SVG/1.1/DTD/svg11.dtd">
<!-- Generated by graphviz version 13.1.0 (20250701.0955)
 -->
<!-- Title: ExpressionVariable.hpp Pages: 1 -->
<svg width="1029pt" height="85pt"
 viewBox="0.00 0.00 1029.00 85.00" xmlns="http://www.w3.org/2000/svg" xmlns:xlink="http://www.w3.org/1999/xlink">
<g id="graph0" class="graph" transform="scale(1 1) rotate(0) translate(4 80.5)">
<title>ExpressionVariable.hpp</title>
<polygon fill="white" stroke="none" points="-4,4 -4,-80.5 1024.75,-80.5 1024.75,4 -4,4"/>
<!-- Node1 -->
<g id="node1" class="node">
<title>Node1</title>
<g id="a_node1"><a xlink:title=" ">
<polygon fill="#bfbfbf" stroke="black" points="404.12,-56.75 404.12,-76 522.12,-76 522.12,-56.75 404.12,-56.75"/>
<text xml:space="preserve" text-anchor="middle" x="463.12" y="-62.5" font-family="Helvetica,sans-Serif" font-size="10.00">ExpressionVariable.hpp</text>
</a>
</g>
</g>
<!-- Node2 -->
<g id="node2" class="node">
<title>Node2</title>
<g id="a_node2"><a xlink:href="_setup_8cpp.html" target="_top" xlink:title=" ">
<polygon fill="white" stroke="black" points="0,-0.5 0,-19.75 60.25,-19.75 60.25,-0.5 0,-0.5"/>
<text xml:space="preserve" text-anchor="middle" x="30.12" y="-6.25" font-family="Helvetica,sans-Serif" font-size="10.00">Setup.cpp</text>
</a>
</g>
</g>
<!-- Node1&#45;&gt;Node2 -->
<g id="edge1" class="edge">
<title>Node1&#45;&gt;Node2</title>
<path fill="none" stroke="midnightblue" d="M392.46,-59.77C313.34,-52.91 181.46,-39.76 69.12,-20.25 66.38,-19.77 63.55,-19.22 60.71,-18.63"/>
<polygon fill="midnightblue" stroke="midnightblue" points="391.98,-63.24 402.24,-60.6 392.57,-56.26 391.98,-63.24"/>
</g>
<!-- Node3 -->
<g id="node3" class="node">
<title>Node3</title>
<g id="a_node3"><a xlink:href="_compound_variable_tail_8cpp.html" target="_top" xlink:title=" ">
<polygon fill="white" stroke="black" points="78.38,-0.5 78.38,-19.75 209.88,-19.75 209.88,-0.5 78.38,-0.5"/>
<text xml:space="preserve" text-anchor="middle" x="144.12" y="-6.25" font-family="Helvetica,sans-Serif" font-size="10.00">CompoundVariableTail.cpp</text>
</a>
</g>
</g>
<!-- Node1&#45;&gt;Node3 -->
<g id="edge2" class="edge">
<title>Node1&#45;&gt;Node3</title>
<path fill="none" stroke="midnightblue" d="M398.66,-54.41C339.57,-44.36 253.08,-29.65 197.69,-20.23"/>
<polygon fill="midnightblue" stroke="midnightblue" points="397.79,-57.81 408.24,-56.04 398.97,-50.91 397.79,-57.81"/>
</g>
<!-- Node4 -->
<g id="node4" class="node">
<title>Node4</title>
<g id="a_node4"><a xlink:href="_language_parser_8cpp.html" target="_top" xlink:title=" ">
<polygon fill="white" stroke="black" points="227.88,-0.5 227.88,-19.75 332.38,-19.75 332.38,-0.5 227.88,-0.5"/>
<text xml:space="preserve" text-anchor="middle" x="280.12" y="-6.25" font-family="Helvetica,sans-Serif" font-size="10.00">LanguageParser.cpp</text>
</a>
</g>
</g>
<!-- Node1&#45;&gt;Node4 -->
<g id="edge3" class="edge">
<title>Node1&#45;&gt;Node4</title>
<path fill="none" stroke="midnightblue" d="M421.62,-53.07C387.95,-43.09 341.24,-29.24 310.86,-20.23"/>
<polygon fill="midnightblue" stroke="midnightblue" points="420.46,-56.38 431.04,-55.86 422.45,-49.67 420.46,-56.38"/>
</g>
<!-- Node5 -->
<g id="node5" class="node">
<title>Node5</title>
<g id="a_node5"><a xlink:href="_variable_dictionary_8cpp.html" target="_top" xlink:title=" ">
<polygon fill="white" stroke="black" points="350.12,-0.5 350.12,-19.75 462.12,-19.75 462.12,-0.5 350.12,-0.5"/>
<text xml:space="preserve" text-anchor="middle" x="406.12" y="-6.25" font-family="Helvetica,sans-Serif" font-size="10.00">VariableDictionary.cpp</text>
</a>
</g>
</g>
<!-- Node1&#45;&gt;Node5 -->
<g id="edge4" class="edge">
<title>Node1&#45;&gt;Node5</title>
<path fill="none" stroke="midnightblue" d="M445.64,-48.73C435.65,-39.22 423.52,-27.68 415.36,-19.92"/>
<polygon fill="midnightblue" stroke="midnightblue" points="442.96,-51.01 452.62,-55.37 447.79,-45.94 442.96,-51.01"/>
</g>
<!-- Node6 -->
<g id="node6" class="node">
<title>Node6</title>
<g id="a_node6"><a xlink:href="_c_p_p_code_8cpp.html" target="_top" xlink:title=" ">
<polygon fill="white" stroke="black" points="480.62,-0.5 480.62,-19.75 559.62,-19.75 559.62,-0.5 480.62,-0.5"/>
<text xml:space="preserve" text-anchor="middle" x="520.12" y="-6.25" font-family="Helvetica,sans-Serif" font-size="10.00">CPPCode.cpp</text>
</a>
</g>
</g>
<!-- Node1&#45;&gt;Node6 -->
<g id="edge5" class="edge">
<title>Node1&#45;&gt;Node6</title>
<path fill="none" stroke="midnightblue" d="M480.61,-48.73C490.6,-39.22 502.73,-27.68 510.89,-19.92"/>
<polygon fill="midnightblue" stroke="midnightblue" points="478.46,-45.94 473.63,-55.37 483.29,-51.01 478.46,-45.94"/>
</g>
<!-- Node7 -->
<g id="node7" class="node">
<title>Node7</title>
<g id="a_node7"><a xlink:href="_expression_compound_variable_8cpp.html" target="_top" xlink:title=" ">
<polygon fill="white" stroke="black" points="577.5,-0.5 577.5,-19.75 742.75,-19.75 742.75,-0.5 577.5,-0.5"/>
<text xml:space="preserve" text-anchor="middle" x="660.12" y="-6.25" font-family="Helvetica,sans-Serif" font-size="10.00">ExpressionCompoundVariable.cpp</text>
</a>
</g>
</g>
<!-- Node1&#45;&gt;Node7 -->
<g id="edge6" class="edge">
<title>Node1&#45;&gt;Node7</title>
<path fill="none" stroke="midnightblue" d="M506.87,-53.33C543.18,-43.33 594.05,-29.32 627.04,-20.23"/>
<polygon fill="midnightblue" stroke="midnightblue" points="506.27,-49.86 497.56,-55.89 508.13,-56.61 506.27,-49.86"/>
</g>
<!-- Node8 -->
<g id="node8" class="node">
<title>Node8</title>
<g id="a_node8"><a xlink:href="_expression_variable_8cpp.html" target="_top" xlink:title=" ">
<polygon fill="white" stroke="black" points="761.12,-0.5 761.12,-19.75 879.12,-19.75 879.12,-0.5 761.12,-0.5"/>
<text xml:space="preserve" text-anchor="middle" x="820.12" y="-6.25" font-family="Helvetica,sans-Serif" font-size="10.00">ExpressionVariable.cpp</text>
</a>
</g>
</g>
<!-- Node1&#45;&gt;Node8 -->
<g id="edge7" class="edge">
<title>Node1&#45;&gt;Node8</title>
<path fill="none" stroke="midnightblue" d="M533.66,-54.66C599.98,-44.58 698.16,-29.66 760.63,-20.17"/>
<polygon fill="midnightblue" stroke="midnightblue" points="533.33,-51.17 523.97,-56.13 534.39,-58.09 533.33,-51.17"/>
</g>
<!-- Node9 -->
<g id="node9" class="node">
<title>Node9</title>
<g id="a_node9"><a xlink:href="_virtual_function_table_8cpp.html" target="_top" xlink:title=" ">
<polygon fill="white" stroke="black" points="897.5,-0.5 897.5,-19.75 1020.75,-19.75 1020.75,-0.5 897.5,-0.5"/>
<text xml:space="preserve" text-anchor="middle" x="959.12" y="-6.25" font-family="Helvetica,sans-Serif" font-size="10.00">VirtualFunctionTable.cpp</text>
</a>
</g>
</g>
<!-- Node1&#45;&gt;Node9 -->
<g id="edge8" class="edge">
<title>Node1&#45;&gt;Node9</title>
<path fill="none" stroke="midnightblue" d="M533.53,-58.38C617.88,-49.89 763.42,-34.88 888.12,-20.25 891.09,-19.9 894.12,-19.54 897.18,-19.17"/>
<polygon fill="midnightblue" stroke="midnightblue" points="533.41,-54.87 523.81,-59.36 534.1,-61.84 533.41,-54.87"/>
</g>
</g>
</svg>
