<?xml version="1.0" encoding="UTF-8" standalone="no"?>
<!DOCTYPE svg PUBLIC "-//W3C//DTD SVG 1.1//EN"
 "http://www.w3.org/Graphics/SVG/1.1/DTD/svg11.dtd">
<!-- Generated by graphviz version 13.1.0 (20250701.0955)
 -->
<!-- Title: ExternalFileBuffer.hpp Pages: 1 -->
<svg width="433pt" height="197pt"
 viewBox="0.00 0.00 433.00 197.00" xmlns="http://www.w3.org/2000/svg" xmlns:xlink="http://www.w3.org/1999/xlink">
<g id="graph0" class="graph" transform="scale(1 1) rotate(0) translate(4 193)">
<title>ExternalFileBuffer.hpp</title>
<polygon fill="white" stroke="none" points="-4,4 -4,-193 428.75,-193 428.75,4 -4,4"/>
<!-- Node1 -->
<g id="node1" class="node">
<title>Node1</title>
<g id="a_node1"><a xlink:title=" ">
<polygon fill="#bfbfbf" stroke="black" points="105.62,-169.25 105.62,-188.5 217.62,-188.5 217.62,-169.25 105.62,-169.25"/>
<text xml:space="preserve" text-anchor="middle" x="161.62" y="-175" font-family="Helvetica,sans-Serif" font-size="10.00">ExternalFileBuffer.hpp</text>
</a>
</g>
</g>
<!-- Node2 -->
<g id="node2" class="node">
<title>Node2</title>
<g id="a_node2"><a xlink:href="_file_name_buffer_8hpp.html" target="_top" xlink:title=" ">
<polygon fill="white" stroke="black" points="59.5,-113 59.5,-132.25 161.75,-132.25 161.75,-113 59.5,-113"/>
<text xml:space="preserve" text-anchor="middle" x="110.62" y="-118.75" font-family="Helvetica,sans-Serif" font-size="10.00">FileNameBuffer.hpp</text>
</a>
</g>
</g>
<!-- Node1&#45;&gt;Node2 -->
<g id="edge1" class="edge">
<title>Node1&#45;&gt;Node2</title>
<path fill="none" stroke="midnightblue" d="M153.2,-168.92C146,-161.25 135.43,-150.01 126.62,-140.64"/>
<polygon fill="midnightblue" stroke="midnightblue" points="129.33,-138.41 119.93,-133.52 124.23,-143.2 129.33,-138.41"/>
</g>
<!-- Node5 -->
<g id="node5" class="node">
<title>Node5</title>
<g id="a_node5"><a xlink:href="oorexxapi_8h.html" target="_top" xlink:title=" ">
<polygon fill="white" stroke="black" points="179.5,-113 179.5,-132.25 245.75,-132.25 245.75,-113 179.5,-113"/>
<text xml:space="preserve" text-anchor="middle" x="212.62" y="-118.75" font-family="Helvetica,sans-Serif" font-size="10.00">oorexxapi.h</text>
</a>
</g>
</g>
<!-- Node1&#45;&gt;Node5 -->
<g id="edge4" class="edge">
<title>Node1&#45;&gt;Node5</title>
<path fill="none" stroke="midnightblue" d="M170.05,-168.92C177.25,-161.25 187.82,-150.01 196.63,-140.64"/>
<polygon fill="midnightblue" stroke="midnightblue" points="199.02,-143.2 203.32,-133.52 193.92,-138.41 199.02,-143.2"/>
</g>
<!-- Node3 -->
<g id="node3" class="node">
<title>Node3</title>
<g id="a_node3"><a xlink:title=" ">
<polygon fill="white" stroke="#bfbfbf" points="0,-56.75 0,-76 45.25,-76 45.25,-56.75 0,-56.75"/>
<text xml:space="preserve" text-anchor="middle" x="22.62" y="-62.5" font-family="Helvetica,sans-Serif" font-size="10.00">cstring</text>
</a>
</g>
</g>
<!-- Node2&#45;&gt;Node3 -->
<g id="edge2" class="edge">
<title>Node2&#45;&gt;Node3</title>
<path fill="none" stroke="midnightblue" d="M96.09,-112.67C82.72,-104.42 62.62,-92.03 46.82,-82.29"/>
<polygon fill="midnightblue" stroke="midnightblue" points="48.82,-79.41 38.47,-77.14 45.14,-85.37 48.82,-79.41"/>
</g>
<!-- Node4 -->
<g id="node4" class="node">
<title>Node4</title>
<g id="a_node4"><a xlink:title=" ">
<polygon fill="white" stroke="#bfbfbf" points="62.88,-56.75 62.88,-76 164.38,-76 164.38,-56.75 62.88,-56.75"/>
<text xml:space="preserve" text-anchor="middle" x="113.62" y="-62.5" font-family="Helvetica,sans-Serif" font-size="10.00">SysFileSystem.hpp</text>
</a>
</g>
</g>
<!-- Node2&#45;&gt;Node4 -->
<g id="edge3" class="edge">
<title>Node2&#45;&gt;Node4</title>
<path fill="none" stroke="midnightblue" d="M111.12,-112.67C111.5,-105.87 112.03,-96.26 112.5,-87.65"/>
<polygon fill="midnightblue" stroke="midnightblue" points="116,-87.86 113.06,-77.68 109.01,-87.47 116,-87.86"/>
</g>
<!-- Node6 -->
<g id="node6" class="node">
<title>Node6</title>
<g id="a_node6"><a xlink:href="rexx_8h.html" target="_top" xlink:title=" ">
<polygon fill="white" stroke="black" points="188.12,-56.75 188.12,-76 231.12,-76 231.12,-56.75 188.12,-56.75"/>
<text xml:space="preserve" text-anchor="middle" x="209.62" y="-62.5" font-family="Helvetica,sans-Serif" font-size="10.00">rexx.h</text>
</a>
</g>
</g>
<!-- Node5&#45;&gt;Node6 -->
<g id="edge5" class="edge">
<title>Node5&#45;&gt;Node6</title>
<path fill="none" stroke="midnightblue" d="M212.13,-112.67C211.75,-105.87 211.22,-96.26 210.75,-87.65"/>
<polygon fill="midnightblue" stroke="midnightblue" points="214.24,-87.47 210.19,-77.68 207.25,-87.86 214.24,-87.47"/>
</g>
<!-- Node11 -->
<g id="node11" class="node">
<title>Node11</title>
<g id="a_node11"><a xlink:href="oorexxerrors_8h.html" target="_top" xlink:title=" ">
<polygon fill="white" stroke="black" points="249.5,-56.75 249.5,-76 327.75,-76 327.75,-56.75 249.5,-56.75"/>
<text xml:space="preserve" text-anchor="middle" x="288.62" y="-62.5" font-family="Helvetica,sans-Serif" font-size="10.00">oorexxerrors.h</text>
</a>
</g>
</g>
<!-- Node5&#45;&gt;Node11 -->
<g id="edge10" class="edge">
<title>Node5&#45;&gt;Node11</title>
<path fill="none" stroke="midnightblue" d="M225.17,-112.67C236.51,-104.58 253.43,-92.5 266.94,-82.85"/>
<polygon fill="midnightblue" stroke="midnightblue" points="268.72,-85.88 274.82,-77.23 264.65,-80.19 268.72,-85.88"/>
</g>
<!-- Node7 -->
<g id="node7" class="node">
<title>Node7</title>
<g id="a_node7"><a xlink:title=" ">
<polygon fill="white" stroke="#bfbfbf" points="22.75,-0.5 22.75,-19.75 102.5,-19.75 102.5,-0.5 22.75,-0.5"/>
<text xml:space="preserve" text-anchor="middle" x="62.62" y="-6.25" font-family="Helvetica,sans-Serif" font-size="10.00">rexxapitypes.h</text>
</a>
</g>
</g>
<!-- Node6&#45;&gt;Node7 -->
<g id="edge6" class="edge">
<title>Node6&#45;&gt;Node7</title>
<path fill="none" stroke="midnightblue" d="M187.93,-57.37C164.1,-48.58 125.49,-34.32 97.42,-23.96"/>
<polygon fill="midnightblue" stroke="midnightblue" points="98.87,-20.77 88.27,-20.59 96.44,-27.34 98.87,-20.77"/>
</g>
<!-- Node8 -->
<g id="node8" class="node">
<title>Node8</title>
<g id="a_node8"><a xlink:href="rexxapidefs_8h.html" target="_top" xlink:title=" ">
<polygon fill="white" stroke="black" points="120.38,-0.5 120.38,-19.75 194.88,-19.75 194.88,-0.5 120.38,-0.5"/>
<text xml:space="preserve" text-anchor="middle" x="157.62" y="-6.25" font-family="Helvetica,sans-Serif" font-size="10.00">rexxapidefs.h</text>
</a>
</g>
</g>
<!-- Node6&#45;&gt;Node8 -->
<g id="edge7" class="edge">
<title>Node6&#45;&gt;Node8</title>
<path fill="none" stroke="midnightblue" d="M201.04,-56.42C193.69,-48.75 182.92,-37.51 173.94,-28.14"/>
<polygon fill="midnightblue" stroke="midnightblue" points="176.55,-25.81 167.1,-21.01 171.49,-30.65 176.55,-25.81"/>
</g>
<!-- Node9 -->
<g id="node9" class="node">
<title>Node9</title>
<g id="a_node9"><a xlink:title=" ">
<polygon fill="white" stroke="#bfbfbf" points="213.12,-0.5 213.12,-19.75 310.12,-19.75 310.12,-0.5 213.12,-0.5"/>
<text xml:space="preserve" text-anchor="middle" x="261.62" y="-6.25" font-family="Helvetica,sans-Serif" font-size="10.00">rexxplatformdefs.h</text>
</a>
</g>
</g>
<!-- Node6&#45;&gt;Node9 -->
<g id="edge8" class="edge">
<title>Node6&#45;&gt;Node9</title>
<path fill="none" stroke="midnightblue" d="M218.21,-56.42C225.56,-48.75 236.33,-37.51 245.31,-28.14"/>
<polygon fill="midnightblue" stroke="midnightblue" points="247.76,-30.65 252.15,-21.01 242.7,-25.81 247.76,-30.65"/>
</g>
<!-- Node10 -->
<g id="node10" class="node">
<title>Node10</title>
<g id="a_node10"><a xlink:title=" ">
<polygon fill="white" stroke="#bfbfbf" points="328.5,-0.5 328.5,-19.75 424.75,-19.75 424.75,-0.5 328.5,-0.5"/>
<text xml:space="preserve" text-anchor="middle" x="376.62" y="-6.25" font-family="Helvetica,sans-Serif" font-size="10.00">rexxplatformapis.h</text>
</a>
</g>
</g>
<!-- Node6&#45;&gt;Node10 -->
<g id="edge9" class="edge">
<title>Node6&#45;&gt;Node10</title>
<path fill="none" stroke="midnightblue" d="M231.46,-58.28C258.46,-49.51 304.92,-34.42 338,-23.67"/>
<polygon fill="midnightblue" stroke="midnightblue" points="338.79,-27.1 347.22,-20.68 336.63,-20.44 338.79,-27.1"/>
</g>
</g>
</svg>
