<?xml version="1.0" encoding="UTF-8" standalone="no"?>
<!DOCTYPE svg PUBLIC "-//W3C//DTD SVG 1.1//EN"
 "http://www.w3.org/Graphics/SVG/1.1/DTD/svg11.dtd">
<!-- Generated by graphviz version 13.1.0 (20250701.0955)
 -->
<!-- Title: IndirectVariableReference.hpp Pages: 1 -->
<svg width="422pt" height="85pt"
 viewBox="0.00 0.00 422.00 85.00" xmlns="http://www.w3.org/2000/svg" xmlns:xlink="http://www.w3.org/1999/xlink">
<g id="graph0" class="graph" transform="scale(1 1) rotate(0) translate(4 80.5)">
<title>IndirectVariableReference.hpp</title>
<polygon fill="white" stroke="none" points="-4,4 -4,-80.5 417.75,-80.5 417.75,4 -4,4"/>
<!-- Node1 -->
<g id="node1" class="node">
<title>Node1</title>
<g id="a_node1"><a xlink:title=" ">
<polygon fill="#bfbfbf" stroke="black" points="125.88,-56.75 125.88,-76 272.38,-76 272.38,-56.75 125.88,-56.75"/>
<text xml:space="preserve" text-anchor="middle" x="199.12" y="-62.5" font-family="Helvetica,sans-Serif" font-size="10.00">IndirectVariableReference.hpp</text>
</a>
</g>
</g>
<!-- Node2 -->
<g id="node2" class="node">
<title>Node2</title>
<g id="a_node2"><a xlink:href="_instruction_parser_8cpp.html" target="_top" xlink:title=" ">
<polygon fill="white" stroke="black" points="0,-0.5 0,-19.75 108.25,-19.75 108.25,-0.5 0,-0.5"/>
<text xml:space="preserve" text-anchor="middle" x="54.12" y="-6.25" font-family="Helvetica,sans-Serif" font-size="10.00">InstructionParser.cpp</text>
</a>
</g>
</g>
<!-- Node1&#45;&gt;Node2 -->
<g id="edge1" class="edge">
<title>Node1&#45;&gt;Node2</title>
<path fill="none" stroke="midnightblue" d="M164.13,-52.28C137.64,-42.37 101.92,-29.01 78.47,-20.23"/>
<polygon fill="midnightblue" stroke="midnightblue" points="162.85,-55.54 173.44,-55.76 165.3,-48.98 162.85,-55.54"/>
</g>
<!-- Node3 -->
<g id="node3" class="node">
<title>Node3</title>
<g id="a_node3"><a xlink:href="_indirect_variable_reference_8cpp.html" target="_top" xlink:title=" ">
<polygon fill="white" stroke="black" points="125.88,-0.5 125.88,-19.75 272.38,-19.75 272.38,-0.5 125.88,-0.5"/>
<text xml:space="preserve" text-anchor="middle" x="199.12" y="-6.25" font-family="Helvetica,sans-Serif" font-size="10.00">IndirectVariableReference.cpp</text>
</a>
</g>
</g>
<!-- Node1&#45;&gt;Node3 -->
<g id="edge2" class="edge">
<title>Node1&#45;&gt;Node3</title>
<path fill="none" stroke="midnightblue" d="M199.12,-45.19C199.12,-36.48 199.12,-26.74 199.12,-19.92"/>
<polygon fill="midnightblue" stroke="midnightblue" points="195.63,-44.9 199.13,-54.9 202.63,-44.9 195.63,-44.9"/>
</g>
<!-- Node4 -->
<g id="node4" class="node">
<title>Node4</title>
<g id="a_node4"><a xlink:href="_virtual_function_table_8cpp.html" target="_top" xlink:title=" ">
<polygon fill="white" stroke="black" points="290.5,-0.5 290.5,-19.75 413.75,-19.75 413.75,-0.5 290.5,-0.5"/>
<text xml:space="preserve" text-anchor="middle" x="352.12" y="-6.25" font-family="Helvetica,sans-Serif" font-size="10.00">VirtualFunctionTable.cpp</text>
</a>
</g>
</g>
<!-- Node1&#45;&gt;Node4 -->
<g id="edge3" class="edge">
<title>Node1&#45;&gt;Node4</title>
<path fill="none" stroke="midnightblue" d="M235.31,-52.55C263.33,-42.61 301.47,-29.09 326.43,-20.23"/>
<polygon fill="midnightblue" stroke="midnightblue" points="234.42,-49.15 226.16,-55.79 236.76,-55.75 234.42,-49.15"/>
</g>
</g>
</svg>
