<?xml version="1.0" encoding="UTF-8" standalone="no"?>
<!DOCTYPE svg PUBLIC "-//W3C//DTD SVG 1.1//EN"
 "http://www.w3.org/Graphics/SVG/1.1/DTD/svg11.dtd">
<!-- Generated by graphviz version 13.1.0 (20250701.0955)
 -->
<!-- Title: KeywordConstants.cpp Pages: 1 -->
<!--zoomable 591 -->
<svg id="main" version="1.1" xmlns="http://www.w3.org/2000/svg" xmlns:xlink="http://www.w3.org/1999/xlink" xml:space="preserve" onload="init(evt)">
<style type="text/css"><![CDATA[
.edge:hover path { stroke: red; }
.edge:hover polygon { stroke: red; fill: red; }
]]></style>
<script type="text/javascript"><![CDATA[
var edges = document.getElementsByTagName('g');
if (edges && edges.length) {
  for (var i=0;i<edges.length;i++) {
    if (edges[i].id.substr(0,4)=='edge') {
      edges[i].setAttribute('class','edge');
    }
  }
}
]]></script>
        <defs>
                <circle id="rim" cx="0" cy="0" r="7"/>
                <circle id="rim2" cx="0" cy="0" r="3.5"/>
                <g id="zoomPlus">
                        <use xlink:href="#rim" fill="#404040">
                                <set attributeName="fill" to="#808080" begin="zoomplus.mouseover" end="zoomplus.mouseout"/>
                        </use>
                        <path d="M-4,0h8M0,-4v8" fill="none" stroke="white" stroke-width="1.5" pointer-events="none"/>
                </g>
                <g id="zoomMin">
                        <use xlink:href="#rim" fill="#404040">
                                <set attributeName="fill" to="#808080" begin="zoomminus.mouseover" end="zoomminus.mouseout"/>
                        </use>
                        <path d="M-4,0h8" fill="none" stroke="white" stroke-width="1.5" pointer-events="none"/>
                </g>
                <g id="dirArrow">
                        <path fill="none" stroke="white" stroke-width="1.5" d="M0,-3.0v7 M-2.5,-0.5L0,-3.0L2.5,-0.5"/>
                </g>
               <g id="resetDef">
                       <use xlink:href="#rim2" fill="#404040">
                               <set attributeName="fill" to="#808080" begin="reset.mouseover" end="reset.mouseout"/>
                       </use>
               </g>
        </defs>

<script type="text/javascript">
var viewWidth = 1519;
var viewHeight = 591;
var sectionId = 'dynsection-0';
</script>
<script xlink:href="svgpan.js"/>
<svg id="graph" class="graph">
<g id="viewport">
<title>KeywordConstants.cpp</title>
<polygon fill="white" stroke="none" points="-4,4 -4,-586.75 1515.25,-586.75 1515.25,4 -4,4"/>
<!-- Node1 -->
<g id="node1" class="node">
<title>Node1</title>
<g id="a_node1"><a xlink:title=" ">
<polygon fill="#bfbfbf" stroke="black" points="870,-563 870,-582.25 988,-582.25 988,-563 870,-563"/>
<text xml:space="preserve" text-anchor="middle" x="929" y="-568.75" font-family="Helvetica,sans-Serif" font-size="10.00">KeywordConstants.cpp</text>
</a>
</g>
</g>
<!-- Node2 -->
<g id="node2" class="node">
<title>Node2</title>
<g id="a_node2"><a xlink:href="_rexx_core_8h.html" target="_top" xlink:title=" ">
<polygon fill="white" stroke="black" points="853.75,-506.75 853.75,-526 922.25,-526 922.25,-506.75 853.75,-506.75"/>
<text xml:space="preserve" text-anchor="middle" x="888" y="-512.5" font-family="Helvetica,sans-Serif" font-size="10.00">RexxCore.h</text>
</a>
</g>
</g>
<!-- Node1&#45;&gt;Node2 -->
<g id="edge1" class="edge">
<title>Node1&#45;&gt;Node2</title>
<path fill="none" stroke="midnightblue" d="M922.23,-562.67C916.62,-555.24 908.46,-544.45 901.52,-535.27"/>
<polygon fill="midnightblue" stroke="midnightblue" points="904.38,-533.24 895.56,-527.37 898.79,-537.46 904.38,-533.24"/>
</g>
<!-- Node47 -->
<g id="node47" class="node">
<title>Node47</title>
<g id="a_node47"><a xlink:href="_token_8hpp.html" target="_top" xlink:title=" ">
<polygon fill="white" stroke="black" points="1139.5,-506.75 1139.5,-526 1200.5,-526 1200.5,-506.75 1139.5,-506.75"/>
<text xml:space="preserve" text-anchor="middle" x="1170" y="-512.5" font-family="Helvetica,sans-Serif" font-size="10.00">Token.hpp</text>
</a>
</g>
</g>
<!-- Node1&#45;&gt;Node47 -->
<g id="edge61" class="edge">
<title>Node1&#45;&gt;Node47</title>
<path fill="none" stroke="midnightblue" d="M969.34,-562.54C1013.34,-552.64 1083.46,-536.86 1128.08,-526.81"/>
<polygon fill="midnightblue" stroke="midnightblue" points="1128.65,-530.27 1137.64,-524.66 1127.12,-523.44 1128.65,-530.27"/>
</g>
<!-- Node3 -->
<g id="node3" class="node">
<title>Node3</title>
<g id="a_node3"><a xlink:href="oorexxapi_8h.html" target="_top" xlink:title=" ">
<polygon fill="white" stroke="black" points="1108.88,-450.5 1108.88,-469.75 1175.12,-469.75 1175.12,-450.5 1108.88,-450.5"/>
<text xml:space="preserve" text-anchor="middle" x="1142" y="-456.25" font-family="Helvetica,sans-Serif" font-size="10.00">oorexxapi.h</text>
</a>
</g>
</g>
<!-- Node2&#45;&gt;Node3 -->
<g id="edge2" class="edge">
<title>Node2&#45;&gt;Node3</title>
<path fill="none" stroke="midnightblue" d="M922.52,-508C967.95,-498.3 1047.86,-481.23 1097.7,-470.59"/>
<polygon fill="midnightblue" stroke="midnightblue" points="1098.24,-474.05 1107.29,-468.54 1096.78,-467.21 1098.24,-474.05"/>
</g>
<!-- Node10 -->
<g id="node10" class="node">
<title>Node10</title>
<g id="a_node10"><a xlink:title=" ">
<polygon fill="white" stroke="#bfbfbf" points="1193.25,-450.5 1193.25,-469.75 1300.75,-469.75 1300.75,-450.5 1193.25,-450.5"/>
<text xml:space="preserve" text-anchor="middle" x="1247" y="-456.25" font-family="Helvetica,sans-Serif" font-size="10.00">PlatformDefinitions.h</text>
</a>
</g>
</g>
<!-- Node2&#45;&gt;Node10 -->
<g id="edge9" class="edge">
<title>Node2&#45;&gt;Node10</title>
<path fill="none" stroke="midnightblue" d="M922.75,-510.12C982.42,-501.11 1105.28,-482.54 1181.45,-471.03"/>
<polygon fill="midnightblue" stroke="midnightblue" points="1181.94,-474.5 1191.3,-469.54 1180.89,-467.58 1181.94,-474.5"/>
</g>
<!-- Node11 -->
<g id="node11" class="node">
<title>Node11</title>
<g id="a_node11"><a xlink:href="_class_type_codes_8h.html" target="_top" xlink:title=" ">
<polygon fill="white" stroke="black" points="953.38,-338 953.38,-357.25 1052.62,-357.25 1052.62,-338 953.38,-338"/>
<text xml:space="preserve" text-anchor="middle" x="1003" y="-343.75" font-family="Helvetica,sans-Serif" font-size="10.00">ClassTypeCodes.h</text>
</a>
</g>
</g>
<!-- Node2&#45;&gt;Node11 -->
<g id="edge10" class="edge">
<title>Node2&#45;&gt;Node11</title>
<path fill="none" stroke="midnightblue" d="M912.89,-506.25C946.38,-492.37 1004.05,-462.32 1024,-414 1030.39,-398.52 1023.45,-380.35 1015.88,-367.1"/>
<polygon fill="midnightblue" stroke="midnightblue" points="1019.03,-365.53 1010.73,-358.95 1013.11,-369.27 1019.03,-365.53"/>
</g>
<!-- Node12 -->
<g id="node12" class="node">
<title>Node12</title>
<g id="a_node12"><a xlink:href="_object_class_8hpp.html" target="_top" xlink:title=" ">
<polygon fill="white" stroke="black" points="116.62,-338 116.62,-357.25 205.38,-357.25 205.38,-338 116.62,-338"/>
<text xml:space="preserve" text-anchor="middle" x="161" y="-343.75" font-family="Helvetica,sans-Serif" font-size="10.00">ObjectClass.hpp</text>
</a>
</g>
</g>
<!-- Node2&#45;&gt;Node12 -->
<g id="edge11" class="edge">
<title>Node2&#45;&gt;Node12</title>
<path fill="none" stroke="midnightblue" d="M853.42,-515.59C711.08,-516.19 175.17,-515.39 116,-470.25 88.15,-449 80.87,-424.85 97,-393.75 103.84,-380.55 116.52,-370.39 128.8,-363.09"/>
<polygon fill="midnightblue" stroke="midnightblue" points="130.43,-366.18 137.55,-358.34 127.09,-360.03 130.43,-366.18"/>
</g>
<!-- Node18 -->
<g id="node18" class="node">
<title>Node18</title>
<g id="a_node18"><a xlink:href="_table_class_8hpp.html" target="_top" xlink:title=" ">
<polygon fill="white" stroke="black" points="420.25,-450.5 420.25,-469.75 503.75,-469.75 503.75,-450.5 420.25,-450.5"/>
<text xml:space="preserve" text-anchor="middle" x="462" y="-456.25" font-family="Helvetica,sans-Serif" font-size="10.00">TableClass.hpp</text>
</a>
</g>
</g>
<!-- Node2&#45;&gt;Node18 -->
<g id="edge18" class="edge">
<title>Node2&#45;&gt;Node18</title>
<path fill="none" stroke="midnightblue" d="M853.5,-510.98C779.28,-501.53 604.03,-479.21 515.36,-467.92"/>
<polygon fill="midnightblue" stroke="midnightblue" points="515.83,-464.45 505.46,-466.66 514.94,-471.4 515.83,-464.45"/>
</g>
<!-- Node23 -->
<g id="node23" class="node">
<title>Node23</title>
<g id="a_node23"><a xlink:href="_class_class_8hpp.html" target="_top" xlink:title=" ">
<polygon fill="white" stroke="black" points="339.12,-113 339.12,-132.25 424.88,-132.25 424.88,-113 339.12,-113"/>
<text xml:space="preserve" text-anchor="middle" x="382" y="-118.75" font-family="Helvetica,sans-Serif" font-size="10.00">ClassClass.hpp</text>
</a>
</g>
</g>
<!-- Node2&#45;&gt;Node23 -->
<g id="edge59" class="edge">
<title>Node2&#45;&gt;Node23</title>
<path fill="none" stroke="midnightblue" d="M922.5,-511.36C978.02,-502.76 1081,-477.08 1081,-404.88 1081,-404.88 1081,-404.88 1081,-234.12 1081,-168.96 600.92,-135.91 436.48,-126.5"/>
<polygon fill="midnightblue" stroke="midnightblue" points="436.89,-123.02 426.71,-125.95 436.5,-130.01 436.89,-123.02"/>
</g>
<!-- Node30 -->
<g id="node30" class="node">
<title>Node30</title>
<g id="a_node30"><a xlink:href="_rexx_memory_8hpp.html" target="_top" xlink:title=" ">
<polygon fill="white" stroke="black" points="642.12,-450.5 642.12,-469.75 733.88,-469.75 733.88,-450.5 642.12,-450.5"/>
<text xml:space="preserve" text-anchor="middle" x="688" y="-456.25" font-family="Helvetica,sans-Serif" font-size="10.00">RexxMemory.hpp</text>
</a>
</g>
</g>
<!-- Node2&#45;&gt;Node30 -->
<g id="edge33" class="edge">
<title>Node2&#45;&gt;Node30</title>
<path fill="none" stroke="midnightblue" d="M854.52,-506.29C821.07,-497.22 769.43,-483.21 732.53,-473.2"/>
<polygon fill="midnightblue" stroke="midnightblue" points="733.61,-469.87 723.05,-470.63 731.78,-476.63 733.61,-469.87"/>
</g>
<!-- Node44 -->
<g id="node44" class="node">
<title>Node44</title>
<g id="a_node44"><a xlink:href="_rexx_behaviour_8hpp.html" target="_top" xlink:title=" ">
<polygon fill="white" stroke="black" points="124.62,-450.5 124.62,-469.75 225.38,-469.75 225.38,-450.5 124.62,-450.5"/>
<text xml:space="preserve" text-anchor="middle" x="175" y="-456.25" font-family="Helvetica,sans-Serif" font-size="10.00">RexxBehaviour.hpp</text>
</a>
</g>
</g>
<!-- Node2&#45;&gt;Node44 -->
<g id="edge56" class="edge">
<title>Node2&#45;&gt;Node44</title>
<path fill="none" stroke="midnightblue" d="M853.48,-513.36C758.42,-507.73 484.88,-490.84 258,-470.25 251.08,-469.62 243.85,-468.91 236.66,-468.17"/>
<polygon fill="midnightblue" stroke="midnightblue" points="237.26,-464.71 226.95,-467.14 236.53,-471.67 237.26,-464.71"/>
</g>
<!-- Node46 -->
<g id="node46" class="node">
<title>Node46</title>
<g id="a_node46"><a xlink:href="_envelope_8hpp.html" target="_top" xlink:title=" ">
<polygon fill="white" stroke="black" points="883.38,-450.5 883.38,-469.75 958.62,-469.75 958.62,-450.5 883.38,-450.5"/>
<text xml:space="preserve" text-anchor="middle" x="921" y="-456.25" font-family="Helvetica,sans-Serif" font-size="10.00">Envelope.hpp</text>
</a>
</g>
</g>
<!-- Node2&#45;&gt;Node46 -->
<g id="edge60" class="edge">
<title>Node2&#45;&gt;Node46</title>
<path fill="none" stroke="midnightblue" d="M893.45,-506.42C897.87,-499.15 904.25,-488.66 909.76,-479.61"/>
<polygon fill="midnightblue" stroke="midnightblue" points="912.66,-481.57 914.87,-471.21 906.68,-477.93 912.66,-481.57"/>
</g>
<!-- Node4 -->
<g id="node4" class="node">
<title>Node4</title>
<g id="a_node4"><a xlink:href="rexx_8h.html" target="_top" xlink:title=" ">
<polygon fill="white" stroke="black" points="1193.5,-394.25 1193.5,-413.5 1236.5,-413.5 1236.5,-394.25 1193.5,-394.25"/>
<text xml:space="preserve" text-anchor="middle" x="1215" y="-400" font-family="Helvetica,sans-Serif" font-size="10.00">rexx.h</text>
</a>
</g>
</g>
<!-- Node3&#45;&gt;Node4 -->
<g id="edge3" class="edge">
<title>Node3&#45;&gt;Node4</title>
<path fill="none" stroke="midnightblue" d="M1154.05,-450.17C1164.9,-442.11 1181.07,-430.09 1194.03,-420.46"/>
<polygon fill="midnightblue" stroke="midnightblue" points="1196.02,-423.34 1201.96,-414.57 1191.84,-417.72 1196.02,-423.34"/>
</g>
<!-- Node9 -->
<g id="node9" class="node">
<title>Node9</title>
<g id="a_node9"><a xlink:href="oorexxerrors_8h.html" target="_top" xlink:title=" ">
<polygon fill="white" stroke="black" points="1254.88,-394.25 1254.88,-413.5 1333.12,-413.5 1333.12,-394.25 1254.88,-394.25"/>
<text xml:space="preserve" text-anchor="middle" x="1294" y="-400" font-family="Helvetica,sans-Serif" font-size="10.00">oorexxerrors.h</text>
</a>
</g>
</g>
<!-- Node3&#45;&gt;Node9 -->
<g id="edge8" class="edge">
<title>Node3&#45;&gt;Node9</title>
<path fill="none" stroke="midnightblue" d="M1167.44,-450.04C1192.21,-441.2 1230.1,-427.68 1257.96,-417.74"/>
<polygon fill="midnightblue" stroke="midnightblue" points="1258.81,-421.15 1267.05,-414.49 1256.46,-414.56 1258.81,-421.15"/>
</g>
<!-- Node5 -->
<g id="node5" class="node">
<title>Node5</title>
<g id="a_node5"><a xlink:title=" ">
<polygon fill="white" stroke="#bfbfbf" points="1339.12,-338 1339.12,-357.25 1418.88,-357.25 1418.88,-338 1339.12,-338"/>
<text xml:space="preserve" text-anchor="middle" x="1379" y="-343.75" font-family="Helvetica,sans-Serif" font-size="10.00">rexxapitypes.h</text>
</a>
</g>
</g>
<!-- Node4&#45;&gt;Node5 -->
<g id="edge4" class="edge">
<title>Node4&#45;&gt;Node5</title>
<path fill="none" stroke="midnightblue" d="M1236.78,-395.67C1263.28,-386.9 1308.48,-371.95 1340.81,-361.26"/>
<polygon fill="midnightblue" stroke="midnightblue" points="1341.83,-364.61 1350.23,-358.14 1339.63,-357.96 1341.83,-364.61"/>
</g>
<!-- Node6 -->
<g id="node6" class="node">
<title>Node6</title>
<g id="a_node6"><a xlink:href="rexxapidefs_8h.html" target="_top" xlink:title=" ">
<polygon fill="white" stroke="black" points="1436.75,-338 1436.75,-357.25 1511.25,-357.25 1511.25,-338 1436.75,-338"/>
<text xml:space="preserve" text-anchor="middle" x="1474" y="-343.75" font-family="Helvetica,sans-Serif" font-size="10.00">rexxapidefs.h</text>
</a>
</g>
</g>
<!-- Node4&#45;&gt;Node6 -->
<g id="edge5" class="edge">
<title>Node4&#45;&gt;Node6</title>
<path fill="none" stroke="midnightblue" d="M1236.95,-396.15C1239.98,-395.3 1243.06,-394.47 1246,-393.75 1322.64,-374.93 1345.2,-373.83 1425.21,-358.28"/>
<polygon fill="midnightblue" stroke="midnightblue" points="1425.72,-361.75 1434.86,-356.39 1424.37,-354.88 1425.72,-361.75"/>
</g>
<!-- Node7 -->
<g id="node7" class="node">
<title>Node7</title>
<g id="a_node7"><a xlink:title=" ">
<polygon fill="white" stroke="#bfbfbf" points="1109.5,-338 1109.5,-357.25 1206.5,-357.25 1206.5,-338 1109.5,-338"/>
<text xml:space="preserve" text-anchor="middle" x="1158" y="-343.75" font-family="Helvetica,sans-Serif" font-size="10.00">rexxplatformdefs.h</text>
</a>
</g>
</g>
<!-- Node4&#45;&gt;Node7 -->
<g id="edge6" class="edge">
<title>Node4&#45;&gt;Node7</title>
<path fill="none" stroke="midnightblue" d="M1205.59,-393.92C1197.37,-386.1 1185.23,-374.55 1175.28,-365.07"/>
<polygon fill="midnightblue" stroke="midnightblue" points="1177.99,-362.82 1168.33,-358.46 1173.16,-367.89 1177.99,-362.82"/>
</g>
<!-- Node8 -->
<g id="node8" class="node">
<title>Node8</title>
<g id="a_node8"><a xlink:title=" ">
<polygon fill="white" stroke="#bfbfbf" points="1224.88,-338 1224.88,-357.25 1321.12,-357.25 1321.12,-338 1224.88,-338"/>
<text xml:space="preserve" text-anchor="middle" x="1273" y="-343.75" font-family="Helvetica,sans-Serif" font-size="10.00">rexxplatformapis.h</text>
</a>
</g>
</g>
<!-- Node4&#45;&gt;Node8 -->
<g id="edge7" class="edge">
<title>Node4&#45;&gt;Node8</title>
<path fill="none" stroke="midnightblue" d="M1224.58,-393.92C1232.94,-386.1 1245.29,-374.55 1255.42,-365.07"/>
<polygon fill="midnightblue" stroke="midnightblue" points="1257.58,-367.84 1262.5,-358.45 1252.8,-362.73 1257.58,-367.84"/>
</g>
<!-- Node13 -->
<g id="node13" class="node">
<title>Node13</title>
<g id="a_node13"><a xlink:title=" ">
<polygon fill="white" stroke="#bfbfbf" points="144,-281.75 144,-301 178,-301 178,-281.75 144,-281.75"/>
<text xml:space="preserve" text-anchor="middle" x="161" y="-287.5" font-family="Helvetica,sans-Serif" font-size="10.00">new</text>
</a>
</g>
</g>
<!-- Node12&#45;&gt;Node13 -->
<g id="edge12" class="edge">
<title>Node12&#45;&gt;Node13</title>
<path fill="none" stroke="midnightblue" d="M161,-337.67C161,-330.87 161,-321.26 161,-312.65"/>
<polygon fill="midnightblue" stroke="midnightblue" points="164.5,-312.68 161,-302.68 157.5,-312.68 164.5,-312.68"/>
</g>
<!-- Node14 -->
<g id="node14" class="node">
<title>Node14</title>
<g id="a_node14"><a xlink:title=" ">
<polygon fill="white" stroke="#bfbfbf" points="506.88,-169.25 506.88,-188.5 555.12,-188.5 555.12,-169.25 506.88,-169.25"/>
<text xml:space="preserve" text-anchor="middle" x="531" y="-175" font-family="Helvetica,sans-Serif" font-size="10.00">string.h</text>
</a>
</g>
</g>
<!-- Node12&#45;&gt;Node14 -->
<g id="edge13" class="edge">
<title>Node12&#45;&gt;Node14</title>
<path fill="none" stroke="midnightblue" d="M167.46,-337.69C177.99,-323.73 200.21,-296.72 225,-281.25 230.97,-277.53 416.4,-217.09 495.65,-191.34"/>
<polygon fill="midnightblue" stroke="midnightblue" points="496.67,-194.69 505.1,-188.28 494.51,-188.04 496.67,-194.69"/>
</g>
<!-- Node15 -->
<g id="node15" class="node">
<title>Node15</title>
<g id="a_node15"><a xlink:href="_numerics_8hpp.html" target="_top" xlink:title=" ">
<polygon fill="white" stroke="black" points="233.62,-281.75 233.62,-301 310.38,-301 310.38,-281.75 233.62,-281.75"/>
<text xml:space="preserve" text-anchor="middle" x="272" y="-287.5" font-family="Helvetica,sans-Serif" font-size="10.00">Numerics.hpp</text>
</a>
</g>
</g>
<!-- Node12&#45;&gt;Node15 -->
<g id="edge14" class="edge">
<title>Node12&#45;&gt;Node15</title>
<path fill="none" stroke="midnightblue" d="M179.58,-337.54C196.95,-329.06 223.14,-316.25 243.22,-306.44"/>
<polygon fill="midnightblue" stroke="midnightblue" points="244.55,-309.69 252,-302.15 241.48,-303.4 244.55,-309.69"/>
</g>
<!-- Node17 -->
<g id="node17" class="node">
<title>Node17</title>
<g id="a_node17"><a xlink:href="_rexx_error_codes_8h.html" target="_top" xlink:title=" ">
<polygon fill="white" stroke="black" points="28.5,-281.75 28.5,-301 125.5,-301 125.5,-281.75 28.5,-281.75"/>
<text xml:space="preserve" text-anchor="middle" x="77" y="-287.5" font-family="Helvetica,sans-Serif" font-size="10.00">RexxErrorCodes.h</text>
</a>
</g>
</g>
<!-- Node12&#45;&gt;Node17 -->
<g id="edge17" class="edge">
<title>Node12&#45;&gt;Node17</title>
<path fill="none" stroke="midnightblue" d="M147.13,-337.67C134.48,-329.5 115.54,-317.27 100.53,-307.57"/>
<polygon fill="midnightblue" stroke="midnightblue" points="102.46,-304.65 92.16,-302.17 98.66,-310.53 102.46,-304.65"/>
</g>
<!-- Node15&#45;&gt;Node2 -->
<g id="edge16" class="edge">
<title>Node15&#45;&gt;Node2</title>
<path fill="none" stroke="midnightblue" d="M273.61,-301.3C277.9,-322.86 291.31,-378.58 321,-414 351.3,-450.15 366.32,-455.12 411,-470.25 490.09,-497.03 738.49,-509.56 842.01,-513.72"/>
<polygon fill="midnightblue" stroke="midnightblue" points="841.67,-517.21 851.8,-514.1 841.94,-510.21 841.67,-517.21"/>
</g>
<!-- Node16 -->
<g id="node16" class="node">
<title>Node16</title>
<g id="a_node16"><a xlink:title=" ">
<polygon fill="white" stroke="#bfbfbf" points="161.12,-225.5 161.12,-244.75 216.88,-244.75 216.88,-225.5 161.12,-225.5"/>
<text xml:space="preserve" text-anchor="middle" x="189" y="-231.25" font-family="Helvetica,sans-Serif" font-size="10.00">algorithm</text>
</a>
</g>
</g>
<!-- Node15&#45;&gt;Node16 -->
<g id="edge15" class="edge">
<title>Node15&#45;&gt;Node16</title>
<path fill="none" stroke="midnightblue" d="M258.29,-281.42C245.8,-273.25 227.08,-261.02 212.25,-251.32"/>
<polygon fill="midnightblue" stroke="midnightblue" points="214.28,-248.47 203.99,-245.92 210.45,-254.33 214.28,-248.47"/>
</g>
<!-- Node19 -->
<g id="node19" class="node">
<title>Node19</title>
<g id="a_node19"><a xlink:href="_hash_collection_8hpp.html" target="_top" xlink:title=" ">
<polygon fill="white" stroke="black" points="326.25,-338 326.25,-357.25 427.75,-357.25 427.75,-338 326.25,-338"/>
<text xml:space="preserve" text-anchor="middle" x="377" y="-343.75" font-family="Helvetica,sans-Serif" font-size="10.00">HashCollection.hpp</text>
</a>
</g>
</g>
<!-- Node18&#45;&gt;Node19 -->
<g id="edge19" class="edge">
<title>Node18&#45;&gt;Node19</title>
<path fill="none" stroke="midnightblue" d="M419.97,-457.2C389.25,-453.32 349.52,-442.64 329,-414 316.75,-396.91 335.13,-377.51 352.57,-364.31"/>
<polygon fill="midnightblue" stroke="midnightblue" points="354.58,-367.18 360.72,-358.55 350.54,-361.46 354.58,-367.18"/>
</g>
<!-- Node20 -->
<g id="node20" class="node">
<title>Node20</title>
<g id="a_node20"><a xlink:href="_hash_contents_8hpp.html" target="_top" xlink:title=" ">
<polygon fill="white" stroke="black" points="328.12,-281.75 328.12,-301 425.88,-301 425.88,-281.75 328.12,-281.75"/>
<text xml:space="preserve" text-anchor="middle" x="377" y="-287.5" font-family="Helvetica,sans-Serif" font-size="10.00">HashContents.hpp</text>
</a>
</g>
</g>
<!-- Node19&#45;&gt;Node20 -->
<g id="edge20" class="edge">
<title>Node19&#45;&gt;Node20</title>
<path fill="none" stroke="midnightblue" d="M377,-337.67C377,-330.87 377,-321.26 377,-312.65"/>
<polygon fill="midnightblue" stroke="midnightblue" points="380.5,-312.68 377,-302.68 373.5,-312.68 380.5,-312.68"/>
</g>
<!-- Node21 -->
<g id="node21" class="node">
<title>Node21</title>
<g id="a_node21"><a xlink:href="_string_class_8hpp.html" target="_top" xlink:title=" ">
<polygon fill="white" stroke="black" points="235.12,-225.5 235.12,-244.75 320.88,-244.75 320.88,-225.5 235.12,-225.5"/>
<text xml:space="preserve" text-anchor="middle" x="278" y="-231.25" font-family="Helvetica,sans-Serif" font-size="10.00">StringClass.hpp</text>
</a>
</g>
</g>
<!-- Node20&#45;&gt;Node21 -->
<g id="edge21" class="edge">
<title>Node20&#45;&gt;Node21</title>
<path fill="none" stroke="midnightblue" d="M360.65,-281.42C345.39,-273.05 322.35,-260.43 304.46,-250.63"/>
<polygon fill="midnightblue" stroke="midnightblue" points="306.15,-247.56 295.7,-245.82 302.79,-253.7 306.15,-247.56"/>
</g>
<!-- Node21&#45;&gt;Node14 -->
<g id="edge32" class="edge">
<title>Node21&#45;&gt;Node14</title>
<path fill="none" stroke="midnightblue" d="M320.35,-225.04C369.39,-214.53 449.32,-197.39 495.33,-187.52"/>
<polygon fill="midnightblue" stroke="midnightblue" points="496.01,-190.96 505.05,-185.44 494.54,-184.11 496.01,-190.96"/>
</g>
<!-- Node22 -->
<g id="node22" class="node">
<title>Node22</title>
<g id="a_node22"><a xlink:href="_integer_class_8hpp.html" target="_top" xlink:title=" ">
<polygon fill="white" stroke="black" points="336.88,-169.25 336.88,-188.5 427.12,-188.5 427.12,-169.25 336.88,-169.25"/>
<text xml:space="preserve" text-anchor="middle" x="382" y="-175" font-family="Helvetica,sans-Serif" font-size="10.00">IntegerClass.hpp</text>
</a>
</g>
</g>
<!-- Node21&#45;&gt;Node22 -->
<g id="edge22" class="edge">
<title>Node21&#45;&gt;Node22</title>
<path fill="none" stroke="midnightblue" d="M295.17,-225.17C311.36,-216.72 335.87,-203.94 354.73,-194.1"/>
<polygon fill="midnightblue" stroke="midnightblue" points="356.21,-197.27 363.46,-189.55 352.97,-191.07 356.21,-197.27"/>
</g>
<!-- Node24 -->
<g id="node24" class="node">
<title>Node24</title>
<g id="a_node24"><a xlink:href="_flag_set_8hpp.html" target="_top" xlink:title=" ">
<polygon fill="white" stroke="black" points="274.75,-56.75 274.75,-76 343.25,-76 343.25,-56.75 274.75,-56.75"/>
<text xml:space="preserve" text-anchor="middle" x="309" y="-62.5" font-family="Helvetica,sans-Serif" font-size="10.00">FlagSet.hpp</text>
</a>
</g>
</g>
<!-- Node21&#45;&gt;Node24 -->
<g id="edge31" class="edge">
<title>Node21&#45;&gt;Node24</title>
<path fill="none" stroke="midnightblue" d="M280.67,-225.2C283.31,-216.15 287.33,-201.69 290,-189 297.46,-153.55 303.37,-111.71 306.52,-87.49"/>
<polygon fill="midnightblue" stroke="midnightblue" points="309.96,-88.15 307.74,-77.79 303.02,-87.27 309.96,-88.15"/>
</g>
<!-- Node26 -->
<g id="node26" class="node">
<title>Node26</title>
<g id="a_node26"><a xlink:href="_string_util_8hpp.html" target="_top" xlink:title=" ">
<polygon fill="white" stroke="black" points="205.38,-169.25 205.38,-188.5 280.62,-188.5 280.62,-169.25 205.38,-169.25"/>
<text xml:space="preserve" text-anchor="middle" x="243" y="-175" font-family="Helvetica,sans-Serif" font-size="10.00">StringUtil.hpp</text>
</a>
</g>
</g>
<!-- Node21&#45;&gt;Node26 -->
<g id="edge26" class="edge">
<title>Node21&#45;&gt;Node26</title>
<path fill="none" stroke="midnightblue" d="M272.22,-225.17C267.48,-217.82 260.62,-207.18 254.73,-198.06"/>
<polygon fill="midnightblue" stroke="midnightblue" points="257.85,-196.44 249.49,-189.94 251.97,-200.24 257.85,-196.44"/>
</g>
<!-- Node28 -->
<g id="node28" class="node">
<title>Node28</title>
<g id="a_node28"><a xlink:href="_utilities_8hpp.html" target="_top" xlink:title=" ">
<polygon fill="white" stroke="black" points="143.12,-113 143.12,-132.25 210.88,-132.25 210.88,-113 143.12,-113"/>
<text xml:space="preserve" text-anchor="middle" x="177" y="-118.75" font-family="Helvetica,sans-Serif" font-size="10.00">Utilities.hpp</text>
</a>
</g>
</g>
<!-- Node21&#45;&gt;Node28 -->
<g id="edge30" class="edge">
<title>Node21&#45;&gt;Node28</title>
<path fill="none" stroke="midnightblue" d="M249.94,-225.05C232.09,-217.91 209.81,-206.25 196,-189 185.7,-176.14 180.99,-157.92 178.83,-143.97"/>
<polygon fill="midnightblue" stroke="midnightblue" points="182.32,-143.66 177.65,-134.15 175.36,-144.49 182.32,-143.66"/>
</g>
<!-- Node22&#45;&gt;Node23 -->
<g id="edge23" class="edge">
<title>Node22&#45;&gt;Node23</title>
<path fill="none" stroke="midnightblue" d="M382,-168.92C382,-162.12 382,-152.51 382,-143.9"/>
<polygon fill="midnightblue" stroke="midnightblue" points="385.5,-143.93 382,-133.93 378.5,-143.93 385.5,-143.93"/>
</g>
<!-- Node23&#45;&gt;Node24 -->
<g id="edge24" class="edge">
<title>Node23&#45;&gt;Node24</title>
<path fill="none" stroke="midnightblue" d="M369.95,-112.67C359.1,-104.61 342.93,-92.59 329.97,-82.96"/>
<polygon fill="midnightblue" stroke="midnightblue" points="332.16,-80.22 322.04,-77.07 327.98,-85.84 332.16,-80.22"/>
</g>
<!-- Node25 -->
<g id="node25" class="node">
<title>Node25</title>
<g id="a_node25"><a xlink:href="_bit_set_8hpp.html" target="_top" xlink:title=" ">
<polygon fill="white" stroke="black" points="278.12,-0.5 278.12,-19.75 339.88,-19.75 339.88,-0.5 278.12,-0.5"/>
<text xml:space="preserve" text-anchor="middle" x="309" y="-6.25" font-family="Helvetica,sans-Serif" font-size="10.00">BitSet.hpp</text>
</a>
</g>
</g>
<!-- Node24&#45;&gt;Node25 -->
<g id="edge25" class="edge">
<title>Node24&#45;&gt;Node25</title>
<path fill="none" stroke="midnightblue" d="M309,-56.42C309,-49.62 309,-40.01 309,-31.4"/>
<polygon fill="midnightblue" stroke="midnightblue" points="312.5,-31.43 309,-21.43 305.5,-31.43 312.5,-31.43"/>
</g>
<!-- Node27 -->
<g id="node27" class="node">
<title>Node27</title>
<g id="a_node27"><a xlink:title=" ">
<polygon fill="white" stroke="#bfbfbf" points="228.88,-113 228.88,-132.25 277.12,-132.25 277.12,-113 228.88,-113"/>
<text xml:space="preserve" text-anchor="middle" x="253" y="-118.75" font-family="Helvetica,sans-Serif" font-size="10.00">ctype.h</text>
</a>
</g>
</g>
<!-- Node26&#45;&gt;Node27 -->
<g id="edge27" class="edge">
<title>Node26&#45;&gt;Node27</title>
<path fill="none" stroke="midnightblue" d="M244.65,-168.92C245.92,-162.04 247.72,-152.29 249.32,-143.6"/>
<polygon fill="midnightblue" stroke="midnightblue" points="252.73,-144.37 251.11,-133.91 245.85,-143.1 252.73,-144.37"/>
</g>
<!-- Node26&#45;&gt;Node28 -->
<g id="edge28" class="edge">
<title>Node26&#45;&gt;Node28</title>
<path fill="none" stroke="midnightblue" d="M232.1,-168.92C222.39,-160.94 207.97,-149.08 196.31,-139.5"/>
<polygon fill="midnightblue" stroke="midnightblue" points="198.81,-137.02 188.87,-133.38 194.37,-142.43 198.81,-137.02"/>
</g>
<!-- Node29 -->
<g id="node29" class="node">
<title>Node29</title>
<g id="a_node29"><a xlink:title=" ">
<polygon fill="white" stroke="#bfbfbf" points="143.5,-56.75 143.5,-76 210.5,-76 210.5,-56.75 143.5,-56.75"/>
<text xml:space="preserve" text-anchor="middle" x="177" y="-62.5" font-family="Helvetica,sans-Serif" font-size="10.00">sys/types.h</text>
</a>
</g>
</g>
<!-- Node28&#45;&gt;Node29 -->
<g id="edge29" class="edge">
<title>Node28&#45;&gt;Node29</title>
<path fill="none" stroke="midnightblue" d="M177,-112.67C177,-105.87 177,-96.26 177,-87.65"/>
<polygon fill="midnightblue" stroke="midnightblue" points="180.5,-87.68 177,-77.68 173.5,-87.68 180.5,-87.68"/>
</g>
<!-- Node31 -->
<g id="node31" class="node">
<title>Node31</title>
<g id="a_node31"><a xlink:href="_memory_8hpp.html" target="_top" xlink:title=" ">
<polygon fill="white" stroke="black" points="589.75,-338 589.75,-357.25 658.25,-357.25 658.25,-338 589.75,-338"/>
<text xml:space="preserve" text-anchor="middle" x="624" y="-343.75" font-family="Helvetica,sans-Serif" font-size="10.00">Memory.hpp</text>
</a>
</g>
</g>
<!-- Node30&#45;&gt;Node31 -->
<g id="edge34" class="edge">
<title>Node30&#45;&gt;Node31</title>
<path fill="none" stroke="midnightblue" d="M686.64,-450.12C684.35,-436.98 678.89,-412.13 668,-393.75 661.63,-382.99 652.17,-372.84 643.66,-364.91"/>
<polygon fill="midnightblue" stroke="midnightblue" points="646.24,-362.52 636.43,-358.51 641.6,-367.76 646.24,-362.52"/>
</g>
<!-- Node32 -->
<g id="node32" class="node">
<title>Node32</title>
<g id="a_node32"><a xlink:href="_memory_stack_8hpp.html" target="_top" xlink:title=" ">
<polygon fill="white" stroke="black" points="499.25,-225.5 499.25,-244.75 594.75,-244.75 594.75,-225.5 499.25,-225.5"/>
<text xml:space="preserve" text-anchor="middle" x="547" y="-231.25" font-family="Helvetica,sans-Serif" font-size="10.00">MemoryStack.hpp</text>
</a>
</g>
</g>
<!-- Node30&#45;&gt;Node32 -->
<g id="edge35" class="edge">
<title>Node30&#45;&gt;Node32</title>
<path fill="none" stroke="midnightblue" d="M662.99,-450.06C645.44,-442.64 622.43,-430.64 607,-414 564.96,-368.67 552.28,-292.85 548.53,-256.61"/>
<polygon fill="midnightblue" stroke="midnightblue" points="552.02,-256.35 547.65,-246.69 545.05,-256.96 552.02,-256.35"/>
</g>
<!-- Node33 -->
<g id="node33" class="node">
<title>Node33</title>
<g id="a_node33"><a xlink:title=" ">
<polygon fill="white" stroke="#bfbfbf" points="853.25,-281.75 853.25,-301 954.75,-301 954.75,-281.75 853.25,-281.75"/>
<text xml:space="preserve" text-anchor="middle" x="904" y="-287.5" font-family="Helvetica,sans-Serif" font-size="10.00">SysSemaphore.hpp</text>
</a>
</g>
</g>
<!-- Node30&#45;&gt;Node33 -->
<g id="edge37" class="edge">
<title>Node30&#45;&gt;Node33</title>
<path fill="none" stroke="midnightblue" d="M731.78,-450.01C761.66,-442.74 801.55,-430.95 834,-414 869.99,-395.19 888.2,-394.25 906,-357.75 912.86,-343.69 911.75,-325.82 909.27,-312.32"/>
<polygon fill="midnightblue" stroke="midnightblue" points="912.75,-311.84 907.13,-302.86 905.92,-313.38 912.75,-311.84"/>
</g>
<!-- Node34 -->
<g id="node34" class="node">
<title>Node34</title>
<g id="a_node34"><a xlink:href="_identity_table_class_8hpp.html" target="_top" xlink:title=" ">
<polygon fill="white" stroke="black" points="338.12,-394.25 338.12,-413.5 453.88,-413.5 453.88,-394.25 338.12,-394.25"/>
<text xml:space="preserve" text-anchor="middle" x="396" y="-400" font-family="Helvetica,sans-Serif" font-size="10.00">IdentityTableClass.hpp</text>
</a>
</g>
</g>
<!-- Node30&#45;&gt;Node34 -->
<g id="edge38" class="edge">
<title>Node30&#45;&gt;Node34</title>
<path fill="none" stroke="midnightblue" d="M641.73,-450.53C591.48,-441.19 511.04,-426.25 455.98,-416.02"/>
<polygon fill="midnightblue" stroke="midnightblue" points="456.93,-412.64 446.46,-414.25 455.66,-419.52 456.93,-412.64"/>
</g>
<!-- Node35 -->
<g id="node35" class="node">
<title>Node35</title>
<g id="a_node35"><a xlink:href="_queue_class_8hpp.html" target="_top" xlink:title=" ">
<polygon fill="white" stroke="black" points="471.62,-394.25 471.62,-413.5 560.38,-413.5 560.38,-394.25 471.62,-394.25"/>
<text xml:space="preserve" text-anchor="middle" x="516" y="-400" font-family="Helvetica,sans-Serif" font-size="10.00">QueueClass.hpp</text>
</a>
</g>
</g>
<!-- Node30&#45;&gt;Node35 -->
<g id="edge40" class="edge">
<title>Node30&#45;&gt;Node35</title>
<path fill="none" stroke="midnightblue" d="M659.21,-450.04C630.81,-441.09 587.17,-427.32 555.53,-417.34"/>
<polygon fill="midnightblue" stroke="midnightblue" points="556.92,-414.11 546.33,-414.44 554.81,-420.79 556.92,-414.11"/>
</g>
<!-- Node38 -->
<g id="node38" class="node">
<title>Node38</title>
<g id="a_node38"><a xlink:title=" ">
<polygon fill="white" stroke="#bfbfbf" points="616.5,-394.25 616.5,-413.5 659.5,-413.5 659.5,-394.25 616.5,-394.25"/>
<text xml:space="preserve" text-anchor="middle" x="638" y="-400" font-family="Helvetica,sans-Serif" font-size="10.00">vector</text>
</a>
</g>
</g>
<!-- Node30&#45;&gt;Node38 -->
<g id="edge44" class="edge">
<title>Node30&#45;&gt;Node38</title>
<path fill="none" stroke="midnightblue" d="M679.74,-450.17C672.68,-442.5 662.32,-431.26 653.69,-421.89"/>
<polygon fill="midnightblue" stroke="midnightblue" points="656.48,-419.76 647.13,-414.78 651.33,-424.5 656.48,-419.76"/>
</g>
<!-- Node39 -->
<g id="node39" class="node">
<title>Node39</title>
<g id="a_node39"><a xlink:href="_memory_stats_8hpp.html" target="_top" xlink:title=" ">
<polygon fill="white" stroke="black" points="921.38,-394.25 921.38,-413.5 1014.62,-413.5 1014.62,-394.25 921.38,-394.25"/>
<text xml:space="preserve" text-anchor="middle" x="968" y="-400" font-family="Helvetica,sans-Serif" font-size="10.00">MemoryStats.hpp</text>
</a>
</g>
</g>
<!-- Node30&#45;&gt;Node39 -->
<g id="edge45" class="edge">
<title>Node30&#45;&gt;Node39</title>
<path fill="none" stroke="midnightblue" d="M734.24,-450.17C782.42,-440.83 858.04,-426.18 910.16,-416.08"/>
<polygon fill="midnightblue" stroke="midnightblue" points="910.59,-419.56 919.74,-414.22 909.26,-412.69 910.59,-419.56"/>
</g>
<!-- Node40 -->
<g id="node40" class="node">
<title>Node40</title>
<g id="a_node40"><a xlink:href="_memory_segment_8hpp.html" target="_top" xlink:title=" ">
<polygon fill="white" stroke="black" points="716.5,-394.25 716.5,-413.5 825.5,-413.5 825.5,-394.25 716.5,-394.25"/>
<text xml:space="preserve" text-anchor="middle" x="771" y="-400" font-family="Helvetica,sans-Serif" font-size="10.00">MemorySegment.hpp</text>
</a>
</g>
</g>
<!-- Node30&#45;&gt;Node40 -->
<g id="edge47" class="edge">
<title>Node30&#45;&gt;Node40</title>
<path fill="none" stroke="midnightblue" d="M701.71,-450.17C714.2,-442 732.92,-429.77 747.75,-420.07"/>
<polygon fill="midnightblue" stroke="midnightblue" points="749.55,-423.08 756.01,-414.67 745.72,-417.22 749.55,-423.08"/>
</g>
<!-- Node32&#45;&gt;Node14 -->
<g id="edge36" class="edge">
<title>Node32&#45;&gt;Node14</title>
<path fill="none" stroke="midnightblue" d="M544.36,-225.17C542.31,-218.21 539.39,-208.32 536.8,-199.55"/>
<polygon fill="midnightblue" stroke="midnightblue" points="540.21,-198.72 534.02,-190.12 533.49,-200.7 540.21,-198.72"/>
</g>
<!-- Node34&#45;&gt;Node19 -->
<g id="edge39" class="edge">
<title>Node34&#45;&gt;Node19</title>
<path fill="none" stroke="midnightblue" d="M392.86,-393.92C390.4,-386.89 386.88,-376.84 383.78,-368"/>
<polygon fill="midnightblue" stroke="midnightblue" points="387.19,-367.13 380.58,-358.85 380.58,-369.44 387.19,-367.13"/>
</g>
<!-- Node36 -->
<g id="node36" class="node">
<title>Node36</title>
<g id="a_node36"><a xlink:href="_array_class_8hpp.html" target="_top" xlink:title=" ">
<polygon fill="white" stroke="black" points="447.25,-338 447.25,-357.25 530.75,-357.25 530.75,-338 447.25,-338"/>
<text xml:space="preserve" text-anchor="middle" x="489" y="-343.75" font-family="Helvetica,sans-Serif" font-size="10.00">ArrayClass.hpp</text>
</a>
</g>
</g>
<!-- Node35&#45;&gt;Node36 -->
<g id="edge41" class="edge">
<title>Node35&#45;&gt;Node36</title>
<path fill="none" stroke="midnightblue" d="M511.54,-393.92C508,-386.81 502.93,-376.62 498.49,-367.7"/>
<polygon fill="midnightblue" stroke="midnightblue" points="501.64,-366.16 494.05,-358.77 495.37,-369.28 501.64,-366.16"/>
</g>
<!-- Node36&#45;&gt;Node15 -->
<g id="edge43" class="edge">
<title>Node36&#45;&gt;Node15</title>
<path fill="none" stroke="midnightblue" d="M452.68,-337.54C416.14,-328.41 359.62,-314.28 319.54,-304.26"/>
<polygon fill="midnightblue" stroke="midnightblue" points="320.46,-300.88 309.91,-301.85 318.76,-307.67 320.46,-300.88"/>
</g>
<!-- Node37 -->
<g id="node37" class="node">
<title>Node37</title>
<g id="a_node37"><a xlink:href="_number_array_8hpp.html" target="_top" xlink:title=" ">
<polygon fill="white" stroke="black" points="443.5,-281.75 443.5,-301 534.5,-301 534.5,-281.75 443.5,-281.75"/>
<text xml:space="preserve" text-anchor="middle" x="489" y="-287.5" font-family="Helvetica,sans-Serif" font-size="10.00">NumberArray.hpp</text>
</a>
</g>
</g>
<!-- Node36&#45;&gt;Node37 -->
<g id="edge42" class="edge">
<title>Node36&#45;&gt;Node37</title>
<path fill="none" stroke="midnightblue" d="M489,-337.67C489,-330.87 489,-321.26 489,-312.65"/>
<polygon fill="midnightblue" stroke="midnightblue" points="492.5,-312.68 489,-302.68 485.5,-312.68 492.5,-312.68"/>
</g>
<!-- Node39&#45;&gt;Node11 -->
<g id="edge46" class="edge">
<title>Node39&#45;&gt;Node11</title>
<path fill="none" stroke="midnightblue" d="M973.78,-393.92C978.52,-386.57 985.38,-375.93 991.27,-366.81"/>
<polygon fill="midnightblue" stroke="midnightblue" points="994.03,-368.99 996.51,-358.69 988.15,-365.19 994.03,-368.99"/>
</g>
<!-- Node40&#45;&gt;Node31 -->
<g id="edge54" class="edge">
<title>Node40&#45;&gt;Node31</title>
<path fill="none" stroke="midnightblue" d="M746.4,-393.79C722.55,-384.99 686.13,-371.55 659.21,-361.62"/>
<polygon fill="midnightblue" stroke="midnightblue" points="660.7,-358.44 650.1,-358.26 658.27,-365 660.7,-358.44"/>
</g>
<!-- Node41 -->
<g id="node41" class="node">
<title>Node41</title>
<g id="a_node41"><a xlink:href="_dead_object_8hpp.html" target="_top" xlink:title=" ">
<polygon fill="white" stroke="black" points="676.75,-338 676.75,-357.25 763.25,-357.25 763.25,-338 676.75,-338"/>
<text xml:space="preserve" text-anchor="middle" x="720" y="-343.75" font-family="Helvetica,sans-Serif" font-size="10.00">DeadObject.hpp</text>
</a>
</g>
</g>
<!-- Node40&#45;&gt;Node41 -->
<g id="edge48" class="edge">
<title>Node40&#45;&gt;Node41</title>
<path fill="none" stroke="midnightblue" d="M762.58,-393.92C755.37,-386.25 744.81,-375.01 736,-365.64"/>
<polygon fill="midnightblue" stroke="midnightblue" points="738.7,-363.41 729.3,-358.52 733.6,-368.2 738.7,-363.41"/>
</g>
<!-- Node42 -->
<g id="node42" class="node">
<title>Node42</title>
<g id="a_node42"><a xlink:title=" ">
<polygon fill="white" stroke="#bfbfbf" points="738.38,-281.75 738.38,-301 783.62,-301 783.62,-281.75 738.38,-281.75"/>
<text xml:space="preserve" text-anchor="middle" x="761" y="-287.5" font-family="Helvetica,sans-Serif" font-size="10.00">stdio.h</text>
</a>
</g>
</g>
<!-- Node40&#45;&gt;Node42 -->
<g id="edge55" class="edge">
<title>Node40&#45;&gt;Node42</title>
<path fill="none" stroke="midnightblue" d="M771.89,-393.95C772.99,-381.33 774.41,-357.56 772,-337.5 770.99,-329.09 768.96,-319.99 766.91,-312.18"/>
<polygon fill="midnightblue" stroke="midnightblue" points="770.32,-311.38 764.24,-302.71 763.59,-313.28 770.32,-311.38"/>
</g>
<!-- Node43 -->
<g id="node43" class="node">
<title>Node43</title>
<g id="a_node43"><a xlink:href="_interpreter_8hpp.html" target="_top" xlink:title=" ">
<polygon fill="white" stroke="black" points="818.88,-338 818.88,-357.25 897.12,-357.25 897.12,-338 818.88,-338"/>
<text xml:space="preserve" text-anchor="middle" x="858" y="-343.75" font-family="Helvetica,sans-Serif" font-size="10.00">Interpreter.hpp</text>
</a>
</g>
</g>
<!-- Node40&#45;&gt;Node43 -->
<g id="edge51" class="edge">
<title>Node40&#45;&gt;Node43</title>
<path fill="none" stroke="midnightblue" d="M785.37,-393.92C798.59,-385.67 818.46,-373.28 834.08,-363.54"/>
<polygon fill="midnightblue" stroke="midnightblue" points="835.69,-366.66 842.33,-358.4 831.99,-360.72 835.69,-366.66"/>
</g>
<!-- Node41&#45;&gt;Node14 -->
<g id="edge49" class="edge">
<title>Node41&#45;&gt;Node14</title>
<path fill="none" stroke="midnightblue" d="M712.8,-337.63C695.54,-316.39 649.78,-262.12 604,-225 589.75,-213.45 572.32,-202.57 558.07,-194.39"/>
<polygon fill="midnightblue" stroke="midnightblue" points="560.1,-191.51 549.66,-189.68 556.68,-197.62 560.1,-191.51"/>
</g>
<!-- Node41&#45;&gt;Node42 -->
<g id="edge50" class="edge">
<title>Node41&#45;&gt;Node42</title>
<path fill="none" stroke="midnightblue" d="M726.77,-337.67C732.38,-330.24 740.54,-319.45 747.48,-310.27"/>
<polygon fill="midnightblue" stroke="midnightblue" points="750.21,-312.46 753.44,-302.37 744.62,-308.24 750.21,-312.46"/>
</g>
<!-- Node43&#45;&gt;Node2 -->
<g id="edge52" class="edge">
<title>Node43&#45;&gt;Node2</title>
<path fill="none" stroke="midnightblue" d="M858.65,-357.57C860.24,-377.81 864.88,-428.64 874,-470.25 875.87,-478.76 878.6,-487.98 881.15,-495.86"/>
<polygon fill="midnightblue" stroke="midnightblue" points="877.75,-496.72 884.27,-505.07 884.38,-494.48 877.75,-496.72"/>
</g>
<!-- Node43&#45;&gt;Node33 -->
<g id="edge53" class="edge">
<title>Node43&#45;&gt;Node33</title>
<path fill="none" stroke="midnightblue" d="M865.6,-337.67C872.03,-330.08 881.43,-318.99 889.32,-309.68"/>
<polygon fill="midnightblue" stroke="midnightblue" points="891.77,-312.21 895.57,-302.32 886.43,-307.68 891.77,-312.21"/>
</g>
<!-- Node44&#45;&gt;Node24 -->
<g id="edge57" class="edge">
<title>Node44&#45;&gt;Node24</title>
<path fill="none" stroke="midnightblue" d="M126.25,-450.1C74.47,-437.37 0,-408.63 0,-348.62 0,-348.62 0,-348.62 0,-177.88 0,-122.66 177.16,-87.71 263.19,-73.99"/>
<polygon fill="midnightblue" stroke="midnightblue" points="263.62,-77.47 272.96,-72.47 262.54,-70.55 263.62,-77.47"/>
</g>
<!-- Node45 -->
<g id="node45" class="node">
<title>Node45</title>
<g id="a_node45"><a xlink:href="_primitive_behaviour_names_8h.html" target="_top" xlink:title=" ">
<polygon fill="white" stroke="black" points="106.25,-394.25 106.25,-413.5 243.75,-413.5 243.75,-394.25 106.25,-394.25"/>
<text xml:space="preserve" text-anchor="middle" x="175" y="-400" font-family="Helvetica,sans-Serif" font-size="10.00">PrimitiveBehaviourNames.h</text>
</a>
</g>
</g>
<!-- Node44&#45;&gt;Node45 -->
<g id="edge58" class="edge">
<title>Node44&#45;&gt;Node45</title>
<path fill="none" stroke="midnightblue" d="M175,-450.17C175,-443.37 175,-433.76 175,-425.15"/>
<polygon fill="midnightblue" stroke="midnightblue" points="178.5,-425.18 175,-415.18 171.5,-425.18 178.5,-425.18"/>
</g>
<!-- Node48 -->
<g id="node48" class="node">
<title>Node48</title>
<g id="a_node48"><a xlink:href="_source_location_8hpp.html" target="_top" xlink:title=" ">
<polygon fill="white" stroke="black" points="1318.88,-450.5 1318.88,-469.75 1421.12,-469.75 1421.12,-450.5 1318.88,-450.5"/>
<text xml:space="preserve" text-anchor="middle" x="1370" y="-456.25" font-family="Helvetica,sans-Serif" font-size="10.00">SourceLocation.hpp</text>
</a>
</g>
</g>
<!-- Node47&#45;&gt;Node48 -->
<g id="edge62" class="edge">
<title>Node47&#45;&gt;Node48</title>
<path fill="none" stroke="midnightblue" d="M1200.81,-507.02C1234.22,-497.96 1287.84,-483.41 1325.75,-473.13"/>
<polygon fill="midnightblue" stroke="midnightblue" points="1326.29,-476.61 1335.02,-470.61 1324.45,-469.85 1326.29,-476.61"/>
</g>
</g>
</svg>
        <g id="navigator" transform="translate(0 0)" fill="#404254">
                <rect fill="#f2f5e9" fill-opacity="0.5" stroke="#606060" stroke-width=".5" x="0" y="0" width="60" height="60"/>
                <use id="zoomplus" xlink:href="#zoomPlus" x="17" y="9" onmousedown="handleZoom(evt,'in')"/>
                <use id="zoomminus" xlink:href="#zoomMin" x="42" y="9" onmousedown="handleZoom(evt,'out')"/>
                <use id="reset" xlink:href="#resetDef" x="30" y="36" onmousedown="handleReset()"/>
                <g id="arrowUp" xlink:href="#dirArrow" transform="translate(30 24)" onmousedown="handlePan(0,-1)">
                  <use xlink:href="#rim" fill="#404040">
                        <set attributeName="fill" to="#808080" begin="arrowUp.mouseover" end="arrowUp.mouseout"/>
                  </use>
                  <path fill="none" stroke="white" stroke-width="1.5" d="M0,-3.0v7 M-2.5,-0.5L0,-3.0L2.5,-0.5"/>
                </g>
                <g id="arrowRight" xlink:href="#dirArrow" transform="rotate(90) translate(36 -43)" onmousedown="handlePan(1,0)">
                  <use xlink:href="#rim" fill="#404040">
                        <set attributeName="fill" to="#808080" begin="arrowRight.mouseover" end="arrowRight.mouseout"/>
                  </use>
                  <path fill="none" stroke="white" stroke-width="1.5" d="M0,-3.0v7 M-2.5,-0.5L0,-3.0L2.5,-0.5"/>
                </g>
                <g id="arrowDown" xlink:href="#dirArrow" transform="rotate(180) translate(-30 -48)" onmousedown="handlePan(0,1)">
                  <use xlink:href="#rim" fill="#404040">
                        <set attributeName="fill" to="#808080" begin="arrowDown.mouseover" end="arrowDown.mouseout"/>
                  </use>
                  <path fill="none" stroke="white" stroke-width="1.5" d="M0,-3.0v7 M-2.5,-0.5L0,-3.0L2.5,-0.5"/>
                </g>
                <g id="arrowLeft" xlink:href="#dirArrow" transform="rotate(270) translate(-36 17)" onmousedown="handlePan(-1,0)">
                  <use xlink:href="#rim" fill="#404040">
                        <set attributeName="fill" to="#808080" begin="arrowLeft.mouseover" end="arrowLeft.mouseout"/>
                  </use>
                  <path fill="none" stroke="white" stroke-width="1.5" d="M0,-3.0v7 M-2.5,-0.5L0,-3.0L2.5,-0.5"/>
                </g>
        </g>
        <svg viewBox="0 0 15 15" width="100%" height="30px" preserveAspectRatio="xMaxYMin meet">
         <g id="arrow_out" transform="scale(0.3 0.3)">
          <a xlink:href="_keyword_constants_8cpp__incl_org.svg" target="_base">
           <rect id="button" ry="5" rx="5" y="6" x="6" height="38" width="38"
                fill="#f2f5e9" fill-opacity="0.5" stroke="#606060" stroke-width="1.0"/>
           <path id="arrow"
             d="M 11.500037,31.436501 C 11.940474,20.09759 22.043105,11.32322 32.158766,21.979434 L 37.068811,17.246167 C 37.068811,17.246167 37.088388,32 37.088388,32 L 22.160133,31.978069 C 22.160133,31.978069 26.997745,27.140456 26.997745,27.140456 C 18.528582,18.264221 13.291696,25.230495 11.500037,31.436501 z"
             style="fill:#404040;"/>
          </a>
         </g>
        </svg>
</svg>
