<?xml version="1.0" encoding="UTF-8" standalone="no"?>
<!DOCTYPE svg PUBLIC "-//W3C//DTD SVG 1.1//EN"
 "http://www.w3.org/Graphics/SVG/1.1/DTD/svg11.dtd">
<!-- Generated by graphviz version 13.1.0 (20250701.0955)
 -->
<!-- Title: LocalQueueManager.cpp Pages: 1 -->
<svg width="915pt" height="366pt"
 viewBox="0.00 0.00 915.00 366.00" xmlns="http://www.w3.org/2000/svg" xmlns:xlink="http://www.w3.org/1999/xlink">
<g id="graph0" class="graph" transform="scale(1 1) rotate(0) translate(4 361.75)">
<title>LocalQueueManager.cpp</title>
<polygon fill="white" stroke="none" points="-4,4 -4,-361.75 911.04,-361.75 911.04,4 -4,4"/>
<!-- Node1 -->
<g id="node1" class="node">
<title>Node1</title>
<g id="a_node1"><a xlink:title=" ">
<polygon fill="#bfbfbf" stroke="black" points="513.42,-338 513.42,-357.25 636.67,-357.25 636.67,-338 513.42,-338"/>
<text xml:space="preserve" text-anchor="middle" x="575.04" y="-343.75" font-family="Helvetica,sans-Serif" font-size="10.00">LocalQueueManager.cpp</text>
</a>
</g>
</g>
<!-- Node2 -->
<g id="node2" class="node">
<title>Node2</title>
<g id="a_node2"><a xlink:href="_local_queue_manager_8hpp.html" target="_top" xlink:title=" ">
<polygon fill="white" stroke="black" points="105.42,-169.25 105.42,-188.5 228.67,-188.5 228.67,-169.25 105.42,-169.25"/>
<text xml:space="preserve" text-anchor="middle" x="167.04" y="-175" font-family="Helvetica,sans-Serif" font-size="10.00">LocalQueueManager.hpp</text>
</a>
</g>
</g>
<!-- Node1&#45;&gt;Node2 -->
<g id="edge1" class="edge">
<title>Node1&#45;&gt;Node2</title>
<path fill="none" stroke="midnightblue" d="M513.16,-343.21C436.12,-336.04 304,-313.87 216.04,-245.25 199.65,-232.46 185.96,-212.87 177.25,-198.47"/>
<polygon fill="midnightblue" stroke="midnightblue" points="180.39,-196.9 172.36,-189.98 174.32,-200.39 180.39,-196.9"/>
</g>
<!-- Node4 -->
<g id="node4" class="node">
<title>Node4</title>
<g id="a_node4"><a xlink:href="rexx_8h.html" target="_top" xlink:title=" ">
<polygon fill="white" stroke="black" points="411.54,-56.75 411.54,-76 454.54,-76 454.54,-56.75 411.54,-56.75"/>
<text xml:space="preserve" text-anchor="middle" x="433.04" y="-62.5" font-family="Helvetica,sans-Serif" font-size="10.00">rexx.h</text>
</a>
</g>
</g>
<!-- Node1&#45;&gt;Node4 -->
<g id="edge46" class="edge">
<title>Node1&#45;&gt;Node4</title>
<path fill="none" stroke="midnightblue" d="M513.07,-341.15C364.65,-327.22 1.04,-287.82 1.04,-236.12 1.04,-236.12 1.04,-236.12 1.04,-177.88 1.04,-147.62 -3.13,-131.96 20.04,-112.5 34.58,-100.3 304.44,-77.65 399.92,-69.99"/>
<polygon fill="midnightblue" stroke="midnightblue" points="399.98,-73.49 409.67,-69.21 399.42,-66.52 399.98,-73.49"/>
</g>
<!-- Node16 -->
<g id="node16" class="node">
<title>Node16</title>
<g id="a_node16"><a xlink:href="_utilities_8hpp.html" target="_top" xlink:title=" ">
<polygon fill="white" stroke="black" points="601.17,-56.75 601.17,-76 668.92,-76 668.92,-56.75 601.17,-56.75"/>
<text xml:space="preserve" text-anchor="middle" x="635.04" y="-62.5" font-family="Helvetica,sans-Serif" font-size="10.00">Utilities.hpp</text>
</a>
</g>
</g>
<!-- Node1&#45;&gt;Node16 -->
<g id="edge50" class="edge">
<title>Node1&#45;&gt;Node16</title>
<path fill="none" stroke="midnightblue" d="M636.68,-339.54C687.53,-332.49 754.38,-320.02 774.04,-301.5 796.07,-280.75 793.04,-266.38 793.04,-236.12 793.04,-236.12 793.04,-236.12 793.04,-177.88 793.04,-122.4 726.84,-92.45 680.14,-78.21"/>
<polygon fill="midnightblue" stroke="midnightblue" points="681.36,-74.92 670.78,-75.51 679.42,-81.65 681.36,-74.92"/>
</g>
<!-- Node18 -->
<g id="node18" class="node">
<title>Node18</title>
<g id="a_node18"><a xlink:href="_encodings_8hpp.html" target="_top" xlink:title=" ">
<polygon fill="white" stroke="black" points="500.79,-281.75 500.79,-301 581.29,-301 581.29,-281.75 500.79,-281.75"/>
<text xml:space="preserve" text-anchor="middle" x="541.04" y="-287.5" font-family="Helvetica,sans-Serif" font-size="10.00">Encodings.hpp</text>
</a>
</g>
</g>
<!-- Node1&#45;&gt;Node18 -->
<g id="edge23" class="edge">
<title>Node1&#45;&gt;Node18</title>
<path fill="none" stroke="midnightblue" d="M569.43,-337.67C564.87,-330.4 558.3,-319.91 552.63,-310.86"/>
<polygon fill="midnightblue" stroke="midnightblue" points="555.63,-309.06 547.36,-302.45 549.7,-312.78 555.63,-309.06"/>
</g>
<!-- Node19 -->
<g id="node19" class="node">
<title>Node19</title>
<g id="a_node19"><a xlink:href="_local_a_p_i_manager_8hpp.html" target="_top" xlink:title=" ">
<polygon fill="white" stroke="black" points="359.42,-281.75 359.42,-301 470.67,-301 470.67,-281.75 359.42,-281.75"/>
<text xml:space="preserve" text-anchor="middle" x="415.04" y="-287.5" font-family="Helvetica,sans-Serif" font-size="10.00">LocalAPIManager.hpp</text>
</a>
</g>
</g>
<!-- Node1&#45;&gt;Node19 -->
<g id="edge24" class="edge">
<title>Node1&#45;&gt;Node19</title>
<path fill="none" stroke="midnightblue" d="M548.26,-337.54C522.07,-328.66 481.96,-315.06 452.59,-305.11"/>
<polygon fill="midnightblue" stroke="midnightblue" points="453.94,-301.87 443.34,-301.97 451.69,-308.5 453.94,-301.87"/>
</g>
<!-- Node26 -->
<g id="node26" class="node">
<title>Node26</title>
<g id="a_node26"><a xlink:title=" ">
<polygon fill="white" stroke="#bfbfbf" points="636.79,-281.75 636.79,-301 765.29,-301 765.29,-281.75 636.79,-281.75"/>
<text xml:space="preserve" text-anchor="middle" x="701.04" y="-287.5" font-family="Helvetica,sans-Serif" font-size="10.00">SysLocalAPIManager.hpp</text>
</a>
</g>
</g>
<!-- Node1&#45;&gt;Node26 -->
<g id="edge45" class="edge">
<title>Node1&#45;&gt;Node26</title>
<path fill="none" stroke="midnightblue" d="M596.13,-337.54C616.12,-328.94 646.41,-315.9 669.31,-306.04"/>
<polygon fill="midnightblue" stroke="midnightblue" points="670.69,-309.25 678.49,-302.08 667.93,-302.82 670.69,-309.25"/>
</g>
<!-- Node27 -->
<g id="node27" class="node">
<title>Node27</title>
<g id="a_node27"><a xlink:href="_client_message_8hpp.html" target="_top" xlink:title=" ">
<polygon fill="white" stroke="black" points="665.04,-169.25 665.04,-188.5 765.04,-188.5 765.04,-169.25 665.04,-169.25"/>
<text xml:space="preserve" text-anchor="middle" x="715.04" y="-175" font-family="Helvetica,sans-Serif" font-size="10.00">ClientMessage.hpp</text>
</a>
</g>
</g>
<!-- Node1&#45;&gt;Node27 -->
<g id="edge47" class="edge">
<title>Node1&#45;&gt;Node27</title>
<path fill="none" stroke="midnightblue" d="M582.17,-337.68C592.27,-325.03 611.38,-301.22 628.04,-281.25 652.81,-251.56 682.22,-217.54 699.72,-197.43"/>
<polygon fill="midnightblue" stroke="midnightblue" points="702.35,-199.73 706.28,-189.89 697.08,-195.13 702.35,-199.73"/>
</g>
<!-- Node28 -->
<g id="node28" class="node">
<title>Node28</title>
<g id="a_node28"><a xlink:title=" ">
<polygon fill="white" stroke="#bfbfbf" points="820.92,-281.75 820.92,-301 869.17,-301 869.17,-281.75 820.92,-281.75"/>
<text xml:space="preserve" text-anchor="middle" x="845.04" y="-287.5" font-family="Helvetica,sans-Serif" font-size="10.00">ctype.h</text>
</a>
</g>
</g>
<!-- Node1&#45;&gt;Node28 -->
<g id="edge51" class="edge">
<title>Node1&#45;&gt;Node28</title>
<path fill="none" stroke="midnightblue" d="M624.95,-337.57C672.02,-328.87 744.49,-315.09 807.04,-301.5 807.86,-301.32 808.69,-301.14 809.53,-300.95"/>
<polygon fill="midnightblue" stroke="midnightblue" points="810.11,-304.41 819.07,-298.76 808.54,-297.59 810.11,-304.41"/>
</g>
<!-- Node3 -->
<g id="node3" class="node">
<title>Node3</title>
<g id="a_node3"><a xlink:href="_local_a_p_i_subsystem_8hpp.html" target="_top" xlink:title=" ">
<polygon fill="white" stroke="black" points="195.04,-113 195.04,-132.25 319.04,-132.25 319.04,-113 195.04,-113"/>
<text xml:space="preserve" text-anchor="middle" x="257.04" y="-118.75" font-family="Helvetica,sans-Serif" font-size="10.00">LocalAPISubsystem.hpp</text>
</a>
</g>
</g>
<!-- Node2&#45;&gt;Node3 -->
<g id="edge2" class="edge">
<title>Node2&#45;&gt;Node3</title>
<path fill="none" stroke="midnightblue" d="M181.91,-168.92C195.71,-160.59 216.53,-148.04 232.76,-138.27"/>
<polygon fill="midnightblue" stroke="midnightblue" points="234.11,-141.54 240.86,-133.38 230.49,-135.54 234.11,-141.54"/>
</g>
<!-- Node2&#45;&gt;Node4 -->
<g id="edge10" class="edge">
<title>Node2&#45;&gt;Node4</title>
<path fill="none" stroke="midnightblue" d="M161.06,-169.13C152.49,-155.42 139.2,-128.76 153.04,-112.5 168.93,-93.85 329.29,-76.93 399.93,-70.32"/>
<polygon fill="midnightblue" stroke="midnightblue" points="400.1,-73.82 409.74,-69.41 399.46,-66.85 400.1,-73.82"/>
</g>
<!-- Node11 -->
<g id="node11" class="node">
<title>Node11</title>
<g id="a_node11"><a xlink:href="_rxstring_8hpp.html" target="_top" xlink:title=" ">
<polygon fill="white" stroke="black" points="29.29,-113 29.29,-132.25 100.79,-132.25 100.79,-113 29.29,-113"/>
<text xml:space="preserve" text-anchor="middle" x="65.04" y="-118.75" font-family="Helvetica,sans-Serif" font-size="10.00">Rxstring.hpp</text>
</a>
</g>
</g>
<!-- Node2&#45;&gt;Node11 -->
<g id="edge11" class="edge">
<title>Node2&#45;&gt;Node11</title>
<path fill="none" stroke="midnightblue" d="M150.2,-168.92C134.4,-160.51 110.51,-147.81 92.05,-137.99"/>
<polygon fill="midnightblue" stroke="midnightblue" points="93.72,-134.91 83.25,-133.31 90.43,-141.09 93.72,-134.91"/>
</g>
<!-- Node13 -->
<g id="node13" class="node">
<title>Node13</title>
<g id="a_node13"><a xlink:href="_service_message_8hpp.html" target="_top" xlink:title=" ">
<polygon fill="white" stroke="black" points="575.29,-113 575.29,-132.25 682.79,-132.25 682.79,-113 575.29,-113"/>
<text xml:space="preserve" text-anchor="middle" x="629.04" y="-118.75" font-family="Helvetica,sans-Serif" font-size="10.00">ServiceMessage.hpp</text>
</a>
</g>
</g>
<!-- Node2&#45;&gt;Node13 -->
<g id="edge15" class="edge">
<title>Node2&#45;&gt;Node13</title>
<path fill="none" stroke="midnightblue" d="M228.87,-170.61C316.14,-160.37 474.73,-141.74 563.82,-131.28"/>
<polygon fill="midnightblue" stroke="midnightblue" points="564.09,-134.78 573.61,-130.13 563.27,-127.82 564.09,-134.78"/>
</g>
<!-- Node2&#45;&gt;Node16 -->
<g id="edge22" class="edge">
<title>Node2&#45;&gt;Node16</title>
<path fill="none" stroke="midnightblue" d="M166.74,-169.04C166.77,-154.7 169.15,-126.56 186.04,-112.5 201.42,-99.7 478.23,-78.59 589.39,-70.59"/>
<polygon fill="midnightblue" stroke="midnightblue" points="589.63,-74.08 599.35,-69.87 589.13,-67.1 589.63,-74.08"/>
</g>
<!-- Node3&#45;&gt;Node4 -->
<g id="edge3" class="edge">
<title>Node3&#45;&gt;Node4</title>
<path fill="none" stroke="midnightblue" d="M286.5,-112.54C318.01,-102.83 367.86,-87.47 400.51,-77.4"/>
<polygon fill="midnightblue" stroke="midnightblue" points="401.31,-80.82 409.83,-74.53 399.25,-74.13 401.31,-80.82"/>
</g>
<!-- Node9 -->
<g id="node9" class="node">
<title>Node9</title>
<g id="a_node9"><a xlink:href="_service_exception_8hpp.html" target="_top" xlink:title=" ">
<polygon fill="white" stroke="black" points="186.42,-56.75 186.42,-76 297.67,-76 297.67,-56.75 186.42,-56.75"/>
<text xml:space="preserve" text-anchor="middle" x="242.04" y="-62.5" font-family="Helvetica,sans-Serif" font-size="10.00">ServiceException.hpp</text>
</a>
</g>
</g>
<!-- Node3&#45;&gt;Node9 -->
<g id="edge8" class="edge">
<title>Node3&#45;&gt;Node9</title>
<path fill="none" stroke="midnightblue" d="M254.57,-112.67C252.64,-105.71 249.91,-95.82 247.48,-87.05"/>
<polygon fill="midnightblue" stroke="midnightblue" points="250.92,-86.33 244.88,-77.63 244.17,-88.2 250.92,-86.33"/>
</g>
<!-- Node5 -->
<g id="node5" class="node">
<title>Node5</title>
<g id="a_node5"><a xlink:title=" ">
<polygon fill="white" stroke="#bfbfbf" points="455.17,-0.5 455.17,-19.75 534.92,-19.75 534.92,-0.5 455.17,-0.5"/>
<text xml:space="preserve" text-anchor="middle" x="495.04" y="-6.25" font-family="Helvetica,sans-Serif" font-size="10.00">rexxapitypes.h</text>
</a>
</g>
</g>
<!-- Node4&#45;&gt;Node5 -->
<g id="edge4" class="edge">
<title>Node4&#45;&gt;Node5</title>
<path fill="none" stroke="midnightblue" d="M443.28,-56.42C452.31,-48.52 465.69,-36.81 476.58,-27.28"/>
<polygon fill="midnightblue" stroke="midnightblue" points="478.64,-30.13 483.86,-20.91 474.03,-24.86 478.64,-30.13"/>
</g>
<!-- Node6 -->
<g id="node6" class="node">
<title>Node6</title>
<g id="a_node6"><a xlink:href="rexxapidefs_8h.html" target="_top" xlink:title=" ">
<polygon fill="white" stroke="black" points="552.79,-0.5 552.79,-19.75 627.29,-19.75 627.29,-0.5 552.79,-0.5"/>
<text xml:space="preserve" text-anchor="middle" x="590.04" y="-6.25" font-family="Helvetica,sans-Serif" font-size="10.00">rexxapidefs.h</text>
</a>
</g>
</g>
<!-- Node4&#45;&gt;Node6 -->
<g id="edge5" class="edge">
<title>Node4&#45;&gt;Node6</title>
<path fill="none" stroke="midnightblue" d="M454.87,-57.83C480.24,-49.07 522.5,-34.46 553.03,-23.92"/>
<polygon fill="midnightblue" stroke="midnightblue" points="553.95,-27.3 562.26,-20.73 551.66,-20.68 553.95,-27.3"/>
</g>
<!-- Node7 -->
<g id="node7" class="node">
<title>Node7</title>
<g id="a_node7"><a xlink:title=" ">
<polygon fill="white" stroke="#bfbfbf" points="225.54,-0.5 225.54,-19.75 322.54,-19.75 322.54,-0.5 225.54,-0.5"/>
<text xml:space="preserve" text-anchor="middle" x="274.04" y="-6.25" font-family="Helvetica,sans-Serif" font-size="10.00">rexxplatformdefs.h</text>
</a>
</g>
</g>
<!-- Node4&#45;&gt;Node7 -->
<g id="edge6" class="edge">
<title>Node4&#45;&gt;Node7</title>
<path fill="none" stroke="midnightblue" d="M411.27,-57.95C385.59,-49.18 342.48,-34.47 311.42,-23.88"/>
<polygon fill="midnightblue" stroke="midnightblue" points="312.61,-20.59 302.01,-20.67 310.35,-27.21 312.61,-20.59"/>
</g>
<!-- Node8 -->
<g id="node8" class="node">
<title>Node8</title>
<g id="a_node8"><a xlink:title=" ">
<polygon fill="white" stroke="#bfbfbf" points="340.92,-0.5 340.92,-19.75 437.17,-19.75 437.17,-0.5 340.92,-0.5"/>
<text xml:space="preserve" text-anchor="middle" x="389.04" y="-6.25" font-family="Helvetica,sans-Serif" font-size="10.00">rexxplatformapis.h</text>
</a>
</g>
</g>
<!-- Node4&#45;&gt;Node8 -->
<g id="edge7" class="edge">
<title>Node4&#45;&gt;Node8</title>
<path fill="none" stroke="midnightblue" d="M425.78,-56.42C419.69,-48.91 410.82,-37.97 403.32,-28.73"/>
<polygon fill="midnightblue" stroke="midnightblue" points="406.14,-26.65 397.13,-21.09 400.71,-31.06 406.14,-26.65"/>
</g>
<!-- Node10 -->
<g id="node10" class="node">
<title>Node10</title>
<g id="a_node10"><a xlink:title=" ">
<polygon fill="white" stroke="#bfbfbf" points="158.92,-0.5 158.92,-19.75 207.17,-19.75 207.17,-0.5 158.92,-0.5"/>
<text xml:space="preserve" text-anchor="middle" x="183.04" y="-6.25" font-family="Helvetica,sans-Serif" font-size="10.00">string.h</text>
</a>
</g>
</g>
<!-- Node9&#45;&gt;Node10 -->
<g id="edge9" class="edge">
<title>Node9&#45;&gt;Node10</title>
<path fill="none" stroke="midnightblue" d="M232.3,-56.42C223.8,-48.6 211.23,-37.05 200.93,-27.57"/>
<polygon fill="midnightblue" stroke="midnightblue" points="203.45,-25.13 193.72,-20.94 198.71,-30.29 203.45,-25.13"/>
</g>
<!-- Node11&#45;&gt;Node4 -->
<g id="edge12" class="edge">
<title>Node11&#45;&gt;Node4</title>
<path fill="none" stroke="midnightblue" d="M101.06,-114.88C105.76,-114.05 110.51,-113.23 115.04,-112.5 218.85,-95.67 342.28,-79.15 400.1,-71.61"/>
<polygon fill="midnightblue" stroke="midnightblue" points="400.44,-75.1 409.91,-70.34 399.54,-68.16 400.44,-75.1"/>
</g>
<!-- Node11&#45;&gt;Node9 -->
<g id="edge13" class="edge">
<title>Node11&#45;&gt;Node9</title>
<path fill="none" stroke="midnightblue" d="M94.67,-112.54C123.9,-103.59 168.8,-89.82 201.36,-79.84"/>
<polygon fill="midnightblue" stroke="midnightblue" points="202.34,-83.21 210.87,-76.93 200.29,-76.51 202.34,-83.21"/>
</g>
<!-- Node12 -->
<g id="node12" class="node">
<title>Node12</title>
<g id="a_node12"><a xlink:title=" ">
<polygon fill="white" stroke="#bfbfbf" points="12.42,-56.75 12.42,-76 117.67,-76 117.67,-56.75 12.42,-56.75"/>
<text xml:space="preserve" text-anchor="middle" x="65.04" y="-62.5" font-family="Helvetica,sans-Serif" font-size="10.00">SysAPIManager.hpp</text>
</a>
</g>
</g>
<!-- Node11&#45;&gt;Node12 -->
<g id="edge14" class="edge">
<title>Node11&#45;&gt;Node12</title>
<path fill="none" stroke="midnightblue" d="M65.04,-112.67C65.04,-105.87 65.04,-96.26 65.04,-87.65"/>
<polygon fill="midnightblue" stroke="midnightblue" points="68.54,-87.68 65.04,-77.68 61.54,-87.68 68.54,-87.68"/>
</g>
<!-- Node13&#45;&gt;Node4 -->
<g id="edge16" class="edge">
<title>Node13&#45;&gt;Node4</title>
<path fill="none" stroke="midnightblue" d="M596.24,-112.54C560.05,-102.53 502.16,-86.5 465.94,-76.48"/>
<polygon fill="midnightblue" stroke="midnightblue" points="467.02,-73.15 456.45,-73.85 465.15,-79.89 467.02,-73.15"/>
</g>
<!-- Node13&#45;&gt;Node9 -->
<g id="edge17" class="edge">
<title>Node13&#45;&gt;Node9</title>
<path fill="none" stroke="midnightblue" d="M574.83,-114.02C505.28,-104.28 384.66,-87.37 309.32,-76.81"/>
<polygon fill="midnightblue" stroke="midnightblue" points="309.98,-73.36 299.59,-75.44 309.01,-80.3 309.98,-73.36"/>
</g>
<!-- Node14 -->
<g id="node14" class="node">
<title>Node14</title>
<g id="a_node14"><a xlink:href="_c_s_stream_8hpp.html" target="_top" xlink:title=" ">
<polygon fill="white" stroke="black" points="709.79,-56.75 709.79,-76 790.29,-76 790.29,-56.75 709.79,-56.75"/>
<text xml:space="preserve" text-anchor="middle" x="750.04" y="-62.5" font-family="Helvetica,sans-Serif" font-size="10.00">CSStream.hpp</text>
</a>
</g>
</g>
<!-- Node13&#45;&gt;Node14 -->
<g id="edge18" class="edge">
<title>Node13&#45;&gt;Node14</title>
<path fill="none" stroke="midnightblue" d="M649.3,-112.54C668.4,-103.98 697.31,-91.02 719.27,-81.17"/>
<polygon fill="midnightblue" stroke="midnightblue" points="720.65,-84.39 728.34,-77.1 717.79,-78 720.65,-84.39"/>
</g>
<!-- Node15 -->
<g id="node15" class="node">
<title>Node15</title>
<g id="a_node15"><a xlink:title=" ">
<polygon fill="white" stroke="#bfbfbf" points="819.04,-56.75 819.04,-76 907.04,-76 907.04,-56.75 819.04,-56.75"/>
<text xml:space="preserve" text-anchor="middle" x="863.04" y="-62.5" font-family="Helvetica,sans-Serif" font-size="10.00">SysProcess.hpp</text>
</a>
</g>
</g>
<!-- Node13&#45;&gt;Node15 -->
<g id="edge19" class="edge">
<title>Node13&#45;&gt;Node15</title>
<path fill="none" stroke="midnightblue" d="M668.21,-112.54C707.86,-103.35 769.34,-89.1 812.61,-79.07"/>
<polygon fill="midnightblue" stroke="midnightblue" points="813.32,-82.49 822.27,-76.83 811.74,-75.68 813.32,-82.49"/>
</g>
<!-- Node13&#45;&gt;Node16 -->
<g id="edge20" class="edge">
<title>Node13&#45;&gt;Node16</title>
<path fill="none" stroke="midnightblue" d="M630.03,-112.67C630.79,-105.79 631.87,-96.04 632.83,-87.35"/>
<polygon fill="midnightblue" stroke="midnightblue" points="636.28,-88 633.9,-77.67 629.33,-87.23 636.28,-88"/>
</g>
<!-- Node17 -->
<g id="node17" class="node">
<title>Node17</title>
<g id="a_node17"><a xlink:title=" ">
<polygon fill="white" stroke="#bfbfbf" points="645.54,-0.5 645.54,-19.75 712.54,-19.75 712.54,-0.5 645.54,-0.5"/>
<text xml:space="preserve" text-anchor="middle" x="679.04" y="-6.25" font-family="Helvetica,sans-Serif" font-size="10.00">sys/types.h</text>
</a>
</g>
</g>
<!-- Node16&#45;&gt;Node17 -->
<g id="edge21" class="edge">
<title>Node16&#45;&gt;Node17</title>
<path fill="none" stroke="midnightblue" d="M642.31,-56.42C648.4,-48.91 657.27,-37.97 664.77,-28.73"/>
<polygon fill="midnightblue" stroke="midnightblue" points="667.38,-31.06 670.96,-21.09 661.94,-26.65 667.38,-31.06"/>
</g>
<!-- Node19&#45;&gt;Node2 -->
<g id="edge33" class="edge">
<title>Node19&#45;&gt;Node2</title>
<path fill="none" stroke="midnightblue" d="M362.89,-281.29C329.94,-274.27 287.12,-262.75 252.04,-245.25 226.18,-232.34 200.43,-211.05 184.16,-196.29"/>
<polygon fill="midnightblue" stroke="midnightblue" points="186.98,-194.12 177.27,-189.88 182.21,-199.25 186.98,-194.12"/>
</g>
<!-- Node19&#45;&gt;Node14 -->
<g id="edge41" class="edge">
<title>Node19&#45;&gt;Node14</title>
<path fill="none" stroke="midnightblue" d="M464.71,-281.26C551.44,-264.56 725.85,-227.24 774.04,-189 803.05,-165.98 823.17,-145.83 807.04,-112.5 800.96,-99.93 789.5,-89.8 778.44,-82.35"/>
<polygon fill="midnightblue" stroke="midnightblue" points="780.6,-79.57 770.25,-77.29 776.92,-85.52 780.6,-79.57"/>
</g>
<!-- Node19&#45;&gt;Node15 -->
<g id="edge42" class="edge">
<title>Node19&#45;&gt;Node15</title>
<path fill="none" stroke="midnightblue" d="M470.98,-282.43C535.86,-272.91 638.7,-256.8 676.04,-245.25 733.47,-227.48 755.38,-230.31 799.04,-189 829.57,-160.12 848.38,-113.42 857.15,-87.08"/>
<polygon fill="midnightblue" stroke="midnightblue" points="860.44,-88.28 860.12,-77.69 853.77,-86.18 860.44,-88.28"/>
</g>
<!-- Node20 -->
<g id="node20" class="node">
<title>Node20</title>
<g id="a_node20"><a xlink:href="_local_registration_manager_8hpp.html" target="_top" xlink:title=" ">
<polygon fill="white" stroke="black" points="436.42,-225.5 436.42,-244.75 583.67,-244.75 583.67,-225.5 436.42,-225.5"/>
<text xml:space="preserve" text-anchor="middle" x="510.04" y="-231.25" font-family="Helvetica,sans-Serif" font-size="10.00">LocalRegistrationManager.hpp</text>
</a>
</g>
</g>
<!-- Node19&#45;&gt;Node20 -->
<g id="edge25" class="edge">
<title>Node19&#45;&gt;Node20</title>
<path fill="none" stroke="midnightblue" d="M430.73,-281.42C445.31,-273.09 467.28,-260.54 484.41,-250.77"/>
<polygon fill="midnightblue" stroke="midnightblue" points="486.07,-253.85 493.02,-245.85 482.6,-247.77 486.07,-253.85"/>
</g>
<!-- Node22 -->
<g id="node22" class="node">
<title>Node22</title>
<g id="a_node22"><a xlink:href="_local_macro_space_manager_8hpp.html" target="_top" xlink:title=" ">
<polygon fill="white" stroke="black" points="293.29,-169.25 293.29,-188.5 442.79,-188.5 442.79,-169.25 293.29,-169.25"/>
<text xml:space="preserve" text-anchor="middle" x="368.04" y="-175" font-family="Helvetica,sans-Serif" font-size="10.00">LocalMacroSpaceManager.hpp</text>
</a>
</g>
</g>
<!-- Node19&#45;&gt;Node22 -->
<g id="edge34" class="edge">
<title>Node19&#45;&gt;Node22</title>
<path fill="none" stroke="midnightblue" d="M359.72,-281.32C320.62,-273.66 273.11,-261.36 261.04,-245.25 242.24,-220.14 278.5,-202.59 313.8,-192.04"/>
<polygon fill="midnightblue" stroke="midnightblue" points="314.52,-195.47 323.2,-189.4 312.63,-188.73 314.52,-195.47"/>
</g>
<!-- Node24 -->
<g id="node24" class="node">
<title>Node24</title>
<g id="a_node24"><a xlink:title=" ">
<polygon fill="white" stroke="#bfbfbf" points="270.29,-225.5 270.29,-244.75 371.79,-244.75 371.79,-225.5 270.29,-225.5"/>
<text xml:space="preserve" text-anchor="middle" x="321.04" y="-231.25" font-family="Helvetica,sans-Serif" font-size="10.00">SysSemaphore.hpp</text>
</a>
</g>
</g>
<!-- Node19&#45;&gt;Node24 -->
<g id="edge43" class="edge">
<title>Node19&#45;&gt;Node24</title>
<path fill="none" stroke="midnightblue" d="M399.52,-281.42C385.1,-273.09 363.36,-260.54 346.41,-250.77"/>
<polygon fill="midnightblue" stroke="midnightblue" points="348.31,-247.82 337.9,-245.85 344.81,-253.88 348.31,-247.82"/>
</g>
<!-- Node25 -->
<g id="node25" class="node">
<title>Node25</title>
<g id="a_node25"><a xlink:title=" ">
<polygon fill="white" stroke="#bfbfbf" points="389.64,-225.5 389.64,-244.75 418.44,-244.75 418.44,-225.5 389.64,-225.5"/>
<text xml:space="preserve" text-anchor="middle" x="404.02" y="-231.25" font-family="Helvetica,sans-Serif" font-size="10.00">list</text>
</a>
</g>
</g>
<!-- Node19&#45;&gt;Node25 -->
<g id="edge44" class="edge">
<title>Node19&#45;&gt;Node25</title>
<path fill="none" stroke="midnightblue" d="M413.23,-281.42C411.83,-274.54 409.86,-264.79 408.09,-256.1"/>
<polygon fill="midnightblue" stroke="midnightblue" points="411.54,-255.5 406.13,-246.4 404.68,-256.9 411.54,-255.5"/>
</g>
<!-- Node20&#45;&gt;Node3 -->
<g id="edge30" class="edge">
<title>Node20&#45;&gt;Node3</title>
<path fill="none" stroke="midnightblue" d="M449.22,-225C386.72,-215.15 296.77,-199.47 284.04,-189 270.26,-177.67 263.42,-158.14 260.09,-143.37"/>
<polygon fill="midnightblue" stroke="midnightblue" points="263.59,-143.04 258.32,-133.85 256.71,-144.32 263.59,-143.04"/>
</g>
<!-- Node20&#45;&gt;Node4 -->
<g id="edge32" class="edge">
<title>Node20&#45;&gt;Node4</title>
<path fill="none" stroke="midnightblue" d="M505.9,-225.16C493.84,-199.03 458.52,-122.55 441.89,-86.54"/>
<polygon fill="midnightblue" stroke="midnightblue" points="445.21,-85.37 437.84,-77.76 438.85,-88.3 445.21,-85.37"/>
</g>
<!-- Node20&#45;&gt;Node13 -->
<g id="edge31" class="edge">
<title>Node20&#45;&gt;Node13</title>
<path fill="none" stroke="midnightblue" d="M510.16,-225.42C510.81,-211.77 513.93,-185.18 528.04,-168.75 541.06,-153.6 560.17,-143.31 578.27,-136.43"/>
<polygon fill="midnightblue" stroke="midnightblue" points="579.34,-139.77 587.63,-133.17 577.03,-133.16 579.34,-139.77"/>
</g>
<!-- Node21 -->
<g id="node21" class="node">
<title>Node21</title>
<g id="a_node21"><a xlink:href="_registration_table_8hpp.html" target="_top" xlink:title=" ">
<polygon fill="white" stroke="black" points="536.79,-169.25 536.79,-188.5 647.29,-188.5 647.29,-169.25 536.79,-169.25"/>
<text xml:space="preserve" text-anchor="middle" x="592.04" y="-175" font-family="Helvetica,sans-Serif" font-size="10.00">RegistrationTable.hpp</text>
</a>
</g>
</g>
<!-- Node20&#45;&gt;Node21 -->
<g id="edge26" class="edge">
<title>Node20&#45;&gt;Node21</title>
<path fill="none" stroke="midnightblue" d="M523.58,-225.17C535.93,-217 554.42,-204.77 569.07,-195.07"/>
<polygon fill="midnightblue" stroke="midnightblue" points="570.81,-198.12 577.22,-189.68 566.95,-192.28 570.81,-198.12"/>
</g>
<!-- Node21&#45;&gt;Node4 -->
<g id="edge27" class="edge">
<title>Node21&#45;&gt;Node4</title>
<path fill="none" stroke="midnightblue" d="M579.03,-168.83C551.88,-149.96 488.91,-106.2 455.23,-82.79"/>
<polygon fill="midnightblue" stroke="midnightblue" points="457.24,-79.93 447.03,-77.1 453.25,-85.68 457.24,-79.93"/>
</g>
<!-- Node21&#45;&gt;Node13 -->
<g id="edge28" class="edge">
<title>Node21&#45;&gt;Node13</title>
<path fill="none" stroke="midnightblue" d="M598.15,-168.92C603.16,-161.57 610.42,-150.93 616.64,-141.81"/>
<polygon fill="midnightblue" stroke="midnightblue" points="619.45,-143.9 622.19,-133.67 613.67,-139.96 619.45,-143.9"/>
</g>
<!-- Node21&#45;&gt;Node16 -->
<g id="edge29" class="edge">
<title>Node21&#45;&gt;Node16</title>
<path fill="none" stroke="midnightblue" d="M638.3,-168.8C658.4,-162.32 680.06,-151.31 692.04,-132.75 704.2,-113.92 682.95,-94.89 663.03,-82.25"/>
<polygon fill="midnightblue" stroke="midnightblue" points="664.9,-79.29 654.52,-77.2 661.33,-85.31 664.9,-79.29"/>
</g>
<!-- Node22&#45;&gt;Node3 -->
<g id="edge35" class="edge">
<title>Node22&#45;&gt;Node3</title>
<path fill="none" stroke="midnightblue" d="M349.46,-168.79C332.1,-160.31 305.9,-147.5 285.83,-137.69"/>
<polygon fill="midnightblue" stroke="midnightblue" points="287.56,-134.65 277.04,-133.4 284.49,-140.94 287.56,-134.65"/>
</g>
<!-- Node22&#45;&gt;Node4 -->
<g id="edge37" class="edge">
<title>Node22&#45;&gt;Node4</title>
<path fill="none" stroke="midnightblue" d="M380.33,-168.81C390.74,-160.52 405.32,-147.34 414.04,-132.75 422.4,-118.77 427.27,-100.9 429.98,-87.37"/>
<polygon fill="midnightblue" stroke="midnightblue" points="433.36,-88.36 431.64,-77.9 426.46,-87.15 433.36,-88.36"/>
</g>
<!-- Node22&#45;&gt;Node11 -->
<g id="edge38" class="edge">
<title>Node22&#45;&gt;Node11</title>
<path fill="none" stroke="midnightblue" d="M317.33,-168.79C260.23,-158.57 168.19,-142.09 112.48,-132.12"/>
<polygon fill="midnightblue" stroke="midnightblue" points="113.12,-128.68 102.66,-130.36 111.88,-135.57 113.12,-128.68"/>
</g>
<!-- Node22&#45;&gt;Node13 -->
<g id="edge36" class="edge">
<title>Node22&#45;&gt;Node13</title>
<path fill="none" stroke="midnightblue" d="M411.73,-168.79C456.33,-159.52 525.7,-145.11 574.02,-135.06"/>
<polygon fill="midnightblue" stroke="midnightblue" points="574.66,-138.5 583.73,-133.04 573.23,-131.65 574.66,-138.5"/>
</g>
<!-- Node22&#45;&gt;Node16 -->
<g id="edge39" class="edge">
<title>Node22&#45;&gt;Node16</title>
<path fill="none" stroke="midnightblue" d="M389.89,-168.83C436.85,-149.4 547.58,-103.57 602.7,-80.76"/>
<polygon fill="midnightblue" stroke="midnightblue" points="603.97,-84.02 611.87,-76.97 601.29,-77.56 603.97,-84.02"/>
</g>
<!-- Node23 -->
<g id="node23" class="node">
<title>Node23</title>
<g id="a_node23"><a xlink:title=" ">
<polygon fill="white" stroke="#bfbfbf" points="337.17,-113 337.17,-132.25 404.92,-132.25 404.92,-113 337.17,-113"/>
<text xml:space="preserve" text-anchor="middle" x="371.04" y="-118.75" font-family="Helvetica,sans-Serif" font-size="10.00">SysFile.hpp</text>
</a>
</g>
</g>
<!-- Node22&#45;&gt;Node23 -->
<g id="edge40" class="edge">
<title>Node22&#45;&gt;Node23</title>
<path fill="none" stroke="midnightblue" d="M368.54,-168.92C368.91,-162.12 369.45,-152.51 369.92,-143.9"/>
<polygon fill="midnightblue" stroke="midnightblue" points="373.42,-144.11 370.47,-133.93 366.43,-143.72 373.42,-144.11"/>
</g>
<!-- Node27&#45;&gt;Node4 -->
<g id="edge48" class="edge">
<title>Node27&#45;&gt;Node4</title>
<path fill="none" stroke="midnightblue" d="M714.66,-169.13C713.53,-154.92 709.12,-126.96 692.04,-112.5 658.41,-84.02 528.12,-72.83 466.15,-69.05"/>
<polygon fill="midnightblue" stroke="midnightblue" points="466.41,-65.56 456.23,-68.48 466.01,-72.55 466.41,-65.56"/>
</g>
<!-- Node27&#45;&gt;Node13 -->
<g id="edge49" class="edge">
<title>Node27&#45;&gt;Node13</title>
<path fill="none" stroke="midnightblue" d="M700.84,-168.92C687.77,-160.67 668.13,-148.28 652.69,-138.54"/>
<polygon fill="midnightblue" stroke="midnightblue" points="654.87,-135.78 644.55,-133.4 651.14,-141.7 654.87,-135.78"/>
</g>
</g>
</svg>
