<?xml version="1.0" encoding="UTF-8" standalone="no"?>
<!DOCTYPE svg PUBLIC "-//W3C//DTD SVG 1.1//EN"
 "http://www.w3.org/Graphics/SVG/1.1/DTD/svg11.dtd">
<!-- Generated by graphviz version 13.1.0 (20250701.0955)
 -->
<!-- Title: LocalAPIManager.hpp Pages: 1 -->
<!--zoomable 141 -->
<svg id="main" version="1.1" xmlns="http://www.w3.org/2000/svg" xmlns:xlink="http://www.w3.org/1999/xlink" xml:space="preserve" onload="init(evt)">
<style type="text/css"><![CDATA[
.edge:hover path { stroke: red; }
.edge:hover polygon { stroke: red; fill: red; }
]]></style>
<script type="text/javascript"><![CDATA[
var edges = document.getElementsByTagName('g');
if (edges && edges.length) {
  for (var i=0;i<edges.length;i++) {
    if (edges[i].id.substr(0,4)=='edge') {
      edges[i].setAttribute('class','edge');
    }
  }
}
]]></script>
        <defs>
                <circle id="rim" cx="0" cy="0" r="7"/>
                <circle id="rim2" cx="0" cy="0" r="3.5"/>
                <g id="zoomPlus">
                        <use xlink:href="#rim" fill="#404040">
                                <set attributeName="fill" to="#808080" begin="zoomplus.mouseover" end="zoomplus.mouseout"/>
                        </use>
                        <path d="M-4,0h8M0,-4v8" fill="none" stroke="white" stroke-width="1.5" pointer-events="none"/>
                </g>
                <g id="zoomMin">
                        <use xlink:href="#rim" fill="#404040">
                                <set attributeName="fill" to="#808080" begin="zoomminus.mouseover" end="zoomminus.mouseout"/>
                        </use>
                        <path d="M-4,0h8" fill="none" stroke="white" stroke-width="1.5" pointer-events="none"/>
                </g>
                <g id="dirArrow">
                        <path fill="none" stroke="white" stroke-width="1.5" d="M0,-3.0v7 M-2.5,-0.5L0,-3.0L2.5,-0.5"/>
                </g>
               <g id="resetDef">
                       <use xlink:href="#rim2" fill="#404040">
                               <set attributeName="fill" to="#808080" begin="reset.mouseover" end="reset.mouseout"/>
                       </use>
               </g>
        </defs>

<script type="text/javascript">
var viewWidth = 1247;
var viewHeight = 141;
var sectionId = 'dynsection-1';
</script>
<script xlink:href="svgpan.js"/>
<svg id="graph" class="graph">
<g id="viewport">
<title>LocalAPIManager.hpp</title>
<polygon fill="white" stroke="none" points="-4,4 -4,-136.75 1242.62,-136.75 1242.62,4 -4,4"/>
<!-- Node1 -->
<g id="node1" class="node">
<title>Node1</title>
<g id="a_node1"><a xlink:title=" ">
<polygon fill="#bfbfbf" stroke="black" points="380,-113 380,-132.25 491.25,-132.25 491.25,-113 380,-113"/>
<text xml:space="preserve" text-anchor="middle" x="435.62" y="-118.75" font-family="Helvetica,sans-Serif" font-size="10.00">LocalAPIManager.hpp</text>
</a>
</g>
</g>
<!-- Node2 -->
<g id="node2" class="node">
<title>Node2</title>
<g id="a_node2"><a xlink:href="_local_a_p_i_manager_8cpp.html" target="_top" xlink:title=" ">
<polygon fill="white" stroke="black" points="0,-56.75 0,-76 111.25,-76 111.25,-56.75 0,-56.75"/>
<text xml:space="preserve" text-anchor="middle" x="55.62" y="-62.5" font-family="Helvetica,sans-Serif" font-size="10.00">LocalAPIManager.cpp</text>
</a>
</g>
</g>
<!-- Node1&#45;&gt;Node2 -->
<g id="edge1" class="edge">
<title>Node1&#45;&gt;Node2</title>
<path fill="none" stroke="midnightblue" d="M368.2,-112C295.14,-101.57 179.87,-85.11 111.62,-75.37"/>
<polygon fill="midnightblue" stroke="midnightblue" points="367.66,-115.46 378.06,-113.41 368.65,-108.53 367.66,-115.46"/>
</g>
<!-- Node3 -->
<g id="node3" class="node">
<title>Node3</title>
<g id="a_node3"><a xlink:href="_queues_a_p_i_8cpp.html" target="_top" xlink:title=" ">
<polygon fill="white" stroke="black" points="23.12,-0.5 23.12,-19.75 108.12,-19.75 108.12,-0.5 23.12,-0.5"/>
<text xml:space="preserve" text-anchor="middle" x="65.62" y="-6.25" font-family="Helvetica,sans-Serif" font-size="10.00">QueuesAPI.cpp</text>
</a>
</g>
</g>
<!-- Node1&#45;&gt;Node3 -->
<g id="edge2" class="edge">
<title>Node1&#45;&gt;Node3</title>
<path fill="none" stroke="midnightblue" d="M368.58,-116.07C316.19,-110.24 242.19,-98.7 180.62,-76.5 140.66,-62.09 98.4,-34.37 78.03,-20.1"/>
<polygon fill="midnightblue" stroke="midnightblue" points="367.93,-119.52 378.24,-117.1 368.67,-112.56 367.93,-119.52"/>
</g>
<!-- Node4 -->
<g id="node4" class="node">
<title>Node4</title>
<g id="a_node4"><a xlink:href="_macro_space_api_8cpp.html" target="_top" xlink:title=" ">
<polygon fill="white" stroke="black" points="125.75,-0.5 125.75,-19.75 229.5,-19.75 229.5,-0.5 125.75,-0.5"/>
<text xml:space="preserve" text-anchor="middle" x="177.62" y="-6.25" font-family="Helvetica,sans-Serif" font-size="10.00">MacroSpaceApi.cpp</text>
</a>
</g>
</g>
<!-- Node1&#45;&gt;Node4 -->
<g id="edge3" class="edge">
<title>Node1&#45;&gt;Node4</title>
<path fill="none" stroke="midnightblue" d="M368.48,-116.59C307.14,-110.65 222.36,-98.66 197.62,-76.5 181.18,-61.77 178.08,-33.93 177.61,-19.81"/>
<polygon fill="midnightblue" stroke="midnightblue" points="367.85,-120.04 378.13,-117.49 368.5,-113.07 367.85,-120.04"/>
</g>
<!-- Node5 -->
<g id="node5" class="node">
<title>Node5</title>
<g id="a_node5"><a xlink:href="unix_2_sys_local_a_p_i_manager_8cpp.html" target="_top" xlink:title=" ">
<polygon fill="white" stroke="black" points="371.38,-56.75 371.38,-76 499.88,-76 499.88,-56.75 371.38,-56.75"/>
<text xml:space="preserve" text-anchor="middle" x="435.62" y="-62.5" font-family="Helvetica,sans-Serif" font-size="10.00">SysLocalAPIManager.cpp</text>
</a>
</g>
</g>
<!-- Node1&#45;&gt;Node5 -->
<g id="edge4" class="edge">
<title>Node1&#45;&gt;Node5</title>
<path fill="none" stroke="midnightblue" d="M435.62,-101.44C435.62,-92.73 435.62,-82.99 435.62,-76.17"/>
<polygon fill="midnightblue" stroke="midnightblue" points="432.13,-101.15 435.63,-111.15 439.13,-101.15 432.13,-101.15"/>
</g>
<!-- Node6 -->
<g id="node6" class="node">
<title>Node6</title>
<g id="a_node6"><a xlink:href="windows_2_sys_local_a_p_i_manager_8cpp.html" target="_top" xlink:title=" ">
<polygon fill="white" stroke="black" points="518.38,-56.75 518.38,-76 646.88,-76 646.88,-56.75 518.38,-56.75"/>
<text xml:space="preserve" text-anchor="middle" x="582.62" y="-62.5" font-family="Helvetica,sans-Serif" font-size="10.00">SysLocalAPIManager.cpp</text>
</a>
</g>
</g>
<!-- Node1&#45;&gt;Node6 -->
<g id="edge5" class="edge">
<title>Node1&#45;&gt;Node6</title>
<path fill="none" stroke="midnightblue" d="M470.75,-108.66C497.64,-98.74 534.06,-85.3 557.94,-76.48"/>
<polygon fill="midnightblue" stroke="midnightblue" points="469.82,-105.27 461.65,-112.02 472.24,-111.84 469.82,-105.27"/>
</g>
<!-- Node7 -->
<g id="node7" class="node">
<title>Node7</title>
<g id="a_node7"><a xlink:href="_local_queue_manager_8cpp.html" target="_top" xlink:title=" ">
<polygon fill="white" stroke="black" points="665,-56.75 665,-76 788.25,-76 788.25,-56.75 665,-56.75"/>
<text xml:space="preserve" text-anchor="middle" x="726.62" y="-62.5" font-family="Helvetica,sans-Serif" font-size="10.00">LocalQueueManager.cpp</text>
</a>
</g>
</g>
<!-- Node1&#45;&gt;Node7 -->
<g id="edge6" class="edge">
<title>Node1&#45;&gt;Node7</title>
<path fill="none" stroke="midnightblue" d="M495.44,-110.47C549.32,-100.43 627.55,-85.85 677.76,-76.48"/>
<polygon fill="midnightblue" stroke="midnightblue" points="495.01,-106.99 485.82,-112.27 496.29,-113.88 495.01,-106.99"/>
</g>
<!-- Node8 -->
<g id="node8" class="node">
<title>Node8</title>
<g id="a_node8"><a xlink:href="_registration_a_p_i_8cpp.html" target="_top" xlink:title=" ">
<polygon fill="white" stroke="black" points="373.75,-0.5 373.75,-19.75 477.5,-19.75 477.5,-0.5 373.75,-0.5"/>
<text xml:space="preserve" text-anchor="middle" x="425.62" y="-6.25" font-family="Helvetica,sans-Serif" font-size="10.00">RegistrationAPI.cpp</text>
</a>
</g>
</g>
<!-- Node1&#45;&gt;Node8 -->
<g id="edge7" class="edge">
<title>Node1&#45;&gt;Node8</title>
<path fill="none" stroke="midnightblue" d="M398.03,-107.67C384.36,-100.55 370.37,-90.4 362.62,-76.5 349.5,-52.96 382.02,-31.7 405.06,-20.17"/>
<polygon fill="midnightblue" stroke="midnightblue" points="396.41,-110.77 406.94,-111.88 399.4,-104.44 396.41,-110.77"/>
</g>
<!-- Node9 -->
<g id="node9" class="node">
<title>Node9</title>
<g id="a_node9"><a xlink:href="_local_registration_manager_8cpp.html" target="_top" xlink:title=" ">
<polygon fill="white" stroke="black" points="806,-56.75 806,-76 953.25,-76 953.25,-56.75 806,-56.75"/>
<text xml:space="preserve" text-anchor="middle" x="879.62" y="-62.5" font-family="Helvetica,sans-Serif" font-size="10.00">LocalRegistrationManager.cpp</text>
</a>
</g>
</g>
<!-- Node1&#45;&gt;Node9 -->
<g id="edge8" class="edge">
<title>Node1&#45;&gt;Node9</title>
<path fill="none" stroke="midnightblue" d="M502.52,-113.45C583.96,-103.5 721.07,-86.75 805.61,-76.42"/>
<polygon fill="midnightblue" stroke="midnightblue" points="502.41,-109.94 492.91,-114.63 503.26,-116.89 502.41,-109.94"/>
</g>
<!-- Node10 -->
<g id="node10" class="node">
<title>Node10</title>
<g id="a_node10"><a xlink:href="_local_macro_space_manager_8cpp.html" target="_top" xlink:title=" ">
<polygon fill="white" stroke="black" points="970.88,-56.75 970.88,-76 1120.38,-76 1120.38,-56.75 970.88,-56.75"/>
<text xml:space="preserve" text-anchor="middle" x="1045.62" y="-62.5" font-family="Helvetica,sans-Serif" font-size="10.00">LocalMacroSpaceManager.cpp</text>
</a>
</g>
</g>
<!-- Node1&#45;&gt;Node10 -->
<g id="edge9" class="edge">
<title>Node1&#45;&gt;Node10</title>
<path fill="none" stroke="midnightblue" d="M502.89,-116.39C603.12,-108.46 797.57,-92.64 962.62,-76.5 965.22,-76.25 967.86,-75.98 970.53,-75.71"/>
<polygon fill="midnightblue" stroke="midnightblue" points="502.64,-112.9 492.95,-117.17 503.19,-119.87 502.64,-112.9"/>
</g>
<!-- Node11 -->
<g id="node11" class="node">
<title>Node11</title>
<g id="a_node11"><a xlink:href="_client_message_8cpp.html" target="_top" xlink:title=" ">
<polygon fill="white" stroke="black" points="1138.62,-56.75 1138.62,-76 1238.62,-76 1238.62,-56.75 1138.62,-56.75"/>
<text xml:space="preserve" text-anchor="middle" x="1188.62" y="-62.5" font-family="Helvetica,sans-Serif" font-size="10.00">ClientMessage.cpp</text>
</a>
</g>
</g>
<!-- Node1&#45;&gt;Node11 -->
<g id="edge10" class="edge">
<title>Node1&#45;&gt;Node11</title>
<path fill="none" stroke="midnightblue" d="M502.72,-119.24C626.79,-114.39 900.34,-101.64 1129.62,-76.5 1132.41,-76.2 1135.26,-75.85 1138.13,-75.48"/>
<polygon fill="midnightblue" stroke="midnightblue" points="502.91,-115.73 493.06,-119.61 503.18,-122.72 502.91,-115.73"/>
</g>
<!-- Node12 -->
<g id="node12" class="node">
<title>Node12</title>
<g id="a_node12"><a xlink:href="_local_a_p_i_context_8hpp.html" target="_top" xlink:title=" ">
<polygon fill="white" stroke="black" points="206.12,-56.75 206.12,-76 315.12,-76 315.12,-56.75 206.12,-56.75"/>
<text xml:space="preserve" text-anchor="middle" x="260.62" y="-62.5" font-family="Helvetica,sans-Serif" font-size="10.00">LocalAPIContext.hpp</text>
</a>
</g>
</g>
<!-- Node1&#45;&gt;Node12 -->
<g id="edge11" class="edge">
<title>Node1&#45;&gt;Node12</title>
<path fill="none" stroke="midnightblue" d="M395.51,-109.19C363.34,-99.22 318.94,-85.45 290.01,-76.48"/>
<polygon fill="midnightblue" stroke="midnightblue" points="394.3,-112.48 404.89,-112.1 396.37,-105.79 394.3,-112.48"/>
</g>
<!-- Node12&#45;&gt;Node3 -->
<g id="edge13" class="edge">
<title>Node12&#45;&gt;Node3</title>
<path fill="none" stroke="midnightblue" d="M217.33,-53.33C181.38,-43.33 131.03,-29.32 98.37,-20.23"/>
<polygon fill="midnightblue" stroke="midnightblue" points="215.96,-56.58 226.53,-55.89 217.83,-49.84 215.96,-56.58"/>
</g>
<!-- Node12&#45;&gt;Node4 -->
<g id="edge14" class="edge">
<title>Node12&#45;&gt;Node4</title>
<path fill="none" stroke="midnightblue" d="M237.4,-50.19C222.57,-40.5 203.85,-28.27 191.35,-20.1"/>
<polygon fill="midnightblue" stroke="midnightblue" points="235.37,-53.05 245.65,-55.59 239.2,-47.19 235.37,-53.05"/>
</g>
<!-- Node12&#45;&gt;Node8 -->
<g id="edge15" class="edge">
<title>Node12&#45;&gt;Node8</title>
<path fill="none" stroke="midnightblue" d="M298.84,-52.81C329.14,-42.85 370.76,-29.16 397.92,-20.23"/>
<polygon fill="midnightblue" stroke="midnightblue" points="298.09,-49.37 289.68,-55.82 300.27,-56.02 298.09,-49.37"/>
</g>
<!-- Node13 -->
<g id="node13" class="node">
<title>Node13</title>
<g id="a_node13"><a xlink:href="_local_a_p_i_context_8cpp.html" target="_top" xlink:title=" ">
<polygon fill="white" stroke="black" points="247.12,-0.5 247.12,-19.75 356.12,-19.75 356.12,-0.5 247.12,-0.5"/>
<text xml:space="preserve" text-anchor="middle" x="301.62" y="-6.25" font-family="Helvetica,sans-Serif" font-size="10.00">LocalAPIContext.cpp</text>
</a>
</g>
</g>
<!-- Node12&#45;&gt;Node13 -->
<g id="edge12" class="edge">
<title>Node12&#45;&gt;Node13</title>
<path fill="none" stroke="midnightblue" d="M274.3,-47.27C281.26,-38.07 289.41,-27.29 294.98,-19.92"/>
<polygon fill="midnightblue" stroke="midnightblue" points="271.55,-45.12 268.31,-55.21 277.13,-49.34 271.55,-45.12"/>
</g>
</g>
</svg>
        <g id="navigator" transform="translate(0 0)" fill="#404254">
                <rect fill="#f2f5e9" fill-opacity="0.5" stroke="#606060" stroke-width=".5" x="0" y="0" width="60" height="60"/>
                <use id="zoomplus" xlink:href="#zoomPlus" x="17" y="9" onmousedown="handleZoom(evt,'in')"/>
                <use id="zoomminus" xlink:href="#zoomMin" x="42" y="9" onmousedown="handleZoom(evt,'out')"/>
                <use id="reset" xlink:href="#resetDef" x="30" y="36" onmousedown="handleReset()"/>
                <g id="arrowUp" xlink:href="#dirArrow" transform="translate(30 24)" onmousedown="handlePan(0,-1)">
                  <use xlink:href="#rim" fill="#404040">
                        <set attributeName="fill" to="#808080" begin="arrowUp.mouseover" end="arrowUp.mouseout"/>
                  </use>
                  <path fill="none" stroke="white" stroke-width="1.5" d="M0,-3.0v7 M-2.5,-0.5L0,-3.0L2.5,-0.5"/>
                </g>
                <g id="arrowRight" xlink:href="#dirArrow" transform="rotate(90) translate(36 -43)" onmousedown="handlePan(1,0)">
                  <use xlink:href="#rim" fill="#404040">
                        <set attributeName="fill" to="#808080" begin="arrowRight.mouseover" end="arrowRight.mouseout"/>
                  </use>
                  <path fill="none" stroke="white" stroke-width="1.5" d="M0,-3.0v7 M-2.5,-0.5L0,-3.0L2.5,-0.5"/>
                </g>
                <g id="arrowDown" xlink:href="#dirArrow" transform="rotate(180) translate(-30 -48)" onmousedown="handlePan(0,1)">
                  <use xlink:href="#rim" fill="#404040">
                        <set attributeName="fill" to="#808080" begin="arrowDown.mouseover" end="arrowDown.mouseout"/>
                  </use>
                  <path fill="none" stroke="white" stroke-width="1.5" d="M0,-3.0v7 M-2.5,-0.5L0,-3.0L2.5,-0.5"/>
                </g>
                <g id="arrowLeft" xlink:href="#dirArrow" transform="rotate(270) translate(-36 17)" onmousedown="handlePan(-1,0)">
                  <use xlink:href="#rim" fill="#404040">
                        <set attributeName="fill" to="#808080" begin="arrowLeft.mouseover" end="arrowLeft.mouseout"/>
                  </use>
                  <path fill="none" stroke="white" stroke-width="1.5" d="M0,-3.0v7 M-2.5,-0.5L0,-3.0L2.5,-0.5"/>
                </g>
        </g>
        <svg viewBox="0 0 15 15" width="100%" height="30px" preserveAspectRatio="xMaxYMin meet">
         <g id="arrow_out" transform="scale(0.3 0.3)">
          <a xlink:href="_local_a_p_i_manager_8hpp__dep__incl_org.svg" target="_base">
           <rect id="button" ry="5" rx="5" y="6" x="6" height="38" width="38"
                fill="#f2f5e9" fill-opacity="0.5" stroke="#606060" stroke-width="1.0"/>
           <path id="arrow"
             d="M 11.500037,31.436501 C 11.940474,20.09759 22.043105,11.32322 32.158766,21.979434 L 37.068811,17.246167 C 37.068811,17.246167 37.088388,32 37.088388,32 L 22.160133,31.978069 C 22.160133,31.978069 26.997745,27.140456 26.997745,27.140456 C 18.528582,18.264221 13.291696,25.230495 11.500037,31.436501 z"
             style="fill:#404040;"/>
          </a>
         </g>
        </svg>
</svg>
