<?xml version="1.0" encoding="UTF-8" standalone="no"?>
<!DOCTYPE svg PUBLIC "-//W3C//DTD SVG 1.1//EN"
 "http://www.w3.org/Graphics/SVG/1.1/DTD/svg11.dtd">
<!-- Generated by graphviz version 13.1.0 (20250701.0955)
 -->
<!-- Title: MacroSpaceManager.cpp Pages: 1 -->
<!--zoomable 253 -->
<svg id="main" version="1.1" xmlns="http://www.w3.org/2000/svg" xmlns:xlink="http://www.w3.org/1999/xlink" xml:space="preserve" onload="init(evt)">
<style type="text/css"><![CDATA[
.edge:hover path { stroke: red; }
.edge:hover polygon { stroke: red; fill: red; }
]]></style>
<script type="text/javascript"><![CDATA[
var edges = document.getElementsByTagName('g');
if (edges && edges.length) {
  for (var i=0;i<edges.length;i++) {
    if (edges[i].id.substr(0,4)=='edge') {
      edges[i].setAttribute('class','edge');
    }
  }
}
]]></script>
        <defs>
                <circle id="rim" cx="0" cy="0" r="7"/>
                <circle id="rim2" cx="0" cy="0" r="3.5"/>
                <g id="zoomPlus">
                        <use xlink:href="#rim" fill="#404040">
                                <set attributeName="fill" to="#808080" begin="zoomplus.mouseover" end="zoomplus.mouseout"/>
                        </use>
                        <path d="M-4,0h8M0,-4v8" fill="none" stroke="white" stroke-width="1.5" pointer-events="none"/>
                </g>
                <g id="zoomMin">
                        <use xlink:href="#rim" fill="#404040">
                                <set attributeName="fill" to="#808080" begin="zoomminus.mouseover" end="zoomminus.mouseout"/>
                        </use>
                        <path d="M-4,0h8" fill="none" stroke="white" stroke-width="1.5" pointer-events="none"/>
                </g>
                <g id="dirArrow">
                        <path fill="none" stroke="white" stroke-width="1.5" d="M0,-3.0v7 M-2.5,-0.5L0,-3.0L2.5,-0.5"/>
                </g>
               <g id="resetDef">
                       <use xlink:href="#rim2" fill="#404040">
                               <set attributeName="fill" to="#808080" begin="reset.mouseover" end="reset.mouseout"/>
                       </use>
               </g>
        </defs>

<script type="text/javascript">
var viewWidth = 745;
var viewHeight = 253;
var sectionId = 'dynsection-0';
</script>
<script xlink:href="svgpan.js"/>
<svg id="graph" class="graph">
<g id="viewport">
<title>MacroSpaceManager.cpp</title>
<polygon fill="white" stroke="none" points="-4,4 -4,-249.25 740.75,-249.25 740.75,4 -4,4"/>
<!-- Node1 -->
<g id="node1" class="node">
<title>Node1</title>
<g id="a_node1"><a xlink:title=" ">
<polygon fill="#bfbfbf" stroke="black" points="594.75,-225.5 594.75,-244.75 721,-244.75 721,-225.5 594.75,-225.5"/>
<text xml:space="preserve" text-anchor="middle" x="657.88" y="-231.25" font-family="Helvetica,sans-Serif" font-size="10.00">MacroSpaceManager.cpp</text>
</a>
</g>
</g>
<!-- Node2 -->
<g id="node2" class="node">
<title>Node2</title>
<g id="a_node2"><a xlink:href="_macro_space_manager_8hpp.html" target="_top" xlink:title=" ">
<polygon fill="white" stroke="black" points="549.75,-169.25 549.75,-188.5 676,-188.5 676,-169.25 549.75,-169.25"/>
<text xml:space="preserve" text-anchor="middle" x="612.88" y="-175" font-family="Helvetica,sans-Serif" font-size="10.00">MacroSpaceManager.hpp</text>
</a>
</g>
</g>
<!-- Node1&#45;&gt;Node2 -->
<g id="edge1" class="edge">
<title>Node1&#45;&gt;Node2</title>
<path fill="none" stroke="midnightblue" d="M650.44,-225.17C644.22,-217.66 635.15,-206.72 627.47,-197.48"/>
<polygon fill="midnightblue" stroke="midnightblue" points="630.21,-195.29 621.13,-189.83 624.82,-199.76 630.21,-195.29"/>
</g>
<!-- Node13 -->
<g id="node13" class="node">
<title>Node13</title>
<g id="a_node13"><a xlink:href="_utilities_8hpp.html" target="_top" xlink:title=" ">
<polygon fill="white" stroke="black" points="669,-56.75 669,-76 736.75,-76 736.75,-56.75 669,-56.75"/>
<text xml:space="preserve" text-anchor="middle" x="702.88" y="-62.5" font-family="Helvetica,sans-Serif" font-size="10.00">Utilities.hpp</text>
</a>
</g>
</g>
<!-- Node1&#45;&gt;Node13 -->
<g id="edge15" class="edge">
<title>Node1&#45;&gt;Node13</title>
<path fill="none" stroke="midnightblue" d="M664.58,-225.32C670.88,-216.59 680.02,-202.58 684.88,-189 697.11,-154.75 701.03,-112.22 702.29,-87.6"/>
<polygon fill="midnightblue" stroke="midnightblue" points="705.78,-87.85 702.68,-77.72 698.78,-87.58 705.78,-87.85"/>
</g>
<!-- Node3 -->
<g id="node3" class="node">
<title>Node3</title>
<g id="a_node3"><a xlink:href="_service_message_8hpp.html" target="_top" xlink:title=" ">
<polygon fill="white" stroke="black" points="448.12,-113 448.12,-132.25 555.62,-132.25 555.62,-113 448.12,-113"/>
<text xml:space="preserve" text-anchor="middle" x="501.88" y="-118.75" font-family="Helvetica,sans-Serif" font-size="10.00">ServiceMessage.hpp</text>
</a>
</g>
</g>
<!-- Node2&#45;&gt;Node3 -->
<g id="edge2" class="edge">
<title>Node2&#45;&gt;Node3</title>
<path fill="none" stroke="midnightblue" d="M594.3,-168.79C576.93,-160.31 550.73,-147.5 530.66,-137.69"/>
<polygon fill="midnightblue" stroke="midnightblue" points="532.4,-134.65 521.87,-133.4 529.32,-140.94 532.4,-134.65"/>
</g>
<!-- Node15 -->
<g id="node15" class="node">
<title>Node15</title>
<g id="a_node15"><a xlink:title=" ">
<polygon fill="white" stroke="#bfbfbf" points="574.12,-113 574.12,-132.25 675.62,-132.25 675.62,-113 574.12,-113"/>
<text xml:space="preserve" text-anchor="middle" x="624.88" y="-118.75" font-family="Helvetica,sans-Serif" font-size="10.00">SysSemaphore.hpp</text>
</a>
</g>
</g>
<!-- Node2&#45;&gt;Node15 -->
<g id="edge14" class="edge">
<title>Node2&#45;&gt;Node15</title>
<path fill="none" stroke="midnightblue" d="M614.86,-168.92C616.38,-162.04 618.53,-152.29 620.46,-143.6"/>
<polygon fill="midnightblue" stroke="midnightblue" points="623.86,-144.41 622.6,-133.89 617.03,-142.9 623.86,-144.41"/>
</g>
<!-- Node4 -->
<g id="node4" class="node">
<title>Node4</title>
<g id="a_node4"><a xlink:href="rexx_8h.html" target="_top" xlink:title=" ">
<polygon fill="white" stroke="black" points="217.38,-56.75 217.38,-76 260.38,-76 260.38,-56.75 217.38,-56.75"/>
<text xml:space="preserve" text-anchor="middle" x="238.88" y="-62.5" font-family="Helvetica,sans-Serif" font-size="10.00">rexx.h</text>
</a>
</g>
</g>
<!-- Node3&#45;&gt;Node4 -->
<g id="edge3" class="edge">
<title>Node3&#45;&gt;Node4</title>
<path fill="none" stroke="midnightblue" d="M457.85,-112.54C405.42,-101.73 319.01,-83.9 271.94,-74.2"/>
<polygon fill="midnightblue" stroke="midnightblue" points="272.85,-70.81 262.35,-72.22 271.44,-77.67 272.85,-70.81"/>
</g>
<!-- Node9 -->
<g id="node9" class="node">
<title>Node9</title>
<g id="a_node9"><a xlink:href="_service_exception_8hpp.html" target="_top" xlink:title=" ">
<polygon fill="white" stroke="black" points="333.25,-56.75 333.25,-76 444.5,-76 444.5,-56.75 333.25,-56.75"/>
<text xml:space="preserve" text-anchor="middle" x="388.88" y="-62.5" font-family="Helvetica,sans-Serif" font-size="10.00">ServiceException.hpp</text>
</a>
</g>
</g>
<!-- Node3&#45;&gt;Node9 -->
<g id="edge8" class="edge">
<title>Node3&#45;&gt;Node9</title>
<path fill="none" stroke="midnightblue" d="M482.96,-112.54C465.28,-104.06 438.61,-91.25 418.18,-81.44"/>
<polygon fill="midnightblue" stroke="midnightblue" points="419.74,-78.31 409.21,-77.14 416.71,-84.62 419.74,-78.31"/>
</g>
<!-- Node11 -->
<g id="node11" class="node">
<title>Node11</title>
<g id="a_node11"><a xlink:href="_c_s_stream_8hpp.html" target="_top" xlink:title=" ">
<polygon fill="white" stroke="black" points="462.62,-56.75 462.62,-76 543.12,-76 543.12,-56.75 462.62,-56.75"/>
<text xml:space="preserve" text-anchor="middle" x="502.88" y="-62.5" font-family="Helvetica,sans-Serif" font-size="10.00">CSStream.hpp</text>
</a>
</g>
</g>
<!-- Node3&#45;&gt;Node11 -->
<g id="edge10" class="edge">
<title>Node3&#45;&gt;Node11</title>
<path fill="none" stroke="midnightblue" d="M502.04,-112.67C502.17,-105.87 502.34,-96.26 502.5,-87.65"/>
<polygon fill="midnightblue" stroke="midnightblue" points="506,-87.74 502.69,-77.68 499,-87.61 506,-87.74"/>
</g>
<!-- Node12 -->
<g id="node12" class="node">
<title>Node12</title>
<g id="a_node12"><a xlink:title=" ">
<polygon fill="white" stroke="#bfbfbf" points="560.88,-56.75 560.88,-76 648.88,-76 648.88,-56.75 560.88,-56.75"/>
<text xml:space="preserve" text-anchor="middle" x="604.88" y="-62.5" font-family="Helvetica,sans-Serif" font-size="10.00">SysProcess.hpp</text>
</a>
</g>
</g>
<!-- Node3&#45;&gt;Node12 -->
<g id="edge11" class="edge">
<title>Node3&#45;&gt;Node12</title>
<path fill="none" stroke="midnightblue" d="M518.88,-112.67C534.91,-104.22 559.19,-91.44 577.86,-81.6"/>
<polygon fill="midnightblue" stroke="midnightblue" points="579.29,-84.81 586.5,-77.05 576.02,-78.62 579.29,-84.81"/>
</g>
<!-- Node3&#45;&gt;Node13 -->
<g id="edge12" class="edge">
<title>Node3&#45;&gt;Node13</title>
<path fill="none" stroke="midnightblue" d="M535.52,-112.54C569.14,-103.47 621.04,-89.46 658.13,-79.45"/>
<polygon fill="midnightblue" stroke="midnightblue" points="658.92,-82.86 667.66,-76.88 657.09,-76.11 658.92,-82.86"/>
</g>
<!-- Node5 -->
<g id="node5" class="node">
<title>Node5</title>
<g id="a_node5"><a xlink:title=" ">
<polygon fill="white" stroke="#bfbfbf" points="0,-0.5 0,-19.75 79.75,-19.75 79.75,-0.5 0,-0.5"/>
<text xml:space="preserve" text-anchor="middle" x="39.88" y="-6.25" font-family="Helvetica,sans-Serif" font-size="10.00">rexxapitypes.h</text>
</a>
</g>
</g>
<!-- Node4&#45;&gt;Node5 -->
<g id="edge4" class="edge">
<title>Node4&#45;&gt;Node5</title>
<path fill="none" stroke="midnightblue" d="M217.2,-59.47C185.36,-50.79 125.27,-34.41 83.93,-23.14"/>
<polygon fill="midnightblue" stroke="midnightblue" points="85.1,-19.83 74.53,-20.57 83.26,-26.58 85.1,-19.83"/>
</g>
<!-- Node6 -->
<g id="node6" class="node">
<title>Node6</title>
<g id="a_node6"><a xlink:href="rexxapidefs_8h.html" target="_top" xlink:title=" ">
<polygon fill="white" stroke="black" points="97.62,-0.5 97.62,-19.75 172.12,-19.75 172.12,-0.5 97.62,-0.5"/>
<text xml:space="preserve" text-anchor="middle" x="134.88" y="-6.25" font-family="Helvetica,sans-Serif" font-size="10.00">rexxapidefs.h</text>
</a>
</g>
</g>
<!-- Node4&#45;&gt;Node6 -->
<g id="edge5" class="edge">
<title>Node4&#45;&gt;Node6</title>
<path fill="none" stroke="midnightblue" d="M221.7,-56.42C205.52,-47.97 181.01,-35.19 162.15,-25.35"/>
<polygon fill="midnightblue" stroke="midnightblue" points="163.9,-22.32 153.42,-20.8 160.66,-28.52 163.9,-22.32"/>
</g>
<!-- Node7 -->
<g id="node7" class="node">
<title>Node7</title>
<g id="a_node7"><a xlink:title=" ">
<polygon fill="white" stroke="#bfbfbf" points="190.38,-0.5 190.38,-19.75 287.38,-19.75 287.38,-0.5 190.38,-0.5"/>
<text xml:space="preserve" text-anchor="middle" x="238.88" y="-6.25" font-family="Helvetica,sans-Serif" font-size="10.00">rexxplatformdefs.h</text>
</a>
</g>
</g>
<!-- Node4&#45;&gt;Node7 -->
<g id="edge6" class="edge">
<title>Node4&#45;&gt;Node7</title>
<path fill="none" stroke="midnightblue" d="M238.88,-56.42C238.88,-49.62 238.88,-40.01 238.88,-31.4"/>
<polygon fill="midnightblue" stroke="midnightblue" points="242.38,-31.43 238.88,-21.43 235.38,-31.43 242.38,-31.43"/>
</g>
<!-- Node8 -->
<g id="node8" class="node">
<title>Node8</title>
<g id="a_node8"><a xlink:title=" ">
<polygon fill="white" stroke="#bfbfbf" points="305.75,-0.5 305.75,-19.75 402,-19.75 402,-0.5 305.75,-0.5"/>
<text xml:space="preserve" text-anchor="middle" x="353.88" y="-6.25" font-family="Helvetica,sans-Serif" font-size="10.00">rexxplatformapis.h</text>
</a>
</g>
</g>
<!-- Node4&#45;&gt;Node8 -->
<g id="edge7" class="edge">
<title>Node4&#45;&gt;Node8</title>
<path fill="none" stroke="midnightblue" d="M258.12,-56.29C276.2,-47.77 303.51,-34.88 324.34,-25.06"/>
<polygon fill="midnightblue" stroke="midnightblue" points="325.64,-28.31 333.19,-20.88 322.66,-21.98 325.64,-28.31"/>
</g>
<!-- Node10 -->
<g id="node10" class="node">
<title>Node10</title>
<g id="a_node10"><a xlink:title=" ">
<polygon fill="white" stroke="#bfbfbf" points="419.75,-0.5 419.75,-19.75 468,-19.75 468,-0.5 419.75,-0.5"/>
<text xml:space="preserve" text-anchor="middle" x="443.88" y="-6.25" font-family="Helvetica,sans-Serif" font-size="10.00">string.h</text>
</a>
</g>
</g>
<!-- Node9&#45;&gt;Node10 -->
<g id="edge9" class="edge">
<title>Node9&#45;&gt;Node10</title>
<path fill="none" stroke="midnightblue" d="M397.96,-56.42C405.81,-48.67 417.36,-37.28 426.91,-27.86"/>
<polygon fill="midnightblue" stroke="midnightblue" points="429.22,-30.49 433.88,-20.98 424.31,-25.51 429.22,-30.49"/>
</g>
<!-- Node14 -->
<g id="node14" class="node">
<title>Node14</title>
<g id="a_node14"><a xlink:title=" ">
<polygon fill="white" stroke="#bfbfbf" points="669.38,-0.5 669.38,-19.75 736.38,-19.75 736.38,-0.5 669.38,-0.5"/>
<text xml:space="preserve" text-anchor="middle" x="702.88" y="-6.25" font-family="Helvetica,sans-Serif" font-size="10.00">sys/types.h</text>
</a>
</g>
</g>
<!-- Node13&#45;&gt;Node14 -->
<g id="edge13" class="edge">
<title>Node13&#45;&gt;Node14</title>
<path fill="none" stroke="midnightblue" d="M702.88,-56.42C702.88,-49.62 702.88,-40.01 702.88,-31.4"/>
<polygon fill="midnightblue" stroke="midnightblue" points="706.38,-31.43 702.88,-21.43 699.38,-31.43 706.38,-31.43"/>
</g>
</g>
</svg>
        <g id="navigator" transform="translate(0 0)" fill="#404254">
                <rect fill="#f2f5e9" fill-opacity="0.5" stroke="#606060" stroke-width=".5" x="0" y="0" width="60" height="60"/>
                <use id="zoomplus" xlink:href="#zoomPlus" x="17" y="9" onmousedown="handleZoom(evt,'in')"/>
                <use id="zoomminus" xlink:href="#zoomMin" x="42" y="9" onmousedown="handleZoom(evt,'out')"/>
                <use id="reset" xlink:href="#resetDef" x="30" y="36" onmousedown="handleReset()"/>
                <g id="arrowUp" xlink:href="#dirArrow" transform="translate(30 24)" onmousedown="handlePan(0,-1)">
                  <use xlink:href="#rim" fill="#404040">
                        <set attributeName="fill" to="#808080" begin="arrowUp.mouseover" end="arrowUp.mouseout"/>
                  </use>
                  <path fill="none" stroke="white" stroke-width="1.5" d="M0,-3.0v7 M-2.5,-0.5L0,-3.0L2.5,-0.5"/>
                </g>
                <g id="arrowRight" xlink:href="#dirArrow" transform="rotate(90) translate(36 -43)" onmousedown="handlePan(1,0)">
                  <use xlink:href="#rim" fill="#404040">
                        <set attributeName="fill" to="#808080" begin="arrowRight.mouseover" end="arrowRight.mouseout"/>
                  </use>
                  <path fill="none" stroke="white" stroke-width="1.5" d="M0,-3.0v7 M-2.5,-0.5L0,-3.0L2.5,-0.5"/>
                </g>
                <g id="arrowDown" xlink:href="#dirArrow" transform="rotate(180) translate(-30 -48)" onmousedown="handlePan(0,1)">
                  <use xlink:href="#rim" fill="#404040">
                        <set attributeName="fill" to="#808080" begin="arrowDown.mouseover" end="arrowDown.mouseout"/>
                  </use>
                  <path fill="none" stroke="white" stroke-width="1.5" d="M0,-3.0v7 M-2.5,-0.5L0,-3.0L2.5,-0.5"/>
                </g>
                <g id="arrowLeft" xlink:href="#dirArrow" transform="rotate(270) translate(-36 17)" onmousedown="handlePan(-1,0)">
                  <use xlink:href="#rim" fill="#404040">
                        <set attributeName="fill" to="#808080" begin="arrowLeft.mouseover" end="arrowLeft.mouseout"/>
                  </use>
                  <path fill="none" stroke="white" stroke-width="1.5" d="M0,-3.0v7 M-2.5,-0.5L0,-3.0L2.5,-0.5"/>
                </g>
        </g>
        <svg viewBox="0 0 15 15" width="100%" height="30px" preserveAspectRatio="xMaxYMin meet">
         <g id="arrow_out" transform="scale(0.3 0.3)">
          <a xlink:href="_macro_space_manager_8cpp__incl_org.svg" target="_base">
           <rect id="button" ry="5" rx="5" y="6" x="6" height="38" width="38"
                fill="#f2f5e9" fill-opacity="0.5" stroke="#606060" stroke-width="1.0"/>
           <path id="arrow"
             d="M 11.500037,31.436501 C 11.940474,20.09759 22.043105,11.32322 32.158766,21.979434 L 37.068811,17.246167 C 37.068811,17.246167 37.088388,32 37.088388,32 L 22.160133,31.978069 C 22.160133,31.978069 26.997745,27.140456 26.997745,27.140456 C 18.528582,18.264221 13.291696,25.230495 11.500037,31.436501 z"
             style="fill:#404040;"/>
          </a>
         </g>
        </svg>
</svg>
