<?xml version="1.0" encoding="UTF-8" standalone="no"?>
<!DOCTYPE svg PUBLIC "-//W3C//DTD SVG 1.1//EN"
 "http://www.w3.org/Graphics/SVG/1.1/DTD/svg11.dtd">
<!-- Generated by graphviz version 13.1.0 (20250701.0955)
 -->
<!-- Title: MapTable.cpp Pages: 1 -->
<!--zoomable 591 -->
<svg id="main" version="1.1" xmlns="http://www.w3.org/2000/svg" xmlns:xlink="http://www.w3.org/1999/xlink" xml:space="preserve" onload="init(evt)">
<style type="text/css"><![CDATA[
.edge:hover path { stroke: red; }
.edge:hover polygon { stroke: red; fill: red; }
]]></style>
<script type="text/javascript"><![CDATA[
var edges = document.getElementsByTagName('g');
if (edges && edges.length) {
  for (var i=0;i<edges.length;i++) {
    if (edges[i].id.substr(0,4)=='edge') {
      edges[i].setAttribute('class','edge');
    }
  }
}
]]></script>
        <defs>
                <circle id="rim" cx="0" cy="0" r="7"/>
                <circle id="rim2" cx="0" cy="0" r="3.5"/>
                <g id="zoomPlus">
                        <use xlink:href="#rim" fill="#404040">
                                <set attributeName="fill" to="#808080" begin="zoomplus.mouseover" end="zoomplus.mouseout"/>
                        </use>
                        <path d="M-4,0h8M0,-4v8" fill="none" stroke="white" stroke-width="1.5" pointer-events="none"/>
                </g>
                <g id="zoomMin">
                        <use xlink:href="#rim" fill="#404040">
                                <set attributeName="fill" to="#808080" begin="zoomminus.mouseover" end="zoomminus.mouseout"/>
                        </use>
                        <path d="M-4,0h8" fill="none" stroke="white" stroke-width="1.5" pointer-events="none"/>
                </g>
                <g id="dirArrow">
                        <path fill="none" stroke="white" stroke-width="1.5" d="M0,-3.0v7 M-2.5,-0.5L0,-3.0L2.5,-0.5"/>
                </g>
               <g id="resetDef">
                       <use xlink:href="#rim2" fill="#404040">
                               <set attributeName="fill" to="#808080" begin="reset.mouseover" end="reset.mouseout"/>
                       </use>
               </g>
        </defs>

<script type="text/javascript">
var viewWidth = 1682;
var viewHeight = 591;
var sectionId = 'dynsection-0';
</script>
<script xlink:href="svgpan.js"/>
<svg id="graph" class="graph">
<g id="viewport">
<title>MapTable.cpp</title>
<polygon fill="white" stroke="none" points="-4,4 -4,-586.75 1678.12,-586.75 1678.12,4 -4,4"/>
<!-- Node1 -->
<g id="node1" class="node">
<title>Node1</title>
<g id="a_node1"><a xlink:title=" ">
<polygon fill="#bfbfbf" stroke="black" points="908.62,-563 908.62,-582.25 985.38,-582.25 985.38,-563 908.62,-563"/>
<text xml:space="preserve" text-anchor="middle" x="947" y="-568.75" font-family="Helvetica,sans-Serif" font-size="10.00">MapTable.cpp</text>
</a>
</g>
</g>
<!-- Node2 -->
<g id="node2" class="node">
<title>Node2</title>
<g id="a_node2"><a xlink:href="_rexx_core_8h.html" target="_top" xlink:title=" ">
<polygon fill="white" stroke="black" points="867.75,-506.75 867.75,-526 936.25,-526 936.25,-506.75 867.75,-506.75"/>
<text xml:space="preserve" text-anchor="middle" x="902" y="-512.5" font-family="Helvetica,sans-Serif" font-size="10.00">RexxCore.h</text>
</a>
</g>
</g>
<!-- Node1&#45;&gt;Node2 -->
<g id="edge1" class="edge">
<title>Node1&#45;&gt;Node2</title>
<path fill="none" stroke="midnightblue" d="M939.57,-562.67C933.34,-555.16 924.27,-544.22 916.6,-534.98"/>
<polygon fill="midnightblue" stroke="midnightblue" points="919.34,-532.79 910.26,-527.33 913.95,-537.26 919.34,-532.79"/>
</g>
<!-- Node47 -->
<g id="node47" class="node">
<title>Node47</title>
<g id="a_node47"><a xlink:href="_map_table_8hpp.html" target="_top" xlink:title=" ">
<polygon fill="white" stroke="black" points="1075.62,-506.75 1075.62,-526 1152.38,-526 1152.38,-506.75 1075.62,-506.75"/>
<text xml:space="preserve" text-anchor="middle" x="1114" y="-512.5" font-family="Helvetica,sans-Serif" font-size="10.00">MapTable.hpp</text>
</a>
</g>
</g>
<!-- Node1&#45;&gt;Node47 -->
<g id="edge61" class="edge">
<title>Node1&#45;&gt;Node47</title>
<path fill="none" stroke="midnightblue" d="M974.95,-562.54C1002.41,-553.63 1044.53,-539.94 1075.22,-529.97"/>
<polygon fill="midnightblue" stroke="midnightblue" points="1076.09,-533.37 1084.52,-526.95 1073.93,-526.71 1076.09,-533.37"/>
</g>
<!-- Node3 -->
<g id="node3" class="node">
<title>Node3</title>
<g id="a_node3"><a xlink:href="oorexxapi_8h.html" target="_top" xlink:title=" ">
<polygon fill="white" stroke="black" points="1373.88,-450.5 1373.88,-469.75 1440.12,-469.75 1440.12,-450.5 1373.88,-450.5"/>
<text xml:space="preserve" text-anchor="middle" x="1407" y="-456.25" font-family="Helvetica,sans-Serif" font-size="10.00">oorexxapi.h</text>
</a>
</g>
</g>
<!-- Node2&#45;&gt;Node3 -->
<g id="edge2" class="edge">
<title>Node2&#45;&gt;Node3</title>
<path fill="none" stroke="midnightblue" d="M936.71,-511.65C1025.79,-502.08 1262.45,-476.65 1361.94,-465.97"/>
<polygon fill="midnightblue" stroke="midnightblue" points="1362.3,-469.45 1371.87,-464.9 1361.55,-462.49 1362.3,-469.45"/>
</g>
<!-- Node10 -->
<g id="node10" class="node">
<title>Node10</title>
<g id="a_node10"><a xlink:title=" ">
<polygon fill="white" stroke="#bfbfbf" points="1067.25,-450.5 1067.25,-469.75 1174.75,-469.75 1174.75,-450.5 1067.25,-450.5"/>
<text xml:space="preserve" text-anchor="middle" x="1121" y="-456.25" font-family="Helvetica,sans-Serif" font-size="10.00">PlatformDefinitions.h</text>
</a>
</g>
</g>
<!-- Node2&#45;&gt;Node10 -->
<g id="edge9" class="edge">
<title>Node2&#45;&gt;Node10</title>
<path fill="none" stroke="midnightblue" d="M936.7,-506.78C973.52,-497.66 1031.96,-483.18 1073.14,-472.98"/>
<polygon fill="midnightblue" stroke="midnightblue" points="1073.93,-476.39 1082.8,-470.59 1072.25,-469.6 1073.93,-476.39"/>
</g>
<!-- Node11 -->
<g id="node11" class="node">
<title>Node11</title>
<g id="a_node11"><a xlink:href="_class_type_codes_8h.html" target="_top" xlink:title=" ">
<polygon fill="white" stroke="black" points="873.38,-338 873.38,-357.25 972.62,-357.25 972.62,-338 873.38,-338"/>
<text xml:space="preserve" text-anchor="middle" x="923" y="-343.75" font-family="Helvetica,sans-Serif" font-size="10.00">ClassTypeCodes.h</text>
</a>
</g>
</g>
<!-- Node2&#45;&gt;Node11 -->
<g id="edge10" class="edge">
<title>Node2&#45;&gt;Node11</title>
<path fill="none" stroke="midnightblue" d="M896.38,-506.36C888.98,-493.21 877.99,-468.34 888,-450 902.18,-424.03 929.82,-439.97 944,-414 952.19,-398.99 944.61,-380.28 936.36,-366.72"/>
<polygon fill="midnightblue" stroke="midnightblue" points="939.5,-365.11 931.02,-358.77 933.69,-369.02 939.5,-365.11"/>
</g>
<!-- Node12 -->
<g id="node12" class="node">
<title>Node12</title>
<g id="a_node12"><a xlink:href="_object_class_8hpp.html" target="_top" xlink:title=" ">
<polygon fill="white" stroke="black" points="1062.62,-394.25 1062.62,-413.5 1151.38,-413.5 1151.38,-394.25 1062.62,-394.25"/>
<text xml:space="preserve" text-anchor="middle" x="1107" y="-400" font-family="Helvetica,sans-Serif" font-size="10.00">ObjectClass.hpp</text>
</a>
</g>
</g>
<!-- Node2&#45;&gt;Node12 -->
<g id="edge11" class="edge">
<title>Node2&#45;&gt;Node12</title>
<path fill="none" stroke="midnightblue" d="M929.77,-506.37C953.16,-498.3 987.18,-485.41 1015,-470.25 1041.42,-455.85 1069.25,-435.21 1087.29,-420.99"/>
<polygon fill="midnightblue" stroke="midnightblue" points="1089.43,-423.75 1095.05,-414.77 1085.06,-418.29 1089.43,-423.75"/>
</g>
<!-- Node18 -->
<g id="node18" class="node">
<title>Node18</title>
<g id="a_node18"><a xlink:href="_table_class_8hpp.html" target="_top" xlink:title=" ">
<polygon fill="white" stroke="black" points="347.25,-450.5 347.25,-469.75 430.75,-469.75 430.75,-450.5 347.25,-450.5"/>
<text xml:space="preserve" text-anchor="middle" x="389" y="-456.25" font-family="Helvetica,sans-Serif" font-size="10.00">TableClass.hpp</text>
</a>
</g>
</g>
<!-- Node2&#45;&gt;Node18 -->
<g id="edge18" class="edge">
<title>Node2&#45;&gt;Node18</title>
<path fill="none" stroke="midnightblue" d="M867.54,-511.73C779.85,-502.46 547.7,-477.91 442.34,-466.77"/>
<polygon fill="midnightblue" stroke="midnightblue" points="442.86,-463.3 432.55,-465.73 442.13,-470.26 442.86,-463.3"/>
</g>
<!-- Node23 -->
<g id="node23" class="node">
<title>Node23</title>
<g id="a_node23"><a xlink:href="_class_class_8hpp.html" target="_top" xlink:title=" ">
<polygon fill="white" stroke="black" points="187.12,-113 187.12,-132.25 272.88,-132.25 272.88,-113 187.12,-113"/>
<text xml:space="preserve" text-anchor="middle" x="230" y="-118.75" font-family="Helvetica,sans-Serif" font-size="10.00">ClassClass.hpp</text>
</a>
</g>
</g>
<!-- Node2&#45;&gt;Node23 -->
<g id="edge59" class="edge">
<title>Node2&#45;&gt;Node23</title>
<path fill="none" stroke="midnightblue" d="M867.43,-514.17C760.95,-510.22 439.05,-496.37 338,-470.25 269.95,-452.66 194,-475.16 194,-404.88 194,-404.88 194,-404.88 194,-234.12 194,-200.6 209.16,-164.05 219.81,-142.52"/>
<polygon fill="midnightblue" stroke="midnightblue" points="222.82,-144.31 224.3,-133.82 216.6,-141.1 222.82,-144.31"/>
</g>
<!-- Node30 -->
<g id="node30" class="node">
<title>Node30</title>
<g id="a_node30"><a xlink:href="_rexx_memory_8hpp.html" target="_top" xlink:title=" ">
<polygon fill="white" stroke="black" points="573.12,-450.5 573.12,-469.75 664.88,-469.75 664.88,-450.5 573.12,-450.5"/>
<text xml:space="preserve" text-anchor="middle" x="619" y="-456.25" font-family="Helvetica,sans-Serif" font-size="10.00">RexxMemory.hpp</text>
</a>
</g>
</g>
<!-- Node2&#45;&gt;Node30 -->
<g id="edge33" class="edge">
<title>Node2&#45;&gt;Node30</title>
<path fill="none" stroke="midnightblue" d="M867.3,-508.72C819.7,-499.6 733.55,-483.08 676.3,-472.11"/>
<polygon fill="midnightblue" stroke="midnightblue" points="677.22,-468.72 666.74,-470.28 675.91,-475.6 677.22,-468.72"/>
</g>
<!-- Node44 -->
<g id="node44" class="node">
<title>Node44</title>
<g id="a_node44"><a xlink:href="_rexx_behaviour_8hpp.html" target="_top" xlink:title=" ">
<polygon fill="white" stroke="black" points="46.62,-450.5 46.62,-469.75 147.38,-469.75 147.38,-450.5 46.62,-450.5"/>
<text xml:space="preserve" text-anchor="middle" x="97" y="-456.25" font-family="Helvetica,sans-Serif" font-size="10.00">RexxBehaviour.hpp</text>
</a>
</g>
</g>
<!-- Node2&#45;&gt;Node44 -->
<g id="edge56" class="edge">
<title>Node2&#45;&gt;Node44</title>
<path fill="none" stroke="midnightblue" d="M867.39,-513.79C763.3,-508.9 444.02,-493 180,-470.25 173.08,-469.65 165.84,-468.96 158.65,-468.23"/>
<polygon fill="midnightblue" stroke="midnightblue" points="159.25,-464.77 148.94,-467.21 158.53,-471.73 159.25,-464.77"/>
</g>
<!-- Node46 -->
<g id="node46" class="node">
<title>Node46</title>
<g id="a_node46"><a xlink:href="_envelope_8hpp.html" target="_top" xlink:title=" ">
<polygon fill="white" stroke="black" points="897.38,-450.5 897.38,-469.75 972.62,-469.75 972.62,-450.5 897.38,-450.5"/>
<text xml:space="preserve" text-anchor="middle" x="935" y="-456.25" font-family="Helvetica,sans-Serif" font-size="10.00">Envelope.hpp</text>
</a>
</g>
</g>
<!-- Node2&#45;&gt;Node46 -->
<g id="edge60" class="edge">
<title>Node2&#45;&gt;Node46</title>
<path fill="none" stroke="midnightblue" d="M907.45,-506.42C911.87,-499.15 918.25,-488.66 923.76,-479.61"/>
<polygon fill="midnightblue" stroke="midnightblue" points="926.66,-481.57 928.87,-471.21 920.68,-477.93 926.66,-481.57"/>
</g>
<!-- Node4 -->
<g id="node4" class="node">
<title>Node4</title>
<g id="a_node4"><a xlink:href="rexx_8h.html" target="_top" xlink:title=" ">
<polygon fill="white" stroke="black" points="1385.5,-394.25 1385.5,-413.5 1428.5,-413.5 1428.5,-394.25 1385.5,-394.25"/>
<text xml:space="preserve" text-anchor="middle" x="1407" y="-400" font-family="Helvetica,sans-Serif" font-size="10.00">rexx.h</text>
</a>
</g>
</g>
<!-- Node3&#45;&gt;Node4 -->
<g id="edge3" class="edge">
<title>Node3&#45;&gt;Node4</title>
<path fill="none" stroke="midnightblue" d="M1407,-450.17C1407,-443.37 1407,-433.76 1407,-425.15"/>
<polygon fill="midnightblue" stroke="midnightblue" points="1410.5,-425.18 1407,-415.18 1403.5,-425.18 1410.5,-425.18"/>
</g>
<!-- Node9 -->
<g id="node9" class="node">
<title>Node9</title>
<g id="a_node9"><a xlink:href="oorexxerrors_8h.html" target="_top" xlink:title=" ">
<polygon fill="white" stroke="black" points="1446.88,-394.25 1446.88,-413.5 1525.12,-413.5 1525.12,-394.25 1446.88,-394.25"/>
<text xml:space="preserve" text-anchor="middle" x="1486" y="-400" font-family="Helvetica,sans-Serif" font-size="10.00">oorexxerrors.h</text>
</a>
</g>
</g>
<!-- Node3&#45;&gt;Node9 -->
<g id="edge8" class="edge">
<title>Node3&#45;&gt;Node9</title>
<path fill="none" stroke="midnightblue" d="M1420.05,-450.17C1431.82,-442.08 1449.41,-430 1463.46,-420.35"/>
<polygon fill="midnightblue" stroke="midnightblue" points="1465.43,-423.25 1471.69,-414.7 1461.46,-417.48 1465.43,-423.25"/>
</g>
<!-- Node5 -->
<g id="node5" class="node">
<title>Node5</title>
<g id="a_node5"><a xlink:title=" ">
<polygon fill="white" stroke="#bfbfbf" points="1272.12,-338 1272.12,-357.25 1351.88,-357.25 1351.88,-338 1272.12,-338"/>
<text xml:space="preserve" text-anchor="middle" x="1312" y="-343.75" font-family="Helvetica,sans-Serif" font-size="10.00">rexxapitypes.h</text>
</a>
</g>
</g>
<!-- Node4&#45;&gt;Node5 -->
<g id="edge4" class="edge">
<title>Node4&#45;&gt;Node5</title>
<path fill="none" stroke="midnightblue" d="M1391.31,-393.92C1376.74,-385.59 1354.76,-373.04 1337.64,-363.27"/>
<polygon fill="midnightblue" stroke="midnightblue" points="1339.44,-360.27 1329.02,-358.35 1335.97,-366.35 1339.44,-360.27"/>
</g>
<!-- Node6 -->
<g id="node6" class="node">
<title>Node6</title>
<g id="a_node6"><a xlink:href="rexxapidefs_8h.html" target="_top" xlink:title=" ">
<polygon fill="white" stroke="black" points="1369.75,-338 1369.75,-357.25 1444.25,-357.25 1444.25,-338 1369.75,-338"/>
<text xml:space="preserve" text-anchor="middle" x="1407" y="-343.75" font-family="Helvetica,sans-Serif" font-size="10.00">rexxapidefs.h</text>
</a>
</g>
</g>
<!-- Node4&#45;&gt;Node6 -->
<g id="edge5" class="edge">
<title>Node4&#45;&gt;Node6</title>
<path fill="none" stroke="midnightblue" d="M1407,-393.92C1407,-387.12 1407,-377.51 1407,-368.9"/>
<polygon fill="midnightblue" stroke="midnightblue" points="1410.5,-368.93 1407,-358.93 1403.5,-368.93 1410.5,-368.93"/>
</g>
<!-- Node7 -->
<g id="node7" class="node">
<title>Node7</title>
<g id="a_node7"><a xlink:title=" ">
<polygon fill="white" stroke="#bfbfbf" points="1462.5,-338 1462.5,-357.25 1559.5,-357.25 1559.5,-338 1462.5,-338"/>
<text xml:space="preserve" text-anchor="middle" x="1511" y="-343.75" font-family="Helvetica,sans-Serif" font-size="10.00">rexxplatformdefs.h</text>
</a>
</g>
</g>
<!-- Node4&#45;&gt;Node7 -->
<g id="edge6" class="edge">
<title>Node4&#45;&gt;Node7</title>
<path fill="none" stroke="midnightblue" d="M1424.17,-393.92C1440.36,-385.47 1464.87,-372.69 1483.73,-362.85"/>
<polygon fill="midnightblue" stroke="midnightblue" points="1485.21,-366.02 1492.46,-358.3 1481.97,-359.82 1485.21,-366.02"/>
</g>
<!-- Node8 -->
<g id="node8" class="node">
<title>Node8</title>
<g id="a_node8"><a xlink:title=" ">
<polygon fill="white" stroke="#bfbfbf" points="1577.88,-338 1577.88,-357.25 1674.12,-357.25 1674.12,-338 1577.88,-338"/>
<text xml:space="preserve" text-anchor="middle" x="1626" y="-343.75" font-family="Helvetica,sans-Serif" font-size="10.00">rexxplatformapis.h</text>
</a>
</g>
</g>
<!-- Node4&#45;&gt;Node8 -->
<g id="edge7" class="edge">
<title>Node4&#45;&gt;Node8</title>
<path fill="none" stroke="midnightblue" d="M1428.98,-396.26C1432,-395.39 1435.07,-394.53 1438,-393.75 1484.05,-381.46 1536.85,-368.92 1574.74,-360.19"/>
<polygon fill="midnightblue" stroke="midnightblue" points="1575.07,-363.7 1584.04,-358.06 1573.51,-356.88 1575.07,-363.7"/>
</g>
<!-- Node13 -->
<g id="node13" class="node">
<title>Node13</title>
<g id="a_node13"><a xlink:title=" ">
<polygon fill="white" stroke="#bfbfbf" points="1067,-338 1067,-357.25 1101,-357.25 1101,-338 1067,-338"/>
<text xml:space="preserve" text-anchor="middle" x="1084" y="-343.75" font-family="Helvetica,sans-Serif" font-size="10.00">new</text>
</a>
</g>
</g>
<!-- Node12&#45;&gt;Node13 -->
<g id="edge12" class="edge">
<title>Node12&#45;&gt;Node13</title>
<path fill="none" stroke="midnightblue" d="M1103.2,-393.92C1100.22,-386.89 1095.96,-376.84 1092.21,-368"/>
<polygon fill="midnightblue" stroke="midnightblue" points="1095.44,-366.65 1088.32,-358.81 1089,-369.38 1095.44,-366.65"/>
</g>
<!-- Node14 -->
<g id="node14" class="node">
<title>Node14</title>
<g id="a_node14"><a xlink:title=" ">
<polygon fill="white" stroke="#bfbfbf" points="525.88,-169.25 525.88,-188.5 574.12,-188.5 574.12,-169.25 525.88,-169.25"/>
<text xml:space="preserve" text-anchor="middle" x="550" y="-175" font-family="Helvetica,sans-Serif" font-size="10.00">string.h</text>
</a>
</g>
</g>
<!-- Node12&#45;&gt;Node14 -->
<g id="edge13" class="edge">
<title>Node12&#45;&gt;Node14</title>
<path fill="none" stroke="midnightblue" d="M1109.25,-393.77C1112.01,-380.93 1115.68,-356.91 1110,-337.5 1093.33,-280.53 1088.71,-255.87 1038,-225 962.13,-178.81 685.4,-177.95 585.92,-179.2"/>
<polygon fill="midnightblue" stroke="midnightblue" points="585.89,-175.7 575.94,-179.34 585.99,-182.7 585.89,-175.7"/>
</g>
<!-- Node15 -->
<g id="node15" class="node">
<title>Node15</title>
<g id="a_node15"><a xlink:href="_numerics_8hpp.html" target="_top" xlink:title=" ">
<polygon fill="white" stroke="black" points="962.62,-281.75 962.62,-301 1039.38,-301 1039.38,-281.75 962.62,-281.75"/>
<text xml:space="preserve" text-anchor="middle" x="1001" y="-287.5" font-family="Helvetica,sans-Serif" font-size="10.00">Numerics.hpp</text>
</a>
</g>
</g>
<!-- Node12&#45;&gt;Node15 -->
<g id="edge14" class="edge">
<title>Node12&#45;&gt;Node15</title>
<path fill="none" stroke="midnightblue" d="M1096.56,-393.86C1086.42,-384.96 1070.74,-370.84 1058,-357.75 1042.79,-342.12 1026.54,-323.25 1015.3,-309.81"/>
<polygon fill="midnightblue" stroke="midnightblue" points="1018.13,-307.73 1009.06,-302.27 1012.74,-312.2 1018.13,-307.73"/>
</g>
<!-- Node17 -->
<g id="node17" class="node">
<title>Node17</title>
<g id="a_node17"><a xlink:href="_rexx_error_codes_8h.html" target="_top" xlink:title=" ">
<polygon fill="white" stroke="black" points="1157.5,-338 1157.5,-357.25 1254.5,-357.25 1254.5,-338 1157.5,-338"/>
<text xml:space="preserve" text-anchor="middle" x="1206" y="-343.75" font-family="Helvetica,sans-Serif" font-size="10.00">RexxErrorCodes.h</text>
</a>
</g>
</g>
<!-- Node12&#45;&gt;Node17 -->
<g id="edge17" class="edge">
<title>Node12&#45;&gt;Node17</title>
<path fill="none" stroke="midnightblue" d="M1123.35,-393.92C1138.61,-385.55 1161.65,-372.93 1179.54,-363.13"/>
<polygon fill="midnightblue" stroke="midnightblue" points="1181.21,-366.2 1188.3,-358.32 1177.85,-360.06 1181.21,-366.2"/>
</g>
<!-- Node15&#45;&gt;Node2 -->
<g id="edge16" class="edge">
<title>Node15&#45;&gt;Node2</title>
<path fill="none" stroke="midnightblue" d="M1002.72,-301.46C1007.47,-329.36 1018.18,-415.24 982,-470.25 972.53,-484.65 956.8,-494.93 941.78,-502.01"/>
<polygon fill="midnightblue" stroke="midnightblue" points="940.77,-498.63 932.98,-505.81 943.54,-505.06 940.77,-498.63"/>
</g>
<!-- Node16 -->
<g id="node16" class="node">
<title>Node16</title>
<g id="a_node16"><a xlink:title=" ">
<polygon fill="white" stroke="#bfbfbf" points="973.12,-225.5 973.12,-244.75 1028.88,-244.75 1028.88,-225.5 973.12,-225.5"/>
<text xml:space="preserve" text-anchor="middle" x="1001" y="-231.25" font-family="Helvetica,sans-Serif" font-size="10.00">algorithm</text>
</a>
</g>
</g>
<!-- Node15&#45;&gt;Node16 -->
<g id="edge15" class="edge">
<title>Node15&#45;&gt;Node16</title>
<path fill="none" stroke="midnightblue" d="M1001,-281.42C1001,-274.62 1001,-265.01 1001,-256.4"/>
<polygon fill="midnightblue" stroke="midnightblue" points="1004.5,-256.43 1001,-246.43 997.5,-256.43 1004.5,-256.43"/>
</g>
<!-- Node19 -->
<g id="node19" class="node">
<title>Node19</title>
<g id="a_node19"><a xlink:href="_hash_collection_8hpp.html" target="_top" xlink:title=" ">
<polygon fill="white" stroke="black" points="252.25,-338 252.25,-357.25 353.75,-357.25 353.75,-338 252.25,-338"/>
<text xml:space="preserve" text-anchor="middle" x="303" y="-343.75" font-family="Helvetica,sans-Serif" font-size="10.00">HashCollection.hpp</text>
</a>
</g>
</g>
<!-- Node18&#45;&gt;Node19 -->
<g id="edge19" class="edge">
<title>Node18&#45;&gt;Node19</title>
<path fill="none" stroke="midnightblue" d="M346.75,-457.83C314.74,-454.35 272.68,-443.9 251,-414 238.24,-396.4 258.24,-377 277.02,-363.94"/>
<polygon fill="midnightblue" stroke="midnightblue" points="278.81,-366.95 285.28,-358.56 274.99,-361.09 278.81,-366.95"/>
</g>
<!-- Node20 -->
<g id="node20" class="node">
<title>Node20</title>
<g id="a_node20"><a xlink:href="_hash_contents_8hpp.html" target="_top" xlink:title=" ">
<polygon fill="white" stroke="black" points="255.12,-281.75 255.12,-301 352.88,-301 352.88,-281.75 255.12,-281.75"/>
<text xml:space="preserve" text-anchor="middle" x="304" y="-287.5" font-family="Helvetica,sans-Serif" font-size="10.00">HashContents.hpp</text>
</a>
</g>
</g>
<!-- Node19&#45;&gt;Node20 -->
<g id="edge20" class="edge">
<title>Node19&#45;&gt;Node20</title>
<path fill="none" stroke="midnightblue" d="M303.17,-337.67C303.29,-330.87 303.47,-321.26 303.63,-312.65"/>
<polygon fill="midnightblue" stroke="midnightblue" points="307.13,-312.74 303.81,-302.68 300.13,-312.61 307.13,-312.74"/>
</g>
<!-- Node21 -->
<g id="node21" class="node">
<title>Node21</title>
<g id="a_node21"><a xlink:href="_string_class_8hpp.html" target="_top" xlink:title=" ">
<polygon fill="white" stroke="black" points="310.12,-225.5 310.12,-244.75 395.88,-244.75 395.88,-225.5 310.12,-225.5"/>
<text xml:space="preserve" text-anchor="middle" x="353" y="-231.25" font-family="Helvetica,sans-Serif" font-size="10.00">StringClass.hpp</text>
</a>
</g>
</g>
<!-- Node20&#45;&gt;Node21 -->
<g id="edge21" class="edge">
<title>Node20&#45;&gt;Node21</title>
<path fill="none" stroke="midnightblue" d="M312.09,-281.42C318.94,-273.83 328.96,-262.74 337.37,-253.43"/>
<polygon fill="midnightblue" stroke="midnightblue" points="339.94,-255.81 344.04,-246.04 334.74,-251.11 339.94,-255.81"/>
</g>
<!-- Node21&#45;&gt;Node14 -->
<g id="edge32" class="edge">
<title>Node21&#45;&gt;Node14</title>
<path fill="none" stroke="midnightblue" d="M385.97,-225.04C421.71,-215.2 478.5,-199.56 515.01,-189.51"/>
<polygon fill="midnightblue" stroke="midnightblue" points="515.47,-193.01 524.18,-186.99 513.61,-186.27 515.47,-193.01"/>
</g>
<!-- Node22 -->
<g id="node22" class="node">
<title>Node22</title>
<g id="a_node22"><a xlink:href="_integer_class_8hpp.html" target="_top" xlink:title=" ">
<polygon fill="white" stroke="black" points="221.88,-169.25 221.88,-188.5 312.12,-188.5 312.12,-169.25 221.88,-169.25"/>
<text xml:space="preserve" text-anchor="middle" x="267" y="-175" font-family="Helvetica,sans-Serif" font-size="10.00">IntegerClass.hpp</text>
</a>
</g>
</g>
<!-- Node21&#45;&gt;Node22 -->
<g id="edge22" class="edge">
<title>Node21&#45;&gt;Node22</title>
<path fill="none" stroke="midnightblue" d="M338.8,-225.17C325.73,-216.92 306.09,-204.53 290.65,-194.79"/>
<polygon fill="midnightblue" stroke="midnightblue" points="292.83,-192.03 282.5,-189.65 289.09,-197.95 292.83,-192.03"/>
</g>
<!-- Node24 -->
<g id="node24" class="node">
<title>Node24</title>
<g id="a_node24"><a xlink:href="_flag_set_8hpp.html" target="_top" xlink:title=" ">
<polygon fill="white" stroke="black" points="195.75,-56.75 195.75,-76 264.25,-76 264.25,-56.75 195.75,-56.75"/>
<text xml:space="preserve" text-anchor="middle" x="230" y="-62.5" font-family="Helvetica,sans-Serif" font-size="10.00">FlagSet.hpp</text>
</a>
</g>
</g>
<!-- Node21&#45;&gt;Node24 -->
<g id="edge31" class="edge">
<title>Node21&#45;&gt;Node24</title>
<path fill="none" stroke="midnightblue" d="M349.26,-225.08C340.12,-203.74 314.98,-149.27 282,-112.5 272.56,-101.98 260.75,-91.55 250.77,-83.38"/>
<polygon fill="midnightblue" stroke="midnightblue" points="253.09,-80.75 243.09,-77.24 248.72,-86.22 253.09,-80.75"/>
</g>
<!-- Node26 -->
<g id="node26" class="node">
<title>Node26</title>
<g id="a_node26"><a xlink:href="_string_util_8hpp.html" target="_top" xlink:title=" ">
<polygon fill="white" stroke="black" points="406.38,-169.25 406.38,-188.5 481.62,-188.5 481.62,-169.25 406.38,-169.25"/>
<text xml:space="preserve" text-anchor="middle" x="444" y="-175" font-family="Helvetica,sans-Serif" font-size="10.00">StringUtil.hpp</text>
</a>
</g>
</g>
<!-- Node21&#45;&gt;Node26 -->
<g id="edge26" class="edge">
<title>Node21&#45;&gt;Node26</title>
<path fill="none" stroke="midnightblue" d="M368.03,-225.17C381.99,-216.84 403.04,-204.29 419.44,-194.52"/>
<polygon fill="midnightblue" stroke="midnightblue" points="420.85,-197.75 427.65,-189.62 417.27,-191.74 420.85,-197.75"/>
</g>
<!-- Node28 -->
<g id="node28" class="node">
<title>Node28</title>
<g id="a_node28"><a xlink:href="_utilities_8hpp.html" target="_top" xlink:title=" ">
<polygon fill="white" stroke="black" points="368.12,-113 368.12,-132.25 435.88,-132.25 435.88,-113 368.12,-113"/>
<text xml:space="preserve" text-anchor="middle" x="402" y="-118.75" font-family="Helvetica,sans-Serif" font-size="10.00">Utilities.hpp</text>
</a>
</g>
</g>
<!-- Node21&#45;&gt;Node28 -->
<g id="edge30" class="edge">
<title>Node21&#45;&gt;Node28</title>
<path fill="none" stroke="midnightblue" d="M357.01,-225.08C364.95,-207.19 382.81,-166.91 393.48,-142.83"/>
<polygon fill="midnightblue" stroke="midnightblue" points="396.6,-144.43 397.46,-133.87 390.2,-141.59 396.6,-144.43"/>
</g>
<!-- Node22&#45;&gt;Node23 -->
<g id="edge23" class="edge">
<title>Node22&#45;&gt;Node23</title>
<path fill="none" stroke="midnightblue" d="M260.89,-168.92C255.88,-161.57 248.62,-150.93 242.4,-141.81"/>
<polygon fill="midnightblue" stroke="midnightblue" points="245.38,-139.96 236.85,-133.67 239.59,-143.9 245.38,-139.96"/>
</g>
<!-- Node23&#45;&gt;Node24 -->
<g id="edge24" class="edge">
<title>Node23&#45;&gt;Node24</title>
<path fill="none" stroke="midnightblue" d="M230,-112.67C230,-105.87 230,-96.26 230,-87.65"/>
<polygon fill="midnightblue" stroke="midnightblue" points="233.5,-87.68 230,-77.68 226.5,-87.68 233.5,-87.68"/>
</g>
<!-- Node25 -->
<g id="node25" class="node">
<title>Node25</title>
<g id="a_node25"><a xlink:href="_bit_set_8hpp.html" target="_top" xlink:title=" ">
<polygon fill="white" stroke="black" points="199.12,-0.5 199.12,-19.75 260.88,-19.75 260.88,-0.5 199.12,-0.5"/>
<text xml:space="preserve" text-anchor="middle" x="230" y="-6.25" font-family="Helvetica,sans-Serif" font-size="10.00">BitSet.hpp</text>
</a>
</g>
</g>
<!-- Node24&#45;&gt;Node25 -->
<g id="edge25" class="edge">
<title>Node24&#45;&gt;Node25</title>
<path fill="none" stroke="midnightblue" d="M230,-56.42C230,-49.62 230,-40.01 230,-31.4"/>
<polygon fill="midnightblue" stroke="midnightblue" points="233.5,-31.43 230,-21.43 226.5,-31.43 233.5,-31.43"/>
</g>
<!-- Node27 -->
<g id="node27" class="node">
<title>Node27</title>
<g id="a_node27"><a xlink:title=" ">
<polygon fill="white" stroke="#bfbfbf" points="453.88,-113 453.88,-132.25 502.12,-132.25 502.12,-113 453.88,-113"/>
<text xml:space="preserve" text-anchor="middle" x="478" y="-118.75" font-family="Helvetica,sans-Serif" font-size="10.00">ctype.h</text>
</a>
</g>
</g>
<!-- Node26&#45;&gt;Node27 -->
<g id="edge27" class="edge">
<title>Node26&#45;&gt;Node27</title>
<path fill="none" stroke="midnightblue" d="M449.61,-168.92C454.17,-161.65 460.74,-151.16 466.42,-142.11"/>
<polygon fill="midnightblue" stroke="midnightblue" points="469.34,-144.03 471.69,-133.7 463.41,-140.31 469.34,-144.03"/>
</g>
<!-- Node26&#45;&gt;Node28 -->
<g id="edge28" class="edge">
<title>Node26&#45;&gt;Node28</title>
<path fill="none" stroke="midnightblue" d="M437.06,-168.92C431.32,-161.49 422.96,-150.7 415.85,-141.52"/>
<polygon fill="midnightblue" stroke="midnightblue" points="418.62,-139.38 409.73,-133.61 413.09,-143.66 418.62,-139.38"/>
</g>
<!-- Node29 -->
<g id="node29" class="node">
<title>Node29</title>
<g id="a_node29"><a xlink:title=" ">
<polygon fill="white" stroke="#bfbfbf" points="368.5,-56.75 368.5,-76 435.5,-76 435.5,-56.75 368.5,-56.75"/>
<text xml:space="preserve" text-anchor="middle" x="402" y="-62.5" font-family="Helvetica,sans-Serif" font-size="10.00">sys/types.h</text>
</a>
</g>
</g>
<!-- Node28&#45;&gt;Node29 -->
<g id="edge29" class="edge">
<title>Node28&#45;&gt;Node29</title>
<path fill="none" stroke="midnightblue" d="M402,-112.67C402,-105.87 402,-96.26 402,-87.65"/>
<polygon fill="midnightblue" stroke="midnightblue" points="405.5,-87.68 402,-77.68 398.5,-87.68 405.5,-87.68"/>
</g>
<!-- Node31 -->
<g id="node31" class="node">
<title>Node31</title>
<g id="a_node31"><a xlink:href="_memory_8hpp.html" target="_top" xlink:title=" ">
<polygon fill="white" stroke="black" points="409.75,-338 409.75,-357.25 478.25,-357.25 478.25,-338 409.75,-338"/>
<text xml:space="preserve" text-anchor="middle" x="444" y="-343.75" font-family="Helvetica,sans-Serif" font-size="10.00">Memory.hpp</text>
</a>
</g>
</g>
<!-- Node30&#45;&gt;Node31 -->
<g id="edge34" class="edge">
<title>Node30&#45;&gt;Node31</title>
<path fill="none" stroke="midnightblue" d="M572.67,-457.8C537.4,-454.29 490.1,-443.8 461,-414 449.34,-402.06 445.39,-383.19 444.18,-368.79"/>
<polygon fill="midnightblue" stroke="midnightblue" points="447.69,-368.92 443.77,-359.08 440.7,-369.22 447.69,-368.92"/>
</g>
<!-- Node32 -->
<g id="node32" class="node">
<title>Node32</title>
<g id="a_node32"><a xlink:href="_memory_stack_8hpp.html" target="_top" xlink:title=" ">
<polygon fill="white" stroke="black" points="421.25,-225.5 421.25,-244.75 516.75,-244.75 516.75,-225.5 421.25,-225.5"/>
<text xml:space="preserve" text-anchor="middle" x="469" y="-231.25" font-family="Helvetica,sans-Serif" font-size="10.00">MemoryStack.hpp</text>
</a>
</g>
</g>
<!-- Node30&#45;&gt;Node32 -->
<g id="edge35" class="edge">
<title>Node30&#45;&gt;Node32</title>
<path fill="none" stroke="midnightblue" d="M572.85,-455.33C535.75,-450.45 483.62,-439.33 445,-414 418.46,-396.6 411.34,-387.76 401,-357.75 387.1,-317.42 424.62,-274.94 449.31,-252.41"/>
<polygon fill="midnightblue" stroke="midnightblue" points="451.35,-255.27 456.57,-246.05 446.74,-250.01 451.35,-255.27"/>
</g>
<!-- Node33 -->
<g id="node33" class="node">
<title>Node33</title>
<g id="a_node33"><a xlink:title=" ">
<polygon fill="white" stroke="#bfbfbf" points="637.25,-281.75 637.25,-301 738.75,-301 738.75,-281.75 637.25,-281.75"/>
<text xml:space="preserve" text-anchor="middle" x="688" y="-287.5" font-family="Helvetica,sans-Serif" font-size="10.00">SysSemaphore.hpp</text>
</a>
</g>
</g>
<!-- Node30&#45;&gt;Node33 -->
<g id="edge37" class="edge">
<title>Node30&#45;&gt;Node33</title>
<path fill="none" stroke="midnightblue" d="M628.34,-450.28C654.11,-425.88 724.35,-359.28 725,-357.75 732.4,-340.44 719.68,-321.86 707.19,-308.95"/>
<polygon fill="midnightblue" stroke="midnightblue" points="709.97,-306.77 700.32,-302.4 705.14,-311.83 709.97,-306.77"/>
</g>
<!-- Node34 -->
<g id="node34" class="node">
<title>Node34</title>
<g id="a_node34"><a xlink:href="_identity_table_class_8hpp.html" target="_top" xlink:title=" ">
<polygon fill="white" stroke="black" points="260.12,-394.25 260.12,-413.5 375.88,-413.5 375.88,-394.25 260.12,-394.25"/>
<text xml:space="preserve" text-anchor="middle" x="318" y="-400" font-family="Helvetica,sans-Serif" font-size="10.00">IdentityTableClass.hpp</text>
</a>
</g>
</g>
<!-- Node30&#45;&gt;Node34 -->
<g id="edge38" class="edge">
<title>Node30&#45;&gt;Node34</title>
<path fill="none" stroke="midnightblue" d="M572.63,-450.77C520.84,-441.43 436.78,-426.28 379.52,-415.96"/>
<polygon fill="midnightblue" stroke="midnightblue" points="380.4,-412.56 369.94,-414.24 379.16,-419.45 380.4,-412.56"/>
</g>
<!-- Node35 -->
<g id="node35" class="node">
<title>Node35</title>
<g id="a_node35"><a xlink:href="_queue_class_8hpp.html" target="_top" xlink:title=" ">
<polygon fill="white" stroke="black" points="696.62,-394.25 696.62,-413.5 785.38,-413.5 785.38,-394.25 696.62,-394.25"/>
<text xml:space="preserve" text-anchor="middle" x="741" y="-400" font-family="Helvetica,sans-Serif" font-size="10.00">QueueClass.hpp</text>
</a>
</g>
</g>
<!-- Node30&#45;&gt;Node35 -->
<g id="edge40" class="edge">
<title>Node30&#45;&gt;Node35</title>
<path fill="none" stroke="midnightblue" d="M639.42,-450.04C658.77,-441.44 688.1,-428.4 710.28,-418.54"/>
<polygon fill="midnightblue" stroke="midnightblue" points="711.42,-421.86 719.13,-414.6 708.57,-415.46 711.42,-421.86"/>
</g>
<!-- Node38 -->
<g id="node38" class="node">
<title>Node38</title>
<g id="a_node38"><a xlink:title=" ">
<polygon fill="white" stroke="#bfbfbf" points="597.5,-394.25 597.5,-413.5 640.5,-413.5 640.5,-394.25 597.5,-394.25"/>
<text xml:space="preserve" text-anchor="middle" x="619" y="-400" font-family="Helvetica,sans-Serif" font-size="10.00">vector</text>
</a>
</g>
</g>
<!-- Node30&#45;&gt;Node38 -->
<g id="edge44" class="edge">
<title>Node30&#45;&gt;Node38</title>
<path fill="none" stroke="midnightblue" d="M619,-450.17C619,-443.37 619,-433.76 619,-425.15"/>
<polygon fill="midnightblue" stroke="midnightblue" points="622.5,-425.18 619,-415.18 615.5,-425.18 622.5,-425.18"/>
</g>
<!-- Node39 -->
<g id="node39" class="node">
<title>Node39</title>
<g id="a_node39"><a xlink:href="_memory_stats_8hpp.html" target="_top" xlink:title=" ">
<polygon fill="white" stroke="black" points="841.38,-394.25 841.38,-413.5 934.62,-413.5 934.62,-394.25 841.38,-394.25"/>
<text xml:space="preserve" text-anchor="middle" x="888" y="-400" font-family="Helvetica,sans-Serif" font-size="10.00">MemoryStats.hpp</text>
</a>
</g>
</g>
<!-- Node30&#45;&gt;Node39 -->
<g id="edge45" class="edge">
<title>Node30&#45;&gt;Node39</title>
<path fill="none" stroke="midnightblue" d="M664.02,-450.04C710.09,-440.75 781.79,-426.29 831.61,-416.25"/>
<polygon fill="midnightblue" stroke="midnightblue" points="832.23,-419.69 841.34,-414.28 830.85,-412.83 832.23,-419.69"/>
</g>
<!-- Node40 -->
<g id="node40" class="node">
<title>Node40</title>
<g id="a_node40"><a xlink:href="_memory_segment_8hpp.html" target="_top" xlink:title=" ">
<polygon fill="white" stroke="black" points="470.5,-394.25 470.5,-413.5 579.5,-413.5 579.5,-394.25 470.5,-394.25"/>
<text xml:space="preserve" text-anchor="middle" x="525" y="-400" font-family="Helvetica,sans-Serif" font-size="10.00">MemorySegment.hpp</text>
</a>
</g>
</g>
<!-- Node30&#45;&gt;Node40 -->
<g id="edge47" class="edge">
<title>Node30&#45;&gt;Node40</title>
<path fill="none" stroke="midnightblue" d="M603.48,-450.17C589.05,-441.84 567.31,-429.29 550.37,-419.52"/>
<polygon fill="midnightblue" stroke="midnightblue" points="552.27,-416.57 541.86,-414.6 548.77,-422.63 552.27,-416.57"/>
</g>
<!-- Node32&#45;&gt;Node14 -->
<g id="edge36" class="edge">
<title>Node32&#45;&gt;Node14</title>
<path fill="none" stroke="midnightblue" d="M482.38,-225.17C494.57,-217 512.83,-204.77 527.31,-195.07"/>
<polygon fill="midnightblue" stroke="midnightblue" points="528.99,-198.16 535.35,-189.69 525.09,-192.35 528.99,-198.16"/>
</g>
<!-- Node34&#45;&gt;Node19 -->
<g id="edge39" class="edge">
<title>Node34&#45;&gt;Node19</title>
<path fill="none" stroke="midnightblue" d="M315.52,-393.92C313.6,-386.96 310.86,-377.07 308.44,-368.3"/>
<polygon fill="midnightblue" stroke="midnightblue" points="311.87,-367.58 305.83,-358.88 305.13,-369.45 311.87,-367.58"/>
</g>
<!-- Node36 -->
<g id="node36" class="node">
<title>Node36</title>
<g id="a_node36"><a xlink:href="_array_class_8hpp.html" target="_top" xlink:title=" ">
<polygon fill="white" stroke="black" points="772.25,-338 772.25,-357.25 855.75,-357.25 855.75,-338 772.25,-338"/>
<text xml:space="preserve" text-anchor="middle" x="814" y="-343.75" font-family="Helvetica,sans-Serif" font-size="10.00">ArrayClass.hpp</text>
</a>
</g>
</g>
<!-- Node35&#45;&gt;Node36 -->
<g id="edge41" class="edge">
<title>Node35&#45;&gt;Node36</title>
<path fill="none" stroke="midnightblue" d="M753.05,-393.92C763.9,-385.86 780.07,-373.84 793.03,-364.21"/>
<polygon fill="midnightblue" stroke="midnightblue" points="795.02,-367.09 800.96,-358.32 790.84,-361.47 795.02,-367.09"/>
</g>
<!-- Node36&#45;&gt;Node15 -->
<g id="edge43" class="edge">
<title>Node36&#45;&gt;Node15</title>
<path fill="none" stroke="midnightblue" d="M845.3,-337.54C876.45,-328.51 924.45,-314.58 958.92,-304.58"/>
<polygon fill="midnightblue" stroke="midnightblue" points="959.52,-308.05 968.14,-301.91 957.57,-301.33 959.52,-308.05"/>
</g>
<!-- Node37 -->
<g id="node37" class="node">
<title>Node37</title>
<g id="a_node37"><a xlink:href="_number_array_8hpp.html" target="_top" xlink:title=" ">
<polygon fill="white" stroke="black" points="768.5,-281.75 768.5,-301 859.5,-301 859.5,-281.75 768.5,-281.75"/>
<text xml:space="preserve" text-anchor="middle" x="814" y="-287.5" font-family="Helvetica,sans-Serif" font-size="10.00">NumberArray.hpp</text>
</a>
</g>
</g>
<!-- Node36&#45;&gt;Node37 -->
<g id="edge42" class="edge">
<title>Node36&#45;&gt;Node37</title>
<path fill="none" stroke="midnightblue" d="M814,-337.67C814,-330.87 814,-321.26 814,-312.65"/>
<polygon fill="midnightblue" stroke="midnightblue" points="817.5,-312.68 814,-302.68 810.5,-312.68 817.5,-312.68"/>
</g>
<!-- Node39&#45;&gt;Node11 -->
<g id="edge46" class="edge">
<title>Node39&#45;&gt;Node11</title>
<path fill="none" stroke="midnightblue" d="M893.78,-393.92C898.52,-386.57 905.38,-375.93 911.27,-366.81"/>
<polygon fill="midnightblue" stroke="midnightblue" points="914.03,-368.99 916.51,-358.69 908.15,-365.19 914.03,-368.99"/>
</g>
<!-- Node40&#45;&gt;Node31 -->
<g id="edge54" class="edge">
<title>Node40&#45;&gt;Node31</title>
<path fill="none" stroke="midnightblue" d="M511.62,-393.92C499.43,-385.75 481.17,-373.52 466.69,-363.82"/>
<polygon fill="midnightblue" stroke="midnightblue" points="468.91,-361.1 458.65,-358.44 465.01,-366.91 468.91,-361.1"/>
</g>
<!-- Node41 -->
<g id="node41" class="node">
<title>Node41</title>
<g id="a_node41"><a xlink:href="_dead_object_8hpp.html" target="_top" xlink:title=" ">
<polygon fill="white" stroke="black" points="533.75,-338 533.75,-357.25 620.25,-357.25 620.25,-338 533.75,-338"/>
<text xml:space="preserve" text-anchor="middle" x="577" y="-343.75" font-family="Helvetica,sans-Serif" font-size="10.00">DeadObject.hpp</text>
</a>
</g>
</g>
<!-- Node40&#45;&gt;Node41 -->
<g id="edge48" class="edge">
<title>Node40&#45;&gt;Node41</title>
<path fill="none" stroke="midnightblue" d="M533.59,-393.92C540.93,-386.25 551.71,-375.01 560.69,-365.64"/>
<polygon fill="midnightblue" stroke="midnightblue" points="563.13,-368.15 567.53,-358.51 558.08,-363.31 563.13,-368.15"/>
</g>
<!-- Node42 -->
<g id="node42" class="node">
<title>Node42</title>
<g id="a_node42"><a xlink:title=" ">
<polygon fill="white" stroke="#bfbfbf" points="490.38,-281.75 490.38,-301 535.62,-301 535.62,-281.75 490.38,-281.75"/>
<text xml:space="preserve" text-anchor="middle" x="513" y="-287.5" font-family="Helvetica,sans-Serif" font-size="10.00">stdio.h</text>
</a>
</g>
</g>
<!-- Node40&#45;&gt;Node42 -->
<g id="edge55" class="edge">
<title>Node40&#45;&gt;Node42</title>
<path fill="none" stroke="midnightblue" d="M524.02,-393.83C522.1,-376.18 517.82,-336.75 515.19,-312.58"/>
<polygon fill="midnightblue" stroke="midnightblue" points="518.68,-312.3 514.13,-302.74 511.73,-313.06 518.68,-312.3"/>
</g>
<!-- Node43 -->
<g id="node43" class="node">
<title>Node43</title>
<g id="a_node43"><a xlink:href="_interpreter_8hpp.html" target="_top" xlink:title=" ">
<polygon fill="white" stroke="black" points="637.88,-338 637.88,-357.25 716.12,-357.25 716.12,-338 637.88,-338"/>
<text xml:space="preserve" text-anchor="middle" x="677" y="-343.75" font-family="Helvetica,sans-Serif" font-size="10.00">Interpreter.hpp</text>
</a>
</g>
</g>
<!-- Node40&#45;&gt;Node43 -->
<g id="edge51" class="edge">
<title>Node40&#45;&gt;Node43</title>
<path fill="none" stroke="midnightblue" d="M550.44,-393.79C575.21,-384.95 613.1,-371.43 640.96,-361.49"/>
<polygon fill="midnightblue" stroke="midnightblue" points="641.81,-364.9 650.05,-358.24 639.46,-358.31 641.81,-364.9"/>
</g>
<!-- Node41&#45;&gt;Node14 -->
<g id="edge49" class="edge">
<title>Node41&#45;&gt;Node14</title>
<path fill="none" stroke="midnightblue" d="M575.55,-337.66C571.35,-311.76 559.15,-236.37 553.26,-199.98"/>
<polygon fill="midnightblue" stroke="midnightblue" points="556.75,-199.69 551.7,-190.38 549.84,-200.81 556.75,-199.69"/>
</g>
<!-- Node41&#45;&gt;Node42 -->
<g id="edge50" class="edge">
<title>Node41&#45;&gt;Node42</title>
<path fill="none" stroke="midnightblue" d="M566.43,-337.67C557.11,-329.77 543.3,-318.06 532.06,-308.53"/>
<polygon fill="midnightblue" stroke="midnightblue" points="534.42,-305.94 524.53,-302.15 529.89,-311.28 534.42,-305.94"/>
</g>
<!-- Node43&#45;&gt;Node2 -->
<g id="edge52" class="edge">
<title>Node43&#45;&gt;Node2</title>
<path fill="none" stroke="midnightblue" d="M713.19,-357.71C737.47,-364.94 769.4,-376.69 794,-393.75 835.6,-422.6 871.91,-470.7 889.93,-496.93"/>
<polygon fill="midnightblue" stroke="midnightblue" points="886.98,-498.82 895.46,-505.17 892.79,-494.91 886.98,-498.82"/>
</g>
<!-- Node43&#45;&gt;Node33 -->
<g id="edge53" class="edge">
<title>Node43&#45;&gt;Node33</title>
<path fill="none" stroke="midnightblue" d="M678.82,-337.67C680.21,-330.79 682.19,-321.04 683.95,-312.35"/>
<polygon fill="midnightblue" stroke="midnightblue" points="687.36,-313.15 685.92,-302.65 680.5,-311.75 687.36,-313.15"/>
</g>
<!-- Node44&#45;&gt;Node24 -->
<g id="edge57" class="edge">
<title>Node44&#45;&gt;Node24</title>
<path fill="none" stroke="midnightblue" d="M71.05,-450.03C53.94,-442.78 32.31,-430.99 19,-414 0.34,-390.18 0,-378.88 0,-348.62 0,-348.62 0,-348.62 0,-177.88 0,-96.84 117.43,-75.19 184.47,-69.44"/>
<polygon fill="midnightblue" stroke="midnightblue" points="184.35,-72.96 194.06,-68.71 183.82,-65.98 184.35,-72.96"/>
</g>
<!-- Node45 -->
<g id="node45" class="node">
<title>Node45</title>
<g id="a_node45"><a xlink:href="_primitive_behaviour_names_8h.html" target="_top" xlink:title=" ">
<polygon fill="white" stroke="black" points="28.25,-394.25 28.25,-413.5 165.75,-413.5 165.75,-394.25 28.25,-394.25"/>
<text xml:space="preserve" text-anchor="middle" x="97" y="-400" font-family="Helvetica,sans-Serif" font-size="10.00">PrimitiveBehaviourNames.h</text>
</a>
</g>
</g>
<!-- Node44&#45;&gt;Node45 -->
<g id="edge58" class="edge">
<title>Node44&#45;&gt;Node45</title>
<path fill="none" stroke="midnightblue" d="M97,-450.17C97,-443.37 97,-433.76 97,-425.15"/>
<polygon fill="midnightblue" stroke="midnightblue" points="100.5,-425.18 97,-415.18 93.5,-425.18 100.5,-425.18"/>
</g>
<!-- Node48 -->
<g id="node48" class="node">
<title>Node48</title>
<g id="a_node48"><a xlink:href="_map_bucket_8hpp.html" target="_top" xlink:title=" ">
<polygon fill="white" stroke="black" points="1192.88,-450.5 1192.88,-469.75 1277.12,-469.75 1277.12,-450.5 1192.88,-450.5"/>
<text xml:space="preserve" text-anchor="middle" x="1235" y="-456.25" font-family="Helvetica,sans-Serif" font-size="10.00">MapBucket.hpp</text>
</a>
</g>
</g>
<!-- Node47&#45;&gt;Node48 -->
<g id="edge62" class="edge">
<title>Node47&#45;&gt;Node48</title>
<path fill="none" stroke="midnightblue" d="M1134.25,-506.29C1153.36,-497.73 1182.27,-484.77 1204.23,-474.92"/>
<polygon fill="midnightblue" stroke="midnightblue" points="1205.61,-478.14 1213.3,-470.85 1202.74,-471.75 1205.61,-478.14"/>
</g>
<!-- Node48&#45;&gt;Node12 -->
<g id="edge63" class="edge">
<title>Node48&#45;&gt;Node12</title>
<path fill="none" stroke="midnightblue" d="M1213.58,-450.04C1193.18,-441.4 1162.22,-428.28 1138.92,-418.4"/>
<polygon fill="midnightblue" stroke="midnightblue" points="1140.46,-415.26 1129.89,-414.58 1137.73,-421.7 1140.46,-415.26"/>
</g>
</g>
</svg>
        <g id="navigator" transform="translate(0 0)" fill="#404254">
                <rect fill="#f2f5e9" fill-opacity="0.5" stroke="#606060" stroke-width=".5" x="0" y="0" width="60" height="60"/>
                <use id="zoomplus" xlink:href="#zoomPlus" x="17" y="9" onmousedown="handleZoom(evt,'in')"/>
                <use id="zoomminus" xlink:href="#zoomMin" x="42" y="9" onmousedown="handleZoom(evt,'out')"/>
                <use id="reset" xlink:href="#resetDef" x="30" y="36" onmousedown="handleReset()"/>
                <g id="arrowUp" xlink:href="#dirArrow" transform="translate(30 24)" onmousedown="handlePan(0,-1)">
                  <use xlink:href="#rim" fill="#404040">
                        <set attributeName="fill" to="#808080" begin="arrowUp.mouseover" end="arrowUp.mouseout"/>
                  </use>
                  <path fill="none" stroke="white" stroke-width="1.5" d="M0,-3.0v7 M-2.5,-0.5L0,-3.0L2.5,-0.5"/>
                </g>
                <g id="arrowRight" xlink:href="#dirArrow" transform="rotate(90) translate(36 -43)" onmousedown="handlePan(1,0)">
                  <use xlink:href="#rim" fill="#404040">
                        <set attributeName="fill" to="#808080" begin="arrowRight.mouseover" end="arrowRight.mouseout"/>
                  </use>
                  <path fill="none" stroke="white" stroke-width="1.5" d="M0,-3.0v7 M-2.5,-0.5L0,-3.0L2.5,-0.5"/>
                </g>
                <g id="arrowDown" xlink:href="#dirArrow" transform="rotate(180) translate(-30 -48)" onmousedown="handlePan(0,1)">
                  <use xlink:href="#rim" fill="#404040">
                        <set attributeName="fill" to="#808080" begin="arrowDown.mouseover" end="arrowDown.mouseout"/>
                  </use>
                  <path fill="none" stroke="white" stroke-width="1.5" d="M0,-3.0v7 M-2.5,-0.5L0,-3.0L2.5,-0.5"/>
                </g>
                <g id="arrowLeft" xlink:href="#dirArrow" transform="rotate(270) translate(-36 17)" onmousedown="handlePan(-1,0)">
                  <use xlink:href="#rim" fill="#404040">
                        <set attributeName="fill" to="#808080" begin="arrowLeft.mouseover" end="arrowLeft.mouseout"/>
                  </use>
                  <path fill="none" stroke="white" stroke-width="1.5" d="M0,-3.0v7 M-2.5,-0.5L0,-3.0L2.5,-0.5"/>
                </g>
        </g>
        <svg viewBox="0 0 15 15" width="100%" height="30px" preserveAspectRatio="xMaxYMin meet">
         <g id="arrow_out" transform="scale(0.3 0.3)">
          <a xlink:href="_map_table_8cpp__incl_org.svg" target="_base">
           <rect id="button" ry="5" rx="5" y="6" x="6" height="38" width="38"
                fill="#f2f5e9" fill-opacity="0.5" stroke="#606060" stroke-width="1.0"/>
           <path id="arrow"
             d="M 11.500037,31.436501 C 11.940474,20.09759 22.043105,11.32322 32.158766,21.979434 L 37.068811,17.246167 C 37.068811,17.246167 37.088388,32 37.088388,32 L 22.160133,31.978069 C 22.160133,31.978069 26.997745,27.140456 26.997745,27.140456 C 18.528582,18.264221 13.291696,25.230495 11.500037,31.436501 z"
             style="fill:#404040;"/>
          </a>
         </g>
        </svg>
</svg>
