<?xml version="1.0" encoding="UTF-8" standalone="no"?>
<!DOCTYPE svg PUBLIC "-//W3C//DTD SVG 1.1//EN"
 "http://www.w3.org/Graphics/SVG/1.1/DTD/svg11.dtd">
<!-- Generated by graphviz version 13.1.0 (20250701.0955)
 -->
<!-- Title: MemoryStack.cpp Pages: 1 -->
<svg width="1557pt" height="591pt"
 viewBox="0.00 0.00 1557.00 591.00" xmlns="http://www.w3.org/2000/svg" xmlns:xlink="http://www.w3.org/1999/xlink">
<g id="graph0" class="graph" transform="scale(1 1) rotate(0) translate(4 586.75)">
<title>MemoryStack.cpp</title>
<polygon fill="white" stroke="none" points="-4,4 -4,-586.75 1553,-586.75 1553,4 -4,4"/>
<!-- Node1 -->
<g id="node1" class="node">
<title>Node1</title>
<g id="a_node1"><a xlink:title=" ">
<polygon fill="#bfbfbf" stroke="black" points="163.25,-563 163.25,-582.25 258.75,-582.25 258.75,-563 163.25,-563"/>
<text xml:space="preserve" text-anchor="middle" x="211" y="-568.75" font-family="Helvetica,sans-Serif" font-size="10.00">MemoryStack.cpp</text>
</a>
</g>
</g>
<!-- Node2 -->
<g id="node2" class="node">
<title>Node2</title>
<g id="a_node2"><a xlink:href="_rexx_core_8h.html" target="_top" xlink:title=" ">
<polygon fill="white" stroke="black" points="988.75,-506.75 988.75,-526 1057.25,-526 1057.25,-506.75 988.75,-506.75"/>
<text xml:space="preserve" text-anchor="middle" x="1023" y="-512.5" font-family="Helvetica,sans-Serif" font-size="10.00">RexxCore.h</text>
</a>
</g>
</g>
<!-- Node1&#45;&gt;Node2 -->
<g id="edge1" class="edge">
<title>Node1&#45;&gt;Node2</title>
<path fill="none" stroke="midnightblue" d="M259.06,-568.41C404.04,-558.73 835.73,-529.89 977.4,-520.42"/>
<polygon fill="midnightblue" stroke="midnightblue" points="977.4,-523.93 987.14,-519.77 976.93,-516.95 977.4,-523.93"/>
</g>
<!-- Node12 -->
<g id="node12" class="node">
<title>Node12</title>
<g id="a_node12"><a xlink:href="_object_class_8hpp.html" target="_top" xlink:title=" ">
<polygon fill="white" stroke="black" points="94.62,-450.5 94.62,-469.75 183.38,-469.75 183.38,-450.5 94.62,-450.5"/>
<text xml:space="preserve" text-anchor="middle" x="139" y="-456.25" font-family="Helvetica,sans-Serif" font-size="10.00">ObjectClass.hpp</text>
</a>
</g>
</g>
<!-- Node1&#45;&gt;Node12 -->
<g id="edge61" class="edge">
<title>Node1&#45;&gt;Node12</title>
<path fill="none" stroke="midnightblue" d="M205.11,-562.58C193.29,-544.44 166.48,-503.31 150.88,-479.36"/>
<polygon fill="midnightblue" stroke="midnightblue" points="153.99,-477.72 145.6,-471.25 148.13,-481.54 153.99,-477.72"/>
</g>
<!-- Node32 -->
<g id="node32" class="node">
<title>Node32</title>
<g id="a_node32"><a xlink:href="_memory_stack_8hpp.html" target="_top" xlink:title=" ">
<polygon fill="white" stroke="black" points="244.25,-394.25 244.25,-413.5 339.75,-413.5 339.75,-394.25 244.25,-394.25"/>
<text xml:space="preserve" text-anchor="middle" x="292" y="-400" font-family="Helvetica,sans-Serif" font-size="10.00">MemoryStack.hpp</text>
</a>
</g>
</g>
<!-- Node1&#45;&gt;Node32 -->
<g id="edge62" class="edge">
<title>Node1&#45;&gt;Node32</title>
<path fill="none" stroke="midnightblue" d="M210.18,-562.59C208.68,-541.27 207.5,-486.84 230,-450 237.75,-437.31 250.55,-427.1 262.5,-419.62"/>
<polygon fill="midnightblue" stroke="midnightblue" points="264.02,-422.79 270.91,-414.75 260.51,-416.74 264.02,-422.79"/>
</g>
<!-- Node3 -->
<g id="node3" class="node">
<title>Node3</title>
<g id="a_node3"><a xlink:href="oorexxapi_8h.html" target="_top" xlink:title=" ">
<polygon fill="white" stroke="black" points="1170.88,-450.5 1170.88,-469.75 1237.12,-469.75 1237.12,-450.5 1170.88,-450.5"/>
<text xml:space="preserve" text-anchor="middle" x="1204" y="-456.25" font-family="Helvetica,sans-Serif" font-size="10.00">oorexxapi.h</text>
</a>
</g>
</g>
<!-- Node2&#45;&gt;Node3 -->
<g id="edge2" class="edge">
<title>Node2&#45;&gt;Node3</title>
<path fill="none" stroke="midnightblue" d="M1053.3,-506.29C1083.31,-497.3 1129.5,-483.45 1162.84,-473.46"/>
<polygon fill="midnightblue" stroke="midnightblue" points="1163.58,-476.89 1172.16,-470.67 1161.57,-470.19 1163.58,-476.89"/>
</g>
<!-- Node10 -->
<g id="node10" class="node">
<title>Node10</title>
<g id="a_node10"><a xlink:title=" ">
<polygon fill="white" stroke="#bfbfbf" points="239.25,-450.5 239.25,-469.75 346.75,-469.75 346.75,-450.5 239.25,-450.5"/>
<text xml:space="preserve" text-anchor="middle" x="293" y="-456.25" font-family="Helvetica,sans-Serif" font-size="10.00">PlatformDefinitions.h</text>
</a>
</g>
</g>
<!-- Node2&#45;&gt;Node10 -->
<g id="edge9" class="edge">
<title>Node2&#45;&gt;Node10</title>
<path fill="none" stroke="midnightblue" d="M988.47,-513.82C890.19,-509.22 600.54,-494.46 361,-470.25 360.16,-470.16 359.31,-470.08 358.45,-469.99"/>
<polygon fill="midnightblue" stroke="midnightblue" points="358.99,-466.53 348.66,-468.89 358.2,-473.48 358.99,-466.53"/>
</g>
<!-- Node11 -->
<g id="node11" class="node">
<title>Node11</title>
<g id="a_node11"><a xlink:href="_class_type_codes_8h.html" target="_top" xlink:title=" ">
<polygon fill="white" stroke="black" points="962.38,-338 962.38,-357.25 1061.62,-357.25 1061.62,-338 962.38,-338"/>
<text xml:space="preserve" text-anchor="middle" x="1012" y="-343.75" font-family="Helvetica,sans-Serif" font-size="10.00">ClassTypeCodes.h</text>
</a>
</g>
</g>
<!-- Node2&#45;&gt;Node11 -->
<g id="edge10" class="edge">
<title>Node2&#45;&gt;Node11</title>
<path fill="none" stroke="midnightblue" d="M1039.54,-506.33C1051.86,-498.57 1067.76,-486.13 1075,-470.25 1089.11,-439.32 1090.54,-423.99 1075,-393.75 1068.28,-380.66 1055.8,-370.52 1043.71,-363.2"/>
<polygon fill="midnightblue" stroke="midnightblue" points="1045.55,-360.22 1035.11,-358.44 1042.16,-366.34 1045.55,-360.22"/>
</g>
<!-- Node2&#45;&gt;Node12 -->
<g id="edge11" class="edge">
<title>Node2&#45;&gt;Node12</title>
<path fill="none" stroke="midnightblue" d="M988.57,-513.95C878.18,-509.25 523.16,-493.28 230,-470.25 218.72,-469.36 206.67,-468.26 195.15,-467.14"/>
<polygon fill="midnightblue" stroke="midnightblue" points="195.67,-463.67 185.37,-466.16 194.97,-470.64 195.67,-463.67"/>
</g>
<!-- Node18 -->
<g id="node18" class="node">
<title>Node18</title>
<g id="a_node18"><a xlink:href="_table_class_8hpp.html" target="_top" xlink:title=" ">
<polygon fill="white" stroke="black" points="906.25,-450.5 906.25,-469.75 989.75,-469.75 989.75,-450.5 906.25,-450.5"/>
<text xml:space="preserve" text-anchor="middle" x="948" y="-456.25" font-family="Helvetica,sans-Serif" font-size="10.00">TableClass.hpp</text>
</a>
</g>
</g>
<!-- Node2&#45;&gt;Node18 -->
<g id="edge18" class="edge">
<title>Node2&#45;&gt;Node18</title>
<path fill="none" stroke="midnightblue" d="M1010.62,-506.42C999.43,-498.33 982.74,-486.25 969.4,-476.6"/>
<polygon fill="midnightblue" stroke="midnightblue" points="971.78,-474.01 961.63,-470.98 967.68,-479.68 971.78,-474.01"/>
</g>
<!-- Node23 -->
<g id="node23" class="node">
<title>Node23</title>
<g id="a_node23"><a xlink:href="_class_class_8hpp.html" target="_top" xlink:title=" ">
<polygon fill="white" stroke="black" points="1007.12,-113 1007.12,-132.25 1092.88,-132.25 1092.88,-113 1007.12,-113"/>
<text xml:space="preserve" text-anchor="middle" x="1050" y="-118.75" font-family="Helvetica,sans-Serif" font-size="10.00">ClassClass.hpp</text>
</a>
</g>
</g>
<!-- Node2&#45;&gt;Node23 -->
<g id="edge59" class="edge">
<title>Node2&#45;&gt;Node23</title>
<path fill="none" stroke="midnightblue" d="M1048.52,-506.31C1064.42,-499.17 1083.59,-487.52 1093,-470.25 1095.52,-465.63 1091,-312.02 1091,-292.38 1091,-292.38 1091,-292.38 1091,-234.12 1091,-200.15 1073.75,-163.76 1061.63,-142.38"/>
<polygon fill="midnightblue" stroke="midnightblue" points="1064.75,-140.79 1056.65,-133.96 1058.73,-144.35 1064.75,-140.79"/>
</g>
<!-- Node30 -->
<g id="node30" class="node">
<title>Node30</title>
<g id="a_node30"><a xlink:href="_rexx_memory_8hpp.html" target="_top" xlink:title=" ">
<polygon fill="white" stroke="black" points="680.12,-450.5 680.12,-469.75 771.88,-469.75 771.88,-450.5 680.12,-450.5"/>
<text xml:space="preserve" text-anchor="middle" x="726" y="-456.25" font-family="Helvetica,sans-Serif" font-size="10.00">RexxMemory.hpp</text>
</a>
</g>
</g>
<!-- Node2&#45;&gt;Node30 -->
<g id="edge33" class="edge">
<title>Node2&#45;&gt;Node30</title>
<path fill="none" stroke="midnightblue" d="M988.35,-509.05C938.11,-499.87 844.41,-482.75 783.66,-471.66"/>
<polygon fill="midnightblue" stroke="midnightblue" points="784.3,-468.22 773.83,-469.86 783.04,-475.1 784.3,-468.22"/>
</g>
<!-- Node44 -->
<g id="node44" class="node">
<title>Node44</title>
<g id="a_node44"><a xlink:href="_rexx_behaviour_8hpp.html" target="_top" xlink:title=" ">
<polygon fill="white" stroke="black" points="1297.62,-450.5 1297.62,-469.75 1398.38,-469.75 1398.38,-450.5 1297.62,-450.5"/>
<text xml:space="preserve" text-anchor="middle" x="1348" y="-456.25" font-family="Helvetica,sans-Serif" font-size="10.00">RexxBehaviour.hpp</text>
</a>
</g>
</g>
<!-- Node2&#45;&gt;Node44 -->
<g id="edge56" class="edge">
<title>Node2&#45;&gt;Node44</title>
<path fill="none" stroke="midnightblue" d="M1057.47,-509.62C1111.87,-500.54 1218.38,-482.76 1286.22,-471.44"/>
<polygon fill="midnightblue" stroke="midnightblue" points="1286.4,-474.96 1295.69,-469.86 1285.25,-468.05 1286.4,-474.96"/>
</g>
<!-- Node46 -->
<g id="node46" class="node">
<title>Node46</title>
<g id="a_node46"><a xlink:href="_envelope_8hpp.html" target="_top" xlink:title=" ">
<polygon fill="white" stroke="black" points="1416.38,-450.5 1416.38,-469.75 1491.62,-469.75 1491.62,-450.5 1416.38,-450.5"/>
<text xml:space="preserve" text-anchor="middle" x="1454" y="-456.25" font-family="Helvetica,sans-Serif" font-size="10.00">Envelope.hpp</text>
</a>
</g>
</g>
<!-- Node2&#45;&gt;Node46 -->
<g id="edge60" class="edge">
<title>Node2&#45;&gt;Node46</title>
<path fill="none" stroke="midnightblue" d="M1057.54,-512.19C1123.1,-505.96 1270.32,-491.07 1404.77,-470.49"/>
<polygon fill="midnightblue" stroke="midnightblue" points="1405.23,-473.96 1414.58,-468.97 1404.16,-467.04 1405.23,-473.96"/>
</g>
<!-- Node4 -->
<g id="node4" class="node">
<title>Node4</title>
<g id="a_node4"><a xlink:href="rexx_8h.html" target="_top" xlink:title=" ">
<polygon fill="white" stroke="black" points="1261.5,-394.25 1261.5,-413.5 1304.5,-413.5 1304.5,-394.25 1261.5,-394.25"/>
<text xml:space="preserve" text-anchor="middle" x="1283" y="-400" font-family="Helvetica,sans-Serif" font-size="10.00">rexx.h</text>
</a>
</g>
</g>
<!-- Node3&#45;&gt;Node4 -->
<g id="edge3" class="edge">
<title>Node3&#45;&gt;Node4</title>
<path fill="none" stroke="midnightblue" d="M1217.05,-450.17C1228.82,-442.08 1246.41,-430 1260.46,-420.35"/>
<polygon fill="midnightblue" stroke="midnightblue" points="1262.43,-423.25 1268.69,-414.7 1258.46,-417.48 1262.43,-423.25"/>
</g>
<!-- Node9 -->
<g id="node9" class="node">
<title>Node9</title>
<g id="a_node9"><a xlink:href="oorexxerrors_8h.html" target="_top" xlink:title=" ">
<polygon fill="white" stroke="black" points="1164.88,-394.25 1164.88,-413.5 1243.12,-413.5 1243.12,-394.25 1164.88,-394.25"/>
<text xml:space="preserve" text-anchor="middle" x="1204" y="-400" font-family="Helvetica,sans-Serif" font-size="10.00">oorexxerrors.h</text>
</a>
</g>
</g>
<!-- Node3&#45;&gt;Node9 -->
<g id="edge8" class="edge">
<title>Node3&#45;&gt;Node9</title>
<path fill="none" stroke="midnightblue" d="M1204,-450.17C1204,-443.37 1204,-433.76 1204,-425.15"/>
<polygon fill="midnightblue" stroke="midnightblue" points="1207.5,-425.18 1204,-415.18 1200.5,-425.18 1207.5,-425.18"/>
</g>
<!-- Node5 -->
<g id="node5" class="node">
<title>Node5</title>
<g id="a_node5"><a xlink:title=" ">
<polygon fill="white" stroke="#bfbfbf" points="1349.12,-338 1349.12,-357.25 1428.88,-357.25 1428.88,-338 1349.12,-338"/>
<text xml:space="preserve" text-anchor="middle" x="1389" y="-343.75" font-family="Helvetica,sans-Serif" font-size="10.00">rexxapitypes.h</text>
</a>
</g>
</g>
<!-- Node4&#45;&gt;Node5 -->
<g id="edge4" class="edge">
<title>Node4&#45;&gt;Node5</title>
<path fill="none" stroke="midnightblue" d="M1300.5,-393.92C1317.08,-385.44 1342.21,-372.57 1361.47,-362.71"/>
<polygon fill="midnightblue" stroke="midnightblue" points="1362.82,-365.96 1370.12,-358.29 1359.63,-359.73 1362.82,-365.96"/>
</g>
<!-- Node6 -->
<g id="node6" class="node">
<title>Node6</title>
<g id="a_node6"><a xlink:href="rexxapidefs_8h.html" target="_top" xlink:title=" ">
<polygon fill="white" stroke="black" points="1446.75,-338 1446.75,-357.25 1521.25,-357.25 1521.25,-338 1446.75,-338"/>
<text xml:space="preserve" text-anchor="middle" x="1484" y="-343.75" font-family="Helvetica,sans-Serif" font-size="10.00">rexxapidefs.h</text>
</a>
</g>
</g>
<!-- Node4&#45;&gt;Node6 -->
<g id="edge5" class="edge">
<title>Node4&#45;&gt;Node6</title>
<path fill="none" stroke="midnightblue" d="M1304.93,-396.1C1307.64,-395.29 1310.38,-394.49 1313,-393.75 1354.66,-381.92 1402.33,-369.43 1436.73,-360.59"/>
<polygon fill="midnightblue" stroke="midnightblue" points="1437.58,-363.99 1446.4,-358.12 1435.84,-357.21 1437.58,-363.99"/>
</g>
<!-- Node7 -->
<g id="node7" class="node">
<title>Node7</title>
<g id="a_node7"><a xlink:title=" ">
<polygon fill="white" stroke="#bfbfbf" points="1119.5,-338 1119.5,-357.25 1216.5,-357.25 1216.5,-338 1119.5,-338"/>
<text xml:space="preserve" text-anchor="middle" x="1168" y="-343.75" font-family="Helvetica,sans-Serif" font-size="10.00">rexxplatformdefs.h</text>
</a>
</g>
</g>
<!-- Node4&#45;&gt;Node7 -->
<g id="edge6" class="edge">
<title>Node4&#45;&gt;Node7</title>
<path fill="none" stroke="midnightblue" d="M1263.75,-393.79C1245.67,-385.27 1218.37,-372.38 1197.53,-362.56"/>
<polygon fill="midnightblue" stroke="midnightblue" points="1199.22,-359.48 1188.68,-358.38 1196.23,-365.81 1199.22,-359.48"/>
</g>
<!-- Node8 -->
<g id="node8" class="node">
<title>Node8</title>
<g id="a_node8"><a xlink:title=" ">
<polygon fill="white" stroke="#bfbfbf" points="1234.88,-338 1234.88,-357.25 1331.12,-357.25 1331.12,-338 1234.88,-338"/>
<text xml:space="preserve" text-anchor="middle" x="1283" y="-343.75" font-family="Helvetica,sans-Serif" font-size="10.00">rexxplatformapis.h</text>
</a>
</g>
</g>
<!-- Node4&#45;&gt;Node8 -->
<g id="edge7" class="edge">
<title>Node4&#45;&gt;Node8</title>
<path fill="none" stroke="midnightblue" d="M1283,-393.92C1283,-387.12 1283,-377.51 1283,-368.9"/>
<polygon fill="midnightblue" stroke="midnightblue" points="1286.5,-368.93 1283,-358.93 1279.5,-368.93 1286.5,-368.93"/>
</g>
<!-- Node13 -->
<g id="node13" class="node">
<title>Node13</title>
<g id="a_node13"><a xlink:title=" ">
<polygon fill="white" stroke="#bfbfbf" points="0,-394.25 0,-413.5 34,-413.5 34,-394.25 0,-394.25"/>
<text xml:space="preserve" text-anchor="middle" x="17" y="-400" font-family="Helvetica,sans-Serif" font-size="10.00">new</text>
</a>
</g>
</g>
<!-- Node12&#45;&gt;Node13 -->
<g id="edge12" class="edge">
<title>Node12&#45;&gt;Node13</title>
<path fill="none" stroke="midnightblue" d="M118.58,-450.04C98.29,-441.02 67.05,-427.13 44.57,-417.13"/>
<polygon fill="midnightblue" stroke="midnightblue" points="46.27,-414.06 35.71,-413.19 43.42,-420.45 46.27,-414.06"/>
</g>
<!-- Node14 -->
<g id="node14" class="node">
<title>Node14</title>
<g id="a_node14"><a xlink:title=" ">
<polygon fill="white" stroke="#bfbfbf" points="377.88,-169.25 377.88,-188.5 426.12,-188.5 426.12,-169.25 377.88,-169.25"/>
<text xml:space="preserve" text-anchor="middle" x="402" y="-175" font-family="Helvetica,sans-Serif" font-size="10.00">string.h</text>
</a>
</g>
</g>
<!-- Node12&#45;&gt;Node14 -->
<g id="edge13" class="edge">
<title>Node12&#45;&gt;Node14</title>
<path fill="none" stroke="midnightblue" d="M122.4,-450.15C109.33,-442.26 91.6,-429.62 81,-414 64.01,-388.96 62,-378.88 62,-348.62 62,-348.62 62,-348.62 62,-290.38 62,-226.88 279.17,-194.3 366.38,-183.77"/>
<polygon fill="midnightblue" stroke="midnightblue" points="366.52,-187.28 376.04,-182.64 365.7,-180.33 366.52,-187.28"/>
</g>
<!-- Node15 -->
<g id="node15" class="node">
<title>Node15</title>
<g id="a_node15"><a xlink:href="_numerics_8hpp.html" target="_top" xlink:title=" ">
<polygon fill="white" stroke="black" points="308.62,-281.75 308.62,-301 385.38,-301 385.38,-281.75 308.62,-281.75"/>
<text xml:space="preserve" text-anchor="middle" x="347" y="-287.5" font-family="Helvetica,sans-Serif" font-size="10.00">Numerics.hpp</text>
</a>
</g>
</g>
<!-- Node12&#45;&gt;Node15 -->
<g id="edge14" class="edge">
<title>Node12&#45;&gt;Node15</title>
<path fill="none" stroke="midnightblue" d="M150.38,-450.16C161.9,-441.08 180.22,-426.6 196,-414 243.26,-376.26 298.57,-331.58 327.35,-308.29"/>
<polygon fill="midnightblue" stroke="midnightblue" points="329.29,-311.22 334.86,-302.21 324.89,-305.78 329.29,-311.22"/>
</g>
<!-- Node17 -->
<g id="node17" class="node">
<title>Node17</title>
<g id="a_node17"><a xlink:href="_rexx_error_codes_8h.html" target="_top" xlink:title=" ">
<polygon fill="white" stroke="black" points="90.5,-394.25 90.5,-413.5 187.5,-413.5 187.5,-394.25 90.5,-394.25"/>
<text xml:space="preserve" text-anchor="middle" x="139" y="-400" font-family="Helvetica,sans-Serif" font-size="10.00">RexxErrorCodes.h</text>
</a>
</g>
</g>
<!-- Node12&#45;&gt;Node17 -->
<g id="edge17" class="edge">
<title>Node12&#45;&gt;Node17</title>
<path fill="none" stroke="midnightblue" d="M139,-450.17C139,-443.37 139,-433.76 139,-425.15"/>
<polygon fill="midnightblue" stroke="midnightblue" points="142.5,-425.18 139,-415.18 135.5,-425.18 142.5,-425.18"/>
</g>
<!-- Node15&#45;&gt;Node2 -->
<g id="edge16" class="edge">
<title>Node15&#45;&gt;Node2</title>
<path fill="none" stroke="midnightblue" d="M347.02,-301.39C347.61,-324.14 352.51,-384.22 387,-414 475.82,-490.7 846.6,-509.78 977.22,-514.16"/>
<polygon fill="midnightblue" stroke="midnightblue" points="976.76,-517.65 986.87,-514.47 976.98,-510.65 976.76,-517.65"/>
</g>
<!-- Node16 -->
<g id="node16" class="node">
<title>Node16</title>
<g id="a_node16"><a xlink:title=" ">
<polygon fill="white" stroke="#bfbfbf" points="319.12,-225.5 319.12,-244.75 374.88,-244.75 374.88,-225.5 319.12,-225.5"/>
<text xml:space="preserve" text-anchor="middle" x="347" y="-231.25" font-family="Helvetica,sans-Serif" font-size="10.00">algorithm</text>
</a>
</g>
</g>
<!-- Node15&#45;&gt;Node16 -->
<g id="edge15" class="edge">
<title>Node15&#45;&gt;Node16</title>
<path fill="none" stroke="midnightblue" d="M347,-281.42C347,-274.62 347,-265.01 347,-256.4"/>
<polygon fill="midnightblue" stroke="midnightblue" points="350.5,-256.43 347,-246.43 343.5,-256.43 350.5,-256.43"/>
</g>
<!-- Node19 -->
<g id="node19" class="node">
<title>Node19</title>
<g id="a_node19"><a xlink:href="_hash_collection_8hpp.html" target="_top" xlink:title=" ">
<polygon fill="white" stroke="black" points="706.25,-338 706.25,-357.25 807.75,-357.25 807.75,-338 706.25,-338"/>
<text xml:space="preserve" text-anchor="middle" x="757" y="-343.75" font-family="Helvetica,sans-Serif" font-size="10.00">HashCollection.hpp</text>
</a>
</g>
</g>
<!-- Node18&#45;&gt;Node19 -->
<g id="edge19" class="edge">
<title>Node18&#45;&gt;Node19</title>
<path fill="none" stroke="midnightblue" d="M936.56,-450.2C919.27,-436.93 885.2,-411.68 854,-393.75 833.17,-381.78 808.63,-370.39 789.44,-362.04"/>
<polygon fill="midnightblue" stroke="midnightblue" points="791.08,-358.94 780.51,-358.22 788.32,-365.37 791.08,-358.94"/>
</g>
<!-- Node20 -->
<g id="node20" class="node">
<title>Node20</title>
<g id="a_node20"><a xlink:href="_hash_contents_8hpp.html" target="_top" xlink:title=" ">
<polygon fill="white" stroke="black" points="737.12,-281.75 737.12,-301 834.88,-301 834.88,-281.75 737.12,-281.75"/>
<text xml:space="preserve" text-anchor="middle" x="786" y="-287.5" font-family="Helvetica,sans-Serif" font-size="10.00">HashContents.hpp</text>
</a>
</g>
</g>
<!-- Node19&#45;&gt;Node20 -->
<g id="edge20" class="edge">
<title>Node19&#45;&gt;Node20</title>
<path fill="none" stroke="midnightblue" d="M761.79,-337.67C765.63,-330.48 771.16,-320.14 775.96,-311.15"/>
<polygon fill="midnightblue" stroke="midnightblue" points="778.96,-312.97 780.59,-302.5 772.79,-309.67 778.96,-312.97"/>
</g>
<!-- Node21 -->
<g id="node21" class="node">
<title>Node21</title>
<g id="a_node21"><a xlink:href="_string_class_8hpp.html" target="_top" xlink:title=" ">
<polygon fill="white" stroke="black" points="761.12,-225.5 761.12,-244.75 846.88,-244.75 846.88,-225.5 761.12,-225.5"/>
<text xml:space="preserve" text-anchor="middle" x="804" y="-231.25" font-family="Helvetica,sans-Serif" font-size="10.00">StringClass.hpp</text>
</a>
</g>
</g>
<!-- Node20&#45;&gt;Node21 -->
<g id="edge21" class="edge">
<title>Node20&#45;&gt;Node21</title>
<path fill="none" stroke="midnightblue" d="M788.97,-281.42C791.28,-274.46 794.56,-264.57 797.47,-255.8"/>
<polygon fill="midnightblue" stroke="midnightblue" points="800.78,-256.95 800.61,-246.35 794.14,-254.74 800.78,-256.95"/>
</g>
<!-- Node21&#45;&gt;Node14 -->
<g id="edge32" class="edge">
<title>Node21&#45;&gt;Node14</title>
<path fill="none" stroke="midnightblue" d="M760.98,-228.32C681,-217.53 510.86,-194.57 437.21,-184.63"/>
<polygon fill="midnightblue" stroke="midnightblue" points="438.12,-181.22 427.74,-183.35 437.18,-188.15 438.12,-181.22"/>
</g>
<!-- Node22 -->
<g id="node22" class="node">
<title>Node22</title>
<g id="a_node22"><a xlink:href="_integer_class_8hpp.html" target="_top" xlink:title=" ">
<polygon fill="white" stroke="black" points="964.88,-169.25 964.88,-188.5 1055.12,-188.5 1055.12,-169.25 964.88,-169.25"/>
<text xml:space="preserve" text-anchor="middle" x="1010" y="-175" font-family="Helvetica,sans-Serif" font-size="10.00">IntegerClass.hpp</text>
</a>
</g>
</g>
<!-- Node21&#45;&gt;Node22 -->
<g id="edge22" class="edge">
<title>Node21&#45;&gt;Node22</title>
<path fill="none" stroke="midnightblue" d="M838.48,-225.04C873.09,-215.93 926.59,-201.84 964.63,-191.82"/>
<polygon fill="midnightblue" stroke="midnightblue" points="965.17,-195.3 973.94,-189.37 963.38,-188.53 965.17,-195.3"/>
</g>
<!-- Node24 -->
<g id="node24" class="node">
<title>Node24</title>
<g id="a_node24"><a xlink:href="_flag_set_8hpp.html" target="_top" xlink:title=" ">
<polygon fill="white" stroke="black" points="1015.75,-56.75 1015.75,-76 1084.25,-76 1084.25,-56.75 1015.75,-56.75"/>
<text xml:space="preserve" text-anchor="middle" x="1050" y="-62.5" font-family="Helvetica,sans-Serif" font-size="10.00">FlagSet.hpp</text>
</a>
</g>
</g>
<!-- Node21&#45;&gt;Node24 -->
<g id="edge31" class="edge">
<title>Node21&#45;&gt;Node24</title>
<path fill="none" stroke="midnightblue" d="M817.23,-225.16C857.19,-198.07 977.01,-116.85 1027.34,-82.73"/>
<polygon fill="midnightblue" stroke="midnightblue" points="1029.14,-85.74 1035.46,-77.23 1025.21,-79.95 1029.14,-85.74"/>
</g>
<!-- Node26 -->
<g id="node26" class="node">
<title>Node26</title>
<g id="a_node26"><a xlink:href="_string_util_8hpp.html" target="_top" xlink:title=" ">
<polygon fill="white" stroke="black" points="785.38,-169.25 785.38,-188.5 860.62,-188.5 860.62,-169.25 785.38,-169.25"/>
<text xml:space="preserve" text-anchor="middle" x="823" y="-175" font-family="Helvetica,sans-Serif" font-size="10.00">StringUtil.hpp</text>
</a>
</g>
</g>
<!-- Node21&#45;&gt;Node26 -->
<g id="edge26" class="edge">
<title>Node21&#45;&gt;Node26</title>
<path fill="none" stroke="midnightblue" d="M807.14,-225.17C809.6,-218.14 813.12,-208.09 816.22,-199.25"/>
<polygon fill="midnightblue" stroke="midnightblue" points="819.42,-200.69 819.42,-190.1 812.81,-198.38 819.42,-200.69"/>
</g>
<!-- Node28 -->
<g id="node28" class="node">
<title>Node28</title>
<g id="a_node28"><a xlink:href="_utilities_8hpp.html" target="_top" xlink:title=" ">
<polygon fill="white" stroke="black" points="723.12,-113 723.12,-132.25 790.88,-132.25 790.88,-113 723.12,-113"/>
<text xml:space="preserve" text-anchor="middle" x="757" y="-118.75" font-family="Helvetica,sans-Serif" font-size="10.00">Utilities.hpp</text>
</a>
</g>
</g>
<!-- Node21&#45;&gt;Node28 -->
<g id="edge30" class="edge">
<title>Node21&#45;&gt;Node28</title>
<path fill="none" stroke="midnightblue" d="M797.44,-225.2C791.2,-216.38 781.93,-202.31 776,-189 769.44,-174.27 764.48,-156.68 761.27,-143.45"/>
<polygon fill="midnightblue" stroke="midnightblue" points="764.71,-142.8 759.08,-133.83 757.89,-144.35 764.71,-142.8"/>
</g>
<!-- Node22&#45;&gt;Node23 -->
<g id="edge23" class="edge">
<title>Node22&#45;&gt;Node23</title>
<path fill="none" stroke="midnightblue" d="M1016.61,-168.92C1022.08,-161.49 1030.03,-150.7 1036.81,-141.52"/>
<polygon fill="midnightblue" stroke="midnightblue" points="1039.5,-143.76 1042.62,-133.63 1033.87,-139.61 1039.5,-143.76"/>
</g>
<!-- Node23&#45;&gt;Node24 -->
<g id="edge24" class="edge">
<title>Node23&#45;&gt;Node24</title>
<path fill="none" stroke="midnightblue" d="M1050,-112.67C1050,-105.87 1050,-96.26 1050,-87.65"/>
<polygon fill="midnightblue" stroke="midnightblue" points="1053.5,-87.68 1050,-77.68 1046.5,-87.68 1053.5,-87.68"/>
</g>
<!-- Node25 -->
<g id="node25" class="node">
<title>Node25</title>
<g id="a_node25"><a xlink:href="_bit_set_8hpp.html" target="_top" xlink:title=" ">
<polygon fill="white" stroke="black" points="1019.12,-0.5 1019.12,-19.75 1080.88,-19.75 1080.88,-0.5 1019.12,-0.5"/>
<text xml:space="preserve" text-anchor="middle" x="1050" y="-6.25" font-family="Helvetica,sans-Serif" font-size="10.00">BitSet.hpp</text>
</a>
</g>
</g>
<!-- Node24&#45;&gt;Node25 -->
<g id="edge25" class="edge">
<title>Node24&#45;&gt;Node25</title>
<path fill="none" stroke="midnightblue" d="M1050,-56.42C1050,-49.62 1050,-40.01 1050,-31.4"/>
<polygon fill="midnightblue" stroke="midnightblue" points="1053.5,-31.43 1050,-21.43 1046.5,-31.43 1053.5,-31.43"/>
</g>
<!-- Node27 -->
<g id="node27" class="node">
<title>Node27</title>
<g id="a_node27"><a xlink:title=" ">
<polygon fill="white" stroke="#bfbfbf" points="808.88,-113 808.88,-132.25 857.12,-132.25 857.12,-113 808.88,-113"/>
<text xml:space="preserve" text-anchor="middle" x="833" y="-118.75" font-family="Helvetica,sans-Serif" font-size="10.00">ctype.h</text>
</a>
</g>
</g>
<!-- Node26&#45;&gt;Node27 -->
<g id="edge27" class="edge">
<title>Node26&#45;&gt;Node27</title>
<path fill="none" stroke="midnightblue" d="M824.65,-168.92C825.92,-162.04 827.72,-152.29 829.32,-143.6"/>
<polygon fill="midnightblue" stroke="midnightblue" points="832.73,-144.37 831.11,-133.91 825.85,-143.1 832.73,-144.37"/>
</g>
<!-- Node26&#45;&gt;Node28 -->
<g id="edge28" class="edge">
<title>Node26&#45;&gt;Node28</title>
<path fill="none" stroke="midnightblue" d="M812.1,-168.92C802.39,-160.94 787.97,-149.08 776.31,-139.5"/>
<polygon fill="midnightblue" stroke="midnightblue" points="778.81,-137.02 768.87,-133.38 774.37,-142.43 778.81,-137.02"/>
</g>
<!-- Node29 -->
<g id="node29" class="node">
<title>Node29</title>
<g id="a_node29"><a xlink:title=" ">
<polygon fill="white" stroke="#bfbfbf" points="723.5,-56.75 723.5,-76 790.5,-76 790.5,-56.75 723.5,-56.75"/>
<text xml:space="preserve" text-anchor="middle" x="757" y="-62.5" font-family="Helvetica,sans-Serif" font-size="10.00">sys/types.h</text>
</a>
</g>
</g>
<!-- Node28&#45;&gt;Node29 -->
<g id="edge29" class="edge">
<title>Node28&#45;&gt;Node29</title>
<path fill="none" stroke="midnightblue" d="M757,-112.67C757,-105.87 757,-96.26 757,-87.65"/>
<polygon fill="midnightblue" stroke="midnightblue" points="760.5,-87.68 757,-77.68 753.5,-87.68 760.5,-87.68"/>
</g>
<!-- Node31 -->
<g id="node31" class="node">
<title>Node31</title>
<g id="a_node31"><a xlink:href="_memory_8hpp.html" target="_top" xlink:title=" ">
<polygon fill="white" stroke="black" points="619.75,-338 619.75,-357.25 688.25,-357.25 688.25,-338 619.75,-338"/>
<text xml:space="preserve" text-anchor="middle" x="654" y="-343.75" font-family="Helvetica,sans-Serif" font-size="10.00">Memory.hpp</text>
</a>
</g>
</g>
<!-- Node30&#45;&gt;Node31 -->
<g id="edge34" class="edge">
<title>Node30&#45;&gt;Node31</title>
<path fill="none" stroke="midnightblue" d="M702.95,-450.02C687.72,-442.7 668.81,-430.85 659,-414 651.02,-400.29 650.25,-382.14 651.2,-368.44"/>
<polygon fill="midnightblue" stroke="midnightblue" points="654.64,-369.19 652.24,-358.87 647.68,-368.44 654.64,-369.19"/>
</g>
<!-- Node30&#45;&gt;Node32 -->
<g id="edge35" class="edge">
<title>Node30&#45;&gt;Node32</title>
<path fill="none" stroke="midnightblue" d="M679.97,-453.37C600.84,-443.48 439.11,-423.26 351.53,-412.32"/>
<polygon fill="midnightblue" stroke="midnightblue" points="352.06,-408.86 341.7,-411.09 351.19,-415.8 352.06,-408.86"/>
</g>
<!-- Node33 -->
<g id="node33" class="node">
<title>Node33</title>
<g id="a_node33"><a xlink:title=" ">
<polygon fill="white" stroke="#bfbfbf" points="853.25,-281.75 853.25,-301 954.75,-301 954.75,-281.75 853.25,-281.75"/>
<text xml:space="preserve" text-anchor="middle" x="904" y="-287.5" font-family="Helvetica,sans-Serif" font-size="10.00">SysSemaphore.hpp</text>
</a>
</g>
</g>
<!-- Node30&#45;&gt;Node33 -->
<g id="edge37" class="edge">
<title>Node30&#45;&gt;Node33</title>
<path fill="none" stroke="midnightblue" d="M764.85,-450.04C791.25,-442.79 826.28,-431 854,-414 884.88,-395.06 898.74,-391.05 913,-357.75 919.22,-343.24 916.13,-325.4 911.96,-312.03"/>
<polygon fill="midnightblue" stroke="midnightblue" points="915.26,-310.87 908.57,-302.65 908.68,-313.24 915.26,-310.87"/>
</g>
<!-- Node34 -->
<g id="node34" class="node">
<title>Node34</title>
<g id="a_node34"><a xlink:href="_identity_table_class_8hpp.html" target="_top" xlink:title=" ">
<polygon fill="white" stroke="black" points="668.12,-394.25 668.12,-413.5 783.88,-413.5 783.88,-394.25 668.12,-394.25"/>
<text xml:space="preserve" text-anchor="middle" x="726" y="-400" font-family="Helvetica,sans-Serif" font-size="10.00">IdentityTableClass.hpp</text>
</a>
</g>
</g>
<!-- Node30&#45;&gt;Node34 -->
<g id="edge38" class="edge">
<title>Node30&#45;&gt;Node34</title>
<path fill="none" stroke="midnightblue" d="M726,-450.17C726,-443.37 726,-433.76 726,-425.15"/>
<polygon fill="midnightblue" stroke="midnightblue" points="729.5,-425.18 726,-415.18 722.5,-425.18 729.5,-425.18"/>
</g>
<!-- Node35 -->
<g id="node35" class="node">
<title>Node35</title>
<g id="a_node35"><a xlink:href="_queue_class_8hpp.html" target="_top" xlink:title=" ">
<polygon fill="white" stroke="black" points="395.62,-394.25 395.62,-413.5 484.38,-413.5 484.38,-394.25 395.62,-394.25"/>
<text xml:space="preserve" text-anchor="middle" x="440" y="-400" font-family="Helvetica,sans-Serif" font-size="10.00">QueueClass.hpp</text>
</a>
</g>
</g>
<!-- Node30&#45;&gt;Node35 -->
<g id="edge40" class="edge">
<title>Node30&#45;&gt;Node35</title>
<path fill="none" stroke="midnightblue" d="M679.73,-450.35C629.55,-440.83 549.45,-425.64 495.81,-415.46"/>
<polygon fill="midnightblue" stroke="midnightblue" points="496.75,-412.08 486.28,-413.65 495.45,-418.96 496.75,-412.08"/>
</g>
<!-- Node38 -->
<g id="node38" class="node">
<title>Node38</title>
<g id="a_node38"><a xlink:title=" ">
<polygon fill="white" stroke="#bfbfbf" points="801.5,-394.25 801.5,-413.5 844.5,-413.5 844.5,-394.25 801.5,-394.25"/>
<text xml:space="preserve" text-anchor="middle" x="823" y="-400" font-family="Helvetica,sans-Serif" font-size="10.00">vector</text>
</a>
</g>
</g>
<!-- Node30&#45;&gt;Node38 -->
<g id="edge44" class="edge">
<title>Node30&#45;&gt;Node38</title>
<path fill="none" stroke="midnightblue" d="M742.02,-450.17C757.04,-441.76 779.76,-429.06 797.32,-419.24"/>
<polygon fill="midnightblue" stroke="midnightblue" points="798.62,-422.52 805.64,-414.59 795.2,-416.41 798.62,-422.52"/>
</g>
<!-- Node39 -->
<g id="node39" class="node">
<title>Node39</title>
<g id="a_node39"><a xlink:href="_memory_stats_8hpp.html" target="_top" xlink:title=" ">
<polygon fill="white" stroke="black" points="939.38,-394.25 939.38,-413.5 1032.62,-413.5 1032.62,-394.25 939.38,-394.25"/>
<text xml:space="preserve" text-anchor="middle" x="986" y="-400" font-family="Helvetica,sans-Serif" font-size="10.00">MemoryStats.hpp</text>
</a>
</g>
</g>
<!-- Node30&#45;&gt;Node39 -->
<g id="edge45" class="edge">
<title>Node30&#45;&gt;Node39</title>
<path fill="none" stroke="midnightblue" d="M769.52,-450.04C813.95,-440.77 883.05,-426.36 931.19,-416.31"/>
<polygon fill="midnightblue" stroke="midnightblue" points="931.78,-419.76 940.86,-414.29 930.35,-412.91 931.78,-419.76"/>
</g>
<!-- Node40 -->
<g id="node40" class="node">
<title>Node40</title>
<g id="a_node40"><a xlink:href="_memory_segment_8hpp.html" target="_top" xlink:title=" ">
<polygon fill="white" stroke="black" points="502.5,-394.25 502.5,-413.5 611.5,-413.5 611.5,-394.25 502.5,-394.25"/>
<text xml:space="preserve" text-anchor="middle" x="557" y="-400" font-family="Helvetica,sans-Serif" font-size="10.00">MemorySegment.hpp</text>
</a>
</g>
</g>
<!-- Node30&#45;&gt;Node40 -->
<g id="edge47" class="edge">
<title>Node30&#45;&gt;Node40</title>
<path fill="none" stroke="midnightblue" d="M697.71,-450.04C669.93,-441.13 627.31,-427.44 596.25,-417.47"/>
<polygon fill="midnightblue" stroke="midnightblue" points="597.41,-414.17 586.82,-414.45 595.27,-420.84 597.41,-414.17"/>
</g>
<!-- Node32&#45;&gt;Node14 -->
<g id="edge36" class="edge">
<title>Node32&#45;&gt;Node14</title>
<path fill="none" stroke="midnightblue" d="M289.99,-393.98C284.18,-365.88 270.23,-277.82 310,-225 323.84,-206.62 347.18,-195.29 366.88,-188.58"/>
<polygon fill="midnightblue" stroke="midnightblue" points="367.71,-191.99 376.23,-185.68 365.64,-185.31 367.71,-191.99"/>
</g>
<!-- Node34&#45;&gt;Node19 -->
<g id="edge39" class="edge">
<title>Node34&#45;&gt;Node19</title>
<path fill="none" stroke="midnightblue" d="M731.12,-393.92C735.23,-386.73 741.14,-376.39 746.27,-367.4"/>
<polygon fill="midnightblue" stroke="midnightblue" points="749.3,-369.15 751.23,-358.73 743.23,-365.68 749.3,-369.15"/>
</g>
<!-- Node36 -->
<g id="node36" class="node">
<title>Node36</title>
<g id="a_node36"><a xlink:href="_array_class_8hpp.html" target="_top" xlink:title=" ">
<polygon fill="white" stroke="black" points="376.25,-338 376.25,-357.25 459.75,-357.25 459.75,-338 376.25,-338"/>
<text xml:space="preserve" text-anchor="middle" x="418" y="-343.75" font-family="Helvetica,sans-Serif" font-size="10.00">ArrayClass.hpp</text>
</a>
</g>
</g>
<!-- Node35&#45;&gt;Node36 -->
<g id="edge41" class="edge">
<title>Node35&#45;&gt;Node36</title>
<path fill="none" stroke="midnightblue" d="M436.37,-393.92C433.52,-386.89 429.44,-376.84 425.86,-368"/>
<polygon fill="midnightblue" stroke="midnightblue" points="429.14,-366.77 422.13,-358.82 422.65,-369.4 429.14,-366.77"/>
</g>
<!-- Node36&#45;&gt;Node15 -->
<g id="edge43" class="edge">
<title>Node36&#45;&gt;Node15</title>
<path fill="none" stroke="midnightblue" d="M406.28,-337.67C395.73,-329.61 380,-317.59 367.4,-307.96"/>
<polygon fill="midnightblue" stroke="midnightblue" points="369.78,-305.38 359.71,-302.09 365.53,-310.94 369.78,-305.38"/>
</g>
<!-- Node37 -->
<g id="node37" class="node">
<title>Node37</title>
<g id="a_node37"><a xlink:href="_number_array_8hpp.html" target="_top" xlink:title=" ">
<polygon fill="white" stroke="black" points="403.5,-281.75 403.5,-301 494.5,-301 494.5,-281.75 403.5,-281.75"/>
<text xml:space="preserve" text-anchor="middle" x="449" y="-287.5" font-family="Helvetica,sans-Serif" font-size="10.00">NumberArray.hpp</text>
</a>
</g>
</g>
<!-- Node36&#45;&gt;Node37 -->
<g id="edge42" class="edge">
<title>Node36&#45;&gt;Node37</title>
<path fill="none" stroke="midnightblue" d="M423.12,-337.67C427.23,-330.48 433.14,-320.14 438.27,-311.15"/>
<polygon fill="midnightblue" stroke="midnightblue" points="441.3,-312.9 443.23,-302.48 435.23,-309.43 441.3,-312.9"/>
</g>
<!-- Node39&#45;&gt;Node11 -->
<g id="edge46" class="edge">
<title>Node39&#45;&gt;Node11</title>
<path fill="none" stroke="midnightblue" d="M990.29,-393.92C993.7,-386.81 998.59,-376.62 1002.86,-367.7"/>
<polygon fill="midnightblue" stroke="midnightblue" points="1005.97,-369.31 1007.13,-358.78 999.65,-366.29 1005.97,-369.31"/>
</g>
<!-- Node40&#45;&gt;Node31 -->
<g id="edge54" class="edge">
<title>Node40&#45;&gt;Node31</title>
<path fill="none" stroke="midnightblue" d="M573.02,-393.92C588.04,-385.51 610.76,-372.81 628.32,-362.99"/>
<polygon fill="midnightblue" stroke="midnightblue" points="629.62,-366.27 636.64,-358.34 626.2,-360.16 629.62,-366.27"/>
</g>
<!-- Node41 -->
<g id="node41" class="node">
<title>Node41</title>
<g id="a_node41"><a xlink:href="_dead_object_8hpp.html" target="_top" xlink:title=" ">
<polygon fill="white" stroke="black" points="477.75,-338 477.75,-357.25 564.25,-357.25 564.25,-338 477.75,-338"/>
<text xml:space="preserve" text-anchor="middle" x="521" y="-343.75" font-family="Helvetica,sans-Serif" font-size="10.00">DeadObject.hpp</text>
</a>
</g>
</g>
<!-- Node40&#45;&gt;Node41 -->
<g id="edge48" class="edge">
<title>Node40&#45;&gt;Node41</title>
<path fill="none" stroke="midnightblue" d="M551.06,-393.92C546.18,-386.57 539.12,-375.93 533.07,-366.81"/>
<polygon fill="midnightblue" stroke="midnightblue" points="536.12,-365.07 527.67,-358.68 530.28,-368.95 536.12,-365.07"/>
</g>
<!-- Node42 -->
<g id="node42" class="node">
<title>Node42</title>
<g id="a_node42"><a xlink:title=" ">
<polygon fill="white" stroke="#bfbfbf" points="559.38,-281.75 559.38,-301 604.62,-301 604.62,-281.75 559.38,-281.75"/>
<text xml:space="preserve" text-anchor="middle" x="582" y="-287.5" font-family="Helvetica,sans-Serif" font-size="10.00">stdio.h</text>
</a>
</g>
</g>
<!-- Node40&#45;&gt;Node42 -->
<g id="edge55" class="edge">
<title>Node40&#45;&gt;Node42</title>
<path fill="none" stroke="midnightblue" d="M560.74,-394.05C564.39,-385.07 569.85,-370.67 573,-357.75 576.62,-342.89 578.91,-325.75 580.27,-312.75"/>
<polygon fill="midnightblue" stroke="midnightblue" points="583.75,-313.16 581.2,-302.87 576.78,-312.5 583.75,-313.16"/>
</g>
<!-- Node43 -->
<g id="node43" class="node">
<title>Node43</title>
<g id="a_node43"><a xlink:href="_interpreter_8hpp.html" target="_top" xlink:title=" ">
<polygon fill="white" stroke="black" points="825.88,-338 825.88,-357.25 904.12,-357.25 904.12,-338 825.88,-338"/>
<text xml:space="preserve" text-anchor="middle" x="865" y="-343.75" font-family="Helvetica,sans-Serif" font-size="10.00">Interpreter.hpp</text>
</a>
</g>
</g>
<!-- Node40&#45;&gt;Node43 -->
<g id="edge51" class="edge">
<title>Node40&#45;&gt;Node43</title>
<path fill="none" stroke="midnightblue" d="M610.82,-393.79C660.97,-385.27 738.13,-372.01 814.24,-358.23"/>
<polygon fill="midnightblue" stroke="midnightblue" points="814.75,-361.69 823.97,-356.46 813.5,-354.81 814.75,-361.69"/>
</g>
<!-- Node41&#45;&gt;Node14 -->
<g id="edge49" class="edge">
<title>Node41&#45;&gt;Node14</title>
<path fill="none" stroke="midnightblue" d="M520,-337.61C518.22,-324.45 513.64,-299.57 503,-281.25 482.48,-245.91 446.63,-214.13 423.62,-195.92"/>
<polygon fill="midnightblue" stroke="midnightblue" points="425.88,-193.25 415.83,-189.91 421.6,-198.79 425.88,-193.25"/>
</g>
<!-- Node41&#45;&gt;Node42 -->
<g id="edge50" class="edge">
<title>Node41&#45;&gt;Node42</title>
<path fill="none" stroke="midnightblue" d="M531.07,-337.67C539.87,-329.85 552.85,-318.3 563.51,-308.82"/>
<polygon fill="midnightblue" stroke="midnightblue" points="565.84,-311.43 570.98,-302.17 561.19,-306.2 565.84,-311.43"/>
</g>
<!-- Node43&#45;&gt;Node2 -->
<g id="edge52" class="edge">
<title>Node43&#45;&gt;Node2</title>
<path fill="none" stroke="midnightblue" d="M904.26,-353.06C951.12,-359.25 1025.27,-372.21 1042,-393.75 1065.19,-423.59 1047.28,-470.24 1033.98,-496.24"/>
<polygon fill="midnightblue" stroke="midnightblue" points="1030.94,-494.51 1029.25,-504.97 1037.09,-497.84 1030.94,-494.51"/>
</g>
<!-- Node43&#45;&gt;Node33 -->
<g id="edge53" class="edge">
<title>Node43&#45;&gt;Node33</title>
<path fill="none" stroke="midnightblue" d="M871.44,-337.67C876.78,-330.24 884.53,-319.45 891.14,-310.27"/>
<polygon fill="midnightblue" stroke="midnightblue" points="893.8,-312.56 896.8,-302.4 888.12,-308.47 893.8,-312.56"/>
</g>
<!-- Node44&#45;&gt;Node24 -->
<g id="edge57" class="edge">
<title>Node44&#45;&gt;Node24</title>
<path fill="none" stroke="midnightblue" d="M1380.88,-450.08C1405.97,-442.43 1440.9,-430.13 1469,-414 1508.82,-391.14 1549,-394.54 1549,-348.62 1549,-348.62 1549,-348.62 1549,-177.88 1549,-85.58 1219.46,-70.32 1095.98,-67.84"/>
<polygon fill="midnightblue" stroke="midnightblue" points="1096.27,-64.34 1086.21,-67.66 1096.14,-71.34 1096.27,-64.34"/>
</g>
<!-- Node45 -->
<g id="node45" class="node">
<title>Node45</title>
<g id="a_node45"><a xlink:href="_primitive_behaviour_names_8h.html" target="_top" xlink:title=" ">
<polygon fill="white" stroke="black" points="1322.25,-394.25 1322.25,-413.5 1459.75,-413.5 1459.75,-394.25 1322.25,-394.25"/>
<text xml:space="preserve" text-anchor="middle" x="1391" y="-400" font-family="Helvetica,sans-Serif" font-size="10.00">PrimitiveBehaviourNames.h</text>
</a>
</g>
</g>
<!-- Node44&#45;&gt;Node45 -->
<g id="edge58" class="edge">
<title>Node44&#45;&gt;Node45</title>
<path fill="none" stroke="midnightblue" d="M1355.1,-450.17C1361.05,-442.66 1369.72,-431.72 1377.05,-422.48"/>
<polygon fill="midnightblue" stroke="midnightblue" points="1379.62,-424.86 1383.09,-414.85 1374.14,-420.52 1379.62,-424.86"/>
</g>
</g>
</svg>
