<?xml version="1.0" encoding="UTF-8" standalone="no"?>
<!DOCTYPE svg PUBLIC "-//W3C//DTD SVG 1.1//EN"
 "http://www.w3.org/Graphics/SVG/1.1/DTD/svg11.dtd">
<!-- Generated by graphviz version 13.1.0 (20250701.0955)
 -->
<!-- Title: MessageDispatcher.hpp Pages: 1 -->
<svg width="324pt" height="85pt"
 viewBox="0.00 0.00 324.00 85.00" xmlns="http://www.w3.org/2000/svg" xmlns:xlink="http://www.w3.org/1999/xlink">
<g id="graph0" class="graph" transform="scale(1 1) rotate(0) translate(4 80.5)">
<title>MessageDispatcher.hpp</title>
<polygon fill="white" stroke="none" points="-4,4 -4,-80.5 319.75,-80.5 319.75,4 -4,4"/>
<!-- Node1 -->
<g id="node1" class="node">
<title>Node1</title>
<g id="a_node1"><a xlink:title=" ">
<polygon fill="#bfbfbf" stroke="black" points="82.75,-56.75 82.75,-76 203.75,-76 203.75,-56.75 82.75,-56.75"/>
<text xml:space="preserve" text-anchor="middle" x="143.25" y="-62.5" font-family="Helvetica,sans-Serif" font-size="10.00">MessageDispatcher.hpp</text>
</a>
</g>
</g>
<!-- Node2 -->
<g id="node2" class="node">
<title>Node2</title>
<g id="a_node2"><a xlink:href="_activity-trace_8cpp.html" target="_top" xlink:title=" ">
<polygon fill="white" stroke="black" points="0,-0.5 0,-19.75 92.5,-19.75 92.5,-0.5 0,-0.5"/>
<text xml:space="preserve" text-anchor="middle" x="46.25" y="-6.25" font-family="Helvetica,sans-Serif" font-size="10.00">Activity&#45;trace.cpp</text>
</a>
</g>
</g>
<!-- Node1&#45;&gt;Node2 -->
<g id="edge1" class="edge">
<title>Node1&#45;&gt;Node2</title>
<path fill="none" stroke="midnightblue" d="M117.59,-51.03C100.04,-41.21 77.32,-28.5 62.29,-20.1"/>
<polygon fill="midnightblue" stroke="midnightblue" points="115.48,-53.85 125.91,-55.68 118.89,-47.74 115.48,-53.85"/>
</g>
<!-- Node3 -->
<g id="node3" class="node">
<title>Node3</title>
<g id="a_node3"><a xlink:href="_activity_8cpp.html" target="_top" xlink:title=" ">
<polygon fill="white" stroke="black" points="110.12,-0.5 110.12,-19.75 176.38,-19.75 176.38,-0.5 110.12,-0.5"/>
<text xml:space="preserve" text-anchor="middle" x="143.25" y="-6.25" font-family="Helvetica,sans-Serif" font-size="10.00">Activity.cpp</text>
</a>
</g>
</g>
<!-- Node1&#45;&gt;Node3 -->
<g id="edge2" class="edge">
<title>Node1&#45;&gt;Node3</title>
<path fill="none" stroke="midnightblue" d="M143.25,-45.19C143.25,-36.48 143.25,-26.74 143.25,-19.92"/>
<polygon fill="midnightblue" stroke="midnightblue" points="139.75,-44.9 143.25,-54.9 146.75,-44.9 139.75,-44.9"/>
</g>
<!-- Node4 -->
<g id="node4" class="node">
<title>Node4</title>
<g id="a_node4"><a xlink:href="_message_dispatcher_8cpp.html" target="_top" xlink:title=" ">
<polygon fill="white" stroke="black" points="194.75,-0.5 194.75,-19.75 315.75,-19.75 315.75,-0.5 194.75,-0.5"/>
<text xml:space="preserve" text-anchor="middle" x="255.25" y="-6.25" font-family="Helvetica,sans-Serif" font-size="10.00">MessageDispatcher.cpp</text>
</a>
</g>
</g>
<!-- Node1&#45;&gt;Node4 -->
<g id="edge3" class="edge">
<title>Node1&#45;&gt;Node4</title>
<path fill="none" stroke="midnightblue" d="M172.22,-51.34C192.46,-41.54 218.9,-28.73 236.44,-20.23"/>
<polygon fill="midnightblue" stroke="midnightblue" points="170.83,-48.13 163.36,-55.63 173.88,-54.43 170.83,-48.13"/>
</g>
</g>
</svg>
