<?xml version="1.0" encoding="UTF-8" standalone="no"?>
<!DOCTYPE svg PUBLIC "-//W3C//DTD SVG 1.1//EN"
 "http://www.w3.org/Graphics/SVG/1.1/DTD/svg11.dtd">
<!-- Generated by graphviz version 13.1.0 (20250701.0955)
 -->
<!-- Title: MethodDictionary.hpp Pages: 1 -->
<svg width="588pt" height="85pt"
 viewBox="0.00 0.00 588.00 85.00" xmlns="http://www.w3.org/2000/svg" xmlns:xlink="http://www.w3.org/1999/xlink">
<g id="graph0" class="graph" transform="scale(1 1) rotate(0) translate(4 80.5)">
<title>MethodDictionary.hpp</title>
<polygon fill="white" stroke="none" points="-4,4 -4,-80.5 584.25,-80.5 584.25,4 -4,4"/>
<!-- Node1 -->
<g id="node1" class="node">
<title>Node1</title>
<g id="a_node1"><a xlink:title=" ">
<polygon fill="#bfbfbf" stroke="black" points="217,-56.75 217,-76 326.75,-76 326.75,-56.75 217,-56.75"/>
<text xml:space="preserve" text-anchor="middle" x="271.88" y="-62.5" font-family="Helvetica,sans-Serif" font-size="10.00">MethodDictionary.hpp</text>
</a>
</g>
</g>
<!-- Node2 -->
<g id="node2" class="node">
<title>Node2</title>
<g id="a_node2"><a xlink:href="_class_class_8cpp.html" target="_top" xlink:title=" ">
<polygon fill="white" stroke="black" points="0,-0.5 0,-19.75 85.75,-19.75 85.75,-0.5 0,-0.5"/>
<text xml:space="preserve" text-anchor="middle" x="42.88" y="-6.25" font-family="Helvetica,sans-Serif" font-size="10.00">ClassClass.cpp</text>
</a>
</g>
</g>
<!-- Node1&#45;&gt;Node2 -->
<g id="edge1" class="edge">
<title>Node1&#45;&gt;Node2</title>
<path fill="none" stroke="midnightblue" d="M222.39,-53.65C180.09,-43.63 120.1,-29.42 81.33,-20.23"/>
<polygon fill="midnightblue" stroke="midnightblue" points="221.54,-57.05 232.07,-55.95 223.15,-50.23 221.54,-57.05"/>
</g>
<!-- Node3 -->
<g id="node3" class="node">
<title>Node3</title>
<g id="a_node3"><a xlink:href="_object_class_8cpp.html" target="_top" xlink:title=" ">
<polygon fill="white" stroke="black" points="103.5,-0.5 103.5,-19.75 192.25,-19.75 192.25,-0.5 103.5,-0.5"/>
<text xml:space="preserve" text-anchor="middle" x="147.88" y="-6.25" font-family="Helvetica,sans-Serif" font-size="10.00">ObjectClass.cpp</text>
</a>
</g>
</g>
<!-- Node1&#45;&gt;Node3 -->
<g id="edge2" class="edge">
<title>Node1&#45;&gt;Node3</title>
<path fill="none" stroke="midnightblue" d="M240.73,-51.75C218.2,-41.89 188.39,-28.85 168.7,-20.23"/>
<polygon fill="midnightblue" stroke="midnightblue" points="239.17,-54.89 249.73,-55.69 241.97,-48.47 239.17,-54.89"/>
</g>
<!-- Node4 -->
<g id="node4" class="node">
<title>Node4</title>
<g id="a_node4"><a xlink:href="_virtual_function_table_8cpp.html" target="_top" xlink:title=" ">
<polygon fill="white" stroke="black" points="210.25,-0.5 210.25,-19.75 333.5,-19.75 333.5,-0.5 210.25,-0.5"/>
<text xml:space="preserve" text-anchor="middle" x="271.88" y="-6.25" font-family="Helvetica,sans-Serif" font-size="10.00">VirtualFunctionTable.cpp</text>
</a>
</g>
</g>
<!-- Node1&#45;&gt;Node4 -->
<g id="edge3" class="edge">
<title>Node1&#45;&gt;Node4</title>
<path fill="none" stroke="midnightblue" d="M271.88,-45.19C271.88,-36.48 271.88,-26.74 271.88,-19.92"/>
<polygon fill="midnightblue" stroke="midnightblue" points="268.38,-44.9 271.88,-54.9 275.38,-44.9 268.38,-44.9"/>
</g>
<!-- Node5 -->
<g id="node5" class="node">
<title>Node5</title>
<g id="a_node5"><a xlink:href="_method_dictionary_8cpp.html" target="_top" xlink:title=" ">
<polygon fill="white" stroke="black" points="352,-0.5 352,-19.75 461.75,-19.75 461.75,-0.5 352,-0.5"/>
<text xml:space="preserve" text-anchor="middle" x="406.88" y="-6.25" font-family="Helvetica,sans-Serif" font-size="10.00">MethodDictionary.cpp</text>
</a>
</g>
</g>
<!-- Node1&#45;&gt;Node5 -->
<g id="edge4" class="edge">
<title>Node1&#45;&gt;Node5</title>
<path fill="none" stroke="midnightblue" d="M305.12,-52.02C329.72,-42.13 362.57,-28.93 384.21,-20.23"/>
<polygon fill="midnightblue" stroke="midnightblue" points="303.85,-48.75 295.88,-55.73 306.46,-55.25 303.85,-48.75"/>
</g>
<!-- Node6 -->
<g id="node6" class="node">
<title>Node6</title>
<g id="a_node6"><a xlink:href="_rexx_behaviour_8cpp.html" target="_top" xlink:title=" ">
<polygon fill="white" stroke="black" points="479.5,-0.5 479.5,-19.75 580.25,-19.75 580.25,-0.5 479.5,-0.5"/>
<text xml:space="preserve" text-anchor="middle" x="529.88" y="-6.25" font-family="Helvetica,sans-Serif" font-size="10.00">RexxBehaviour.cpp</text>
</a>
</g>
</g>
<!-- Node1&#45;&gt;Node6 -->
<g id="edge5" class="edge">
<title>Node1&#45;&gt;Node6</title>
<path fill="none" stroke="midnightblue" d="M326.11,-53.97C373.84,-43.94 442.41,-29.52 486.55,-20.23"/>
<polygon fill="midnightblue" stroke="midnightblue" points="325.61,-50.5 316.54,-55.98 327.05,-57.35 325.61,-50.5"/>
</g>
</g>
</svg>
