<?xml version="1.0" encoding="UTF-8" standalone="no"?>
<!DOCTYPE svg PUBLIC "-//W3C//DTD SVG 1.1//EN"
 "http://www.w3.org/Graphics/SVG/1.1/DTD/svg11.dtd">
<!-- Generated by graphviz version 13.1.0 (20250701.0955)
 -->
<!-- Title: NativeActivation.hpp Pages: 1 -->
<svg width="3621pt" height="141pt"
 viewBox="0.00 0.00 3621.00 141.00" xmlns="http://www.w3.org/2000/svg" xmlns:xlink="http://www.w3.org/1999/xlink">
<g id="graph0" class="graph" transform="scale(1 1) rotate(0) translate(4 136.75)">
<title>NativeActivation.hpp</title>
<polygon fill="white" stroke="none" points="-4,4 -4,-136.75 3617.38,-136.75 3617.38,4 -4,4"/>
<!-- Node1 -->
<g id="node1" class="node">
<title>Node1</title>
<g id="a_node1"><a xlink:title=" ">
<polygon fill="#bfbfbf" stroke="black" points="1723,-113 1723,-132.25 1829.75,-132.25 1829.75,-113 1723,-113"/>
<text xml:space="preserve" text-anchor="middle" x="1776.38" y="-118.75" font-family="Helvetica,sans-Serif" font-size="10.00">NativeActivation.hpp</text>
</a>
</g>
</g>
<!-- Node2 -->
<g id="node2" class="node">
<title>Node2</title>
<g id="a_node2"><a xlink:href="_input_redirector_8cpp.html" target="_top" xlink:title=" ">
<polygon fill="white" stroke="black" points="0,-56.75 0,-76 100.75,-76 100.75,-56.75 0,-56.75"/>
<text xml:space="preserve" text-anchor="middle" x="50.38" y="-62.5" font-family="Helvetica,sans-Serif" font-size="10.00">InputRedirector.cpp</text>
</a>
</g>
</g>
<!-- Node1&#45;&gt;Node2 -->
<g id="edge1" class="edge">
<title>Node1&#45;&gt;Node2</title>
<path fill="none" stroke="midnightblue" d="M1711.44,-120.94C1444.36,-117.97 429.67,-104.99 110.38,-76.5 107.33,-76.23 104.21,-75.9 101.06,-75.53"/>
<polygon fill="midnightblue" stroke="midnightblue" points="1711.3,-124.44 1721.34,-121.05 1711.38,-117.44 1711.3,-124.44"/>
</g>
<!-- Node3 -->
<g id="node3" class="node">
<title>Node3</title>
<g id="a_node3"><a xlink:href="_setup_8cpp.html" target="_top" xlink:title=" ">
<polygon fill="white" stroke="black" points="119.25,-56.75 119.25,-76 179.5,-76 179.5,-56.75 119.25,-56.75"/>
<text xml:space="preserve" text-anchor="middle" x="149.38" y="-62.5" font-family="Helvetica,sans-Serif" font-size="10.00">Setup.cpp</text>
</a>
</g>
</g>
<!-- Node1&#45;&gt;Node3 -->
<g id="edge2" class="edge">
<title>Node1&#45;&gt;Node3</title>
<path fill="none" stroke="midnightblue" d="M1711.06,-121.47C1451.31,-120.6 490.99,-114.81 189.38,-76.5 186.27,-76.11 183.04,-75.58 179.84,-74.97"/>
<polygon fill="midnightblue" stroke="midnightblue" points="1711.01,-124.97 1721.03,-121.5 1711.04,-117.97 1711.01,-124.97"/>
</g>
<!-- Node4 -->
<g id="node4" class="node">
<title>Node4</title>
<g id="a_node4"><a xlink:href="_uninit_dispatcher_8cpp.html" target="_top" xlink:title=" ">
<polygon fill="white" stroke="black" points="198,-56.75 198,-76 304.75,-76 304.75,-56.75 198,-56.75"/>
<text xml:space="preserve" text-anchor="middle" x="251.38" y="-62.5" font-family="Helvetica,sans-Serif" font-size="10.00">UninitDispatcher.cpp</text>
</a>
</g>
</g>
<!-- Node1&#45;&gt;Node4 -->
<g id="edge3" class="edge">
<title>Node1&#45;&gt;Node4</title>
<path fill="none" stroke="midnightblue" d="M1711.39,-120.62C1465.32,-116.65 590.73,-101.1 313.38,-76.5 310.67,-76.26 307.89,-75.98 305.1,-75.67"/>
<polygon fill="midnightblue" stroke="midnightblue" points="1711.06,-124.11 1721.11,-120.77 1711.17,-117.11 1711.06,-124.11"/>
</g>
<!-- Node5 -->
<g id="node5" class="node">
<title>Node5</title>
<g id="a_node5"><a xlink:href="_stem_class_8cpp.html" target="_top" xlink:title=" ">
<polygon fill="white" stroke="black" points="322.62,-56.75 322.62,-76 406.12,-76 406.12,-56.75 322.62,-56.75"/>
<text xml:space="preserve" text-anchor="middle" x="364.38" y="-62.5" font-family="Helvetica,sans-Serif" font-size="10.00">StemClass.cpp</text>
</a>
</g>
</g>
<!-- Node1&#45;&gt;Node5 -->
<g id="edge4" class="edge">
<title>Node1&#45;&gt;Node5</title>
<path fill="none" stroke="midnightblue" d="M1711.28,-120.71C1476.18,-117.21 671.29,-103.5 415.38,-76.5 412.51,-76.2 409.57,-75.83 406.61,-75.41"/>
<polygon fill="midnightblue" stroke="midnightblue" points="1711.14,-124.21 1721.19,-120.86 1711.24,-117.21 1711.14,-124.21"/>
</g>
<!-- Node6 -->
<g id="node6" class="node">
<title>Node6</title>
<g id="a_node6"><a xlink:href="_message_class_8cpp.html" target="_top" xlink:title=" ">
<polygon fill="white" stroke="black" points="424.38,-56.75 424.38,-76 524.38,-76 524.38,-56.75 424.38,-56.75"/>
<text xml:space="preserve" text-anchor="middle" x="474.38" y="-62.5" font-family="Helvetica,sans-Serif" font-size="10.00">MessageClass.cpp</text>
</a>
</g>
</g>
<!-- Node1&#45;&gt;Node6 -->
<g id="edge5" class="edge">
<title>Node1&#45;&gt;Node6</title>
<path fill="none" stroke="midnightblue" d="M1711.22,-121.94C1526.28,-122.27 982.44,-119.23 533.38,-76.5 530.59,-76.23 527.73,-75.92 524.86,-75.58"/>
<polygon fill="midnightblue" stroke="midnightblue" points="1711.11,-125.44 1721.11,-121.92 1711.1,-118.44 1711.11,-125.44"/>
</g>
<!-- Node7 -->
<g id="node7" class="node">
<title>Node7</title>
<g id="a_node7"><a xlink:href="_method_class_8cpp.html" target="_top" xlink:title=" ">
<polygon fill="white" stroke="black" points="542.12,-56.75 542.12,-76 634.62,-76 634.62,-56.75 542.12,-56.75"/>
<text xml:space="preserve" text-anchor="middle" x="588.38" y="-62.5" font-family="Helvetica,sans-Serif" font-size="10.00">MethodClass.cpp</text>
</a>
</g>
</g>
<!-- Node1&#45;&gt;Node7 -->
<g id="edge6" class="edge">
<title>Node1&#45;&gt;Node7</title>
<path fill="none" stroke="midnightblue" d="M1711.05,-121.86C1536.99,-121.89 1047.78,-117.94 643.38,-76.5 640.58,-76.21 637.72,-75.88 634.83,-75.5"/>
<polygon fill="midnightblue" stroke="midnightblue" points="1711.03,-125.36 1721.03,-121.86 1711.02,-118.36 1711.03,-125.36"/>
</g>
<!-- Node8 -->
<g id="node8" class="node">
<title>Node8</title>
<g id="a_node8"><a xlink:href="_routine_class_8cpp.html" target="_top" xlink:title=" ">
<polygon fill="white" stroke="black" points="652.38,-56.75 652.38,-76 746.38,-76 746.38,-56.75 652.38,-56.75"/>
<text xml:space="preserve" text-anchor="middle" x="699.38" y="-62.5" font-family="Helvetica,sans-Serif" font-size="10.00">RoutineClass.cpp</text>
</a>
</g>
</g>
<!-- Node1&#45;&gt;Node8 -->
<g id="edge7" class="edge">
<title>Node1&#45;&gt;Node8</title>
<path fill="none" stroke="midnightblue" d="M1711.41,-121.33C1549.62,-120.03 1115.87,-113.11 756.38,-76.5 753.18,-76.18 749.9,-75.79 746.6,-75.36"/>
<polygon fill="midnightblue" stroke="midnightblue" points="1711.04,-124.82 1721.07,-121.4 1711.09,-117.82 1711.04,-124.82"/>
</g>
<!-- Node9 -->
<g id="node9" class="node">
<title>Node9</title>
<g id="a_node9"><a xlink:href="_rexx_main_8cpp.html" target="_top" xlink:title=" ">
<polygon fill="white" stroke="black" points="764.88,-56.75 764.88,-76 843.88,-76 843.88,-56.75 764.88,-56.75"/>
<text xml:space="preserve" text-anchor="middle" x="804.38" y="-62.5" font-family="Helvetica,sans-Serif" font-size="10.00">RexxMain.cpp</text>
</a>
</g>
</g>
<!-- Node1&#45;&gt;Node9 -->
<g id="edge8" class="edge">
<title>Node1&#45;&gt;Node9</title>
<path fill="none" stroke="midnightblue" d="M1711.17,-121.55C1559.79,-120.69 1172.96,-114.61 852.38,-76.5 849.68,-76.18 846.91,-75.8 844.12,-75.37"/>
<polygon fill="midnightblue" stroke="midnightblue" points="1710.99,-125.05 1721,-121.6 1711.02,-118.05 1710.99,-125.05"/>
</g>
<!-- Node10 -->
<g id="node10" class="node">
<title>Node10</title>
<g id="a_node10"><a xlink:href="windows_2_external_functions_8cpp.html" target="_top" xlink:title=" ">
<polygon fill="white" stroke="black" points="861.62,-56.75 861.62,-76 975.12,-76 975.12,-56.75 861.62,-56.75"/>
<text xml:space="preserve" text-anchor="middle" x="918.38" y="-62.5" font-family="Helvetica,sans-Serif" font-size="10.00">ExternalFunctions.cpp</text>
</a>
</g>
</g>
<!-- Node1&#45;&gt;Node10 -->
<g id="edge9" class="edge">
<title>Node1&#45;&gt;Node10</title>
<path fill="none" stroke="midnightblue" d="M1711.61,-119.7C1576.28,-115.29 1253.76,-102.75 984.38,-76.5 981.5,-76.22 978.55,-75.91 975.58,-75.57"/>
<polygon fill="midnightblue" stroke="midnightblue" points="1711.34,-123.19 1721.44,-120.02 1711.56,-116.2 1711.34,-123.19"/>
</g>
<!-- Node11 -->
<g id="node11" class="node">
<title>Node11</title>
<g id="a_node11"><a xlink:href="_interpreter_instance_8cpp.html" target="_top" xlink:title=" ">
<polygon fill="white" stroke="black" points="993.12,-56.75 993.12,-76 1109.62,-76 1109.62,-56.75 993.12,-56.75"/>
<text xml:space="preserve" text-anchor="middle" x="1051.38" y="-62.5" font-family="Helvetica,sans-Serif" font-size="10.00">InterpreterInstance.cpp</text>
</a>
</g>
</g>
<!-- Node1&#45;&gt;Node11 -->
<g id="edge10" class="edge">
<title>Node1&#45;&gt;Node11</title>
<path fill="none" stroke="midnightblue" d="M1711.29,-118.56C1593.17,-112.67 1335.69,-98.42 1119.38,-76.5 1116.29,-76.19 1113.14,-75.84 1109.95,-75.48"/>
<polygon fill="midnightblue" stroke="midnightblue" points="1710.95,-122.04 1721.11,-119.04 1711.3,-115.05 1710.95,-122.04"/>
</g>
<!-- Node12 -->
<g id="node12" class="node">
<title>Node12</title>
<g id="a_node12"><a xlink:href="_trapping_dispatcher_8cpp.html" target="_top" xlink:title=" ">
<polygon fill="white" stroke="black" points="1128,-56.75 1128,-76 1246.75,-76 1246.75,-56.75 1128,-56.75"/>
<text xml:space="preserve" text-anchor="middle" x="1187.38" y="-62.5" font-family="Helvetica,sans-Serif" font-size="10.00">TrappingDispatcher.cpp</text>
</a>
</g>
</g>
<!-- Node1&#45;&gt;Node12 -->
<g id="edge11" class="edge">
<title>Node1&#45;&gt;Node12</title>
<path fill="none" stroke="midnightblue" d="M1711.4,-116.98C1612.72,-109.71 1419.22,-94.58 1255.38,-76.5 1252.65,-76.2 1249.87,-75.88 1247.06,-75.55"/>
<polygon fill="midnightblue" stroke="midnightblue" points="1710.93,-120.46 1721.16,-117.7 1711.44,-113.48 1710.93,-120.46"/>
</g>
<!-- Node13 -->
<g id="node13" class="node">
<title>Node13</title>
<g id="a_node13"><a xlink:href="_condition_trapping_dispatcher_8cpp.html" target="_top" xlink:title=" ">
<polygon fill="white" stroke="black" points="1264.38,-56.75 1264.38,-76 1424.38,-76 1424.38,-56.75 1264.38,-56.75"/>
<text xml:space="preserve" text-anchor="middle" x="1344.38" y="-62.5" font-family="Helvetica,sans-Serif" font-size="10.00">ConditionTrappingDispatcher.cpp</text>
</a>
</g>
</g>
<!-- Node1&#45;&gt;Node13 -->
<g id="edge12" class="edge">
<title>Node1&#45;&gt;Node13</title>
<path fill="none" stroke="midnightblue" d="M1711.27,-113.45C1632.2,-103.52 1499.23,-86.82 1416.94,-76.49"/>
<polygon fill="midnightblue" stroke="midnightblue" points="1710.68,-116.9 1721.03,-114.68 1711.55,-109.96 1710.68,-116.9"/>
</g>
<!-- Node14 -->
<g id="node14" class="node">
<title>Node14</title>
<g id="a_node14"><a xlink:href="_translate_dispatcher_8cpp.html" target="_top" xlink:title=" ">
<polygon fill="white" stroke="black" points="1442.5,-56.75 1442.5,-76 1564.25,-76 1564.25,-56.75 1442.5,-56.75"/>
<text xml:space="preserve" text-anchor="middle" x="1503.38" y="-62.5" font-family="Helvetica,sans-Serif" font-size="10.00">TranslateDispatcher.cpp</text>
</a>
</g>
</g>
<!-- Node1&#45;&gt;Node14 -->
<g id="edge13" class="edge">
<title>Node1&#45;&gt;Node14</title>
<path fill="none" stroke="midnightblue" d="M1719.62,-110.35C1669.1,-100.31 1596.12,-85.81 1549.22,-76.48"/>
<polygon fill="midnightblue" stroke="midnightblue" points="1718.71,-113.73 1729.2,-112.25 1720.07,-106.87 1718.71,-113.73"/>
</g>
<!-- Node15 -->
<g id="node15" class="node">
<title>Node15</title>
<g id="a_node15"><a xlink:href="_activity-trace_8cpp.html" target="_top" xlink:title=" ">
<polygon fill="white" stroke="black" points="1582.12,-56.75 1582.12,-76 1674.62,-76 1674.62,-56.75 1582.12,-56.75"/>
<text xml:space="preserve" text-anchor="middle" x="1628.38" y="-62.5" font-family="Helvetica,sans-Serif" font-size="10.00">Activity&#45;trace.cpp</text>
</a>
</g>
</g>
<!-- Node1&#45;&gt;Node15 -->
<g id="edge14" class="edge">
<title>Node1&#45;&gt;Node15</title>
<path fill="none" stroke="midnightblue" d="M1741.02,-108.66C1713.94,-98.74 1677.27,-85.3 1653.23,-76.48"/>
<polygon fill="midnightblue" stroke="midnightblue" points="1739.59,-111.87 1750.18,-112.02 1742,-105.3 1739.59,-111.87"/>
</g>
<!-- Node16 -->
<g id="node16" class="node">
<title>Node16</title>
<g id="a_node16"><a xlink:href="_activity_8cpp.html" target="_top" xlink:title=" ">
<polygon fill="white" stroke="black" points="1692.25,-56.75 1692.25,-76 1758.5,-76 1758.5,-56.75 1692.25,-56.75"/>
<text xml:space="preserve" text-anchor="middle" x="1725.38" y="-62.5" font-family="Helvetica,sans-Serif" font-size="10.00">Activity.cpp</text>
</a>
</g>
</g>
<!-- Node1&#45;&gt;Node16 -->
<g id="edge15" class="edge">
<title>Node1&#45;&gt;Node16</title>
<path fill="none" stroke="midnightblue" d="M1760.18,-104.4C1751.35,-95.01 1740.79,-83.78 1733.64,-76.17"/>
<polygon fill="midnightblue" stroke="midnightblue" points="1757.52,-106.68 1766.92,-111.56 1762.62,-101.88 1757.52,-106.68"/>
</g>
<!-- Node17 -->
<g id="node17" class="node">
<title>Node17</title>
<g id="a_node17"><a xlink:href="_activity_manager_8cpp.html" target="_top" xlink:title=" ">
<polygon fill="white" stroke="black" points="1776.12,-56.75 1776.12,-76 1880.62,-76 1880.62,-56.75 1776.12,-56.75"/>
<text xml:space="preserve" text-anchor="middle" x="1828.38" y="-62.5" font-family="Helvetica,sans-Serif" font-size="10.00">ActivityManager.cpp</text>
</a>
</g>
</g>
<!-- Node1&#45;&gt;Node17 -->
<g id="edge16" class="edge">
<title>Node1&#45;&gt;Node17</title>
<path fill="none" stroke="midnightblue" d="M1792.88,-104.4C1801.89,-95.01 1812.65,-83.78 1819.95,-76.17"/>
<polygon fill="midnightblue" stroke="midnightblue" points="1790.4,-101.93 1786.01,-111.57 1795.46,-106.78 1790.4,-101.93"/>
</g>
<!-- Node18 -->
<g id="node18" class="node">
<title>Node18</title>
<g id="a_node18"><a xlink:href="_callback_dispatcher_8cpp.html" target="_top" xlink:title=" ">
<polygon fill="white" stroke="black" points="1898.62,-56.75 1898.62,-76 2018.12,-76 2018.12,-56.75 1898.62,-56.75"/>
<text xml:space="preserve" text-anchor="middle" x="1958.38" y="-62.5" font-family="Helvetica,sans-Serif" font-size="10.00">CallbackDispatcher.cpp</text>
</a>
</g>
</g>
<!-- Node1&#45;&gt;Node18 -->
<g id="edge17" class="edge">
<title>Node1&#45;&gt;Node18</title>
<path fill="none" stroke="midnightblue" d="M1817.66,-109.32C1851.14,-99.34 1897.59,-85.49 1927.81,-76.48"/>
<polygon fill="midnightblue" stroke="midnightblue" points="1816.87,-105.9 1808.29,-112.11 1818.87,-112.61 1816.87,-105.9"/>
</g>
<!-- Node19 -->
<g id="node19" class="node">
<title>Node19</title>
<g id="a_node19"><a xlink:href="_command_handler_8cpp.html" target="_top" xlink:title=" ">
<polygon fill="white" stroke="black" points="2036,-56.75 2036,-76 2148.75,-76 2148.75,-56.75 2036,-56.75"/>
<text xml:space="preserve" text-anchor="middle" x="2092.38" y="-62.5" font-family="Helvetica,sans-Serif" font-size="10.00">CommandHandler.cpp</text>
</a>
</g>
</g>
<!-- Node1&#45;&gt;Node19 -->
<g id="edge18" class="edge">
<title>Node1&#45;&gt;Node19</title>
<path fill="none" stroke="midnightblue" d="M1840.6,-110.6C1899.13,-100.55 1984.56,-85.88 2039.31,-76.48"/>
<polygon fill="midnightblue" stroke="midnightblue" points="1840.02,-107.15 1830.76,-112.29 1841.21,-114.05 1840.02,-107.15"/>
</g>
<!-- Node20 -->
<g id="node20" class="node">
<title>Node20</title>
<g id="a_node20"><a xlink:href="_message_dispatcher_8cpp.html" target="_top" xlink:title=" ">
<polygon fill="white" stroke="black" points="2166.88,-56.75 2166.88,-76 2287.88,-76 2287.88,-56.75 2166.88,-56.75"/>
<text xml:space="preserve" text-anchor="middle" x="2227.38" y="-62.5" font-family="Helvetica,sans-Serif" font-size="10.00">MessageDispatcher.cpp</text>
</a>
</g>
</g>
<!-- Node1&#45;&gt;Node20 -->
<g id="edge19" class="edge">
<title>Node1&#45;&gt;Node20</title>
<path fill="none" stroke="midnightblue" d="M1841.28,-114.17C1917.13,-105.41 2046.41,-90.3 2157.38,-76.5 2160.42,-76.12 2163.53,-75.73 2166.67,-75.33"/>
<polygon fill="midnightblue" stroke="midnightblue" points="1841.07,-110.67 1831.53,-115.3 1841.87,-117.63 1841.07,-110.67"/>
</g>
<!-- Node21 -->
<g id="node21" class="node">
<title>Node21</title>
<g id="a_node21"><a xlink:href="_activation_frame_8cpp.html" target="_top" xlink:title=" ">
<polygon fill="white" stroke="black" points="2306.38,-56.75 2306.38,-76 2412.38,-76 2412.38,-56.75 2306.38,-56.75"/>
<text xml:space="preserve" text-anchor="middle" x="2359.38" y="-62.5" font-family="Helvetica,sans-Serif" font-size="10.00">ActivationFrame.cpp</text>
</a>
</g>
</g>
<!-- Node1&#45;&gt;Node21 -->
<g id="edge20" class="edge">
<title>Node1&#45;&gt;Node21</title>
<path fill="none" stroke="midnightblue" d="M1841.38,-117.25C1940.1,-110.32 2133.65,-95.62 2297.38,-76.5 2300.18,-76.17 2303.06,-75.82 2305.97,-75.44"/>
<polygon fill="midnightblue" stroke="midnightblue" points="1841.35,-113.74 1831.62,-117.93 1841.84,-120.72 1841.35,-113.74"/>
</g>
<!-- Node22 -->
<g id="node22" class="node">
<title>Node22</title>
<g id="a_node22"><a xlink:href="_rexx_start_dispatcher_8cpp.html" target="_top" xlink:title=" ">
<polygon fill="white" stroke="black" points="2430.62,-56.75 2430.62,-76 2556.12,-76 2556.12,-56.75 2430.62,-56.75"/>
<text xml:space="preserve" text-anchor="middle" x="2493.38" y="-62.5" font-family="Helvetica,sans-Serif" font-size="10.00">RexxStartDispatcher.cpp</text>
</a>
</g>
</g>
<!-- Node1&#45;&gt;Node22 -->
<g id="edge21" class="edge">
<title>Node1&#45;&gt;Node22</title>
<path fill="none" stroke="midnightblue" d="M1841.14,-118.3C1957.48,-112.06 2209.47,-97.32 2421.38,-76.5 2424.26,-76.22 2427.21,-75.91 2430.18,-75.59"/>
<polygon fill="midnightblue" stroke="midnightblue" points="1841.29,-114.79 1831.49,-118.82 1841.66,-121.78 1841.29,-114.79"/>
</g>
<!-- Node23 -->
<g id="node23" class="node">
<title>Node23</title>
<g id="a_node23"><a xlink:href="_native_activation-trace_8cpp.html" target="_top" xlink:title=" ">
<polygon fill="white" stroke="black" points="2574.62,-56.75 2574.62,-76 2706.12,-76 2706.12,-56.75 2574.62,-56.75"/>
<text xml:space="preserve" text-anchor="middle" x="2640.38" y="-62.5" font-family="Helvetica,sans-Serif" font-size="10.00">NativeActivation&#45;trace.cpp</text>
</a>
</g>
</g>
<!-- Node1&#45;&gt;Node23 -->
<g id="edge22" class="edge">
<title>Node1&#45;&gt;Node23</title>
<path fill="none" stroke="midnightblue" d="M1841.36,-119.32C1976.41,-114.21 2297.14,-100.46 2565.38,-76.5 2568.25,-76.24 2571.18,-75.96 2574.15,-75.67"/>
<polygon fill="midnightblue" stroke="midnightblue" points="1841.41,-115.81 1831.55,-119.68 1841.67,-122.81 1841.41,-115.81"/>
</g>
<!-- Node24 -->
<g id="node24" class="node">
<title>Node24</title>
<g id="a_node24"><a xlink:href="_native_code_8cpp.html" target="_top" xlink:title=" ">
<polygon fill="white" stroke="black" points="2724.12,-56.75 2724.12,-76 2810.62,-76 2810.62,-56.75 2724.12,-56.75"/>
<text xml:space="preserve" text-anchor="middle" x="2767.38" y="-62.5" font-family="Helvetica,sans-Serif" font-size="10.00">NativeCode.cpp</text>
</a>
</g>
</g>
<!-- Node1&#45;&gt;Node24 -->
<g id="edge23" class="edge">
<title>Node1&#45;&gt;Node24</title>
<path fill="none" stroke="midnightblue" d="M1841.49,-121.31C1994.46,-119.95 2388.53,-112.89 2715.38,-76.5 2718.11,-76.2 2720.91,-75.84 2723.74,-75.44"/>
<polygon fill="midnightblue" stroke="midnightblue" points="1841.51,-117.81 1831.54,-121.39 1841.57,-124.81 1841.51,-117.81"/>
</g>
<!-- Node25 -->
<g id="node25" class="node">
<title>Node25</title>
<g id="a_node25"><a xlink:href="_c_p_p_code_8cpp.html" target="_top" xlink:title=" ">
<polygon fill="white" stroke="black" points="2828.88,-56.75 2828.88,-76 2907.88,-76 2907.88,-56.75 2828.88,-56.75"/>
<text xml:space="preserve" text-anchor="middle" x="2868.38" y="-62.5" font-family="Helvetica,sans-Serif" font-size="10.00">CPPCode.cpp</text>
</a>
</g>
</g>
<!-- Node1&#45;&gt;Node25 -->
<g id="edge24" class="edge">
<title>Node1&#45;&gt;Node25</title>
<path fill="none" stroke="midnightblue" d="M1841.39,-121.99C2005.78,-122.21 2451.18,-118.54 2819.38,-76.5 2822.38,-76.16 2825.49,-75.74 2828.6,-75.27"/>
<polygon fill="midnightblue" stroke="midnightblue" points="1841.57,-118.49 1831.56,-121.97 1841.55,-125.49 1841.57,-118.49"/>
</g>
<!-- Node26 -->
<g id="node26" class="node">
<title>Node26</title>
<g id="a_node26"><a xlink:href="_native_activation_8cpp.html" target="_top" xlink:title=" ">
<polygon fill="white" stroke="black" points="2926,-56.75 2926,-76 3032.75,-76 3032.75,-56.75 2926,-56.75"/>
<text xml:space="preserve" text-anchor="middle" x="2979.38" y="-62.5" font-family="Helvetica,sans-Serif" font-size="10.00">NativeActivation.cpp</text>
</a>
</g>
</g>
<!-- Node1&#45;&gt;Node26 -->
<g id="edge25" class="edge">
<title>Node1&#45;&gt;Node26</title>
<path fill="none" stroke="midnightblue" d="M1841.24,-121.48C2015.65,-120.56 2509.06,-114.51 2917.38,-76.5 2920.08,-76.25 2922.85,-75.96 2925.65,-75.64"/>
<polygon fill="midnightblue" stroke="midnightblue" points="1841.47,-117.98 1831.49,-121.52 1841.51,-124.98 1841.47,-117.98"/>
</g>
<!-- Node27 -->
<g id="node27" class="node">
<title>Node27</title>
<g id="a_node27"><a xlink:href="_interpreter_a_p_i_8cpp.html" target="_top" xlink:title=" ">
<polygon fill="white" stroke="black" points="3050.62,-56.75 3050.62,-76 3146.12,-76 3146.12,-56.75 3050.62,-56.75"/>
<text xml:space="preserve" text-anchor="middle" x="3098.38" y="-62.5" font-family="Helvetica,sans-Serif" font-size="10.00">InterpreterAPI.cpp</text>
</a>
</g>
</g>
<!-- Node1&#45;&gt;Node27 -->
<g id="edge26" class="edge">
<title>Node1&#45;&gt;Node27</title>
<path fill="none" stroke="midnightblue" d="M1841.43,-122.12C2028.43,-122.95 2583.45,-121.15 3041.38,-76.5 3044.27,-76.22 3047.24,-75.88 3050.23,-75.51"/>
<polygon fill="midnightblue" stroke="midnightblue" points="1841.7,-118.62 1831.68,-122.08 1841.66,-125.62 1841.7,-118.62"/>
</g>
<!-- Node28 -->
<g id="node28" class="node">
<title>Node28</title>
<g id="a_node28"><a xlink:href="_call_context_stubs_8cpp.html" target="_top" xlink:title=" ">
<polygon fill="white" stroke="black" points="3053.38,-0.5 3053.38,-19.75 3165.38,-19.75 3165.38,-0.5 3053.38,-0.5"/>
<text xml:space="preserve" text-anchor="middle" x="3109.38" y="-6.25" font-family="Helvetica,sans-Serif" font-size="10.00">CallContextStubs.cpp</text>
</a>
</g>
</g>
<!-- Node1&#45;&gt;Node28 -->
<g id="edge27" class="edge">
<title>Node1&#45;&gt;Node28</title>
<path fill="none" stroke="midnightblue" d="M1841.51,-121.98C2108.74,-123.13 3109.21,-124.2 3155.38,-76.5 3172.75,-58.55 3142.95,-33.52 3123.72,-20.24"/>
<polygon fill="midnightblue" stroke="midnightblue" points="1841.61,-118.48 1831.59,-121.94 1841.58,-125.48 1841.61,-118.48"/>
</g>
<!-- Node29 -->
<g id="node29" class="node">
<title>Node29</title>
<g id="a_node29"><a xlink:href="_method_context_stubs_8cpp.html" target="_top" xlink:title=" ">
<polygon fill="white" stroke="black" points="3183.88,-0.5 3183.88,-19.75 3310.88,-19.75 3310.88,-0.5 3183.88,-0.5"/>
<text xml:space="preserve" text-anchor="middle" x="3247.38" y="-6.25" font-family="Helvetica,sans-Serif" font-size="10.00">MethodContextStubs.cpp</text>
</a>
</g>
</g>
<!-- Node1&#45;&gt;Node29 -->
<g id="edge28" class="edge">
<title>Node1&#45;&gt;Node29</title>
<path fill="none" stroke="midnightblue" d="M1841.47,-122.08C2100.2,-123.54 3047.84,-125.47 3172.38,-76.5 3202.6,-64.62 3228.88,-34.93 3240.71,-20"/>
<polygon fill="midnightblue" stroke="midnightblue" points="1841.57,-118.58 1831.55,-122.02 1841.52,-125.58 1841.57,-118.58"/>
</g>
<!-- Node30 -->
<g id="node30" class="node">
<title>Node30</title>
<g id="a_node30"><a xlink:href="_context_api_8hpp.html" target="_top" xlink:title=" ">
<polygon fill="white" stroke="black" points="3240.62,-56.75 3240.62,-76 3324.12,-76 3324.12,-56.75 3240.62,-56.75"/>
<text xml:space="preserve" text-anchor="middle" x="3282.38" y="-62.5" font-family="Helvetica,sans-Serif" font-size="10.00">ContextApi.hpp</text>
</a>
</g>
</g>
<!-- Node1&#45;&gt;Node30 -->
<g id="edge29" class="edge">
<title>Node1&#45;&gt;Node30</title>
<path fill="none" stroke="midnightblue" d="M1841.21,-120.73C2085.69,-117.19 2951.84,-103.02 3226.38,-76.5 3230.89,-76.06 3235.58,-75.49 3240.25,-74.84"/>
<polygon fill="midnightblue" stroke="midnightblue" points="1841.5,-117.23 1831.55,-120.87 1841.6,-124.23 1841.5,-117.23"/>
</g>
<!-- Node33 -->
<g id="node33" class="node">
<title>Node33</title>
<g id="a_node33"><a xlink:href="_virtual_function_table_8cpp.html" target="_top" xlink:title=" ">
<polygon fill="white" stroke="black" points="3341.75,-56.75 3341.75,-76 3465,-76 3465,-56.75 3341.75,-56.75"/>
<text xml:space="preserve" text-anchor="middle" x="3403.38" y="-62.5" font-family="Helvetica,sans-Serif" font-size="10.00">VirtualFunctionTable.cpp</text>
</a>
</g>
</g>
<!-- Node1&#45;&gt;Node33 -->
<g id="edge34" class="edge">
<title>Node1&#45;&gt;Node33</title>
<path fill="none" stroke="midnightblue" d="M1841.21,-122.08C2054.86,-123.08 2755.99,-122.38 3333.38,-76.5 3336.06,-76.29 3338.81,-76.04 3341.57,-75.77"/>
<polygon fill="midnightblue" stroke="midnightblue" points="1841.45,-118.58 1831.43,-122.03 1841.42,-125.58 1841.45,-118.58"/>
</g>
<!-- Node30&#45;&gt;Node28 -->
<g id="edge31" class="edge">
<title>Node30&#45;&gt;Node28</title>
<path fill="none" stroke="midnightblue" d="M3242.72,-52.94C3210.92,-42.97 3167.03,-29.2 3138.43,-20.23"/>
<polygon fill="midnightblue" stroke="midnightblue" points="3241.39,-56.19 3251.97,-55.84 3243.48,-49.51 3241.39,-56.19"/>
</g>
<!-- Node30&#45;&gt;Node29 -->
<g id="edge32" class="edge">
<title>Node30&#45;&gt;Node29</title>
<path fill="none" stroke="midnightblue" d="M3270.51,-46.98C3264.61,-37.84 3257.75,-27.21 3253.05,-19.92"/>
<polygon fill="midnightblue" stroke="midnightblue" points="3267.41,-48.64 3275.77,-55.14 3273.29,-44.84 3267.41,-48.64"/>
</g>
<!-- Node31 -->
<g id="node31" class="node">
<title>Node31</title>
<g id="a_node31"><a xlink:href="_thread_context_stubs_8cpp.html" target="_top" xlink:title=" ">
<polygon fill="white" stroke="black" points="3329,-0.5 3329,-19.75 3453.75,-19.75 3453.75,-0.5 3329,-0.5"/>
<text xml:space="preserve" text-anchor="middle" x="3391.38" y="-6.25" font-family="Helvetica,sans-Serif" font-size="10.00">ThreadContextStubs.cpp</text>
</a>
</g>
</g>
<!-- Node30&#45;&gt;Node31 -->
<g id="edge30" class="edge">
<title>Node30&#45;&gt;Node31</title>
<path fill="none" stroke="midnightblue" d="M3310.65,-51.3C3330.45,-41.45 3356.3,-28.58 3373.35,-20.1"/>
<polygon fill="midnightblue" stroke="midnightblue" points="3309.12,-48.15 3301.73,-55.74 3312.24,-54.42 3309.12,-48.15"/>
</g>
<!-- Node32 -->
<g id="node32" class="node">
<title>Node32</title>
<g id="a_node32"><a xlink:href="_interpreter_instance_stubs_8cpp.html" target="_top" xlink:title=" ">
<polygon fill="white" stroke="black" points="3471.38,-0.5 3471.38,-19.75 3613.38,-19.75 3613.38,-0.5 3471.38,-0.5"/>
<text xml:space="preserve" text-anchor="middle" x="3542.38" y="-6.25" font-family="Helvetica,sans-Serif" font-size="10.00">InterpreterInstanceStubs.cpp</text>
</a>
</g>
</g>
<!-- Node30&#45;&gt;Node32 -->
<g id="edge33" class="edge">
<title>Node30&#45;&gt;Node32</title>
<path fill="none" stroke="midnightblue" d="M3335.6,-54.27C3383.87,-44.2 3454.16,-29.53 3499.07,-20.16"/>
<polygon fill="midnightblue" stroke="midnightblue" points="3334.99,-50.82 3325.92,-56.29 3336.42,-57.67 3334.99,-50.82"/>
</g>
</g>
</svg>
