<?xml version="1.0" encoding="UTF-8" standalone="no"?>
<!DOCTYPE svg PUBLIC "-//W3C//DTD SVG 1.1//EN"
 "http://www.w3.org/Graphics/SVG/1.1/DTD/svg11.dtd">
<!-- Generated by graphviz version 13.1.0 (20250701.0955)
 -->
<!-- Title: NumberStringClass.hpp Pages: 1 -->
<svg width="1669pt" height="647pt"
 viewBox="0.00 0.00 1669.00 647.00" xmlns="http://www.w3.org/2000/svg" xmlns:xlink="http://www.w3.org/1999/xlink">
<g id="graph0" class="graph" transform="scale(1 1) rotate(0) translate(4 643)">
<title>NumberStringClass.hpp</title>
<polygon fill="white" stroke="none" points="-4,4 -4,-643 1664.62,-643 1664.62,4 -4,4"/>
<!-- Node1 -->
<g id="node1" class="node">
<title>Node1</title>
<g id="a_node1"><a xlink:title=" ">
<polygon fill="#bfbfbf" stroke="black" points="1540.38,-619.25 1540.38,-638.5 1660.62,-638.5 1660.62,-619.25 1540.38,-619.25"/>
<text xml:space="preserve" text-anchor="middle" x="1600.5" y="-625" font-family="Helvetica,sans-Serif" font-size="10.00">NumberStringClass.hpp</text>
</a>
</g>
</g>
<!-- Node2 -->
<g id="node2" class="node">
<title>Node2</title>
<g id="a_node2"><a xlink:href="_flag_set_8hpp.html" target="_top" xlink:title=" ">
<polygon fill="white" stroke="black" points="1299.25,-56.75 1299.25,-76 1367.75,-76 1367.75,-56.75 1299.25,-56.75"/>
<text xml:space="preserve" text-anchor="middle" x="1333.5" y="-62.5" font-family="Helvetica,sans-Serif" font-size="10.00">FlagSet.hpp</text>
</a>
</g>
</g>
<!-- Node1&#45;&gt;Node2 -->
<g id="edge1" class="edge">
<title>Node1&#45;&gt;Node2</title>
<path fill="none" stroke="midnightblue" d="M1605.94,-618.78C1616.45,-600.34 1638.5,-556.93 1638.5,-517.38 1638.5,-517.38 1638.5,-517.38 1638.5,-177.88 1638.5,-123.42 1464.49,-88.19 1379.34,-74.2"/>
<polygon fill="midnightblue" stroke="midnightblue" points="1380.11,-70.78 1369.68,-72.65 1379,-77.69 1380.11,-70.78"/>
</g>
<!-- Node4 -->
<g id="node4" class="node">
<title>Node4</title>
<g id="a_node4"><a xlink:href="_numerics_8hpp.html" target="_top" xlink:title=" ">
<polygon fill="white" stroke="black" points="177.12,-563 177.12,-582.25 253.88,-582.25 253.88,-563 177.12,-563"/>
<text xml:space="preserve" text-anchor="middle" x="215.5" y="-568.75" font-family="Helvetica,sans-Serif" font-size="10.00">Numerics.hpp</text>
</a>
</g>
</g>
<!-- Node1&#45;&gt;Node4 -->
<g id="edge3" class="edge">
<title>Node1&#45;&gt;Node4</title>
<path fill="none" stroke="midnightblue" d="M1540.1,-625.51C1308.36,-616.43 478.53,-583.93 265.59,-575.59"/>
<polygon fill="midnightblue" stroke="midnightblue" points="265.82,-572.09 255.69,-575.2 265.55,-579.09 265.82,-572.09"/>
</g>
<!-- Node23 -->
<g id="node23" class="node">
<title>Node23</title>
<g id="a_node23"><a xlink:href="_string_class_8hpp.html" target="_top" xlink:title=" ">
<polygon fill="white" stroke="black" points="1188.62,-225.5 1188.62,-244.75 1274.38,-244.75 1274.38,-225.5 1188.62,-225.5"/>
<text xml:space="preserve" text-anchor="middle" x="1231.5" y="-231.25" font-family="Helvetica,sans-Serif" font-size="10.00">StringClass.hpp</text>
</a>
</g>
</g>
<!-- Node1&#45;&gt;Node23 -->
<g id="edge62" class="edge">
<title>Node1&#45;&gt;Node23</title>
<path fill="none" stroke="midnightblue" d="M1600.5,-618.99C1600.5,-600.23 1600.5,-555.17 1600.5,-517.38 1600.5,-517.38 1600.5,-517.38 1600.5,-402.88 1600.5,-266.48 1388.54,-241.05 1285.91,-236.73"/>
<polygon fill="midnightblue" stroke="midnightblue" points="1286.18,-233.24 1276.06,-236.37 1285.93,-240.23 1286.18,-233.24"/>
</g>
<!-- Node3 -->
<g id="node3" class="node">
<title>Node3</title>
<g id="a_node3"><a xlink:href="_bit_set_8hpp.html" target="_top" xlink:title=" ">
<polygon fill="white" stroke="black" points="1302.62,-0.5 1302.62,-19.75 1364.38,-19.75 1364.38,-0.5 1302.62,-0.5"/>
<text xml:space="preserve" text-anchor="middle" x="1333.5" y="-6.25" font-family="Helvetica,sans-Serif" font-size="10.00">BitSet.hpp</text>
</a>
</g>
</g>
<!-- Node2&#45;&gt;Node3 -->
<g id="edge2" class="edge">
<title>Node2&#45;&gt;Node3</title>
<path fill="none" stroke="midnightblue" d="M1333.5,-56.42C1333.5,-49.62 1333.5,-40.01 1333.5,-31.4"/>
<polygon fill="midnightblue" stroke="midnightblue" points="1337,-31.43 1333.5,-21.43 1330,-31.43 1337,-31.43"/>
</g>
<!-- Node5 -->
<g id="node5" class="node">
<title>Node5</title>
<g id="a_node5"><a xlink:title=" ">
<polygon fill="white" stroke="#bfbfbf" points="131.62,-506.75 131.62,-526 187.38,-526 187.38,-506.75 131.62,-506.75"/>
<text xml:space="preserve" text-anchor="middle" x="159.5" y="-512.5" font-family="Helvetica,sans-Serif" font-size="10.00">algorithm</text>
</a>
</g>
</g>
<!-- Node4&#45;&gt;Node5 -->
<g id="edge4" class="edge">
<title>Node4&#45;&gt;Node5</title>
<path fill="none" stroke="midnightblue" d="M206.25,-562.67C198.26,-554.92 186.5,-543.53 176.77,-534.11"/>
<polygon fill="midnightblue" stroke="midnightblue" points="179.28,-531.66 169.66,-527.22 174.41,-536.69 179.28,-531.66"/>
</g>
<!-- Node6 -->
<g id="node6" class="node">
<title>Node6</title>
<g id="a_node6"><a xlink:href="_rexx_core_8h.html" target="_top" xlink:title=" ">
<polygon fill="white" stroke="black" points="912.25,-506.75 912.25,-526 980.75,-526 980.75,-506.75 912.25,-506.75"/>
<text xml:space="preserve" text-anchor="middle" x="946.5" y="-512.5" font-family="Helvetica,sans-Serif" font-size="10.00">RexxCore.h</text>
</a>
</g>
</g>
<!-- Node4&#45;&gt;Node6 -->
<g id="edge5" class="edge">
<title>Node4&#45;&gt;Node6</title>
<path fill="none" stroke="midnightblue" d="M254.29,-568.75C378.63,-559.52 767,-530.7 900.72,-520.77"/>
<polygon fill="midnightblue" stroke="midnightblue" points="900.9,-524.27 910.61,-520.04 900.38,-517.29 900.9,-524.27"/>
</g>
<!-- Node7 -->
<g id="node7" class="node">
<title>Node7</title>
<g id="a_node7"><a xlink:href="oorexxapi_8h.html" target="_top" xlink:title=" ">
<polygon fill="white" stroke="black" points="1208.38,-450.5 1208.38,-469.75 1274.62,-469.75 1274.62,-450.5 1208.38,-450.5"/>
<text xml:space="preserve" text-anchor="middle" x="1241.5" y="-456.25" font-family="Helvetica,sans-Serif" font-size="10.00">oorexxapi.h</text>
</a>
</g>
</g>
<!-- Node6&#45;&gt;Node7 -->
<g id="edge6" class="edge">
<title>Node6&#45;&gt;Node7</title>
<path fill="none" stroke="midnightblue" d="M981.03,-509.23C1028.96,-500.66 1118.37,-484.57 1194.5,-470.25 1195.31,-470.1 1196.13,-469.94 1196.96,-469.79"/>
<polygon fill="midnightblue" stroke="midnightblue" points="1197.22,-473.3 1206.39,-467.99 1195.91,-466.42 1197.22,-473.3"/>
</g>
<!-- Node14 -->
<g id="node14" class="node">
<title>Node14</title>
<g id="a_node14"><a xlink:title=" ">
<polygon fill="white" stroke="#bfbfbf" points="1292.75,-450.5 1292.75,-469.75 1400.25,-469.75 1400.25,-450.5 1292.75,-450.5"/>
<text xml:space="preserve" text-anchor="middle" x="1346.5" y="-456.25" font-family="Helvetica,sans-Serif" font-size="10.00">PlatformDefinitions.h</text>
</a>
</g>
</g>
<!-- Node6&#45;&gt;Node14 -->
<g id="edge13" class="edge">
<title>Node6&#45;&gt;Node14</title>
<path fill="none" stroke="midnightblue" d="M980.96,-510.88C1040.07,-503.16 1164.88,-486.72 1281.31,-470.54"/>
<polygon fill="midnightblue" stroke="midnightblue" points="1281.63,-474.03 1291.05,-469.19 1280.66,-467.1 1281.63,-474.03"/>
</g>
<!-- Node15 -->
<g id="node15" class="node">
<title>Node15</title>
<g id="a_node15"><a xlink:href="_class_type_codes_8h.html" target="_top" xlink:title=" ">
<polygon fill="white" stroke="black" points="786.88,-338 786.88,-357.25 886.12,-357.25 886.12,-338 786.88,-338"/>
<text xml:space="preserve" text-anchor="middle" x="836.5" y="-343.75" font-family="Helvetica,sans-Serif" font-size="10.00">ClassTypeCodes.h</text>
</a>
</g>
</g>
<!-- Node6&#45;&gt;Node15 -->
<g id="edge14" class="edge">
<title>Node6&#45;&gt;Node15</title>
<path fill="none" stroke="midnightblue" d="M947.69,-506.39C950.07,-484.71 953.15,-428.74 927.5,-393.75 916.64,-378.93 899.54,-368.7 883.09,-361.78"/>
<polygon fill="midnightblue" stroke="midnightblue" points="884.45,-358.55 873.86,-358.24 881.94,-365.09 884.45,-358.55"/>
</g>
<!-- Node16 -->
<g id="node16" class="node">
<title>Node16</title>
<g id="a_node16"><a xlink:href="_object_class_8hpp.html" target="_top" xlink:title=" ">
<polygon fill="white" stroke="black" points="88.12,-450.5 88.12,-469.75 176.88,-469.75 176.88,-450.5 88.12,-450.5"/>
<text xml:space="preserve" text-anchor="middle" x="132.5" y="-456.25" font-family="Helvetica,sans-Serif" font-size="10.00">ObjectClass.hpp</text>
</a>
</g>
</g>
<!-- Node6&#45;&gt;Node16 -->
<g id="edge15" class="edge">
<title>Node6&#45;&gt;Node16</title>
<path fill="none" stroke="midnightblue" d="M911.78,-513.06C784.85,-504.6 345.21,-475.3 188.51,-464.86"/>
<polygon fill="midnightblue" stroke="midnightblue" points="189.01,-461.38 178.8,-464.21 188.54,-468.37 189.01,-461.38"/>
</g>
<!-- Node20 -->
<g id="node20" class="node">
<title>Node20</title>
<g id="a_node20"><a xlink:href="_table_class_8hpp.html" target="_top" xlink:title=" ">
<polygon fill="white" stroke="black" points="1101.75,-450.5 1101.75,-469.75 1185.25,-469.75 1185.25,-450.5 1101.75,-450.5"/>
<text xml:space="preserve" text-anchor="middle" x="1143.5" y="-456.25" font-family="Helvetica,sans-Serif" font-size="10.00">TableClass.hpp</text>
</a>
</g>
</g>
<!-- Node6&#45;&gt;Node20 -->
<g id="edge20" class="edge">
<title>Node6&#45;&gt;Node20</title>
<path fill="none" stroke="midnightblue" d="M979.47,-506.29C1012.43,-497.22 1063.3,-483.21 1099.64,-473.2"/>
<polygon fill="midnightblue" stroke="midnightblue" points="1100.25,-476.67 1108.96,-470.64 1098.39,-469.92 1100.25,-476.67"/>
</g>
<!-- Node25 -->
<g id="node25" class="node">
<title>Node25</title>
<g id="a_node25"><a xlink:href="_class_class_8hpp.html" target="_top" xlink:title=" ">
<polygon fill="white" stroke="black" points="1327.62,-113 1327.62,-132.25 1413.38,-132.25 1413.38,-113 1327.62,-113"/>
<text xml:space="preserve" text-anchor="middle" x="1370.5" y="-118.75" font-family="Helvetica,sans-Serif" font-size="10.00">ClassClass.hpp</text>
</a>
</g>
</g>
<!-- Node6&#45;&gt;Node25 -->
<g id="edge60" class="edge">
<title>Node6&#45;&gt;Node25</title>
<path fill="none" stroke="midnightblue" d="M981.1,-515.59C1058.93,-515.3 1253.21,-510.24 1409.5,-470.25 1481.14,-451.92 1562.5,-478.82 1562.5,-404.88 1562.5,-404.88 1562.5,-404.88 1562.5,-234.12 1562.5,-170.13 1481.37,-142.64 1424.59,-131.24"/>
<polygon fill="midnightblue" stroke="midnightblue" points="1425.55,-127.86 1415.08,-129.45 1424.26,-134.74 1425.55,-127.86"/>
</g>
<!-- Node30 -->
<g id="node30" class="node">
<title>Node30</title>
<g id="a_node30"><a xlink:href="_rexx_memory_8hpp.html" target="_top" xlink:title=" ">
<polygon fill="white" stroke="black" points="490.62,-450.5 490.62,-469.75 582.38,-469.75 582.38,-450.5 490.62,-450.5"/>
<text xml:space="preserve" text-anchor="middle" x="536.5" y="-456.25" font-family="Helvetica,sans-Serif" font-size="10.00">RexxMemory.hpp</text>
</a>
</g>
</g>
<!-- Node6&#45;&gt;Node30 -->
<g id="edge34" class="edge">
<title>Node6&#45;&gt;Node30</title>
<path fill="none" stroke="midnightblue" d="M912.17,-511.45C850.59,-504.32 717.04,-488.41 593.82,-470.54"/>
<polygon fill="midnightblue" stroke="midnightblue" points="594.59,-467.12 584.19,-469.14 593.58,-474.05 594.59,-467.12"/>
</g>
<!-- Node44 -->
<g id="node44" class="node">
<title>Node44</title>
<g id="a_node44"><a xlink:href="_rexx_behaviour_8hpp.html" target="_top" xlink:title=" ">
<polygon fill="white" stroke="black" points="974.12,-450.5 974.12,-469.75 1074.88,-469.75 1074.88,-450.5 974.12,-450.5"/>
<text xml:space="preserve" text-anchor="middle" x="1024.5" y="-456.25" font-family="Helvetica,sans-Serif" font-size="10.00">RexxBehaviour.hpp</text>
</a>
</g>
</g>
<!-- Node6&#45;&gt;Node44 -->
<g id="edge57" class="edge">
<title>Node6&#45;&gt;Node44</title>
<path fill="none" stroke="midnightblue" d="M959.38,-506.42C971.01,-498.33 988.37,-486.25 1002.25,-476.6"/>
<polygon fill="midnightblue" stroke="midnightblue" points="1004.15,-479.54 1010.36,-470.96 1000.15,-473.8 1004.15,-479.54"/>
</g>
<!-- Node46 -->
<g id="node46" class="node">
<title>Node46</title>
<g id="a_node46"><a xlink:href="_envelope_8hpp.html" target="_top" xlink:title=" ">
<polygon fill="white" stroke="black" points="600.88,-450.5 600.88,-469.75 676.12,-469.75 676.12,-450.5 600.88,-450.5"/>
<text xml:space="preserve" text-anchor="middle" x="638.5" y="-456.25" font-family="Helvetica,sans-Serif" font-size="10.00">Envelope.hpp</text>
</a>
</g>
</g>
<!-- Node6&#45;&gt;Node46 -->
<g id="edge61" class="edge">
<title>Node6&#45;&gt;Node46</title>
<path fill="none" stroke="midnightblue" d="M911.77,-509.26C856.97,-499.61 750.25,-480.81 687.63,-469.78"/>
<polygon fill="midnightblue" stroke="midnightblue" points="688.41,-466.36 677.96,-468.07 687.2,-473.26 688.41,-466.36"/>
</g>
<!-- Node8 -->
<g id="node8" class="node">
<title>Node8</title>
<g id="a_node8"><a xlink:href="rexx_8h.html" target="_top" xlink:title=" ">
<polygon fill="white" stroke="black" points="1303,-394.25 1303,-413.5 1346,-413.5 1346,-394.25 1303,-394.25"/>
<text xml:space="preserve" text-anchor="middle" x="1324.5" y="-400" font-family="Helvetica,sans-Serif" font-size="10.00">rexx.h</text>
</a>
</g>
</g>
<!-- Node7&#45;&gt;Node8 -->
<g id="edge7" class="edge">
<title>Node7&#45;&gt;Node8</title>
<path fill="none" stroke="midnightblue" d="M1255.21,-450.17C1267.7,-442 1286.42,-429.77 1301.25,-420.07"/>
<polygon fill="midnightblue" stroke="midnightblue" points="1303.05,-423.08 1309.51,-414.67 1299.22,-417.22 1303.05,-423.08"/>
</g>
<!-- Node13 -->
<g id="node13" class="node">
<title>Node13</title>
<g id="a_node13"><a xlink:href="oorexxerrors_8h.html" target="_top" xlink:title=" ">
<polygon fill="white" stroke="black" points="1206.38,-394.25 1206.38,-413.5 1284.62,-413.5 1284.62,-394.25 1206.38,-394.25"/>
<text xml:space="preserve" text-anchor="middle" x="1245.5" y="-400" font-family="Helvetica,sans-Serif" font-size="10.00">oorexxerrors.h</text>
</a>
</g>
</g>
<!-- Node7&#45;&gt;Node13 -->
<g id="edge12" class="edge">
<title>Node7&#45;&gt;Node13</title>
<path fill="none" stroke="midnightblue" d="M1242.16,-450.17C1242.66,-443.37 1243.37,-433.76 1244.01,-425.15"/>
<polygon fill="midnightblue" stroke="midnightblue" points="1247.5,-425.41 1244.74,-415.18 1240.51,-424.89 1247.5,-425.41"/>
</g>
<!-- Node9 -->
<g id="node9" class="node">
<title>Node9</title>
<g id="a_node9"><a xlink:title=" ">
<polygon fill="white" stroke="#bfbfbf" points="1132.62,-338 1132.62,-357.25 1212.38,-357.25 1212.38,-338 1132.62,-338"/>
<text xml:space="preserve" text-anchor="middle" x="1172.5" y="-343.75" font-family="Helvetica,sans-Serif" font-size="10.00">rexxapitypes.h</text>
</a>
</g>
</g>
<!-- Node8&#45;&gt;Node9 -->
<g id="edge8" class="edge">
<title>Node8&#45;&gt;Node9</title>
<path fill="none" stroke="midnightblue" d="M1302.72,-395.1C1278.19,-386.35 1237.94,-371.98 1208.67,-361.53"/>
<polygon fill="midnightblue" stroke="midnightblue" points="1210.06,-358.32 1199.47,-358.25 1207.71,-364.91 1210.06,-358.32"/>
</g>
<!-- Node10 -->
<g id="node10" class="node">
<title>Node10</title>
<g id="a_node10"><a xlink:href="rexxapidefs_8h.html" target="_top" xlink:title=" ">
<polygon fill="white" stroke="black" points="1230.25,-338 1230.25,-357.25 1304.75,-357.25 1304.75,-338 1230.25,-338"/>
<text xml:space="preserve" text-anchor="middle" x="1267.5" y="-343.75" font-family="Helvetica,sans-Serif" font-size="10.00">rexxapidefs.h</text>
</a>
</g>
</g>
<!-- Node8&#45;&gt;Node10 -->
<g id="edge9" class="edge">
<title>Node8&#45;&gt;Node10</title>
<path fill="none" stroke="midnightblue" d="M1315.09,-393.92C1306.87,-386.1 1294.73,-374.55 1284.78,-365.07"/>
<polygon fill="midnightblue" stroke="midnightblue" points="1287.49,-362.82 1277.83,-358.46 1282.66,-367.89 1287.49,-362.82"/>
</g>
<!-- Node11 -->
<g id="node11" class="node">
<title>Node11</title>
<g id="a_node11"><a xlink:title=" ">
<polygon fill="white" stroke="#bfbfbf" points="1323,-338 1323,-357.25 1420,-357.25 1420,-338 1323,-338"/>
<text xml:space="preserve" text-anchor="middle" x="1371.5" y="-343.75" font-family="Helvetica,sans-Serif" font-size="10.00">rexxplatformdefs.h</text>
</a>
</g>
</g>
<!-- Node8&#45;&gt;Node11 -->
<g id="edge10" class="edge">
<title>Node8&#45;&gt;Node11</title>
<path fill="none" stroke="midnightblue" d="M1332.26,-393.92C1338.83,-386.33 1348.44,-375.24 1356.5,-365.93"/>
<polygon fill="midnightblue" stroke="midnightblue" points="1358.99,-368.41 1362.89,-358.56 1353.7,-363.83 1358.99,-368.41"/>
</g>
<!-- Node12 -->
<g id="node12" class="node">
<title>Node12</title>
<g id="a_node12"><a xlink:title=" ">
<polygon fill="white" stroke="#bfbfbf" points="1438.38,-338 1438.38,-357.25 1534.62,-357.25 1534.62,-338 1438.38,-338"/>
<text xml:space="preserve" text-anchor="middle" x="1486.5" y="-343.75" font-family="Helvetica,sans-Serif" font-size="10.00">rexxplatformapis.h</text>
</a>
</g>
</g>
<!-- Node8&#45;&gt;Node12 -->
<g id="edge11" class="edge">
<title>Node8&#45;&gt;Node12</title>
<path fill="none" stroke="midnightblue" d="M1346.35,-395.56C1372.54,-386.79 1416.87,-371.94 1448.66,-361.3"/>
<polygon fill="midnightblue" stroke="midnightblue" points="1449.53,-364.7 1457.9,-358.2 1447.31,-358.06 1449.53,-364.7"/>
</g>
<!-- Node16&#45;&gt;Node4 -->
<g id="edge18" class="edge">
<title>Node16&#45;&gt;Node4</title>
<path fill="none" stroke="midnightblue" d="M127.7,-469.92C121.14,-483.22 111.41,-508.79 122.5,-526.5 132.36,-542.24 149.45,-552.63 166.32,-559.43"/>
<polygon fill="midnightblue" stroke="midnightblue" points="164.7,-562.56 175.3,-562.69 167.09,-555.98 164.7,-562.56"/>
</g>
<!-- Node17 -->
<g id="node17" class="node">
<title>Node17</title>
<g id="a_node17"><a xlink:title=" ">
<polygon fill="white" stroke="#bfbfbf" points="115.5,-394.25 115.5,-413.5 149.5,-413.5 149.5,-394.25 115.5,-394.25"/>
<text xml:space="preserve" text-anchor="middle" x="132.5" y="-400" font-family="Helvetica,sans-Serif" font-size="10.00">new</text>
</a>
</g>
</g>
<!-- Node16&#45;&gt;Node17 -->
<g id="edge16" class="edge">
<title>Node16&#45;&gt;Node17</title>
<path fill="none" stroke="midnightblue" d="M132.5,-450.17C132.5,-443.37 132.5,-433.76 132.5,-425.15"/>
<polygon fill="midnightblue" stroke="midnightblue" points="136,-425.18 132.5,-415.18 129,-425.18 136,-425.18"/>
</g>
<!-- Node18 -->
<g id="node18" class="node">
<title>Node18</title>
<g id="a_node18"><a xlink:title=" ">
<polygon fill="white" stroke="#bfbfbf" points="362.38,-169.25 362.38,-188.5 410.62,-188.5 410.62,-169.25 362.38,-169.25"/>
<text xml:space="preserve" text-anchor="middle" x="386.5" y="-175" font-family="Helvetica,sans-Serif" font-size="10.00">string.h</text>
</a>
</g>
</g>
<!-- Node16&#45;&gt;Node18 -->
<g id="edge17" class="edge">
<title>Node16&#45;&gt;Node18</title>
<path fill="none" stroke="midnightblue" d="M138.95,-450.17C151.39,-431.99 177.5,-389.02 177.5,-348.62 177.5,-348.62 177.5,-348.62 177.5,-290.38 177.5,-212.84 291.3,-189.56 350.96,-182.69"/>
<polygon fill="midnightblue" stroke="midnightblue" points="351.03,-186.2 360.61,-181.68 350.3,-179.24 351.03,-186.2"/>
</g>
<!-- Node19 -->
<g id="node19" class="node">
<title>Node19</title>
<g id="a_node19"><a xlink:href="_rexx_error_codes_8h.html" target="_top" xlink:title=" ">
<polygon fill="white" stroke="black" points="0,-394.25 0,-413.5 97,-413.5 97,-394.25 0,-394.25"/>
<text xml:space="preserve" text-anchor="middle" x="48.5" y="-400" font-family="Helvetica,sans-Serif" font-size="10.00">RexxErrorCodes.h</text>
</a>
</g>
</g>
<!-- Node16&#45;&gt;Node19 -->
<g id="edge19" class="edge">
<title>Node16&#45;&gt;Node19</title>
<path fill="none" stroke="midnightblue" d="M118.63,-450.17C105.98,-442 87.04,-429.77 72.03,-420.07"/>
<polygon fill="midnightblue" stroke="midnightblue" points="73.96,-417.15 63.66,-414.67 70.16,-423.03 73.96,-417.15"/>
</g>
<!-- Node21 -->
<g id="node21" class="node">
<title>Node21</title>
<g id="a_node21"><a xlink:href="_hash_collection_8hpp.html" target="_top" xlink:title=" ">
<polygon fill="white" stroke="black" points="1012.75,-338 1012.75,-357.25 1114.25,-357.25 1114.25,-338 1012.75,-338"/>
<text xml:space="preserve" text-anchor="middle" x="1063.5" y="-343.75" font-family="Helvetica,sans-Serif" font-size="10.00">HashCollection.hpp</text>
</a>
</g>
</g>
<!-- Node20&#45;&gt;Node21 -->
<g id="edge21" class="edge">
<title>Node20&#45;&gt;Node21</title>
<path fill="none" stroke="midnightblue" d="M1149.6,-450.4C1158,-437.17 1170.9,-411.7 1159.5,-393.75 1149.86,-378.57 1133.62,-368.41 1117.2,-361.64"/>
<polygon fill="midnightblue" stroke="midnightblue" points="1118.47,-358.38 1107.88,-358.19 1116.05,-364.95 1118.47,-358.38"/>
</g>
<!-- Node22 -->
<g id="node22" class="node">
<title>Node22</title>
<g id="a_node22"><a xlink:href="_hash_contents_8hpp.html" target="_top" xlink:title=" ">
<polygon fill="white" stroke="black" points="1098.62,-281.75 1098.62,-301 1196.38,-301 1196.38,-281.75 1098.62,-281.75"/>
<text xml:space="preserve" text-anchor="middle" x="1147.5" y="-287.5" font-family="Helvetica,sans-Serif" font-size="10.00">HashContents.hpp</text>
</a>
</g>
</g>
<!-- Node21&#45;&gt;Node22 -->
<g id="edge22" class="edge">
<title>Node21&#45;&gt;Node22</title>
<path fill="none" stroke="midnightblue" d="M1077.37,-337.67C1090.02,-329.5 1108.96,-317.27 1123.97,-307.57"/>
<polygon fill="midnightblue" stroke="midnightblue" points="1125.84,-310.53 1132.34,-302.17 1122.04,-304.65 1125.84,-310.53"/>
</g>
<!-- Node22&#45;&gt;Node23 -->
<g id="edge23" class="edge">
<title>Node22&#45;&gt;Node23</title>
<path fill="none" stroke="midnightblue" d="M1161.37,-281.42C1174.02,-273.25 1192.96,-261.02 1207.97,-251.32"/>
<polygon fill="midnightblue" stroke="midnightblue" points="1209.84,-254.28 1216.34,-245.92 1206.04,-248.4 1209.84,-254.28"/>
</g>
<!-- Node23&#45;&gt;Node2 -->
<g id="edge32" class="edge">
<title>Node23&#45;&gt;Node2</title>
<path fill="none" stroke="midnightblue" d="M1243.15,-225.12C1253.48,-216.67 1268.45,-203.23 1278.5,-189 1301.72,-156.15 1318.74,-111.92 1327.29,-86.86"/>
<polygon fill="midnightblue" stroke="midnightblue" points="1330.51,-88.25 1330.32,-77.66 1323.87,-86.06 1330.51,-88.25"/>
</g>
<!-- Node23&#45;&gt;Node18 -->
<g id="edge33" class="edge">
<title>Node23&#45;&gt;Node18</title>
<path fill="none" stroke="midnightblue" d="M1188.14,-231.34C1040.38,-221.86 558.19,-190.9 422.39,-182.18"/>
<polygon fill="midnightblue" stroke="midnightblue" points="422.77,-178.7 412.57,-181.55 422.32,-185.68 422.77,-178.7"/>
</g>
<!-- Node24 -->
<g id="node24" class="node">
<title>Node24</title>
<g id="a_node24"><a xlink:href="_integer_class_8hpp.html" target="_top" xlink:title=" ">
<polygon fill="white" stroke="black" points="1325.38,-169.25 1325.38,-188.5 1415.62,-188.5 1415.62,-169.25 1325.38,-169.25"/>
<text xml:space="preserve" text-anchor="middle" x="1370.5" y="-175" font-family="Helvetica,sans-Serif" font-size="10.00">IntegerClass.hpp</text>
</a>
</g>
</g>
<!-- Node23&#45;&gt;Node24 -->
<g id="edge24" class="edge">
<title>Node23&#45;&gt;Node24</title>
<path fill="none" stroke="midnightblue" d="M1254.77,-225.04C1277.12,-216.32 1311.14,-203.04 1336.52,-193.14"/>
<polygon fill="midnightblue" stroke="midnightblue" points="1337.71,-196.43 1345.75,-189.54 1335.16,-189.91 1337.71,-196.43"/>
</g>
<!-- Node26 -->
<g id="node26" class="node">
<title>Node26</title>
<g id="a_node26"><a xlink:href="_string_util_8hpp.html" target="_top" xlink:title=" ">
<polygon fill="white" stroke="black" points="1193.88,-169.25 1193.88,-188.5 1269.12,-188.5 1269.12,-169.25 1193.88,-169.25"/>
<text xml:space="preserve" text-anchor="middle" x="1231.5" y="-175" font-family="Helvetica,sans-Serif" font-size="10.00">StringUtil.hpp</text>
</a>
</g>
</g>
<!-- Node23&#45;&gt;Node26 -->
<g id="edge27" class="edge">
<title>Node23&#45;&gt;Node26</title>
<path fill="none" stroke="midnightblue" d="M1231.5,-225.17C1231.5,-218.37 1231.5,-208.76 1231.5,-200.15"/>
<polygon fill="midnightblue" stroke="midnightblue" points="1235,-200.18 1231.5,-190.18 1228,-200.18 1235,-200.18"/>
</g>
<!-- Node28 -->
<g id="node28" class="node">
<title>Node28</title>
<g id="a_node28"><a xlink:href="_utilities_8hpp.html" target="_top" xlink:title=" ">
<polygon fill="white" stroke="black" points="1131.62,-113 1131.62,-132.25 1199.38,-132.25 1199.38,-113 1131.62,-113"/>
<text xml:space="preserve" text-anchor="middle" x="1165.5" y="-118.75" font-family="Helvetica,sans-Serif" font-size="10.00">Utilities.hpp</text>
</a>
</g>
</g>
<!-- Node23&#45;&gt;Node28 -->
<g id="edge31" class="edge">
<title>Node23&#45;&gt;Node28</title>
<path fill="none" stroke="midnightblue" d="M1218.94,-225.12C1208.3,-216.86 1193.4,-203.71 1184.5,-189 1176.07,-175.07 1171.21,-157.19 1168.52,-143.65"/>
<polygon fill="midnightblue" stroke="midnightblue" points="1172.03,-143.42 1166.87,-134.17 1165.13,-144.62 1172.03,-143.42"/>
</g>
<!-- Node24&#45;&gt;Node25 -->
<g id="edge25" class="edge">
<title>Node24&#45;&gt;Node25</title>
<path fill="none" stroke="midnightblue" d="M1370.5,-168.92C1370.5,-162.12 1370.5,-152.51 1370.5,-143.9"/>
<polygon fill="midnightblue" stroke="midnightblue" points="1374,-143.93 1370.5,-133.93 1367,-143.93 1374,-143.93"/>
</g>
<!-- Node25&#45;&gt;Node2 -->
<g id="edge26" class="edge">
<title>Node25&#45;&gt;Node2</title>
<path fill="none" stroke="midnightblue" d="M1364.39,-112.67C1359.38,-105.32 1352.12,-94.68 1345.9,-85.56"/>
<polygon fill="midnightblue" stroke="midnightblue" points="1348.88,-83.71 1340.35,-77.42 1343.09,-87.65 1348.88,-83.71"/>
</g>
<!-- Node27 -->
<g id="node27" class="node">
<title>Node27</title>
<g id="a_node27"><a xlink:title=" ">
<polygon fill="white" stroke="#bfbfbf" points="1217.38,-113 1217.38,-132.25 1265.62,-132.25 1265.62,-113 1217.38,-113"/>
<text xml:space="preserve" text-anchor="middle" x="1241.5" y="-118.75" font-family="Helvetica,sans-Serif" font-size="10.00">ctype.h</text>
</a>
</g>
</g>
<!-- Node26&#45;&gt;Node27 -->
<g id="edge28" class="edge">
<title>Node26&#45;&gt;Node27</title>
<path fill="none" stroke="midnightblue" d="M1233.15,-168.92C1234.42,-162.04 1236.22,-152.29 1237.82,-143.6"/>
<polygon fill="midnightblue" stroke="midnightblue" points="1241.23,-144.37 1239.61,-133.91 1234.35,-143.1 1241.23,-144.37"/>
</g>
<!-- Node26&#45;&gt;Node28 -->
<g id="edge29" class="edge">
<title>Node26&#45;&gt;Node28</title>
<path fill="none" stroke="midnightblue" d="M1220.6,-168.92C1210.89,-160.94 1196.47,-149.08 1184.81,-139.5"/>
<polygon fill="midnightblue" stroke="midnightblue" points="1187.31,-137.02 1177.37,-133.38 1182.87,-142.43 1187.31,-137.02"/>
</g>
<!-- Node29 -->
<g id="node29" class="node">
<title>Node29</title>
<g id="a_node29"><a xlink:title=" ">
<polygon fill="white" stroke="#bfbfbf" points="1132,-56.75 1132,-76 1199,-76 1199,-56.75 1132,-56.75"/>
<text xml:space="preserve" text-anchor="middle" x="1165.5" y="-62.5" font-family="Helvetica,sans-Serif" font-size="10.00">sys/types.h</text>
</a>
</g>
</g>
<!-- Node28&#45;&gt;Node29 -->
<g id="edge30" class="edge">
<title>Node28&#45;&gt;Node29</title>
<path fill="none" stroke="midnightblue" d="M1165.5,-112.67C1165.5,-105.87 1165.5,-96.26 1165.5,-87.65"/>
<polygon fill="midnightblue" stroke="midnightblue" points="1169,-87.68 1165.5,-77.68 1162,-87.68 1169,-87.68"/>
</g>
<!-- Node31 -->
<g id="node31" class="node">
<title>Node31</title>
<g id="a_node31"><a xlink:href="_memory_8hpp.html" target="_top" xlink:title=" ">
<polygon fill="white" stroke="black" points="520.25,-338 520.25,-357.25 588.75,-357.25 588.75,-338 520.25,-338"/>
<text xml:space="preserve" text-anchor="middle" x="554.5" y="-343.75" font-family="Helvetica,sans-Serif" font-size="10.00">Memory.hpp</text>
</a>
</g>
</g>
<!-- Node30&#45;&gt;Node31 -->
<g id="edge35" class="edge">
<title>Node30&#45;&gt;Node31</title>
<path fill="none" stroke="midnightblue" d="M544.71,-450.28C552.04,-441.73 562.26,-428.05 566.5,-414 571.05,-398.95 567.35,-381.39 562.9,-368.27"/>
<polygon fill="midnightblue" stroke="midnightblue" points="566.22,-367.14 559.36,-359.07 559.69,-369.66 566.22,-367.14"/>
</g>
<!-- Node32 -->
<g id="node32" class="node">
<title>Node32</title>
<g id="a_node32"><a xlink:href="_memory_stack_8hpp.html" target="_top" xlink:title=" ">
<polygon fill="white" stroke="black" points="300.75,-225.5 300.75,-244.75 396.25,-244.75 396.25,-225.5 300.75,-225.5"/>
<text xml:space="preserve" text-anchor="middle" x="348.5" y="-231.25" font-family="Helvetica,sans-Serif" font-size="10.00">MemoryStack.hpp</text>
</a>
</g>
</g>
<!-- Node30&#45;&gt;Node32 -->
<g id="edge36" class="edge">
<title>Node30&#45;&gt;Node32</title>
<path fill="none" stroke="midnightblue" d="M490.17,-458.55C454.41,-455.49 406.46,-445.25 378.5,-414 338.53,-369.32 341.56,-292 345.63,-255.84"/>
<polygon fill="midnightblue" stroke="midnightblue" points="349.04,-256.75 346.86,-246.39 342.1,-255.85 349.04,-256.75"/>
</g>
<!-- Node33 -->
<g id="node33" class="node">
<title>Node33</title>
<g id="a_node33"><a xlink:title=" ">
<polygon fill="white" stroke="#bfbfbf" points="627.75,-281.75 627.75,-301 729.25,-301 729.25,-281.75 627.75,-281.75"/>
<text xml:space="preserve" text-anchor="middle" x="678.5" y="-287.5" font-family="Helvetica,sans-Serif" font-size="10.00">SysSemaphore.hpp</text>
</a>
</g>
</g>
<!-- Node30&#45;&gt;Node33 -->
<g id="edge38" class="edge">
<title>Node30&#45;&gt;Node33</title>
<path fill="none" stroke="midnightblue" d="M565.55,-450.08C602.95,-436.68 666.34,-407.61 693.5,-357.75 701.33,-343.37 696.03,-325.06 689.67,-311.48"/>
<polygon fill="midnightblue" stroke="midnightblue" points="692.8,-309.92 685.04,-302.71 686.61,-313.19 692.8,-309.92"/>
</g>
<!-- Node34 -->
<g id="node34" class="node">
<title>Node34</title>
<g id="a_node34"><a xlink:href="_identity_table_class_8hpp.html" target="_top" xlink:title=" ">
<polygon fill="white" stroke="black" points="802.62,-394.25 802.62,-413.5 918.38,-413.5 918.38,-394.25 802.62,-394.25"/>
<text xml:space="preserve" text-anchor="middle" x="860.5" y="-400" font-family="Helvetica,sans-Serif" font-size="10.00">IdentityTableClass.hpp</text>
</a>
</g>
</g>
<!-- Node30&#45;&gt;Node34 -->
<g id="edge39" class="edge">
<title>Node30&#45;&gt;Node34</title>
<path fill="none" stroke="midnightblue" d="M582.58,-451.41C638.2,-442.1 732.12,-426.37 795.19,-415.81"/>
<polygon fill="midnightblue" stroke="midnightblue" points="795.43,-419.32 804.71,-414.22 794.27,-412.42 795.43,-419.32"/>
</g>
<!-- Node35 -->
<g id="node35" class="node">
<title>Node35</title>
<g id="a_node35"><a xlink:href="_queue_class_8hpp.html" target="_top" xlink:title=" ">
<polygon fill="white" stroke="black" points="243.12,-394.25 243.12,-413.5 331.88,-413.5 331.88,-394.25 243.12,-394.25"/>
<text xml:space="preserve" text-anchor="middle" x="287.5" y="-400" font-family="Helvetica,sans-Serif" font-size="10.00">QueueClass.hpp</text>
</a>
</g>
</g>
<!-- Node30&#45;&gt;Node35 -->
<g id="edge41" class="edge">
<title>Node30&#45;&gt;Node35</title>
<path fill="none" stroke="midnightblue" d="M494.82,-450.04C452.36,-440.79 386.37,-426.42 340.28,-416.37"/>
<polygon fill="midnightblue" stroke="midnightblue" points="341.31,-413.02 330.79,-414.31 339.82,-419.86 341.31,-413.02"/>
</g>
<!-- Node38 -->
<g id="node38" class="node">
<title>Node38</title>
<g id="a_node38"><a xlink:title=" ">
<polygon fill="white" stroke="#bfbfbf" points="515,-394.25 515,-413.5 558,-413.5 558,-394.25 515,-394.25"/>
<text xml:space="preserve" text-anchor="middle" x="536.5" y="-400" font-family="Helvetica,sans-Serif" font-size="10.00">vector</text>
</a>
</g>
</g>
<!-- Node30&#45;&gt;Node38 -->
<g id="edge45" class="edge">
<title>Node30&#45;&gt;Node38</title>
<path fill="none" stroke="midnightblue" d="M536.5,-450.17C536.5,-443.37 536.5,-433.76 536.5,-425.15"/>
<polygon fill="midnightblue" stroke="midnightblue" points="540,-425.18 536.5,-415.18 533,-425.18 540,-425.18"/>
</g>
<!-- Node39 -->
<g id="node39" class="node">
<title>Node39</title>
<g id="a_node39"><a xlink:href="_memory_stats_8hpp.html" target="_top" xlink:title=" ">
<polygon fill="white" stroke="black" points="690.88,-394.25 690.88,-413.5 784.12,-413.5 784.12,-394.25 690.88,-394.25"/>
<text xml:space="preserve" text-anchor="middle" x="737.5" y="-400" font-family="Helvetica,sans-Serif" font-size="10.00">MemoryStats.hpp</text>
</a>
</g>
</g>
<!-- Node30&#45;&gt;Node39 -->
<g id="edge46" class="edge">
<title>Node30&#45;&gt;Node39</title>
<path fill="none" stroke="midnightblue" d="M570.14,-450.04C603.77,-440.97 655.67,-426.96 692.75,-416.95"/>
<polygon fill="midnightblue" stroke="midnightblue" points="693.54,-420.36 702.29,-414.38 691.72,-413.61 693.54,-420.36"/>
</g>
<!-- Node40 -->
<g id="node40" class="node">
<title>Node40</title>
<g id="a_node40"><a xlink:href="_memory_segment_8hpp.html" target="_top" xlink:title=" ">
<polygon fill="white" stroke="black" points="388,-394.25 388,-413.5 497,-413.5 497,-394.25 388,-394.25"/>
<text xml:space="preserve" text-anchor="middle" x="442.5" y="-400" font-family="Helvetica,sans-Serif" font-size="10.00">MemorySegment.hpp</text>
</a>
</g>
</g>
<!-- Node30&#45;&gt;Node40 -->
<g id="edge48" class="edge">
<title>Node30&#45;&gt;Node40</title>
<path fill="none" stroke="midnightblue" d="M520.98,-450.17C506.55,-441.84 484.81,-429.29 467.87,-419.52"/>
<polygon fill="midnightblue" stroke="midnightblue" points="469.77,-416.57 459.36,-414.6 466.27,-422.63 469.77,-416.57"/>
</g>
<!-- Node32&#45;&gt;Node18 -->
<g id="edge37" class="edge">
<title>Node32&#45;&gt;Node18</title>
<path fill="none" stroke="midnightblue" d="M354.77,-225.17C359.92,-217.82 367.37,-207.18 373.76,-198.06"/>
<polygon fill="midnightblue" stroke="midnightblue" points="376.6,-200.1 379.47,-189.91 370.87,-196.09 376.6,-200.1"/>
</g>
<!-- Node34&#45;&gt;Node21 -->
<g id="edge40" class="edge">
<title>Node34&#45;&gt;Node21</title>
<path fill="none" stroke="midnightblue" d="M894.48,-393.79C928.44,-384.72 980.85,-370.71 1018.31,-360.7"/>
<polygon fill="midnightblue" stroke="midnightblue" points="1019.19,-364.09 1027.95,-358.13 1017.38,-357.33 1019.19,-364.09"/>
</g>
<!-- Node36 -->
<g id="node36" class="node">
<title>Node36</title>
<g id="a_node36"><a xlink:href="_array_class_8hpp.html" target="_top" xlink:title=" ">
<polygon fill="white" stroke="black" points="226.75,-338 226.75,-357.25 310.25,-357.25 310.25,-338 226.75,-338"/>
<text xml:space="preserve" text-anchor="middle" x="268.5" y="-343.75" font-family="Helvetica,sans-Serif" font-size="10.00">ArrayClass.hpp</text>
</a>
</g>
</g>
<!-- Node35&#45;&gt;Node36 -->
<g id="edge42" class="edge">
<title>Node35&#45;&gt;Node36</title>
<path fill="none" stroke="midnightblue" d="M284.36,-393.92C281.9,-386.89 278.38,-376.84 275.28,-368"/>
<polygon fill="midnightblue" stroke="midnightblue" points="278.69,-367.13 272.08,-358.85 272.08,-369.44 278.69,-367.13"/>
</g>
<!-- Node36&#45;&gt;Node4 -->
<g id="edge44" class="edge">
<title>Node36&#45;&gt;Node4</title>
<path fill="none" stroke="midnightblue" d="M259.25,-357.72C251.22,-366.22 240.05,-379.7 234.5,-393.75 213.16,-447.8 212.86,-517.85 214.25,-551.65"/>
<polygon fill="midnightblue" stroke="midnightblue" points="210.73,-551.4 214.75,-561.21 217.72,-551.04 210.73,-551.4"/>
</g>
<!-- Node37 -->
<g id="node37" class="node">
<title>Node37</title>
<g id="a_node37"><a xlink:href="_number_array_8hpp.html" target="_top" xlink:title=" ">
<polygon fill="white" stroke="black" points="223,-281.75 223,-301 314,-301 314,-281.75 223,-281.75"/>
<text xml:space="preserve" text-anchor="middle" x="268.5" y="-287.5" font-family="Helvetica,sans-Serif" font-size="10.00">NumberArray.hpp</text>
</a>
</g>
</g>
<!-- Node36&#45;&gt;Node37 -->
<g id="edge43" class="edge">
<title>Node36&#45;&gt;Node37</title>
<path fill="none" stroke="midnightblue" d="M268.5,-337.67C268.5,-330.87 268.5,-321.26 268.5,-312.65"/>
<polygon fill="midnightblue" stroke="midnightblue" points="272,-312.68 268.5,-302.68 265,-312.68 272,-312.68"/>
</g>
<!-- Node39&#45;&gt;Node15 -->
<g id="edge47" class="edge">
<title>Node39&#45;&gt;Node15</title>
<path fill="none" stroke="midnightblue" d="M753.85,-393.92C769.11,-385.55 792.15,-372.93 810.04,-363.13"/>
<polygon fill="midnightblue" stroke="midnightblue" points="811.71,-366.2 818.8,-358.32 808.35,-360.06 811.71,-366.2"/>
</g>
<!-- Node40&#45;&gt;Node31 -->
<g id="edge55" class="edge">
<title>Node40&#45;&gt;Node31</title>
<path fill="none" stroke="midnightblue" d="M461.25,-393.79C478.77,-385.31 505.2,-372.5 525.46,-362.69"/>
<polygon fill="midnightblue" stroke="midnightblue" points="526.86,-365.9 534.33,-358.39 523.8,-359.6 526.86,-365.9"/>
</g>
<!-- Node41 -->
<g id="node41" class="node">
<title>Node41</title>
<g id="a_node41"><a xlink:href="_dead_object_8hpp.html" target="_top" xlink:title=" ">
<polygon fill="white" stroke="black" points="378.25,-338 378.25,-357.25 464.75,-357.25 464.75,-338 378.25,-338"/>
<text xml:space="preserve" text-anchor="middle" x="421.5" y="-343.75" font-family="Helvetica,sans-Serif" font-size="10.00">DeadObject.hpp</text>
</a>
</g>
</g>
<!-- Node40&#45;&gt;Node41 -->
<g id="edge49" class="edge">
<title>Node40&#45;&gt;Node41</title>
<path fill="none" stroke="midnightblue" d="M439.03,-393.92C436.31,-386.89 432.42,-376.84 429,-368"/>
<polygon fill="midnightblue" stroke="midnightblue" points="432.32,-366.89 425.45,-358.83 425.8,-369.42 432.32,-366.89"/>
</g>
<!-- Node42 -->
<g id="node42" class="node">
<title>Node42</title>
<g id="a_node42"><a xlink:title=" ">
<polygon fill="white" stroke="#bfbfbf" points="462.88,-281.75 462.88,-301 508.12,-301 508.12,-281.75 462.88,-281.75"/>
<text xml:space="preserve" text-anchor="middle" x="485.5" y="-287.5" font-family="Helvetica,sans-Serif" font-size="10.00">stdio.h</text>
</a>
</g>
</g>
<!-- Node40&#45;&gt;Node42 -->
<g id="edge56" class="edge">
<title>Node40&#45;&gt;Node42</title>
<path fill="none" stroke="midnightblue" d="M450.4,-393.87C457.57,-385.21 467.84,-371.45 473.5,-357.75 479.51,-343.2 482.52,-325.6 484.02,-312.32"/>
<polygon fill="midnightblue" stroke="midnightblue" points="487.48,-312.95 484.91,-302.67 480.51,-312.31 487.48,-312.95"/>
</g>
<!-- Node43 -->
<g id="node43" class="node">
<title>Node43</title>
<g id="a_node43"><a xlink:href="_interpreter_8hpp.html" target="_top" xlink:title=" ">
<polygon fill="white" stroke="black" points="606.38,-338 606.38,-357.25 684.62,-357.25 684.62,-338 606.38,-338"/>
<text xml:space="preserve" text-anchor="middle" x="645.5" y="-343.75" font-family="Helvetica,sans-Serif" font-size="10.00">Interpreter.hpp</text>
</a>
</g>
</g>
<!-- Node40&#45;&gt;Node43 -->
<g id="edge52" class="edge">
<title>Node40&#45;&gt;Node43</title>
<path fill="none" stroke="midnightblue" d="M476.48,-393.79C510.44,-384.72 562.85,-370.71 600.31,-360.7"/>
<polygon fill="midnightblue" stroke="midnightblue" points="601.19,-364.09 609.95,-358.13 599.38,-357.33 601.19,-364.09"/>
</g>
<!-- Node41&#45;&gt;Node18 -->
<g id="edge50" class="edge">
<title>Node41&#45;&gt;Node18</title>
<path fill="none" stroke="midnightblue" d="M421.14,-337.61C420.14,-317.22 416.64,-266.11 405.5,-225 403.14,-216.29 399.47,-207.04 395.98,-199.21"/>
<polygon fill="midnightblue" stroke="midnightblue" points="399.23,-197.89 391.82,-190.32 392.89,-200.86 399.23,-197.89"/>
</g>
<!-- Node41&#45;&gt;Node42 -->
<g id="edge51" class="edge">
<title>Node41&#45;&gt;Node42</title>
<path fill="none" stroke="midnightblue" d="M432.07,-337.67C441.39,-329.77 455.2,-318.06 466.44,-308.53"/>
<polygon fill="midnightblue" stroke="midnightblue" points="468.61,-311.28 473.97,-302.15 464.08,-305.94 468.61,-311.28"/>
</g>
<!-- Node43&#45;&gt;Node6 -->
<g id="edge53" class="edge">
<title>Node43&#45;&gt;Node6</title>
<path fill="none" stroke="midnightblue" d="M648.17,-357.51C652.79,-371.42 663.52,-398.34 681.5,-414 745.62,-469.83 843.75,-496.46 900.87,-507.89"/>
<polygon fill="midnightblue" stroke="midnightblue" points="900.1,-511.3 910.59,-509.75 901.42,-504.43 900.1,-511.3"/>
</g>
<!-- Node43&#45;&gt;Node33 -->
<g id="edge54" class="edge">
<title>Node43&#45;&gt;Node33</title>
<path fill="none" stroke="midnightblue" d="M650.95,-337.67C655.37,-330.4 661.75,-319.91 667.26,-310.86"/>
<polygon fill="midnightblue" stroke="midnightblue" points="670.16,-312.82 672.37,-302.46 664.18,-309.18 670.16,-312.82"/>
</g>
<!-- Node44&#45;&gt;Node2 -->
<g id="edge58" class="edge">
<title>Node44&#45;&gt;Node2</title>
<path fill="none" stroke="midnightblue" d="M1018.77,-450.07C1007.71,-431.7 984.5,-388.41 984.5,-348.62 984.5,-348.62 984.5,-348.62 984.5,-177.88 984.5,-115.03 1192.75,-83.34 1287.52,-72.17"/>
<polygon fill="midnightblue" stroke="midnightblue" points="1287.72,-75.67 1297.26,-71.06 1286.92,-68.72 1287.72,-75.67"/>
</g>
<!-- Node45 -->
<g id="node45" class="node">
<title>Node45</title>
<g id="a_node45"><a xlink:href="_primitive_behaviour_names_8h.html" target="_top" xlink:title=" ">
<polygon fill="white" stroke="black" points="1012.75,-394.25 1012.75,-413.5 1150.25,-413.5 1150.25,-394.25 1012.75,-394.25"/>
<text xml:space="preserve" text-anchor="middle" x="1081.5" y="-400" font-family="Helvetica,sans-Serif" font-size="10.00">PrimitiveBehaviourNames.h</text>
</a>
</g>
</g>
<!-- Node44&#45;&gt;Node45 -->
<g id="edge59" class="edge">
<title>Node44&#45;&gt;Node45</title>
<path fill="none" stroke="midnightblue" d="M1033.91,-450.17C1042.13,-442.35 1054.27,-430.8 1064.22,-421.32"/>
<polygon fill="midnightblue" stroke="midnightblue" points="1066.34,-424.14 1071.17,-414.71 1061.51,-419.07 1066.34,-424.14"/>
</g>
</g>
</svg>
