<?xml version="1.0" encoding="UTF-8" standalone="no"?>
<!DOCTYPE svg PUBLIC "-//W3C//DTD SVG 1.1//EN"
 "http://www.w3.org/Graphics/SVG/1.1/DTD/svg11.dtd">
<!-- Generated by graphviz version 13.1.0 (20250701.0955)
 -->
<!-- Title: PrimitiveBehaviourNames.h Pages: 1 -->
<!--zoomable 253 -->
<svg id="main" version="1.1" xmlns="http://www.w3.org/2000/svg" xmlns:xlink="http://www.w3.org/1999/xlink" xml:space="preserve" onload="init(evt)">
<style type="text/css"><![CDATA[
.edge:hover path { stroke: red; }
.edge:hover polygon { stroke: red; fill: red; }
]]></style>
<script type="text/javascript"><![CDATA[
var edges = document.getElementsByTagName('g');
if (edges && edges.length) {
  for (var i=0;i<edges.length;i++) {
    if (edges[i].id.substr(0,4)=='edge') {
      edges[i].setAttribute('class','edge');
    }
  }
}
]]></script>
        <defs>
                <circle id="rim" cx="0" cy="0" r="7"/>
                <circle id="rim2" cx="0" cy="0" r="3.5"/>
                <g id="zoomPlus">
                        <use xlink:href="#rim" fill="#404040">
                                <set attributeName="fill" to="#808080" begin="zoomplus.mouseover" end="zoomplus.mouseout"/>
                        </use>
                        <path d="M-4,0h8M0,-4v8" fill="none" stroke="white" stroke-width="1.5" pointer-events="none"/>
                </g>
                <g id="zoomMin">
                        <use xlink:href="#rim" fill="#404040">
                                <set attributeName="fill" to="#808080" begin="zoomminus.mouseover" end="zoomminus.mouseout"/>
                        </use>
                        <path d="M-4,0h8" fill="none" stroke="white" stroke-width="1.5" pointer-events="none"/>
                </g>
                <g id="dirArrow">
                        <path fill="none" stroke="white" stroke-width="1.5" d="M0,-3.0v7 M-2.5,-0.5L0,-3.0L2.5,-0.5"/>
                </g>
               <g id="resetDef">
                       <use xlink:href="#rim2" fill="#404040">
                               <set attributeName="fill" to="#808080" begin="reset.mouseover" end="reset.mouseout"/>
                       </use>
               </g>
        </defs>

<script type="text/javascript">
var viewWidth = 5788;
var viewHeight = 253;
var sectionId = 'dynsection-0';
</script>
<script xlink:href="svgpan.js"/>
<svg id="graph" class="graph">
<g id="viewport">
<title>PrimitiveBehaviourNames.h</title>
<polygon fill="white" stroke="none" points="-4,4 -4,-249.25 5783.96,-249.25 5783.96,4 -4,4"/>
<!-- Node1 -->
<g id="node1" class="node">
<title>Node1</title>
<g id="a_node1"><a xlink:title=" ">
<polygon fill="#bfbfbf" stroke="black" points="5465.38,-225.5 5465.38,-244.75 5602.88,-244.75 5602.88,-225.5 5465.38,-225.5"/>
<text xml:space="preserve" text-anchor="middle" x="5534.12" y="-231.25" font-family="Helvetica,sans-Serif" font-size="10.00">PrimitiveBehaviourNames.h</text>
</a>
</g>
</g>
<!-- Node2 -->
<g id="node2" class="node">
<title>Node2</title>
<g id="a_node2"><a xlink:href="_rexx_behaviour_8hpp.html" target="_top" xlink:title=" ">
<polygon fill="white" stroke="black" points="5483.75,-169.25 5483.75,-188.5 5584.5,-188.5 5584.5,-169.25 5483.75,-169.25"/>
<text xml:space="preserve" text-anchor="middle" x="5534.12" y="-175" font-family="Helvetica,sans-Serif" font-size="10.00">RexxBehaviour.hpp</text>
</a>
</g>
</g>
<!-- Node1&#45;&gt;Node2 -->
<g id="edge1" class="edge">
<title>Node1&#45;&gt;Node2</title>
<path fill="none" stroke="midnightblue" d="M5534.12,-213.94C5534.12,-205.23 5534.12,-195.49 5534.12,-188.67"/>
<polygon fill="midnightblue" stroke="midnightblue" points="5530.63,-213.65 5534.13,-223.65 5537.63,-213.65 5530.63,-213.65"/>
</g>
<!-- Node3 -->
<g id="node3" class="node">
<title>Node3</title>
<g id="a_node3"><a xlink:href="_setup_8cpp.html" target="_top" xlink:title=" ">
<polygon fill="white" stroke="black" points="0,-56.75 0,-76 60.25,-76 60.25,-56.75 0,-56.75"/>
<text xml:space="preserve" text-anchor="middle" x="30.12" y="-62.5" font-family="Helvetica,sans-Serif" font-size="10.00">Setup.cpp</text>
</a>
</g>
</g>
<!-- Node2&#45;&gt;Node3 -->
<g id="edge2" class="edge">
<title>Node2&#45;&gt;Node3</title>
<path fill="none" stroke="midnightblue" d="M5472.33,-177.53C4906.41,-174.25 631.65,-147.21 69.12,-76.5 66.37,-76.15 63.52,-75.69 60.67,-75.16"/>
<polygon fill="midnightblue" stroke="midnightblue" points="5471.95,-181.03 5481.97,-177.58 5471.99,-174.03 5471.95,-181.03"/>
</g>
<!-- Node4 -->
<g id="node4" class="node">
<title>Node4</title>
<g id="a_node4"><a xlink:href="_rexx_core_8h.html" target="_top" xlink:title=" ">
<polygon fill="white" stroke="red" points="2856.88,-113 2856.88,-132.25 2925.38,-132.25 2925.38,-113 2856.88,-113"/>
<text xml:space="preserve" text-anchor="middle" x="2891.12" y="-118.75" font-family="Helvetica,sans-Serif" font-size="10.00">RexxCore.h</text>
</a>
</g>
</g>
<!-- Node2&#45;&gt;Node4 -->
<g id="edge3" class="edge">
<title>Node2&#45;&gt;Node4</title>
<path fill="none" stroke="midnightblue" d="M5471.91,-176.6C5102.74,-169.02 3206.22,-130.09 2925.79,-124.34"/>
<polygon fill="midnightblue" stroke="midnightblue" points="5471.81,-180.1 5481.88,-176.8 5471.96,-173.1 5471.81,-180.1"/>
</g>
<!-- Node42 -->
<g id="node39" class="node">
<title>Node42</title>
<g id="a_node39"><a xlink:href="_virtual_function_table_8cpp.html" target="_top" xlink:title=" ">
<polygon fill="white" stroke="black" points="966.5,-0.5 966.5,-19.75 1089.75,-19.75 1089.75,-0.5 966.5,-0.5"/>
<text xml:space="preserve" text-anchor="middle" x="1028.12" y="-6.25" font-family="Helvetica,sans-Serif" font-size="10.00">VirtualFunctionTable.cpp</text>
</a>
</g>
</g>
<!-- Node2&#45;&gt;Node42 -->
<g id="edge54" class="edge">
<title>Node2&#45;&gt;Node42</title>
<path fill="none" stroke="midnightblue" d="M5595.99,-167.94C5682.88,-151.63 5824.3,-114.98 5766.12,-56.25 5722.96,-12.67 1643.59,-11.13 1090.04,-11.12"/>
<polygon fill="midnightblue" stroke="midnightblue" points="5595.59,-164.46 5586.39,-169.7 5596.85,-171.34 5595.59,-164.46"/>
</g>
<!-- Node87 -->
<g id="node48" class="node">
<title>Node87</title>
<g id="a_node48"><a xlink:href="_c_p_p_code_8cpp.html" target="_top" xlink:title=" ">
<polygon fill="white" stroke="black" points="5420.62,-56.75 5420.62,-76 5499.62,-76 5499.62,-56.75 5420.62,-56.75"/>
<text xml:space="preserve" text-anchor="middle" x="5460.12" y="-62.5" font-family="Helvetica,sans-Serif" font-size="10.00">CPPCode.cpp</text>
</a>
</g>
</g>
<!-- Node2&#45;&gt;Node87 -->
<g id="edge53" class="edge">
<title>Node2&#45;&gt;Node87</title>
<path fill="none" stroke="midnightblue" d="M5521.75,-159.4C5505.64,-135.33 5478.1,-94.22 5466.06,-76.23"/>
<polygon fill="midnightblue" stroke="midnightblue" points="5518.75,-161.21 5527.23,-167.57 5524.57,-157.32 5518.75,-161.21"/>
</g>
<!-- Node277 -->
<g id="node49" class="node">
<title>Node277</title>
<g id="a_node49"><a xlink:href="_primitive_behaviours_8cpp.html" target="_top" xlink:title=" ">
<polygon fill="white" stroke="black" points="5517.25,-56.75 5517.25,-76 5639,-76 5639,-56.75 5517.25,-56.75"/>
<text xml:space="preserve" text-anchor="middle" x="5578.12" y="-62.5" font-family="Helvetica,sans-Serif" font-size="10.00">PrimitiveBehaviours.cpp</text>
</a>
</g>
</g>
<!-- Node2&#45;&gt;Node277 -->
<g id="edge55" class="edge">
<title>Node2&#45;&gt;Node277</title>
<path fill="none" stroke="midnightblue" d="M5541.87,-158.42C5551.5,-134.23 5567.53,-93.97 5574.6,-76.23"/>
<polygon fill="midnightblue" stroke="midnightblue" points="5538.73,-156.84 5538.29,-167.43 5545.24,-159.43 5538.73,-156.84"/>
</g>
<!-- Node175 -->
<g id="node50" class="node">
<title>Node175</title>
<g id="a_node50"><a xlink:href="_rexx_behaviour_8cpp.html" target="_top" xlink:title=" ">
<polygon fill="white" stroke="black" points="5656.75,-56.75 5656.75,-76 5757.5,-76 5757.5,-56.75 5656.75,-56.75"/>
<text xml:space="preserve" text-anchor="middle" x="5707.12" y="-62.5" font-family="Helvetica,sans-Serif" font-size="10.00">RexxBehaviour.cpp</text>
</a>
</g>
</g>
<!-- Node2&#45;&gt;Node175 -->
<g id="edge56" class="edge">
<title>Node2&#45;&gt;Node175</title>
<path fill="none" stroke="midnightblue" d="M5557.68,-162.83C5594.29,-139.45 5663.71,-95.1 5693.26,-76.23"/>
<polygon fill="midnightblue" stroke="midnightblue" points="5556.1,-159.68 5549.56,-168.02 5559.87,-165.58 5556.1,-159.68"/>
</g>
<!-- Node4&#45;&gt;Node3 -->
<g id="edge48" class="edge">
<title>Node4&#45;&gt;Node3</title>
<path fill="none" stroke="midnightblue" d="M2845.06,-121.48C2502.35,-120.35 355.38,-111.86 69.12,-76.5 66.36,-76.16 63.51,-75.7 60.67,-75.17"/>
<polygon fill="midnightblue" stroke="midnightblue" points="2844.96,-124.98 2854.97,-121.52 2844.98,-117.98 2844.96,-124.98"/>
</g>
<!-- Node5 -->
<g id="node5" class="node">
<title>Node5</title>
<g id="a_node5"><a xlink:href="_do_block_8cpp.html" target="_top" xlink:title=" ">
<polygon fill="white" stroke="black" points="3511,-56.75 3511,-76 3583.25,-76 3583.25,-56.75 3511,-56.75"/>
<text xml:space="preserve" text-anchor="middle" x="3547.12" y="-62.5" font-family="Helvetica,sans-Serif" font-size="10.00">DoBlock.cpp</text>
</a>
</g>
</g>
<!-- Node4&#45;&gt;Node5 -->
<g id="edge4" class="edge">
<title>Node4&#45;&gt;Node5</title>
<path fill="none" stroke="midnightblue" d="M2937.14,-120.21C3039.25,-116.64 3292.32,-105.4 3502.12,-76.5 3504.97,-76.11 3507.9,-75.65 3510.84,-75.14"/>
<polygon fill="midnightblue" stroke="midnightblue" points="2937.13,-116.71 2927.25,-120.55 2937.36,-123.71 2937.13,-116.71"/>
</g>
<!-- Node6 -->
<g id="node6" class="node">
<title>Node6</title>
<g id="a_node6"><a xlink:href="_trace_instruction_8cpp.html" target="_top" xlink:title=" ">
<polygon fill="white" stroke="black" points="3601.5,-56.75 3601.5,-76 3706.75,-76 3706.75,-56.75 3601.5,-56.75"/>
<text xml:space="preserve" text-anchor="middle" x="3654.12" y="-62.5" font-family="Helvetica,sans-Serif" font-size="10.00">TraceInstruction.cpp</text>
</a>
</g>
</g>
<!-- Node4&#45;&gt;Node6 -->
<g id="edge5" class="edge">
<title>Node4&#45;&gt;Node6</title>
<path fill="none" stroke="midnightblue" d="M2937.06,-119.97C3049.21,-115.65 3345.85,-102.51 3592.12,-76.5 3595.05,-76.19 3598.04,-75.85 3601.06,-75.48"/>
<polygon fill="midnightblue" stroke="midnightblue" points="2937.23,-116.46 2927.37,-120.34 2937.49,-123.46 2937.23,-116.46"/>
</g>
<!-- Node7 -->
<g id="node7" class="node">
<title>Node7</title>
<g id="a_node7"><a xlink:href="_say_instruction_8cpp.html" target="_top" xlink:title=" ">
<polygon fill="white" stroke="black" points="3725.25,-56.75 3725.25,-76 3823,-76 3823,-56.75 3725.25,-56.75"/>
<text xml:space="preserve" text-anchor="middle" x="3774.12" y="-62.5" font-family="Helvetica,sans-Serif" font-size="10.00">SayInstruction.cpp</text>
</a>
</g>
</g>
<!-- Node4&#45;&gt;Node7 -->
<g id="edge6" class="edge">
<title>Node4&#45;&gt;Node7</title>
<path fill="none" stroke="midnightblue" d="M2937.21,-120.74C3062.6,-117.99 3420.4,-107.77 3716.12,-76.5 3718.96,-76.2 3721.87,-75.86 3724.81,-75.48"/>
<polygon fill="midnightblue" stroke="midnightblue" points="2937.24,-117.24 2927.32,-120.95 2937.39,-124.24 2937.24,-117.24"/>
</g>
<!-- Node8 -->
<g id="node8" class="node">
<title>Node8</title>
<g id="a_node8"><a xlink:href="_otherwise_instruction_8cpp.html" target="_top" xlink:title=" ">
<polygon fill="white" stroke="black" points="3840.75,-56.75 3840.75,-76 3965.5,-76 3965.5,-56.75 3840.75,-56.75"/>
<text xml:space="preserve" text-anchor="middle" x="3903.12" y="-62.5" font-family="Helvetica,sans-Serif" font-size="10.00">OtherwiseInstruction.cpp</text>
</a>
</g>
</g>
<!-- Node4&#45;&gt;Node8 -->
<g id="edge7" class="edge">
<title>Node4&#45;&gt;Node8</title>
<path fill="none" stroke="midnightblue" d="M2937.02,-120.72C3073.54,-117.76 3488.99,-106.73 3832.12,-76.5 3834.85,-76.26 3837.63,-75.99 3840.43,-75.71"/>
<polygon fill="midnightblue" stroke="midnightblue" points="2937.24,-117.22 2927.31,-120.93 2937.38,-124.22 2937.24,-117.22"/>
</g>
<!-- Node9 -->
<g id="node9" class="node">
<title>Node9</title>
<g id="a_node9"><a xlink:href="_else_instruction_8cpp.html" target="_top" xlink:title=" ">
<polygon fill="white" stroke="black" points="3983.12,-56.75 3983.12,-76 4083.12,-76 4083.12,-56.75 3983.12,-56.75"/>
<text xml:space="preserve" text-anchor="middle" x="4033.12" y="-62.5" font-family="Helvetica,sans-Serif" font-size="10.00">ElseInstruction.cpp</text>
</a>
</g>
</g>
<!-- Node4&#45;&gt;Node9 -->
<g id="edge8" class="edge">
<title>Node4&#45;&gt;Node9</title>
<path fill="none" stroke="midnightblue" d="M2937.25,-121.54C3087.13,-120.89 3573.86,-115.67 3974.12,-76.5 3976.91,-76.23 3979.76,-75.91 3982.64,-75.56"/>
<polygon fill="midnightblue" stroke="midnightblue" points="2937.32,-118.04 2927.34,-121.58 2937.35,-125.04 2937.32,-118.04"/>
</g>
<!-- Node10 -->
<g id="node10" class="node">
<title>Node10</title>
<g id="a_node10"><a xlink:href="_guard_instruction-trace_8cpp.html" target="_top" xlink:title=" ">
<polygon fill="white" stroke="black" points="4101.38,-56.75 4101.38,-76 4232.88,-76 4232.88,-56.75 4101.38,-56.75"/>
<text xml:space="preserve" text-anchor="middle" x="4167.12" y="-62.5" font-family="Helvetica,sans-Serif" font-size="10.00">GuardInstruction&#45;trace.cpp</text>
</a>
</g>
</g>
<!-- Node4&#45;&gt;Node10 -->
<g id="edge9" class="edge">
<title>Node4&#45;&gt;Node10</title>
<path fill="none" stroke="midnightblue" d="M2936.82,-121.28C3096.25,-119.79 3642.66,-112.22 4092.12,-76.5 4095,-76.27 4097.94,-76.01 4100.9,-75.74"/>
<polygon fill="midnightblue" stroke="midnightblue" points="2937.06,-117.78 2927.09,-121.37 2937.13,-124.78 2937.06,-117.78"/>
</g>
<!-- Node11 -->
<g id="node11" class="node">
<title>Node11</title>
<g id="a_node11"><a xlink:href="_signal_instruction_8cpp.html" target="_top" xlink:title=" ">
<polygon fill="white" stroke="black" points="4251.38,-56.75 4251.38,-76 4358.88,-76 4358.88,-56.75 4251.38,-56.75"/>
<text xml:space="preserve" text-anchor="middle" x="4305.12" y="-62.5" font-family="Helvetica,sans-Serif" font-size="10.00">SignalInstruction.cpp</text>
</a>
</g>
</g>
<!-- Node4&#45;&gt;Node11 -->
<g id="edge10" class="edge">
<title>Node4&#45;&gt;Node11</title>
<path fill="none" stroke="midnightblue" d="M2937.03,-121.93C3109.04,-122.67 3731.66,-121.85 4242.12,-76.5 4245.1,-76.24 4248.14,-75.93 4251.21,-75.58"/>
<polygon fill="midnightblue" stroke="midnightblue" points="2937.19,-118.43 2927.17,-121.88 2937.15,-125.43 2937.19,-118.43"/>
</g>
<!-- Node12 -->
<g id="node12" class="node">
<title>Node12</title>
<g id="a_node12"><a xlink:href="_numeric_instruction_8cpp.html" target="_top" xlink:title=" ">
<polygon fill="white" stroke="black" points="4376.5,-56.75 4376.5,-76 4493.75,-76 4493.75,-56.75 4376.5,-56.75"/>
<text xml:space="preserve" text-anchor="middle" x="4435.12" y="-62.5" font-family="Helvetica,sans-Serif" font-size="10.00">NumericInstruction.cpp</text>
</a>
</g>
</g>
<!-- Node4&#45;&gt;Node12 -->
<g id="edge11" class="edge">
<title>Node4&#45;&gt;Node12</title>
<path fill="none" stroke="midnightblue" d="M2937.33,-121.97C3119.55,-122.98 3805.84,-123.25 4368.12,-76.5 4370.82,-76.28 4373.56,-76.02 4376.34,-75.74"/>
<polygon fill="midnightblue" stroke="midnightblue" points="2937.35,-118.47 2927.33,-121.91 2937.31,-125.47 2937.35,-118.47"/>
</g>
<!-- Node13 -->
<g id="node13" class="node">
<title>Node13</title>
<g id="a_node13"><a xlink:href="_call_instruction_8cpp.html" target="_top" xlink:title=" ">
<polygon fill="white" stroke="black" points="4512.25,-56.75 4512.25,-76 4610,-76 4610,-56.75 4512.25,-56.75"/>
<text xml:space="preserve" text-anchor="middle" x="4561.12" y="-62.5" font-family="Helvetica,sans-Serif" font-size="10.00">CallInstruction.cpp</text>
</a>
</g>
</g>
<!-- Node4&#45;&gt;Node13 -->
<g id="edge12" class="edge">
<title>Node4&#45;&gt;Node13</title>
<path fill="none" stroke="midnightblue" d="M2936.9,-121.14C3165.71,-118.57 4186.97,-105.67 4503.12,-76.5 4505.97,-76.24 4508.88,-75.92 4511.82,-75.57"/>
<polygon fill="midnightblue" stroke="midnightblue" points="2937.16,-117.63 2927.2,-121.24 2937.24,-124.63 2937.16,-117.63"/>
</g>
<!-- Node14 -->
<g id="node14" class="node">
<title>Node14</title>
<g id="a_node14"><a xlink:href="_interpret_instruction_8cpp.html" target="_top" xlink:title=" ">
<polygon fill="white" stroke="black" points="4627.88,-56.75 4627.88,-76 4744.38,-76 4744.38,-56.75 4627.88,-56.75"/>
<text xml:space="preserve" text-anchor="middle" x="4686.12" y="-62.5" font-family="Helvetica,sans-Serif" font-size="10.00">InterpretInstruction.cpp</text>
</a>
</g>
</g>
<!-- Node4&#45;&gt;Node14 -->
<g id="edge13" class="edge">
<title>Node4&#45;&gt;Node14</title>
<path fill="none" stroke="midnightblue" d="M2937.07,-121.11C3175.99,-118.3 4278.45,-104.06 4619.12,-76.5 4621.93,-76.27 4624.8,-76.01 4627.7,-75.71"/>
<polygon fill="midnightblue" stroke="midnightblue" points="2937.19,-117.6 2927.23,-121.22 2937.27,-124.6 2937.19,-117.6"/>
</g>
<!-- Node15 -->
<g id="node15" class="node">
<title>Node15</title>
<g id="a_node15"><a xlink:href="_reply_instruction_8cpp.html" target="_top" xlink:title=" ">
<polygon fill="white" stroke="black" points="4762.12,-56.75 4762.12,-76 4868.12,-76 4868.12,-56.75 4762.12,-56.75"/>
<text xml:space="preserve" text-anchor="middle" x="4815.12" y="-62.5" font-family="Helvetica,sans-Serif" font-size="10.00">ReplyInstruction.cpp</text>
</a>
</g>
</g>
<!-- Node4&#45;&gt;Node15 -->
<g id="edge14" class="edge">
<title>Node4&#45;&gt;Node15</title>
<path fill="none" stroke="midnightblue" d="M2937.02,-121.27C3186.75,-119.24 4384.44,-107.98 4753.12,-76.5 4755.94,-76.26 4758.83,-75.97 4761.74,-75.65"/>
<polygon fill="midnightblue" stroke="midnightblue" points="2937.33,-117.77 2927.36,-121.35 2937.39,-124.77 2937.33,-117.77"/>
</g>
<!-- Node16 -->
<g id="node16" class="node">
<title>Node16</title>
<g id="a_node16"><a xlink:href="_leave_instruction_8cpp.html" target="_top" xlink:title=" ">
<polygon fill="white" stroke="black" points="4885.75,-56.75 4885.75,-76 4992.5,-76 4992.5,-56.75 4885.75,-56.75"/>
<text xml:space="preserve" text-anchor="middle" x="4939.12" y="-62.5" font-family="Helvetica,sans-Serif" font-size="10.00">LeaveInstruction.cpp</text>
</a>
</g>
</g>
<!-- Node4&#45;&gt;Node16 -->
<g id="edge15" class="edge">
<title>Node4&#45;&gt;Node16</title>
<path fill="none" stroke="midnightblue" d="M2936.72,-121.35C3195.53,-119.7 4482.2,-109.92 4877.12,-76.5 4879.84,-76.27 4882.61,-76 4885.4,-75.7"/>
<polygon fill="midnightblue" stroke="midnightblue" points="2937.01,-117.85 2927.04,-121.42 2937.06,-124.85 2937.01,-117.85"/>
</g>
<!-- Node17 -->
<g id="node17" class="node">
<title>Node17</title>
<g id="a_node17"><a xlink:href="_message_instruction_8cpp.html" target="_top" xlink:title=" ">
<polygon fill="white" stroke="black" points="5011,-56.75 5011,-76 5131.25,-76 5131.25,-56.75 5011,-56.75"/>
<text xml:space="preserve" text-anchor="middle" x="5071.12" y="-62.5" font-family="Helvetica,sans-Serif" font-size="10.00">MessageInstruction.cpp</text>
</a>
</g>
</g>
<!-- Node4&#45;&gt;Node17 -->
<g id="edge16" class="edge">
<title>Node4&#45;&gt;Node17</title>
<path fill="none" stroke="midnightblue" d="M2936.97,-121.32C3205.79,-119.44 4579.92,-108.36 5001.12,-76.5 5004.3,-76.26 5007.56,-75.97 5010.84,-75.65"/>
<polygon fill="midnightblue" stroke="midnightblue" points="2937.21,-117.82 2927.24,-121.39 2937.26,-124.82 2937.21,-117.82"/>
</g>
<!-- Node18 -->
<g id="node18" class="node">
<title>Node18</title>
<g id="a_node18"><a xlink:href="_assignment_instruction_8cpp.html" target="_top" xlink:title=" ">
<polygon fill="white" stroke="black" points="5149,-56.75 5149,-76 5281.25,-76 5281.25,-56.75 5149,-56.75"/>
<text xml:space="preserve" text-anchor="middle" x="5215.12" y="-62.5" font-family="Helvetica,sans-Serif" font-size="10.00">AssignmentInstruction.cpp</text>
</a>
</g>
</g>
<!-- Node4&#45;&gt;Node18 -->
<g id="edge17" class="edge">
<title>Node4&#45;&gt;Node18</title>
<path fill="none" stroke="midnightblue" d="M2936.86,-121.34C3215.64,-119.49 4689.36,-108.36 5140.12,-76.5 5142.87,-76.31 5145.67,-76.08 5148.5,-75.83"/>
<polygon fill="midnightblue" stroke="midnightblue" points="2937.08,-117.84 2927.1,-121.4 2937.13,-124.84 2937.08,-117.84"/>
</g>
<!-- Node19 -->
<g id="node19" class="node">
<title>Node19</title>
<g id="a_node19"><a xlink:href="_rexx_instruction_8cpp.html" target="_top" xlink:title=" ">
<polygon fill="white" stroke="black" points="5299.25,-56.75 5299.25,-76 5403,-76 5403,-56.75 5299.25,-56.75"/>
<text xml:space="preserve" text-anchor="middle" x="5351.12" y="-62.5" font-family="Helvetica,sans-Serif" font-size="10.00">RexxInstruction.cpp</text>
</a>
</g>
</g>
<!-- Node4&#45;&gt;Node19 -->
<g id="edge18" class="edge">
<title>Node4&#45;&gt;Node19</title>
<path fill="none" stroke="midnightblue" d="M2937.14,-121.57C3227.43,-121.14 4808.27,-116.9 5290.12,-76.5 5293.01,-76.26 5295.96,-75.97 5298.93,-75.64"/>
<polygon fill="midnightblue" stroke="midnightblue" points="2937.33,-118.07 2927.33,-121.59 2937.34,-125.07 2937.33,-118.07"/>
</g>
<!-- Node20 -->
<g id="node20" class="node">
<title>Node20</title>
<g id="a_node20"><a xlink:href="_select_instruction_8cpp.html" target="_top" xlink:title=" ">
<polygon fill="white" stroke="black" points="78,-56.75 78,-76 186.25,-76 186.25,-56.75 78,-56.75"/>
<text xml:space="preserve" text-anchor="middle" x="132.12" y="-62.5" font-family="Helvetica,sans-Serif" font-size="10.00">SelectInstruction.cpp</text>
</a>
</g>
</g>
<!-- Node4&#45;&gt;Node20 -->
<g id="edge19" class="edge">
<title>Node4&#45;&gt;Node20</title>
<path fill="none" stroke="midnightblue" d="M2845.58,-121.21C2513.45,-118.16 469.36,-98.57 195.12,-76.5 192.37,-76.28 189.55,-76.01 186.71,-75.71"/>
<polygon fill="midnightblue" stroke="midnightblue" points="2845.12,-124.71 2855.15,-121.3 2845.19,-117.71 2845.12,-124.71"/>
</g>
<!-- Node21 -->
<g id="node21" class="node">
<title>Node21</title>
<g id="a_node21"><a xlink:href="_return_instruction_8cpp.html" target="_top" xlink:title=" ">
<polygon fill="white" stroke="black" points="204.25,-56.75 204.25,-76 314,-76 314,-56.75 204.25,-56.75"/>
<text xml:space="preserve" text-anchor="middle" x="259.12" y="-62.5" font-family="Helvetica,sans-Serif" font-size="10.00">ReturnInstruction.cpp</text>
</a>
</g>
</g>
<!-- Node4&#45;&gt;Node21 -->
<g id="edge20" class="edge">
<title>Node4&#45;&gt;Node21</title>
<path fill="none" stroke="midnightblue" d="M2845.25,-121.6C2543.64,-121.3 840.98,-117.81 323.12,-76.5 320.22,-76.27 317.24,-75.99 314.23,-75.67"/>
<polygon fill="midnightblue" stroke="midnightblue" points="2845.07,-125.1 2855.07,-121.61 2845.07,-118.1 2845.07,-125.1"/>
</g>
<!-- Node22 -->
<g id="node22" class="node">
<title>Node22</title>
<g id="a_node22"><a xlink:href="_address_instruction_8cpp.html" target="_top" xlink:title=" ">
<polygon fill="white" stroke="black" points="331.88,-56.75 331.88,-76 448.38,-76 448.38,-56.75 331.88,-56.75"/>
<text xml:space="preserve" text-anchor="middle" x="390.12" y="-62.5" font-family="Helvetica,sans-Serif" font-size="10.00">AddressInstruction.cpp</text>
</a>
</g>
</g>
<!-- Node4&#45;&gt;Node22 -->
<g id="edge21" class="edge">
<title>Node4&#45;&gt;Node22</title>
<path fill="none" stroke="midnightblue" d="M2845.4,-121.5C2553.52,-120.56 947.62,-113.76 458.12,-76.5 455.04,-76.26 451.87,-75.98 448.69,-75.67"/>
<polygon fill="midnightblue" stroke="midnightblue" points="2845.25,-124.99 2855.26,-121.53 2845.27,-117.99 2845.25,-124.99"/>
</g>
<!-- Node23 -->
<g id="node23" class="node">
<title>Node23</title>
<g id="a_node23"><a xlink:href="_procedure_instruction_8cpp.html" target="_top" xlink:title=" ">
<polygon fill="white" stroke="black" points="466.75,-56.75 466.75,-76 591.5,-76 591.5,-56.75 466.75,-56.75"/>
<text xml:space="preserve" text-anchor="middle" x="529.12" y="-62.5" font-family="Helvetica,sans-Serif" font-size="10.00">ProcedureInstruction.cpp</text>
</a>
</g>
</g>
<!-- Node4&#45;&gt;Node23 -->
<g id="edge22" class="edge">
<title>Node4&#45;&gt;Node23</title>
<path fill="none" stroke="midnightblue" d="M2844.99,-121.4C2562.13,-119.9 1059.45,-110.44 600.12,-76.5 597.4,-76.3 594.62,-76.06 591.81,-75.8"/>
<polygon fill="midnightblue" stroke="midnightblue" points="2844.88,-124.9 2854.9,-121.45 2844.92,-117.9 2844.88,-124.9"/>
</g>
<!-- Node24 -->
<g id="node24" class="node">
<title>Node24</title>
<g id="a_node24"><a xlink:href="_library_directive_8cpp.html" target="_top" xlink:title=" ">
<polygon fill="white" stroke="black" points="609.62,-56.75 609.62,-76 712.62,-76 712.62,-56.75 609.62,-56.75"/>
<text xml:space="preserve" text-anchor="middle" x="661.12" y="-62.5" font-family="Helvetica,sans-Serif" font-size="10.00">LibraryDirective.cpp</text>
</a>
</g>
</g>
<!-- Node4&#45;&gt;Node24 -->
<g id="edge23" class="edge">
<title>Node4&#45;&gt;Node24</title>
<path fill="none" stroke="midnightblue" d="M2845.28,-121.49C2571.97,-120.53 1154.64,-113.81 721.12,-76.5 718.5,-76.27 715.82,-76.01 713.11,-75.7"/>
<polygon fill="midnightblue" stroke="midnightblue" points="2845.18,-124.98 2855.19,-121.52 2845.2,-117.98 2845.18,-124.98"/>
</g>
<!-- Node25 -->
<g id="node25" class="node">
<title>Node25</title>
<g id="a_node25"><a xlink:href="_do_with_instruction_8cpp.html" target="_top" xlink:title=" ">
<polygon fill="white" stroke="black" points="730.38,-56.75 730.38,-76 843.88,-76 843.88,-56.75 730.38,-56.75"/>
<text xml:space="preserve" text-anchor="middle" x="787.12" y="-62.5" font-family="Helvetica,sans-Serif" font-size="10.00">DoWithInstruction.cpp</text>
</a>
</g>
</g>
<!-- Node4&#45;&gt;Node25 -->
<g id="edge24" class="edge">
<title>Node4&#45;&gt;Node25</title>
<path fill="none" stroke="midnightblue" d="M2845.31,-121.27C2582.39,-119.11 1263.13,-106.94 858.12,-76.5 853.54,-76.16 848.8,-75.72 844.04,-75.23"/>
<polygon fill="midnightblue" stroke="midnightblue" points="2845.13,-124.77 2855.16,-121.35 2845.19,-117.77 2845.13,-124.77"/>
</g>
<!-- Node26 -->
<g id="node26" class="node">
<title>Node26</title>
<g id="a_node26"><a xlink:href="_command_i_o_configuration_8cpp.html" target="_top" xlink:title=" ">
<polygon fill="white" stroke="black" points="799.12,-0.5 799.12,-19.75 947.12,-19.75 947.12,-0.5 799.12,-0.5"/>
<text xml:space="preserve" text-anchor="middle" x="873.12" y="-6.25" font-family="Helvetica,sans-Serif" font-size="10.00">CommandIOConfiguration.cpp</text>
</a>
</g>
</g>
<!-- Node4&#45;&gt;Node26 -->
<g id="edge25" class="edge">
<title>Node4&#45;&gt;Node26</title>
<path fill="none" stroke="midnightblue" d="M2845.24,-121.34C2550.19,-119.43 930.95,-107.56 891.12,-76.5 873.86,-63.03 872.18,-34.63 872.55,-20.1"/>
<polygon fill="midnightblue" stroke="midnightblue" points="2845.2,-124.84 2855.22,-121.41 2845.25,-117.84 2845.2,-124.84"/>
</g>
<!-- Node27 -->
<g id="node27" class="node">
<title>Node27</title>
<g id="a_node27"><a xlink:href="_class_directive_8cpp.html" target="_top" xlink:title=" ">
<polygon fill="white" stroke="black" points="1056.5,-56.75 1056.5,-76 1155.75,-76 1155.75,-56.75 1056.5,-56.75"/>
<text xml:space="preserve" text-anchor="middle" x="1106.12" y="-62.5" font-family="Helvetica,sans-Serif" font-size="10.00">ClassDirective.cpp</text>
</a>
</g>
</g>
<!-- Node4&#45;&gt;Node27 -->
<g id="edge26" class="edge">
<title>Node4&#45;&gt;Node27</title>
<path fill="none" stroke="midnightblue" d="M2845.22,-121.22C2606.53,-118.97 1505.14,-107.11 1165.12,-76.5 1162.13,-76.23 1159.06,-75.9 1155.96,-75.54"/>
<polygon fill="midnightblue" stroke="midnightblue" points="2845.02,-124.72 2855.05,-121.31 2845.08,-117.72 2845.02,-124.72"/>
</g>
<!-- Node28 -->
<g id="node28" class="node">
<title>Node28</title>
<g id="a_node28"><a xlink:href="_end_instruction_8cpp.html" target="_top" xlink:title=" ">
<polygon fill="white" stroke="black" points="1174.25,-56.75 1174.25,-76 1272,-76 1272,-56.75 1174.25,-56.75"/>
<text xml:space="preserve" text-anchor="middle" x="1223.12" y="-62.5" font-family="Helvetica,sans-Serif" font-size="10.00">EndInstruction.cpp</text>
</a>
</g>
</g>
<!-- Node4&#45;&gt;Node28 -->
<g id="edge27" class="edge">
<title>Node4&#45;&gt;Node28</title>
<path fill="none" stroke="midnightblue" d="M2845.41,-121.14C2616.88,-118.57 1596.89,-105.64 1281.12,-76.5 1278.28,-76.24 1275.37,-75.92 1272.43,-75.57"/>
<polygon fill="midnightblue" stroke="midnightblue" points="2845.05,-124.63 2855.09,-121.24 2845.13,-117.63 2845.05,-124.63"/>
</g>
<!-- Node29 -->
<g id="node29" class="node">
<title>Node29</title>
<g id="a_node29"><a xlink:href="_guard_instruction_8cpp.html" target="_top" xlink:title=" ">
<polygon fill="white" stroke="black" points="1289.75,-56.75 1289.75,-76 1396.5,-76 1396.5,-56.75 1289.75,-56.75"/>
<text xml:space="preserve" text-anchor="middle" x="1343.12" y="-62.5" font-family="Helvetica,sans-Serif" font-size="10.00">GuardInstruction.cpp</text>
</a>
</g>
</g>
<!-- Node4&#45;&gt;Node29 -->
<g id="edge28" class="edge">
<title>Node4&#45;&gt;Node29</title>
<path fill="none" stroke="midnightblue" d="M2845.18,-120.93C2627.2,-117.54 1695.81,-101.8 1406.12,-76.5 1403.04,-76.23 1399.88,-75.91 1396.69,-75.56"/>
<polygon fill="midnightblue" stroke="midnightblue" points="2844.91,-124.43 2854.97,-121.08 2845.02,-117.43 2844.91,-124.43"/>
</g>
<!-- Node30 -->
<g id="node30" class="node">
<title>Node30</title>
<g id="a_node30"><a xlink:href="_address_with_instruction_8cpp.html" target="_top" xlink:title=" ">
<polygon fill="white" stroke="black" points="1414.75,-56.75 1414.75,-76 1551.5,-76 1551.5,-56.75 1414.75,-56.75"/>
<text xml:space="preserve" text-anchor="middle" x="1483.12" y="-62.5" font-family="Helvetica,sans-Serif" font-size="10.00">AddressWithInstruction.cpp</text>
</a>
</g>
</g>
<!-- Node4&#45;&gt;Node30 -->
<g id="edge29" class="edge">
<title>Node4&#45;&gt;Node30</title>
<path fill="none" stroke="midnightblue" d="M2845.11,-121.46C2674.61,-120.57 2062.75,-114.73 1560.12,-76.5 1557.44,-76.3 1554.71,-76.07 1551.94,-75.82"/>
<polygon fill="midnightblue" stroke="midnightblue" points="2845.09,-124.96 2855.11,-121.51 2845.12,-117.96 2845.09,-124.96"/>
</g>
<!-- Node31 -->
<g id="node31" class="node">
<title>Node31</title>
<g id="a_node31"><a xlink:href="_when_case_instruction_8cpp.html" target="_top" xlink:title=" ">
<polygon fill="white" stroke="black" points="1569.5,-56.75 1569.5,-76 1698.75,-76 1698.75,-56.75 1569.5,-56.75"/>
<text xml:space="preserve" text-anchor="middle" x="1634.12" y="-62.5" font-family="Helvetica,sans-Serif" font-size="10.00">WhenCaseInstruction.cpp</text>
</a>
</g>
</g>
<!-- Node4&#45;&gt;Node31 -->
<g id="edge30" class="edge">
<title>Node4&#45;&gt;Node31</title>
<path fill="none" stroke="midnightblue" d="M2845.58,-121.27C2687.85,-119.76 2150.33,-112.13 1708.12,-76.5 1705.16,-76.26 1702.13,-75.99 1699.07,-75.7"/>
<polygon fill="midnightblue" stroke="midnightblue" points="2845.16,-124.77 2855.19,-121.36 2845.22,-117.77 2845.16,-124.77"/>
</g>
<!-- Node32 -->
<g id="node32" class="node">
<title>Node32</title>
<g id="a_node32"><a xlink:href="_then_instruction_8cpp.html" target="_top" xlink:title=" ">
<polygon fill="white" stroke="black" points="1717,-56.75 1717,-76 1819.25,-76 1819.25,-56.75 1717,-56.75"/>
<text xml:space="preserve" text-anchor="middle" x="1768.12" y="-62.5" font-family="Helvetica,sans-Serif" font-size="10.00">ThenInstruction.cpp</text>
</a>
</g>
</g>
<!-- Node4&#45;&gt;Node32 -->
<g id="edge31" class="edge">
<title>Node4&#45;&gt;Node32</title>
<path fill="none" stroke="midnightblue" d="M2845.35,-121.45C2697.67,-120.52 2220.59,-114.56 1828.12,-76.5 1825.29,-76.23 1822.39,-75.91 1819.47,-75.56"/>
<polygon fill="midnightblue" stroke="midnightblue" points="2845.08,-124.95 2855.1,-121.51 2845.12,-117.95 2845.08,-124.95"/>
</g>
<!-- Node33 -->
<g id="node33" class="node">
<title>Node33</title>
<g id="a_node33"><a xlink:href="_base_do_instruction_8cpp.html" target="_top" xlink:title=" ">
<polygon fill="white" stroke="black" points="1837.25,-56.75 1837.25,-76 1953,-76 1953,-56.75 1837.25,-56.75"/>
<text xml:space="preserve" text-anchor="middle" x="1895.12" y="-62.5" font-family="Helvetica,sans-Serif" font-size="10.00">BaseDoInstruction.cpp</text>
</a>
</g>
</g>
<!-- Node4&#45;&gt;Node33 -->
<g id="edge32" class="edge">
<title>Node4&#45;&gt;Node33</title>
<path fill="none" stroke="midnightblue" d="M2845.34,-120.81C2710.04,-118.09 2300.38,-107.69 1962.12,-76.5 1959.2,-76.23 1956.21,-75.93 1953.19,-75.6"/>
<polygon fill="midnightblue" stroke="midnightblue" points="2844.88,-124.3 2854.95,-121 2845.02,-117.3 2844.88,-124.3"/>
</g>
<!-- Node34 -->
<g id="node34" class="node">
<title>Node34</title>
<g id="a_node34"><a xlink:href="_use_instruction_8cpp.html" target="_top" xlink:title=" ">
<polygon fill="white" stroke="black" points="1970.88,-56.75 1970.88,-76 2069.38,-76 2069.38,-56.75 1970.88,-56.75"/>
<text xml:space="preserve" text-anchor="middle" x="2020.12" y="-62.5" font-family="Helvetica,sans-Serif" font-size="10.00">UseInstruction.cpp</text>
</a>
</g>
</g>
<!-- Node4&#45;&gt;Node34 -->
<g id="edge33" class="edge">
<title>Node4&#45;&gt;Node34</title>
<path fill="none" stroke="midnightblue" d="M2845.28,-120.7C2721.32,-117.83 2369.21,-107.4 2078.12,-76.5 2075.39,-76.21 2072.58,-75.88 2069.76,-75.52"/>
<polygon fill="midnightblue" stroke="midnightblue" points="2844.96,-124.19 2855.04,-120.92 2845.12,-117.19 2844.96,-124.19"/>
</g>
<!-- Node35 -->
<g id="node35" class="node">
<title>Node35</title>
<g id="a_node35"><a xlink:href="_do_over_instruction_8cpp.html" target="_top" xlink:title=" ">
<polygon fill="white" stroke="black" points="2087,-56.75 2087,-76 2201.25,-76 2201.25,-56.75 2087,-56.75"/>
<text xml:space="preserve" text-anchor="middle" x="2144.12" y="-62.5" font-family="Helvetica,sans-Serif" font-size="10.00">DoOverInstruction.cpp</text>
</a>
</g>
</g>
<!-- Node4&#45;&gt;Node35 -->
<g id="edge34" class="edge">
<title>Node4&#45;&gt;Node35</title>
<path fill="none" stroke="midnightblue" d="M2845.4,-119.72C2735.65,-114.91 2448.68,-100.86 2210.12,-76.5 2207.36,-76.22 2204.54,-75.91 2201.69,-75.58"/>
<polygon fill="midnightblue" stroke="midnightblue" points="2845.03,-123.21 2855.17,-120.15 2845.33,-116.22 2845.03,-123.21"/>
</g>
<!-- Node36 -->
<g id="node36" class="node">
<title>Node36</title>
<g id="a_node36"><a xlink:href="_controlled_do_instruction_8cpp.html" target="_top" xlink:title=" ">
<polygon fill="white" stroke="black" points="2219.38,-56.75 2219.38,-76 2356.88,-76 2356.88,-56.75 2219.38,-56.75"/>
<text xml:space="preserve" text-anchor="middle" x="2288.12" y="-62.5" font-family="Helvetica,sans-Serif" font-size="10.00">ControlledDoInstruction.cpp</text>
</a>
</g>
</g>
<!-- Node4&#45;&gt;Node36 -->
<g id="edge35" class="edge">
<title>Node4&#45;&gt;Node36</title>
<path fill="none" stroke="midnightblue" d="M2845.06,-118.14C2753.66,-111.13 2542.91,-94.43 2366.12,-76.5 2363.14,-76.2 2360.09,-75.88 2357.02,-75.55"/>
<polygon fill="midnightblue" stroke="midnightblue" points="2844.63,-121.62 2854.87,-118.89 2845.17,-114.64 2844.63,-121.62"/>
</g>
<!-- Node37 -->
<g id="node37" class="node">
<title>Node37</title>
<g id="a_node37"><a xlink:href="_do_while_instruction_8cpp.html" target="_top" xlink:title=" ">
<polygon fill="white" stroke="black" points="2375.12,-56.75 2375.12,-76 2493.12,-76 2493.12,-56.75 2375.12,-56.75"/>
<text xml:space="preserve" text-anchor="middle" x="2434.12" y="-62.5" font-family="Helvetica,sans-Serif" font-size="10.00">DoWhileInstruction.cpp</text>
</a>
</g>
</g>
<!-- Node4&#45;&gt;Node37 -->
<g id="edge36" class="edge">
<title>Node4&#45;&gt;Node37</title>
<path fill="none" stroke="midnightblue" d="M2845.47,-116.6C2772.76,-108.53 2626.19,-92.02 2502.12,-76.5 2499.29,-76.15 2496.39,-75.78 2493.46,-75.4"/>
<polygon fill="midnightblue" stroke="midnightblue" points="2844.66,-120.03 2854.99,-117.65 2845.44,-113.07 2844.66,-120.03"/>
</g>
<!-- Node38 -->
<g id="node38" class="node">
<title>Node38</title>
<g id="a_node38"><a xlink:href="_input_redirector_8hpp.html" target="_top" xlink:title=" ">
<polygon fill="white" stroke="red" points="899.75,-56.75 899.75,-76 1000.5,-76 1000.5,-56.75 899.75,-56.75"/>
<text xml:space="preserve" text-anchor="middle" x="950.12" y="-62.5" font-family="Helvetica,sans-Serif" font-size="10.00">InputRedirector.hpp</text>
</a>
</g>
</g>
<!-- Node4&#45;&gt;Node38 -->
<g id="edge37" class="edge">
<title>Node4&#45;&gt;Node38</title>
<path fill="none" stroke="midnightblue" d="M2845.27,-121.26C2594.43,-119.12 1386.06,-107.38 1014.12,-76.5 1009.76,-76.14 1005.24,-75.67 1000.72,-75.15"/>
<polygon fill="midnightblue" stroke="midnightblue" points="2844.94,-124.75 2854.97,-121.34 2845,-117.75 2844.94,-124.75"/>
</g>
<!-- Node4&#45;&gt;Node42 -->
<g id="edge50" class="edge">
<title>Node4&#45;&gt;Node42</title>
<path fill="none" stroke="midnightblue" d="M2845.33,-121.25C2564.29,-118.83 1083.86,-104.79 1047.12,-76.5 1029.71,-63.09 1027.57,-34.65 1027.7,-20.11"/>
<polygon fill="midnightblue" stroke="midnightblue" points="2845.14,-124.74 2855.17,-121.33 2845.2,-117.75 2845.14,-124.74"/>
</g>
<!-- Node43 -->
<g id="node40" class="node">
<title>Node43</title>
<g id="a_node40"><a xlink:href="_parse_instruction_8cpp.html" target="_top" xlink:title=" ">
<polygon fill="white" stroke="black" points="2511.12,-56.75 2511.12,-76 2617.12,-76 2617.12,-56.75 2511.12,-56.75"/>
<text xml:space="preserve" text-anchor="middle" x="2564.12" y="-62.5" font-family="Helvetica,sans-Serif" font-size="10.00">ParseInstruction.cpp</text>
</a>
</g>
</g>
<!-- Node4&#45;&gt;Node43 -->
<g id="edge40" class="edge">
<title>Node4&#45;&gt;Node43</title>
<path fill="none" stroke="midnightblue" d="M2845.09,-113.99C2785.22,-104.06 2680.86,-86.74 2617.57,-76.24"/>
<polygon fill="midnightblue" stroke="midnightblue" points="2844.51,-117.44 2854.95,-115.62 2845.65,-110.53 2844.51,-117.44"/>
</g>
<!-- Node44 -->
<g id="node41" class="node">
<title>Node44</title>
<g id="a_node41"><a xlink:href="_queue_instruction_8cpp.html" target="_top" xlink:title=" ">
<polygon fill="white" stroke="black" points="2635.62,-56.75 2635.62,-76 2744.62,-76 2744.62,-56.75 2635.62,-56.75"/>
<text xml:space="preserve" text-anchor="middle" x="2690.12" y="-62.5" font-family="Helvetica,sans-Serif" font-size="10.00">QueueInstruction.cpp</text>
</a>
</g>
</g>
<!-- Node4&#45;&gt;Node44 -->
<g id="edge41" class="edge">
<title>Node4&#45;&gt;Node44</title>
<path fill="none" stroke="midnightblue" d="M2846.5,-109.58C2809.45,-99.58 2757.54,-85.57 2723.88,-76.48"/>
<polygon fill="midnightblue" stroke="midnightblue" points="2845.45,-112.92 2856.02,-112.15 2847.28,-106.17 2845.45,-112.92"/>
</g>
<!-- Node45 -->
<g id="node42" class="node">
<title>Node45</title>
<g id="a_node42"><a xlink:href="_do_count_instruction_8cpp.html" target="_top" xlink:title=" ">
<polygon fill="white" stroke="black" points="2762.38,-56.75 2762.38,-76 2881.88,-76 2881.88,-56.75 2762.38,-56.75"/>
<text xml:space="preserve" text-anchor="middle" x="2822.12" y="-62.5" font-family="Helvetica,sans-Serif" font-size="10.00">DoCountInstruction.cpp</text>
</a>
</g>
</g>
<!-- Node4&#45;&gt;Node45 -->
<g id="edge42" class="edge">
<title>Node4&#45;&gt;Node45</title>
<path fill="none" stroke="midnightblue" d="M2870.68,-105.55C2858.46,-95.94 2843.39,-84.09 2833.31,-76.17"/>
<polygon fill="midnightblue" stroke="midnightblue" points="2868.52,-108.3 2878.54,-111.73 2872.84,-102.8 2868.52,-108.3"/>
</g>
<!-- Node46 -->
<g id="node43" class="node">
<title>Node46</title>
<g id="a_node43"><a xlink:href="_use_arg_variable_ref_8cpp.html" target="_top" xlink:title=" ">
<polygon fill="white" stroke="black" points="2900.12,-56.75 2900.12,-76 3018.12,-76 3018.12,-56.75 2900.12,-56.75"/>
<text xml:space="preserve" text-anchor="middle" x="2959.12" y="-62.5" font-family="Helvetica,sans-Serif" font-size="10.00">UseArgVariableRef.cpp</text>
</a>
</g>
</g>
<!-- Node4&#45;&gt;Node46 -->
<g id="edge43" class="edge">
<title>Node4&#45;&gt;Node46</title>
<path fill="none" stroke="midnightblue" d="M2911.27,-105.55C2923.32,-95.94 2938.17,-84.09 2948.11,-76.17"/>
<polygon fill="midnightblue" stroke="midnightblue" points="2909.17,-102.75 2903.54,-111.72 2913.54,-108.22 2909.17,-102.75"/>
</g>
<!-- Node47 -->
<g id="node44" class="node">
<title>Node47</title>
<g id="a_node44"><a xlink:href="_raise_instruction_8cpp.html" target="_top" xlink:title=" ">
<polygon fill="white" stroke="black" points="3036.12,-56.75 3036.12,-76 3142.12,-76 3142.12,-56.75 3036.12,-56.75"/>
<text xml:space="preserve" text-anchor="middle" x="3089.12" y="-62.5" font-family="Helvetica,sans-Serif" font-size="10.00">RaiseInstruction.cpp</text>
</a>
</g>
</g>
<!-- Node4&#45;&gt;Node47 -->
<g id="edge44" class="edge">
<title>Node4&#45;&gt;Node47</title>
<path fill="none" stroke="midnightblue" d="M2935.09,-109.58C2971.59,-99.58 3022.71,-85.57 3055.88,-76.48"/>
<polygon fill="midnightblue" stroke="midnightblue" points="2934.45,-106.13 2925.73,-112.14 2936.29,-112.88 2934.45,-106.13"/>
</g>
<!-- Node48 -->
<g id="node45" class="node">
<title>Node48</title>
<g id="a_node45"><a xlink:href="_exit_instruction_8cpp.html" target="_top" xlink:title=" ">
<polygon fill="white" stroke="black" points="3160.25,-56.75 3160.25,-76 3258,-76 3258,-56.75 3160.25,-56.75"/>
<text xml:space="preserve" text-anchor="middle" x="3209.12" y="-62.5" font-family="Helvetica,sans-Serif" font-size="10.00">ExitInstruction.cpp</text>
</a>
</g>
</g>
<!-- Node4&#45;&gt;Node48 -->
<g id="edge45" class="edge">
<title>Node4&#45;&gt;Node48</title>
<path fill="none" stroke="midnightblue" d="M2937.02,-113.8C2996.32,-103.68 3099.17,-86.13 3160,-75.75"/>
<polygon fill="midnightblue" stroke="midnightblue" points="2936.52,-110.33 2927.25,-115.46 2937.7,-117.23 2936.52,-110.33"/>
</g>
<!-- Node49 -->
<g id="node46" class="node">
<title>Node49</title>
<g id="a_node46"><a xlink:href="_requires_directive_8cpp.html" target="_top" xlink:title=" ">
<polygon fill="white" stroke="black" points="3275.75,-56.75 3275.75,-76 3388.5,-76 3388.5,-56.75 3275.75,-56.75"/>
<text xml:space="preserve" text-anchor="middle" x="3332.12" y="-62.5" font-family="Helvetica,sans-Serif" font-size="10.00">RequiresDirective.cpp</text>
</a>
</g>
</g>
<!-- Node4&#45;&gt;Node49 -->
<g id="edge46" class="edge">
<title>Node4&#45;&gt;Node49</title>
<path fill="none" stroke="midnightblue" d="M2936.79,-116.44C3007.58,-108.34 3148.09,-92 3267.12,-76.5 3269.84,-76.15 3272.61,-75.78 3275.41,-75.4"/>
<polygon fill="midnightblue" stroke="midnightblue" points="2936.67,-112.93 2927.13,-117.55 2937.46,-119.89 2936.67,-112.93"/>
</g>
<!-- Node50 -->
<g id="node47" class="node">
<title>Node50</title>
<g id="a_node47"><a xlink:href="_if_instruction_8cpp.html" target="_top" xlink:title=" ">
<polygon fill="white" stroke="black" points="3406.88,-56.75 3406.88,-76 3493.38,-76 3493.38,-56.75 3406.88,-56.75"/>
<text xml:space="preserve" text-anchor="middle" x="3450.12" y="-62.5" font-family="Helvetica,sans-Serif" font-size="10.00">IfInstruction.cpp</text>
</a>
</g>
</g>
<!-- Node4&#45;&gt;Node50 -->
<g id="edge47" class="edge">
<title>Node4&#45;&gt;Node50</title>
<path fill="none" stroke="midnightblue" d="M2936.87,-118.8C3025.78,-113.03 3228.06,-98.56 3397.12,-76.5 3400.18,-76.1 3403.33,-75.65 3406.5,-75.18"/>
<polygon fill="midnightblue" stroke="midnightblue" points="2936.85,-115.29 2927.1,-119.43 2937.3,-122.28 2936.85,-115.29"/>
</g>
<!-- Node4&#45;&gt;Node87 -->
<g id="edge49" class="edge">
<title>Node4&#45;&gt;Node87</title>
<path fill="none" stroke="midnightblue" d="M2936.68,-121.28C3256.29,-118.77 5157.01,-102.84 5412.12,-76.5 5414.74,-76.23 5417.43,-75.89 5420.13,-75.51"/>
<polygon fill="midnightblue" stroke="midnightblue" points="2937.04,-117.77 2927.07,-121.35 2937.1,-124.77 2937.04,-117.77"/>
</g>
<!-- Node4&#45;&gt;Node277 -->
<g id="edge51" class="edge">
<title>Node4&#45;&gt;Node277</title>
<path fill="none" stroke="midnightblue" d="M2936.92,-121.55C3241.66,-120.96 4980.41,-115.89 5509.12,-76.5 5511.66,-76.31 5514.24,-76.09 5516.84,-75.85"/>
<polygon fill="midnightblue" stroke="midnightblue" points="2936.98,-118.05 2926.99,-121.57 2937,-125.05 2936.98,-118.05"/>
</g>
<!-- Node4&#45;&gt;Node175 -->
<g id="edge52" class="edge">
<title>Node4&#45;&gt;Node175</title>
<path fill="none" stroke="midnightblue" d="M2936.88,-121.74C3250.78,-122.37 5090.37,-123.97 5648.12,-76.5 5650.81,-76.27 5653.56,-76 5656.33,-75.68"/>
<polygon fill="midnightblue" stroke="midnightblue" points="2937.05,-118.24 2927.04,-121.72 2937.03,-125.24 2937.05,-118.24"/>
</g>
<!-- Node38&#45;&gt;Node26 -->
<g id="edge38" class="edge">
<title>Node38&#45;&gt;Node26</title>
<path fill="none" stroke="midnightblue" d="M928.18,-49.91C914.49,-40.27 897.35,-28.19 885.86,-20.1"/>
<polygon fill="midnightblue" stroke="midnightblue" points="925.98,-52.65 936.17,-55.54 930.01,-46.92 925.98,-52.65"/>
</g>
<!-- Node38&#45;&gt;Node42 -->
<g id="edge39" class="edge">
<title>Node38&#45;&gt;Node42</title>
<path fill="none" stroke="midnightblue" d="M972.35,-49.91C986.22,-40.27 1003.59,-28.19 1015.23,-20.1"/>
<polygon fill="midnightblue" stroke="midnightblue" points="970.46,-46.97 964.25,-55.55 974.46,-52.72 970.46,-46.97"/>
</g>
</g>
</svg>
        <g id="navigator" transform="translate(0 0)" fill="#404254">
                <rect fill="#f2f5e9" fill-opacity="0.5" stroke="#606060" stroke-width=".5" x="0" y="0" width="60" height="60"/>
                <use id="zoomplus" xlink:href="#zoomPlus" x="17" y="9" onmousedown="handleZoom(evt,'in')"/>
                <use id="zoomminus" xlink:href="#zoomMin" x="42" y="9" onmousedown="handleZoom(evt,'out')"/>
                <use id="reset" xlink:href="#resetDef" x="30" y="36" onmousedown="handleReset()"/>
                <g id="arrowUp" xlink:href="#dirArrow" transform="translate(30 24)" onmousedown="handlePan(0,-1)">
                  <use xlink:href="#rim" fill="#404040">
                        <set attributeName="fill" to="#808080" begin="arrowUp.mouseover" end="arrowUp.mouseout"/>
                  </use>
                  <path fill="none" stroke="white" stroke-width="1.5" d="M0,-3.0v7 M-2.5,-0.5L0,-3.0L2.5,-0.5"/>
                </g>
                <g id="arrowRight" xlink:href="#dirArrow" transform="rotate(90) translate(36 -43)" onmousedown="handlePan(1,0)">
                  <use xlink:href="#rim" fill="#404040">
                        <set attributeName="fill" to="#808080" begin="arrowRight.mouseover" end="arrowRight.mouseout"/>
                  </use>
                  <path fill="none" stroke="white" stroke-width="1.5" d="M0,-3.0v7 M-2.5,-0.5L0,-3.0L2.5,-0.5"/>
                </g>
                <g id="arrowDown" xlink:href="#dirArrow" transform="rotate(180) translate(-30 -48)" onmousedown="handlePan(0,1)">
                  <use xlink:href="#rim" fill="#404040">
                        <set attributeName="fill" to="#808080" begin="arrowDown.mouseover" end="arrowDown.mouseout"/>
                  </use>
                  <path fill="none" stroke="white" stroke-width="1.5" d="M0,-3.0v7 M-2.5,-0.5L0,-3.0L2.5,-0.5"/>
                </g>
                <g id="arrowLeft" xlink:href="#dirArrow" transform="rotate(270) translate(-36 17)" onmousedown="handlePan(-1,0)">
                  <use xlink:href="#rim" fill="#404040">
                        <set attributeName="fill" to="#808080" begin="arrowLeft.mouseover" end="arrowLeft.mouseout"/>
                  </use>
                  <path fill="none" stroke="white" stroke-width="1.5" d="M0,-3.0v7 M-2.5,-0.5L0,-3.0L2.5,-0.5"/>
                </g>
        </g>
        <svg viewBox="0 0 15 15" width="100%" height="30px" preserveAspectRatio="xMaxYMin meet">
         <g id="arrow_out" transform="scale(0.3 0.3)">
          <a xlink:href="_primitive_behaviour_names_8h__dep__incl_org.svg" target="_base">
           <rect id="button" ry="5" rx="5" y="6" x="6" height="38" width="38"
                fill="#f2f5e9" fill-opacity="0.5" stroke="#606060" stroke-width="1.0"/>
           <path id="arrow"
             d="M 11.500037,31.436501 C 11.940474,20.09759 22.043105,11.32322 32.158766,21.979434 L 37.068811,17.246167 C 37.068811,17.246167 37.088388,32 37.088388,32 L 22.160133,31.978069 C 22.160133,31.978069 26.997745,27.140456 26.997745,27.140456 C 18.528582,18.264221 13.291696,25.230495 11.500037,31.436501 z"
             style="fill:#404040;"/>
          </a>
         </g>
        </svg>
</svg>
