<?xml version="1.0" encoding="UTF-8" standalone="no"?>
<!DOCTYPE svg PUBLIC "-//W3C//DTD SVG 1.1//EN"
 "http://www.w3.org/Graphics/SVG/1.1/DTD/svg11.dtd">
<!-- Generated by graphviz version 13.1.0 (20250701.0955)
 -->
<!-- Title: ProgramMetaData.hpp Pages: 1 -->
<svg width="344pt" height="85pt"
 viewBox="0.00 0.00 344.00 85.00" xmlns="http://www.w3.org/2000/svg" xmlns:xlink="http://www.w3.org/1999/xlink">
<g id="graph0" class="graph" transform="scale(1 1) rotate(0) translate(4 80.5)">
<title>ProgramMetaData.hpp</title>
<polygon fill="white" stroke="none" points="-4,4 -4,-80.5 340.25,-80.5 340.25,4 -4,4"/>
<!-- Node1 -->
<g id="node1" class="node">
<title>Node1</title>
<g id="a_node1"><a xlink:title=" ">
<polygon fill="#bfbfbf" stroke="black" points="110.12,-56.75 110.12,-76 224.38,-76 224.38,-56.75 110.12,-56.75"/>
<text xml:space="preserve" text-anchor="middle" x="167.25" y="-62.5" font-family="Helvetica,sans-Serif" font-size="10.00">ProgramMetaData.hpp</text>
</a>
</g>
</g>
<!-- Node2 -->
<g id="node2" class="node">
<title>Node2</title>
<g id="a_node2"><a xlink:href="_method_class_8cpp.html" target="_top" xlink:title=" ">
<polygon fill="white" stroke="black" points="0,-0.5 0,-19.75 92.5,-19.75 92.5,-0.5 0,-0.5"/>
<text xml:space="preserve" text-anchor="middle" x="46.25" y="-6.25" font-family="Helvetica,sans-Serif" font-size="10.00">MethodClass.cpp</text>
</a>
</g>
</g>
<!-- Node1&#45;&gt;Node2 -->
<g id="edge1" class="edge">
<title>Node1&#45;&gt;Node2</title>
<path fill="none" stroke="midnightblue" d="M136.55,-51.61C114.61,-41.78 85.7,-28.81 66.57,-20.23"/>
<polygon fill="midnightblue" stroke="midnightblue" points="135.06,-54.78 145.62,-55.68 137.92,-48.39 135.06,-54.78"/>
</g>
<!-- Node3 -->
<g id="node3" class="node">
<title>Node3</title>
<g id="a_node3"><a xlink:href="_program_meta_data_8cpp.html" target="_top" xlink:title=" ">
<polygon fill="white" stroke="black" points="110.12,-0.5 110.12,-19.75 224.38,-19.75 224.38,-0.5 110.12,-0.5"/>
<text xml:space="preserve" text-anchor="middle" x="167.25" y="-6.25" font-family="Helvetica,sans-Serif" font-size="10.00">ProgramMetaData.cpp</text>
</a>
</g>
</g>
<!-- Node1&#45;&gt;Node3 -->
<g id="edge2" class="edge">
<title>Node1&#45;&gt;Node3</title>
<path fill="none" stroke="midnightblue" d="M167.25,-45.19C167.25,-36.48 167.25,-26.74 167.25,-19.92"/>
<polygon fill="midnightblue" stroke="midnightblue" points="163.75,-44.9 167.25,-54.9 170.75,-44.9 163.75,-44.9"/>
</g>
<!-- Node4 -->
<g id="node4" class="node">
<title>Node4</title>
<g id="a_node4"><a xlink:href="_routine_class_8cpp.html" target="_top" xlink:title=" ">
<polygon fill="white" stroke="black" points="242.25,-0.5 242.25,-19.75 336.25,-19.75 336.25,-0.5 242.25,-0.5"/>
<text xml:space="preserve" text-anchor="middle" x="289.25" y="-6.25" font-family="Helvetica,sans-Serif" font-size="10.00">RoutineClass.cpp</text>
</a>
</g>
</g>
<!-- Node1&#45;&gt;Node4 -->
<g id="edge3" class="edge">
<title>Node1&#45;&gt;Node4</title>
<path fill="none" stroke="midnightblue" d="M197.9,-51.75C220.06,-41.89 249.39,-28.85 268.76,-20.23"/>
<polygon fill="midnightblue" stroke="midnightblue" points="196.77,-48.42 189.05,-55.68 199.61,-54.81 196.77,-48.42"/>
</g>
</g>
</svg>
