<?xml version="1.0" encoding="UTF-8" standalone="no"?>
<!DOCTYPE svg PUBLIC "-//W3C//DTD SVG 1.1//EN"
 "http://www.w3.org/Graphics/SVG/1.1/DTD/svg11.dtd">
<!-- Generated by graphviz version 13.1.0 (20250701.0955)
 -->
<!-- Title: ProtectedObject.cpp Pages: 1 -->
<svg width="1724pt" height="535pt"
 viewBox="0.00 0.00 1724.00 535.00" xmlns="http://www.w3.org/2000/svg" xmlns:xlink="http://www.w3.org/1999/xlink">
<g id="graph0" class="graph" transform="scale(1 1) rotate(0) translate(4 530.5)">
<title>ProtectedObject.cpp</title>
<polygon fill="white" stroke="none" points="-4,4 -4,-530.5 1720.12,-530.5 1720.12,4 -4,4"/>
<!-- Node1 -->
<g id="node1" class="node">
<title>Node1</title>
<g id="a_node1"><a xlink:title=" ">
<polygon fill="#bfbfbf" stroke="black" points="797.38,-506.75 797.38,-526 902.62,-526 902.62,-506.75 797.38,-506.75"/>
<text xml:space="preserve" text-anchor="middle" x="850" y="-512.5" font-family="Helvetica,sans-Serif" font-size="10.00">ProtectedObject.cpp</text>
</a>
</g>
</g>
<!-- Node2 -->
<g id="node2" class="node">
<title>Node2</title>
<g id="a_node2"><a xlink:href="_rexx_core_8h.html" target="_top" xlink:title=" ">
<polygon fill="white" stroke="black" points="758.75,-225.5 758.75,-244.75 827.25,-244.75 827.25,-225.5 758.75,-225.5"/>
<text xml:space="preserve" text-anchor="middle" x="793" y="-231.25" font-family="Helvetica,sans-Serif" font-size="10.00">RexxCore.h</text>
</a>
</g>
</g>
<!-- Node1&#45;&gt;Node2 -->
<g id="edge1" class="edge">
<title>Node1&#45;&gt;Node2</title>
<path fill="none" stroke="midnightblue" d="M797.06,-514.88C722.62,-511.06 596,-491.8 596,-404.88 596,-404.88 596,-404.88 596,-346.62 596,-277.51 689.38,-251.19 747.56,-241.49"/>
<polygon fill="midnightblue" stroke="midnightblue" points="747.84,-244.99 757.19,-240 746.77,-238.07 747.84,-244.99"/>
</g>
<!-- Node36 -->
<g id="node21" class="node">
<title>Node36</title>
<g id="a_node21"><a xlink:href="_array_class_8hpp.html" target="_top" xlink:title=" ">
<polygon fill="white" stroke="black" points="111.25,-56.75 111.25,-76 194.75,-76 194.75,-56.75 111.25,-56.75"/>
<text xml:space="preserve" text-anchor="middle" x="153" y="-62.5" font-family="Helvetica,sans-Serif" font-size="10.00">ArrayClass.hpp</text>
</a>
</g>
</g>
<!-- Node1&#45;&gt;Node36 -->
<g id="edge62" class="edge">
<title>Node1&#45;&gt;Node36</title>
<path fill="none" stroke="midnightblue" d="M797.15,-514.09C611.45,-508.9 0,-485.65 0,-404.88 0,-404.88 0,-404.88 0,-177.88 0,-125.05 60.67,-94.94 105.6,-79.88"/>
<polygon fill="midnightblue" stroke="midnightblue" points="106.44,-83.29 114.91,-76.92 104.32,-76.62 106.44,-83.29"/>
</g>
<!-- Node47 -->
<g id="node31" class="node">
<title>Node47</title>
<g id="a_node31"><a xlink:href="_protected_object_8hpp.html" target="_top" xlink:title=" ">
<polygon fill="white" stroke="black" points="797.38,-450.5 797.38,-469.75 902.62,-469.75 902.62,-450.5 797.38,-450.5"/>
<text xml:space="preserve" text-anchor="middle" x="850" y="-456.25" font-family="Helvetica,sans-Serif" font-size="10.00">ProtectedObject.hpp</text>
</a>
</g>
</g>
<!-- Node1&#45;&gt;Node47 -->
<g id="edge37" class="edge">
<title>Node1&#45;&gt;Node47</title>
<path fill="none" stroke="midnightblue" d="M850,-506.42C850,-499.62 850,-490.01 850,-481.4"/>
<polygon fill="midnightblue" stroke="midnightblue" points="853.5,-481.43 850,-471.43 846.5,-481.43 853.5,-481.43"/>
</g>
<!-- Node48 -->
<g id="node32" class="node">
<title>Node48</title>
<g id="a_node32"><a xlink:href="_activity_8hpp.html" target="_top" xlink:title=" ">
<polygon fill="white" stroke="black" points="1035.88,-394.25 1035.88,-413.5 1102.12,-413.5 1102.12,-394.25 1035.88,-394.25"/>
<text xml:space="preserve" text-anchor="middle" x="1069" y="-400" font-family="Helvetica,sans-Serif" font-size="10.00">Activity.hpp</text>
</a>
</g>
</g>
<!-- Node1&#45;&gt;Node48 -->
<g id="edge38" class="edge">
<title>Node1&#45;&gt;Node48</title>
<path fill="none" stroke="midnightblue" d="M867.92,-506.33C906.03,-487.1 995.37,-442.02 1041.04,-418.98"/>
<polygon fill="midnightblue" stroke="midnightblue" points="1042.44,-422.2 1049.79,-414.57 1039.28,-415.95 1042.44,-422.2"/>
</g>
<!-- Node67 -->
<g id="node46" class="node">
<title>Node67</title>
<g id="a_node46"><a xlink:href="_activity_manager_8hpp.html" target="_top" xlink:title=" ">
<polygon fill="white" stroke="black" points="1373.75,-450.5 1373.75,-469.75 1478.25,-469.75 1478.25,-450.5 1373.75,-450.5"/>
<text xml:space="preserve" text-anchor="middle" x="1426" y="-456.25" font-family="Helvetica,sans-Serif" font-size="10.00">ActivityManager.hpp</text>
</a>
</g>
</g>
<!-- Node1&#45;&gt;Node67 -->
<g id="edge63" class="edge">
<title>Node1&#45;&gt;Node67</title>
<path fill="none" stroke="midnightblue" d="M902.9,-510.39C1008.97,-500.4 1247.29,-477.96 1361.96,-467.16"/>
<polygon fill="midnightblue" stroke="midnightblue" points="1362.2,-470.65 1371.82,-466.23 1361.54,-463.68 1362.2,-470.65"/>
</g>
<!-- Node3 -->
<g id="node3" class="node">
<title>Node3</title>
<g id="a_node3"><a xlink:href="oorexxapi_8h.html" target="_top" xlink:title=" ">
<polygon fill="white" stroke="black" points="150.88,-169.25 150.88,-188.5 217.12,-188.5 217.12,-169.25 150.88,-169.25"/>
<text xml:space="preserve" text-anchor="middle" x="184" y="-175" font-family="Helvetica,sans-Serif" font-size="10.00">oorexxapi.h</text>
</a>
</g>
</g>
<!-- Node2&#45;&gt;Node3 -->
<g id="edge2" class="edge">
<title>Node2&#45;&gt;Node3</title>
<path fill="none" stroke="midnightblue" d="M758.37,-232.93C671.19,-229.58 435.46,-218.47 228.35,-188.98"/>
<polygon fill="midnightblue" stroke="midnightblue" points="229.15,-185.56 218.76,-187.59 228.15,-192.49 229.15,-185.56"/>
</g>
<!-- Node10 -->
<g id="node6" class="node">
<title>Node10</title>
<g id="a_node6"><a xlink:title=" ">
<polygon fill="white" stroke="#bfbfbf" points="527.25,-169.25 527.25,-188.5 634.75,-188.5 634.75,-169.25 527.25,-169.25"/>
<text xml:space="preserve" text-anchor="middle" x="581" y="-175" font-family="Helvetica,sans-Serif" font-size="10.00">PlatformDefinitions.h</text>
</a>
</g>
</g>
<!-- Node2&#45;&gt;Node10 -->
<g id="edge5" class="edge">
<title>Node2&#45;&gt;Node10</title>
<path fill="none" stroke="midnightblue" d="M758.47,-225.29C722.83,-216.17 667.02,-201.89 627.51,-191.78"/>
<polygon fill="midnightblue" stroke="midnightblue" points="628.6,-188.44 618.05,-189.36 626.87,-195.22 628.6,-188.44"/>
</g>
<!-- Node11 -->
<g id="node7" class="node">
<title>Node11</title>
<g id="a_node7"><a xlink:href="_class_type_codes_8h.html" target="_top" xlink:title=" ">
<polygon fill="white" stroke="black" points="346.38,-56.75 346.38,-76 445.62,-76 445.62,-56.75 346.38,-56.75"/>
<text xml:space="preserve" text-anchor="middle" x="396" y="-62.5" font-family="Helvetica,sans-Serif" font-size="10.00">ClassTypeCodes.h</text>
</a>
</g>
</g>
<!-- Node2&#45;&gt;Node11 -->
<g id="edge6" class="edge">
<title>Node2&#45;&gt;Node11</title>
<path fill="none" stroke="midnightblue" d="M758.53,-231.75C664.17,-224.44 405.56,-198.62 359,-132.75 347.84,-116.96 362.01,-97.54 375.92,-83.98"/>
<polygon fill="midnightblue" stroke="midnightblue" points="378.12,-86.71 383.19,-77.4 373.43,-81.52 378.12,-86.71"/>
</g>
<!-- Node12 -->
<g id="node8" class="node">
<title>Node12</title>
<g id="a_node8"><a xlink:href="_object_class_8hpp.html" target="_top" xlink:title=" ">
<polygon fill="white" stroke="black" points="1429.62,-169.25 1429.62,-188.5 1518.38,-188.5 1518.38,-169.25 1429.62,-169.25"/>
<text xml:space="preserve" text-anchor="middle" x="1474" y="-175" font-family="Helvetica,sans-Serif" font-size="10.00">ObjectClass.hpp</text>
</a>
</g>
</g>
<!-- Node2&#45;&gt;Node12 -->
<g id="edge7" class="edge">
<title>Node2&#45;&gt;Node12</title>
<path fill="none" stroke="midnightblue" d="M827.71,-231.36C938.19,-222.56 1282.39,-195.14 1418.14,-184.32"/>
<polygon fill="midnightblue" stroke="midnightblue" points="1418.27,-187.83 1427.96,-183.54 1417.72,-180.85 1418.27,-187.83"/>
</g>
<!-- Node18 -->
<g id="node13" class="node">
<title>Node18</title>
<g id="a_node13"><a xlink:href="_table_class_8hpp.html" target="_top" xlink:title=" ">
<polygon fill="white" stroke="black" points="846.25,-169.25 846.25,-188.5 929.75,-188.5 929.75,-169.25 846.25,-169.25"/>
<text xml:space="preserve" text-anchor="middle" x="888" y="-175" font-family="Helvetica,sans-Serif" font-size="10.00">TableClass.hpp</text>
</a>
</g>
</g>
<!-- Node2&#45;&gt;Node18 -->
<g id="edge13" class="edge">
<title>Node2&#45;&gt;Node18</title>
<path fill="none" stroke="midnightblue" d="M808.69,-225.17C823.26,-216.84 845.24,-204.29 862.36,-194.52"/>
<polygon fill="midnightblue" stroke="midnightblue" points="864.03,-197.6 870.98,-189.6 860.56,-191.52 864.03,-197.6"/>
</g>
<!-- Node30 -->
<g id="node15" class="node">
<title>Node30</title>
<g id="a_node15"><a xlink:href="_rexx_memory_8hpp.html" target="_top" xlink:title=" ">
<polygon fill="white" stroke="black" points="653.12,-169.25 653.12,-188.5 744.88,-188.5 744.88,-169.25 653.12,-169.25"/>
<text xml:space="preserve" text-anchor="middle" x="699" y="-175" font-family="Helvetica,sans-Serif" font-size="10.00">RexxMemory.hpp</text>
</a>
</g>
</g>
<!-- Node2&#45;&gt;Node30 -->
<g id="edge15" class="edge">
<title>Node2&#45;&gt;Node30</title>
<path fill="none" stroke="midnightblue" d="M777.48,-225.17C763.05,-216.84 741.31,-204.29 724.37,-194.52"/>
<polygon fill="midnightblue" stroke="midnightblue" points="726.27,-191.57 715.86,-189.6 722.77,-197.63 726.27,-191.57"/>
</g>
<!-- Node44 -->
<g id="node26" class="node">
<title>Node44</title>
<g id="a_node26"><a xlink:href="_rexx_behaviour_8hpp.html" target="_top" xlink:title=" ">
<polygon fill="white" stroke="black" points="1093.62,-169.25 1093.62,-188.5 1194.38,-188.5 1194.38,-169.25 1093.62,-169.25"/>
<text xml:space="preserve" text-anchor="middle" x="1144" y="-175" font-family="Helvetica,sans-Serif" font-size="10.00">RexxBehaviour.hpp</text>
</a>
</g>
</g>
<!-- Node2&#45;&gt;Node44 -->
<g id="edge31" class="edge">
<title>Node2&#45;&gt;Node44</title>
<path fill="none" stroke="midnightblue" d="M827.62,-228.77C886.84,-219.62 1008.36,-200.84 1082.36,-189.4"/>
<polygon fill="midnightblue" stroke="midnightblue" points="1082.52,-192.92 1091.87,-187.93 1081.45,-186 1082.52,-192.92"/>
</g>
<!-- Node23 -->
<g id="node29" class="node">
<title>Node23</title>
<g id="a_node29"><a xlink:href="_class_class_8hpp.html" target="_top" xlink:title=" ">
<polygon fill="white" stroke="black" points="1212.12,-169.25 1212.12,-188.5 1297.88,-188.5 1297.88,-169.25 1212.12,-169.25"/>
<text xml:space="preserve" text-anchor="middle" x="1255" y="-175" font-family="Helvetica,sans-Serif" font-size="10.00">ClassClass.hpp</text>
</a>
</g>
</g>
<!-- Node2&#45;&gt;Node23 -->
<g id="edge34" class="edge">
<title>Node2&#45;&gt;Node23</title>
<path fill="none" stroke="midnightblue" d="M827.65,-231.07C896.59,-224.82 1056.03,-209.57 1200.63,-189.25"/>
<polygon fill="midnightblue" stroke="midnightblue" points="1201,-192.74 1210.41,-187.87 1200.01,-185.81 1201,-192.74"/>
</g>
<!-- Node46 -->
<g id="node30" class="node">
<title>Node46</title>
<g id="a_node30"><a xlink:href="_envelope_8hpp.html" target="_top" xlink:title=" ">
<polygon fill="white" stroke="black" points="236.38,-169.25 236.38,-188.5 311.62,-188.5 311.62,-169.25 236.38,-169.25"/>
<text xml:space="preserve" text-anchor="middle" x="274" y="-175" font-family="Helvetica,sans-Serif" font-size="10.00">Envelope.hpp</text>
</a>
</g>
</g>
<!-- Node2&#45;&gt;Node46 -->
<g id="edge36" class="edge">
<title>Node2&#45;&gt;Node46</title>
<path fill="none" stroke="midnightblue" d="M758.33,-231.7C680.69,-226.06 487.02,-210.87 326,-189 325.01,-188.87 324,-188.72 322.99,-188.58"/>
<polygon fill="midnightblue" stroke="midnightblue" points="323.91,-185.18 313.5,-187.12 322.85,-192.1 323.91,-185.18"/>
</g>
<!-- Node4 -->
<g id="node4" class="node">
<title>Node4</title>
<g id="a_node4"><a xlink:href="rexx_8h.html" target="_top" xlink:title=" ">
<polygon fill="white" stroke="red" points="162.5,-113 162.5,-132.25 205.5,-132.25 205.5,-113 162.5,-113"/>
<text xml:space="preserve" text-anchor="middle" x="184" y="-118.75" font-family="Helvetica,sans-Serif" font-size="10.00">rexx.h</text>
</a>
</g>
</g>
<!-- Node3&#45;&gt;Node4 -->
<g id="edge3" class="edge">
<title>Node3&#45;&gt;Node4</title>
<path fill="none" stroke="midnightblue" d="M184,-168.92C184,-162.12 184,-152.51 184,-143.9"/>
<polygon fill="midnightblue" stroke="midnightblue" points="187.5,-143.93 184,-133.93 180.5,-143.93 187.5,-143.93"/>
</g>
<!-- Node9 -->
<g id="node5" class="node">
<title>Node9</title>
<g id="a_node5"><a xlink:href="oorexxerrors_8h.html" target="_top" xlink:title=" ">
<polygon fill="white" stroke="black" points="65.88,-113 65.88,-132.25 144.12,-132.25 144.12,-113 65.88,-113"/>
<text xml:space="preserve" text-anchor="middle" x="105" y="-118.75" font-family="Helvetica,sans-Serif" font-size="10.00">oorexxerrors.h</text>
</a>
</g>
</g>
<!-- Node3&#45;&gt;Node9 -->
<g id="edge4" class="edge">
<title>Node3&#45;&gt;Node9</title>
<path fill="none" stroke="midnightblue" d="M170.95,-168.92C159.18,-160.83 141.59,-148.75 127.54,-139.1"/>
<polygon fill="midnightblue" stroke="midnightblue" points="129.54,-136.23 119.31,-133.45 125.57,-142 129.54,-136.23"/>
</g>
<!-- Node13 -->
<g id="node9" class="node">
<title>Node13</title>
<g id="a_node9"><a xlink:title=" ">
<polygon fill="white" stroke="#bfbfbf" points="1468,-113 1468,-132.25 1502,-132.25 1502,-113 1468,-113"/>
<text xml:space="preserve" text-anchor="middle" x="1485" y="-118.75" font-family="Helvetica,sans-Serif" font-size="10.00">new</text>
</a>
</g>
</g>
<!-- Node12&#45;&gt;Node13 -->
<g id="edge8" class="edge">
<title>Node12&#45;&gt;Node13</title>
<path fill="none" stroke="midnightblue" d="M1475.82,-168.92C1477.21,-162.04 1479.19,-152.29 1480.95,-143.6"/>
<polygon fill="midnightblue" stroke="midnightblue" points="1484.36,-144.4 1482.92,-133.9 1477.5,-143 1484.36,-144.4"/>
</g>
<!-- Node14 -->
<g id="node10" class="node">
<title>Node14</title>
<g id="a_node10"><a xlink:title=" ">
<polygon fill="white" stroke="#bfbfbf" points="1505.88,-56.75 1505.88,-76 1554.12,-76 1554.12,-56.75 1505.88,-56.75"/>
<text xml:space="preserve" text-anchor="middle" x="1530" y="-62.5" font-family="Helvetica,sans-Serif" font-size="10.00">string.h</text>
</a>
</g>
</g>
<!-- Node12&#45;&gt;Node14 -->
<g id="edge9" class="edge">
<title>Node12&#45;&gt;Node14</title>
<path fill="none" stroke="midnightblue" d="M1483.15,-169C1491.51,-160.43 1503.63,-146.73 1511,-132.75 1518.51,-118.49 1523.41,-100.86 1526.35,-87.51"/>
<polygon fill="midnightblue" stroke="midnightblue" points="1529.78,-88.24 1528.3,-77.75 1522.91,-86.87 1529.78,-88.24"/>
</g>
<!-- Node15 -->
<g id="node11" class="node">
<title>Node15</title>
<g id="a_node11"><a xlink:href="_numerics_8hpp.html" target="_top" xlink:title=" ">
<polygon fill="white" stroke="red" points="1325.62,-0.5 1325.62,-19.75 1402.38,-19.75 1402.38,-0.5 1325.62,-0.5"/>
<text xml:space="preserve" text-anchor="middle" x="1364" y="-6.25" font-family="Helvetica,sans-Serif" font-size="10.00">Numerics.hpp</text>
</a>
</g>
</g>
<!-- Node12&#45;&gt;Node15 -->
<g id="edge10" class="edge">
<title>Node12&#45;&gt;Node15</title>
<path fill="none" stroke="midnightblue" d="M1468.09,-168.91C1450.7,-142.56 1399.52,-64.97 1376.03,-29.36"/>
<polygon fill="midnightblue" stroke="midnightblue" points="1379.2,-27.82 1370.78,-21.4 1373.36,-31.67 1379.2,-27.82"/>
</g>
<!-- Node17 -->
<g id="node12" class="node">
<title>Node17</title>
<g id="a_node12"><a xlink:href="_rexx_error_codes_8h.html" target="_top" xlink:title=" ">
<polygon fill="white" stroke="black" points="1558.5,-113 1558.5,-132.25 1655.5,-132.25 1655.5,-113 1558.5,-113"/>
<text xml:space="preserve" text-anchor="middle" x="1607" y="-118.75" font-family="Helvetica,sans-Serif" font-size="10.00">RexxErrorCodes.h</text>
</a>
</g>
</g>
<!-- Node12&#45;&gt;Node17 -->
<g id="edge12" class="edge">
<title>Node12&#45;&gt;Node17</title>
<path fill="none" stroke="midnightblue" d="M1496.26,-168.79C1517.55,-160.11 1549.91,-146.91 1574.16,-137.02"/>
<polygon fill="midnightblue" stroke="midnightblue" points="1575.33,-140.32 1583.26,-133.31 1572.68,-133.84 1575.33,-140.32"/>
</g>
<!-- Node15&#45;&gt;Node2 -->
<g id="edge11" class="edge">
<title>Node15&#45;&gt;Node2</title>
<path fill="none" stroke="midnightblue" d="M1364.68,-20.19C1366.44,-51.26 1367.36,-153.46 1307,-189 1267.13,-212.48 956.79,-227.45 838.54,-232.36"/>
<polygon fill="midnightblue" stroke="midnightblue" points="838.75,-228.84 828.9,-232.75 839.04,-235.84 838.75,-228.84"/>
</g>
<!-- Node19 -->
<g id="node14" class="node">
<title>Node19</title>
<g id="a_node14"><a xlink:href="_hash_collection_8hpp.html" target="_top" xlink:title=" ">
<polygon fill="white" stroke="red" points="919.25,-56.75 919.25,-76 1020.75,-76 1020.75,-56.75 919.25,-56.75"/>
<text xml:space="preserve" text-anchor="middle" x="970" y="-62.5" font-family="Helvetica,sans-Serif" font-size="10.00">HashCollection.hpp</text>
</a>
</g>
</g>
<!-- Node18&#45;&gt;Node19 -->
<g id="edge14" class="edge">
<title>Node18&#45;&gt;Node19</title>
<path fill="none" stroke="midnightblue" d="M906.9,-168.76C921.01,-161.03 939.73,-148.67 951,-132.75 960.52,-119.31 965.3,-101.13 967.69,-87.35"/>
<polygon fill="midnightblue" stroke="midnightblue" points="971.12,-88.09 969.06,-77.7 964.19,-87.11 971.12,-88.09"/>
</g>
<!-- Node31 -->
<g id="node16" class="node">
<title>Node31</title>
<g id="a_node16"><a xlink:href="_memory_8hpp.html" target="_top" xlink:title=" ">
<polygon fill="white" stroke="black" points="558.75,-56.75 558.75,-76 627.25,-76 627.25,-56.75 558.75,-56.75"/>
<text xml:space="preserve" text-anchor="middle" x="593" y="-62.5" font-family="Helvetica,sans-Serif" font-size="10.00">Memory.hpp</text>
</a>
</g>
</g>
<!-- Node30&#45;&gt;Node31 -->
<g id="edge16" class="edge">
<title>Node30&#45;&gt;Node31</title>
<path fill="none" stroke="midnightblue" d="M657.26,-168.78C623.67,-160.52 580.4,-147.41 570,-132.75 559.8,-118.38 568.8,-99.06 578.37,-85.15"/>
<polygon fill="midnightblue" stroke="midnightblue" points="581.03,-87.43 584.26,-77.34 575.44,-83.21 581.03,-87.43"/>
</g>
<!-- Node32 -->
<g id="node17" class="node">
<title>Node32</title>
<g id="a_node17"><a xlink:href="_memory_stack_8hpp.html" target="_top" xlink:title=" ">
<polygon fill="white" stroke="black" points="998.25,-113 998.25,-132.25 1093.75,-132.25 1093.75,-113 998.25,-113"/>
<text xml:space="preserve" text-anchor="middle" x="1046" y="-118.75" font-family="Helvetica,sans-Serif" font-size="10.00">MemoryStack.hpp</text>
</a>
</g>
</g>
<!-- Node30&#45;&gt;Node32 -->
<g id="edge17" class="edge">
<title>Node30&#45;&gt;Node32</title>
<path fill="none" stroke="midnightblue" d="M745.08,-170.67C807.34,-160.94 918.38,-143.58 986.77,-132.89"/>
<polygon fill="midnightblue" stroke="midnightblue" points="986.94,-136.4 996.28,-131.4 985.86,-129.48 986.94,-136.4"/>
</g>
<!-- Node33 -->
<g id="node18" class="node">
<title>Node33</title>
<g id="a_node18"><a xlink:title=" ">
<polygon fill="white" stroke="#bfbfbf" points="840.25,-113 840.25,-132.25 941.75,-132.25 941.75,-113 840.25,-113"/>
<text xml:space="preserve" text-anchor="middle" x="891" y="-118.75" font-family="Helvetica,sans-Serif" font-size="10.00">SysSemaphore.hpp</text>
</a>
</g>
</g>
<!-- Node30&#45;&gt;Node33 -->
<g id="edge19" class="edge">
<title>Node30&#45;&gt;Node33</title>
<path fill="none" stroke="midnightblue" d="M731.14,-168.79C763.12,-159.76 812.4,-145.83 847.8,-135.83"/>
<polygon fill="midnightblue" stroke="midnightblue" points="848.63,-139.23 857.3,-133.15 846.73,-132.5 848.63,-139.23"/>
</g>
<!-- Node34 -->
<g id="node19" class="node">
<title>Node34</title>
<g id="a_node19"><a xlink:href="_identity_table_class_8hpp.html" target="_top" xlink:title=" ">
<polygon fill="white" stroke="black" points="706.12,-113 706.12,-132.25 821.88,-132.25 821.88,-113 706.12,-113"/>
<text xml:space="preserve" text-anchor="middle" x="764" y="-118.75" font-family="Helvetica,sans-Serif" font-size="10.00">IdentityTableClass.hpp</text>
</a>
</g>
</g>
<!-- Node30&#45;&gt;Node34 -->
<g id="edge20" class="edge">
<title>Node30&#45;&gt;Node34</title>
<path fill="none" stroke="midnightblue" d="M709.73,-168.92C719.2,-161.02 733.22,-149.31 744.64,-139.78"/>
<polygon fill="midnightblue" stroke="midnightblue" points="746.87,-142.48 752.3,-133.39 742.38,-137.11 746.87,-142.48"/>
</g>
<!-- Node35 -->
<g id="node20" class="node">
<title>Node35</title>
<g id="a_node20"><a xlink:href="_queue_class_8hpp.html" target="_top" xlink:title=" ">
<polygon fill="white" stroke="black" points="223.62,-113 223.62,-132.25 312.38,-132.25 312.38,-113 223.62,-113"/>
<text xml:space="preserve" text-anchor="middle" x="268" y="-118.75" font-family="Helvetica,sans-Serif" font-size="10.00">QueueClass.hpp</text>
</a>
</g>
</g>
<!-- Node30&#45;&gt;Node35 -->
<g id="edge22" class="edge">
<title>Node30&#45;&gt;Node35</title>
<path fill="none" stroke="midnightblue" d="M652.81,-170.06C649.83,-169.6 646.87,-169.16 644,-168.75 530.63,-152.55 397.47,-137.51 323.93,-129.54"/>
<polygon fill="midnightblue" stroke="midnightblue" points="324.48,-126.08 314.16,-128.49 323.72,-133.04 324.48,-126.08"/>
</g>
<!-- Node38 -->
<g id="node23" class="node">
<title>Node38</title>
<g id="a_node23"><a xlink:title=" ">
<polygon fill="white" stroke="#bfbfbf" points="479.5,-113 479.5,-132.25 522.5,-132.25 522.5,-113 479.5,-113"/>
<text xml:space="preserve" text-anchor="middle" x="501" y="-118.75" font-family="Helvetica,sans-Serif" font-size="10.00">vector</text>
</a>
</g>
</g>
<!-- Node30&#45;&gt;Node38 -->
<g id="edge26" class="edge">
<title>Node30&#45;&gt;Node38</title>
<path fill="none" stroke="midnightblue" d="M665.86,-168.79C629.2,-158.75 570.5,-142.67 533.93,-132.65"/>
<polygon fill="midnightblue" stroke="midnightblue" points="534.92,-129.29 524.35,-130.02 533.07,-136.04 534.92,-129.29"/>
</g>
<!-- Node39 -->
<g id="node24" class="node">
<title>Node39</title>
<g id="a_node24"><a xlink:href="_memory_stats_8hpp.html" target="_top" xlink:title=" ">
<polygon fill="white" stroke="black" points="368.38,-113 368.38,-132.25 461.62,-132.25 461.62,-113 368.38,-113"/>
<text xml:space="preserve" text-anchor="middle" x="415" y="-118.75" font-family="Helvetica,sans-Serif" font-size="10.00">MemoryStats.hpp</text>
</a>
</g>
</g>
<!-- Node30&#45;&gt;Node39 -->
<g id="edge27" class="edge">
<title>Node30&#45;&gt;Node39</title>
<path fill="none" stroke="midnightblue" d="M652.74,-169.04C603.68,-159.67 526.1,-144.85 472.99,-134.7"/>
<polygon fill="midnightblue" stroke="midnightblue" points="473.68,-131.27 463.2,-132.83 472.37,-138.15 473.68,-131.27"/>
</g>
<!-- Node40 -->
<g id="node25" class="node">
<title>Node40</title>
<g id="a_node25"><a xlink:href="_memory_segment_8hpp.html" target="_top" xlink:title=" ">
<polygon fill="white" stroke="red" points="579.5,-113 579.5,-132.25 688.5,-132.25 688.5,-113 579.5,-113"/>
<text xml:space="preserve" text-anchor="middle" x="634" y="-118.75" font-family="Helvetica,sans-Serif" font-size="10.00">MemorySegment.hpp</text>
</a>
</g>
</g>
<!-- Node30&#45;&gt;Node40 -->
<g id="edge29" class="edge">
<title>Node30&#45;&gt;Node40</title>
<path fill="none" stroke="midnightblue" d="M688.27,-168.92C678.8,-161.02 664.78,-149.31 653.36,-139.78"/>
<polygon fill="midnightblue" stroke="midnightblue" points="655.62,-137.11 645.7,-133.39 651.13,-142.48 655.62,-137.11"/>
</g>
<!-- Node32&#45;&gt;Node14 -->
<g id="edge18" class="edge">
<title>Node32&#45;&gt;Node14</title>
<path fill="none" stroke="midnightblue" d="M1094.18,-113.73C1097.16,-113.3 1100.12,-112.88 1103,-112.5 1247.55,-93.31 1420.5,-77.1 1494.06,-70.52"/>
<polygon fill="midnightblue" stroke="midnightblue" points="1494.24,-74.02 1503.89,-69.65 1493.62,-67.04 1494.24,-74.02"/>
</g>
<!-- Node34&#45;&gt;Node19 -->
<g id="edge21" class="edge">
<title>Node34&#45;&gt;Node19</title>
<path fill="none" stroke="midnightblue" d="M798.48,-112.54C833.09,-103.43 886.59,-89.34 924.63,-79.32"/>
<polygon fill="midnightblue" stroke="midnightblue" points="925.17,-82.8 933.94,-76.87 923.38,-76.03 925.17,-82.8"/>
</g>
<!-- Node35&#45;&gt;Node36 -->
<g id="edge23" class="edge">
<title>Node35&#45;&gt;Node36</title>
<path fill="none" stroke="midnightblue" d="M248.75,-112.54C230.67,-104.02 203.37,-91.13 182.53,-81.31"/>
<polygon fill="midnightblue" stroke="midnightblue" points="184.22,-78.23 173.68,-77.13 181.23,-84.56 184.22,-78.23"/>
</g>
<!-- Node36&#45;&gt;Node15 -->
<g id="edge25" class="edge">
<title>Node36&#45;&gt;Node15</title>
<path fill="none" stroke="midnightblue" d="M195.02,-63.22C232.31,-61.33 288.28,-58.53 337,-56.25 712.36,-38.7 1164.98,-19.49 1313.87,-13.23"/>
<polygon fill="midnightblue" stroke="midnightblue" points="1313.94,-16.73 1323.78,-12.81 1313.64,-9.73 1313.94,-16.73"/>
</g>
<!-- Node37 -->
<g id="node22" class="node">
<title>Node37</title>
<g id="a_node22"><a xlink:href="_number_array_8hpp.html" target="_top" xlink:title=" ">
<polygon fill="white" stroke="black" points="107.5,-0.5 107.5,-19.75 198.5,-19.75 198.5,-0.5 107.5,-0.5"/>
<text xml:space="preserve" text-anchor="middle" x="153" y="-6.25" font-family="Helvetica,sans-Serif" font-size="10.00">NumberArray.hpp</text>
</a>
</g>
</g>
<!-- Node36&#45;&gt;Node37 -->
<g id="edge24" class="edge">
<title>Node36&#45;&gt;Node37</title>
<path fill="none" stroke="midnightblue" d="M153,-56.42C153,-49.62 153,-40.01 153,-31.4"/>
<polygon fill="midnightblue" stroke="midnightblue" points="156.5,-31.43 153,-21.43 149.5,-31.43 156.5,-31.43"/>
</g>
<!-- Node39&#45;&gt;Node11 -->
<g id="edge28" class="edge">
<title>Node39&#45;&gt;Node11</title>
<path fill="none" stroke="midnightblue" d="M411.86,-112.67C409.4,-105.64 405.88,-95.59 402.78,-86.75"/>
<polygon fill="midnightblue" stroke="midnightblue" points="406.19,-85.88 399.58,-77.6 399.58,-88.19 406.19,-85.88"/>
</g>
<!-- Node40&#45;&gt;Node31 -->
<g id="edge30" class="edge">
<title>Node40&#45;&gt;Node31</title>
<path fill="none" stroke="midnightblue" d="M627.23,-112.67C621.62,-105.24 613.46,-94.45 606.52,-85.27"/>
<polygon fill="midnightblue" stroke="midnightblue" points="609.38,-83.24 600.56,-77.37 603.79,-87.46 609.38,-83.24"/>
</g>
<!-- Node24 -->
<g id="node27" class="node">
<title>Node24</title>
<g id="a_node27"><a xlink:href="_flag_set_8hpp.html" target="_top" xlink:title=" ">
<polygon fill="white" stroke="red" points="1267.75,-113 1267.75,-132.25 1336.25,-132.25 1336.25,-113 1267.75,-113"/>
<text xml:space="preserve" text-anchor="middle" x="1302" y="-118.75" font-family="Helvetica,sans-Serif" font-size="10.00">FlagSet.hpp</text>
</a>
</g>
</g>
<!-- Node44&#45;&gt;Node24 -->
<g id="edge32" class="edge">
<title>Node44&#45;&gt;Node24</title>
<path fill="none" stroke="midnightblue" d="M1170.45,-168.79C1196.31,-159.91 1235.92,-146.31 1264.92,-136.36"/>
<polygon fill="midnightblue" stroke="midnightblue" points="1265.72,-139.78 1274.04,-133.23 1263.44,-133.16 1265.72,-139.78"/>
</g>
<!-- Node45 -->
<g id="node28" class="node">
<title>Node45</title>
<g id="a_node28"><a xlink:href="_primitive_behaviour_names_8h.html" target="_top" xlink:title=" ">
<polygon fill="white" stroke="black" points="1112.25,-113 1112.25,-132.25 1249.75,-132.25 1249.75,-113 1112.25,-113"/>
<text xml:space="preserve" text-anchor="middle" x="1181" y="-118.75" font-family="Helvetica,sans-Serif" font-size="10.00">PrimitiveBehaviourNames.h</text>
</a>
</g>
</g>
<!-- Node44&#45;&gt;Node45 -->
<g id="edge33" class="edge">
<title>Node44&#45;&gt;Node45</title>
<path fill="none" stroke="midnightblue" d="M1150.11,-168.92C1155.12,-161.57 1162.38,-150.93 1168.6,-141.81"/>
<polygon fill="midnightblue" stroke="midnightblue" points="1171.41,-143.9 1174.15,-133.67 1165.62,-139.96 1171.41,-143.9"/>
</g>
<!-- Node23&#45;&gt;Node24 -->
<g id="edge35" class="edge">
<title>Node23&#45;&gt;Node24</title>
<path fill="none" stroke="midnightblue" d="M1262.76,-168.92C1269.33,-161.33 1278.94,-150.24 1287,-140.93"/>
<polygon fill="midnightblue" stroke="midnightblue" points="1289.49,-143.41 1293.39,-133.56 1284.2,-138.83 1289.49,-143.41"/>
</g>
<!-- Node48&#45;&gt;Node17 -->
<g id="edge61" class="edge">
<title>Node48&#45;&gt;Node17</title>
<path fill="none" stroke="midnightblue" d="M1080.11,-393.81C1096.91,-380.38 1130.1,-354.91 1161,-337.5 1270.7,-275.7 1303.52,-270.28 1421,-225 1467.42,-207.11 1483.49,-213.13 1527,-189 1551.13,-175.62 1575.14,-154.72 1590.47,-140.16"/>
<polygon fill="midnightblue" stroke="midnightblue" points="1592.61,-142.97 1597.34,-133.49 1587.73,-137.95 1592.61,-142.97"/>
</g>
<!-- Node49 -->
<g id="node33" class="node">
<title>Node49</title>
<g id="a_node33"><a xlink:href="_list_class_8hpp.html" target="_top" xlink:title=" ">
<polygon fill="white" stroke="black" points="1402,-338 1402,-357.25 1478,-357.25 1478,-338 1402,-338"/>
<text xml:space="preserve" text-anchor="middle" x="1440" y="-343.75" font-family="Helvetica,sans-Serif" font-size="10.00">ListClass.hpp</text>
</a>
</g>
</g>
<!-- Node48&#45;&gt;Node49 -->
<g id="edge39" class="edge">
<title>Node48&#45;&gt;Node49</title>
<path fill="none" stroke="midnightblue" d="M1102.2,-398.84C1159.09,-391.81 1279.06,-376.42 1390.46,-358.1"/>
<polygon fill="midnightblue" stroke="midnightblue" points="1390.77,-361.6 1400.06,-356.51 1389.63,-354.69 1390.77,-361.6"/>
</g>
<!-- Node51 -->
<g id="node35" class="node">
<title>Node51</title>
<g id="a_node35"><a xlink:href="_internal_stack_8hpp.html" target="_top" xlink:title=" ">
<polygon fill="white" stroke="black" points="1169.75,-338 1169.75,-357.25 1262.25,-357.25 1262.25,-338 1169.75,-338"/>
<text xml:space="preserve" text-anchor="middle" x="1216" y="-343.75" font-family="Helvetica,sans-Serif" font-size="10.00">InternalStack.hpp</text>
</a>
</g>
</g>
<!-- Node48&#45;&gt;Node51 -->
<g id="edge42" class="edge">
<title>Node48&#45;&gt;Node51</title>
<path fill="none" stroke="midnightblue" d="M1093.6,-393.79C1117.45,-384.99 1153.87,-371.55 1180.79,-361.62"/>
<polygon fill="midnightblue" stroke="midnightblue" points="1181.73,-365 1189.9,-358.26 1179.3,-358.44 1181.73,-365"/>
</g>
<!-- Node52 -->
<g id="node36" class="node">
<title>Node52</title>
<g id="a_node36"><a xlink:href="_activation_stack_8hpp.html" target="_top" xlink:title=" ">
<polygon fill="white" stroke="black" points="1280.12,-338 1280.12,-357.25 1383.88,-357.25 1383.88,-338 1280.12,-338"/>
<text xml:space="preserve" text-anchor="middle" x="1332" y="-343.75" font-family="Helvetica,sans-Serif" font-size="10.00">ActivationStack.hpp</text>
</a>
</g>
</g>
<!-- Node48&#45;&gt;Node52 -->
<g id="edge43" class="edge">
<title>Node48&#45;&gt;Node52</title>
<path fill="none" stroke="midnightblue" d="M1102.58,-395.95C1146.57,-386.87 1224.3,-370.84 1276.96,-359.98"/>
<polygon fill="midnightblue" stroke="midnightblue" points="1277.55,-363.43 1286.64,-357.98 1276.14,-356.57 1277.55,-363.43"/>
</g>
<!-- Node53 -->
<g id="node37" class="node">
<title>Node53</title>
<g id="a_node37"><a xlink:href="_expression_stack_8hpp.html" target="_top" xlink:title=" ">
<polygon fill="white" stroke="black" points="304.5,-225.5 304.5,-244.75 413.5,-244.75 413.5,-225.5 304.5,-225.5"/>
<text xml:space="preserve" text-anchor="middle" x="359" y="-231.25" font-family="Helvetica,sans-Serif" font-size="10.00">ExpressionStack.hpp</text>
</a>
</g>
</g>
<!-- Node48&#45;&gt;Node53 -->
<g id="edge44" class="edge">
<title>Node48&#45;&gt;Node53</title>
<path fill="none" stroke="midnightblue" d="M1035.54,-402.45C964.13,-400.84 792.01,-393.27 653,-357.75 550.54,-331.57 436.9,-276.52 386.11,-250.43"/>
<polygon fill="midnightblue" stroke="midnightblue" points="387.8,-247.37 377.31,-245.87 384.58,-253.58 387.8,-247.37"/>
</g>
<!-- Node54 -->
<g id="node38" class="node">
<title>Node54</title>
<g id="a_node38"><a xlink:href="_rexx_local_variables_8hpp.html" target="_top" xlink:title=" ">
<polygon fill="white" stroke="black" points="1496.5,-338 1496.5,-357.25 1617.5,-357.25 1617.5,-338 1496.5,-338"/>
<text xml:space="preserve" text-anchor="middle" x="1557" y="-343.75" font-family="Helvetica,sans-Serif" font-size="10.00">RexxLocalVariables.hpp</text>
</a>
</g>
</g>
<!-- Node48&#45;&gt;Node54 -->
<g id="edge46" class="edge">
<title>Node48&#45;&gt;Node54</title>
<path fill="none" stroke="midnightblue" d="M1102.62,-399.5C1171.92,-392.49 1335.95,-375.61 1485.13,-357.95"/>
<polygon fill="midnightblue" stroke="midnightblue" points="1485.28,-361.45 1494.8,-356.8 1484.46,-354.5 1485.28,-361.45"/>
</g>
<!-- Node58 -->
<g id="node40" class="node">
<title>Node58</title>
<g id="a_node40"><a xlink:href="_source_location_8hpp.html" target="_top" xlink:title=" ">
<polygon fill="white" stroke="black" points="661.88,-338 661.88,-357.25 764.12,-357.25 764.12,-338 661.88,-338"/>
<text xml:space="preserve" text-anchor="middle" x="713" y="-343.75" font-family="Helvetica,sans-Serif" font-size="10.00">SourceLocation.hpp</text>
</a>
</g>
</g>
<!-- Node48&#45;&gt;Node58 -->
<g id="edge50" class="edge">
<title>Node48&#45;&gt;Node58</title>
<path fill="none" stroke="midnightblue" d="M1035.51,-397.77C976.16,-388.73 851.65,-369.75 775.88,-358.21"/>
<polygon fill="midnightblue" stroke="midnightblue" points="776.52,-354.76 766.11,-356.72 775.47,-361.68 776.52,-354.76"/>
</g>
<!-- Node59 -->
<g id="node41" class="node">
<title>Node59</title>
<g id="a_node41"><a xlink:href="_exit_handler_8hpp.html" target="_top" xlink:title=" ">
<polygon fill="white" stroke="red" points="750.5,-281.75 750.5,-301 835.5,-301 835.5,-281.75 750.5,-281.75"/>
<text xml:space="preserve" text-anchor="middle" x="793" y="-287.5" font-family="Helvetica,sans-Serif" font-size="10.00">ExitHandler.hpp</text>
</a>
</g>
</g>
<!-- Node48&#45;&gt;Node59 -->
<g id="edge51" class="edge">
<title>Node48&#45;&gt;Node59</title>
<path fill="none" stroke="midnightblue" d="M1035.72,-401.38C973.62,-397.92 843.47,-387.26 811,-357.75 798.47,-346.36 794.34,-327.13 793.12,-312.46"/>
<polygon fill="midnightblue" stroke="midnightblue" points="796.62,-312.43 792.73,-302.57 789.63,-312.71 796.62,-312.43"/>
</g>
<!-- Node61 -->
<g id="node42" class="node">
<title>Node61</title>
<g id="a_node42"><a xlink:href="_activation_api_contexts_8hpp.html" target="_top" xlink:title=" ">
<polygon fill="white" stroke="black" points="896.88,-281.75 896.88,-301 1029.12,-301 1029.12,-281.75 896.88,-281.75"/>
<text xml:space="preserve" text-anchor="middle" x="963" y="-287.5" font-family="Helvetica,sans-Serif" font-size="10.00">ActivationApiContexts.hpp</text>
</a>
</g>
</g>
<!-- Node48&#45;&gt;Node61 -->
<g id="edge53" class="edge">
<title>Node48&#45;&gt;Node61</title>
<path fill="none" stroke="midnightblue" d="M1039.26,-393.91C1020.65,-386.86 997.53,-375.27 983,-357.75 972.44,-345.02 967.45,-326.78 965.1,-312.8"/>
<polygon fill="midnightblue" stroke="midnightblue" points="968.57,-312.39 963.79,-302.94 961.64,-313.31 968.57,-312.39"/>
</g>
<!-- Node62 -->
<g id="node43" class="node">
<title>Node62</title>
<g id="a_node43"><a xlink:title=" ">
<polygon fill="white" stroke="#bfbfbf" points="992.25,-338 992.25,-357.25 1075.75,-357.25 1075.75,-338 992.25,-338"/>
<text xml:space="preserve" text-anchor="middle" x="1034" y="-343.75" font-family="Helvetica,sans-Serif" font-size="10.00">SysActivity.hpp</text>
</a>
</g>
</g>
<!-- Node48&#45;&gt;Node62 -->
<g id="edge54" class="edge">
<title>Node48&#45;&gt;Node62</title>
<path fill="none" stroke="midnightblue" d="M1063.22,-393.92C1058.48,-386.57 1051.62,-375.93 1045.73,-366.81"/>
<polygon fill="midnightblue" stroke="midnightblue" points="1048.85,-365.19 1040.49,-358.69 1042.97,-368.99 1048.85,-365.19"/>
</g>
<!-- Node63 -->
<g id="node44" class="node">
<title>Node63</title>
<g id="a_node44"><a xlink:href="_string_table_class_8hpp.html" target="_top" xlink:title=" ">
<polygon fill="white" stroke="black" points="1137.5,-225.5 1137.5,-244.75 1246.5,-244.75 1246.5,-225.5 1137.5,-225.5"/>
<text xml:space="preserve" text-anchor="middle" x="1192" y="-231.25" font-family="Helvetica,sans-Serif" font-size="10.00">StringTableClass.hpp</text>
</a>
</g>
</g>
<!-- Node48&#45;&gt;Node63 -->
<g id="edge55" class="edge">
<title>Node48&#45;&gt;Node63</title>
<path fill="none" stroke="midnightblue" d="M1075.61,-393.91C1095.05,-367.56 1152.28,-289.97 1178.55,-254.36"/>
<polygon fill="midnightblue" stroke="midnightblue" points="1181.34,-256.48 1184.46,-246.35 1175.7,-252.32 1181.34,-256.48"/>
</g>
<!-- Node64 -->
<g id="node45" class="node">
<title>Node64</title>
<g id="a_node45"><a xlink:href="_interpreter_instance_8hpp.html" target="_top" xlink:title=" ">
<polygon fill="white" stroke="red" points="819.75,-338 819.75,-357.25 936.25,-357.25 936.25,-338 819.75,-338"/>
<text xml:space="preserve" text-anchor="middle" x="878" y="-343.75" font-family="Helvetica,sans-Serif" font-size="10.00">InterpreterInstance.hpp</text>
</a>
</g>
</g>
<!-- Node48&#45;&gt;Node64 -->
<g id="edge57" class="edge">
<title>Node48&#45;&gt;Node64</title>
<path fill="none" stroke="midnightblue" d="M1037.03,-393.79C1005.22,-384.76 956.19,-370.83 920.98,-360.83"/>
<polygon fill="midnightblue" stroke="midnightblue" points="922.11,-357.51 911.53,-358.15 920.19,-364.25 922.11,-357.51"/>
</g>
<!-- Node50 -->
<g id="node34" class="node">
<title>Node50</title>
<g id="a_node34"><a xlink:href="_list_contents_8hpp.html" target="_top" xlink:title=" ">
<polygon fill="white" stroke="black" points="1429.88,-225.5 1429.88,-244.75 1520.12,-244.75 1520.12,-225.5 1429.88,-225.5"/>
<text xml:space="preserve" text-anchor="middle" x="1475" y="-231.25" font-family="Helvetica,sans-Serif" font-size="10.00">ListContents.hpp</text>
</a>
</g>
</g>
<!-- Node49&#45;&gt;Node50 -->
<g id="edge40" class="edge">
<title>Node49&#45;&gt;Node50</title>
<path fill="none" stroke="midnightblue" d="M1442.86,-337.58C1448.51,-319.77 1461.17,-279.77 1468.81,-255.66"/>
<polygon fill="midnightblue" stroke="midnightblue" points="1472.05,-257.02 1471.74,-246.43 1465.38,-254.9 1472.05,-257.02"/>
</g>
<!-- Node50&#45;&gt;Node12 -->
<g id="edge41" class="edge">
<title>Node50&#45;&gt;Node12</title>
<path fill="none" stroke="midnightblue" d="M1474.83,-225.17C1474.71,-218.37 1474.53,-208.76 1474.37,-200.15"/>
<polygon fill="midnightblue" stroke="midnightblue" points="1477.87,-200.11 1474.19,-190.18 1470.87,-200.24 1477.87,-200.11"/>
</g>
<!-- Node53&#45;&gt;Node36 -->
<g id="edge45" class="edge">
<title>Node53&#45;&gt;Node36</title>
<path fill="none" stroke="midnightblue" d="M304.25,-228.56C259.32,-222.64 194.75,-210.98 142,-189 100.18,-171.58 78.44,-172.65 57,-132.75 43.51,-107.65 74.18,-90.33 104.36,-79.86"/>
<polygon fill="midnightblue" stroke="midnightblue" points="105.06,-83.31 113.5,-76.91 102.9,-76.65 105.06,-83.31"/>
</g>
<!-- Node54&#45;&gt;Node14 -->
<g id="edge49" class="edge">
<title>Node54&#45;&gt;Node14</title>
<path fill="none" stroke="midnightblue" d="M1582.7,-337.6C1619.81,-322.73 1684,-289.32 1684,-236.12 1684,-236.12 1684,-236.12 1684,-177.88 1684,-147.62 1685.97,-134.32 1665,-112.5 1639,-85.44 1596.35,-74.61 1565.95,-70.27"/>
<polygon fill="midnightblue" stroke="midnightblue" points="1566.41,-66.8 1556.06,-69.05 1565.55,-73.75 1566.41,-66.8"/>
</g>
<!-- Node54&#45;&gt;Node24 -->
<g id="edge47" class="edge">
<title>Node54&#45;&gt;Node24</title>
<path fill="none" stroke="midnightblue" d="M1543.38,-337.54C1530.1,-328.59 1509.43,-314.43 1492,-301.5 1459.67,-277.51 1450.91,-272.19 1421,-245.25 1382.05,-210.17 1339.92,-165.29 1317.74,-141.04"/>
<polygon fill="midnightblue" stroke="midnightblue" points="1320.35,-138.71 1311.03,-133.67 1315.17,-143.42 1320.35,-138.71"/>
</g>
<!-- Node55 -->
<g id="node39" class="node">
<title>Node55</title>
<g id="a_node39"><a xlink:href="_variable_dictionary_8hpp.html" target="_top" xlink:title=" ">
<polygon fill="white" stroke="red" points="1501,-281.75 1501,-301 1613,-301 1613,-281.75 1501,-281.75"/>
<text xml:space="preserve" text-anchor="middle" x="1557" y="-287.5" font-family="Helvetica,sans-Serif" font-size="10.00">VariableDictionary.hpp</text>
</a>
</g>
</g>
<!-- Node54&#45;&gt;Node55 -->
<g id="edge48" class="edge">
<title>Node54&#45;&gt;Node55</title>
<path fill="none" stroke="midnightblue" d="M1557,-337.67C1557,-330.87 1557,-321.26 1557,-312.65"/>
<polygon fill="midnightblue" stroke="midnightblue" points="1560.5,-312.68 1557,-302.68 1553.5,-312.68 1560.5,-312.68"/>
</g>
<!-- Node59&#45;&gt;Node2 -->
<g id="edge52" class="edge">
<title>Node59&#45;&gt;Node2</title>
<path fill="none" stroke="midnightblue" d="M793,-281.42C793,-274.62 793,-265.01 793,-256.4"/>
<polygon fill="midnightblue" stroke="midnightblue" points="796.5,-256.43 793,-246.43 789.5,-256.43 796.5,-256.43"/>
</g>
<!-- Node63&#45;&gt;Node19 -->
<g id="edge56" class="edge">
<title>Node63&#45;&gt;Node19</title>
<path fill="none" stroke="midnightblue" d="M1231.25,-225.08C1255.02,-218.14 1284.9,-206.7 1307,-189 1336.63,-165.27 1370.19,-140.9 1345,-112.5 1324.65,-89.56 1133.86,-76.05 1032.54,-70.44"/>
<polygon fill="midnightblue" stroke="midnightblue" points="1032.93,-66.96 1022.75,-69.91 1032.55,-73.95 1032.93,-66.96"/>
</g>
<!-- Node64&#45;&gt;Node2 -->
<g id="edge58" class="edge">
<title>Node64&#45;&gt;Node2</title>
<path fill="none" stroke="midnightblue" d="M874.54,-337.56C869.22,-324.35 858.17,-299.4 844,-281.25 835.51,-270.38 824.16,-260.04 814.32,-252.01"/>
<polygon fill="midnightblue" stroke="midnightblue" points="816.72,-249.44 806.69,-246.01 812.39,-254.94 816.72,-249.44"/>
</g>
<!-- Node64&#45;&gt;Node59 -->
<g id="edge59" class="edge">
<title>Node64&#45;&gt;Node59</title>
<path fill="none" stroke="midnightblue" d="M863.96,-337.67C851.04,-329.42 831.63,-317.03 816.37,-307.29"/>
<polygon fill="midnightblue" stroke="midnightblue" points="818.65,-304.59 808.33,-302.16 814.88,-310.49 818.65,-304.59"/>
</g>
<!-- Node64&#45;&gt;Node61 -->
<g id="edge60" class="edge">
<title>Node64&#45;&gt;Node61</title>
<path fill="none" stroke="midnightblue" d="M892.04,-337.67C904.96,-329.42 924.37,-317.03 939.63,-307.29"/>
<polygon fill="midnightblue" stroke="midnightblue" points="941.12,-310.49 947.67,-302.16 937.35,-304.59 941.12,-310.49"/>
</g>
<!-- Node67&#45;&gt;Node17 -->
<g id="edge70" class="edge">
<title>Node67&#45;&gt;Node17</title>
<path fill="none" stroke="midnightblue" d="M1478.55,-452.87C1529.44,-445.81 1601.93,-432.81 1623,-414 1645.98,-393.49 1646,-379.43 1646,-348.62 1646,-348.62 1646,-348.62 1646,-234.12 1646,-200.34 1629.59,-163.89 1618.06,-142.45"/>
<polygon fill="midnightblue" stroke="midnightblue" points="1621.27,-141.03 1613.33,-134.02 1615.17,-144.45 1621.27,-141.03"/>
</g>
<!-- Node67&#45;&gt;Node48 -->
<g id="edge64" class="edge">
<title>Node67&#45;&gt;Node48</title>
<path fill="none" stroke="midnightblue" d="M1373.32,-451.12C1303.06,-440.44 1179.88,-421.73 1113.84,-411.69"/>
<polygon fill="midnightblue" stroke="midnightblue" points="1114.49,-408.25 1104.08,-410.21 1113.44,-415.17 1114.49,-408.25"/>
</g>
<!-- Node68 -->
<g id="node47" class="node">
<title>Node68</title>
<g id="a_node47"><a xlink:href="_activation_settings_8hpp.html" target="_top" xlink:title=" ">
<polygon fill="white" stroke="red" points="1499.88,-394.25 1499.88,-413.5 1614.12,-413.5 1614.12,-394.25 1499.88,-394.25"/>
<text xml:space="preserve" text-anchor="middle" x="1557" y="-400" font-family="Helvetica,sans-Serif" font-size="10.00">ActivationSettings.hpp</text>
</a>
</g>
</g>
<!-- Node67&#45;&gt;Node68 -->
<g id="edge65" class="edge">
<title>Node67&#45;&gt;Node68</title>
<path fill="none" stroke="midnightblue" d="M1447.93,-450.04C1468.9,-441.36 1500.77,-428.16 1524.66,-418.27"/>
<polygon fill="midnightblue" stroke="midnightblue" points="1525.7,-421.62 1533.6,-414.56 1523.03,-415.16 1525.7,-421.62"/>
</g>
<!-- Node72 -->
<g id="node48" class="node">
<title>Node72</title>
<g id="a_node48"><a xlink:title=" ">
<polygon fill="white" stroke="#bfbfbf" points="1673.88,-394.25 1673.88,-413.5 1716.12,-413.5 1716.12,-394.25 1673.88,-394.25"/>
<text xml:space="preserve" text-anchor="middle" x="1695" y="-400" font-family="Helvetica,sans-Serif" font-size="10.00">deque</text>
</a>
</g>
</g>
<!-- Node67&#45;&gt;Node72 -->
<g id="edge67" class="edge">
<title>Node67&#45;&gt;Node72</title>
<path fill="none" stroke="midnightblue" d="M1478.25,-450.05C1525.8,-441.55 1597.86,-428.08 1660,-414 1660.83,-413.81 1661.66,-413.62 1662.51,-413.42"/>
<polygon fill="midnightblue" stroke="midnightblue" points="1663.24,-416.85 1672.11,-411.05 1661.57,-410.05 1663.24,-416.85"/>
</g>
<!-- Node73 -->
<g id="node49" class="node">
<title>Node73</title>
<g id="a_node49"><a xlink:href="_global_names_8hpp.html" target="_top" xlink:title=" ">
<polygon fill="white" stroke="red" points="1258,-394.25 1258,-413.5 1352,-413.5 1352,-394.25 1258,-394.25"/>
<text xml:space="preserve" text-anchor="middle" x="1305" y="-400" font-family="Helvetica,sans-Serif" font-size="10.00">GlobalNames.hpp</text>
</a>
</g>
</g>
<!-- Node67&#45;&gt;Node73 -->
<g id="edge68" class="edge">
<title>Node67&#45;&gt;Node73</title>
<path fill="none" stroke="midnightblue" d="M1405.75,-450.04C1386.64,-441.48 1357.73,-428.52 1335.77,-418.67"/>
<polygon fill="midnightblue" stroke="midnightblue" points="1337.26,-415.5 1326.7,-414.6 1334.39,-421.89 1337.26,-415.5"/>
</g>
<!-- Node75 -->
<g id="node50" class="node">
<title>Node75</title>
<g id="a_node50"><a xlink:title=" ">
<polygon fill="white" stroke="#bfbfbf" points="1370,-394.25 1370,-413.5 1482,-413.5 1482,-394.25 1370,-394.25"/>
<text xml:space="preserve" text-anchor="middle" x="1426" y="-400" font-family="Helvetica,sans-Serif" font-size="10.00">SystemInterpreter.hpp</text>
</a>
</g>
</g>
<!-- Node67&#45;&gt;Node75 -->
<g id="edge69" class="edge">
<title>Node67&#45;&gt;Node75</title>
<path fill="none" stroke="midnightblue" d="M1426,-450.17C1426,-443.37 1426,-433.76 1426,-425.15"/>
<polygon fill="midnightblue" stroke="midnightblue" points="1429.5,-425.18 1426,-415.18 1422.5,-425.18 1429.5,-425.18"/>
</g>
<!-- Node68&#45;&gt;Node54 -->
<g id="edge66" class="edge">
<title>Node68&#45;&gt;Node54</title>
<path fill="none" stroke="midnightblue" d="M1557,-393.92C1557,-387.12 1557,-377.51 1557,-368.9"/>
<polygon fill="midnightblue" stroke="midnightblue" points="1560.5,-368.93 1557,-358.93 1553.5,-368.93 1560.5,-368.93"/>
</g>
</g>
</svg>
