<?xml version="1.0" encoding="UTF-8" standalone="no"?>
<!DOCTYPE svg PUBLIC "-//W3C//DTD SVG 1.1//EN"
 "http://www.w3.org/Graphics/SVG/1.1/DTD/svg11.dtd">
<!-- Generated by graphviz version 13.1.0 (20250701.0955)
 -->
<!-- Title: QueuesAPI.cpp Pages: 1 -->
<svg width="1127pt" height="422pt"
 viewBox="0.00 0.00 1127.00 422.00" xmlns="http://www.w3.org/2000/svg" xmlns:xlink="http://www.w3.org/1999/xlink">
<g id="graph0" class="graph" transform="scale(1 1) rotate(0) translate(4 418)">
<title>QueuesAPI.cpp</title>
<polygon fill="white" stroke="none" points="-4,4 -4,-418 1123.03,-418 1123.03,4 -4,4"/>
<!-- Node1 -->
<g id="node1" class="node">
<title>Node1</title>
<g id="a_node1"><a xlink:title=" ">
<polygon fill="#bfbfbf" stroke="black" points="847.9,-394.25 847.9,-413.5 932.9,-413.5 932.9,-394.25 847.9,-394.25"/>
<text xml:space="preserve" text-anchor="middle" x="890.4" y="-400" font-family="Helvetica,sans-Serif" font-size="10.00">QueuesAPI.cpp</text>
</a>
</g>
</g>
<!-- Node2 -->
<g id="node2" class="node">
<title>Node2</title>
<g id="a_node2"><a xlink:href="rexx_8h.html" target="_top" xlink:title=" ">
<polygon fill="white" stroke="black" points="549.9,-56.75 549.9,-76 592.9,-76 592.9,-56.75 549.9,-56.75"/>
<text xml:space="preserve" text-anchor="middle" x="571.4" y="-62.5" font-family="Helvetica,sans-Serif" font-size="10.00">rexx.h</text>
</a>
</g>
</g>
<!-- Node1&#45;&gt;Node2 -->
<g id="edge1" class="edge">
<title>Node1&#45;&gt;Node2</title>
<path fill="none" stroke="midnightblue" d="M893.04,-393.8C898.26,-375.03 909.4,-330.53 909.4,-292.38 909.4,-292.38 909.4,-292.38 909.4,-234.12 909.4,-172.41 893.04,-147.77 842.4,-112.5 757.18,-53.14 711.47,-96.2 604.57,-76.31"/>
<polygon fill="midnightblue" stroke="midnightblue" points="605.32,-72.89 594.82,-74.33 603.93,-79.75 605.32,-72.89"/>
</g>
<!-- Node7 -->
<g id="node7" class="node">
<title>Node7</title>
<g id="a_node7"><a xlink:href="_local_a_p_i_manager_8hpp.html" target="_top" xlink:title=" ">
<polygon fill="white" stroke="black" points="293.77,-281.75 293.77,-301 405.02,-301 405.02,-281.75 293.77,-281.75"/>
<text xml:space="preserve" text-anchor="middle" x="349.4" y="-287.5" font-family="Helvetica,sans-Serif" font-size="10.00">LocalAPIManager.hpp</text>
</a>
</g>
</g>
<!-- Node1&#45;&gt;Node7 -->
<g id="edge6" class="edge">
<title>Node1&#45;&gt;Node7</title>
<path fill="none" stroke="midnightblue" d="M847.5,-394.11C750.22,-374.24 512.99,-325.79 404.81,-303.69"/>
<polygon fill="midnightblue" stroke="midnightblue" points="405.8,-300.32 395.3,-301.75 404.4,-307.18 405.8,-300.32"/>
</g>
<!-- Node18 -->
<g id="node18" class="node">
<title>Node18</title>
<g id="a_node18"><a xlink:href="_local_queue_manager_8hpp.html" target="_top" xlink:title=" ">
<polygon fill="white" stroke="black" points="615.77,-169.25 615.77,-188.5 739.02,-188.5 739.02,-169.25 615.77,-169.25"/>
<text xml:space="preserve" text-anchor="middle" x="677.4" y="-175" font-family="Helvetica,sans-Serif" font-size="10.00">LocalQueueManager.hpp</text>
</a>
</g>
</g>
<!-- Node1&#45;&gt;Node18 -->
<g id="edge44" class="edge">
<title>Node1&#45;&gt;Node18</title>
<path fill="none" stroke="midnightblue" d="M886.28,-393.86C880.03,-380.71 867.3,-355.84 852.4,-337.5 804.34,-278.31 733.44,-221.72 698.48,-195.34"/>
<polygon fill="midnightblue" stroke="midnightblue" points="700.94,-192.81 690.83,-189.63 696.75,-198.42 700.94,-192.81"/>
</g>
<!-- Node25 -->
<g id="node25" class="node">
<title>Node25</title>
<g id="a_node25"><a xlink:href="_local_a_p_i_context_8hpp.html" target="_top" xlink:title=" ">
<polygon fill="white" stroke="black" points="733.9,-338 733.9,-357.25 842.9,-357.25 842.9,-338 733.9,-338"/>
<text xml:space="preserve" text-anchor="middle" x="788.4" y="-343.75" font-family="Helvetica,sans-Serif" font-size="10.00">LocalAPIContext.hpp</text>
</a>
</g>
</g>
<!-- Node1&#45;&gt;Node25 -->
<g id="edge45" class="edge">
<title>Node1&#45;&gt;Node25</title>
<path fill="none" stroke="midnightblue" d="M873.56,-393.92C857.76,-385.51 833.87,-372.81 815.41,-362.99"/>
<polygon fill="midnightblue" stroke="midnightblue" points="817.08,-359.91 806.6,-358.31 813.79,-366.09 817.08,-359.91"/>
</g>
<!-- Node26 -->
<g id="node26" class="node">
<title>Node26</title>
<g id="a_node26"><a xlink:href="_rexx_a_p_i_8h.html" target="_top" xlink:title=" ">
<polygon fill="white" stroke="black" points="937.4,-338 937.4,-357.25 1001.4,-357.25 1001.4,-338 937.4,-338"/>
<text xml:space="preserve" text-anchor="middle" x="969.4" y="-343.75" font-family="Helvetica,sans-Serif" font-size="10.00">RexxAPI.h</text>
</a>
</g>
</g>
<!-- Node1&#45;&gt;Node26 -->
<g id="edge50" class="edge">
<title>Node1&#45;&gt;Node26</title>
<path fill="none" stroke="midnightblue" d="M903.45,-393.92C915.22,-385.83 932.81,-373.75 946.86,-364.1"/>
<polygon fill="midnightblue" stroke="midnightblue" points="948.83,-367 955.09,-358.45 944.86,-361.23 948.83,-367"/>
</g>
<!-- Node28 -->
<g id="node28" class="node">
<title>Node28</title>
<g id="a_node28"><a xlink:href="_rexx_internal_apis_8h.html" target="_top" xlink:title=" ">
<polygon fill="white" stroke="black" points="1019.78,-338 1019.78,-357.25 1119.03,-357.25 1119.03,-338 1019.78,-338"/>
<text xml:space="preserve" text-anchor="middle" x="1069.4" y="-343.75" font-family="Helvetica,sans-Serif" font-size="10.00">RexxInternalApis.h</text>
</a>
</g>
</g>
<!-- Node1&#45;&gt;Node28 -->
<g id="edge52" class="edge">
<title>Node1&#45;&gt;Node28</title>
<path fill="none" stroke="midnightblue" d="M920.36,-393.79C950.05,-384.8 995.73,-370.95 1028.69,-360.96"/>
<polygon fill="midnightblue" stroke="midnightblue" points="1029.34,-364.42 1037.89,-358.17 1027.31,-357.72 1029.34,-364.42"/>
</g>
<!-- Node3 -->
<g id="node3" class="node">
<title>Node3</title>
<g id="a_node3"><a xlink:title=" ">
<polygon fill="white" stroke="#bfbfbf" points="332.52,-0.5 332.52,-19.75 412.27,-19.75 412.27,-0.5 332.52,-0.5"/>
<text xml:space="preserve" text-anchor="middle" x="372.4" y="-6.25" font-family="Helvetica,sans-Serif" font-size="10.00">rexxapitypes.h</text>
</a>
</g>
</g>
<!-- Node2&#45;&gt;Node3 -->
<g id="edge2" class="edge">
<title>Node2&#45;&gt;Node3</title>
<path fill="none" stroke="midnightblue" d="M549.72,-59.47C517.89,-50.79 457.8,-34.41 416.46,-23.14"/>
<polygon fill="midnightblue" stroke="midnightblue" points="417.63,-19.83 407.06,-20.57 415.78,-26.58 417.63,-19.83"/>
</g>
<!-- Node4 -->
<g id="node4" class="node">
<title>Node4</title>
<g id="a_node4"><a xlink:href="rexxapidefs_8h.html" target="_top" xlink:title=" ">
<polygon fill="white" stroke="black" points="430.15,-0.5 430.15,-19.75 504.65,-19.75 504.65,-0.5 430.15,-0.5"/>
<text xml:space="preserve" text-anchor="middle" x="467.4" y="-6.25" font-family="Helvetica,sans-Serif" font-size="10.00">rexxapidefs.h</text>
</a>
</g>
</g>
<!-- Node2&#45;&gt;Node4 -->
<g id="edge3" class="edge">
<title>Node2&#45;&gt;Node4</title>
<path fill="none" stroke="midnightblue" d="M554.23,-56.42C538.04,-47.97 513.53,-35.19 494.67,-25.35"/>
<polygon fill="midnightblue" stroke="midnightblue" points="496.43,-22.32 485.94,-20.8 493.19,-28.52 496.43,-22.32"/>
</g>
<!-- Node5 -->
<g id="node5" class="node">
<title>Node5</title>
<g id="a_node5"><a xlink:title=" ">
<polygon fill="white" stroke="#bfbfbf" points="522.9,-0.5 522.9,-19.75 619.9,-19.75 619.9,-0.5 522.9,-0.5"/>
<text xml:space="preserve" text-anchor="middle" x="571.4" y="-6.25" font-family="Helvetica,sans-Serif" font-size="10.00">rexxplatformdefs.h</text>
</a>
</g>
</g>
<!-- Node2&#45;&gt;Node5 -->
<g id="edge4" class="edge">
<title>Node2&#45;&gt;Node5</title>
<path fill="none" stroke="midnightblue" d="M571.4,-56.42C571.4,-49.62 571.4,-40.01 571.4,-31.4"/>
<polygon fill="midnightblue" stroke="midnightblue" points="574.9,-31.43 571.4,-21.43 567.9,-31.43 574.9,-31.43"/>
</g>
<!-- Node6 -->
<g id="node6" class="node">
<title>Node6</title>
<g id="a_node6"><a xlink:title=" ">
<polygon fill="white" stroke="#bfbfbf" points="638.27,-0.5 638.27,-19.75 734.52,-19.75 734.52,-0.5 638.27,-0.5"/>
<text xml:space="preserve" text-anchor="middle" x="686.4" y="-6.25" font-family="Helvetica,sans-Serif" font-size="10.00">rexxplatformapis.h</text>
</a>
</g>
</g>
<!-- Node2&#45;&gt;Node6 -->
<g id="edge5" class="edge">
<title>Node2&#45;&gt;Node6</title>
<path fill="none" stroke="midnightblue" d="M590.65,-56.29C608.73,-47.77 636.03,-34.88 656.87,-25.06"/>
<polygon fill="midnightblue" stroke="midnightblue" points="658.17,-28.31 665.72,-20.88 655.18,-21.98 658.17,-28.31"/>
</g>
<!-- Node8 -->
<g id="node8" class="node">
<title>Node8</title>
<g id="a_node8"><a xlink:href="_local_registration_manager_8hpp.html" target="_top" xlink:title=" ">
<polygon fill="white" stroke="black" points="133.77,-225.5 133.77,-244.75 281.02,-244.75 281.02,-225.5 133.77,-225.5"/>
<text xml:space="preserve" text-anchor="middle" x="207.4" y="-231.25" font-family="Helvetica,sans-Serif" font-size="10.00">LocalRegistrationManager.hpp</text>
</a>
</g>
</g>
<!-- Node7&#45;&gt;Node8 -->
<g id="edge7" class="edge">
<title>Node7&#45;&gt;Node8</title>
<path fill="none" stroke="midnightblue" d="M325.63,-281.29C302.7,-272.53 267.73,-259.17 241.76,-249.25"/>
<polygon fill="midnightblue" stroke="midnightblue" points="243.25,-246.07 232.66,-245.78 240.75,-252.61 243.25,-246.07"/>
</g>
<!-- Node13 -->
<g id="node13" class="node">
<title>Node13</title>
<g id="a_node13"><a xlink:href="_c_s_stream_8hpp.html" target="_top" xlink:title=" ">
<polygon fill="white" stroke="black" points="32.15,-56.75 32.15,-76 112.65,-76 112.65,-56.75 32.15,-56.75"/>
<text xml:space="preserve" text-anchor="middle" x="72.4" y="-62.5" font-family="Helvetica,sans-Serif" font-size="10.00">CSStream.hpp</text>
</a>
</g>
</g>
<!-- Node7&#45;&gt;Node13 -->
<g id="edge40" class="edge">
<title>Node7&#45;&gt;Node13</title>
<path fill="none" stroke="midnightblue" d="M293.47,-287.16C230.06,-282.33 132.14,-270.86 106.4,-245.25 63.73,-202.8 65.86,-124.38 69.65,-87.51"/>
<polygon fill="midnightblue" stroke="midnightblue" points="73.1,-88.18 70.81,-77.84 66.15,-87.35 73.1,-88.18"/>
</g>
<!-- Node14 -->
<g id="node14" class="node">
<title>Node14</title>
<g id="a_node14"><a xlink:title=" ">
<polygon fill="white" stroke="#bfbfbf" points="137.4,-56.75 137.4,-76 225.4,-76 225.4,-56.75 137.4,-56.75"/>
<text xml:space="preserve" text-anchor="middle" x="181.4" y="-62.5" font-family="Helvetica,sans-Serif" font-size="10.00">SysProcess.hpp</text>
</a>
</g>
</g>
<!-- Node7&#45;&gt;Node14 -->
<g id="edge41" class="edge">
<title>Node7&#45;&gt;Node14</title>
<path fill="none" stroke="midnightblue" d="M293.38,-286.18C234.62,-280.6 147.62,-268.58 124.4,-245.25 100.17,-220.9 103.96,-201.78 113.4,-168.75 122.86,-135.63 147.72,-103.7 164.61,-84.8"/>
<polygon fill="midnightblue" stroke="midnightblue" points="167.14,-87.23 171.35,-77.51 161.99,-82.48 167.14,-87.23"/>
</g>
<!-- Node7&#45;&gt;Node18 -->
<g id="edge24" class="edge">
<title>Node7&#45;&gt;Node18</title>
<path fill="none" stroke="midnightblue" d="M376.24,-281.33C434.53,-261.7 572.81,-215.11 639.77,-192.55"/>
<polygon fill="midnightblue" stroke="midnightblue" points="640.85,-195.88 649.21,-189.37 638.62,-189.25 640.85,-195.88"/>
</g>
<!-- Node21 -->
<g id="node21" class="node">
<title>Node21</title>
<g id="a_node21"><a xlink:href="_local_macro_space_manager_8hpp.html" target="_top" xlink:title=" ">
<polygon fill="white" stroke="black" points="364.65,-169.25 364.65,-188.5 514.15,-188.5 514.15,-169.25 364.65,-169.25"/>
<text xml:space="preserve" text-anchor="middle" x="439.4" y="-175" font-family="Helvetica,sans-Serif" font-size="10.00">LocalMacroSpaceManager.hpp</text>
</a>
</g>
</g>
<!-- Node7&#45;&gt;Node21 -->
<g id="edge33" class="edge">
<title>Node7&#45;&gt;Node21</title>
<path fill="none" stroke="midnightblue" d="M365.43,-281.4C378.64,-273.35 397.14,-260.48 409.4,-245.25 420.43,-231.56 428.4,-213.16 433.34,-199.37"/>
<polygon fill="midnightblue" stroke="midnightblue" points="436.59,-200.7 436.42,-190.1 429.94,-198.49 436.59,-200.7"/>
</g>
<!-- Node23 -->
<g id="node23" class="node">
<title>Node23</title>
<g id="a_node23"><a xlink:title=" ">
<polygon fill="white" stroke="#bfbfbf" points="298.65,-225.5 298.65,-244.75 400.15,-244.75 400.15,-225.5 298.65,-225.5"/>
<text xml:space="preserve" text-anchor="middle" x="349.4" y="-231.25" font-family="Helvetica,sans-Serif" font-size="10.00">SysSemaphore.hpp</text>
</a>
</g>
</g>
<!-- Node7&#45;&gt;Node23 -->
<g id="edge42" class="edge">
<title>Node7&#45;&gt;Node23</title>
<path fill="none" stroke="midnightblue" d="M349.4,-281.42C349.4,-274.62 349.4,-265.01 349.4,-256.4"/>
<polygon fill="midnightblue" stroke="midnightblue" points="352.9,-256.43 349.4,-246.43 345.9,-256.43 352.9,-256.43"/>
</g>
<!-- Node24 -->
<g id="node24" class="node">
<title>Node24</title>
<g id="a_node24"><a xlink:title=" ">
<polygon fill="white" stroke="#bfbfbf" points="0,-225.5 0,-244.75 28.8,-244.75 28.8,-225.5 0,-225.5"/>
<text xml:space="preserve" text-anchor="middle" x="14.37" y="-231.25" font-family="Helvetica,sans-Serif" font-size="10.00">list</text>
</a>
</g>
</g>
<!-- Node7&#45;&gt;Node24 -->
<g id="edge43" class="edge">
<title>Node7&#45;&gt;Node24</title>
<path fill="none" stroke="midnightblue" d="M293.41,-285.02C231.46,-278.43 128.94,-265.56 42.4,-245.25 41.58,-245.06 40.75,-244.85 39.91,-244.64"/>
<polygon fill="midnightblue" stroke="midnightblue" points="41.12,-241.34 30.54,-241.86 39.13,-248.06 41.12,-241.34"/>
</g>
<!-- Node8&#45;&gt;Node2 -->
<g id="edge23" class="edge">
<title>Node8&#45;&gt;Node2</title>
<path fill="none" stroke="midnightblue" d="M218.31,-225.02C245.76,-202.56 320.62,-144.06 392.4,-112.5 440.98,-91.14 501.6,-78.53 538.36,-72.29"/>
<polygon fill="midnightblue" stroke="midnightblue" points="538.62,-75.8 547.92,-70.73 537.49,-68.89 538.62,-75.8"/>
</g>
<!-- Node9 -->
<g id="node9" class="node">
<title>Node9</title>
<g id="a_node9"><a xlink:href="_registration_table_8hpp.html" target="_top" xlink:title=" ">
<polygon fill="white" stroke="black" points="122.15,-169.25 122.15,-188.5 232.65,-188.5 232.65,-169.25 122.15,-169.25"/>
<text xml:space="preserve" text-anchor="middle" x="177.4" y="-175" font-family="Helvetica,sans-Serif" font-size="10.00">RegistrationTable.hpp</text>
</a>
</g>
</g>
<!-- Node8&#45;&gt;Node9 -->
<g id="edge8" class="edge">
<title>Node8&#45;&gt;Node9</title>
<path fill="none" stroke="midnightblue" d="M202.45,-225.17C198.47,-217.98 192.75,-207.64 187.78,-198.65"/>
<polygon fill="midnightblue" stroke="midnightblue" points="190.9,-197.05 182.99,-189.99 184.77,-200.44 190.9,-197.05"/>
</g>
<!-- Node10 -->
<g id="node10" class="node">
<title>Node10</title>
<g id="a_node10"><a xlink:href="_service_message_8hpp.html" target="_top" xlink:title=" ">
<polygon fill="white" stroke="black" points="199.65,-113 199.65,-132.25 307.15,-132.25 307.15,-113 199.65,-113"/>
<text xml:space="preserve" text-anchor="middle" x="253.4" y="-118.75" font-family="Helvetica,sans-Serif" font-size="10.00">ServiceMessage.hpp</text>
</a>
</g>
</g>
<!-- Node8&#45;&gt;Node10 -->
<g id="edge22" class="edge">
<title>Node8&#45;&gt;Node10</title>
<path fill="none" stroke="midnightblue" d="M216.1,-225.26C223.97,-216.7 235.25,-203.01 241.4,-189 247.73,-174.59 250.72,-156.97 252.13,-143.66"/>
<polygon fill="midnightblue" stroke="midnightblue" points="255.6,-144.22 252.94,-133.97 248.62,-143.64 255.6,-144.22"/>
</g>
<!-- Node17 -->
<g id="node17" class="node">
<title>Node17</title>
<g id="a_node17"><a xlink:href="_local_a_p_i_subsystem_8hpp.html" target="_top" xlink:title=" ">
<polygon fill="white" stroke="black" points="525.4,-113 525.4,-132.25 649.4,-132.25 649.4,-113 525.4,-113"/>
<text xml:space="preserve" text-anchor="middle" x="587.4" y="-118.75" font-family="Helvetica,sans-Serif" font-size="10.00">LocalAPISubsystem.hpp</text>
</a>
</g>
</g>
<!-- Node8&#45;&gt;Node17 -->
<g id="edge19" class="edge">
<title>Node8&#45;&gt;Node17</title>
<path fill="none" stroke="midnightblue" d="M279.43,-225.03C369.3,-213.5 512.6,-194.47 523.4,-189 545.02,-178.05 563.6,-156.93 575.09,-141.65"/>
<polygon fill="midnightblue" stroke="midnightblue" points="577.7,-144.01 580.69,-133.85 572.01,-139.93 577.7,-144.01"/>
</g>
<!-- Node9&#45;&gt;Node2 -->
<g id="edge9" class="edge">
<title>Node9&#45;&gt;Node2</title>
<path fill="none" stroke="midnightblue" d="M176.24,-169.16C174.89,-155 174.6,-127.11 190.4,-112.5 215.74,-89.07 449.76,-74 537.97,-69.11"/>
<polygon fill="midnightblue" stroke="midnightblue" points="538.11,-72.61 547.9,-68.57 537.73,-65.62 538.11,-72.61"/>
</g>
<!-- Node9&#45;&gt;Node10 -->
<g id="edge10" class="edge">
<title>Node9&#45;&gt;Node10</title>
<path fill="none" stroke="midnightblue" d="M189.95,-168.92C201.28,-160.83 218.2,-148.75 231.72,-139.1"/>
<polygon fill="midnightblue" stroke="midnightblue" points="233.49,-142.13 239.6,-133.48 229.43,-136.44 233.49,-142.13"/>
</g>
<!-- Node15 -->
<g id="node15" class="node">
<title>Node15</title>
<g id="a_node15"><a xlink:href="_utilities_8hpp.html" target="_top" xlink:title=" ">
<polygon fill="white" stroke="black" points="246.52,-56.75 246.52,-76 314.27,-76 314.27,-56.75 246.52,-56.75"/>
<text xml:space="preserve" text-anchor="middle" x="280.4" y="-62.5" font-family="Helvetica,sans-Serif" font-size="10.00">Utilities.hpp</text>
</a>
</g>
</g>
<!-- Node9&#45;&gt;Node15 -->
<g id="edge18" class="edge">
<title>Node9&#45;&gt;Node15</title>
<path fill="none" stroke="midnightblue" d="M170.25,-169.09C160.36,-155.78 145.03,-130.21 157.4,-112.5 166.71,-99.17 203.97,-86.66 235.07,-78.21"/>
<polygon fill="midnightblue" stroke="midnightblue" points="235.94,-81.6 244.72,-75.67 234.16,-74.83 235.94,-81.6"/>
</g>
<!-- Node10&#45;&gt;Node2 -->
<g id="edge11" class="edge">
<title>Node10&#45;&gt;Node2</title>
<path fill="none" stroke="midnightblue" d="M306.63,-112.54C372.68,-101.28 483.31,-82.4 538.29,-73.02"/>
<polygon fill="midnightblue" stroke="midnightblue" points="538.7,-76.5 547.97,-71.37 537.52,-69.6 538.7,-76.5"/>
</g>
<!-- Node11 -->
<g id="node11" class="node">
<title>Node11</title>
<g id="a_node11"><a xlink:href="_service_exception_8hpp.html" target="_top" xlink:title=" ">
<polygon fill="white" stroke="black" points="612.77,-56.75 612.77,-76 724.02,-76 724.02,-56.75 612.77,-56.75"/>
<text xml:space="preserve" text-anchor="middle" x="668.4" y="-62.5" font-family="Helvetica,sans-Serif" font-size="10.00">ServiceException.hpp</text>
</a>
</g>
</g>
<!-- Node10&#45;&gt;Node11 -->
<g id="edge12" class="edge">
<title>Node10&#45;&gt;Node11</title>
<path fill="none" stroke="midnightblue" d="M307.37,-114.74C373.58,-106.26 489.59,-91.33 601.32,-76.5"/>
<polygon fill="midnightblue" stroke="midnightblue" points="601.52,-80.01 610.97,-75.22 600.6,-73.07 601.52,-80.01"/>
</g>
<!-- Node10&#45;&gt;Node13 -->
<g id="edge14" class="edge">
<title>Node10&#45;&gt;Node13</title>
<path fill="none" stroke="midnightblue" d="M223.1,-112.54C193.09,-103.55 146.9,-89.7 113.56,-79.71"/>
<polygon fill="midnightblue" stroke="midnightblue" points="114.83,-76.44 104.24,-76.92 112.82,-83.14 114.83,-76.44"/>
</g>
<!-- Node10&#45;&gt;Node14 -->
<g id="edge15" class="edge">
<title>Node10&#45;&gt;Node14</title>
<path fill="none" stroke="midnightblue" d="M241.51,-112.67C230.82,-104.61 214.87,-92.59 202.09,-82.96"/>
<polygon fill="midnightblue" stroke="midnightblue" points="204.37,-80.3 194.28,-77.08 200.16,-85.89 204.37,-80.3"/>
</g>
<!-- Node10&#45;&gt;Node15 -->
<g id="edge16" class="edge">
<title>Node10&#45;&gt;Node15</title>
<path fill="none" stroke="midnightblue" d="M257.86,-112.67C261.4,-105.56 266.47,-95.37 270.91,-86.45"/>
<polygon fill="midnightblue" stroke="midnightblue" points="274.03,-88.03 275.35,-77.52 267.76,-84.91 274.03,-88.03"/>
</g>
<!-- Node12 -->
<g id="node12" class="node">
<title>Node12</title>
<g id="a_node12"><a xlink:title=" ">
<polygon fill="white" stroke="#bfbfbf" points="752.27,-0.5 752.27,-19.75 800.52,-19.75 800.52,-0.5 752.27,-0.5"/>
<text xml:space="preserve" text-anchor="middle" x="776.4" y="-6.25" font-family="Helvetica,sans-Serif" font-size="10.00">string.h</text>
</a>
</g>
</g>
<!-- Node11&#45;&gt;Node12 -->
<g id="edge13" class="edge">
<title>Node11&#45;&gt;Node12</title>
<path fill="none" stroke="midnightblue" d="M686.23,-56.42C703.12,-47.94 728.73,-35.07 748.35,-25.21"/>
<polygon fill="midnightblue" stroke="midnightblue" points="749.82,-28.39 757.19,-20.78 746.68,-22.14 749.82,-28.39"/>
</g>
<!-- Node16 -->
<g id="node16" class="node">
<title>Node16</title>
<g id="a_node16"><a xlink:title=" ">
<polygon fill="white" stroke="#bfbfbf" points="246.9,-0.5 246.9,-19.75 313.9,-19.75 313.9,-0.5 246.9,-0.5"/>
<text xml:space="preserve" text-anchor="middle" x="280.4" y="-6.25" font-family="Helvetica,sans-Serif" font-size="10.00">sys/types.h</text>
</a>
</g>
</g>
<!-- Node15&#45;&gt;Node16 -->
<g id="edge17" class="edge">
<title>Node15&#45;&gt;Node16</title>
<path fill="none" stroke="midnightblue" d="M280.4,-56.42C280.4,-49.62 280.4,-40.01 280.4,-31.4"/>
<polygon fill="midnightblue" stroke="midnightblue" points="283.9,-31.43 280.4,-21.43 276.9,-31.43 283.9,-31.43"/>
</g>
<!-- Node17&#45;&gt;Node2 -->
<g id="edge20" class="edge">
<title>Node17&#45;&gt;Node2</title>
<path fill="none" stroke="midnightblue" d="M584.76,-112.67C582.71,-105.71 579.79,-95.82 577.2,-87.05"/>
<polygon fill="midnightblue" stroke="midnightblue" points="580.61,-86.22 574.42,-77.62 573.89,-88.2 580.61,-86.22"/>
</g>
<!-- Node17&#45;&gt;Node11 -->
<g id="edge21" class="edge">
<title>Node17&#45;&gt;Node11</title>
<path fill="none" stroke="midnightblue" d="M600.78,-112.67C612.97,-104.5 631.23,-92.27 645.71,-82.57"/>
<polygon fill="midnightblue" stroke="midnightblue" points="647.39,-85.66 653.75,-77.19 643.49,-79.85 647.39,-85.66"/>
</g>
<!-- Node18&#45;&gt;Node2 -->
<g id="edge26" class="edge">
<title>Node18&#45;&gt;Node2</title>
<path fill="none" stroke="midnightblue" d="M683.25,-169C691.28,-155.58 703.42,-129.87 691.4,-112.5 686.16,-104.94 637.65,-88.32 603.94,-77.5"/>
<polygon fill="midnightblue" stroke="midnightblue" points="605.19,-74.23 594.6,-74.54 603.07,-80.9 605.19,-74.23"/>
</g>
<!-- Node18&#45;&gt;Node10 -->
<g id="edge31" class="edge">
<title>Node18&#45;&gt;Node10</title>
<path fill="none" stroke="midnightblue" d="M615.29,-169.93C535.99,-159.78 399.38,-142.3 318.61,-131.97"/>
<polygon fill="midnightblue" stroke="midnightblue" points="319.46,-128.55 309.1,-130.75 318.57,-135.49 319.46,-128.55"/>
</g>
<!-- Node18&#45;&gt;Node15 -->
<g id="edge32" class="edge">
<title>Node18&#45;&gt;Node15</title>
<path fill="none" stroke="midnightblue" d="M677.68,-169.07C677.6,-154.79 675.17,-126.72 658.4,-112.5 609.2,-70.77 415.19,-66.44 325.87,-66.74"/>
<polygon fill="midnightblue" stroke="midnightblue" points="325.98,-63.24 316,-66.8 326.02,-70.24 325.98,-63.24"/>
</g>
<!-- Node18&#45;&gt;Node17 -->
<g id="edge25" class="edge">
<title>Node18&#45;&gt;Node17</title>
<path fill="none" stroke="midnightblue" d="M662.54,-168.92C648.73,-160.59 627.91,-148.04 611.69,-138.27"/>
<polygon fill="midnightblue" stroke="midnightblue" points="613.95,-135.54 603.58,-133.38 610.34,-141.54 613.95,-135.54"/>
</g>
<!-- Node19 -->
<g id="node19" class="node">
<title>Node19</title>
<g id="a_node19"><a xlink:href="_rxstring_8hpp.html" target="_top" xlink:title=" ">
<polygon fill="white" stroke="black" points="743.65,-113 743.65,-132.25 815.15,-132.25 815.15,-113 743.65,-113"/>
<text xml:space="preserve" text-anchor="middle" x="779.4" y="-118.75" font-family="Helvetica,sans-Serif" font-size="10.00">Rxstring.hpp</text>
</a>
</g>
</g>
<!-- Node18&#45;&gt;Node19 -->
<g id="edge27" class="edge">
<title>Node18&#45;&gt;Node19</title>
<path fill="none" stroke="midnightblue" d="M694.24,-168.92C710.04,-160.51 733.93,-147.81 752.39,-137.99"/>
<polygon fill="midnightblue" stroke="midnightblue" points="754.01,-141.09 761.2,-133.31 750.72,-134.91 754.01,-141.09"/>
</g>
<!-- Node19&#45;&gt;Node2 -->
<g id="edge28" class="edge">
<title>Node19&#45;&gt;Node2</title>
<path fill="none" stroke="midnightblue" d="M743.26,-112.66C709.85,-104.31 658.58,-91.32 604.02,-76.6"/>
<polygon fill="midnightblue" stroke="midnightblue" points="605.09,-73.27 594.53,-74.03 603.27,-80.03 605.09,-73.27"/>
</g>
<!-- Node19&#45;&gt;Node11 -->
<g id="edge29" class="edge">
<title>Node19&#45;&gt;Node11</title>
<path fill="none" stroke="midnightblue" d="M760.82,-112.54C743.45,-104.06 717.26,-91.25 697.18,-81.44"/>
<polygon fill="midnightblue" stroke="midnightblue" points="698.92,-78.4 688.4,-77.15 695.85,-84.69 698.92,-78.4"/>
</g>
<!-- Node20 -->
<g id="node20" class="node">
<title>Node20</title>
<g id="a_node20"><a xlink:title=" ">
<polygon fill="white" stroke="#bfbfbf" points="741.77,-56.75 741.77,-76 847.02,-76 847.02,-56.75 741.77,-56.75"/>
<text xml:space="preserve" text-anchor="middle" x="794.4" y="-62.5" font-family="Helvetica,sans-Serif" font-size="10.00">SysAPIManager.hpp</text>
</a>
</g>
</g>
<!-- Node19&#45;&gt;Node20 -->
<g id="edge30" class="edge">
<title>Node19&#45;&gt;Node20</title>
<path fill="none" stroke="midnightblue" d="M781.88,-112.67C783.8,-105.71 786.54,-95.82 788.96,-87.05"/>
<polygon fill="midnightblue" stroke="midnightblue" points="792.27,-88.2 791.57,-77.63 785.53,-86.33 792.27,-88.2"/>
</g>
<!-- Node21&#45;&gt;Node2 -->
<g id="edge36" class="edge">
<title>Node21&#45;&gt;Node2</title>
<path fill="none" stroke="midnightblue" d="M449.81,-168.94C464.57,-156.29 492.44,-132.5 516.4,-112.5 528.02,-102.8 541.11,-92.06 551.61,-83.48"/>
<polygon fill="midnightblue" stroke="midnightblue" points="553.69,-86.3 559.23,-77.27 549.26,-80.87 553.69,-86.3"/>
</g>
<!-- Node21&#45;&gt;Node10 -->
<g id="edge35" class="edge">
<title>Node21&#45;&gt;Node10</title>
<path fill="none" stroke="midnightblue" d="M408.27,-168.79C377.29,-159.76 329.54,-145.83 295.25,-135.83"/>
<polygon fill="midnightblue" stroke="midnightblue" points="296.67,-132.6 286.09,-133.16 294.71,-139.32 296.67,-132.6"/>
</g>
<!-- Node21&#45;&gt;Node15 -->
<g id="edge38" class="edge">
<title>Node21&#45;&gt;Node15</title>
<path fill="none" stroke="midnightblue" d="M426.39,-168.83C399.23,-149.96 336.26,-106.2 302.59,-82.79"/>
<polygon fill="midnightblue" stroke="midnightblue" points="304.6,-79.93 294.39,-77.1 300.6,-85.68 304.6,-79.93"/>
</g>
<!-- Node21&#45;&gt;Node17 -->
<g id="edge34" class="edge">
<title>Node21&#45;&gt;Node17</title>
<path fill="none" stroke="midnightblue" d="M464.17,-168.79C488.18,-159.99 524.85,-146.55 551.95,-136.62"/>
<polygon fill="midnightblue" stroke="midnightblue" points="552.94,-139.98 561.13,-133.26 550.53,-133.41 552.94,-139.98"/>
</g>
<!-- Node21&#45;&gt;Node19 -->
<g id="edge37" class="edge">
<title>Node21&#45;&gt;Node19</title>
<path fill="none" stroke="midnightblue" d="M496.31,-168.79C562.37,-158.25 670.14,-141.06 731.91,-131.2"/>
<polygon fill="midnightblue" stroke="midnightblue" points="732.43,-134.66 741.76,-129.63 731.33,-127.75 732.43,-134.66"/>
</g>
<!-- Node22 -->
<g id="node22" class="node">
<title>Node22</title>
<g id="a_node22"><a xlink:title=" ">
<polygon fill="white" stroke="#bfbfbf" points="401.52,-113 401.52,-132.25 469.27,-132.25 469.27,-113 401.52,-113"/>
<text xml:space="preserve" text-anchor="middle" x="435.4" y="-118.75" font-family="Helvetica,sans-Serif" font-size="10.00">SysFile.hpp</text>
</a>
</g>
</g>
<!-- Node21&#45;&gt;Node22 -->
<g id="edge39" class="edge">
<title>Node21&#45;&gt;Node22</title>
<path fill="none" stroke="midnightblue" d="M438.74,-168.92C438.24,-162.12 437.53,-152.51 436.89,-143.9"/>
<polygon fill="midnightblue" stroke="midnightblue" points="440.39,-143.64 436.16,-133.93 433.4,-144.16 440.39,-143.64"/>
</g>
<!-- Node25&#45;&gt;Node2 -->
<g id="edge49" class="edge">
<title>Node25&#45;&gt;Node2</title>
<path fill="none" stroke="midnightblue" d="M791.52,-337.7C804.74,-299.16 854.1,-147.43 824.4,-112.5 794.06,-76.81 668.02,-86.02 604.45,-76.09"/>
<polygon fill="midnightblue" stroke="midnightblue" points="605.31,-72.69 594.84,-74.28 604.01,-79.57 605.31,-72.69"/>
</g>
<!-- Node25&#45;&gt;Node7 -->
<g id="edge46" class="edge">
<title>Node25&#45;&gt;Node7</title>
<path fill="none" stroke="midnightblue" d="M733.69,-339.86C653.4,-329.94 503.79,-311.45 416.82,-300.71"/>
<polygon fill="midnightblue" stroke="midnightblue" points="417.35,-297.25 407,-299.49 416.49,-304.19 417.35,-297.25"/>
</g>
<!-- Node25&#45;&gt;Node10 -->
<g id="edge48" class="edge">
<title>Node25&#45;&gt;Node10</title>
<path fill="none" stroke="midnightblue" d="M756.17,-337.56C682.88,-316.4 498.98,-260.05 355.4,-189 326.05,-174.47 294.67,-153.44 274.59,-139.18"/>
<polygon fill="midnightblue" stroke="midnightblue" points="276.83,-136.48 266.67,-133.48 272.74,-142.16 276.83,-136.48"/>
</g>
<!-- Node25&#45;&gt;Node11 -->
<g id="edge47" class="edge">
<title>Node25&#45;&gt;Node11</title>
<path fill="none" stroke="midnightblue" d="M795.91,-337.93C823.52,-304.9 914.9,-185.34 857.4,-112.5 849.42,-102.39 783.64,-88.27 731.9,-78.53"/>
<polygon fill="midnightblue" stroke="midnightblue" points="732.72,-75.13 722.25,-76.74 731.44,-82.01 732.72,-75.13"/>
</g>
<!-- Node27 -->
<g id="node27" class="node">
<title>Node27</title>
<g id="a_node27"><a xlink:title=" ">
<polygon fill="white" stroke="#bfbfbf" points="952.4,-281.75 952.4,-301 986.4,-301 986.4,-281.75 952.4,-281.75"/>
<text xml:space="preserve" text-anchor="middle" x="969.4" y="-287.5" font-family="Helvetica,sans-Serif" font-size="10.00">new</text>
</a>
</g>
</g>
<!-- Node26&#45;&gt;Node27 -->
<g id="edge51" class="edge">
<title>Node26&#45;&gt;Node27</title>
<path fill="none" stroke="midnightblue" d="M969.4,-337.67C969.4,-330.87 969.4,-321.26 969.4,-312.65"/>
<polygon fill="midnightblue" stroke="midnightblue" points="972.9,-312.68 969.4,-302.68 965.9,-312.68 972.9,-312.68"/>
</g>
</g>
</svg>
