<?xml version="1.0" encoding="UTF-8" standalone="no"?>
<!DOCTYPE svg PUBLIC "-//W3C//DTD SVG 1.1//EN"
 "http://www.w3.org/Graphics/SVG/1.1/DTD/svg11.dtd">
<!-- Generated by graphviz version 13.1.0 (20250701.0955)
 -->
<!-- Title: RegistrationManager.cpp Pages: 1 -->
<!--zoomable 310 -->
<svg id="main" version="1.1" xmlns="http://www.w3.org/2000/svg" xmlns:xlink="http://www.w3.org/1999/xlink" xml:space="preserve" onload="init(evt)">
<style type="text/css"><![CDATA[
.edge:hover path { stroke: red; }
.edge:hover polygon { stroke: red; fill: red; }
]]></style>
<script type="text/javascript"><![CDATA[
var edges = document.getElementsByTagName('g');
if (edges && edges.length) {
  for (var i=0;i<edges.length;i++) {
    if (edges[i].id.substr(0,4)=='edge') {
      edges[i].setAttribute('class','edge');
    }
  }
}
]]></script>
        <defs>
                <circle id="rim" cx="0" cy="0" r="7"/>
                <circle id="rim2" cx="0" cy="0" r="3.5"/>
                <g id="zoomPlus">
                        <use xlink:href="#rim" fill="#404040">
                                <set attributeName="fill" to="#808080" begin="zoomplus.mouseover" end="zoomplus.mouseout"/>
                        </use>
                        <path d="M-4,0h8M0,-4v8" fill="none" stroke="white" stroke-width="1.5" pointer-events="none"/>
                </g>
                <g id="zoomMin">
                        <use xlink:href="#rim" fill="#404040">
                                <set attributeName="fill" to="#808080" begin="zoomminus.mouseover" end="zoomminus.mouseout"/>
                        </use>
                        <path d="M-4,0h8" fill="none" stroke="white" stroke-width="1.5" pointer-events="none"/>
                </g>
                <g id="dirArrow">
                        <path fill="none" stroke="white" stroke-width="1.5" d="M0,-3.0v7 M-2.5,-0.5L0,-3.0L2.5,-0.5"/>
                </g>
               <g id="resetDef">
                       <use xlink:href="#rim2" fill="#404040">
                               <set attributeName="fill" to="#808080" begin="reset.mouseover" end="reset.mouseout"/>
                       </use>
               </g>
        </defs>

<script type="text/javascript">
var viewWidth = 718;
var viewHeight = 310;
var sectionId = 'dynsection-0';
</script>
<script xlink:href="svgpan.js"/>
<svg id="graph" class="graph">
<g id="viewport">
<title>RegistrationManager.cpp</title>
<polygon fill="white" stroke="none" points="-4,4 -4,-305.5 714.12,-305.5 714.12,4 -4,4"/>
<!-- Node1 -->
<g id="node1" class="node">
<title>Node1</title>
<g id="a_node1"><a xlink:title=" ">
<polygon fill="#bfbfbf" stroke="black" points="375.5,-281.75 375.5,-301 499.5,-301 499.5,-281.75 375.5,-281.75"/>
<text xml:space="preserve" text-anchor="middle" x="437.5" y="-287.5" font-family="Helvetica,sans-Serif" font-size="10.00">RegistrationManager.cpp</text>
</a>
</g>
</g>
<!-- Node2 -->
<g id="node2" class="node">
<title>Node2</title>
<g id="a_node2"><a xlink:href="_registration_manager_8hpp.html" target="_top" xlink:title=" ">
<polygon fill="white" stroke="black" points="284.5,-225.5 284.5,-244.75 408.5,-244.75 408.5,-225.5 284.5,-225.5"/>
<text xml:space="preserve" text-anchor="middle" x="346.5" y="-231.25" font-family="Helvetica,sans-Serif" font-size="10.00">RegistrationManager.hpp</text>
</a>
</g>
</g>
<!-- Node1&#45;&gt;Node2 -->
<g id="edge1" class="edge">
<title>Node1&#45;&gt;Node2</title>
<path fill="none" stroke="midnightblue" d="M422.47,-281.42C408.51,-273.09 387.46,-260.54 371.06,-250.77"/>
<polygon fill="midnightblue" stroke="midnightblue" points="373.23,-247.99 362.85,-245.87 369.65,-254 373.23,-247.99"/>
</g>
<!-- Node10 -->
<g id="node10" class="node">
<title>Node10</title>
<g id="a_node10"><a xlink:href="_service_message_8hpp.html" target="_top" xlink:title=" ">
<polygon fill="white" stroke="black" points="383.75,-113 383.75,-132.25 491.25,-132.25 491.25,-113 383.75,-113"/>
<text xml:space="preserve" text-anchor="middle" x="437.5" y="-118.75" font-family="Helvetica,sans-Serif" font-size="10.00">ServiceMessage.hpp</text>
</a>
</g>
</g>
<!-- Node1&#45;&gt;Node10 -->
<g id="edge18" class="edge">
<title>Node1&#45;&gt;Node10</title>
<path fill="none" stroke="midnightblue" d="M437.5,-281.41C437.5,-255.51 437.5,-180.12 437.5,-143.73"/>
<polygon fill="midnightblue" stroke="midnightblue" points="441,-144.15 437.5,-134.15 434,-144.15 441,-144.15"/>
</g>
<!-- Node11 -->
<g id="node11" class="node">
<title>Node11</title>
<g id="a_node11"><a xlink:href="_service_exception_8hpp.html" target="_top" xlink:title=" ">
<polygon fill="white" stroke="black" points="598.88,-56.75 598.88,-76 710.12,-76 710.12,-56.75 598.88,-56.75"/>
<text xml:space="preserve" text-anchor="middle" x="654.5" y="-62.5" font-family="Helvetica,sans-Serif" font-size="10.00">ServiceException.hpp</text>
</a>
</g>
</g>
<!-- Node1&#45;&gt;Node11 -->
<g id="edge19" class="edge">
<title>Node1&#45;&gt;Node11</title>
<path fill="none" stroke="midnightblue" d="M446.28,-281.36C479.06,-247.66 594.71,-128.82 637.99,-84.34"/>
<polygon fill="midnightblue" stroke="midnightblue" points="640.33,-86.95 644.8,-77.35 635.32,-82.07 640.33,-86.95"/>
</g>
<!-- Node3 -->
<g id="node3" class="node">
<title>Node3</title>
<g id="a_node3"><a xlink:title=" ">
<polygon fill="white" stroke="#bfbfbf" points="171.75,-169.25 171.75,-188.5 273.25,-188.5 273.25,-169.25 171.75,-169.25"/>
<text xml:space="preserve" text-anchor="middle" x="222.5" y="-175" font-family="Helvetica,sans-Serif" font-size="10.00">SysSemaphore.hpp</text>
</a>
</g>
</g>
<!-- Node2&#45;&gt;Node3 -->
<g id="edge2" class="edge">
<title>Node2&#45;&gt;Node3</title>
<path fill="none" stroke="midnightblue" d="M325.75,-225.04C306.07,-216.44 276.27,-203.4 253.73,-193.54"/>
<polygon fill="midnightblue" stroke="midnightblue" points="255.27,-190.39 244.71,-189.59 252.47,-196.81 255.27,-190.39"/>
</g>
<!-- Node4 -->
<g id="node4" class="node">
<title>Node4</title>
<g id="a_node4"><a xlink:href="_registration_table_8hpp.html" target="_top" xlink:title=" ">
<polygon fill="white" stroke="black" points="291.25,-169.25 291.25,-188.5 401.75,-188.5 401.75,-169.25 291.25,-169.25"/>
<text xml:space="preserve" text-anchor="middle" x="346.5" y="-175" font-family="Helvetica,sans-Serif" font-size="10.00">RegistrationTable.hpp</text>
</a>
</g>
</g>
<!-- Node2&#45;&gt;Node4 -->
<g id="edge3" class="edge">
<title>Node2&#45;&gt;Node4</title>
<path fill="none" stroke="midnightblue" d="M346.5,-225.17C346.5,-218.37 346.5,-208.76 346.5,-200.15"/>
<polygon fill="midnightblue" stroke="midnightblue" points="350,-200.18 346.5,-190.18 343,-200.18 350,-200.18"/>
</g>
<!-- Node5 -->
<g id="node5" class="node">
<title>Node5</title>
<g id="a_node5"><a xlink:href="rexx_8h.html" target="_top" xlink:title=" ">
<polygon fill="white" stroke="black" points="248,-56.75 248,-76 291,-76 291,-56.75 248,-56.75"/>
<text xml:space="preserve" text-anchor="middle" x="269.5" y="-62.5" font-family="Helvetica,sans-Serif" font-size="10.00">rexx.h</text>
</a>
</g>
</g>
<!-- Node4&#45;&gt;Node5 -->
<g id="edge4" class="edge">
<title>Node4&#45;&gt;Node5</title>
<path fill="none" stroke="midnightblue" d="M340.2,-168.83C327.56,-150.69 298.89,-109.56 282.2,-85.61"/>
<polygon fill="midnightblue" stroke="midnightblue" points="285.13,-83.68 276.54,-77.48 279.38,-87.68 285.13,-83.68"/>
</g>
<!-- Node4&#45;&gt;Node10 -->
<g id="edge9" class="edge">
<title>Node4&#45;&gt;Node10</title>
<path fill="none" stroke="midnightblue" d="M361.53,-168.92C375.49,-160.59 396.54,-148.04 412.94,-138.27"/>
<polygon fill="midnightblue" stroke="midnightblue" points="414.35,-141.5 421.15,-133.37 410.77,-135.49 414.35,-141.5"/>
</g>
<!-- Node15 -->
<g id="node15" class="node">
<title>Node15</title>
<g id="a_node15"><a xlink:href="_utilities_8hpp.html" target="_top" xlink:title=" ">
<polygon fill="white" stroke="black" points="308.62,-56.75 308.62,-76 376.38,-76 376.38,-56.75 308.62,-56.75"/>
<text xml:space="preserve" text-anchor="middle" x="342.5" y="-62.5" font-family="Helvetica,sans-Serif" font-size="10.00">Utilities.hpp</text>
</a>
</g>
</g>
<!-- Node4&#45;&gt;Node15 -->
<g id="edge17" class="edge">
<title>Node4&#45;&gt;Node15</title>
<path fill="none" stroke="midnightblue" d="M346.17,-168.83C345.53,-151.18 344.11,-111.75 343.23,-87.58"/>
<polygon fill="midnightblue" stroke="midnightblue" points="346.73,-87.61 342.88,-77.75 339.74,-87.87 346.73,-87.61"/>
</g>
<!-- Node6 -->
<g id="node6" class="node">
<title>Node6</title>
<g id="a_node6"><a xlink:title=" ">
<polygon fill="white" stroke="#bfbfbf" points="229.62,-0.5 229.62,-19.75 309.38,-19.75 309.38,-0.5 229.62,-0.5"/>
<text xml:space="preserve" text-anchor="middle" x="269.5" y="-6.25" font-family="Helvetica,sans-Serif" font-size="10.00">rexxapitypes.h</text>
</a>
</g>
</g>
<!-- Node5&#45;&gt;Node6 -->
<g id="edge5" class="edge">
<title>Node5&#45;&gt;Node6</title>
<path fill="none" stroke="midnightblue" d="M269.5,-56.42C269.5,-49.62 269.5,-40.01 269.5,-31.4"/>
<polygon fill="midnightblue" stroke="midnightblue" points="273,-31.43 269.5,-21.43 266,-31.43 273,-31.43"/>
</g>
<!-- Node7 -->
<g id="node7" class="node">
<title>Node7</title>
<g id="a_node7"><a xlink:href="rexxapidefs_8h.html" target="_top" xlink:title=" ">
<polygon fill="white" stroke="black" points="327.25,-0.5 327.25,-19.75 401.75,-19.75 401.75,-0.5 327.25,-0.5"/>
<text xml:space="preserve" text-anchor="middle" x="364.5" y="-6.25" font-family="Helvetica,sans-Serif" font-size="10.00">rexxapidefs.h</text>
</a>
</g>
</g>
<!-- Node5&#45;&gt;Node7 -->
<g id="edge6" class="edge">
<title>Node5&#45;&gt;Node7</title>
<path fill="none" stroke="midnightblue" d="M285.19,-56.42C299.76,-48.09 321.74,-35.54 338.86,-25.77"/>
<polygon fill="midnightblue" stroke="midnightblue" points="340.53,-28.85 347.48,-20.85 337.06,-22.77 340.53,-28.85"/>
</g>
<!-- Node8 -->
<g id="node8" class="node">
<title>Node8</title>
<g id="a_node8"><a xlink:title=" ">
<polygon fill="white" stroke="#bfbfbf" points="0,-0.5 0,-19.75 97,-19.75 97,-0.5 0,-0.5"/>
<text xml:space="preserve" text-anchor="middle" x="48.5" y="-6.25" font-family="Helvetica,sans-Serif" font-size="10.00">rexxplatformdefs.h</text>
</a>
</g>
</g>
<!-- Node5&#45;&gt;Node8 -->
<g id="edge7" class="edge">
<title>Node5&#45;&gt;Node8</title>
<path fill="none" stroke="midnightblue" d="M247.5,-59.97C212.5,-51.38 143.32,-34.4 96.48,-22.9"/>
<polygon fill="midnightblue" stroke="midnightblue" points="97.39,-19.52 86.85,-20.54 95.72,-26.32 97.39,-19.52"/>
</g>
<!-- Node9 -->
<g id="node9" class="node">
<title>Node9</title>
<g id="a_node9"><a xlink:title=" ">
<polygon fill="white" stroke="#bfbfbf" points="115.38,-0.5 115.38,-19.75 211.62,-19.75 211.62,-0.5 115.38,-0.5"/>
<text xml:space="preserve" text-anchor="middle" x="163.5" y="-6.25" font-family="Helvetica,sans-Serif" font-size="10.00">rexxplatformapis.h</text>
</a>
</g>
</g>
<!-- Node5&#45;&gt;Node9 -->
<g id="edge8" class="edge">
<title>Node5&#45;&gt;Node9</title>
<path fill="none" stroke="midnightblue" d="M252,-56.42C235.42,-47.94 210.29,-35.07 191.03,-25.21"/>
<polygon fill="midnightblue" stroke="midnightblue" points="192.87,-22.23 182.38,-20.79 189.68,-28.46 192.87,-22.23"/>
</g>
<!-- Node10&#45;&gt;Node5 -->
<g id="edge10" class="edge">
<title>Node10&#45;&gt;Node5</title>
<path fill="none" stroke="midnightblue" d="M409.38,-112.54C379.76,-102.98 333.19,-87.94 302.01,-77.87"/>
<polygon fill="midnightblue" stroke="midnightblue" points="303.31,-74.62 292.72,-74.87 301.16,-81.28 303.31,-74.62"/>
</g>
<!-- Node10&#45;&gt;Node11 -->
<g id="edge11" class="edge">
<title>Node10&#45;&gt;Node11</title>
<path fill="none" stroke="midnightblue" d="M473.82,-112.54C510.36,-103.41 566.88,-89.28 606.96,-79.26"/>
<polygon fill="midnightblue" stroke="midnightblue" points="607.74,-82.67 616.59,-76.85 606.04,-75.88 607.74,-82.67"/>
</g>
<!-- Node13 -->
<g id="node13" class="node">
<title>Node13</title>
<g id="a_node13"><a xlink:href="_c_s_stream_8hpp.html" target="_top" xlink:title=" ">
<polygon fill="white" stroke="black" points="500.25,-56.75 500.25,-76 580.75,-76 580.75,-56.75 500.25,-56.75"/>
<text xml:space="preserve" text-anchor="middle" x="540.5" y="-62.5" font-family="Helvetica,sans-Serif" font-size="10.00">CSStream.hpp</text>
</a>
</g>
</g>
<!-- Node10&#45;&gt;Node13 -->
<g id="edge13" class="edge">
<title>Node10&#45;&gt;Node13</title>
<path fill="none" stroke="midnightblue" d="M454.51,-112.67C470.54,-104.22 494.81,-91.44 513.49,-81.6"/>
<polygon fill="midnightblue" stroke="midnightblue" points="514.91,-84.81 522.13,-77.05 511.65,-78.62 514.91,-84.81"/>
</g>
<!-- Node14 -->
<g id="node14" class="node">
<title>Node14</title>
<g id="a_node14"><a xlink:title=" ">
<polygon fill="white" stroke="#bfbfbf" points="394.5,-56.75 394.5,-76 482.5,-76 482.5,-56.75 394.5,-56.75"/>
<text xml:space="preserve" text-anchor="middle" x="438.5" y="-62.5" font-family="Helvetica,sans-Serif" font-size="10.00">SysProcess.hpp</text>
</a>
</g>
</g>
<!-- Node10&#45;&gt;Node14 -->
<g id="edge14" class="edge">
<title>Node10&#45;&gt;Node14</title>
<path fill="none" stroke="midnightblue" d="M437.67,-112.67C437.79,-105.87 437.97,-96.26 438.13,-87.65"/>
<polygon fill="midnightblue" stroke="midnightblue" points="441.63,-87.74 438.31,-77.68 434.63,-87.61 441.63,-87.74"/>
</g>
<!-- Node10&#45;&gt;Node15 -->
<g id="edge15" class="edge">
<title>Node10&#45;&gt;Node15</title>
<path fill="none" stroke="midnightblue" d="M421.81,-112.67C407.24,-104.34 385.26,-91.79 368.14,-82.02"/>
<polygon fill="midnightblue" stroke="midnightblue" points="369.94,-79.02 359.52,-77.1 366.47,-85.1 369.94,-79.02"/>
</g>
<!-- Node12 -->
<g id="node12" class="node">
<title>Node12</title>
<g id="a_node12"><a xlink:title=" ">
<polygon fill="white" stroke="#bfbfbf" points="630.38,-0.5 630.38,-19.75 678.62,-19.75 678.62,-0.5 630.38,-0.5"/>
<text xml:space="preserve" text-anchor="middle" x="654.5" y="-6.25" font-family="Helvetica,sans-Serif" font-size="10.00">string.h</text>
</a>
</g>
</g>
<!-- Node11&#45;&gt;Node12 -->
<g id="edge12" class="edge">
<title>Node11&#45;&gt;Node12</title>
<path fill="none" stroke="midnightblue" d="M654.5,-56.42C654.5,-49.62 654.5,-40.01 654.5,-31.4"/>
<polygon fill="midnightblue" stroke="midnightblue" points="658,-31.43 654.5,-21.43 651,-31.43 658,-31.43"/>
</g>
<!-- Node16 -->
<g id="node16" class="node">
<title>Node16</title>
<g id="a_node16"><a xlink:title=" ">
<polygon fill="white" stroke="#bfbfbf" points="420,-0.5 420,-19.75 487,-19.75 487,-0.5 420,-0.5"/>
<text xml:space="preserve" text-anchor="middle" x="453.5" y="-6.25" font-family="Helvetica,sans-Serif" font-size="10.00">sys/types.h</text>
</a>
</g>
</g>
<!-- Node15&#45;&gt;Node16 -->
<g id="edge16" class="edge">
<title>Node15&#45;&gt;Node16</title>
<path fill="none" stroke="midnightblue" d="M361.08,-56.29C378.45,-47.81 404.64,-35 424.72,-25.19"/>
<polygon fill="midnightblue" stroke="midnightblue" points="426.05,-28.44 433.5,-20.9 422.98,-22.15 426.05,-28.44"/>
</g>
</g>
</svg>
        <g id="navigator" transform="translate(0 0)" fill="#404254">
                <rect fill="#f2f5e9" fill-opacity="0.5" stroke="#606060" stroke-width=".5" x="0" y="0" width="60" height="60"/>
                <use id="zoomplus" xlink:href="#zoomPlus" x="17" y="9" onmousedown="handleZoom(evt,'in')"/>
                <use id="zoomminus" xlink:href="#zoomMin" x="42" y="9" onmousedown="handleZoom(evt,'out')"/>
                <use id="reset" xlink:href="#resetDef" x="30" y="36" onmousedown="handleReset()"/>
                <g id="arrowUp" xlink:href="#dirArrow" transform="translate(30 24)" onmousedown="handlePan(0,-1)">
                  <use xlink:href="#rim" fill="#404040">
                        <set attributeName="fill" to="#808080" begin="arrowUp.mouseover" end="arrowUp.mouseout"/>
                  </use>
                  <path fill="none" stroke="white" stroke-width="1.5" d="M0,-3.0v7 M-2.5,-0.5L0,-3.0L2.5,-0.5"/>
                </g>
                <g id="arrowRight" xlink:href="#dirArrow" transform="rotate(90) translate(36 -43)" onmousedown="handlePan(1,0)">
                  <use xlink:href="#rim" fill="#404040">
                        <set attributeName="fill" to="#808080" begin="arrowRight.mouseover" end="arrowRight.mouseout"/>
                  </use>
                  <path fill="none" stroke="white" stroke-width="1.5" d="M0,-3.0v7 M-2.5,-0.5L0,-3.0L2.5,-0.5"/>
                </g>
                <g id="arrowDown" xlink:href="#dirArrow" transform="rotate(180) translate(-30 -48)" onmousedown="handlePan(0,1)">
                  <use xlink:href="#rim" fill="#404040">
                        <set attributeName="fill" to="#808080" begin="arrowDown.mouseover" end="arrowDown.mouseout"/>
                  </use>
                  <path fill="none" stroke="white" stroke-width="1.5" d="M0,-3.0v7 M-2.5,-0.5L0,-3.0L2.5,-0.5"/>
                </g>
                <g id="arrowLeft" xlink:href="#dirArrow" transform="rotate(270) translate(-36 17)" onmousedown="handlePan(-1,0)">
                  <use xlink:href="#rim" fill="#404040">
                        <set attributeName="fill" to="#808080" begin="arrowLeft.mouseover" end="arrowLeft.mouseout"/>
                  </use>
                  <path fill="none" stroke="white" stroke-width="1.5" d="M0,-3.0v7 M-2.5,-0.5L0,-3.0L2.5,-0.5"/>
                </g>
        </g>
        <svg viewBox="0 0 15 15" width="100%" height="30px" preserveAspectRatio="xMaxYMin meet">
         <g id="arrow_out" transform="scale(0.3 0.3)">
          <a xlink:href="_registration_manager_8cpp__incl_org.svg" target="_base">
           <rect id="button" ry="5" rx="5" y="6" x="6" height="38" width="38"
                fill="#f2f5e9" fill-opacity="0.5" stroke="#606060" stroke-width="1.0"/>
           <path id="arrow"
             d="M 11.500037,31.436501 C 11.940474,20.09759 22.043105,11.32322 32.158766,21.979434 L 37.068811,17.246167 C 37.068811,17.246167 37.088388,32 37.088388,32 L 22.160133,31.978069 C 22.160133,31.978069 26.997745,27.140456 26.997745,27.140456 C 18.528582,18.264221 13.291696,25.230495 11.500037,31.436501 z"
             style="fill:#404040;"/>
          </a>
         </g>
        </svg>
</svg>
