<?xml version="1.0" encoding="UTF-8" standalone="no"?>
<!DOCTYPE svg PUBLIC "-//W3C//DTD SVG 1.1//EN"
 "http://www.w3.org/Graphics/SVG/1.1/DTD/svg11.dtd">
<!-- Generated by graphviz version 13.1.0 (20250701.0955)
 -->
<!-- Title: RexxInfoClass.cpp Pages: 1 -->
<svg width="2260pt" height="591pt"
 viewBox="0.00 0.00 2260.00 591.00" xmlns="http://www.w3.org/2000/svg" xmlns:xlink="http://www.w3.org/1999/xlink">
<g id="graph0" class="graph" transform="scale(1 1) rotate(0) translate(4 586.75)">
<title>RexxInfoClass.cpp</title>
<polygon fill="white" stroke="none" points="-4,4 -4,-586.75 2256,-586.75 2256,4 -4,4"/>
<!-- Node1 -->
<g id="node1" class="node">
<title>Node1</title>
<g id="a_node1"><a xlink:title=" ">
<polygon fill="#bfbfbf" stroke="black" points="1624,-563 1624,-582.25 1724,-582.25 1724,-563 1624,-563"/>
<text xml:space="preserve" text-anchor="middle" x="1674" y="-568.75" font-family="Helvetica,sans-Serif" font-size="10.00">RexxInfoClass.cpp</text>
</a>
</g>
</g>
<!-- Node2 -->
<g id="node2" class="node">
<title>Node2</title>
<g id="a_node2"><a xlink:href="_rexx_core_8h.html" target="_top" xlink:title=" ">
<polygon fill="white" stroke="black" points="778.75,-281.75 778.75,-301 847.25,-301 847.25,-281.75 778.75,-281.75"/>
<text xml:space="preserve" text-anchor="middle" x="813" y="-287.5" font-family="Helvetica,sans-Serif" font-size="10.00">RexxCore.h</text>
</a>
</g>
</g>
<!-- Node1&#45;&gt;Node2 -->
<g id="edge1" class="edge">
<title>Node1&#45;&gt;Node2</title>
<path fill="none" stroke="midnightblue" d="M1623.69,-570.41C1441.09,-565.36 824,-542.27 824,-461.12 824,-461.12 824,-461.12 824,-402.88 824,-371.13 819.45,-334.5 816.2,-312.41"/>
<polygon fill="midnightblue" stroke="midnightblue" points="819.69,-312.07 814.71,-302.72 812.77,-313.14 819.69,-312.07"/>
</g>
<!-- Node15 -->
<g id="node11" class="node">
<title>Node15</title>
<g id="a_node11"><a xlink:href="_numerics_8hpp.html" target="_top" xlink:title=" ">
<polygon fill="white" stroke="black" points="1440.62,-56.75 1440.62,-76 1517.38,-76 1517.38,-56.75 1440.62,-56.75"/>
<text xml:space="preserve" text-anchor="middle" x="1479" y="-62.5" font-family="Helvetica,sans-Serif" font-size="10.00">Numerics.hpp</text>
</a>
</g>
</g>
<!-- Node1&#45;&gt;Node15 -->
<g id="edge43" class="edge">
<title>Node1&#45;&gt;Node15</title>
<path fill="none" stroke="midnightblue" d="M1724.46,-565.97C1819.6,-553.9 2016,-521.65 2016,-461.12 2016,-461.12 2016,-461.12 2016,-177.88 2016,-79.01 1662.41,-67.84 1529.08,-67.13"/>
<polygon fill="midnightblue" stroke="midnightblue" points="1529.14,-63.64 1519.13,-67.1 1529.12,-70.64 1529.14,-63.64"/>
</g>
<!-- Node36 -->
<g id="node22" class="node">
<title>Node36</title>
<g id="a_node22"><a xlink:href="_array_class_8hpp.html" target="_top" xlink:title=" ">
<polygon fill="white" stroke="black" points="30.25,-113 30.25,-132.25 113.75,-132.25 113.75,-113 30.25,-113"/>
<text xml:space="preserve" text-anchor="middle" x="72" y="-118.75" font-family="Helvetica,sans-Serif" font-size="10.00">ArrayClass.hpp</text>
</a>
</g>
</g>
<!-- Node1&#45;&gt;Node36 -->
<g id="edge66" class="edge">
<title>Node1&#45;&gt;Node36</title>
<path fill="none" stroke="midnightblue" d="M1623.9,-571C1345.37,-567.23 0,-544.68 0,-461.12 0,-461.12 0,-461.12 0,-234.12 0,-203.87 2.57,-194.16 19,-168.75 26.46,-157.22 37.75,-147.03 47.99,-139.26"/>
<polygon fill="midnightblue" stroke="midnightblue" points="49.99,-142.14 56.1,-133.48 45.92,-136.44 49.99,-142.14"/>
</g>
<!-- Node43 -->
<g id="node27" class="node">
<title>Node43</title>
<g id="a_node27"><a xlink:href="_interpreter_8hpp.html" target="_top" xlink:title=" ">
<polygon fill="white" stroke="black" points="328.88,-113 328.88,-132.25 407.12,-132.25 407.12,-113 328.88,-113"/>
<text xml:space="preserve" text-anchor="middle" x="368" y="-118.75" font-family="Helvetica,sans-Serif" font-size="10.00">Interpreter.hpp</text>
</a>
</g>
</g>
<!-- Node1&#45;&gt;Node43 -->
<g id="edge63" class="edge">
<title>Node1&#45;&gt;Node43</title>
<path fill="none" stroke="midnightblue" d="M1623.63,-569.91C1388.36,-561.59 409,-523.2 409,-461.12 409,-461.12 409,-461.12 409,-234.12 409,-200.15 391.75,-163.76 379.63,-142.38"/>
<polygon fill="midnightblue" stroke="midnightblue" points="382.75,-140.79 374.65,-133.96 376.73,-144.35 382.75,-140.79"/>
</g>
<!-- Node47 -->
<g id="node33" class="node">
<title>Node47</title>
<g id="a_node33"><a xlink:href="_rexx_info_class_8hpp.html" target="_top" xlink:title=" ">
<polygon fill="white" stroke="black" points="1555,-450.5 1555,-469.75 1655,-469.75 1655,-450.5 1555,-450.5"/>
<text xml:space="preserve" text-anchor="middle" x="1605" y="-456.25" font-family="Helvetica,sans-Serif" font-size="10.00">RexxInfoClass.hpp</text>
</a>
</g>
</g>
<!-- Node1&#45;&gt;Node47 -->
<g id="edge41" class="edge">
<title>Node1&#45;&gt;Node47</title>
<path fill="none" stroke="midnightblue" d="M1668.35,-562.58C1657.08,-544.52 1631.57,-503.67 1616.59,-479.68"/>
<polygon fill="midnightblue" stroke="midnightblue" points="1619.6,-477.9 1611.33,-471.27 1613.66,-481.6 1619.6,-477.9"/>
</g>
<!-- Node48 -->
<g id="node34" class="node">
<title>Node48</title>
<g id="a_node34"><a xlink:title=" ">
<polygon fill="white" stroke="#bfbfbf" points="2044.25,-506.75 2044.25,-526 2145.75,-526 2145.75,-506.75 2044.25,-506.75"/>
<text xml:space="preserve" text-anchor="middle" x="2095" y="-512.5" font-family="Helvetica,sans-Serif" font-size="10.00">SysFileSystem.hpp</text>
</a>
</g>
</g>
<!-- Node1&#45;&gt;Node48 -->
<g id="edge44" class="edge">
<title>Node1&#45;&gt;Node48</title>
<path fill="none" stroke="midnightblue" d="M1724.43,-565.45C1793.45,-556.95 1921.16,-541.04 2030,-526.5 2030.85,-526.39 2031.7,-526.27 2032.56,-526.16"/>
<polygon fill="midnightblue" stroke="midnightblue" points="2032.98,-529.63 2042.41,-524.82 2032.03,-522.7 2032.98,-529.63"/>
</g>
<!-- Node49 -->
<g id="node35" class="node">
<title>Node49</title>
<g id="a_node35"><a xlink:href="_method_arguments_8hpp.html" target="_top" xlink:title=" ">
<polygon fill="white" stroke="black" points="1657.88,-506.75 1657.88,-526 1772.12,-526 1772.12,-506.75 1657.88,-506.75"/>
<text xml:space="preserve" text-anchor="middle" x="1715" y="-512.5" font-family="Helvetica,sans-Serif" font-size="10.00">MethodArguments.hpp</text>
</a>
</g>
</g>
<!-- Node1&#45;&gt;Node49 -->
<g id="edge45" class="edge">
<title>Node1&#45;&gt;Node49</title>
<path fill="none" stroke="midnightblue" d="M1680.77,-562.67C1686.38,-555.24 1694.54,-544.45 1701.48,-535.27"/>
<polygon fill="midnightblue" stroke="midnightblue" points="1704.21,-537.46 1707.44,-527.37 1698.62,-533.24 1704.21,-537.46"/>
</g>
<!-- Node77 -->
<g id="node46" class="node">
<title>Node77</title>
<g id="a_node46"><a xlink:title=" ">
<polygon fill="white" stroke="#bfbfbf" points="1876,-394.25 1876,-413.5 1988,-413.5 1988,-394.25 1876,-394.25"/>
<text xml:space="preserve" text-anchor="middle" x="1932" y="-400" font-family="Helvetica,sans-Serif" font-size="10.00">SystemInterpreter.hpp</text>
</a>
</g>
</g>
<!-- Node1&#45;&gt;Node77 -->
<g id="edge64" class="edge">
<title>Node1&#45;&gt;Node77</title>
<path fill="none" stroke="midnightblue" d="M1700.94,-562.64C1723.2,-554.67 1755.21,-541.91 1781,-526.5 1833.7,-495.01 1887.95,-446.66 1914.8,-421.45"/>
<polygon fill="midnightblue" stroke="midnightblue" points="1916.86,-424.31 1921.71,-414.89 1912.05,-419.24 1916.86,-424.31"/>
</g>
<!-- Node78 -->
<g id="node47" class="node">
<title>Node78</title>
<g id="a_node47"><a xlink:title=" ">
<polygon fill="white" stroke="#bfbfbf" points="2164,-506.75 2164,-526 2252,-526 2252,-506.75 2164,-506.75"/>
<text xml:space="preserve" text-anchor="middle" x="2208" y="-512.5" font-family="Helvetica,sans-Serif" font-size="10.00">SysProcess.hpp</text>
</a>
</g>
</g>
<!-- Node1&#45;&gt;Node78 -->
<g id="edge65" class="edge">
<title>Node1&#45;&gt;Node78</title>
<path fill="none" stroke="midnightblue" d="M1724.35,-568.18C1810.09,-562.04 1990.16,-547.94 2152.35,-526.76"/>
<polygon fill="midnightblue" stroke="midnightblue" points="2152.55,-530.27 2162,-525.49 2151.63,-523.33 2152.55,-530.27"/>
</g>
<!-- Node79 -->
<g id="node48" class="node">
<title>Node79</title>
<g id="a_node48"><a xlink:href="_package_class_8hpp.html" target="_top" xlink:title=" ">
<polygon fill="white" stroke="black" points="1216.75,-394.25 1216.75,-413.5 1315.25,-413.5 1315.25,-394.25 1216.75,-394.25"/>
<text xml:space="preserve" text-anchor="middle" x="1266" y="-400" font-family="Helvetica,sans-Serif" font-size="10.00">PackageClass.hpp</text>
</a>
</g>
</g>
<!-- Node1&#45;&gt;Node79 -->
<g id="edge67" class="edge">
<title>Node1&#45;&gt;Node79</title>
<path fill="none" stroke="midnightblue" d="M1651.77,-562.54C1583.88,-534.79 1378.94,-451.04 1298.71,-418.24"/>
<polygon fill="midnightblue" stroke="midnightblue" points="1300.23,-415.08 1289.65,-414.54 1297.58,-421.56 1300.23,-415.08"/>
</g>
<!-- Node3 -->
<g id="node3" class="node">
<title>Node3</title>
<g id="a_node3"><a xlink:href="oorexxapi_8h.html" target="_top" xlink:title=" ">
<polygon fill="white" stroke="black" points="769.88,-225.5 769.88,-244.75 836.12,-244.75 836.12,-225.5 769.88,-225.5"/>
<text xml:space="preserve" text-anchor="middle" x="803" y="-231.25" font-family="Helvetica,sans-Serif" font-size="10.00">oorexxapi.h</text>
</a>
</g>
</g>
<!-- Node2&#45;&gt;Node3 -->
<g id="edge2" class="edge">
<title>Node2&#45;&gt;Node3</title>
<path fill="none" stroke="midnightblue" d="M811.35,-281.42C810.08,-274.54 808.28,-264.79 806.68,-256.1"/>
<polygon fill="midnightblue" stroke="midnightblue" points="810.15,-255.6 804.89,-246.41 803.27,-256.87 810.15,-255.6"/>
</g>
<!-- Node10 -->
<g id="node6" class="node">
<title>Node10</title>
<g id="a_node6"><a xlink:title=" ">
<polygon fill="white" stroke="#bfbfbf" points="475.25,-225.5 475.25,-244.75 582.75,-244.75 582.75,-225.5 475.25,-225.5"/>
<text xml:space="preserve" text-anchor="middle" x="529" y="-231.25" font-family="Helvetica,sans-Serif" font-size="10.00">PlatformDefinitions.h</text>
</a>
</g>
</g>
<!-- Node2&#45;&gt;Node10 -->
<g id="edge5" class="edge">
<title>Node2&#45;&gt;Node10</title>
<path fill="none" stroke="midnightblue" d="M778.46,-283.78C731.06,-274.72 645.2,-258.32 587.64,-247.33"/>
<polygon fill="midnightblue" stroke="midnightblue" points="588.49,-243.93 578.01,-245.49 587.17,-250.8 588.49,-243.93"/>
</g>
<!-- Node11 -->
<g id="node7" class="node">
<title>Node11</title>
<g id="a_node7"><a xlink:href="_class_type_codes_8h.html" target="_top" xlink:title=" ">
<polygon fill="white" stroke="black" points="513.38,-113 513.38,-132.25 612.62,-132.25 612.62,-113 513.38,-113"/>
<text xml:space="preserve" text-anchor="middle" x="563" y="-118.75" font-family="Helvetica,sans-Serif" font-size="10.00">ClassTypeCodes.h</text>
</a>
</g>
</g>
<!-- Node2&#45;&gt;Node11 -->
<g id="edge6" class="edge">
<title>Node2&#45;&gt;Node11</title>
<path fill="none" stroke="midnightblue" d="M793.98,-281.29C776.46,-272.67 749.92,-259.04 728,-245.25 673.1,-210.7 612.73,-163.69 582.51,-139.48"/>
<polygon fill="midnightblue" stroke="midnightblue" points="584.97,-136.97 574.98,-133.42 580.58,-142.42 584.97,-136.97"/>
</g>
<!-- Node12 -->
<g id="node8" class="node">
<title>Node12</title>
<g id="a_node8"><a xlink:href="_object_class_8hpp.html" target="_top" xlink:title=" ">
<polygon fill="white" stroke="black" points="1400.62,-225.5 1400.62,-244.75 1489.38,-244.75 1489.38,-225.5 1400.62,-225.5"/>
<text xml:space="preserve" text-anchor="middle" x="1445" y="-231.25" font-family="Helvetica,sans-Serif" font-size="10.00">ObjectClass.hpp</text>
</a>
</g>
</g>
<!-- Node2&#45;&gt;Node12 -->
<g id="edge7" class="edge">
<title>Node2&#45;&gt;Node12</title>
<path fill="none" stroke="midnightblue" d="M847.64,-288.75C935.97,-284.39 1177.04,-271.04 1388.91,-245.39"/>
<polygon fill="midnightblue" stroke="midnightblue" points="1389.25,-248.88 1398.75,-244.19 1388.4,-241.93 1389.25,-248.88"/>
</g>
<!-- Node18 -->
<g id="node14" class="node">
<title>Node18</title>
<g id="a_node14"><a xlink:href="_table_class_8hpp.html" target="_top" xlink:title=" ">
<polygon fill="white" stroke="black" points="854.25,-225.5 854.25,-244.75 937.75,-244.75 937.75,-225.5 854.25,-225.5"/>
<text xml:space="preserve" text-anchor="middle" x="896" y="-231.25" font-family="Helvetica,sans-Serif" font-size="10.00">TableClass.hpp</text>
</a>
</g>
</g>
<!-- Node2&#45;&gt;Node18 -->
<g id="edge14" class="edge">
<title>Node2&#45;&gt;Node18</title>
<path fill="none" stroke="midnightblue" d="M826.71,-281.42C839.2,-273.25 857.92,-261.02 872.75,-251.32"/>
<polygon fill="midnightblue" stroke="midnightblue" points="874.55,-254.33 881.01,-245.92 870.72,-248.47 874.55,-254.33"/>
</g>
<!-- Node30 -->
<g id="node16" class="node">
<title>Node30</title>
<g id="a_node16"><a xlink:href="_rexx_memory_8hpp.html" target="_top" xlink:title=" ">
<polygon fill="white" stroke="black" points="280.12,-225.5 280.12,-244.75 371.88,-244.75 371.88,-225.5 280.12,-225.5"/>
<text xml:space="preserve" text-anchor="middle" x="326" y="-231.25" font-family="Helvetica,sans-Serif" font-size="10.00">RexxMemory.hpp</text>
</a>
</g>
</g>
<!-- Node2&#45;&gt;Node30 -->
<g id="edge16" class="edge">
<title>Node2&#45;&gt;Node30</title>
<path fill="none" stroke="midnightblue" d="M778.37,-286.52C695.61,-277.3 485.7,-253.91 383.57,-242.54"/>
<polygon fill="midnightblue" stroke="midnightblue" points="384.09,-239.07 373.76,-241.45 383.31,-246.03 384.09,-239.07"/>
</g>
<!-- Node44 -->
<g id="node28" class="node">
<title>Node44</title>
<g id="a_node28"><a xlink:href="_rexx_behaviour_8hpp.html" target="_top" xlink:title=" ">
<polygon fill="white" stroke="black" points="955.62,-225.5 955.62,-244.75 1056.38,-244.75 1056.38,-225.5 955.62,-225.5"/>
<text xml:space="preserve" text-anchor="middle" x="1006" y="-231.25" font-family="Helvetica,sans-Serif" font-size="10.00">RexxBehaviour.hpp</text>
</a>
</g>
</g>
<!-- Node2&#45;&gt;Node44 -->
<g id="edge35" class="edge">
<title>Node2&#45;&gt;Node44</title>
<path fill="none" stroke="midnightblue" d="M845.3,-281.29C877.45,-272.26 926.99,-258.33 962.57,-248.33"/>
<polygon fill="midnightblue" stroke="midnightblue" points="963.45,-251.72 972.13,-245.64 961.56,-244.98 963.45,-251.72"/>
</g>
<!-- Node23 -->
<g id="node31" class="node">
<title>Node23</title>
<g id="a_node31"><a xlink:href="_class_class_8hpp.html" target="_top" xlink:title=" ">
<polygon fill="white" stroke="black" points="1074.12,-225.5 1074.12,-244.75 1159.88,-244.75 1159.88,-225.5 1074.12,-225.5"/>
<text xml:space="preserve" text-anchor="middle" x="1117" y="-231.25" font-family="Helvetica,sans-Serif" font-size="10.00">ClassClass.hpp</text>
</a>
</g>
</g>
<!-- Node2&#45;&gt;Node23 -->
<g id="edge38" class="edge">
<title>Node2&#45;&gt;Node23</title>
<path fill="none" stroke="midnightblue" d="M847.58,-284.2C900.02,-274.85 1000.16,-256.97 1062.48,-245.85"/>
<polygon fill="midnightblue" stroke="midnightblue" points="1062.94,-249.33 1072.17,-244.13 1061.71,-242.44 1062.94,-249.33"/>
</g>
<!-- Node46 -->
<g id="node32" class="node">
<title>Node46</title>
<g id="a_node32"><a xlink:href="_envelope_8hpp.html" target="_top" xlink:title=" ">
<polygon fill="white" stroke="black" points="600.38,-225.5 600.38,-244.75 675.62,-244.75 675.62,-225.5 600.38,-225.5"/>
<text xml:space="preserve" text-anchor="middle" x="638" y="-231.25" font-family="Helvetica,sans-Serif" font-size="10.00">Envelope.hpp</text>
</a>
</g>
</g>
<!-- Node2&#45;&gt;Node46 -->
<g id="edge40" class="edge">
<title>Node2&#45;&gt;Node46</title>
<path fill="none" stroke="midnightblue" d="M783.71,-281.29C754.81,-272.34 710.41,-258.57 678.22,-248.59"/>
<polygon fill="midnightblue" stroke="midnightblue" points="679.42,-245.3 668.83,-245.68 677.35,-251.99 679.42,-245.3"/>
</g>
<!-- Node4 -->
<g id="node4" class="node">
<title>Node4</title>
<g id="a_node4"><a xlink:href="rexx_8h.html" target="_top" xlink:title=" ">
<polygon fill="white" stroke="red" points="827.5,-169.25 827.5,-188.5 870.5,-188.5 870.5,-169.25 827.5,-169.25"/>
<text xml:space="preserve" text-anchor="middle" x="849" y="-175" font-family="Helvetica,sans-Serif" font-size="10.00">rexx.h</text>
</a>
</g>
</g>
<!-- Node3&#45;&gt;Node4 -->
<g id="edge3" class="edge">
<title>Node3&#45;&gt;Node4</title>
<path fill="none" stroke="midnightblue" d="M810.6,-225.17C817.03,-217.58 826.43,-206.49 834.32,-197.18"/>
<polygon fill="midnightblue" stroke="midnightblue" points="836.77,-199.71 840.57,-189.82 831.43,-195.18 836.77,-199.71"/>
</g>
<!-- Node9 -->
<g id="node5" class="node">
<title>Node9</title>
<g id="a_node5"><a xlink:href="oorexxerrors_8h.html" target="_top" xlink:title=" ">
<polygon fill="white" stroke="black" points="888.88,-169.25 888.88,-188.5 967.12,-188.5 967.12,-169.25 888.88,-169.25"/>
<text xml:space="preserve" text-anchor="middle" x="928" y="-175" font-family="Helvetica,sans-Serif" font-size="10.00">oorexxerrors.h</text>
</a>
</g>
</g>
<!-- Node3&#45;&gt;Node9 -->
<g id="edge4" class="edge">
<title>Node3&#45;&gt;Node9</title>
<path fill="none" stroke="midnightblue" d="M823.92,-225.04C843.75,-216.44 873.8,-203.4 896.52,-193.54"/>
<polygon fill="midnightblue" stroke="midnightblue" points="897.84,-196.78 905.62,-189.59 895.05,-190.36 897.84,-196.78"/>
</g>
<!-- Node13 -->
<g id="node9" class="node">
<title>Node13</title>
<g id="a_node9"><a xlink:title=" ">
<polygon fill="white" stroke="#bfbfbf" points="1417,-169.25 1417,-188.5 1451,-188.5 1451,-169.25 1417,-169.25"/>
<text xml:space="preserve" text-anchor="middle" x="1434" y="-175" font-family="Helvetica,sans-Serif" font-size="10.00">new</text>
</a>
</g>
</g>
<!-- Node12&#45;&gt;Node13 -->
<g id="edge8" class="edge">
<title>Node12&#45;&gt;Node13</title>
<path fill="none" stroke="midnightblue" d="M1443.18,-225.17C1441.79,-218.29 1439.81,-208.54 1438.05,-199.85"/>
<polygon fill="midnightblue" stroke="midnightblue" points="1441.5,-199.25 1436.08,-190.15 1434.64,-200.65 1441.5,-199.25"/>
</g>
<!-- Node14 -->
<g id="node10" class="node">
<title>Node14</title>
<g id="a_node10"><a xlink:title=" ">
<polygon fill="white" stroke="#bfbfbf" points="1214.88,-113 1214.88,-132.25 1263.12,-132.25 1263.12,-113 1214.88,-113"/>
<text xml:space="preserve" text-anchor="middle" x="1239" y="-118.75" font-family="Helvetica,sans-Serif" font-size="10.00">string.h</text>
</a>
</g>
</g>
<!-- Node12&#45;&gt;Node14 -->
<g id="edge9" class="edge">
<title>Node12&#45;&gt;Node14</title>
<path fill="none" stroke="midnightblue" d="M1437.07,-225.3C1424.22,-211.47 1397.51,-184.66 1370,-168.75 1339.75,-151.26 1301.66,-139.09 1274.36,-131.83"/>
<polygon fill="midnightblue" stroke="midnightblue" points="1275.39,-128.49 1264.84,-129.4 1273.66,-135.27 1275.39,-128.49"/>
</g>
<!-- Node12&#45;&gt;Node15 -->
<g id="edge10" class="edge">
<title>Node12&#45;&gt;Node15</title>
<path fill="none" stroke="midnightblue" d="M1448.43,-225.26C1451.81,-216.25 1456.89,-201.84 1460,-189 1468.54,-153.79 1474.1,-111.88 1476.88,-87.58"/>
<polygon fill="midnightblue" stroke="midnightblue" points="1480.34,-88.15 1477.95,-77.83 1473.38,-87.39 1480.34,-88.15"/>
</g>
<!-- Node17 -->
<g id="node13" class="node">
<title>Node17</title>
<g id="a_node13"><a xlink:href="_rexx_error_codes_8h.html" target="_top" xlink:title=" ">
<polygon fill="white" stroke="black" points="1586.5,-169.25 1586.5,-188.5 1683.5,-188.5 1683.5,-169.25 1586.5,-169.25"/>
<text xml:space="preserve" text-anchor="middle" x="1635" y="-175" font-family="Helvetica,sans-Serif" font-size="10.00">RexxErrorCodes.h</text>
</a>
</g>
</g>
<!-- Node12&#45;&gt;Node17 -->
<g id="edge13" class="edge">
<title>Node12&#45;&gt;Node17</title>
<path fill="none" stroke="midnightblue" d="M1476.8,-225.04C1508.45,-216.01 1557.22,-202.08 1592.25,-192.08"/>
<polygon fill="midnightblue" stroke="midnightblue" points="1592.98,-195.51 1601.64,-189.4 1591.06,-188.78 1592.98,-195.51"/>
</g>
<!-- Node15&#45;&gt;Node2 -->
<g id="edge12" class="edge">
<title>Node15&#45;&gt;Node2</title>
<path fill="none" stroke="midnightblue" d="M1440.46,-68.26C1317.27,-71.36 934.14,-83.17 814,-112.5 753.24,-127.34 719.27,-116.43 685,-168.75 680.07,-176.28 681.08,-180.9 685,-189 687.92,-195.04 756.45,-247.53 792,-274.51"/>
<polygon fill="midnightblue" stroke="midnightblue" points="789.79,-277.22 799.87,-280.47 794.01,-271.64 789.79,-277.22"/>
</g>
<!-- Node16 -->
<g id="node12" class="node">
<title>Node16</title>
<g id="a_node12"><a xlink:title=" ">
<polygon fill="white" stroke="#bfbfbf" points="1451.12,-0.5 1451.12,-19.75 1506.88,-19.75 1506.88,-0.5 1451.12,-0.5"/>
<text xml:space="preserve" text-anchor="middle" x="1479" y="-6.25" font-family="Helvetica,sans-Serif" font-size="10.00">algorithm</text>
</a>
</g>
</g>
<!-- Node15&#45;&gt;Node16 -->
<g id="edge11" class="edge">
<title>Node15&#45;&gt;Node16</title>
<path fill="none" stroke="midnightblue" d="M1479,-56.42C1479,-49.62 1479,-40.01 1479,-31.4"/>
<polygon fill="midnightblue" stroke="midnightblue" points="1482.5,-31.43 1479,-21.43 1475.5,-31.43 1482.5,-31.43"/>
</g>
<!-- Node19 -->
<g id="node15" class="node">
<title>Node19</title>
<g id="a_node15"><a xlink:href="_hash_collection_8hpp.html" target="_top" xlink:title=" ">
<polygon fill="white" stroke="red" points="823.25,-113 823.25,-132.25 924.75,-132.25 924.75,-113 823.25,-113"/>
<text xml:space="preserve" text-anchor="middle" x="874" y="-118.75" font-family="Helvetica,sans-Serif" font-size="10.00">HashCollection.hpp</text>
</a>
</g>
</g>
<!-- Node18&#45;&gt;Node19 -->
<g id="edge15" class="edge">
<title>Node18&#45;&gt;Node19</title>
<path fill="none" stroke="midnightblue" d="M924.21,-225.02C953.32,-214.02 992.34,-193.85 976,-168.75 965.98,-153.36 949.39,-143.18 932.47,-136.47"/>
<polygon fill="midnightblue" stroke="midnightblue" points="933.97,-133.28 923.38,-133.22 931.62,-139.88 933.97,-133.28"/>
</g>
<!-- Node31 -->
<g id="node17" class="node">
<title>Node31</title>
<g id="a_node17"><a xlink:href="_memory_8hpp.html" target="_top" xlink:title=" ">
<polygon fill="white" stroke="black" points="207.75,-113 207.75,-132.25 276.25,-132.25 276.25,-113 207.75,-113"/>
<text xml:space="preserve" text-anchor="middle" x="242" y="-118.75" font-family="Helvetica,sans-Serif" font-size="10.00">Memory.hpp</text>
</a>
</g>
</g>
<!-- Node30&#45;&gt;Node31 -->
<g id="edge17" class="edge">
<title>Node30&#45;&gt;Node31</title>
<path fill="none" stroke="midnightblue" d="M279.68,-230.33C251.93,-225.4 218.7,-214.21 201,-189 189.54,-172.69 205.26,-153.25 220.43,-139.83"/>
<polygon fill="midnightblue" stroke="midnightblue" points="222.42,-142.72 227.92,-133.66 217.97,-137.32 222.42,-142.72"/>
</g>
<!-- Node32 -->
<g id="node18" class="node">
<title>Node32</title>
<g id="a_node18"><a xlink:href="_memory_stack_8hpp.html" target="_top" xlink:title=" ">
<polygon fill="white" stroke="black" points="1023.25,-169.25 1023.25,-188.5 1118.75,-188.5 1118.75,-169.25 1023.25,-169.25"/>
<text xml:space="preserve" text-anchor="middle" x="1071" y="-175" font-family="Helvetica,sans-Serif" font-size="10.00">MemoryStack.hpp</text>
</a>
</g>
</g>
<!-- Node30&#45;&gt;Node32 -->
<g id="edge18" class="edge">
<title>Node30&#45;&gt;Node32</title>
<path fill="none" stroke="midnightblue" d="M372.23,-231.08C500.36,-222.6 858.33,-198.73 976,-189 987.64,-188.04 1000.07,-186.91 1011.97,-185.79"/>
<polygon fill="midnightblue" stroke="midnightblue" points="1012.05,-189.3 1021.67,-184.86 1011.39,-182.33 1012.05,-189.3"/>
</g>
<!-- Node33 -->
<g id="node19" class="node">
<title>Node33</title>
<g id="a_node19"><a xlink:title=" ">
<polygon fill="white" stroke="#bfbfbf" points="206.25,-56.75 206.25,-76 307.75,-76 307.75,-56.75 206.25,-56.75"/>
<text xml:space="preserve" text-anchor="middle" x="257" y="-62.5" font-family="Helvetica,sans-Serif" font-size="10.00">SysSemaphore.hpp</text>
</a>
</g>
</g>
<!-- Node30&#45;&gt;Node33 -->
<g id="edge20" class="edge">
<title>Node30&#45;&gt;Node33</title>
<path fill="none" stroke="midnightblue" d="M279.77,-231.63C249.72,-227.33 212.6,-216.35 193,-189 184.27,-176.83 183.58,-140.2 199,-112.5 205.96,-100 217.95,-89.79 229.23,-82.26"/>
<polygon fill="midnightblue" stroke="midnightblue" points="230.86,-85.38 237.53,-77.15 227.18,-79.42 230.86,-85.38"/>
</g>
<!-- Node34 -->
<g id="node20" class="node">
<title>Node34</title>
<g id="a_node20"><a xlink:href="_identity_table_class_8hpp.html" target="_top" xlink:title=" ">
<polygon fill="white" stroke="black" points="694.12,-169.25 694.12,-188.5 809.88,-188.5 809.88,-169.25 694.12,-169.25"/>
<text xml:space="preserve" text-anchor="middle" x="752" y="-175" font-family="Helvetica,sans-Serif" font-size="10.00">IdentityTableClass.hpp</text>
</a>
</g>
</g>
<!-- Node30&#45;&gt;Node34 -->
<g id="edge21" class="edge">
<title>Node30&#45;&gt;Node34</title>
<path fill="none" stroke="midnightblue" d="M371.99,-228.27C446.71,-218.75 594.89,-199.88 682.51,-188.72"/>
<polygon fill="midnightblue" stroke="midnightblue" points="682.69,-192.23 692.17,-187.49 681.81,-185.29 682.69,-192.23"/>
</g>
<!-- Node35 -->
<g id="node21" class="node">
<title>Node35</title>
<g id="a_node21"><a xlink:href="_queue_class_8hpp.html" target="_top" xlink:title=" ">
<polygon fill="white" stroke="black" points="27.62,-169.25 27.62,-188.5 116.38,-188.5 116.38,-169.25 27.62,-169.25"/>
<text xml:space="preserve" text-anchor="middle" x="72" y="-175" font-family="Helvetica,sans-Serif" font-size="10.00">QueueClass.hpp</text>
</a>
</g>
</g>
<!-- Node30&#45;&gt;Node35 -->
<g id="edge23" class="edge">
<title>Node30&#45;&gt;Node35</title>
<path fill="none" stroke="midnightblue" d="M283.49,-225.04C240.17,-215.79 172.86,-201.42 125.84,-191.37"/>
<polygon fill="midnightblue" stroke="midnightblue" points="126.64,-187.97 116.13,-189.3 125.18,-194.81 126.64,-187.97"/>
</g>
<!-- Node38 -->
<g id="node24" class="node">
<title>Node38</title>
<g id="a_node24"><a xlink:title=" ">
<polygon fill="white" stroke="#bfbfbf" points="210.5,-169.25 210.5,-188.5 253.5,-188.5 253.5,-169.25 210.5,-169.25"/>
<text xml:space="preserve" text-anchor="middle" x="232" y="-175" font-family="Helvetica,sans-Serif" font-size="10.00">vector</text>
</a>
</g>
</g>
<!-- Node30&#45;&gt;Node38 -->
<g id="edge27" class="edge">
<title>Node30&#45;&gt;Node38</title>
<path fill="none" stroke="midnightblue" d="M310.48,-225.17C296.05,-216.84 274.31,-204.29 257.37,-194.52"/>
<polygon fill="midnightblue" stroke="midnightblue" points="259.27,-191.57 248.86,-189.6 255.77,-197.63 259.27,-191.57"/>
</g>
<!-- Node39 -->
<g id="node25" class="node">
<title>Node39</title>
<g id="a_node25"><a xlink:href="_memory_stats_8hpp.html" target="_top" xlink:title=" ">
<polygon fill="white" stroke="black" points="491.38,-169.25 491.38,-188.5 584.62,-188.5 584.62,-169.25 491.38,-169.25"/>
<text xml:space="preserve" text-anchor="middle" x="538" y="-175" font-family="Helvetica,sans-Serif" font-size="10.00">MemoryStats.hpp</text>
</a>
</g>
</g>
<!-- Node30&#45;&gt;Node39 -->
<g id="edge28" class="edge">
<title>Node30&#45;&gt;Node39</title>
<path fill="none" stroke="midnightblue" d="M361.48,-225.04C397.1,-215.93 452.16,-201.84 491.31,-191.82"/>
<polygon fill="midnightblue" stroke="midnightblue" points="492.11,-195.23 500.93,-189.36 490.38,-188.45 492.11,-195.23"/>
</g>
<!-- Node40 -->
<g id="node26" class="node">
<title>Node40</title>
<g id="a_node26"><a xlink:href="_memory_segment_8hpp.html" target="_top" xlink:title=" ">
<polygon fill="white" stroke="red" points="271.5,-169.25 271.5,-188.5 380.5,-188.5 380.5,-169.25 271.5,-169.25"/>
<text xml:space="preserve" text-anchor="middle" x="326" y="-175" font-family="Helvetica,sans-Serif" font-size="10.00">MemorySegment.hpp</text>
</a>
</g>
</g>
<!-- Node30&#45;&gt;Node40 -->
<g id="edge30" class="edge">
<title>Node30&#45;&gt;Node40</title>
<path fill="none" stroke="midnightblue" d="M326,-225.17C326,-218.37 326,-208.76 326,-200.15"/>
<polygon fill="midnightblue" stroke="midnightblue" points="329.5,-200.18 326,-190.18 322.5,-200.18 329.5,-200.18"/>
</g>
<!-- Node32&#45;&gt;Node14 -->
<g id="edge19" class="edge">
<title>Node32&#45;&gt;Node14</title>
<path fill="none" stroke="midnightblue" d="M1099.12,-168.79C1127.9,-159.5 1172.71,-145.03 1203.83,-134.98"/>
<polygon fill="midnightblue" stroke="midnightblue" points="1204.73,-138.37 1213.17,-131.96 1202.58,-131.71 1204.73,-138.37"/>
</g>
<!-- Node34&#45;&gt;Node19 -->
<g id="edge22" class="edge">
<title>Node34&#45;&gt;Node19</title>
<path fill="none" stroke="midnightblue" d="M772.42,-168.79C791.77,-160.19 821.1,-147.15 843.28,-137.29"/>
<polygon fill="midnightblue" stroke="midnightblue" points="844.42,-140.61 852.13,-133.35 841.57,-134.21 844.42,-140.61"/>
</g>
<!-- Node35&#45;&gt;Node36 -->
<g id="edge24" class="edge">
<title>Node35&#45;&gt;Node36</title>
<path fill="none" stroke="midnightblue" d="M72,-168.92C72,-162.12 72,-152.51 72,-143.9"/>
<polygon fill="midnightblue" stroke="midnightblue" points="75.5,-143.93 72,-133.93 68.5,-143.93 75.5,-143.93"/>
</g>
<!-- Node36&#45;&gt;Node15 -->
<g id="edge26" class="edge">
<title>Node36&#45;&gt;Node15</title>
<path fill="none" stroke="midnightblue" d="M114.02,-118.22C138.75,-116.31 170.64,-114.02 199,-112.5 677.37,-86.89 1257.11,-72.43 1428.81,-68.49"/>
<polygon fill="midnightblue" stroke="midnightblue" points="1428.8,-71.99 1438.72,-68.26 1428.64,-64.99 1428.8,-71.99"/>
</g>
<!-- Node37 -->
<g id="node23" class="node">
<title>Node37</title>
<g id="a_node23"><a xlink:href="_number_array_8hpp.html" target="_top" xlink:title=" ">
<polygon fill="white" stroke="black" points="26.5,-56.75 26.5,-76 117.5,-76 117.5,-56.75 26.5,-56.75"/>
<text xml:space="preserve" text-anchor="middle" x="72" y="-62.5" font-family="Helvetica,sans-Serif" font-size="10.00">NumberArray.hpp</text>
</a>
</g>
</g>
<!-- Node36&#45;&gt;Node37 -->
<g id="edge25" class="edge">
<title>Node36&#45;&gt;Node37</title>
<path fill="none" stroke="midnightblue" d="M72,-112.67C72,-105.87 72,-96.26 72,-87.65"/>
<polygon fill="midnightblue" stroke="midnightblue" points="75.5,-87.68 72,-77.68 68.5,-87.68 75.5,-87.68"/>
</g>
<!-- Node39&#45;&gt;Node11 -->
<g id="edge29" class="edge">
<title>Node39&#45;&gt;Node11</title>
<path fill="none" stroke="midnightblue" d="M542.13,-168.92C545.4,-161.81 550.1,-151.62 554.21,-142.7"/>
<polygon fill="midnightblue" stroke="midnightblue" points="557.31,-144.34 558.32,-133.79 550.95,-141.41 557.31,-144.34"/>
</g>
<!-- Node40&#45;&gt;Node31 -->
<g id="edge34" class="edge">
<title>Node40&#45;&gt;Node31</title>
<path fill="none" stroke="midnightblue" d="M312.13,-168.92C299.48,-160.75 280.54,-148.52 265.53,-138.82"/>
<polygon fill="midnightblue" stroke="midnightblue" points="267.46,-135.9 257.16,-133.42 263.66,-141.78 267.46,-135.9"/>
</g>
<!-- Node40&#45;&gt;Node43 -->
<g id="edge31" class="edge">
<title>Node40&#45;&gt;Node43</title>
<path fill="none" stroke="midnightblue" d="M332.94,-168.92C338.68,-161.49 347.04,-150.7 354.15,-141.52"/>
<polygon fill="midnightblue" stroke="midnightblue" points="356.91,-143.66 360.27,-133.61 351.38,-139.38 356.91,-143.66"/>
</g>
<!-- Node43&#45;&gt;Node2 -->
<g id="edge32" class="edge">
<title>Node43&#45;&gt;Node2</title>
<path fill="none" stroke="midnightblue" d="M381.42,-132.47C393.36,-140.81 410.78,-154.18 423,-168.75 448.06,-198.63 433.68,-223.42 466,-245.25 514.15,-277.77 684.1,-286.89 766.93,-289.42"/>
<polygon fill="midnightblue" stroke="midnightblue" points="766.65,-292.91 776.75,-289.7 766.85,-285.91 766.65,-292.91"/>
</g>
<!-- Node43&#45;&gt;Node33 -->
<g id="edge33" class="edge">
<title>Node43&#45;&gt;Node33</title>
<path fill="none" stroke="midnightblue" d="M349.42,-112.54C332.05,-104.06 305.86,-91.25 285.78,-81.44"/>
<polygon fill="midnightblue" stroke="midnightblue" points="287.52,-78.4 277,-77.15 284.45,-84.69 287.52,-78.4"/>
</g>
<!-- Node24 -->
<g id="node29" class="node">
<title>Node24</title>
<g id="a_node29"><a xlink:href="_flag_set_8hpp.html" target="_top" xlink:title=" ">
<polygon fill="white" stroke="red" points="1292.75,-169.25 1292.75,-188.5 1361.25,-188.5 1361.25,-169.25 1292.75,-169.25"/>
<text xml:space="preserve" text-anchor="middle" x="1327" y="-175" font-family="Helvetica,sans-Serif" font-size="10.00">FlagSet.hpp</text>
</a>
</g>
</g>
<!-- Node44&#45;&gt;Node24 -->
<g id="edge36" class="edge">
<title>Node44&#45;&gt;Node24</title>
<path fill="none" stroke="midnightblue" d="M1056.64,-226.2C1120.02,-216.25 1226.1,-199.4 1281.32,-189.41"/>
<polygon fill="midnightblue" stroke="midnightblue" points="1281.61,-192.92 1290.81,-187.66 1280.34,-186.03 1281.61,-192.92"/>
</g>
<!-- Node45 -->
<g id="node30" class="node">
<title>Node45</title>
<g id="a_node30"><a xlink:href="_primitive_behaviour_names_8h.html" target="_top" xlink:title=" ">
<polygon fill="white" stroke="black" points="1137.25,-169.25 1137.25,-188.5 1274.75,-188.5 1274.75,-169.25 1137.25,-169.25"/>
<text xml:space="preserve" text-anchor="middle" x="1206" y="-175" font-family="Helvetica,sans-Serif" font-size="10.00">PrimitiveBehaviourNames.h</text>
</a>
</g>
</g>
<!-- Node44&#45;&gt;Node45 -->
<g id="edge37" class="edge">
<title>Node44&#45;&gt;Node45</title>
<path fill="none" stroke="midnightblue" d="M1039.48,-225.04C1072.93,-215.97 1124.57,-201.96 1161.47,-191.95"/>
<polygon fill="midnightblue" stroke="midnightblue" points="1162.22,-195.38 1170.95,-189.38 1160.39,-188.62 1162.22,-195.38"/>
</g>
<!-- Node23&#45;&gt;Node24 -->
<g id="edge39" class="edge">
<title>Node23&#45;&gt;Node24</title>
<path fill="none" stroke="midnightblue" d="M1152.15,-225.04C1187.64,-215.88 1242.63,-201.67 1281.45,-191.64"/>
<polygon fill="midnightblue" stroke="midnightblue" points="1282.16,-195.07 1290.97,-189.18 1280.41,-188.3 1282.16,-195.07"/>
</g>
<!-- Node47&#45;&gt;Node12 -->
<g id="edge42" class="edge">
<title>Node47&#45;&gt;Node12</title>
<path fill="none" stroke="midnightblue" d="M1609.47,-450.17C1622.87,-421.92 1659.38,-333.43 1619,-281.25 1604.52,-262.54 1546.14,-250.16 1500.95,-243.18"/>
<polygon fill="midnightblue" stroke="midnightblue" points="1501.68,-239.75 1491.27,-241.74 1500.65,-246.67 1501.68,-239.75"/>
</g>
<!-- Node50 -->
<g id="node36" class="node">
<title>Node50</title>
<g id="a_node36"><a xlink:href="_activity_manager_8hpp.html" target="_top" xlink:title=" ">
<polygon fill="white" stroke="black" points="1672.75,-450.5 1672.75,-469.75 1777.25,-469.75 1777.25,-450.5 1672.75,-450.5"/>
<text xml:space="preserve" text-anchor="middle" x="1725" y="-456.25" font-family="Helvetica,sans-Serif" font-size="10.00">ActivityManager.hpp</text>
</a>
</g>
</g>
<!-- Node49&#45;&gt;Node50 -->
<g id="edge46" class="edge">
<title>Node49&#45;&gt;Node50</title>
<path fill="none" stroke="midnightblue" d="M1716.65,-506.42C1717.92,-499.54 1719.72,-489.79 1721.32,-481.1"/>
<polygon fill="midnightblue" stroke="midnightblue" points="1724.73,-481.87 1723.11,-471.41 1717.85,-480.6 1724.73,-481.87"/>
</g>
<!-- Node50&#45;&gt;Node17 -->
<g id="edge62" class="edge">
<title>Node50&#45;&gt;Node17</title>
<path fill="none" stroke="midnightblue" d="M1717.83,-450.32C1711.06,-441.59 1701.04,-427.58 1695,-414 1686.15,-394.13 1652.27,-252.82 1639.71,-199.86"/>
<polygon fill="midnightblue" stroke="midnightblue" points="1643.19,-199.33 1637.48,-190.4 1636.37,-200.94 1643.19,-199.33"/>
</g>
<!-- Node51 -->
<g id="node37" class="node">
<title>Node51</title>
<g id="a_node37"><a xlink:href="_activity_8hpp.html" target="_top" xlink:title=" ">
<polygon fill="white" stroke="red" points="1538.88,-394.25 1538.88,-413.5 1605.12,-413.5 1605.12,-394.25 1538.88,-394.25"/>
<text xml:space="preserve" text-anchor="middle" x="1572" y="-400" font-family="Helvetica,sans-Serif" font-size="10.00">Activity.hpp</text>
</a>
</g>
</g>
<!-- Node50&#45;&gt;Node51 -->
<g id="edge47" class="edge">
<title>Node50&#45;&gt;Node51</title>
<path fill="none" stroke="midnightblue" d="M1699.39,-450.04C1674.46,-441.2 1636.32,-427.68 1608.28,-417.74"/>
<polygon fill="midnightblue" stroke="midnightblue" points="1609.71,-414.53 1599.12,-414.49 1607.37,-421.13 1609.71,-414.53"/>
</g>
<!-- Node70 -->
<g id="node41" class="node">
<title>Node70</title>
<g id="a_node41"><a xlink:href="_activation_settings_8hpp.html" target="_top" xlink:title=" ">
<polygon fill="white" stroke="red" points="1333.88,-338 1333.88,-357.25 1448.12,-357.25 1448.12,-338 1333.88,-338"/>
<text xml:space="preserve" text-anchor="middle" x="1391" y="-343.75" font-family="Helvetica,sans-Serif" font-size="10.00">ActivationSettings.hpp</text>
</a>
</g>
</g>
<!-- Node50&#45;&gt;Node70 -->
<g id="edge53" class="edge">
<title>Node50&#45;&gt;Node70</title>
<path fill="none" stroke="midnightblue" d="M1672.42,-450.1C1632.68,-442.53 1577.12,-430.32 1530,-414 1489.29,-399.9 1444.61,-377.56 1417.17,-362.99"/>
<polygon fill="midnightblue" stroke="midnightblue" points="1419.01,-360.01 1408.55,-358.36 1415.7,-366.18 1419.01,-360.01"/>
</g>
<!-- Node74 -->
<g id="node44" class="node">
<title>Node74</title>
<g id="a_node44"><a xlink:title=" ">
<polygon fill="white" stroke="#bfbfbf" points="1703.88,-394.25 1703.88,-413.5 1746.12,-413.5 1746.12,-394.25 1703.88,-394.25"/>
<text xml:space="preserve" text-anchor="middle" x="1725" y="-400" font-family="Helvetica,sans-Serif" font-size="10.00">deque</text>
</a>
</g>
</g>
<!-- Node50&#45;&gt;Node74 -->
<g id="edge59" class="edge">
<title>Node50&#45;&gt;Node74</title>
<path fill="none" stroke="midnightblue" d="M1725,-450.17C1725,-443.37 1725,-433.76 1725,-425.15"/>
<polygon fill="midnightblue" stroke="midnightblue" points="1728.5,-425.18 1725,-415.18 1721.5,-425.18 1728.5,-425.18"/>
</g>
<!-- Node75 -->
<g id="node45" class="node">
<title>Node75</title>
<g id="a_node45"><a xlink:href="_global_names_8hpp.html" target="_top" xlink:title=" ">
<polygon fill="white" stroke="red" points="1764,-394.25 1764,-413.5 1858,-413.5 1858,-394.25 1764,-394.25"/>
<text xml:space="preserve" text-anchor="middle" x="1811" y="-400" font-family="Helvetica,sans-Serif" font-size="10.00">GlobalNames.hpp</text>
</a>
</g>
</g>
<!-- Node50&#45;&gt;Node75 -->
<g id="edge60" class="edge">
<title>Node50&#45;&gt;Node75</title>
<path fill="none" stroke="midnightblue" d="M1739.2,-450.17C1752.27,-441.92 1771.91,-429.53 1787.35,-419.79"/>
<polygon fill="midnightblue" stroke="midnightblue" points="1788.91,-422.95 1795.5,-414.65 1785.17,-417.03 1788.91,-422.95"/>
</g>
<!-- Node50&#45;&gt;Node77 -->
<g id="edge61" class="edge">
<title>Node50&#45;&gt;Node77</title>
<path fill="none" stroke="midnightblue" d="M1759.65,-450.04C1794.43,-440.93 1848.19,-426.84 1886.41,-416.82"/>
<polygon fill="midnightblue" stroke="midnightblue" points="1886.99,-420.29 1895.78,-414.37 1885.22,-413.52 1886.99,-420.29"/>
</g>
<!-- Node51&#45;&gt;Node17 -->
<g id="edge52" class="edge">
<title>Node51&#45;&gt;Node17</title>
<path fill="none" stroke="midnightblue" d="M1577.24,-394.01C1587.15,-376.82 1608.56,-337.46 1619,-301.5 1629.06,-266.83 1632.82,-224.74 1634.2,-200.26"/>
<polygon fill="midnightblue" stroke="midnightblue" points="1637.69,-200.58 1634.67,-190.43 1630.7,-200.25 1637.69,-200.58"/>
</g>
<!-- Node52 -->
<g id="node38" class="node">
<title>Node52</title>
<g id="a_node38"><a xlink:href="_list_class_8hpp.html" target="_top" xlink:title=" ">
<polygon fill="white" stroke="red" points="1534,-281.75 1534,-301 1610,-301 1610,-281.75 1534,-281.75"/>
<text xml:space="preserve" text-anchor="middle" x="1572" y="-287.5" font-family="Helvetica,sans-Serif" font-size="10.00">ListClass.hpp</text>
</a>
</g>
</g>
<!-- Node51&#45;&gt;Node52 -->
<g id="edge48" class="edge">
<title>Node51&#45;&gt;Node52</title>
<path fill="none" stroke="midnightblue" d="M1572,-393.83C1572,-376.18 1572,-336.75 1572,-312.58"/>
<polygon fill="midnightblue" stroke="midnightblue" points="1575.5,-312.75 1572,-302.75 1568.5,-312.75 1575.5,-312.75"/>
</g>
<!-- Node61 -->
<g id="node39" class="node">
<title>Node61</title>
<g id="a_node39"><a xlink:href="_source_location_8hpp.html" target="_top" xlink:title=" ">
<polygon fill="white" stroke="black" points="1413.88,-281.75 1413.88,-301 1516.12,-301 1516.12,-281.75 1413.88,-281.75"/>
<text xml:space="preserve" text-anchor="middle" x="1465" y="-287.5" font-family="Helvetica,sans-Serif" font-size="10.00">SourceLocation.hpp</text>
</a>
</g>
</g>
<!-- Node51&#45;&gt;Node61 -->
<g id="edge49" class="edge">
<title>Node51&#45;&gt;Node61</title>
<path fill="none" stroke="midnightblue" d="M1563.24,-393.83C1545.36,-375.37 1504.41,-333.07 1481.42,-309.33"/>
<polygon fill="midnightblue" stroke="midnightblue" points="1484.1,-307.07 1474.63,-302.32 1479.07,-311.94 1484.1,-307.07"/>
</g>
<!-- Node67 -->
<g id="node40" class="node">
<title>Node67</title>
<g id="a_node40"><a xlink:href="_interpreter_instance_8hpp.html" target="_top" xlink:title=" ">
<polygon fill="white" stroke="red" points="1038.75,-338 1038.75,-357.25 1155.25,-357.25 1155.25,-338 1038.75,-338"/>
<text xml:space="preserve" text-anchor="middle" x="1097" y="-343.75" font-family="Helvetica,sans-Serif" font-size="10.00">InterpreterInstance.hpp</text>
</a>
</g>
</g>
<!-- Node51&#45;&gt;Node67 -->
<g id="edge50" class="edge">
<title>Node51&#45;&gt;Node67</title>
<path fill="none" stroke="midnightblue" d="M1538.47,-399.42C1470.6,-392.37 1311.82,-375.6 1166.89,-357.96"/>
<polygon fill="midnightblue" stroke="midnightblue" points="1167.45,-354.5 1157.1,-356.76 1166.6,-361.45 1167.45,-354.5"/>
</g>
<!-- Node67&#45;&gt;Node2 -->
<g id="edge51" class="edge">
<title>Node67&#45;&gt;Node2</title>
<path fill="none" stroke="midnightblue" d="M1049.46,-337.54C996.47,-327.42 911.35,-311.16 858.99,-301.16"/>
<polygon fill="midnightblue" stroke="midnightblue" points="859.66,-297.73 849.18,-299.29 858.35,-304.6 859.66,-297.73"/>
</g>
<!-- Node72 -->
<g id="node42" class="node">
<title>Node72</title>
<g id="a_node42"><a xlink:href="_package_setting_8hpp.html" target="_top" xlink:title=" ">
<polygon fill="white" stroke="black" points="1254.12,-281.75 1254.12,-301 1357.88,-301 1357.88,-281.75 1254.12,-281.75"/>
<text xml:space="preserve" text-anchor="middle" x="1306" y="-287.5" font-family="Helvetica,sans-Serif" font-size="10.00">PackageSetting.hpp</text>
</a>
</g>
</g>
<!-- Node70&#45;&gt;Node72 -->
<g id="edge54" class="edge">
<title>Node70&#45;&gt;Node72</title>
<path fill="none" stroke="midnightblue" d="M1376.96,-337.67C1364.04,-329.42 1344.63,-317.03 1329.37,-307.29"/>
<polygon fill="midnightblue" stroke="midnightblue" points="1331.65,-304.59 1321.33,-302.16 1327.88,-310.49 1331.65,-304.59"/>
</g>
<!-- Node72&#45;&gt;Node15 -->
<g id="edge57" class="edge">
<title>Node72&#45;&gt;Node15</title>
<path fill="none" stroke="midnightblue" d="M1358.21,-281.52C1412,-271.87 1489.23,-256.32 1498,-245.25 1535.07,-198.46 1505.77,-121.67 1488.86,-86.29"/>
<polygon fill="midnightblue" stroke="midnightblue" points="1492.17,-85.1 1484.58,-77.71 1485.91,-88.22 1492.17,-85.1"/>
</g>
<!-- Node72&#45;&gt;Node24 -->
<g id="edge58" class="edge">
<title>Node72&#45;&gt;Node24</title>
<path fill="none" stroke="midnightblue" d="M1298.65,-281.39C1289.2,-268.69 1274.93,-244.84 1283,-225 1287.59,-213.72 1296.51,-203.71 1305.12,-196.01"/>
<polygon fill="midnightblue" stroke="midnightblue" points="1307.14,-198.88 1312.63,-189.82 1302.69,-193.48 1307.14,-198.88"/>
</g>
<!-- Node73 -->
<g id="node43" class="node">
<title>Node73</title>
<g id="a_node43"><a xlink:href="_trace_setting_8hpp.html" target="_top" xlink:title=" ">
<polygon fill="white" stroke="black" points="1291.88,-225.5 1291.88,-244.75 1382.12,-244.75 1382.12,-225.5 1291.88,-225.5"/>
<text xml:space="preserve" text-anchor="middle" x="1337" y="-231.25" font-family="Helvetica,sans-Serif" font-size="10.00">TraceSetting.hpp</text>
</a>
</g>
</g>
<!-- Node72&#45;&gt;Node73 -->
<g id="edge55" class="edge">
<title>Node72&#45;&gt;Node73</title>
<path fill="none" stroke="midnightblue" d="M1311.12,-281.42C1315.23,-274.23 1321.14,-263.89 1326.27,-254.9"/>
<polygon fill="midnightblue" stroke="midnightblue" points="1329.3,-256.65 1331.23,-246.23 1323.23,-253.18 1329.3,-256.65"/>
</g>
<!-- Node73&#45;&gt;Node24 -->
<g id="edge56" class="edge">
<title>Node73&#45;&gt;Node24</title>
<path fill="none" stroke="midnightblue" d="M1335.35,-225.17C1334.08,-218.29 1332.28,-208.54 1330.68,-199.85"/>
<polygon fill="midnightblue" stroke="midnightblue" points="1334.15,-199.35 1328.89,-190.16 1327.27,-200.62 1334.15,-199.35"/>
</g>
<!-- Node79&#45;&gt;Node61 -->
<g id="edge71" class="edge">
<title>Node79&#45;&gt;Node61</title>
<path fill="none" stroke="midnightblue" d="M1315.51,-397.59C1365.66,-391.15 1438.42,-378.5 1457,-357.75 1467.86,-345.63 1469.11,-326.78 1468.09,-312.43"/>
<polygon fill="midnightblue" stroke="midnightblue" points="1471.6,-312.29 1466.96,-302.76 1464.65,-313.1 1471.6,-312.29"/>
</g>
<!-- Node79&#45;&gt;Node67 -->
<g id="edge79" class="edge">
<title>Node79&#45;&gt;Node67</title>
<path fill="none" stroke="midnightblue" d="M1237.71,-393.79C1209.93,-384.88 1167.31,-371.19 1136.25,-361.22"/>
<polygon fill="midnightblue" stroke="midnightblue" points="1137.41,-357.92 1126.82,-358.2 1135.27,-364.59 1137.41,-357.92"/>
</g>
<!-- Node79&#45;&gt;Node72 -->
<g id="edge70" class="edge">
<title>Node79&#45;&gt;Node72</title>
<path fill="none" stroke="midnightblue" d="M1270.59,-394.06C1275.15,-385.08 1282.14,-370.69 1287,-357.75 1292.6,-342.82 1297.58,-325.48 1301.03,-312.4"/>
<polygon fill="midnightblue" stroke="midnightblue" points="1304.38,-313.42 1303.47,-302.86 1297.6,-311.69 1304.38,-313.42"/>
</g>
<!-- Node80 -->
<g id="node49" class="node">
<title>Node80</title>
<g id="a_node49"><a xlink:href="_security_manager_8hpp.html" target="_top" xlink:title=" ">
<polygon fill="white" stroke="black" points="893.25,-338 893.25,-357.25 1000.75,-357.25 1000.75,-338 893.25,-338"/>
<text xml:space="preserve" text-anchor="middle" x="947" y="-343.75" font-family="Helvetica,sans-Serif" font-size="10.00">SecurityManager.hpp</text>
</a>
</g>
</g>
<!-- Node79&#45;&gt;Node80 -->
<g id="edge68" class="edge">
<title>Node79&#45;&gt;Node80</title>
<path fill="none" stroke="midnightblue" d="M1216.51,-394.46C1161.51,-385.11 1072.5,-369.97 1011.94,-359.67"/>
<polygon fill="midnightblue" stroke="midnightblue" points="1012.55,-356.22 1002.1,-358 1011.37,-363.12 1012.55,-356.22"/>
</g>
<!-- Node81 -->
<g id="node50" class="node">
<title>Node81</title>
<g id="a_node50"><a xlink:href="_language_parser_8hpp.html" target="_top" xlink:title=" ">
<polygon fill="white" stroke="red" points="1173.75,-338 1173.75,-357.25 1278.25,-357.25 1278.25,-338 1173.75,-338"/>
<text xml:space="preserve" text-anchor="middle" x="1226" y="-343.75" font-family="Helvetica,sans-Serif" font-size="10.00">LanguageParser.hpp</text>
</a>
</g>
</g>
<!-- Node79&#45;&gt;Node81 -->
<g id="edge72" class="edge">
<title>Node79&#45;&gt;Node81</title>
<path fill="none" stroke="midnightblue" d="M1259.39,-393.92C1253.92,-386.49 1245.97,-375.7 1239.19,-366.52"/>
<polygon fill="midnightblue" stroke="midnightblue" points="1242.13,-364.61 1233.38,-358.63 1236.5,-368.76 1242.13,-364.61"/>
</g>
<!-- Node80&#45;&gt;Node2 -->
<g id="edge69" class="edge">
<title>Node80&#45;&gt;Node2</title>
<path fill="none" stroke="midnightblue" d="M924.57,-337.54C903.12,-328.86 870.52,-315.66 846.08,-305.77"/>
<polygon fill="midnightblue" stroke="midnightblue" points="847.49,-302.56 836.9,-302.05 844.86,-309.05 847.49,-302.56"/>
</g>
<!-- Node81&#45;&gt;Node17 -->
<g id="edge78" class="edge">
<title>Node81&#45;&gt;Node17</title>
<path fill="none" stroke="midnightblue" d="M1260.24,-337.54C1289.18,-329.42 1331.49,-316.5 1367,-301.5 1384.63,-294.05 1387.26,-288.42 1405,-281.25 1459,-259.43 1477.81,-268.98 1531,-245.25 1561.49,-231.64 1593.58,-210.23 1613.91,-195.65"/>
<polygon fill="midnightblue" stroke="midnightblue" points="1615.91,-198.52 1621.92,-189.8 1611.78,-192.87 1615.91,-198.52"/>
</g>
<!-- Node81&#45;&gt;Node32 -->
<g id="edge77" class="edge">
<title>Node81&#45;&gt;Node32</title>
<path fill="none" stroke="midnightblue" d="M1224.08,-337.76C1218.91,-315.85 1202.75,-258.52 1169,-225 1154.29,-210.39 1133.99,-199.98 1115.68,-192.87"/>
<polygon fill="midnightblue" stroke="midnightblue" points="1116.91,-189.59 1106.31,-189.47 1114.52,-196.17 1116.91,-189.59"/>
</g>
<!-- Node81&#45;&gt;Node35 -->
<g id="edge76" class="edge">
<title>Node81&#45;&gt;Node35</title>
<path fill="none" stroke="midnightblue" d="M1173.26,-338.66C1170.13,-338.25 1167.02,-337.86 1164,-337.5 767.8,-290.28 660.83,-330.31 271,-245.25 211.34,-232.23 144.32,-208.16 105.27,-193.14"/>
<polygon fill="midnightblue" stroke="midnightblue" points="106.56,-189.89 95.97,-189.53 104.02,-196.41 106.56,-189.89"/>
</g>
<!-- Node81&#45;&gt;Node24 -->
<g id="edge73" class="edge">
<title>Node81&#45;&gt;Node24</title>
<path fill="none" stroke="midnightblue" d="M1227.93,-337.51C1230.82,-324.66 1236.81,-300.63 1245,-281.25 1256.2,-254.76 1258.98,-247.42 1277,-225 1285.46,-214.47 1296.46,-204.26 1305.99,-196.22"/>
<polygon fill="midnightblue" stroke="midnightblue" points="1308.17,-198.96 1313.71,-189.93 1303.75,-193.53 1308.17,-198.96"/>
</g>
<!-- Node81&#45;&gt;Node52 -->
<g id="edge75" class="edge">
<title>Node81&#45;&gt;Node52</title>
<path fill="none" stroke="midnightblue" d="M1278.5,-339.38C1335.96,-331.3 1431.07,-317.49 1522.43,-301.89"/>
<polygon fill="midnightblue" stroke="midnightblue" points="1522.8,-305.38 1532.06,-300.23 1521.61,-298.48 1522.8,-305.38"/>
</g>
<!-- Node81&#45;&gt;Node61 -->
<g id="edge74" class="edge">
<title>Node81&#45;&gt;Node61</title>
<path fill="none" stroke="midnightblue" d="M1266,-337.54C1306.59,-328.33 1369.56,-314.04 1413.77,-304"/>
<polygon fill="midnightblue" stroke="midnightblue" points="1414.41,-307.45 1423.39,-301.82 1412.86,-300.62 1414.41,-307.45"/>
</g>
</g>
</svg>
