<?xml version="1.0" encoding="UTF-8" standalone="no"?>
<!DOCTYPE svg PUBLIC "-//W3C//DTD SVG 1.1//EN"
 "http://www.w3.org/Graphics/SVG/1.1/DTD/svg11.dtd">
<!-- Generated by graphviz version 13.1.0 (20250701.0955)
 -->
<!-- Title: RexxUtilCommon.hpp Pages: 1 -->
<svg width="441pt" height="253pt"
 viewBox="0.00 0.00 441.00 253.00" xmlns="http://www.w3.org/2000/svg" xmlns:xlink="http://www.w3.org/1999/xlink">
<g id="graph0" class="graph" transform="scale(1 1) rotate(0) translate(4 249.25)">
<title>RexxUtilCommon.hpp</title>
<polygon fill="white" stroke="none" points="-4,4 -4,-249.25 436.88,-249.25 436.88,4 -4,4"/>
<!-- Node1 -->
<g id="node1" class="node">
<title>Node1</title>
<g id="a_node1"><a xlink:title=" ">
<polygon fill="#bfbfbf" stroke="black" points="113.38,-225.5 113.38,-244.75 226.12,-244.75 226.12,-225.5 113.38,-225.5"/>
<text xml:space="preserve" text-anchor="middle" x="169.75" y="-231.25" font-family="Helvetica,sans-Serif" font-size="10.00">RexxUtilCommon.hpp</text>
</a>
</g>
</g>
<!-- Node2 -->
<g id="node2" class="node">
<title>Node2</title>
<g id="a_node2"><a xlink:title=" ">
<polygon fill="white" stroke="#bfbfbf" points="0,-56.75 0,-76 101.5,-76 101.5,-56.75 0,-56.75"/>
<text xml:space="preserve" text-anchor="middle" x="50.75" y="-62.5" font-family="Helvetica,sans-Serif" font-size="10.00">SysFileSystem.hpp</text>
</a>
</g>
</g>
<!-- Node1&#45;&gt;Node2 -->
<g id="edge1" class="edge">
<title>Node1&#45;&gt;Node2</title>
<path fill="none" stroke="midnightblue" d="M152.85,-225C138.83,-216.86 118.95,-203.93 104.75,-189 84.46,-167.66 81.75,-159.64 69.75,-132.75 63.18,-118.03 58.22,-100.43 55.01,-87.21"/>
<polygon fill="midnightblue" stroke="midnightblue" points="58.45,-86.55 52.82,-77.58 51.63,-88.11 58.45,-86.55"/>
</g>
<!-- Node3 -->
<g id="node3" class="node">
<title>Node3</title>
<g id="a_node3"><a xlink:href="_external_file_buffer_8hpp.html" target="_top" xlink:title=" ">
<polygon fill="white" stroke="black" points="113.75,-169.25 113.75,-188.5 225.75,-188.5 225.75,-169.25 113.75,-169.25"/>
<text xml:space="preserve" text-anchor="middle" x="169.75" y="-175" font-family="Helvetica,sans-Serif" font-size="10.00">ExternalFileBuffer.hpp</text>
</a>
</g>
</g>
<!-- Node1&#45;&gt;Node3 -->
<g id="edge2" class="edge">
<title>Node1&#45;&gt;Node3</title>
<path fill="none" stroke="midnightblue" d="M169.75,-225.17C169.75,-218.37 169.75,-208.76 169.75,-200.15"/>
<polygon fill="midnightblue" stroke="midnightblue" points="173.25,-200.18 169.75,-190.18 166.25,-200.18 173.25,-200.18"/>
</g>
<!-- Node13 -->
<g id="node13" class="node">
<title>Node13</title>
<g id="a_node13"><a xlink:href="_flag_set_8hpp.html" target="_top" xlink:title=" ">
<polygon fill="white" stroke="black" points="261.5,-169.25 261.5,-188.5 330,-188.5 330,-169.25 261.5,-169.25"/>
<text xml:space="preserve" text-anchor="middle" x="295.75" y="-175" font-family="Helvetica,sans-Serif" font-size="10.00">FlagSet.hpp</text>
</a>
</g>
</g>
<!-- Node1&#45;&gt;Node13 -->
<g id="edge13" class="edge">
<title>Node1&#45;&gt;Node13</title>
<path fill="none" stroke="midnightblue" d="M190.84,-225.04C210.83,-216.44 241.12,-203.4 264.02,-193.54"/>
<polygon fill="midnightblue" stroke="midnightblue" points="265.4,-196.75 273.2,-189.58 262.63,-190.32 265.4,-196.75"/>
</g>
<!-- Node4 -->
<g id="node4" class="node">
<title>Node4</title>
<g id="a_node4"><a xlink:href="_file_name_buffer_8hpp.html" target="_top" xlink:title=" ">
<polygon fill="white" stroke="black" points="78.62,-113 78.62,-132.25 180.88,-132.25 180.88,-113 78.62,-113"/>
<text xml:space="preserve" text-anchor="middle" x="129.75" y="-118.75" font-family="Helvetica,sans-Serif" font-size="10.00">FileNameBuffer.hpp</text>
</a>
</g>
</g>
<!-- Node3&#45;&gt;Node4 -->
<g id="edge3" class="edge">
<title>Node3&#45;&gt;Node4</title>
<path fill="none" stroke="midnightblue" d="M163.14,-168.92C157.67,-161.49 149.72,-150.7 142.94,-141.52"/>
<polygon fill="midnightblue" stroke="midnightblue" points="145.88,-139.61 137.13,-133.63 140.25,-143.76 145.88,-139.61"/>
</g>
<!-- Node6 -->
<g id="node6" class="node">
<title>Node6</title>
<g id="a_node6"><a xlink:href="oorexxapi_8h.html" target="_top" xlink:title=" ">
<polygon fill="white" stroke="black" points="198.62,-113 198.62,-132.25 264.88,-132.25 264.88,-113 198.62,-113"/>
<text xml:space="preserve" text-anchor="middle" x="231.75" y="-118.75" font-family="Helvetica,sans-Serif" font-size="10.00">oorexxapi.h</text>
</a>
</g>
</g>
<!-- Node3&#45;&gt;Node6 -->
<g id="edge6" class="edge">
<title>Node3&#45;&gt;Node6</title>
<path fill="none" stroke="midnightblue" d="M179.99,-168.92C189.02,-161.02 202.39,-149.31 213.29,-139.78"/>
<polygon fill="midnightblue" stroke="midnightblue" points="215.34,-142.63 220.56,-133.41 210.73,-137.36 215.34,-142.63"/>
</g>
<!-- Node4&#45;&gt;Node2 -->
<g id="edge5" class="edge">
<title>Node4&#45;&gt;Node2</title>
<path fill="none" stroke="midnightblue" d="M116.7,-112.67C104.93,-104.58 87.34,-92.5 73.29,-82.85"/>
<polygon fill="midnightblue" stroke="midnightblue" points="75.29,-79.98 65.06,-77.2 71.32,-85.75 75.29,-79.98"/>
</g>
<!-- Node5 -->
<g id="node5" class="node">
<title>Node5</title>
<g id="a_node5"><a xlink:title=" ">
<polygon fill="white" stroke="#bfbfbf" points="119.12,-56.75 119.12,-76 164.38,-76 164.38,-56.75 119.12,-56.75"/>
<text xml:space="preserve" text-anchor="middle" x="141.75" y="-62.5" font-family="Helvetica,sans-Serif" font-size="10.00">cstring</text>
</a>
</g>
</g>
<!-- Node4&#45;&gt;Node5 -->
<g id="edge4" class="edge">
<title>Node4&#45;&gt;Node5</title>
<path fill="none" stroke="midnightblue" d="M131.73,-112.67C133.25,-105.79 135.41,-96.04 137.33,-87.35"/>
<polygon fill="midnightblue" stroke="midnightblue" points="140.74,-88.16 139.48,-77.64 133.9,-86.65 140.74,-88.16"/>
</g>
<!-- Node7 -->
<g id="node7" class="node">
<title>Node7</title>
<g id="a_node7"><a xlink:href="rexx_8h.html" target="_top" xlink:title=" ">
<polygon fill="white" stroke="black" points="196.25,-56.75 196.25,-76 239.25,-76 239.25,-56.75 196.25,-56.75"/>
<text xml:space="preserve" text-anchor="middle" x="217.75" y="-62.5" font-family="Helvetica,sans-Serif" font-size="10.00">rexx.h</text>
</a>
</g>
</g>
<!-- Node6&#45;&gt;Node7 -->
<g id="edge7" class="edge">
<title>Node6&#45;&gt;Node7</title>
<path fill="none" stroke="midnightblue" d="M229.44,-112.67C227.64,-105.71 225.09,-95.82 222.83,-87.05"/>
<polygon fill="midnightblue" stroke="midnightblue" points="226.28,-86.44 220.4,-77.63 219.51,-88.19 226.28,-86.44"/>
</g>
<!-- Node12 -->
<g id="node12" class="node">
<title>Node12</title>
<g id="a_node12"><a xlink:href="oorexxerrors_8h.html" target="_top" xlink:title=" ">
<polygon fill="white" stroke="black" points="257.62,-56.75 257.62,-76 335.88,-76 335.88,-56.75 257.62,-56.75"/>
<text xml:space="preserve" text-anchor="middle" x="296.75" y="-62.5" font-family="Helvetica,sans-Serif" font-size="10.00">oorexxerrors.h</text>
</a>
</g>
</g>
<!-- Node6&#45;&gt;Node12 -->
<g id="edge12" class="edge">
<title>Node6&#45;&gt;Node12</title>
<path fill="none" stroke="midnightblue" d="M242.48,-112.67C251.95,-104.77 265.97,-93.06 277.39,-83.53"/>
<polygon fill="midnightblue" stroke="midnightblue" points="279.62,-86.23 285.05,-77.14 275.13,-80.86 279.62,-86.23"/>
</g>
<!-- Node8 -->
<g id="node8" class="node">
<title>Node8</title>
<g id="a_node8"><a xlink:title=" ">
<polygon fill="white" stroke="#bfbfbf" points="30.88,-0.5 30.88,-19.75 110.62,-19.75 110.62,-0.5 30.88,-0.5"/>
<text xml:space="preserve" text-anchor="middle" x="70.75" y="-6.25" font-family="Helvetica,sans-Serif" font-size="10.00">rexxapitypes.h</text>
</a>
</g>
</g>
<!-- Node7&#45;&gt;Node8 -->
<g id="edge8" class="edge">
<title>Node7&#45;&gt;Node8</title>
<path fill="none" stroke="midnightblue" d="M196.06,-57.37C172.23,-48.58 133.61,-34.32 105.54,-23.96"/>
<polygon fill="midnightblue" stroke="midnightblue" points="106.99,-20.77 96.4,-20.59 104.57,-27.34 106.99,-20.77"/>
</g>
<!-- Node9 -->
<g id="node9" class="node">
<title>Node9</title>
<g id="a_node9"><a xlink:href="rexxapidefs_8h.html" target="_top" xlink:title=" ">
<polygon fill="white" stroke="black" points="128.5,-0.5 128.5,-19.75 203,-19.75 203,-0.5 128.5,-0.5"/>
<text xml:space="preserve" text-anchor="middle" x="165.75" y="-6.25" font-family="Helvetica,sans-Serif" font-size="10.00">rexxapidefs.h</text>
</a>
</g>
</g>
<!-- Node7&#45;&gt;Node9 -->
<g id="edge9" class="edge">
<title>Node7&#45;&gt;Node9</title>
<path fill="none" stroke="midnightblue" d="M209.16,-56.42C201.82,-48.75 191.04,-37.51 182.06,-28.14"/>
<polygon fill="midnightblue" stroke="midnightblue" points="184.67,-25.81 175.22,-21.01 179.62,-30.65 184.67,-25.81"/>
</g>
<!-- Node10 -->
<g id="node10" class="node">
<title>Node10</title>
<g id="a_node10"><a xlink:title=" ">
<polygon fill="white" stroke="#bfbfbf" points="221.25,-0.5 221.25,-19.75 318.25,-19.75 318.25,-0.5 221.25,-0.5"/>
<text xml:space="preserve" text-anchor="middle" x="269.75" y="-6.25" font-family="Helvetica,sans-Serif" font-size="10.00">rexxplatformdefs.h</text>
</a>
</g>
</g>
<!-- Node7&#45;&gt;Node10 -->
<g id="edge10" class="edge">
<title>Node7&#45;&gt;Node10</title>
<path fill="none" stroke="midnightblue" d="M226.34,-56.42C233.68,-48.75 244.46,-37.51 253.44,-28.14"/>
<polygon fill="midnightblue" stroke="midnightblue" points="255.88,-30.65 260.28,-21.01 250.83,-25.81 255.88,-30.65"/>
</g>
<!-- Node11 -->
<g id="node11" class="node">
<title>Node11</title>
<g id="a_node11"><a xlink:title=" ">
<polygon fill="white" stroke="#bfbfbf" points="336.62,-0.5 336.62,-19.75 432.88,-19.75 432.88,-0.5 336.62,-0.5"/>
<text xml:space="preserve" text-anchor="middle" x="384.75" y="-6.25" font-family="Helvetica,sans-Serif" font-size="10.00">rexxplatformapis.h</text>
</a>
</g>
</g>
<!-- Node7&#45;&gt;Node11 -->
<g id="edge11" class="edge">
<title>Node7&#45;&gt;Node11</title>
<path fill="none" stroke="midnightblue" d="M239.58,-58.28C266.59,-49.51 313.04,-34.42 346.13,-23.67"/>
<polygon fill="midnightblue" stroke="midnightblue" points="346.92,-27.1 355.35,-20.68 344.75,-20.44 346.92,-27.1"/>
</g>
<!-- Node14 -->
<g id="node14" class="node">
<title>Node14</title>
<g id="a_node14"><a xlink:href="_bit_set_8hpp.html" target="_top" xlink:title=" ">
<polygon fill="white" stroke="black" points="282.88,-113 282.88,-132.25 344.62,-132.25 344.62,-113 282.88,-113"/>
<text xml:space="preserve" text-anchor="middle" x="313.75" y="-118.75" font-family="Helvetica,sans-Serif" font-size="10.00">BitSet.hpp</text>
</a>
</g>
</g>
<!-- Node13&#45;&gt;Node14 -->
<g id="edge14" class="edge">
<title>Node13&#45;&gt;Node14</title>
<path fill="none" stroke="midnightblue" d="M298.72,-168.92C301.03,-161.96 304.31,-152.07 307.22,-143.3"/>
<polygon fill="midnightblue" stroke="midnightblue" points="310.53,-144.45 310.36,-133.85 303.89,-142.24 310.53,-144.45"/>
</g>
</g>
</svg>
