<?xml version="1.0" encoding="UTF-8" standalone="no"?>
<!DOCTYPE svg PUBLIC "-//W3C//DTD SVG 1.1//EN"
 "http://www.w3.org/Graphics/SVG/1.1/DTD/svg11.dtd">
<!-- Generated by graphviz version 13.1.0 (20250701.0955)
 -->
<!-- Title: SignalInstruction.hpp Pages: 1 -->
<svg width="383pt" height="85pt"
 viewBox="0.00 0.00 383.00 85.00" xmlns="http://www.w3.org/2000/svg" xmlns:xlink="http://www.w3.org/1999/xlink">
<g id="graph0" class="graph" transform="scale(1 1) rotate(0) translate(4 80.5)">
<title>SignalInstruction.hpp</title>
<polygon fill="white" stroke="none" points="-4,4 -4,-80.5 379.38,-80.5 379.38,4 -4,4"/>
<!-- Node1 -->
<g id="node1" class="node">
<title>Node1</title>
<g id="a_node1"><a xlink:title=" ">
<polygon fill="#bfbfbf" stroke="black" points="126,-56.75 126,-76 233.5,-76 233.5,-56.75 126,-56.75"/>
<text xml:space="preserve" text-anchor="middle" x="179.75" y="-62.5" font-family="Helvetica,sans-Serif" font-size="10.00">SignalInstruction.hpp</text>
</a>
</g>
</g>
<!-- Node2 -->
<g id="node2" class="node">
<title>Node2</title>
<g id="a_node2"><a xlink:href="_signal_instruction_8cpp.html" target="_top" xlink:title=" ">
<polygon fill="white" stroke="black" points="0,-0.5 0,-19.75 107.5,-19.75 107.5,-0.5 0,-0.5"/>
<text xml:space="preserve" text-anchor="middle" x="53.75" y="-6.25" font-family="Helvetica,sans-Serif" font-size="10.00">SignalInstruction.cpp</text>
</a>
</g>
</g>
<!-- Node1&#45;&gt;Node2 -->
<g id="edge1" class="edge">
<title>Node1&#45;&gt;Node2</title>
<path fill="none" stroke="midnightblue" d="M148.1,-51.75C125.21,-41.89 94.92,-28.85 74.91,-20.23"/>
<polygon fill="midnightblue" stroke="midnightblue" points="146.7,-54.96 157.27,-55.7 149.47,-48.53 146.7,-54.96"/>
</g>
<!-- Node3 -->
<g id="node3" class="node">
<title>Node3</title>
<g id="a_node3"><a xlink:href="_instruction_parser_8cpp.html" target="_top" xlink:title=" ">
<polygon fill="white" stroke="black" points="125.62,-0.5 125.62,-19.75 233.88,-19.75 233.88,-0.5 125.62,-0.5"/>
<text xml:space="preserve" text-anchor="middle" x="179.75" y="-6.25" font-family="Helvetica,sans-Serif" font-size="10.00">InstructionParser.cpp</text>
</a>
</g>
</g>
<!-- Node1&#45;&gt;Node3 -->
<g id="edge2" class="edge">
<title>Node1&#45;&gt;Node3</title>
<path fill="none" stroke="midnightblue" d="M179.75,-45.19C179.75,-36.48 179.75,-26.74 179.75,-19.92"/>
<polygon fill="midnightblue" stroke="midnightblue" points="176.25,-44.9 179.75,-54.9 183.25,-44.9 176.25,-44.9"/>
</g>
<!-- Node4 -->
<g id="node4" class="node">
<title>Node4</title>
<g id="a_node4"><a xlink:href="_virtual_function_table_8cpp.html" target="_top" xlink:title=" ">
<polygon fill="white" stroke="black" points="252.12,-0.5 252.12,-19.75 375.38,-19.75 375.38,-0.5 252.12,-0.5"/>
<text xml:space="preserve" text-anchor="middle" x="313.75" y="-6.25" font-family="Helvetica,sans-Serif" font-size="10.00">VirtualFunctionTable.cpp</text>
</a>
</g>
</g>
<!-- Node1&#45;&gt;Node4 -->
<g id="edge3" class="edge">
<title>Node1&#45;&gt;Node4</title>
<path fill="none" stroke="midnightblue" d="M212.75,-52.02C237.16,-42.13 269.77,-28.93 291.25,-20.23"/>
<polygon fill="midnightblue" stroke="midnightblue" points="211.54,-48.73 203.58,-55.73 214.16,-55.22 211.54,-48.73"/>
</g>
</g>
</svg>
