<?xml version="1.0" encoding="UTF-8" standalone="no"?>
<!DOCTYPE svg PUBLIC "-//W3C//DTD SVG 1.1//EN"
 "http://www.w3.org/Graphics/SVG/1.1/DTD/svg11.dtd">
<!-- Generated by graphviz version 13.1.0 (20250701.0955)
 -->
<!-- Title: StackFrameClass.cpp Pages: 1 -->
<svg width="2313pt" height="478pt"
 viewBox="0.00 0.00 2313.00 478.00" xmlns="http://www.w3.org/2000/svg" xmlns:xlink="http://www.w3.org/1999/xlink">
<g id="graph0" class="graph" transform="scale(1 1) rotate(0) translate(4 474.25)">
<title>StackFrameClass.cpp</title>
<polygon fill="white" stroke="none" points="-4,4 -4,-474.25 2308.88,-474.25 2308.88,4 -4,4"/>
<!-- Node1 -->
<g id="node1" class="node">
<title>Node1</title>
<g id="a_node1"><a xlink:title=" ">
<polygon fill="#bfbfbf" stroke="black" points="1524.12,-450.5 1524.12,-469.75 1637.62,-469.75 1637.62,-450.5 1524.12,-450.5"/>
<text xml:space="preserve" text-anchor="middle" x="1580.88" y="-456.25" font-family="Helvetica,sans-Serif" font-size="10.00">StackFrameClass.cpp</text>
</a>
</g>
</g>
<!-- Node2 -->
<g id="node2" class="node">
<title>Node2</title>
<g id="a_node2"><a xlink:href="_rexx_core_8h.html" target="_top" xlink:title=" ">
<polygon fill="white" stroke="black" points="784.62,-281.75 784.62,-301 853.12,-301 853.12,-281.75 784.62,-281.75"/>
<text xml:space="preserve" text-anchor="middle" x="818.88" y="-287.5" font-family="Helvetica,sans-Serif" font-size="10.00">RexxCore.h</text>
</a>
</g>
</g>
<!-- Node1&#45;&gt;Node2 -->
<g id="edge1" class="edge">
<title>Node1&#45;&gt;Node2</title>
<path fill="none" stroke="midnightblue" d="M1539.37,-450.04C1407.81,-421.25 1000.78,-332.18 864.13,-302.28"/>
<polygon fill="midnightblue" stroke="midnightblue" points="865.26,-298.94 854.74,-300.22 863.76,-305.78 865.26,-298.94"/>
</g>
<!-- Node47 -->
<g id="node39" class="node">
<title>Node47</title>
<g id="a_node39"><a xlink:href="_stack_frame_class_8hpp.html" target="_top" xlink:title=" ">
<polygon fill="white" stroke="black" points="1524.12,-394.25 1524.12,-413.5 1637.62,-413.5 1637.62,-394.25 1524.12,-394.25"/>
<text xml:space="preserve" text-anchor="middle" x="1580.88" y="-400" font-family="Helvetica,sans-Serif" font-size="10.00">StackFrameClass.hpp</text>
</a>
</g>
</g>
<!-- Node1&#45;&gt;Node47 -->
<g id="edge49" class="edge">
<title>Node1&#45;&gt;Node47</title>
<path fill="none" stroke="midnightblue" d="M1580.88,-450.17C1580.88,-443.37 1580.88,-433.76 1580.88,-425.15"/>
<polygon fill="midnightblue" stroke="midnightblue" points="1584.38,-425.18 1580.88,-415.18 1577.38,-425.18 1584.38,-425.18"/>
</g>
<!-- Node62 -->
<g id="node45" class="node">
<title>Node62</title>
<g id="a_node45"><a xlink:href="_method_arguments_8hpp.html" target="_top" xlink:title=" ">
<polygon fill="white" stroke="black" points="1762.75,-394.25 1762.75,-413.5 1877,-413.5 1877,-394.25 1762.75,-394.25"/>
<text xml:space="preserve" text-anchor="middle" x="1819.88" y="-400" font-family="Helvetica,sans-Serif" font-size="10.00">MethodArguments.hpp</text>
</a>
</g>
</g>
<!-- Node1&#45;&gt;Node62 -->
<g id="edge58" class="edge">
<title>Node1&#45;&gt;Node62</title>
<path fill="none" stroke="midnightblue" d="M1620.88,-450.04C1661.46,-440.83 1724.44,-426.54 1768.65,-416.5"/>
<polygon fill="midnightblue" stroke="midnightblue" points="1769.29,-419.95 1778.27,-414.32 1767.74,-413.12 1769.29,-419.95"/>
</g>
<!-- Node3 -->
<g id="node3" class="node">
<title>Node3</title>
<g id="a_node3"><a xlink:href="oorexxapi_8h.html" target="_top" xlink:title=" ">
<polygon fill="white" stroke="black" points="202.75,-225.5 202.75,-244.75 269,-244.75 269,-225.5 202.75,-225.5"/>
<text xml:space="preserve" text-anchor="middle" x="235.88" y="-231.25" font-family="Helvetica,sans-Serif" font-size="10.00">oorexxapi.h</text>
</a>
</g>
</g>
<!-- Node2&#45;&gt;Node3 -->
<g id="edge2" class="edge">
<title>Node2&#45;&gt;Node3</title>
<path fill="none" stroke="midnightblue" d="M784.2,-289.06C699.74,-285.51 476.51,-274.12 280.65,-245.48"/>
<polygon fill="midnightblue" stroke="midnightblue" points="281.18,-242.02 270.77,-244.02 280.15,-248.95 281.18,-242.02"/>
</g>
<!-- Node10 -->
<g id="node10" class="node">
<title>Node10</title>
<g id="a_node10"><a xlink:title=" ">
<polygon fill="white" stroke="#bfbfbf" points="287.12,-225.5 287.12,-244.75 394.62,-244.75 394.62,-225.5 287.12,-225.5"/>
<text xml:space="preserve" text-anchor="middle" x="340.88" y="-231.25" font-family="Helvetica,sans-Serif" font-size="10.00">PlatformDefinitions.h</text>
</a>
</g>
</g>
<!-- Node2&#45;&gt;Node10 -->
<g id="edge9" class="edge">
<title>Node2&#45;&gt;Node10</title>
<path fill="none" stroke="midnightblue" d="M784.29,-286.85C713.67,-279.59 547.84,-262.22 408.88,-245.25 408.03,-245.15 407.18,-245.04 406.33,-244.94"/>
<polygon fill="midnightblue" stroke="midnightblue" points="406.91,-241.48 396.55,-243.7 406.03,-248.43 406.91,-241.48"/>
</g>
<!-- Node11 -->
<g id="node11" class="node">
<title>Node11</title>
<g id="a_node11"><a xlink:href="_class_type_codes_8h.html" target="_top" xlink:title=" ">
<polygon fill="white" stroke="black" points="421.25,-113 421.25,-132.25 520.5,-132.25 520.5,-113 421.25,-113"/>
<text xml:space="preserve" text-anchor="middle" x="470.88" y="-118.75" font-family="Helvetica,sans-Serif" font-size="10.00">ClassTypeCodes.h</text>
</a>
</g>
</g>
<!-- Node2&#45;&gt;Node11 -->
<g id="edge10" class="edge">
<title>Node2&#45;&gt;Node11</title>
<path fill="none" stroke="midnightblue" d="M784.36,-287.78C717.12,-282.3 571.3,-268.09 526.88,-245.25 495.78,-229.26 485.32,-221.28 471.88,-189 465.92,-174.71 466.03,-157.08 467.43,-143.74"/>
<polygon fill="midnightblue" stroke="midnightblue" points="470.87,-144.39 468.8,-134 463.94,-143.42 470.87,-144.39"/>
</g>
<!-- Node12 -->
<g id="node12" class="node">
<title>Node12</title>
<g id="a_node12"><a xlink:href="_object_class_8hpp.html" target="_top" xlink:title=" ">
<polygon fill="white" stroke="black" points="1056.5,-225.5 1056.5,-244.75 1145.25,-244.75 1145.25,-225.5 1056.5,-225.5"/>
<text xml:space="preserve" text-anchor="middle" x="1100.88" y="-231.25" font-family="Helvetica,sans-Serif" font-size="10.00">ObjectClass.hpp</text>
</a>
</g>
</g>
<!-- Node2&#45;&gt;Node12 -->
<g id="edge11" class="edge">
<title>Node2&#45;&gt;Node12</title>
<path fill="none" stroke="midnightblue" d="M853.45,-283.72C901.3,-274.52 988.23,-257.8 1045.26,-246.82"/>
<polygon fill="midnightblue" stroke="midnightblue" points="1045.6,-250.32 1054.76,-245 1044.28,-243.45 1045.6,-250.32"/>
</g>
<!-- Node18 -->
<g id="node18" class="node">
<title>Node18</title>
<g id="a_node18"><a xlink:href="_table_class_8hpp.html" target="_top" xlink:title=" ">
<polygon fill="white" stroke="black" points="1163.12,-225.5 1163.12,-244.75 1246.62,-244.75 1246.62,-225.5 1163.12,-225.5"/>
<text xml:space="preserve" text-anchor="middle" x="1204.88" y="-231.25" font-family="Helvetica,sans-Serif" font-size="10.00">TableClass.hpp</text>
</a>
</g>
</g>
<!-- Node2&#45;&gt;Node18 -->
<g id="edge18" class="edge">
<title>Node2&#45;&gt;Node18</title>
<path fill="none" stroke="midnightblue" d="M853.19,-286.25C912.03,-279.07 1036.22,-263.44 1151.73,-245.53"/>
<polygon fill="midnightblue" stroke="midnightblue" points="1152.04,-249.02 1161.38,-244.02 1150.96,-242.11 1152.04,-249.02"/>
</g>
<!-- Node30 -->
<g id="node21" class="node">
<title>Node30</title>
<g id="a_node21"><a xlink:href="_rexx_memory_8hpp.html" target="_top" xlink:title=" ">
<polygon fill="white" stroke="black" points="773,-225.5 773,-244.75 864.75,-244.75 864.75,-225.5 773,-225.5"/>
<text xml:space="preserve" text-anchor="middle" x="818.88" y="-231.25" font-family="Helvetica,sans-Serif" font-size="10.00">RexxMemory.hpp</text>
</a>
</g>
</g>
<!-- Node2&#45;&gt;Node30 -->
<g id="edge21" class="edge">
<title>Node2&#45;&gt;Node30</title>
<path fill="none" stroke="midnightblue" d="M818.88,-281.42C818.88,-274.62 818.88,-265.01 818.88,-256.4"/>
<polygon fill="midnightblue" stroke="midnightblue" points="822.38,-256.43 818.88,-246.43 815.38,-256.43 822.38,-256.43"/>
</g>
<!-- Node44 -->
<g id="node34" class="node">
<title>Node44</title>
<g id="a_node34"><a xlink:href="_rexx_behaviour_8hpp.html" target="_top" xlink:title=" ">
<polygon fill="white" stroke="black" points="1264.5,-225.5 1264.5,-244.75 1365.25,-244.75 1365.25,-225.5 1264.5,-225.5"/>
<text xml:space="preserve" text-anchor="middle" x="1314.88" y="-231.25" font-family="Helvetica,sans-Serif" font-size="10.00">RexxBehaviour.hpp</text>
</a>
</g>
</g>
<!-- Node2&#45;&gt;Node44 -->
<g id="edge43" class="edge">
<title>Node2&#45;&gt;Node44</title>
<path fill="none" stroke="midnightblue" d="M853.5,-287.4C925.76,-281.06 1098.14,-265.27 1252.94,-245.58"/>
<polygon fill="midnightblue" stroke="midnightblue" points="1253.07,-249.09 1262.55,-244.35 1252.18,-242.14 1253.07,-249.09"/>
</g>
<!-- Node23 -->
<g id="node37" class="node">
<title>Node23</title>
<g id="a_node37"><a xlink:href="_class_class_8hpp.html" target="_top" xlink:title=" ">
<polygon fill="white" stroke="black" points="1383,-225.5 1383,-244.75 1468.75,-244.75 1468.75,-225.5 1383,-225.5"/>
<text xml:space="preserve" text-anchor="middle" x="1425.88" y="-231.25" font-family="Helvetica,sans-Serif" font-size="10.00">ClassClass.hpp</text>
</a>
</g>
</g>
<!-- Node2&#45;&gt;Node23 -->
<g id="edge46" class="edge">
<title>Node2&#45;&gt;Node23</title>
<path fill="none" stroke="midnightblue" d="M853.41,-288.68C939.24,-284.23 1169.27,-270.87 1371.38,-245.46"/>
<polygon fill="midnightblue" stroke="midnightblue" points="1371.53,-248.97 1381.01,-244.24 1370.65,-242.02 1371.53,-248.97"/>
</g>
<!-- Node46 -->
<g id="node38" class="node">
<title>Node46</title>
<g id="a_node38"><a xlink:href="_envelope_8hpp.html" target="_top" xlink:title=" ">
<polygon fill="white" stroke="black" points="109.25,-225.5 109.25,-244.75 184.5,-244.75 184.5,-225.5 109.25,-225.5"/>
<text xml:space="preserve" text-anchor="middle" x="146.88" y="-231.25" font-family="Helvetica,sans-Serif" font-size="10.00">Envelope.hpp</text>
</a>
</g>
</g>
<!-- Node2&#45;&gt;Node46 -->
<g id="edge48" class="edge">
<title>Node2&#45;&gt;Node46</title>
<path fill="none" stroke="midnightblue" d="M784.17,-289.33C690.81,-286.2 426.36,-275.3 196.06,-245.37"/>
<polygon fill="midnightblue" stroke="midnightblue" points="196.65,-241.92 186.28,-244.08 195.73,-248.86 196.65,-241.92"/>
</g>
<!-- Node4 -->
<g id="node4" class="node">
<title>Node4</title>
<g id="a_node4"><a xlink:href="rexx_8h.html" target="_top" xlink:title=" ">
<polygon fill="white" stroke="black" points="216.38,-169.25 216.38,-188.5 259.38,-188.5 259.38,-169.25 216.38,-169.25"/>
<text xml:space="preserve" text-anchor="middle" x="237.88" y="-175" font-family="Helvetica,sans-Serif" font-size="10.00">rexx.h</text>
</a>
</g>
</g>
<!-- Node3&#45;&gt;Node4 -->
<g id="edge3" class="edge">
<title>Node3&#45;&gt;Node4</title>
<path fill="none" stroke="midnightblue" d="M236.21,-225.17C236.46,-218.37 236.81,-208.76 237.13,-200.15"/>
<polygon fill="midnightblue" stroke="midnightblue" points="240.62,-200.3 237.5,-190.18 233.63,-200.04 240.62,-200.3"/>
</g>
<!-- Node9 -->
<g id="node9" class="node">
<title>Node9</title>
<g id="a_node9"><a xlink:href="oorexxerrors_8h.html" target="_top" xlink:title=" ">
<polygon fill="white" stroke="black" points="119.75,-169.25 119.75,-188.5 198,-188.5 198,-169.25 119.75,-169.25"/>
<text xml:space="preserve" text-anchor="middle" x="158.88" y="-175" font-family="Helvetica,sans-Serif" font-size="10.00">oorexxerrors.h</text>
</a>
</g>
</g>
<!-- Node3&#45;&gt;Node9 -->
<g id="edge8" class="edge">
<title>Node3&#45;&gt;Node9</title>
<path fill="none" stroke="midnightblue" d="M223.16,-225.17C211.68,-217.08 194.54,-205 180.84,-195.35"/>
<polygon fill="midnightblue" stroke="midnightblue" points="183.04,-192.62 172.85,-189.72 179.01,-198.34 183.04,-192.62"/>
</g>
<!-- Node5 -->
<g id="node5" class="node">
<title>Node5</title>
<g id="a_node5"><a xlink:title=" ">
<polygon fill="white" stroke="#bfbfbf" points="0,-113 0,-132.25 79.75,-132.25 79.75,-113 0,-113"/>
<text xml:space="preserve" text-anchor="middle" x="39.88" y="-118.75" font-family="Helvetica,sans-Serif" font-size="10.00">rexxapitypes.h</text>
</a>
</g>
</g>
<!-- Node4&#45;&gt;Node5 -->
<g id="edge4" class="edge">
<title>Node4&#45;&gt;Node5</title>
<path fill="none" stroke="midnightblue" d="M215.88,-171.33C212.86,-170.45 209.79,-169.57 206.88,-168.75 165.85,-157.17 118.97,-144.56 85.35,-135.62"/>
<polygon fill="midnightblue" stroke="midnightblue" points="86.51,-132.3 75.94,-133.12 84.71,-139.07 86.51,-132.3"/>
</g>
<!-- Node6 -->
<g id="node6" class="node">
<title>Node6</title>
<g id="a_node6"><a xlink:href="rexxapidefs_8h.html" target="_top" xlink:title=" ">
<polygon fill="white" stroke="black" points="97.62,-113 97.62,-132.25 172.12,-132.25 172.12,-113 97.62,-113"/>
<text xml:space="preserve" text-anchor="middle" x="134.88" y="-118.75" font-family="Helvetica,sans-Serif" font-size="10.00">rexxapidefs.h</text>
</a>
</g>
</g>
<!-- Node4&#45;&gt;Node6 -->
<g id="edge5" class="edge">
<title>Node4&#45;&gt;Node6</title>
<path fill="none" stroke="midnightblue" d="M220.87,-168.92C204.84,-160.47 180.56,-147.69 161.89,-137.85"/>
<polygon fill="midnightblue" stroke="midnightblue" points="163.73,-134.87 153.25,-133.3 160.46,-141.06 163.73,-134.87"/>
</g>
<!-- Node7 -->
<g id="node7" class="node">
<title>Node7</title>
<g id="a_node7"><a xlink:title=" ">
<polygon fill="white" stroke="#bfbfbf" points="190.38,-113 190.38,-132.25 287.38,-132.25 287.38,-113 190.38,-113"/>
<text xml:space="preserve" text-anchor="middle" x="238.88" y="-118.75" font-family="Helvetica,sans-Serif" font-size="10.00">rexxplatformdefs.h</text>
</a>
</g>
</g>
<!-- Node4&#45;&gt;Node7 -->
<g id="edge6" class="edge">
<title>Node4&#45;&gt;Node7</title>
<path fill="none" stroke="midnightblue" d="M238.04,-168.92C238.17,-162.12 238.34,-152.51 238.5,-143.9"/>
<polygon fill="midnightblue" stroke="midnightblue" points="242,-143.99 238.69,-133.93 235,-143.86 242,-143.99"/>
</g>
<!-- Node8 -->
<g id="node8" class="node">
<title>Node8</title>
<g id="a_node8"><a xlink:title=" ">
<polygon fill="white" stroke="#bfbfbf" points="305.75,-113 305.75,-132.25 402,-132.25 402,-113 305.75,-113"/>
<text xml:space="preserve" text-anchor="middle" x="353.88" y="-118.75" font-family="Helvetica,sans-Serif" font-size="10.00">rexxplatformapis.h</text>
</a>
</g>
</g>
<!-- Node4&#45;&gt;Node8 -->
<g id="edge7" class="edge">
<title>Node4&#45;&gt;Node8</title>
<path fill="none" stroke="midnightblue" d="M257.29,-168.79C275.53,-160.27 303.07,-147.38 324.09,-137.56"/>
<polygon fill="midnightblue" stroke="midnightblue" points="325.45,-140.78 333.02,-133.38 322.48,-134.44 325.45,-140.78"/>
</g>
<!-- Node13 -->
<g id="node13" class="node">
<title>Node13</title>
<g id="a_node13"><a xlink:title=" ">
<polygon fill="white" stroke="#bfbfbf" points="1258.88,-169.25 1258.88,-188.5 1292.88,-188.5 1292.88,-169.25 1258.88,-169.25"/>
<text xml:space="preserve" text-anchor="middle" x="1275.88" y="-175" font-family="Helvetica,sans-Serif" font-size="10.00">new</text>
</a>
</g>
</g>
<!-- Node12&#45;&gt;Node13 -->
<g id="edge12" class="edge">
<title>Node12&#45;&gt;Node13</title>
<path fill="none" stroke="midnightblue" d="M1130.17,-225.04C1162.92,-214.89 1215.6,-198.56 1247.84,-188.57"/>
<polygon fill="midnightblue" stroke="midnightblue" points="1248.75,-191.95 1257.27,-185.64 1246.68,-185.26 1248.75,-191.95"/>
</g>
<!-- Node14 -->
<g id="node14" class="node">
<title>Node14</title>
<g id="a_node14"><a xlink:title=" ">
<polygon fill="white" stroke="#bfbfbf" points="1130.75,-56.75 1130.75,-76 1179,-76 1179,-56.75 1130.75,-56.75"/>
<text xml:space="preserve" text-anchor="middle" x="1154.88" y="-62.5" font-family="Helvetica,sans-Serif" font-size="10.00">string.h</text>
</a>
</g>
</g>
<!-- Node12&#45;&gt;Node14 -->
<g id="edge13" class="edge">
<title>Node12&#45;&gt;Node14</title>
<path fill="none" stroke="midnightblue" d="M1134.31,-225.01C1163.58,-216.27 1202.82,-202.46 1211.88,-189 1230.86,-160.79 1226.68,-143.11 1211.88,-112.5 1205.8,-99.93 1194.33,-89.8 1183.27,-82.35"/>
<polygon fill="midnightblue" stroke="midnightblue" points="1185.43,-79.57 1175.08,-77.29 1181.75,-85.52 1185.43,-79.57"/>
</g>
<!-- Node15 -->
<g id="node15" class="node">
<title>Node15</title>
<g id="a_node15"><a xlink:href="_numerics_8hpp.html" target="_top" xlink:title=" ">
<polygon fill="white" stroke="black" points="742.5,-56.75 742.5,-76 819.25,-76 819.25,-56.75 742.5,-56.75"/>
<text xml:space="preserve" text-anchor="middle" x="780.88" y="-62.5" font-family="Helvetica,sans-Serif" font-size="10.00">Numerics.hpp</text>
</a>
</g>
</g>
<!-- Node12&#45;&gt;Node15 -->
<g id="edge14" class="edge">
<title>Node12&#45;&gt;Node15</title>
<path fill="none" stroke="midnightblue" d="M1089.95,-225.32C1062.52,-203.55 987.87,-146.52 917.88,-112.5 889.07,-98.5 854.86,-87.23 827.83,-79.45"/>
<polygon fill="midnightblue" stroke="midnightblue" points="829.13,-76.18 818.56,-76.85 827.24,-82.92 829.13,-76.18"/>
</g>
<!-- Node17 -->
<g id="node17" class="node">
<title>Node17</title>
<g id="a_node17"><a xlink:href="_rexx_error_codes_8h.html" target="_top" xlink:title=" ">
<polygon fill="white" stroke="black" points="1860.38,-169.25 1860.38,-188.5 1957.38,-188.5 1957.38,-169.25 1860.38,-169.25"/>
<text xml:space="preserve" text-anchor="middle" x="1908.88" y="-175" font-family="Helvetica,sans-Serif" font-size="10.00">RexxErrorCodes.h</text>
</a>
</g>
</g>
<!-- Node12&#45;&gt;Node17 -->
<g id="edge17" class="edge">
<title>Node12&#45;&gt;Node17</title>
<path fill="none" stroke="midnightblue" d="M1145.64,-226.06C1148.42,-225.67 1151.19,-225.31 1153.88,-225 1411.29,-195.24 1720.48,-184.55 1848.66,-181.21"/>
<polygon fill="midnightblue" stroke="midnightblue" points="1848.71,-184.71 1858.62,-180.96 1848.53,-177.71 1848.71,-184.71"/>
</g>
<!-- Node15&#45;&gt;Node2 -->
<g id="edge16" class="edge">
<title>Node15&#45;&gt;Node2</title>
<path fill="none" stroke="midnightblue" d="M760.36,-76.38C721.35,-94.87 642.62,-139.57 668.88,-189 692.46,-233.4 745.13,-261.89 781.33,-277.02"/>
<polygon fill="midnightblue" stroke="midnightblue" points="780,-280.26 790.59,-280.73 782.6,-273.76 780,-280.26"/>
</g>
<!-- Node16 -->
<g id="node16" class="node">
<title>Node16</title>
<g id="a_node16"><a xlink:title=" ">
<polygon fill="white" stroke="#bfbfbf" points="753,-0.5 753,-19.75 808.75,-19.75 808.75,-0.5 753,-0.5"/>
<text xml:space="preserve" text-anchor="middle" x="780.88" y="-6.25" font-family="Helvetica,sans-Serif" font-size="10.00">algorithm</text>
</a>
</g>
</g>
<!-- Node15&#45;&gt;Node16 -->
<g id="edge15" class="edge">
<title>Node15&#45;&gt;Node16</title>
<path fill="none" stroke="midnightblue" d="M780.88,-56.42C780.88,-49.62 780.88,-40.01 780.88,-31.4"/>
<polygon fill="midnightblue" stroke="midnightblue" points="784.38,-31.43 780.88,-21.43 777.38,-31.43 784.38,-31.43"/>
</g>
<!-- Node19 -->
<g id="node19" class="node">
<title>Node19</title>
<g id="a_node19"><a xlink:href="_hash_collection_8hpp.html" target="_top" xlink:title=" ">
<polygon fill="white" stroke="black" points="1264.12,-113 1264.12,-132.25 1365.62,-132.25 1365.62,-113 1264.12,-113"/>
<text xml:space="preserve" text-anchor="middle" x="1314.88" y="-118.75" font-family="Helvetica,sans-Serif" font-size="10.00">HashCollection.hpp</text>
</a>
</g>
</g>
<!-- Node18&#45;&gt;Node19 -->
<g id="edge19" class="edge">
<title>Node18&#45;&gt;Node19</title>
<path fill="none" stroke="midnightblue" d="M1243.81,-225.11C1264.07,-218.44 1287.53,-207.26 1301.88,-189 1311.84,-176.32 1314.8,-158.07 1315.44,-144.08"/>
<polygon fill="midnightblue" stroke="midnightblue" points="1318.94,-144.24 1315.5,-134.22 1311.94,-144.2 1318.94,-144.24"/>
</g>
<!-- Node20 -->
<g id="node20" class="node">
<title>Node20</title>
<g id="a_node20"><a xlink:href="_hash_contents_8hpp.html" target="_top" xlink:title=" ">
<polygon fill="white" stroke="red" points="1266,-56.75 1266,-76 1363.75,-76 1363.75,-56.75 1266,-56.75"/>
<text xml:space="preserve" text-anchor="middle" x="1314.88" y="-62.5" font-family="Helvetica,sans-Serif" font-size="10.00">HashContents.hpp</text>
</a>
</g>
</g>
<!-- Node19&#45;&gt;Node20 -->
<g id="edge20" class="edge">
<title>Node19&#45;&gt;Node20</title>
<path fill="none" stroke="midnightblue" d="M1314.88,-112.67C1314.88,-105.87 1314.88,-96.26 1314.88,-87.65"/>
<polygon fill="midnightblue" stroke="midnightblue" points="1318.38,-87.68 1314.88,-77.68 1311.38,-87.68 1318.38,-87.68"/>
</g>
<!-- Node31 -->
<g id="node22" class="node">
<title>Node31</title>
<g id="a_node22"><a xlink:href="_memory_8hpp.html" target="_top" xlink:title=" ">
<polygon fill="white" stroke="black" points="840.62,-113 840.62,-132.25 909.12,-132.25 909.12,-113 840.62,-113"/>
<text xml:space="preserve" text-anchor="middle" x="874.88" y="-118.75" font-family="Helvetica,sans-Serif" font-size="10.00">Memory.hpp</text>
</a>
</g>
</g>
<!-- Node30&#45;&gt;Node31 -->
<g id="edge22" class="edge">
<title>Node30&#45;&gt;Node31</title>
<path fill="none" stroke="midnightblue" d="M823.46,-225.08C832.57,-207.11 853.12,-166.54 865.31,-142.51"/>
<polygon fill="midnightblue" stroke="midnightblue" points="868.3,-144.34 869.7,-133.83 862.06,-141.17 868.3,-144.34"/>
</g>
<!-- Node32 -->
<g id="node23" class="node">
<title>Node32</title>
<g id="a_node23"><a xlink:href="_memory_stack_8hpp.html" target="_top" xlink:title=" ">
<polygon fill="white" stroke="black" points="1107.12,-113 1107.12,-132.25 1202.62,-132.25 1202.62,-113 1107.12,-113"/>
<text xml:space="preserve" text-anchor="middle" x="1154.88" y="-118.75" font-family="Helvetica,sans-Serif" font-size="10.00">MemoryStack.hpp</text>
</a>
</g>
</g>
<!-- Node30&#45;&gt;Node32 -->
<g id="edge23" class="edge">
<title>Node30&#45;&gt;Node32</title>
<path fill="none" stroke="midnightblue" d="M864.58,-225.01C901.96,-217.04 955.95,-204.36 1001.88,-189 1046.28,-174.15 1095.79,-151.89 1126.14,-137.57"/>
<polygon fill="midnightblue" stroke="midnightblue" points="1127.52,-140.79 1135.04,-133.33 1124.51,-134.47 1127.52,-140.79"/>
</g>
<!-- Node33 -->
<g id="node24" class="node">
<title>Node33</title>
<g id="a_node24"><a xlink:title=" ">
<polygon fill="white" stroke="#bfbfbf" points="565.12,-56.75 565.12,-76 666.62,-76 666.62,-56.75 565.12,-56.75"/>
<text xml:space="preserve" text-anchor="middle" x="615.88" y="-62.5" font-family="Helvetica,sans-Serif" font-size="10.00">SysSemaphore.hpp</text>
</a>
</g>
</g>
<!-- Node30&#45;&gt;Node33 -->
<g id="edge25" class="edge">
<title>Node30&#45;&gt;Node33</title>
<path fill="none" stroke="midnightblue" d="M772.62,-230.4C740.14,-225.56 697.55,-214.46 668.88,-189 652.91,-174.83 632.27,-117.4 622.1,-86.79"/>
<polygon fill="midnightblue" stroke="midnightblue" points="625.54,-86.05 619.11,-77.63 618.89,-88.22 625.54,-86.05"/>
</g>
<!-- Node34 -->
<g id="node25" class="node">
<title>Node34</title>
<g id="a_node25"><a xlink:href="_identity_table_class_8hpp.html" target="_top" xlink:title=" ">
<polygon fill="white" stroke="black" points="1087,-169.25 1087,-188.5 1202.75,-188.5 1202.75,-169.25 1087,-169.25"/>
<text xml:space="preserve" text-anchor="middle" x="1144.88" y="-175" font-family="Helvetica,sans-Serif" font-size="10.00">IdentityTableClass.hpp</text>
</a>
</g>
</g>
<!-- Node30&#45;&gt;Node34 -->
<g id="edge26" class="edge">
<title>Node30&#45;&gt;Node34</title>
<path fill="none" stroke="midnightblue" d="M865.24,-226.41C921.2,-217.1 1015.7,-201.37 1079.16,-190.81"/>
<polygon fill="midnightblue" stroke="midnightblue" points="1079.46,-194.31 1088.75,-189.21 1078.31,-187.4 1079.46,-194.31"/>
</g>
<!-- Node35 -->
<g id="node26" class="node">
<title>Node35</title>
<g id="a_node26"><a xlink:href="_queue_class_8hpp.html" target="_top" xlink:title=" ">
<polygon fill="white" stroke="black" points="738.5,-169.25 738.5,-188.5 827.25,-188.5 827.25,-169.25 738.5,-169.25"/>
<text xml:space="preserve" text-anchor="middle" x="782.88" y="-175" font-family="Helvetica,sans-Serif" font-size="10.00">QueueClass.hpp</text>
</a>
</g>
</g>
<!-- Node30&#45;&gt;Node35 -->
<g id="edge28" class="edge">
<title>Node30&#45;&gt;Node35</title>
<path fill="none" stroke="midnightblue" d="M812.93,-225.17C808.05,-217.82 801,-207.18 794.94,-198.06"/>
<polygon fill="midnightblue" stroke="midnightblue" points="797.99,-196.32 789.55,-189.93 792.16,-200.2 797.99,-196.32"/>
</g>
<!-- Node38 -->
<g id="node28" class="node">
<title>Node38</title>
<g id="a_node28"><a xlink:title=" ">
<polygon fill="white" stroke="#bfbfbf" points="677.38,-169.25 677.38,-188.5 720.38,-188.5 720.38,-169.25 677.38,-169.25"/>
<text xml:space="preserve" text-anchor="middle" x="698.88" y="-175" font-family="Helvetica,sans-Serif" font-size="10.00">vector</text>
</a>
</g>
</g>
<!-- Node30&#45;&gt;Node38 -->
<g id="edge31" class="edge">
<title>Node30&#45;&gt;Node38</title>
<path fill="none" stroke="midnightblue" d="M798.79,-225.04C779.84,-216.48 751.17,-203.52 729.39,-193.67"/>
<polygon fill="midnightblue" stroke="midnightblue" points="730.96,-190.54 720.4,-189.61 728.08,-196.92 730.96,-190.54"/>
</g>
<!-- Node39 -->
<g id="node29" class="node">
<title>Node39</title>
<g id="a_node29"><a xlink:href="_memory_stats_8hpp.html" target="_top" xlink:title=" ">
<polygon fill="white" stroke="black" points="489.25,-169.25 489.25,-188.5 582.5,-188.5 582.5,-169.25 489.25,-169.25"/>
<text xml:space="preserve" text-anchor="middle" x="535.88" y="-175" font-family="Helvetica,sans-Serif" font-size="10.00">MemoryStats.hpp</text>
</a>
</g>
</g>
<!-- Node30&#45;&gt;Node39 -->
<g id="edge32" class="edge">
<title>Node30&#45;&gt;Node39</title>
<path fill="none" stroke="midnightblue" d="M772.78,-225.29C724.04,-215.95 647.04,-201.19 594.13,-191.04"/>
<polygon fill="midnightblue" stroke="midnightblue" points="594.86,-187.62 584.38,-189.17 593.55,-194.49 594.86,-187.62"/>
</g>
<!-- Node40 -->
<g id="node30" class="node">
<title>Node40</title>
<g id="a_node30"><a xlink:href="_memory_segment_8hpp.html" target="_top" xlink:title=" ">
<polygon fill="white" stroke="black" points="883.38,-169.25 883.38,-188.5 992.38,-188.5 992.38,-169.25 883.38,-169.25"/>
<text xml:space="preserve" text-anchor="middle" x="937.88" y="-175" font-family="Helvetica,sans-Serif" font-size="10.00">MemorySegment.hpp</text>
</a>
</g>
</g>
<!-- Node30&#45;&gt;Node40 -->
<g id="edge34" class="edge">
<title>Node30&#45;&gt;Node40</title>
<path fill="none" stroke="midnightblue" d="M838.79,-225.04C857.58,-216.48 886.02,-203.52 907.61,-193.67"/>
<polygon fill="midnightblue" stroke="midnightblue" points="908.87,-196.95 916.51,-189.61 905.96,-190.58 908.87,-196.95"/>
</g>
<!-- Node32&#45;&gt;Node14 -->
<g id="edge24" class="edge">
<title>Node32&#45;&gt;Node14</title>
<path fill="none" stroke="midnightblue" d="M1154.88,-112.67C1154.88,-105.87 1154.88,-96.26 1154.88,-87.65"/>
<polygon fill="midnightblue" stroke="midnightblue" points="1158.38,-87.68 1154.88,-77.68 1151.38,-87.68 1158.38,-87.68"/>
</g>
<!-- Node34&#45;&gt;Node19 -->
<g id="edge27" class="edge">
<title>Node34&#45;&gt;Node19</title>
<path fill="none" stroke="midnightblue" d="M1173.33,-168.79C1201.28,-159.88 1244.15,-146.19 1275.39,-136.22"/>
<polygon fill="midnightblue" stroke="midnightblue" points="1276.42,-139.57 1284.89,-133.19 1274.3,-132.9 1276.42,-139.57"/>
</g>
<!-- Node36 -->
<g id="node27" class="node">
<title>Node36</title>
<g id="a_node27"><a xlink:href="_array_class_8hpp.html" target="_top" xlink:title=" ">
<polygon fill="white" stroke="red" points="739.12,-113 739.12,-132.25 822.62,-132.25 822.62,-113 739.12,-113"/>
<text xml:space="preserve" text-anchor="middle" x="780.88" y="-118.75" font-family="Helvetica,sans-Serif" font-size="10.00">ArrayClass.hpp</text>
</a>
</g>
</g>
<!-- Node35&#45;&gt;Node36 -->
<g id="edge29" class="edge">
<title>Node35&#45;&gt;Node36</title>
<path fill="none" stroke="midnightblue" d="M782.54,-168.92C782.29,-162.12 781.94,-152.51 781.62,-143.9"/>
<polygon fill="midnightblue" stroke="midnightblue" points="785.12,-143.79 781.25,-133.93 778.13,-144.05 785.12,-143.79"/>
</g>
<!-- Node36&#45;&gt;Node15 -->
<g id="edge30" class="edge">
<title>Node36&#45;&gt;Node15</title>
<path fill="none" stroke="midnightblue" d="M780.88,-112.67C780.88,-105.87 780.88,-96.26 780.88,-87.65"/>
<polygon fill="midnightblue" stroke="midnightblue" points="784.38,-87.68 780.88,-77.68 777.38,-87.68 784.38,-87.68"/>
</g>
<!-- Node39&#45;&gt;Node11 -->
<g id="edge33" class="edge">
<title>Node39&#45;&gt;Node11</title>
<path fill="none" stroke="midnightblue" d="M525.14,-168.92C515.68,-161.02 501.65,-149.31 490.23,-139.78"/>
<polygon fill="midnightblue" stroke="midnightblue" points="492.49,-137.11 482.57,-133.39 488.01,-142.48 492.49,-137.11"/>
</g>
<!-- Node40&#45;&gt;Node31 -->
<g id="edge41" class="edge">
<title>Node40&#45;&gt;Node31</title>
<path fill="none" stroke="midnightblue" d="M927.47,-168.92C918.3,-161.02 904.71,-149.31 893.64,-139.78"/>
<polygon fill="midnightblue" stroke="midnightblue" points="896.09,-137.28 886.23,-133.4 891.53,-142.58 896.09,-137.28"/>
</g>
<!-- Node41 -->
<g id="node31" class="node">
<title>Node41</title>
<g id="a_node31"><a xlink:href="_dead_object_8hpp.html" target="_top" xlink:title=" ">
<polygon fill="white" stroke="black" points="1002.62,-113 1002.62,-132.25 1089.12,-132.25 1089.12,-113 1002.62,-113"/>
<text xml:space="preserve" text-anchor="middle" x="1045.88" y="-118.75" font-family="Helvetica,sans-Serif" font-size="10.00">DeadObject.hpp</text>
</a>
</g>
</g>
<!-- Node40&#45;&gt;Node41 -->
<g id="edge35" class="edge">
<title>Node40&#45;&gt;Node41</title>
<path fill="none" stroke="midnightblue" d="M955.71,-168.92C972.59,-160.44 998.21,-147.57 1017.83,-137.71"/>
<polygon fill="midnightblue" stroke="midnightblue" points="1019.3,-140.89 1026.66,-133.28 1016.15,-134.64 1019.3,-140.89"/>
</g>
<!-- Node42 -->
<g id="node32" class="node">
<title>Node42</title>
<g id="a_node32"><a xlink:title=" ">
<polygon fill="white" stroke="#bfbfbf" points="968.25,-56.75 968.25,-76 1013.5,-76 1013.5,-56.75 968.25,-56.75"/>
<text xml:space="preserve" text-anchor="middle" x="990.88" y="-62.5" font-family="Helvetica,sans-Serif" font-size="10.00">stdio.h</text>
</a>
</g>
</g>
<!-- Node40&#45;&gt;Node42 -->
<g id="edge42" class="edge">
<title>Node40&#45;&gt;Node42</title>
<path fill="none" stroke="midnightblue" d="M942.21,-168.83C950.8,-150.94 970.11,-110.66 981.66,-86.58"/>
<polygon fill="midnightblue" stroke="midnightblue" points="984.8,-88.13 985.97,-77.6 978.49,-85.1 984.8,-88.13"/>
</g>
<!-- Node43 -->
<g id="node33" class="node">
<title>Node43</title>
<g id="a_node33"><a xlink:href="_interpreter_8hpp.html" target="_top" xlink:title=" ">
<polygon fill="white" stroke="black" points="542.75,-113 542.75,-132.25 621,-132.25 621,-113 542.75,-113"/>
<text xml:space="preserve" text-anchor="middle" x="581.88" y="-118.75" font-family="Helvetica,sans-Serif" font-size="10.00">Interpreter.hpp</text>
</a>
</g>
</g>
<!-- Node40&#45;&gt;Node43 -->
<g id="edge38" class="edge">
<title>Node40&#45;&gt;Node43</title>
<path fill="none" stroke="midnightblue" d="M883.03,-169.52C814.63,-159.09 698.63,-141.42 632.34,-131.31"/>
<polygon fill="midnightblue" stroke="midnightblue" points="633.26,-127.92 622.85,-129.87 632.21,-134.84 633.26,-127.92"/>
</g>
<!-- Node41&#45;&gt;Node14 -->
<g id="edge36" class="edge">
<title>Node41&#45;&gt;Node14</title>
<path fill="none" stroke="midnightblue" d="M1063.87,-112.67C1080.91,-104.19 1106.77,-91.32 1126.57,-81.46"/>
<polygon fill="midnightblue" stroke="midnightblue" points="1128.1,-84.61 1135.49,-77.02 1124.98,-78.34 1128.1,-84.61"/>
</g>
<!-- Node41&#45;&gt;Node42 -->
<g id="edge37" class="edge">
<title>Node41&#45;&gt;Node42</title>
<path fill="none" stroke="midnightblue" d="M1036.79,-112.67C1028.94,-104.92 1017.39,-93.53 1007.84,-84.11"/>
<polygon fill="midnightblue" stroke="midnightblue" points="1010.44,-81.76 1000.87,-77.23 1005.53,-86.74 1010.44,-81.76"/>
</g>
<!-- Node43&#45;&gt;Node2 -->
<g id="edge39" class="edge">
<title>Node43&#45;&gt;Node2</title>
<path fill="none" stroke="midnightblue" d="M542.38,-132.2C506.56,-141.98 461.9,-160.42 479.88,-189 511.42,-239.16 687.95,-271.29 773.02,-284.08"/>
<polygon fill="midnightblue" stroke="midnightblue" points="772.5,-287.54 782.9,-285.54 773.52,-280.62 772.5,-287.54"/>
</g>
<!-- Node43&#45;&gt;Node33 -->
<g id="edge40" class="edge">
<title>Node43&#45;&gt;Node33</title>
<path fill="none" stroke="midnightblue" d="M587.49,-112.67C592.04,-105.4 598.62,-94.91 604.29,-85.86"/>
<polygon fill="midnightblue" stroke="midnightblue" points="607.22,-87.78 609.56,-77.45 601.29,-84.06 607.22,-87.78"/>
</g>
<!-- Node24 -->
<g id="node35" class="node">
<title>Node24</title>
<g id="a_node35"><a xlink:href="_flag_set_8hpp.html" target="_top" xlink:title=" ">
<polygon fill="white" stroke="red" points="1504.62,-169.25 1504.62,-188.5 1573.12,-188.5 1573.12,-169.25 1504.62,-169.25"/>
<text xml:space="preserve" text-anchor="middle" x="1538.88" y="-175" font-family="Helvetica,sans-Serif" font-size="10.00">FlagSet.hpp</text>
</a>
</g>
</g>
<!-- Node44&#45;&gt;Node24 -->
<g id="edge44" class="edge">
<title>Node44&#45;&gt;Node24</title>
<path fill="none" stroke="midnightblue" d="M1352.37,-225.04C1391.07,-215.67 1451.51,-201.03 1493.03,-190.98"/>
<polygon fill="midnightblue" stroke="midnightblue" points="1493.84,-194.38 1502.74,-188.63 1492.2,-187.58 1493.84,-194.38"/>
</g>
<!-- Node45 -->
<g id="node36" class="node">
<title>Node45</title>
<g id="a_node36"><a xlink:href="_primitive_behaviour_names_8h.html" target="_top" xlink:title=" ">
<polygon fill="white" stroke="black" points="1349.12,-169.25 1349.12,-188.5 1486.62,-188.5 1486.62,-169.25 1349.12,-169.25"/>
<text xml:space="preserve" text-anchor="middle" x="1417.88" y="-175" font-family="Helvetica,sans-Serif" font-size="10.00">PrimitiveBehaviourNames.h</text>
</a>
</g>
</g>
<!-- Node44&#45;&gt;Node45 -->
<g id="edge45" class="edge">
<title>Node44&#45;&gt;Node45</title>
<path fill="none" stroke="midnightblue" d="M1331.88,-225.17C1347.91,-216.72 1372.19,-203.94 1390.86,-194.1"/>
<polygon fill="midnightblue" stroke="midnightblue" points="1392.29,-197.31 1399.5,-189.55 1389.02,-191.12 1392.29,-197.31"/>
</g>
<!-- Node23&#45;&gt;Node24 -->
<g id="edge47" class="edge">
<title>Node23&#45;&gt;Node24</title>
<path fill="none" stroke="midnightblue" d="M1444.79,-225.04C1462.47,-216.56 1489.14,-203.75 1509.57,-193.94"/>
<polygon fill="midnightblue" stroke="midnightblue" points="1511.04,-197.12 1518.54,-189.64 1508.01,-190.81 1511.04,-197.12"/>
</g>
<!-- Node48 -->
<g id="node40" class="node">
<title>Node48</title>
<g id="a_node40"><a xlink:href="_routine_class_8hpp.html" target="_top" xlink:title=" ">
<polygon fill="white" stroke="black" points="1626.88,-338 1626.88,-357.25 1720.88,-357.25 1720.88,-338 1626.88,-338"/>
<text xml:space="preserve" text-anchor="middle" x="1673.88" y="-343.75" font-family="Helvetica,sans-Serif" font-size="10.00">RoutineClass.hpp</text>
</a>
</g>
</g>
<!-- Node47&#45;&gt;Node48 -->
<g id="edge50" class="edge">
<title>Node47&#45;&gt;Node48</title>
<path fill="none" stroke="midnightblue" d="M1596.23,-393.92C1610.5,-385.59 1632.01,-373.04 1648.78,-363.27"/>
<polygon fill="midnightblue" stroke="midnightblue" points="1650.31,-366.42 1657.19,-358.36 1646.79,-360.37 1650.31,-366.42"/>
</g>
<!-- Node61 -->
<g id="node44" class="node">
<title>Node61</title>
<g id="a_node44"><a xlink:href="_method_class_8hpp.html" target="_top" xlink:title=" ">
<polygon fill="white" stroke="black" points="1491.62,-338 1491.62,-357.25 1584.12,-357.25 1584.12,-338 1491.62,-338"/>
<text xml:space="preserve" text-anchor="middle" x="1537.88" y="-343.75" font-family="Helvetica,sans-Serif" font-size="10.00">MethodClass.hpp</text>
</a>
</g>
</g>
<!-- Node47&#45;&gt;Node61 -->
<g id="edge54" class="edge">
<title>Node47&#45;&gt;Node61</title>
<path fill="none" stroke="midnightblue" d="M1573.77,-393.92C1567.83,-386.41 1559.16,-375.47 1551.83,-366.23"/>
<polygon fill="midnightblue" stroke="midnightblue" points="1554.74,-364.27 1545.78,-358.6 1549.25,-368.61 1554.74,-364.27"/>
</g>
<!-- Node49 -->
<g id="node41" class="node">
<title>Node49</title>
<g id="a_node41"><a xlink:href="_base_executable_8hpp.html" target="_top" xlink:title=" ">
<polygon fill="white" stroke="red" points="1524.88,-281.75 1524.88,-301 1630.88,-301 1630.88,-281.75 1524.88,-281.75"/>
<text xml:space="preserve" text-anchor="middle" x="1577.88" y="-287.5" font-family="Helvetica,sans-Serif" font-size="10.00">BaseExecutable.hpp</text>
</a>
</g>
</g>
<!-- Node48&#45;&gt;Node49 -->
<g id="edge51" class="edge">
<title>Node48&#45;&gt;Node49</title>
<path fill="none" stroke="midnightblue" d="M1658.02,-337.67C1643.15,-329.26 1620.67,-316.56 1603.29,-306.74"/>
<polygon fill="midnightblue" stroke="midnightblue" points="1605.5,-303.96 1595.07,-302.09 1602.05,-310.06 1605.5,-303.96"/>
</g>
<!-- Node60 -->
<g id="node42" class="node">
<title>Node60</title>
<g id="a_node42"><a xlink:href="_language_level_8hpp.html" target="_top" xlink:title=" ">
<polygon fill="white" stroke="black" points="1648.88,-281.75 1648.88,-301 1748.88,-301 1748.88,-281.75 1648.88,-281.75"/>
<text xml:space="preserve" text-anchor="middle" x="1698.88" y="-287.5" font-family="Helvetica,sans-Serif" font-size="10.00">LanguageLevel.hpp</text>
</a>
</g>
</g>
<!-- Node48&#45;&gt;Node60 -->
<g id="edge52" class="edge">
<title>Node48&#45;&gt;Node60</title>
<path fill="none" stroke="midnightblue" d="M1678,-337.67C1681.28,-330.56 1685.98,-320.37 1690.08,-311.45"/>
<polygon fill="midnightblue" stroke="midnightblue" points="1693.18,-313.09 1694.19,-302.54 1686.83,-310.16 1693.18,-313.09"/>
</g>
<!-- Node51 -->
<g id="node43" class="node">
<title>Node51</title>
<g id="a_node43"><a xlink:href="_activation_settings_8hpp.html" target="_top" xlink:title=" ">
<polygon fill="white" stroke="red" points="1766.75,-281.75 1766.75,-301 1881,-301 1881,-281.75 1766.75,-281.75"/>
<text xml:space="preserve" text-anchor="middle" x="1823.88" y="-287.5" font-family="Helvetica,sans-Serif" font-size="10.00">ActivationSettings.hpp</text>
</a>
</g>
</g>
<!-- Node48&#45;&gt;Node51 -->
<g id="edge53" class="edge">
<title>Node48&#45;&gt;Node51</title>
<path fill="none" stroke="midnightblue" d="M1698.98,-337.54C1723.32,-328.74 1760.48,-315.3 1787.95,-305.37"/>
<polygon fill="midnightblue" stroke="midnightblue" points="1789.05,-308.69 1797.26,-302 1786.67,-302.11 1789.05,-308.69"/>
</g>
<!-- Node61&#45;&gt;Node2 -->
<g id="edge55" class="edge">
<title>Node61&#45;&gt;Node2</title>
<path fill="none" stroke="midnightblue" d="M1491.23,-342.34C1473.58,-340.76 1453.31,-338.99 1434.88,-337.5 1222.06,-320.28 967.64,-302.55 865.08,-295.52"/>
<polygon fill="midnightblue" stroke="midnightblue" points="865.35,-292.03 855.13,-294.84 864.87,-299.01 865.35,-292.03"/>
</g>
<!-- Node61&#45;&gt;Node24 -->
<g id="edge57" class="edge">
<title>Node61&#45;&gt;Node24</title>
<path fill="none" stroke="midnightblue" d="M1532.03,-337.75C1526.63,-328.96 1518.97,-314.92 1515.88,-301.5 1507.61,-265.67 1520.66,-223.41 1530.23,-199.31"/>
<polygon fill="midnightblue" stroke="midnightblue" points="1533.43,-200.75 1534.08,-190.17 1526.98,-198.03 1533.43,-200.75"/>
</g>
<!-- Node61&#45;&gt;Node49 -->
<g id="edge56" class="edge">
<title>Node61&#45;&gt;Node49</title>
<path fill="none" stroke="midnightblue" d="M1544.48,-337.67C1549.96,-330.24 1557.91,-319.45 1564.68,-310.27"/>
<polygon fill="midnightblue" stroke="midnightblue" points="1567.38,-312.51 1570.49,-302.38 1561.74,-308.36 1567.38,-312.51"/>
</g>
<!-- Node63 -->
<g id="node46" class="node">
<title>Node63</title>
<g id="a_node46"><a xlink:href="_activity_manager_8hpp.html" target="_top" xlink:title=" ">
<polygon fill="white" stroke="black" points="1917.62,-338 1917.62,-357.25 2022.12,-357.25 2022.12,-338 1917.62,-338"/>
<text xml:space="preserve" text-anchor="middle" x="1969.88" y="-343.75" font-family="Helvetica,sans-Serif" font-size="10.00">ActivityManager.hpp</text>
</a>
</g>
</g>
<!-- Node62&#45;&gt;Node63 -->
<g id="edge59" class="edge">
<title>Node62&#45;&gt;Node63</title>
<path fill="none" stroke="midnightblue" d="M1844.98,-393.79C1869.32,-384.99 1906.48,-371.55 1933.95,-361.62"/>
<polygon fill="midnightblue" stroke="midnightblue" points="1935.05,-364.94 1943.26,-358.25 1932.67,-358.36 1935.05,-364.94"/>
</g>
<!-- Node63&#45;&gt;Node17 -->
<g id="edge66" class="edge">
<title>Node63&#45;&gt;Node17</title>
<path fill="none" stroke="midnightblue" d="M1958.23,-337.58C1948.46,-329.3 1934.98,-316.13 1927.88,-301.5 1911.89,-268.6 1908.79,-225.32 1908.49,-200.25"/>
<polygon fill="midnightblue" stroke="midnightblue" points="1911.98,-200.48 1908.52,-190.47 1904.98,-200.45 1911.98,-200.48"/>
</g>
<!-- Node63&#45;&gt;Node51 -->
<g id="edge62" class="edge">
<title>Node63&#45;&gt;Node51</title>
<path fill="none" stroke="midnightblue" d="M1945.44,-337.54C1921.75,-328.74 1885.58,-315.3 1858.85,-305.37"/>
<polygon fill="midnightblue" stroke="midnightblue" points="1860.4,-302.21 1849.81,-302.01 1857.97,-308.78 1860.4,-302.21"/>
</g>
<!-- Node64 -->
<g id="node47" class="node">
<title>Node64</title>
<g id="a_node47"><a xlink:href="_activity_8hpp.html" target="_top" xlink:title=" ">
<polygon fill="white" stroke="red" points="1936.75,-281.75 1936.75,-301 2003,-301 2003,-281.75 1936.75,-281.75"/>
<text xml:space="preserve" text-anchor="middle" x="1969.88" y="-287.5" font-family="Helvetica,sans-Serif" font-size="10.00">Activity.hpp</text>
</a>
</g>
</g>
<!-- Node63&#45;&gt;Node64 -->
<g id="edge60" class="edge">
<title>Node63&#45;&gt;Node64</title>
<path fill="none" stroke="midnightblue" d="M1969.88,-337.67C1969.88,-330.87 1969.88,-321.26 1969.88,-312.65"/>
<polygon fill="midnightblue" stroke="midnightblue" points="1973.38,-312.68 1969.88,-302.68 1966.38,-312.68 1973.38,-312.68"/>
</g>
<!-- Node79 -->
<g id="node48" class="node">
<title>Node79</title>
<g id="a_node48"><a xlink:title=" ">
<polygon fill="white" stroke="#bfbfbf" points="2020.75,-281.75 2020.75,-301 2063,-301 2063,-281.75 2020.75,-281.75"/>
<text xml:space="preserve" text-anchor="middle" x="2041.88" y="-287.5" font-family="Helvetica,sans-Serif" font-size="10.00">deque</text>
</a>
</g>
</g>
<!-- Node63&#45;&gt;Node79 -->
<g id="edge63" class="edge">
<title>Node63&#45;&gt;Node79</title>
<path fill="none" stroke="midnightblue" d="M1981.76,-337.67C1992.46,-329.61 2008.41,-317.59 2021.19,-307.96"/>
<polygon fill="midnightblue" stroke="midnightblue" points="2023.12,-310.89 2029,-302.08 2018.91,-305.3 2023.12,-310.89"/>
</g>
<!-- Node80 -->
<g id="node49" class="node">
<title>Node80</title>
<g id="a_node49"><a xlink:href="_global_names_8hpp.html" target="_top" xlink:title=" ">
<polygon fill="white" stroke="red" points="2080.88,-281.75 2080.88,-301 2174.88,-301 2174.88,-281.75 2080.88,-281.75"/>
<text xml:space="preserve" text-anchor="middle" x="2127.88" y="-287.5" font-family="Helvetica,sans-Serif" font-size="10.00">GlobalNames.hpp</text>
</a>
</g>
</g>
<!-- Node63&#45;&gt;Node80 -->
<g id="edge64" class="edge">
<title>Node63&#45;&gt;Node80</title>
<path fill="none" stroke="midnightblue" d="M1996.32,-337.54C2022.18,-328.66 2061.8,-315.06 2090.8,-305.11"/>
<polygon fill="midnightblue" stroke="midnightblue" points="2091.59,-308.53 2099.91,-301.98 2089.32,-301.91 2091.59,-308.53"/>
</g>
<!-- Node82 -->
<g id="node50" class="node">
<title>Node82</title>
<g id="a_node50"><a xlink:title=" ">
<polygon fill="white" stroke="#bfbfbf" points="2192.88,-281.75 2192.88,-301 2304.88,-301 2304.88,-281.75 2192.88,-281.75"/>
<text xml:space="preserve" text-anchor="middle" x="2248.88" y="-287.5" font-family="Helvetica,sans-Serif" font-size="10.00">SystemInterpreter.hpp</text>
</a>
</g>
</g>
<!-- Node63&#45;&gt;Node82 -->
<g id="edge65" class="edge">
<title>Node63&#45;&gt;Node82</title>
<path fill="none" stroke="midnightblue" d="M2016.57,-337.54C2064.55,-328.22 2139.34,-313.67 2191.04,-303.62"/>
<polygon fill="midnightblue" stroke="midnightblue" points="2191.39,-307.12 2200.54,-301.77 2190.05,-300.25 2191.39,-307.12"/>
</g>
<!-- Node64&#45;&gt;Node17 -->
<g id="edge61" class="edge">
<title>Node64&#45;&gt;Node17</title>
<path fill="none" stroke="midnightblue" d="M1964.88,-281.33C1954.96,-263.36 1932.57,-222.79 1919.3,-198.76"/>
<polygon fill="midnightblue" stroke="midnightblue" points="1922.39,-197.12 1914.5,-190.06 1916.27,-200.5 1922.39,-197.12"/>
</g>
</g>
</svg>
