<?xml version="1.0" encoding="UTF-8" standalone="no"?>
<!DOCTYPE svg PUBLIC "-//W3C//DTD SVG 1.1//EN"
 "http://www.w3.org/Graphics/SVG/1.1/DTD/svg11.dtd">
<!-- Generated by graphviz version 13.1.0 (20250701.0955)
 -->
<!-- Title: StreamNative.cpp Pages: 1 -->
<svg width="1220pt" height="197pt"
 viewBox="0.00 0.00 1220.00 197.00" xmlns="http://www.w3.org/2000/svg" xmlns:xlink="http://www.w3.org/1999/xlink">
<g id="graph0" class="graph" transform="scale(1 1) rotate(0) translate(4 193)">
<title>StreamNative.cpp</title>
<polygon fill="white" stroke="none" points="-4,4 -4,-193 1215.75,-193 1215.75,4 -4,4"/>
<!-- Node1 -->
<g id="node1" class="node">
<title>Node1</title>
<g id="a_node1"><a xlink:title=" ">
<polygon fill="#bfbfbf" stroke="black" points="779.5,-169.25 779.5,-188.5 874.25,-188.5 874.25,-169.25 779.5,-169.25"/>
<text xml:space="preserve" text-anchor="middle" x="826.88" y="-175" font-family="Helvetica,sans-Serif" font-size="10.00">StreamNative.cpp</text>
</a>
</g>
</g>
<!-- Node2 -->
<g id="node2" class="node">
<title>Node2</title>
<g id="a_node2"><a xlink:href="oorexxapi_8h.html" target="_top" xlink:title=" ">
<polygon fill="white" stroke="black" points="290.75,-113 290.75,-132.25 357,-132.25 357,-113 290.75,-113"/>
<text xml:space="preserve" text-anchor="middle" x="323.88" y="-118.75" font-family="Helvetica,sans-Serif" font-size="10.00">oorexxapi.h</text>
</a>
</g>
</g>
<!-- Node1&#45;&gt;Node2 -->
<g id="edge1" class="edge">
<title>Node1&#45;&gt;Node2</title>
<path fill="none" stroke="midnightblue" d="M779.1,-172.72C682.09,-162.26 463.24,-138.66 368.73,-128.46"/>
<polygon fill="midnightblue" stroke="midnightblue" points="369.13,-124.99 358.81,-127.39 368.38,-131.95 369.13,-124.99"/>
</g>
<!-- Node9 -->
<g id="node9" class="node">
<title>Node9</title>
<g id="a_node9"><a xlink:href="_stream_native_8hpp.html" target="_top" xlink:title=" ">
<polygon fill="white" stroke="black" points="422.5,-113 422.5,-132.25 517.25,-132.25 517.25,-113 422.5,-113"/>
<text xml:space="preserve" text-anchor="middle" x="469.88" y="-118.75" font-family="Helvetica,sans-Serif" font-size="10.00">StreamNative.hpp</text>
</a>
</g>
</g>
<!-- Node1&#45;&gt;Node9 -->
<g id="edge8" class="edge">
<title>Node1&#45;&gt;Node9</title>
<path fill="none" stroke="midnightblue" d="M779.1,-170.61C714.4,-160.78 598.97,-143.24 528.91,-132.6"/>
<polygon fill="midnightblue" stroke="midnightblue" points="529.56,-129.15 519.15,-131.11 528.51,-136.08 529.56,-129.15"/>
</g>
<!-- Node12 -->
<g id="node12" class="node">
<title>Node12</title>
<g id="a_node12"><a xlink:href="_file_name_buffer_8hpp.html" target="_top" xlink:title=" ">
<polygon fill="white" stroke="black" points="507.75,-56.75 507.75,-76 610,-76 610,-56.75 507.75,-56.75"/>
<text xml:space="preserve" text-anchor="middle" x="558.88" y="-62.5" font-family="Helvetica,sans-Serif" font-size="10.00">FileNameBuffer.hpp</text>
</a>
</g>
</g>
<!-- Node1&#45;&gt;Node12 -->
<g id="edge26" class="edge">
<title>Node1&#45;&gt;Node12</title>
<path fill="none" stroke="midnightblue" d="M779.16,-175.11C715.34,-170.45 606.84,-158.86 577.88,-132.75 565.25,-121.37 560.81,-102.13 559.35,-87.46"/>
<polygon fill="midnightblue" stroke="midnightblue" points="562.85,-87.36 558.78,-77.58 555.86,-87.76 562.85,-87.36"/>
</g>
<!-- Node14 -->
<g id="node14" class="node">
<title>Node14</title>
<g id="a_node14"><a xlink:href="_stream_command_parser_8h.html" target="_top" xlink:title=" ">
<polygon fill="white" stroke="black" points="586.62,-113 586.62,-132.25 715.12,-132.25 715.12,-113 586.62,-113"/>
<text xml:space="preserve" text-anchor="middle" x="650.88" y="-118.75" font-family="Helvetica,sans-Serif" font-size="10.00">StreamCommandParser.h</text>
</a>
</g>
</g>
<!-- Node1&#45;&gt;Node14 -->
<g id="edge14" class="edge">
<title>Node1&#45;&gt;Node14</title>
<path fill="none" stroke="midnightblue" d="M797.42,-168.79C768.35,-159.84 723.7,-146.07 691.32,-136.09"/>
<polygon fill="midnightblue" stroke="midnightblue" points="692.46,-132.78 681.88,-133.18 690.4,-139.47 692.46,-132.78"/>
</g>
<!-- Node17 -->
<g id="node17" class="node">
<title>Node17</title>
<g id="a_node17"><a xlink:href="_utilities_8hpp.html" target="_top" xlink:title=" ">
<polygon fill="white" stroke="black" points="758,-56.75 758,-76 825.75,-76 825.75,-56.75 758,-56.75"/>
<text xml:space="preserve" text-anchor="middle" x="791.88" y="-62.5" font-family="Helvetica,sans-Serif" font-size="10.00">Utilities.hpp</text>
</a>
</g>
</g>
<!-- Node1&#45;&gt;Node17 -->
<g id="edge19" class="edge">
<title>Node1&#45;&gt;Node17</title>
<path fill="none" stroke="midnightblue" d="M804.76,-168.88C789.96,-161.56 771.64,-149.65 762.88,-132.75 754.69,-116.96 764.74,-98.37 775.19,-85.06"/>
<polygon fill="midnightblue" stroke="midnightblue" points="777.76,-87.44 781.62,-77.57 772.45,-82.88 777.76,-87.44"/>
</g>
<!-- Node19 -->
<g id="node19" class="node">
<title>Node19</title>
<g id="a_node19"><a xlink:title=" ">
<polygon fill="white" stroke="#bfbfbf" points="771.38,-113 771.38,-132.25 814.38,-132.25 814.38,-113 771.38,-113"/>
<text xml:space="preserve" text-anchor="middle" x="792.88" y="-118.75" font-family="Helvetica,sans-Serif" font-size="10.00">fcntl.h</text>
</a>
</g>
</g>
<!-- Node1&#45;&gt;Node19 -->
<g id="edge20" class="edge">
<title>Node1&#45;&gt;Node19</title>
<path fill="none" stroke="midnightblue" d="M821.26,-168.92C816.71,-161.65 810.13,-151.16 804.46,-142.11"/>
<polygon fill="midnightblue" stroke="midnightblue" points="807.46,-140.31 799.19,-133.7 801.53,-144.03 807.46,-140.31"/>
</g>
<!-- Node20 -->
<g id="node20" class="node">
<title>Node20</title>
<g id="a_node20"><a xlink:title=" ">
<polygon fill="white" stroke="#bfbfbf" points="832.12,-113 832.12,-132.25 891.62,-132.25 891.62,-113 832.12,-113"/>
<text xml:space="preserve" text-anchor="middle" x="861.88" y="-118.75" font-family="Helvetica,sans-Serif" font-size="10.00">sys/stat.h</text>
</a>
</g>
</g>
<!-- Node1&#45;&gt;Node20 -->
<g id="edge21" class="edge">
<title>Node1&#45;&gt;Node20</title>
<path fill="none" stroke="midnightblue" d="M832.65,-168.92C837.39,-161.57 844.26,-150.93 850.14,-141.81"/>
<polygon fill="midnightblue" stroke="midnightblue" points="852.9,-143.99 855.38,-133.69 847.02,-140.19 852.9,-143.99"/>
</g>
<!-- Node21 -->
<g id="node21" class="node">
<title>Node21</title>
<g id="a_node21"><a xlink:title=" ">
<polygon fill="white" stroke="#bfbfbf" points="909.75,-113 909.75,-132.25 958,-132.25 958,-113 909.75,-113"/>
<text xml:space="preserve" text-anchor="middle" x="933.88" y="-118.75" font-family="Helvetica,sans-Serif" font-size="10.00">string.h</text>
</a>
</g>
</g>
<!-- Node1&#45;&gt;Node21 -->
<g id="edge22" class="edge">
<title>Node1&#45;&gt;Node21</title>
<path fill="none" stroke="midnightblue" d="M844.54,-168.92C861.27,-160.44 886.65,-147.57 906.09,-137.71"/>
<polygon fill="midnightblue" stroke="midnightblue" points="907.49,-140.92 914.83,-133.28 904.33,-134.68 907.49,-140.92"/>
</g>
<!-- Node22 -->
<g id="node22" class="node">
<title>Node22</title>
<g id="a_node22"><a xlink:title=" ">
<polygon fill="white" stroke="#bfbfbf" points="975.88,-113 975.88,-132.25 1021.88,-132.25 1021.88,-113 975.88,-113"/>
<text xml:space="preserve" text-anchor="middle" x="998.88" y="-118.75" font-family="Helvetica,sans-Serif" font-size="10.00">errno.h</text>
</a>
</g>
</g>
<!-- Node1&#45;&gt;Node22 -->
<g id="edge23" class="edge">
<title>Node1&#45;&gt;Node22</title>
<path fill="none" stroke="midnightblue" d="M855.66,-168.79C885.78,-159.3 933.02,-144.4 964.93,-134.33"/>
<polygon fill="midnightblue" stroke="midnightblue" points="965.59,-137.79 974.08,-131.45 963.49,-131.12 965.59,-137.79"/>
</g>
<!-- Node23 -->
<g id="node23" class="node">
<title>Node23</title>
<g id="a_node23"><a xlink:title=" ">
<polygon fill="white" stroke="#bfbfbf" points="1039.88,-113 1039.88,-132.25 1073.88,-132.25 1073.88,-113 1039.88,-113"/>
<text xml:space="preserve" text-anchor="middle" x="1056.88" y="-118.75" font-family="Helvetica,sans-Serif" font-size="10.00">new</text>
</a>
</g>
</g>
<!-- Node1&#45;&gt;Node23 -->
<g id="edge24" class="edge">
<title>Node1&#45;&gt;Node23</title>
<path fill="none" stroke="midnightblue" d="M874.68,-168.98C913.85,-161.33 970.86,-149.32 1028.8,-133.08"/>
<polygon fill="midnightblue" stroke="midnightblue" points="1029.51,-136.52 1038.17,-130.42 1027.59,-129.79 1029.51,-136.52"/>
</g>
<!-- Node24 -->
<g id="node24" class="node">
<title>Node24</title>
<g id="a_node24"><a xlink:title=" ">
<polygon fill="white" stroke="#bfbfbf" points="1092.25,-113 1092.25,-132.25 1137.5,-132.25 1137.5,-113 1092.25,-113"/>
<text xml:space="preserve" text-anchor="middle" x="1114.88" y="-118.75" font-family="Helvetica,sans-Serif" font-size="10.00">stdio.h</text>
</a>
</g>
</g>
<!-- Node1&#45;&gt;Node24 -->
<g id="edge25" class="edge">
<title>Node1&#45;&gt;Node24</title>
<path fill="none" stroke="midnightblue" d="M874.35,-171.01C923.65,-163.55 1003.2,-150.58 1080.92,-133"/>
<polygon fill="midnightblue" stroke="midnightblue" points="1081.44,-136.47 1090.4,-130.83 1079.87,-129.65 1081.44,-136.47"/>
</g>
<!-- Node25 -->
<g id="node25" class="node">
<title>Node25</title>
<g id="a_node25"><a xlink:title=" ">
<polygon fill="white" stroke="#bfbfbf" points="1156,-113 1156,-132.25 1211.75,-132.25 1211.75,-113 1156,-113"/>
<text xml:space="preserve" text-anchor="middle" x="1183.88" y="-118.75" font-family="Helvetica,sans-Serif" font-size="10.00">algorithm</text>
</a>
</g>
</g>
<!-- Node1&#45;&gt;Node25 -->
<g id="edge27" class="edge">
<title>Node1&#45;&gt;Node25</title>
<path fill="none" stroke="midnightblue" d="M874.57,-172.69C935.11,-165.76 1042.97,-152.29 1144.58,-133.03"/>
<polygon fill="midnightblue" stroke="midnightblue" points="1145.01,-136.51 1154.17,-131.18 1143.69,-129.63 1145.01,-136.51"/>
</g>
<!-- Node3 -->
<g id="node3" class="node">
<title>Node3</title>
<g id="a_node3"><a xlink:href="rexx_8h.html" target="_top" xlink:title=" ">
<polygon fill="white" stroke="black" points="217.38,-56.75 217.38,-76 260.38,-76 260.38,-56.75 217.38,-56.75"/>
<text xml:space="preserve" text-anchor="middle" x="238.88" y="-62.5" font-family="Helvetica,sans-Serif" font-size="10.00">rexx.h</text>
</a>
</g>
</g>
<!-- Node2&#45;&gt;Node3 -->
<g id="edge2" class="edge">
<title>Node2&#45;&gt;Node3</title>
<path fill="none" stroke="midnightblue" d="M309.84,-112.67C296.92,-104.42 277.51,-92.03 262.25,-82.29"/>
<polygon fill="midnightblue" stroke="midnightblue" points="264.52,-79.59 254.21,-77.16 260.75,-85.49 264.52,-79.59"/>
</g>
<!-- Node8 -->
<g id="node8" class="node">
<title>Node8</title>
<g id="a_node8"><a xlink:href="oorexxerrors_8h.html" target="_top" xlink:title=" ">
<polygon fill="white" stroke="black" points="284.75,-56.75 284.75,-76 363,-76 363,-56.75 284.75,-56.75"/>
<text xml:space="preserve" text-anchor="middle" x="323.88" y="-62.5" font-family="Helvetica,sans-Serif" font-size="10.00">oorexxerrors.h</text>
</a>
</g>
</g>
<!-- Node2&#45;&gt;Node8 -->
<g id="edge7" class="edge">
<title>Node2&#45;&gt;Node8</title>
<path fill="none" stroke="midnightblue" d="M323.88,-112.67C323.88,-105.87 323.88,-96.26 323.88,-87.65"/>
<polygon fill="midnightblue" stroke="midnightblue" points="327.38,-87.68 323.88,-77.68 320.38,-87.68 327.38,-87.68"/>
</g>
<!-- Node4 -->
<g id="node4" class="node">
<title>Node4</title>
<g id="a_node4"><a xlink:title=" ">
<polygon fill="white" stroke="#bfbfbf" points="0,-0.5 0,-19.75 79.75,-19.75 79.75,-0.5 0,-0.5"/>
<text xml:space="preserve" text-anchor="middle" x="39.88" y="-6.25" font-family="Helvetica,sans-Serif" font-size="10.00">rexxapitypes.h</text>
</a>
</g>
</g>
<!-- Node3&#45;&gt;Node4 -->
<g id="edge3" class="edge">
<title>Node3&#45;&gt;Node4</title>
<path fill="none" stroke="midnightblue" d="M217.2,-59.47C185.36,-50.79 125.27,-34.41 83.93,-23.14"/>
<polygon fill="midnightblue" stroke="midnightblue" points="85.1,-19.83 74.53,-20.57 83.26,-26.58 85.1,-19.83"/>
</g>
<!-- Node5 -->
<g id="node5" class="node">
<title>Node5</title>
<g id="a_node5"><a xlink:href="rexxapidefs_8h.html" target="_top" xlink:title=" ">
<polygon fill="white" stroke="black" points="97.62,-0.5 97.62,-19.75 172.12,-19.75 172.12,-0.5 97.62,-0.5"/>
<text xml:space="preserve" text-anchor="middle" x="134.88" y="-6.25" font-family="Helvetica,sans-Serif" font-size="10.00">rexxapidefs.h</text>
</a>
</g>
</g>
<!-- Node3&#45;&gt;Node5 -->
<g id="edge4" class="edge">
<title>Node3&#45;&gt;Node5</title>
<path fill="none" stroke="midnightblue" d="M221.7,-56.42C205.52,-47.97 181.01,-35.19 162.15,-25.35"/>
<polygon fill="midnightblue" stroke="midnightblue" points="163.9,-22.32 153.42,-20.8 160.66,-28.52 163.9,-22.32"/>
</g>
<!-- Node6 -->
<g id="node6" class="node">
<title>Node6</title>
<g id="a_node6"><a xlink:title=" ">
<polygon fill="white" stroke="#bfbfbf" points="190.38,-0.5 190.38,-19.75 287.38,-19.75 287.38,-0.5 190.38,-0.5"/>
<text xml:space="preserve" text-anchor="middle" x="238.88" y="-6.25" font-family="Helvetica,sans-Serif" font-size="10.00">rexxplatformdefs.h</text>
</a>
</g>
</g>
<!-- Node3&#45;&gt;Node6 -->
<g id="edge5" class="edge">
<title>Node3&#45;&gt;Node6</title>
<path fill="none" stroke="midnightblue" d="M238.88,-56.42C238.88,-49.62 238.88,-40.01 238.88,-31.4"/>
<polygon fill="midnightblue" stroke="midnightblue" points="242.38,-31.43 238.88,-21.43 235.38,-31.43 242.38,-31.43"/>
</g>
<!-- Node7 -->
<g id="node7" class="node">
<title>Node7</title>
<g id="a_node7"><a xlink:title=" ">
<polygon fill="white" stroke="#bfbfbf" points="305.75,-0.5 305.75,-19.75 402,-19.75 402,-0.5 305.75,-0.5"/>
<text xml:space="preserve" text-anchor="middle" x="353.88" y="-6.25" font-family="Helvetica,sans-Serif" font-size="10.00">rexxplatformapis.h</text>
</a>
</g>
</g>
<!-- Node3&#45;&gt;Node7 -->
<g id="edge6" class="edge">
<title>Node3&#45;&gt;Node7</title>
<path fill="none" stroke="midnightblue" d="M258.12,-56.29C276.2,-47.77 303.51,-34.88 324.34,-25.06"/>
<polygon fill="midnightblue" stroke="midnightblue" points="325.64,-28.31 333.19,-20.88 322.66,-21.98 325.64,-28.31"/>
</g>
<!-- Node10 -->
<g id="node10" class="node">
<title>Node10</title>
<g id="a_node10"><a xlink:title=" ">
<polygon fill="white" stroke="#bfbfbf" points="420.12,-0.5 420.12,-19.75 521.62,-19.75 521.62,-0.5 420.12,-0.5"/>
<text xml:space="preserve" text-anchor="middle" x="470.88" y="-6.25" font-family="Helvetica,sans-Serif" font-size="10.00">SysFileSystem.hpp</text>
</a>
</g>
</g>
<!-- Node9&#45;&gt;Node10 -->
<g id="edge9" class="edge">
<title>Node9&#45;&gt;Node10</title>
<path fill="none" stroke="midnightblue" d="M451.82,-112.64C431.14,-101.03 401.5,-79.52 412.88,-56.25 419.07,-43.57 430.74,-33.43 442,-25.99"/>
<polygon fill="midnightblue" stroke="midnightblue" points="443.6,-29.12 450.34,-20.94 439.97,-23.13 443.6,-29.12"/>
</g>
<!-- Node11 -->
<g id="node11" class="node">
<title>Node11</title>
<g id="a_node11"><a xlink:title=" ">
<polygon fill="white" stroke="#bfbfbf" points="422,-56.75 422,-76 489.75,-76 489.75,-56.75 422,-56.75"/>
<text xml:space="preserve" text-anchor="middle" x="455.88" y="-62.5" font-family="Helvetica,sans-Serif" font-size="10.00">SysFile.hpp</text>
</a>
</g>
</g>
<!-- Node9&#45;&gt;Node11 -->
<g id="edge10" class="edge">
<title>Node9&#45;&gt;Node11</title>
<path fill="none" stroke="midnightblue" d="M467.56,-112.67C465.77,-105.71 463.21,-95.82 460.95,-87.05"/>
<polygon fill="midnightblue" stroke="midnightblue" points="464.41,-86.44 458.52,-77.63 457.63,-88.19 464.41,-86.44"/>
</g>
<!-- Node9&#45;&gt;Node12 -->
<g id="edge11" class="edge">
<title>Node9&#45;&gt;Node12</title>
<path fill="none" stroke="midnightblue" d="M484.57,-112.67C498.1,-104.42 518.43,-92.03 534.4,-82.29"/>
<polygon fill="midnightblue" stroke="midnightblue" points="536.15,-85.33 542.86,-77.13 532.5,-79.35 536.15,-85.33"/>
</g>
<!-- Node12&#45;&gt;Node10 -->
<g id="edge13" class="edge">
<title>Node12&#45;&gt;Node10</title>
<path fill="none" stroke="midnightblue" d="M544.34,-56.42C530.97,-48.17 510.87,-35.78 495.07,-26.04"/>
<polygon fill="midnightblue" stroke="midnightblue" points="497.07,-23.16 486.72,-20.89 493.39,-29.12 497.07,-23.16"/>
</g>
<!-- Node13 -->
<g id="node13" class="node">
<title>Node13</title>
<g id="a_node13"><a xlink:title=" ">
<polygon fill="white" stroke="#bfbfbf" points="539.25,-0.5 539.25,-19.75 584.5,-19.75 584.5,-0.5 539.25,-0.5"/>
<text xml:space="preserve" text-anchor="middle" x="561.88" y="-6.25" font-family="Helvetica,sans-Serif" font-size="10.00">cstring</text>
</a>
</g>
</g>
<!-- Node12&#45;&gt;Node13 -->
<g id="edge12" class="edge">
<title>Node12&#45;&gt;Node13</title>
<path fill="none" stroke="midnightblue" d="M559.37,-56.42C559.75,-49.62 560.28,-40.01 560.75,-31.4"/>
<polygon fill="midnightblue" stroke="midnightblue" points="564.25,-31.61 561.31,-21.43 557.26,-31.22 564.25,-31.61"/>
</g>
<!-- Node15 -->
<g id="node15" class="node">
<title>Node15</title>
<g id="a_node15"><a xlink:title=" ">
<polygon fill="white" stroke="#bfbfbf" points="628.25,-56.75 628.25,-76 673.5,-76 673.5,-56.75 628.25,-56.75"/>
<text xml:space="preserve" text-anchor="middle" x="650.88" y="-62.5" font-family="Helvetica,sans-Serif" font-size="10.00">cctype</text>
</a>
</g>
</g>
<!-- Node14&#45;&gt;Node15 -->
<g id="edge15" class="edge">
<title>Node14&#45;&gt;Node15</title>
<path fill="none" stroke="midnightblue" d="M650.88,-112.67C650.88,-105.87 650.88,-96.26 650.88,-87.65"/>
<polygon fill="midnightblue" stroke="midnightblue" points="654.38,-87.68 650.88,-77.68 647.38,-87.68 654.38,-87.68"/>
</g>
<!-- Node16 -->
<g id="node16" class="node">
<title>Node16</title>
<g id="a_node16"><a xlink:title=" ">
<polygon fill="white" stroke="#bfbfbf" points="691.75,-56.75 691.75,-76 740,-76 740,-56.75 691.75,-56.75"/>
<text xml:space="preserve" text-anchor="middle" x="715.88" y="-62.5" font-family="Helvetica,sans-Serif" font-size="10.00">ctype.h</text>
</a>
</g>
</g>
<!-- Node14&#45;&gt;Node16 -->
<g id="edge16" class="edge">
<title>Node14&#45;&gt;Node16</title>
<path fill="none" stroke="midnightblue" d="M661.61,-112.67C671.07,-104.77 685.1,-93.06 696.52,-83.53"/>
<polygon fill="midnightblue" stroke="midnightblue" points="698.74,-86.23 704.18,-77.14 694.26,-80.86 698.74,-86.23"/>
</g>
<!-- Node14&#45;&gt;Node17 -->
<g id="edge17" class="edge">
<title>Node14&#45;&gt;Node17</title>
<path fill="none" stroke="midnightblue" d="M674.48,-112.54C697.25,-103.78 731.97,-90.42 757.76,-80.5"/>
<polygon fill="midnightblue" stroke="midnightblue" points="758.71,-83.89 766.79,-77.03 756.2,-77.35 758.71,-83.89"/>
</g>
<!-- Node18 -->
<g id="node18" class="node">
<title>Node18</title>
<g id="a_node18"><a xlink:title=" ">
<polygon fill="white" stroke="#bfbfbf" points="758.38,-0.5 758.38,-19.75 825.38,-19.75 825.38,-0.5 758.38,-0.5"/>
<text xml:space="preserve" text-anchor="middle" x="791.88" y="-6.25" font-family="Helvetica,sans-Serif" font-size="10.00">sys/types.h</text>
</a>
</g>
</g>
<!-- Node17&#45;&gt;Node18 -->
<g id="edge18" class="edge">
<title>Node17&#45;&gt;Node18</title>
<path fill="none" stroke="midnightblue" d="M791.88,-56.42C791.88,-49.62 791.88,-40.01 791.88,-31.4"/>
<polygon fill="midnightblue" stroke="midnightblue" points="795.38,-31.43 791.88,-21.43 788.38,-31.43 795.38,-31.43"/>
</g>
</g>
</svg>
