<?xml version="1.0" encoding="UTF-8" standalone="no"?>
<!DOCTYPE svg PUBLIC "-//W3C//DTD SVG 1.1//EN"
 "http://www.w3.org/Graphics/SVG/1.1/DTD/svg11.dtd">
<!-- Generated by graphviz version 13.1.0 (20250701.0955)
 -->
<!-- Title: SupplierClass.cpp Pages: 1 -->
<!--zoomable 591 -->
<svg id="main" version="1.1" xmlns="http://www.w3.org/2000/svg" xmlns:xlink="http://www.w3.org/1999/xlink" xml:space="preserve" onload="init(evt)">
<style type="text/css"><![CDATA[
.edge:hover path { stroke: red; }
.edge:hover polygon { stroke: red; fill: red; }
]]></style>
<script type="text/javascript"><![CDATA[
var edges = document.getElementsByTagName('g');
if (edges && edges.length) {
  for (var i=0;i<edges.length;i++) {
    if (edges[i].id.substr(0,4)=='edge') {
      edges[i].setAttribute('class','edge');
    }
  }
}
]]></script>
        <defs>
                <circle id="rim" cx="0" cy="0" r="7"/>
                <circle id="rim2" cx="0" cy="0" r="3.5"/>
                <g id="zoomPlus">
                        <use xlink:href="#rim" fill="#404040">
                                <set attributeName="fill" to="#808080" begin="zoomplus.mouseover" end="zoomplus.mouseout"/>
                        </use>
                        <path d="M-4,0h8M0,-4v8" fill="none" stroke="white" stroke-width="1.5" pointer-events="none"/>
                </g>
                <g id="zoomMin">
                        <use xlink:href="#rim" fill="#404040">
                                <set attributeName="fill" to="#808080" begin="zoomminus.mouseover" end="zoomminus.mouseout"/>
                        </use>
                        <path d="M-4,0h8" fill="none" stroke="white" stroke-width="1.5" pointer-events="none"/>
                </g>
                <g id="dirArrow">
                        <path fill="none" stroke="white" stroke-width="1.5" d="M0,-3.0v7 M-2.5,-0.5L0,-3.0L2.5,-0.5"/>
                </g>
               <g id="resetDef">
                       <use xlink:href="#rim2" fill="#404040">
                               <set attributeName="fill" to="#808080" begin="reset.mouseover" end="reset.mouseout"/>
                       </use>
               </g>
        </defs>

<script type="text/javascript">
var viewWidth = 1693;
var viewHeight = 591;
var sectionId = 'dynsection-0';
</script>
<script xlink:href="svgpan.js"/>
<svg id="graph" class="graph">
<g id="viewport">
<title>SupplierClass.cpp</title>
<polygon fill="white" stroke="none" points="-4,4 -4,-586.75 1688.96,-586.75 1688.96,4 -4,4"/>
<!-- Node1 -->
<g id="node1" class="node">
<title>Node1</title>
<g id="a_node1"><a xlink:title=" ">
<polygon fill="#bfbfbf" stroke="black" points="1217.25,-563 1217.25,-582.25 1312.75,-582.25 1312.75,-563 1217.25,-563"/>
<text xml:space="preserve" text-anchor="middle" x="1265" y="-568.75" font-family="Helvetica,sans-Serif" font-size="10.00">SupplierClass.cpp</text>
</a>
</g>
</g>
<!-- Node2 -->
<g id="node2" class="node">
<title>Node2</title>
<g id="a_node2"><a xlink:href="_rexx_core_8h.html" target="_top" xlink:title=" ">
<polygon fill="white" stroke="black" points="780.75,-281.75 780.75,-301 849.25,-301 849.25,-281.75 780.75,-281.75"/>
<text xml:space="preserve" text-anchor="middle" x="815" y="-287.5" font-family="Helvetica,sans-Serif" font-size="10.00">RexxCore.h</text>
</a>
</g>
</g>
<!-- Node1&#45;&gt;Node2 -->
<g id="edge1" class="edge">
<title>Node1&#45;&gt;Node2</title>
<path fill="none" stroke="midnightblue" d="M1216.82,-568.99C1060.28,-559.8 576,-526.13 576,-461.12 576,-461.12 576,-461.12 576,-402.88 576,-372.49 573.53,-357.96 596,-337.5 620.91,-314.82 712.69,-302.15 769.23,-296.35"/>
<polygon fill="midnightblue" stroke="midnightblue" points="769.27,-299.86 778.87,-295.39 768.58,-292.89 769.27,-299.86"/>
</g>
<!-- Node36 -->
<g id="node22" class="node">
<title>Node36</title>
<g id="a_node22"><a xlink:href="_array_class_8hpp.html" target="_top" xlink:title=" ">
<polygon fill="white" stroke="black" points="32.25,-113 32.25,-132.25 115.75,-132.25 115.75,-113 32.25,-113"/>
<text xml:space="preserve" text-anchor="middle" x="74" y="-118.75" font-family="Helvetica,sans-Serif" font-size="10.00">ArrayClass.hpp</text>
</a>
</g>
</g>
<!-- Node1&#45;&gt;Node36 -->
<g id="edge40" class="edge">
<title>Node1&#45;&gt;Node36</title>
<path fill="none" stroke="midnightblue" d="M1216.96,-569.99C985.89,-561.84 0,-523.4 0,-461.12 0,-461.12 0,-461.12 0,-234.12 0,-195.34 31.87,-159.87 53.78,-140.07"/>
<polygon fill="midnightblue" stroke="midnightblue" points="56.02,-142.76 61.29,-133.57 51.44,-137.46 56.02,-142.76"/>
</g>
<!-- Node22 -->
<g id="node32" class="node">
<title>Node22</title>
<g id="a_node32"><a xlink:href="_integer_class_8hpp.html" target="_top" xlink:title=" ">
<polygon fill="white" stroke="black" points="1488.88,-450.5 1488.88,-469.75 1579.12,-469.75 1579.12,-450.5 1488.88,-450.5"/>
<text xml:space="preserve" text-anchor="middle" x="1534" y="-456.25" font-family="Helvetica,sans-Serif" font-size="10.00">IntegerClass.hpp</text>
</a>
</g>
</g>
<!-- Node1&#45;&gt;Node22 -->
<g id="edge38" class="edge">
<title>Node1&#45;&gt;Node22</title>
<path fill="none" stroke="midnightblue" d="M1270.04,-562.82C1278.71,-548.53 1297.86,-520.45 1322,-506.25 1369.59,-478.26 1432.27,-467.53 1477.11,-463.47"/>
<polygon fill="midnightblue" stroke="midnightblue" points="1477.2,-466.97 1486.88,-462.68 1476.63,-460 1477.2,-466.97"/>
</g>
<!-- Node47 -->
<g id="node33" class="node">
<title>Node47</title>
<g id="a_node33"><a xlink:href="_supplier_class_8hpp.html" target="_top" xlink:title=" ">
<polygon fill="white" stroke="black" points="1331.25,-506.75 1331.25,-526 1426.75,-526 1426.75,-506.75 1331.25,-506.75"/>
<text xml:space="preserve" text-anchor="middle" x="1379" y="-512.5" font-family="Helvetica,sans-Serif" font-size="10.00">SupplierClass.hpp</text>
</a>
</g>
</g>
<!-- Node1&#45;&gt;Node47 -->
<g id="edge41" class="edge">
<title>Node1&#45;&gt;Node47</title>
<path fill="none" stroke="midnightblue" d="M1284.08,-562.54C1302,-554.02 1329.07,-541.13 1349.72,-531.31"/>
<polygon fill="midnightblue" stroke="midnightblue" points="1350.96,-534.59 1358.49,-527.14 1347.96,-528.27 1350.96,-534.59"/>
</g>
<!-- Node48 -->
<g id="node34" class="node">
<title>Node48</title>
<g id="a_node34"><a xlink:href="_activity_manager_8hpp.html" target="_top" xlink:title=" ">
<polygon fill="white" stroke="black" points="1212.75,-450.5 1212.75,-469.75 1317.25,-469.75 1317.25,-450.5 1212.75,-450.5"/>
<text xml:space="preserve" text-anchor="middle" x="1265" y="-456.25" font-family="Helvetica,sans-Serif" font-size="10.00">ActivityManager.hpp</text>
</a>
</g>
</g>
<!-- Node1&#45;&gt;Node48 -->
<g id="edge42" class="edge">
<title>Node1&#45;&gt;Node48</title>
<path fill="none" stroke="midnightblue" d="M1265,-562.58C1265,-544.93 1265,-505.5 1265,-481.33"/>
<polygon fill="midnightblue" stroke="midnightblue" points="1268.5,-481.5 1265,-471.5 1261.5,-481.5 1268.5,-481.5"/>
</g>
<!-- Node76 -->
<g id="node49" class="node">
<title>Node76</title>
<g id="a_node49"><a xlink:href="_protected_object_8hpp.html" target="_top" xlink:title=" ">
<polygon fill="white" stroke="black" points="1444.38,-506.75 1444.38,-526 1549.62,-526 1549.62,-506.75 1444.38,-506.75"/>
<text xml:space="preserve" text-anchor="middle" x="1497" y="-512.5" font-family="Helvetica,sans-Serif" font-size="10.00">ProtectedObject.hpp</text>
</a>
</g>
</g>
<!-- Node1&#45;&gt;Node76 -->
<g id="edge64" class="edge">
<title>Node1&#45;&gt;Node76</title>
<path fill="none" stroke="midnightblue" d="M1303.83,-562.54C1343.14,-553.35 1404.1,-539.1 1447,-529.07"/>
<polygon fill="midnightblue" stroke="midnightblue" points="1447.63,-532.51 1456.57,-526.83 1446.03,-525.7 1447.63,-532.51"/>
</g>
<!-- Node77 -->
<g id="node50" class="node">
<title>Node77</title>
<g id="a_node50"><a xlink:href="_method_arguments_8hpp.html" target="_top" xlink:title=" ">
<polygon fill="white" stroke="black" points="1122.88,-506.75 1122.88,-526 1237.12,-526 1237.12,-506.75 1122.88,-506.75"/>
<text xml:space="preserve" text-anchor="middle" x="1180" y="-512.5" font-family="Helvetica,sans-Serif" font-size="10.00">MethodArguments.hpp</text>
</a>
</g>
</g>
<!-- Node1&#45;&gt;Node77 -->
<g id="edge65" class="edge">
<title>Node1&#45;&gt;Node77</title>
<path fill="none" stroke="midnightblue" d="M1250.96,-562.67C1238.04,-554.42 1218.63,-542.03 1203.37,-532.29"/>
<polygon fill="midnightblue" stroke="midnightblue" points="1205.65,-529.59 1195.33,-527.16 1201.88,-535.49 1205.65,-529.59"/>
</g>
<!-- Node3 -->
<g id="node3" class="node">
<title>Node3</title>
<g id="a_node3"><a xlink:href="oorexxapi_8h.html" target="_top" xlink:title=" ">
<polygon fill="white" stroke="black" points="928.88,-225.5 928.88,-244.75 995.12,-244.75 995.12,-225.5 928.88,-225.5"/>
<text xml:space="preserve" text-anchor="middle" x="962" y="-231.25" font-family="Helvetica,sans-Serif" font-size="10.00">oorexxapi.h</text>
</a>
</g>
</g>
<!-- Node2&#45;&gt;Node3 -->
<g id="edge2" class="edge">
<title>Node2&#45;&gt;Node3</title>
<path fill="none" stroke="midnightblue" d="M839.6,-281.29C863.45,-272.49 899.87,-259.05 926.79,-249.12"/>
<polygon fill="midnightblue" stroke="midnightblue" points="927.73,-252.5 935.9,-245.76 925.3,-245.94 927.73,-252.5"/>
</g>
<!-- Node10 -->
<g id="node6" class="node">
<title>Node10</title>
<g id="a_node6"><a xlink:title=" ">
<polygon fill="white" stroke="#bfbfbf" points="612.25,-225.5 612.25,-244.75 719.75,-244.75 719.75,-225.5 612.25,-225.5"/>
<text xml:space="preserve" text-anchor="middle" x="666" y="-231.25" font-family="Helvetica,sans-Serif" font-size="10.00">PlatformDefinitions.h</text>
</a>
</g>
</g>
<!-- Node2&#45;&gt;Node10 -->
<g id="edge5" class="edge">
<title>Node2&#45;&gt;Node10</title>
<path fill="none" stroke="midnightblue" d="M790.06,-281.29C765.89,-272.49 728.97,-259.05 701.69,-249.12"/>
<polygon fill="midnightblue" stroke="midnightblue" points="703.04,-245.89 692.44,-245.75 700.64,-252.46 703.04,-245.89"/>
</g>
<!-- Node11 -->
<g id="node7" class="node">
<title>Node11</title>
<g id="a_node7"><a xlink:href="_class_type_codes_8h.html" target="_top" xlink:title=" ">
<polygon fill="white" stroke="black" points="188.38,-113 188.38,-132.25 287.62,-132.25 287.62,-113 188.38,-113"/>
<text xml:space="preserve" text-anchor="middle" x="238" y="-118.75" font-family="Helvetica,sans-Serif" font-size="10.00">ClassTypeCodes.h</text>
</a>
</g>
</g>
<!-- Node2&#45;&gt;Node11 -->
<g id="edge6" class="edge">
<title>Node2&#45;&gt;Node11</title>
<path fill="none" stroke="midnightblue" d="M780.5,-290.37C661.95,-289.54 274.49,-279.8 201,-189 188.65,-173.75 203.6,-153.84 218.03,-140.02"/>
<polygon fill="midnightblue" stroke="midnightblue" points="220,-142.95 225.12,-133.67 215.33,-137.73 220,-142.95"/>
</g>
<!-- Node12 -->
<g id="node8" class="node">
<title>Node12</title>
<g id="a_node8"><a xlink:href="_object_class_8hpp.html" target="_top" xlink:title=" ">
<polygon fill="white" stroke="black" points="1166.62,-225.5 1166.62,-244.75 1255.38,-244.75 1255.38,-225.5 1166.62,-225.5"/>
<text xml:space="preserve" text-anchor="middle" x="1211" y="-231.25" font-family="Helvetica,sans-Serif" font-size="10.00">ObjectClass.hpp</text>
</a>
</g>
</g>
<!-- Node2&#45;&gt;Node12 -->
<g id="edge7" class="edge">
<title>Node2&#45;&gt;Node12</title>
<path fill="none" stroke="midnightblue" d="M849.45,-285.66C917.92,-276.28 1071.69,-255.21 1154.93,-243.81"/>
<polygon fill="midnightblue" stroke="midnightblue" points="1155.25,-247.29 1164.69,-242.47 1154.3,-240.36 1155.25,-247.29"/>
</g>
<!-- Node18 -->
<g id="node14" class="node">
<title>Node18</title>
<g id="a_node14"><a xlink:href="_table_class_8hpp.html" target="_top" xlink:title=" ">
<polygon fill="white" stroke="black" points="738.25,-225.5 738.25,-244.75 821.75,-244.75 821.75,-225.5 738.25,-225.5"/>
<text xml:space="preserve" text-anchor="middle" x="780" y="-231.25" font-family="Helvetica,sans-Serif" font-size="10.00">TableClass.hpp</text>
</a>
</g>
</g>
<!-- Node2&#45;&gt;Node18 -->
<g id="edge14" class="edge">
<title>Node2&#45;&gt;Node18</title>
<path fill="none" stroke="midnightblue" d="M809.22,-281.42C804.48,-274.07 797.62,-263.43 791.73,-254.31"/>
<polygon fill="midnightblue" stroke="midnightblue" points="794.85,-252.69 786.49,-246.19 788.97,-256.49 794.85,-252.69"/>
</g>
<!-- Node30 -->
<g id="node16" class="node">
<title>Node30</title>
<g id="a_node16"><a xlink:href="_rexx_memory_8hpp.html" target="_top" xlink:title=" ">
<polygon fill="white" stroke="black" points="474.12,-225.5 474.12,-244.75 565.88,-244.75 565.88,-225.5 474.12,-225.5"/>
<text xml:space="preserve" text-anchor="middle" x="520" y="-231.25" font-family="Helvetica,sans-Serif" font-size="10.00">RexxMemory.hpp</text>
</a>
</g>
</g>
<!-- Node2&#45;&gt;Node30 -->
<g id="edge16" class="edge">
<title>Node2&#45;&gt;Node30</title>
<path fill="none" stroke="midnightblue" d="M780.29,-283.99C730.36,-274.81 637.64,-257.76 577.4,-246.68"/>
<polygon fill="midnightblue" stroke="midnightblue" points="578.14,-243.26 567.67,-244.89 576.87,-250.14 578.14,-243.26"/>
</g>
<!-- Node44 -->
<g id="node27" class="node">
<title>Node44</title>
<g id="a_node27"><a xlink:href="_rexx_behaviour_8hpp.html" target="_top" xlink:title=" ">
<polygon fill="white" stroke="black" points="1287.62,-225.5 1287.62,-244.75 1388.38,-244.75 1388.38,-225.5 1287.62,-225.5"/>
<text xml:space="preserve" text-anchor="middle" x="1338" y="-231.25" font-family="Helvetica,sans-Serif" font-size="10.00">RexxBehaviour.hpp</text>
</a>
</g>
</g>
<!-- Node2&#45;&gt;Node44 -->
<g id="edge32" class="edge">
<title>Node2&#45;&gt;Node44</title>
<path fill="none" stroke="midnightblue" d="M849.67,-287.16C925.09,-280.1 1109.65,-262.52 1264,-245.25 1268.03,-244.8 1272.19,-244.32 1276.37,-243.83"/>
<polygon fill="midnightblue" stroke="midnightblue" points="1276.44,-247.35 1285.96,-242.69 1275.62,-240.4 1276.44,-247.35"/>
</g>
<!-- Node23 -->
<g id="node30" class="node">
<title>Node23</title>
<g id="a_node30"><a xlink:href="_class_class_8hpp.html" target="_top" xlink:title=" ">
<polygon fill="white" stroke="black" points="1586.12,-225.5 1586.12,-244.75 1671.88,-244.75 1671.88,-225.5 1586.12,-225.5"/>
<text xml:space="preserve" text-anchor="middle" x="1629" y="-231.25" font-family="Helvetica,sans-Serif" font-size="10.00">ClassClass.hpp</text>
</a>
</g>
</g>
<!-- Node2&#45;&gt;Node23 -->
<g id="edge35" class="edge">
<title>Node2&#45;&gt;Node23</title>
<path fill="none" stroke="midnightblue" d="M849.72,-288.06C977.16,-279.57 1419.89,-250.06 1574.89,-239.73"/>
<polygon fill="midnightblue" stroke="midnightblue" points="1574.72,-243.25 1584.47,-239.09 1574.26,-236.27 1574.72,-243.25"/>
</g>
<!-- Node46 -->
<g id="node31" class="node">
<title>Node46</title>
<g id="a_node31"><a xlink:href="_envelope_8hpp.html" target="_top" xlink:title=" ">
<polygon fill="white" stroke="black" points="1013.38,-225.5 1013.38,-244.75 1088.62,-244.75 1088.62,-225.5 1013.38,-225.5"/>
<text xml:space="preserve" text-anchor="middle" x="1051" y="-231.25" font-family="Helvetica,sans-Serif" font-size="10.00">Envelope.hpp</text>
</a>
</g>
</g>
<!-- Node2&#45;&gt;Node46 -->
<g id="edge37" class="edge">
<title>Node2&#45;&gt;Node46</title>
<path fill="none" stroke="midnightblue" d="M849.57,-282.43C889.82,-273.18 956.58,-257.83 1002.12,-247.36"/>
<polygon fill="midnightblue" stroke="midnightblue" points="1002.78,-250.8 1011.74,-245.15 1001.21,-243.98 1002.78,-250.8"/>
</g>
<!-- Node4 -->
<g id="node4" class="node">
<title>Node4</title>
<g id="a_node4"><a xlink:href="rexx_8h.html" target="_top" xlink:title=" ">
<polygon fill="white" stroke="red" points="991.5,-169.25 991.5,-188.5 1034.5,-188.5 1034.5,-169.25 991.5,-169.25"/>
<text xml:space="preserve" text-anchor="middle" x="1013" y="-175" font-family="Helvetica,sans-Serif" font-size="10.00">rexx.h</text>
</a>
</g>
</g>
<!-- Node3&#45;&gt;Node4 -->
<g id="edge3" class="edge">
<title>Node3&#45;&gt;Node4</title>
<path fill="none" stroke="midnightblue" d="M970.42,-225.17C977.63,-217.5 988.19,-206.26 997,-196.89"/>
<polygon fill="midnightblue" stroke="midnightblue" points="999.4,-199.45 1003.7,-189.77 994.3,-194.66 999.4,-199.45"/>
</g>
<!-- Node9 -->
<g id="node5" class="node">
<title>Node9</title>
<g id="a_node5"><a xlink:href="oorexxerrors_8h.html" target="_top" xlink:title=" ">
<polygon fill="white" stroke="black" points="1052.88,-169.25 1052.88,-188.5 1131.12,-188.5 1131.12,-169.25 1052.88,-169.25"/>
<text xml:space="preserve" text-anchor="middle" x="1092" y="-175" font-family="Helvetica,sans-Serif" font-size="10.00">oorexxerrors.h</text>
</a>
</g>
</g>
<!-- Node3&#45;&gt;Node9 -->
<g id="edge4" class="edge">
<title>Node3&#45;&gt;Node9</title>
<path fill="none" stroke="midnightblue" d="M983.76,-225.04C1004.48,-216.4 1035.92,-203.28 1059.58,-193.4"/>
<polygon fill="midnightblue" stroke="midnightblue" points="1060.89,-196.65 1068.77,-189.57 1058.2,-190.19 1060.89,-196.65"/>
</g>
<!-- Node13 -->
<g id="node9" class="node">
<title>Node13</title>
<g id="a_node9"><a xlink:title=" ">
<polygon fill="white" stroke="#bfbfbf" points="1149,-169.25 1149,-188.5 1183,-188.5 1183,-169.25 1149,-169.25"/>
<text xml:space="preserve" text-anchor="middle" x="1166" y="-175" font-family="Helvetica,sans-Serif" font-size="10.00">new</text>
</a>
</g>
</g>
<!-- Node12&#45;&gt;Node13 -->
<g id="edge8" class="edge">
<title>Node12&#45;&gt;Node13</title>
<path fill="none" stroke="midnightblue" d="M1203.57,-225.17C1197.34,-217.66 1188.27,-206.72 1180.6,-197.48"/>
<polygon fill="midnightblue" stroke="midnightblue" points="1183.34,-195.29 1174.26,-189.83 1177.95,-199.76 1183.34,-195.29"/>
</g>
<!-- Node14 -->
<g id="node10" class="node">
<title>Node14</title>
<g id="a_node10"><a xlink:title=" ">
<polygon fill="white" stroke="#bfbfbf" points="1172.88,-113 1172.88,-132.25 1221.12,-132.25 1221.12,-113 1172.88,-113"/>
<text xml:space="preserve" text-anchor="middle" x="1197" y="-118.75" font-family="Helvetica,sans-Serif" font-size="10.00">string.h</text>
</a>
</g>
</g>
<!-- Node12&#45;&gt;Node14 -->
<g id="edge9" class="edge">
<title>Node12&#45;&gt;Node14</title>
<path fill="none" stroke="midnightblue" d="M1209.85,-225.08C1207.62,-207.43 1202.62,-168 1199.56,-143.83"/>
<polygon fill="midnightblue" stroke="midnightblue" points="1203.04,-143.47 1198.31,-133.99 1196.1,-144.35 1203.04,-143.47"/>
</g>
<!-- Node15 -->
<g id="node11" class="node">
<title>Node15</title>
<g id="a_node11"><a xlink:href="_numerics_8hpp.html" target="_top" xlink:title=" ">
<polygon fill="white" stroke="black" points="811.62,-56.75 811.62,-76 888.38,-76 888.38,-56.75 811.62,-56.75"/>
<text xml:space="preserve" text-anchor="middle" x="850" y="-62.5" font-family="Helvetica,sans-Serif" font-size="10.00">Numerics.hpp</text>
</a>
</g>
</g>
<!-- Node12&#45;&gt;Node15 -->
<g id="edge10" class="edge">
<title>Node12&#45;&gt;Node15</title>
<path fill="none" stroke="midnightblue" d="M1216.62,-225.14C1229.7,-202.97 1258.95,-145.1 1230,-112.5 1208.43,-88.22 998.08,-74.7 899.95,-69.67"/>
<polygon fill="midnightblue" stroke="midnightblue" points="900.23,-66.18 890.07,-69.18 899.88,-73.17 900.23,-66.18"/>
</g>
<!-- Node17 -->
<g id="node13" class="node">
<title>Node17</title>
<g id="a_node13"><a xlink:href="_rexx_error_codes_8h.html" target="_top" xlink:title=" ">
<polygon fill="white" stroke="black" points="1432.5,-169.25 1432.5,-188.5 1529.5,-188.5 1529.5,-169.25 1432.5,-169.25"/>
<text xml:space="preserve" text-anchor="middle" x="1481" y="-175" font-family="Helvetica,sans-Serif" font-size="10.00">RexxErrorCodes.h</text>
</a>
</g>
</g>
<!-- Node12&#45;&gt;Node17 -->
<g id="edge13" class="edge">
<title>Node12&#45;&gt;Node17</title>
<path fill="none" stroke="midnightblue" d="M1255.59,-225.17C1301.95,-215.85 1374.66,-201.24 1424.91,-191.15"/>
<polygon fill="midnightblue" stroke="midnightblue" points="1425.3,-194.64 1434.41,-189.24 1423.92,-187.77 1425.3,-194.64"/>
</g>
<!-- Node15&#45;&gt;Node2 -->
<g id="edge12" class="edge">
<title>Node15&#45;&gt;Node2</title>
<path fill="none" stroke="midnightblue" d="M849.78,-76.38C848.98,-102.7 845.46,-181.65 831,-245.25 829.04,-253.86 825.95,-263.1 823.01,-270.96"/>
<polygon fill="midnightblue" stroke="midnightblue" points="819.79,-269.57 819.37,-280.16 826.3,-272.15 819.79,-269.57"/>
</g>
<!-- Node16 -->
<g id="node12" class="node">
<title>Node16</title>
<g id="a_node12"><a xlink:title=" ">
<polygon fill="white" stroke="#bfbfbf" points="822.12,-0.5 822.12,-19.75 877.88,-19.75 877.88,-0.5 822.12,-0.5"/>
<text xml:space="preserve" text-anchor="middle" x="850" y="-6.25" font-family="Helvetica,sans-Serif" font-size="10.00">algorithm</text>
</a>
</g>
</g>
<!-- Node15&#45;&gt;Node16 -->
<g id="edge11" class="edge">
<title>Node15&#45;&gt;Node16</title>
<path fill="none" stroke="midnightblue" d="M850,-56.42C850,-49.62 850,-40.01 850,-31.4"/>
<polygon fill="midnightblue" stroke="midnightblue" points="853.5,-31.43 850,-21.43 846.5,-31.43 853.5,-31.43"/>
</g>
<!-- Node19 -->
<g id="node15" class="node">
<title>Node19</title>
<g id="a_node15"><a xlink:href="_hash_collection_8hpp.html" target="_top" xlink:title=" ">
<polygon fill="white" stroke="red" points="697.25,-113 697.25,-132.25 798.75,-132.25 798.75,-113 697.25,-113"/>
<text xml:space="preserve" text-anchor="middle" x="748" y="-118.75" font-family="Helvetica,sans-Serif" font-size="10.00">HashCollection.hpp</text>
</a>
</g>
</g>
<!-- Node18&#45;&gt;Node19 -->
<g id="edge15" class="edge">
<title>Node18&#45;&gt;Node19</title>
<path fill="none" stroke="midnightblue" d="M784.86,-225.35C791.3,-212.5 800.96,-188 793,-168.75 788.29,-157.37 779.17,-147.35 770.36,-139.66"/>
<polygon fill="midnightblue" stroke="midnightblue" points="772.66,-137.02 762.68,-133.49 768.28,-142.48 772.66,-137.02"/>
</g>
<!-- Node31 -->
<g id="node17" class="node">
<title>Node31</title>
<g id="a_node17"><a xlink:href="_memory_8hpp.html" target="_top" xlink:title=" ">
<polygon fill="white" stroke="black" points="444.75,-113 444.75,-132.25 513.25,-132.25 513.25,-113 444.75,-113"/>
<text xml:space="preserve" text-anchor="middle" x="479" y="-118.75" font-family="Helvetica,sans-Serif" font-size="10.00">Memory.hpp</text>
</a>
</g>
</g>
<!-- Node30&#45;&gt;Node31 -->
<g id="edge17" class="edge">
<title>Node30&#45;&gt;Node31</title>
<path fill="none" stroke="midnightblue" d="M517.89,-225.08C514.8,-212.32 508.57,-188.38 501,-168.75 497.59,-159.91 493.1,-150.43 489.08,-142.46"/>
<polygon fill="midnightblue" stroke="midnightblue" points="492.27,-141.01 484.54,-133.76 486.06,-144.24 492.27,-141.01"/>
</g>
<!-- Node32 -->
<g id="node18" class="node">
<title>Node32</title>
<g id="a_node18"><a xlink:href="_memory_stack_8hpp.html" target="_top" xlink:title=" ">
<polygon fill="white" stroke="black" points="878.25,-169.25 878.25,-188.5 973.75,-188.5 973.75,-169.25 878.25,-169.25"/>
<text xml:space="preserve" text-anchor="middle" x="926" y="-175" font-family="Helvetica,sans-Serif" font-size="10.00">MemoryStack.hpp</text>
</a>
</g>
</g>
<!-- Node30&#45;&gt;Node32 -->
<g id="edge18" class="edge">
<title>Node30&#45;&gt;Node32</title>
<path fill="none" stroke="midnightblue" d="M566.18,-227.95C640.22,-218.06 785.42,-198.66 866.92,-187.77"/>
<polygon fill="midnightblue" stroke="midnightblue" points="867.03,-191.29 876.48,-186.49 866.1,-184.35 867.03,-191.29"/>
</g>
<!-- Node33 -->
<g id="node19" class="node">
<title>Node33</title>
<g id="a_node19"><a xlink:title=" ">
<polygon fill="white" stroke="#bfbfbf" points="548.25,-169.25 548.25,-188.5 649.75,-188.5 649.75,-169.25 548.25,-169.25"/>
<text xml:space="preserve" text-anchor="middle" x="599" y="-175" font-family="Helvetica,sans-Serif" font-size="10.00">SysSemaphore.hpp</text>
</a>
</g>
</g>
<!-- Node30&#45;&gt;Node33 -->
<g id="edge20" class="edge">
<title>Node30&#45;&gt;Node33</title>
<path fill="none" stroke="midnightblue" d="M533.05,-225.17C544.82,-217.08 562.41,-205 576.46,-195.35"/>
<polygon fill="midnightblue" stroke="midnightblue" points="578.43,-198.25 584.69,-189.7 574.46,-192.48 578.43,-198.25"/>
</g>
<!-- Node34 -->
<g id="node20" class="node">
<title>Node34</title>
<g id="a_node20"><a xlink:href="_identity_table_class_8hpp.html" target="_top" xlink:title=" ">
<polygon fill="white" stroke="black" points="668.12,-169.25 668.12,-188.5 783.88,-188.5 783.88,-169.25 668.12,-169.25"/>
<text xml:space="preserve" text-anchor="middle" x="726" y="-175" font-family="Helvetica,sans-Serif" font-size="10.00">IdentityTableClass.hpp</text>
</a>
</g>
</g>
<!-- Node30&#45;&gt;Node34 -->
<g id="edge21" class="edge">
<title>Node30&#45;&gt;Node34</title>
<path fill="none" stroke="midnightblue" d="M554.48,-225.04C589.09,-215.93 642.59,-201.84 680.63,-191.82"/>
<polygon fill="midnightblue" stroke="midnightblue" points="681.17,-195.3 689.94,-189.37 679.38,-188.53 681.17,-195.3"/>
</g>
<!-- Node35 -->
<g id="node21" class="node">
<title>Node35</title>
<g id="a_node21"><a xlink:href="_queue_class_8hpp.html" target="_top" xlink:title=" ">
<polygon fill="white" stroke="black" points="65.62,-169.25 65.62,-188.5 154.38,-188.5 154.38,-169.25 65.62,-169.25"/>
<text xml:space="preserve" text-anchor="middle" x="110" y="-175" font-family="Helvetica,sans-Serif" font-size="10.00">QueueClass.hpp</text>
</a>
</g>
</g>
<!-- Node30&#45;&gt;Node35 -->
<g id="edge23" class="edge">
<title>Node30&#45;&gt;Node35</title>
<path fill="none" stroke="midnightblue" d="M473.76,-228.01C398.04,-217.99 247.83,-198.11 166.12,-187.3"/>
<polygon fill="midnightblue" stroke="midnightblue" points="166.69,-183.85 156.32,-186 165.77,-190.79 166.69,-183.85"/>
</g>
<!-- Node38 -->
<g id="node24" class="node">
<title>Node38</title>
<g id="a_node24"><a xlink:title=" ">
<polygon fill="white" stroke="#bfbfbf" points="321.5,-169.25 321.5,-188.5 364.5,-188.5 364.5,-169.25 321.5,-169.25"/>
<text xml:space="preserve" text-anchor="middle" x="343" y="-175" font-family="Helvetica,sans-Serif" font-size="10.00">vector</text>
</a>
</g>
</g>
<!-- Node30&#45;&gt;Node38 -->
<g id="edge27" class="edge">
<title>Node30&#45;&gt;Node38</title>
<path fill="none" stroke="midnightblue" d="M490.37,-225.04C458.68,-215.33 408.56,-199.97 375.72,-189.9"/>
<polygon fill="midnightblue" stroke="midnightblue" points="376.92,-186.61 366.33,-187.03 374.87,-193.3 376.92,-186.61"/>
</g>
<!-- Node39 -->
<g id="node25" class="node">
<title>Node39</title>
<g id="a_node25"><a xlink:href="_memory_stats_8hpp.html" target="_top" xlink:title=" ">
<polygon fill="white" stroke="black" points="210.38,-169.25 210.38,-188.5 303.62,-188.5 303.62,-169.25 210.38,-169.25"/>
<text xml:space="preserve" text-anchor="middle" x="257" y="-175" font-family="Helvetica,sans-Serif" font-size="10.00">MemoryStats.hpp</text>
</a>
</g>
</g>
<!-- Node30&#45;&gt;Node39 -->
<g id="edge28" class="edge">
<title>Node30&#45;&gt;Node39</title>
<path fill="none" stroke="midnightblue" d="M475.98,-225.04C430.94,-215.75 360.84,-201.29 312.13,-191.25"/>
<polygon fill="midnightblue" stroke="midnightblue" points="313.15,-187.88 302.65,-189.29 311.73,-194.74 313.15,-187.88"/>
</g>
<!-- Node40 -->
<g id="node26" class="node">
<title>Node40</title>
<g id="a_node26"><a xlink:href="_memory_segment_8hpp.html" target="_top" xlink:title=" ">
<polygon fill="white" stroke="red" points="382.5,-169.25 382.5,-188.5 491.5,-188.5 491.5,-169.25 382.5,-169.25"/>
<text xml:space="preserve" text-anchor="middle" x="437" y="-175" font-family="Helvetica,sans-Serif" font-size="10.00">MemorySegment.hpp</text>
</a>
</g>
</g>
<!-- Node30&#45;&gt;Node40 -->
<g id="edge30" class="edge">
<title>Node30&#45;&gt;Node40</title>
<path fill="none" stroke="midnightblue" d="M506.29,-225.17C493.8,-217 475.08,-204.77 460.25,-195.07"/>
<polygon fill="midnightblue" stroke="midnightblue" points="462.28,-192.22 451.99,-189.67 458.45,-198.08 462.28,-192.22"/>
</g>
<!-- Node32&#45;&gt;Node14 -->
<g id="edge19" class="edge">
<title>Node32&#45;&gt;Node14</title>
<path fill="none" stroke="midnightblue" d="M971.36,-168.79C1024.81,-158.09 1112.52,-140.54 1161.35,-130.76"/>
<polygon fill="midnightblue" stroke="midnightblue" points="1161.99,-134.2 1171.11,-128.81 1160.62,-127.34 1161.99,-134.2"/>
</g>
<!-- Node34&#45;&gt;Node19 -->
<g id="edge22" class="edge">
<title>Node34&#45;&gt;Node19</title>
<path fill="none" stroke="midnightblue" d="M729.63,-168.92C732.48,-161.89 736.56,-151.84 740.14,-143"/>
<polygon fill="midnightblue" stroke="midnightblue" points="743.35,-144.4 743.87,-133.82 736.86,-141.77 743.35,-144.4"/>
</g>
<!-- Node35&#45;&gt;Node36 -->
<g id="edge24" class="edge">
<title>Node35&#45;&gt;Node36</title>
<path fill="none" stroke="midnightblue" d="M104.06,-168.92C99.18,-161.57 92.12,-150.93 86.07,-141.81"/>
<polygon fill="midnightblue" stroke="midnightblue" points="89.12,-140.07 80.67,-133.68 83.28,-143.95 89.12,-140.07"/>
</g>
<!-- Node36&#45;&gt;Node15 -->
<g id="edge26" class="edge">
<title>Node36&#45;&gt;Node15</title>
<path fill="none" stroke="midnightblue" d="M116.13,-117.77C135.31,-116.07 158.29,-114.1 179,-112.5 411.17,-94.61 688.85,-77.2 800.21,-70.39"/>
<polygon fill="midnightblue" stroke="midnightblue" points="800.12,-73.9 809.89,-69.8 799.7,-66.91 800.12,-73.9"/>
</g>
<!-- Node37 -->
<g id="node23" class="node">
<title>Node37</title>
<g id="a_node23"><a xlink:href="_number_array_8hpp.html" target="_top" xlink:title=" ">
<polygon fill="white" stroke="black" points="28.5,-56.75 28.5,-76 119.5,-76 119.5,-56.75 28.5,-56.75"/>
<text xml:space="preserve" text-anchor="middle" x="74" y="-62.5" font-family="Helvetica,sans-Serif" font-size="10.00">NumberArray.hpp</text>
</a>
</g>
</g>
<!-- Node36&#45;&gt;Node37 -->
<g id="edge25" class="edge">
<title>Node36&#45;&gt;Node37</title>
<path fill="none" stroke="midnightblue" d="M74,-112.67C74,-105.87 74,-96.26 74,-87.65"/>
<polygon fill="midnightblue" stroke="midnightblue" points="77.5,-87.68 74,-77.68 70.5,-87.68 77.5,-87.68"/>
</g>
<!-- Node39&#45;&gt;Node11 -->
<g id="edge29" class="edge">
<title>Node39&#45;&gt;Node11</title>
<path fill="none" stroke="midnightblue" d="M253.86,-168.92C251.4,-161.89 247.88,-151.84 244.78,-143"/>
<polygon fill="midnightblue" stroke="midnightblue" points="248.19,-142.13 241.58,-133.85 241.58,-144.44 248.19,-142.13"/>
</g>
<!-- Node40&#45;&gt;Node31 -->
<g id="edge31" class="edge">
<title>Node40&#45;&gt;Node31</title>
<path fill="none" stroke="midnightblue" d="M443.94,-168.92C449.68,-161.49 458.04,-150.7 465.15,-141.52"/>
<polygon fill="midnightblue" stroke="midnightblue" points="467.91,-143.66 471.27,-133.61 462.38,-139.38 467.91,-143.66"/>
</g>
<!-- Node24 -->
<g id="node28" class="node">
<title>Node24</title>
<g id="a_node28"><a xlink:href="_flag_set_8hpp.html" target="_top" xlink:title=" ">
<polygon fill="white" stroke="red" points="1594.75,-169.25 1594.75,-188.5 1663.25,-188.5 1663.25,-169.25 1594.75,-169.25"/>
<text xml:space="preserve" text-anchor="middle" x="1629" y="-175" font-family="Helvetica,sans-Serif" font-size="10.00">FlagSet.hpp</text>
</a>
</g>
</g>
<!-- Node44&#45;&gt;Node24 -->
<g id="edge33" class="edge">
<title>Node44&#45;&gt;Node24</title>
<path fill="none" stroke="midnightblue" d="M1386.71,-225.04C1441.42,-214.84 1529.57,-198.41 1583.11,-188.43"/>
<polygon fill="midnightblue" stroke="midnightblue" points="1583.63,-191.89 1592.82,-186.62 1582.35,-185.01 1583.63,-191.89"/>
</g>
<!-- Node45 -->
<g id="node29" class="node">
<title>Node45</title>
<g id="a_node29"><a xlink:href="_primitive_behaviour_names_8h.html" target="_top" xlink:title=" ">
<polygon fill="white" stroke="black" points="1277.25,-169.25 1277.25,-188.5 1414.75,-188.5 1414.75,-169.25 1277.25,-169.25"/>
<text xml:space="preserve" text-anchor="middle" x="1346" y="-175" font-family="Helvetica,sans-Serif" font-size="10.00">PrimitiveBehaviourNames.h</text>
</a>
</g>
</g>
<!-- Node44&#45;&gt;Node45 -->
<g id="edge34" class="edge">
<title>Node44&#45;&gt;Node45</title>
<path fill="none" stroke="midnightblue" d="M1339.32,-225.17C1340.33,-218.29 1341.77,-208.54 1343.06,-199.85"/>
<polygon fill="midnightblue" stroke="midnightblue" points="1346.49,-200.57 1344.48,-190.16 1339.56,-199.55 1346.49,-200.57"/>
</g>
<!-- Node23&#45;&gt;Node24 -->
<g id="edge36" class="edge">
<title>Node23&#45;&gt;Node24</title>
<path fill="none" stroke="midnightblue" d="M1629,-225.17C1629,-218.37 1629,-208.76 1629,-200.15"/>
<polygon fill="midnightblue" stroke="midnightblue" points="1632.5,-200.18 1629,-190.18 1625.5,-200.18 1632.5,-200.18"/>
</g>
<!-- Node22&#45;&gt;Node23 -->
<g id="edge39" class="edge">
<title>Node22&#45;&gt;Node23</title>
<path fill="none" stroke="midnightblue" d="M1579.5,-452.14C1602.49,-446.1 1628.52,-434.86 1643,-414 1676.81,-365.31 1652.25,-290.02 1637.69,-255.1"/>
<polygon fill="midnightblue" stroke="midnightblue" points="1641.05,-254.06 1633.84,-246.29 1634.64,-256.86 1641.05,-254.06"/>
</g>
<!-- Node48&#45;&gt;Node17 -->
<g id="edge63" class="edge">
<title>Node48&#45;&gt;Node17</title>
<path fill="none" stroke="midnightblue" d="M1317.71,-452.98C1366.26,-446.19 1433.36,-433.55 1451,-414 1505.84,-353.23 1493.36,-244.75 1485.23,-200.01"/>
<polygon fill="midnightblue" stroke="midnightblue" points="1488.72,-199.58 1483.36,-190.44 1481.85,-200.93 1488.72,-199.58"/>
</g>
<!-- Node49 -->
<g id="node35" class="node">
<title>Node49</title>
<g id="a_node35"><a xlink:href="_activity_8hpp.html" target="_top" xlink:title=" ">
<polygon fill="white" stroke="red" points="1051.88,-394.25 1051.88,-413.5 1118.12,-413.5 1118.12,-394.25 1051.88,-394.25"/>
<text xml:space="preserve" text-anchor="middle" x="1085" y="-400" font-family="Helvetica,sans-Serif" font-size="10.00">Activity.hpp</text>
</a>
</g>
</g>
<!-- Node48&#45;&gt;Node49 -->
<g id="edge43" class="edge">
<title>Node48&#45;&gt;Node49</title>
<path fill="none" stroke="midnightblue" d="M1234.87,-450.04C1205.02,-441.05 1159.08,-427.2 1125.94,-417.21"/>
<polygon fill="midnightblue" stroke="midnightblue" points="1127.26,-413.96 1116.68,-414.42 1125.24,-420.66 1127.26,-413.96"/>
</g>
<!-- Node68 -->
<g id="node45" class="node">
<title>Node68</title>
<g id="a_node45"><a xlink:href="_activation_settings_8hpp.html" target="_top" xlink:title=" ">
<polygon fill="white" stroke="red" points="1519.88,-394.25 1519.88,-413.5 1634.12,-413.5 1634.12,-394.25 1519.88,-394.25"/>
<text xml:space="preserve" text-anchor="middle" x="1577" y="-400" font-family="Helvetica,sans-Serif" font-size="10.00">ActivationSettings.hpp</text>
</a>
</g>
</g>
<!-- Node48&#45;&gt;Node68 -->
<g id="edge58" class="edge">
<title>Node48&#45;&gt;Node68</title>
<path fill="none" stroke="midnightblue" d="M1317.22,-450.04C1371.22,-440.66 1455.56,-425.99 1513.41,-415.93"/>
<polygon fill="midnightblue" stroke="midnightblue" points="1513.86,-419.41 1523.12,-414.24 1512.66,-412.51 1513.86,-419.41"/>
</g>
<!-- Node72 -->
<g id="node46" class="node">
<title>Node72</title>
<g id="a_node46"><a xlink:title=" ">
<polygon fill="white" stroke="#bfbfbf" points="1157.88,-394.25 1157.88,-413.5 1200.12,-413.5 1200.12,-394.25 1157.88,-394.25"/>
<text xml:space="preserve" text-anchor="middle" x="1179" y="-400" font-family="Helvetica,sans-Serif" font-size="10.00">deque</text>
</a>
</g>
</g>
<!-- Node48&#45;&gt;Node72 -->
<g id="edge60" class="edge">
<title>Node48&#45;&gt;Node72</title>
<path fill="none" stroke="midnightblue" d="M1250.8,-450.17C1237.73,-441.92 1218.09,-429.53 1202.65,-419.79"/>
<polygon fill="midnightblue" stroke="midnightblue" points="1204.83,-417.03 1194.5,-414.65 1201.09,-422.95 1204.83,-417.03"/>
</g>
<!-- Node73 -->
<g id="node47" class="node">
<title>Node73</title>
<g id="a_node47"><a xlink:href="_global_names_8hpp.html" target="_top" xlink:title=" ">
<polygon fill="white" stroke="red" points="1218,-394.25 1218,-413.5 1312,-413.5 1312,-394.25 1218,-394.25"/>
<text xml:space="preserve" text-anchor="middle" x="1265" y="-400" font-family="Helvetica,sans-Serif" font-size="10.00">GlobalNames.hpp</text>
</a>
</g>
</g>
<!-- Node48&#45;&gt;Node73 -->
<g id="edge61" class="edge">
<title>Node48&#45;&gt;Node73</title>
<path fill="none" stroke="midnightblue" d="M1265,-450.17C1265,-443.37 1265,-433.76 1265,-425.15"/>
<polygon fill="midnightblue" stroke="midnightblue" points="1268.5,-425.18 1265,-415.18 1261.5,-425.18 1268.5,-425.18"/>
</g>
<!-- Node75 -->
<g id="node48" class="node">
<title>Node75</title>
<g id="a_node48"><a xlink:title=" ">
<polygon fill="white" stroke="#bfbfbf" points="1330,-394.25 1330,-413.5 1442,-413.5 1442,-394.25 1330,-394.25"/>
<text xml:space="preserve" text-anchor="middle" x="1386" y="-400" font-family="Helvetica,sans-Serif" font-size="10.00">SystemInterpreter.hpp</text>
</a>
</g>
</g>
<!-- Node48&#45;&gt;Node75 -->
<g id="edge62" class="edge">
<title>Node48&#45;&gt;Node75</title>
<path fill="none" stroke="midnightblue" d="M1285.25,-450.04C1304.36,-441.48 1333.27,-428.52 1355.23,-418.67"/>
<polygon fill="midnightblue" stroke="midnightblue" points="1356.61,-421.89 1364.3,-414.6 1353.74,-415.5 1356.61,-421.89"/>
</g>
<!-- Node49&#45;&gt;Node17 -->
<g id="edge57" class="edge">
<title>Node49&#45;&gt;Node17</title>
<path fill="none" stroke="midnightblue" d="M1118.6,-398.07C1199.08,-386.55 1396.3,-358.27 1397,-357.75 1450.05,-318.53 1470.87,-237.23 1477.89,-199.68"/>
<polygon fill="midnightblue" stroke="midnightblue" points="1481.27,-200.68 1479.51,-190.23 1474.37,-199.5 1481.27,-200.68"/>
</g>
<!-- Node50 -->
<g id="node36" class="node">
<title>Node50</title>
<g id="a_node36"><a xlink:href="_list_class_8hpp.html" target="_top" xlink:title=" ">
<polygon fill="white" stroke="red" points="708,-338 708,-357.25 784,-357.25 784,-338 708,-338"/>
<text xml:space="preserve" text-anchor="middle" x="746" y="-343.75" font-family="Helvetica,sans-Serif" font-size="10.00">ListClass.hpp</text>
</a>
</g>
</g>
<!-- Node49&#45;&gt;Node50 -->
<g id="edge44" class="edge">
<title>Node49&#45;&gt;Node50</title>
<path fill="none" stroke="midnightblue" d="M1051.65,-398.15C999.31,-390.63 894.43,-375.21 795.54,-358.14"/>
<polygon fill="midnightblue" stroke="midnightblue" points="796.39,-354.74 785.94,-356.47 795.2,-361.63 796.39,-354.74"/>
</g>
<!-- Node52 -->
<g id="node37" class="node">
<title>Node52</title>
<g id="a_node37"><a xlink:href="_internal_stack_8hpp.html" target="_top" xlink:title=" ">
<polygon fill="white" stroke="black" points="801.75,-338 801.75,-357.25 894.25,-357.25 894.25,-338 801.75,-338"/>
<text xml:space="preserve" text-anchor="middle" x="848" y="-343.75" font-family="Helvetica,sans-Serif" font-size="10.00">InternalStack.hpp</text>
</a>
</g>
</g>
<!-- Node49&#45;&gt;Node52 -->
<g id="edge45" class="edge">
<title>Node49&#45;&gt;Node52</title>
<path fill="none" stroke="midnightblue" d="M1051.55,-395.22C1011.7,-386.1 944.75,-370.77 898.58,-360.2"/>
<polygon fill="midnightblue" stroke="midnightblue" points="899.61,-356.85 889.08,-358.03 898.05,-363.67 899.61,-356.85"/>
</g>
<!-- Node53 -->
<g id="node38" class="node">
<title>Node53</title>
<g id="a_node38"><a xlink:href="_activation_stack_8hpp.html" target="_top" xlink:title=" ">
<polygon fill="white" stroke="black" points="912.12,-338 912.12,-357.25 1015.88,-357.25 1015.88,-338 912.12,-338"/>
<text xml:space="preserve" text-anchor="middle" x="964" y="-343.75" font-family="Helvetica,sans-Serif" font-size="10.00">ActivationStack.hpp</text>
</a>
</g>
</g>
<!-- Node49&#45;&gt;Node53 -->
<g id="edge46" class="edge">
<title>Node49&#45;&gt;Node53</title>
<path fill="none" stroke="midnightblue" d="M1064.75,-393.79C1045.64,-385.23 1016.73,-372.27 994.77,-362.42"/>
<polygon fill="midnightblue" stroke="midnightblue" points="996.26,-359.25 985.7,-358.35 993.39,-365.64 996.26,-359.25"/>
</g>
<!-- Node54 -->
<g id="node39" class="node">
<title>Node54</title>
<g id="a_node39"><a xlink:href="_expression_stack_8hpp.html" target="_top" xlink:title=" ">
<polygon fill="white" stroke="black" points="140.5,-281.75 140.5,-301 249.5,-301 249.5,-281.75 140.5,-281.75"/>
<text xml:space="preserve" text-anchor="middle" x="195" y="-287.5" font-family="Helvetica,sans-Serif" font-size="10.00">ExpressionStack.hpp</text>
</a>
</g>
</g>
<!-- Node49&#45;&gt;Node54 -->
<g id="edge47" class="edge">
<title>Node49&#45;&gt;Node54</title>
<path fill="none" stroke="midnightblue" d="M1051.41,-400.59C972.02,-395 766.62,-379.5 596,-357.75 474.46,-342.25 333.23,-317.69 254.99,-303.49"/>
<polygon fill="midnightblue" stroke="midnightblue" points="255.87,-300.1 245.4,-301.75 254.62,-306.98 255.87,-300.1"/>
</g>
<!-- Node55 -->
<g id="node40" class="node">
<title>Node55</title>
<g id="a_node40"><a xlink:href="_rexx_local_variables_8hpp.html" target="_top" xlink:title=" ">
<polygon fill="white" stroke="red" points="1516.5,-281.75 1516.5,-301 1637.5,-301 1637.5,-281.75 1516.5,-281.75"/>
<text xml:space="preserve" text-anchor="middle" x="1577" y="-287.5" font-family="Helvetica,sans-Serif" font-size="10.00">RexxLocalVariables.hpp</text>
</a>
</g>
</g>
<!-- Node49&#45;&gt;Node55 -->
<g id="edge49" class="edge">
<title>Node49&#45;&gt;Node55</title>
<path fill="none" stroke="midnightblue" d="M1118.54,-398C1128.35,-396.6 1139.1,-395.09 1149,-393.75 1273.77,-376.86 1308.75,-391.69 1430,-357.75 1474.12,-345.4 1522.06,-322.03 1550.8,-306.84"/>
<polygon fill="midnightblue" stroke="midnightblue" points="1552.34,-309.99 1559.5,-302.17 1549.03,-303.82 1552.34,-309.99"/>
</g>
<!-- Node59 -->
<g id="node41" class="node">
<title>Node59</title>
<g id="a_node41"><a xlink:href="_source_location_8hpp.html" target="_top" xlink:title=" ">
<polygon fill="white" stroke="black" points="1033.88,-338 1033.88,-357.25 1136.12,-357.25 1136.12,-338 1033.88,-338"/>
<text xml:space="preserve" text-anchor="middle" x="1085" y="-343.75" font-family="Helvetica,sans-Serif" font-size="10.00">SourceLocation.hpp</text>
</a>
</g>
</g>
<!-- Node49&#45;&gt;Node59 -->
<g id="edge52" class="edge">
<title>Node49&#45;&gt;Node59</title>
<path fill="none" stroke="midnightblue" d="M1085,-393.92C1085,-387.12 1085,-377.51 1085,-368.9"/>
<polygon fill="midnightblue" stroke="midnightblue" points="1088.5,-368.93 1085,-358.93 1081.5,-368.93 1088.5,-368.93"/>
</g>
<!-- Node60 -->
<g id="node42" class="node">
<title>Node60</title>
<g id="a_node42"><a xlink:href="_exit_handler_8hpp.html" target="_top" xlink:title=" ">
<polygon fill="white" stroke="red" points="604.5,-338 604.5,-357.25 689.5,-357.25 689.5,-338 604.5,-338"/>
<text xml:space="preserve" text-anchor="middle" x="647" y="-343.75" font-family="Helvetica,sans-Serif" font-size="10.00">ExitHandler.hpp</text>
</a>
</g>
</g>
<!-- Node49&#45;&gt;Node60 -->
<g id="edge53" class="edge">
<title>Node49&#45;&gt;Node60</title>
<path fill="none" stroke="midnightblue" d="M1051.61,-399.62C986.37,-393.13 837.16,-377.59 700.86,-357.94"/>
<polygon fill="midnightblue" stroke="midnightblue" points="701.71,-354.53 691.32,-356.56 700.71,-361.46 701.71,-354.53"/>
</g>
<!-- Node62 -->
<g id="node43" class="node">
<title>Node62</title>
<g id="a_node43"><a xlink:href="_activation_api_contexts_8hpp.html" target="_top" xlink:title=" ">
<polygon fill="white" stroke="black" points="1153.88,-338 1153.88,-357.25 1286.12,-357.25 1286.12,-338 1153.88,-338"/>
<text xml:space="preserve" text-anchor="middle" x="1220" y="-343.75" font-family="Helvetica,sans-Serif" font-size="10.00">ActivationApiContexts.hpp</text>
</a>
</g>
</g>
<!-- Node49&#45;&gt;Node62 -->
<g id="edge55" class="edge">
<title>Node49&#45;&gt;Node62</title>
<path fill="none" stroke="midnightblue" d="M1107.6,-393.79C1129.21,-385.11 1162.06,-371.91 1186.67,-362.02"/>
<polygon fill="midnightblue" stroke="midnightblue" points="1187.95,-365.28 1195.93,-358.3 1185.34,-358.78 1187.95,-365.28"/>
</g>
<!-- Node63 -->
<g id="node44" class="node">
<title>Node63</title>
<g id="a_node44"><a xlink:title=" ">
<polygon fill="white" stroke="#bfbfbf" points="1304.25,-338 1304.25,-357.25 1387.75,-357.25 1387.75,-338 1304.25,-338"/>
<text xml:space="preserve" text-anchor="middle" x="1346" y="-343.75" font-family="Helvetica,sans-Serif" font-size="10.00">SysActivity.hpp</text>
</a>
</g>
</g>
<!-- Node49&#45;&gt;Node63 -->
<g id="edge56" class="edge">
<title>Node49&#45;&gt;Node63</title>
<path fill="none" stroke="midnightblue" d="M1118.59,-395.89C1162.71,-386.72 1240.7,-370.51 1292.87,-359.67"/>
<polygon fill="midnightblue" stroke="midnightblue" points="1293.35,-363.14 1302.43,-357.68 1291.93,-356.29 1293.35,-363.14"/>
</g>
<!-- Node54&#45;&gt;Node36 -->
<g id="edge48" class="edge">
<title>Node54&#45;&gt;Node36</title>
<path fill="none" stroke="midnightblue" d="M171.58,-281.26C138.93,-267.12 81.03,-236.48 57,-189 49.55,-174.29 55.42,-156.01 62.21,-142.53"/>
<polygon fill="midnightblue" stroke="midnightblue" points="65.26,-144.26 67.13,-133.83 59.16,-140.81 65.26,-144.26"/>
</g>
<!-- Node55&#45;&gt;Node14 -->
<g id="edge51" class="edge">
<title>Node55&#45;&gt;Node14</title>
<path fill="none" stroke="midnightblue" d="M1577.21,-281.29C1577.19,-258.38 1573.7,-197.95 1539,-168.75 1493.24,-130.24 1310.68,-124.35 1232.65,-123.63"/>
<polygon fill="midnightblue" stroke="midnightblue" points="1233.04,-120.13 1223.01,-123.56 1232.99,-127.13 1233.04,-120.13"/>
</g>
<!-- Node55&#45;&gt;Node24 -->
<g id="edge50" class="edge">
<title>Node55&#45;&gt;Node24</title>
<path fill="none" stroke="midnightblue" d="M1626.68,-281.27C1647.11,-274.82 1668.8,-263.84 1681,-245.25 1692.8,-227.26 1673.47,-208.17 1655.12,-195.29"/>
<polygon fill="midnightblue" stroke="midnightblue" points="1657.05,-192.38 1646.77,-189.82 1653.22,-198.23 1657.05,-192.38"/>
</g>
<!-- Node60&#45;&gt;Node2 -->
<g id="edge54" class="edge">
<title>Node60&#45;&gt;Node2</title>
<path fill="none" stroke="midnightblue" d="M675.12,-337.54C702.74,-328.63 745.11,-314.94 775.98,-304.97"/>
<polygon fill="midnightblue" stroke="midnightblue" points="776.91,-308.35 785.35,-301.95 774.76,-301.69 776.91,-308.35"/>
</g>
<!-- Node68&#45;&gt;Node55 -->
<g id="edge59" class="edge">
<title>Node68&#45;&gt;Node55</title>
<path fill="none" stroke="midnightblue" d="M1577,-393.83C1577,-376.18 1577,-336.75 1577,-312.58"/>
<polygon fill="midnightblue" stroke="midnightblue" points="1580.5,-312.75 1577,-302.75 1573.5,-312.75 1580.5,-312.75"/>
</g>
<!-- Node77&#45;&gt;Node48 -->
<g id="edge66" class="edge">
<title>Node77&#45;&gt;Node48</title>
<path fill="none" stroke="midnightblue" d="M1194.04,-506.42C1206.96,-498.17 1226.37,-485.78 1241.63,-476.04"/>
<polygon fill="midnightblue" stroke="midnightblue" points="1243.12,-479.24 1249.67,-470.91 1239.35,-473.34 1243.12,-479.24"/>
</g>
</g>
</svg>
        <g id="navigator" transform="translate(0 0)" fill="#404254">
                <rect fill="#f2f5e9" fill-opacity="0.5" stroke="#606060" stroke-width=".5" x="0" y="0" width="60" height="60"/>
                <use id="zoomplus" xlink:href="#zoomPlus" x="17" y="9" onmousedown="handleZoom(evt,'in')"/>
                <use id="zoomminus" xlink:href="#zoomMin" x="42" y="9" onmousedown="handleZoom(evt,'out')"/>
                <use id="reset" xlink:href="#resetDef" x="30" y="36" onmousedown="handleReset()"/>
                <g id="arrowUp" xlink:href="#dirArrow" transform="translate(30 24)" onmousedown="handlePan(0,-1)">
                  <use xlink:href="#rim" fill="#404040">
                        <set attributeName="fill" to="#808080" begin="arrowUp.mouseover" end="arrowUp.mouseout"/>
                  </use>
                  <path fill="none" stroke="white" stroke-width="1.5" d="M0,-3.0v7 M-2.5,-0.5L0,-3.0L2.5,-0.5"/>
                </g>
                <g id="arrowRight" xlink:href="#dirArrow" transform="rotate(90) translate(36 -43)" onmousedown="handlePan(1,0)">
                  <use xlink:href="#rim" fill="#404040">
                        <set attributeName="fill" to="#808080" begin="arrowRight.mouseover" end="arrowRight.mouseout"/>
                  </use>
                  <path fill="none" stroke="white" stroke-width="1.5" d="M0,-3.0v7 M-2.5,-0.5L0,-3.0L2.5,-0.5"/>
                </g>
                <g id="arrowDown" xlink:href="#dirArrow" transform="rotate(180) translate(-30 -48)" onmousedown="handlePan(0,1)">
                  <use xlink:href="#rim" fill="#404040">
                        <set attributeName="fill" to="#808080" begin="arrowDown.mouseover" end="arrowDown.mouseout"/>
                  </use>
                  <path fill="none" stroke="white" stroke-width="1.5" d="M0,-3.0v7 M-2.5,-0.5L0,-3.0L2.5,-0.5"/>
                </g>
                <g id="arrowLeft" xlink:href="#dirArrow" transform="rotate(270) translate(-36 17)" onmousedown="handlePan(-1,0)">
                  <use xlink:href="#rim" fill="#404040">
                        <set attributeName="fill" to="#808080" begin="arrowLeft.mouseover" end="arrowLeft.mouseout"/>
                  </use>
                  <path fill="none" stroke="white" stroke-width="1.5" d="M0,-3.0v7 M-2.5,-0.5L0,-3.0L2.5,-0.5"/>
                </g>
        </g>
        <svg viewBox="0 0 15 15" width="100%" height="30px" preserveAspectRatio="xMaxYMin meet">
         <g id="arrow_out" transform="scale(0.3 0.3)">
          <a xlink:href="_supplier_class_8cpp__incl_org.svg" target="_base">
           <rect id="button" ry="5" rx="5" y="6" x="6" height="38" width="38"
                fill="#f2f5e9" fill-opacity="0.5" stroke="#606060" stroke-width="1.0"/>
           <path id="arrow"
             d="M 11.500037,31.436501 C 11.940474,20.09759 22.043105,11.32322 32.158766,21.979434 L 37.068811,17.246167 C 37.068811,17.246167 37.088388,32 37.088388,32 L 22.160133,31.978069 C 22.160133,31.978069 26.997745,27.140456 26.997745,27.140456 C 18.528582,18.264221 13.291696,25.230495 11.500037,31.436501 z"
             style="fill:#404040;"/>
          </a>
         </g>
        </svg>
</svg>
