<?xml version="1.0" encoding="UTF-8" standalone="no"?>
<!DOCTYPE svg PUBLIC "-//W3C//DTD SVG 1.1//EN"
 "http://www.w3.org/Graphics/SVG/1.1/DTD/svg11.dtd">
<!-- Generated by graphviz version 13.1.0 (20250701.0955)
 -->
<!-- Title: TraceInstruction.hpp Pages: 1 -->
<svg width="224pt" height="197pt"
 viewBox="0.00 0.00 224.00 197.00" xmlns="http://www.w3.org/2000/svg" xmlns:xlink="http://www.w3.org/1999/xlink">
<g id="graph0" class="graph" transform="scale(1 1) rotate(0) translate(4 193)">
<title>TraceInstruction.hpp</title>
<polygon fill="white" stroke="none" points="-4,4 -4,-193 220.25,-193 220.25,4 -4,4"/>
<!-- Node1 -->
<g id="node1" class="node">
<title>Node1</title>
<g id="a_node1"><a xlink:title=" ">
<polygon fill="#bfbfbf" stroke="black" points="60.5,-169.25 60.5,-188.5 165.75,-188.5 165.75,-169.25 60.5,-169.25"/>
<text xml:space="preserve" text-anchor="middle" x="113.12" y="-175" font-family="Helvetica,sans-Serif" font-size="10.00">TraceInstruction.hpp</text>
</a>
</g>
</g>
<!-- Node2 -->
<g id="node2" class="node">
<title>Node2</title>
<g id="a_node2"><a xlink:href="_rexx_instruction_8hpp.html" target="_top" xlink:title=" ">
<polygon fill="white" stroke="black" points="4.25,-113 4.25,-132.25 108,-132.25 108,-113 4.25,-113"/>
<text xml:space="preserve" text-anchor="middle" x="56.12" y="-118.75" font-family="Helvetica,sans-Serif" font-size="10.00">RexxInstruction.hpp</text>
</a>
</g>
</g>
<!-- Node1&#45;&gt;Node2 -->
<g id="edge1" class="edge">
<title>Node1&#45;&gt;Node2</title>
<path fill="none" stroke="midnightblue" d="M103.71,-168.92C95.5,-161.1 83.36,-149.55 73.4,-140.07"/>
<polygon fill="midnightblue" stroke="midnightblue" points="76.12,-137.82 66.46,-133.46 71.29,-142.89 76.12,-137.82"/>
</g>
<!-- Node5 -->
<g id="node5" class="node">
<title>Node5</title>
<g id="a_node5"><a xlink:href="_trace_setting_8hpp.html" target="_top" xlink:title=" ">
<polygon fill="white" stroke="black" points="126,-113 126,-132.25 216.25,-132.25 216.25,-113 126,-113"/>
<text xml:space="preserve" text-anchor="middle" x="171.12" y="-118.75" font-family="Helvetica,sans-Serif" font-size="10.00">TraceSetting.hpp</text>
</a>
</g>
</g>
<!-- Node1&#45;&gt;Node5 -->
<g id="edge5" class="edge">
<title>Node1&#45;&gt;Node5</title>
<path fill="none" stroke="midnightblue" d="M122.7,-168.92C131.06,-161.1 143.41,-149.55 153.55,-140.07"/>
<polygon fill="midnightblue" stroke="midnightblue" points="155.71,-142.84 160.62,-133.45 150.93,-137.73 155.71,-142.84"/>
</g>
<!-- Node3 -->
<g id="node3" class="node">
<title>Node3</title>
<g id="a_node3"><a xlink:href="_token_8hpp.html" target="_top" xlink:title=" ">
<polygon fill="white" stroke="black" points="0.62,-56.75 0.62,-76 61.62,-76 61.62,-56.75 0.62,-56.75"/>
<text xml:space="preserve" text-anchor="middle" x="31.12" y="-62.5" font-family="Helvetica,sans-Serif" font-size="10.00">Token.hpp</text>
</a>
</g>
</g>
<!-- Node2&#45;&gt;Node3 -->
<g id="edge2" class="edge">
<title>Node2&#45;&gt;Node3</title>
<path fill="none" stroke="midnightblue" d="M52,-112.67C48.72,-105.56 44.02,-95.37 39.92,-86.45"/>
<polygon fill="midnightblue" stroke="midnightblue" points="43.17,-85.16 35.81,-77.54 36.82,-88.09 43.17,-85.16"/>
</g>
<!-- Node4 -->
<g id="node4" class="node">
<title>Node4</title>
<g id="a_node4"><a xlink:href="_source_location_8hpp.html" target="_top" xlink:title=" ">
<polygon fill="white" stroke="black" points="0,-0.5 0,-19.75 102.25,-19.75 102.25,-0.5 0,-0.5"/>
<text xml:space="preserve" text-anchor="middle" x="51.12" y="-6.25" font-family="Helvetica,sans-Serif" font-size="10.00">SourceLocation.hpp</text>
</a>
</g>
</g>
<!-- Node2&#45;&gt;Node4 -->
<g id="edge4" class="edge">
<title>Node2&#45;&gt;Node4</title>
<path fill="none" stroke="midnightblue" d="M60.65,-112.76C66.49,-100.21 75.42,-76.53 71.12,-56.25 69.24,-47.35 65.48,-38.07 61.72,-30.26"/>
<polygon fill="midnightblue" stroke="midnightblue" points="64.85,-28.69 57.14,-21.42 58.64,-31.91 64.85,-28.69"/>
</g>
<!-- Node3&#45;&gt;Node4 -->
<g id="edge3" class="edge">
<title>Node3&#45;&gt;Node4</title>
<path fill="none" stroke="midnightblue" d="M34.43,-56.42C37.02,-49.39 40.72,-39.34 43.98,-30.5"/>
<polygon fill="midnightblue" stroke="midnightblue" points="47.19,-31.93 47.36,-21.34 40.62,-29.51 47.19,-31.93"/>
</g>
<!-- Node6 -->
<g id="node6" class="node">
<title>Node6</title>
<g id="a_node6"><a xlink:href="_flag_set_8hpp.html" target="_top" xlink:title=" ">
<polygon fill="white" stroke="black" points="136.88,-56.75 136.88,-76 205.38,-76 205.38,-56.75 136.88,-56.75"/>
<text xml:space="preserve" text-anchor="middle" x="171.12" y="-62.5" font-family="Helvetica,sans-Serif" font-size="10.00">FlagSet.hpp</text>
</a>
</g>
</g>
<!-- Node5&#45;&gt;Node6 -->
<g id="edge6" class="edge">
<title>Node5&#45;&gt;Node6</title>
<path fill="none" stroke="midnightblue" d="M171.12,-112.67C171.12,-105.87 171.12,-96.26 171.12,-87.65"/>
<polygon fill="midnightblue" stroke="midnightblue" points="174.63,-87.68 171.13,-77.68 167.63,-87.68 174.63,-87.68"/>
</g>
<!-- Node7 -->
<g id="node7" class="node">
<title>Node7</title>
<g id="a_node7"><a xlink:href="_bit_set_8hpp.html" target="_top" xlink:title=" ">
<polygon fill="white" stroke="black" points="140.25,-0.5 140.25,-19.75 202,-19.75 202,-0.5 140.25,-0.5"/>
<text xml:space="preserve" text-anchor="middle" x="171.12" y="-6.25" font-family="Helvetica,sans-Serif" font-size="10.00">BitSet.hpp</text>
</a>
</g>
</g>
<!-- Node6&#45;&gt;Node7 -->
<g id="edge7" class="edge">
<title>Node6&#45;&gt;Node7</title>
<path fill="none" stroke="midnightblue" d="M171.12,-56.42C171.12,-49.62 171.12,-40.01 171.12,-31.4"/>
<polygon fill="midnightblue" stroke="midnightblue" points="174.63,-31.43 171.13,-21.43 167.63,-31.43 174.63,-31.43"/>
</g>
</g>
</svg>
