<?xml version="1.0" encoding="UTF-8" standalone="no"?>
<!DOCTYPE svg PUBLIC "-//W3C//DTD SVG 1.1//EN"
 "http://www.w3.org/Graphics/SVG/1.1/DTD/svg11.dtd">
<!-- Generated by graphviz version 13.1.0 (20250701.0955)
 -->
<!-- Title: TraceSetting.cpp Pages: 1 -->
<svg width="1476pt" height="591pt"
 viewBox="0.00 0.00 1476.00 591.00" xmlns="http://www.w3.org/2000/svg" xmlns:xlink="http://www.w3.org/1999/xlink">
<g id="graph0" class="graph" transform="scale(1 1) rotate(0) translate(4 586.75)">
<title>TraceSetting.cpp</title>
<polygon fill="white" stroke="none" points="-4,4 -4,-586.75 1472,-586.75 1472,4 -4,4"/>
<!-- Node1 -->
<g id="node1" class="node">
<title>Node1</title>
<g id="a_node1"><a xlink:title=" ">
<polygon fill="#bfbfbf" stroke="black" points="488.88,-563 488.88,-582.25 579.12,-582.25 579.12,-563 488.88,-563"/>
<text xml:space="preserve" text-anchor="middle" x="534" y="-568.75" font-family="Helvetica,sans-Serif" font-size="10.00">TraceSetting.cpp</text>
</a>
</g>
</g>
<!-- Node2 -->
<g id="node2" class="node">
<title>Node2</title>
<g id="a_node2"><a xlink:href="_rexx_core_8h.html" target="_top" xlink:title=" ">
<polygon fill="white" stroke="black" points="499.75,-506.75 499.75,-526 568.25,-526 568.25,-506.75 499.75,-506.75"/>
<text xml:space="preserve" text-anchor="middle" x="534" y="-512.5" font-family="Helvetica,sans-Serif" font-size="10.00">RexxCore.h</text>
</a>
</g>
</g>
<!-- Node1&#45;&gt;Node2 -->
<g id="edge1" class="edge">
<title>Node1&#45;&gt;Node2</title>
<path fill="none" stroke="midnightblue" d="M534,-562.67C534,-555.87 534,-546.26 534,-537.65"/>
<polygon fill="midnightblue" stroke="midnightblue" points="537.5,-537.68 534,-527.68 530.5,-537.68 537.5,-537.68"/>
</g>
<!-- Node27 -->
<g id="node27" class="node">
<title>Node27</title>
<g id="a_node27"><a xlink:title=" ">
<polygon fill="white" stroke="#bfbfbf" points="1384.88,-113 1384.88,-132.25 1433.12,-132.25 1433.12,-113 1384.88,-113"/>
<text xml:space="preserve" text-anchor="middle" x="1409" y="-118.75" font-family="Helvetica,sans-Serif" font-size="10.00">ctype.h</text>
</a>
</g>
</g>
<!-- Node1&#45;&gt;Node27 -->
<g id="edge63" class="edge">
<title>Node1&#45;&gt;Node27</title>
<path fill="none" stroke="midnightblue" d="M579.36,-571.09C766.41,-568.28 1468,-551.7 1468,-461.12 1468,-461.12 1468,-461.12 1468,-234.12 1468,-197.7 1442.75,-161.64 1425.29,-141.06"/>
<polygon fill="midnightblue" stroke="midnightblue" points="1427.96,-138.8 1418.71,-133.64 1422.72,-143.44 1427.96,-138.8"/>
</g>
<!-- Node47 -->
<g id="node47" class="node">
<title>Node47</title>
<g id="a_node47"><a xlink:href="_trace_setting_8hpp.html" target="_top" xlink:title=" ">
<polygon fill="white" stroke="black" points="173.88,-506.75 173.88,-526 264.12,-526 264.12,-506.75 173.88,-506.75"/>
<text xml:space="preserve" text-anchor="middle" x="219" y="-512.5" font-family="Helvetica,sans-Serif" font-size="10.00">TraceSetting.hpp</text>
</a>
</g>
</g>
<!-- Node1&#45;&gt;Node47 -->
<g id="edge61" class="edge">
<title>Node1&#45;&gt;Node47</title>
<path fill="none" stroke="midnightblue" d="M488.53,-563.79C432.35,-554.12 336.74,-537.65 275.79,-527.15"/>
<polygon fill="midnightblue" stroke="midnightblue" points="276.39,-523.71 265.95,-525.46 275.21,-530.61 276.39,-523.71"/>
</g>
<!-- Node3 -->
<g id="node3" class="node">
<title>Node3</title>
<g id="a_node3"><a xlink:href="oorexxapi_8h.html" target="_top" xlink:title=" ">
<polygon fill="white" stroke="black" points="401.88,-450.5 401.88,-469.75 468.12,-469.75 468.12,-450.5 401.88,-450.5"/>
<text xml:space="preserve" text-anchor="middle" x="435" y="-456.25" font-family="Helvetica,sans-Serif" font-size="10.00">oorexxapi.h</text>
</a>
</g>
</g>
<!-- Node2&#45;&gt;Node3 -->
<g id="edge2" class="edge">
<title>Node2&#45;&gt;Node3</title>
<path fill="none" stroke="midnightblue" d="M517.65,-506.42C502.39,-498.05 479.35,-485.43 461.46,-475.63"/>
<polygon fill="midnightblue" stroke="midnightblue" points="463.15,-472.56 452.7,-470.82 459.79,-478.7 463.15,-472.56"/>
</g>
<!-- Node10 -->
<g id="node10" class="node">
<title>Node10</title>
<g id="a_node10"><a xlink:title=" ">
<polygon fill="white" stroke="#bfbfbf" points="276.25,-450.5 276.25,-469.75 383.75,-469.75 383.75,-450.5 276.25,-450.5"/>
<text xml:space="preserve" text-anchor="middle" x="330" y="-456.25" font-family="Helvetica,sans-Serif" font-size="10.00">PlatformDefinitions.h</text>
</a>
</g>
</g>
<!-- Node2&#45;&gt;Node10 -->
<g id="edge9" class="edge">
<title>Node2&#45;&gt;Node10</title>
<path fill="none" stroke="midnightblue" d="M499.85,-506.29C465.58,-497.18 412.6,-483.09 374.93,-473.07"/>
<polygon fill="midnightblue" stroke="midnightblue" points="376.28,-469.81 365.72,-470.62 374.48,-476.58 376.28,-469.81"/>
</g>
<!-- Node11 -->
<g id="node11" class="node">
<title>Node11</title>
<g id="a_node11"><a xlink:href="_class_type_codes_8h.html" target="_top" xlink:title=" ">
<polygon fill="white" stroke="black" points="668.38,-338 668.38,-357.25 767.62,-357.25 767.62,-338 668.38,-338"/>
<text xml:space="preserve" text-anchor="middle" x="718" y="-343.75" font-family="Helvetica,sans-Serif" font-size="10.00">ClassTypeCodes.h</text>
</a>
</g>
</g>
<!-- Node2&#45;&gt;Node11 -->
<g id="edge10" class="edge">
<title>Node2&#45;&gt;Node11</title>
<path fill="none" stroke="midnightblue" d="M543.63,-506.47C565.47,-486.29 620.47,-435.6 667,-393.75 677.66,-384.16 689.66,-373.53 699.34,-365"/>
<polygon fill="midnightblue" stroke="midnightblue" points="701.46,-367.8 706.66,-358.57 696.84,-362.54 701.46,-367.8"/>
</g>
<!-- Node12 -->
<g id="node12" class="node">
<title>Node12</title>
<g id="a_node12"><a xlink:href="_object_class_8hpp.html" target="_top" xlink:title=" ">
<polygon fill="white" stroke="black" points="561.62,-338 561.62,-357.25 650.38,-357.25 650.38,-338 561.62,-338"/>
<text xml:space="preserve" text-anchor="middle" x="606" y="-343.75" font-family="Helvetica,sans-Serif" font-size="10.00">ObjectClass.hpp</text>
</a>
</g>
</g>
<!-- Node2&#45;&gt;Node12 -->
<g id="edge11" class="edge">
<title>Node2&#45;&gt;Node12</title>
<path fill="none" stroke="midnightblue" d="M537.87,-506.41C549.15,-480.28 582.18,-403.8 597.73,-367.79"/>
<polygon fill="midnightblue" stroke="midnightblue" points="600.76,-369.59 601.51,-359.02 594.33,-366.82 600.76,-369.59"/>
</g>
<!-- Node18 -->
<g id="node18" class="node">
<title>Node18</title>
<g id="a_node18"><a xlink:href="_table_class_8hpp.html" target="_top" xlink:title=" ">
<polygon fill="white" stroke="black" points="1226.25,-450.5 1226.25,-469.75 1309.75,-469.75 1309.75,-450.5 1226.25,-450.5"/>
<text xml:space="preserve" text-anchor="middle" x="1268" y="-456.25" font-family="Helvetica,sans-Serif" font-size="10.00">TableClass.hpp</text>
</a>
</g>
</g>
<!-- Node2&#45;&gt;Node18 -->
<g id="edge18" class="edge">
<title>Node2&#45;&gt;Node18</title>
<path fill="none" stroke="midnightblue" d="M568.42,-512.83C685.99,-504.14 1072.3,-475.59 1214.68,-465.07"/>
<polygon fill="midnightblue" stroke="midnightblue" points="1214.88,-468.56 1224.59,-464.33 1214.36,-461.58 1214.88,-468.56"/>
</g>
<!-- Node23 -->
<g id="node23" class="node">
<title>Node23</title>
<g id="a_node23"><a xlink:href="_class_class_8hpp.html" target="_top" xlink:title=" ">
<polygon fill="white" stroke="black" points="421.12,-113 421.12,-132.25 506.88,-132.25 506.88,-113 421.12,-113"/>
<text xml:space="preserve" text-anchor="middle" x="464" y="-118.75" font-family="Helvetica,sans-Serif" font-size="10.00">ClassClass.hpp</text>
</a>
</g>
</g>
<!-- Node2&#45;&gt;Node23 -->
<g id="edge59" class="edge">
<title>Node2&#45;&gt;Node23</title>
<path fill="none" stroke="midnightblue" d="M531.24,-506.43C528.48,-497.36 524.2,-482.89 521,-470.25 502.14,-395.82 496.53,-377.25 484,-301.5 474.6,-244.66 468.33,-176.86 465.58,-143.78"/>
<polygon fill="midnightblue" stroke="midnightblue" points="469.09,-143.75 464.8,-134.06 462.11,-144.31 469.09,-143.75"/>
</g>
<!-- Node30 -->
<g id="node30" class="node">
<title>Node30</title>
<g id="a_node30"><a xlink:href="_rexx_memory_8hpp.html" target="_top" xlink:title=" ">
<polygon fill="white" stroke="black" points="985.12,-450.5 985.12,-469.75 1076.88,-469.75 1076.88,-450.5 985.12,-450.5"/>
<text xml:space="preserve" text-anchor="middle" x="1031" y="-456.25" font-family="Helvetica,sans-Serif" font-size="10.00">RexxMemory.hpp</text>
</a>
</g>
</g>
<!-- Node2&#45;&gt;Node30 -->
<g id="edge33" class="edge">
<title>Node2&#45;&gt;Node30</title>
<path fill="none" stroke="midnightblue" d="M568.55,-511.6C652.79,-502.41 869.42,-478.76 973.5,-467.4"/>
<polygon fill="midnightblue" stroke="midnightblue" points="973.65,-470.91 983.21,-466.34 972.89,-463.95 973.65,-470.91"/>
</g>
<!-- Node44 -->
<g id="node44" class="node">
<title>Node44</title>
<g id="a_node44"><a xlink:href="_rexx_behaviour_8hpp.html" target="_top" xlink:title=" ">
<polygon fill="white" stroke="black" points="157.62,-450.5 157.62,-469.75 258.38,-469.75 258.38,-450.5 157.62,-450.5"/>
<text xml:space="preserve" text-anchor="middle" x="208" y="-456.25" font-family="Helvetica,sans-Serif" font-size="10.00">RexxBehaviour.hpp</text>
</a>
</g>
</g>
<!-- Node2&#45;&gt;Node44 -->
<g id="edge56" class="edge">
<title>Node2&#45;&gt;Node44</title>
<path fill="none" stroke="midnightblue" d="M499.42,-509.62C444.78,-500.53 337.71,-482.71 269.68,-471.39"/>
<polygon fill="midnightblue" stroke="midnightblue" points="270.62,-468 260.18,-469.81 269.47,-474.9 270.62,-468"/>
</g>
<!-- Node46 -->
<g id="node46" class="node">
<title>Node46</title>
<g id="a_node46"><a xlink:href="_envelope_8hpp.html" target="_top" xlink:title=" ">
<polygon fill="white" stroke="black" points="64.38,-450.5 64.38,-469.75 139.62,-469.75 139.62,-450.5 64.38,-450.5"/>
<text xml:space="preserve" text-anchor="middle" x="102" y="-456.25" font-family="Helvetica,sans-Serif" font-size="10.00">Envelope.hpp</text>
</a>
</g>
</g>
<!-- Node2&#45;&gt;Node46 -->
<g id="edge60" class="edge">
<title>Node2&#45;&gt;Node46</title>
<path fill="none" stroke="midnightblue" d="M499.37,-512.2C433.64,-505.97 286.04,-491.1 151.26,-470.49"/>
<polygon fill="midnightblue" stroke="midnightblue" points="151.83,-467.04 141.42,-468.97 150.77,-473.96 151.83,-467.04"/>
</g>
<!-- Node4 -->
<g id="node4" class="node">
<title>Node4</title>
<g id="a_node4"><a xlink:href="rexx_8h.html" target="_top" xlink:title=" ">
<polygon fill="white" stroke="black" points="300.5,-394.25 300.5,-413.5 343.5,-413.5 343.5,-394.25 300.5,-394.25"/>
<text xml:space="preserve" text-anchor="middle" x="322" y="-400" font-family="Helvetica,sans-Serif" font-size="10.00">rexx.h</text>
</a>
</g>
</g>
<!-- Node3&#45;&gt;Node4 -->
<g id="edge3" class="edge">
<title>Node3&#45;&gt;Node4</title>
<path fill="none" stroke="midnightblue" d="M416.09,-450.04C398.4,-441.56 371.74,-428.75 351.3,-418.94"/>
<polygon fill="midnightblue" stroke="midnightblue" points="352.87,-415.81 342.34,-414.64 349.84,-422.12 352.87,-415.81"/>
</g>
<!-- Node9 -->
<g id="node9" class="node">
<title>Node9</title>
<g id="a_node9"><a xlink:href="oorexxerrors_8h.html" target="_top" xlink:title=" ">
<polygon fill="white" stroke="black" points="389.88,-394.25 389.88,-413.5 468.12,-413.5 468.12,-394.25 389.88,-394.25"/>
<text xml:space="preserve" text-anchor="middle" x="429" y="-400" font-family="Helvetica,sans-Serif" font-size="10.00">oorexxerrors.h</text>
</a>
</g>
</g>
<!-- Node3&#45;&gt;Node9 -->
<g id="edge8" class="edge">
<title>Node3&#45;&gt;Node9</title>
<path fill="none" stroke="midnightblue" d="M434.01,-450.17C433.25,-443.29 432.17,-433.54 431.21,-424.85"/>
<polygon fill="midnightblue" stroke="midnightblue" points="434.72,-424.73 430.14,-415.17 427.76,-425.5 434.72,-424.73"/>
</g>
<!-- Node5 -->
<g id="node5" class="node">
<title>Node5</title>
<g id="a_node5"><a xlink:title=" ">
<polygon fill="white" stroke="#bfbfbf" points="388.12,-338 388.12,-357.25 467.88,-357.25 467.88,-338 388.12,-338"/>
<text xml:space="preserve" text-anchor="middle" x="428" y="-343.75" font-family="Helvetica,sans-Serif" font-size="10.00">rexxapitypes.h</text>
</a>
</g>
</g>
<!-- Node4&#45;&gt;Node5 -->
<g id="edge4" class="edge">
<title>Node4&#45;&gt;Node5</title>
<path fill="none" stroke="midnightblue" d="M339.5,-393.92C356.08,-385.44 381.21,-372.57 400.47,-362.71"/>
<polygon fill="midnightblue" stroke="midnightblue" points="401.82,-365.96 409.12,-358.29 398.63,-359.73 401.82,-365.96"/>
</g>
<!-- Node6 -->
<g id="node6" class="node">
<title>Node6</title>
<g id="a_node6"><a xlink:href="rexxapidefs_8h.html" target="_top" xlink:title=" ">
<polygon fill="white" stroke="black" points="65.75,-338 65.75,-357.25 140.25,-357.25 140.25,-338 65.75,-338"/>
<text xml:space="preserve" text-anchor="middle" x="103" y="-343.75" font-family="Helvetica,sans-Serif" font-size="10.00">rexxapidefs.h</text>
</a>
</g>
</g>
<!-- Node4&#45;&gt;Node6 -->
<g id="edge5" class="edge">
<title>Node4&#45;&gt;Node6</title>
<path fill="none" stroke="midnightblue" d="M300.3,-397.35C295.59,-396.16 290.63,-394.91 286,-393.75 240.26,-382.31 188.03,-369.45 151.11,-360.4"/>
<polygon fill="midnightblue" stroke="midnightblue" points="152.19,-357.06 141.64,-358.08 150.52,-363.86 152.19,-357.06"/>
</g>
<!-- Node7 -->
<g id="node7" class="node">
<title>Node7</title>
<g id="a_node7"><a xlink:title=" ">
<polygon fill="white" stroke="#bfbfbf" points="158.5,-338 158.5,-357.25 255.5,-357.25 255.5,-338 158.5,-338"/>
<text xml:space="preserve" text-anchor="middle" x="207" y="-343.75" font-family="Helvetica,sans-Serif" font-size="10.00">rexxplatformdefs.h</text>
</a>
</g>
</g>
<!-- Node4&#45;&gt;Node7 -->
<g id="edge6" class="edge">
<title>Node4&#45;&gt;Node7</title>
<path fill="none" stroke="midnightblue" d="M302.75,-393.79C284.67,-385.27 257.37,-372.38 236.53,-362.56"/>
<polygon fill="midnightblue" stroke="midnightblue" points="238.22,-359.48 227.68,-358.38 235.23,-365.81 238.22,-359.48"/>
</g>
<!-- Node8 -->
<g id="node8" class="node">
<title>Node8</title>
<g id="a_node8"><a xlink:title=" ">
<polygon fill="white" stroke="#bfbfbf" points="273.88,-338 273.88,-357.25 370.12,-357.25 370.12,-338 273.88,-338"/>
<text xml:space="preserve" text-anchor="middle" x="322" y="-343.75" font-family="Helvetica,sans-Serif" font-size="10.00">rexxplatformapis.h</text>
</a>
</g>
</g>
<!-- Node4&#45;&gt;Node8 -->
<g id="edge7" class="edge">
<title>Node4&#45;&gt;Node8</title>
<path fill="none" stroke="midnightblue" d="M322,-393.92C322,-387.12 322,-377.51 322,-368.9"/>
<polygon fill="midnightblue" stroke="midnightblue" points="325.5,-368.93 322,-358.93 318.5,-368.93 325.5,-368.93"/>
</g>
<!-- Node13 -->
<g id="node13" class="node">
<title>Node13</title>
<g id="a_node13"><a xlink:title=" ">
<polygon fill="white" stroke="#bfbfbf" points="608,-281.75 608,-301 642,-301 642,-281.75 608,-281.75"/>
<text xml:space="preserve" text-anchor="middle" x="625" y="-287.5" font-family="Helvetica,sans-Serif" font-size="10.00">new</text>
</a>
</g>
</g>
<!-- Node12&#45;&gt;Node13 -->
<g id="edge12" class="edge">
<title>Node12&#45;&gt;Node13</title>
<path fill="none" stroke="midnightblue" d="M609.14,-337.67C611.6,-330.64 615.12,-320.59 618.22,-311.75"/>
<polygon fill="midnightblue" stroke="midnightblue" points="621.42,-313.19 621.42,-302.6 614.81,-310.88 621.42,-313.19"/>
</g>
<!-- Node14 -->
<g id="node14" class="node">
<title>Node14</title>
<g id="a_node14"><a xlink:title=" ">
<polygon fill="white" stroke="#bfbfbf" points="1006.88,-169.25 1006.88,-188.5 1055.12,-188.5 1055.12,-169.25 1006.88,-169.25"/>
<text xml:space="preserve" text-anchor="middle" x="1031" y="-175" font-family="Helvetica,sans-Serif" font-size="10.00">string.h</text>
</a>
</g>
</g>
<!-- Node12&#45;&gt;Node14 -->
<g id="edge13" class="edge">
<title>Node12&#45;&gt;Node14</title>
<path fill="none" stroke="midnightblue" d="M639.13,-337.54C667.65,-329.33 709.66,-316.29 745,-301.5 763.02,-293.96 766.28,-289.47 784,-281.25 858.52,-246.7 948.21,-211.41 996.38,-192.96"/>
<polygon fill="midnightblue" stroke="midnightblue" points="997.34,-196.34 1005.44,-189.5 994.84,-189.8 997.34,-196.34"/>
</g>
<!-- Node15 -->
<g id="node15" class="node">
<title>Node15</title>
<g id="a_node15"><a xlink:href="_numerics_8hpp.html" target="_top" xlink:title=" ">
<polygon fill="white" stroke="black" points="659.62,-281.75 659.62,-301 736.38,-301 736.38,-281.75 659.62,-281.75"/>
<text xml:space="preserve" text-anchor="middle" x="698" y="-287.5" font-family="Helvetica,sans-Serif" font-size="10.00">Numerics.hpp</text>
</a>
</g>
</g>
<!-- Node12&#45;&gt;Node15 -->
<g id="edge14" class="edge">
<title>Node12&#45;&gt;Node15</title>
<path fill="none" stroke="midnightblue" d="M621.19,-337.67C635.31,-329.34 656.59,-316.79 673.17,-307.02"/>
<polygon fill="midnightblue" stroke="midnightblue" points="674.65,-310.21 681.48,-302.12 671.09,-304.18 674.65,-310.21"/>
</g>
<!-- Node17 -->
<g id="node17" class="node">
<title>Node17</title>
<g id="a_node17"><a xlink:href="_rexx_error_codes_8h.html" target="_top" xlink:title=" ">
<polygon fill="white" stroke="black" points="492.5,-281.75 492.5,-301 589.5,-301 589.5,-281.75 492.5,-281.75"/>
<text xml:space="preserve" text-anchor="middle" x="541" y="-287.5" font-family="Helvetica,sans-Serif" font-size="10.00">RexxErrorCodes.h</text>
</a>
</g>
</g>
<!-- Node12&#45;&gt;Node17 -->
<g id="edge17" class="edge">
<title>Node12&#45;&gt;Node17</title>
<path fill="none" stroke="midnightblue" d="M595.27,-337.67C585.8,-329.77 571.78,-318.06 560.36,-308.53"/>
<polygon fill="midnightblue" stroke="midnightblue" points="562.62,-305.86 552.7,-302.14 558.13,-311.23 562.62,-305.86"/>
</g>
<!-- Node15&#45;&gt;Node2 -->
<g id="edge16" class="edge">
<title>Node15&#45;&gt;Node2</title>
<path fill="none" stroke="midnightblue" d="M661.59,-301.49C621,-311.98 560.07,-328.89 553,-337.5 515.44,-383.22 523.26,-459.42 529.72,-495.4"/>
<polygon fill="midnightblue" stroke="midnightblue" points="526.22,-495.71 531.58,-504.85 533.09,-494.36 526.22,-495.71"/>
</g>
<!-- Node16 -->
<g id="node16" class="node">
<title>Node16</title>
<g id="a_node16"><a xlink:title=" ">
<polygon fill="white" stroke="#bfbfbf" points="670.12,-225.5 670.12,-244.75 725.88,-244.75 725.88,-225.5 670.12,-225.5"/>
<text xml:space="preserve" text-anchor="middle" x="698" y="-231.25" font-family="Helvetica,sans-Serif" font-size="10.00">algorithm</text>
</a>
</g>
</g>
<!-- Node15&#45;&gt;Node16 -->
<g id="edge15" class="edge">
<title>Node15&#45;&gt;Node16</title>
<path fill="none" stroke="midnightblue" d="M698,-281.42C698,-274.62 698,-265.01 698,-256.4"/>
<polygon fill="midnightblue" stroke="midnightblue" points="701.5,-256.43 698,-246.43 694.5,-256.43 701.5,-256.43"/>
</g>
<!-- Node19 -->
<g id="node19" class="node">
<title>Node19</title>
<g id="a_node19"><a xlink:href="_hash_collection_8hpp.html" target="_top" xlink:title=" ">
<polygon fill="white" stroke="black" points="1293.25,-338 1293.25,-357.25 1394.75,-357.25 1394.75,-338 1293.25,-338"/>
<text xml:space="preserve" text-anchor="middle" x="1344" y="-343.75" font-family="Helvetica,sans-Serif" font-size="10.00">HashCollection.hpp</text>
</a>
</g>
</g>
<!-- Node18&#45;&gt;Node19 -->
<g id="edge19" class="edge">
<title>Node18&#45;&gt;Node19</title>
<path fill="none" stroke="midnightblue" d="M1310.04,-458.46C1343.39,-455.44 1388.07,-445.28 1411,-414 1425.48,-394.25 1399.69,-375.1 1376.03,-362.68"/>
<polygon fill="midnightblue" stroke="midnightblue" points="1377.68,-359.59 1367.16,-358.3 1374.58,-365.87 1377.68,-359.59"/>
</g>
<!-- Node20 -->
<g id="node20" class="node">
<title>Node20</title>
<g id="a_node20"><a xlink:href="_hash_contents_8hpp.html" target="_top" xlink:title=" ">
<polygon fill="white" stroke="black" points="1228.12,-281.75 1228.12,-301 1325.88,-301 1325.88,-281.75 1228.12,-281.75"/>
<text xml:space="preserve" text-anchor="middle" x="1277" y="-287.5" font-family="Helvetica,sans-Serif" font-size="10.00">HashContents.hpp</text>
</a>
</g>
</g>
<!-- Node19&#45;&gt;Node20 -->
<g id="edge20" class="edge">
<title>Node19&#45;&gt;Node20</title>
<path fill="none" stroke="midnightblue" d="M1332.94,-337.67C1323.08,-329.69 1308.43,-317.83 1296.6,-308.25"/>
<polygon fill="midnightblue" stroke="midnightblue" points="1299.01,-305.69 1289.03,-302.12 1294.6,-311.13 1299.01,-305.69"/>
</g>
<!-- Node21 -->
<g id="node21" class="node">
<title>Node21</title>
<g id="a_node21"><a xlink:href="_string_class_8hpp.html" target="_top" xlink:title=" ">
<polygon fill="white" stroke="black" points="1178.12,-225.5 1178.12,-244.75 1263.88,-244.75 1263.88,-225.5 1178.12,-225.5"/>
<text xml:space="preserve" text-anchor="middle" x="1221" y="-231.25" font-family="Helvetica,sans-Serif" font-size="10.00">StringClass.hpp</text>
</a>
</g>
</g>
<!-- Node20&#45;&gt;Node21 -->
<g id="edge21" class="edge">
<title>Node20&#45;&gt;Node21</title>
<path fill="none" stroke="midnightblue" d="M1267.75,-281.42C1259.76,-273.67 1248,-262.28 1238.27,-252.86"/>
<polygon fill="midnightblue" stroke="midnightblue" points="1240.78,-250.41 1231.16,-245.97 1235.91,-255.44 1240.78,-250.41"/>
</g>
<!-- Node21&#45;&gt;Node14 -->
<g id="edge32" class="edge">
<title>Node21&#45;&gt;Node14</title>
<path fill="none" stroke="midnightblue" d="M1189.2,-225.04C1155.17,-215.33 1101.33,-199.96 1066.09,-189.89"/>
<polygon fill="midnightblue" stroke="midnightblue" points="1067.38,-186.62 1056.8,-187.24 1065.46,-193.35 1067.38,-186.62"/>
</g>
<!-- Node22 -->
<g id="node22" class="node">
<title>Node22</title>
<g id="a_node22"><a xlink:href="_integer_class_8hpp.html" target="_top" xlink:title=" ">
<polygon fill="white" stroke="black" points="1072.88,-169.25 1072.88,-188.5 1163.12,-188.5 1163.12,-169.25 1072.88,-169.25"/>
<text xml:space="preserve" text-anchor="middle" x="1118" y="-175" font-family="Helvetica,sans-Serif" font-size="10.00">IntegerClass.hpp</text>
</a>
</g>
</g>
<!-- Node21&#45;&gt;Node22 -->
<g id="edge22" class="edge">
<title>Node21&#45;&gt;Node22</title>
<path fill="none" stroke="midnightblue" d="M1203.99,-225.17C1187.96,-216.72 1163.69,-203.94 1145.01,-194.1"/>
<polygon fill="midnightblue" stroke="midnightblue" points="1146.85,-191.12 1136.37,-189.55 1143.59,-197.31 1146.85,-191.12"/>
</g>
<!-- Node24 -->
<g id="node24" class="node">
<title>Node24</title>
<g id="a_node24"><a xlink:href="_flag_set_8hpp.html" target="_top" xlink:title=" ">
<polygon fill="white" stroke="black" points="216.75,-56.75 216.75,-76 285.25,-76 285.25,-56.75 216.75,-56.75"/>
<text xml:space="preserve" text-anchor="middle" x="251" y="-62.5" font-family="Helvetica,sans-Serif" font-size="10.00">FlagSet.hpp</text>
</a>
</g>
</g>
<!-- Node21&#45;&gt;Node24 -->
<g id="edge31" class="edge">
<title>Node21&#45;&gt;Node24</title>
<path fill="none" stroke="midnightblue" d="M1217.15,-225.07C1210.4,-210.41 1194.91,-181.83 1172,-168.75 1020.05,-82.03 461.34,-69.49 296.85,-67.68"/>
<polygon fill="midnightblue" stroke="midnightblue" points="297.25,-64.18 287.21,-67.58 297.18,-71.18 297.25,-64.18"/>
</g>
<!-- Node26 -->
<g id="node26" class="node">
<title>Node26</title>
<g id="a_node26"><a xlink:href="_string_util_8hpp.html" target="_top" xlink:title=" ">
<polygon fill="white" stroke="black" points="1257.38,-169.25 1257.38,-188.5 1332.62,-188.5 1332.62,-169.25 1257.38,-169.25"/>
<text xml:space="preserve" text-anchor="middle" x="1295" y="-175" font-family="Helvetica,sans-Serif" font-size="10.00">StringUtil.hpp</text>
</a>
</g>
</g>
<!-- Node21&#45;&gt;Node26 -->
<g id="edge26" class="edge">
<title>Node21&#45;&gt;Node26</title>
<path fill="none" stroke="midnightblue" d="M1233.22,-225.17C1244.15,-217.16 1260.41,-205.24 1273.5,-195.63"/>
<polygon fill="midnightblue" stroke="midnightblue" points="1275.55,-198.48 1281.54,-189.74 1271.41,-192.83 1275.55,-198.48"/>
</g>
<!-- Node28 -->
<g id="node28" class="node">
<title>Node28</title>
<g id="a_node28"><a xlink:href="_utilities_8hpp.html" target="_top" xlink:title=" ">
<polygon fill="white" stroke="black" points="1240.12,-113 1240.12,-132.25 1307.88,-132.25 1307.88,-113 1240.12,-113"/>
<text xml:space="preserve" text-anchor="middle" x="1274" y="-118.75" font-family="Helvetica,sans-Serif" font-size="10.00">Utilities.hpp</text>
</a>
</g>
</g>
<!-- Node21&#45;&gt;Node28 -->
<g id="edge30" class="edge">
<title>Node21&#45;&gt;Node28</title>
<path fill="none" stroke="midnightblue" d="M1224.3,-225.08C1229.07,-212.31 1238.35,-188.36 1248,-168.75 1252.39,-159.83 1257.81,-150.24 1262.56,-142.21"/>
<polygon fill="midnightblue" stroke="midnightblue" points="1265.51,-144.09 1267.68,-133.72 1259.52,-140.47 1265.51,-144.09"/>
</g>
<!-- Node22&#45;&gt;Node23 -->
<g id="edge23" class="edge">
<title>Node22&#45;&gt;Node23</title>
<path fill="none" stroke="midnightblue" d="M1072.38,-169.86C1069.55,-169.46 1066.74,-169.08 1064,-168.75 863.61,-144.34 623.84,-131.07 518.35,-126.03"/>
<polygon fill="midnightblue" stroke="midnightblue" points="518.72,-122.54 508.57,-125.57 518.39,-129.53 518.72,-122.54"/>
</g>
<!-- Node23&#45;&gt;Node24 -->
<g id="edge24" class="edge">
<title>Node23&#45;&gt;Node24</title>
<path fill="none" stroke="midnightblue" d="M428.35,-112.54C392.24,-103.35 336.24,-89.09 296.85,-79.05"/>
<polygon fill="midnightblue" stroke="midnightblue" points="297.73,-75.66 287.17,-76.59 296,-82.45 297.73,-75.66"/>
</g>
<!-- Node25 -->
<g id="node25" class="node">
<title>Node25</title>
<g id="a_node25"><a xlink:href="_bit_set_8hpp.html" target="_top" xlink:title=" ">
<polygon fill="white" stroke="black" points="220.12,-0.5 220.12,-19.75 281.88,-19.75 281.88,-0.5 220.12,-0.5"/>
<text xml:space="preserve" text-anchor="middle" x="251" y="-6.25" font-family="Helvetica,sans-Serif" font-size="10.00">BitSet.hpp</text>
</a>
</g>
</g>
<!-- Node24&#45;&gt;Node25 -->
<g id="edge25" class="edge">
<title>Node24&#45;&gt;Node25</title>
<path fill="none" stroke="midnightblue" d="M251,-56.42C251,-49.62 251,-40.01 251,-31.4"/>
<polygon fill="midnightblue" stroke="midnightblue" points="254.5,-31.43 251,-21.43 247.5,-31.43 254.5,-31.43"/>
</g>
<!-- Node26&#45;&gt;Node27 -->
<g id="edge27" class="edge">
<title>Node26&#45;&gt;Node27</title>
<path fill="none" stroke="midnightblue" d="M1314.08,-168.79C1332,-160.27 1359.07,-147.38 1379.72,-137.56"/>
<polygon fill="midnightblue" stroke="midnightblue" points="1380.96,-140.84 1388.49,-133.39 1377.96,-134.52 1380.96,-140.84"/>
</g>
<!-- Node26&#45;&gt;Node28 -->
<g id="edge28" class="edge">
<title>Node26&#45;&gt;Node28</title>
<path fill="none" stroke="midnightblue" d="M1291.53,-168.92C1288.81,-161.89 1284.92,-151.84 1281.5,-143"/>
<polygon fill="midnightblue" stroke="midnightblue" points="1284.82,-141.89 1277.95,-133.83 1278.3,-144.42 1284.82,-141.89"/>
</g>
<!-- Node29 -->
<g id="node29" class="node">
<title>Node29</title>
<g id="a_node29"><a xlink:title=" ">
<polygon fill="white" stroke="#bfbfbf" points="1240.5,-56.75 1240.5,-76 1307.5,-76 1307.5,-56.75 1240.5,-56.75"/>
<text xml:space="preserve" text-anchor="middle" x="1274" y="-62.5" font-family="Helvetica,sans-Serif" font-size="10.00">sys/types.h</text>
</a>
</g>
</g>
<!-- Node28&#45;&gt;Node29 -->
<g id="edge29" class="edge">
<title>Node28&#45;&gt;Node29</title>
<path fill="none" stroke="midnightblue" d="M1274,-112.67C1274,-105.87 1274,-96.26 1274,-87.65"/>
<polygon fill="midnightblue" stroke="midnightblue" points="1277.5,-87.68 1274,-77.68 1270.5,-87.68 1277.5,-87.68"/>
</g>
<!-- Node31 -->
<g id="node31" class="node">
<title>Node31</title>
<g id="a_node31"><a xlink:href="_memory_8hpp.html" target="_top" xlink:title=" ">
<polygon fill="white" stroke="black" points="1201.75,-338 1201.75,-357.25 1270.25,-357.25 1270.25,-338 1201.75,-338"/>
<text xml:space="preserve" text-anchor="middle" x="1236" y="-343.75" font-family="Helvetica,sans-Serif" font-size="10.00">Memory.hpp</text>
</a>
</g>
</g>
<!-- Node30&#45;&gt;Node31 -->
<g id="edge34" class="edge">
<title>Node30&#45;&gt;Node31</title>
<path fill="none" stroke="midnightblue" d="M1077.15,-451.69C1107.59,-445.23 1147.35,-433.71 1178,-414 1197.08,-401.73 1213.65,-381.5 1224.14,-366.78"/>
<polygon fill="midnightblue" stroke="midnightblue" points="1226.78,-369.13 1229.54,-358.9 1221,-365.18 1226.78,-369.13"/>
</g>
<!-- Node32 -->
<g id="node32" class="node">
<title>Node32</title>
<g id="a_node32"><a xlink:href="_memory_stack_8hpp.html" target="_top" xlink:title=" ">
<polygon fill="white" stroke="black" points="983.25,-225.5 983.25,-244.75 1078.75,-244.75 1078.75,-225.5 983.25,-225.5"/>
<text xml:space="preserve" text-anchor="middle" x="1031" y="-231.25" font-family="Helvetica,sans-Serif" font-size="10.00">MemoryStack.hpp</text>
</a>
</g>
</g>
<!-- Node30&#45;&gt;Node32 -->
<g id="edge35" class="edge">
<title>Node30&#45;&gt;Node32</title>
<path fill="none" stroke="midnightblue" d="M1031,-450.11C1031,-417.19 1031,-302.98 1031,-256.27"/>
<polygon fill="midnightblue" stroke="midnightblue" points="1034.5,-256.52 1031,-246.52 1027.5,-256.52 1034.5,-256.52"/>
</g>
<!-- Node33 -->
<g id="node33" class="node">
<title>Node33</title>
<g id="a_node33"><a xlink:title=" ">
<polygon fill="white" stroke="#bfbfbf" points="901.25,-281.75 901.25,-301 1002.75,-301 1002.75,-281.75 901.25,-281.75"/>
<text xml:space="preserve" text-anchor="middle" x="952" y="-287.5" font-family="Helvetica,sans-Serif" font-size="10.00">SysSemaphore.hpp</text>
</a>
</g>
</g>
<!-- Node30&#45;&gt;Node33 -->
<g id="edge37" class="edge">
<title>Node30&#45;&gt;Node33</title>
<path fill="none" stroke="midnightblue" d="M1026.9,-450.25C1017.59,-430.14 994.12,-379.58 974,-337.5 969.91,-328.95 965.33,-319.52 961.41,-311.5"/>
<polygon fill="midnightblue" stroke="midnightblue" points="964.64,-310.14 957.09,-302.7 958.35,-313.22 964.64,-310.14"/>
</g>
<!-- Node34 -->
<g id="node34" class="node">
<title>Node34</title>
<g id="a_node34"><a xlink:href="_identity_table_class_8hpp.html" target="_top" xlink:title=" ">
<polygon fill="white" stroke="black" points="1286.12,-394.25 1286.12,-413.5 1401.88,-413.5 1401.88,-394.25 1286.12,-394.25"/>
<text xml:space="preserve" text-anchor="middle" x="1344" y="-400" font-family="Helvetica,sans-Serif" font-size="10.00">IdentityTableClass.hpp</text>
</a>
</g>
</g>
<!-- Node30&#45;&gt;Node34 -->
<g id="edge38" class="edge">
<title>Node30&#45;&gt;Node34</title>
<path fill="none" stroke="midnightblue" d="M1077.18,-451.12C1130.94,-441.8 1220.03,-426.36 1280.33,-415.91"/>
<polygon fill="midnightblue" stroke="midnightblue" points="1280.87,-419.37 1290.12,-414.21 1279.67,-412.47 1280.87,-419.37"/>
</g>
<!-- Node35 -->
<g id="node35" class="node">
<title>Node35</title>
<g id="a_node35"><a xlink:href="_queue_class_8hpp.html" target="_top" xlink:title=" ">
<polygon fill="white" stroke="black" points="800.62,-394.25 800.62,-413.5 889.38,-413.5 889.38,-394.25 800.62,-394.25"/>
<text xml:space="preserve" text-anchor="middle" x="845" y="-400" font-family="Helvetica,sans-Serif" font-size="10.00">QueueClass.hpp</text>
</a>
</g>
</g>
<!-- Node30&#45;&gt;Node35 -->
<g id="edge40" class="edge">
<title>Node30&#45;&gt;Node35</title>
<path fill="none" stroke="midnightblue" d="M999.87,-450.04C968.89,-441.01 921.14,-427.08 886.85,-417.08"/>
<polygon fill="midnightblue" stroke="midnightblue" points="888.27,-413.85 877.69,-414.41 886.31,-420.57 888.27,-413.85"/>
</g>
<!-- Node38 -->
<g id="node38" class="node">
<title>Node38</title>
<g id="a_node38"><a xlink:title=" ">
<polygon fill="white" stroke="#bfbfbf" points="1225.5,-394.25 1225.5,-413.5 1268.5,-413.5 1268.5,-394.25 1225.5,-394.25"/>
<text xml:space="preserve" text-anchor="middle" x="1247" y="-400" font-family="Helvetica,sans-Serif" font-size="10.00">vector</text>
</a>
</g>
</g>
<!-- Node30&#45;&gt;Node38 -->
<g id="edge44" class="edge">
<title>Node30&#45;&gt;Node38</title>
<path fill="none" stroke="midnightblue" d="M1067.21,-450.08C1103.56,-440.99 1161.17,-426.56 1211,-414 1212.16,-413.71 1213.33,-413.41 1214.52,-413.11"/>
<polygon fill="midnightblue" stroke="midnightblue" points="1215,-416.6 1223.83,-410.76 1213.28,-409.82 1215,-416.6"/>
</g>
<!-- Node39 -->
<g id="node39" class="node">
<title>Node39</title>
<g id="a_node39"><a xlink:href="_memory_stats_8hpp.html" target="_top" xlink:title=" ">
<polygon fill="white" stroke="black" points="676.38,-394.25 676.38,-413.5 769.62,-413.5 769.62,-394.25 676.38,-394.25"/>
<text xml:space="preserve" text-anchor="middle" x="723" y="-400" font-family="Helvetica,sans-Serif" font-size="10.00">MemoryStats.hpp</text>
</a>
</g>
</g>
<!-- Node30&#45;&gt;Node39 -->
<g id="edge45" class="edge">
<title>Node30&#45;&gt;Node39</title>
<path fill="none" stroke="midnightblue" d="M984.89,-451C930.5,-441.42 840.02,-425.49 780.95,-415.08"/>
<polygon fill="midnightblue" stroke="midnightblue" points="781.88,-411.69 771.42,-413.4 780.66,-418.59 781.88,-411.69"/>
</g>
<!-- Node40 -->
<g id="node40" class="node">
<title>Node40</title>
<g id="a_node40"><a xlink:href="_memory_segment_8hpp.html" target="_top" xlink:title=" ">
<polygon fill="white" stroke="black" points="1059.5,-394.25 1059.5,-413.5 1168.5,-413.5 1168.5,-394.25 1059.5,-394.25"/>
<text xml:space="preserve" text-anchor="middle" x="1114" y="-400" font-family="Helvetica,sans-Serif" font-size="10.00">MemorySegment.hpp</text>
</a>
</g>
</g>
<!-- Node30&#45;&gt;Node40 -->
<g id="edge47" class="edge">
<title>Node30&#45;&gt;Node40</title>
<path fill="none" stroke="midnightblue" d="M1044.71,-450.17C1057.2,-442 1075.92,-429.77 1090.75,-420.07"/>
<polygon fill="midnightblue" stroke="midnightblue" points="1092.55,-423.08 1099.01,-414.67 1088.72,-417.22 1092.55,-423.08"/>
</g>
<!-- Node32&#45;&gt;Node14 -->
<g id="edge36" class="edge">
<title>Node32&#45;&gt;Node14</title>
<path fill="none" stroke="midnightblue" d="M1031,-225.17C1031,-218.37 1031,-208.76 1031,-200.15"/>
<polygon fill="midnightblue" stroke="midnightblue" points="1034.5,-200.18 1031,-190.18 1027.5,-200.18 1034.5,-200.18"/>
</g>
<!-- Node34&#45;&gt;Node19 -->
<g id="edge39" class="edge">
<title>Node34&#45;&gt;Node19</title>
<path fill="none" stroke="midnightblue" d="M1344,-393.92C1344,-387.12 1344,-377.51 1344,-368.9"/>
<polygon fill="midnightblue" stroke="midnightblue" points="1347.5,-368.93 1344,-358.93 1340.5,-368.93 1347.5,-368.93"/>
</g>
<!-- Node36 -->
<g id="node36" class="node">
<title>Node36</title>
<g id="a_node36"><a xlink:href="_array_class_8hpp.html" target="_top" xlink:title=" ">
<polygon fill="white" stroke="black" points="785.25,-338 785.25,-357.25 868.75,-357.25 868.75,-338 785.25,-338"/>
<text xml:space="preserve" text-anchor="middle" x="827" y="-343.75" font-family="Helvetica,sans-Serif" font-size="10.00">ArrayClass.hpp</text>
</a>
</g>
</g>
<!-- Node35&#45;&gt;Node36 -->
<g id="edge41" class="edge">
<title>Node35&#45;&gt;Node36</title>
<path fill="none" stroke="midnightblue" d="M842.03,-393.92C839.72,-386.96 836.44,-377.07 833.53,-368.3"/>
<polygon fill="midnightblue" stroke="midnightblue" points="836.86,-367.24 830.39,-358.85 830.22,-369.45 836.86,-367.24"/>
</g>
<!-- Node36&#45;&gt;Node15 -->
<g id="edge43" class="edge">
<title>Node36&#45;&gt;Node15</title>
<path fill="none" stroke="midnightblue" d="M805.41,-337.54C784.85,-328.9 753.65,-315.78 730.17,-305.9"/>
<polygon fill="midnightblue" stroke="midnightblue" points="731.63,-302.72 721.06,-302.07 728.92,-309.17 731.63,-302.72"/>
</g>
<!-- Node37 -->
<g id="node37" class="node">
<title>Node37</title>
<g id="a_node37"><a xlink:href="_number_array_8hpp.html" target="_top" xlink:title=" ">
<polygon fill="white" stroke="black" points="792.5,-281.75 792.5,-301 883.5,-301 883.5,-281.75 792.5,-281.75"/>
<text xml:space="preserve" text-anchor="middle" x="838" y="-287.5" font-family="Helvetica,sans-Serif" font-size="10.00">NumberArray.hpp</text>
</a>
</g>
</g>
<!-- Node36&#45;&gt;Node37 -->
<g id="edge42" class="edge">
<title>Node36&#45;&gt;Node37</title>
<path fill="none" stroke="midnightblue" d="M828.82,-337.67C830.21,-330.79 832.19,-321.04 833.95,-312.35"/>
<polygon fill="midnightblue" stroke="midnightblue" points="837.36,-313.15 835.92,-302.65 830.5,-311.75 837.36,-313.15"/>
</g>
<!-- Node39&#45;&gt;Node11 -->
<g id="edge46" class="edge">
<title>Node39&#45;&gt;Node11</title>
<path fill="none" stroke="midnightblue" d="M722.17,-393.92C721.54,-387.04 720.64,-377.29 719.84,-368.6"/>
<polygon fill="midnightblue" stroke="midnightblue" points="723.35,-368.56 718.95,-358.92 716.38,-369.2 723.35,-368.56"/>
</g>
<!-- Node40&#45;&gt;Node31 -->
<g id="edge54" class="edge">
<title>Node40&#45;&gt;Node31</title>
<path fill="none" stroke="midnightblue" d="M1134.42,-393.79C1153.77,-385.19 1183.1,-372.15 1205.28,-362.29"/>
<polygon fill="midnightblue" stroke="midnightblue" points="1206.42,-365.61 1214.13,-358.35 1203.57,-359.21 1206.42,-365.61"/>
</g>
<!-- Node41 -->
<g id="node41" class="node">
<title>Node41</title>
<g id="a_node41"><a xlink:href="_dead_object_8hpp.html" target="_top" xlink:title=" ">
<polygon fill="white" stroke="black" points="1096.75,-338 1096.75,-357.25 1183.25,-357.25 1183.25,-338 1096.75,-338"/>
<text xml:space="preserve" text-anchor="middle" x="1140" y="-343.75" font-family="Helvetica,sans-Serif" font-size="10.00">DeadObject.hpp</text>
</a>
</g>
</g>
<!-- Node40&#45;&gt;Node41 -->
<g id="edge48" class="edge">
<title>Node40&#45;&gt;Node41</title>
<path fill="none" stroke="midnightblue" d="M1118.29,-393.92C1121.7,-386.81 1126.59,-376.62 1130.86,-367.7"/>
<polygon fill="midnightblue" stroke="midnightblue" points="1133.97,-369.31 1135.13,-358.78 1127.65,-366.29 1133.97,-369.31"/>
</g>
<!-- Node42 -->
<g id="node42" class="node">
<title>Node42</title>
<g id="a_node42"><a xlink:title=" ">
<polygon fill="white" stroke="#bfbfbf" points="1062.38,-281.75 1062.38,-301 1107.62,-301 1107.62,-281.75 1062.38,-281.75"/>
<text xml:space="preserve" text-anchor="middle" x="1085" y="-287.5" font-family="Helvetica,sans-Serif" font-size="10.00">stdio.h</text>
</a>
</g>
</g>
<!-- Node40&#45;&gt;Node42 -->
<g id="edge55" class="edge">
<title>Node40&#45;&gt;Node42</title>
<path fill="none" stroke="midnightblue" d="M1107.01,-393.8C1100.75,-385.08 1091.96,-371.29 1088,-357.75 1083.75,-343.19 1083.11,-326.04 1083.48,-312.96"/>
<polygon fill="midnightblue" stroke="midnightblue" points="1086.98,-313.16 1084.01,-302.99 1079.98,-312.79 1086.98,-313.16"/>
</g>
<!-- Node43 -->
<g id="node43" class="node">
<title>Node43</title>
<g id="a_node43"><a xlink:href="_interpreter_8hpp.html" target="_top" xlink:title=" ">
<polygon fill="white" stroke="black" points="886.88,-338 886.88,-357.25 965.12,-357.25 965.12,-338 886.88,-338"/>
<text xml:space="preserve" text-anchor="middle" x="926" y="-343.75" font-family="Helvetica,sans-Serif" font-size="10.00">Interpreter.hpp</text>
</a>
</g>
</g>
<!-- Node40&#45;&gt;Node43 -->
<g id="edge51" class="edge">
<title>Node40&#45;&gt;Node43</title>
<path fill="none" stroke="midnightblue" d="M1082.53,-393.79C1051.22,-384.76 1002.96,-370.83 968.3,-360.83"/>
<polygon fill="midnightblue" stroke="midnightblue" points="969.6,-357.56 959.02,-358.15 967.66,-364.29 969.6,-357.56"/>
</g>
<!-- Node41&#45;&gt;Node14 -->
<g id="edge49" class="edge">
<title>Node41&#45;&gt;Node14</title>
<path fill="none" stroke="midnightblue" d="M1138.05,-337.77C1132.96,-316.38 1117.62,-261 1088,-225 1078.57,-213.54 1065.78,-203.09 1054.71,-195.14"/>
<polygon fill="midnightblue" stroke="midnightblue" points="1057.01,-192.48 1046.79,-189.69 1053.04,-198.24 1057.01,-192.48"/>
</g>
<!-- Node41&#45;&gt;Node42 -->
<g id="edge50" class="edge">
<title>Node41&#45;&gt;Node42</title>
<path fill="none" stroke="midnightblue" d="M1130.92,-337.67C1123.07,-329.92 1111.52,-318.53 1101.96,-309.11"/>
<polygon fill="midnightblue" stroke="midnightblue" points="1104.57,-306.76 1094.99,-302.23 1099.65,-311.74 1104.57,-306.76"/>
</g>
<!-- Node43&#45;&gt;Node2 -->
<g id="edge52" class="edge">
<title>Node43&#45;&gt;Node2</title>
<path fill="none" stroke="midnightblue" d="M924.66,-357.68C922.08,-371.81 915.1,-399.04 898,-414 806.16,-494.37 655.56,-511.47 580.11,-514.81"/>
<polygon fill="midnightblue" stroke="midnightblue" points="580.04,-511.31 570.18,-515.18 580.3,-518.3 580.04,-511.31"/>
</g>
<!-- Node43&#45;&gt;Node33 -->
<g id="edge53" class="edge">
<title>Node43&#45;&gt;Node33</title>
<path fill="none" stroke="midnightblue" d="M930.29,-337.67C933.7,-330.56 938.59,-320.37 942.86,-311.45"/>
<polygon fill="midnightblue" stroke="midnightblue" points="945.97,-313.06 947.13,-302.53 939.65,-310.04 945.97,-313.06"/>
</g>
<!-- Node44&#45;&gt;Node24 -->
<g id="edge57" class="edge">
<title>Node44&#45;&gt;Node24</title>
<path fill="none" stroke="midnightblue" d="M162,-450.01C111.65,-437.04 38,-407.94 38,-348.62 38,-348.62 38,-348.62 38,-177.88 38,-103.16 142.53,-78.9 205.14,-71.07"/>
<polygon fill="midnightblue" stroke="midnightblue" points="205.26,-74.58 214.8,-69.96 204.47,-67.62 205.26,-74.58"/>
</g>
<!-- Node45 -->
<g id="node45" class="node">
<title>Node45</title>
<g id="a_node45"><a xlink:href="_primitive_behaviour_names_8h.html" target="_top" xlink:title=" ">
<polygon fill="white" stroke="black" points="139.25,-394.25 139.25,-413.5 276.75,-413.5 276.75,-394.25 139.25,-394.25"/>
<text xml:space="preserve" text-anchor="middle" x="208" y="-400" font-family="Helvetica,sans-Serif" font-size="10.00">PrimitiveBehaviourNames.h</text>
</a>
</g>
</g>
<!-- Node44&#45;&gt;Node45 -->
<g id="edge58" class="edge">
<title>Node44&#45;&gt;Node45</title>
<path fill="none" stroke="midnightblue" d="M208,-450.17C208,-443.37 208,-433.76 208,-425.15"/>
<polygon fill="midnightblue" stroke="midnightblue" points="211.5,-425.18 208,-415.18 204.5,-425.18 211.5,-425.18"/>
</g>
<!-- Node47&#45;&gt;Node24 -->
<g id="edge62" class="edge">
<title>Node47&#45;&gt;Node24</title>
<path fill="none" stroke="midnightblue" d="M173.62,-512.33C109.48,-505.28 0,-481.96 0,-404.88 0,-404.88 0,-404.88 0,-177.88 0,-89.18 132.91,-71.06 205.29,-67.76"/>
<polygon fill="midnightblue" stroke="midnightblue" points="204.99,-71.28 214.85,-67.41 204.73,-64.28 204.99,-71.28"/>
</g>
</g>
</svg>
