<?xml version="1.0" encoding="UTF-8" standalone="no"?>
<!DOCTYPE svg PUBLIC "-//W3C//DTD SVG 1.1//EN"
 "http://www.w3.org/Graphics/SVG/1.1/DTD/svg11.dtd">
<!-- Generated by graphviz version 13.1.0 (20250701.0955)
 -->
<!-- Title: UninitDispatcher.hpp Pages: 1 -->
<svg width="224pt" height="85pt"
 viewBox="0.00 0.00 224.00 85.00" xmlns="http://www.w3.org/2000/svg" xmlns:xlink="http://www.w3.org/1999/xlink">
<g id="graph0" class="graph" transform="scale(1 1) rotate(0) translate(4 80.5)">
<title>UninitDispatcher.hpp</title>
<polygon fill="white" stroke="none" points="-4,4 -4,-80.5 220.25,-80.5 220.25,4 -4,4"/>
<!-- Node1 -->
<g id="node1" class="node">
<title>Node1</title>
<g id="a_node1"><a xlink:title=" ">
<polygon fill="#bfbfbf" stroke="black" points="50.5,-56.75 50.5,-76 157.25,-76 157.25,-56.75 50.5,-56.75"/>
<text xml:space="preserve" text-anchor="middle" x="103.88" y="-62.5" font-family="Helvetica,sans-Serif" font-size="10.00">UninitDispatcher.hpp</text>
</a>
</g>
</g>
<!-- Node2 -->
<g id="node2" class="node">
<title>Node2</title>
<g id="a_node2"><a xlink:href="_rexx_memory_8cpp.html" target="_top" xlink:title=" ">
<polygon fill="white" stroke="black" points="0,-0.5 0,-19.75 91.75,-19.75 91.75,-0.5 0,-0.5"/>
<text xml:space="preserve" text-anchor="middle" x="45.88" y="-6.25" font-family="Helvetica,sans-Serif" font-size="10.00">RexxMemory.cpp</text>
</a>
</g>
</g>
<!-- Node1&#45;&gt;Node2 -->
<g id="edge1" class="edge">
<title>Node1&#45;&gt;Node2</title>
<path fill="none" stroke="midnightblue" d="M86.08,-48.73C75.91,-39.22 63.58,-27.68 55.27,-19.92"/>
<polygon fill="midnightblue" stroke="midnightblue" points="83.5,-51.11 93.19,-55.38 88.28,-46 83.5,-51.11"/>
</g>
<!-- Node3 -->
<g id="node3" class="node">
<title>Node3</title>
<g id="a_node3"><a xlink:href="_uninit_dispatcher_8cpp.html" target="_top" xlink:title=" ">
<polygon fill="white" stroke="black" points="109.5,-0.5 109.5,-19.75 216.25,-19.75 216.25,-0.5 109.5,-0.5"/>
<text xml:space="preserve" text-anchor="middle" x="162.88" y="-6.25" font-family="Helvetica,sans-Serif" font-size="10.00">UninitDispatcher.cpp</text>
</a>
</g>
</g>
<!-- Node1&#45;&gt;Node3 -->
<g id="edge2" class="edge">
<title>Node1&#45;&gt;Node3</title>
<path fill="none" stroke="midnightblue" d="M121.98,-48.73C132.32,-39.22 144.87,-27.68 153.31,-19.92"/>
<polygon fill="midnightblue" stroke="midnightblue" points="119.72,-46.05 114.73,-55.39 124.46,-51.2 119.72,-46.05"/>
</g>
</g>
</svg>
