<?xml version="1.0" encoding="UTF-8" standalone="no"?>
<!DOCTYPE svg PUBLIC "-//W3C//DTD SVG 1.1//EN"
 "http://www.w3.org/Graphics/SVG/1.1/DTD/svg11.dtd">
<!-- Generated by graphviz version 13.1.0 (20250701.0955)
 -->
<!-- Title: UseArgVariableRef.cpp Pages: 1 -->
<!--zoomable 591 -->
<svg id="main" version="1.1" xmlns="http://www.w3.org/2000/svg" xmlns:xlink="http://www.w3.org/1999/xlink" xml:space="preserve" onload="init(evt)">
<style type="text/css"><![CDATA[
.edge:hover path { stroke: red; }
.edge:hover polygon { stroke: red; fill: red; }
]]></style>
<script type="text/javascript"><![CDATA[
var edges = document.getElementsByTagName('g');
if (edges && edges.length) {
  for (var i=0;i<edges.length;i++) {
    if (edges[i].id.substr(0,4)=='edge') {
      edges[i].setAttribute('class','edge');
    }
  }
}
]]></script>
        <defs>
                <circle id="rim" cx="0" cy="0" r="7"/>
                <circle id="rim2" cx="0" cy="0" r="3.5"/>
                <g id="zoomPlus">
                        <use xlink:href="#rim" fill="#404040">
                                <set attributeName="fill" to="#808080" begin="zoomplus.mouseover" end="zoomplus.mouseout"/>
                        </use>
                        <path d="M-4,0h8M0,-4v8" fill="none" stroke="white" stroke-width="1.5" pointer-events="none"/>
                </g>
                <g id="zoomMin">
                        <use xlink:href="#rim" fill="#404040">
                                <set attributeName="fill" to="#808080" begin="zoomminus.mouseover" end="zoomminus.mouseout"/>
                        </use>
                        <path d="M-4,0h8" fill="none" stroke="white" stroke-width="1.5" pointer-events="none"/>
                </g>
                <g id="dirArrow">
                        <path fill="none" stroke="white" stroke-width="1.5" d="M0,-3.0v7 M-2.5,-0.5L0,-3.0L2.5,-0.5"/>
                </g>
               <g id="resetDef">
                       <use xlink:href="#rim2" fill="#404040">
                               <set attributeName="fill" to="#808080" begin="reset.mouseover" end="reset.mouseout"/>
                       </use>
               </g>
        </defs>

<script type="text/javascript">
var viewWidth = 1653;
var viewHeight = 591;
var sectionId = 'dynsection-0';
</script>
<script xlink:href="svgpan.js"/>
<svg id="graph" class="graph">
<g id="viewport">
<title>UseArgVariableRef.cpp</title>
<polygon fill="white" stroke="none" points="-4,4 -4,-586.75 1649.45,-586.75 1649.45,4 -4,4"/>
<!-- Node1 -->
<g id="node1" class="node">
<title>Node1</title>
<g id="a_node1"><a xlink:title=" ">
<polygon fill="#bfbfbf" stroke="black" points="954.2,-563 954.2,-582.25 1072.2,-582.25 1072.2,-563 954.2,-563"/>
<text xml:space="preserve" text-anchor="middle" x="1013.2" y="-568.75" font-family="Helvetica,sans-Serif" font-size="10.00">UseArgVariableRef.cpp</text>
</a>
</g>
</g>
<!-- Node2 -->
<g id="node2" class="node">
<title>Node2</title>
<g id="a_node2"><a xlink:href="_rexx_core_8h.html" target="_top" xlink:title=" ">
<polygon fill="white" stroke="black" points="978.95,-506.75 978.95,-526 1047.45,-526 1047.45,-506.75 978.95,-506.75"/>
<text xml:space="preserve" text-anchor="middle" x="1013.2" y="-512.5" font-family="Helvetica,sans-Serif" font-size="10.00">RexxCore.h</text>
</a>
</g>
</g>
<!-- Node1&#45;&gt;Node2 -->
<g id="edge1" class="edge">
<title>Node1&#45;&gt;Node2</title>
<path fill="none" stroke="midnightblue" d="M1013.2,-562.67C1013.2,-555.87 1013.2,-546.26 1013.2,-537.65"/>
<polygon fill="midnightblue" stroke="midnightblue" points="1016.7,-537.68 1013.2,-527.68 1009.7,-537.68 1016.7,-537.68"/>
</g>
<!-- Node47 -->
<g id="node47" class="node">
<title>Node47</title>
<g id="a_node47"><a xlink:href="_use_arg_variable_ref_8hpp.html" target="_top" xlink:title=" ">
<polygon fill="white" stroke="black" points="1290.2,-506.75 1290.2,-526 1408.2,-526 1408.2,-506.75 1290.2,-506.75"/>
<text xml:space="preserve" text-anchor="middle" x="1349.2" y="-512.5" font-family="Helvetica,sans-Serif" font-size="10.00">UseArgVariableRef.hpp</text>
</a>
</g>
</g>
<!-- Node1&#45;&gt;Node47 -->
<g id="edge61" class="edge">
<title>Node1&#45;&gt;Node47</title>
<path fill="none" stroke="midnightblue" d="M1069.44,-562.54C1127.83,-553.12 1219.18,-538.37 1281.5,-528.31"/>
<polygon fill="midnightblue" stroke="midnightblue" points="1281.97,-531.78 1291.29,-526.73 1280.86,-524.86 1281.97,-531.78"/>
</g>
<!-- Node49 -->
<g id="node49" class="node">
<title>Node49</title>
<g id="a_node49"><a xlink:href="_rexx_variable_8hpp.html" target="_top" xlink:title=" ">
<polygon fill="white" stroke="black" points="376.95,-394.25 376.95,-413.5 469.45,-413.5 469.45,-394.25 376.95,-394.25"/>
<text xml:space="preserve" text-anchor="middle" x="423.2" y="-400" font-family="Helvetica,sans-Serif" font-size="10.00">RexxVariable.hpp</text>
</a>
</g>
</g>
<!-- Node1&#45;&gt;Node49 -->
<g id="edge63" class="edge">
<title>Node1&#45;&gt;Node49</title>
<path fill="none" stroke="midnightblue" d="M981.06,-562.54C881.68,-534.45 579.23,-448.97 466.32,-417.06"/>
<polygon fill="midnightblue" stroke="midnightblue" points="467.4,-413.73 456.83,-414.38 465.5,-420.47 467.4,-413.73"/>
</g>
<!-- Node3 -->
<g id="node3" class="node">
<title>Node3</title>
<g id="a_node3"><a xlink:href="oorexxapi_8h.html" target="_top" xlink:title=" ">
<polygon fill="white" stroke="black" points="1123.08,-450.5 1123.08,-469.75 1189.33,-469.75 1189.33,-450.5 1123.08,-450.5"/>
<text xml:space="preserve" text-anchor="middle" x="1156.2" y="-456.25" font-family="Helvetica,sans-Serif" font-size="10.00">oorexxapi.h</text>
</a>
</g>
</g>
<!-- Node2&#45;&gt;Node3 -->
<g id="edge2" class="edge">
<title>Node2&#45;&gt;Node3</title>
<path fill="none" stroke="midnightblue" d="M1037.14,-506.29C1060.24,-497.53 1095.45,-484.17 1121.6,-474.25"/>
<polygon fill="midnightblue" stroke="midnightblue" points="1122.67,-477.59 1130.77,-470.77 1120.18,-471.05 1122.67,-477.59"/>
</g>
<!-- Node10 -->
<g id="node10" class="node">
<title>Node10</title>
<g id="a_node10"><a xlink:title=" ">
<polygon fill="white" stroke="#bfbfbf" points="959.45,-450.5 959.45,-469.75 1066.95,-469.75 1066.95,-450.5 959.45,-450.5"/>
<text xml:space="preserve" text-anchor="middle" x="1013.2" y="-456.25" font-family="Helvetica,sans-Serif" font-size="10.00">PlatformDefinitions.h</text>
</a>
</g>
</g>
<!-- Node2&#45;&gt;Node10 -->
<g id="edge9" class="edge">
<title>Node2&#45;&gt;Node10</title>
<path fill="none" stroke="midnightblue" d="M1013.2,-506.42C1013.2,-499.62 1013.2,-490.01 1013.2,-481.4"/>
<polygon fill="midnightblue" stroke="midnightblue" points="1016.7,-481.43 1013.2,-471.43 1009.7,-481.43 1016.7,-481.43"/>
</g>
<!-- Node11 -->
<g id="node11" class="node">
<title>Node11</title>
<g id="a_node11"><a xlink:href="_class_type_codes_8h.html" target="_top" xlink:title=" ">
<polygon fill="white" stroke="black" points="763.58,-338 763.58,-357.25 862.83,-357.25 862.83,-338 763.58,-338"/>
<text xml:space="preserve" text-anchor="middle" x="813.2" y="-343.75" font-family="Helvetica,sans-Serif" font-size="10.00">ClassTypeCodes.h</text>
</a>
</g>
</g>
<!-- Node2&#45;&gt;Node11 -->
<g id="edge10" class="edge">
<title>Node2&#45;&gt;Node11</title>
<path fill="none" stroke="midnightblue" d="M1033.64,-506.31C1057.44,-494.43 1091.63,-472.48 1076.2,-450 1051.29,-413.69 931.41,-378.33 862.41,-360.53"/>
<polygon fill="midnightblue" stroke="midnightblue" points="863.41,-357.17 852.85,-358.1 861.68,-363.95 863.41,-357.17"/>
</g>
<!-- Node12 -->
<g id="node12" class="node">
<title>Node12</title>
<g id="a_node12"><a xlink:href="_object_class_8hpp.html" target="_top" xlink:title=" ">
<polygon fill="white" stroke="black" points="435.83,-338 435.83,-357.25 524.58,-357.25 524.58,-338 435.83,-338"/>
<text xml:space="preserve" text-anchor="middle" x="480.2" y="-343.75" font-family="Helvetica,sans-Serif" font-size="10.00">ObjectClass.hpp</text>
</a>
</g>
</g>
<!-- Node2&#45;&gt;Node12 -->
<g id="edge11" class="edge">
<title>Node2&#45;&gt;Node12</title>
<path fill="none" stroke="midnightblue" d="M978.45,-513.19C916.42,-508.66 789.86,-496.42 755.2,-470.25 725.06,-447.49 748.18,-416.72 718.2,-393.75 714.56,-390.96 605.26,-371 536.06,-358.58"/>
<polygon fill="midnightblue" stroke="midnightblue" points="536.85,-355.16 526.39,-356.85 535.62,-362.05 536.85,-355.16"/>
</g>
<!-- Node18 -->
<g id="node18" class="node">
<title>Node18</title>
<g id="a_node18"><a xlink:href="_table_class_8hpp.html" target="_top" xlink:title=" ">
<polygon fill="white" stroke="black" points="857.45,-450.5 857.45,-469.75 940.95,-469.75 940.95,-450.5 857.45,-450.5"/>
<text xml:space="preserve" text-anchor="middle" x="899.2" y="-456.25" font-family="Helvetica,sans-Serif" font-size="10.00">TableClass.hpp</text>
</a>
</g>
</g>
<!-- Node2&#45;&gt;Node18 -->
<g id="edge18" class="edge">
<title>Node2&#45;&gt;Node18</title>
<path fill="none" stroke="midnightblue" d="M994.12,-506.29C976.2,-497.77 949.13,-484.88 928.48,-475.06"/>
<polygon fill="midnightblue" stroke="midnightblue" points="930.25,-472.02 919.71,-470.89 927.24,-478.34 930.25,-472.02"/>
</g>
<!-- Node23 -->
<g id="node23" class="node">
<title>Node23</title>
<g id="a_node23"><a xlink:href="_class_class_8hpp.html" target="_top" xlink:title=" ">
<polygon fill="white" stroke="black" points="1202.33,-113 1202.33,-132.25 1288.08,-132.25 1288.08,-113 1202.33,-113"/>
<text xml:space="preserve" text-anchor="middle" x="1245.2" y="-118.75" font-family="Helvetica,sans-Serif" font-size="10.00">ClassClass.hpp</text>
</a>
</g>
</g>
<!-- Node2&#45;&gt;Node23 -->
<g id="edge59" class="edge">
<title>Node2&#45;&gt;Node23</title>
<path fill="none" stroke="midnightblue" d="M1047.9,-511.46C1133.74,-500.81 1349.2,-467.82 1349.2,-404.88 1349.2,-404.88 1349.2,-404.88 1349.2,-234.12 1349.2,-189.86 1304.41,-156.11 1273.62,-138.13"/>
<polygon fill="midnightblue" stroke="midnightblue" points="1275.55,-135.2 1265.12,-133.38 1272.14,-141.31 1275.55,-135.2"/>
</g>
<!-- Node30 -->
<g id="node30" class="node">
<title>Node30</title>
<g id="a_node30"><a xlink:href="_rexx_memory_8hpp.html" target="_top" xlink:title=" ">
<polygon fill="white" stroke="black" points="291.33,-450.5 291.33,-469.75 383.08,-469.75 383.08,-450.5 291.33,-450.5"/>
<text xml:space="preserve" text-anchor="middle" x="337.2" y="-456.25" font-family="Helvetica,sans-Serif" font-size="10.00">RexxMemory.hpp</text>
</a>
</g>
</g>
<!-- Node2&#45;&gt;Node30 -->
<g id="edge33" class="edge">
<title>Node2&#45;&gt;Node30</title>
<path fill="none" stroke="midnightblue" d="M978.75,-512.61C869.6,-503.85 530.66,-476.65 394.59,-465.73"/>
<polygon fill="midnightblue" stroke="midnightblue" points="394.98,-462.25 384.73,-464.94 394.42,-469.23 394.98,-462.25"/>
</g>
<!-- Node44 -->
<g id="node44" class="node">
<title>Node44</title>
<g id="a_node44"><a xlink:href="_rexx_behaviour_8hpp.html" target="_top" xlink:title=" ">
<polygon fill="white" stroke="black" points="1385.83,-450.5 1385.83,-469.75 1486.58,-469.75 1486.58,-450.5 1385.83,-450.5"/>
<text xml:space="preserve" text-anchor="middle" x="1436.2" y="-456.25" font-family="Helvetica,sans-Serif" font-size="10.00">RexxBehaviour.hpp</text>
</a>
</g>
</g>
<!-- Node2&#45;&gt;Node44 -->
<g id="edge56" class="edge">
<title>Node2&#45;&gt;Node44</title>
<path fill="none" stroke="midnightblue" d="M1047.82,-510.94C1119.34,-501.76 1284.27,-480.61 1374.49,-469.04"/>
<polygon fill="midnightblue" stroke="midnightblue" points="1374.67,-472.55 1384.14,-467.8 1373.78,-465.6 1374.67,-472.55"/>
</g>
<!-- Node46 -->
<g id="node46" class="node">
<title>Node46</title>
<g id="a_node46"><a xlink:href="_envelope_8hpp.html" target="_top" xlink:title=" ">
<polygon fill="white" stroke="black" points="764.58,-450.5 764.58,-469.75 839.83,-469.75 839.83,-450.5 764.58,-450.5"/>
<text xml:space="preserve" text-anchor="middle" x="802.2" y="-456.25" font-family="Helvetica,sans-Serif" font-size="10.00">Envelope.hpp</text>
</a>
</g>
</g>
<!-- Node2&#45;&gt;Node46 -->
<g id="edge60" class="edge">
<title>Node2&#45;&gt;Node46</title>
<path fill="none" stroke="midnightblue" d="M978.83,-506.54C943.44,-497.44 888.06,-483.2 848.75,-473.09"/>
<polygon fill="midnightblue" stroke="midnightblue" points="849.64,-469.71 839.08,-470.61 847.89,-476.49 849.64,-469.71"/>
</g>
<!-- Node4 -->
<g id="node4" class="node">
<title>Node4</title>
<g id="a_node4"><a xlink:href="rexx_8h.html" target="_top" xlink:title=" ">
<polygon fill="white" stroke="black" points="1213.7,-394.25 1213.7,-413.5 1256.7,-413.5 1256.7,-394.25 1213.7,-394.25"/>
<text xml:space="preserve" text-anchor="middle" x="1235.2" y="-400" font-family="Helvetica,sans-Serif" font-size="10.00">rexx.h</text>
</a>
</g>
</g>
<!-- Node3&#45;&gt;Node4 -->
<g id="edge3" class="edge">
<title>Node3&#45;&gt;Node4</title>
<path fill="none" stroke="midnightblue" d="M1169.25,-450.17C1181.03,-442.08 1198.61,-430 1212.66,-420.35"/>
<polygon fill="midnightblue" stroke="midnightblue" points="1214.63,-423.25 1220.89,-414.7 1210.67,-417.48 1214.63,-423.25"/>
</g>
<!-- Node9 -->
<g id="node9" class="node">
<title>Node9</title>
<g id="a_node9"><a xlink:href="oorexxerrors_8h.html" target="_top" xlink:title=" ">
<polygon fill="white" stroke="black" points="1117.08,-394.25 1117.08,-413.5 1195.33,-413.5 1195.33,-394.25 1117.08,-394.25"/>
<text xml:space="preserve" text-anchor="middle" x="1156.2" y="-400" font-family="Helvetica,sans-Serif" font-size="10.00">oorexxerrors.h</text>
</a>
</g>
</g>
<!-- Node3&#45;&gt;Node9 -->
<g id="edge8" class="edge">
<title>Node3&#45;&gt;Node9</title>
<path fill="none" stroke="midnightblue" d="M1156.2,-450.17C1156.2,-443.37 1156.2,-433.76 1156.2,-425.15"/>
<polygon fill="midnightblue" stroke="midnightblue" points="1159.7,-425.18 1156.2,-415.18 1152.7,-425.18 1159.7,-425.18"/>
</g>
<!-- Node5 -->
<g id="node5" class="node">
<title>Node5</title>
<g id="a_node5"><a xlink:title=" ">
<polygon fill="white" stroke="#bfbfbf" points="881.33,-338 881.33,-357.25 961.08,-357.25 961.08,-338 881.33,-338"/>
<text xml:space="preserve" text-anchor="middle" x="921.2" y="-343.75" font-family="Helvetica,sans-Serif" font-size="10.00">rexxapitypes.h</text>
</a>
</g>
</g>
<!-- Node4&#45;&gt;Node5 -->
<g id="edge4" class="edge">
<title>Node4&#45;&gt;Node5</title>
<path fill="none" stroke="midnightblue" d="M1213.28,-396.03C1210.25,-395.2 1207.16,-394.41 1204.2,-393.75 1105.01,-371.63 1075.91,-375.11 972.79,-358.13"/>
<polygon fill="midnightblue" stroke="midnightblue" points="973.5,-354.7 963.05,-356.49 972.34,-361.6 973.5,-354.7"/>
</g>
<!-- Node6 -->
<g id="node6" class="node">
<title>Node6</title>
<g id="a_node6"><a xlink:href="rexxapidefs_8h.html" target="_top" xlink:title=" ">
<polygon fill="white" stroke="black" points="978.95,-338 978.95,-357.25 1053.45,-357.25 1053.45,-338 978.95,-338"/>
<text xml:space="preserve" text-anchor="middle" x="1016.2" y="-343.75" font-family="Helvetica,sans-Serif" font-size="10.00">rexxapidefs.h</text>
</a>
</g>
</g>
<!-- Node4&#45;&gt;Node6 -->
<g id="edge5" class="edge">
<title>Node4&#45;&gt;Node6</title>
<path fill="none" stroke="midnightblue" d="M1213.23,-396.26C1210.2,-395.39 1207.13,-394.53 1204.2,-393.75 1156.98,-381.14 1102.65,-368.27 1064.57,-359.52"/>
<polygon fill="midnightblue" stroke="midnightblue" points="1065.8,-356.22 1055.27,-357.4 1064.24,-363.04 1065.8,-356.22"/>
</g>
<!-- Node7 -->
<g id="node7" class="node">
<title>Node7</title>
<g id="a_node7"><a xlink:title=" ">
<polygon fill="white" stroke="#bfbfbf" points="1071.7,-338 1071.7,-357.25 1168.7,-357.25 1168.7,-338 1071.7,-338"/>
<text xml:space="preserve" text-anchor="middle" x="1120.2" y="-343.75" font-family="Helvetica,sans-Serif" font-size="10.00">rexxplatformdefs.h</text>
</a>
</g>
</g>
<!-- Node4&#45;&gt;Node7 -->
<g id="edge6" class="edge">
<title>Node4&#45;&gt;Node7</title>
<path fill="none" stroke="midnightblue" d="M1215.95,-393.79C1197.88,-385.27 1170.57,-372.38 1149.74,-362.56"/>
<polygon fill="midnightblue" stroke="midnightblue" points="1151.42,-359.48 1140.88,-358.38 1148.43,-365.81 1151.42,-359.48"/>
</g>
<!-- Node8 -->
<g id="node8" class="node">
<title>Node8</title>
<g id="a_node8"><a xlink:title=" ">
<polygon fill="white" stroke="#bfbfbf" points="1187.08,-338 1187.08,-357.25 1283.33,-357.25 1283.33,-338 1187.08,-338"/>
<text xml:space="preserve" text-anchor="middle" x="1235.2" y="-343.75" font-family="Helvetica,sans-Serif" font-size="10.00">rexxplatformapis.h</text>
</a>
</g>
</g>
<!-- Node4&#45;&gt;Node8 -->
<g id="edge7" class="edge">
<title>Node4&#45;&gt;Node8</title>
<path fill="none" stroke="midnightblue" d="M1235.2,-393.92C1235.2,-387.12 1235.2,-377.51 1235.2,-368.9"/>
<polygon fill="midnightblue" stroke="midnightblue" points="1238.7,-368.93 1235.2,-358.93 1231.7,-368.93 1238.7,-368.93"/>
</g>
<!-- Node13 -->
<g id="node13" class="node">
<title>Node13</title>
<g id="a_node13"><a xlink:title=" ">
<polygon fill="white" stroke="#bfbfbf" points="568.2,-281.75 568.2,-301 602.2,-301 602.2,-281.75 568.2,-281.75"/>
<text xml:space="preserve" text-anchor="middle" x="585.2" y="-287.5" font-family="Helvetica,sans-Serif" font-size="10.00">new</text>
</a>
</g>
</g>
<!-- Node12&#45;&gt;Node13 -->
<g id="edge12" class="edge">
<title>Node12&#45;&gt;Node13</title>
<path fill="none" stroke="midnightblue" d="M497.54,-337.67C513.88,-329.22 538.63,-316.44 557.67,-306.6"/>
<polygon fill="midnightblue" stroke="midnightblue" points="559.22,-309.74 566.49,-302.04 556,-303.52 559.22,-309.74"/>
</g>
<!-- Node14 -->
<g id="node14" class="node">
<title>Node14</title>
<g id="a_node14"><a xlink:title=" ">
<polygon fill="white" stroke="#bfbfbf" points="327.08,-169.25 327.08,-188.5 375.33,-188.5 375.33,-169.25 327.08,-169.25"/>
<text xml:space="preserve" text-anchor="middle" x="351.2" y="-175" font-family="Helvetica,sans-Serif" font-size="10.00">string.h</text>
</a>
</g>
</g>
<!-- Node12&#45;&gt;Node14 -->
<g id="edge13" class="edge">
<title>Node12&#45;&gt;Node14</title>
<path fill="none" stroke="midnightblue" d="M472.73,-337.72C465.18,-328.68 453.23,-314.23 443.2,-301.5 414.53,-265.1 382.07,-221.63 364.39,-197.77"/>
<polygon fill="midnightblue" stroke="midnightblue" points="367.44,-196 358.68,-190.03 361.81,-200.16 367.44,-196"/>
</g>
<!-- Node15 -->
<g id="node15" class="node">
<title>Node15</title>
<g id="a_node15"><a xlink:href="_numerics_8hpp.html" target="_top" xlink:title=" ">
<polygon fill="white" stroke="black" points="735.83,-281.75 735.83,-301 812.58,-301 812.58,-281.75 735.83,-281.75"/>
<text xml:space="preserve" text-anchor="middle" x="774.2" y="-287.5" font-family="Helvetica,sans-Serif" font-size="10.00">Numerics.hpp</text>
</a>
</g>
</g>
<!-- Node12&#45;&gt;Node15 -->
<g id="edge14" class="edge">
<title>Node12&#45;&gt;Node15</title>
<path fill="none" stroke="midnightblue" d="M524.85,-338.62C572.02,-330.13 648.89,-316.2 724.36,-302.02"/>
<polygon fill="midnightblue" stroke="midnightblue" points="724.81,-305.5 733.99,-300.21 723.52,-298.62 724.81,-305.5"/>
</g>
<!-- Node17 -->
<g id="node17" class="node">
<title>Node17</title>
<g id="a_node17"><a xlink:href="_rexx_error_codes_8h.html" target="_top" xlink:title=" ">
<polygon fill="white" stroke="black" points="452.7,-281.75 452.7,-301 549.7,-301 549.7,-281.75 452.7,-281.75"/>
<text xml:space="preserve" text-anchor="middle" x="501.2" y="-287.5" font-family="Helvetica,sans-Serif" font-size="10.00">RexxErrorCodes.h</text>
</a>
</g>
</g>
<!-- Node12&#45;&gt;Node17 -->
<g id="edge17" class="edge">
<title>Node12&#45;&gt;Node17</title>
<path fill="none" stroke="midnightblue" d="M483.67,-337.67C486.39,-330.64 490.28,-320.59 493.7,-311.75"/>
<polygon fill="midnightblue" stroke="midnightblue" points="496.91,-313.17 497.25,-302.58 490.38,-310.64 496.91,-313.17"/>
</g>
<!-- Node15&#45;&gt;Node2 -->
<g id="edge16" class="edge">
<title>Node15&#45;&gt;Node2</title>
<path fill="none" stroke="midnightblue" d="M812.87,-300.25C815.69,-300.71 818.48,-301.13 821.2,-301.5 873.22,-308.51 1256.53,-299 1292.2,-337.5 1341.34,-390.53 1262.81,-437.82 1198.2,-470.25 1153.7,-492.59 1097.52,-504.26 1058.81,-510.09"/>
<polygon fill="midnightblue" stroke="midnightblue" points="1058.79,-506.55 1049.38,-511.43 1059.78,-513.48 1058.79,-506.55"/>
</g>
<!-- Node16 -->
<g id="node16" class="node">
<title>Node16</title>
<g id="a_node16"><a xlink:title=" ">
<polygon fill="white" stroke="#bfbfbf" points="746.33,-225.5 746.33,-244.75 802.08,-244.75 802.08,-225.5 746.33,-225.5"/>
<text xml:space="preserve" text-anchor="middle" x="774.2" y="-231.25" font-family="Helvetica,sans-Serif" font-size="10.00">algorithm</text>
</a>
</g>
</g>
<!-- Node15&#45;&gt;Node16 -->
<g id="edge15" class="edge">
<title>Node15&#45;&gt;Node16</title>
<path fill="none" stroke="midnightblue" d="M774.2,-281.42C774.2,-274.62 774.2,-265.01 774.2,-256.4"/>
<polygon fill="midnightblue" stroke="midnightblue" points="777.7,-256.43 774.2,-246.43 770.7,-256.43 777.7,-256.43"/>
</g>
<!-- Node19 -->
<g id="node19" class="node">
<title>Node19</title>
<g id="a_node19"><a xlink:href="_hash_collection_8hpp.html" target="_top" xlink:title=" ">
<polygon fill="white" stroke="black" points="542.45,-338 542.45,-357.25 643.95,-357.25 643.95,-338 542.45,-338"/>
<text xml:space="preserve" text-anchor="middle" x="593.2" y="-343.75" font-family="Helvetica,sans-Serif" font-size="10.00">HashCollection.hpp</text>
</a>
</g>
</g>
<!-- Node18&#45;&gt;Node19 -->
<g id="edge19" class="edge">
<title>Node18&#45;&gt;Node19</title>
<path fill="none" stroke="midnightblue" d="M897.7,-450.29C894.78,-435.95 886.87,-407.8 868.2,-393.75 863.94,-390.54 734.91,-370.32 655.13,-358.06"/>
<polygon fill="midnightblue" stroke="midnightblue" points="656.13,-354.67 645.71,-356.61 655.06,-361.59 656.13,-354.67"/>
</g>
<!-- Node20 -->
<g id="node20" class="node">
<title>Node20</title>
<g id="a_node20"><a xlink:href="_hash_contents_8hpp.html" target="_top" xlink:title=" ">
<polygon fill="white" stroke="black" points="620.33,-281.75 620.33,-301 718.08,-301 718.08,-281.75 620.33,-281.75"/>
<text xml:space="preserve" text-anchor="middle" x="669.2" y="-287.5" font-family="Helvetica,sans-Serif" font-size="10.00">HashContents.hpp</text>
</a>
</g>
</g>
<!-- Node19&#45;&gt;Node20 -->
<g id="edge20" class="edge">
<title>Node19&#45;&gt;Node20</title>
<path fill="none" stroke="midnightblue" d="M605.75,-337.67C617.08,-329.58 634,-317.5 647.52,-307.85"/>
<polygon fill="midnightblue" stroke="midnightblue" points="649.3,-310.88 655.4,-302.23 645.23,-305.19 649.3,-310.88"/>
</g>
<!-- Node21 -->
<g id="node21" class="node">
<title>Node21</title>
<g id="a_node21"><a xlink:href="_string_class_8hpp.html" target="_top" xlink:title=" ">
<polygon fill="white" stroke="black" points="626.33,-225.5 626.33,-244.75 712.08,-244.75 712.08,-225.5 626.33,-225.5"/>
<text xml:space="preserve" text-anchor="middle" x="669.2" y="-231.25" font-family="Helvetica,sans-Serif" font-size="10.00">StringClass.hpp</text>
</a>
</g>
</g>
<!-- Node20&#45;&gt;Node21 -->
<g id="edge21" class="edge">
<title>Node20&#45;&gt;Node21</title>
<path fill="none" stroke="midnightblue" d="M669.2,-281.42C669.2,-274.62 669.2,-265.01 669.2,-256.4"/>
<polygon fill="midnightblue" stroke="midnightblue" points="672.7,-256.43 669.2,-246.43 665.7,-256.43 672.7,-256.43"/>
</g>
<!-- Node21&#45;&gt;Node14 -->
<g id="edge32" class="edge">
<title>Node21&#45;&gt;Node14</title>
<path fill="none" stroke="midnightblue" d="M625.98,-226.75C562.59,-215.94 445.58,-195.98 386.82,-185.95"/>
<polygon fill="midnightblue" stroke="midnightblue" points="387.49,-182.51 377.04,-184.28 386.31,-189.41 387.49,-182.51"/>
</g>
<!-- Node22 -->
<g id="node22" class="node">
<title>Node22</title>
<g id="a_node22"><a xlink:href="_integer_class_8hpp.html" target="_top" xlink:title=" ">
<polygon fill="white" stroke="black" points="1096.08,-169.25 1096.08,-188.5 1186.33,-188.5 1186.33,-169.25 1096.08,-169.25"/>
<text xml:space="preserve" text-anchor="middle" x="1141.2" y="-175" font-family="Helvetica,sans-Serif" font-size="10.00">IntegerClass.hpp</text>
</a>
</g>
</g>
<!-- Node21&#45;&gt;Node22 -->
<g id="edge22" class="edge">
<title>Node21&#45;&gt;Node22</title>
<path fill="none" stroke="midnightblue" d="M712.35,-228.19C720.6,-227.1 729.16,-225.99 737.2,-225 861.05,-209.78 1006.53,-194.06 1084.69,-185.79"/>
<polygon fill="midnightblue" stroke="midnightblue" points="1084.64,-189.31 1094.22,-184.78 1083.91,-182.35 1084.64,-189.31"/>
</g>
<!-- Node24 -->
<g id="node24" class="node">
<title>Node24</title>
<g id="a_node24"><a xlink:href="_flag_set_8hpp.html" target="_top" xlink:title=" ">
<polygon fill="white" stroke="black" points="1210.95,-56.75 1210.95,-76 1279.45,-76 1279.45,-56.75 1210.95,-56.75"/>
<text xml:space="preserve" text-anchor="middle" x="1245.2" y="-62.5" font-family="Helvetica,sans-Serif" font-size="10.00">FlagSet.hpp</text>
</a>
</g>
</g>
<!-- Node21&#45;&gt;Node24 -->
<g id="edge31" class="edge">
<title>Node21&#45;&gt;Node24</title>
<path fill="none" stroke="midnightblue" d="M700.58,-225.04C797.51,-196.98 1092.28,-111.64 1202.78,-79.66"/>
<polygon fill="midnightblue" stroke="midnightblue" points="1203.71,-83.03 1212.34,-76.89 1201.76,-76.31 1203.71,-83.03"/>
</g>
<!-- Node26 -->
<g id="node26" class="node">
<title>Node26</title>
<g id="a_node26"><a xlink:href="_string_util_8hpp.html" target="_top" xlink:title=" ">
<polygon fill="white" stroke="black" points="664.58,-169.25 664.58,-188.5 739.83,-188.5 739.83,-169.25 664.58,-169.25"/>
<text xml:space="preserve" text-anchor="middle" x="702.2" y="-175" font-family="Helvetica,sans-Serif" font-size="10.00">StringUtil.hpp</text>
</a>
</g>
</g>
<!-- Node21&#45;&gt;Node26 -->
<g id="edge26" class="edge">
<title>Node21&#45;&gt;Node26</title>
<path fill="none" stroke="midnightblue" d="M674.65,-225.17C679.07,-217.9 685.45,-207.41 690.96,-198.36"/>
<polygon fill="midnightblue" stroke="midnightblue" points="693.86,-200.32 696.07,-189.96 687.88,-196.68 693.86,-200.32"/>
</g>
<!-- Node28 -->
<g id="node28" class="node">
<title>Node28</title>
<g id="a_node28"><a xlink:href="_utilities_8hpp.html" target="_top" xlink:title=" ">
<polygon fill="white" stroke="black" points="602.33,-113 602.33,-132.25 670.08,-132.25 670.08,-113 602.33,-113"/>
<text xml:space="preserve" text-anchor="middle" x="636.2" y="-118.75" font-family="Helvetica,sans-Serif" font-size="10.00">Utilities.hpp</text>
</a>
</g>
</g>
<!-- Node21&#45;&gt;Node28 -->
<g id="edge30" class="edge">
<title>Node21&#45;&gt;Node28</title>
<path fill="none" stroke="midnightblue" d="M666.37,-225.15C663.5,-216.05 658.98,-201.57 655.2,-189 650.62,-173.73 645.59,-156.4 641.86,-143.42"/>
<polygon fill="midnightblue" stroke="midnightblue" points="645.27,-142.63 639.15,-133.98 638.54,-144.55 645.27,-142.63"/>
</g>
<!-- Node22&#45;&gt;Node23 -->
<g id="edge23" class="edge">
<title>Node22&#45;&gt;Node23</title>
<path fill="none" stroke="midnightblue" d="M1158.38,-168.92C1174.56,-160.47 1199.07,-147.69 1217.93,-137.85"/>
<polygon fill="midnightblue" stroke="midnightblue" points="1219.41,-141.02 1226.66,-133.3 1216.18,-134.82 1219.41,-141.02"/>
</g>
<!-- Node23&#45;&gt;Node24 -->
<g id="edge24" class="edge">
<title>Node23&#45;&gt;Node24</title>
<path fill="none" stroke="midnightblue" d="M1245.2,-112.67C1245.2,-105.87 1245.2,-96.26 1245.2,-87.65"/>
<polygon fill="midnightblue" stroke="midnightblue" points="1248.7,-87.68 1245.2,-77.68 1241.7,-87.68 1248.7,-87.68"/>
</g>
<!-- Node25 -->
<g id="node25" class="node">
<title>Node25</title>
<g id="a_node25"><a xlink:href="_bit_set_8hpp.html" target="_top" xlink:title=" ">
<polygon fill="white" stroke="black" points="1214.33,-0.5 1214.33,-19.75 1276.08,-19.75 1276.08,-0.5 1214.33,-0.5"/>
<text xml:space="preserve" text-anchor="middle" x="1245.2" y="-6.25" font-family="Helvetica,sans-Serif" font-size="10.00">BitSet.hpp</text>
</a>
</g>
</g>
<!-- Node24&#45;&gt;Node25 -->
<g id="edge25" class="edge">
<title>Node24&#45;&gt;Node25</title>
<path fill="none" stroke="midnightblue" d="M1245.2,-56.42C1245.2,-49.62 1245.2,-40.01 1245.2,-31.4"/>
<polygon fill="midnightblue" stroke="midnightblue" points="1248.7,-31.43 1245.2,-21.43 1241.7,-31.43 1248.7,-31.43"/>
</g>
<!-- Node27 -->
<g id="node27" class="node">
<title>Node27</title>
<g id="a_node27"><a xlink:title=" ">
<polygon fill="white" stroke="#bfbfbf" points="688.08,-113 688.08,-132.25 736.33,-132.25 736.33,-113 688.08,-113"/>
<text xml:space="preserve" text-anchor="middle" x="712.2" y="-118.75" font-family="Helvetica,sans-Serif" font-size="10.00">ctype.h</text>
</a>
</g>
</g>
<!-- Node26&#45;&gt;Node27 -->
<g id="edge27" class="edge">
<title>Node26&#45;&gt;Node27</title>
<path fill="none" stroke="midnightblue" d="M703.85,-168.92C705.12,-162.04 706.92,-152.29 708.52,-143.6"/>
<polygon fill="midnightblue" stroke="midnightblue" points="711.94,-144.37 710.31,-133.91 705.05,-143.1 711.94,-144.37"/>
</g>
<!-- Node26&#45;&gt;Node28 -->
<g id="edge28" class="edge">
<title>Node26&#45;&gt;Node28</title>
<path fill="none" stroke="midnightblue" d="M691.3,-168.92C681.6,-160.94 667.17,-149.08 655.51,-139.5"/>
<polygon fill="midnightblue" stroke="midnightblue" points="658.02,-137.02 648.07,-133.38 653.57,-142.43 658.02,-137.02"/>
</g>
<!-- Node29 -->
<g id="node29" class="node">
<title>Node29</title>
<g id="a_node29"><a xlink:title=" ">
<polygon fill="white" stroke="#bfbfbf" points="602.7,-56.75 602.7,-76 669.7,-76 669.7,-56.75 602.7,-56.75"/>
<text xml:space="preserve" text-anchor="middle" x="636.2" y="-62.5" font-family="Helvetica,sans-Serif" font-size="10.00">sys/types.h</text>
</a>
</g>
</g>
<!-- Node28&#45;&gt;Node29 -->
<g id="edge29" class="edge">
<title>Node28&#45;&gt;Node29</title>
<path fill="none" stroke="midnightblue" d="M636.2,-112.67C636.2,-105.87 636.2,-96.26 636.2,-87.65"/>
<polygon fill="midnightblue" stroke="midnightblue" points="639.7,-87.68 636.2,-77.68 632.7,-87.68 639.7,-87.68"/>
</g>
<!-- Node31 -->
<g id="node31" class="node">
<title>Node31</title>
<g id="a_node31"><a xlink:href="_memory_8hpp.html" target="_top" xlink:title=" ">
<polygon fill="white" stroke="black" points="149.95,-338 149.95,-357.25 218.45,-357.25 218.45,-338 149.95,-338"/>
<text xml:space="preserve" text-anchor="middle" x="184.2" y="-343.75" font-family="Helvetica,sans-Serif" font-size="10.00">Memory.hpp</text>
</a>
</g>
</g>
<!-- Node30&#45;&gt;Node31 -->
<g id="edge34" class="edge">
<title>Node30&#45;&gt;Node31</title>
<path fill="none" stroke="midnightblue" d="M291.04,-452.19C249.42,-444.88 192.73,-431.93 179.2,-414 169.46,-401.08 172.08,-382.34 176.34,-368.24"/>
<polygon fill="midnightblue" stroke="midnightblue" points="179.52,-369.73 179.56,-359.14 172.92,-367.4 179.52,-369.73"/>
</g>
<!-- Node32 -->
<g id="node32" class="node">
<title>Node32</title>
<g id="a_node32"><a xlink:href="_memory_stack_8hpp.html" target="_top" xlink:title=" ">
<polygon fill="white" stroke="black" points="49.45,-225.5 49.45,-244.75 144.95,-244.75 144.95,-225.5 49.45,-225.5"/>
<text xml:space="preserve" text-anchor="middle" x="97.2" y="-231.25" font-family="Helvetica,sans-Serif" font-size="10.00">MemoryStack.hpp</text>
</a>
</g>
</g>
<!-- Node30&#45;&gt;Node32 -->
<g id="edge35" class="edge">
<title>Node30&#45;&gt;Node32</title>
<path fill="none" stroke="midnightblue" d="M291,-452.14C207.97,-438.5 39.16,-405.42 7.2,-357.75 -19.29,-318.23 36.75,-273.75 71.81,-251.11"/>
<polygon fill="midnightblue" stroke="midnightblue" points="73.57,-254.14 80.19,-245.87 69.86,-248.2 73.57,-254.14"/>
</g>
<!-- Node33 -->
<g id="node33" class="node">
<title>Node33</title>
<g id="a_node33"><a xlink:title=" ">
<polygon fill="white" stroke="#bfbfbf" points="44.45,-281.75 44.45,-301 145.95,-301 145.95,-281.75 44.45,-281.75"/>
<text xml:space="preserve" text-anchor="middle" x="95.2" y="-287.5" font-family="Helvetica,sans-Serif" font-size="10.00">SysSemaphore.hpp</text>
</a>
</g>
</g>
<!-- Node30&#45;&gt;Node33 -->
<g id="edge37" class="edge">
<title>Node30&#45;&gt;Node33</title>
<path fill="none" stroke="midnightblue" d="M291.14,-456.2C254.63,-451.82 203.98,-440.95 168.2,-414 133.23,-387.66 111.63,-339.25 101.69,-312.13"/>
<polygon fill="midnightblue" stroke="midnightblue" points="105.02,-311.05 98.44,-302.75 98.41,-313.34 105.02,-311.05"/>
</g>
<!-- Node34 -->
<g id="node34" class="node">
<title>Node34</title>
<g id="a_node34"><a xlink:href="_identity_table_class_8hpp.html" target="_top" xlink:title=" ">
<polygon fill="white" stroke="black" points="487.33,-394.25 487.33,-413.5 603.08,-413.5 603.08,-394.25 487.33,-394.25"/>
<text xml:space="preserve" text-anchor="middle" x="545.2" y="-400" font-family="Helvetica,sans-Serif" font-size="10.00">IdentityTableClass.hpp</text>
</a>
</g>
</g>
<!-- Node30&#45;&gt;Node34 -->
<g id="edge38" class="edge">
<title>Node30&#45;&gt;Node34</title>
<path fill="none" stroke="midnightblue" d="M372.02,-450.04C406.96,-440.93 460.98,-426.84 499.39,-416.82"/>
<polygon fill="midnightblue" stroke="midnightblue" points="500.02,-420.28 508.81,-414.37 498.25,-413.5 500.02,-420.28"/>
</g>
<!-- Node35 -->
<g id="node35" class="node">
<title>Node35</title>
<g id="a_node35"><a xlink:href="_queue_class_8hpp.html" target="_top" xlink:title=" ">
<polygon fill="white" stroke="black" points="620.83,-394.25 620.83,-413.5 709.58,-413.5 709.58,-394.25 620.83,-394.25"/>
<text xml:space="preserve" text-anchor="middle" x="665.2" y="-400" font-family="Helvetica,sans-Serif" font-size="10.00">QueueClass.hpp</text>
</a>
</g>
</g>
<!-- Node30&#45;&gt;Node35 -->
<g id="edge40" class="edge">
<title>Node30&#45;&gt;Node35</title>
<path fill="none" stroke="midnightblue" d="M383.45,-451.65C435.81,-443.16 524.01,-428.79 609.2,-414.49"/>
<polygon fill="midnightblue" stroke="midnightblue" points="609.61,-417.98 618.89,-412.87 608.45,-411.07 609.61,-417.98"/>
</g>
<!-- Node38 -->
<g id="node38" class="node">
<title>Node38</title>
<g id="a_node38"><a xlink:title=" ">
<polygon fill="white" stroke="#bfbfbf" points="315.7,-394.25 315.7,-413.5 358.7,-413.5 358.7,-394.25 315.7,-394.25"/>
<text xml:space="preserve" text-anchor="middle" x="337.2" y="-400" font-family="Helvetica,sans-Serif" font-size="10.00">vector</text>
</a>
</g>
</g>
<!-- Node30&#45;&gt;Node38 -->
<g id="edge44" class="edge">
<title>Node30&#45;&gt;Node38</title>
<path fill="none" stroke="midnightblue" d="M337.2,-450.17C337.2,-443.37 337.2,-433.76 337.2,-425.15"/>
<polygon fill="midnightblue" stroke="midnightblue" points="340.7,-425.18 337.2,-415.18 333.7,-425.18 340.7,-425.18"/>
</g>
<!-- Node39 -->
<g id="node39" class="node">
<title>Node39</title>
<g id="a_node39"><a xlink:href="_memory_stats_8hpp.html" target="_top" xlink:title=" ">
<polygon fill="white" stroke="black" points="765.58,-394.25 765.58,-413.5 858.83,-413.5 858.83,-394.25 765.58,-394.25"/>
<text xml:space="preserve" text-anchor="middle" x="812.2" y="-400" font-family="Helvetica,sans-Serif" font-size="10.00">MemoryStats.hpp</text>
</a>
</g>
</g>
<!-- Node30&#45;&gt;Node39 -->
<g id="edge45" class="edge">
<title>Node30&#45;&gt;Node39</title>
<path fill="none" stroke="midnightblue" d="M383.18,-453.87C470.1,-443.95 658.36,-422.45 753.96,-411.53"/>
<polygon fill="midnightblue" stroke="midnightblue" points="754.11,-415.03 763.64,-410.42 753.31,-408.08 754.11,-415.03"/>
</g>
<!-- Node40 -->
<g id="node40" class="node">
<title>Node40</title>
<g id="a_node40"><a xlink:href="_memory_segment_8hpp.html" target="_top" xlink:title=" ">
<polygon fill="white" stroke="black" points="188.7,-394.25 188.7,-413.5 297.7,-413.5 297.7,-394.25 188.7,-394.25"/>
<text xml:space="preserve" text-anchor="middle" x="243.2" y="-400" font-family="Helvetica,sans-Serif" font-size="10.00">MemorySegment.hpp</text>
</a>
</g>
</g>
<!-- Node30&#45;&gt;Node40 -->
<g id="edge47" class="edge">
<title>Node30&#45;&gt;Node40</title>
<path fill="none" stroke="midnightblue" d="M321.68,-450.17C307.26,-441.84 285.51,-429.29 268.57,-419.52"/>
<polygon fill="midnightblue" stroke="midnightblue" points="270.47,-416.57 260.06,-414.6 266.97,-422.63 270.47,-416.57"/>
</g>
<!-- Node32&#45;&gt;Node14 -->
<g id="edge36" class="edge">
<title>Node32&#45;&gt;Node14</title>
<path fill="none" stroke="midnightblue" d="M139.72,-225.04C188.96,-214.53 269.2,-197.39 315.39,-187.52"/>
<polygon fill="midnightblue" stroke="midnightblue" points="316.11,-190.95 325.16,-185.44 314.65,-184.1 316.11,-190.95"/>
</g>
<!-- Node34&#45;&gt;Node19 -->
<g id="edge39" class="edge">
<title>Node34&#45;&gt;Node19</title>
<path fill="none" stroke="midnightblue" d="M553.13,-393.92C559.84,-386.33 569.65,-375.24 577.89,-365.93"/>
<polygon fill="midnightblue" stroke="midnightblue" points="580.42,-368.36 584.42,-358.55 575.17,-363.72 580.42,-368.36"/>
</g>
<!-- Node36 -->
<g id="node36" class="node">
<title>Node36</title>
<g id="a_node36"><a xlink:href="_array_class_8hpp.html" target="_top" xlink:title=" ">
<polygon fill="white" stroke="black" points="662.45,-338 662.45,-357.25 745.95,-357.25 745.95,-338 662.45,-338"/>
<text xml:space="preserve" text-anchor="middle" x="704.2" y="-343.75" font-family="Helvetica,sans-Serif" font-size="10.00">ArrayClass.hpp</text>
</a>
</g>
</g>
<!-- Node35&#45;&gt;Node36 -->
<g id="edge41" class="edge">
<title>Node35&#45;&gt;Node36</title>
<path fill="none" stroke="midnightblue" d="M671.64,-393.92C676.98,-386.49 684.74,-375.7 691.34,-366.52"/>
<polygon fill="midnightblue" stroke="midnightblue" points="694,-368.81 697,-358.65 688.32,-364.72 694,-368.81"/>
</g>
<!-- Node36&#45;&gt;Node15 -->
<g id="edge43" class="edge">
<title>Node36&#45;&gt;Node15</title>
<path fill="none" stroke="midnightblue" d="M715.76,-337.67C726.16,-329.61 741.66,-317.59 754.09,-307.96"/>
<polygon fill="midnightblue" stroke="midnightblue" points="755.9,-310.99 761.66,-302.09 751.61,-305.45 755.9,-310.99"/>
</g>
<!-- Node37 -->
<g id="node37" class="node">
<title>Node37</title>
<g id="a_node37"><a xlink:href="_number_array_8hpp.html" target="_top" xlink:title=" ">
<polygon fill="white" stroke="black" points="830.7,-281.75 830.7,-301 921.7,-301 921.7,-281.75 830.7,-281.75"/>
<text xml:space="preserve" text-anchor="middle" x="876.2" y="-287.5" font-family="Helvetica,sans-Serif" font-size="10.00">NumberArray.hpp</text>
</a>
</g>
</g>
<!-- Node36&#45;&gt;Node37 -->
<g id="edge42" class="edge">
<title>Node36&#45;&gt;Node37</title>
<path fill="none" stroke="midnightblue" d="M732.99,-337.54C761.39,-328.59 805.03,-314.82 836.67,-304.84"/>
<polygon fill="midnightblue" stroke="midnightblue" points="837.39,-308.29 845.88,-301.94 835.29,-301.61 837.39,-308.29"/>
</g>
<!-- Node39&#45;&gt;Node11 -->
<g id="edge46" class="edge">
<title>Node39&#45;&gt;Node11</title>
<path fill="none" stroke="midnightblue" d="M812.37,-393.92C812.49,-387.12 812.67,-377.51 812.83,-368.9"/>
<polygon fill="midnightblue" stroke="midnightblue" points="816.33,-368.99 813.01,-358.93 809.33,-368.86 816.33,-368.99"/>
</g>
<!-- Node40&#45;&gt;Node31 -->
<g id="edge54" class="edge">
<title>Node40&#45;&gt;Node31</title>
<path fill="none" stroke="midnightblue" d="M233.46,-393.92C224.95,-386.1 212.39,-374.55 202.08,-365.07"/>
<polygon fill="midnightblue" stroke="midnightblue" points="204.61,-362.63 194.88,-358.44 199.87,-367.79 204.61,-362.63"/>
</g>
<!-- Node41 -->
<g id="node41" class="node">
<title>Node41</title>
<g id="a_node41"><a xlink:href="_dead_object_8hpp.html" target="_top" xlink:title=" ">
<polygon fill="white" stroke="black" points="236.95,-338 236.95,-357.25 323.45,-357.25 323.45,-338 236.95,-338"/>
<text xml:space="preserve" text-anchor="middle" x="280.2" y="-343.75" font-family="Helvetica,sans-Serif" font-size="10.00">DeadObject.hpp</text>
</a>
</g>
</g>
<!-- Node40&#45;&gt;Node41 -->
<g id="edge48" class="edge">
<title>Node40&#45;&gt;Node41</title>
<path fill="none" stroke="midnightblue" d="M249.31,-393.92C254.32,-386.57 261.58,-375.93 267.8,-366.81"/>
<polygon fill="midnightblue" stroke="midnightblue" points="270.61,-368.9 273.35,-358.67 264.83,-364.96 270.61,-368.9"/>
</g>
<!-- Node42 -->
<g id="node42" class="node">
<title>Node42</title>
<g id="a_node42"><a xlink:title=" ">
<polygon fill="white" stroke="#bfbfbf" points="310.58,-281.75 310.58,-301 355.83,-301 355.83,-281.75 310.58,-281.75"/>
<text xml:space="preserve" text-anchor="middle" x="333.2" y="-287.5" font-family="Helvetica,sans-Serif" font-size="10.00">stdio.h</text>
</a>
</g>
</g>
<!-- Node40&#45;&gt;Node42 -->
<g id="edge55" class="edge">
<title>Node40&#45;&gt;Node42</title>
<path fill="none" stroke="midnightblue" d="M280.71,-393.79C299.58,-387.13 320.82,-375.97 332.2,-357.75 340.58,-344.34 340.14,-326.16 337.99,-312.37"/>
<polygon fill="midnightblue" stroke="midnightblue" points="341.45,-311.81 336.04,-302.7 334.58,-313.19 341.45,-311.81"/>
</g>
<!-- Node43 -->
<g id="node43" class="node">
<title>Node43</title>
<g id="a_node43"><a xlink:href="_interpreter_8hpp.html" target="_top" xlink:title=" ">
<polygon fill="white" stroke="black" points="16.08,-338 16.08,-357.25 94.33,-357.25 94.33,-338 16.08,-338"/>
<text xml:space="preserve" text-anchor="middle" x="55.2" y="-343.75" font-family="Helvetica,sans-Serif" font-size="10.00">Interpreter.hpp</text>
</a>
</g>
</g>
<!-- Node40&#45;&gt;Node43 -->
<g id="edge51" class="edge">
<title>Node40&#45;&gt;Node43</title>
<path fill="none" stroke="midnightblue" d="M211.74,-393.79C180.42,-384.76 132.16,-370.83 97.51,-360.83"/>
<polygon fill="midnightblue" stroke="midnightblue" points="98.81,-357.56 88.23,-358.15 96.86,-364.29 98.81,-357.56"/>
</g>
<!-- Node41&#45;&gt;Node14 -->
<g id="edge49" class="edge">
<title>Node41&#45;&gt;Node14</title>
<path fill="none" stroke="midnightblue" d="M282.65,-337.59C286.2,-324.84 293.24,-300.92 301.2,-281.25 313.13,-251.76 330,-218.98 340.77,-198.89"/>
<polygon fill="midnightblue" stroke="midnightblue" points="343.78,-200.68 345.47,-190.22 337.63,-197.35 343.78,-200.68"/>
</g>
<!-- Node41&#45;&gt;Node42 -->
<g id="edge50" class="edge">
<title>Node41&#45;&gt;Node42</title>
<path fill="none" stroke="midnightblue" d="M288.95,-337.67C296.44,-330 307.42,-318.76 316.58,-309.39"/>
<polygon fill="midnightblue" stroke="midnightblue" points="319.07,-311.85 323.56,-302.25 314.06,-306.96 319.07,-311.85"/>
</g>
<!-- Node43&#45;&gt;Node2 -->
<g id="edge52" class="edge">
<title>Node43&#45;&gt;Node2</title>
<path fill="none" stroke="midnightblue" d="M65.58,-357.58C81.62,-371.1 113.76,-396.96 144.2,-414 202,-446.35 217.63,-455.52 282.2,-470.25 413.5,-500.21 828.01,-511.49 967.15,-514.48"/>
<polygon fill="midnightblue" stroke="midnightblue" points="967.01,-517.98 977.08,-514.69 967.16,-510.98 967.01,-517.98"/>
</g>
<!-- Node43&#45;&gt;Node33 -->
<g id="edge53" class="edge">
<title>Node43&#45;&gt;Node33</title>
<path fill="none" stroke="midnightblue" d="M61.81,-337.67C67.28,-330.24 75.24,-319.45 82.01,-310.27"/>
<polygon fill="midnightblue" stroke="midnightblue" points="84.7,-312.51 87.82,-302.38 79.07,-308.36 84.7,-312.51"/>
</g>
<!-- Node44&#45;&gt;Node24 -->
<g id="edge57" class="edge">
<title>Node44&#45;&gt;Node24</title>
<path fill="none" stroke="midnightblue" d="M1467.56,-450.08C1486.48,-443.1 1509.67,-431.61 1524.2,-414 1543.46,-390.66 1543.2,-378.88 1543.2,-348.62 1543.2,-348.62 1543.2,-348.62 1543.2,-177.88 1543.2,-124.71 1374.38,-88.98 1290.87,-74.55"/>
<polygon fill="midnightblue" stroke="midnightblue" points="1291.61,-71.13 1281.17,-72.91 1290.45,-78.03 1291.61,-71.13"/>
</g>
<!-- Node45 -->
<g id="node45" class="node">
<title>Node45</title>
<g id="a_node45"><a xlink:href="_primitive_behaviour_names_8h.html" target="_top" xlink:title=" ">
<polygon fill="white" stroke="black" points="1377.45,-394.25 1377.45,-413.5 1514.95,-413.5 1514.95,-394.25 1377.45,-394.25"/>
<text xml:space="preserve" text-anchor="middle" x="1446.2" y="-400" font-family="Helvetica,sans-Serif" font-size="10.00">PrimitiveBehaviourNames.h</text>
</a>
</g>
</g>
<!-- Node44&#45;&gt;Node45 -->
<g id="edge58" class="edge">
<title>Node44&#45;&gt;Node45</title>
<path fill="none" stroke="midnightblue" d="M1437.85,-450.17C1439.12,-443.29 1440.92,-433.54 1442.52,-424.85"/>
<polygon fill="midnightblue" stroke="midnightblue" points="1445.94,-425.62 1444.31,-415.16 1439.05,-424.35 1445.94,-425.62"/>
</g>
<!-- Node48 -->
<g id="node48" class="node">
<title>Node48</title>
<g id="a_node48"><a xlink:href="_expression_base_variable_8hpp.html" target="_top" xlink:title=" ">
<polygon fill="white" stroke="black" points="1504.95,-450.5 1504.95,-469.75 1645.45,-469.75 1645.45,-450.5 1504.95,-450.5"/>
<text xml:space="preserve" text-anchor="middle" x="1575.2" y="-456.25" font-family="Helvetica,sans-Serif" font-size="10.00">ExpressionBaseVariable.hpp</text>
</a>
</g>
</g>
<!-- Node47&#45;&gt;Node48 -->
<g id="edge62" class="edge">
<title>Node47&#45;&gt;Node48</title>
<path fill="none" stroke="midnightblue" d="M1387.03,-506.29C1425.24,-497.12 1484.45,-482.91 1526.23,-472.88"/>
<polygon fill="midnightblue" stroke="midnightblue" points="1526.87,-476.33 1535.78,-470.59 1525.24,-469.52 1526.87,-476.33"/>
</g>
<!-- Node49&#45;&gt;Node12 -->
<g id="edge65" class="edge">
<title>Node49&#45;&gt;Node12</title>
<path fill="none" stroke="midnightblue" d="M432.62,-393.92C440.83,-386.1 452.97,-374.55 462.93,-365.07"/>
<polygon fill="midnightblue" stroke="midnightblue" points="465.04,-367.89 469.87,-358.46 460.21,-362.82 465.04,-367.89"/>
</g>
<!-- Node49&#45;&gt;Node21 -->
<g id="edge64" class="edge">
<title>Node49&#45;&gt;Node21</title>
<path fill="none" stroke="midnightblue" d="M421.43,-393.86C417.53,-371.1 410.97,-311 443.2,-281.25 467.67,-258.67 555.82,-246.38 614.52,-240.54"/>
<polygon fill="midnightblue" stroke="midnightblue" points="614.72,-244.04 624.34,-239.6 614.05,-237.07 614.72,-244.04"/>
</g>
</g>
</svg>
        <g id="navigator" transform="translate(0 0)" fill="#404254">
                <rect fill="#f2f5e9" fill-opacity="0.5" stroke="#606060" stroke-width=".5" x="0" y="0" width="60" height="60"/>
                <use id="zoomplus" xlink:href="#zoomPlus" x="17" y="9" onmousedown="handleZoom(evt,'in')"/>
                <use id="zoomminus" xlink:href="#zoomMin" x="42" y="9" onmousedown="handleZoom(evt,'out')"/>
                <use id="reset" xlink:href="#resetDef" x="30" y="36" onmousedown="handleReset()"/>
                <g id="arrowUp" xlink:href="#dirArrow" transform="translate(30 24)" onmousedown="handlePan(0,-1)">
                  <use xlink:href="#rim" fill="#404040">
                        <set attributeName="fill" to="#808080" begin="arrowUp.mouseover" end="arrowUp.mouseout"/>
                  </use>
                  <path fill="none" stroke="white" stroke-width="1.5" d="M0,-3.0v7 M-2.5,-0.5L0,-3.0L2.5,-0.5"/>
                </g>
                <g id="arrowRight" xlink:href="#dirArrow" transform="rotate(90) translate(36 -43)" onmousedown="handlePan(1,0)">
                  <use xlink:href="#rim" fill="#404040">
                        <set attributeName="fill" to="#808080" begin="arrowRight.mouseover" end="arrowRight.mouseout"/>
                  </use>
                  <path fill="none" stroke="white" stroke-width="1.5" d="M0,-3.0v7 M-2.5,-0.5L0,-3.0L2.5,-0.5"/>
                </g>
                <g id="arrowDown" xlink:href="#dirArrow" transform="rotate(180) translate(-30 -48)" onmousedown="handlePan(0,1)">
                  <use xlink:href="#rim" fill="#404040">
                        <set attributeName="fill" to="#808080" begin="arrowDown.mouseover" end="arrowDown.mouseout"/>
                  </use>
                  <path fill="none" stroke="white" stroke-width="1.5" d="M0,-3.0v7 M-2.5,-0.5L0,-3.0L2.5,-0.5"/>
                </g>
                <g id="arrowLeft" xlink:href="#dirArrow" transform="rotate(270) translate(-36 17)" onmousedown="handlePan(-1,0)">
                  <use xlink:href="#rim" fill="#404040">
                        <set attributeName="fill" to="#808080" begin="arrowLeft.mouseover" end="arrowLeft.mouseout"/>
                  </use>
                  <path fill="none" stroke="white" stroke-width="1.5" d="M0,-3.0v7 M-2.5,-0.5L0,-3.0L2.5,-0.5"/>
                </g>
        </g>
        <svg viewBox="0 0 15 15" width="100%" height="30px" preserveAspectRatio="xMaxYMin meet">
         <g id="arrow_out" transform="scale(0.3 0.3)">
          <a xlink:href="_use_arg_variable_ref_8cpp__incl_org.svg" target="_base">
           <rect id="button" ry="5" rx="5" y="6" x="6" height="38" width="38"
                fill="#f2f5e9" fill-opacity="0.5" stroke="#606060" stroke-width="1.0"/>
           <path id="arrow"
             d="M 11.500037,31.436501 C 11.940474,20.09759 22.043105,11.32322 32.158766,21.979434 L 37.068811,17.246167 C 37.068811,17.246167 37.088388,32 37.088388,32 L 22.160133,31.978069 C 22.160133,31.978069 26.997745,27.140456 26.997745,27.140456 C 18.528582,18.264221 13.291696,25.230495 11.500037,31.436501 z"
             style="fill:#404040;"/>
          </a>
         </g>
        </svg>
</svg>
