<?xml version="1.0" encoding="UTF-8" standalone="no"?>
<!DOCTYPE svg PUBLIC "-//W3C//DTD SVG 1.1//EN"
 "http://www.w3.org/Graphics/SVG/1.1/DTD/svg11.dtd">
<!-- Generated by graphviz version 13.1.0 (20250701.0955)
 -->
<!-- Title: VariableReference.hpp Pages: 1 -->
<!--zoomable 85 -->
<svg id="main" version="1.1" xmlns="http://www.w3.org/2000/svg" xmlns:xlink="http://www.w3.org/1999/xlink" xml:space="preserve" onload="init(evt)">
<style type="text/css"><![CDATA[
.edge:hover path { stroke: red; }
.edge:hover polygon { stroke: red; fill: red; }
]]></style>
<script type="text/javascript"><![CDATA[
var edges = document.getElementsByTagName('g');
if (edges && edges.length) {
  for (var i=0;i<edges.length;i++) {
    if (edges[i].id.substr(0,4)=='edge') {
      edges[i].setAttribute('class','edge');
    }
  }
}
]]></script>
        <defs>
                <circle id="rim" cx="0" cy="0" r="7"/>
                <circle id="rim2" cx="0" cy="0" r="3.5"/>
                <g id="zoomPlus">
                        <use xlink:href="#rim" fill="#404040">
                                <set attributeName="fill" to="#808080" begin="zoomplus.mouseover" end="zoomplus.mouseout"/>
                        </use>
                        <path d="M-4,0h8M0,-4v8" fill="none" stroke="white" stroke-width="1.5" pointer-events="none"/>
                </g>
                <g id="zoomMin">
                        <use xlink:href="#rim" fill="#404040">
                                <set attributeName="fill" to="#808080" begin="zoomminus.mouseover" end="zoomminus.mouseout"/>
                        </use>
                        <path d="M-4,0h8" fill="none" stroke="white" stroke-width="1.5" pointer-events="none"/>
                </g>
                <g id="dirArrow">
                        <path fill="none" stroke="white" stroke-width="1.5" d="M0,-3.0v7 M-2.5,-0.5L0,-3.0L2.5,-0.5"/>
                </g>
               <g id="resetDef">
                       <use xlink:href="#rim2" fill="#404040">
                               <set attributeName="fill" to="#808080" begin="reset.mouseover" end="reset.mouseout"/>
                       </use>
               </g>
        </defs>

<script type="text/javascript">
var viewWidth = 1600;
var viewHeight = 85;
var sectionId = 'dynsection-1';
</script>
<script xlink:href="svgpan.js"/>
<svg id="graph" class="graph">
<g id="viewport">
<title>VariableReference.hpp</title>
<polygon fill="white" stroke="none" points="-4,4 -4,-80.5 1595.88,-80.5 1595.88,4 -4,4"/>
<!-- Node1 -->
<g id="node1" class="node">
<title>Node1</title>
<g id="a_node1"><a xlink:title=" ">
<polygon fill="#bfbfbf" stroke="black" points="679.12,-56.75 679.12,-76 793.38,-76 793.38,-56.75 679.12,-56.75"/>
<text xml:space="preserve" text-anchor="middle" x="736.25" y="-62.5" font-family="Helvetica,sans-Serif" font-size="10.00">VariableReference.hpp</text>
</a>
</g>
</g>
<!-- Node2 -->
<g id="node2" class="node">
<title>Node2</title>
<g id="a_node2"><a xlink:href="_use_instruction_8cpp.html" target="_top" xlink:title=" ">
<polygon fill="white" stroke="black" points="0,-0.5 0,-19.75 98.5,-19.75 98.5,-0.5 0,-0.5"/>
<text xml:space="preserve" text-anchor="middle" x="49.25" y="-6.25" font-family="Helvetica,sans-Serif" font-size="10.00">UseInstruction.cpp</text>
</a>
</g>
</g>
<!-- Node1&#45;&gt;Node2 -->
<g id="edge1" class="edge">
<title>Node1&#45;&gt;Node2</title>
<path fill="none" stroke="midnightblue" d="M667.37,-62.34C551.47,-56.81 310.21,-43.45 107.25,-20.25 104.52,-19.94 101.71,-19.59 98.89,-19.22"/>
<polygon fill="midnightblue" stroke="midnightblue" points="667.19,-65.84 677.35,-62.81 667.52,-58.84 667.19,-65.84"/>
</g>
<!-- Node3 -->
<g id="node3" class="node">
<title>Node3</title>
<g id="a_node3"><a xlink:href="_setup_8cpp.html" target="_top" xlink:title=" ">
<polygon fill="white" stroke="black" points="116.12,-0.5 116.12,-19.75 176.38,-19.75 176.38,-0.5 116.12,-0.5"/>
<text xml:space="preserve" text-anchor="middle" x="146.25" y="-6.25" font-family="Helvetica,sans-Serif" font-size="10.00">Setup.cpp</text>
</a>
</g>
</g>
<!-- Node1&#45;&gt;Node3 -->
<g id="edge2" class="edge">
<title>Node1&#45;&gt;Node3</title>
<path fill="none" stroke="midnightblue" d="M667.47,-63.01C562.81,-58.69 357.52,-47.31 185.25,-20.25 182.5,-19.82 179.66,-19.3 176.82,-18.73"/>
<polygon fill="midnightblue" stroke="midnightblue" points="667.16,-66.51 677.3,-63.41 667.44,-59.51 667.16,-66.51"/>
</g>
<!-- Node4 -->
<g id="node4" class="node">
<title>Node4</title>
<g id="a_node4"><a xlink:href="_rexx_memory_8cpp.html" target="_top" xlink:title=" ">
<polygon fill="white" stroke="black" points="194.38,-0.5 194.38,-19.75 286.12,-19.75 286.12,-0.5 194.38,-0.5"/>
<text xml:space="preserve" text-anchor="middle" x="240.25" y="-6.25" font-family="Helvetica,sans-Serif" font-size="10.00">RexxMemory.cpp</text>
</a>
</g>
</g>
<!-- Node1&#45;&gt;Node4 -->
<g id="edge3" class="edge">
<title>Node1&#45;&gt;Node4</title>
<path fill="none" stroke="midnightblue" d="M667.39,-59.67C580.47,-52.16 426.47,-37.83 295.25,-20.25 292.37,-19.86 289.41,-19.44 286.43,-19"/>
<polygon fill="midnightblue" stroke="midnightblue" points="666.91,-63.14 677.17,-60.51 667.51,-56.17 666.91,-63.14"/>
</g>
<!-- Node5 -->
<g id="node5" class="node">
<title>Node5</title>
<g id="a_node5"><a xlink:href="_variable_reference_8cpp.html" target="_top" xlink:title=" ">
<polygon fill="white" stroke="black" points="304.12,-0.5 304.12,-19.75 418.38,-19.75 418.38,-0.5 304.12,-0.5"/>
<text xml:space="preserve" text-anchor="middle" x="361.25" y="-6.25" font-family="Helvetica,sans-Serif" font-size="10.00">VariableReference.cpp</text>
</a>
</g>
</g>
<!-- Node1&#45;&gt;Node5 -->
<g id="edge4" class="edge">
<title>Node1&#45;&gt;Node5</title>
<path fill="none" stroke="midnightblue" d="M667.77,-55.47C596.33,-45.13 485.6,-29.11 418.61,-19.42"/>
<polygon fill="midnightblue" stroke="midnightblue" points="666.99,-58.89 677.39,-56.86 667.99,-51.96 666.99,-58.89"/>
</g>
<!-- Node6 -->
<g id="node6" class="node">
<title>Node6</title>
<g id="a_node6"><a xlink:href="_native_activation-trace_8cpp.html" target="_top" xlink:title=" ">
<polygon fill="white" stroke="black" points="436.5,-0.5 436.5,-19.75 568,-19.75 568,-0.5 436.5,-0.5"/>
<text xml:space="preserve" text-anchor="middle" x="502.25" y="-6.25" font-family="Helvetica,sans-Serif" font-size="10.00">NativeActivation&#45;trace.cpp</text>
</a>
</g>
</g>
<!-- Node1&#45;&gt;Node6 -->
<g id="edge5" class="edge">
<title>Node1&#45;&gt;Node6</title>
<path fill="none" stroke="midnightblue" d="M685.96,-53.72C642.73,-43.69 581.24,-29.44 541.54,-20.23"/>
<polygon fill="midnightblue" stroke="midnightblue" points="685.08,-57.1 695.61,-55.95 686.66,-50.28 685.08,-57.1"/>
</g>
<!-- Node7 -->
<g id="node7" class="node">
<title>Node7</title>
<g id="a_node7"><a xlink:href="_c_p_p_code_8cpp.html" target="_top" xlink:title=" ">
<polygon fill="white" stroke="black" points="585.75,-0.5 585.75,-19.75 664.75,-19.75 664.75,-0.5 585.75,-0.5"/>
<text xml:space="preserve" text-anchor="middle" x="625.25" y="-6.25" font-family="Helvetica,sans-Serif" font-size="10.00">CPPCode.cpp</text>
</a>
</g>
</g>
<!-- Node1&#45;&gt;Node7 -->
<g id="edge6" class="edge">
<title>Node1&#45;&gt;Node7</title>
<path fill="none" stroke="midnightblue" d="M707.54,-51.34C687.48,-41.54 661.28,-28.73 643.89,-20.23"/>
<polygon fill="midnightblue" stroke="midnightblue" points="705.79,-54.38 716.31,-55.63 708.86,-48.09 705.79,-54.38"/>
</g>
<!-- Node8 -->
<g id="node8" class="node">
<title>Node8</title>
<g id="a_node8"><a xlink:href="_native_activation_8cpp.html" target="_top" xlink:title=" ">
<polygon fill="white" stroke="black" points="682.88,-0.5 682.88,-19.75 789.62,-19.75 789.62,-0.5 682.88,-0.5"/>
<text xml:space="preserve" text-anchor="middle" x="736.25" y="-6.25" font-family="Helvetica,sans-Serif" font-size="10.00">NativeActivation.cpp</text>
</a>
</g>
</g>
<!-- Node1&#45;&gt;Node8 -->
<g id="edge7" class="edge">
<title>Node1&#45;&gt;Node8</title>
<path fill="none" stroke="midnightblue" d="M736.25,-45.19C736.25,-36.48 736.25,-26.74 736.25,-19.92"/>
<polygon fill="midnightblue" stroke="midnightblue" points="732.75,-44.9 736.25,-54.9 739.75,-44.9 732.75,-44.9"/>
</g>
<!-- Node9 -->
<g id="node9" class="node">
<title>Node9</title>
<g id="a_node9"><a xlink:href="_rexx_variable_8cpp.html" target="_top" xlink:title=" ">
<polygon fill="white" stroke="black" points="808,-0.5 808,-19.75 900.5,-19.75 900.5,-0.5 808,-0.5"/>
<text xml:space="preserve" text-anchor="middle" x="854.25" y="-6.25" font-family="Helvetica,sans-Serif" font-size="10.00">RexxVariable.cpp</text>
</a>
</g>
</g>
<!-- Node1&#45;&gt;Node9 -->
<g id="edge8" class="edge">
<title>Node1&#45;&gt;Node9</title>
<path fill="none" stroke="midnightblue" d="M766.18,-51.61C787.58,-41.78 815.78,-28.81 834.44,-20.23"/>
<polygon fill="midnightblue" stroke="midnightblue" points="765,-48.31 757.38,-55.66 767.92,-54.67 765,-48.31"/>
</g>
<!-- Node10 -->
<g id="node10" class="node">
<title>Node10</title>
<g id="a_node10"><a xlink:href="_thread_context_stubs_8cpp.html" target="_top" xlink:title=" ">
<polygon fill="white" stroke="black" points="918.88,-0.5 918.88,-19.75 1043.62,-19.75 1043.62,-0.5 918.88,-0.5"/>
<text xml:space="preserve" text-anchor="middle" x="981.25" y="-6.25" font-family="Helvetica,sans-Serif" font-size="10.00">ThreadContextStubs.cpp</text>
</a>
</g>
</g>
<!-- Node1&#45;&gt;Node10 -->
<g id="edge9" class="edge">
<title>Node1&#45;&gt;Node10</title>
<path fill="none" stroke="midnightblue" d="M788.33,-53.84C833.62,-43.81 898.37,-29.48 940.11,-20.23"/>
<polygon fill="midnightblue" stroke="midnightblue" points="787.74,-50.39 778.74,-55.97 789.26,-57.22 787.74,-50.39"/>
</g>
<!-- Node11 -->
<g id="node11" class="node">
<title>Node11</title>
<g id="a_node11"><a xlink:href="_expression_stem_8cpp.html" target="_top" xlink:title=" ">
<polygon fill="white" stroke="black" points="1061.88,-0.5 1061.88,-19.75 1168.62,-19.75 1168.62,-0.5 1061.88,-0.5"/>
<text xml:space="preserve" text-anchor="middle" x="1115.25" y="-6.25" font-family="Helvetica,sans-Serif" font-size="10.00">ExpressionStem.cpp</text>
</a>
</g>
</g>
<!-- Node1&#45;&gt;Node11 -->
<g id="edge10" class="edge">
<title>Node1&#45;&gt;Node11</title>
<path fill="none" stroke="midnightblue" d="M804.78,-55.63C868.79,-46.52 967,-32.51 1052.25,-20.25 1055.31,-19.81 1058.46,-19.36 1061.63,-18.9"/>
<polygon fill="midnightblue" stroke="midnightblue" points="804.53,-52.13 795.13,-57 805.52,-59.06 804.53,-52.13"/>
</g>
<!-- Node12 -->
<g id="node12" class="node">
<title>Node12</title>
<g id="a_node12"><a xlink:href="_variable_reference_op_8cpp.html" target="_top" xlink:title=" ">
<polygon fill="white" stroke="black" points="1186.75,-0.5 1186.75,-19.75 1313.75,-19.75 1313.75,-0.5 1186.75,-0.5"/>
<text xml:space="preserve" text-anchor="middle" x="1250.25" y="-6.25" font-family="Helvetica,sans-Serif" font-size="10.00">VariableReferenceOp.cpp</text>
</a>
</g>
</g>
<!-- Node1&#45;&gt;Node12 -->
<g id="edge11" class="edge">
<title>Node1&#45;&gt;Node12</title>
<path fill="none" stroke="midnightblue" d="M805.01,-58.82C891.81,-50.43 1045.7,-35.2 1177.25,-20.25 1180.3,-19.9 1183.41,-19.54 1186.56,-19.17"/>
<polygon fill="midnightblue" stroke="midnightblue" points="804.86,-55.32 795.24,-59.76 805.53,-62.29 804.86,-55.32"/>
</g>
<!-- Node13 -->
<g id="node13" class="node">
<title>Node13</title>
<g id="a_node13"><a xlink:href="_expression_variable_8cpp.html" target="_top" xlink:title=" ">
<polygon fill="white" stroke="black" points="1332.25,-0.5 1332.25,-19.75 1450.25,-19.75 1450.25,-0.5 1332.25,-0.5"/>
<text xml:space="preserve" text-anchor="middle" x="1391.25" y="-6.25" font-family="Helvetica,sans-Serif" font-size="10.00">ExpressionVariable.cpp</text>
</a>
</g>
</g>
<!-- Node1&#45;&gt;Node13 -->
<g id="edge12" class="edge">
<title>Node1&#45;&gt;Node13</title>
<path fill="none" stroke="midnightblue" d="M805.07,-61.35C914.83,-54.65 1136.23,-39.97 1323.25,-20.25 1326.09,-19.95 1329,-19.63 1331.94,-19.29"/>
<polygon fill="midnightblue" stroke="midnightblue" points="805.12,-57.84 795.35,-61.94 805.54,-64.83 805.12,-57.84"/>
</g>
<!-- Node14 -->
<g id="node14" class="node">
<title>Node14</title>
<g id="a_node14"><a xlink:href="_virtual_function_table_8cpp.html" target="_top" xlink:title=" ">
<polygon fill="white" stroke="black" points="1468.62,-0.5 1468.62,-19.75 1591.88,-19.75 1591.88,-0.5 1468.62,-0.5"/>
<text xml:space="preserve" text-anchor="middle" x="1530.25" y="-6.25" font-family="Helvetica,sans-Serif" font-size="10.00">VirtualFunctionTable.cpp</text>
</a>
</g>
</g>
<!-- Node1&#45;&gt;Node14 -->
<g id="edge13" class="edge">
<title>Node1&#45;&gt;Node14</title>
<path fill="none" stroke="midnightblue" d="M804.72,-62.6C933.23,-57.05 1219.23,-43.14 1459.25,-20.25 1462.22,-19.97 1465.26,-19.66 1468.32,-19.33"/>
<polygon fill="midnightblue" stroke="midnightblue" points="804.88,-59.09 795.04,-63.01 805.18,-66.08 804.88,-59.09"/>
</g>
</g>
</svg>
        <g id="navigator" transform="translate(0 0)" fill="#404254">
                <rect fill="#f2f5e9" fill-opacity="0.5" stroke="#606060" stroke-width=".5" x="0" y="0" width="60" height="60"/>
                <use id="zoomplus" xlink:href="#zoomPlus" x="17" y="9" onmousedown="handleZoom(evt,'in')"/>
                <use id="zoomminus" xlink:href="#zoomMin" x="42" y="9" onmousedown="handleZoom(evt,'out')"/>
                <use id="reset" xlink:href="#resetDef" x="30" y="36" onmousedown="handleReset()"/>
                <g id="arrowUp" xlink:href="#dirArrow" transform="translate(30 24)" onmousedown="handlePan(0,-1)">
                  <use xlink:href="#rim" fill="#404040">
                        <set attributeName="fill" to="#808080" begin="arrowUp.mouseover" end="arrowUp.mouseout"/>
                  </use>
                  <path fill="none" stroke="white" stroke-width="1.5" d="M0,-3.0v7 M-2.5,-0.5L0,-3.0L2.5,-0.5"/>
                </g>
                <g id="arrowRight" xlink:href="#dirArrow" transform="rotate(90) translate(36 -43)" onmousedown="handlePan(1,0)">
                  <use xlink:href="#rim" fill="#404040">
                        <set attributeName="fill" to="#808080" begin="arrowRight.mouseover" end="arrowRight.mouseout"/>
                  </use>
                  <path fill="none" stroke="white" stroke-width="1.5" d="M0,-3.0v7 M-2.5,-0.5L0,-3.0L2.5,-0.5"/>
                </g>
                <g id="arrowDown" xlink:href="#dirArrow" transform="rotate(180) translate(-30 -48)" onmousedown="handlePan(0,1)">
                  <use xlink:href="#rim" fill="#404040">
                        <set attributeName="fill" to="#808080" begin="arrowDown.mouseover" end="arrowDown.mouseout"/>
                  </use>
                  <path fill="none" stroke="white" stroke-width="1.5" d="M0,-3.0v7 M-2.5,-0.5L0,-3.0L2.5,-0.5"/>
                </g>
                <g id="arrowLeft" xlink:href="#dirArrow" transform="rotate(270) translate(-36 17)" onmousedown="handlePan(-1,0)">
                  <use xlink:href="#rim" fill="#404040">
                        <set attributeName="fill" to="#808080" begin="arrowLeft.mouseover" end="arrowLeft.mouseout"/>
                  </use>
                  <path fill="none" stroke="white" stroke-width="1.5" d="M0,-3.0v7 M-2.5,-0.5L0,-3.0L2.5,-0.5"/>
                </g>
        </g>
        <svg viewBox="0 0 15 15" width="100%" height="30px" preserveAspectRatio="xMaxYMin meet">
         <g id="arrow_out" transform="scale(0.3 0.3)">
          <a xlink:href="_variable_reference_8hpp__dep__incl_org.svg" target="_base">
           <rect id="button" ry="5" rx="5" y="6" x="6" height="38" width="38"
                fill="#f2f5e9" fill-opacity="0.5" stroke="#606060" stroke-width="1.0"/>
           <path id="arrow"
             d="M 11.500037,31.436501 C 11.940474,20.09759 22.043105,11.32322 32.158766,21.979434 L 37.068811,17.246167 C 37.068811,17.246167 37.088388,32 37.088388,32 L 22.160133,31.978069 C 22.160133,31.978069 26.997745,27.140456 26.997745,27.140456 C 18.528582,18.264221 13.291696,25.230495 11.500037,31.436501 z"
             style="fill:#404040;"/>
          </a>
         </g>
        </svg>
</svg>
