<?xml version="1.0" encoding="UTF-8" standalone="no"?>
<!DOCTYPE svg PUBLIC "-//W3C//DTD SVG 1.1//EN"
 "http://www.w3.org/Graphics/SVG/1.1/DTD/svg11.dtd">
<!-- Generated by graphviz version 13.1.0 (20250701.0955)
 -->
<!-- Title: WeakReferenceClass.cpp Pages: 1 -->
<svg width="2096pt" height="422pt"
 viewBox="0.00 0.00 2096.00 422.00" xmlns="http://www.w3.org/2000/svg" xmlns:xlink="http://www.w3.org/1999/xlink">
<g id="graph0" class="graph" transform="scale(1 1) rotate(0) translate(4 418)">
<title>WeakReferenceClass.cpp</title>
<polygon fill="white" stroke="none" points="-4,4 -4,-418 2091.88,-418 2091.88,4 -4,4"/>
<!-- Node1 -->
<g id="node1" class="node">
<title>Node1</title>
<g id="a_node1"><a xlink:title=" ">
<polygon fill="#bfbfbf" stroke="black" points="1085.75,-394.25 1085.75,-413.5 1215.75,-413.5 1215.75,-394.25 1085.75,-394.25"/>
<text xml:space="preserve" text-anchor="middle" x="1150.75" y="-400" font-family="Helvetica,sans-Serif" font-size="10.00">WeakReferenceClass.cpp</text>
</a>
</g>
</g>
<!-- Node2 -->
<g id="node2" class="node">
<title>Node2</title>
<g id="a_node2"><a xlink:href="_rexx_core_8h.html" target="_top" xlink:title=" ">
<polygon fill="white" stroke="black" points="955.5,-281.75 955.5,-301 1024,-301 1024,-281.75 955.5,-281.75"/>
<text xml:space="preserve" text-anchor="middle" x="989.75" y="-287.5" font-family="Helvetica,sans-Serif" font-size="10.00">RexxCore.h</text>
</a>
</g>
</g>
<!-- Node1&#45;&gt;Node2 -->
<g id="edge1" class="edge">
<title>Node1&#45;&gt;Node2</title>
<path fill="none" stroke="midnightblue" d="M1085.35,-395.71C1058.42,-389.62 1028.89,-378.4 1008.75,-357.75 997,-345.71 992.45,-326.85 990.71,-312.48"/>
<polygon fill="midnightblue" stroke="midnightblue" points="994.23,-312.48 989.93,-302.79 987.25,-313.04 994.23,-312.48"/>
</g>
<!-- Node47 -->
<g id="node40" class="node">
<title>Node47</title>
<g id="a_node40"><a xlink:href="_weak_reference_class_8hpp.html" target="_top" xlink:title=" ">
<polygon fill="white" stroke="black" points="1017.75,-338 1017.75,-357.25 1147.75,-357.25 1147.75,-338 1017.75,-338"/>
<text xml:space="preserve" text-anchor="middle" x="1082.75" y="-343.75" font-family="Helvetica,sans-Serif" font-size="10.00">WeakReferenceClass.hpp</text>
</a>
</g>
</g>
<!-- Node1&#45;&gt;Node47 -->
<g id="edge50" class="edge">
<title>Node1&#45;&gt;Node47</title>
<path fill="none" stroke="midnightblue" d="M1139.52,-393.92C1129.52,-385.94 1114.65,-374.08 1102.64,-364.5"/>
<polygon fill="midnightblue" stroke="midnightblue" points="1104.95,-361.86 1094.95,-358.36 1100.59,-367.33 1104.95,-361.86"/>
</g>
<!-- Node48 -->
<g id="node41" class="node">
<title>Node48</title>
<g id="a_node41"><a xlink:href="_protected_object_8hpp.html" target="_top" xlink:title=" ">
<polygon fill="white" stroke="black" points="1166.12,-338 1166.12,-357.25 1271.38,-357.25 1271.38,-338 1166.12,-338"/>
<text xml:space="preserve" text-anchor="middle" x="1218.75" y="-343.75" font-family="Helvetica,sans-Serif" font-size="10.00">ProtectedObject.hpp</text>
</a>
</g>
</g>
<!-- Node1&#45;&gt;Node48 -->
<g id="edge52" class="edge">
<title>Node1&#45;&gt;Node48</title>
<path fill="none" stroke="midnightblue" d="M1161.98,-393.92C1171.98,-385.94 1186.85,-374.08 1198.86,-364.5"/>
<polygon fill="midnightblue" stroke="midnightblue" points="1200.91,-367.33 1206.55,-358.36 1196.55,-361.86 1200.91,-367.33"/>
</g>
<!-- Node49 -->
<g id="node42" class="node">
<title>Node49</title>
<g id="a_node42"><a xlink:href="_method_arguments_8hpp.html" target="_top" xlink:title=" ">
<polygon fill="white" stroke="black" points="1517.62,-338 1517.62,-357.25 1631.88,-357.25 1631.88,-338 1517.62,-338"/>
<text xml:space="preserve" text-anchor="middle" x="1574.75" y="-343.75" font-family="Helvetica,sans-Serif" font-size="10.00">MethodArguments.hpp</text>
</a>
</g>
</g>
<!-- Node1&#45;&gt;Node49 -->
<g id="edge53" class="edge">
<title>Node1&#45;&gt;Node49</title>
<path fill="none" stroke="midnightblue" d="M1216.07,-394.52C1294.72,-384.45 1426.2,-367.63 1506.24,-357.39"/>
<polygon fill="midnightblue" stroke="midnightblue" points="1506.21,-360.92 1515.68,-356.18 1505.32,-353.98 1506.21,-360.92"/>
</g>
<!-- Node3 -->
<g id="node3" class="node">
<title>Node3</title>
<g id="a_node3"><a xlink:href="oorexxapi_8h.html" target="_top" xlink:title=" ">
<polygon fill="white" stroke="black" points="1294.62,-225.5 1294.62,-244.75 1360.88,-244.75 1360.88,-225.5 1294.62,-225.5"/>
<text xml:space="preserve" text-anchor="middle" x="1327.75" y="-231.25" font-family="Helvetica,sans-Serif" font-size="10.00">oorexxapi.h</text>
</a>
</g>
</g>
<!-- Node2&#45;&gt;Node3 -->
<g id="edge2" class="edge">
<title>Node2&#45;&gt;Node3</title>
<path fill="none" stroke="midnightblue" d="M1024.05,-285.86C1077.32,-278.69 1183.41,-263.79 1283.13,-245.64"/>
<polygon fill="midnightblue" stroke="midnightblue" points="1283.63,-249.11 1292.83,-243.86 1282.36,-242.22 1283.63,-249.11"/>
</g>
<!-- Node10 -->
<g id="node10" class="node">
<title>Node10</title>
<g id="a_node10"><a xlink:title=" ">
<polygon fill="white" stroke="#bfbfbf" points="0,-225.5 0,-244.75 107.5,-244.75 107.5,-225.5 0,-225.5"/>
<text xml:space="preserve" text-anchor="middle" x="53.75" y="-231.25" font-family="Helvetica,sans-Serif" font-size="10.00">PlatformDefinitions.h</text>
</a>
</g>
</g>
<!-- Node2&#45;&gt;Node10 -->
<g id="edge9" class="edge">
<title>Node2&#45;&gt;Node10</title>
<path fill="none" stroke="midnightblue" d="M955.36,-289.59C838.37,-286.72 445.16,-275.31 121.75,-245.25 120.9,-245.17 120.05,-245.09 119.2,-245.01"/>
<polygon fill="midnightblue" stroke="midnightblue" points="119.72,-241.54 109.4,-243.96 118.97,-248.5 119.72,-241.54"/>
</g>
<!-- Node11 -->
<g id="node11" class="node">
<title>Node11</title>
<g id="a_node11"><a xlink:href="_class_type_codes_8h.html" target="_top" xlink:title=" ">
<polygon fill="white" stroke="black" points="107.12,-113 107.12,-132.25 206.38,-132.25 206.38,-113 107.12,-113"/>
<text xml:space="preserve" text-anchor="middle" x="156.75" y="-118.75" font-family="Helvetica,sans-Serif" font-size="10.00">ClassTypeCodes.h</text>
</a>
</g>
</g>
<!-- Node2&#45;&gt;Node11 -->
<g id="edge10" class="edge">
<title>Node2&#45;&gt;Node11</title>
<path fill="none" stroke="midnightblue" d="M955.07,-288.91C803.8,-282.14 207,-251.61 154.75,-189 144.29,-176.47 146.21,-157.4 149.9,-143.08"/>
<polygon fill="midnightblue" stroke="midnightblue" points="153.14,-144.46 152.74,-133.87 146.45,-142.39 153.14,-144.46"/>
</g>
<!-- Node12 -->
<g id="node12" class="node">
<title>Node12</title>
<g id="a_node12"><a xlink:href="_object_class_8hpp.html" target="_top" xlink:title=" ">
<polygon fill="white" stroke="black" points="1443.38,-225.5 1443.38,-244.75 1532.12,-244.75 1532.12,-225.5 1443.38,-225.5"/>
<text xml:space="preserve" text-anchor="middle" x="1487.75" y="-231.25" font-family="Helvetica,sans-Serif" font-size="10.00">ObjectClass.hpp</text>
</a>
</g>
</g>
<!-- Node2&#45;&gt;Node12 -->
<g id="edge11" class="edge">
<title>Node2&#45;&gt;Node12</title>
<path fill="none" stroke="midnightblue" d="M1024.37,-286.6C1109.31,-277.35 1328.59,-253.46 1432.09,-242.19"/>
<polygon fill="midnightblue" stroke="midnightblue" points="1432.16,-245.7 1441.72,-241.14 1431.4,-238.74 1432.16,-245.7"/>
</g>
<!-- Node18 -->
<g id="node18" class="node">
<title>Node18</title>
<g id="a_node18"><a xlink:href="_table_class_8hpp.html" target="_top" xlink:title=" ">
<polygon fill="white" stroke="black" points="802,-225.5 802,-244.75 885.5,-244.75 885.5,-225.5 802,-225.5"/>
<text xml:space="preserve" text-anchor="middle" x="843.75" y="-231.25" font-family="Helvetica,sans-Serif" font-size="10.00">TableClass.hpp</text>
</a>
</g>
</g>
<!-- Node2&#45;&gt;Node18 -->
<g id="edge18" class="edge">
<title>Node2&#45;&gt;Node18</title>
<path fill="none" stroke="midnightblue" d="M965.31,-281.29C941.63,-272.49 905.45,-259.05 878.72,-249.12"/>
<polygon fill="midnightblue" stroke="midnightblue" points="880.28,-245.96 869.69,-245.76 877.84,-252.53 880.28,-245.96"/>
</g>
<!-- Node30 -->
<g id="node21" class="node">
<title>Node30</title>
<g id="a_node21"><a xlink:href="_rexx_memory_8hpp.html" target="_top" xlink:title=" ">
<polygon fill="white" stroke="black" points="527.88,-225.5 527.88,-244.75 619.62,-244.75 619.62,-225.5 527.88,-225.5"/>
<text xml:space="preserve" text-anchor="middle" x="573.75" y="-231.25" font-family="Helvetica,sans-Serif" font-size="10.00">RexxMemory.hpp</text>
</a>
</g>
</g>
<!-- Node2&#45;&gt;Node30 -->
<g id="edge21" class="edge">
<title>Node2&#45;&gt;Node30</title>
<path fill="none" stroke="midnightblue" d="M955.35,-285.89C884,-276.58 719.23,-255.1 631.37,-243.64"/>
<polygon fill="midnightblue" stroke="midnightblue" points="631.89,-240.18 621.52,-242.35 630.98,-247.12 631.89,-240.18"/>
</g>
<!-- Node44 -->
<g id="node34" class="node">
<title>Node44</title>
<g id="a_node34"><a xlink:href="_rexx_behaviour_8hpp.html" target="_top" xlink:title=" ">
<polygon fill="white" stroke="black" points="978.38,-225.5 978.38,-244.75 1079.12,-244.75 1079.12,-225.5 978.38,-225.5"/>
<text xml:space="preserve" text-anchor="middle" x="1028.75" y="-231.25" font-family="Helvetica,sans-Serif" font-size="10.00">RexxBehaviour.hpp</text>
</a>
</g>
</g>
<!-- Node2&#45;&gt;Node44 -->
<g id="edge43" class="edge">
<title>Node2&#45;&gt;Node44</title>
<path fill="none" stroke="midnightblue" d="M996.19,-281.42C1001.53,-273.99 1009.28,-263.2 1015.89,-254.02"/>
<polygon fill="midnightblue" stroke="midnightblue" points="1018.55,-256.31 1021.55,-246.15 1012.87,-252.22 1018.55,-256.31"/>
</g>
<!-- Node23 -->
<g id="node38" class="node">
<title>Node23</title>
<g id="a_node38"><a xlink:href="_class_class_8hpp.html" target="_top" xlink:title=" ">
<polygon fill="white" stroke="black" points="1190.88,-225.5 1190.88,-244.75 1276.62,-244.75 1276.62,-225.5 1190.88,-225.5"/>
<text xml:space="preserve" text-anchor="middle" x="1233.75" y="-231.25" font-family="Helvetica,sans-Serif" font-size="10.00">ClassClass.hpp</text>
</a>
</g>
</g>
<!-- Node2&#45;&gt;Node23 -->
<g id="edge47" class="edge">
<title>Node2&#45;&gt;Node23</title>
<path fill="none" stroke="midnightblue" d="M1024.45,-282.66C1065.62,-273.51 1134.64,-258.16 1182.1,-247.61"/>
<polygon fill="midnightblue" stroke="midnightblue" points="1182.59,-251.09 1191.59,-245.5 1181.07,-244.25 1182.59,-251.09"/>
</g>
<!-- Node46 -->
<g id="node39" class="node">
<title>Node46</title>
<g id="a_node39"><a xlink:href="_envelope_8hpp.html" target="_top" xlink:title=" ">
<polygon fill="white" stroke="black" points="1097.12,-225.5 1097.12,-244.75 1172.38,-244.75 1172.38,-225.5 1097.12,-225.5"/>
<text xml:space="preserve" text-anchor="middle" x="1134.75" y="-231.25" font-family="Helvetica,sans-Serif" font-size="10.00">Envelope.hpp</text>
</a>
</g>
</g>
<!-- Node2&#45;&gt;Node46 -->
<g id="edge49" class="edge">
<title>Node2&#45;&gt;Node46</title>
<path fill="none" stroke="midnightblue" d="M1014.02,-281.29C1037.44,-272.53 1073.15,-259.17 1099.66,-249.25"/>
<polygon fill="midnightblue" stroke="midnightblue" points="1100.84,-252.55 1108.98,-245.77 1098.39,-245.99 1100.84,-252.55"/>
</g>
<!-- Node4 -->
<g id="node4" class="node">
<title>Node4</title>
<g id="a_node4"><a xlink:href="rexx_8h.html" target="_top" xlink:title=" ">
<polygon fill="white" stroke="black" points="1317.25,-169.25 1317.25,-188.5 1360.25,-188.5 1360.25,-169.25 1317.25,-169.25"/>
<text xml:space="preserve" text-anchor="middle" x="1338.75" y="-175" font-family="Helvetica,sans-Serif" font-size="10.00">rexx.h</text>
</a>
</g>
</g>
<!-- Node3&#45;&gt;Node4 -->
<g id="edge3" class="edge">
<title>Node3&#45;&gt;Node4</title>
<path fill="none" stroke="midnightblue" d="M1329.57,-225.17C1330.96,-218.29 1332.94,-208.54 1334.7,-199.85"/>
<polygon fill="midnightblue" stroke="midnightblue" points="1338.11,-200.65 1336.67,-190.15 1331.25,-199.25 1338.11,-200.65"/>
</g>
<!-- Node9 -->
<g id="node9" class="node">
<title>Node9</title>
<g id="a_node9"><a xlink:href="oorexxerrors_8h.html" target="_top" xlink:title=" ">
<polygon fill="white" stroke="black" points="1220.62,-169.25 1220.62,-188.5 1298.88,-188.5 1298.88,-169.25 1220.62,-169.25"/>
<text xml:space="preserve" text-anchor="middle" x="1259.75" y="-175" font-family="Helvetica,sans-Serif" font-size="10.00">oorexxerrors.h</text>
</a>
</g>
</g>
<!-- Node3&#45;&gt;Node9 -->
<g id="edge8" class="edge">
<title>Node3&#45;&gt;Node9</title>
<path fill="none" stroke="midnightblue" d="M1316.52,-225.17C1306.52,-217.19 1291.65,-205.33 1279.64,-195.75"/>
<polygon fill="midnightblue" stroke="midnightblue" points="1281.95,-193.11 1271.95,-189.61 1277.59,-198.58 1281.95,-193.11"/>
</g>
<!-- Node5 -->
<g id="node5" class="node">
<title>Node5</title>
<g id="a_node5"><a xlink:title=" ">
<polygon fill="white" stroke="#bfbfbf" points="1287.88,-113 1287.88,-132.25 1367.62,-132.25 1367.62,-113 1287.88,-113"/>
<text xml:space="preserve" text-anchor="middle" x="1327.75" y="-118.75" font-family="Helvetica,sans-Serif" font-size="10.00">rexxapitypes.h</text>
</a>
</g>
</g>
<!-- Node4&#45;&gt;Node5 -->
<g id="edge4" class="edge">
<title>Node4&#45;&gt;Node5</title>
<path fill="none" stroke="midnightblue" d="M1336.93,-168.92C1335.54,-162.04 1333.56,-152.29 1331.8,-143.6"/>
<polygon fill="midnightblue" stroke="midnightblue" points="1335.25,-143 1329.83,-133.9 1328.39,-144.4 1335.25,-143"/>
</g>
<!-- Node6 -->
<g id="node6" class="node">
<title>Node6</title>
<g id="a_node6"><a xlink:href="rexxapidefs_8h.html" target="_top" xlink:title=" ">
<polygon fill="white" stroke="black" points="1385.5,-113 1385.5,-132.25 1460,-132.25 1460,-113 1385.5,-113"/>
<text xml:space="preserve" text-anchor="middle" x="1422.75" y="-118.75" font-family="Helvetica,sans-Serif" font-size="10.00">rexxapidefs.h</text>
</a>
</g>
</g>
<!-- Node4&#45;&gt;Node6 -->
<g id="edge5" class="edge">
<title>Node4&#45;&gt;Node6</title>
<path fill="none" stroke="midnightblue" d="M1352.62,-168.92C1365.27,-160.75 1384.21,-148.52 1399.22,-138.82"/>
<polygon fill="midnightblue" stroke="midnightblue" points="1401.09,-141.78 1407.59,-133.42 1397.29,-135.9 1401.09,-141.78"/>
</g>
<!-- Node7 -->
<g id="node7" class="node">
<title>Node7</title>
<g id="a_node7"><a xlink:title=" ">
<polygon fill="white" stroke="#bfbfbf" points="1058.25,-113 1058.25,-132.25 1155.25,-132.25 1155.25,-113 1058.25,-113"/>
<text xml:space="preserve" text-anchor="middle" x="1106.75" y="-118.75" font-family="Helvetica,sans-Serif" font-size="10.00">rexxplatformdefs.h</text>
</a>
</g>
</g>
<!-- Node4&#45;&gt;Node7 -->
<g id="edge6" class="edge">
<title>Node4&#45;&gt;Node7</title>
<path fill="none" stroke="midnightblue" d="M1316.78,-171.22C1313.76,-170.36 1310.68,-169.51 1307.75,-168.75 1258.96,-156.11 1202.98,-143.71 1162.51,-135.12"/>
<polygon fill="midnightblue" stroke="midnightblue" points="1163.25,-131.7 1152.74,-133.06 1161.8,-138.55 1163.25,-131.7"/>
</g>
<!-- Node8 -->
<g id="node8" class="node">
<title>Node8</title>
<g id="a_node8"><a xlink:title=" ">
<polygon fill="white" stroke="#bfbfbf" points="1173.62,-113 1173.62,-132.25 1269.88,-132.25 1269.88,-113 1173.62,-113"/>
<text xml:space="preserve" text-anchor="middle" x="1221.75" y="-118.75" font-family="Helvetica,sans-Serif" font-size="10.00">rexxplatformapis.h</text>
</a>
</g>
</g>
<!-- Node4&#45;&gt;Node8 -->
<g id="edge7" class="edge">
<title>Node4&#45;&gt;Node8</title>
<path fill="none" stroke="midnightblue" d="M1319.17,-168.79C1300.78,-160.27 1272.99,-147.38 1251.8,-137.56"/>
<polygon fill="midnightblue" stroke="midnightblue" points="1253.31,-134.4 1242.77,-133.37 1250.37,-140.75 1253.31,-134.4"/>
</g>
<!-- Node13 -->
<g id="node13" class="node">
<title>Node13</title>
<g id="a_node13"><a xlink:title=" ">
<polygon fill="white" stroke="#bfbfbf" points="1515.75,-169.25 1515.75,-188.5 1549.75,-188.5 1549.75,-169.25 1515.75,-169.25"/>
<text xml:space="preserve" text-anchor="middle" x="1532.75" y="-175" font-family="Helvetica,sans-Serif" font-size="10.00">new</text>
</a>
</g>
</g>
<!-- Node12&#45;&gt;Node13 -->
<g id="edge12" class="edge">
<title>Node12&#45;&gt;Node13</title>
<path fill="none" stroke="midnightblue" d="M1495.18,-225.17C1501.41,-217.66 1510.48,-206.72 1518.15,-197.48"/>
<polygon fill="midnightblue" stroke="midnightblue" points="1520.8,-199.76 1524.49,-189.83 1515.41,-195.29 1520.8,-199.76"/>
</g>
<!-- Node14 -->
<g id="node14" class="node">
<title>Node14</title>
<g id="a_node14"><a xlink:title=" ">
<polygon fill="white" stroke="#bfbfbf" points="509.62,-56.75 509.62,-76 557.88,-76 557.88,-56.75 509.62,-56.75"/>
<text xml:space="preserve" text-anchor="middle" x="533.75" y="-62.5" font-family="Helvetica,sans-Serif" font-size="10.00">string.h</text>
</a>
</g>
</g>
<!-- Node12&#45;&gt;Node14 -->
<g id="edge13" class="edge">
<title>Node12&#45;&gt;Node14</title>
<path fill="none" stroke="midnightblue" d="M1489.68,-225.04C1493.97,-202.11 1501.46,-141.65 1468.75,-112.5 1431.43,-79.24 619.22,-83.68 569.75,-76.5 569.51,-76.47 569.27,-76.43 569.03,-76.39"/>
<polygon fill="midnightblue" stroke="midnightblue" points="569.98,-73.01 559.5,-74.54 568.65,-79.88 569.98,-73.01"/>
</g>
<!-- Node15 -->
<g id="node15" class="node">
<title>Node15</title>
<g id="a_node15"><a xlink:href="_numerics_8hpp.html" target="_top" xlink:title=" ">
<polygon fill="white" stroke="black" points="912.38,-56.75 912.38,-76 989.12,-76 989.12,-56.75 912.38,-56.75"/>
<text xml:space="preserve" text-anchor="middle" x="950.75" y="-62.5" font-family="Helvetica,sans-Serif" font-size="10.00">Numerics.hpp</text>
</a>
</g>
</g>
<!-- Node12&#45;&gt;Node15 -->
<g id="edge14" class="edge">
<title>Node12&#45;&gt;Node15</title>
<path fill="none" stroke="midnightblue" d="M1513.62,-225.15C1529.75,-218.06 1549.19,-206.41 1558.75,-189 1581.38,-147.8 1508.85,-115.76 1501.75,-112.5 1413.21,-71.87 1118.65,-67.3 1000.45,-67.15"/>
<polygon fill="midnightblue" stroke="midnightblue" points="1000.76,-63.65 990.76,-67.15 1000.76,-70.65 1000.76,-63.65"/>
</g>
<!-- Node17 -->
<g id="node17" class="node">
<title>Node17</title>
<g id="a_node17"><a xlink:href="_rexx_error_codes_8h.html" target="_top" xlink:title=" ">
<polygon fill="white" stroke="black" points="1709.25,-169.25 1709.25,-188.5 1806.25,-188.5 1806.25,-169.25 1709.25,-169.25"/>
<text xml:space="preserve" text-anchor="middle" x="1757.75" y="-175" font-family="Helvetica,sans-Serif" font-size="10.00">RexxErrorCodes.h</text>
</a>
</g>
</g>
<!-- Node12&#45;&gt;Node17 -->
<g id="edge17" class="edge">
<title>Node12&#45;&gt;Node17</title>
<path fill="none" stroke="midnightblue" d="M1532.34,-225.17C1578.7,-215.85 1651.41,-201.24 1701.66,-191.15"/>
<polygon fill="midnightblue" stroke="midnightblue" points="1702.05,-194.64 1711.16,-189.24 1700.67,-187.77 1702.05,-194.64"/>
</g>
<!-- Node15&#45;&gt;Node2 -->
<g id="edge16" class="edge">
<title>Node15&#45;&gt;Node2</title>
<path fill="none" stroke="midnightblue" d="M950.73,-76.44C950.9,-102.92 952.87,-182.25 969.75,-245.25 972.1,-254.04 975.95,-263.3 979.63,-271.12"/>
<polygon fill="midnightblue" stroke="midnightblue" points="976.47,-272.61 984.07,-279.99 982.73,-269.48 976.47,-272.61"/>
</g>
<!-- Node16 -->
<g id="node16" class="node">
<title>Node16</title>
<g id="a_node16"><a xlink:title=" ">
<polygon fill="white" stroke="#bfbfbf" points="922.88,-0.5 922.88,-19.75 978.62,-19.75 978.62,-0.5 922.88,-0.5"/>
<text xml:space="preserve" text-anchor="middle" x="950.75" y="-6.25" font-family="Helvetica,sans-Serif" font-size="10.00">algorithm</text>
</a>
</g>
</g>
<!-- Node15&#45;&gt;Node16 -->
<g id="edge15" class="edge">
<title>Node15&#45;&gt;Node16</title>
<path fill="none" stroke="midnightblue" d="M950.75,-56.42C950.75,-49.62 950.75,-40.01 950.75,-31.4"/>
<polygon fill="midnightblue" stroke="midnightblue" points="954.25,-31.43 950.75,-21.43 947.25,-31.43 954.25,-31.43"/>
</g>
<!-- Node19 -->
<g id="node19" class="node">
<title>Node19</title>
<g id="a_node19"><a xlink:href="_hash_collection_8hpp.html" target="_top" xlink:title=" ">
<polygon fill="white" stroke="black" points="719,-113 719,-132.25 820.5,-132.25 820.5,-113 719,-113"/>
<text xml:space="preserve" text-anchor="middle" x="769.75" y="-118.75" font-family="Helvetica,sans-Serif" font-size="10.00">HashCollection.hpp</text>
</a>
</g>
</g>
<!-- Node18&#45;&gt;Node19 -->
<g id="edge19" class="edge">
<title>Node18&#45;&gt;Node19</title>
<path fill="none" stroke="midnightblue" d="M837.69,-225.08C825.55,-206.94 798,-165.81 781.96,-141.86"/>
<polygon fill="midnightblue" stroke="midnightblue" points="785,-140.1 776.52,-133.74 779.18,-144 785,-140.1"/>
</g>
<!-- Node20 -->
<g id="node20" class="node">
<title>Node20</title>
<g id="a_node20"><a xlink:href="_hash_contents_8hpp.html" target="_top" xlink:title=" ">
<polygon fill="white" stroke="red" points="720.88,-56.75 720.88,-76 818.62,-76 818.62,-56.75 720.88,-56.75"/>
<text xml:space="preserve" text-anchor="middle" x="769.75" y="-62.5" font-family="Helvetica,sans-Serif" font-size="10.00">HashContents.hpp</text>
</a>
</g>
</g>
<!-- Node19&#45;&gt;Node20 -->
<g id="edge20" class="edge">
<title>Node19&#45;&gt;Node20</title>
<path fill="none" stroke="midnightblue" d="M769.75,-112.67C769.75,-105.87 769.75,-96.26 769.75,-87.65"/>
<polygon fill="midnightblue" stroke="midnightblue" points="773.25,-87.68 769.75,-77.68 766.25,-87.68 773.25,-87.68"/>
</g>
<!-- Node31 -->
<g id="node22" class="node">
<title>Node31</title>
<g id="a_node22"><a xlink:href="_memory_8hpp.html" target="_top" xlink:title=" ">
<polygon fill="white" stroke="black" points="632.5,-113 632.5,-132.25 701,-132.25 701,-113 632.5,-113"/>
<text xml:space="preserve" text-anchor="middle" x="666.75" y="-118.75" font-family="Helvetica,sans-Serif" font-size="10.00">Memory.hpp</text>
</a>
</g>
</g>
<!-- Node30&#45;&gt;Node31 -->
<g id="edge22" class="edge">
<title>Node30&#45;&gt;Node31</title>
<path fill="none" stroke="midnightblue" d="M574.32,-225.18C575.59,-211.67 579.68,-185.84 592.75,-168.75 603.05,-155.29 618.61,-144.93 632.82,-137.56"/>
<polygon fill="midnightblue" stroke="midnightblue" points="633.98,-140.88 641.46,-133.38 630.93,-134.58 633.98,-140.88"/>
</g>
<!-- Node32 -->
<g id="node23" class="node">
<title>Node32</title>
<g id="a_node23"><a xlink:href="_memory_stack_8hpp.html" target="_top" xlink:title=" ">
<polygon fill="white" stroke="black" points="377,-113 377,-132.25 472.5,-132.25 472.5,-113 377,-113"/>
<text xml:space="preserve" text-anchor="middle" x="424.75" y="-118.75" font-family="Helvetica,sans-Serif" font-size="10.00">MemoryStack.hpp</text>
</a>
</g>
</g>
<!-- Node30&#45;&gt;Node32 -->
<g id="edge23" class="edge">
<title>Node30&#45;&gt;Node32</title>
<path fill="none" stroke="midnightblue" d="M527.7,-233.35C493.97,-230.09 450.15,-219.67 426.75,-189 417.05,-176.29 417.42,-157.79 419.71,-143.71"/>
<polygon fill="midnightblue" stroke="midnightblue" points="423.07,-144.72 421.7,-134.22 416.22,-143.28 423.07,-144.72"/>
</g>
<!-- Node33 -->
<g id="node24" class="node">
<title>Node33</title>
<g id="a_node24"><a xlink:title=" ">
<polygon fill="white" stroke="#bfbfbf" points="236,-56.75 236,-76 337.5,-76 337.5,-56.75 236,-56.75"/>
<text xml:space="preserve" text-anchor="middle" x="286.75" y="-62.5" font-family="Helvetica,sans-Serif" font-size="10.00">SysSemaphore.hpp</text>
</a>
</g>
</g>
<!-- Node30&#45;&gt;Node33 -->
<g id="edge25" class="edge">
<title>Node30&#45;&gt;Node33</title>
<path fill="none" stroke="midnightblue" d="M527.41,-234.48C457.86,-232.17 328.58,-216.17 271.75,-132.75 262.33,-118.93 268.2,-100.04 275.17,-86.12"/>
<polygon fill="midnightblue" stroke="midnightblue" points="278.15,-87.97 279.98,-77.53 272.04,-84.55 278.15,-87.97"/>
</g>
<!-- Node34 -->
<g id="node25" class="node">
<title>Node34</title>
<g id="a_node25"><a xlink:href="_identity_table_class_8hpp.html" target="_top" xlink:title=" ">
<polygon fill="white" stroke="black" points="662.88,-169.25 662.88,-188.5 778.62,-188.5 778.62,-169.25 662.88,-169.25"/>
<text xml:space="preserve" text-anchor="middle" x="720.75" y="-175" font-family="Helvetica,sans-Serif" font-size="10.00">IdentityTableClass.hpp</text>
</a>
</g>
</g>
<!-- Node30&#45;&gt;Node34 -->
<g id="edge26" class="edge">
<title>Node30&#45;&gt;Node34</title>
<path fill="none" stroke="midnightblue" d="M598.35,-225.04C622.2,-216.24 658.62,-202.8 685.54,-192.87"/>
<polygon fill="midnightblue" stroke="midnightblue" points="686.48,-196.25 694.65,-189.51 684.05,-189.69 686.48,-196.25"/>
</g>
<!-- Node35 -->
<g id="node26" class="node">
<title>Node35</title>
<g id="a_node26"><a xlink:href="_queue_class_8hpp.html" target="_top" xlink:title=" ">
<polygon fill="white" stroke="black" points="834.38,-169.25 834.38,-188.5 923.12,-188.5 923.12,-169.25 834.38,-169.25"/>
<text xml:space="preserve" text-anchor="middle" x="878.75" y="-175" font-family="Helvetica,sans-Serif" font-size="10.00">QueueClass.hpp</text>
</a>
</g>
</g>
<!-- Node30&#45;&gt;Node35 -->
<g id="edge28" class="edge">
<title>Node30&#45;&gt;Node35</title>
<path fill="none" stroke="midnightblue" d="M620.07,-225.89C674.44,-216.22 764.55,-200.19 822.78,-189.83"/>
<polygon fill="midnightblue" stroke="midnightblue" points="823.26,-193.3 832.49,-188.1 822.03,-186.41 823.26,-193.3"/>
</g>
<!-- Node38 -->
<g id="node28" class="node">
<title>Node38</title>
<g id="a_node28"><a xlink:title=" ">
<polygon fill="white" stroke="#bfbfbf" points="602.25,-169.25 602.25,-188.5 645.25,-188.5 645.25,-169.25 602.25,-169.25"/>
<text xml:space="preserve" text-anchor="middle" x="623.75" y="-175" font-family="Helvetica,sans-Serif" font-size="10.00">vector</text>
</a>
</g>
</g>
<!-- Node30&#45;&gt;Node38 -->
<g id="edge31" class="edge">
<title>Node30&#45;&gt;Node38</title>
<path fill="none" stroke="midnightblue" d="M582.01,-225.17C589.07,-217.5 599.43,-206.26 608.06,-196.89"/>
<polygon fill="midnightblue" stroke="midnightblue" points="610.42,-199.5 614.62,-189.78 605.27,-194.76 610.42,-199.5"/>
</g>
<!-- Node39 -->
<g id="node29" class="node">
<title>Node39</title>
<g id="a_node29"><a xlink:href="_memory_stats_8hpp.html" target="_top" xlink:title=" ">
<polygon fill="white" stroke="black" points="164.12,-169.25 164.12,-188.5 257.38,-188.5 257.38,-169.25 164.12,-169.25"/>
<text xml:space="preserve" text-anchor="middle" x="210.75" y="-175" font-family="Helvetica,sans-Serif" font-size="10.00">MemoryStats.hpp</text>
</a>
</g>
</g>
<!-- Node30&#45;&gt;Node39 -->
<g id="edge32" class="edge">
<title>Node30&#45;&gt;Node39</title>
<path fill="none" stroke="midnightblue" d="M527.45,-227.21C468.18,-218.36 362.32,-202.54 271.75,-189 270.75,-188.85 269.75,-188.7 268.74,-188.55"/>
<polygon fill="midnightblue" stroke="midnightblue" points="269.61,-185.14 259.2,-187.12 268.58,-192.06 269.61,-185.14"/>
</g>
<!-- Node40 -->
<g id="node30" class="node">
<title>Node40</title>
<g id="a_node30"><a xlink:href="_memory_segment_8hpp.html" target="_top" xlink:title=" ">
<polygon fill="white" stroke="black" points="436.25,-169.25 436.25,-188.5 545.25,-188.5 545.25,-169.25 436.25,-169.25"/>
<text xml:space="preserve" text-anchor="middle" x="490.75" y="-175" font-family="Helvetica,sans-Serif" font-size="10.00">MemorySegment.hpp</text>
</a>
</g>
</g>
<!-- Node30&#45;&gt;Node40 -->
<g id="edge34" class="edge">
<title>Node30&#45;&gt;Node40</title>
<path fill="none" stroke="midnightblue" d="M560.04,-225.17C547.55,-217 528.83,-204.77 514,-195.07"/>
<polygon fill="midnightblue" stroke="midnightblue" points="516.03,-192.22 505.74,-189.67 512.2,-198.08 516.03,-192.22"/>
</g>
<!-- Node32&#45;&gt;Node14 -->
<g id="edge24" class="edge">
<title>Node32&#45;&gt;Node14</title>
<path fill="none" stroke="midnightblue" d="M442.75,-112.67C459.79,-104.19 485.64,-91.32 505.44,-81.46"/>
<polygon fill="midnightblue" stroke="midnightblue" points="506.98,-84.61 514.37,-77.02 503.86,-78.34 506.98,-84.61"/>
</g>
<!-- Node34&#45;&gt;Node19 -->
<g id="edge27" class="edge">
<title>Node34&#45;&gt;Node19</title>
<path fill="none" stroke="midnightblue" d="M728.84,-168.92C735.69,-161.33 745.71,-150.24 754.12,-140.93"/>
<polygon fill="midnightblue" stroke="midnightblue" points="756.69,-143.31 760.79,-133.54 751.49,-138.61 756.69,-143.31"/>
</g>
<!-- Node36 -->
<g id="node27" class="node">
<title>Node36</title>
<g id="a_node27"><a xlink:href="_array_class_8hpp.html" target="_top" xlink:title=" ">
<polygon fill="white" stroke="red" points="839,-113 839,-132.25 922.5,-132.25 922.5,-113 839,-113"/>
<text xml:space="preserve" text-anchor="middle" x="880.75" y="-118.75" font-family="Helvetica,sans-Serif" font-size="10.00">ArrayClass.hpp</text>
</a>
</g>
</g>
<!-- Node35&#45;&gt;Node36 -->
<g id="edge29" class="edge">
<title>Node35&#45;&gt;Node36</title>
<path fill="none" stroke="midnightblue" d="M879.08,-168.92C879.33,-162.12 879.68,-152.51 880,-143.9"/>
<polygon fill="midnightblue" stroke="midnightblue" points="883.5,-144.05 880.37,-133.93 876.5,-143.79 883.5,-144.05"/>
</g>
<!-- Node36&#45;&gt;Node15 -->
<g id="edge30" class="edge">
<title>Node36&#45;&gt;Node15</title>
<path fill="none" stroke="midnightblue" d="M892.31,-112.67C902.71,-104.61 918.21,-92.59 930.64,-82.96"/>
<polygon fill="midnightblue" stroke="midnightblue" points="932.45,-85.99 938.21,-77.09 928.16,-80.45 932.45,-85.99"/>
</g>
<!-- Node39&#45;&gt;Node11 -->
<g id="edge33" class="edge">
<title>Node39&#45;&gt;Node11</title>
<path fill="none" stroke="midnightblue" d="M201.83,-168.92C194.13,-161.17 182.78,-149.78 173.4,-140.36"/>
<polygon fill="midnightblue" stroke="midnightblue" points="176.1,-138.11 166.57,-133.49 171.14,-143.05 176.1,-138.11"/>
</g>
<!-- Node40&#45;&gt;Node31 -->
<g id="edge41" class="edge">
<title>Node40&#45;&gt;Node31</title>
<path fill="none" stroke="midnightblue" d="M520.21,-168.79C549.27,-159.84 593.92,-146.07 626.3,-136.09"/>
<polygon fill="midnightblue" stroke="midnightblue" points="627.22,-139.47 635.75,-133.18 625.16,-132.78 627.22,-139.47"/>
</g>
<!-- Node41 -->
<g id="node31" class="node">
<title>Node41</title>
<g id="a_node31"><a xlink:href="_dead_object_8hpp.html" target="_top" xlink:title=" ">
<polygon fill="white" stroke="black" points="490.5,-113 490.5,-132.25 577,-132.25 577,-113 490.5,-113"/>
<text xml:space="preserve" text-anchor="middle" x="533.75" y="-118.75" font-family="Helvetica,sans-Serif" font-size="10.00">DeadObject.hpp</text>
</a>
</g>
</g>
<!-- Node40&#45;&gt;Node41 -->
<g id="edge35" class="edge">
<title>Node40&#45;&gt;Node41</title>
<path fill="none" stroke="midnightblue" d="M497.85,-168.92C503.8,-161.41 512.47,-150.47 519.8,-141.23"/>
<polygon fill="midnightblue" stroke="midnightblue" points="522.37,-143.61 525.84,-133.6 516.89,-139.27 522.37,-143.61"/>
</g>
<!-- Node42 -->
<g id="node32" class="node">
<title>Node42</title>
<g id="a_node32"><a xlink:title=" ">
<polygon fill="white" stroke="#bfbfbf" points="579.12,-56.75 579.12,-76 624.38,-76 624.38,-56.75 579.12,-56.75"/>
<text xml:space="preserve" text-anchor="middle" x="601.75" y="-62.5" font-family="Helvetica,sans-Serif" font-size="10.00">stdio.h</text>
</a>
</g>
</g>
<!-- Node40&#45;&gt;Node42 -->
<g id="edge42" class="edge">
<title>Node40&#45;&gt;Node42</title>
<path fill="none" stroke="midnightblue" d="M527.18,-168.9C547.24,-162.15 570.99,-150.87 585.75,-132.75 596.03,-120.13 599.86,-101.88 601.22,-87.87"/>
<polygon fill="midnightblue" stroke="midnightblue" points="604.71,-88.17 601.79,-77.98 597.72,-87.76 604.71,-88.17"/>
</g>
<!-- Node43 -->
<g id="node33" class="node">
<title>Node43</title>
<g id="a_node33"><a xlink:href="_interpreter_8hpp.html" target="_top" xlink:title=" ">
<polygon fill="white" stroke="black" points="280.62,-113 280.62,-132.25 358.88,-132.25 358.88,-113 280.62,-113"/>
<text xml:space="preserve" text-anchor="middle" x="319.75" y="-118.75" font-family="Helvetica,sans-Serif" font-size="10.00">Interpreter.hpp</text>
</a>
</g>
</g>
<!-- Node40&#45;&gt;Node43 -->
<g id="edge38" class="edge">
<title>Node40&#45;&gt;Node43</title>
<path fill="none" stroke="midnightblue" d="M462.13,-168.79C433.89,-159.84 390.51,-146.07 359.05,-136.09"/>
<polygon fill="midnightblue" stroke="midnightblue" points="360.5,-132.88 349.91,-133.19 358.38,-139.55 360.5,-132.88"/>
</g>
<!-- Node41&#45;&gt;Node14 -->
<g id="edge36" class="edge">
<title>Node41&#45;&gt;Node14</title>
<path fill="none" stroke="midnightblue" d="M533.75,-112.67C533.75,-105.87 533.75,-96.26 533.75,-87.65"/>
<polygon fill="midnightblue" stroke="midnightblue" points="537.25,-87.68 533.75,-77.68 530.25,-87.68 537.25,-87.68"/>
</g>
<!-- Node41&#45;&gt;Node42 -->
<g id="edge37" class="edge">
<title>Node41&#45;&gt;Node42</title>
<path fill="none" stroke="midnightblue" d="M544.98,-112.67C554.98,-104.69 569.85,-92.83 581.86,-83.25"/>
<polygon fill="midnightblue" stroke="midnightblue" points="583.91,-86.08 589.55,-77.11 579.55,-80.61 583.91,-86.08"/>
</g>
<!-- Node43&#45;&gt;Node2 -->
<g id="edge39" class="edge">
<title>Node43&#45;&gt;Node2</title>
<path fill="none" stroke="midnightblue" d="M330.02,-132.6C357.95,-156.38 438.57,-220.83 518.75,-245.25 597.46,-269.22 841.38,-283.31 943.77,-288.3"/>
<polygon fill="midnightblue" stroke="midnightblue" points="943.58,-291.8 953.73,-288.78 943.91,-284.8 943.58,-291.8"/>
</g>
<!-- Node43&#45;&gt;Node33 -->
<g id="edge40" class="edge">
<title>Node43&#45;&gt;Node33</title>
<path fill="none" stroke="midnightblue" d="M314.3,-112.67C309.88,-105.4 303.5,-94.91 297.99,-85.86"/>
<polygon fill="midnightblue" stroke="midnightblue" points="301.07,-84.18 292.88,-77.46 295.09,-87.82 301.07,-84.18"/>
</g>
<!-- Node24 -->
<g id="node35" class="node">
<title>Node24</title>
<g id="a_node35"><a xlink:href="_flag_set_8hpp.html" target="_top" xlink:title=" ">
<polygon fill="white" stroke="black" points="1134.5,-169.25 1134.5,-188.5 1203,-188.5 1203,-169.25 1134.5,-169.25"/>
<text xml:space="preserve" text-anchor="middle" x="1168.75" y="-175" font-family="Helvetica,sans-Serif" font-size="10.00">FlagSet.hpp</text>
</a>
</g>
</g>
<!-- Node44&#45;&gt;Node24 -->
<g id="edge44" class="edge">
<title>Node44&#45;&gt;Node24</title>
<path fill="none" stroke="midnightblue" d="M1052.18,-225.04C1074.69,-216.32 1108.97,-203.04 1134.53,-193.14"/>
<polygon fill="midnightblue" stroke="midnightblue" points="1135.77,-196.41 1143.83,-189.53 1133.24,-189.88 1135.77,-196.41"/>
</g>
<!-- Node45 -->
<g id="node37" class="node">
<title>Node45</title>
<g id="a_node37"><a xlink:href="_primitive_behaviour_names_8h.html" target="_top" xlink:title=" ">
<polygon fill="white" stroke="black" points="979,-169.25 979,-188.5 1116.5,-188.5 1116.5,-169.25 979,-169.25"/>
<text xml:space="preserve" text-anchor="middle" x="1047.75" y="-175" font-family="Helvetica,sans-Serif" font-size="10.00">PrimitiveBehaviourNames.h</text>
</a>
</g>
</g>
<!-- Node44&#45;&gt;Node45 -->
<g id="edge46" class="edge">
<title>Node44&#45;&gt;Node45</title>
<path fill="none" stroke="midnightblue" d="M1031.89,-225.17C1034.35,-218.14 1037.87,-208.09 1040.97,-199.25"/>
<polygon fill="midnightblue" stroke="midnightblue" points="1044.17,-200.69 1044.17,-190.1 1037.56,-198.38 1044.17,-200.69"/>
</g>
<!-- Node25 -->
<g id="node36" class="node">
<title>Node25</title>
<g id="a_node36"><a xlink:href="_bit_set_8hpp.html" target="_top" xlink:title=" ">
<polygon fill="white" stroke="black" points="978.88,-113 978.88,-132.25 1040.62,-132.25 1040.62,-113 978.88,-113"/>
<text xml:space="preserve" text-anchor="middle" x="1009.75" y="-118.75" font-family="Helvetica,sans-Serif" font-size="10.00">BitSet.hpp</text>
</a>
</g>
</g>
<!-- Node24&#45;&gt;Node25 -->
<g id="edge45" class="edge">
<title>Node24&#45;&gt;Node25</title>
<path fill="none" stroke="midnightblue" d="M1142.14,-168.79C1116.11,-159.91 1076.25,-146.31 1047.06,-136.36"/>
<polygon fill="midnightblue" stroke="midnightblue" points="1048.48,-133.14 1037.88,-133.22 1046.22,-139.77 1048.48,-133.14"/>
</g>
<!-- Node23&#45;&gt;Node24 -->
<g id="edge48" class="edge">
<title>Node23&#45;&gt;Node24</title>
<path fill="none" stroke="midnightblue" d="M1223.02,-225.17C1213.55,-217.27 1199.53,-205.56 1188.11,-196.03"/>
<polygon fill="midnightblue" stroke="midnightblue" points="1190.37,-193.36 1180.45,-189.64 1185.88,-198.73 1190.37,-193.36"/>
</g>
<!-- Node47&#45;&gt;Node2 -->
<g id="edge51" class="edge">
<title>Node47&#45;&gt;Node2</title>
<path fill="none" stroke="midnightblue" d="M1067.39,-337.67C1053.12,-329.34 1031.61,-316.79 1014.85,-307.02"/>
<polygon fill="midnightblue" stroke="midnightblue" points="1016.84,-304.12 1006.44,-302.11 1013.31,-310.17 1016.84,-304.12"/>
</g>
<!-- Node50 -->
<g id="node43" class="node">
<title>Node50</title>
<g id="a_node43"><a xlink:href="_activity_manager_8hpp.html" target="_top" xlink:title=" ">
<polygon fill="white" stroke="black" points="1749.5,-281.75 1749.5,-301 1854,-301 1854,-281.75 1749.5,-281.75"/>
<text xml:space="preserve" text-anchor="middle" x="1801.75" y="-287.5" font-family="Helvetica,sans-Serif" font-size="10.00">ActivityManager.hpp</text>
</a>
</g>
</g>
<!-- Node49&#45;&gt;Node50 -->
<g id="edge54" class="edge">
<title>Node49&#45;&gt;Node50</title>
<path fill="none" stroke="midnightblue" d="M1612.74,-337.54C1651.13,-328.37 1710.6,-314.16 1752.56,-304.13"/>
<polygon fill="midnightblue" stroke="midnightblue" points="1753.25,-307.57 1762.16,-301.84 1751.62,-300.76 1753.25,-307.57"/>
</g>
<!-- Node50&#45;&gt;Node17 -->
<g id="edge63" class="edge">
<title>Node50&#45;&gt;Node17</title>
<path fill="none" stroke="midnightblue" d="M1799.78,-281.28C1796.86,-268.44 1790.83,-244.42 1782.75,-225 1779.01,-216.02 1773.94,-206.53 1769.35,-198.59"/>
<polygon fill="midnightblue" stroke="midnightblue" points="1772.47,-196.98 1764.32,-190.21 1766.46,-200.58 1772.47,-196.98"/>
</g>
<!-- Node51 -->
<g id="node44" class="node">
<title>Node51</title>
<g id="a_node44"><a xlink:href="_activity_8hpp.html" target="_top" xlink:title=" ">
<polygon fill="white" stroke="red" points="1829.62,-225.5 1829.62,-244.75 1895.88,-244.75 1895.88,-225.5 1829.62,-225.5"/>
<text xml:space="preserve" text-anchor="middle" x="1862.75" y="-231.25" font-family="Helvetica,sans-Serif" font-size="10.00">Activity.hpp</text>
</a>
</g>
</g>
<!-- Node50&#45;&gt;Node51 -->
<g id="edge55" class="edge">
<title>Node50&#45;&gt;Node51</title>
<path fill="none" stroke="midnightblue" d="M1811.82,-281.42C1820.62,-273.6 1833.6,-262.05 1844.26,-252.57"/>
<polygon fill="midnightblue" stroke="midnightblue" points="1846.59,-255.18 1851.73,-245.92 1841.94,-249.95 1846.59,-255.18"/>
</g>
<!-- Node70 -->
<g id="node47" class="node">
<title>Node70</title>
<g id="a_node47"><a xlink:href="_activation_settings_8hpp.html" target="_top" xlink:title=" ">
<polygon fill="white" stroke="red" points="1913.62,-225.5 1913.62,-244.75 2027.88,-244.75 2027.88,-225.5 1913.62,-225.5"/>
<text xml:space="preserve" text-anchor="middle" x="1970.75" y="-231.25" font-family="Helvetica,sans-Serif" font-size="10.00">ActivationSettings.hpp</text>
</a>
</g>
</g>
<!-- Node50&#45;&gt;Node70 -->
<g id="edge59" class="edge">
<title>Node50&#45;&gt;Node70</title>
<path fill="none" stroke="midnightblue" d="M1830.04,-281.29C1857.82,-272.38 1900.44,-258.69 1931.5,-248.72"/>
<polygon fill="midnightblue" stroke="midnightblue" points="1932.48,-252.09 1940.93,-245.7 1930.34,-245.42 1932.48,-252.09"/>
</g>
<!-- Node74 -->
<g id="node48" class="node">
<title>Node74</title>
<g id="a_node48"><a xlink:title=" ">
<polygon fill="white" stroke="#bfbfbf" points="2045.62,-225.5 2045.62,-244.75 2087.88,-244.75 2087.88,-225.5 2045.62,-225.5"/>
<text xml:space="preserve" text-anchor="middle" x="2066.75" y="-231.25" font-family="Helvetica,sans-Serif" font-size="10.00">deque</text>
</a>
</g>
</g>
<!-- Node50&#45;&gt;Node74 -->
<g id="edge60" class="edge">
<title>Node50&#45;&gt;Node74</title>
<path fill="none" stroke="midnightblue" d="M1854.36,-281.91C1899.69,-274.25 1967.07,-261.99 2034.02,-245.73"/>
<polygon fill="midnightblue" stroke="midnightblue" points="2034.85,-249.13 2043.73,-243.34 2033.18,-242.33 2034.85,-249.13"/>
</g>
<!-- Node75 -->
<g id="node49" class="node">
<title>Node75</title>
<g id="a_node49"><a xlink:href="_global_names_8hpp.html" target="_top" xlink:title=" ">
<polygon fill="white" stroke="red" points="1549.75,-225.5 1549.75,-244.75 1643.75,-244.75 1643.75,-225.5 1549.75,-225.5"/>
<text xml:space="preserve" text-anchor="middle" x="1596.75" y="-231.25" font-family="Helvetica,sans-Serif" font-size="10.00">GlobalNames.hpp</text>
</a>
</g>
</g>
<!-- Node50&#45;&gt;Node75 -->
<g id="edge61" class="edge">
<title>Node50&#45;&gt;Node75</title>
<path fill="none" stroke="midnightblue" d="M1767.44,-281.29C1733,-272.18 1679.76,-258.09 1641.9,-248.07"/>
<polygon fill="midnightblue" stroke="midnightblue" points="1643.2,-244.8 1632.64,-245.62 1641.41,-251.56 1643.2,-244.8"/>
</g>
<!-- Node77 -->
<g id="node50" class="node">
<title>Node77</title>
<g id="a_node50"><a xlink:title=" ">
<polygon fill="white" stroke="#bfbfbf" points="1661.75,-225.5 1661.75,-244.75 1773.75,-244.75 1773.75,-225.5 1661.75,-225.5"/>
<text xml:space="preserve" text-anchor="middle" x="1717.75" y="-231.25" font-family="Helvetica,sans-Serif" font-size="10.00">SystemInterpreter.hpp</text>
</a>
</g>
</g>
<!-- Node50&#45;&gt;Node77 -->
<g id="edge62" class="edge">
<title>Node50&#45;&gt;Node77</title>
<path fill="none" stroke="midnightblue" d="M1787.88,-281.42C1775.23,-273.25 1756.29,-261.02 1741.28,-251.32"/>
<polygon fill="midnightblue" stroke="midnightblue" points="1743.21,-248.4 1732.91,-245.92 1739.41,-254.28 1743.21,-248.4"/>
</g>
<!-- Node51&#45;&gt;Node17 -->
<g id="edge58" class="edge">
<title>Node51&#45;&gt;Node17</title>
<path fill="none" stroke="midnightblue" d="M1845.41,-225.17C1829.07,-216.72 1804.32,-203.94 1785.29,-194.1"/>
<polygon fill="midnightblue" stroke="midnightblue" points="1786.95,-191.02 1776.46,-189.54 1783.74,-197.24 1786.95,-191.02"/>
</g>
<!-- Node52 -->
<g id="node45" class="node">
<title>Node52</title>
<g id="a_node45"><a xlink:href="_list_class_8hpp.html" target="_top" xlink:title=" ">
<polygon fill="white" stroke="red" points="1824.75,-169.25 1824.75,-188.5 1900.75,-188.5 1900.75,-169.25 1824.75,-169.25"/>
<text xml:space="preserve" text-anchor="middle" x="1862.75" y="-175" font-family="Helvetica,sans-Serif" font-size="10.00">ListClass.hpp</text>
</a>
</g>
</g>
<!-- Node51&#45;&gt;Node52 -->
<g id="edge56" class="edge">
<title>Node51&#45;&gt;Node52</title>
<path fill="none" stroke="midnightblue" d="M1862.75,-225.17C1862.75,-218.37 1862.75,-208.76 1862.75,-200.15"/>
<polygon fill="midnightblue" stroke="midnightblue" points="1866.25,-200.18 1862.75,-190.18 1859.25,-200.18 1866.25,-200.18"/>
</g>
<!-- Node54 -->
<g id="node46" class="node">
<title>Node54</title>
<g id="a_node46"><a xlink:href="_internal_stack_8hpp.html" target="_top" xlink:title=" ">
<polygon fill="white" stroke="black" points="1918.5,-169.25 1918.5,-188.5 2011,-188.5 2011,-169.25 1918.5,-169.25"/>
<text xml:space="preserve" text-anchor="middle" x="1964.75" y="-175" font-family="Helvetica,sans-Serif" font-size="10.00">InternalStack.hpp</text>
</a>
</g>
</g>
<!-- Node51&#45;&gt;Node54 -->
<g id="edge57" class="edge">
<title>Node51&#45;&gt;Node54</title>
<path fill="none" stroke="midnightblue" d="M1879.59,-225.17C1895.39,-216.76 1919.28,-204.06 1937.74,-194.24"/>
<polygon fill="midnightblue" stroke="midnightblue" points="1939.36,-197.34 1946.55,-189.56 1936.07,-191.16 1939.36,-197.34"/>
</g>
</g>
</svg>
