<?xml version="1.0" encoding="UTF-8" standalone="no"?>
<!DOCTYPE svg PUBLIC "-//W3C//DTD SVG 1.1//EN"
 "http://www.w3.org/Graphics/SVG/1.1/DTD/svg11.dtd">
<!-- Generated by graphviz version 13.1.0 (20250701.0955)
 -->
<!-- Title: callrexx1.cpp Pages: 1 -->
<svg width="582pt" height="141pt"
 viewBox="0.00 0.00 582.00 141.00" xmlns="http://www.w3.org/2000/svg" xmlns:xlink="http://www.w3.org/1999/xlink">
<g id="graph0" class="graph" transform="scale(1 1) rotate(0) translate(4 136.75)">
<title>callrexx1.cpp</title>
<polygon fill="white" stroke="none" points="-4,4 -4,-136.75 577.88,-136.75 577.88,4 -4,4"/>
<!-- Node1 -->
<g id="node1" class="node">
<title>Node1</title>
<g id="a_node1"><a xlink:title=" ">
<polygon fill="#bfbfbf" stroke="black" points="151.88,-113 151.88,-132.25 225.62,-132.25 225.62,-113 151.88,-113"/>
<text xml:space="preserve" text-anchor="middle" x="188.75" y="-118.75" font-family="Helvetica,sans-Serif" font-size="10.00">callrexx1.cpp</text>
</a>
</g>
</g>
<!-- Node2 -->
<g id="node2" class="node">
<title>Node2</title>
<g id="a_node2"><a xlink:title=" ">
<polygon fill="white" stroke="#bfbfbf" points="0,-56.75 0,-76 47.5,-76 47.5,-56.75 0,-56.75"/>
<text xml:space="preserve" text-anchor="middle" x="23.75" y="-62.5" font-family="Helvetica,sans-Serif" font-size="10.00">stdlib.h</text>
</a>
</g>
</g>
<!-- Node1&#45;&gt;Node2 -->
<g id="edge1" class="edge">
<title>Node1&#45;&gt;Node2</title>
<path fill="none" stroke="midnightblue" d="M161.13,-112.54C132.94,-103.28 89.11,-88.86 58.56,-78.82"/>
<polygon fill="midnightblue" stroke="midnightblue" points="59.99,-75.61 49.4,-75.81 57.81,-82.26 59.99,-75.61"/>
</g>
<!-- Node3 -->
<g id="node3" class="node">
<title>Node3</title>
<g id="a_node3"><a xlink:title=" ">
<polygon fill="white" stroke="#bfbfbf" points="65.12,-56.75 65.12,-76 110.38,-76 110.38,-56.75 65.12,-56.75"/>
<text xml:space="preserve" text-anchor="middle" x="87.75" y="-62.5" font-family="Helvetica,sans-Serif" font-size="10.00">stdio.h</text>
</a>
</g>
</g>
<!-- Node1&#45;&gt;Node3 -->
<g id="edge2" class="edge">
<title>Node1&#45;&gt;Node3</title>
<path fill="none" stroke="midnightblue" d="M172.07,-112.67C156.43,-104.26 132.77,-91.56 114.49,-81.74"/>
<polygon fill="midnightblue" stroke="midnightblue" points="116.25,-78.71 105.79,-77.06 112.94,-84.88 116.25,-78.71"/>
</g>
<!-- Node4 -->
<g id="node4" class="node">
<title>Node4</title>
<g id="a_node4"><a xlink:title=" ">
<polygon fill="white" stroke="#bfbfbf" points="128.62,-56.75 128.62,-76 176.88,-76 176.88,-56.75 128.62,-56.75"/>
<text xml:space="preserve" text-anchor="middle" x="152.75" y="-62.5" font-family="Helvetica,sans-Serif" font-size="10.00">string.h</text>
</a>
</g>
</g>
<!-- Node1&#45;&gt;Node4 -->
<g id="edge3" class="edge">
<title>Node1&#45;&gt;Node4</title>
<path fill="none" stroke="midnightblue" d="M182.81,-112.67C177.93,-105.32 170.87,-94.68 164.82,-85.56"/>
<polygon fill="midnightblue" stroke="midnightblue" points="167.87,-83.82 159.42,-77.43 162.03,-87.7 167.87,-83.82"/>
</g>
<!-- Node5 -->
<g id="node5" class="node">
<title>Node5</title>
<g id="a_node5"><a xlink:title=" ">
<polygon fill="white" stroke="#bfbfbf" points="195,-56.75 195,-76 254.5,-76 254.5,-56.75 195,-56.75"/>
<text xml:space="preserve" text-anchor="middle" x="224.75" y="-62.5" font-family="Helvetica,sans-Serif" font-size="10.00">sys/stat.h</text>
</a>
</g>
</g>
<!-- Node1&#45;&gt;Node5 -->
<g id="edge4" class="edge">
<title>Node1&#45;&gt;Node5</title>
<path fill="none" stroke="midnightblue" d="M194.69,-112.67C199.57,-105.32 206.63,-94.68 212.68,-85.56"/>
<polygon fill="midnightblue" stroke="midnightblue" points="215.47,-87.7 218.08,-77.43 209.63,-83.82 215.47,-87.7"/>
</g>
<!-- Node6 -->
<g id="node6" class="node">
<title>Node6</title>
<g id="a_node6"><a xlink:title=" ">
<polygon fill="white" stroke="#bfbfbf" points="272.75,-56.75 272.75,-76 318.75,-76 318.75,-56.75 272.75,-56.75"/>
<text xml:space="preserve" text-anchor="middle" x="295.75" y="-62.5" font-family="Helvetica,sans-Serif" font-size="10.00">errno.h</text>
</a>
</g>
</g>
<!-- Node1&#45;&gt;Node6 -->
<g id="edge5" class="edge">
<title>Node1&#45;&gt;Node6</title>
<path fill="none" stroke="midnightblue" d="M206.42,-112.67C223.15,-104.19 248.52,-91.32 267.96,-81.46"/>
<polygon fill="midnightblue" stroke="midnightblue" points="269.37,-84.67 276.7,-77.03 266.2,-78.43 269.37,-84.67"/>
</g>
<!-- Node7 -->
<g id="node7" class="node">
<title>Node7</title>
<g id="a_node7"><a xlink:href="rexx_8h.html" target="_top" xlink:title=" ">
<polygon fill="white" stroke="black" points="337.25,-56.75 337.25,-76 380.25,-76 380.25,-56.75 337.25,-56.75"/>
<text xml:space="preserve" text-anchor="middle" x="358.75" y="-62.5" font-family="Helvetica,sans-Serif" font-size="10.00">rexx.h</text>
</a>
</g>
</g>
<!-- Node1&#45;&gt;Node7 -->
<g id="edge6" class="edge">
<title>Node1&#45;&gt;Node7</title>
<path fill="none" stroke="midnightblue" d="M217.2,-112.54C247.26,-102.95 294.57,-87.86 326.12,-77.79"/>
<polygon fill="midnightblue" stroke="midnightblue" points="327.06,-81.16 335.52,-74.79 324.93,-74.49 327.06,-81.16"/>
</g>
<!-- Node8 -->
<g id="node8" class="node">
<title>Node8</title>
<g id="a_node8"><a xlink:title=" ">
<polygon fill="white" stroke="#bfbfbf" points="171.88,-0.5 171.88,-19.75 251.62,-19.75 251.62,-0.5 171.88,-0.5"/>
<text xml:space="preserve" text-anchor="middle" x="211.75" y="-6.25" font-family="Helvetica,sans-Serif" font-size="10.00">rexxapitypes.h</text>
</a>
</g>
</g>
<!-- Node7&#45;&gt;Node8 -->
<g id="edge7" class="edge">
<title>Node7&#45;&gt;Node8</title>
<path fill="none" stroke="midnightblue" d="M337.06,-57.37C313.23,-48.58 274.61,-34.32 246.54,-23.96"/>
<polygon fill="midnightblue" stroke="midnightblue" points="247.99,-20.77 237.4,-20.59 245.57,-27.34 247.99,-20.77"/>
</g>
<!-- Node9 -->
<g id="node9" class="node">
<title>Node9</title>
<g id="a_node9"><a xlink:href="rexxapidefs_8h.html" target="_top" xlink:title=" ">
<polygon fill="white" stroke="black" points="269.5,-0.5 269.5,-19.75 344,-19.75 344,-0.5 269.5,-0.5"/>
<text xml:space="preserve" text-anchor="middle" x="306.75" y="-6.25" font-family="Helvetica,sans-Serif" font-size="10.00">rexxapidefs.h</text>
</a>
</g>
</g>
<!-- Node7&#45;&gt;Node9 -->
<g id="edge8" class="edge">
<title>Node7&#45;&gt;Node9</title>
<path fill="none" stroke="midnightblue" d="M350.16,-56.42C342.82,-48.75 332.04,-37.51 323.06,-28.14"/>
<polygon fill="midnightblue" stroke="midnightblue" points="325.67,-25.81 316.22,-21.01 320.62,-30.65 325.67,-25.81"/>
</g>
<!-- Node10 -->
<g id="node10" class="node">
<title>Node10</title>
<g id="a_node10"><a xlink:title=" ">
<polygon fill="white" stroke="#bfbfbf" points="362.25,-0.5 362.25,-19.75 459.25,-19.75 459.25,-0.5 362.25,-0.5"/>
<text xml:space="preserve" text-anchor="middle" x="410.75" y="-6.25" font-family="Helvetica,sans-Serif" font-size="10.00">rexxplatformdefs.h</text>
</a>
</g>
</g>
<!-- Node7&#45;&gt;Node10 -->
<g id="edge9" class="edge">
<title>Node7&#45;&gt;Node10</title>
<path fill="none" stroke="midnightblue" d="M367.34,-56.42C374.68,-48.75 385.46,-37.51 394.44,-28.14"/>
<polygon fill="midnightblue" stroke="midnightblue" points="396.88,-30.65 401.28,-21.01 391.83,-25.81 396.88,-30.65"/>
</g>
<!-- Node11 -->
<g id="node11" class="node">
<title>Node11</title>
<g id="a_node11"><a xlink:title=" ">
<polygon fill="white" stroke="#bfbfbf" points="477.62,-0.5 477.62,-19.75 573.88,-19.75 573.88,-0.5 477.62,-0.5"/>
<text xml:space="preserve" text-anchor="middle" x="525.75" y="-6.25" font-family="Helvetica,sans-Serif" font-size="10.00">rexxplatformapis.h</text>
</a>
</g>
</g>
<!-- Node7&#45;&gt;Node11 -->
<g id="edge10" class="edge">
<title>Node7&#45;&gt;Node11</title>
<path fill="none" stroke="midnightblue" d="M380.58,-58.28C407.59,-49.51 454.04,-34.42 487.13,-23.67"/>
<polygon fill="midnightblue" stroke="midnightblue" points="487.92,-27.1 496.35,-20.68 485.75,-20.44 487.92,-27.1"/>
</g>
</g>
</svg>
