<?xml version="1.0" encoding="UTF-8" standalone="no"?>
<!DOCTYPE svg PUBLIC "-//W3C//DTD SVG 1.1//EN"
 "http://www.w3.org/Graphics/SVG/1.1/DTD/svg11.dtd">
<!-- Generated by graphviz version 13.1.0 (20250701.0955)
 -->
<!-- Title: ApiConnection Pages: 1 -->
<svg width="360pt" height="141pt"
 viewBox="0.00 0.00 360.00 141.00" xmlns="http://www.w3.org/2000/svg" xmlns:xlink="http://www.w3.org/1999/xlink">
<g id="graph0" class="graph" transform="scale(1 1) rotate(0) translate(4 136.75)">
<title>ApiConnection</title>
<polygon fill="white" stroke="none" points="-4,4 -4,-136.75 356.25,-136.75 356.25,4 -4,4"/>
<!-- Node1 -->
<g id="node1" class="node">
<title>Node1</title>
<g id="a_node1"><a xlink:title=" ">
<polygon fill="#bfbfbf" stroke="black" points="169,-113 169,-132.25 248.75,-132.25 248.75,-113 169,-113"/>
<text xml:space="preserve" text-anchor="middle" x="208.88" y="-118.75" font-family="Helvetica,sans-Serif" font-size="10.00">ApiConnection</text>
</a>
</g>
</g>
<!-- Node2 -->
<g id="node2" class="node">
<title>Node2</title>
<g id="a_node2"><a xlink:href="class_sys_named_pipe_connection.html" target="_top" xlink:title=" ">
<polygon fill="white" stroke="black" points="0,-56.75 0,-76 133.75,-76 133.75,-56.75 0,-56.75"/>
<text xml:space="preserve" text-anchor="middle" x="66.88" y="-62.5" font-family="Helvetica,sans-Serif" font-size="10.00">SysNamedPipeConnection</text>
</a>
</g>
</g>
<!-- Node1&#45;&gt;Node2 -->
<g id="edge1" class="edge">
<title>Node1&#45;&gt;Node2</title>
<path fill="none" stroke="midnightblue" d="M174.6,-108.53C148.66,-98.62 113.68,-85.26 90.72,-76.48"/>
<polygon fill="midnightblue" stroke="midnightblue" points="173.1,-111.71 183.69,-112 175.6,-105.17 173.1,-111.71"/>
</g>
<!-- Node3 -->
<g id="node3" class="node">
<title>Node3</title>
<g id="a_node3"><a xlink:href="class_sys_socket_connection.html" target="_top" xlink:title=" ">
<polygon fill="white" stroke="black" points="152.12,-56.75 152.12,-76 265.62,-76 265.62,-56.75 152.12,-56.75"/>
<text xml:space="preserve" text-anchor="middle" x="208.88" y="-62.5" font-family="Helvetica,sans-Serif" font-size="10.00">SysSocketConnection</text>
</a>
</g>
</g>
<!-- Node1&#45;&gt;Node3 -->
<g id="edge2" class="edge">
<title>Node1&#45;&gt;Node3</title>
<path fill="none" stroke="midnightblue" d="M202.33,-101.44C201.81,-92.73 202.28,-82.99 203.74,-76.17"/>
<polygon fill="midnightblue" stroke="midnightblue" points="198.83,-101.67 203.52,-111.16 205.77,-100.81 198.83,-101.67"/>
</g>
<!-- Node1&#45;&gt;Node3 -->
<g id="edge5" class="edge">
<title>Node1&#45;&gt;Node3</title>
<path fill="none" stroke="midnightblue" d="M215.42,-101.44C215.94,-92.73 215.47,-82.99 214.01,-76.17"/>
<polygon fill="midnightblue" stroke="midnightblue" points="211.98,-100.81 214.23,-111.16 218.92,-101.67 211.98,-100.81"/>
</g>
<!-- Node4 -->
<g id="node4" class="node">
<title>Node4</title>
<g id="a_node4"><a xlink:href="class_sys_inet_socket_connection.html" target="_top" xlink:title=" ">
<polygon fill="white" stroke="black" points="67.88,-0.5 67.88,-19.75 197.88,-19.75 197.88,-0.5 67.88,-0.5"/>
<text xml:space="preserve" text-anchor="middle" x="132.88" y="-6.25" font-family="Helvetica,sans-Serif" font-size="10.00">SysInetSocketConnection</text>
</a>
</g>
</g>
<!-- Node3&#45;&gt;Node4 -->
<g id="edge3" class="edge">
<title>Node3&#45;&gt;Node4</title>
<path fill="none" stroke="midnightblue" d="M187.22,-49.91C173.7,-40.27 156.78,-28.19 145.44,-20.1"/>
<polygon fill="midnightblue" stroke="midnightblue" points="184.92,-52.58 195.09,-55.54 188.99,-46.88 184.92,-52.58"/>
</g>
<!-- Node5 -->
<g id="node5" class="node">
<title>Node5</title>
<g id="a_node5"><a xlink:href="class_sys_local_socket_connection.html" target="_top" xlink:title=" ">
<polygon fill="white" stroke="black" points="215.5,-0.5 215.5,-19.75 352.25,-19.75 352.25,-0.5 215.5,-0.5"/>
<text xml:space="preserve" text-anchor="middle" x="283.88" y="-6.25" font-family="Helvetica,sans-Serif" font-size="10.00">SysLocalSocketConnection</text>
</a>
</g>
</g>
<!-- Node3&#45;&gt;Node5 -->
<g id="edge4" class="edge">
<title>Node3&#45;&gt;Node5</title>
<path fill="none" stroke="midnightblue" d="M230.25,-49.91C243.59,-40.27 260.28,-28.19 271.47,-20.1"/>
<polygon fill="midnightblue" stroke="midnightblue" points="228.54,-46.83 222.49,-55.53 232.64,-52.5 228.54,-46.83"/>
</g>
</g>
</svg>
