<?xml version="1.0" encoding="UTF-8" standalone="no"?>
<!DOCTYPE svg PUBLIC "-//W3C//DTD SVG 1.1//EN"
 "http://www.w3.org/Graphics/SVG/1.1/DTD/svg11.dtd">
<!-- Generated by graphviz version 13.1.0 (20250701.0955)
 -->
<!-- Title: BagClass Pages: 1 -->
<svg width="135pt" height="366pt"
 viewBox="0.00 0.00 135.00 366.00" xmlns="http://www.w3.org/2000/svg" xmlns:xlink="http://www.w3.org/1999/xlink">
<g id="graph0" class="graph" transform="scale(1 1) rotate(0) translate(4 361.75)">
<title>BagClass</title>
<polygon fill="white" stroke="none" points="-4,4 -4,-361.75 131,-361.75 131,4 -4,4"/>
<!-- Node1 -->
<g id="node1" class="node">
<title>Node1</title>
<g id="a_node1"><a xlink:title=" ">
<polygon fill="#bfbfbf" stroke="black" points="34.12,-0.5 34.12,-19.75 92.88,-19.75 92.88,-0.5 34.12,-0.5"/>
<text xml:space="preserve" text-anchor="middle" x="63.5" y="-6.25" font-family="Helvetica,sans-Serif" font-size="10.00">BagClass</text>
</a>
</g>
</g>
<!-- Node2 -->
<g id="node2" class="node">
<title>Node2</title>
<g id="a_node2"><a xlink:href="class_index_only_hash_collection.html" target="_top" xlink:title=" ">
<polygon fill="white" stroke="black" points="0,-56.75 0,-76 127,-76 127,-56.75 0,-56.75"/>
<text xml:space="preserve" text-anchor="middle" x="63.5" y="-62.5" font-family="Helvetica,sans-Serif" font-size="10.00">IndexOnlyHashCollection</text>
</a>
</g>
</g>
<!-- Node2&#45;&gt;Node1 -->
<g id="edge1" class="edge">
<title>Node2&#45;&gt;Node1</title>
<path fill="none" stroke="midnightblue" d="M63.5,-45.19C63.5,-36.48 63.5,-26.74 63.5,-19.92"/>
<polygon fill="midnightblue" stroke="midnightblue" points="60,-44.9 63.5,-54.9 67,-44.9 60,-44.9"/>
</g>
<!-- Node3 -->
<g id="node3" class="node">
<title>Node3</title>
<g id="a_node3"><a xlink:href="class_equality_hash_collection.html" target="_top" xlink:title=" ">
<polygon fill="white" stroke="black" points="4.5,-113 4.5,-132.25 122.5,-132.25 122.5,-113 4.5,-113"/>
<text xml:space="preserve" text-anchor="middle" x="63.5" y="-118.75" font-family="Helvetica,sans-Serif" font-size="10.00">EqualityHashCollection</text>
</a>
</g>
</g>
<!-- Node3&#45;&gt;Node2 -->
<g id="edge2" class="edge">
<title>Node3&#45;&gt;Node2</title>
<path fill="none" stroke="midnightblue" d="M63.5,-101.44C63.5,-92.73 63.5,-82.99 63.5,-76.17"/>
<polygon fill="midnightblue" stroke="midnightblue" points="60,-101.15 63.5,-111.15 67,-101.15 60,-101.15"/>
</g>
<!-- Node4 -->
<g id="node4" class="node">
<title>Node4</title>
<g id="a_node4"><a xlink:href="class_hash_collection.html" target="_top" xlink:title=" ">
<polygon fill="white" stroke="black" points="22.12,-169.25 22.12,-188.5 104.88,-188.5 104.88,-169.25 22.12,-169.25"/>
<text xml:space="preserve" text-anchor="middle" x="63.5" y="-175" font-family="Helvetica,sans-Serif" font-size="10.00">HashCollection</text>
</a>
</g>
</g>
<!-- Node4&#45;&gt;Node3 -->
<g id="edge3" class="edge">
<title>Node4&#45;&gt;Node3</title>
<path fill="none" stroke="midnightblue" d="M63.5,-157.69C63.5,-148.98 63.5,-139.24 63.5,-132.42"/>
<polygon fill="midnightblue" stroke="midnightblue" points="60,-157.4 63.5,-167.4 67,-157.4 60,-157.4"/>
</g>
<!-- Node5 -->
<g id="node5" class="node">
<title>Node5</title>
<g id="a_node5"><a xlink:href="class_rexx_object.html" target="_top" xlink:title=" ">
<polygon fill="white" stroke="black" points="29.62,-225.5 29.62,-244.75 97.38,-244.75 97.38,-225.5 29.62,-225.5"/>
<text xml:space="preserve" text-anchor="middle" x="63.5" y="-231.25" font-family="Helvetica,sans-Serif" font-size="10.00">RexxObject</text>
</a>
</g>
</g>
<!-- Node5&#45;&gt;Node4 -->
<g id="edge4" class="edge">
<title>Node5&#45;&gt;Node4</title>
<path fill="none" stroke="midnightblue" d="M63.5,-213.94C63.5,-205.23 63.5,-195.49 63.5,-188.67"/>
<polygon fill="midnightblue" stroke="midnightblue" points="60,-213.65 63.5,-223.65 67,-213.65 60,-213.65"/>
</g>
<!-- Node6 -->
<g id="node6" class="node">
<title>Node6</title>
<g id="a_node6"><a xlink:href="class_rexx_internal_object.html" target="_top" xlink:title=" ">
<polygon fill="white" stroke="black" points="13.5,-281.75 13.5,-301 113.5,-301 113.5,-281.75 13.5,-281.75"/>
<text xml:space="preserve" text-anchor="middle" x="63.5" y="-287.5" font-family="Helvetica,sans-Serif" font-size="10.00">RexxInternalObject</text>
</a>
</g>
</g>
<!-- Node6&#45;&gt;Node5 -->
<g id="edge5" class="edge">
<title>Node6&#45;&gt;Node5</title>
<path fill="none" stroke="midnightblue" d="M63.5,-270.19C63.5,-261.48 63.5,-251.74 63.5,-244.92"/>
<polygon fill="midnightblue" stroke="midnightblue" points="60,-269.9 63.5,-279.9 67,-269.9 60,-269.9"/>
</g>
<!-- Node7 -->
<g id="node7" class="node">
<title>Node7</title>
<g id="a_node7"><a xlink:href="class_rexx_virtual_base.html" target="_top" xlink:title=" ">
<polygon fill="white" stroke="black" points="18.75,-338 18.75,-357.25 108.25,-357.25 108.25,-338 18.75,-338"/>
<text xml:space="preserve" text-anchor="middle" x="63.5" y="-343.75" font-family="Helvetica,sans-Serif" font-size="10.00">RexxVirtualBase</text>
</a>
</g>
</g>
<!-- Node7&#45;&gt;Node6 -->
<g id="edge6" class="edge">
<title>Node7&#45;&gt;Node6</title>
<path fill="none" stroke="midnightblue" d="M63.5,-326.44C63.5,-317.73 63.5,-307.99 63.5,-301.17"/>
<polygon fill="midnightblue" stroke="midnightblue" points="60,-326.15 63.5,-336.15 67,-326.15 60,-326.15"/>
</g>
</g>
</svg>
