<?xml version="1.0" encoding="UTF-8" standalone="no"?>
<!DOCTYPE svg PUBLIC "-//W3C//DTD SVG 1.1//EN"
 "http://www.w3.org/Graphics/SVG/1.1/DTD/svg11.dtd">
<!-- Generated by graphviz version 13.1.0 (20250701.0955)
 -->
<!-- Title: RexxInternalObject Pages: 1 -->
<svg width="538pt" height="1633pt"
 viewBox="0.00 0.00 538.00 1633.00" xmlns="http://www.w3.org/2000/svg" xmlns:xlink="http://www.w3.org/1999/xlink">
<g id="graph0" class="graph" transform="scale(1 1) rotate(0) translate(4 1629.25)">
<title>RexxInternalObject</title>
<polygon fill="white" stroke="none" points="-4,4 -4,-1629.25 533.75,-1629.25 533.75,4 -4,4"/>
<!-- Node1 -->
<g id="node1" class="node">
<title>Node1</title>
<g id="a_node1"><a xlink:title=" ">
<polygon fill="#bfbfbf" stroke="black" points="125.5,-798.5 125.5,-817.75 225.5,-817.75 225.5,-798.5 125.5,-798.5"/>
<text xml:space="preserve" text-anchor="middle" x="175.5" y="-804.25" font-family="Helvetica,sans-Serif" font-size="10.00">RexxInternalObject</text>
</a>
</g>
</g>
<!-- Node3 -->
<g id="node3" class="node">
<title>Node3</title>
<g id="a_node3"><a xlink:href="class_activation_base.html" target="_top" xlink:title=" ">
<polygon fill="white" stroke="black" points="285.12,-1596.5 285.12,-1615.75 367.12,-1615.75 367.12,-1596.5 285.12,-1596.5"/>
<text xml:space="preserve" text-anchor="middle" x="326.12" y="-1602.25" font-family="Helvetica,sans-Serif" font-size="10.00">ActivationBase</text>
</a>
</g>
</g>
<!-- Node1&#45;&gt;Node3 -->
<g id="edge2" class="edge">
<title>Node1&#45;&gt;Node3</title>
<path fill="none" stroke="midnightblue" d="M177.44,-829.67C182.87,-949.14 211.56,-1527.18 261.5,-1587.12 267.4,-1594.21 275.83,-1598.72 284.63,-1601.58"/>
<polygon fill="midnightblue" stroke="midnightblue" points="180.94,-829.56 177,-819.73 173.95,-829.87 180.94,-829.56"/>
</g>
<!-- Node6 -->
<g id="node6" class="node">
<title>Node6</title>
<g id="a_node6"><a xlink:href="class_activation_frame_buffer.html" target="_top" xlink:title=" ">
<polygon fill="white" stroke="black" points="269.38,-1558.5 269.38,-1577.75 382.88,-1577.75 382.88,-1558.5 269.38,-1558.5"/>
<text xml:space="preserve" text-anchor="middle" x="326.12" y="-1564.25" font-family="Helvetica,sans-Serif" font-size="10.00">ActivationFrameBuffer</text>
</a>
</g>
</g>
<!-- Node1&#45;&gt;Node6 -->
<g id="edge5" class="edge">
<title>Node1&#45;&gt;Node6</title>
<path fill="none" stroke="midnightblue" d="M177.55,-829.33C183.46,-944.55 213.9,-1492.32 261.5,-1549.12 264.54,-1552.75 268.23,-1555.7 272.3,-1558.1"/>
<polygon fill="midnightblue" stroke="midnightblue" points="181.06,-829.31 177.06,-819.5 174.07,-829.66 181.06,-829.31"/>
</g>
<!-- Node7 -->
<g id="node7" class="node">
<title>Node7</title>
<g id="a_node7"><a xlink:href="class_activity.html" target="_top" xlink:title=" ">
<polygon fill="white" stroke="black" points="301.62,-1520.5 301.62,-1539.75 350.62,-1539.75 350.62,-1520.5 301.62,-1520.5"/>
<text xml:space="preserve" text-anchor="middle" x="326.12" y="-1526.25" font-family="Helvetica,sans-Serif" font-size="10.00">Activity</text>
</a>
</g>
</g>
<!-- Node1&#45;&gt;Node7 -->
<g id="edge6" class="edge">
<title>Node1&#45;&gt;Node7</title>
<path fill="none" stroke="midnightblue" d="M176.06,-829C174.29,-934.08 171.55,-1404.43 261.5,-1511.12 271.23,-1522.67 287.67,-1527.38 301.39,-1529.22"/>
<polygon fill="midnightblue" stroke="midnightblue" points="179.56,-829.38 176.24,-819.32 172.56,-829.25 179.56,-829.38"/>
</g>
<!-- Node8 -->
<g id="node8" class="node">
<title>Node8</title>
<g id="a_node8"><a xlink:href="class_base_code.html" target="_top" xlink:title=" ">
<polygon fill="white" stroke="red" points="295.25,-1482.5 295.25,-1501.75 357,-1501.75 357,-1482.5 295.25,-1482.5"/>
<text xml:space="preserve" text-anchor="middle" x="326.12" y="-1488.25" font-family="Helvetica,sans-Serif" font-size="10.00">BaseCode</text>
</a>
</g>
</g>
<!-- Node1&#45;&gt;Node8 -->
<g id="edge7" class="edge">
<title>Node1&#45;&gt;Node8</title>
<path fill="none" stroke="midnightblue" d="M176.22,-829.47C175.31,-931.97 176.44,-1372.93 261.5,-1473.12 269.78,-1482.88 282.84,-1487.75 294.98,-1490.13"/>
<polygon fill="midnightblue" stroke="midnightblue" points="179.72,-829.78 176.33,-819.74 172.72,-829.7 179.72,-829.78"/>
</g>
<!-- Node21 -->
<g id="node11" class="node">
<title>Node21</title>
<g id="a_node11"><a xlink:href="class_command_handler.html" target="_top" xlink:title=" ">
<polygon fill="white" stroke="black" points="278.75,-1444.5 278.75,-1463.75 373.5,-1463.75 373.5,-1444.5 278.75,-1444.5"/>
<text xml:space="preserve" text-anchor="middle" x="326.12" y="-1450.25" font-family="Helvetica,sans-Serif" font-size="10.00">CommandHandler</text>
</a>
</g>
</g>
<!-- Node1&#45;&gt;Node21 -->
<g id="edge10" class="edge">
<title>Node1&#45;&gt;Node21</title>
<path fill="none" stroke="midnightblue" d="M176.4,-829.48C176.39,-928.4 181.2,-1341.26 261.5,-1435.12 266,-1440.38 271.88,-1444.22 278.25,-1447.01"/>
<polygon fill="midnightblue" stroke="midnightblue" points="179.9,-829.63 176.42,-819.62 172.9,-829.62 179.9,-829.63"/>
</g>
<!-- Node22 -->
<g id="node12" class="node">
<title>Node22</title>
<g id="a_node12"><a xlink:href="class_command_i_o_configuration.html" target="_top" xlink:title=" ">
<polygon fill="white" stroke="black" points="261.5,-1406.5 261.5,-1425.75 390.75,-1425.75 390.75,-1406.5 261.5,-1406.5"/>
<text xml:space="preserve" text-anchor="middle" x="326.12" y="-1412.25" font-family="Helvetica,sans-Serif" font-size="10.00">CommandIOConfiguration</text>
</a>
</g>
</g>
<!-- Node1&#45;&gt;Node22 -->
<g id="edge11" class="edge">
<title>Node1&#45;&gt;Node22</title>
<path fill="none" stroke="midnightblue" d="M176.61,-829.37C177.52,-924.39 185.91,-1309.53 261.5,-1397.12 264.59,-1400.7 268.32,-1403.62 272.41,-1406"/>
<polygon fill="midnightblue" stroke="midnightblue" points="180.11,-829.44 176.53,-819.46 173.11,-829.49 180.11,-829.44"/>
</g>
<!-- Node23 -->
<g id="node13" class="node">
<title>Node23</title>
<g id="a_node13"><a xlink:href="class_command_i_o_context.html" target="_top" xlink:title=" ">
<polygon fill="white" stroke="black" points="273.12,-1368.5 273.12,-1387.75 379.12,-1387.75 379.12,-1368.5 273.12,-1368.5"/>
<text xml:space="preserve" text-anchor="middle" x="326.12" y="-1374.25" font-family="Helvetica,sans-Serif" font-size="10.00">CommandIOContext</text>
</a>
</g>
</g>
<!-- Node1&#45;&gt;Node23 -->
<g id="edge12" class="edge">
<title>Node1&#45;&gt;Node23</title>
<path fill="none" stroke="midnightblue" d="M176.84,-829.44C178.74,-920.74 190.66,-1277.84 261.5,-1359.12 264.68,-1362.78 268.53,-1365.74 272.74,-1368.14"/>
<polygon fill="midnightblue" stroke="midnightblue" points="180.35,-829.62 176.66,-819.68 173.35,-829.75 180.35,-829.62"/>
</g>
<!-- Node24 -->
<g id="node14" class="node">
<title>Node24</title>
<g id="a_node14"><a xlink:href="class_do_block.html" target="_top" xlink:title=" ">
<polygon fill="white" stroke="black" points="299.38,-1330.5 299.38,-1349.75 352.88,-1349.75 352.88,-1330.5 299.38,-1330.5"/>
<text xml:space="preserve" text-anchor="middle" x="326.12" y="-1336.25" font-family="Helvetica,sans-Serif" font-size="10.00">DoBlock</text>
</a>
</g>
</g>
<!-- Node1&#45;&gt;Node24 -->
<g id="edge13" class="edge">
<title>Node1&#45;&gt;Node24</title>
<path fill="none" stroke="midnightblue" d="M177.11,-829.33C180.03,-916.49 195.36,-1246.08 261.5,-1321.12 270.88,-1331.76 285.93,-1336.56 299.04,-1338.68"/>
<polygon fill="midnightblue" stroke="midnightblue" points="180.61,-829.29 176.8,-819.41 173.61,-829.51 180.61,-829.29"/>
</g>
<!-- Node25 -->
<g id="node15" class="node">
<title>Node25</title>
<g id="a_node15"><a xlink:href="class_envelope.html" target="_top" xlink:title=" ">
<polygon fill="white" stroke="black" points="297.88,-1292.5 297.88,-1311.75 354.38,-1311.75 354.38,-1292.5 297.88,-1292.5"/>
<text xml:space="preserve" text-anchor="middle" x="326.12" y="-1298.25" font-family="Helvetica,sans-Serif" font-size="10.00">Envelope</text>
</a>
</g>
</g>
<!-- Node1&#45;&gt;Node25 -->
<g id="edge14" class="edge">
<title>Node1&#45;&gt;Node25</title>
<path fill="none" stroke="midnightblue" d="M177.42,-829.34C181.43,-912.39 200.06,-1214.32 261.5,-1283.12 270.56,-1293.27 284.79,-1298.1 297.49,-1300.36"/>
<polygon fill="midnightblue" stroke="midnightblue" points="180.92,-829.3 176.96,-819.47 173.93,-829.62 180.92,-829.3"/>
</g>
<!-- Node26 -->
<g id="node16" class="node">
<title>Node26</title>
<g id="a_node16"><a xlink:href="class_hash_contents.html" target="_top" xlink:title=" ">
<polygon fill="white" stroke="red" points="286.62,-1254.5 286.62,-1273.75 365.62,-1273.75 365.62,-1254.5 286.62,-1254.5"/>
<text xml:space="preserve" text-anchor="middle" x="326.12" y="-1260.25" font-family="Helvetica,sans-Serif" font-size="10.00">HashContents</text>
</a>
</g>
</g>
<!-- Node1&#45;&gt;Node26 -->
<g id="edge15" class="edge">
<title>Node1&#45;&gt;Node26</title>
<path fill="none" stroke="midnightblue" d="M177.76,-829.14C182.9,-907.65 204.71,-1182.47 261.5,-1245.12 268,-1252.3 277.09,-1256.81 286.36,-1259.64"/>
<polygon fill="midnightblue" stroke="midnightblue" points="181.27,-829.19 177.15,-819.43 174.29,-829.63 181.27,-829.19"/>
</g>
<!-- Node31 -->
<g id="node17" class="node">
<title>Node31</title>
<g id="a_node17"><a xlink:href="class_input_redirector.html" target="_top" xlink:title=" ">
<polygon fill="white" stroke="red" points="284.75,-1216.5 284.75,-1235.75 367.5,-1235.75 367.5,-1216.5 284.75,-1216.5"/>
<text xml:space="preserve" text-anchor="middle" x="326.12" y="-1222.25" font-family="Helvetica,sans-Serif" font-size="10.00">InputRedirector</text>
</a>
</g>
</g>
<!-- Node1&#45;&gt;Node31 -->
<g id="edge16" class="edge">
<title>Node1&#45;&gt;Node31</title>
<path fill="none" stroke="midnightblue" d="M178.19,-829.2C184.56,-903.34 209.4,-1150.66 261.5,-1207.12 267.6,-1213.73 275.89,-1218.08 284.46,-1220.93"/>
<polygon fill="midnightblue" stroke="midnightblue" points="181.72,-829.33 177.4,-819.65 174.74,-829.91 181.72,-829.33"/>
</g>
<!-- Node36 -->
<g id="node18" class="node">
<title>Node36</title>
<g id="a_node18"><a xlink:href="class_internal_stack.html" target="_top" xlink:title=" ">
<polygon fill="white" stroke="black" points="289.25,-1178.5 289.25,-1197.75 363,-1197.75 363,-1178.5 289.25,-1178.5"/>
<text xml:space="preserve" text-anchor="middle" x="326.12" y="-1184.25" font-family="Helvetica,sans-Serif" font-size="10.00">InternalStack</text>
</a>
</g>
</g>
<!-- Node1&#45;&gt;Node36 -->
<g id="edge17" class="edge">
<title>Node1&#45;&gt;Node36</title>
<path fill="none" stroke="midnightblue" d="M178.73,-829.41C186.43,-899.1 214.1,-1118.84 261.5,-1169.12 268.7,-1176.76 278.82,-1181.37 288.87,-1184.13"/>
<polygon fill="midnightblue" stroke="midnightblue" points="182.23,-829.29 177.68,-819.72 175.28,-830.04 182.23,-829.29"/>
</g>
<!-- Node37 -->
<g id="node19" class="node">
<title>Node37</title>
<g id="a_node19"><a xlink:href="class_interpreter_instance.html" target="_top" xlink:title=" ">
<polygon fill="white" stroke="black" points="277.25,-1140.5 277.25,-1159.75 375,-1159.75 375,-1140.5 277.25,-1140.5"/>
<text xml:space="preserve" text-anchor="middle" x="326.12" y="-1146.25" font-family="Helvetica,sans-Serif" font-size="10.00">InterpreterInstance</text>
</a>
</g>
</g>
<!-- Node1&#45;&gt;Node37 -->
<g id="edge18" class="edge">
<title>Node1&#45;&gt;Node37</title>
<path fill="none" stroke="midnightblue" d="M179.34,-829.24C188.42,-893.81 218.69,-1086.88 261.5,-1131.12 265.83,-1135.6 271.16,-1139.03 276.88,-1141.66"/>
<polygon fill="midnightblue" stroke="midnightblue" points="182.84,-829.05 178.01,-819.62 175.91,-830.01 182.84,-829.05"/>
</g>
<!-- Node38 -->
<g id="node20" class="node">
<title>Node38</title>
<g id="a_node20"><a xlink:href="class_language_parser.html" target="_top" xlink:title=" ">
<polygon fill="white" stroke="black" points="282.88,-1102.5 282.88,-1121.75 369.38,-1121.75 369.38,-1102.5 282.88,-1102.5"/>
<text xml:space="preserve" text-anchor="middle" x="326.12" y="-1108.25" font-family="Helvetica,sans-Serif" font-size="10.00">LanguageParser</text>
</a>
</g>
</g>
<!-- Node1&#45;&gt;Node38 -->
<g id="edge19" class="edge">
<title>Node1&#45;&gt;Node38</title>
<path fill="none" stroke="midnightblue" d="M176.38,-829.61C177.3,-882.24 187.13,-1018.73 261.5,-1093.12 267.29,-1098.91 274.76,-1102.95 282.53,-1105.77"/>
<polygon fill="midnightblue" stroke="midnightblue" points="179.88,-829.62 176.32,-819.64 172.88,-829.66 179.88,-829.62"/>
</g>
<!-- Node39 -->
<g id="node21" class="node">
<title>Node39</title>
<g id="a_node21"><a xlink:href="class_library_package.html" target="_top" xlink:title=" ">
<polygon fill="white" stroke="black" points="284.38,-1064.5 284.38,-1083.75 367.88,-1083.75 367.88,-1064.5 284.38,-1064.5"/>
<text xml:space="preserve" text-anchor="middle" x="326.12" y="-1070.25" font-family="Helvetica,sans-Serif" font-size="10.00">LibraryPackage</text>
</a>
</g>
</g>
<!-- Node1&#45;&gt;Node39 -->
<g id="edge20" class="edge">
<title>Node1&#45;&gt;Node39</title>
<path fill="none" stroke="midnightblue" d="M177.52,-829.29C180.97,-876.72 196.01,-992.28 261.5,-1055.12 267.74,-1061.11 275.78,-1065.22 284.04,-1068.04"/>
<polygon fill="midnightblue" stroke="midnightblue" points="181.03,-829.33 176.93,-819.57 174.04,-829.76 181.03,-829.33"/>
</g>
<!-- Node40 -->
<g id="node22" class="node">
<title>Node40</title>
<g id="a_node22"><a xlink:href="class_list_contents.html" target="_top" xlink:title=" ">
<polygon fill="white" stroke="black" points="290.38,-1026.5 290.38,-1045.75 361.88,-1045.75 361.88,-1026.5 290.38,-1026.5"/>
<text xml:space="preserve" text-anchor="middle" x="326.12" y="-1032.25" font-family="Helvetica,sans-Serif" font-size="10.00">ListContents</text>
</a>
</g>
</g>
<!-- Node1&#45;&gt;Node40 -->
<g id="edge21" class="edge">
<title>Node1&#45;&gt;Node40</title>
<path fill="none" stroke="midnightblue" d="M179.06,-829.42C185.27,-871.54 205,-965.81 261.5,-1017.12 269.35,-1024.26 279.78,-1028.72 289.91,-1031.5"/>
<polygon fill="midnightblue" stroke="midnightblue" points="182.55,-829.08 177.75,-819.63 175.61,-830.01 182.55,-829.08"/>
</g>
<!-- Node41 -->
<g id="node23" class="node">
<title>Node41</title>
<g id="a_node23"><a xlink:href="class_map_bucket.html" target="_top" xlink:title=" ">
<polygon fill="white" stroke="black" points="293.38,-988.5 293.38,-1007.75 358.88,-1007.75 358.88,-988.5 293.38,-988.5"/>
<text xml:space="preserve" text-anchor="middle" x="326.12" y="-994.25" font-family="Helvetica,sans-Serif" font-size="10.00">MapBucket</text>
</a>
</g>
</g>
<!-- Node1&#45;&gt;Node41 -->
<g id="edge22" class="edge">
<title>Node1&#45;&gt;Node41</title>
<path fill="none" stroke="midnightblue" d="M181.11,-828.98C190.14,-864.99 213.63,-938.82 261.5,-979.12 270.41,-986.62 282.19,-991.16 293.19,-993.91"/>
<polygon fill="midnightblue" stroke="midnightblue" points="184.55,-828.34 178.84,-819.41 177.74,-829.95 184.55,-828.34"/>
</g>
<!-- Node42 -->
<g id="node24" class="node">
<title>Node42</title>
<g id="a_node24"><a xlink:href="class_map_table.html" target="_top" xlink:title=" ">
<polygon fill="white" stroke="black" points="297.12,-950.5 297.12,-969.75 355.12,-969.75 355.12,-950.5 297.12,-950.5"/>
<text xml:space="preserve" text-anchor="middle" x="326.12" y="-956.25" font-family="Helvetica,sans-Serif" font-size="10.00">MapTable</text>
</a>
</g>
</g>
<!-- Node1&#45;&gt;Node42 -->
<g id="edge23" class="edge">
<title>Node1&#45;&gt;Node42</title>
<path fill="none" stroke="midnightblue" d="M184.25,-828.82C196.3,-858.16 222.27,-911.54 261.5,-941.12 271.72,-948.83 285.04,-953.43 296.84,-956.16"/>
<polygon fill="midnightblue" stroke="midnightblue" points="187.54,-827.62 180.63,-819.6 181.03,-830.19 187.54,-827.62"/>
</g>
<!-- Node43 -->
<g id="node25" class="node">
<title>Node43</title>
<g id="a_node25"><a xlink:href="class_memory_object.html" target="_top" xlink:title=" ">
<polygon fill="white" stroke="black" points="286.25,-912.5 286.25,-931.75 366,-931.75 366,-912.5 286.25,-912.5"/>
<text xml:space="preserve" text-anchor="middle" x="326.12" y="-918.25" font-family="Helvetica,sans-Serif" font-size="10.00">MemoryObject</text>
</a>
</g>
</g>
<!-- Node1&#45;&gt;Node43 -->
<g id="edge24" class="edge">
<title>Node1&#45;&gt;Node43</title>
<path fill="none" stroke="midnightblue" d="M188.94,-827.52C203.72,-849.04 230.35,-883.35 261.5,-903.12 268.9,-907.82 277.51,-911.4 285.96,-914.12"/>
<polygon fill="midnightblue" stroke="midnightblue" points="191.96,-825.74 183.5,-819.35 186.13,-829.62 191.96,-825.74"/>
</g>
<!-- Node44 -->
<g id="node26" class="node">
<title>Node44</title>
<g id="a_node26"><a xlink:href="class_number_array.html" target="_top" xlink:title=" ">
<polygon fill="white" stroke="black" points="289.25,-874.5 289.25,-893.75 363,-893.75 363,-874.5 289.25,-874.5"/>
<text xml:space="preserve" text-anchor="middle" x="326.12" y="-880.25" font-family="Helvetica,sans-Serif" font-size="10.00">NumberArray</text>
</a>
</g>
</g>
<!-- Node1&#45;&gt;Node44 -->
<g id="edge25" class="edge">
<title>Node1&#45;&gt;Node44</title>
<path fill="none" stroke="midnightblue" d="M197.57,-824.88C214.15,-837.4 238.26,-854.17 261.5,-865.12 270.05,-869.16 279.65,-872.55 288.75,-875.31"/>
<polygon fill="midnightblue" stroke="midnightblue" points="200,-822.34 189.94,-819.01 195.73,-827.88 200,-822.34"/>
</g>
<!-- Node45 -->
<g id="node27" class="node">
<title>Node45</title>
<g id="a_node27"><a xlink:href="class_output_redirector.html" target="_top" xlink:title=" ">
<polygon fill="white" stroke="red" points="281,-836.5 281,-855.75 371.25,-855.75 371.25,-836.5 281,-836.5"/>
<text xml:space="preserve" text-anchor="middle" x="326.12" y="-842.25" font-family="Helvetica,sans-Serif" font-size="10.00">OutputRedirector</text>
</a>
</g>
</g>
<!-- Node1&#45;&gt;Node45 -->
<g id="edge26" class="edge">
<title>Node1&#45;&gt;Node45</title>
<path fill="none" stroke="midnightblue" d="M226.93,-821.02C246.14,-825.93 267.73,-831.45 285.76,-836.06"/>
<polygon fill="midnightblue" stroke="midnightblue" points="227.96,-817.67 217.4,-818.58 226.23,-824.45 227.96,-817.67"/>
</g>
<!-- Node52 -->
<g id="node28" class="node">
<title>Node52</title>
<g id="a_node28"><a xlink:href="class_parse_trigger.html" target="_top" xlink:title=" ">
<polygon fill="white" stroke="black" points="290.38,-798.5 290.38,-817.75 361.88,-817.75 361.88,-798.5 290.38,-798.5"/>
<text xml:space="preserve" text-anchor="middle" x="326.12" y="-804.25" font-family="Helvetica,sans-Serif" font-size="10.00">ParseTrigger</text>
</a>
</g>
</g>
<!-- Node1&#45;&gt;Node52 -->
<g id="edge27" class="edge">
<title>Node1&#45;&gt;Node52</title>
<path fill="none" stroke="midnightblue" d="M237.27,-808.12C255.19,-808.12 274.2,-808.12 289.94,-808.12"/>
<polygon fill="midnightblue" stroke="midnightblue" points="237.5,-804.63 227.5,-808.13 237.5,-811.63 237.5,-804.63"/>
</g>
<!-- Node53 -->
<g id="node29" class="node">
<title>Node53</title>
<g id="a_node29"><a xlink:href="class_pointer_bucket.html" target="_top" xlink:title=" ">
<polygon fill="white" stroke="black" points="287.38,-760.5 287.38,-779.75 364.88,-779.75 364.88,-760.5 287.38,-760.5"/>
<text xml:space="preserve" text-anchor="middle" x="326.12" y="-766.25" font-family="Helvetica,sans-Serif" font-size="10.00">PointerBucket</text>
</a>
</g>
</g>
<!-- Node1&#45;&gt;Node53 -->
<g id="edge28" class="edge">
<title>Node1&#45;&gt;Node53</title>
<path fill="none" stroke="midnightblue" d="M226.88,-795.24C246.56,-790.21 268.74,-784.54 287.04,-779.86"/>
<polygon fill="midnightblue" stroke="midnightblue" points="226.23,-791.8 217.4,-797.67 227.96,-798.58 226.23,-791.8"/>
</g>
<!-- Node54 -->
<g id="node30" class="node">
<title>Node54</title>
<g id="a_node30"><a xlink:href="class_pointer_table.html" target="_top" xlink:title=" ">
<polygon fill="white" stroke="black" points="291.12,-722.5 291.12,-741.75 361.12,-741.75 361.12,-722.5 291.12,-722.5"/>
<text xml:space="preserve" text-anchor="middle" x="326.12" y="-728.25" font-family="Helvetica,sans-Serif" font-size="10.00">PointerTable</text>
</a>
</g>
</g>
<!-- Node1&#45;&gt;Node54 -->
<g id="edge29" class="edge">
<title>Node1&#45;&gt;Node54</title>
<path fill="none" stroke="midnightblue" d="M197.57,-791.37C214.15,-778.85 238.26,-762.08 261.5,-751.12 270.68,-746.8 281.06,-743.2 290.74,-740.35"/>
<polygon fill="midnightblue" stroke="midnightblue" points="195.73,-788.37 189.94,-797.24 200,-793.91 195.73,-788.37"/>
</g>
<!-- Node55 -->
<g id="node31" class="node">
<title>Node55</title>
<g id="a_node31"><a xlink:href="class_program_source.html" target="_top" xlink:title=" ">
<polygon fill="white" stroke="red" points="284.38,-684.5 284.38,-703.75 367.88,-703.75 367.88,-684.5 284.38,-684.5"/>
<text xml:space="preserve" text-anchor="middle" x="326.12" y="-690.25" font-family="Helvetica,sans-Serif" font-size="10.00">ProgramSource</text>
</a>
</g>
</g>
<!-- Node1&#45;&gt;Node55 -->
<g id="edge30" class="edge">
<title>Node1&#45;&gt;Node55</title>
<path fill="none" stroke="midnightblue" d="M188.94,-788.73C203.72,-767.21 230.35,-732.9 261.5,-713.12 268.31,-708.8 276.16,-705.42 283.96,-702.79"/>
<polygon fill="midnightblue" stroke="midnightblue" points="186.13,-786.63 183.5,-796.9 191.96,-790.51 186.13,-786.63"/>
</g>
<!-- Node59 -->
<g id="node32" class="node">
<title>Node59</title>
<g id="a_node32"><a xlink:href="class_push_through_stack.html" target="_top" xlink:title=" ">
<polygon fill="white" stroke="black" points="276.5,-646.5 276.5,-665.75 375.75,-665.75 375.75,-646.5 276.5,-646.5"/>
<text xml:space="preserve" text-anchor="middle" x="326.12" y="-652.25" font-family="Helvetica,sans-Serif" font-size="10.00">PushThroughStack</text>
</a>
</g>
</g>
<!-- Node1&#45;&gt;Node59 -->
<g id="edge31" class="edge">
<title>Node1&#45;&gt;Node59</title>
<path fill="none" stroke="midnightblue" d="M184.25,-787.43C196.3,-758.09 222.27,-704.71 261.5,-675.12 266.29,-671.52 271.75,-668.59 277.43,-666.22"/>
<polygon fill="midnightblue" stroke="midnightblue" points="181.03,-786.06 180.63,-796.65 187.54,-788.63 181.03,-786.06"/>
</g>
<!-- Node60 -->
<g id="node33" class="node">
<title>Node60</title>
<g id="a_node33"><a xlink:href="class_qualified_function.html" target="_top" xlink:title=" ">
<polygon fill="white" stroke="black" points="280.25,-608.5 280.25,-627.75 372,-627.75 372,-608.5 280.25,-608.5"/>
<text xml:space="preserve" text-anchor="middle" x="326.12" y="-614.25" font-family="Helvetica,sans-Serif" font-size="10.00">QualifiedFunction</text>
</a>
</g>
</g>
<!-- Node1&#45;&gt;Node60 -->
<g id="edge32" class="edge">
<title>Node1&#45;&gt;Node60</title>
<path fill="none" stroke="midnightblue" d="M181.11,-787.27C190.14,-751.26 213.63,-677.43 261.5,-637.12 266.88,-632.6 273.31,-629.15 279.98,-626.52"/>
<polygon fill="midnightblue" stroke="midnightblue" points="177.74,-786.3 178.84,-796.84 184.55,-787.91 177.74,-786.3"/>
</g>
<!-- Node61 -->
<g id="node34" class="node">
<title>Node61</title>
<g id="a_node34"><a xlink:href="class_rexx_behaviour.html" target="_top" xlink:title=" ">
<polygon fill="white" stroke="black" points="284.75,-570.5 284.75,-589.75 367.5,-589.75 367.5,-570.5 284.75,-570.5"/>
<text xml:space="preserve" text-anchor="middle" x="326.12" y="-576.25" font-family="Helvetica,sans-Serif" font-size="10.00">RexxBehaviour</text>
</a>
</g>
</g>
<!-- Node1&#45;&gt;Node61 -->
<g id="edge33" class="edge">
<title>Node1&#45;&gt;Node61</title>
<path fill="none" stroke="midnightblue" d="M179.06,-786.83C185.27,-744.71 205,-650.44 261.5,-599.12 267.9,-593.31 276.01,-589.27 284.28,-586.47"/>
<polygon fill="midnightblue" stroke="midnightblue" points="175.61,-786.24 177.75,-796.62 182.55,-787.17 175.61,-786.24"/>
</g>
<!-- Node62 -->
<g id="node35" class="node">
<title>Node62</title>
<g id="a_node35"><a xlink:href="class_rexx_clause.html" target="_top" xlink:title=" ">
<polygon fill="white" stroke="black" points="291.12,-532.5 291.12,-551.75 361.12,-551.75 361.12,-532.5 291.12,-532.5"/>
<text xml:space="preserve" text-anchor="middle" x="326.12" y="-538.25" font-family="Helvetica,sans-Serif" font-size="10.00">RexxClause</text>
</a>
</g>
</g>
<!-- Node1&#45;&gt;Node62 -->
<g id="edge34" class="edge">
<title>Node1&#45;&gt;Node62</title>
<path fill="none" stroke="midnightblue" d="M177.52,-786.96C180.97,-739.53 196.01,-623.97 261.5,-561.12 269.4,-553.54 280.2,-548.97 290.66,-546.22"/>
<polygon fill="midnightblue" stroke="midnightblue" points="174.04,-786.49 176.93,-796.68 181.03,-786.92 174.04,-786.49"/>
</g>
<!-- Node63 -->
<g id="node36" class="node">
<title>Node63</title>
<g id="a_node36"><a xlink:href="class_rexx_expression_function.html" target="_top" xlink:title=" ">
<polygon fill="white" stroke="black" points="263.38,-494.5 263.38,-513.75 388.88,-513.75 388.88,-494.5 263.38,-494.5"/>
<text xml:space="preserve" text-anchor="middle" x="326.12" y="-500.25" font-family="Helvetica,sans-Serif" font-size="10.00">RexxExpressionFunction</text>
</a>
</g>
</g>
<!-- Node1&#45;&gt;Node63 -->
<g id="edge35" class="edge">
<title>Node1&#45;&gt;Node63</title>
<path fill="none" stroke="midnightblue" d="M176.38,-786.64C177.3,-734.01 187.13,-597.52 261.5,-523.12 265.17,-519.46 269.51,-516.49 274.18,-514.09"/>
<polygon fill="midnightblue" stroke="midnightblue" points="172.88,-786.59 176.32,-796.61 179.88,-786.63 172.88,-786.59"/>
</g>
<!-- Node64 -->
<g id="node37" class="node">
<title>Node64</title>
<g id="a_node37"><a xlink:href="class_rexx_expression_list.html" target="_top" xlink:title=" ">
<polygon fill="white" stroke="black" points="274.25,-456.5 274.25,-475.75 378,-475.75 378,-456.5 274.25,-456.5"/>
<text xml:space="preserve" text-anchor="middle" x="326.12" y="-462.25" font-family="Helvetica,sans-Serif" font-size="10.00">RexxExpressionList</text>
</a>
</g>
</g>
<!-- Node1&#45;&gt;Node64 -->
<g id="edge36" class="edge">
<title>Node1&#45;&gt;Node64</title>
<path fill="none" stroke="midnightblue" d="M179.34,-787.01C188.42,-722.44 218.69,-529.37 261.5,-485.12 265.11,-481.4 269.41,-478.39 274.06,-475.97"/>
<polygon fill="midnightblue" stroke="midnightblue" points="175.91,-786.24 178.01,-796.63 182.84,-787.2 175.91,-786.24"/>
</g>
<!-- Node65 -->
<g id="node38" class="node">
<title>Node65</title>
<g id="a_node38"><a xlink:href="class_rexx_expression_logical.html" target="_top" xlink:title=" ">
<polygon fill="white" stroke="black" points="266.75,-418.5 266.75,-437.75 385.5,-437.75 385.5,-418.5 266.75,-418.5"/>
<text xml:space="preserve" text-anchor="middle" x="326.12" y="-424.25" font-family="Helvetica,sans-Serif" font-size="10.00">RexxExpressionLogical</text>
</a>
</g>
</g>
<!-- Node1&#45;&gt;Node65 -->
<g id="edge37" class="edge">
<title>Node1&#45;&gt;Node65</title>
<path fill="none" stroke="midnightblue" d="M178.73,-786.84C186.43,-717.15 214.1,-497.41 261.5,-447.12 264.9,-443.52 268.95,-440.59 273.34,-438.21"/>
<polygon fill="midnightblue" stroke="midnightblue" points="175.28,-786.21 177.68,-796.53 182.23,-786.96 175.28,-786.21"/>
</g>
<!-- Node66 -->
<g id="node39" class="node">
<title>Node66</title>
<g id="a_node39"><a xlink:href="class_rexx_expression_operator.html" target="_top" xlink:title=" ">
<polygon fill="white" stroke="red" points="263.38,-380.5 263.38,-399.75 388.88,-399.75 388.88,-380.5 263.38,-380.5"/>
<text xml:space="preserve" text-anchor="middle" x="326.12" y="-386.25" font-family="Helvetica,sans-Serif" font-size="10.00">RexxExpressionOperator</text>
</a>
</g>
</g>
<!-- Node1&#45;&gt;Node66 -->
<g id="edge38" class="edge">
<title>Node1&#45;&gt;Node66</title>
<path fill="none" stroke="midnightblue" d="M178.19,-787.05C184.56,-712.91 209.4,-465.59 261.5,-409.12 264.86,-405.48 268.89,-402.53 273.26,-400.13"/>
<polygon fill="midnightblue" stroke="midnightblue" points="174.74,-786.34 177.4,-796.6 181.72,-786.92 174.74,-786.34"/>
</g>
<!-- Node69 -->
<g id="node40" class="node">
<title>Node69</title>
<g id="a_node40"><a xlink:href="class_rexx_instruction.html" target="_top" xlink:title=" ">
<polygon fill="white" stroke="red" points="283.62,-342.5 283.62,-361.75 368.62,-361.75 368.62,-342.5 283.62,-342.5"/>
<text xml:space="preserve" text-anchor="middle" x="326.12" y="-348.25" font-family="Helvetica,sans-Serif" font-size="10.00">RexxInstruction</text>
</a>
</g>
</g>
<!-- Node1&#45;&gt;Node69 -->
<g id="edge39" class="edge">
<title>Node1&#45;&gt;Node69</title>
<path fill="none" stroke="midnightblue" d="M177.76,-787.11C182.9,-708.6 204.71,-433.78 261.5,-371.12 267.31,-364.72 275.17,-360.44 283.39,-357.58"/>
<polygon fill="midnightblue" stroke="midnightblue" points="174.29,-786.62 177.15,-796.82 181.27,-787.06 174.29,-786.62"/>
</g>
<!-- Node147 -->
<g id="node41" class="node">
<title>Node147</title>
<g id="a_node41"><a xlink:href="class_rexx_object.html" target="_top" xlink:title=" ">
<polygon fill="white" stroke="red" points="292.25,-304.5 292.25,-323.75 360,-323.75 360,-304.5 292.25,-304.5"/>
<text xml:space="preserve" text-anchor="middle" x="326.12" y="-310.25" font-family="Helvetica,sans-Serif" font-size="10.00">RexxObject</text>
</a>
</g>
</g>
<!-- Node1&#45;&gt;Node147 -->
<g id="edge40" class="edge">
<title>Node1&#45;&gt;Node147</title>
<path fill="none" stroke="midnightblue" d="M177.42,-786.91C181.43,-703.86 200.06,-401.93 261.5,-333.12 269.25,-324.44 280.79,-319.65 291.92,-317.03"/>
<polygon fill="midnightblue" stroke="midnightblue" points="173.93,-786.63 176.96,-796.78 180.92,-786.95 173.93,-786.63"/>
</g>
<!-- Node189 -->
<g id="node42" class="node">
<title>Node189</title>
<g id="a_node42"><a xlink:href="class_rexx_token.html" target="_top" xlink:title=" ">
<polygon fill="white" stroke="black" points="293.38,-266.5 293.38,-285.75 358.88,-285.75 358.88,-266.5 293.38,-266.5"/>
<text xml:space="preserve" text-anchor="middle" x="326.12" y="-272.25" font-family="Helvetica,sans-Serif" font-size="10.00">RexxToken</text>
</a>
</g>
</g>
<!-- Node1&#45;&gt;Node189 -->
<g id="edge41" class="edge">
<title>Node1&#45;&gt;Node189</title>
<path fill="none" stroke="midnightblue" d="M177.11,-786.92C180.03,-699.76 195.36,-370.17 261.5,-295.12 269.5,-286.04 281.64,-281.22 293.18,-278.68"/>
<polygon fill="midnightblue" stroke="midnightblue" points="173.61,-786.74 176.8,-796.84 180.61,-786.96 173.61,-786.74"/>
</g>
<!-- Node190 -->
<g id="node43" class="node">
<title>Node190</title>
<g id="a_node43"><a xlink:href="class_rexx_variable.html" target="_top" xlink:title=" ">
<polygon fill="white" stroke="red" points="289.25,-228.5 289.25,-247.75 363,-247.75 363,-228.5 289.25,-228.5"/>
<text xml:space="preserve" text-anchor="middle" x="326.12" y="-234.25" font-family="Helvetica,sans-Serif" font-size="10.00">RexxVariable</text>
</a>
</g>
</g>
<!-- Node1&#45;&gt;Node190 -->
<g id="edge42" class="edge">
<title>Node1&#45;&gt;Node190</title>
<path fill="none" stroke="midnightblue" d="M176.84,-786.81C178.74,-695.51 190.66,-338.41 261.5,-257.12 268.47,-249.13 278.64,-244.43 288.82,-241.68"/>
<polygon fill="midnightblue" stroke="midnightblue" points="173.35,-786.5 176.66,-796.57 180.35,-786.63 173.35,-786.5"/>
</g>
<!-- Node192 -->
<g id="node44" class="node">
<title>Node192</title>
<g id="a_node44"><a xlink:href="class_rexx_variable_base.html" target="_top" xlink:title=" ">
<polygon fill="white" stroke="red" points="278,-190.5 278,-209.75 374.25,-209.75 374.25,-190.5 278,-190.5"/>
<text xml:space="preserve" text-anchor="middle" x="326.12" y="-196.25" font-family="Helvetica,sans-Serif" font-size="10.00">RexxVariableBase</text>
</a>
</g>
</g>
<!-- Node1&#45;&gt;Node192 -->
<g id="edge43" class="edge">
<title>Node1&#45;&gt;Node192</title>
<path fill="none" stroke="midnightblue" d="M176.61,-786.88C177.52,-691.86 185.91,-306.72 261.5,-219.12 265.87,-214.06 271.52,-210.32 277.66,-207.56"/>
<polygon fill="midnightblue" stroke="midnightblue" points="173.11,-786.76 176.53,-796.79 180.11,-786.81 173.11,-786.76"/>
</g>
<!-- Node202 -->
<g id="node45" class="node">
<title>Node202</title>
<g id="a_node45"><a xlink:href="class_security_manager.html" target="_top" xlink:title=" ">
<polygon fill="white" stroke="black" points="281.38,-152.5 281.38,-171.75 370.88,-171.75 370.88,-152.5 281.38,-152.5"/>
<text xml:space="preserve" text-anchor="middle" x="326.12" y="-158.25" font-family="Helvetica,sans-Serif" font-size="10.00">SecurityManager</text>
</a>
</g>
</g>
<!-- Node1&#45;&gt;Node202 -->
<g id="edge44" class="edge">
<title>Node1&#45;&gt;Node202</title>
<path fill="none" stroke="midnightblue" d="M176.4,-786.77C176.39,-687.85 181.2,-274.99 261.5,-181.12 266.67,-175.08 273.68,-170.91 281.15,-168.05"/>
<polygon fill="midnightblue" stroke="midnightblue" points="172.9,-786.63 176.42,-796.63 179.9,-786.62 172.9,-786.63"/>
</g>
<!-- Node203 -->
<g id="node46" class="node">
<title>Node203</title>
<g id="a_node46"><a xlink:href="class_smart_buffer.html" target="_top" xlink:title=" ">
<polygon fill="white" stroke="black" points="291.88,-114.5 291.88,-133.75 360.38,-133.75 360.38,-114.5 291.88,-114.5"/>
<text xml:space="preserve" text-anchor="middle" x="326.12" y="-120.25" font-family="Helvetica,sans-Serif" font-size="10.00">SmartBuffer</text>
</a>
</g>
</g>
<!-- Node1&#45;&gt;Node203 -->
<g id="edge45" class="edge">
<title>Node1&#45;&gt;Node203</title>
<path fill="none" stroke="midnightblue" d="M176.22,-786.78C175.31,-684.28 176.44,-243.32 261.5,-143.12 269.04,-134.25 280.53,-129.42 291.68,-126.82"/>
<polygon fill="midnightblue" stroke="midnightblue" points="172.72,-786.55 176.33,-796.51 179.72,-786.47 172.72,-786.55"/>
</g>
<!-- Node204 -->
<g id="node47" class="node">
<title>Node204</title>
<g id="a_node47"><a xlink:href="class_trap_handler.html" target="_top" xlink:title=" ">
<polygon fill="white" stroke="black" points="291.5,-76.5 291.5,-95.75 360.75,-95.75 360.75,-76.5 291.5,-76.5"/>
<text xml:space="preserve" text-anchor="middle" x="326.12" y="-82.25" font-family="Helvetica,sans-Serif" font-size="10.00">TrapHandler</text>
</a>
</g>
</g>
<!-- Node1&#45;&gt;Node204 -->
<g id="edge46" class="edge">
<title>Node1&#45;&gt;Node204</title>
<path fill="none" stroke="midnightblue" d="M176.06,-787.25C174.29,-682.17 171.55,-211.82 261.5,-105.12 268.93,-96.31 280.26,-91.48 291.32,-88.87"/>
<polygon fill="midnightblue" stroke="midnightblue" points="172.56,-787 176.24,-796.93 179.56,-786.87 172.56,-787"/>
</g>
<!-- Node205 -->
<g id="node48" class="node">
<title>Node205</title>
<g id="a_node48"><a xlink:href="class_variable_dictionary.html" target="_top" xlink:title=" ">
<polygon fill="white" stroke="black" points="278.75,-38.5 278.75,-57.75 373.5,-57.75 373.5,-38.5 278.75,-38.5"/>
<text xml:space="preserve" text-anchor="middle" x="326.12" y="-44.25" font-family="Helvetica,sans-Serif" font-size="10.00">VariableDictionary</text>
</a>
</g>
</g>
<!-- Node1&#45;&gt;Node205 -->
<g id="edge47" class="edge">
<title>Node1&#45;&gt;Node205</title>
<path fill="none" stroke="midnightblue" d="M177.55,-786.92C183.46,-671.7 213.9,-123.93 261.5,-67.12 266.02,-61.73 271.99,-57.83 278.48,-55.02"/>
<polygon fill="midnightblue" stroke="midnightblue" points="174.07,-786.59 177.06,-796.75 181.06,-786.94 174.07,-786.59"/>
</g>
<!-- Node206 -->
<g id="node49" class="node">
<title>Node206</title>
<g id="a_node49"><a xlink:href="class_variable_reference_op.html" target="_top" xlink:title=" ">
<polygon fill="white" stroke="black" points="272,-0.5 272,-19.75 380.25,-19.75 380.25,-0.5 272,-0.5"/>
<text xml:space="preserve" text-anchor="middle" x="326.12" y="-6.25" font-family="Helvetica,sans-Serif" font-size="10.00">VariableReferenceOp</text>
</a>
</g>
</g>
<!-- Node1&#45;&gt;Node206 -->
<g id="edge48" class="edge">
<title>Node1&#45;&gt;Node206</title>
<path fill="none" stroke="midnightblue" d="M177.44,-786.58C182.87,-667.11 211.56,-89.07 261.5,-29.12 264.53,-25.49 268.21,-22.54 272.28,-20.14"/>
<polygon fill="midnightblue" stroke="midnightblue" points="173.95,-786.38 177,-796.52 180.94,-786.69 173.95,-786.38"/>
</g>
<!-- Node2 -->
<g id="node2" class="node">
<title>Node2</title>
<g id="a_node2"><a xlink:href="class_rexx_virtual_base.html" target="_top" xlink:title=" ">
<polygon fill="white" stroke="black" points="0,-798.5 0,-817.75 89.5,-817.75 89.5,-798.5 0,-798.5"/>
<text xml:space="preserve" text-anchor="middle" x="44.75" y="-804.25" font-family="Helvetica,sans-Serif" font-size="10.00">RexxVirtualBase</text>
</a>
</g>
</g>
<!-- Node2&#45;&gt;Node1 -->
<g id="edge1" class="edge">
<title>Node2&#45;&gt;Node1</title>
<path fill="none" stroke="midnightblue" d="M101.13,-808.12C109.07,-808.12 117.19,-808.12 125,-808.12"/>
<polygon fill="midnightblue" stroke="midnightblue" points="101.21,-804.63 91.21,-808.13 101.21,-811.63 101.21,-804.63"/>
</g>
<!-- Node4 -->
<g id="node4" class="node">
<title>Node4</title>
<g id="a_node4"><a xlink:href="class_native_activation.html" target="_top" xlink:title=" ">
<polygon fill="white" stroke="black" points="434.25,-1605.5 434.25,-1624.75 522.25,-1624.75 522.25,-1605.5 434.25,-1605.5"/>
<text xml:space="preserve" text-anchor="middle" x="478.25" y="-1611.25" font-family="Helvetica,sans-Serif" font-size="10.00">NativeActivation</text>
</a>
</g>
</g>
<!-- Node3&#45;&gt;Node4 -->
<g id="edge3" class="edge">
<title>Node3&#45;&gt;Node4</title>
<path fill="none" stroke="midnightblue" d="M378.84,-1609.23C396.82,-1610.3 416.79,-1611.5 434.01,-1612.53"/>
<polygon fill="midnightblue" stroke="midnightblue" points="379.06,-1605.73 368.87,-1608.63 378.64,-1612.72 379.06,-1605.73"/>
</g>
<!-- Node5 -->
<g id="node5" class="node">
<title>Node5</title>
<g id="a_node5"><a xlink:href="class_rexx_activation.html" target="_top" xlink:title=" ">
<polygon fill="white" stroke="black" points="436.88,-1567.5 436.88,-1586.75 519.62,-1586.75 519.62,-1567.5 436.88,-1567.5"/>
<text xml:space="preserve" text-anchor="middle" x="478.25" y="-1573.25" font-family="Helvetica,sans-Serif" font-size="10.00">RexxActivation</text>
</a>
</g>
</g>
<!-- Node3&#45;&gt;Node5 -->
<g id="edge4" class="edge">
<title>Node3&#45;&gt;Node5</title>
<path fill="none" stroke="midnightblue" d="M378.49,-1596.2C397.39,-1592.55 418.53,-1588.47 436.39,-1585.02"/>
<polygon fill="midnightblue" stroke="midnightblue" points="378,-1592.73 368.84,-1598.07 379.32,-1599.61 378,-1592.73"/>
</g>
<!-- Node9 -->
<g id="node9" class="node">
<title>Node9</title>
<g id="a_node9"><a xlink:href="class_abstract_code.html" target="_top" xlink:title=" ">
<polygon fill="white" stroke="black" points="440.25,-1510.5 440.25,-1529.75 516.25,-1529.75 516.25,-1510.5 440.25,-1510.5"/>
<text xml:space="preserve" text-anchor="middle" x="478.25" y="-1516.25" font-family="Helvetica,sans-Serif" font-size="10.00">AbstractCode</text>
</a>
</g>
</g>
<!-- Node8&#45;&gt;Node9 -->
<g id="edge8" class="edge">
<title>Node8&#45;&gt;Node9</title>
<path fill="none" stroke="midnightblue" d="M368.31,-1499.81C390.66,-1503.98 418.09,-1509.09 439.83,-1513.14"/>
<polygon fill="midnightblue" stroke="midnightblue" points="369.1,-1496.39 358.63,-1498 367.82,-1503.28 369.1,-1496.39"/>
</g>
<!-- Node10 -->
<g id="node10" class="node">
<title>Node10</title>
<g id="a_node10"><a xlink:href="class_attribute_getter_code.html" target="_top" xlink:title=" ">
<polygon fill="white" stroke="red" points="426.75,-1472.5 426.75,-1491.75 529.75,-1491.75 529.75,-1472.5 426.75,-1472.5"/>
<text xml:space="preserve" text-anchor="middle" x="478.25" y="-1478.25" font-family="Helvetica,sans-Serif" font-size="10.00">AttributeGetterCode</text>
</a>
</g>
</g>
<!-- Node8&#45;&gt;Node10 -->
<g id="edge9" class="edge">
<title>Node8&#45;&gt;Node10</title>
<path fill="none" stroke="midnightblue" d="M368.38,-1489.38C386.28,-1488.18 407.42,-1486.78 426.29,-1485.52"/>
<polygon fill="midnightblue" stroke="midnightblue" points="368.4,-1485.87 358.65,-1490.02 368.86,-1492.85 368.4,-1485.87"/>
</g>
</g>
</svg>
