<?xml version="1.0" encoding="UTF-8" standalone="no"?>
<!DOCTYPE svg PUBLIC "-//W3C//DTD SVG 1.1//EN"
 "http://www.w3.org/Graphics/SVG/1.1/DTD/svg11.dtd">
<!-- Generated by graphviz version 13.1.0 (20250701.0955)
 -->
<!-- Title: SysInetSocketConnection Pages: 1 -->
<svg width="138pt" height="141pt"
 viewBox="0.00 0.00 138.00 141.00" xmlns="http://www.w3.org/2000/svg" xmlns:xlink="http://www.w3.org/1999/xlink">
<g id="graph0" class="graph" transform="scale(1 1) rotate(0) translate(4 136.75)">
<title>SysInetSocketConnection</title>
<polygon fill="white" stroke="none" points="-4,4 -4,-136.75 134,-136.75 134,4 -4,4"/>
<!-- Node1 -->
<g id="node1" class="node">
<title>Node1</title>
<g id="a_node1"><a xlink:title=" ">
<polygon fill="#bfbfbf" stroke="black" points="0,-0.5 0,-19.75 130,-19.75 130,-0.5 0,-0.5"/>
<text xml:space="preserve" text-anchor="middle" x="65" y="-6.25" font-family="Helvetica,sans-Serif" font-size="10.00">SysInetSocketConnection</text>
</a>
</g>
</g>
<!-- Node2 -->
<g id="node2" class="node">
<title>Node2</title>
<g id="a_node2"><a xlink:href="class_sys_socket_connection.html" target="_top" xlink:title=" ">
<polygon fill="white" stroke="black" points="8.25,-56.75 8.25,-76 121.75,-76 121.75,-56.75 8.25,-56.75"/>
<text xml:space="preserve" text-anchor="middle" x="65" y="-62.5" font-family="Helvetica,sans-Serif" font-size="10.00">SysSocketConnection</text>
</a>
</g>
</g>
<!-- Node2&#45;&gt;Node1 -->
<g id="edge1" class="edge">
<title>Node2&#45;&gt;Node1</title>
<path fill="none" stroke="midnightblue" d="M65,-45.19C65,-36.48 65,-26.74 65,-19.92"/>
<polygon fill="midnightblue" stroke="midnightblue" points="61.5,-44.9 65,-54.9 68.5,-44.9 61.5,-44.9"/>
</g>
<!-- Node3 -->
<g id="node3" class="node">
<title>Node3</title>
<g id="a_node3"><a xlink:href="class_api_connection.html" target="_top" xlink:title=" ">
<polygon fill="white" stroke="black" points="25.12,-113 25.12,-132.25 104.88,-132.25 104.88,-113 25.12,-113"/>
<text xml:space="preserve" text-anchor="middle" x="65" y="-118.75" font-family="Helvetica,sans-Serif" font-size="10.00">ApiConnection</text>
</a>
</g>
</g>
<!-- Node3&#45;&gt;Node2 -->
<g id="edge2" class="edge">
<title>Node3&#45;&gt;Node2</title>
<path fill="none" stroke="midnightblue" d="M58.45,-101.44C57.94,-92.73 58.41,-82.99 59.87,-76.17"/>
<polygon fill="midnightblue" stroke="midnightblue" points="54.95,-101.67 59.65,-111.16 61.9,-100.81 54.95,-101.67"/>
</g>
<!-- Node3&#45;&gt;Node2 -->
<g id="edge3" class="edge">
<title>Node3&#45;&gt;Node2</title>
<path fill="none" stroke="midnightblue" d="M71.55,-101.44C72.06,-92.73 71.59,-82.99 70.13,-76.17"/>
<polygon fill="midnightblue" stroke="midnightblue" points="68.1,-100.81 70.35,-111.16 75.05,-101.67 68.1,-100.81"/>
</g>
</g>
</svg>
