<?xml version="1.0" encoding="UTF-8" standalone="no"?>
<!DOCTYPE svg PUBLIC "-//W3C//DTD SVG 1.1//EN"
 "http://www.w3.org/Graphics/SVG/1.1/DTD/svg11.dtd">
<!-- Generated by graphviz version 13.1.0 (20250701.0955)
 -->
<!-- Title: SysSocketConnection Pages: 1 -->
<svg width="292pt" height="141pt"
 viewBox="0.00 0.00 292.00 141.00" xmlns="http://www.w3.org/2000/svg" xmlns:xlink="http://www.w3.org/1999/xlink">
<g id="graph0" class="graph" transform="scale(1 1) rotate(0) translate(4 136.75)">
<title>SysSocketConnection</title>
<polygon fill="white" stroke="none" points="-4,4 -4,-136.75 288.38,-136.75 288.38,4 -4,4"/>
<!-- Node1 -->
<g id="node1" class="node">
<title>Node1</title>
<g id="a_node1"><a xlink:title=" ">
<polygon fill="#bfbfbf" stroke="black" points="83.25,-56.75 83.25,-76 196.75,-76 196.75,-56.75 83.25,-56.75"/>
<text xml:space="preserve" text-anchor="middle" x="140" y="-62.5" font-family="Helvetica,sans-Serif" font-size="10.00">SysSocketConnection</text>
</a>
</g>
</g>
<!-- Node3 -->
<g id="node3" class="node">
<title>Node3</title>
<g id="a_node3"><a xlink:href="class_sys_inet_socket_connection.html" target="_top" xlink:title=" ">
<polygon fill="white" stroke="black" points="0,-0.5 0,-19.75 130,-19.75 130,-0.5 0,-0.5"/>
<text xml:space="preserve" text-anchor="middle" x="65" y="-6.25" font-family="Helvetica,sans-Serif" font-size="10.00">SysInetSocketConnection</text>
</a>
</g>
</g>
<!-- Node1&#45;&gt;Node3 -->
<g id="edge3" class="edge">
<title>Node1&#45;&gt;Node3</title>
<path fill="none" stroke="midnightblue" d="M118.63,-49.91C105.29,-40.27 88.59,-28.19 77.4,-20.1"/>
<polygon fill="midnightblue" stroke="midnightblue" points="116.24,-52.5 126.39,-55.53 120.34,-46.83 116.24,-52.5"/>
</g>
<!-- Node4 -->
<g id="node4" class="node">
<title>Node4</title>
<g id="a_node4"><a xlink:href="class_sys_local_socket_connection.html" target="_top" xlink:title=" ">
<polygon fill="white" stroke="black" points="147.62,-0.5 147.62,-19.75 284.38,-19.75 284.38,-0.5 147.62,-0.5"/>
<text xml:space="preserve" text-anchor="middle" x="216" y="-6.25" font-family="Helvetica,sans-Serif" font-size="10.00">SysLocalSocketConnection</text>
</a>
</g>
</g>
<!-- Node1&#45;&gt;Node4 -->
<g id="edge4" class="edge">
<title>Node1&#45;&gt;Node4</title>
<path fill="none" stroke="midnightblue" d="M161.66,-49.91C175.17,-40.27 192.09,-28.19 203.43,-20.1"/>
<polygon fill="midnightblue" stroke="midnightblue" points="159.89,-46.88 153.78,-55.54 163.95,-52.58 159.89,-46.88"/>
</g>
<!-- Node2 -->
<g id="node2" class="node">
<title>Node2</title>
<g id="a_node2"><a xlink:href="class_api_connection.html" target="_top" xlink:title=" ">
<polygon fill="white" stroke="black" points="100.12,-113 100.12,-132.25 179.88,-132.25 179.88,-113 100.12,-113"/>
<text xml:space="preserve" text-anchor="middle" x="140" y="-118.75" font-family="Helvetica,sans-Serif" font-size="10.00">ApiConnection</text>
</a>
</g>
</g>
<!-- Node2&#45;&gt;Node1 -->
<g id="edge1" class="edge">
<title>Node2&#45;&gt;Node1</title>
<path fill="none" stroke="midnightblue" d="M133.45,-101.44C132.94,-92.73 133.41,-82.99 134.87,-76.17"/>
<polygon fill="midnightblue" stroke="midnightblue" points="129.95,-101.67 134.65,-111.16 136.9,-100.81 129.95,-101.67"/>
</g>
<!-- Node2&#45;&gt;Node1 -->
<g id="edge2" class="edge">
<title>Node2&#45;&gt;Node1</title>
<path fill="none" stroke="midnightblue" d="M146.55,-101.44C147.06,-92.73 146.59,-82.99 145.13,-76.17"/>
<polygon fill="midnightblue" stroke="midnightblue" points="143.1,-100.81 145.35,-111.16 150.05,-101.67 143.1,-100.81"/>
</g>
</g>
</svg>
