<?xml version="1.0" encoding="UTF-8" standalone="no"?>
<!DOCTYPE svg PUBLIC "-//W3C//DTD SVG 1.1//EN"
 "http://www.w3.org/Graphics/SVG/1.1/DTD/svg11.dtd">
<!-- Generated by graphviz version 13.1.0 (20250701.0955)
 -->
<!-- Title: ConditionTrappingDispatcher Pages: 1 -->
<svg width="150pt" height="141pt"
 viewBox="0.00 0.00 150.00 141.00" xmlns="http://www.w3.org/2000/svg" xmlns:xlink="http://www.w3.org/1999/xlink">
<g id="graph0" class="graph" transform="scale(1 1) rotate(0) translate(4 136.75)">
<title>ConditionTrappingDispatcher</title>
<polygon fill="white" stroke="none" points="-4,4 -4,-136.75 146,-136.75 146,4 -4,4"/>
<!-- Node1 -->
<g id="node1" class="node">
<title>Node1</title>
<g id="a_node1"><a xlink:title=" ">
<polygon fill="#bfbfbf" stroke="black" points="0,-56.75 0,-76 142,-76 142,-56.75 0,-56.75"/>
<text xml:space="preserve" text-anchor="middle" x="71" y="-62.5" font-family="Helvetica,sans-Serif" font-size="10.00">ConditionTrappingDispatcher</text>
</a>
</g>
</g>
<!-- Node3 -->
<g id="node3" class="node">
<title>Node3</title>
<g id="a_node3"><a xlink:href="class_redirection_dispatcher.html" target="_top" xlink:title=" ">
<polygon fill="white" stroke="black" points="14.62,-0.5 14.62,-19.75 127.38,-19.75 127.38,-0.5 14.62,-0.5"/>
<text xml:space="preserve" text-anchor="middle" x="71" y="-6.25" font-family="Helvetica,sans-Serif" font-size="10.00">RedirectionDispatcher</text>
</a>
</g>
</g>
<!-- Node1&#45;&gt;Node3 -->
<g id="edge2" class="edge">
<title>Node1&#45;&gt;Node3</title>
<path fill="none" stroke="midnightblue" d="M71,-45.19C71,-36.48 71,-26.74 71,-19.92"/>
<polygon fill="midnightblue" stroke="midnightblue" points="67.5,-44.9 71,-54.9 74.5,-44.9 67.5,-44.9"/>
</g>
<!-- Node2 -->
<g id="node2" class="node">
<title>Node2</title>
<g id="a_node2"><a xlink:href="class_trapping_dispatcher.html" target="_top" xlink:title=" ">
<polygon fill="white" stroke="black" points="20.62,-113 20.62,-132.25 121.38,-132.25 121.38,-113 20.62,-113"/>
<text xml:space="preserve" text-anchor="middle" x="71" y="-118.75" font-family="Helvetica,sans-Serif" font-size="10.00">TrappingDispatcher</text>
</a>
</g>
</g>
<!-- Node2&#45;&gt;Node1 -->
<g id="edge1" class="edge">
<title>Node2&#45;&gt;Node1</title>
<path fill="none" stroke="midnightblue" d="M71,-101.44C71,-92.73 71,-82.99 71,-76.17"/>
<polygon fill="midnightblue" stroke="midnightblue" points="67.5,-101.15 71,-111.15 74.5,-101.15 67.5,-101.15"/>
</g>
</g>
</svg>
