<?xml version="1.0" encoding="UTF-8" standalone="no"?>
<!DOCTYPE svg PUBLIC "-//W3C//DTD SVG 1.1//EN"
 "http://www.w3.org/Graphics/SVG/1.1/DTD/svg11.dtd">
<!-- Generated by graphviz version 13.1.0 (20250701.0955)
 -->
<!-- Title: ProtectedBase Pages: 1 -->
<svg width="222pt" height="141pt"
 viewBox="0.00 0.00 222.00 141.00" xmlns="http://www.w3.org/2000/svg" xmlns:xlink="http://www.w3.org/1999/xlink">
<g id="graph0" class="graph" transform="scale(1 1) rotate(0) translate(4 136.75)">
<title>ProtectedBase</title>
<polygon fill="white" stroke="none" points="-4,4 -4,-136.75 218.12,-136.75 218.12,4 -4,4"/>
<!-- Node1 -->
<g id="node1" class="node">
<title>Node1</title>
<g id="a_node1"><a xlink:title=" ">
<polygon fill="#bfbfbf" stroke="black" points="72.62,-113 72.62,-132.25 153.12,-132.25 153.12,-113 72.62,-113"/>
<text xml:space="preserve" text-anchor="middle" x="112.88" y="-118.75" font-family="Helvetica,sans-Serif" font-size="10.00">ProtectedBase</text>
</a>
</g>
</g>
<!-- Node2 -->
<g id="node2" class="node">
<title>Node2</title>
<g id="a_node2"><a xlink:href="class_protected.html" target="_top" xlink:title=" ">
<polygon fill="white" stroke="black" points="0,-56.75 0,-76 109.75,-76 109.75,-56.75 0,-56.75"/>
<text xml:space="preserve" text-anchor="middle" x="54.88" y="-62.5" font-family="Helvetica,sans-Serif" font-size="10.00">Protected&lt; objType &gt;</text>
</a>
</g>
</g>
<!-- Node1&#45;&gt;Node2 -->
<g id="edge1" class="edge">
<title>Node1&#45;&gt;Node2</title>
<path fill="none" stroke="midnightblue" d="M95.08,-104.98C84.91,-95.47 72.58,-83.93 64.27,-76.17"/>
<polygon fill="midnightblue" stroke="midnightblue" points="92.5,-107.36 102.19,-111.63 97.28,-102.25 92.5,-107.36"/>
</g>
<!-- Node3 -->
<g id="node3" class="node">
<title>Node3</title>
<g id="a_node3"><a xlink:href="class_protected_object.html" target="_top" xlink:title=" ">
<polygon fill="white" stroke="black" points="127.62,-56.75 127.62,-76 214.12,-76 214.12,-56.75 127.62,-56.75"/>
<text xml:space="preserve" text-anchor="middle" x="170.88" y="-62.5" font-family="Helvetica,sans-Serif" font-size="10.00">ProtectedObject</text>
</a>
</g>
</g>
<!-- Node1&#45;&gt;Node3 -->
<g id="edge2" class="edge">
<title>Node1&#45;&gt;Node3</title>
<path fill="none" stroke="midnightblue" d="M130.67,-104.98C140.84,-95.47 153.17,-83.93 161.48,-76.17"/>
<polygon fill="midnightblue" stroke="midnightblue" points="128.47,-102.25 123.56,-111.63 133.25,-107.36 128.47,-102.25"/>
</g>
<!-- Node4 -->
<g id="node4" class="node">
<title>Node4</title>
<g id="a_node4"><a xlink:href="class_protected_set.html" target="_top" xlink:title=" ">
<polygon fill="white" stroke="black" points="134.38,-0.5 134.38,-19.75 207.38,-19.75 207.38,-0.5 134.38,-0.5"/>
<text xml:space="preserve" text-anchor="middle" x="170.88" y="-6.25" font-family="Helvetica,sans-Serif" font-size="10.00">ProtectedSet</text>
</a>
</g>
</g>
<!-- Node3&#45;&gt;Node4 -->
<g id="edge3" class="edge">
<title>Node3&#45;&gt;Node4</title>
<path fill="none" stroke="midnightblue" d="M170.88,-45.19C170.88,-36.48 170.88,-26.74 170.88,-19.92"/>
<polygon fill="midnightblue" stroke="midnightblue" points="167.38,-44.9 170.88,-54.9 174.38,-44.9 167.38,-44.9"/>
</g>
</g>
</svg>
