<?xml version="1.0" encoding="UTF-8" standalone="no"?>
<!DOCTYPE svg PUBLIC "-//W3C//DTD SVG 1.1//EN"
 "http://www.w3.org/Graphics/SVG/1.1/DTD/svg11.dtd">
<!-- Generated by graphviz version 13.1.0 (20250701.0955)
 -->
<!-- Title: ActivationBase Pages: 1 -->
<svg width="196pt" height="197pt"
 viewBox="0.00 0.00 196.00 197.00" xmlns="http://www.w3.org/2000/svg" xmlns:xlink="http://www.w3.org/1999/xlink">
<g id="graph0" class="graph" transform="scale(1 1) rotate(0) translate(4 193)">
<title>ActivationBase</title>
<polygon fill="white" stroke="none" points="-4,4 -4,-193 192.38,-193 192.38,4 -4,4"/>
<!-- Node1 -->
<g id="node1" class="node">
<title>Node1</title>
<g id="a_node1"><a xlink:title=" ">
<polygon fill="#bfbfbf" stroke="black" points="54,-56.75 54,-76 136,-76 136,-56.75 54,-56.75"/>
<text xml:space="preserve" text-anchor="middle" x="95" y="-62.5" font-family="Helvetica,sans-Serif" font-size="10.00">ActivationBase</text>
</a>
</g>
</g>
<!-- Node4 -->
<g id="node4" class="node">
<title>Node4</title>
<g id="a_node4"><a xlink:href="class_native_activation.html" target="_top" xlink:title=" ">
<polygon fill="white" stroke="black" points="0,-0.5 0,-19.75 88,-19.75 88,-0.5 0,-0.5"/>
<text xml:space="preserve" text-anchor="middle" x="44" y="-6.25" font-family="Helvetica,sans-Serif" font-size="10.00">NativeActivation</text>
</a>
</g>
</g>
<!-- Node1&#45;&gt;Node4 -->
<g id="edge3" class="edge">
<title>Node1&#45;&gt;Node4</title>
<path fill="none" stroke="midnightblue" d="M78.81,-48.15C69.98,-38.76 59.42,-27.53 52.26,-19.92"/>
<polygon fill="midnightblue" stroke="midnightblue" points="76.14,-50.43 85.54,-55.31 81.24,-45.63 76.14,-50.43"/>
</g>
<!-- Node5 -->
<g id="node5" class="node">
<title>Node5</title>
<g id="a_node5"><a xlink:href="class_rexx_activation.html" target="_top" xlink:title=" ">
<polygon fill="white" stroke="black" points="105.62,-0.5 105.62,-19.75 188.38,-19.75 188.38,-0.5 105.62,-0.5"/>
<text xml:space="preserve" text-anchor="middle" x="147" y="-6.25" font-family="Helvetica,sans-Serif" font-size="10.00">RexxActivation</text>
</a>
</g>
</g>
<!-- Node1&#45;&gt;Node5 -->
<g id="edge4" class="edge">
<title>Node1&#45;&gt;Node5</title>
<path fill="none" stroke="midnightblue" d="M111.51,-48.15C120.51,-38.76 131.28,-27.53 138.57,-19.92"/>
<polygon fill="midnightblue" stroke="midnightblue" points="109.03,-45.68 104.63,-55.32 114.08,-50.53 109.03,-45.68"/>
</g>
<!-- Node2 -->
<g id="node2" class="node">
<title>Node2</title>
<g id="a_node2"><a xlink:href="class_rexx_internal_object.html" target="_top" xlink:title=" ">
<polygon fill="white" stroke="black" points="45,-113 45,-132.25 145,-132.25 145,-113 45,-113"/>
<text xml:space="preserve" text-anchor="middle" x="95" y="-118.75" font-family="Helvetica,sans-Serif" font-size="10.00">RexxInternalObject</text>
</a>
</g>
</g>
<!-- Node2&#45;&gt;Node1 -->
<g id="edge1" class="edge">
<title>Node2&#45;&gt;Node1</title>
<path fill="none" stroke="midnightblue" d="M95,-101.44C95,-92.73 95,-82.99 95,-76.17"/>
<polygon fill="midnightblue" stroke="midnightblue" points="91.5,-101.15 95,-111.15 98.5,-101.15 91.5,-101.15"/>
</g>
<!-- Node3 -->
<g id="node3" class="node">
<title>Node3</title>
<g id="a_node3"><a xlink:href="class_rexx_virtual_base.html" target="_top" xlink:title=" ">
<polygon fill="white" stroke="black" points="50.25,-169.25 50.25,-188.5 139.75,-188.5 139.75,-169.25 50.25,-169.25"/>
<text xml:space="preserve" text-anchor="middle" x="95" y="-175" font-family="Helvetica,sans-Serif" font-size="10.00">RexxVirtualBase</text>
</a>
</g>
</g>
<!-- Node3&#45;&gt;Node2 -->
<g id="edge2" class="edge">
<title>Node3&#45;&gt;Node2</title>
<path fill="none" stroke="midnightblue" d="M95,-157.69C95,-148.98 95,-139.24 95,-132.42"/>
<polygon fill="midnightblue" stroke="midnightblue" points="91.5,-157.4 95,-167.4 98.5,-157.4 91.5,-157.4"/>
</g>
</g>
</svg>
