<?xml version="1.0" encoding="UTF-8" standalone="no"?>
<!DOCTYPE svg PUBLIC "-//W3C//DTD SVG 1.1//EN"
 "http://www.w3.org/Graphics/SVG/1.1/DTD/svg11.dtd">
<!-- Generated by graphviz version 13.1.0 (20250701.0955)
 -->
<!-- Title: dblqueue.cpp Pages: 1 -->
<svg width="254pt" height="141pt"
 viewBox="0.00 0.00 254.00 141.00" xmlns="http://www.w3.org/2000/svg" xmlns:xlink="http://www.w3.org/1999/xlink">
<g id="graph0" class="graph" transform="scale(1 1) rotate(0) translate(4 136.75)">
<title>dblqueue.cpp</title>
<polygon fill="white" stroke="none" points="-4,4 -4,-136.75 249.91,-136.75 249.91,4 -4,4"/>
<!-- Node1 -->
<g id="node1" class="node">
<title>Node1</title>
<g id="a_node1"><a xlink:title=" ">
<polygon fill="#bfbfbf" stroke="black" points="66.03,-113 66.03,-132.25 139.78,-132.25 139.78,-113 66.03,-113"/>
<text xml:space="preserve" text-anchor="middle" x="102.91" y="-118.75" font-family="Helvetica,sans-Serif" font-size="10.00">dblqueue.cpp</text>
</a>
</g>
</g>
<!-- Node2 -->
<g id="node2" class="node">
<title>Node2</title>
<g id="a_node2"><a xlink:title=" ">
<polygon fill="white" stroke="#bfbfbf" points="56.28,-0.5 56.28,-19.75 101.53,-19.75 101.53,-0.5 56.28,-0.5"/>
<text xml:space="preserve" text-anchor="middle" x="78.91" y="-6.25" font-family="Helvetica,sans-Serif" font-size="10.00">stdio.h</text>
</a>
</g>
</g>
<!-- Node1&#45;&gt;Node2 -->
<g id="edge1" class="edge">
<title>Node1&#45;&gt;Node2</title>
<path fill="none" stroke="midnightblue" d="M65.72,-115.02C43.69,-108.98 17.5,-97.63 3.91,-76.5 -10.46,-54.16 19.51,-35.06 45.73,-23.38"/>
<polygon fill="midnightblue" stroke="midnightblue" points="46.96,-26.66 54.83,-19.57 44.25,-20.2 46.96,-26.66"/>
</g>
<!-- Node3 -->
<g id="node3" class="node">
<title>Node3</title>
<g id="a_node3"><a xlink:title=" ">
<polygon fill="white" stroke="#bfbfbf" points="12.78,-56.75 12.78,-76 61.03,-76 61.03,-56.75 12.78,-56.75"/>
<text xml:space="preserve" text-anchor="middle" x="36.91" y="-62.5" font-family="Helvetica,sans-Serif" font-size="10.00">string.h</text>
</a>
</g>
</g>
<!-- Node1&#45;&gt;Node3 -->
<g id="edge2" class="edge">
<title>Node1&#45;&gt;Node3</title>
<path fill="none" stroke="midnightblue" d="M92.01,-112.67C82.3,-104.69 67.87,-92.83 56.22,-83.25"/>
<polygon fill="midnightblue" stroke="midnightblue" points="58.72,-80.77 48.77,-77.13 54.28,-86.18 58.72,-80.77"/>
</g>
<!-- Node4 -->
<g id="node4" class="node">
<title>Node4</title>
<g id="a_node4"><a xlink:title=" ">
<polygon fill="white" stroke="#bfbfbf" points="79.16,-56.75 79.16,-76 126.66,-76 126.66,-56.75 79.16,-56.75"/>
<text xml:space="preserve" text-anchor="middle" x="102.91" y="-62.5" font-family="Helvetica,sans-Serif" font-size="10.00">stdlib.h</text>
</a>
</g>
</g>
<!-- Node1&#45;&gt;Node4 -->
<g id="edge3" class="edge">
<title>Node1&#45;&gt;Node4</title>
<path fill="none" stroke="midnightblue" d="M102.91,-112.67C102.91,-105.87 102.91,-96.26 102.91,-87.65"/>
<polygon fill="midnightblue" stroke="midnightblue" points="106.41,-87.68 102.91,-77.68 99.41,-87.68 106.41,-87.68"/>
</g>
<!-- Node5 -->
<g id="node5" class="node">
<title>Node5</title>
<g id="a_node5"><a xlink:href="dblqueue_8hpp.html" target="_top" xlink:title=" ">
<polygon fill="white" stroke="black" points="145.03,-56.75 145.03,-76 218.78,-76 218.78,-56.75 145.03,-56.75"/>
<text xml:space="preserve" text-anchor="middle" x="181.91" y="-62.5" font-family="Helvetica,sans-Serif" font-size="10.00">dblqueue.hpp</text>
</a>
</g>
</g>
<!-- Node1&#45;&gt;Node5 -->
<g id="edge4" class="edge">
<title>Node1&#45;&gt;Node5</title>
<path fill="none" stroke="midnightblue" d="M115.95,-112.67C127.73,-104.58 145.32,-92.5 159.37,-82.85"/>
<polygon fill="midnightblue" stroke="midnightblue" points="161.33,-85.75 167.6,-77.2 157.37,-79.98 161.33,-85.75"/>
</g>
<!-- Node6 -->
<g id="node6" class="node">
<title>Node6</title>
<g id="a_node6"><a xlink:href="regexp_8hpp.html" target="_top" xlink:title=" ">
<polygon fill="white" stroke="black" points="181.91,-0.5 181.91,-19.75 245.91,-19.75 245.91,-0.5 181.91,-0.5"/>
<text xml:space="preserve" text-anchor="middle" x="213.91" y="-6.25" font-family="Helvetica,sans-Serif" font-size="10.00">regexp.hpp</text>
</a>
</g>
</g>
<!-- Node1&#45;&gt;Node6 -->
<g id="edge7" class="edge">
<title>Node1&#45;&gt;Node6</title>
<path fill="none" stroke="midnightblue" d="M140.11,-119.27C169.31,-115.23 208.22,-104.54 227.91,-76.5 237.49,-62.86 231.91,-43.95 225.17,-29.97"/>
<polygon fill="midnightblue" stroke="midnightblue" points="228.34,-28.48 220.51,-21.35 222.19,-31.81 228.34,-28.48"/>
</g>
<!-- Node5&#45;&gt;Node2 -->
<g id="edge5" class="edge">
<title>Node5&#45;&gt;Node2</title>
<path fill="none" stroke="midnightblue" d="M164.9,-56.42C148.87,-47.97 124.6,-35.19 105.92,-25.35"/>
<polygon fill="midnightblue" stroke="midnightblue" points="107.76,-22.37 97.28,-20.8 104.5,-28.56 107.76,-22.37"/>
</g>
<!-- Node5&#45;&gt;Node6 -->
<g id="edge6" class="edge">
<title>Node5&#45;&gt;Node6</title>
<path fill="none" stroke="midnightblue" d="M187.19,-56.42C191.48,-49.15 197.67,-38.66 203.01,-29.61"/>
<polygon fill="midnightblue" stroke="midnightblue" points="205.89,-31.61 207.95,-21.22 199.86,-28.06 205.89,-31.61"/>
</g>
</g>
</svg>
