<?xml version="1.0" encoding="UTF-8" standalone="no"?>
<!DOCTYPE svg PUBLIC "-//W3C//DTD SVG 1.1//EN"
 "http://www.w3.org/Graphics/SVG/1.1/DTD/svg11.dtd">
<!-- Generated by graphviz version 13.1.0 (20250701.0955)
 -->
<!-- Title: platform Pages: 1 -->
<svg width="185pt" height="231pt"
 viewBox="0.00 0.00 185.00 231.00" xmlns="http://www.w3.org/2000/svg" xmlns:xlink="http://www.w3.org/1999/xlink">
<g id="graph0" class="graph" transform="scale(1 1) rotate(0) translate(4 227.25)">
<title>platform</title>
<polygon fill="white" stroke="none" points="-4,4 -4,-227.25 181,-227.25 181,4 -4,4"/>
<g id="clust1" class="cluster">
<title>clusterdir_2083f6195953e614d285fa1782949368</title>
<g id="a_clust1"><a xlink:href="dir_2083f6195953e614d285fa1782949368.html" target="_top" xlink:title="utilities">
<polygon fill="#ddddee" stroke="black" points="8,-128 8,-215.25 166,-215.25 166,-128 8,-128"/>
<text xml:space="preserve" text-anchor="middle" x="87" y="-201.75" font-family="Helvetica,sans-Serif" font-size="10.00">utilities</text>
</a>
</g>
</g>
<g id="clust2" class="cluster">
<title>clusterdir_8655a675d1b897eb9d7ae4d3b71516ea</title>
<g id="a_clust2"><a xlink:href="dir_8655a675d1b897eb9d7ae4d3b71516ea.html" target="_top">
<polygon fill="#eeeeff" stroke="black" points="16,-136 16,-188 158,-188 158,-136 16,-136"/>
</a>
</g>
</g>
<!-- dir_8655a675d1b897eb9d7ae4d3b71516ea -->
<g id="node1" class="node">
<title>dir_8655a675d1b897eb9d7ae4d3b71516ea</title>
<text xml:space="preserve" text-anchor="middle" x="51" y="-158.12" font-family="Helvetica,sans-Serif" font-size="10.00">platform</text>
</g>
<!-- dir_f4f4b4575a1d5f0724b29fd53e4b9259 -->
<g id="node2" class="node">
<title>dir_f4f4b4575a1d5f0724b29fd53e4b9259</title>
<g id="a_node2"><a xlink:href="dir_f4f4b4575a1d5f0724b29fd53e4b9259.html" target="_top" xlink:title="windows">
<polygon fill="white" stroke="red" points="150.12,-180 95.88,-180 95.88,-144 150.12,-144 150.12,-180"/>
<text xml:space="preserve" text-anchor="middle" x="123" y="-158.12" font-family="Helvetica,sans-Serif" font-size="10.00">windows</text>
</a>
</g>
</g>
<!-- dir_19153e9772a0a669b668c0714a289e75 -->
<g id="node3" class="node">
<title>dir_19153e9772a0a669b668c0714a289e75</title>
<g id="a_node3"><a xlink:href="dir_19153e9772a0a669b668c0714a289e75.html" target="_top" xlink:title="api">
<polygon fill="white" stroke="red" points="149,-36 95,-36 95,0 149,0 149,-36"/>
<text xml:space="preserve" text-anchor="middle" x="122" y="-14.12" font-family="Helvetica,sans-Serif" font-size="10.00">api</text>
</a>
</g>
</g>
<!-- dir_f4f4b4575a1d5f0724b29fd53e4b9259&#45;&gt;dir_19153e9772a0a669b668c0714a289e75 -->
<g id="edge3" class="edge">
<title>dir_f4f4b4575a1d5f0724b29fd53e4b9259&#45;&gt;dir_19153e9772a0a669b668c0714a289e75</title>
<path fill="none" stroke="black" d="M119.35,-143.91C117.32,-133.57 115.02,-120.09 114,-108 112.66,-92.06 112.8,-87.96 114,-72 114.6,-63.99 115.71,-55.35 116.91,-47.43"/>
<polygon fill="black" stroke="black" points="120.35,-48.04 118.51,-37.61 113.45,-46.91 120.35,-48.04"/>
<g id="a_edge3&#45;headlabel"><a xlink:href="dir_000120_000082.html" target="_top" xlink:title="2">
<text xml:space="preserve" text-anchor="middle" x="122.82" y="-46.67" font-family="Helvetica,sans-Serif" font-size="10.00">2</text>
</a>
</g>
</g>
<!-- dir_060f6f978d6f78ff04450bb545771af6 -->
<g id="node4" class="node">
<title>dir_060f6f978d6f78ff04450bb545771af6</title>
<g id="a_node4"><a xlink:href="dir_060f6f978d6f78ff04450bb545771af6.html" target="_top" xlink:title="common">
<polygon fill="white" stroke="red" points="177,-108 123,-108 123,-72 177,-72 177,-108"/>
<text xml:space="preserve" text-anchor="middle" x="150" y="-86.12" font-family="Helvetica,sans-Serif" font-size="10.00">common</text>
</a>
</g>
</g>
<!-- dir_f4f4b4575a1d5f0724b29fd53e4b9259&#45;&gt;dir_060f6f978d6f78ff04450bb545771af6 -->
<g id="edge2" class="edge">
<title>dir_f4f4b4575a1d5f0724b29fd53e4b9259&#45;&gt;dir_060f6f978d6f78ff04450bb545771af6</title>
<path fill="none" stroke="black" d="M129.67,-143.7C132.58,-136.15 136.07,-127.12 139.32,-118.68"/>
<polygon fill="black" stroke="black" points="142.52,-120.11 142.86,-109.52 135.99,-117.59 142.52,-120.11"/>
<g id="a_edge2&#45;headlabel"><a xlink:href="dir_000120_000021.html" target="_top" xlink:title="2">
<text xml:space="preserve" text-anchor="middle" x="144.42" y="-119.19" font-family="Helvetica,sans-Serif" font-size="10.00">2</text>
</a>
</g>
</g>
<!-- dir_060f6f978d6f78ff04450bb545771af6&#45;&gt;dir_19153e9772a0a669b668c0714a289e75 -->
<g id="edge1" class="edge">
<title>dir_060f6f978d6f78ff04450bb545771af6&#45;&gt;dir_19153e9772a0a669b668c0714a289e75</title>
<path fill="none" stroke="black" d="M143.08,-71.7C140.06,-64.15 136.45,-55.12 133.07,-46.68"/>
<polygon fill="black" stroke="black" points="136.37,-45.49 129.4,-37.51 129.87,-48.09 136.37,-45.49"/>
<g id="a_edge1&#45;headlabel"><a xlink:href="dir_000021_000082.html" target="_top" xlink:title="7">
<text xml:space="preserve" text-anchor="middle" x="139.78" y="-42.5" font-family="Helvetica,sans-Serif" font-size="10.00">7</text>
</a>
</g>
</g>
</g>
</svg>
