<?xml version="1.0" encoding="UTF-8" standalone="no"?>
<!DOCTYPE svg PUBLIC "-//W3C//DTD SVG 1.1//EN"
 "http://www.w3.org/Graphics/SVG/1.1/DTD/svg11.dtd">
<!-- Generated by graphviz version 13.1.0 (20250701.0955)
 -->
<!-- Title: extensions Pages: 1 -->
<svg width="562pt" height="175pt"
 viewBox="0.00 0.00 562.00 175.00" xmlns="http://www.w3.org/2000/svg" xmlns:xlink="http://www.w3.org/1999/xlink">
<g id="graph0" class="graph" transform="scale(1 1) rotate(0) translate(4 171.25)">
<title>extensions</title>
<polygon fill="white" stroke="none" points="-4,4 -4,-171.25 558,-171.25 558,4 -4,4"/>
<g id="clust1" class="cluster">
<title>clusterdir_5131a42d519b9b019d5264fc1f0fe4ab</title>
<g id="a_clust1"><a xlink:href="dir_5131a42d519b9b019d5264fc1f0fe4ab.html" target="_top" xlink:title="trunk">
<polygon fill="#ddddee" stroke="black" points="8,-8 8,-159.25 546,-159.25 546,-8 8,-8"/>
<text xml:space="preserve" text-anchor="middle" x="277" y="-145.75" font-family="Helvetica,sans-Serif" font-size="10.00">trunk</text>
</a>
</g>
</g>
<g id="clust2" class="cluster">
<title>clusterdir_96f4437248caf2d71cbba36285528be6</title>
<g id="a_clust2"><a xlink:href="dir_96f4437248caf2d71cbba36285528be6.html" target="_top">
<polygon fill="#eeeeff" stroke="black" points="16,-80 16,-132 538,-132 538,-80 16,-80"/>
</a>
</g>
</g>
<!-- dir_19153e9772a0a669b668c0714a289e75 -->
<g id="node1" class="node">
<title>dir_19153e9772a0a669b668c0714a289e75</title>
<g id="a_node1"><a xlink:href="dir_19153e9772a0a669b668c0714a289e75.html" target="_top" xlink:title="api">
<polygon fill="white" stroke="red" points="350,-52 296,-52 296,-16 350,-16 350,-52"/>
<text xml:space="preserve" text-anchor="middle" x="323" y="-30.12" font-family="Helvetica,sans-Serif" font-size="10.00">api</text>
</a>
</g>
</g>
<!-- dir_96f4437248caf2d71cbba36285528be6 -->
<g id="node2" class="node">
<title>dir_96f4437248caf2d71cbba36285528be6</title>
<text xml:space="preserve" text-anchor="middle" x="56" y="-102.12" font-family="Helvetica,sans-Serif" font-size="10.00">extensions</text>
</g>
<!-- dir_ecb6d4c9786700b132e98483db53817d -->
<g id="node3" class="node">
<title>dir_ecb6d4c9786700b132e98483db53817d</title>
<g id="a_node3"><a xlink:href="dir_ecb6d4c9786700b132e98483db53817d.html" target="_top" xlink:title="hostemu">
<polygon fill="white" stroke="red" points="160,-124 106,-124 106,-88 160,-88 160,-124"/>
<text xml:space="preserve" text-anchor="middle" x="133" y="-102.12" font-family="Helvetica,sans-Serif" font-size="10.00">hostemu</text>
</a>
</g>
</g>
<!-- dir_ecb6d4c9786700b132e98483db53817d&#45;&gt;dir_19153e9772a0a669b668c0714a289e75 -->
<g id="edge5" class="edge">
<title>dir_ecb6d4c9786700b132e98483db53817d&#45;&gt;dir_19153e9772a0a669b668c0714a289e75</title>
<path fill="none" stroke="black" d="M155.57,-87.71C159.88,-84.87 164.47,-82.16 169,-80 206.49,-62.09 252.59,-49.77 284.52,-42.61"/>
<polygon fill="black" stroke="black" points="285.1,-46.07 294.13,-40.53 283.61,-39.23 285.1,-46.07"/>
<g id="a_edge5&#45;headlabel"><a xlink:href="dir_000047_000082.html" target="_top" xlink:title="5">
<text xml:space="preserve" text-anchor="middle" x="283.66" y="-45.41" font-family="Helvetica,sans-Serif" font-size="10.00">5</text>
</a>
</g>
</g>
<!-- dir_0338c9a89eea7f40e9d351d340e6fdd2 -->
<g id="node4" class="node">
<title>dir_0338c9a89eea7f40e9d351d340e6fdd2</title>
<g id="a_node4"><a xlink:href="dir_0338c9a89eea7f40e9d351d340e6fdd2.html" target="_top" xlink:title="orxncurses">
<polygon fill="white" stroke="black" points="242,-124 178,-124 178,-88 242,-88 242,-124"/>
<text xml:space="preserve" text-anchor="middle" x="210" y="-102.12" font-family="Helvetica,sans-Serif" font-size="10.00">orxncurses</text>
</a>
</g>
</g>
<!-- dir_0338c9a89eea7f40e9d351d340e6fdd2&#45;&gt;dir_19153e9772a0a669b668c0714a289e75 -->
<g id="edge1" class="edge">
<title>dir_0338c9a89eea7f40e9d351d340e6fdd2&#45;&gt;dir_19153e9772a0a669b668c0714a289e75</title>
<path fill="none" stroke="black" d="M238.22,-87.52C252.73,-78.53 270.59,-67.47 286.17,-57.81"/>
<polygon fill="black" stroke="black" points="287.58,-61.06 294.24,-52.82 283.9,-55.11 287.58,-61.06"/>
<g id="a_edge1&#45;headlabel"><a xlink:href="dir_000090_000082.html" target="_top" xlink:title="1">
<text xml:space="preserve" text-anchor="middle" x="287.31" y="-60.69" font-family="Helvetica,sans-Serif" font-size="10.00">1</text>
</a>
</g>
</g>
<!-- dir_9262b9cf93b3c94ed7bd72cb97bbc9cd -->
<g id="node5" class="node">
<title>dir_9262b9cf93b3c94ed7bd72cb97bbc9cd</title>
<g id="a_node5"><a xlink:href="dir_9262b9cf93b3c94ed7bd72cb97bbc9cd.html" target="_top" xlink:title="platform">
<polygon fill="white" stroke="red" points="314,-124 260,-124 260,-88 314,-88 314,-124"/>
<text xml:space="preserve" text-anchor="middle" x="287" y="-102.12" font-family="Helvetica,sans-Serif" font-size="10.00">platform</text>
</a>
</g>
</g>
<!-- dir_9262b9cf93b3c94ed7bd72cb97bbc9cd&#45;&gt;dir_19153e9772a0a669b668c0714a289e75 -->
<g id="edge4" class="edge">
<title>dir_9262b9cf93b3c94ed7bd72cb97bbc9cd&#45;&gt;dir_19153e9772a0a669b668c0714a289e75</title>
<path fill="none" stroke="black" d="M295.9,-87.7C299.87,-79.98 304.63,-70.71 309.06,-62.11"/>
<polygon fill="black" stroke="black" points="312.05,-63.94 313.51,-53.45 305.83,-60.74 312.05,-63.94"/>
<g id="a_edge4&#45;headlabel"><a xlink:href="dir_000136_000082.html" target="_top" xlink:title="2">
<text xml:space="preserve" text-anchor="middle" x="313.62" y="-63.22" font-family="Helvetica,sans-Serif" font-size="10.00">2</text>
</a>
</g>
</g>
<!-- dir_f402ca54f8067cd792ed7dfec162cfb9 -->
<g id="node6" class="node">
<title>dir_f402ca54f8067cd792ed7dfec162cfb9</title>
<g id="a_node6"><a xlink:href="dir_f402ca54f8067cd792ed7dfec162cfb9.html" target="_top" xlink:title="rxmath">
<polygon fill="white" stroke="black" points="386,-124 332,-124 332,-88 386,-88 386,-124"/>
<text xml:space="preserve" text-anchor="middle" x="359" y="-102.12" font-family="Helvetica,sans-Serif" font-size="10.00">rxmath</text>
</a>
</g>
</g>
<!-- dir_f402ca54f8067cd792ed7dfec162cfb9&#45;&gt;dir_19153e9772a0a669b668c0714a289e75 -->
<g id="edge6" class="edge">
<title>dir_f402ca54f8067cd792ed7dfec162cfb9&#45;&gt;dir_19153e9772a0a669b668c0714a289e75</title>
<path fill="none" stroke="black" d="M350.1,-87.7C346.13,-79.98 341.37,-70.71 336.94,-62.11"/>
<polygon fill="black" stroke="black" points="340.17,-60.74 332.49,-53.45 333.95,-63.94 340.17,-60.74"/>
<g id="a_edge6&#45;headlabel"><a xlink:href="dir_000126_000082.html" target="_top" xlink:title="1">
<text xml:space="preserve" text-anchor="middle" x="343.65" y="-57.42" font-family="Helvetica,sans-Serif" font-size="10.00">1</text>
</a>
</g>
</g>
<!-- dir_75675cfe92e4a429d6236a6824fde5f3 -->
<g id="node7" class="node">
<title>dir_75675cfe92e4a429d6236a6824fde5f3</title>
<g id="a_node7"><a xlink:href="dir_75675cfe92e4a429d6236a6824fde5f3.html" target="_top" xlink:title="rxregexp">
<polygon fill="white" stroke="black" points="458,-124 404,-124 404,-88 458,-88 458,-124"/>
<text xml:space="preserve" text-anchor="middle" x="431" y="-102.12" font-family="Helvetica,sans-Serif" font-size="10.00">rxregexp</text>
</a>
</g>
</g>
<!-- dir_75675cfe92e4a429d6236a6824fde5f3&#45;&gt;dir_19153e9772a0a669b668c0714a289e75 -->
<g id="edge3" class="edge">
<title>dir_75675cfe92e4a429d6236a6824fde5f3&#45;&gt;dir_19153e9772a0a669b668c0714a289e75</title>
<path fill="none" stroke="black" d="M406.32,-87.63C402.55,-85.04 398.68,-82.43 395,-80 383.67,-72.53 371.18,-64.62 359.83,-57.54"/>
<polygon fill="black" stroke="black" points="361.84,-54.67 351.49,-52.37 358.15,-60.62 361.84,-54.67"/>
<g id="a_edge3&#45;headlabel"><a xlink:href="dir_000031_000082.html" target="_top" xlink:title="1">
<text xml:space="preserve" text-anchor="middle" x="365.1" y="-49.48" font-family="Helvetica,sans-Serif" font-size="10.00">1</text>
</a>
</g>
</g>
<!-- dir_15051530ebc4dc974d7edb432c4bac8d -->
<g id="node8" class="node">
<title>dir_15051530ebc4dc974d7edb432c4bac8d</title>
<g id="a_node8"><a xlink:href="dir_15051530ebc4dc974d7edb432c4bac8d.html" target="_top" xlink:title="rxsock">
<polygon fill="white" stroke="black" points="530,-124 476,-124 476,-88 530,-88 530,-124"/>
<text xml:space="preserve" text-anchor="middle" x="503" y="-102.12" font-family="Helvetica,sans-Serif" font-size="10.00">rxsock</text>
</a>
</g>
</g>
<!-- dir_15051530ebc4dc974d7edb432c4bac8d&#45;&gt;dir_19153e9772a0a669b668c0714a289e75 -->
<g id="edge2" class="edge">
<title>dir_15051530ebc4dc974d7edb432c4bac8d&#45;&gt;dir_19153e9772a0a669b668c0714a289e75</title>
<path fill="none" stroke="black" d="M480.01,-87.52C475.81,-84.77 471.37,-82.14 467,-80 432.94,-63.34 391.34,-51.13 361.63,-43.67"/>
<polygon fill="black" stroke="black" points="362.49,-40.27 351.95,-41.3 360.83,-47.07 362.49,-40.27"/>
<g id="a_edge2&#45;headlabel"><a xlink:href="dir_000131_000082.html" target="_top" xlink:title="3">
<text xml:space="preserve" text-anchor="middle" x="365.18" y="-34.13" font-family="Helvetica,sans-Serif" font-size="10.00">3</text>
</a>
</g>
</g>
</g>
</svg>
