<?xml version="1.0" encoding="UTF-8" standalone="no"?>
<!DOCTYPE svg PUBLIC "-//W3C//DTD SVG 1.1//EN"
 "http://www.w3.org/Graphics/SVG/1.1/DTD/svg11.dtd">
<!-- Generated by graphviz version 13.1.0 (20250701.0955)
 -->
<!-- Title: unix Pages: 1 -->
<svg width="145pt" height="223pt"
 viewBox="0.00 0.00 145.00 223.00" xmlns="http://www.w3.org/2000/svg" xmlns:xlink="http://www.w3.org/1999/xlink">
<g id="graph0" class="graph" transform="scale(1 1) rotate(0) translate(4 219.25)">
<title>unix</title>
<polygon fill="white" stroke="none" points="-4,4 -4,-219.25 141,-219.25 141,4 -4,4"/>
<g id="clust1" class="cluster">
<title>clusterdir_bad067b7943c67444c61308f6851c538</title>
<g id="a_clust1"><a xlink:href="dir_bad067b7943c67444c61308f6851c538.html" target="_top" xlink:title="platform">
<polygon fill="#ddddee" stroke="black" points="28,-136 28,-207.25 98,-207.25 98,-136 28,-136"/>
<text xml:space="preserve" text-anchor="middle" x="63" y="-193.75" font-family="Helvetica,sans-Serif" font-size="10.00">platform</text>
</a>
</g>
</g>
<!-- dir_d55bcc4ff2ba5607e5a70b0bc0cc94cd -->
<g id="node1" class="node">
<title>dir_d55bcc4ff2ba5607e5a70b0bc0cc94cd</title>
<g id="a_node1"><a xlink:href="dir_d55bcc4ff2ba5607e5a70b0bc0cc94cd.html" target="_top" xlink:title="unix">
<polygon fill="#eeeeff" stroke="black" points="90,-180 36,-180 36,-144 90,-144 90,-180"/>
<text xml:space="preserve" text-anchor="middle" x="63" y="-158.12" font-family="Helvetica,sans-Serif" font-size="10.00">unix</text>
</a>
</g>
</g>
<!-- dir_07b471ff108ade29d714c67783960c47 -->
<g id="node2" class="node">
<title>dir_07b471ff108ade29d714c67783960c47</title>
<g id="a_node2"><a xlink:href="dir_07b471ff108ade29d714c67783960c47.html" target="_top" xlink:title="interpreter">
<polygon fill="white" stroke="red" points="92.75,-108 33.25,-108 33.25,-72 92.75,-72 92.75,-108"/>
<text xml:space="preserve" text-anchor="middle" x="63" y="-86.12" font-family="Helvetica,sans-Serif" font-size="10.00">interpreter</text>
</a>
</g>
</g>
<!-- dir_d55bcc4ff2ba5607e5a70b0bc0cc94cd&#45;&gt;dir_07b471ff108ade29d714c67783960c47 -->
<g id="edge3" class="edge">
<title>dir_d55bcc4ff2ba5607e5a70b0bc0cc94cd&#45;&gt;dir_07b471ff108ade29d714c67783960c47</title>
<path fill="none" stroke="black" d="M63,-143.7C63,-136.41 63,-127.73 63,-119.54"/>
<polygon fill="black" stroke="black" points="66.5,-119.62 63,-109.62 59.5,-119.62 66.5,-119.62"/>
<g id="a_edge3&#45;headlabel"><a xlink:href="dir_000134_000004.html" target="_top" xlink:title="1">
<text xml:space="preserve" text-anchor="middle" x="69.34" y="-117.82" font-family="Helvetica,sans-Serif" font-size="10.00">1</text>
</a>
</g>
</g>
<!-- dir_19153e9772a0a669b668c0714a289e75 -->
<g id="node3" class="node">
<title>dir_19153e9772a0a669b668c0714a289e75</title>
<g id="a_node3"><a xlink:href="dir_19153e9772a0a669b668c0714a289e75.html" target="_top" xlink:title="api">
<polygon fill="white" stroke="red" points="54,-36 0,-36 0,0 54,0 54,-36"/>
<text xml:space="preserve" text-anchor="middle" x="27" y="-14.12" font-family="Helvetica,sans-Serif" font-size="10.00">api</text>
</a>
</g>
</g>
<!-- dir_d55bcc4ff2ba5607e5a70b0bc0cc94cd&#45;&gt;dir_19153e9772a0a669b668c0714a289e75 -->
<g id="edge4" class="edge">
<title>dir_d55bcc4ff2ba5607e5a70b0bc0cc94cd&#45;&gt;dir_19153e9772a0a669b668c0714a289e75</title>
<path fill="none" stroke="black" d="M45.7,-143.52C37.41,-133.9 28.35,-121.24 24,-108 17.58,-88.45 18.65,-65.18 21.15,-47.33"/>
<polygon fill="black" stroke="black" points="24.56,-48.15 22.74,-37.72 17.66,-47.01 24.56,-48.15"/>
<g id="a_edge4&#45;headlabel"><a xlink:href="dir_000134_000082.html" target="_top" xlink:title="1">
<text xml:space="preserve" text-anchor="middle" x="27.02" y="-46.8" font-family="Helvetica,sans-Serif" font-size="10.00">1</text>
</a>
</g>
</g>
<!-- dir_483b34426c5bbf1dce47c63ef54f04c5 -->
<g id="node4" class="node">
<title>dir_483b34426c5bbf1dce47c63ef54f04c5</title>
<g id="a_node4"><a xlink:href="dir_483b34426c5bbf1dce47c63ef54f04c5.html" target="_top" xlink:title="lib">
<polygon fill="none" stroke="black" points="137,-36 83,-36 83,0 137,0 137,-36"/>
<text xml:space="preserve" text-anchor="middle" x="110" y="-14.12" font-family="Helvetica,sans-Serif" font-size="10.00">lib</text>
</a>
</g>
</g>
<!-- dir_d55bcc4ff2ba5607e5a70b0bc0cc94cd&#45;&gt;dir_483b34426c5bbf1dce47c63ef54f04c5 -->
<g id="edge5" class="edge">
<title>dir_d55bcc4ff2ba5607e5a70b0bc0cc94cd&#45;&gt;dir_483b34426c5bbf1dce47c63ef54f04c5</title>
<path fill="none" stroke="black" d="M79.41,-143.82C87.68,-134.1 96.98,-121.25 102,-108 109.28,-88.79 111.17,-65.63 111.29,-47.76"/>
<polygon fill="black" stroke="black" points="114.79,-47.81 111.17,-37.85 107.8,-47.9 114.79,-47.81"/>
<g id="a_edge5&#45;headlabel"><a xlink:href="dir_000134_000123.html" target="_top" xlink:title="1">
<text xml:space="preserve" text-anchor="middle" x="117.66" y="-45.98" font-family="Helvetica,sans-Serif" font-size="10.00">1</text>
</a>
</g>
</g>
<!-- dir_07b471ff108ade29d714c67783960c47&#45;&gt;dir_19153e9772a0a669b668c0714a289e75 -->
<g id="edge1" class="edge">
<title>dir_07b471ff108ade29d714c67783960c47&#45;&gt;dir_19153e9772a0a669b668c0714a289e75</title>
<path fill="none" stroke="black" d="M54.1,-71.7C50.13,-63.98 45.37,-54.71 40.94,-46.11"/>
<polygon fill="black" stroke="black" points="44.17,-44.74 36.49,-37.45 37.95,-47.94 44.17,-44.74"/>
<g id="a_edge1&#45;headlabel"><a xlink:href="dir_000004_000082.html" target="_top" xlink:title="9">
<text xml:space="preserve" text-anchor="middle" x="47.65" y="-41.42" font-family="Helvetica,sans-Serif" font-size="10.00">9</text>
</a>
</g>
</g>
<!-- dir_07b471ff108ade29d714c67783960c47&#45;&gt;dir_483b34426c5bbf1dce47c63ef54f04c5 -->
<g id="edge2" class="edge">
<title>dir_07b471ff108ade29d714c67783960c47&#45;&gt;dir_483b34426c5bbf1dce47c63ef54f04c5</title>
<path fill="none" stroke="black" d="M74.62,-71.7C79.91,-63.81 86.3,-54.3 92.18,-45.55"/>
<polygon fill="black" stroke="black" points="95,-47.61 97.67,-37.36 89.19,-43.71 95,-47.61"/>
<g id="a_edge2&#45;headlabel"><a xlink:href="dir_000004_000123.html" target="_top" xlink:title="16">
<text xml:space="preserve" text-anchor="middle" x="96.2" y="-47.05" font-family="Helvetica,sans-Serif" font-size="10.00">16</text>
</a>
</g>
</g>
</g>
</svg>
