<?xml version="1.0" encoding="UTF-8" standalone="no"?>
<!DOCTYPE svg PUBLIC "-//W3C//DTD SVG 1.1//EN"
 "http://www.w3.org/Graphics/SVG/1.1/DTD/svg11.dtd">
<!-- Generated by graphviz version 13.1.0 (20250701.0955)
 -->
<!-- Title: Graphical Class Hierarchy Pages: 1 -->
<svg width="343pt" height="66pt"
 viewBox="0.00 0.00 343.00 66.00" xmlns="http://www.w3.org/2000/svg" xmlns:xlink="http://www.w3.org/1999/xlink">
<g id="graph0" class="graph" transform="scale(1 1) rotate(0) translate(4 62.25)">
<title>Graphical Class Hierarchy</title>
<polygon fill="white" stroke="none" points="-4,4 -4,-62.25 339.25,-62.25 339.25,4 -4,4"/>
<!-- Node0 -->
<g id="node1" class="node">
<title>Node0</title>
<g id="a_node1"><a xlink:href="class_protected_base.html" target="_top" xlink:title=" ">
<polygon fill="white" stroke="black" points="0,-19.5 0,-38.75 80.5,-38.75 80.5,-19.5 0,-19.5"/>
<text xml:space="preserve" text-anchor="middle" x="40.25" y="-25.25" font-family="Helvetica,sans-Serif" font-size="10.00">ProtectedBase</text>
</a>
</g>
</g>
<!-- Node1 -->
<g id="node2" class="node">
<title>Node1</title>
<g id="a_node2"><a xlink:href="class_protected.html" target="_top" xlink:title=" ">
<polygon fill="white" stroke="black" points="116.5,-38.5 116.5,-57.75 226.25,-57.75 226.25,-38.5 116.5,-38.5"/>
<text xml:space="preserve" text-anchor="middle" x="171.38" y="-44.25" font-family="Helvetica,sans-Serif" font-size="10.00">Protected&lt; objType &gt;</text>
</a>
</g>
</g>
<!-- Node0&#45;&gt;Node1 -->
<g id="edge1" class="edge">
<title>Node0&#45;&gt;Node1</title>
<path fill="none" stroke="midnightblue" d="M91.84,-36.57C99.91,-37.76 108.29,-38.99 116.43,-40.19"/>
<polygon fill="midnightblue" stroke="midnightblue" points="92.59,-33.14 82.19,-35.15 91.57,-40.07 92.59,-33.14"/>
</g>
<!-- Node2 -->
<g id="node3" class="node">
<title>Node2</title>
<g id="a_node3"><a xlink:href="class_protected_object.html" target="_top" xlink:title=" ">
<polygon fill="white" stroke="black" points="128.12,-0.5 128.12,-19.75 214.62,-19.75 214.62,-0.5 128.12,-0.5"/>
<text xml:space="preserve" text-anchor="middle" x="171.38" y="-6.25" font-family="Helvetica,sans-Serif" font-size="10.00">ProtectedObject</text>
</a>
</g>
</g>
<!-- Node0&#45;&gt;Node2 -->
<g id="edge2" class="edge">
<title>Node0&#45;&gt;Node2</title>
<path fill="none" stroke="midnightblue" d="M91.9,-21.67C103.86,-19.91 116.49,-18.05 128.03,-16.36"/>
<polygon fill="midnightblue" stroke="midnightblue" points="91.57,-18.18 82.19,-23.1 92.59,-25.11 91.57,-18.18"/>
</g>
<!-- Node3 -->
<g id="node4" class="node">
<title>Node3</title>
<g id="a_node4"><a xlink:href="class_protected_set.html" target="_top" xlink:title=" ">
<polygon fill="white" stroke="black" points="262.25,-0.5 262.25,-19.75 335.25,-19.75 335.25,-0.5 262.25,-0.5"/>
<text xml:space="preserve" text-anchor="middle" x="298.75" y="-6.25" font-family="Helvetica,sans-Serif" font-size="10.00">ProtectedSet</text>
</a>
</g>
</g>
<!-- Node2&#45;&gt;Node3 -->
<g id="edge3" class="edge">
<title>Node2&#45;&gt;Node3</title>
<path fill="none" stroke="midnightblue" d="M226.23,-10.12C238.33,-10.12 250.89,-10.12 262.03,-10.12"/>
<polygon fill="midnightblue" stroke="midnightblue" points="226.33,-6.63 216.33,-10.13 226.33,-13.63 226.33,-6.63"/>
</g>
</g>
</svg>
