<?xml version="1.0" encoding="UTF-8" standalone="no"?>
<!DOCTYPE svg PUBLIC "-//W3C//DTD SVG 1.1//EN"
 "http://www.w3.org/Graphics/SVG/1.1/DTD/svg11.dtd">
<!-- Generated by graphviz version 13.1.0 (20250701.0955)
 -->
<!-- Title: Graphical Class Hierarchy Pages: 1 -->
<svg width="430pt" height="85pt"
 viewBox="0.00 0.00 430.00 85.00" xmlns="http://www.w3.org/2000/svg" xmlns:xlink="http://www.w3.org/1999/xlink">
<g id="graph0" class="graph" transform="scale(1 1) rotate(0) translate(4 81.25)">
<title>Graphical Class Hierarchy</title>
<polygon fill="white" stroke="none" points="-4,4 -4,-81.25 426.25,-81.25 426.25,4 -4,4"/>
<!-- Node0 -->
<g id="node1" class="node">
<title>Node0</title>
<g id="a_node1"><a xlink:href="class_api_connection.html" target="_top" xlink:title=" ">
<polygon fill="white" stroke="black" points="0,-38.5 0,-57.75 79.75,-57.75 79.75,-38.5 0,-38.5"/>
<text xml:space="preserve" text-anchor="middle" x="39.88" y="-44.25" font-family="Helvetica,sans-Serif" font-size="10.00">ApiConnection</text>
</a>
</g>
</g>
<!-- Node1 -->
<g id="node2" class="node">
<title>Node1</title>
<g id="a_node2"><a xlink:href="class_sys_named_pipe_connection.html" target="_top" xlink:title=" ">
<polygon fill="white" stroke="black" points="115.75,-57.5 115.75,-76.75 249.5,-76.75 249.5,-57.5 115.75,-57.5"/>
<text xml:space="preserve" text-anchor="middle" x="182.62" y="-63.25" font-family="Helvetica,sans-Serif" font-size="10.00">SysNamedPipeConnection</text>
</a>
</g>
</g>
<!-- Node0&#45;&gt;Node1 -->
<g id="edge1" class="edge">
<title>Node0&#45;&gt;Node1</title>
<path fill="none" stroke="midnightblue" d="M91.25,-54.93C99.08,-55.98 107.28,-57.09 115.4,-58.19"/>
<polygon fill="midnightblue" stroke="midnightblue" points="91.96,-51.49 81.58,-53.62 91.02,-58.43 91.96,-51.49"/>
</g>
<!-- Node2 -->
<g id="node3" class="node">
<title>Node2</title>
<g id="a_node3"><a xlink:href="class_sys_socket_connection.html" target="_top" xlink:title=" ">
<polygon fill="white" stroke="black" points="125.88,-19.5 125.88,-38.75 239.38,-38.75 239.38,-19.5 125.88,-19.5"/>
<text xml:space="preserve" text-anchor="middle" x="182.62" y="-25.25" font-family="Helvetica,sans-Serif" font-size="10.00">SysSocketConnection</text>
</a>
</g>
</g>
<!-- Node0&#45;&gt;Node2 -->
<g id="edge2" class="edge">
<title>Node0&#45;&gt;Node2</title>
<path fill="none" stroke="midnightblue" d="M91.33,-41.31C102.42,-39.82 114.23,-38.22 125.53,-36.7"/>
<polygon fill="midnightblue" stroke="midnightblue" points="91.02,-37.82 81.58,-42.63 91.96,-44.76 91.02,-37.82"/>
</g>
<!-- Node3 -->
<g id="node4" class="node">
<title>Node3</title>
<g id="a_node4"><a xlink:href="class_sys_inet_socket_connection.html" target="_top" xlink:title=" ">
<polygon fill="white" stroke="black" points="288.88,-38.5 288.88,-57.75 418.88,-57.75 418.88,-38.5 288.88,-38.5"/>
<text xml:space="preserve" text-anchor="middle" x="353.88" y="-44.25" font-family="Helvetica,sans-Serif" font-size="10.00">SysInetSocketConnection</text>
</a>
</g>
</g>
<!-- Node2&#45;&gt;Node3 -->
<g id="edge3" class="edge">
<title>Node2&#45;&gt;Node3</title>
<path fill="none" stroke="midnightblue" d="M250.76,-36.66C263.21,-38.06 276.18,-39.52 288.54,-40.9"/>
<polygon fill="midnightblue" stroke="midnightblue" points="251.35,-33.21 241.02,-35.57 250.56,-40.16 251.35,-33.21"/>
</g>
<!-- Node4 -->
<g id="node5" class="node">
<title>Node4</title>
<g id="a_node5"><a xlink:href="class_sys_local_socket_connection.html" target="_top" xlink:title=" ">
<polygon fill="white" stroke="black" points="285.5,-0.5 285.5,-19.75 422.25,-19.75 422.25,-0.5 285.5,-0.5"/>
<text xml:space="preserve" text-anchor="middle" x="353.88" y="-6.25" font-family="Helvetica,sans-Serif" font-size="10.00">SysLocalSocketConnection</text>
</a>
</g>
</g>
<!-- Node2&#45;&gt;Node4 -->
<g id="edge4" class="edge">
<title>Node2&#45;&gt;Node4</title>
<path fill="none" stroke="midnightblue" d="M250.7,-21.6C262.07,-20.32 273.88,-18.99 285.26,-17.72"/>
<polygon fill="midnightblue" stroke="midnightblue" points="250.56,-18.09 241.02,-22.68 251.35,-25.04 250.56,-18.09"/>
</g>
</g>
</svg>
