<?xml version="1.0" encoding="UTF-8" standalone="no"?>
<!DOCTYPE svg PUBLIC "-//W3C//DTD SVG 1.1//EN"
 "http://www.w3.org/Graphics/SVG/1.1/DTD/svg11.dtd">
<!-- Generated by graphviz version 13.1.0 (20250701.0955)
 -->
<!-- Title: Graphical Class Hierarchy Pages: 1 -->
<svg width="206pt" height="142pt"
 viewBox="0.00 0.00 206.00 142.00" xmlns="http://www.w3.org/2000/svg" xmlns:xlink="http://www.w3.org/1999/xlink">
<g id="graph0" class="graph" transform="scale(1 1) rotate(0) translate(4 138.25)">
<title>Graphical Class Hierarchy</title>
<polygon fill="white" stroke="none" points="-4,4 -4,-138.25 201.75,-138.25 201.75,4 -4,4"/>
<!-- Node0 -->
<g id="node1" class="node">
<title>Node0</title>
<g id="a_node1"><a xlink:href="class_sys_thread.html" target="_top" xlink:title=" ">
<polygon fill="white" stroke="black" points="0,-57.5 0,-76.75 63.25,-76.75 63.25,-57.5 0,-57.5"/>
<text xml:space="preserve" text-anchor="middle" x="31.62" y="-63.25" font-family="Helvetica,sans-Serif" font-size="10.00">SysThread</text>
</a>
</g>
</g>
<!-- Node1 -->
<g id="node2" class="node">
<title>Node1</title>
<g id="a_node2"><a xlink:href="class_a_p_i_server_thread.html" target="_top" xlink:title=" ">
<polygon fill="white" stroke="black" points="103,-114.5 103,-133.75 194,-133.75 194,-114.5 103,-114.5"/>
<text xml:space="preserve" text-anchor="middle" x="148.5" y="-120.25" font-family="Helvetica,sans-Serif" font-size="10.00">APIServerThread</text>
</a>
</g>
</g>
<!-- Node0&#45;&gt;Node1 -->
<g id="edge1" class="edge">
<title>Node0&#45;&gt;Node1</title>
<path fill="none" stroke="midnightblue" d="M58.23,-82.87C70.43,-90.08 85.36,-98.47 99.25,-105.12 105.83,-108.28 113.07,-111.33 119.9,-114.04"/>
<polygon fill="midnightblue" stroke="midnightblue" points="60.38,-80.08 50,-77.94 56.78,-86.08 60.38,-80.08"/>
</g>
<!-- Node2 -->
<g id="node3" class="node">
<title>Node2</title>
<g id="a_node3"><a xlink:href="class_error_reader_thread.html" target="_top" xlink:title=" ">
<polygon fill="white" stroke="black" points="99.25,-76.5 99.25,-95.75 197.75,-95.75 197.75,-76.5 99.25,-76.5"/>
<text xml:space="preserve" text-anchor="middle" x="148.5" y="-82.25" font-family="Helvetica,sans-Serif" font-size="10.00">ErrorReaderThread</text>
</a>
</g>
</g>
<!-- Node0&#45;&gt;Node2 -->
<g id="edge2" class="edge">
<title>Node0&#45;&gt;Node2</title>
<path fill="none" stroke="midnightblue" d="M74.88,-74.11C82.76,-75.42 91.05,-76.79 99.1,-78.12"/>
<polygon fill="midnightblue" stroke="midnightblue" points="75.64,-70.69 65.21,-72.51 74.5,-77.6 75.64,-70.69"/>
</g>
<!-- Node3 -->
<g id="node4" class="node">
<title>Node3</title>
<g id="a_node4"><a xlink:href="class_input_writer_thread.html" target="_top" xlink:title=" ">
<polygon fill="white" stroke="black" points="101.88,-38.5 101.88,-57.75 195.12,-57.75 195.12,-38.5 101.88,-38.5"/>
<text xml:space="preserve" text-anchor="middle" x="148.5" y="-44.25" font-family="Helvetica,sans-Serif" font-size="10.00">InputWriterThread</text>
</a>
</g>
</g>
<!-- Node0&#45;&gt;Node3 -->
<g id="edge3" class="edge">
<title>Node0&#45;&gt;Node3</title>
<path fill="none" stroke="midnightblue" d="M74.84,-60.14C83.59,-58.7 92.85,-57.16 101.72,-55.7"/>
<polygon fill="midnightblue" stroke="midnightblue" points="74.5,-56.65 65.21,-61.74 75.64,-63.56 74.5,-56.65"/>
</g>
<!-- Node4 -->
<g id="node5" class="node">
<title>Node4</title>
<g id="a_node5"><a xlink:href="class_reader_thread.html" target="_top" xlink:title=" ">
<polygon fill="white" stroke="black" points="109.75,-0.5 109.75,-19.75 187.25,-19.75 187.25,-0.5 109.75,-0.5"/>
<text xml:space="preserve" text-anchor="middle" x="148.5" y="-6.25" font-family="Helvetica,sans-Serif" font-size="10.00">ReaderThread</text>
</a>
</g>
</g>
<!-- Node0&#45;&gt;Node4 -->
<g id="edge4" class="edge">
<title>Node0&#45;&gt;Node4</title>
<path fill="none" stroke="midnightblue" d="M58.23,-51.38C70.43,-44.17 85.36,-35.78 99.25,-29.12 105.83,-25.97 113.07,-22.92 119.9,-20.21"/>
<polygon fill="midnightblue" stroke="midnightblue" points="56.78,-48.17 50,-56.31 60.38,-54.17 56.78,-48.17"/>
</g>
</g>
</svg>
