<?xml version="1.0" encoding="UTF-8" standalone="no"?>
<!DOCTYPE svg PUBLIC "-//W3C//DTD SVG 1.1//EN"
 "http://www.w3.org/Graphics/SVG/1.1/DTD/svg11.dtd">
<!-- Generated by graphviz version 13.1.0 (20250701.0955)
 -->
<!-- Title: rxsubcom.cpp Pages: 1 -->
<svg width="478pt" height="141pt"
 viewBox="0.00 0.00 478.00 141.00" xmlns="http://www.w3.org/2000/svg" xmlns:xlink="http://www.w3.org/1999/xlink">
<g id="graph0" class="graph" transform="scale(1 1) rotate(0) translate(4 136.75)">
<title>rxsubcom.cpp</title>
<polygon fill="white" stroke="none" points="-4,4 -4,-136.75 474.25,-136.75 474.25,4 -4,4"/>
<!-- Node1 -->
<g id="node1" class="node">
<title>Node1</title>
<g id="a_node1"><a xlink:title=" ">
<polygon fill="#bfbfbf" stroke="black" points="147,-113 147,-132.25 224.5,-132.25 224.5,-113 147,-113"/>
<text xml:space="preserve" text-anchor="middle" x="185.75" y="-118.75" font-family="Helvetica,sans-Serif" font-size="10.00">rxsubcom.cpp</text>
</a>
</g>
</g>
<!-- Node2 -->
<g id="node2" class="node">
<title>Node2</title>
<g id="a_node2"><a xlink:title=" ">
<polygon fill="white" stroke="#bfbfbf" points="0,-56.75 0,-76 47.5,-76 47.5,-56.75 0,-56.75"/>
<text xml:space="preserve" text-anchor="middle" x="23.75" y="-62.5" font-family="Helvetica,sans-Serif" font-size="10.00">limits.h</text>
</a>
</g>
</g>
<!-- Node1&#45;&gt;Node2 -->
<g id="edge1" class="edge">
<title>Node1&#45;&gt;Node2</title>
<path fill="none" stroke="midnightblue" d="M158.63,-112.54C131.16,-103.34 88.55,-89.07 58.58,-79.04"/>
<polygon fill="midnightblue" stroke="midnightblue" points="59.81,-75.76 49.21,-75.9 57.59,-82.4 59.81,-75.76"/>
</g>
<!-- Node3 -->
<g id="node3" class="node">
<title>Node3</title>
<g id="a_node3"><a xlink:title=" ">
<polygon fill="white" stroke="#bfbfbf" points="65.62,-56.75 65.62,-76 113.88,-76 113.88,-56.75 65.62,-56.75"/>
<text xml:space="preserve" text-anchor="middle" x="89.75" y="-62.5" font-family="Helvetica,sans-Serif" font-size="10.00">string.h</text>
</a>
</g>
</g>
<!-- Node1&#45;&gt;Node3 -->
<g id="edge2" class="edge">
<title>Node1&#45;&gt;Node3</title>
<path fill="none" stroke="midnightblue" d="M169.9,-112.67C155.03,-104.26 132.54,-91.56 115.17,-81.74"/>
<polygon fill="midnightblue" stroke="midnightblue" points="117.37,-78.96 106.94,-77.09 113.93,-85.06 117.37,-78.96"/>
</g>
<!-- Node4 -->
<g id="node4" class="node">
<title>Node4</title>
<g id="a_node4"><a xlink:title=" ">
<polygon fill="white" stroke="#bfbfbf" points="132.12,-56.75 132.12,-76 177.38,-76 177.38,-56.75 132.12,-56.75"/>
<text xml:space="preserve" text-anchor="middle" x="154.75" y="-62.5" font-family="Helvetica,sans-Serif" font-size="10.00">stdio.h</text>
</a>
</g>
</g>
<!-- Node1&#45;&gt;Node4 -->
<g id="edge3" class="edge">
<title>Node1&#45;&gt;Node4</title>
<path fill="none" stroke="midnightblue" d="M180.63,-112.67C176.52,-105.48 170.61,-95.14 165.48,-86.15"/>
<polygon fill="midnightblue" stroke="midnightblue" points="168.52,-84.43 160.52,-77.48 162.45,-87.9 168.52,-84.43"/>
</g>
<!-- Node5 -->
<g id="node5" class="node">
<title>Node5</title>
<g id="a_node5"><a xlink:href="rexx_8h.html" target="_top" xlink:title=" ">
<polygon fill="white" stroke="black" points="195.25,-56.75 195.25,-76 238.25,-76 238.25,-56.75 195.25,-56.75"/>
<text xml:space="preserve" text-anchor="middle" x="216.75" y="-62.5" font-family="Helvetica,sans-Serif" font-size="10.00">rexx.h</text>
</a>
</g>
</g>
<!-- Node1&#45;&gt;Node5 -->
<g id="edge4" class="edge">
<title>Node1&#45;&gt;Node5</title>
<path fill="none" stroke="midnightblue" d="M190.87,-112.67C194.98,-105.48 200.89,-95.14 206.02,-86.15"/>
<polygon fill="midnightblue" stroke="midnightblue" points="209.05,-87.9 210.98,-77.48 202.98,-84.43 209.05,-87.9"/>
</g>
<!-- Node10 -->
<g id="node10" class="node">
<title>Node10</title>
<g id="a_node10"><a xlink:href="_rexx_internal_apis_8h.html" target="_top" xlink:title=" ">
<polygon fill="white" stroke="black" points="256.12,-56.75 256.12,-76 355.38,-76 355.38,-56.75 256.12,-56.75"/>
<text xml:space="preserve" text-anchor="middle" x="305.75" y="-62.5" font-family="Helvetica,sans-Serif" font-size="10.00">RexxInternalApis.h</text>
</a>
</g>
</g>
<!-- Node1&#45;&gt;Node10 -->
<g id="edge9" class="edge">
<title>Node1&#45;&gt;Node10</title>
<path fill="none" stroke="midnightblue" d="M205.84,-112.54C224.79,-103.98 253.46,-91.02 275.23,-81.17"/>
<polygon fill="midnightblue" stroke="midnightblue" points="276.55,-84.42 284.22,-77.11 273.67,-78.04 276.55,-84.42"/>
</g>
<!-- Node11 -->
<g id="node11" class="node">
<title>Node11</title>
<g id="a_node11"><a xlink:href="_rexx_error_codes_8h.html" target="_top" xlink:title=" ">
<polygon fill="white" stroke="black" points="373.25,-56.75 373.25,-76 470.25,-76 470.25,-56.75 373.25,-56.75"/>
<text xml:space="preserve" text-anchor="middle" x="421.75" y="-62.5" font-family="Helvetica,sans-Serif" font-size="10.00">RexxErrorCodes.h</text>
</a>
</g>
</g>
<!-- Node1&#45;&gt;Node11 -->
<g id="edge10" class="edge">
<title>Node1&#45;&gt;Node11</title>
<path fill="none" stroke="midnightblue" d="M224.99,-112.61C265.14,-103.38 327.68,-89 371.45,-78.94"/>
<polygon fill="midnightblue" stroke="midnightblue" points="371.98,-82.41 380.95,-76.75 370.42,-75.58 371.98,-82.41"/>
</g>
<!-- Node6 -->
<g id="node6" class="node">
<title>Node6</title>
<g id="a_node6"><a xlink:title=" ">
<polygon fill="white" stroke="#bfbfbf" points="29.88,-0.5 29.88,-19.75 109.62,-19.75 109.62,-0.5 29.88,-0.5"/>
<text xml:space="preserve" text-anchor="middle" x="69.75" y="-6.25" font-family="Helvetica,sans-Serif" font-size="10.00">rexxapitypes.h</text>
</a>
</g>
</g>
<!-- Node5&#45;&gt;Node6 -->
<g id="edge5" class="edge">
<title>Node5&#45;&gt;Node6</title>
<path fill="none" stroke="midnightblue" d="M195.06,-57.37C171.23,-48.58 132.61,-34.32 104.54,-23.96"/>
<polygon fill="midnightblue" stroke="midnightblue" points="105.99,-20.77 95.4,-20.59 103.57,-27.34 105.99,-20.77"/>
</g>
<!-- Node7 -->
<g id="node7" class="node">
<title>Node7</title>
<g id="a_node7"><a xlink:href="rexxapidefs_8h.html" target="_top" xlink:title=" ">
<polygon fill="white" stroke="black" points="127.5,-0.5 127.5,-19.75 202,-19.75 202,-0.5 127.5,-0.5"/>
<text xml:space="preserve" text-anchor="middle" x="164.75" y="-6.25" font-family="Helvetica,sans-Serif" font-size="10.00">rexxapidefs.h</text>
</a>
</g>
</g>
<!-- Node5&#45;&gt;Node7 -->
<g id="edge6" class="edge">
<title>Node5&#45;&gt;Node7</title>
<path fill="none" stroke="midnightblue" d="M208.16,-56.42C200.82,-48.75 190.04,-37.51 181.06,-28.14"/>
<polygon fill="midnightblue" stroke="midnightblue" points="183.67,-25.81 174.22,-21.01 178.62,-30.65 183.67,-25.81"/>
</g>
<!-- Node8 -->
<g id="node8" class="node">
<title>Node8</title>
<g id="a_node8"><a xlink:title=" ">
<polygon fill="white" stroke="#bfbfbf" points="220.25,-0.5 220.25,-19.75 317.25,-19.75 317.25,-0.5 220.25,-0.5"/>
<text xml:space="preserve" text-anchor="middle" x="268.75" y="-6.25" font-family="Helvetica,sans-Serif" font-size="10.00">rexxplatformdefs.h</text>
</a>
</g>
</g>
<!-- Node5&#45;&gt;Node8 -->
<g id="edge7" class="edge">
<title>Node5&#45;&gt;Node8</title>
<path fill="none" stroke="midnightblue" d="M225.34,-56.42C232.68,-48.75 243.46,-37.51 252.44,-28.14"/>
<polygon fill="midnightblue" stroke="midnightblue" points="254.88,-30.65 259.28,-21.01 249.83,-25.81 254.88,-30.65"/>
</g>
<!-- Node9 -->
<g id="node9" class="node">
<title>Node9</title>
<g id="a_node9"><a xlink:title=" ">
<polygon fill="white" stroke="#bfbfbf" points="335.62,-0.5 335.62,-19.75 431.88,-19.75 431.88,-0.5 335.62,-0.5"/>
<text xml:space="preserve" text-anchor="middle" x="383.75" y="-6.25" font-family="Helvetica,sans-Serif" font-size="10.00">rexxplatformapis.h</text>
</a>
</g>
</g>
<!-- Node5&#45;&gt;Node9 -->
<g id="edge8" class="edge">
<title>Node5&#45;&gt;Node9</title>
<path fill="none" stroke="midnightblue" d="M238.58,-58.28C265.59,-49.51 312.04,-34.42 345.13,-23.67"/>
<polygon fill="midnightblue" stroke="midnightblue" points="345.92,-27.1 354.35,-20.68 343.75,-20.44 345.92,-27.1"/>
</g>
</g>
</svg>
