<?xml version="1.0" encoding="UTF-8" standalone="no"?>
<!DOCTYPE svg PUBLIC "-//W3C//DTD SVG 1.1//EN"
 "http://www.w3.org/Graphics/SVG/1.1/DTD/svg11.dtd">
<!-- Generated by graphviz version 13.1.0 (20250701.0955)
 -->
<!-- Title: MiscSystem.cpp Pages: 1 -->
<svg width="2231pt" height="310pt"
 viewBox="0.00 0.00 2231.00 310.00" xmlns="http://www.w3.org/2000/svg" xmlns:xlink="http://www.w3.org/1999/xlink">
<g id="graph0" class="graph" transform="scale(1 1) rotate(0) translate(4 305.5)">
<title>MiscSystem.cpp</title>
<polygon fill="white" stroke="none" points="-4,4 -4,-305.5 2226.62,-305.5 2226.62,4 -4,4"/>
<!-- Node1 -->
<g id="node1" class="node">
<title>Node1</title>
<g id="a_node1"><a xlink:title=" ">
<polygon fill="#bfbfbf" stroke="black" points="1060.12,-281.75 1060.12,-301 1149.62,-301 1149.62,-281.75 1060.12,-281.75"/>
<text xml:space="preserve" text-anchor="middle" x="1104.88" y="-287.5" font-family="Helvetica,sans-Serif" font-size="10.00">MiscSystem.cpp</text>
</a>
</g>
</g>
<!-- Node2 -->
<g id="node2" class="node">
<title>Node2</title>
<g id="a_node2"><a xlink:href="_rexx_core_8h.html" target="_top" xlink:title=" ">
<polygon fill="white" stroke="black" points="1315.62,-169.25 1315.62,-188.5 1384.12,-188.5 1384.12,-169.25 1315.62,-169.25"/>
<text xml:space="preserve" text-anchor="middle" x="1349.88" y="-175" font-family="Helvetica,sans-Serif" font-size="10.00">RexxCore.h</text>
</a>
</g>
</g>
<!-- Node1&#45;&gt;Node2 -->
<g id="edge1" class="edge">
<title>Node1&#45;&gt;Node2</title>
<path fill="none" stroke="midnightblue" d="M1124.92,-281.33C1167.83,-261.98 1268.77,-216.45 1319.56,-193.55"/>
<polygon fill="midnightblue" stroke="midnightblue" points="1320.84,-196.81 1328.51,-189.51 1317.96,-190.43 1320.84,-196.81"/>
</g>
<!-- Node21 -->
<g id="node30" class="node">
<title>Node21</title>
<g id="a_node30"><a xlink:href="_string_class_8hpp.html" target="_top" xlink:title=" ">
<polygon fill="white" stroke="black" points="142,-225.5 142,-244.75 227.75,-244.75 227.75,-225.5 142,-225.5"/>
<text xml:space="preserve" text-anchor="middle" x="184.88" y="-231.25" font-family="Helvetica,sans-Serif" font-size="10.00">StringClass.hpp</text>
</a>
</g>
</g>
<!-- Node1&#45;&gt;Node21 -->
<g id="edge35" class="edge">
<title>Node1&#45;&gt;Node21</title>
<path fill="none" stroke="midnightblue" d="M1059.88,-287.72C906.8,-278.7 406.48,-249.19 239.61,-239.35"/>
<polygon fill="midnightblue" stroke="midnightblue" points="239.88,-235.86 229.69,-238.77 239.46,-242.85 239.88,-235.86"/>
</g>
<!-- Node47 -->
<g id="node36" class="node">
<title>Node47</title>
<g id="a_node36"><a xlink:href="unix_2_system_interpreter_8hpp.html" target="_top" xlink:title=" ">
<polygon fill="white" stroke="black" points="1370.88,-225.5 1370.88,-244.75 1482.88,-244.75 1482.88,-225.5 1370.88,-225.5"/>
<text xml:space="preserve" text-anchor="middle" x="1426.88" y="-231.25" font-family="Helvetica,sans-Serif" font-size="10.00">SystemInterpreter.hpp</text>
</a>
</g>
</g>
<!-- Node1&#45;&gt;Node47 -->
<g id="edge45" class="edge">
<title>Node1&#45;&gt;Node47</title>
<path fill="none" stroke="midnightblue" d="M1149.99,-282.77C1205.18,-273.48 1299.01,-257.67 1361.96,-247.06"/>
<polygon fill="midnightblue" stroke="midnightblue" points="1362.17,-250.58 1371.45,-245.46 1361.01,-243.67 1362.17,-250.58"/>
</g>
<!-- Node51 -->
<g id="node40" class="node">
<title>Node51</title>
<g id="a_node40"><a xlink:href="_activity_manager_8hpp.html" target="_top" xlink:title=" ">
<polygon fill="white" stroke="black" points="924.62,-225.5 924.62,-244.75 1029.12,-244.75 1029.12,-225.5 924.62,-225.5"/>
<text xml:space="preserve" text-anchor="middle" x="976.88" y="-231.25" font-family="Helvetica,sans-Serif" font-size="10.00">ActivityManager.hpp</text>
</a>
</g>
</g>
<!-- Node1&#45;&gt;Node51 -->
<g id="edge50" class="edge">
<title>Node1&#45;&gt;Node51</title>
<path fill="none" stroke="midnightblue" d="M1083.45,-281.29C1063.05,-272.65 1032.1,-259.53 1008.79,-249.65"/>
<polygon fill="midnightblue" stroke="midnightblue" points="1010.34,-246.51 999.76,-245.83 1007.6,-252.95 1010.34,-246.51"/>
</g>
<!-- Node3 -->
<g id="node3" class="node">
<title>Node3</title>
<g id="a_node3"><a xlink:href="oorexxapi_8h.html" target="_top" xlink:title=" ">
<polygon fill="white" stroke="black" points="1937.75,-113 1937.75,-132.25 2004,-132.25 2004,-113 1937.75,-113"/>
<text xml:space="preserve" text-anchor="middle" x="1970.88" y="-118.75" font-family="Helvetica,sans-Serif" font-size="10.00">oorexxapi.h</text>
</a>
</g>
</g>
<!-- Node2&#45;&gt;Node3 -->
<g id="edge2" class="edge">
<title>Node2&#45;&gt;Node3</title>
<path fill="none" stroke="midnightblue" d="M1384.53,-170.08C1387.35,-169.58 1390.15,-169.13 1392.88,-168.75 1627.15,-136.12 1689.32,-163.35 1923.88,-132.75 1924.69,-132.64 1925.52,-132.53 1926.35,-132.41"/>
<polygon fill="midnightblue" stroke="midnightblue" points="1926.51,-135.93 1935.83,-130.9 1925.4,-129.02 1926.51,-135.93"/>
</g>
<!-- Node10 -->
<g id="node6" class="node">
<title>Node10</title>
<g id="a_node6"><a xlink:title=" ">
<polygon fill="white" stroke="#bfbfbf" points="2115.12,-113 2115.12,-132.25 2222.62,-132.25 2222.62,-113 2115.12,-113"/>
<text xml:space="preserve" text-anchor="middle" x="2168.88" y="-118.75" font-family="Helvetica,sans-Serif" font-size="10.00">PlatformDefinitions.h</text>
</a>
</g>
</g>
<!-- Node2&#45;&gt;Node10 -->
<g id="edge5" class="edge">
<title>Node2&#45;&gt;Node10</title>
<path fill="none" stroke="midnightblue" d="M1384.53,-170.03C1387.34,-169.54 1390.15,-169.11 1392.88,-168.75 1704.25,-128.12 1788.7,-163.08 2103.51,-132.99"/>
<polygon fill="midnightblue" stroke="midnightblue" points="2103.69,-136.49 2113.3,-132.04 2103.01,-129.52 2103.69,-136.49"/>
</g>
<!-- Node11 -->
<g id="node7" class="node">
<title>Node11</title>
<g id="a_node7"><a xlink:href="_class_type_codes_8h.html" target="_top" xlink:title=" ">
<polygon fill="white" stroke="black" points="1806.25,-0.5 1806.25,-19.75 1905.5,-19.75 1905.5,-0.5 1806.25,-0.5"/>
<text xml:space="preserve" text-anchor="middle" x="1855.88" y="-6.25" font-family="Helvetica,sans-Serif" font-size="10.00">ClassTypeCodes.h</text>
</a>
</g>
</g>
<!-- Node2&#45;&gt;Node11 -->
<g id="edge6" class="edge">
<title>Node2&#45;&gt;Node11</title>
<path fill="none" stroke="midnightblue" d="M1384.55,-170.2C1387.36,-169.67 1390.16,-169.18 1392.88,-168.75 1540.31,-145.22 1581.72,-167.72 1726.88,-132.75 1794.88,-116.37 1834.22,-134.13 1873.88,-76.5 1883.55,-62.43 1876.49,-43.32 1868.54,-29.4"/>
<polygon fill="midnightblue" stroke="midnightblue" points="1871.67,-27.79 1863.37,-21.21 1865.75,-31.53 1871.67,-27.79"/>
</g>
<!-- Node12 -->
<g id="node8" class="node">
<title>Node12</title>
<g id="a_node8"><a xlink:href="_object_class_8hpp.html" target="_top" xlink:title=" ">
<polygon fill="white" stroke="black" points="1123.5,-113 1123.5,-132.25 1212.25,-132.25 1212.25,-113 1123.5,-113"/>
<text xml:space="preserve" text-anchor="middle" x="1167.88" y="-118.75" font-family="Helvetica,sans-Serif" font-size="10.00">ObjectClass.hpp</text>
</a>
</g>
</g>
<!-- Node2&#45;&gt;Node12 -->
<g id="edge7" class="edge">
<title>Node2&#45;&gt;Node12</title>
<path fill="none" stroke="midnightblue" d="M1319.41,-168.79C1289.23,-159.8 1242.78,-145.95 1209.27,-135.96"/>
<polygon fill="midnightblue" stroke="midnightblue" points="1210.47,-132.67 1199.89,-133.17 1208.47,-139.38 1210.47,-132.67"/>
</g>
<!-- Node18 -->
<g id="node13" class="node">
<title>Node18</title>
<g id="a_node13"><a xlink:href="_table_class_8hpp.html" target="_top" xlink:title=" ">
<polygon fill="white" stroke="black" points="1634.12,-113 1634.12,-132.25 1717.62,-132.25 1717.62,-113 1634.12,-113"/>
<text xml:space="preserve" text-anchor="middle" x="1675.88" y="-118.75" font-family="Helvetica,sans-Serif" font-size="10.00">TableClass.hpp</text>
</a>
</g>
</g>
<!-- Node2&#45;&gt;Node18 -->
<g id="edge13" class="edge">
<title>Node2&#45;&gt;Node18</title>
<path fill="none" stroke="midnightblue" d="M1384.58,-170.35C1387.38,-169.79 1390.17,-169.25 1392.88,-168.75 1472.73,-153.92 1565.83,-139.65 1622.8,-131.26"/>
<polygon fill="midnightblue" stroke="midnightblue" points="1623.16,-134.75 1632.55,-129.83 1622.14,-127.82 1623.16,-134.75"/>
</g>
<!-- Node30 -->
<g id="node15" class="node">
<title>Node30</title>
<g id="a_node15"><a xlink:href="_rexx_memory_8hpp.html" target="_top" xlink:title=" ">
<polygon fill="white" stroke="black" points="1356,-113 1356,-132.25 1447.75,-132.25 1447.75,-113 1356,-113"/>
<text xml:space="preserve" text-anchor="middle" x="1401.88" y="-118.75" font-family="Helvetica,sans-Serif" font-size="10.00">RexxMemory.hpp</text>
</a>
</g>
</g>
<!-- Node2&#45;&gt;Node30 -->
<g id="edge15" class="edge">
<title>Node2&#45;&gt;Node30</title>
<path fill="none" stroke="midnightblue" d="M1358.46,-168.92C1365.81,-161.25 1376.58,-150.01 1385.56,-140.64"/>
<polygon fill="midnightblue" stroke="midnightblue" points="1388.01,-143.15 1392.4,-133.51 1382.95,-138.31 1388.01,-143.15"/>
</g>
<!-- Node44 -->
<g id="node24" class="node">
<title>Node44</title>
<g id="a_node24"><a xlink:href="_rexx_behaviour_8hpp.html" target="_top" xlink:title=" ">
<polygon fill="white" stroke="black" points="1004.5,-113 1004.5,-132.25 1105.25,-132.25 1105.25,-113 1004.5,-113"/>
<text xml:space="preserve" text-anchor="middle" x="1054.88" y="-118.75" font-family="Helvetica,sans-Serif" font-size="10.00">RexxBehaviour.hpp</text>
</a>
</g>
</g>
<!-- Node2&#45;&gt;Node44 -->
<g id="edge28" class="edge">
<title>Node2&#45;&gt;Node44</title>
<path fill="none" stroke="midnightblue" d="M1315.17,-171.49C1266.16,-162.48 1175.95,-145.89 1115.68,-134.81"/>
<polygon fill="midnightblue" stroke="midnightblue" points="1116.37,-131.38 1105.91,-133.01 1115.11,-138.26 1116.37,-131.38"/>
</g>
<!-- Node23 -->
<g id="node28" class="node">
<title>Node23</title>
<g id="a_node28"><a xlink:href="_class_class_8hpp.html" target="_top" xlink:title=" ">
<polygon fill="white" stroke="black" points="482,-113 482,-132.25 567.75,-132.25 567.75,-113 482,-113"/>
<text xml:space="preserve" text-anchor="middle" x="524.88" y="-118.75" font-family="Helvetica,sans-Serif" font-size="10.00">ClassClass.hpp</text>
</a>
</g>
</g>
<!-- Node2&#45;&gt;Node23 -->
<g id="edge32" class="edge">
<title>Node2&#45;&gt;Node23</title>
<path fill="none" stroke="midnightblue" d="M1315.57,-176.11C1180.83,-169.13 690.22,-143.43 579.55,-132.81"/>
<polygon fill="midnightblue" stroke="midnightblue" points="580.05,-129.34 569.74,-131.78 579.32,-136.3 580.05,-129.34"/>
</g>
<!-- Node46 -->
<g id="node29" class="node">
<title>Node46</title>
<g id="a_node29"><a xlink:href="_envelope_8hpp.html" target="_top" xlink:title=" ">
<polygon fill="white" stroke="black" points="2022.25,-113 2022.25,-132.25 2097.5,-132.25 2097.5,-113 2022.25,-113"/>
<text xml:space="preserve" text-anchor="middle" x="2059.88" y="-118.75" font-family="Helvetica,sans-Serif" font-size="10.00">Envelope.hpp</text>
</a>
</g>
</g>
<!-- Node2&#45;&gt;Node46 -->
<g id="edge34" class="edge">
<title>Node2&#45;&gt;Node46</title>
<path fill="none" stroke="midnightblue" d="M1384.53,-170.05C1387.34,-169.56 1390.15,-169.12 1392.88,-168.75 1662.83,-132.48 1737.06,-166.22 2010.9,-132.81"/>
<polygon fill="midnightblue" stroke="midnightblue" points="2010.99,-136.32 2020.48,-131.62 2010.12,-129.38 2010.99,-136.32"/>
</g>
<!-- Node4 -->
<g id="node4" class="node">
<title>Node4</title>
<g id="a_node4"><a xlink:href="rexx_8h.html" target="_top" xlink:title=" ">
<polygon fill="white" stroke="red" points="1946.38,-56.75 1946.38,-76 1989.38,-76 1989.38,-56.75 1946.38,-56.75"/>
<text xml:space="preserve" text-anchor="middle" x="1967.88" y="-62.5" font-family="Helvetica,sans-Serif" font-size="10.00">rexx.h</text>
</a>
</g>
</g>
<!-- Node3&#45;&gt;Node4 -->
<g id="edge3" class="edge">
<title>Node3&#45;&gt;Node4</title>
<path fill="none" stroke="midnightblue" d="M1970.38,-112.67C1970,-105.87 1969.47,-96.26 1969,-87.65"/>
<polygon fill="midnightblue" stroke="midnightblue" points="1972.49,-87.47 1968.44,-77.68 1965.5,-87.86 1972.49,-87.47"/>
</g>
<!-- Node9 -->
<g id="node5" class="node">
<title>Node9</title>
<g id="a_node5"><a xlink:href="oorexxerrors_8h.html" target="_top" xlink:title=" ">
<polygon fill="white" stroke="black" points="2007.75,-56.75 2007.75,-76 2086,-76 2086,-56.75 2007.75,-56.75"/>
<text xml:space="preserve" text-anchor="middle" x="2046.88" y="-62.5" font-family="Helvetica,sans-Serif" font-size="10.00">oorexxerrors.h</text>
</a>
</g>
</g>
<!-- Node3&#45;&gt;Node9 -->
<g id="edge4" class="edge">
<title>Node3&#45;&gt;Node9</title>
<path fill="none" stroke="midnightblue" d="M1983.42,-112.67C1994.76,-104.58 2011.68,-92.5 2025.19,-82.85"/>
<polygon fill="midnightblue" stroke="midnightblue" points="2026.97,-85.88 2033.07,-77.23 2022.9,-80.19 2026.97,-85.88"/>
</g>
<!-- Node13 -->
<g id="node9" class="node">
<title>Node13</title>
<g id="a_node9"><a xlink:title=" ">
<polygon fill="white" stroke="#bfbfbf" points="907.88,-56.75 907.88,-76 941.88,-76 941.88,-56.75 907.88,-56.75"/>
<text xml:space="preserve" text-anchor="middle" x="924.88" y="-62.5" font-family="Helvetica,sans-Serif" font-size="10.00">new</text>
</a>
</g>
</g>
<!-- Node12&#45;&gt;Node13 -->
<g id="edge8" class="edge">
<title>Node12&#45;&gt;Node13</title>
<path fill="none" stroke="midnightblue" d="M1123.41,-114.16C1081.58,-106.74 1017.07,-94.3 952.84,-76.76"/>
<polygon fill="midnightblue" stroke="midnightblue" points="954.15,-73.49 943.57,-74.19 952.27,-80.24 954.15,-73.49"/>
</g>
<!-- Node14 -->
<g id="node10" class="node">
<title>Node14</title>
<g id="a_node10"><a xlink:title=" ">
<polygon fill="white" stroke="#bfbfbf" points="699.75,-0.5 699.75,-19.75 748,-19.75 748,-0.5 699.75,-0.5"/>
<text xml:space="preserve" text-anchor="middle" x="723.88" y="-6.25" font-family="Helvetica,sans-Serif" font-size="10.00">string.h</text>
</a>
</g>
</g>
<!-- Node12&#45;&gt;Node14 -->
<g id="edge9" class="edge">
<title>Node12&#45;&gt;Node14</title>
<path fill="none" stroke="midnightblue" d="M1123.09,-114.05C1119.97,-113.53 1116.88,-113 1113.88,-112.5 1018.33,-96.43 990.6,-107.69 898.88,-76.5 880.76,-70.34 878.47,-63.77 860.88,-56.25 827.18,-41.85 787.24,-29.17 759.21,-20.94"/>
<polygon fill="midnightblue" stroke="midnightblue" points="760.38,-17.64 749.8,-18.23 758.43,-24.36 760.38,-17.64"/>
</g>
<!-- Node15 -->
<g id="node11" class="node">
<title>Node15</title>
<g id="a_node11"><a xlink:href="_numerics_8hpp.html" target="_top" xlink:title=" ">
<polygon fill="white" stroke="red" points="959.5,-56.75 959.5,-76 1036.25,-76 1036.25,-56.75 959.5,-56.75"/>
<text xml:space="preserve" text-anchor="middle" x="997.88" y="-62.5" font-family="Helvetica,sans-Serif" font-size="10.00">Numerics.hpp</text>
</a>
</g>
</g>
<!-- Node12&#45;&gt;Node15 -->
<g id="edge10" class="edge">
<title>Node12&#45;&gt;Node15</title>
<path fill="none" stroke="midnightblue" d="M1139.42,-112.54C1111.47,-103.63 1068.6,-89.94 1037.36,-79.97"/>
<polygon fill="midnightblue" stroke="midnightblue" points="1038.45,-76.65 1027.86,-76.94 1036.33,-83.32 1038.45,-76.65"/>
</g>
<!-- Node17 -->
<g id="node12" class="node">
<title>Node17</title>
<g id="a_node12"><a xlink:href="_rexx_error_codes_8h.html" target="_top" xlink:title=" ">
<polygon fill="white" stroke="black" points="599.38,-56.75 599.38,-76 696.38,-76 696.38,-56.75 599.38,-56.75"/>
<text xml:space="preserve" text-anchor="middle" x="647.88" y="-62.5" font-family="Helvetica,sans-Serif" font-size="10.00">RexxErrorCodes.h</text>
</a>
</g>
</g>
<!-- Node12&#45;&gt;Node17 -->
<g id="edge12" class="edge">
<title>Node12&#45;&gt;Node17</title>
<path fill="none" stroke="midnightblue" d="M1123.13,-113.78C1120,-113.32 1116.89,-112.89 1113.88,-112.5 936.5,-89.74 887.9,-98.56 707.86,-76.79"/>
<polygon fill="midnightblue" stroke="midnightblue" points="708.51,-73.35 698.16,-75.6 707.66,-80.29 708.51,-73.35"/>
</g>
<!-- Node15&#45;&gt;Node2 -->
<g id="edge11" class="edge">
<title>Node15&#45;&gt;Node2</title>
<path fill="none" stroke="midnightblue" d="M1036.34,-74.88C1097.8,-86.91 1212.18,-109.48 1220.88,-112.5 1259.06,-125.77 1300.24,-148.2 1325.54,-163.03"/>
<polygon fill="midnightblue" stroke="midnightblue" points="1323.67,-165.99 1334.06,-168.09 1327.25,-159.97 1323.67,-165.99"/>
</g>
<!-- Node19 -->
<g id="node14" class="node">
<title>Node19</title>
<g id="a_node14"><a xlink:href="_hash_collection_8hpp.html" target="_top" xlink:title=" ">
<polygon fill="white" stroke="red" points="1603.12,-0.5 1603.12,-19.75 1704.62,-19.75 1704.62,-0.5 1603.12,-0.5"/>
<text xml:space="preserve" text-anchor="middle" x="1653.88" y="-6.25" font-family="Helvetica,sans-Serif" font-size="10.00">HashCollection.hpp</text>
</a>
</g>
</g>
<!-- Node18&#45;&gt;Node19 -->
<g id="edge14" class="edge">
<title>Node18&#45;&gt;Node19</title>
<path fill="none" stroke="midnightblue" d="M1718.08,-120.43C1782.6,-117.08 1894.44,-104.38 1855.88,-56.25 1838.55,-34.63 1768.82,-22.68 1716.09,-16.6"/>
<polygon fill="midnightblue" stroke="midnightblue" points="1716.62,-13.14 1706.29,-15.52 1715.85,-20.1 1716.62,-13.14"/>
</g>
<!-- Node31 -->
<g id="node16" class="node">
<title>Node31</title>
<g id="a_node16"><a xlink:href="_memory_8hpp.html" target="_top" xlink:title=" ">
<polygon fill="white" stroke="black" points="1400.62,-0.5 1400.62,-19.75 1469.12,-19.75 1469.12,-0.5 1400.62,-0.5"/>
<text xml:space="preserve" text-anchor="middle" x="1434.88" y="-6.25" font-family="Helvetica,sans-Serif" font-size="10.00">Memory.hpp</text>
</a>
</g>
</g>
<!-- Node30&#45;&gt;Node31 -->
<g id="edge16" class="edge">
<title>Node30&#45;&gt;Node31</title>
<path fill="none" stroke="midnightblue" d="M1423.99,-112.63C1438.79,-105.31 1457.11,-93.4 1465.88,-76.5 1474.24,-60.37 1463.26,-41.6 1452.12,-28.32"/>
<polygon fill="midnightblue" stroke="midnightblue" points="1454.97,-26.25 1445.64,-21.22 1449.8,-30.97 1454.97,-26.25"/>
</g>
<!-- Node32 -->
<g id="node17" class="node">
<title>Node32</title>
<g id="a_node17"><a xlink:href="_memory_stack_8hpp.html" target="_top" xlink:title=" ">
<polygon fill="white" stroke="black" points="1054.12,-56.75 1054.12,-76 1149.62,-76 1149.62,-56.75 1054.12,-56.75"/>
<text xml:space="preserve" text-anchor="middle" x="1101.88" y="-62.5" font-family="Helvetica,sans-Serif" font-size="10.00">MemoryStack.hpp</text>
</a>
</g>
</g>
<!-- Node30&#45;&gt;Node32 -->
<g id="edge17" class="edge">
<title>Node30&#45;&gt;Node32</title>
<path fill="none" stroke="midnightblue" d="M1355.66,-113.27C1303.34,-103.81 1218,-88.37 1160.91,-78.05"/>
<polygon fill="midnightblue" stroke="midnightblue" points="1161.84,-74.66 1151.37,-76.33 1160.59,-81.55 1161.84,-74.66"/>
</g>
<!-- Node33 -->
<g id="node18" class="node">
<title>Node33</title>
<g id="a_node18"><a xlink:title=" ">
<polygon fill="white" stroke="#bfbfbf" points="1228.12,-56.75 1228.12,-76 1329.62,-76 1329.62,-56.75 1228.12,-56.75"/>
<text xml:space="preserve" text-anchor="middle" x="1278.88" y="-62.5" font-family="Helvetica,sans-Serif" font-size="10.00">SysSemaphore.hpp</text>
</a>
</g>
</g>
<!-- Node30&#45;&gt;Node33 -->
<g id="edge19" class="edge">
<title>Node30&#45;&gt;Node33</title>
<path fill="none" stroke="midnightblue" d="M1381.29,-112.54C1361.78,-103.94 1332.21,-90.9 1309.85,-81.04"/>
<polygon fill="midnightblue" stroke="midnightblue" points="1311.48,-77.93 1300.91,-77.1 1308.65,-84.33 1311.48,-77.93"/>
</g>
<!-- Node34 -->
<g id="node19" class="node">
<title>Node34</title>
<g id="a_node19"><a xlink:href="_identity_table_class_8hpp.html" target="_top" xlink:title=" ">
<polygon fill="white" stroke="black" points="1513,-56.75 1513,-76 1628.75,-76 1628.75,-56.75 1513,-56.75"/>
<text xml:space="preserve" text-anchor="middle" x="1570.88" y="-62.5" font-family="Helvetica,sans-Serif" font-size="10.00">IdentityTableClass.hpp</text>
</a>
</g>
</g>
<!-- Node30&#45;&gt;Node34 -->
<g id="edge20" class="edge">
<title>Node30&#45;&gt;Node34</title>
<path fill="none" stroke="midnightblue" d="M1430.16,-112.54C1457.95,-103.63 1500.57,-89.94 1531.63,-79.97"/>
<polygon fill="midnightblue" stroke="midnightblue" points="1532.6,-83.34 1541.05,-76.95 1530.46,-76.67 1532.6,-83.34"/>
</g>
<!-- Node35 -->
<g id="node20" class="node">
<title>Node35</title>
<g id="a_node20"><a xlink:href="_queue_class_8hpp.html" target="_top" xlink:title=" ">
<polygon fill="white" stroke="red" points="1646.5,-56.75 1646.5,-76 1735.25,-76 1735.25,-56.75 1646.5,-56.75"/>
<text xml:space="preserve" text-anchor="middle" x="1690.88" y="-62.5" font-family="Helvetica,sans-Serif" font-size="10.00">QueueClass.hpp</text>
</a>
</g>
</g>
<!-- Node30&#45;&gt;Node35 -->
<g id="edge22" class="edge">
<title>Node30&#45;&gt;Node35</title>
<path fill="none" stroke="midnightblue" d="M1447.99,-112.97C1498.87,-103.42 1580.75,-88.05 1635.17,-77.83"/>
<polygon fill="midnightblue" stroke="midnightblue" points="1635.68,-81.3 1644.86,-76.01 1634.39,-74.42 1635.68,-81.3"/>
</g>
<!-- Node38 -->
<g id="node21" class="node">
<title>Node38</title>
<g id="a_node21"><a xlink:title=" ">
<polygon fill="white" stroke="#bfbfbf" points="1167.38,-56.75 1167.38,-76 1210.38,-76 1210.38,-56.75 1167.38,-56.75"/>
<text xml:space="preserve" text-anchor="middle" x="1188.88" y="-62.5" font-family="Helvetica,sans-Serif" font-size="10.00">vector</text>
</a>
</g>
</g>
<!-- Node30&#45;&gt;Node38 -->
<g id="edge23" class="edge">
<title>Node30&#45;&gt;Node38</title>
<path fill="none" stroke="midnightblue" d="M1362.45,-112.55C1327.68,-104.4 1275.38,-91.8 1221.86,-77.23"/>
<polygon fill="midnightblue" stroke="midnightblue" points="1222.82,-73.86 1212.25,-74.59 1220.97,-80.61 1222.82,-73.86"/>
</g>
<!-- Node39 -->
<g id="node22" class="node">
<title>Node39</title>
<g id="a_node22"><a xlink:href="_memory_stats_8hpp.html" target="_top" xlink:title=" ">
<polygon fill="white" stroke="black" points="1753.25,-56.75 1753.25,-76 1846.5,-76 1846.5,-56.75 1753.25,-56.75"/>
<text xml:space="preserve" text-anchor="middle" x="1799.88" y="-62.5" font-family="Helvetica,sans-Serif" font-size="10.00">MemoryStats.hpp</text>
</a>
</g>
</g>
<!-- Node30&#45;&gt;Node39 -->
<g id="edge24" class="edge">
<title>Node30&#45;&gt;Node39</title>
<path fill="none" stroke="midnightblue" d="M1448.13,-115.97C1511.8,-108.1 1630.31,-93.08 1741.73,-76.78"/>
<polygon fill="midnightblue" stroke="midnightblue" points="1741.96,-80.28 1751.34,-75.37 1740.94,-73.36 1741.96,-80.28"/>
</g>
<!-- Node40 -->
<g id="node23" class="node">
<title>Node40</title>
<g id="a_node23"><a xlink:href="_memory_segment_8hpp.html" target="_top" xlink:title=" ">
<polygon fill="white" stroke="red" points="1347.38,-56.75 1347.38,-76 1456.38,-76 1456.38,-56.75 1347.38,-56.75"/>
<text xml:space="preserve" text-anchor="middle" x="1401.88" y="-62.5" font-family="Helvetica,sans-Serif" font-size="10.00">MemorySegment.hpp</text>
</a>
</g>
</g>
<!-- Node30&#45;&gt;Node40 -->
<g id="edge26" class="edge">
<title>Node30&#45;&gt;Node40</title>
<path fill="none" stroke="midnightblue" d="M1401.88,-112.67C1401.88,-105.87 1401.88,-96.26 1401.88,-87.65"/>
<polygon fill="midnightblue" stroke="midnightblue" points="1405.38,-87.68 1401.88,-77.68 1398.38,-87.68 1405.38,-87.68"/>
</g>
<!-- Node32&#45;&gt;Node14 -->
<g id="edge18" class="edge">
<title>Node32&#45;&gt;Node14</title>
<path fill="none" stroke="midnightblue" d="M1053.68,-57.59C1050.7,-57.13 1047.75,-56.68 1044.88,-56.25 941.53,-40.71 819.2,-23.97 759.81,-15.95"/>
<polygon fill="midnightblue" stroke="midnightblue" points="760.34,-12.49 749.96,-14.62 759.41,-19.43 760.34,-12.49"/>
</g>
<!-- Node34&#45;&gt;Node19 -->
<g id="edge21" class="edge">
<title>Node34&#45;&gt;Node19</title>
<path fill="none" stroke="midnightblue" d="M1584.58,-56.42C1597.08,-48.25 1615.79,-36.02 1630.62,-26.32"/>
<polygon fill="midnightblue" stroke="midnightblue" points="1632.43,-29.33 1638.88,-20.92 1628.6,-23.47 1632.43,-29.33"/>
</g>
<!-- Node39&#45;&gt;Node11 -->
<g id="edge25" class="edge">
<title>Node39&#45;&gt;Node11</title>
<path fill="none" stroke="midnightblue" d="M1809.12,-56.42C1817.11,-48.67 1828.88,-37.28 1838.61,-27.86"/>
<polygon fill="midnightblue" stroke="midnightblue" points="1840.97,-30.44 1845.71,-20.97 1836.1,-25.41 1840.97,-30.44"/>
</g>
<!-- Node40&#45;&gt;Node31 -->
<g id="edge27" class="edge">
<title>Node40&#45;&gt;Node31</title>
<path fill="none" stroke="midnightblue" d="M1407.32,-56.42C1411.75,-49.15 1418.13,-38.66 1423.63,-29.61"/>
<polygon fill="midnightblue" stroke="midnightblue" points="1426.53,-31.57 1428.74,-21.21 1420.55,-27.93 1426.53,-31.57"/>
</g>
<!-- Node24 -->
<g id="node25" class="node">
<title>Node24</title>
<g id="a_node25"><a xlink:href="_flag_set_8hpp.html" target="_top" xlink:title=" ">
<polygon fill="white" stroke="black" points="460.62,-56.75 460.62,-76 529.12,-76 529.12,-56.75 460.62,-56.75"/>
<text xml:space="preserve" text-anchor="middle" x="494.88" y="-62.5" font-family="Helvetica,sans-Serif" font-size="10.00">FlagSet.hpp</text>
</a>
</g>
</g>
<!-- Node44&#45;&gt;Node24 -->
<g id="edge29" class="edge">
<title>Node44&#45;&gt;Node24</title>
<path fill="none" stroke="midnightblue" d="M1004.19,-116.71C896.09,-106.24 644.3,-81.85 540.68,-71.81"/>
<polygon fill="midnightblue" stroke="midnightblue" points="541.17,-68.34 530.88,-70.86 540.5,-75.31 541.17,-68.34"/>
</g>
<!-- Node45 -->
<g id="node27" class="node">
<title>Node45</title>
<g id="a_node27"><a xlink:href="_primitive_behaviour_names_8h.html" target="_top" xlink:title=" ">
<polygon fill="white" stroke="black" points="714.12,-56.75 714.12,-76 851.62,-76 851.62,-56.75 714.12,-56.75"/>
<text xml:space="preserve" text-anchor="middle" x="782.88" y="-62.5" font-family="Helvetica,sans-Serif" font-size="10.00">PrimitiveBehaviourNames.h</text>
</a>
</g>
</g>
<!-- Node44&#45;&gt;Node45 -->
<g id="edge31" class="edge">
<title>Node44&#45;&gt;Node45</title>
<path fill="none" stroke="midnightblue" d="M1009.35,-112.54C962.67,-103.23 889.97,-88.73 839.58,-78.68"/>
<polygon fill="midnightblue" stroke="midnightblue" points="840.53,-75.3 830.03,-76.78 839.16,-82.17 840.53,-75.3"/>
</g>
<!-- Node25 -->
<g id="node26" class="node">
<title>Node25</title>
<g id="a_node26"><a xlink:href="_bit_set_8hpp.html" target="_top" xlink:title=" ">
<polygon fill="white" stroke="black" points="464,-0.5 464,-19.75 525.75,-19.75 525.75,-0.5 464,-0.5"/>
<text xml:space="preserve" text-anchor="middle" x="494.88" y="-6.25" font-family="Helvetica,sans-Serif" font-size="10.00">BitSet.hpp</text>
</a>
</g>
</g>
<!-- Node24&#45;&gt;Node25 -->
<g id="edge30" class="edge">
<title>Node24&#45;&gt;Node25</title>
<path fill="none" stroke="midnightblue" d="M494.88,-56.42C494.88,-49.62 494.88,-40.01 494.88,-31.4"/>
<polygon fill="midnightblue" stroke="midnightblue" points="498.38,-31.43 494.88,-21.43 491.38,-31.43 498.38,-31.43"/>
</g>
<!-- Node23&#45;&gt;Node24 -->
<g id="edge33" class="edge">
<title>Node23&#45;&gt;Node24</title>
<path fill="none" stroke="midnightblue" d="M519.92,-112.67C515.95,-105.48 510.23,-95.14 505.26,-86.15"/>
<polygon fill="midnightblue" stroke="midnightblue" points="508.37,-84.55 500.47,-77.49 502.25,-87.94 508.37,-84.55"/>
</g>
<!-- Node21&#45;&gt;Node14 -->
<g id="edge44" class="edge">
<title>Node21&#45;&gt;Node14</title>
<path fill="none" stroke="midnightblue" d="M182.99,-225.19C178.8,-202.61 171.42,-142.92 202.88,-112.5 272.88,-44.81 582.42,-19.79 688.25,-13.12"/>
<polygon fill="midnightblue" stroke="midnightblue" points="688.28,-16.63 698.04,-12.52 687.85,-9.64 688.28,-16.63"/>
</g>
<!-- Node21&#45;&gt;Node24 -->
<g id="edge43" class="edge">
<title>Node21&#45;&gt;Node24</title>
<path fill="none" stroke="midnightblue" d="M184.73,-225.11C184.88,-202.35 188.67,-142.27 222.88,-112.5 255.86,-83.8 380.28,-73.08 448.84,-69.3"/>
<polygon fill="midnightblue" stroke="midnightblue" points="448.83,-72.8 458.64,-68.79 448.47,-65.81 448.83,-72.8"/>
</g>
<!-- Node22 -->
<g id="node31" class="node">
<title>Node22</title>
<g id="a_node31"><a xlink:href="_integer_class_8hpp.html" target="_top" xlink:title=" ">
<polygon fill="white" stroke="black" points="261.75,-169.25 261.75,-188.5 352,-188.5 352,-169.25 261.75,-169.25"/>
<text xml:space="preserve" text-anchor="middle" x="306.88" y="-175" font-family="Helvetica,sans-Serif" font-size="10.00">IntegerClass.hpp</text>
</a>
</g>
</g>
<!-- Node21&#45;&gt;Node22 -->
<g id="edge36" class="edge">
<title>Node21&#45;&gt;Node22</title>
<path fill="none" stroke="midnightblue" d="M205.3,-225.04C224.65,-216.44 253.98,-203.4 276.15,-193.54"/>
<polygon fill="midnightblue" stroke="midnightblue" points="277.29,-196.86 285.01,-189.6 274.45,-190.46 277.29,-196.86"/>
</g>
<!-- Node26 -->
<g id="node32" class="node">
<title>Node26</title>
<g id="a_node32"><a xlink:href="_string_util_8hpp.html" target="_top" xlink:title=" ">
<polygon fill="white" stroke="black" points="62.25,-169.25 62.25,-188.5 137.5,-188.5 137.5,-169.25 62.25,-169.25"/>
<text xml:space="preserve" text-anchor="middle" x="99.88" y="-175" font-family="Helvetica,sans-Serif" font-size="10.00">StringUtil.hpp</text>
</a>
</g>
</g>
<!-- Node21&#45;&gt;Node26 -->
<g id="edge38" class="edge">
<title>Node21&#45;&gt;Node26</title>
<path fill="none" stroke="midnightblue" d="M170.84,-225.17C157.92,-216.92 138.51,-204.53 123.25,-194.79"/>
<polygon fill="midnightblue" stroke="midnightblue" points="125.52,-192.09 115.21,-189.66 121.75,-197.99 125.52,-192.09"/>
</g>
<!-- Node28 -->
<g id="node34" class="node">
<title>Node28</title>
<g id="a_node34"><a xlink:href="_utilities_8hpp.html" target="_top" xlink:title=" ">
<polygon fill="white" stroke="black" points="0,-113 0,-132.25 67.75,-132.25 67.75,-113 0,-113"/>
<text xml:space="preserve" text-anchor="middle" x="33.88" y="-118.75" font-family="Helvetica,sans-Serif" font-size="10.00">Utilities.hpp</text>
</a>
</g>
</g>
<!-- Node21&#45;&gt;Node28 -->
<g id="edge42" class="edge">
<title>Node21&#45;&gt;Node28</title>
<path fill="none" stroke="midnightblue" d="M141.61,-229.67C112.77,-224.48 76.03,-213.26 52.88,-189 41.26,-176.83 36.69,-157.99 34.92,-143.65"/>
<polygon fill="midnightblue" stroke="midnightblue" points="38.43,-143.68 34.1,-134 31.46,-144.26 38.43,-143.68"/>
</g>
<!-- Node22&#45;&gt;Node23 -->
<g id="edge37" class="edge">
<title>Node22&#45;&gt;Node23</title>
<path fill="none" stroke="midnightblue" d="M343.36,-168.79C380.07,-159.66 436.85,-145.53 477.12,-135.51"/>
<polygon fill="midnightblue" stroke="midnightblue" points="477.94,-138.91 486.8,-133.1 476.25,-132.12 477.94,-138.91"/>
</g>
<!-- Node27 -->
<g id="node33" class="node">
<title>Node27</title>
<g id="a_node33"><a xlink:title=" ">
<polygon fill="white" stroke="#bfbfbf" points="85.75,-113 85.75,-132.25 134,-132.25 134,-113 85.75,-113"/>
<text xml:space="preserve" text-anchor="middle" x="109.88" y="-118.75" font-family="Helvetica,sans-Serif" font-size="10.00">ctype.h</text>
</a>
</g>
</g>
<!-- Node26&#45;&gt;Node27 -->
<g id="edge39" class="edge">
<title>Node26&#45;&gt;Node27</title>
<path fill="none" stroke="midnightblue" d="M101.53,-168.92C102.79,-162.04 104.59,-152.29 106.19,-143.6"/>
<polygon fill="midnightblue" stroke="midnightblue" points="109.61,-144.37 107.98,-133.91 102.73,-143.1 109.61,-144.37"/>
</g>
<!-- Node26&#45;&gt;Node28 -->
<g id="edge40" class="edge">
<title>Node26&#45;&gt;Node28</title>
<path fill="none" stroke="midnightblue" d="M88.98,-168.92C79.27,-160.94 64.84,-149.08 53.18,-139.5"/>
<polygon fill="midnightblue" stroke="midnightblue" points="55.69,-137.02 45.74,-133.38 51.24,-142.43 55.69,-137.02"/>
</g>
<!-- Node29 -->
<g id="node35" class="node">
<title>Node29</title>
<g id="a_node35"><a xlink:title=" ">
<polygon fill="white" stroke="#bfbfbf" points="0.38,-56.75 0.38,-76 67.38,-76 67.38,-56.75 0.38,-56.75"/>
<text xml:space="preserve" text-anchor="middle" x="33.88" y="-62.5" font-family="Helvetica,sans-Serif" font-size="10.00">sys/types.h</text>
</a>
</g>
</g>
<!-- Node28&#45;&gt;Node29 -->
<g id="edge41" class="edge">
<title>Node28&#45;&gt;Node29</title>
<path fill="none" stroke="midnightblue" d="M33.88,-112.67C33.88,-105.87 33.88,-96.26 33.88,-87.65"/>
<polygon fill="midnightblue" stroke="midnightblue" points="37.38,-87.68 33.88,-77.68 30.38,-87.68 37.38,-87.68"/>
</g>
<!-- Node47&#45;&gt;Node2 -->
<g id="edge46" class="edge">
<title>Node47&#45;&gt;Node2</title>
<path fill="none" stroke="midnightblue" d="M1414.16,-225.17C1402.68,-217.08 1385.54,-205 1371.84,-195.35"/>
<polygon fill="midnightblue" stroke="midnightblue" points="1374.04,-192.62 1363.85,-189.72 1370.01,-198.34 1374.04,-192.62"/>
</g>
<!-- Node48 -->
<g id="node37" class="node">
<title>Node48</title>
<g id="a_node37"><a xlink:title=" ">
<polygon fill="white" stroke="#bfbfbf" points="1402,-169.25 1402,-188.5 1451.75,-188.5 1451.75,-169.25 1402,-169.25"/>
<text xml:space="preserve" text-anchor="middle" x="1426.88" y="-175" font-family="Helvetica,sans-Serif" font-size="10.00">signal.h</text>
</a>
</g>
</g>
<!-- Node47&#45;&gt;Node48 -->
<g id="edge47" class="edge">
<title>Node47&#45;&gt;Node48</title>
<path fill="none" stroke="midnightblue" d="M1426.88,-225.17C1426.88,-218.37 1426.88,-208.76 1426.88,-200.15"/>
<polygon fill="midnightblue" stroke="midnightblue" points="1430.38,-200.18 1426.88,-190.18 1423.38,-200.18 1430.38,-200.18"/>
</g>
<!-- Node49 -->
<g id="node38" class="node">
<title>Node49</title>
<g id="a_node38"><a xlink:title=" ">
<polygon fill="white" stroke="#bfbfbf" points="1470,-169.25 1470,-188.5 1531.75,-188.5 1531.75,-169.25 1470,-169.25"/>
<text xml:space="preserve" text-anchor="middle" x="1500.88" y="-175" font-family="Helvetica,sans-Serif" font-size="10.00">sys/time.h</text>
</a>
</g>
</g>
<!-- Node47&#45;&gt;Node49 -->
<g id="edge48" class="edge">
<title>Node47&#45;&gt;Node49</title>
<path fill="none" stroke="midnightblue" d="M1439.09,-225.17C1450.02,-217.16 1466.28,-205.24 1479.38,-195.63"/>
<polygon fill="midnightblue" stroke="midnightblue" points="1481.42,-198.48 1487.42,-189.74 1477.28,-192.83 1481.42,-198.48"/>
</g>
<!-- Node50 -->
<g id="node39" class="node">
<title>Node50</title>
<g id="a_node39"><a xlink:title=" ">
<polygon fill="white" stroke="#bfbfbf" points="1549.38,-169.25 1549.38,-188.5 1592.38,-188.5 1592.38,-169.25 1549.38,-169.25"/>
<text xml:space="preserve" text-anchor="middle" x="1570.88" y="-175" font-family="Helvetica,sans-Serif" font-size="10.00">time.h</text>
</a>
</g>
</g>
<!-- Node47&#45;&gt;Node50 -->
<g id="edge49" class="edge">
<title>Node47&#45;&gt;Node50</title>
<path fill="none" stroke="midnightblue" d="M1450.98,-225.04C1474.94,-216.02 1511.85,-202.11 1538.38,-192.12"/>
<polygon fill="midnightblue" stroke="midnightblue" points="1539.51,-195.43 1547.64,-188.63 1537.05,-188.88 1539.51,-195.43"/>
</g>
<!-- Node51&#45;&gt;Node17 -->
<g id="edge65" class="edge">
<title>Node51&#45;&gt;Node17</title>
<path fill="none" stroke="midnightblue" d="M976.88,-225.08C976.37,-202.24 971.62,-141.98 936.88,-112.5 899.42,-80.73 772.55,-84.07 707.99,-76.71"/>
<polygon fill="midnightblue" stroke="midnightblue" points="708.57,-73.26 698.19,-75.41 707.64,-80.2 708.57,-73.26"/>
</g>
<!-- Node52 -->
<g id="node41" class="node">
<title>Node52</title>
<g id="a_node41"><a xlink:href="_activity_8hpp.html" target="_top" xlink:title=" ">
<polygon fill="white" stroke="red" points="809.75,-169.25 809.75,-188.5 876,-188.5 876,-169.25 809.75,-169.25"/>
<text xml:space="preserve" text-anchor="middle" x="842.88" y="-175" font-family="Helvetica,sans-Serif" font-size="10.00">Activity.hpp</text>
</a>
</g>
</g>
<!-- Node51&#45;&gt;Node52 -->
<g id="edge51" class="edge">
<title>Node51&#45;&gt;Node52</title>
<path fill="none" stroke="midnightblue" d="M954.45,-225.04C933,-216.36 900.39,-203.16 875.96,-193.27"/>
<polygon fill="midnightblue" stroke="midnightblue" points="877.36,-190.06 866.78,-189.55 874.74,-196.55 877.36,-190.06"/>
</g>
<!-- Node71 -->
<g id="node47" class="node">
<title>Node71</title>
<g id="a_node47"><a xlink:href="_activation_settings_8hpp.html" target="_top" xlink:title=" ">
<polygon fill="white" stroke="red" points="488.75,-169.25 488.75,-188.5 603,-188.5 603,-169.25 488.75,-169.25"/>
<text xml:space="preserve" text-anchor="middle" x="545.88" y="-175" font-family="Helvetica,sans-Serif" font-size="10.00">ActivationSettings.hpp</text>
</a>
</g>
</g>
<!-- Node51&#45;&gt;Node71 -->
<g id="edge60" class="edge">
<title>Node51&#45;&gt;Node71</title>
<path fill="none" stroke="midnightblue" d="M924.46,-227.53C846.74,-217.74 700.86,-199.38 614.65,-188.53"/>
<polygon fill="midnightblue" stroke="midnightblue" points="615.27,-185.08 604.91,-187.31 614.39,-192.03 615.27,-185.08"/>
</g>
<!-- Node75 -->
<g id="node48" class="node">
<title>Node75</title>
<g id="a_node48"><a xlink:title=" ">
<polygon fill="white" stroke="#bfbfbf" points="1004.75,-169.25 1004.75,-188.5 1047,-188.5 1047,-169.25 1004.75,-169.25"/>
<text xml:space="preserve" text-anchor="middle" x="1025.88" y="-175" font-family="Helvetica,sans-Serif" font-size="10.00">deque</text>
</a>
</g>
</g>
<!-- Node51&#45;&gt;Node75 -->
<g id="edge62" class="edge">
<title>Node51&#45;&gt;Node75</title>
<path fill="none" stroke="midnightblue" d="M984.97,-225.17C991.82,-217.58 1001.83,-206.49 1010.24,-197.18"/>
<polygon fill="midnightblue" stroke="midnightblue" points="1012.81,-199.56 1016.92,-189.79 1007.62,-194.86 1012.81,-199.56"/>
</g>
<!-- Node76 -->
<g id="node49" class="node">
<title>Node76</title>
<g id="a_node49"><a xlink:href="_global_names_8hpp.html" target="_top" xlink:title=" ">
<polygon fill="white" stroke="red" points="1064.88,-169.25 1064.88,-188.5 1158.88,-188.5 1158.88,-169.25 1064.88,-169.25"/>
<text xml:space="preserve" text-anchor="middle" x="1111.88" y="-175" font-family="Helvetica,sans-Serif" font-size="10.00">GlobalNames.hpp</text>
</a>
</g>
</g>
<!-- Node51&#45;&gt;Node76 -->
<g id="edge63" class="edge">
<title>Node51&#45;&gt;Node76</title>
<path fill="none" stroke="midnightblue" d="M999.47,-225.04C1021.08,-216.36 1053.93,-203.16 1078.55,-193.27"/>
<polygon fill="midnightblue" stroke="midnightblue" points="1079.83,-196.53 1087.8,-189.55 1077.22,-190.03 1079.83,-196.53"/>
</g>
<!-- Node78 -->
<g id="node50" class="node">
<title>Node78</title>
<g id="a_node50"><a xlink:title=" ">
<polygon fill="white" stroke="#bfbfbf" points="679.88,-169.25 679.88,-188.5 791.88,-188.5 791.88,-169.25 679.88,-169.25"/>
<text xml:space="preserve" text-anchor="middle" x="735.88" y="-175" font-family="Helvetica,sans-Serif" font-size="10.00">SystemInterpreter.hpp</text>
</a>
</g>
</g>
<!-- Node51&#45;&gt;Node78 -->
<g id="edge64" class="edge">
<title>Node51&#45;&gt;Node78</title>
<path fill="none" stroke="midnightblue" d="M936.54,-225.04C895.61,-215.83 832.11,-201.54 787.53,-191.5"/>
<polygon fill="midnightblue" stroke="midnightblue" points="788.35,-188.1 777.82,-189.32 786.81,-194.93 788.35,-188.1"/>
</g>
<!-- Node52&#45;&gt;Node17 -->
<g id="edge59" class="edge">
<title>Node52&#45;&gt;Node17</title>
<path fill="none" stroke="midnightblue" d="M868.61,-168.81C897.92,-157.11 939.38,-135.51 919.88,-112.5 919.01,-111.48 787.32,-89.98 707.52,-77.03"/>
<polygon fill="midnightblue" stroke="midnightblue" points="708.54,-73.65 698.11,-75.5 707.42,-80.56 708.54,-73.65"/>
</g>
<!-- Node53 -->
<g id="node42" class="node">
<title>Node53</title>
<g id="a_node42"><a xlink:href="_list_class_8hpp.html" target="_top" xlink:title=" ">
<polygon fill="white" stroke="red" points="834.88,-113 834.88,-132.25 910.88,-132.25 910.88,-113 834.88,-113"/>
<text xml:space="preserve" text-anchor="middle" x="872.88" y="-118.75" font-family="Helvetica,sans-Serif" font-size="10.00">ListClass.hpp</text>
</a>
</g>
</g>
<!-- Node52&#45;&gt;Node53 -->
<g id="edge52" class="edge">
<title>Node52&#45;&gt;Node53</title>
<path fill="none" stroke="midnightblue" d="M847.83,-168.92C851.8,-161.73 857.52,-151.39 862.49,-142.4"/>
<polygon fill="midnightblue" stroke="midnightblue" points="865.5,-144.19 867.28,-133.74 859.38,-140.8 865.5,-144.19"/>
</g>
<!-- Node55 -->
<g id="node43" class="node">
<title>Node55</title>
<g id="a_node43"><a xlink:href="_internal_stack_8hpp.html" target="_top" xlink:title=" ">
<polygon fill="white" stroke="black" points="371.62,-113 371.62,-132.25 464.12,-132.25 464.12,-113 371.62,-113"/>
<text xml:space="preserve" text-anchor="middle" x="417.88" y="-118.75" font-family="Helvetica,sans-Serif" font-size="10.00">InternalStack.hpp</text>
</a>
</g>
</g>
<!-- Node52&#45;&gt;Node55 -->
<g id="edge53" class="edge">
<title>Node52&#45;&gt;Node55</title>
<path fill="none" stroke="midnightblue" d="M809.46,-170.29C806.57,-169.73 803.67,-169.21 800.88,-168.75 659.67,-145.73 620.07,-152.41 475.42,-133.03"/>
<polygon fill="midnightblue" stroke="midnightblue" points="476.24,-129.61 465.86,-131.73 475.29,-136.54 476.24,-129.61"/>
</g>
<!-- Node56 -->
<g id="node44" class="node">
<title>Node56</title>
<g id="a_node44"><a xlink:href="_activation_stack_8hpp.html" target="_top" xlink:title=" ">
<polygon fill="white" stroke="black" points="586,-113 586,-132.25 689.75,-132.25 689.75,-113 586,-113"/>
<text xml:space="preserve" text-anchor="middle" x="637.88" y="-118.75" font-family="Helvetica,sans-Serif" font-size="10.00">ActivationStack.hpp</text>
</a>
</g>
</g>
<!-- Node52&#45;&gt;Node56 -->
<g id="edge54" class="edge">
<title>Node52&#45;&gt;Node56</title>
<path fill="none" stroke="midnightblue" d="M809.48,-169.04C775.1,-159.94 721.29,-145.7 683.1,-135.59"/>
<polygon fill="midnightblue" stroke="midnightblue" points="684.31,-132.29 673.74,-133.12 682.52,-139.06 684.31,-132.29"/>
</g>
<!-- Node57 -->
<g id="node45" class="node">
<title>Node57</title>
<g id="a_node45"><a xlink:href="_expression_stack_8hpp.html" target="_top" xlink:title=" ">
<polygon fill="white" stroke="red" points="707.38,-113 707.38,-132.25 816.38,-132.25 816.38,-113 707.38,-113"/>
<text xml:space="preserve" text-anchor="middle" x="761.88" y="-118.75" font-family="Helvetica,sans-Serif" font-size="10.00">ExpressionStack.hpp</text>
</a>
</g>
</g>
<!-- Node52&#45;&gt;Node57 -->
<g id="edge55" class="edge">
<title>Node52&#45;&gt;Node57</title>
<path fill="none" stroke="midnightblue" d="M829.5,-168.92C817.31,-160.75 799.04,-148.52 784.56,-138.82"/>
<polygon fill="midnightblue" stroke="midnightblue" points="786.78,-136.1 776.53,-133.44 782.89,-141.91 786.78,-136.1"/>
</g>
<!-- Node58 -->
<g id="node46" class="node">
<title>Node58</title>
<g id="a_node46"><a xlink:href="_rexx_local_variables_8hpp.html" target="_top" xlink:title=" ">
<polygon fill="white" stroke="red" points="232.38,-113 232.38,-132.25 353.38,-132.25 353.38,-113 232.38,-113"/>
<text xml:space="preserve" text-anchor="middle" x="292.88" y="-118.75" font-family="Helvetica,sans-Serif" font-size="10.00">RexxLocalVariables.hpp</text>
</a>
</g>
</g>
<!-- Node52&#45;&gt;Node58 -->
<g id="edge56" class="edge">
<title>Node52&#45;&gt;Node58</title>
<path fill="none" stroke="midnightblue" d="M809.48,-170.2C806.58,-169.66 803.68,-169.17 800.88,-168.75 611.27,-140.49 559.03,-152.9 364.73,-132.89"/>
<polygon fill="midnightblue" stroke="midnightblue" points="365.38,-129.43 355.07,-131.87 364.65,-136.4 365.38,-129.43"/>
</g>
<!-- Node58&#45;&gt;Node14 -->
<g id="edge58" class="edge">
<title>Node58&#45;&gt;Node14</title>
<path fill="none" stroke="midnightblue" d="M311,-112.59C340.02,-98.48 399.05,-71.28 451.88,-56.25 534.74,-32.67 635.53,-19.94 688.09,-14.46"/>
<polygon fill="midnightblue" stroke="midnightblue" points="688.35,-17.95 697.95,-13.46 687.65,-10.99 688.35,-17.95"/>
</g>
<!-- Node58&#45;&gt;Node24 -->
<g id="edge57" class="edge">
<title>Node58&#45;&gt;Node24</title>
<path fill="none" stroke="midnightblue" d="M326.69,-112.54C360.48,-103.47 412.63,-89.46 449.9,-79.45"/>
<polygon fill="midnightblue" stroke="midnightblue" points="450.74,-82.85 459.49,-76.88 448.93,-76.09 450.74,-82.85"/>
</g>
<!-- Node71&#45;&gt;Node58 -->
<g id="edge61" class="edge">
<title>Node71&#45;&gt;Node58</title>
<path fill="none" stroke="midnightblue" d="M503.53,-168.79C460.38,-159.54 393.34,-145.17 346.51,-135.12"/>
<polygon fill="midnightblue" stroke="midnightblue" points="347.35,-131.73 336.84,-133.05 345.88,-138.57 347.35,-131.73"/>
</g>
</g>
</svg>
