<?xml version="1.0" encoding="UTF-8" standalone="no"?>
<!DOCTYPE svg PUBLIC "-//W3C//DTD SVG 1.1//EN"
 "http://www.w3.org/Graphics/SVG/1.1/DTD/svg11.dtd">
<!-- Generated by graphviz version 13.1.0 (20250701.0955)
 -->
<!-- Title: SysInterpreterInstance.cpp Pages: 1 -->
<svg width="2219pt" height="535pt"
 viewBox="0.00 0.00 2219.00 535.00" xmlns="http://www.w3.org/2000/svg" xmlns:xlink="http://www.w3.org/1999/xlink">
<g id="graph0" class="graph" transform="scale(1 1) rotate(0) translate(4 530.5)">
<title>SysInterpreterInstance.cpp</title>
<polygon fill="white" stroke="none" points="-4,4 -4,-530.5 2214.94,-530.5 2214.94,4 -4,4"/>
<!-- Node1 -->
<g id="node1" class="node">
<title>Node1</title>
<g id="a_node1"><a xlink:title=" ">
<polygon fill="#bfbfbf" stroke="black" points="1477.19,-506.75 1477.19,-526 1610.94,-526 1610.94,-506.75 1477.19,-506.75"/>
<text xml:space="preserve" text-anchor="middle" x="1544.07" y="-512.5" font-family="Helvetica,sans-Serif" font-size="10.00">SysInterpreterInstance.cpp</text>
</a>
</g>
</g>
<!-- Node2 -->
<g id="node2" class="node">
<title>Node2</title>
<g id="a_node2"><a xlink:href="_rexx_core_8h.html" target="_top" xlink:title=" ">
<polygon fill="white" stroke="black" points="1567.82,-169.25 1567.82,-188.5 1636.32,-188.5 1636.32,-169.25 1567.82,-169.25"/>
<text xml:space="preserve" text-anchor="middle" x="1602.07" y="-175" font-family="Helvetica,sans-Serif" font-size="10.00">RexxCore.h</text>
</a>
</g>
</g>
<!-- Node1&#45;&gt;Node2 -->
<g id="edge1" class="edge">
<title>Node1&#45;&gt;Node2</title>
<path fill="none" stroke="midnightblue" d="M1544.07,-506.49C1544.07,-487.73 1544.07,-442.67 1544.07,-404.88 1544.07,-404.88 1544.07,-404.88 1544.07,-346.62 1544.07,-292.5 1526.4,-273.67 1550.07,-225 1555.93,-212.94 1566.64,-202.79 1576.82,-195.19"/>
<polygon fill="midnightblue" stroke="midnightblue" points="1578.75,-198.11 1585,-189.56 1574.78,-192.34 1578.75,-198.11"/>
</g>
<!-- Node47 -->
<g id="node21" class="node">
<title>Node47</title>
<g id="a_node21"><a xlink:href="_activity_8hpp.html" target="_top" xlink:title=" ">
<polygon fill="white" stroke="black" points="1177.94,-338 1177.94,-357.25 1244.19,-357.25 1244.19,-338 1177.94,-338"/>
<text xml:space="preserve" text-anchor="middle" x="1211.07" y="-343.75" font-family="Helvetica,sans-Serif" font-size="10.00">Activity.hpp</text>
</a>
</g>
</g>
<!-- Node1&#45;&gt;Node47 -->
<g id="edge22" class="edge">
<title>Node1&#45;&gt;Node47</title>
<path fill="none" stroke="midnightblue" d="M1526.17,-506.41C1471.4,-478.98 1305.79,-396.06 1239.22,-362.72"/>
<polygon fill="midnightblue" stroke="midnightblue" points="1240.92,-359.66 1230.42,-358.31 1237.79,-365.92 1240.92,-359.66"/>
</g>
<!-- Node63 -->
<g id="node32" class="node">
<title>Node63</title>
<g id="a_node32"><a xlink:href="_interpreter_instance_8hpp.html" target="_top" xlink:title=" ">
<polygon fill="white" stroke="black" points="1571.82,-281.75 1571.82,-301 1688.32,-301 1688.32,-281.75 1571.82,-281.75"/>
<text xml:space="preserve" text-anchor="middle" x="1630.07" y="-287.5" font-family="Helvetica,sans-Serif" font-size="10.00">InterpreterInstance.hpp</text>
</a>
</g>
</g>
<!-- Node1&#45;&gt;Node63 -->
<g id="edge67" class="edge">
<title>Node1&#45;&gt;Node63</title>
<path fill="none" stroke="midnightblue" d="M1547.55,-506.36C1560.3,-473.3 1604.66,-358.25 1622.53,-311.93"/>
<polygon fill="midnightblue" stroke="midnightblue" points="1625.77,-313.26 1626.1,-302.67 1619.23,-310.74 1625.77,-313.26"/>
</g>
<!-- Node66 -->
<g id="node35" class="node">
<title>Node66</title>
<g id="a_node35"><a xlink:href="_rexx_activation_8hpp.html" target="_top" xlink:title=" ">
<polygon fill="white" stroke="black" points="428.32,-450.5 428.32,-469.75 529.82,-469.75 529.82,-450.5 428.32,-450.5"/>
<text xml:space="preserve" text-anchor="middle" x="479.07" y="-456.25" font-family="Helvetica,sans-Serif" font-size="10.00">RexxActivation.hpp</text>
</a>
</g>
</g>
<!-- Node1&#45;&gt;Node66 -->
<g id="edge44" class="edge">
<title>Node1&#45;&gt;Node66</title>
<path fill="none" stroke="midnightblue" d="M1477.05,-511.96C1283.96,-502.13 728.39,-473.83 541.37,-464.3"/>
<polygon fill="midnightblue" stroke="midnightblue" points="541.79,-460.82 531.62,-463.8 541.43,-467.81 541.79,-460.82"/>
</g>
<!-- Node98 -->
<g id="node47" class="node">
<title>Node98</title>
<g id="a_node47"><a xlink:href="unix_2_system_interpreter_8hpp.html" target="_top" xlink:title=" ">
<polygon fill="white" stroke="black" points="1986.07,-450.5 1986.07,-469.75 2098.07,-469.75 2098.07,-450.5 1986.07,-450.5"/>
<text xml:space="preserve" text-anchor="middle" x="2042.07" y="-456.25" font-family="Helvetica,sans-Serif" font-size="10.00">SystemInterpreter.hpp</text>
</a>
</g>
</g>
<!-- Node1&#45;&gt;Node98 -->
<g id="edge68" class="edge">
<title>Node1&#45;&gt;Node98</title>
<path fill="none" stroke="midnightblue" d="M1611.23,-508.06C1706.27,-497.71 1879,-478.89 1974.34,-468.5"/>
<polygon fill="midnightblue" stroke="midnightblue" points="1974.51,-472.01 1984.07,-467.44 1973.75,-465.05 1974.51,-472.01"/>
</g>
<!-- Node3 -->
<g id="node3" class="node">
<title>Node3</title>
<g id="a_node3"><a xlink:href="oorexxapi_8h.html" target="_top" xlink:title=" ">
<polygon fill="white" stroke="black" points="1798.94,-113 1798.94,-132.25 1865.19,-132.25 1865.19,-113 1798.94,-113"/>
<text xml:space="preserve" text-anchor="middle" x="1832.07" y="-118.75" font-family="Helvetica,sans-Serif" font-size="10.00">oorexxapi.h</text>
</a>
</g>
</g>
<!-- Node2&#45;&gt;Node3 -->
<g id="edge2" class="edge">
<title>Node2&#45;&gt;Node3</title>
<path fill="none" stroke="midnightblue" d="M1636.5,-169.75C1676.74,-160.26 1743.41,-144.54 1787.54,-134.13"/>
<polygon fill="midnightblue" stroke="midnightblue" points="1788.12,-137.59 1797.05,-131.88 1786.52,-130.77 1788.12,-137.59"/>
</g>
<!-- Node10 -->
<g id="node6" class="node">
<title>Node10</title>
<g id="a_node6"><a xlink:title=" ">
<polygon fill="white" stroke="#bfbfbf" points="1673.32,-113 1673.32,-132.25 1780.82,-132.25 1780.82,-113 1673.32,-113"/>
<text xml:space="preserve" text-anchor="middle" x="1727.07" y="-118.75" font-family="Helvetica,sans-Serif" font-size="10.00">PlatformDefinitions.h</text>
</a>
</g>
</g>
<!-- Node2&#45;&gt;Node10 -->
<g id="edge5" class="edge">
<title>Node2&#45;&gt;Node10</title>
<path fill="none" stroke="midnightblue" d="M1622.99,-168.79C1642.82,-160.19 1672.87,-147.15 1695.59,-137.29"/>
<polygon fill="midnightblue" stroke="midnightblue" points="1696.91,-140.53 1704.69,-133.34 1694.12,-134.11 1696.91,-140.53"/>
</g>
<!-- Node11 -->
<g id="node7" class="node">
<title>Node11</title>
<g id="a_node7"><a xlink:href="_class_type_codes_8h.html" target="_top" xlink:title=" ">
<polygon fill="white" stroke="black" points="1139.44,-113 1139.44,-132.25 1238.69,-132.25 1238.69,-113 1139.44,-113"/>
<text xml:space="preserve" text-anchor="middle" x="1189.07" y="-118.75" font-family="Helvetica,sans-Serif" font-size="10.00">ClassTypeCodes.h</text>
</a>
</g>
</g>
<!-- Node2&#45;&gt;Node11 -->
<g id="edge6" class="edge">
<title>Node2&#45;&gt;Node11</title>
<path fill="none" stroke="midnightblue" d="M1567.75,-173.86C1506.2,-166.57 1372.68,-150.44 1250.11,-133.15"/>
<polygon fill="midnightblue" stroke="midnightblue" points="1250.93,-129.73 1240.54,-131.8 1249.95,-136.66 1250.93,-129.73"/>
</g>
<!-- Node12 -->
<g id="node8" class="node">
<title>Node12</title>
<g id="a_node8"><a xlink:href="_object_class_8hpp.html" target="_top" xlink:title=" ">
<polygon fill="white" stroke="black" points="823.69,-113 823.69,-132.25 912.44,-132.25 912.44,-113 823.69,-113"/>
<text xml:space="preserve" text-anchor="middle" x="868.07" y="-118.75" font-family="Helvetica,sans-Serif" font-size="10.00">ObjectClass.hpp</text>
</a>
</g>
</g>
<!-- Node2&#45;&gt;Node12 -->
<g id="edge7" class="edge">
<title>Node2&#45;&gt;Node12</title>
<path fill="none" stroke="midnightblue" d="M1567.47,-175.72C1471.57,-169.69 1194.24,-151.83 964.07,-132.75 951.04,-131.67 937.02,-130.4 923.83,-129.15"/>
<polygon fill="midnightblue" stroke="midnightblue" points="924.29,-125.68 914.01,-128.22 923.63,-132.65 924.29,-125.68"/>
</g>
<!-- Node18 -->
<g id="node13" class="node">
<title>Node18</title>
<g id="a_node13"><a xlink:href="_table_class_8hpp.html" target="_top" xlink:title=" ">
<polygon fill="white" stroke="black" points="1256.32,-113 1256.32,-132.25 1339.82,-132.25 1339.82,-113 1256.32,-113"/>
<text xml:space="preserve" text-anchor="middle" x="1298.07" y="-118.75" font-family="Helvetica,sans-Serif" font-size="10.00">TableClass.hpp</text>
</a>
</g>
</g>
<!-- Node2&#45;&gt;Node18 -->
<g id="edge13" class="edge">
<title>Node2&#45;&gt;Node18</title>
<path fill="none" stroke="midnightblue" d="M1567.69,-171.75C1521.12,-163.45 1435.06,-148.11 1351.35,-133.16"/>
<polygon fill="midnightblue" stroke="midnightblue" points="1352.04,-129.73 1341.58,-131.41 1350.81,-136.62 1352.04,-129.73"/>
</g>
<!-- Node30 -->
<g id="node15" class="node">
<title>Node30</title>
<g id="a_node15"><a xlink:href="_rexx_memory_8hpp.html" target="_top" xlink:title=" ">
<polygon fill="white" stroke="red" points="1883.19,-113 1883.19,-132.25 1974.94,-132.25 1974.94,-113 1883.19,-113"/>
<text xml:space="preserve" text-anchor="middle" x="1929.07" y="-118.75" font-family="Helvetica,sans-Serif" font-size="10.00">RexxMemory.hpp</text>
</a>
</g>
</g>
<!-- Node2&#45;&gt;Node30 -->
<g id="edge15" class="edge">
<title>Node2&#45;&gt;Node30</title>
<path fill="none" stroke="midnightblue" d="M1636.75,-172.12C1692.69,-162.84 1803.41,-144.47 1871.38,-133.2"/>
<polygon fill="midnightblue" stroke="midnightblue" points="1871.94,-136.65 1881.23,-131.56 1870.79,-129.75 1871.94,-136.65"/>
</g>
<!-- Node44 -->
<g id="node18" class="node">
<title>Node44</title>
<g id="a_node18"><a xlink:href="_rexx_behaviour_8hpp.html" target="_top" xlink:title=" ">
<polygon fill="white" stroke="red" points="1357.69,-113 1357.69,-132.25 1458.44,-132.25 1458.44,-113 1357.69,-113"/>
<text xml:space="preserve" text-anchor="middle" x="1408.07" y="-118.75" font-family="Helvetica,sans-Serif" font-size="10.00">RexxBehaviour.hpp</text>
</a>
</g>
</g>
<!-- Node2&#45;&gt;Node44 -->
<g id="edge19" class="edge">
<title>Node2&#45;&gt;Node44</title>
<path fill="none" stroke="midnightblue" d="M1569.6,-168.79C1537.28,-159.76 1487.48,-145.83 1451.72,-135.83"/>
<polygon fill="midnightblue" stroke="midnightblue" points="1452.68,-132.46 1442.1,-133.14 1450.79,-139.21 1452.68,-132.46"/>
</g>
<!-- Node23 -->
<g id="node19" class="node">
<title>Node23</title>
<g id="a_node19"><a xlink:href="_class_class_8hpp.html" target="_top" xlink:title=" ">
<polygon fill="white" stroke="red" points="1476.19,-113 1476.19,-132.25 1561.94,-132.25 1561.94,-113 1476.19,-113"/>
<text xml:space="preserve" text-anchor="middle" x="1519.07" y="-118.75" font-family="Helvetica,sans-Serif" font-size="10.00">ClassClass.hpp</text>
</a>
</g>
</g>
<!-- Node2&#45;&gt;Node23 -->
<g id="edge20" class="edge">
<title>Node2&#45;&gt;Node23</title>
<path fill="none" stroke="midnightblue" d="M1588.36,-168.92C1575.87,-160.75 1557.15,-148.52 1542.32,-138.82"/>
<polygon fill="midnightblue" stroke="midnightblue" points="1544.35,-135.97 1534.06,-133.42 1540.52,-141.83 1544.35,-135.97"/>
</g>
<!-- Node46 -->
<g id="node20" class="node">
<title>Node46</title>
<g id="a_node20"><a xlink:href="_envelope_8hpp.html" target="_top" xlink:title=" ">
<polygon fill="white" stroke="black" points="1580.44,-113 1580.44,-132.25 1655.69,-132.25 1655.69,-113 1580.44,-113"/>
<text xml:space="preserve" text-anchor="middle" x="1618.07" y="-118.75" font-family="Helvetica,sans-Serif" font-size="10.00">Envelope.hpp</text>
</a>
</g>
</g>
<!-- Node2&#45;&gt;Node46 -->
<g id="edge21" class="edge">
<title>Node2&#45;&gt;Node46</title>
<path fill="none" stroke="midnightblue" d="M1604.71,-168.92C1606.76,-161.96 1609.68,-152.07 1612.27,-143.3"/>
<polygon fill="midnightblue" stroke="midnightblue" points="1615.58,-144.45 1615.05,-133.87 1608.86,-142.47 1615.58,-144.45"/>
</g>
<!-- Node4 -->
<g id="node4" class="node">
<title>Node4</title>
<g id="a_node4"><a xlink:href="rexx_8h.html" target="_top" xlink:title=" ">
<polygon fill="white" stroke="red" points="1731.57,-56.75 1731.57,-76 1774.57,-76 1774.57,-56.75 1731.57,-56.75"/>
<text xml:space="preserve" text-anchor="middle" x="1753.07" y="-62.5" font-family="Helvetica,sans-Serif" font-size="10.00">rexx.h</text>
</a>
</g>
</g>
<!-- Node3&#45;&gt;Node4 -->
<g id="edge3" class="edge">
<title>Node3&#45;&gt;Node4</title>
<path fill="none" stroke="midnightblue" d="M1819.02,-112.67C1807.25,-104.58 1789.66,-92.5 1775.61,-82.85"/>
<polygon fill="midnightblue" stroke="midnightblue" points="1777.61,-79.98 1767.38,-77.2 1773.64,-85.75 1777.61,-79.98"/>
</g>
<!-- Node9 -->
<g id="node5" class="node">
<title>Node9</title>
<g id="a_node5"><a xlink:href="oorexxerrors_8h.html" target="_top" xlink:title=" ">
<polygon fill="white" stroke="black" points="1792.94,-56.75 1792.94,-76 1871.19,-76 1871.19,-56.75 1792.94,-56.75"/>
<text xml:space="preserve" text-anchor="middle" x="1832.07" y="-62.5" font-family="Helvetica,sans-Serif" font-size="10.00">oorexxerrors.h</text>
</a>
</g>
</g>
<!-- Node3&#45;&gt;Node9 -->
<g id="edge4" class="edge">
<title>Node3&#45;&gt;Node9</title>
<path fill="none" stroke="midnightblue" d="M1832.07,-112.67C1832.07,-105.87 1832.07,-96.26 1832.07,-87.65"/>
<polygon fill="midnightblue" stroke="midnightblue" points="1835.57,-87.68 1832.07,-77.68 1828.57,-87.68 1835.57,-87.68"/>
</g>
<!-- Node13 -->
<g id="node9" class="node">
<title>Node13</title>
<g id="a_node9"><a xlink:title=" ">
<polygon fill="white" stroke="#bfbfbf" points="860.07,-56.75 860.07,-76 894.07,-76 894.07,-56.75 860.07,-56.75"/>
<text xml:space="preserve" text-anchor="middle" x="877.07" y="-62.5" font-family="Helvetica,sans-Serif" font-size="10.00">new</text>
</a>
</g>
</g>
<!-- Node12&#45;&gt;Node13 -->
<g id="edge8" class="edge">
<title>Node12&#45;&gt;Node13</title>
<path fill="none" stroke="midnightblue" d="M869.56,-112.67C870.7,-105.79 872.31,-96.04 873.76,-87.35"/>
<polygon fill="midnightblue" stroke="midnightblue" points="877.18,-88.1 875.36,-77.66 870.27,-86.95 877.18,-88.1"/>
</g>
<!-- Node14 -->
<g id="node10" class="node">
<title>Node14</title>
<g id="a_node10"><a xlink:title=" ">
<polygon fill="white" stroke="#bfbfbf" points="991.94,-0.5 991.94,-19.75 1040.19,-19.75 1040.19,-0.5 991.94,-0.5"/>
<text xml:space="preserve" text-anchor="middle" x="1016.07" y="-6.25" font-family="Helvetica,sans-Serif" font-size="10.00">string.h</text>
</a>
</g>
</g>
<!-- Node12&#45;&gt;Node14 -->
<g id="edge9" class="edge">
<title>Node12&#45;&gt;Node14</title>
<path fill="none" stroke="midnightblue" d="M861.38,-112.65C852.18,-99.1 838.12,-73.22 851.07,-56.25 866.67,-35.81 936.63,-22.38 980.29,-15.83"/>
<polygon fill="midnightblue" stroke="midnightblue" points="980.68,-19.31 990.08,-14.41 979.68,-12.38 980.68,-19.31"/>
</g>
<!-- Node15 -->
<g id="node11" class="node">
<title>Node15</title>
<g id="a_node11"><a xlink:href="_numerics_8hpp.html" target="_top" xlink:title=" ">
<polygon fill="white" stroke="red" points="911.69,-56.75 911.69,-76 988.44,-76 988.44,-56.75 911.69,-56.75"/>
<text xml:space="preserve" text-anchor="middle" x="950.07" y="-62.5" font-family="Helvetica,sans-Serif" font-size="10.00">Numerics.hpp</text>
</a>
</g>
</g>
<!-- Node12&#45;&gt;Node15 -->
<g id="edge10" class="edge">
<title>Node12&#45;&gt;Node15</title>
<path fill="none" stroke="midnightblue" d="M881.61,-112.67C893.95,-104.5 912.45,-92.27 927.1,-82.57"/>
<polygon fill="midnightblue" stroke="midnightblue" points="928.84,-85.62 935.25,-77.18 924.98,-79.78 928.84,-85.62"/>
</g>
<!-- Node17 -->
<g id="node12" class="node">
<title>Node17</title>
<g id="a_node12"><a xlink:href="_rexx_error_codes_8h.html" target="_top" xlink:title=" ">
<polygon fill="white" stroke="black" points="706.57,-56.75 706.57,-76 803.57,-76 803.57,-56.75 706.57,-56.75"/>
<text xml:space="preserve" text-anchor="middle" x="755.07" y="-62.5" font-family="Helvetica,sans-Serif" font-size="10.00">RexxErrorCodes.h</text>
</a>
</g>
</g>
<!-- Node12&#45;&gt;Node17 -->
<g id="edge12" class="edge">
<title>Node12&#45;&gt;Node17</title>
<path fill="none" stroke="midnightblue" d="M849.16,-112.54C831.47,-104.06 804.81,-91.25 784.37,-81.44"/>
<polygon fill="midnightblue" stroke="midnightblue" points="785.94,-78.31 775.41,-77.14 782.91,-84.62 785.94,-78.31"/>
</g>
<!-- Node15&#45;&gt;Node2 -->
<g id="edge11" class="edge">
<title>Node15&#45;&gt;Node2</title>
<path fill="none" stroke="midnightblue" d="M969.82,-76.43C1002.42,-90.95 1069.91,-119.18 1130.07,-132.75 1283.65,-167.39 1471.2,-175.46 1556.24,-177.32"/>
<polygon fill="midnightblue" stroke="midnightblue" points="1555.96,-180.82 1566.03,-177.52 1556.1,-173.82 1555.96,-180.82"/>
</g>
<!-- Node19 -->
<g id="node14" class="node">
<title>Node19</title>
<g id="a_node14"><a xlink:href="_hash_collection_8hpp.html" target="_top" xlink:title=" ">
<polygon fill="white" stroke="red" points="1117.32,-56.75 1117.32,-76 1218.82,-76 1218.82,-56.75 1117.32,-56.75"/>
<text xml:space="preserve" text-anchor="middle" x="1168.07" y="-62.5" font-family="Helvetica,sans-Serif" font-size="10.00">HashCollection.hpp</text>
</a>
</g>
</g>
<!-- Node18&#45;&gt;Node19 -->
<g id="edge14" class="edge">
<title>Node18&#45;&gt;Node19</title>
<path fill="none" stroke="midnightblue" d="M1276.31,-112.54C1255.59,-103.9 1224.15,-90.78 1200.49,-80.9"/>
<polygon fill="midnightblue" stroke="midnightblue" points="1201.87,-77.69 1191.3,-77.07 1199.18,-84.15 1201.87,-77.69"/>
</g>
<!-- Node31 -->
<g id="node16" class="node">
<title>Node31</title>
<g id="a_node16"><a xlink:href="_memory_8hpp.html" target="_top" xlink:title=" ">
<polygon fill="white" stroke="black" points="1888.82,-56.75 1888.82,-76 1957.32,-76 1957.32,-56.75 1888.82,-56.75"/>
<text xml:space="preserve" text-anchor="middle" x="1923.07" y="-62.5" font-family="Helvetica,sans-Serif" font-size="10.00">Memory.hpp</text>
</a>
</g>
</g>
<!-- Node30&#45;&gt;Node31 -->
<g id="edge16" class="edge">
<title>Node30&#45;&gt;Node31</title>
<path fill="none" stroke="midnightblue" d="M1928.08,-112.67C1927.32,-105.79 1926.24,-96.04 1925.28,-87.35"/>
<polygon fill="midnightblue" stroke="midnightblue" points="1928.79,-87.23 1924.21,-77.67 1921.83,-88 1928.79,-87.23"/>
</g>
<!-- Node32 -->
<g id="node17" class="node">
<title>Node32</title>
<g id="a_node17"><a xlink:href="_memory_stack_8hpp.html" target="_top" xlink:title=" ">
<polygon fill="white" stroke="black" points="1975.32,-56.75 1975.32,-76 2070.82,-76 2070.82,-56.75 1975.32,-56.75"/>
<text xml:space="preserve" text-anchor="middle" x="2023.07" y="-62.5" font-family="Helvetica,sans-Serif" font-size="10.00">MemoryStack.hpp</text>
</a>
</g>
</g>
<!-- Node30&#45;&gt;Node32 -->
<g id="edge17" class="edge">
<title>Node30&#45;&gt;Node32</title>
<path fill="none" stroke="midnightblue" d="M1944.59,-112.67C1959.02,-104.34 1980.76,-91.79 1997.7,-82.02"/>
<polygon fill="midnightblue" stroke="midnightblue" points="1999.3,-85.13 2006.21,-77.1 1995.8,-79.07 1999.3,-85.13"/>
</g>
<!-- Node32&#45;&gt;Node14 -->
<g id="edge18" class="edge">
<title>Node32&#45;&gt;Node14</title>
<path fill="none" stroke="midnightblue" d="M1974.92,-57.28C1971.93,-56.9 1968.96,-56.55 1966.07,-56.25 1610.47,-19.46 1176.82,-12.62 1051.52,-11.39"/>
<polygon fill="midnightblue" stroke="midnightblue" points="1051.91,-7.89 1041.88,-11.3 1051.85,-14.89 1051.91,-7.89"/>
</g>
<!-- Node47&#45;&gt;Node17 -->
<g id="edge43" class="edge">
<title>Node47&#45;&gt;Node17</title>
<path fill="none" stroke="midnightblue" d="M1177.48,-346.31C1100.19,-344.95 912.59,-337.89 863.07,-301.5 790.36,-248.07 765.19,-133.62 757.78,-87.38"/>
<polygon fill="midnightblue" stroke="midnightblue" points="761.25,-86.9 756.32,-77.52 754.32,-87.92 761.25,-86.9"/>
</g>
<!-- Node48 -->
<g id="node22" class="node">
<title>Node48</title>
<g id="a_node22"><a xlink:href="_list_class_8hpp.html" target="_top" xlink:title=" ">
<polygon fill="white" stroke="red" points="1364.07,-281.75 1364.07,-301 1440.07,-301 1440.07,-281.75 1364.07,-281.75"/>
<text xml:space="preserve" text-anchor="middle" x="1402.07" y="-287.5" font-family="Helvetica,sans-Serif" font-size="10.00">ListClass.hpp</text>
</a>
</g>
</g>
<!-- Node47&#45;&gt;Node48 -->
<g id="edge23" class="edge">
<title>Node47&#45;&gt;Node48</title>
<path fill="none" stroke="midnightblue" d="M1243.04,-337.54C1274.85,-328.51 1323.88,-314.58 1359.09,-304.58"/>
<polygon fill="midnightblue" stroke="midnightblue" points="1359.88,-308 1368.54,-301.9 1357.96,-301.26 1359.88,-308"/>
</g>
<!-- Node50 -->
<g id="node23" class="node">
<title>Node50</title>
<g id="a_node23"><a xlink:href="_internal_stack_8hpp.html" target="_top" xlink:title=" ">
<polygon fill="white" stroke="black" points="871.82,-281.75 871.82,-301 964.32,-301 964.32,-281.75 871.82,-281.75"/>
<text xml:space="preserve" text-anchor="middle" x="918.07" y="-287.5" font-family="Helvetica,sans-Serif" font-size="10.00">InternalStack.hpp</text>
</a>
</g>
</g>
<!-- Node47&#45;&gt;Node50 -->
<g id="edge24" class="edge">
<title>Node47&#45;&gt;Node50</title>
<path fill="none" stroke="midnightblue" d="M1177.46,-340.4C1128.32,-331.3 1036.17,-314.24 975.98,-303.1"/>
<polygon fill="midnightblue" stroke="midnightblue" points="976.72,-299.67 966.25,-301.3 975.44,-306.56 976.72,-299.67"/>
</g>
<!-- Node51 -->
<g id="node24" class="node">
<title>Node51</title>
<g id="a_node24"><a xlink:href="_activation_stack_8hpp.html" target="_top" xlink:title=" ">
<polygon fill="white" stroke="black" points="982.19,-281.75 982.19,-301 1085.94,-301 1085.94,-281.75 982.19,-281.75"/>
<text xml:space="preserve" text-anchor="middle" x="1034.07" y="-287.5" font-family="Helvetica,sans-Serif" font-size="10.00">ActivationStack.hpp</text>
</a>
</g>
</g>
<!-- Node47&#45;&gt;Node51 -->
<g id="edge25" class="edge">
<title>Node47&#45;&gt;Node51</title>
<path fill="none" stroke="midnightblue" d="M1181.44,-337.54C1152.22,-328.59 1107.31,-314.82 1074.75,-304.84"/>
<polygon fill="midnightblue" stroke="midnightblue" points="1075.83,-301.51 1065.24,-301.93 1073.77,-308.21 1075.83,-301.51"/>
</g>
<!-- Node52 -->
<g id="node25" class="node">
<title>Node52</title>
<g id="a_node25"><a xlink:href="_expression_stack_8hpp.html" target="_top" xlink:title=" ">
<polygon fill="white" stroke="red" points="510.57,-281.75 510.57,-301 619.57,-301 619.57,-281.75 510.57,-281.75"/>
<text xml:space="preserve" text-anchor="middle" x="565.07" y="-287.5" font-family="Helvetica,sans-Serif" font-size="10.00">ExpressionStack.hpp</text>
</a>
</g>
</g>
<!-- Node47&#45;&gt;Node52 -->
<g id="edge26" class="edge">
<title>Node47&#45;&gt;Node52</title>
<path fill="none" stroke="midnightblue" d="M1177.7,-343.82C1075.8,-335.26 767.35,-309.36 631.04,-297.92"/>
<polygon fill="midnightblue" stroke="midnightblue" points="631.73,-294.46 621.47,-297.11 631.14,-301.44 631.73,-294.46"/>
</g>
<!-- Node53 -->
<g id="node26" class="node">
<title>Node53</title>
<g id="a_node26"><a xlink:href="_rexx_local_variables_8hpp.html" target="_top" xlink:title=" ">
<polygon fill="white" stroke="red" points="694.57,-281.75 694.57,-301 815.57,-301 815.57,-281.75 694.57,-281.75"/>
<text xml:space="preserve" text-anchor="middle" x="755.07" y="-287.5" font-family="Helvetica,sans-Serif" font-size="10.00">RexxLocalVariables.hpp</text>
</a>
</g>
</g>
<!-- Node47&#45;&gt;Node53 -->
<g id="edge27" class="edge">
<title>Node47&#45;&gt;Node53</title>
<path fill="none" stroke="midnightblue" d="M1177.68,-342.71C1111.41,-334.92 958.53,-316.92 830.07,-301.5 829.07,-301.38 828.07,-301.26 827.06,-301.14"/>
<polygon fill="midnightblue" stroke="midnightblue" points="827.91,-297.72 817.56,-299.99 827.07,-304.66 827.91,-297.72"/>
</g>
<!-- Node57 -->
<g id="node27" class="node">
<title>Node57</title>
<g id="a_node27"><a xlink:href="_source_location_8hpp.html" target="_top" xlink:title=" ">
<polygon fill="white" stroke="black" points="1103.94,-281.75 1103.94,-301 1206.19,-301 1206.19,-281.75 1103.94,-281.75"/>
<text xml:space="preserve" text-anchor="middle" x="1155.07" y="-287.5" font-family="Helvetica,sans-Serif" font-size="10.00">SourceLocation.hpp</text>
</a>
</g>
</g>
<!-- Node47&#45;&gt;Node57 -->
<g id="edge29" class="edge">
<title>Node47&#45;&gt;Node57</title>
<path fill="none" stroke="midnightblue" d="M1201.82,-337.67C1193.83,-329.92 1182.07,-318.53 1172.34,-309.11"/>
<polygon fill="midnightblue" stroke="midnightblue" points="1174.85,-306.66 1165.23,-302.22 1169.98,-311.69 1174.85,-306.66"/>
</g>
<!-- Node58 -->
<g id="node28" class="node">
<title>Node58</title>
<g id="a_node28"><a xlink:href="_exit_handler_8hpp.html" target="_top" xlink:title=" ">
<polygon fill="white" stroke="red" points="1559.57,-225.5 1559.57,-244.75 1644.57,-244.75 1644.57,-225.5 1559.57,-225.5"/>
<text xml:space="preserve" text-anchor="middle" x="1602.07" y="-231.25" font-family="Helvetica,sans-Serif" font-size="10.00">ExitHandler.hpp</text>
</a>
</g>
</g>
<!-- Node47&#45;&gt;Node58 -->
<g id="edge30" class="edge">
<title>Node47&#45;&gt;Node58</title>
<path fill="none" stroke="midnightblue" d="M1244.37,-343.66C1293.74,-338.61 1388.83,-326.38 1466.07,-301.5 1506.4,-288.51 1550.04,-265.84 1576.73,-250.91"/>
<polygon fill="midnightblue" stroke="midnightblue" points="1578.45,-253.95 1585.42,-245.97 1575,-247.87 1578.45,-253.95"/>
</g>
<!-- Node60 -->
<g id="node29" class="node">
<title>Node60</title>
<g id="a_node29"><a xlink:href="_activation_api_contexts_8hpp.html" target="_top" xlink:title=" ">
<polygon fill="white" stroke="black" points="1370.94,-225.5 1370.94,-244.75 1503.19,-244.75 1503.19,-225.5 1370.94,-225.5"/>
<text xml:space="preserve" text-anchor="middle" x="1437.07" y="-231.25" font-family="Helvetica,sans-Serif" font-size="10.00">ActivationApiContexts.hpp</text>
</a>
</g>
</g>
<!-- Node47&#45;&gt;Node60 -->
<g id="edge32" class="edge">
<title>Node47&#45;&gt;Node60</title>
<path fill="none" stroke="midnightblue" d="M1244.35,-345.36C1303.58,-342.33 1423.45,-332.43 1449.07,-301.5 1459.76,-288.6 1454.46,-269.3 1447.88,-255.02"/>
<polygon fill="midnightblue" stroke="midnightblue" points="1451.01,-253.46 1443.29,-246.19 1444.8,-256.68 1451.01,-253.46"/>
</g>
<!-- Node61 -->
<g id="node30" class="node">
<title>Node61</title>
<g id="a_node30"><a xlink:title=" ">
<polygon fill="white" stroke="#bfbfbf" points="1224.32,-281.75 1224.32,-301 1307.82,-301 1307.82,-281.75 1224.32,-281.75"/>
<text xml:space="preserve" text-anchor="middle" x="1266.07" y="-287.5" font-family="Helvetica,sans-Serif" font-size="10.00">SysActivity.hpp</text>
</a>
</g>
</g>
<!-- Node47&#45;&gt;Node61 -->
<g id="edge33" class="edge">
<title>Node47&#45;&gt;Node61</title>
<path fill="none" stroke="midnightblue" d="M1220.15,-337.67C1228,-329.92 1239.55,-318.53 1249.11,-309.11"/>
<polygon fill="midnightblue" stroke="midnightblue" points="1251.42,-311.74 1256.08,-302.23 1246.5,-306.76 1251.42,-311.74"/>
</g>
<!-- Node62 -->
<g id="node31" class="node">
<title>Node62</title>
<g id="a_node31"><a xlink:href="_string_table_class_8hpp.html" target="_top" xlink:title=" ">
<polygon fill="white" stroke="black" points="1099.57,-169.25 1099.57,-188.5 1208.57,-188.5 1208.57,-169.25 1099.57,-169.25"/>
<text xml:space="preserve" text-anchor="middle" x="1154.07" y="-175" font-family="Helvetica,sans-Serif" font-size="10.00">StringTableClass.hpp</text>
</a>
</g>
</g>
<!-- Node47&#45;&gt;Node62 -->
<g id="edge34" class="edge">
<title>Node47&#45;&gt;Node62</title>
<path fill="none" stroke="midnightblue" d="M1244.64,-340.4C1282.01,-331.77 1334.98,-313.47 1317.07,-281.25 1291.45,-235.15 1235.22,-207.31 1196.01,-192.77"/>
<polygon fill="midnightblue" stroke="midnightblue" points="1197.21,-189.48 1186.62,-189.43 1194.87,-196.08 1197.21,-189.48"/>
</g>
<!-- Node47&#45;&gt;Node63 -->
<g id="edge36" class="edge">
<title>Node47&#45;&gt;Node63</title>
<path fill="none" stroke="midnightblue" d="M1244.65,-342.28C1312.9,-333.44 1469.07,-313.22 1560.29,-301.41"/>
<polygon fill="midnightblue" stroke="midnightblue" points="1560.66,-304.89 1570.13,-300.14 1559.76,-297.95 1560.66,-304.89"/>
</g>
<!-- Node53&#45;&gt;Node14 -->
<g id="edge28" class="edge">
<title>Node53&#45;&gt;Node14</title>
<path fill="none" stroke="midnightblue" d="M771.25,-281.29C815.43,-255.56 938.72,-177.48 997.07,-76.5 1005.22,-62.4 1010.1,-44.53 1012.87,-31.04"/>
<polygon fill="midnightblue" stroke="midnightblue" points="1016.24,-32.07 1014.58,-21.61 1009.35,-30.82 1016.24,-32.07"/>
</g>
<!-- Node58&#45;&gt;Node2 -->
<g id="edge31" class="edge">
<title>Node58&#45;&gt;Node2</title>
<path fill="none" stroke="midnightblue" d="M1602.07,-225.17C1602.07,-218.37 1602.07,-208.76 1602.07,-200.15"/>
<polygon fill="midnightblue" stroke="midnightblue" points="1605.57,-200.18 1602.07,-190.18 1598.57,-200.18 1605.57,-200.18"/>
</g>
<!-- Node62&#45;&gt;Node19 -->
<g id="edge35" class="edge">
<title>Node62&#45;&gt;Node19</title>
<path fill="none" stroke="midnightblue" d="M1146.69,-169C1137.18,-156.43 1122.69,-132.72 1130.07,-112.5 1133.95,-101.87 1141.55,-92.02 1148.95,-84.25"/>
<polygon fill="midnightblue" stroke="midnightblue" points="1151.18,-86.96 1155.91,-77.48 1146.3,-81.94 1151.18,-86.96"/>
</g>
<!-- Node63&#45;&gt;Node2 -->
<g id="edge37" class="edge">
<title>Node63&#45;&gt;Node2</title>
<path fill="none" stroke="midnightblue" d="M1688.57,-287.69C1751.86,-282.6 1839.42,-267.82 1805.07,-225 1785.76,-200.93 1701.71,-188.88 1648,-183.54"/>
<polygon fill="midnightblue" stroke="midnightblue" points="1648.5,-180.07 1638.21,-182.61 1647.84,-187.04 1648.5,-180.07"/>
</g>
<!-- Node63&#45;&gt;Node58 -->
<g id="edge38" class="edge">
<title>Node63&#45;&gt;Node58</title>
<path fill="none" stroke="midnightblue" d="M1625.45,-281.42C1621.74,-274.23 1616.4,-263.89 1611.76,-254.9"/>
<polygon fill="midnightblue" stroke="midnightblue" points="1615,-253.54 1607.3,-246.26 1608.78,-256.75 1615,-253.54"/>
</g>
<!-- Node63&#45;&gt;Node60 -->
<g id="edge39" class="edge">
<title>Node63&#45;&gt;Node60</title>
<path fill="none" stroke="midnightblue" d="M1597.77,-281.29C1565.62,-272.26 1516.08,-258.33 1480.5,-248.33"/>
<polygon fill="midnightblue" stroke="midnightblue" points="1481.51,-244.98 1470.94,-245.64 1479.62,-251.72 1481.51,-244.98"/>
</g>
<!-- Node64 -->
<g id="node33" class="node">
<title>Node64</title>
<g id="a_node33"><a xlink:title=" ">
<polygon fill="white" stroke="#bfbfbf" points="1662.19,-225.5 1662.19,-244.75 1795.94,-244.75 1795.94,-225.5 1662.19,-225.5"/>
<text xml:space="preserve" text-anchor="middle" x="1729.07" y="-231.25" font-family="Helvetica,sans-Serif" font-size="10.00">SysInterpreterInstance.hpp</text>
</a>
</g>
</g>
<!-- Node63&#45;&gt;Node64 -->
<g id="edge40" class="edge">
<title>Node63&#45;&gt;Node64</title>
<path fill="none" stroke="midnightblue" d="M1646.42,-281.42C1661.68,-273.05 1684.72,-260.43 1702.61,-250.63"/>
<polygon fill="midnightblue" stroke="midnightblue" points="1704.28,-253.7 1711.37,-245.82 1700.92,-247.56 1704.28,-253.7"/>
</g>
<!-- Node65 -->
<g id="node34" class="node">
<title>Node65</title>
<g id="a_node34"><a xlink:href="_command_handler_8hpp.html" target="_top" xlink:title=" ">
<polygon fill="white" stroke="red" points="1851.69,-225.5 1851.69,-244.75 1964.44,-244.75 1964.44,-225.5 1851.69,-225.5"/>
<text xml:space="preserve" text-anchor="middle" x="1908.07" y="-231.25" font-family="Helvetica,sans-Serif" font-size="10.00">CommandHandler.hpp</text>
</a>
</g>
</g>
<!-- Node63&#45;&gt;Node65 -->
<g id="edge41" class="edge">
<title>Node63&#45;&gt;Node65</title>
<path fill="none" stroke="midnightblue" d="M1676.6,-281.29C1724.31,-271.98 1798.62,-257.48 1850.12,-247.43"/>
<polygon fill="midnightblue" stroke="midnightblue" points="1850.76,-250.88 1859.9,-245.52 1849.42,-244 1850.76,-250.88"/>
</g>
<!-- Node65&#45;&gt;Node2 -->
<g id="edge42" class="edge">
<title>Node65&#45;&gt;Node2</title>
<path fill="none" stroke="midnightblue" d="M1856.85,-225.04C1798.44,-214.69 1703.79,-197.91 1647.78,-187.98"/>
<polygon fill="midnightblue" stroke="midnightblue" points="1648.72,-184.59 1638.27,-186.29 1647.5,-191.48 1648.72,-184.59"/>
</g>
<!-- Node66&#45;&gt;Node52 -->
<g id="edge47" class="edge">
<title>Node66&#45;&gt;Node52</title>
<path fill="none" stroke="midnightblue" d="M530.07,-453.65C555.56,-448.05 584.28,-436.74 600.07,-414 631.69,-368.47 543.09,-391.98 521.07,-357.75 510.12,-340.73 526.52,-321.54 542.32,-308.38"/>
<polygon fill="midnightblue" stroke="midnightblue" points="544.39,-311.21 550.15,-302.32 540.1,-305.68 544.39,-311.21"/>
</g>
<!-- Node67 -->
<g id="node36" class="node">
<title>Node67</title>
<g id="a_node36"><a xlink:href="_activation_base_8hpp.html" target="_top" xlink:title=" ">
<polygon fill="white" stroke="black" points="475.69,-169.25 475.69,-188.5 576.44,-188.5 576.44,-169.25 475.69,-169.25"/>
<text xml:space="preserve" text-anchor="middle" x="526.07" y="-175" font-family="Helvetica,sans-Serif" font-size="10.00">ActivationBase.hpp</text>
</a>
</g>
</g>
<!-- Node66&#45;&gt;Node67 -->
<g id="edge45" class="edge">
<title>Node66&#45;&gt;Node67</title>
<path fill="none" stroke="midnightblue" d="M473.63,-450.03C463.12,-431.59 441.07,-388.18 441.07,-348.62 441.07,-348.62 441.07,-348.62 441.07,-290.38 441.07,-249.6 477.88,-214.63 503.06,-195.49"/>
<polygon fill="midnightblue" stroke="midnightblue" points="504.79,-198.56 510.81,-189.84 500.67,-192.9 504.79,-198.56"/>
</g>
<!-- Node68 -->
<g id="node37" class="node">
<title>Node68</title>
<g id="a_node37"><a xlink:href="_do_block_8hpp.html" target="_top" xlink:title=" ">
<polygon fill="white" stroke="red" points="302.94,-394.25 302.94,-413.5 375.19,-413.5 375.19,-394.25 302.94,-394.25"/>
<text xml:space="preserve" text-anchor="middle" x="339.07" y="-400" font-family="Helvetica,sans-Serif" font-size="10.00">DoBlock.hpp</text>
</a>
</g>
</g>
<!-- Node66&#45;&gt;Node68 -->
<g id="edge48" class="edge">
<title>Node66&#45;&gt;Node68</title>
<path fill="none" stroke="midnightblue" d="M455.64,-450.04C433.12,-441.32 398.85,-428.04 373.29,-418.14"/>
<polygon fill="midnightblue" stroke="midnightblue" points="374.58,-414.88 363.99,-414.53 372.05,-421.41 374.58,-414.88"/>
</g>
<!-- Node70 -->
<g id="node38" class="node">
<title>Node70</title>
<g id="a_node38"><a xlink:href="_rexx_code_8hpp.html" target="_top" xlink:title=" ">
<polygon fill="white" stroke="red" points="830.44,-338 830.44,-357.25 911.69,-357.25 911.69,-338 830.44,-338"/>
<text xml:space="preserve" text-anchor="middle" x="871.07" y="-343.75" font-family="Helvetica,sans-Serif" font-size="10.00">RexxCode.hpp</text>
</a>
</g>
</g>
<!-- Node66&#45;&gt;Node70 -->
<g id="edge49" class="edge">
<title>Node66&#45;&gt;Node70</title>
<path fill="none" stroke="midnightblue" d="M530.12,-458.49C591.18,-456.16 695.48,-447.11 778.07,-414 807.09,-402.37 835.8,-380.1 853.47,-364.82"/>
<polygon fill="midnightblue" stroke="midnightblue" points="855.37,-367.81 860.52,-358.56 850.72,-362.58 855.37,-367.81"/>
</g>
<!-- Node88 -->
<g id="node39" class="node">
<title>Node88</title>
<g id="a_node39"><a xlink:href="_activity_manager_8hpp.html" target="_top" xlink:title=" ">
<polygon fill="white" stroke="red" points="646.82,-394.25 646.82,-413.5 751.32,-413.5 751.32,-394.25 646.82,-394.25"/>
<text xml:space="preserve" text-anchor="middle" x="699.07" y="-400" font-family="Helvetica,sans-Serif" font-size="10.00">ActivityManager.hpp</text>
</a>
</g>
</g>
<!-- Node66&#45;&gt;Node88 -->
<g id="edge51" class="edge">
<title>Node66&#45;&gt;Node88</title>
<path fill="none" stroke="midnightblue" d="M515.89,-450.04C553.01,-440.89 610.48,-426.72 651.14,-416.69"/>
<polygon fill="midnightblue" stroke="midnightblue" points="651.79,-420.14 660.66,-414.35 650.11,-413.34 651.79,-420.14"/>
</g>
<!-- Node72 -->
<g id="node40" class="node">
<title>Node72</title>
<g id="a_node40"><a xlink:href="_activation_settings_8hpp.html" target="_top" xlink:title=" ">
<polygon fill="white" stroke="red" points="697.94,-338 697.94,-357.25 812.19,-357.25 812.19,-338 697.94,-338"/>
<text xml:space="preserve" text-anchor="middle" x="755.07" y="-343.75" font-family="Helvetica,sans-Serif" font-size="10.00">ActivationSettings.hpp</text>
</a>
</g>
</g>
<!-- Node66&#45;&gt;Node72 -->
<g id="edge62" class="edge">
<title>Node66&#45;&gt;Node72</title>
<path fill="none" stroke="midnightblue" d="M530.13,-458.53C602.96,-456.48 731.11,-447.99 760.07,-414 770.68,-401.55 767.8,-382.47 763.23,-368.13"/>
<polygon fill="midnightblue" stroke="midnightblue" points="766.55,-367.02 759.79,-358.87 759.99,-369.46 766.55,-367.02"/>
</g>
<!-- Node92 -->
<g id="node41" class="node">
<title>Node92</title>
<g id="a_node41"><a xlink:title=" ">
<polygon fill="white" stroke="#bfbfbf" points="530.07,-338 530.07,-357.25 642.07,-357.25 642.07,-338 530.07,-338"/>
<text xml:space="preserve" text-anchor="middle" x="586.07" y="-343.75" font-family="Helvetica,sans-Serif" font-size="10.00">SystemInterpreter.hpp</text>
</a>
</g>
</g>
<!-- Node66&#45;&gt;Node92 -->
<g id="edge66" class="edge">
<title>Node66&#45;&gt;Node92</title>
<path fill="none" stroke="midnightblue" d="M479.48,-450.05C480.55,-436.38 484.38,-410.34 498.07,-393.75 509.99,-379.3 527.74,-368.97 544.17,-361.88"/>
<polygon fill="midnightblue" stroke="midnightblue" points="545.32,-365.19 553.31,-358.23 542.72,-358.69 545.32,-365.19"/>
</g>
<!-- Node93 -->
<g id="node42" class="node">
<title>Node93</title>
<g id="a_node42"><a xlink:href="_compound_variable_tail_8hpp.html" target="_top" xlink:title=" ">
<polygon fill="white" stroke="red" points="29.32,-394.25 29.32,-413.5 160.82,-413.5 160.82,-394.25 29.32,-394.25"/>
<text xml:space="preserve" text-anchor="middle" x="95.07" y="-400" font-family="Helvetica,sans-Serif" font-size="10.00">CompoundVariableTail.hpp</text>
</a>
</g>
</g>
<!-- Node66&#45;&gt;Node93 -->
<g id="edge57" class="edge">
<title>Node66&#45;&gt;Node93</title>
<path fill="none" stroke="midnightblue" d="M428.08,-451.92C362.06,-442.59 246.48,-426.27 170.35,-415.51"/>
<polygon fill="midnightblue" stroke="midnightblue" points="171.3,-412.11 160.91,-414.18 170.32,-419.04 171.3,-412.11"/>
</g>
<!-- Node87 -->
<g id="node43" class="node">
<title>Node87</title>
<g id="a_node43"><a xlink:href="_protected_object_8hpp.html" target="_top" xlink:title=" ">
<polygon fill="white" stroke="black" points="179.44,-338 179.44,-357.25 284.69,-357.25 284.69,-338 179.44,-338"/>
<text xml:space="preserve" text-anchor="middle" x="232.07" y="-343.75" font-family="Helvetica,sans-Serif" font-size="10.00">ProtectedObject.hpp</text>
</a>
</g>
</g>
<!-- Node66&#45;&gt;Node87 -->
<g id="edge65" class="edge">
<title>Node66&#45;&gt;Node87</title>
<path fill="none" stroke="midnightblue" d="M468.37,-450.06C451.47,-436.16 417.13,-409.54 384.07,-393.75 353.12,-378.97 316.3,-367.89 286.65,-360.4"/>
<polygon fill="midnightblue" stroke="midnightblue" points="287.68,-357.05 277.13,-358.07 286.01,-363.85 287.68,-357.05"/>
</g>
<!-- Node95 -->
<g id="node44" class="node">
<title>Node95</title>
<g id="a_node44"><a xlink:href="_context_class_8hpp.html" target="_top" xlink:title=" ">
<polygon fill="white" stroke="black" points="138.69,-169.25 138.69,-188.5 233.44,-188.5 233.44,-169.25 138.69,-169.25"/>
<text xml:space="preserve" text-anchor="middle" x="186.07" y="-175" font-family="Helvetica,sans-Serif" font-size="10.00">ContextClass.hpp</text>
</a>
</g>
</g>
<!-- Node66&#45;&gt;Node95 -->
<g id="edge59" class="edge">
<title>Node66&#45;&gt;Node95</title>
<path fill="none" stroke="midnightblue" d="M428.06,-457.3C315.01,-452.8 50.95,-439.64 20.07,-414 -3.21,-394.67 1.07,-378.88 1.07,-348.62 1.07,-348.62 1.07,-348.62 1.07,-290.38 1.07,-230.53 73.32,-202.33 127.51,-189.59"/>
<polygon fill="midnightblue" stroke="midnightblue" points="127.94,-193.08 136.95,-187.5 126.43,-186.25 127.94,-193.08"/>
</g>
<!-- Node96 -->
<g id="node45" class="node">
<title>Node96</title>
<g id="a_node45"><a xlink:href="_stem_class_8hpp.html" target="_top" xlink:title=" ">
<polygon fill="white" stroke="red" points="507.32,-394.25 507.32,-413.5 590.82,-413.5 590.82,-394.25 507.32,-394.25"/>
<text xml:space="preserve" text-anchor="middle" x="549.07" y="-400" font-family="Helvetica,sans-Serif" font-size="10.00">StemClass.hpp</text>
</a>
</g>
</g>
<!-- Node66&#45;&gt;Node96 -->
<g id="edge61" class="edge">
<title>Node66&#45;&gt;Node96</title>
<path fill="none" stroke="midnightblue" d="M490.63,-450.17C501.03,-442.11 516.53,-430.09 528.96,-420.46"/>
<polygon fill="midnightblue" stroke="midnightblue" points="530.77,-423.49 536.53,-414.59 526.48,-417.95 530.77,-423.49"/>
</g>
<!-- Node86 -->
<g id="node46" class="node">
<title>Node86</title>
<g id="a_node46"><a xlink:href="_base_executable_8hpp.html" target="_top" xlink:title=" ">
<polygon fill="white" stroke="red" points="179.07,-394.25 179.07,-413.5 285.07,-413.5 285.07,-394.25 179.07,-394.25"/>
<text xml:space="preserve" text-anchor="middle" x="232.07" y="-400" font-family="Helvetica,sans-Serif" font-size="10.00">BaseExecutable.hpp</text>
</a>
</g>
</g>
<!-- Node66&#45;&gt;Node86 -->
<g id="edge63" class="edge">
<title>Node66&#45;&gt;Node86</title>
<path fill="none" stroke="midnightblue" d="M437.73,-450.04C395.69,-440.81 330.42,-426.48 284.72,-416.44"/>
<polygon fill="midnightblue" stroke="midnightblue" points="285.54,-413.04 275.03,-414.31 284.04,-419.87 285.54,-413.04"/>
</g>
<!-- Node67&#45;&gt;Node15 -->
<g id="edge46" class="edge">
<title>Node67&#45;&gt;Node15</title>
<path fill="none" stroke="midnightblue" d="M576.67,-178.18C670.65,-177.79 867.46,-172.13 921.07,-132.75 935.61,-122.07 942.99,-102.45 946.65,-87.48"/>
<polygon fill="midnightblue" stroke="midnightblue" points="950.06,-88.28 948.62,-77.78 943.2,-86.88 950.06,-88.28"/>
</g>
<!-- Node70&#45;&gt;Node53 -->
<g id="edge50" class="edge">
<title>Node70&#45;&gt;Node53</title>
<path fill="none" stroke="midnightblue" d="M851.65,-337.54C833.42,-329.02 805.87,-316.13 784.86,-306.31"/>
<polygon fill="midnightblue" stroke="midnightblue" points="786.46,-303.19 775.92,-302.13 783.5,-309.53 786.46,-303.19"/>
</g>
<!-- Node88&#45;&gt;Node17 -->
<g id="edge56" class="edge">
<title>Node88&#45;&gt;Node17</title>
<path fill="none" stroke="midnightblue" d="M696.02,-393.96C687.85,-369.22 666.07,-297.51 666.07,-236.12 666.07,-236.12 666.07,-236.12 666.07,-177.88 666.07,-136.37 704.62,-101.64 730.97,-82.74"/>
<polygon fill="midnightblue" stroke="midnightblue" points="732.86,-85.69 739.13,-77.15 728.9,-79.92 732.86,-85.69"/>
</g>
<!-- Node88&#45;&gt;Node47 -->
<g id="edge52" class="edge">
<title>Node88&#45;&gt;Node47</title>
<path fill="none" stroke="midnightblue" d="M751.46,-397.32C852.28,-386.64 1071.67,-363.4 1166.23,-353.38"/>
<polygon fill="midnightblue" stroke="midnightblue" points="1166.57,-356.86 1176.15,-352.33 1165.84,-349.9 1166.57,-356.86"/>
</g>
<!-- Node88&#45;&gt;Node72 -->
<g id="edge53" class="edge">
<title>Node88&#45;&gt;Node72</title>
<path fill="none" stroke="midnightblue" d="M708.32,-393.92C716.31,-386.17 728.07,-374.78 737.8,-365.36"/>
<polygon fill="midnightblue" stroke="midnightblue" points="740.16,-367.94 744.91,-358.47 735.29,-362.91 740.16,-367.94"/>
</g>
<!-- Node88&#45;&gt;Node92 -->
<g id="edge55" class="edge">
<title>Node88&#45;&gt;Node92</title>
<path fill="none" stroke="midnightblue" d="M680.16,-393.79C662.47,-385.31 635.81,-372.5 615.37,-362.69"/>
<polygon fill="midnightblue" stroke="midnightblue" points="616.94,-359.56 606.41,-358.39 613.91,-365.87 616.94,-359.56"/>
</g>
<!-- Node72&#45;&gt;Node53 -->
<g id="edge54" class="edge">
<title>Node72&#45;&gt;Node53</title>
<path fill="none" stroke="midnightblue" d="M755.07,-337.67C755.07,-330.87 755.07,-321.26 755.07,-312.65"/>
<polygon fill="midnightblue" stroke="midnightblue" points="758.57,-312.68 755.07,-302.68 751.57,-312.68 758.57,-312.68"/>
</g>
<!-- Node93&#45;&gt;Node87 -->
<g id="edge58" class="edge">
<title>Node93&#45;&gt;Node87</title>
<path fill="none" stroke="midnightblue" d="M118,-393.79C140.03,-385.07 173.57,-371.79 198.58,-361.89"/>
<polygon fill="midnightblue" stroke="midnightblue" points="199.65,-365.23 207.66,-358.29 197.07,-358.72 199.65,-365.23"/>
</g>
<!-- Node95&#45;&gt;Node12 -->
<g id="edge60" class="edge">
<title>Node95&#45;&gt;Node12</title>
<path fill="none" stroke="midnightblue" d="M233.76,-174.08C356.11,-164.35 680.75,-138.53 811.92,-128.09"/>
<polygon fill="midnightblue" stroke="midnightblue" points="812.05,-131.59 821.74,-127.31 811.5,-124.61 812.05,-131.59"/>
</g>
<!-- Node86&#45;&gt;Node87 -->
<g id="edge64" class="edge">
<title>Node86&#45;&gt;Node87</title>
<path fill="none" stroke="midnightblue" d="M232.07,-393.92C232.07,-387.12 232.07,-377.51 232.07,-368.9"/>
<polygon fill="midnightblue" stroke="midnightblue" points="235.57,-368.93 232.07,-358.93 228.57,-368.93 235.57,-368.93"/>
</g>
<!-- Node98&#45;&gt;Node2 -->
<g id="edge69" class="edge">
<title>Node98&#45;&gt;Node2</title>
<path fill="none" stroke="midnightblue" d="M2034.69,-450.01C2020.78,-431.87 1992.07,-389.47 1992.07,-348.62 1992.07,-348.62 1992.07,-348.62 1992.07,-290.38 1992.07,-260.12 1996.12,-244.6 1973.07,-225 1925.05,-184.18 1736.25,-179.33 1648,-179.36"/>
<polygon fill="midnightblue" stroke="midnightblue" points="1648.24,-175.86 1638.25,-179.39 1648.26,-182.86 1648.24,-175.86"/>
</g>
<!-- Node99 -->
<g id="node48" class="node">
<title>Node99</title>
<g id="a_node48"><a xlink:title=" ">
<polygon fill="white" stroke="#bfbfbf" points="2081.19,-394.25 2081.19,-413.5 2130.94,-413.5 2130.94,-394.25 2081.19,-394.25"/>
<text xml:space="preserve" text-anchor="middle" x="2106.07" y="-400" font-family="Helvetica,sans-Serif" font-size="10.00">signal.h</text>
</a>
</g>
</g>
<!-- Node98&#45;&gt;Node99 -->
<g id="edge70" class="edge">
<title>Node98&#45;&gt;Node99</title>
<path fill="none" stroke="midnightblue" d="M2052.64,-450.17C2061.96,-442.27 2075.77,-430.56 2087.01,-421.03"/>
<polygon fill="midnightblue" stroke="midnightblue" points="2089.18,-423.78 2094.54,-414.65 2084.65,-418.44 2089.18,-423.78"/>
</g>
<!-- Node100 -->
<g id="node49" class="node">
<title>Node100</title>
<g id="a_node49"><a xlink:title=" ">
<polygon fill="white" stroke="#bfbfbf" points="2149.19,-394.25 2149.19,-413.5 2210.94,-413.5 2210.94,-394.25 2149.19,-394.25"/>
<text xml:space="preserve" text-anchor="middle" x="2180.07" y="-400" font-family="Helvetica,sans-Serif" font-size="10.00">sys/time.h</text>
</a>
</g>
</g>
<!-- Node98&#45;&gt;Node100 -->
<g id="edge71" class="edge">
<title>Node98&#45;&gt;Node100</title>
<path fill="none" stroke="midnightblue" d="M2065.17,-450.04C2087.36,-441.32 2121.14,-428.04 2146.34,-418.14"/>
<polygon fill="midnightblue" stroke="midnightblue" points="2147.46,-421.45 2155.49,-414.54 2144.9,-414.94 2147.46,-421.45"/>
</g>
<!-- Node101 -->
<g id="node50" class="node">
<title>Node101</title>
<g id="a_node50"><a xlink:title=" ">
<polygon fill="white" stroke="#bfbfbf" points="2020.57,-394.25 2020.57,-413.5 2063.57,-413.5 2063.57,-394.25 2020.57,-394.25"/>
<text xml:space="preserve" text-anchor="middle" x="2042.07" y="-400" font-family="Helvetica,sans-Serif" font-size="10.00">time.h</text>
</a>
</g>
</g>
<!-- Node98&#45;&gt;Node101 -->
<g id="edge72" class="edge">
<title>Node98&#45;&gt;Node101</title>
<path fill="none" stroke="midnightblue" d="M2042.07,-450.17C2042.07,-443.37 2042.07,-433.76 2042.07,-425.15"/>
<polygon fill="midnightblue" stroke="midnightblue" points="2045.57,-425.18 2042.07,-415.18 2038.57,-425.18 2045.57,-425.18"/>
</g>
</g>
</svg>
