<?xml version="1.0" encoding="UTF-8" standalone="no"?>
<!DOCTYPE svg PUBLIC "-//W3C//DTD SVG 1.1//EN"
 "http://www.w3.org/Graphics/SVG/1.1/DTD/svg11.dtd">
<!-- Generated by graphviz version 13.1.0 (20250701.0955)
 -->
<!-- Title: hostemu.cpp Pages: 1 -->
<svg width="657pt" height="197pt"
 viewBox="0.00 0.00 657.00 197.00" xmlns="http://www.w3.org/2000/svg" xmlns:xlink="http://www.w3.org/1999/xlink">
<g id="graph0" class="graph" transform="scale(1 1) rotate(0) translate(4 193)">
<title>hostemu.cpp</title>
<polygon fill="white" stroke="none" points="-4,4 -4,-193 652.88,-193 652.88,4 -4,4"/>
<!-- Node1 -->
<g id="node1" class="node">
<title>Node1</title>
<g id="a_node1"><a xlink:title=" ">
<polygon fill="#bfbfbf" stroke="black" points="269.62,-169.25 269.62,-188.5 341.88,-188.5 341.88,-169.25 269.62,-169.25"/>
<text xml:space="preserve" text-anchor="middle" x="305.75" y="-175" font-family="Helvetica,sans-Serif" font-size="10.00">hostemu.cpp</text>
</a>
</g>
</g>
<!-- Node2 -->
<g id="node2" class="node">
<title>Node2</title>
<g id="a_node2"><a xlink:title=" ">
<polygon fill="white" stroke="#bfbfbf" points="0,-113 0,-132.25 47.5,-132.25 47.5,-113 0,-113"/>
<text xml:space="preserve" text-anchor="middle" x="23.75" y="-118.75" font-family="Helvetica,sans-Serif" font-size="10.00">stdlib.h</text>
</a>
</g>
</g>
<!-- Node1&#45;&gt;Node2 -->
<g id="edge1" class="edge">
<title>Node1&#45;&gt;Node2</title>
<path fill="none" stroke="midnightblue" d="M269.25,-172.32C222.63,-165 139.26,-151.13 58.67,-133.02"/>
<polygon fill="midnightblue" stroke="midnightblue" points="59.84,-129.7 49.31,-130.89 58.29,-136.52 59.84,-129.7"/>
</g>
<!-- Node3 -->
<g id="node3" class="node">
<title>Node3</title>
<g id="a_node3"><a xlink:title=" ">
<polygon fill="white" stroke="#bfbfbf" points="65.62,-113 65.62,-132.25 113.88,-132.25 113.88,-113 65.62,-113"/>
<text xml:space="preserve" text-anchor="middle" x="89.75" y="-118.75" font-family="Helvetica,sans-Serif" font-size="10.00">string.h</text>
</a>
</g>
</g>
<!-- Node1&#45;&gt;Node3 -->
<g id="edge2" class="edge">
<title>Node1&#45;&gt;Node3</title>
<path fill="none" stroke="midnightblue" d="M269.22,-169.19C234.54,-160.87 180.67,-147.76 125.32,-133.37"/>
<polygon fill="midnightblue" stroke="midnightblue" points="126.26,-130 115.7,-130.86 124.49,-136.77 126.26,-130"/>
</g>
<!-- Node4 -->
<g id="node4" class="node">
<title>Node4</title>
<g id="a_node4"><a xlink:title=" ">
<polygon fill="white" stroke="#bfbfbf" points="132.12,-113 132.12,-132.25 177.38,-132.25 177.38,-113 132.12,-113"/>
<text xml:space="preserve" text-anchor="middle" x="154.75" y="-118.75" font-family="Helvetica,sans-Serif" font-size="10.00">stdio.h</text>
</a>
</g>
</g>
<!-- Node1&#45;&gt;Node4 -->
<g id="edge3" class="edge">
<title>Node1&#45;&gt;Node4</title>
<path fill="none" stroke="midnightblue" d="M280.48,-168.79C255.24,-159.73 216.3,-145.74 188.45,-135.73"/>
<polygon fill="midnightblue" stroke="midnightblue" points="189.65,-132.44 179.06,-132.36 187.28,-139.03 189.65,-132.44"/>
</g>
<!-- Node5 -->
<g id="node5" class="node">
<title>Node5</title>
<g id="a_node5"><a xlink:title=" ">
<polygon fill="white" stroke="#bfbfbf" points="195.25,-113 195.25,-132.25 262.25,-132.25 262.25,-113 195.25,-113"/>
<text xml:space="preserve" text-anchor="middle" x="228.75" y="-118.75" font-family="Helvetica,sans-Serif" font-size="10.00">sys/types.h</text>
</a>
</g>
</g>
<!-- Node1&#45;&gt;Node5 -->
<g id="edge4" class="edge">
<title>Node1&#45;&gt;Node5</title>
<path fill="none" stroke="midnightblue" d="M293.04,-168.92C281.55,-160.83 264.41,-148.75 250.72,-139.1"/>
<polygon fill="midnightblue" stroke="midnightblue" points="252.91,-136.37 242.72,-133.47 248.88,-142.09 252.91,-136.37"/>
</g>
<!-- Node6 -->
<g id="node6" class="node">
<title>Node6</title>
<g id="a_node6"><a xlink:title=" ">
<polygon fill="white" stroke="#bfbfbf" points="280.5,-113 280.5,-132.25 331,-132.25 331,-113 280.5,-113"/>
<text xml:space="preserve" text-anchor="middle" x="305.75" y="-118.75" font-family="Helvetica,sans-Serif" font-size="10.00">unistd.h</text>
</a>
</g>
</g>
<!-- Node1&#45;&gt;Node6 -->
<g id="edge5" class="edge">
<title>Node1&#45;&gt;Node6</title>
<path fill="none" stroke="midnightblue" d="M305.75,-168.92C305.75,-162.12 305.75,-152.51 305.75,-143.9"/>
<polygon fill="midnightblue" stroke="midnightblue" points="309.25,-143.93 305.75,-133.93 302.25,-143.93 309.25,-143.93"/>
</g>
<!-- Node7 -->
<g id="node7" class="node">
<title>Node7</title>
<g id="a_node7"><a xlink:title=" ">
<polygon fill="white" stroke="#bfbfbf" points="349.5,-113 349.5,-132.25 406,-132.25 406,-113 349.5,-113"/>
<text xml:space="preserve" text-anchor="middle" x="377.75" y="-118.75" font-family="Helvetica,sans-Serif" font-size="10.00">pthread.h</text>
</a>
</g>
</g>
<!-- Node1&#45;&gt;Node7 -->
<g id="edge6" class="edge">
<title>Node1&#45;&gt;Node7</title>
<path fill="none" stroke="midnightblue" d="M317.64,-168.92C328.33,-160.86 344.28,-148.84 357.06,-139.21"/>
<polygon fill="midnightblue" stroke="midnightblue" points="358.99,-142.14 364.87,-133.33 354.78,-136.55 358.99,-142.14"/>
</g>
<!-- Node8 -->
<g id="node8" class="node">
<title>Node8</title>
<g id="a_node8"><a xlink:href="rexx_8h.html" target="_top" xlink:title=" ">
<polygon fill="white" stroke="black" points="412.25,-56.75 412.25,-76 455.25,-76 455.25,-56.75 412.25,-56.75"/>
<text xml:space="preserve" text-anchor="middle" x="433.75" y="-62.5" font-family="Helvetica,sans-Serif" font-size="10.00">rexx.h</text>
</a>
</g>
</g>
<!-- Node1&#45;&gt;Node8 -->
<g id="edge7" class="edge">
<title>Node1&#45;&gt;Node8</title>
<path fill="none" stroke="midnightblue" d="M342.37,-171.24C366.13,-165.1 396.03,-153.65 414.75,-132.75 425.97,-120.22 430.59,-101.42 432.48,-87.19"/>
<polygon fill="midnightblue" stroke="midnightblue" points="435.92,-87.93 433.39,-77.64 428.95,-87.27 435.92,-87.93"/>
</g>
<!-- Node13 -->
<g id="node13" class="node">
<title>Node13</title>
<g id="a_node13"><a xlink:href="oorexxapi_8h.html" target="_top" xlink:title=" ">
<polygon fill="white" stroke="black" points="461.62,-113 461.62,-132.25 527.88,-132.25 527.88,-113 461.62,-113"/>
<text xml:space="preserve" text-anchor="middle" x="494.75" y="-118.75" font-family="Helvetica,sans-Serif" font-size="10.00">oorexxapi.h</text>
</a>
</g>
</g>
<!-- Node1&#45;&gt;Node13 -->
<g id="edge12" class="edge">
<title>Node1&#45;&gt;Node13</title>
<path fill="none" stroke="midnightblue" d="M337.38,-168.79C368.87,-159.76 417.38,-145.83 452.22,-135.83"/>
<polygon fill="midnightblue" stroke="midnightblue" points="452.91,-139.28 461.56,-133.15 450.98,-132.55 452.91,-139.28"/>
</g>
<!-- Node15 -->
<g id="node15" class="node">
<title>Node15</title>
<g id="a_node15"><a xlink:href="hostemu_8h.html" target="_top" xlink:title=" ">
<polygon fill="white" stroke="black" points="545.88,-113 545.88,-132.25 625.62,-132.25 625.62,-113 545.88,-113"/>
<text xml:space="preserve" text-anchor="middle" x="585.75" y="-118.75" font-family="Helvetica,sans-Serif" font-size="10.00">../../hostemu.h</text>
</a>
</g>
</g>
<!-- Node1&#45;&gt;Node15 -->
<g id="edge15" class="edge">
<title>Node1&#45;&gt;Node15</title>
<path fill="none" stroke="midnightblue" d="M342.36,-170.78C391.45,-161.27 478.87,-144.33 534.49,-133.56"/>
<polygon fill="midnightblue" stroke="midnightblue" points="534.87,-137.05 544.03,-131.71 533.54,-130.18 534.87,-137.05"/>
</g>
<!-- Node9 -->
<g id="node9" class="node">
<title>Node9</title>
<g id="a_node9"><a xlink:title=" ">
<polygon fill="white" stroke="#bfbfbf" points="246.88,-0.5 246.88,-19.75 326.62,-19.75 326.62,-0.5 246.88,-0.5"/>
<text xml:space="preserve" text-anchor="middle" x="286.75" y="-6.25" font-family="Helvetica,sans-Serif" font-size="10.00">rexxapitypes.h</text>
</a>
</g>
</g>
<!-- Node8&#45;&gt;Node9 -->
<g id="edge8" class="edge">
<title>Node8&#45;&gt;Node9</title>
<path fill="none" stroke="midnightblue" d="M412.06,-57.37C388.23,-48.58 349.61,-34.32 321.54,-23.96"/>
<polygon fill="midnightblue" stroke="midnightblue" points="322.99,-20.77 312.4,-20.59 320.57,-27.34 322.99,-20.77"/>
</g>
<!-- Node10 -->
<g id="node10" class="node">
<title>Node10</title>
<g id="a_node10"><a xlink:href="rexxapidefs_8h.html" target="_top" xlink:title=" ">
<polygon fill="white" stroke="black" points="344.5,-0.5 344.5,-19.75 419,-19.75 419,-0.5 344.5,-0.5"/>
<text xml:space="preserve" text-anchor="middle" x="381.75" y="-6.25" font-family="Helvetica,sans-Serif" font-size="10.00">rexxapidefs.h</text>
</a>
</g>
</g>
<!-- Node8&#45;&gt;Node10 -->
<g id="edge9" class="edge">
<title>Node8&#45;&gt;Node10</title>
<path fill="none" stroke="midnightblue" d="M425.16,-56.42C417.82,-48.75 407.04,-37.51 398.06,-28.14"/>
<polygon fill="midnightblue" stroke="midnightblue" points="400.67,-25.81 391.22,-21.01 395.62,-30.65 400.67,-25.81"/>
</g>
<!-- Node11 -->
<g id="node11" class="node">
<title>Node11</title>
<g id="a_node11"><a xlink:title=" ">
<polygon fill="white" stroke="#bfbfbf" points="437.25,-0.5 437.25,-19.75 534.25,-19.75 534.25,-0.5 437.25,-0.5"/>
<text xml:space="preserve" text-anchor="middle" x="485.75" y="-6.25" font-family="Helvetica,sans-Serif" font-size="10.00">rexxplatformdefs.h</text>
</a>
</g>
</g>
<!-- Node8&#45;&gt;Node11 -->
<g id="edge10" class="edge">
<title>Node8&#45;&gt;Node11</title>
<path fill="none" stroke="midnightblue" d="M442.34,-56.42C449.68,-48.75 460.46,-37.51 469.44,-28.14"/>
<polygon fill="midnightblue" stroke="midnightblue" points="471.88,-30.65 476.28,-21.01 466.83,-25.81 471.88,-30.65"/>
</g>
<!-- Node12 -->
<g id="node12" class="node">
<title>Node12</title>
<g id="a_node12"><a xlink:title=" ">
<polygon fill="white" stroke="#bfbfbf" points="552.62,-0.5 552.62,-19.75 648.88,-19.75 648.88,-0.5 552.62,-0.5"/>
<text xml:space="preserve" text-anchor="middle" x="600.75" y="-6.25" font-family="Helvetica,sans-Serif" font-size="10.00">rexxplatformapis.h</text>
</a>
</g>
</g>
<!-- Node8&#45;&gt;Node12 -->
<g id="edge11" class="edge">
<title>Node8&#45;&gt;Node12</title>
<path fill="none" stroke="midnightblue" d="M455.58,-58.28C482.59,-49.51 529.04,-34.42 562.13,-23.67"/>
<polygon fill="midnightblue" stroke="midnightblue" points="562.92,-27.1 571.35,-20.68 560.75,-20.44 562.92,-27.1"/>
</g>
<!-- Node13&#45;&gt;Node8 -->
<g id="edge13" class="edge">
<title>Node13&#45;&gt;Node8</title>
<path fill="none" stroke="midnightblue" d="M484.68,-112.67C475.88,-104.85 462.9,-93.3 452.24,-83.82"/>
<polygon fill="midnightblue" stroke="midnightblue" points="454.56,-81.2 444.77,-77.17 449.91,-86.43 454.56,-81.2"/>
</g>
<!-- Node14 -->
<g id="node14" class="node">
<title>Node14</title>
<g id="a_node14"><a xlink:href="oorexxerrors_8h.html" target="_top" xlink:title=" ">
<polygon fill="white" stroke="black" points="473.62,-56.75 473.62,-76 551.88,-76 551.88,-56.75 473.62,-56.75"/>
<text xml:space="preserve" text-anchor="middle" x="512.75" y="-62.5" font-family="Helvetica,sans-Serif" font-size="10.00">oorexxerrors.h</text>
</a>
</g>
</g>
<!-- Node13&#45;&gt;Node14 -->
<g id="edge14" class="edge">
<title>Node13&#45;&gt;Node14</title>
<path fill="none" stroke="midnightblue" d="M497.72,-112.67C500.03,-105.71 503.31,-95.82 506.22,-87.05"/>
<polygon fill="midnightblue" stroke="midnightblue" points="509.53,-88.2 509.36,-77.6 502.89,-85.99 509.53,-88.2"/>
</g>
</g>
</svg>
