<?xml version="1.0" encoding="UTF-8" standalone="no"?>
<!DOCTYPE svg PUBLIC "-//W3C//DTD SVG 1.1//EN"
 "http://www.w3.org/Graphics/SVG/1.1/DTD/svg11.dtd">
<!-- Generated by graphviz version 13.1.0 (20250701.0955)
 -->
<!-- Title: TimeSupport.cpp Pages: 1 -->
<!--zoomable 647 -->
<svg id="main" version="1.1" xmlns="http://www.w3.org/2000/svg" xmlns:xlink="http://www.w3.org/1999/xlink" xml:space="preserve" onload="init(evt)">
<style type="text/css"><![CDATA[
.edge:hover path { stroke: red; }
.edge:hover polygon { stroke: red; fill: red; }
]]></style>
<script type="text/javascript"><![CDATA[
var edges = document.getElementsByTagName('g');
if (edges && edges.length) {
  for (var i=0;i<edges.length;i++) {
    if (edges[i].id.substr(0,4)=='edge') {
      edges[i].setAttribute('class','edge');
    }
  }
}
]]></script>
        <defs>
                <circle id="rim" cx="0" cy="0" r="7"/>
                <circle id="rim2" cx="0" cy="0" r="3.5"/>
                <g id="zoomPlus">
                        <use xlink:href="#rim" fill="#404040">
                                <set attributeName="fill" to="#808080" begin="zoomplus.mouseover" end="zoomplus.mouseout"/>
                        </use>
                        <path d="M-4,0h8M0,-4v8" fill="none" stroke="white" stroke-width="1.5" pointer-events="none"/>
                </g>
                <g id="zoomMin">
                        <use xlink:href="#rim" fill="#404040">
                                <set attributeName="fill" to="#808080" begin="zoomminus.mouseover" end="zoomminus.mouseout"/>
                        </use>
                        <path d="M-4,0h8" fill="none" stroke="white" stroke-width="1.5" pointer-events="none"/>
                </g>
                <g id="dirArrow">
                        <path fill="none" stroke="white" stroke-width="1.5" d="M0,-3.0v7 M-2.5,-0.5L0,-3.0L2.5,-0.5"/>
                </g>
               <g id="resetDef">
                       <use xlink:href="#rim2" fill="#404040">
                               <set attributeName="fill" to="#808080" begin="reset.mouseover" end="reset.mouseout"/>
                       </use>
               </g>
        </defs>

<script type="text/javascript">
var viewWidth = 1780;
var viewHeight = 647;
var sectionId = 'dynsection-0';
</script>
<script xlink:href="svgpan.js"/>
<svg id="graph" class="graph">
<g id="viewport">
<title>TimeSupport.cpp</title>
<polygon fill="white" stroke="none" points="-4,4 -4,-643 1776,-643 1776,4 -4,4"/>
<!-- Node1 -->
<g id="node1" class="node">
<title>Node1</title>
<g id="a_node1"><a xlink:title=" ">
<polygon fill="#bfbfbf" stroke="black" points="1114.38,-619.25 1114.38,-638.5 1204.62,-638.5 1204.62,-619.25 1114.38,-619.25"/>
<text xml:space="preserve" text-anchor="middle" x="1159.5" y="-625" font-family="Helvetica,sans-Serif" font-size="10.00">TimeSupport.cpp</text>
</a>
</g>
</g>
<!-- Node2 -->
<g id="node2" class="node">
<title>Node2</title>
<g id="a_node2"><a xlink:href="_rexx_core_8h.html" target="_top" xlink:title=" ">
<polygon fill="white" stroke="black" points="861.25,-506.75 861.25,-526 929.75,-526 929.75,-506.75 861.25,-506.75"/>
<text xml:space="preserve" text-anchor="middle" x="895.5" y="-512.5" font-family="Helvetica,sans-Serif" font-size="10.00">RexxCore.h</text>
</a>
</g>
</g>
<!-- Node1&#45;&gt;Node2 -->
<g id="edge1" class="edge">
<title>Node1&#45;&gt;Node2</title>
<path fill="none" stroke="midnightblue" d="M1114.07,-623.74C1055.32,-617.61 957.13,-604.43 928.5,-582.75 913.77,-571.6 905.13,-552.04 900.41,-537.22"/>
<polygon fill="midnightblue" stroke="midnightblue" points="903.79,-536.31 897.73,-527.62 897.05,-538.19 903.79,-536.31"/>
</g>
<!-- Node22 -->
<g id="node22" class="node">
<title>Node22</title>
<g id="a_node22"><a xlink:href="_integer_class_8hpp.html" target="_top" xlink:title=" ">
<polygon fill="white" stroke="black" points="1232.38,-169.25 1232.38,-188.5 1322.62,-188.5 1322.62,-169.25 1232.38,-169.25"/>
<text xml:space="preserve" text-anchor="middle" x="1277.5" y="-175" font-family="Helvetica,sans-Serif" font-size="10.00">IntegerClass.hpp</text>
</a>
</g>
</g>
<!-- Node1&#45;&gt;Node22 -->
<g id="edge61" class="edge">
<title>Node1&#45;&gt;Node22</title>
<path fill="none" stroke="midnightblue" d="M1204.69,-628.21C1334.72,-627.95 1700.5,-618.27 1700.5,-517.38 1700.5,-517.38 1700.5,-517.38 1700.5,-402.88 1700.5,-239.14 1449.43,-195.33 1334.15,-183.85"/>
<polygon fill="midnightblue" stroke="midnightblue" points="1334.56,-180.37 1324.28,-182.92 1333.9,-187.34 1334.56,-180.37"/>
</g>
<!-- Node43 -->
<g id="node43" class="node">
<title>Node43</title>
<g id="a_node43"><a xlink:href="_interpreter_8hpp.html" target="_top" xlink:title=" ">
<polygon fill="white" stroke="black" points="962.38,-338 962.38,-357.25 1040.62,-357.25 1040.62,-338 962.38,-338"/>
<text xml:space="preserve" text-anchor="middle" x="1001.5" y="-343.75" font-family="Helvetica,sans-Serif" font-size="10.00">Interpreter.hpp</text>
</a>
</g>
</g>
<!-- Node1&#45;&gt;Node43 -->
<g id="edge64" class="edge">
<title>Node1&#45;&gt;Node43</title>
<path fill="none" stroke="midnightblue" d="M1165.53,-619.02C1171.12,-610.25 1179.08,-596.21 1182.5,-582.75 1197.04,-525.56 1202.77,-506.43 1185.5,-450 1176.67,-421.15 1171.73,-411.72 1147.5,-393.75 1119.63,-373.08 1082.13,-361.75 1052.11,-355.61"/>
<polygon fill="midnightblue" stroke="midnightblue" points="1052.97,-352.22 1042.5,-353.79 1051.67,-359.09 1052.97,-352.22"/>
</g>
<!-- Node47 -->
<g id="node47" class="node">
<title>Node47</title>
<g id="a_node47"><a xlink:href="_rexx_date_time_8hpp.html" target="_top" xlink:title=" ">
<polygon fill="white" stroke="black" points="937.12,-563 937.12,-582.25 1037.88,-582.25 1037.88,-563 937.12,-563"/>
<text xml:space="preserve" text-anchor="middle" x="987.5" y="-568.75" font-family="Helvetica,sans-Serif" font-size="10.00">RexxDateTime.hpp</text>
</a>
</g>
</g>
<!-- Node1&#45;&gt;Node47 -->
<g id="edge62" class="edge">
<title>Node1&#45;&gt;Node47</title>
<path fill="none" stroke="midnightblue" d="M1130.71,-618.79C1102.31,-609.84 1058.67,-596.07 1027.03,-586.09"/>
<polygon fill="midnightblue" stroke="midnightblue" points="1028.42,-582.86 1017.83,-583.19 1026.31,-589.54 1028.42,-582.86"/>
</g>
<!-- Node48 -->
<g id="node48" class="node">
<title>Node48</title>
<g id="a_node48"><a xlink:href="windows_2_system_interpreter_8hpp.html" target="_top" xlink:title=" ">
<polygon fill="white" stroke="black" points="1061.5,-563 1061.5,-582.25 1173.5,-582.25 1173.5,-563 1061.5,-563"/>
<text xml:space="preserve" text-anchor="middle" x="1117.5" y="-568.75" font-family="Helvetica,sans-Serif" font-size="10.00">SystemInterpreter.hpp</text>
</a>
</g>
</g>
<!-- Node1&#45;&gt;Node48 -->
<g id="edge65" class="edge">
<title>Node1&#45;&gt;Node48</title>
<path fill="none" stroke="midnightblue" d="M1152.56,-618.92C1146.82,-611.49 1138.46,-600.7 1131.35,-591.52"/>
<polygon fill="midnightblue" stroke="midnightblue" points="1134.12,-589.38 1125.23,-583.61 1128.59,-593.66 1134.12,-589.38"/>
</g>
<!-- Node49 -->
<g id="node49" class="node">
<title>Node49</title>
<g id="a_node49"><a xlink:title=" ">
<polygon fill="white" stroke="#bfbfbf" points="1729,-563 1729,-582.25 1772,-582.25 1772,-563 1729,-563"/>
<text xml:space="preserve" text-anchor="middle" x="1750.5" y="-568.75" font-family="Helvetica,sans-Serif" font-size="10.00">time.h</text>
</a>
</g>
</g>
<!-- Node1&#45;&gt;Node49 -->
<g id="edge67" class="edge">
<title>Node1&#45;&gt;Node49</title>
<path fill="none" stroke="midnightblue" d="M1204.78,-626.75C1299.82,-623.84 1526.87,-613.93 1714.5,-582.75 1715.5,-582.58 1716.52,-582.4 1717.54,-582.21"/>
<polygon fill="midnightblue" stroke="midnightblue" points="1718.04,-585.68 1727.06,-580.13 1716.54,-578.85 1718.04,-585.68"/>
</g>
<!-- Node3 -->
<g id="node3" class="node">
<title>Node3</title>
<g id="a_node3"><a xlink:href="oorexxapi_8h.html" target="_top" xlink:title=" ">
<polygon fill="white" stroke="black" points="1299.38,-450.5 1299.38,-469.75 1365.62,-469.75 1365.62,-450.5 1299.38,-450.5"/>
<text xml:space="preserve" text-anchor="middle" x="1332.5" y="-456.25" font-family="Helvetica,sans-Serif" font-size="10.00">oorexxapi.h</text>
</a>
</g>
</g>
<!-- Node2&#45;&gt;Node3 -->
<g id="edge2" class="edge">
<title>Node2&#45;&gt;Node3</title>
<path fill="none" stroke="midnightblue" d="M930.16,-511.07C1008.71,-501.32 1200.25,-477.54 1287.67,-466.69"/>
<polygon fill="midnightblue" stroke="midnightblue" points="1288.05,-470.17 1297.54,-465.46 1287.19,-463.22 1288.05,-470.17"/>
</g>
<!-- Node10 -->
<g id="node10" class="node">
<title>Node10</title>
<g id="a_node10"><a xlink:title=" ">
<polygon fill="white" stroke="#bfbfbf" points="1068.75,-450.5 1068.75,-469.75 1176.25,-469.75 1176.25,-450.5 1068.75,-450.5"/>
<text xml:space="preserve" text-anchor="middle" x="1122.5" y="-456.25" font-family="Helvetica,sans-Serif" font-size="10.00">PlatformDefinitions.h</text>
</a>
</g>
</g>
<!-- Node2&#45;&gt;Node10 -->
<g id="edge9" class="edge">
<title>Node2&#45;&gt;Node10</title>
<path fill="none" stroke="midnightblue" d="M929.98,-507.14C968.23,-497.99 1030.26,-483.17 1073.54,-472.83"/>
<polygon fill="midnightblue" stroke="midnightblue" points="1074.28,-476.25 1083.19,-470.52 1072.65,-469.44 1074.28,-476.25"/>
</g>
<!-- Node11 -->
<g id="node11" class="node">
<title>Node11</title>
<g id="a_node11"><a xlink:href="_class_type_codes_8h.html" target="_top" xlink:title=" ">
<polygon fill="white" stroke="black" points="250.88,-338 250.88,-357.25 350.12,-357.25 350.12,-338 250.88,-338"/>
<text xml:space="preserve" text-anchor="middle" x="300.5" y="-343.75" font-family="Helvetica,sans-Serif" font-size="10.00">ClassTypeCodes.h</text>
</a>
</g>
</g>
<!-- Node2&#45;&gt;Node11 -->
<g id="edge10" class="edge">
<title>Node2&#45;&gt;Node11</title>
<path fill="none" stroke="midnightblue" d="M860.78,-515.85C738.67,-516.67 332.49,-511.91 261.5,-414 249.89,-397.99 265.18,-378.36 279.88,-364.81"/>
<polygon fill="midnightblue" stroke="midnightblue" points="281.81,-367.77 287.12,-358.6 277.25,-362.46 281.81,-367.77"/>
</g>
<!-- Node12 -->
<g id="node12" class="node">
<title>Node12</title>
<g id="a_node12"><a xlink:href="_object_class_8hpp.html" target="_top" xlink:title=" ">
<polygon fill="white" stroke="black" points="88.12,-338 88.12,-357.25 176.88,-357.25 176.88,-338 88.12,-338"/>
<text xml:space="preserve" text-anchor="middle" x="132.5" y="-343.75" font-family="Helvetica,sans-Serif" font-size="10.00">ObjectClass.hpp</text>
</a>
</g>
</g>
<!-- Node2&#45;&gt;Node12 -->
<g id="edge11" class="edge">
<title>Node2&#45;&gt;Node12</title>
<path fill="none" stroke="midnightblue" d="M860.91,-515.19C726.87,-514.21 246.37,-508.05 190.5,-470.25 155.89,-446.83 141.34,-396.87 135.71,-368.82"/>
<polygon fill="midnightblue" stroke="midnightblue" points="139.18,-368.36 133.97,-359.13 132.29,-369.59 139.18,-368.36"/>
</g>
<!-- Node18 -->
<g id="node18" class="node">
<title>Node18</title>
<g id="a_node18"><a xlink:href="_table_class_8hpp.html" target="_top" xlink:title=" ">
<polygon fill="white" stroke="black" points="442.75,-450.5 442.75,-469.75 526.25,-469.75 526.25,-450.5 442.75,-450.5"/>
<text xml:space="preserve" text-anchor="middle" x="484.5" y="-456.25" font-family="Helvetica,sans-Serif" font-size="10.00">TableClass.hpp</text>
</a>
</g>
</g>
<!-- Node2&#45;&gt;Node18 -->
<g id="edge18" class="edge">
<title>Node2&#45;&gt;Node18</title>
<path fill="none" stroke="midnightblue" d="M860.81,-510.8C788.93,-501.31 623.3,-479.45 537.77,-468.16"/>
<polygon fill="midnightblue" stroke="midnightblue" points="538.37,-464.71 528,-466.87 537.46,-471.65 538.37,-464.71"/>
</g>
<!-- Node23 -->
<g id="node23" class="node">
<title>Node23</title>
<g id="a_node23"><a xlink:href="_class_class_8hpp.html" target="_top" xlink:title=" ">
<polygon fill="white" stroke="black" points="1234.62,-113 1234.62,-132.25 1320.38,-132.25 1320.38,-113 1234.62,-113"/>
<text xml:space="preserve" text-anchor="middle" x="1277.5" y="-118.75" font-family="Helvetica,sans-Serif" font-size="10.00">ClassClass.hpp</text>
</a>
</g>
</g>
<!-- Node2&#45;&gt;Node23 -->
<g id="edge59" class="edge">
<title>Node2&#45;&gt;Node23</title>
<path fill="none" stroke="midnightblue" d="M930.18,-513.85C998.01,-510.25 1145.16,-499.24 1185.5,-470.25 1199.8,-459.98 1327.33,-206.1 1331.5,-189 1333.63,-180.26 1335.31,-176.9 1331.5,-168.75 1325.76,-156.46 1314.84,-146.35 1304.31,-138.83"/>
<polygon fill="midnightblue" stroke="midnightblue" points="1306.47,-136.06 1296.19,-133.5 1302.63,-141.91 1306.47,-136.06"/>
</g>
<!-- Node30 -->
<g id="node30" class="node">
<title>Node30</title>
<g id="a_node30"><a xlink:href="_rexx_memory_8hpp.html" target="_top" xlink:title=" ">
<polygon fill="white" stroke="black" points="637.62,-450.5 637.62,-469.75 729.38,-469.75 729.38,-450.5 637.62,-450.5"/>
<text xml:space="preserve" text-anchor="middle" x="683.5" y="-456.25" font-family="Helvetica,sans-Serif" font-size="10.00">RexxMemory.hpp</text>
</a>
</g>
</g>
<!-- Node2&#45;&gt;Node30 -->
<g id="edge33" class="edge">
<title>Node2&#45;&gt;Node30</title>
<path fill="none" stroke="midnightblue" d="M860.97,-506.54C825.33,-497.42 769.52,-483.14 730.01,-473.03"/>
<polygon fill="midnightblue" stroke="midnightblue" points="731.1,-469.69 720.55,-470.61 729.37,-476.47 731.1,-469.69"/>
</g>
<!-- Node44 -->
<g id="node44" class="node">
<title>Node44</title>
<g id="a_node44"><a xlink:href="_rexx_behaviour_8hpp.html" target="_top" xlink:title=" ">
<polygon fill="white" stroke="black" points="950.12,-450.5 950.12,-469.75 1050.88,-469.75 1050.88,-450.5 950.12,-450.5"/>
<text xml:space="preserve" text-anchor="middle" x="1000.5" y="-456.25" font-family="Helvetica,sans-Serif" font-size="10.00">RexxBehaviour.hpp</text>
</a>
</g>
</g>
<!-- Node2&#45;&gt;Node44 -->
<g id="edge56" class="edge">
<title>Node2&#45;&gt;Node44</title>
<path fill="none" stroke="midnightblue" d="M912.84,-506.42C929.18,-497.97 953.93,-485.19 972.96,-475.35"/>
<polygon fill="midnightblue" stroke="midnightblue" points="974.51,-478.49 981.79,-470.79 971.3,-472.27 974.51,-478.49"/>
</g>
<!-- Node46 -->
<g id="node46" class="node">
<title>Node46</title>
<g id="a_node46"><a xlink:href="_envelope_8hpp.html" target="_top" xlink:title=" ">
<polygon fill="white" stroke="black" points="856.88,-450.5 856.88,-469.75 932.12,-469.75 932.12,-450.5 856.88,-450.5"/>
<text xml:space="preserve" text-anchor="middle" x="894.5" y="-456.25" font-family="Helvetica,sans-Serif" font-size="10.00">Envelope.hpp</text>
</a>
</g>
</g>
<!-- Node2&#45;&gt;Node46 -->
<g id="edge60" class="edge">
<title>Node2&#45;&gt;Node46</title>
<path fill="none" stroke="midnightblue" d="M895.33,-506.42C895.21,-499.62 895.03,-490.01 894.87,-481.4"/>
<polygon fill="midnightblue" stroke="midnightblue" points="898.37,-481.36 894.69,-471.43 891.37,-481.49 898.37,-481.36"/>
</g>
<!-- Node4 -->
<g id="node4" class="node">
<title>Node4</title>
<g id="a_node4"><a xlink:href="rexx_8h.html" target="_top" xlink:title=" ">
<polygon fill="white" stroke="black" points="1413,-394.25 1413,-413.5 1456,-413.5 1456,-394.25 1413,-394.25"/>
<text xml:space="preserve" text-anchor="middle" x="1434.5" y="-400" font-family="Helvetica,sans-Serif" font-size="10.00">rexx.h</text>
</a>
</g>
</g>
<!-- Node3&#45;&gt;Node4 -->
<g id="edge3" class="edge">
<title>Node3&#45;&gt;Node4</title>
<path fill="none" stroke="midnightblue" d="M1349.34,-450.17C1365.14,-441.76 1389.03,-429.06 1407.49,-419.24"/>
<polygon fill="midnightblue" stroke="midnightblue" points="1409.11,-422.34 1416.3,-414.56 1405.82,-416.16 1409.11,-422.34"/>
</g>
<!-- Node9 -->
<g id="node9" class="node">
<title>Node9</title>
<g id="a_node9"><a xlink:href="oorexxerrors_8h.html" target="_top" xlink:title=" ">
<polygon fill="white" stroke="black" points="1293.38,-394.25 1293.38,-413.5 1371.62,-413.5 1371.62,-394.25 1293.38,-394.25"/>
<text xml:space="preserve" text-anchor="middle" x="1332.5" y="-400" font-family="Helvetica,sans-Serif" font-size="10.00">oorexxerrors.h</text>
</a>
</g>
</g>
<!-- Node3&#45;&gt;Node9 -->
<g id="edge8" class="edge">
<title>Node3&#45;&gt;Node9</title>
<path fill="none" stroke="midnightblue" d="M1332.5,-450.17C1332.5,-443.37 1332.5,-433.76 1332.5,-425.15"/>
<polygon fill="midnightblue" stroke="midnightblue" points="1336,-425.18 1332.5,-415.18 1329,-425.18 1336,-425.18"/>
</g>
<!-- Node5 -->
<g id="node5" class="node">
<title>Node5</title>
<g id="a_node5"><a xlink:title=" ">
<polygon fill="white" stroke="#bfbfbf" points="1500.62,-338 1500.62,-357.25 1580.38,-357.25 1580.38,-338 1500.62,-338"/>
<text xml:space="preserve" text-anchor="middle" x="1540.5" y="-343.75" font-family="Helvetica,sans-Serif" font-size="10.00">rexxapitypes.h</text>
</a>
</g>
</g>
<!-- Node4&#45;&gt;Node5 -->
<g id="edge4" class="edge">
<title>Node4&#45;&gt;Node5</title>
<path fill="none" stroke="midnightblue" d="M1452,-393.92C1468.58,-385.44 1493.71,-372.57 1512.97,-362.71"/>
<polygon fill="midnightblue" stroke="midnightblue" points="1514.32,-365.96 1521.62,-358.29 1511.13,-359.73 1514.32,-365.96"/>
</g>
<!-- Node6 -->
<g id="node6" class="node">
<title>Node6</title>
<g id="a_node6"><a xlink:href="rexxapidefs_8h.html" target="_top" xlink:title=" ">
<polygon fill="white" stroke="black" points="1598.25,-338 1598.25,-357.25 1672.75,-357.25 1672.75,-338 1598.25,-338"/>
<text xml:space="preserve" text-anchor="middle" x="1635.5" y="-343.75" font-family="Helvetica,sans-Serif" font-size="10.00">rexxapidefs.h</text>
</a>
</g>
</g>
<!-- Node4&#45;&gt;Node6 -->
<g id="edge5" class="edge">
<title>Node4&#45;&gt;Node6</title>
<path fill="none" stroke="midnightblue" d="M1456.39,-396.97C1488.55,-388.29 1549.24,-371.91 1591,-360.64"/>
<polygon fill="midnightblue" stroke="midnightblue" points="1591.77,-364.05 1600.51,-358.07 1589.94,-357.3 1591.77,-364.05"/>
</g>
<!-- Node7 -->
<g id="node7" class="node">
<title>Node7</title>
<g id="a_node7"><a xlink:title=" ">
<polygon fill="white" stroke="#bfbfbf" points="1271,-338 1271,-357.25 1368,-357.25 1368,-338 1271,-338"/>
<text xml:space="preserve" text-anchor="middle" x="1319.5" y="-343.75" font-family="Helvetica,sans-Serif" font-size="10.00">rexxplatformdefs.h</text>
</a>
</g>
</g>
<!-- Node4&#45;&gt;Node7 -->
<g id="edge6" class="edge">
<title>Node4&#45;&gt;Node7</title>
<path fill="none" stroke="midnightblue" d="M1415.25,-393.79C1397.17,-385.27 1369.87,-372.38 1349.03,-362.56"/>
<polygon fill="midnightblue" stroke="midnightblue" points="1350.72,-359.48 1340.18,-358.38 1347.73,-365.81 1350.72,-359.48"/>
</g>
<!-- Node8 -->
<g id="node8" class="node">
<title>Node8</title>
<g id="a_node8"><a xlink:title=" ">
<polygon fill="white" stroke="#bfbfbf" points="1386.38,-338 1386.38,-357.25 1482.62,-357.25 1482.62,-338 1386.38,-338"/>
<text xml:space="preserve" text-anchor="middle" x="1434.5" y="-343.75" font-family="Helvetica,sans-Serif" font-size="10.00">rexxplatformapis.h</text>
</a>
</g>
</g>
<!-- Node4&#45;&gt;Node8 -->
<g id="edge7" class="edge">
<title>Node4&#45;&gt;Node8</title>
<path fill="none" stroke="midnightblue" d="M1434.5,-393.92C1434.5,-387.12 1434.5,-377.51 1434.5,-368.9"/>
<polygon fill="midnightblue" stroke="midnightblue" points="1438,-368.93 1434.5,-358.93 1431,-368.93 1438,-368.93"/>
</g>
<!-- Node13 -->
<g id="node13" class="node">
<title>Node13</title>
<g id="a_node13"><a xlink:title=" ">
<polygon fill="white" stroke="#bfbfbf" points="115.5,-281.75 115.5,-301 149.5,-301 149.5,-281.75 115.5,-281.75"/>
<text xml:space="preserve" text-anchor="middle" x="132.5" y="-287.5" font-family="Helvetica,sans-Serif" font-size="10.00">new</text>
</a>
</g>
</g>
<!-- Node12&#45;&gt;Node13 -->
<g id="edge12" class="edge">
<title>Node12&#45;&gt;Node13</title>
<path fill="none" stroke="midnightblue" d="M132.5,-337.67C132.5,-330.87 132.5,-321.26 132.5,-312.65"/>
<polygon fill="midnightblue" stroke="midnightblue" points="136,-312.68 132.5,-302.68 129,-312.68 136,-312.68"/>
</g>
<!-- Node14 -->
<g id="node14" class="node">
<title>Node14</title>
<g id="a_node14"><a xlink:title=" ">
<polygon fill="white" stroke="#bfbfbf" points="518.38,-169.25 518.38,-188.5 566.62,-188.5 566.62,-169.25 518.38,-169.25"/>
<text xml:space="preserve" text-anchor="middle" x="542.5" y="-175" font-family="Helvetica,sans-Serif" font-size="10.00">string.h</text>
</a>
</g>
</g>
<!-- Node12&#45;&gt;Node14 -->
<g id="edge13" class="edge">
<title>Node12&#45;&gt;Node14</title>
<path fill="none" stroke="midnightblue" d="M137.6,-337.79C153.42,-310.41 200.99,-228.6 206.5,-225 255.37,-193.06 430.28,-183.52 506.53,-180.85"/>
<polygon fill="midnightblue" stroke="midnightblue" points="506.5,-184.35 516.38,-180.53 506.27,-177.36 506.5,-184.35"/>
</g>
<!-- Node15 -->
<g id="node15" class="node">
<title>Node15</title>
<g id="a_node15"><a xlink:href="_numerics_8hpp.html" target="_top" xlink:title=" ">
<polygon fill="white" stroke="black" points="205.12,-281.75 205.12,-301 281.88,-301 281.88,-281.75 205.12,-281.75"/>
<text xml:space="preserve" text-anchor="middle" x="243.5" y="-287.5" font-family="Helvetica,sans-Serif" font-size="10.00">Numerics.hpp</text>
</a>
</g>
</g>
<!-- Node12&#45;&gt;Node15 -->
<g id="edge14" class="edge">
<title>Node12&#45;&gt;Node15</title>
<path fill="none" stroke="midnightblue" d="M151.08,-337.54C168.45,-329.06 194.64,-316.25 214.72,-306.44"/>
<polygon fill="midnightblue" stroke="midnightblue" points="216.05,-309.69 223.5,-302.15 212.98,-303.4 216.05,-309.69"/>
</g>
<!-- Node17 -->
<g id="node17" class="node">
<title>Node17</title>
<g id="a_node17"><a xlink:href="_rexx_error_codes_8h.html" target="_top" xlink:title=" ">
<polygon fill="white" stroke="black" points="0,-281.75 0,-301 97,-301 97,-281.75 0,-281.75"/>
<text xml:space="preserve" text-anchor="middle" x="48.5" y="-287.5" font-family="Helvetica,sans-Serif" font-size="10.00">RexxErrorCodes.h</text>
</a>
</g>
</g>
<!-- Node12&#45;&gt;Node17 -->
<g id="edge17" class="edge">
<title>Node12&#45;&gt;Node17</title>
<path fill="none" stroke="midnightblue" d="M118.63,-337.67C105.98,-329.5 87.04,-317.27 72.03,-307.57"/>
<polygon fill="midnightblue" stroke="midnightblue" points="73.96,-304.65 63.66,-302.17 70.16,-310.53 73.96,-304.65"/>
</g>
<!-- Node15&#45;&gt;Node2 -->
<g id="edge16" class="edge">
<title>Node15&#45;&gt;Node2</title>
<path fill="none" stroke="midnightblue" d="M242.47,-301.29C241.17,-313.9 239.38,-337.65 241.5,-357.75 247.65,-416.08 257.13,-445.91 310.5,-470.25 406.36,-513.97 729.28,-516.5 849.71,-515.86"/>
<polygon fill="midnightblue" stroke="midnightblue" points="849.56,-519.36 859.54,-515.79 849.52,-512.36 849.56,-519.36"/>
</g>
<!-- Node16 -->
<g id="node16" class="node">
<title>Node16</title>
<g id="a_node16"><a xlink:title=" ">
<polygon fill="white" stroke="#bfbfbf" points="215.62,-225.5 215.62,-244.75 271.38,-244.75 271.38,-225.5 215.62,-225.5"/>
<text xml:space="preserve" text-anchor="middle" x="243.5" y="-231.25" font-family="Helvetica,sans-Serif" font-size="10.00">algorithm</text>
</a>
</g>
</g>
<!-- Node15&#45;&gt;Node16 -->
<g id="edge15" class="edge">
<title>Node15&#45;&gt;Node16</title>
<path fill="none" stroke="midnightblue" d="M243.5,-281.42C243.5,-274.62 243.5,-265.01 243.5,-256.4"/>
<polygon fill="midnightblue" stroke="midnightblue" points="247,-256.43 243.5,-246.43 240,-256.43 247,-256.43"/>
</g>
<!-- Node19 -->
<g id="node19" class="node">
<title>Node19</title>
<g id="a_node19"><a xlink:href="_hash_collection_8hpp.html" target="_top" xlink:title=" ">
<polygon fill="white" stroke="black" points="576.75,-338 576.75,-357.25 678.25,-357.25 678.25,-338 576.75,-338"/>
<text xml:space="preserve" text-anchor="middle" x="627.5" y="-343.75" font-family="Helvetica,sans-Serif" font-size="10.00">HashCollection.hpp</text>
</a>
</g>
</g>
<!-- Node18&#45;&gt;Node19 -->
<g id="edge19" class="edge">
<title>Node18&#45;&gt;Node19</title>
<path fill="none" stroke="midnightblue" d="M473.31,-450.1C458.35,-436.93 435.27,-412.04 449.5,-393.75 463.8,-375.37 519.77,-363.27 565.18,-356.27"/>
<polygon fill="midnightblue" stroke="midnightblue" points="565.58,-359.75 574.96,-354.82 564.56,-352.82 565.58,-359.75"/>
</g>
<!-- Node20 -->
<g id="node20" class="node">
<title>Node20</title>
<g id="a_node20"><a xlink:href="_hash_contents_8hpp.html" target="_top" xlink:title=" ">
<polygon fill="white" stroke="black" points="631.62,-281.75 631.62,-301 729.38,-301 729.38,-281.75 631.62,-281.75"/>
<text xml:space="preserve" text-anchor="middle" x="680.5" y="-287.5" font-family="Helvetica,sans-Serif" font-size="10.00">HashContents.hpp</text>
</a>
</g>
</g>
<!-- Node19&#45;&gt;Node20 -->
<g id="edge20" class="edge">
<title>Node19&#45;&gt;Node20</title>
<path fill="none" stroke="midnightblue" d="M636.25,-337.67C643.74,-330 654.72,-318.76 663.87,-309.39"/>
<polygon fill="midnightblue" stroke="midnightblue" points="666.37,-311.85 670.85,-302.25 661.36,-306.96 666.37,-311.85"/>
</g>
<!-- Node21 -->
<g id="node21" class="node">
<title>Node21</title>
<g id="a_node21"><a xlink:href="_string_class_8hpp.html" target="_top" xlink:title=" ">
<polygon fill="white" stroke="black" points="709.62,-225.5 709.62,-244.75 795.38,-244.75 795.38,-225.5 709.62,-225.5"/>
<text xml:space="preserve" text-anchor="middle" x="752.5" y="-231.25" font-family="Helvetica,sans-Serif" font-size="10.00">StringClass.hpp</text>
</a>
</g>
</g>
<!-- Node20&#45;&gt;Node21 -->
<g id="edge21" class="edge">
<title>Node20&#45;&gt;Node21</title>
<path fill="none" stroke="midnightblue" d="M692.39,-281.42C703.08,-273.36 719.03,-261.34 731.81,-251.71"/>
<polygon fill="midnightblue" stroke="midnightblue" points="733.74,-254.64 739.62,-245.83 729.53,-249.05 733.74,-254.64"/>
</g>
<!-- Node21&#45;&gt;Node14 -->
<g id="edge32" class="edge">
<title>Node21&#45;&gt;Node14</title>
<path fill="none" stroke="midnightblue" d="M717.35,-225.04C678.56,-215.02 616.5,-198.99 577.69,-188.97"/>
<polygon fill="midnightblue" stroke="midnightblue" points="578.95,-185.68 568.39,-186.56 577.2,-192.45 578.95,-185.68"/>
</g>
<!-- Node21&#45;&gt;Node22 -->
<g id="edge22" class="edge">
<title>Node21&#45;&gt;Node22</title>
<path fill="none" stroke="midnightblue" d="M795.46,-229.69C889.76,-219.94 1114.87,-196.68 1220.69,-185.74"/>
<polygon fill="midnightblue" stroke="midnightblue" points="1220.99,-189.23 1230.57,-184.72 1220.27,-182.27 1220.99,-189.23"/>
</g>
<!-- Node24 -->
<g id="node24" class="node">
<title>Node24</title>
<g id="a_node24"><a xlink:href="_flag_set_8hpp.html" target="_top" xlink:title=" ">
<polygon fill="white" stroke="black" points="1170.25,-56.75 1170.25,-76 1238.75,-76 1238.75,-56.75 1170.25,-56.75"/>
<text xml:space="preserve" text-anchor="middle" x="1204.5" y="-62.5" font-family="Helvetica,sans-Serif" font-size="10.00">FlagSet.hpp</text>
</a>
</g>
</g>
<!-- Node21&#45;&gt;Node24 -->
<g id="edge31" class="edge">
<title>Node21&#45;&gt;Node24</title>
<path fill="none" stroke="midnightblue" d="M777.12,-225.04C852.57,-197.21 1080.77,-113.02 1169.07,-80.44"/>
<polygon fill="midnightblue" stroke="midnightblue" points="1170.26,-83.74 1178.44,-76.99 1167.84,-77.17 1170.26,-83.74"/>
</g>
<!-- Node26 -->
<g id="node26" class="node">
<title>Node26</title>
<g id="a_node26"><a xlink:href="_string_util_8hpp.html" target="_top" xlink:title=" ">
<polygon fill="white" stroke="black" points="747.88,-169.25 747.88,-188.5 823.12,-188.5 823.12,-169.25 747.88,-169.25"/>
<text xml:space="preserve" text-anchor="middle" x="785.5" y="-175" font-family="Helvetica,sans-Serif" font-size="10.00">StringUtil.hpp</text>
</a>
</g>
</g>
<!-- Node21&#45;&gt;Node26 -->
<g id="edge26" class="edge">
<title>Node21&#45;&gt;Node26</title>
<path fill="none" stroke="midnightblue" d="M757.95,-225.17C762.37,-217.9 768.75,-207.41 774.26,-198.36"/>
<polygon fill="midnightblue" stroke="midnightblue" points="777.16,-200.32 779.37,-189.96 771.18,-196.68 777.16,-200.32"/>
</g>
<!-- Node28 -->
<g id="node28" class="node">
<title>Node28</title>
<g id="a_node28"><a xlink:href="_utilities_8hpp.html" target="_top" xlink:title=" ">
<polygon fill="white" stroke="black" points="685.62,-113 685.62,-132.25 753.38,-132.25 753.38,-113 685.62,-113"/>
<text xml:space="preserve" text-anchor="middle" x="719.5" y="-118.75" font-family="Helvetica,sans-Serif" font-size="10.00">Utilities.hpp</text>
</a>
</g>
</g>
<!-- Node21&#45;&gt;Node28 -->
<g id="edge30" class="edge">
<title>Node21&#45;&gt;Node28</title>
<path fill="none" stroke="midnightblue" d="M749.66,-225.15C746.8,-216.05 742.28,-201.57 738.5,-189 733.91,-173.73 728.88,-156.4 725.15,-143.42"/>
<polygon fill="midnightblue" stroke="midnightblue" points="728.57,-142.63 722.45,-133.98 721.84,-144.55 728.57,-142.63"/>
</g>
<!-- Node22&#45;&gt;Node23 -->
<g id="edge23" class="edge">
<title>Node22&#45;&gt;Node23</title>
<path fill="none" stroke="midnightblue" d="M1277.5,-168.92C1277.5,-162.12 1277.5,-152.51 1277.5,-143.9"/>
<polygon fill="midnightblue" stroke="midnightblue" points="1281,-143.93 1277.5,-133.93 1274,-143.93 1281,-143.93"/>
</g>
<!-- Node23&#45;&gt;Node24 -->
<g id="edge24" class="edge">
<title>Node23&#45;&gt;Node24</title>
<path fill="none" stroke="midnightblue" d="M1265.45,-112.67C1254.6,-104.61 1238.43,-92.59 1225.47,-82.96"/>
<polygon fill="midnightblue" stroke="midnightblue" points="1227.66,-80.22 1217.54,-77.07 1223.48,-85.84 1227.66,-80.22"/>
</g>
<!-- Node25 -->
<g id="node25" class="node">
<title>Node25</title>
<g id="a_node25"><a xlink:href="_bit_set_8hpp.html" target="_top" xlink:title=" ">
<polygon fill="white" stroke="black" points="1173.62,-0.5 1173.62,-19.75 1235.38,-19.75 1235.38,-0.5 1173.62,-0.5"/>
<text xml:space="preserve" text-anchor="middle" x="1204.5" y="-6.25" font-family="Helvetica,sans-Serif" font-size="10.00">BitSet.hpp</text>
</a>
</g>
</g>
<!-- Node24&#45;&gt;Node25 -->
<g id="edge25" class="edge">
<title>Node24&#45;&gt;Node25</title>
<path fill="none" stroke="midnightblue" d="M1204.5,-56.42C1204.5,-49.62 1204.5,-40.01 1204.5,-31.4"/>
<polygon fill="midnightblue" stroke="midnightblue" points="1208,-31.43 1204.5,-21.43 1201,-31.43 1208,-31.43"/>
</g>
<!-- Node27 -->
<g id="node27" class="node">
<title>Node27</title>
<g id="a_node27"><a xlink:title=" ">
<polygon fill="white" stroke="#bfbfbf" points="771.38,-113 771.38,-132.25 819.62,-132.25 819.62,-113 771.38,-113"/>
<text xml:space="preserve" text-anchor="middle" x="795.5" y="-118.75" font-family="Helvetica,sans-Serif" font-size="10.00">ctype.h</text>
</a>
</g>
</g>
<!-- Node26&#45;&gt;Node27 -->
<g id="edge27" class="edge">
<title>Node26&#45;&gt;Node27</title>
<path fill="none" stroke="midnightblue" d="M787.15,-168.92C788.42,-162.04 790.22,-152.29 791.82,-143.6"/>
<polygon fill="midnightblue" stroke="midnightblue" points="795.23,-144.37 793.61,-133.91 788.35,-143.1 795.23,-144.37"/>
</g>
<!-- Node26&#45;&gt;Node28 -->
<g id="edge28" class="edge">
<title>Node26&#45;&gt;Node28</title>
<path fill="none" stroke="midnightblue" d="M774.6,-168.92C764.89,-160.94 750.47,-149.08 738.81,-139.5"/>
<polygon fill="midnightblue" stroke="midnightblue" points="741.31,-137.02 731.37,-133.38 736.87,-142.43 741.31,-137.02"/>
</g>
<!-- Node29 -->
<g id="node29" class="node">
<title>Node29</title>
<g id="a_node29"><a xlink:title=" ">
<polygon fill="white" stroke="#bfbfbf" points="686,-56.75 686,-76 753,-76 753,-56.75 686,-56.75"/>
<text xml:space="preserve" text-anchor="middle" x="719.5" y="-62.5" font-family="Helvetica,sans-Serif" font-size="10.00">sys/types.h</text>
</a>
</g>
</g>
<!-- Node28&#45;&gt;Node29 -->
<g id="edge29" class="edge">
<title>Node28&#45;&gt;Node29</title>
<path fill="none" stroke="midnightblue" d="M719.5,-112.67C719.5,-105.87 719.5,-96.26 719.5,-87.65"/>
<polygon fill="midnightblue" stroke="midnightblue" points="723,-87.68 719.5,-77.68 716,-87.68 723,-87.68"/>
</g>
<!-- Node31 -->
<g id="node31" class="node">
<title>Node31</title>
<g id="a_node31"><a xlink:href="_memory_8hpp.html" target="_top" xlink:title=" ">
<polygon fill="white" stroke="black" points="838.25,-338 838.25,-357.25 906.75,-357.25 906.75,-338 838.25,-338"/>
<text xml:space="preserve" text-anchor="middle" x="872.5" y="-343.75" font-family="Helvetica,sans-Serif" font-size="10.00">Memory.hpp</text>
</a>
</g>
</g>
<!-- Node30&#45;&gt;Node31 -->
<g id="edge34" class="edge">
<title>Node30&#45;&gt;Node31</title>
<path fill="none" stroke="midnightblue" d="M729.87,-454.82C781.03,-449 858.54,-436.65 876.5,-414 886.66,-401.19 884.15,-382.16 879.99,-367.92"/>
<polygon fill="midnightblue" stroke="midnightblue" points="883.41,-367.09 876.85,-358.77 876.79,-369.37 883.41,-367.09"/>
</g>
<!-- Node32 -->
<g id="node32" class="node">
<title>Node32</title>
<g id="a_node32"><a xlink:href="_memory_stack_8hpp.html" target="_top" xlink:title=" ">
<polygon fill="white" stroke="black" points="450.75,-225.5 450.75,-244.75 546.25,-244.75 546.25,-225.5 450.75,-225.5"/>
<text xml:space="preserve" text-anchor="middle" x="498.5" y="-231.25" font-family="Helvetica,sans-Serif" font-size="10.00">MemoryStack.hpp</text>
</a>
</g>
</g>
<!-- Node30&#45;&gt;Node32 -->
<g id="edge35" class="edge">
<title>Node30&#45;&gt;Node32</title>
<path fill="none" stroke="midnightblue" d="M637.32,-456.97C576.04,-453.03 472.84,-442.28 449.5,-414 411.94,-368.5 425.81,-335.28 449.5,-281.25 454.66,-269.49 464.55,-259.45 474.11,-251.84"/>
<polygon fill="midnightblue" stroke="midnightblue" points="476.14,-254.69 482.14,-245.97 472.01,-249.04 476.14,-254.69"/>
</g>
<!-- Node33 -->
<g id="node33" class="node">
<title>Node33</title>
<g id="a_node33"><a xlink:title=" ">
<polygon fill="white" stroke="#bfbfbf" points="917.75,-281.75 917.75,-301 1019.25,-301 1019.25,-281.75 917.75,-281.75"/>
<text xml:space="preserve" text-anchor="middle" x="968.5" y="-287.5" font-family="Helvetica,sans-Serif" font-size="10.00">SysSemaphore.hpp</text>
</a>
</g>
</g>
<!-- Node30&#45;&gt;Node33 -->
<g id="edge37" class="edge">
<title>Node30&#45;&gt;Node33</title>
<path fill="none" stroke="midnightblue" d="M729.81,-459.35C775.35,-457.39 844.92,-448.31 893.5,-414 929.68,-388.44 951.88,-339.36 962,-312.01"/>
<polygon fill="midnightblue" stroke="midnightblue" points="965.2,-313.46 965.2,-302.87 958.59,-311.15 965.2,-313.46"/>
</g>
<!-- Node34 -->
<g id="node34" class="node">
<title>Node34</title>
<g id="a_node34"><a xlink:href="_identity_table_class_8hpp.html" target="_top" xlink:title=" ">
<polygon fill="white" stroke="black" points="625.62,-394.25 625.62,-413.5 741.38,-413.5 741.38,-394.25 625.62,-394.25"/>
<text xml:space="preserve" text-anchor="middle" x="683.5" y="-400" font-family="Helvetica,sans-Serif" font-size="10.00">IdentityTableClass.hpp</text>
</a>
</g>
</g>
<!-- Node30&#45;&gt;Node34 -->
<g id="edge38" class="edge">
<title>Node30&#45;&gt;Node34</title>
<path fill="none" stroke="midnightblue" d="M683.5,-450.17C683.5,-443.37 683.5,-433.76 683.5,-425.15"/>
<polygon fill="midnightblue" stroke="midnightblue" points="687,-425.18 683.5,-415.18 680,-425.18 687,-425.18"/>
</g>
<!-- Node35 -->
<g id="node35" class="node">
<title>Node35</title>
<g id="a_node35"><a xlink:href="_queue_class_8hpp.html" target="_top" xlink:title=" ">
<polygon fill="white" stroke="black" points="458.12,-394.25 458.12,-413.5 546.88,-413.5 546.88,-394.25 458.12,-394.25"/>
<text xml:space="preserve" text-anchor="middle" x="502.5" y="-400" font-family="Helvetica,sans-Serif" font-size="10.00">QueueClass.hpp</text>
</a>
</g>
</g>
<!-- Node30&#45;&gt;Node35 -->
<g id="edge40" class="edge">
<title>Node30&#45;&gt;Node35</title>
<path fill="none" stroke="midnightblue" d="M653.2,-450.04C623.19,-441.05 577,-427.2 543.66,-417.21"/>
<polygon fill="midnightblue" stroke="midnightblue" points="544.93,-413.94 534.34,-414.42 542.92,-420.64 544.93,-413.94"/>
</g>
<!-- Node38 -->
<g id="node38" class="node">
<title>Node38</title>
<g id="a_node38"><a xlink:title=" ">
<polygon fill="white" stroke="#bfbfbf" points="565,-394.25 565,-413.5 608,-413.5 608,-394.25 565,-394.25"/>
<text xml:space="preserve" text-anchor="middle" x="586.5" y="-400" font-family="Helvetica,sans-Serif" font-size="10.00">vector</text>
</a>
</g>
</g>
<!-- Node30&#45;&gt;Node38 -->
<g id="edge44" class="edge">
<title>Node30&#45;&gt;Node38</title>
<path fill="none" stroke="midnightblue" d="M667.48,-450.17C652.46,-441.76 629.74,-429.06 612.18,-419.24"/>
<polygon fill="midnightblue" stroke="midnightblue" points="614.3,-416.41 603.86,-414.59 610.88,-422.52 614.3,-416.41"/>
</g>
<!-- Node39 -->
<g id="node39" class="node">
<title>Node39</title>
<g id="a_node39"><a xlink:href="_memory_stats_8hpp.html" target="_top" xlink:title=" ">
<polygon fill="white" stroke="black" points="270.88,-394.25 270.88,-413.5 364.12,-413.5 364.12,-394.25 270.88,-394.25"/>
<text xml:space="preserve" text-anchor="middle" x="317.5" y="-400" font-family="Helvetica,sans-Serif" font-size="10.00">MemoryStats.hpp</text>
</a>
</g>
</g>
<!-- Node30&#45;&gt;Node39 -->
<g id="edge45" class="edge">
<title>Node30&#45;&gt;Node39</title>
<path fill="none" stroke="midnightblue" d="M637.15,-452.25C570.59,-442.39 448.02,-424.22 375.53,-413.48"/>
<polygon fill="midnightblue" stroke="midnightblue" points="376.25,-410.04 365.84,-412.04 375.22,-416.97 376.25,-410.04"/>
</g>
<!-- Node40 -->
<g id="node40" class="node">
<title>Node40</title>
<g id="a_node40"><a xlink:href="_memory_segment_8hpp.html" target="_top" xlink:title=" ">
<polygon fill="white" stroke="black" points="759,-394.25 759,-413.5 868,-413.5 868,-394.25 759,-394.25"/>
<text xml:space="preserve" text-anchor="middle" x="813.5" y="-400" font-family="Helvetica,sans-Serif" font-size="10.00">MemorySegment.hpp</text>
</a>
</g>
</g>
<!-- Node30&#45;&gt;Node40 -->
<g id="edge47" class="edge">
<title>Node30&#45;&gt;Node40</title>
<path fill="none" stroke="midnightblue" d="M705.26,-450.04C725.98,-441.4 757.42,-428.28 781.08,-418.4"/>
<polygon fill="midnightblue" stroke="midnightblue" points="782.39,-421.65 790.27,-414.57 779.7,-415.19 782.39,-421.65"/>
</g>
<!-- Node32&#45;&gt;Node14 -->
<g id="edge36" class="edge">
<title>Node32&#45;&gt;Node14</title>
<path fill="none" stroke="midnightblue" d="M505.77,-225.17C511.85,-217.66 520.72,-206.72 528.22,-197.48"/>
<polygon fill="midnightblue" stroke="midnightblue" points="530.84,-199.81 534.42,-189.84 525.4,-195.4 530.84,-199.81"/>
</g>
<!-- Node34&#45;&gt;Node19 -->
<g id="edge39" class="edge">
<title>Node34&#45;&gt;Node19</title>
<path fill="none" stroke="midnightblue" d="M674.25,-393.92C666.26,-386.17 654.5,-374.78 644.77,-365.36"/>
<polygon fill="midnightblue" stroke="midnightblue" points="647.28,-362.91 637.66,-358.47 642.41,-367.94 647.28,-362.91"/>
</g>
<!-- Node36 -->
<g id="node36" class="node">
<title>Node36</title>
<g id="a_node36"><a xlink:href="_array_class_8hpp.html" target="_top" xlink:title=" ">
<polygon fill="white" stroke="black" points="460.75,-338 460.75,-357.25 544.25,-357.25 544.25,-338 460.75,-338"/>
<text xml:space="preserve" text-anchor="middle" x="502.5" y="-343.75" font-family="Helvetica,sans-Serif" font-size="10.00">ArrayClass.hpp</text>
</a>
</g>
</g>
<!-- Node35&#45;&gt;Node36 -->
<g id="edge41" class="edge">
<title>Node35&#45;&gt;Node36</title>
<path fill="none" stroke="midnightblue" d="M502.5,-393.92C502.5,-387.12 502.5,-377.51 502.5,-368.9"/>
<polygon fill="midnightblue" stroke="midnightblue" points="506,-368.93 502.5,-358.93 499,-368.93 506,-368.93"/>
</g>
<!-- Node36&#45;&gt;Node15 -->
<g id="edge43" class="edge">
<title>Node36&#45;&gt;Node15</title>
<path fill="none" stroke="midnightblue" d="M460.31,-337.79C414.66,-328.23 341.92,-312.99 293.45,-302.84"/>
<polygon fill="midnightblue" stroke="midnightblue" points="294.27,-299.43 283.77,-300.81 292.84,-306.28 294.27,-299.43"/>
</g>
<!-- Node37 -->
<g id="node37" class="node">
<title>Node37</title>
<g id="a_node37"><a xlink:href="_number_array_8hpp.html" target="_top" xlink:title=" ">
<polygon fill="white" stroke="black" points="459,-281.75 459,-301 550,-301 550,-281.75 459,-281.75"/>
<text xml:space="preserve" text-anchor="middle" x="504.5" y="-287.5" font-family="Helvetica,sans-Serif" font-size="10.00">NumberArray.hpp</text>
</a>
</g>
</g>
<!-- Node36&#45;&gt;Node37 -->
<g id="edge42" class="edge">
<title>Node36&#45;&gt;Node37</title>
<path fill="none" stroke="midnightblue" d="M502.83,-337.67C503.08,-330.87 503.43,-321.26 503.75,-312.65"/>
<polygon fill="midnightblue" stroke="midnightblue" points="507.25,-312.8 504.12,-302.68 500.25,-312.54 507.25,-312.8"/>
</g>
<!-- Node39&#45;&gt;Node11 -->
<g id="edge46" class="edge">
<title>Node39&#45;&gt;Node11</title>
<path fill="none" stroke="midnightblue" d="M314.69,-393.92C312.51,-386.96 309.41,-377.07 306.66,-368.3"/>
<polygon fill="midnightblue" stroke="midnightblue" points="310.04,-367.36 303.71,-358.86 303.36,-369.45 310.04,-367.36"/>
</g>
<!-- Node40&#45;&gt;Node31 -->
<g id="edge54" class="edge">
<title>Node40&#45;&gt;Node31</title>
<path fill="none" stroke="midnightblue" d="M823.24,-393.92C831.75,-386.1 844.31,-374.55 854.62,-365.07"/>
<polygon fill="midnightblue" stroke="midnightblue" points="856.83,-367.79 861.82,-358.44 852.09,-362.63 856.83,-367.79"/>
</g>
<!-- Node41 -->
<g id="node41" class="node">
<title>Node41</title>
<g id="a_node41"><a xlink:href="_dead_object_8hpp.html" target="_top" xlink:title=" ">
<polygon fill="white" stroke="black" points="696.25,-338 696.25,-357.25 782.75,-357.25 782.75,-338 696.25,-338"/>
<text xml:space="preserve" text-anchor="middle" x="739.5" y="-343.75" font-family="Helvetica,sans-Serif" font-size="10.00">DeadObject.hpp</text>
</a>
</g>
</g>
<!-- Node40&#45;&gt;Node41 -->
<g id="edge48" class="edge">
<title>Node40&#45;&gt;Node41</title>
<path fill="none" stroke="midnightblue" d="M801.28,-393.92C790.35,-385.91 774.09,-373.99 761,-364.38"/>
<polygon fill="midnightblue" stroke="midnightblue" points="763.09,-361.58 752.96,-358.49 758.95,-367.23 763.09,-361.58"/>
</g>
<!-- Node42 -->
<g id="node42" class="node">
<title>Node42</title>
<g id="a_node42"><a xlink:title=" ">
<polygon fill="white" stroke="#bfbfbf" points="755.88,-281.75 755.88,-301 801.12,-301 801.12,-281.75 755.88,-281.75"/>
<text xml:space="preserve" text-anchor="middle" x="778.5" y="-287.5" font-family="Helvetica,sans-Serif" font-size="10.00">stdio.h</text>
</a>
</g>
</g>
<!-- Node40&#45;&gt;Node42 -->
<g id="edge55" class="edge">
<title>Node40&#45;&gt;Node42</title>
<path fill="none" stroke="midnightblue" d="M810.64,-393.83C804.99,-376.02 792.33,-336.02 784.69,-311.91"/>
<polygon fill="midnightblue" stroke="midnightblue" points="788.12,-311.15 781.76,-302.68 781.45,-313.27 788.12,-311.15"/>
</g>
<!-- Node40&#45;&gt;Node43 -->
<g id="edge51" class="edge">
<title>Node40&#45;&gt;Node43</title>
<path fill="none" stroke="midnightblue" d="M844.97,-393.79C876.28,-384.76 924.54,-370.83 959.2,-360.83"/>
<polygon fill="midnightblue" stroke="midnightblue" points="959.84,-364.29 968.48,-358.15 957.9,-357.56 959.84,-364.29"/>
</g>
<!-- Node41&#45;&gt;Node14 -->
<g id="edge49" class="edge">
<title>Node41&#45;&gt;Node14</title>
<path fill="none" stroke="midnightblue" d="M698.38,-337.5C674.36,-330.62 644.53,-319.26 622.5,-301.5 587.54,-273.31 562.57,-225.65 550.56,-199.14"/>
<polygon fill="midnightblue" stroke="midnightblue" points="553.9,-198.04 546.7,-190.27 547.48,-200.84 553.9,-198.04"/>
</g>
<!-- Node41&#45;&gt;Node42 -->
<g id="edge50" class="edge">
<title>Node41&#45;&gt;Node42</title>
<path fill="none" stroke="midnightblue" d="M745.94,-337.67C751.28,-330.24 759.03,-319.45 765.64,-310.27"/>
<polygon fill="midnightblue" stroke="midnightblue" points="768.3,-312.56 771.3,-302.4 762.62,-308.47 768.3,-312.56"/>
</g>
<!-- Node43&#45;&gt;Node2 -->
<g id="edge52" class="edge">
<title>Node43&#45;&gt;Node2</title>
<path fill="none" stroke="midnightblue" d="M996.49,-357.54C988.22,-371.49 970.44,-398.47 948.5,-414 909.6,-441.53 874.96,-411.05 847.5,-450 835.38,-467.19 853.74,-486.57 871.14,-499.74"/>
<polygon fill="midnightblue" stroke="midnightblue" points="869.08,-502.57 879.27,-505.49 873.12,-496.85 869.08,-502.57"/>
</g>
<!-- Node43&#45;&gt;Node33 -->
<g id="edge53" class="edge">
<title>Node43&#45;&gt;Node33</title>
<path fill="none" stroke="midnightblue" d="M996.05,-337.67C991.63,-330.4 985.25,-319.91 979.74,-310.86"/>
<polygon fill="midnightblue" stroke="midnightblue" points="982.82,-309.18 974.63,-302.46 976.84,-312.82 982.82,-309.18"/>
</g>
<!-- Node44&#45;&gt;Node24 -->
<g id="edge57" class="edge">
<title>Node44&#45;&gt;Node24</title>
<path fill="none" stroke="midnightblue" d="M1051.12,-450.82C1080.94,-444.24 1118.39,-432.9 1147.5,-414 1179.83,-393.01 1204.5,-387.17 1204.5,-348.62 1204.5,-348.62 1204.5,-348.62 1204.5,-177.88 1204.5,-146.28 1204.5,-109.61 1204.5,-87.47"/>
<polygon fill="midnightblue" stroke="midnightblue" points="1208,-87.77 1204.5,-77.77 1201,-87.77 1208,-87.77"/>
</g>
<!-- Node45 -->
<g id="node45" class="node">
<title>Node45</title>
<g id="a_node45"><a xlink:href="_primitive_behaviour_names_8h.html" target="_top" xlink:title=" ">
<polygon fill="white" stroke="black" points="1000.75,-394.25 1000.75,-413.5 1138.25,-413.5 1138.25,-394.25 1000.75,-394.25"/>
<text xml:space="preserve" text-anchor="middle" x="1069.5" y="-400" font-family="Helvetica,sans-Serif" font-size="10.00">PrimitiveBehaviourNames.h</text>
</a>
</g>
</g>
<!-- Node44&#45;&gt;Node45 -->
<g id="edge58" class="edge">
<title>Node44&#45;&gt;Node45</title>
<path fill="none" stroke="midnightblue" d="M1011.89,-450.17C1022.04,-442.19 1037.13,-430.33 1049.31,-420.75"/>
<polygon fill="midnightblue" stroke="midnightblue" points="1051.43,-423.53 1057.13,-414.6 1047.1,-418.03 1051.43,-423.53"/>
</g>
<!-- Node47&#45;&gt;Node2 -->
<g id="edge63" class="edge">
<title>Node47&#45;&gt;Node2</title>
<path fill="none" stroke="midnightblue" d="M972.31,-562.67C958.19,-554.34 936.91,-541.79 920.33,-532.02"/>
<polygon fill="midnightblue" stroke="midnightblue" points="922.41,-529.18 912.02,-527.12 918.85,-535.21 922.41,-529.18"/>
</g>
<!-- Node48&#45;&gt;Node2 -->
<g id="edge66" class="edge">
<title>Node48&#45;&gt;Node2</title>
<path fill="none" stroke="midnightblue" d="M1080.34,-562.54C1042.09,-553.2 982.44,-538.62 941.3,-528.57"/>
<polygon fill="midnightblue" stroke="midnightblue" points="942.23,-525.19 931.69,-526.22 940.57,-531.99 942.23,-525.19"/>
</g>
</g>
</svg>
        <g id="navigator" transform="translate(0 0)" fill="#404254">
                <rect fill="#f2f5e9" fill-opacity="0.5" stroke="#606060" stroke-width=".5" x="0" y="0" width="60" height="60"/>
                <use id="zoomplus" xlink:href="#zoomPlus" x="17" y="9" onmousedown="handleZoom(evt,'in')"/>
                <use id="zoomminus" xlink:href="#zoomMin" x="42" y="9" onmousedown="handleZoom(evt,'out')"/>
                <use id="reset" xlink:href="#resetDef" x="30" y="36" onmousedown="handleReset()"/>
                <g id="arrowUp" xlink:href="#dirArrow" transform="translate(30 24)" onmousedown="handlePan(0,-1)">
                  <use xlink:href="#rim" fill="#404040">
                        <set attributeName="fill" to="#808080" begin="arrowUp.mouseover" end="arrowUp.mouseout"/>
                  </use>
                  <path fill="none" stroke="white" stroke-width="1.5" d="M0,-3.0v7 M-2.5,-0.5L0,-3.0L2.5,-0.5"/>
                </g>
                <g id="arrowRight" xlink:href="#dirArrow" transform="rotate(90) translate(36 -43)" onmousedown="handlePan(1,0)">
                  <use xlink:href="#rim" fill="#404040">
                        <set attributeName="fill" to="#808080" begin="arrowRight.mouseover" end="arrowRight.mouseout"/>
                  </use>
                  <path fill="none" stroke="white" stroke-width="1.5" d="M0,-3.0v7 M-2.5,-0.5L0,-3.0L2.5,-0.5"/>
                </g>
                <g id="arrowDown" xlink:href="#dirArrow" transform="rotate(180) translate(-30 -48)" onmousedown="handlePan(0,1)">
                  <use xlink:href="#rim" fill="#404040">
                        <set attributeName="fill" to="#808080" begin="arrowDown.mouseover" end="arrowDown.mouseout"/>
                  </use>
                  <path fill="none" stroke="white" stroke-width="1.5" d="M0,-3.0v7 M-2.5,-0.5L0,-3.0L2.5,-0.5"/>
                </g>
                <g id="arrowLeft" xlink:href="#dirArrow" transform="rotate(270) translate(-36 17)" onmousedown="handlePan(-1,0)">
                  <use xlink:href="#rim" fill="#404040">
                        <set attributeName="fill" to="#808080" begin="arrowLeft.mouseover" end="arrowLeft.mouseout"/>
                  </use>
                  <path fill="none" stroke="white" stroke-width="1.5" d="M0,-3.0v7 M-2.5,-0.5L0,-3.0L2.5,-0.5"/>
                </g>
        </g>
        <svg viewBox="0 0 15 15" width="100%" height="30px" preserveAspectRatio="xMaxYMin meet">
         <g id="arrow_out" transform="scale(0.3 0.3)">
          <a xlink:href="windows_2_time_support_8cpp__incl_org.svg" target="_base">
           <rect id="button" ry="5" rx="5" y="6" x="6" height="38" width="38"
                fill="#f2f5e9" fill-opacity="0.5" stroke="#606060" stroke-width="1.0"/>
           <path id="arrow"
             d="M 11.500037,31.436501 C 11.940474,20.09759 22.043105,11.32322 32.158766,21.979434 L 37.068811,17.246167 C 37.068811,17.246167 37.088388,32 37.088388,32 L 22.160133,31.978069 C 22.160133,31.978069 26.997745,27.140456 26.997745,27.140456 C 18.528582,18.264221 13.291696,25.230495 11.500037,31.436501 z"
             style="fill:#404040;"/>
          </a>
         </g>
        </svg>
</svg>
