<?xml version="1.0" encoding="UTF-8" standalone="no"?>
<!DOCTYPE svg PUBLIC "-//W3C//DTD SVG 1.1//EN"
 "http://www.w3.org/Graphics/SVG/1.1/DTD/svg11.dtd">
<!-- Generated by graphviz version 13.1.0 (20250701.0955)
 -->
<!-- Title: SystemInitialization.cpp Pages: 1 -->
<svg width="1467pt" height="647pt"
 viewBox="0.00 0.00 1467.00 647.00" xmlns="http://www.w3.org/2000/svg" xmlns:xlink="http://www.w3.org/1999/xlink">
<g id="graph0" class="graph" transform="scale(1 1) rotate(0) translate(4 643)">
<title>SystemInitialization.cpp</title>
<polygon fill="white" stroke="none" points="-4,4 -4,-643 1462.82,-643 1462.82,4 -4,4"/>
<!-- Node1 -->
<g id="node1" class="node">
<title>Node1</title>
<g id="a_node1"><a xlink:title=" ">
<polygon fill="#bfbfbf" stroke="black" points="921.62,-619.25 921.62,-638.5 1041.88,-638.5 1041.88,-619.25 921.62,-619.25"/>
<text xml:space="preserve" text-anchor="middle" x="981.75" y="-625" font-family="Helvetica,sans-Serif" font-size="10.00">SystemInitialization.cpp</text>
</a>
</g>
</g>
<!-- Node2 -->
<g id="node2" class="node">
<title>Node2</title>
<g id="a_node2"><a xlink:href="_rexx_core_8h.html" target="_top" xlink:title=" ">
<polygon fill="white" stroke="black" points="863.5,-506.75 863.5,-526 932,-526 932,-506.75 863.5,-506.75"/>
<text xml:space="preserve" text-anchor="middle" x="897.75" y="-512.5" font-family="Helvetica,sans-Serif" font-size="10.00">RexxCore.h</text>
</a>
</g>
</g>
<!-- Node1&#45;&gt;Node2 -->
<g id="edge1" class="edge">
<title>Node1&#45;&gt;Node2</title>
<path fill="none" stroke="midnightblue" d="M981.05,-619.02C979.61,-605.64 975.31,-579.97 962.75,-562.5 953.57,-549.74 939.62,-539.37 926.98,-531.81"/>
<polygon fill="midnightblue" stroke="midnightblue" points="929.01,-528.93 918.57,-527.09 925.58,-535.03 929.01,-528.93"/>
</g>
<!-- Node33 -->
<g id="node33" class="node">
<title>Node33</title>
<g id="a_node33"><a xlink:title=" ">
<polygon fill="white" stroke="#bfbfbf" points="920,-281.75 920,-301 1021.5,-301 1021.5,-281.75 920,-281.75"/>
<text xml:space="preserve" text-anchor="middle" x="970.75" y="-287.5" font-family="Helvetica,sans-Serif" font-size="10.00">SysSemaphore.hpp</text>
</a>
</g>
</g>
<!-- Node1&#45;&gt;Node33 -->
<g id="edge63" class="edge">
<title>Node1&#45;&gt;Node33</title>
<path fill="none" stroke="midnightblue" d="M1042.04,-626.43C1170.12,-621.74 1457.75,-601.79 1457.75,-517.38 1457.75,-517.38 1457.75,-517.38 1457.75,-402.88 1457.75,-372.62 1462.05,-356.81 1438.75,-337.5 1408.16,-312.14 1153.34,-299.25 1033.1,-294.54"/>
<polygon fill="midnightblue" stroke="midnightblue" points="1033.54,-291.05 1023.41,-294.16 1033.27,-298.04 1033.54,-291.05"/>
</g>
<!-- Node47 -->
<g id="node47" class="node">
<title>Node47</title>
<g id="a_node47"><a xlink:href="windows_2_system_interpreter_8hpp.html" target="_top" xlink:title=" ">
<polygon fill="white" stroke="black" points="841.75,-563 841.75,-582.25 953.75,-582.25 953.75,-563 841.75,-563"/>
<text xml:space="preserve" text-anchor="middle" x="897.75" y="-568.75" font-family="Helvetica,sans-Serif" font-size="10.00">SystemInterpreter.hpp</text>
</a>
</g>
</g>
<!-- Node1&#45;&gt;Node47 -->
<g id="edge61" class="edge">
<title>Node1&#45;&gt;Node47</title>
<path fill="none" stroke="midnightblue" d="M967.88,-618.92C955.23,-610.75 936.29,-598.52 921.28,-588.82"/>
<polygon fill="midnightblue" stroke="midnightblue" points="923.21,-585.9 912.91,-583.42 919.41,-591.78 923.21,-585.9"/>
</g>
<!-- Node3 -->
<g id="node3" class="node">
<title>Node3</title>
<g id="a_node3"><a xlink:href="oorexxapi_8h.html" target="_top" xlink:title=" ">
<polygon fill="white" stroke="black" points="1169.62,-450.5 1169.62,-469.75 1235.88,-469.75 1235.88,-450.5 1169.62,-450.5"/>
<text xml:space="preserve" text-anchor="middle" x="1202.75" y="-456.25" font-family="Helvetica,sans-Serif" font-size="10.00">oorexxapi.h</text>
</a>
</g>
</g>
<!-- Node2&#45;&gt;Node3 -->
<g id="edge2" class="edge">
<title>Node2&#45;&gt;Node3</title>
<path fill="none" stroke="midnightblue" d="M932.44,-509.2C988.03,-499.32 1097.03,-479.93 1158.27,-469.04"/>
<polygon fill="midnightblue" stroke="midnightblue" points="1158.76,-472.5 1168,-467.31 1157.54,-465.61 1158.76,-472.5"/>
</g>
<!-- Node10 -->
<g id="node10" class="node">
<title>Node10</title>
<g id="a_node10"><a xlink:title=" ">
<polygon fill="white" stroke="#bfbfbf" points="0,-450.5 0,-469.75 107.5,-469.75 107.5,-450.5 0,-450.5"/>
<text xml:space="preserve" text-anchor="middle" x="53.75" y="-456.25" font-family="Helvetica,sans-Serif" font-size="10.00">PlatformDefinitions.h</text>
</a>
</g>
</g>
<!-- Node2&#45;&gt;Node10 -->
<g id="edge9" class="edge">
<title>Node2&#45;&gt;Node10</title>
<path fill="none" stroke="midnightblue" d="M863.26,-514.3C754.26,-510.69 407.54,-497.7 121.75,-470.25 120.91,-470.17 120.05,-470.09 119.2,-470"/>
<polygon fill="midnightblue" stroke="midnightblue" points="119.72,-466.54 109.4,-468.93 118.96,-473.49 119.72,-466.54"/>
</g>
<!-- Node11 -->
<g id="node11" class="node">
<title>Node11</title>
<g id="a_node11"><a xlink:href="_class_type_codes_8h.html" target="_top" xlink:title=" ">
<polygon fill="white" stroke="black" points="218.12,-338 218.12,-357.25 317.38,-357.25 317.38,-338 218.12,-338"/>
<text xml:space="preserve" text-anchor="middle" x="267.75" y="-343.75" font-family="Helvetica,sans-Serif" font-size="10.00">ClassTypeCodes.h</text>
</a>
</g>
</g>
<!-- Node2&#45;&gt;Node11 -->
<g id="edge10" class="edge">
<title>Node2&#45;&gt;Node11</title>
<path fill="none" stroke="midnightblue" d="M863.35,-515.88C738.34,-516.92 311.3,-513.06 230.75,-414 218.37,-398.77 233.33,-378.86 247.76,-365.03"/>
<polygon fill="midnightblue" stroke="midnightblue" points="249.74,-367.96 254.86,-358.68 245.07,-362.74 249.74,-367.96"/>
</g>
<!-- Node12 -->
<g id="node12" class="node">
<title>Node12</title>
<g id="a_node12"><a xlink:href="_object_class_8hpp.html" target="_top" xlink:title=" ">
<polygon fill="white" stroke="black" points="57.38,-338 57.38,-357.25 146.12,-357.25 146.12,-338 57.38,-338"/>
<text xml:space="preserve" text-anchor="middle" x="101.75" y="-343.75" font-family="Helvetica,sans-Serif" font-size="10.00">ObjectClass.hpp</text>
</a>
</g>
</g>
<!-- Node2&#45;&gt;Node12 -->
<g id="edge11" class="edge">
<title>Node2&#45;&gt;Node12</title>
<path fill="none" stroke="midnightblue" d="M863.43,-515.3C725.82,-514.72 218.55,-509.91 159.75,-470.25 125.11,-446.88 110.57,-396.9 104.95,-368.83"/>
<polygon fill="midnightblue" stroke="midnightblue" points="108.42,-368.37 103.22,-359.14 101.53,-369.6 108.42,-368.37"/>
</g>
<!-- Node18 -->
<g id="node18" class="node">
<title>Node18</title>
<g id="a_node18"><a xlink:href="_table_class_8hpp.html" target="_top" xlink:title=" ">
<polygon fill="white" stroke="black" points="801,-450.5 801,-469.75 884.5,-469.75 884.5,-450.5 801,-450.5"/>
<text xml:space="preserve" text-anchor="middle" x="842.75" y="-456.25" font-family="Helvetica,sans-Serif" font-size="10.00">TableClass.hpp</text>
</a>
</g>
</g>
<!-- Node2&#45;&gt;Node18 -->
<g id="edge18" class="edge">
<title>Node2&#45;&gt;Node18</title>
<path fill="none" stroke="midnightblue" d="M888.67,-506.42C880.82,-498.67 869.27,-487.28 859.71,-477.86"/>
<polygon fill="midnightblue" stroke="midnightblue" points="862.32,-475.51 852.74,-470.98 857.4,-480.49 862.32,-475.51"/>
</g>
<!-- Node23 -->
<g id="node23" class="node">
<title>Node23</title>
<g id="a_node23"><a xlink:href="_class_class_8hpp.html" target="_top" xlink:title=" ">
<polygon fill="white" stroke="black" points="787.88,-113 787.88,-132.25 873.62,-132.25 873.62,-113 787.88,-113"/>
<text xml:space="preserve" text-anchor="middle" x="830.75" y="-118.75" font-family="Helvetica,sans-Serif" font-size="10.00">ClassClass.hpp</text>
</a>
</g>
</g>
<!-- Node2&#45;&gt;Node23 -->
<g id="edge59" class="edge">
<title>Node2&#45;&gt;Node23</title>
<path fill="none" stroke="midnightblue" d="M932.25,-515.34C995.8,-514.32 1134.88,-507.57 1244.75,-470.25 1343.68,-436.65 1499.14,-422.76 1438.75,-337.5 1308.9,-154.17 1008.76,-126.85 885.3,-123.6"/>
<polygon fill="midnightblue" stroke="midnightblue" points="885.5,-120.1 875.43,-123.38 885.35,-127.1 885.5,-120.1"/>
</g>
<!-- Node30 -->
<g id="node30" class="node">
<title>Node30</title>
<g id="a_node30"><a xlink:href="_rexx_memory_8hpp.html" target="_top" xlink:title=" ">
<polygon fill="white" stroke="black" points="509.88,-450.5 509.88,-469.75 601.62,-469.75 601.62,-450.5 509.88,-450.5"/>
<text xml:space="preserve" text-anchor="middle" x="555.75" y="-456.25" font-family="Helvetica,sans-Serif" font-size="10.00">RexxMemory.hpp</text>
</a>
</g>
</g>
<!-- Node2&#45;&gt;Node30 -->
<g id="edge33" class="edge">
<title>Node2&#45;&gt;Node30</title>
<path fill="none" stroke="midnightblue" d="M863.08,-509.87C804.24,-500.54 684.3,-481.52 612.9,-470.19"/>
<polygon fill="midnightblue" stroke="midnightblue" points="613.79,-466.79 603.37,-468.68 612.7,-473.7 613.79,-466.79"/>
</g>
<!-- Node44 -->
<g id="node44" class="node">
<title>Node44</title>
<g id="a_node44"><a xlink:href="_rexx_behaviour_8hpp.html" target="_top" xlink:title=" ">
<polygon fill="white" stroke="black" points="902.38,-450.5 902.38,-469.75 1003.12,-469.75 1003.12,-450.5 902.38,-450.5"/>
<text xml:space="preserve" text-anchor="middle" x="952.75" y="-456.25" font-family="Helvetica,sans-Serif" font-size="10.00">RexxBehaviour.hpp</text>
</a>
</g>
</g>
<!-- Node2&#45;&gt;Node44 -->
<g id="edge56" class="edge">
<title>Node2&#45;&gt;Node44</title>
<path fill="none" stroke="midnightblue" d="M906.83,-506.42C914.68,-498.67 926.23,-487.28 935.79,-477.86"/>
<polygon fill="midnightblue" stroke="midnightblue" points="938.1,-480.49 942.76,-470.98 933.18,-475.51 938.1,-480.49"/>
</g>
<!-- Node46 -->
<g id="node46" class="node">
<title>Node46</title>
<g id="a_node46"><a xlink:href="_envelope_8hpp.html" target="_top" xlink:title=" ">
<polygon fill="white" stroke="black" points="1021.12,-450.5 1021.12,-469.75 1096.38,-469.75 1096.38,-450.5 1021.12,-450.5"/>
<text xml:space="preserve" text-anchor="middle" x="1058.75" y="-456.25" font-family="Helvetica,sans-Serif" font-size="10.00">Envelope.hpp</text>
</a>
</g>
</g>
<!-- Node2&#45;&gt;Node46 -->
<g id="edge60" class="edge">
<title>Node2&#45;&gt;Node46</title>
<path fill="none" stroke="midnightblue" d="M924.7,-506.29C951.05,-497.41 991.42,-483.81 1020.97,-473.86"/>
<polygon fill="midnightblue" stroke="midnightblue" points="1021.92,-477.23 1030.28,-470.72 1019.69,-470.59 1021.92,-477.23"/>
</g>
<!-- Node4 -->
<g id="node4" class="node">
<title>Node4</title>
<g id="a_node4"><a xlink:href="rexx_8h.html" target="_top" xlink:title=" ">
<polygon fill="white" stroke="black" points="1260.25,-394.25 1260.25,-413.5 1303.25,-413.5 1303.25,-394.25 1260.25,-394.25"/>
<text xml:space="preserve" text-anchor="middle" x="1281.75" y="-400" font-family="Helvetica,sans-Serif" font-size="10.00">rexx.h</text>
</a>
</g>
</g>
<!-- Node3&#45;&gt;Node4 -->
<g id="edge3" class="edge">
<title>Node3&#45;&gt;Node4</title>
<path fill="none" stroke="midnightblue" d="M1215.8,-450.17C1227.57,-442.08 1245.16,-430 1259.21,-420.35"/>
<polygon fill="midnightblue" stroke="midnightblue" points="1261.18,-423.25 1267.44,-414.7 1257.21,-417.48 1261.18,-423.25"/>
</g>
<!-- Node9 -->
<g id="node9" class="node">
<title>Node9</title>
<g id="a_node9"><a xlink:href="oorexxerrors_8h.html" target="_top" xlink:title=" ">
<polygon fill="white" stroke="black" points="1163.62,-394.25 1163.62,-413.5 1241.88,-413.5 1241.88,-394.25 1163.62,-394.25"/>
<text xml:space="preserve" text-anchor="middle" x="1202.75" y="-400" font-family="Helvetica,sans-Serif" font-size="10.00">oorexxerrors.h</text>
</a>
</g>
</g>
<!-- Node3&#45;&gt;Node9 -->
<g id="edge8" class="edge">
<title>Node3&#45;&gt;Node9</title>
<path fill="none" stroke="midnightblue" d="M1202.75,-450.17C1202.75,-443.37 1202.75,-433.76 1202.75,-425.15"/>
<polygon fill="midnightblue" stroke="midnightblue" points="1206.25,-425.18 1202.75,-415.18 1199.25,-425.18 1206.25,-425.18"/>
</g>
<!-- Node5 -->
<g id="node5" class="node">
<title>Node5</title>
<g id="a_node5"><a xlink:title=" ">
<polygon fill="white" stroke="#bfbfbf" points="1257.88,-338 1257.88,-357.25 1337.62,-357.25 1337.62,-338 1257.88,-338"/>
<text xml:space="preserve" text-anchor="middle" x="1297.75" y="-343.75" font-family="Helvetica,sans-Serif" font-size="10.00">rexxapitypes.h</text>
</a>
</g>
</g>
<!-- Node4&#45;&gt;Node5 -->
<g id="edge4" class="edge">
<title>Node4&#45;&gt;Node5</title>
<path fill="none" stroke="midnightblue" d="M1284.39,-393.92C1286.44,-386.96 1289.36,-377.07 1291.95,-368.3"/>
<polygon fill="midnightblue" stroke="midnightblue" points="1295.26,-369.45 1294.73,-358.87 1288.54,-367.47 1295.26,-369.45"/>
</g>
<!-- Node6 -->
<g id="node6" class="node">
<title>Node6</title>
<g id="a_node6"><a xlink:href="rexxapidefs_8h.html" target="_top" xlink:title=" ">
<polygon fill="white" stroke="black" points="1355.5,-338 1355.5,-357.25 1430,-357.25 1430,-338 1355.5,-338"/>
<text xml:space="preserve" text-anchor="middle" x="1392.75" y="-343.75" font-family="Helvetica,sans-Serif" font-size="10.00">rexxapidefs.h</text>
</a>
</g>
</g>
<!-- Node4&#45;&gt;Node6 -->
<g id="edge5" class="edge">
<title>Node4&#45;&gt;Node6</title>
<path fill="none" stroke="midnightblue" d="M1300.33,-393.79C1317.7,-385.31 1343.89,-372.5 1363.97,-362.69"/>
<polygon fill="midnightblue" stroke="midnightblue" points="1365.3,-365.94 1372.75,-358.4 1362.23,-359.65 1365.3,-365.94"/>
</g>
<!-- Node7 -->
<g id="node7" class="node">
<title>Node7</title>
<g id="a_node7"><a xlink:title=" ">
<polygon fill="white" stroke="#bfbfbf" points="1028.25,-338 1028.25,-357.25 1125.25,-357.25 1125.25,-338 1028.25,-338"/>
<text xml:space="preserve" text-anchor="middle" x="1076.75" y="-343.75" font-family="Helvetica,sans-Serif" font-size="10.00">rexxplatformdefs.h</text>
</a>
</g>
</g>
<!-- Node4&#45;&gt;Node7 -->
<g id="edge6" class="edge">
<title>Node4&#45;&gt;Node7</title>
<path fill="none" stroke="midnightblue" d="M1259.76,-396.31C1256.74,-395.43 1253.67,-394.56 1250.75,-393.75 1208,-381.92 1159.09,-369.32 1124.04,-360.45"/>
<polygon fill="midnightblue" stroke="midnightblue" points="1125.19,-357.13 1114.63,-358.07 1123.47,-363.91 1125.19,-357.13"/>
</g>
<!-- Node8 -->
<g id="node8" class="node">
<title>Node8</title>
<g id="a_node8"><a xlink:title=" ">
<polygon fill="white" stroke="#bfbfbf" points="1143.62,-338 1143.62,-357.25 1239.88,-357.25 1239.88,-338 1143.62,-338"/>
<text xml:space="preserve" text-anchor="middle" x="1191.75" y="-343.75" font-family="Helvetica,sans-Serif" font-size="10.00">rexxplatformapis.h</text>
</a>
</g>
</g>
<!-- Node4&#45;&gt;Node8 -->
<g id="edge7" class="edge">
<title>Node4&#45;&gt;Node8</title>
<path fill="none" stroke="midnightblue" d="M1266.89,-393.92C1253.08,-385.59 1232.26,-373.04 1216.04,-363.27"/>
<polygon fill="midnightblue" stroke="midnightblue" points="1218.3,-360.54 1207.93,-358.38 1214.69,-366.54 1218.3,-360.54"/>
</g>
<!-- Node13 -->
<g id="node13" class="node">
<title>Node13</title>
<g id="a_node13"><a xlink:title=" ">
<polygon fill="white" stroke="#bfbfbf" points="39.75,-281.75 39.75,-301 73.75,-301 73.75,-281.75 39.75,-281.75"/>
<text xml:space="preserve" text-anchor="middle" x="56.75" y="-287.5" font-family="Helvetica,sans-Serif" font-size="10.00">new</text>
</a>
</g>
</g>
<!-- Node12&#45;&gt;Node13 -->
<g id="edge12" class="edge">
<title>Node12&#45;&gt;Node13</title>
<path fill="none" stroke="midnightblue" d="M94.32,-337.67C88.09,-330.16 79.02,-319.22 71.35,-309.98"/>
<polygon fill="midnightblue" stroke="midnightblue" points="74.09,-307.79 65.01,-302.33 68.7,-312.26 74.09,-307.79"/>
</g>
<!-- Node14 -->
<g id="node14" class="node">
<title>Node14</title>
<g id="a_node14"><a xlink:title=" ">
<polygon fill="white" stroke="#bfbfbf" points="480.62,-169.25 480.62,-188.5 528.88,-188.5 528.88,-169.25 480.62,-169.25"/>
<text xml:space="preserve" text-anchor="middle" x="504.75" y="-175" font-family="Helvetica,sans-Serif" font-size="10.00">string.h</text>
</a>
</g>
</g>
<!-- Node12&#45;&gt;Node14 -->
<g id="edge13" class="edge">
<title>Node12&#45;&gt;Node14</title>
<path fill="none" stroke="midnightblue" d="M102.02,-337.91C102.9,-324.24 106.46,-297.64 120.75,-281.25 161.04,-235.02 188.1,-242.92 246.75,-225 324.25,-201.32 418.88,-188.74 469.23,-183.28"/>
<polygon fill="midnightblue" stroke="midnightblue" points="469.37,-186.79 478.95,-182.26 468.64,-179.83 469.37,-186.79"/>
</g>
<!-- Node15 -->
<g id="node15" class="node">
<title>Node15</title>
<g id="a_node15"><a xlink:href="_numerics_8hpp.html" target="_top" xlink:title=" ">
<polygon fill="white" stroke="black" points="245.38,-281.75 245.38,-301 322.12,-301 322.12,-281.75 245.38,-281.75"/>
<text xml:space="preserve" text-anchor="middle" x="283.75" y="-287.5" font-family="Helvetica,sans-Serif" font-size="10.00">Numerics.hpp</text>
</a>
</g>
</g>
<!-- Node12&#45;&gt;Node15 -->
<g id="edge14" class="edge">
<title>Node12&#45;&gt;Node15</title>
<path fill="none" stroke="midnightblue" d="M132.21,-337.54C162.4,-328.55 208.84,-314.7 242.36,-304.71"/>
<polygon fill="midnightblue" stroke="midnightblue" points="243.15,-308.13 251.74,-301.92 241.15,-301.42 243.15,-308.13"/>
</g>
<!-- Node17 -->
<g id="node17" class="node">
<title>Node17</title>
<g id="a_node17"><a xlink:href="_rexx_error_codes_8h.html" target="_top" xlink:title=" ">
<polygon fill="white" stroke="black" points="130.25,-281.75 130.25,-301 227.25,-301 227.25,-281.75 130.25,-281.75"/>
<text xml:space="preserve" text-anchor="middle" x="178.75" y="-287.5" font-family="Helvetica,sans-Serif" font-size="10.00">RexxErrorCodes.h</text>
</a>
</g>
</g>
<!-- Node12&#45;&gt;Node17 -->
<g id="edge17" class="edge">
<title>Node12&#45;&gt;Node17</title>
<path fill="none" stroke="midnightblue" d="M114.46,-337.67C125.95,-329.58 143.09,-317.5 156.78,-307.85"/>
<polygon fill="midnightblue" stroke="midnightblue" points="158.62,-310.84 164.78,-302.22 154.59,-305.12 158.62,-310.84"/>
</g>
<!-- Node15&#45;&gt;Node2 -->
<g id="edge16" class="edge">
<title>Node15&#45;&gt;Node2</title>
<path fill="none" stroke="midnightblue" d="M255.33,-301.43C238.55,-308.41 218.7,-319.91 208.75,-337.5 175.29,-396.68 222.16,-443.7 284.75,-470.25 386.94,-513.6 727.87,-516.29 852.02,-515.78"/>
<polygon fill="midnightblue" stroke="midnightblue" points="851.85,-519.28 861.83,-515.73 851.82,-512.28 851.85,-519.28"/>
</g>
<!-- Node16 -->
<g id="node16" class="node">
<title>Node16</title>
<g id="a_node16"><a xlink:title=" ">
<polygon fill="white" stroke="#bfbfbf" points="255.88,-225.5 255.88,-244.75 311.62,-244.75 311.62,-225.5 255.88,-225.5"/>
<text xml:space="preserve" text-anchor="middle" x="283.75" y="-231.25" font-family="Helvetica,sans-Serif" font-size="10.00">algorithm</text>
</a>
</g>
</g>
<!-- Node15&#45;&gt;Node16 -->
<g id="edge15" class="edge">
<title>Node15&#45;&gt;Node16</title>
<path fill="none" stroke="midnightblue" d="M283.75,-281.42C283.75,-274.62 283.75,-265.01 283.75,-256.4"/>
<polygon fill="midnightblue" stroke="midnightblue" points="287.25,-256.43 283.75,-246.43 280.25,-256.43 287.25,-256.43"/>
</g>
<!-- Node19 -->
<g id="node19" class="node">
<title>Node19</title>
<g id="a_node19"><a xlink:href="_hash_collection_8hpp.html" target="_top" xlink:title=" ">
<polygon fill="white" stroke="black" points="729,-338 729,-357.25 830.5,-357.25 830.5,-338 729,-338"/>
<text xml:space="preserve" text-anchor="middle" x="779.75" y="-343.75" font-family="Helvetica,sans-Serif" font-size="10.00">HashCollection.hpp</text>
</a>
</g>
</g>
<!-- Node18&#45;&gt;Node19 -->
<g id="edge19" class="edge">
<title>Node18&#45;&gt;Node19</title>
<path fill="none" stroke="midnightblue" d="M846.14,-450.04C850.48,-436.8 856.37,-411.82 846.75,-393.75 839.58,-380.27 826.38,-370.09 813.59,-362.85"/>
<polygon fill="midnightblue" stroke="midnightblue" points="815.37,-359.83 804.88,-358.35 812.16,-366.05 815.37,-359.83"/>
</g>
<!-- Node20 -->
<g id="node20" class="node">
<title>Node20</title>
<g id="a_node20"><a xlink:href="_hash_contents_8hpp.html" target="_top" xlink:title=" ">
<polygon fill="white" stroke="black" points="697.88,-281.75 697.88,-301 795.62,-301 795.62,-281.75 697.88,-281.75"/>
<text xml:space="preserve" text-anchor="middle" x="746.75" y="-287.5" font-family="Helvetica,sans-Serif" font-size="10.00">HashContents.hpp</text>
</a>
</g>
</g>
<!-- Node19&#45;&gt;Node20 -->
<g id="edge20" class="edge">
<title>Node19&#45;&gt;Node20</title>
<path fill="none" stroke="midnightblue" d="M774.3,-337.67C769.88,-330.4 763.5,-319.91 757.99,-310.86"/>
<polygon fill="midnightblue" stroke="midnightblue" points="761.07,-309.18 752.88,-302.46 755.09,-312.82 761.07,-309.18"/>
</g>
<!-- Node21 -->
<g id="node21" class="node">
<title>Node21</title>
<g id="a_node21"><a xlink:href="_string_class_8hpp.html" target="_top" xlink:title=" ">
<polygon fill="white" stroke="black" points="665.88,-225.5 665.88,-244.75 751.62,-244.75 751.62,-225.5 665.88,-225.5"/>
<text xml:space="preserve" text-anchor="middle" x="708.75" y="-231.25" font-family="Helvetica,sans-Serif" font-size="10.00">StringClass.hpp</text>
</a>
</g>
</g>
<!-- Node20&#45;&gt;Node21 -->
<g id="edge21" class="edge">
<title>Node20&#45;&gt;Node21</title>
<path fill="none" stroke="midnightblue" d="M740.48,-281.42C735.33,-274.07 727.88,-263.43 721.49,-254.31"/>
<polygon fill="midnightblue" stroke="midnightblue" points="724.38,-252.34 715.78,-246.16 718.65,-256.35 724.38,-252.34"/>
</g>
<!-- Node21&#45;&gt;Node14 -->
<g id="edge32" class="edge">
<title>Node21&#45;&gt;Node14</title>
<path fill="none" stroke="midnightblue" d="M674.6,-225.04C637.39,-215.15 578.13,-199.39 540.36,-189.34"/>
<polygon fill="midnightblue" stroke="midnightblue" points="541.4,-186 530.83,-186.81 539.6,-192.76 541.4,-186"/>
</g>
<!-- Node22 -->
<g id="node22" class="node">
<title>Node22</title>
<g id="a_node22"><a xlink:href="_integer_class_8hpp.html" target="_top" xlink:title=" ">
<polygon fill="white" stroke="black" points="765.62,-169.25 765.62,-188.5 855.88,-188.5 855.88,-169.25 765.62,-169.25"/>
<text xml:space="preserve" text-anchor="middle" x="810.75" y="-175" font-family="Helvetica,sans-Serif" font-size="10.00">IntegerClass.hpp</text>
</a>
</g>
</g>
<!-- Node21&#45;&gt;Node22 -->
<g id="edge22" class="edge">
<title>Node21&#45;&gt;Node22</title>
<path fill="none" stroke="midnightblue" d="M725.59,-225.17C741.39,-216.76 765.28,-204.06 783.74,-194.24"/>
<polygon fill="midnightblue" stroke="midnightblue" points="785.36,-197.34 792.55,-189.56 782.07,-191.16 785.36,-197.34"/>
</g>
<!-- Node24 -->
<g id="node24" class="node">
<title>Node24</title>
<g id="a_node24"><a xlink:href="_flag_set_8hpp.html" target="_top" xlink:title=" ">
<polygon fill="white" stroke="black" points="796.5,-56.75 796.5,-76 865,-76 865,-56.75 796.5,-56.75"/>
<text xml:space="preserve" text-anchor="middle" x="830.75" y="-62.5" font-family="Helvetica,sans-Serif" font-size="10.00">FlagSet.hpp</text>
</a>
</g>
</g>
<!-- Node21&#45;&gt;Node24 -->
<g id="edge31" class="edge">
<title>Node21&#45;&gt;Node24</title>
<path fill="none" stroke="midnightblue" d="M712.6,-225.24C721.96,-204.25 747.46,-150.48 778.75,-112.5 787.62,-101.73 799.21,-91.41 809.2,-83.35"/>
<polygon fill="midnightblue" stroke="midnightblue" points="811.2,-86.23 816.94,-77.32 806.9,-80.7 811.2,-86.23"/>
</g>
<!-- Node26 -->
<g id="node26" class="node">
<title>Node26</title>
<g id="a_node26"><a xlink:href="_string_util_8hpp.html" target="_top" xlink:title=" ">
<polygon fill="white" stroke="black" points="634.12,-169.25 634.12,-188.5 709.38,-188.5 709.38,-169.25 634.12,-169.25"/>
<text xml:space="preserve" text-anchor="middle" x="671.75" y="-175" font-family="Helvetica,sans-Serif" font-size="10.00">StringUtil.hpp</text>
</a>
</g>
</g>
<!-- Node21&#45;&gt;Node26 -->
<g id="edge26" class="edge">
<title>Node21&#45;&gt;Node26</title>
<path fill="none" stroke="midnightblue" d="M702.64,-225.17C697.63,-217.82 690.37,-207.18 684.15,-198.06"/>
<polygon fill="midnightblue" stroke="midnightblue" points="687.13,-196.21 678.6,-189.92 681.34,-200.15 687.13,-196.21"/>
</g>
<!-- Node28 -->
<g id="node28" class="node">
<title>Node28</title>
<g id="a_node28"><a xlink:href="_utilities_8hpp.html" target="_top" xlink:title=" ">
<polygon fill="white" stroke="black" points="571.88,-113 571.88,-132.25 639.62,-132.25 639.62,-113 571.88,-113"/>
<text xml:space="preserve" text-anchor="middle" x="605.75" y="-118.75" font-family="Helvetica,sans-Serif" font-size="10.00">Utilities.hpp</text>
</a>
</g>
</g>
<!-- Node21&#45;&gt;Node28 -->
<g id="edge30" class="edge">
<title>Node21&#45;&gt;Node28</title>
<path fill="none" stroke="midnightblue" d="M679.61,-225.05C661.4,-217.97 638.81,-206.37 624.75,-189 614.39,-176.2 609.68,-157.96 607.54,-144"/>
<polygon fill="midnightblue" stroke="midnightblue" points="611.02,-143.69 606.38,-134.17 604.07,-144.51 611.02,-143.69"/>
</g>
<!-- Node22&#45;&gt;Node23 -->
<g id="edge23" class="edge">
<title>Node22&#45;&gt;Node23</title>
<path fill="none" stroke="midnightblue" d="M814.05,-168.92C816.64,-161.89 820.35,-151.84 823.61,-143"/>
<polygon fill="midnightblue" stroke="midnightblue" points="826.81,-144.43 826.99,-133.84 820.24,-142.01 826.81,-144.43"/>
</g>
<!-- Node23&#45;&gt;Node24 -->
<g id="edge24" class="edge">
<title>Node23&#45;&gt;Node24</title>
<path fill="none" stroke="midnightblue" d="M830.75,-112.67C830.75,-105.87 830.75,-96.26 830.75,-87.65"/>
<polygon fill="midnightblue" stroke="midnightblue" points="834.25,-87.68 830.75,-77.68 827.25,-87.68 834.25,-87.68"/>
</g>
<!-- Node25 -->
<g id="node25" class="node">
<title>Node25</title>
<g id="a_node25"><a xlink:href="_bit_set_8hpp.html" target="_top" xlink:title=" ">
<polygon fill="white" stroke="black" points="799.88,-0.5 799.88,-19.75 861.62,-19.75 861.62,-0.5 799.88,-0.5"/>
<text xml:space="preserve" text-anchor="middle" x="830.75" y="-6.25" font-family="Helvetica,sans-Serif" font-size="10.00">BitSet.hpp</text>
</a>
</g>
</g>
<!-- Node24&#45;&gt;Node25 -->
<g id="edge25" class="edge">
<title>Node24&#45;&gt;Node25</title>
<path fill="none" stroke="midnightblue" d="M830.75,-56.42C830.75,-49.62 830.75,-40.01 830.75,-31.4"/>
<polygon fill="midnightblue" stroke="midnightblue" points="834.25,-31.43 830.75,-21.43 827.25,-31.43 834.25,-31.43"/>
</g>
<!-- Node27 -->
<g id="node27" class="node">
<title>Node27</title>
<g id="a_node27"><a xlink:title=" ">
<polygon fill="white" stroke="#bfbfbf" points="657.62,-113 657.62,-132.25 705.88,-132.25 705.88,-113 657.62,-113"/>
<text xml:space="preserve" text-anchor="middle" x="681.75" y="-118.75" font-family="Helvetica,sans-Serif" font-size="10.00">ctype.h</text>
</a>
</g>
</g>
<!-- Node26&#45;&gt;Node27 -->
<g id="edge27" class="edge">
<title>Node26&#45;&gt;Node27</title>
<path fill="none" stroke="midnightblue" d="M673.4,-168.92C674.67,-162.04 676.47,-152.29 678.07,-143.6"/>
<polygon fill="midnightblue" stroke="midnightblue" points="681.48,-144.37 679.86,-133.91 674.6,-143.1 681.48,-144.37"/>
</g>
<!-- Node26&#45;&gt;Node28 -->
<g id="edge28" class="edge">
<title>Node26&#45;&gt;Node28</title>
<path fill="none" stroke="midnightblue" d="M660.85,-168.92C651.14,-160.94 636.72,-149.08 625.06,-139.5"/>
<polygon fill="midnightblue" stroke="midnightblue" points="627.56,-137.02 617.62,-133.38 623.12,-142.43 627.56,-137.02"/>
</g>
<!-- Node29 -->
<g id="node29" class="node">
<title>Node29</title>
<g id="a_node29"><a xlink:title=" ">
<polygon fill="white" stroke="#bfbfbf" points="572.25,-56.75 572.25,-76 639.25,-76 639.25,-56.75 572.25,-56.75"/>
<text xml:space="preserve" text-anchor="middle" x="605.75" y="-62.5" font-family="Helvetica,sans-Serif" font-size="10.00">sys/types.h</text>
</a>
</g>
</g>
<!-- Node28&#45;&gt;Node29 -->
<g id="edge29" class="edge">
<title>Node28&#45;&gt;Node29</title>
<path fill="none" stroke="midnightblue" d="M605.75,-112.67C605.75,-105.87 605.75,-96.26 605.75,-87.65"/>
<polygon fill="midnightblue" stroke="midnightblue" points="609.25,-87.68 605.75,-77.68 602.25,-87.68 609.25,-87.68"/>
</g>
<!-- Node31 -->
<g id="node31" class="node">
<title>Node31</title>
<g id="a_node31"><a xlink:href="_memory_8hpp.html" target="_top" xlink:title=" ">
<polygon fill="white" stroke="black" points="492.5,-338 492.5,-357.25 561,-357.25 561,-338 492.5,-338"/>
<text xml:space="preserve" text-anchor="middle" x="526.75" y="-343.75" font-family="Helvetica,sans-Serif" font-size="10.00">Memory.hpp</text>
</a>
</g>
</g>
<!-- Node30&#45;&gt;Node31 -->
<g id="edge34" class="edge">
<title>Node30&#45;&gt;Node31</title>
<path fill="none" stroke="midnightblue" d="M546.97,-450C539.43,-441.47 529.09,-427.98 524.75,-414 520.16,-399.21 521.03,-381.62 522.84,-368.41"/>
<polygon fill="midnightblue" stroke="midnightblue" points="526.25,-369.27 524.47,-358.82 519.35,-368.09 526.25,-369.27"/>
</g>
<!-- Node32 -->
<g id="node32" class="node">
<title>Node32</title>
<g id="a_node32"><a xlink:href="_memory_stack_8hpp.html" target="_top" xlink:title=" ">
<polygon fill="white" stroke="black" points="358,-225.5 358,-244.75 453.5,-244.75 453.5,-225.5 358,-225.5"/>
<text xml:space="preserve" text-anchor="middle" x="405.75" y="-231.25" font-family="Helvetica,sans-Serif" font-size="10.00">MemoryStack.hpp</text>
</a>
</g>
</g>
<!-- Node30&#45;&gt;Node32 -->
<g id="edge35" class="edge">
<title>Node30&#45;&gt;Node32</title>
<path fill="none" stroke="midnightblue" d="M509.45,-453.59C463.08,-446.98 396.41,-434.21 380.75,-414 344.61,-367.36 365.98,-338.37 380.75,-281.25 383.15,-271.95 387.93,-262.52 392.67,-254.71"/>
<polygon fill="midnightblue" stroke="midnightblue" points="395.51,-256.76 398.06,-246.48 389.65,-252.93 395.51,-256.76"/>
</g>
<!-- Node30&#45;&gt;Node33 -->
<g id="edge37" class="edge">
<title>Node30&#45;&gt;Node33</title>
<path fill="none" stroke="midnightblue" d="M601.91,-455.49C672.85,-449.32 804.84,-435.35 846.75,-414 889.45,-392.24 888.4,-370.92 922.75,-337.5 932.59,-327.93 943.75,-317.42 952.83,-308.95"/>
<polygon fill="midnightblue" stroke="midnightblue" points="955.04,-311.67 959.99,-302.3 950.28,-306.54 955.04,-311.67"/>
</g>
<!-- Node34 -->
<g id="node34" class="node">
<title>Node34</title>
<g id="a_node34"><a xlink:href="_identity_table_class_8hpp.html" target="_top" xlink:title=" ">
<polygon fill="white" stroke="black" points="721.88,-394.25 721.88,-413.5 837.62,-413.5 837.62,-394.25 721.88,-394.25"/>
<text xml:space="preserve" text-anchor="middle" x="779.75" y="-400" font-family="Helvetica,sans-Serif" font-size="10.00">IdentityTableClass.hpp</text>
</a>
</g>
</g>
<!-- Node30&#45;&gt;Node34 -->
<g id="edge38" class="edge">
<title>Node30&#45;&gt;Node34</title>
<path fill="none" stroke="midnightblue" d="M593.24,-450.04C631.04,-440.89 689.55,-426.72 730.95,-416.69"/>
<polygon fill="midnightblue" stroke="midnightblue" points="731.77,-420.1 740.66,-414.34 730.12,-413.29 731.77,-420.1"/>
</g>
<!-- Node35 -->
<g id="node35" class="node">
<title>Node35</title>
<g id="a_node35"><a xlink:href="_queue_class_8hpp.html" target="_top" xlink:title=" ">
<polygon fill="white" stroke="black" points="389.38,-394.25 389.38,-413.5 478.12,-413.5 478.12,-394.25 389.38,-394.25"/>
<text xml:space="preserve" text-anchor="middle" x="433.75" y="-400" font-family="Helvetica,sans-Serif" font-size="10.00">QueueClass.hpp</text>
</a>
</g>
</g>
<!-- Node30&#45;&gt;Node35 -->
<g id="edge40" class="edge">
<title>Node30&#45;&gt;Node35</title>
<path fill="none" stroke="midnightblue" d="M535.33,-450.04C515.98,-441.44 486.65,-428.4 464.47,-418.54"/>
<polygon fill="midnightblue" stroke="midnightblue" points="466.18,-415.46 455.62,-414.6 463.33,-421.86 466.18,-415.46"/>
</g>
<!-- Node38 -->
<g id="node38" class="node">
<title>Node38</title>
<g id="a_node38"><a xlink:title=" ">
<polygon fill="white" stroke="#bfbfbf" points="534.25,-394.25 534.25,-413.5 577.25,-413.5 577.25,-394.25 534.25,-394.25"/>
<text xml:space="preserve" text-anchor="middle" x="555.75" y="-400" font-family="Helvetica,sans-Serif" font-size="10.00">vector</text>
</a>
</g>
</g>
<!-- Node30&#45;&gt;Node38 -->
<g id="edge44" class="edge">
<title>Node30&#45;&gt;Node38</title>
<path fill="none" stroke="midnightblue" d="M555.75,-450.17C555.75,-443.37 555.75,-433.76 555.75,-425.15"/>
<polygon fill="midnightblue" stroke="midnightblue" points="559.25,-425.18 555.75,-415.18 552.25,-425.18 559.25,-425.18"/>
</g>
<!-- Node39 -->
<g id="node39" class="node">
<title>Node39</title>
<g id="a_node39"><a xlink:href="_memory_stats_8hpp.html" target="_top" xlink:title=" ">
<polygon fill="white" stroke="black" points="240.12,-394.25 240.12,-413.5 333.38,-413.5 333.38,-394.25 240.12,-394.25"/>
<text xml:space="preserve" text-anchor="middle" x="286.75" y="-400" font-family="Helvetica,sans-Serif" font-size="10.00">MemoryStats.hpp</text>
</a>
</g>
</g>
<!-- Node30&#45;&gt;Node39 -->
<g id="edge45" class="edge">
<title>Node30&#45;&gt;Node39</title>
<path fill="none" stroke="midnightblue" d="M510.73,-450.04C464.66,-440.75 392.96,-426.29 343.14,-416.25"/>
<polygon fill="midnightblue" stroke="midnightblue" points="343.9,-412.83 333.41,-414.28 342.52,-419.69 343.9,-412.83"/>
</g>
<!-- Node40 -->
<g id="node40" class="node">
<title>Node40</title>
<g id="a_node40"><a xlink:href="_memory_segment_8hpp.html" target="_top" xlink:title=" ">
<polygon fill="white" stroke="black" points="595.25,-394.25 595.25,-413.5 704.25,-413.5 704.25,-394.25 595.25,-394.25"/>
<text xml:space="preserve" text-anchor="middle" x="649.75" y="-400" font-family="Helvetica,sans-Serif" font-size="10.00">MemorySegment.hpp</text>
</a>
</g>
</g>
<!-- Node30&#45;&gt;Node40 -->
<g id="edge47" class="edge">
<title>Node30&#45;&gt;Node40</title>
<path fill="none" stroke="midnightblue" d="M571.27,-450.17C585.7,-441.84 607.44,-429.29 624.38,-419.52"/>
<polygon fill="midnightblue" stroke="midnightblue" points="625.98,-422.63 632.89,-414.6 622.48,-416.57 625.98,-422.63"/>
</g>
<!-- Node32&#45;&gt;Node14 -->
<g id="edge36" class="edge">
<title>Node32&#45;&gt;Node14</title>
<path fill="none" stroke="midnightblue" d="M422.1,-225.17C437.36,-216.8 460.4,-204.18 478.29,-194.38"/>
<polygon fill="midnightblue" stroke="midnightblue" points="479.96,-197.45 487.05,-189.57 476.6,-191.31 479.96,-197.45"/>
</g>
<!-- Node34&#45;&gt;Node19 -->
<g id="edge39" class="edge">
<title>Node34&#45;&gt;Node19</title>
<path fill="none" stroke="midnightblue" d="M779.75,-393.92C779.75,-387.12 779.75,-377.51 779.75,-368.9"/>
<polygon fill="midnightblue" stroke="midnightblue" points="783.25,-368.93 779.75,-358.93 776.25,-368.93 783.25,-368.93"/>
</g>
<!-- Node36 -->
<g id="node36" class="node">
<title>Node36</title>
<g id="a_node36"><a xlink:href="_array_class_8hpp.html" target="_top" xlink:title=" ">
<polygon fill="white" stroke="black" points="391,-338 391,-357.25 474.5,-357.25 474.5,-338 391,-338"/>
<text xml:space="preserve" text-anchor="middle" x="432.75" y="-343.75" font-family="Helvetica,sans-Serif" font-size="10.00">ArrayClass.hpp</text>
</a>
</g>
</g>
<!-- Node35&#45;&gt;Node36 -->
<g id="edge41" class="edge">
<title>Node35&#45;&gt;Node36</title>
<path fill="none" stroke="midnightblue" d="M433.58,-393.92C433.46,-387.12 433.28,-377.51 433.12,-368.9"/>
<polygon fill="midnightblue" stroke="midnightblue" points="436.62,-368.86 432.94,-358.93 429.62,-368.99 436.62,-368.86"/>
</g>
<!-- Node36&#45;&gt;Node15 -->
<g id="edge43" class="edge">
<title>Node36&#45;&gt;Node15</title>
<path fill="none" stroke="midnightblue" d="M407.81,-337.54C383.64,-328.74 346.72,-315.3 319.44,-305.37"/>
<polygon fill="midnightblue" stroke="midnightblue" points="320.79,-302.14 310.19,-302 318.39,-308.71 320.79,-302.14"/>
</g>
<!-- Node37 -->
<g id="node37" class="node">
<title>Node37</title>
<g id="a_node37"><a xlink:href="_number_array_8hpp.html" target="_top" xlink:title=" ">
<polygon fill="white" stroke="black" points="390.25,-281.75 390.25,-301 481.25,-301 481.25,-281.75 390.25,-281.75"/>
<text xml:space="preserve" text-anchor="middle" x="435.75" y="-287.5" font-family="Helvetica,sans-Serif" font-size="10.00">NumberArray.hpp</text>
</a>
</g>
</g>
<!-- Node36&#45;&gt;Node37 -->
<g id="edge42" class="edge">
<title>Node36&#45;&gt;Node37</title>
<path fill="none" stroke="midnightblue" d="M433.25,-337.67C433.62,-330.87 434.15,-321.26 434.63,-312.65"/>
<polygon fill="midnightblue" stroke="midnightblue" points="438.12,-312.86 435.18,-302.68 431.13,-312.47 438.12,-312.86"/>
</g>
<!-- Node39&#45;&gt;Node11 -->
<g id="edge46" class="edge">
<title>Node39&#45;&gt;Node11</title>
<path fill="none" stroke="midnightblue" d="M283.61,-393.92C281.15,-386.89 277.63,-376.84 274.53,-368"/>
<polygon fill="midnightblue" stroke="midnightblue" points="277.94,-367.13 271.33,-358.85 271.33,-369.44 277.94,-367.13"/>
</g>
<!-- Node40&#45;&gt;Node31 -->
<g id="edge54" class="edge">
<title>Node40&#45;&gt;Node31</title>
<path fill="none" stroke="midnightblue" d="M629.16,-393.79C609.65,-385.19 580.08,-372.15 557.73,-362.29"/>
<polygon fill="midnightblue" stroke="midnightblue" points="559.35,-359.18 548.79,-358.35 556.53,-365.58 559.35,-359.18"/>
</g>
<!-- Node41 -->
<g id="node41" class="node">
<title>Node41</title>
<g id="a_node41"><a xlink:href="_dead_object_8hpp.html" target="_top" xlink:title=" ">
<polygon fill="white" stroke="black" points="579.5,-338 579.5,-357.25 666,-357.25 666,-338 579.5,-338"/>
<text xml:space="preserve" text-anchor="middle" x="622.75" y="-343.75" font-family="Helvetica,sans-Serif" font-size="10.00">DeadObject.hpp</text>
</a>
</g>
</g>
<!-- Node40&#45;&gt;Node41 -->
<g id="edge48" class="edge">
<title>Node40&#45;&gt;Node41</title>
<path fill="none" stroke="midnightblue" d="M645.29,-393.92C641.75,-386.81 636.68,-376.62 632.24,-367.7"/>
<polygon fill="midnightblue" stroke="midnightblue" points="635.39,-366.16 627.8,-358.77 629.12,-369.28 635.39,-366.16"/>
</g>
<!-- Node42 -->
<g id="node42" class="node">
<title>Node42</title>
<g id="a_node42"><a xlink:title=" ">
<polygon fill="white" stroke="#bfbfbf" points="618.12,-281.75 618.12,-301 663.38,-301 663.38,-281.75 618.12,-281.75"/>
<text xml:space="preserve" text-anchor="middle" x="640.75" y="-287.5" font-family="Helvetica,sans-Serif" font-size="10.00">stdio.h</text>
</a>
</g>
</g>
<!-- Node40&#45;&gt;Node42 -->
<g id="edge55" class="edge">
<title>Node40&#45;&gt;Node42</title>
<path fill="none" stroke="midnightblue" d="M657.21,-394.08C666.85,-381.61 681.61,-358.01 674.75,-337.5 671.34,-327.32 664.63,-317.59 658.06,-309.79"/>
<polygon fill="midnightblue" stroke="midnightblue" points="660.7,-307.49 651.38,-302.45 655.53,-312.2 660.7,-307.49"/>
</g>
<!-- Node43 -->
<g id="node43" class="node">
<title>Node43</title>
<g id="a_node43"><a xlink:href="_interpreter_8hpp.html" target="_top" xlink:title=" ">
<polygon fill="white" stroke="black" points="931.62,-338 931.62,-357.25 1009.88,-357.25 1009.88,-338 931.62,-338"/>
<text xml:space="preserve" text-anchor="middle" x="970.75" y="-343.75" font-family="Helvetica,sans-Serif" font-size="10.00">Interpreter.hpp</text>
</a>
</g>
</g>
<!-- Node40&#45;&gt;Node43 -->
<g id="edge51" class="edge">
<title>Node40&#45;&gt;Node43</title>
<path fill="none" stroke="midnightblue" d="M703.48,-393.79C763.88,-383.59 861.21,-367.14 920.26,-357.16"/>
<polygon fill="midnightblue" stroke="midnightblue" points="920.76,-360.62 930.04,-355.5 919.6,-353.72 920.76,-360.62"/>
</g>
<!-- Node41&#45;&gt;Node14 -->
<g id="edge49" class="edge">
<title>Node41&#45;&gt;Node14</title>
<path fill="none" stroke="midnightblue" d="M616.41,-337.66C597.76,-311.31 542.85,-233.72 517.66,-198.11"/>
<polygon fill="midnightblue" stroke="midnightblue" points="520.63,-196.26 512,-190.12 514.92,-200.3 520.63,-196.26"/>
</g>
<!-- Node41&#45;&gt;Node42 -->
<g id="edge50" class="edge">
<title>Node41&#45;&gt;Node42</title>
<path fill="none" stroke="midnightblue" d="M625.72,-337.67C628.03,-330.71 631.31,-320.82 634.22,-312.05"/>
<polygon fill="midnightblue" stroke="midnightblue" points="637.53,-313.2 637.36,-302.6 630.89,-310.99 637.53,-313.2"/>
</g>
<!-- Node43&#45;&gt;Node2 -->
<g id="edge52" class="edge">
<title>Node43&#45;&gt;Node2</title>
<path fill="none" stroke="midnightblue" d="M1007.93,-357.68C1048.96,-368.05 1110.12,-384.76 1116.75,-393.75 1137.14,-421.39 1129.79,-445.71 1105.75,-470.25 1083.59,-492.87 997.84,-505.43 943.6,-511.26"/>
<polygon fill="midnightblue" stroke="midnightblue" points="943.3,-507.77 933.71,-512.28 944.02,-514.74 943.3,-507.77"/>
</g>
<!-- Node43&#45;&gt;Node33 -->
<g id="edge53" class="edge">
<title>Node43&#45;&gt;Node33</title>
<path fill="none" stroke="midnightblue" d="M970.75,-337.67C970.75,-330.87 970.75,-321.26 970.75,-312.65"/>
<polygon fill="midnightblue" stroke="midnightblue" points="974.25,-312.68 970.75,-302.68 967.25,-312.68 974.25,-312.68"/>
</g>
<!-- Node44&#45;&gt;Node24 -->
<g id="edge57" class="edge">
<title>Node44&#45;&gt;Node24</title>
<path fill="none" stroke="midnightblue" d="M949.87,-450.24C944.23,-432.68 931.52,-392.26 922.75,-357.75 916.45,-332.98 915.29,-326.66 910.75,-301.5 895.66,-217.93 923.58,-186.96 882.75,-112.5 876.3,-100.75 865.53,-90.63 855.45,-82.97"/>
<polygon fill="midnightblue" stroke="midnightblue" points="857.59,-80.2 847.4,-77.28 853.55,-85.91 857.59,-80.2"/>
</g>
<!-- Node45 -->
<g id="node45" class="node">
<title>Node45</title>
<g id="a_node45"><a xlink:href="_primitive_behaviour_names_8h.html" target="_top" xlink:title=" ">
<polygon fill="white" stroke="black" points="970,-394.25 970,-413.5 1107.5,-413.5 1107.5,-394.25 970,-394.25"/>
<text xml:space="preserve" text-anchor="middle" x="1038.75" y="-400" font-family="Helvetica,sans-Serif" font-size="10.00">PrimitiveBehaviourNames.h</text>
</a>
</g>
</g>
<!-- Node44&#45;&gt;Node45 -->
<g id="edge58" class="edge">
<title>Node44&#45;&gt;Node45</title>
<path fill="none" stroke="midnightblue" d="M966.95,-450.17C980.02,-441.92 999.66,-429.53 1015.1,-419.79"/>
<polygon fill="midnightblue" stroke="midnightblue" points="1016.66,-422.95 1023.25,-414.65 1012.92,-417.03 1016.66,-422.95"/>
</g>
<!-- Node47&#45;&gt;Node2 -->
<g id="edge62" class="edge">
<title>Node47&#45;&gt;Node2</title>
<path fill="none" stroke="midnightblue" d="M897.75,-562.67C897.75,-555.87 897.75,-546.26 897.75,-537.65"/>
<polygon fill="midnightblue" stroke="midnightblue" points="901.25,-537.68 897.75,-527.68 894.25,-537.68 901.25,-537.68"/>
</g>
</g>
</svg>
