<?xml version="1.0" encoding="UTF-8" standalone="no"?>
<!DOCTYPE svg PUBLIC "-//W3C//DTD SVG 1.1//EN"
 "http://www.w3.org/Graphics/SVG/1.1/DTD/svg11.dtd">
<!-- Generated by graphviz version 13.1.0 (20250701.0955)
 -->
<!-- Title: SysActivity.cpp Pages: 1 -->
<!--zoomable 478 -->
<svg id="main" version="1.1" xmlns="http://www.w3.org/2000/svg" xmlns:xlink="http://www.w3.org/1999/xlink" xml:space="preserve" onload="init(evt)">
<style type="text/css"><![CDATA[
.edge:hover path { stroke: red; }
.edge:hover polygon { stroke: red; fill: red; }
]]></style>
<script type="text/javascript"><![CDATA[
var edges = document.getElementsByTagName('g');
if (edges && edges.length) {
  for (var i=0;i<edges.length;i++) {
    if (edges[i].id.substr(0,4)=='edge') {
      edges[i].setAttribute('class','edge');
    }
  }
}
]]></script>
        <defs>
                <circle id="rim" cx="0" cy="0" r="7"/>
                <circle id="rim2" cx="0" cy="0" r="3.5"/>
                <g id="zoomPlus">
                        <use xlink:href="#rim" fill="#404040">
                                <set attributeName="fill" to="#808080" begin="zoomplus.mouseover" end="zoomplus.mouseout"/>
                        </use>
                        <path d="M-4,0h8M0,-4v8" fill="none" stroke="white" stroke-width="1.5" pointer-events="none"/>
                </g>
                <g id="zoomMin">
                        <use xlink:href="#rim" fill="#404040">
                                <set attributeName="fill" to="#808080" begin="zoomminus.mouseover" end="zoomminus.mouseout"/>
                        </use>
                        <path d="M-4,0h8" fill="none" stroke="white" stroke-width="1.5" pointer-events="none"/>
                </g>
                <g id="dirArrow">
                        <path fill="none" stroke="white" stroke-width="1.5" d="M0,-3.0v7 M-2.5,-0.5L0,-3.0L2.5,-0.5"/>
                </g>
               <g id="resetDef">
                       <use xlink:href="#rim2" fill="#404040">
                               <set attributeName="fill" to="#808080" begin="reset.mouseover" end="reset.mouseout"/>
                       </use>
               </g>
        </defs>

<script type="text/javascript">
var viewWidth = 1943;
var viewHeight = 478;
var sectionId = 'dynsection-0';
</script>
<script xlink:href="svgpan.js"/>
<svg id="graph" class="graph">
<g id="viewport">
<title>SysActivity.cpp</title>
<polygon fill="white" stroke="none" points="-4,4 -4,-474.25 1939,-474.25 1939,4 -4,4"/>
<!-- Node1 -->
<g id="node1" class="node">
<title>Node1</title>
<g id="a_node1"><a xlink:title=" ">
<polygon fill="#bfbfbf" stroke="black" points="1233.25,-450.5 1233.25,-469.75 1316.75,-469.75 1316.75,-450.5 1233.25,-450.5"/>
<text xml:space="preserve" text-anchor="middle" x="1275" y="-456.25" font-family="Helvetica,sans-Serif" font-size="10.00">SysActivity.cpp</text>
</a>
</g>
</g>
<!-- Node2 -->
<g id="node2" class="node">
<title>Node2</title>
<g id="a_node2"><a xlink:href="_rexx_core_8h.html" target="_top" xlink:title=" ">
<polygon fill="white" stroke="black" points="768.75,-169.25 768.75,-188.5 837.25,-188.5 837.25,-169.25 768.75,-169.25"/>
<text xml:space="preserve" text-anchor="middle" x="803" y="-175" font-family="Helvetica,sans-Serif" font-size="10.00">RexxCore.h</text>
</a>
</g>
</g>
<!-- Node1&#45;&gt;Node2 -->
<g id="edge1" class="edge">
<title>Node1&#45;&gt;Node2</title>
<path fill="none" stroke="midnightblue" d="M1232.95,-455.82C1096.83,-444.56 677,-405.24 677,-348.62 677,-348.62 677,-348.62 677,-290.38 677,-242.18 729.76,-210.09 766.99,-193.44"/>
<polygon fill="midnightblue" stroke="midnightblue" points="768.28,-196.7 776.11,-189.56 765.54,-190.26 768.28,-196.7"/>
</g>
<!-- Node47 -->
<g id="node30" class="node">
<title>Node47</title>
<g id="a_node30"><a xlink:href="windows_2_sys_activity_8hpp.html" target="_top" xlink:title=" ">
<polygon fill="white" stroke="black" points="291.25,-394.25 291.25,-413.5 374.75,-413.5 374.75,-394.25 291.25,-394.25"/>
<text xml:space="preserve" text-anchor="middle" x="333" y="-400" font-family="Helvetica,sans-Serif" font-size="10.00">SysActivity.hpp</text>
</a>
</g>
</g>
<!-- Node1&#45;&gt;Node47 -->
<g id="edge35" class="edge">
<title>Node1&#45;&gt;Node47</title>
<path fill="none" stroke="midnightblue" d="M1233,-456.71C1080.56,-447.93 556.47,-417.74 386.61,-407.96"/>
<polygon fill="midnightblue" stroke="midnightblue" points="386.93,-404.48 376.75,-407.39 386.53,-411.46 386.93,-404.48"/>
</g>
<!-- Node49 -->
<g id="node32" class="node">
<title>Node49</title>
<g id="a_node32"><a xlink:href="_activity_8hpp.html" target="_top" xlink:title=" ">
<polygon fill="white" stroke="black" points="1241.88,-338 1241.88,-357.25 1308.12,-357.25 1308.12,-338 1241.88,-338"/>
<text xml:space="preserve" text-anchor="middle" x="1275" y="-343.75" font-family="Helvetica,sans-Serif" font-size="10.00">Activity.hpp</text>
</a>
</g>
</g>
<!-- Node1&#45;&gt;Node49 -->
<g id="edge38" class="edge">
<title>Node1&#45;&gt;Node49</title>
<path fill="none" stroke="midnightblue" d="M1275,-450.08C1275,-432.43 1275,-393 1275,-368.83"/>
<polygon fill="midnightblue" stroke="midnightblue" points="1278.5,-369 1275,-359 1271.5,-369 1278.5,-369"/>
</g>
<!-- Node68 -->
<g id="node45" class="node">
<title>Node68</title>
<g id="a_node45"><a xlink:href="_activity_manager_8hpp.html" target="_top" xlink:title=" ">
<polygon fill="white" stroke="black" points="1549.75,-394.25 1549.75,-413.5 1654.25,-413.5 1654.25,-394.25 1549.75,-394.25"/>
<text xml:space="preserve" text-anchor="middle" x="1602" y="-400" font-family="Helvetica,sans-Serif" font-size="10.00">ActivityManager.hpp</text>
</a>
</g>
</g>
<!-- Node1&#45;&gt;Node68 -->
<g id="edge60" class="edge">
<title>Node1&#45;&gt;Node68</title>
<path fill="none" stroke="midnightblue" d="M1317.08,-452.14C1373.17,-442.84 1472.95,-426.29 1538.29,-415.44"/>
<polygon fill="midnightblue" stroke="midnightblue" points="1538.48,-418.96 1547.78,-413.87 1537.34,-412.05 1538.48,-418.96"/>
</g>
<!-- Node77 -->
<g id="node50" class="node">
<title>Node77</title>
<g id="a_node50"><a xlink:title=" ">
<polygon fill="white" stroke="#bfbfbf" points="1672,-394.25 1672,-413.5 1754,-413.5 1754,-394.25 1672,-394.25"/>
<text xml:space="preserve" text-anchor="middle" x="1713" y="-400" font-family="Helvetica,sans-Serif" font-size="10.00">SysThread.hpp</text>
</a>
</g>
</g>
<!-- Node1&#45;&gt;Node77 -->
<g id="edge68" class="edge">
<title>Node1&#45;&gt;Node77</title>
<path fill="none" stroke="midnightblue" d="M1317.03,-455.14C1386.41,-448.36 1529.47,-433.56 1660.54,-414.29"/>
<polygon fill="midnightblue" stroke="midnightblue" points="1660.69,-417.8 1670.07,-412.87 1659.66,-410.88 1660.69,-417.8"/>
</g>
<!-- Node3 -->
<g id="node3" class="node">
<title>Node3</title>
<g id="a_node3"><a xlink:href="oorexxapi_8h.html" target="_top" xlink:title=" ">
<polygon fill="white" stroke="black" points="33.88,-113 33.88,-132.25 100.12,-132.25 100.12,-113 33.88,-113"/>
<text xml:space="preserve" text-anchor="middle" x="67" y="-118.75" font-family="Helvetica,sans-Serif" font-size="10.00">oorexxapi.h</text>
</a>
</g>
</g>
<!-- Node2&#45;&gt;Node3 -->
<g id="edge2" class="edge">
<title>Node2&#45;&gt;Node3</title>
<path fill="none" stroke="midnightblue" d="M768.51,-177.45C668.41,-175.82 369.03,-168.25 111.46,-132.89"/>
<polygon fill="midnightblue" stroke="midnightblue" points="112.28,-129.47 101.89,-131.56 111.31,-136.4 112.28,-129.47"/>
</g>
<!-- Node10 -->
<g id="node6" class="node">
<title>Node10</title>
<g id="a_node6"><a xlink:title=" ">
<polygon fill="white" stroke="#bfbfbf" points="512.25,-113 512.25,-132.25 619.75,-132.25 619.75,-113 512.25,-113"/>
<text xml:space="preserve" text-anchor="middle" x="566" y="-118.75" font-family="Helvetica,sans-Serif" font-size="10.00">PlatformDefinitions.h</text>
</a>
</g>
</g>
<!-- Node2&#45;&gt;Node10 -->
<g id="edge5" class="edge">
<title>Node2&#45;&gt;Node10</title>
<path fill="none" stroke="midnightblue" d="M768.28,-169.93C728.34,-160.79 662.39,-145.69 616.71,-135.23"/>
<polygon fill="midnightblue" stroke="midnightblue" points="617.56,-131.84 607.03,-133.02 616,-138.66 617.56,-131.84"/>
</g>
<!-- Node11 -->
<g id="node7" class="node">
<title>Node11</title>
<g id="a_node7"><a xlink:href="_class_type_codes_8h.html" target="_top" xlink:title=" ">
<polygon fill="white" stroke="black" points="184.38,-0.5 184.38,-19.75 283.62,-19.75 283.62,-0.5 184.38,-0.5"/>
<text xml:space="preserve" text-anchor="middle" x="234" y="-6.25" font-family="Helvetica,sans-Serif" font-size="10.00">ClassTypeCodes.h</text>
</a>
</g>
</g>
<!-- Node2&#45;&gt;Node11 -->
<g id="edge6" class="edge">
<title>Node2&#45;&gt;Node11</title>
<path fill="none" stroke="midnightblue" d="M768.43,-177.53C653.27,-175.57 285.88,-162.56 215,-76.5 204,-63.14 211.8,-43.67 220.49,-29.45"/>
<polygon fill="midnightblue" stroke="midnightblue" points="223.2,-31.7 225.88,-21.45 217.4,-27.79 223.2,-31.7"/>
</g>
<!-- Node12 -->
<g id="node8" class="node">
<title>Node12</title>
<g id="a_node8"><a xlink:href="_object_class_8hpp.html" target="_top" xlink:title=" ">
<polygon fill="white" stroke="black" points="1409.62,-113 1409.62,-132.25 1498.38,-132.25 1498.38,-113 1409.62,-113"/>
<text xml:space="preserve" text-anchor="middle" x="1454" y="-118.75" font-family="Helvetica,sans-Serif" font-size="10.00">ObjectClass.hpp</text>
</a>
</g>
</g>
<!-- Node2&#45;&gt;Node12 -->
<g id="edge7" class="edge">
<title>Node2&#45;&gt;Node12</title>
<path fill="none" stroke="midnightblue" d="M837.54,-175C943.94,-166.13 1267.41,-139.17 1398.22,-128.27"/>
<polygon fill="midnightblue" stroke="midnightblue" points="1398.34,-131.78 1408.02,-127.46 1397.76,-124.8 1398.34,-131.78"/>
</g>
<!-- Node18 -->
<g id="node13" class="node">
<title>Node18</title>
<g id="a_node13"><a xlink:href="_table_class_8hpp.html" target="_top" xlink:title=" ">
<polygon fill="white" stroke="black" points="826.25,-113 826.25,-132.25 909.75,-132.25 909.75,-113 826.25,-113"/>
<text xml:space="preserve" text-anchor="middle" x="868" y="-118.75" font-family="Helvetica,sans-Serif" font-size="10.00">TableClass.hpp</text>
</a>
</g>
</g>
<!-- Node2&#45;&gt;Node18 -->
<g id="edge13" class="edge">
<title>Node2&#45;&gt;Node18</title>
<path fill="none" stroke="midnightblue" d="M813.73,-168.92C823.2,-161.02 837.22,-149.31 848.64,-139.78"/>
<polygon fill="midnightblue" stroke="midnightblue" points="850.87,-142.48 856.3,-133.39 846.38,-137.11 850.87,-142.48"/>
</g>
<!-- Node30 -->
<g id="node15" class="node">
<title>Node30</title>
<g id="a_node15"><a xlink:href="_rexx_memory_8hpp.html" target="_top" xlink:title=" ">
<polygon fill="white" stroke="black" points="638.12,-113 638.12,-132.25 729.88,-132.25 729.88,-113 638.12,-113"/>
<text xml:space="preserve" text-anchor="middle" x="684" y="-118.75" font-family="Helvetica,sans-Serif" font-size="10.00">RexxMemory.hpp</text>
</a>
</g>
</g>
<!-- Node2&#45;&gt;Node30 -->
<g id="edge15" class="edge">
<title>Node2&#45;&gt;Node30</title>
<path fill="none" stroke="midnightblue" d="M783.08,-168.79C764.29,-160.23 735.86,-147.27 714.26,-137.42"/>
<polygon fill="midnightblue" stroke="midnightblue" points="715.91,-134.33 705.36,-133.36 713.01,-140.7 715.91,-134.33"/>
</g>
<!-- Node44 -->
<g id="node25" class="node">
<title>Node44</title>
<g id="a_node25"><a xlink:href="_rexx_behaviour_8hpp.html" target="_top" xlink:title=" ">
<polygon fill="white" stroke="black" points="1056.62,-113 1056.62,-132.25 1157.38,-132.25 1157.38,-113 1056.62,-113"/>
<text xml:space="preserve" text-anchor="middle" x="1107" y="-118.75" font-family="Helvetica,sans-Serif" font-size="10.00">RexxBehaviour.hpp</text>
</a>
</g>
</g>
<!-- Node2&#45;&gt;Node44 -->
<g id="edge29" class="edge">
<title>Node2&#45;&gt;Node44</title>
<path fill="none" stroke="midnightblue" d="M837.58,-171.7C887.97,-162.71 982.4,-145.86 1045,-134.69"/>
<polygon fill="midnightblue" stroke="midnightblue" points="1045.58,-138.14 1054.81,-132.94 1044.36,-131.25 1045.58,-138.14"/>
</g>
<!-- Node23 -->
<g id="node28" class="node">
<title>Node23</title>
<g id="a_node28"><a xlink:href="_class_class_8hpp.html" target="_top" xlink:title=" ">
<polygon fill="white" stroke="black" points="1175.12,-113 1175.12,-132.25 1260.88,-132.25 1260.88,-113 1175.12,-113"/>
<text xml:space="preserve" text-anchor="middle" x="1218" y="-118.75" font-family="Helvetica,sans-Serif" font-size="10.00">ClassClass.hpp</text>
</a>
</g>
</g>
<!-- Node2&#45;&gt;Node23 -->
<g id="edge32" class="edge">
<title>Node2&#45;&gt;Node23</title>
<path fill="none" stroke="midnightblue" d="M837.61,-174.16C900.37,-167.29 1037.39,-151.71 1163.51,-133.06"/>
<polygon fill="midnightblue" stroke="midnightblue" points="1164.03,-136.52 1173.4,-131.58 1162.99,-129.6 1164.03,-136.52"/>
</g>
<!-- Node46 -->
<g id="node29" class="node">
<title>Node46</title>
<g id="a_node29"><a xlink:href="_envelope_8hpp.html" target="_top" xlink:title=" ">
<polygon fill="white" stroke="black" points="118.38,-113 118.38,-132.25 193.62,-132.25 193.62,-113 118.38,-113"/>
<text xml:space="preserve" text-anchor="middle" x="156" y="-118.75" font-family="Helvetica,sans-Serif" font-size="10.00">Envelope.hpp</text>
</a>
</g>
</g>
<!-- Node2&#45;&gt;Node46 -->
<g id="edge34" class="edge">
<title>Node2&#45;&gt;Node46</title>
<path fill="none" stroke="midnightblue" d="M768.34,-176.44C676.61,-172.37 420.01,-159.33 208,-132.75 207.01,-132.63 206,-132.49 204.99,-132.36"/>
<polygon fill="midnightblue" stroke="midnightblue" points="205.89,-128.95 195.49,-130.96 204.87,-135.88 205.89,-128.95"/>
</g>
<!-- Node4 -->
<g id="node4" class="node">
<title>Node4</title>
<g id="a_node4"><a xlink:href="rexx_8h.html" target="_top" xlink:title=" ">
<polygon fill="white" stroke="red" points="124.5,-56.75 124.5,-76 167.5,-76 167.5,-56.75 124.5,-56.75"/>
<text xml:space="preserve" text-anchor="middle" x="146" y="-62.5" font-family="Helvetica,sans-Serif" font-size="10.00">rexx.h</text>
</a>
</g>
</g>
<!-- Node3&#45;&gt;Node4 -->
<g id="edge3" class="edge">
<title>Node3&#45;&gt;Node4</title>
<path fill="none" stroke="midnightblue" d="M80.05,-112.67C91.82,-104.58 109.41,-92.5 123.46,-82.85"/>
<polygon fill="midnightblue" stroke="midnightblue" points="125.43,-85.75 131.69,-77.2 121.46,-79.98 125.43,-85.75"/>
</g>
<!-- Node9 -->
<g id="node5" class="node">
<title>Node9</title>
<g id="a_node5"><a xlink:href="oorexxerrors_8h.html" target="_top" xlink:title=" ">
<polygon fill="white" stroke="black" points="27.88,-56.75 27.88,-76 106.12,-76 106.12,-56.75 27.88,-56.75"/>
<text xml:space="preserve" text-anchor="middle" x="67" y="-62.5" font-family="Helvetica,sans-Serif" font-size="10.00">oorexxerrors.h</text>
</a>
</g>
</g>
<!-- Node3&#45;&gt;Node9 -->
<g id="edge4" class="edge">
<title>Node3&#45;&gt;Node9</title>
<path fill="none" stroke="midnightblue" d="M67,-112.67C67,-105.87 67,-96.26 67,-87.65"/>
<polygon fill="midnightblue" stroke="midnightblue" points="70.5,-87.68 67,-77.68 63.5,-87.68 70.5,-87.68"/>
</g>
<!-- Node13 -->
<g id="node9" class="node">
<title>Node13</title>
<g id="a_node9"><a xlink:title=" ">
<polygon fill="white" stroke="#bfbfbf" points="1487,-56.75 1487,-76 1521,-76 1521,-56.75 1487,-56.75"/>
<text xml:space="preserve" text-anchor="middle" x="1504" y="-62.5" font-family="Helvetica,sans-Serif" font-size="10.00">new</text>
</a>
</g>
</g>
<!-- Node12&#45;&gt;Node13 -->
<g id="edge8" class="edge">
<title>Node12&#45;&gt;Node13</title>
<path fill="none" stroke="midnightblue" d="M1462.26,-112.67C1469.32,-105 1479.68,-93.76 1488.31,-84.39"/>
<polygon fill="midnightblue" stroke="midnightblue" points="1490.67,-87 1494.87,-77.28 1485.52,-82.26 1490.67,-87"/>
</g>
<!-- Node14 -->
<g id="node10" class="node">
<title>Node14</title>
<g id="a_node10"><a xlink:title=" ">
<polygon fill="white" stroke="#bfbfbf" points="1434.88,-0.5 1434.88,-19.75 1483.12,-19.75 1483.12,-0.5 1434.88,-0.5"/>
<text xml:space="preserve" text-anchor="middle" x="1459" y="-6.25" font-family="Helvetica,sans-Serif" font-size="10.00">string.h</text>
</a>
</g>
</g>
<!-- Node12&#45;&gt;Node14 -->
<g id="edge9" class="edge">
<title>Node12&#45;&gt;Node14</title>
<path fill="none" stroke="midnightblue" d="M1454.41,-112.58C1455.21,-94.93 1456.99,-55.5 1458.09,-31.33"/>
<polygon fill="midnightblue" stroke="midnightblue" points="1461.58,-31.64 1458.53,-21.5 1454.58,-31.33 1461.58,-31.64"/>
</g>
<!-- Node15 -->
<g id="node11" class="node">
<title>Node15</title>
<g id="a_node11"><a xlink:href="_numerics_8hpp.html" target="_top" xlink:title=" ">
<polygon fill="white" stroke="red" points="1354.62,-56.75 1354.62,-76 1431.38,-76 1431.38,-56.75 1354.62,-56.75"/>
<text xml:space="preserve" text-anchor="middle" x="1393" y="-62.5" font-family="Helvetica,sans-Serif" font-size="10.00">Numerics.hpp</text>
</a>
</g>
</g>
<!-- Node12&#45;&gt;Node15 -->
<g id="edge10" class="edge">
<title>Node12&#45;&gt;Node15</title>
<path fill="none" stroke="midnightblue" d="M1443.93,-112.67C1435.13,-104.85 1422.15,-93.3 1411.49,-83.82"/>
<polygon fill="midnightblue" stroke="midnightblue" points="1413.81,-81.2 1404.02,-77.17 1409.16,-86.43 1413.81,-81.2"/>
</g>
<!-- Node17 -->
<g id="node12" class="node">
<title>Node17</title>
<g id="a_node12"><a xlink:href="_rexx_error_codes_8h.html" target="_top" xlink:title=" ">
<polygon fill="white" stroke="black" points="1628.5,-56.75 1628.5,-76 1725.5,-76 1725.5,-56.75 1628.5,-56.75"/>
<text xml:space="preserve" text-anchor="middle" x="1677" y="-62.5" font-family="Helvetica,sans-Serif" font-size="10.00">RexxErrorCodes.h</text>
</a>
</g>
</g>
<!-- Node12&#45;&gt;Node17 -->
<g id="edge12" class="edge">
<title>Node12&#45;&gt;Node17</title>
<path fill="none" stroke="midnightblue" d="M1491.33,-112.54C1528.95,-103.39 1587.2,-89.22 1628.41,-79.19"/>
<polygon fill="midnightblue" stroke="midnightblue" points="1629.19,-82.61 1638.08,-76.84 1627.54,-75.81 1629.19,-82.61"/>
</g>
<!-- Node15&#45;&gt;Node2 -->
<g id="edge11" class="edge">
<title>Node15&#45;&gt;Node2</title>
<path fill="none" stroke="midnightblue" d="M1380.1,-76.46C1358.49,-91.15 1313.07,-119.78 1270,-132.75 1191.97,-156.24 950.65,-170.58 848.95,-175.72"/>
<polygon fill="midnightblue" stroke="midnightblue" points="848.87,-172.22 839.05,-176.21 849.22,-179.21 848.87,-172.22"/>
</g>
<!-- Node19 -->
<g id="node14" class="node">
<title>Node19</title>
<g id="a_node14"><a xlink:href="_hash_collection_8hpp.html" target="_top" xlink:title=" ">
<polygon fill="white" stroke="red" points="882.25,-0.5 882.25,-19.75 983.75,-19.75 983.75,-0.5 882.25,-0.5"/>
<text xml:space="preserve" text-anchor="middle" x="933" y="-6.25" font-family="Helvetica,sans-Serif" font-size="10.00">HashCollection.hpp</text>
</a>
</g>
</g>
<!-- Node18&#45;&gt;Node19 -->
<g id="edge14" class="edge">
<title>Node18&#45;&gt;Node19</title>
<path fill="none" stroke="midnightblue" d="M880.29,-112.56C890.69,-104.27 905.27,-91.09 914,-76.5 922.36,-62.52 927.22,-44.65 929.94,-31.12"/>
<polygon fill="midnightblue" stroke="midnightblue" points="933.32,-32.11 931.6,-21.65 926.42,-30.9 933.32,-32.11"/>
</g>
<!-- Node31 -->
<g id="node16" class="node">
<title>Node31</title>
<g id="a_node16"><a xlink:href="_memory_8hpp.html" target="_top" xlink:title=" ">
<polygon fill="white" stroke="black" points="481.75,-0.5 481.75,-19.75 550.25,-19.75 550.25,-0.5 481.75,-0.5"/>
<text xml:space="preserve" text-anchor="middle" x="516" y="-6.25" font-family="Helvetica,sans-Serif" font-size="10.00">Memory.hpp</text>
</a>
</g>
</g>
<!-- Node30&#45;&gt;Node31 -->
<g id="edge16" class="edge">
<title>Node30&#45;&gt;Node31</title>
<path fill="none" stroke="midnightblue" d="M677.51,-112.93C666.97,-99.3 644.86,-72.74 621,-56.25 601.08,-42.48 576.28,-31.58 555.79,-23.95"/>
<polygon fill="midnightblue" stroke="midnightblue" points="557.23,-20.74 546.64,-20.66 554.87,-27.33 557.23,-20.74"/>
</g>
<!-- Node32 -->
<g id="node17" class="node">
<title>Node32</title>
<g id="a_node17"><a xlink:href="_memory_stack_8hpp.html" target="_top" xlink:title=" ">
<polygon fill="white" stroke="black" points="961.25,-56.75 961.25,-76 1056.75,-76 1056.75,-56.75 961.25,-56.75"/>
<text xml:space="preserve" text-anchor="middle" x="1009" y="-62.5" font-family="Helvetica,sans-Serif" font-size="10.00">MemoryStack.hpp</text>
</a>
</g>
</g>
<!-- Node30&#45;&gt;Node32 -->
<g id="edge17" class="edge">
<title>Node30&#45;&gt;Node32</title>
<path fill="none" stroke="midnightblue" d="M730.22,-113.91C787.92,-104.28 886.68,-87.79 949.85,-77.25"/>
<polygon fill="midnightblue" stroke="midnightblue" points="950.04,-80.77 959.33,-75.67 948.89,-73.86 950.04,-80.77"/>
</g>
<!-- Node33 -->
<g id="node18" class="node">
<title>Node33</title>
<g id="a_node18"><a xlink:title=" ">
<polygon fill="white" stroke="#bfbfbf" points="803.25,-56.75 803.25,-76 904.75,-76 904.75,-56.75 803.25,-56.75"/>
<text xml:space="preserve" text-anchor="middle" x="854" y="-62.5" font-family="Helvetica,sans-Serif" font-size="10.00">SysSemaphore.hpp</text>
</a>
</g>
</g>
<!-- Node30&#45;&gt;Node33 -->
<g id="edge19" class="edge">
<title>Node30&#45;&gt;Node33</title>
<path fill="none" stroke="midnightblue" d="M712.45,-112.54C740.4,-103.63 783.28,-89.94 814.52,-79.97"/>
<polygon fill="midnightblue" stroke="midnightblue" points="815.55,-83.32 824.01,-76.94 813.42,-76.65 815.55,-83.32"/>
</g>
<!-- Node34 -->
<g id="node19" class="node">
<title>Node34</title>
<g id="a_node19"><a xlink:href="_identity_table_class_8hpp.html" target="_top" xlink:title=" ">
<polygon fill="white" stroke="black" points="669.12,-56.75 669.12,-76 784.88,-76 784.88,-56.75 669.12,-56.75"/>
<text xml:space="preserve" text-anchor="middle" x="727" y="-62.5" font-family="Helvetica,sans-Serif" font-size="10.00">IdentityTableClass.hpp</text>
</a>
</g>
</g>
<!-- Node30&#45;&gt;Node34 -->
<g id="edge20" class="edge">
<title>Node30&#45;&gt;Node34</title>
<path fill="none" stroke="midnightblue" d="M691.1,-112.67C697.05,-105.16 705.72,-94.22 713.05,-84.98"/>
<polygon fill="midnightblue" stroke="midnightblue" points="715.62,-87.36 719.09,-77.35 710.14,-83.02 715.62,-87.36"/>
</g>
<!-- Node35 -->
<g id="node20" class="node">
<title>Node35</title>
<g id="a_node20"><a xlink:href="_queue_class_8hpp.html" target="_top" xlink:title=" ">
<polygon fill="white" stroke="red" points="462.62,-56.75 462.62,-76 551.38,-76 551.38,-56.75 462.62,-56.75"/>
<text xml:space="preserve" text-anchor="middle" x="507" y="-62.5" font-family="Helvetica,sans-Serif" font-size="10.00">QueueClass.hpp</text>
</a>
</g>
</g>
<!-- Node30&#45;&gt;Node35 -->
<g id="edge22" class="edge">
<title>Node30&#45;&gt;Node35</title>
<path fill="none" stroke="midnightblue" d="M654.37,-112.54C625.15,-103.59 580.24,-89.82 547.68,-79.84"/>
<polygon fill="midnightblue" stroke="midnightblue" points="548.76,-76.51 538.17,-76.93 546.7,-83.21 548.76,-76.51"/>
</g>
<!-- Node38 -->
<g id="node21" class="node">
<title>Node38</title>
<g id="a_node21"><a xlink:title=" ">
<polygon fill="white" stroke="#bfbfbf" points="569.5,-56.75 569.5,-76 612.5,-76 612.5,-56.75 569.5,-56.75"/>
<text xml:space="preserve" text-anchor="middle" x="591" y="-62.5" font-family="Helvetica,sans-Serif" font-size="10.00">vector</text>
</a>
</g>
</g>
<!-- Node30&#45;&gt;Node38 -->
<g id="edge23" class="edge">
<title>Node30&#45;&gt;Node38</title>
<path fill="none" stroke="midnightblue" d="M668.64,-112.67C654.37,-104.34 632.86,-91.79 616.1,-82.02"/>
<polygon fill="midnightblue" stroke="midnightblue" points="618.09,-79.12 607.69,-77.11 614.56,-85.17 618.09,-79.12"/>
</g>
<!-- Node39 -->
<g id="node22" class="node">
<title>Node39</title>
<g id="a_node22"><a xlink:href="_memory_stats_8hpp.html" target="_top" xlink:title=" ">
<polygon fill="white" stroke="black" points="224.38,-56.75 224.38,-76 317.62,-76 317.62,-56.75 224.38,-56.75"/>
<text xml:space="preserve" text-anchor="middle" x="271" y="-62.5" font-family="Helvetica,sans-Serif" font-size="10.00">MemoryStats.hpp</text>
</a>
</g>
</g>
<!-- Node30&#45;&gt;Node39 -->
<g id="edge24" class="edge">
<title>Node30&#45;&gt;Node39</title>
<path fill="none" stroke="midnightblue" d="M637.81,-113.8C634.83,-113.35 631.87,-112.91 629,-112.5 498.28,-93.9 462.15,-95.5 329.11,-76.89"/>
<polygon fill="midnightblue" stroke="midnightblue" points="329.97,-73.48 319.58,-75.54 328.99,-80.41 329.97,-73.48"/>
</g>
<!-- Node40 -->
<g id="node23" class="node">
<title>Node40</title>
<g id="a_node23"><a xlink:href="_memory_segment_8hpp.html" target="_top" xlink:title=" ">
<polygon fill="white" stroke="red" points="335.5,-56.75 335.5,-76 444.5,-76 444.5,-56.75 335.5,-56.75"/>
<text xml:space="preserve" text-anchor="middle" x="390" y="-62.5" font-family="Helvetica,sans-Serif" font-size="10.00">MemorySegment.hpp</text>
</a>
</g>
</g>
<!-- Node30&#45;&gt;Node40 -->
<g id="edge26" class="edge">
<title>Node30&#45;&gt;Node40</title>
<path fill="none" stroke="midnightblue" d="M637.74,-113.09C587.21,-103.76 506.08,-88.79 450.53,-78.54"/>
<polygon fill="midnightblue" stroke="midnightblue" points="451.38,-75.14 440.91,-76.77 450.11,-82.03 451.38,-75.14"/>
</g>
<!-- Node32&#45;&gt;Node14 -->
<g id="edge18" class="edge">
<title>Node32&#45;&gt;Node14</title>
<path fill="none" stroke="midnightblue" d="M1057.18,-57.51C1060.16,-57.07 1063.12,-56.65 1066,-56.25 1197.53,-38.18 1354.52,-21.67 1423.51,-14.67"/>
<polygon fill="midnightblue" stroke="midnightblue" points="1423.47,-18.19 1433.07,-13.7 1422.77,-11.22 1423.47,-18.19"/>
</g>
<!-- Node34&#45;&gt;Node19 -->
<g id="edge21" class="edge">
<title>Node34&#45;&gt;Node19</title>
<path fill="none" stroke="midnightblue" d="M761.48,-56.29C796.09,-47.18 849.59,-33.09 887.63,-23.07"/>
<polygon fill="midnightblue" stroke="midnightblue" points="888.17,-26.55 896.94,-20.62 886.38,-19.78 888.17,-26.55"/>
</g>
<!-- Node39&#45;&gt;Node11 -->
<g id="edge25" class="edge">
<title>Node39&#45;&gt;Node11</title>
<path fill="none" stroke="midnightblue" d="M264.89,-56.42C259.88,-49.07 252.62,-38.43 246.4,-29.31"/>
<polygon fill="midnightblue" stroke="midnightblue" points="249.38,-27.46 240.85,-21.17 243.59,-31.4 249.38,-27.46"/>
</g>
<!-- Node40&#45;&gt;Node31 -->
<g id="edge27" class="edge">
<title>Node40&#45;&gt;Node31</title>
<path fill="none" stroke="midnightblue" d="M411.09,-56.29C431.08,-47.69 461.37,-34.65 484.27,-24.79"/>
<polygon fill="midnightblue" stroke="midnightblue" points="485.65,-28 493.45,-20.83 482.88,-21.57 485.65,-28"/>
</g>
<!-- Node42 -->
<g id="node24" class="node">
<title>Node42</title>
<g id="a_node24"><a xlink:title=" ">
<polygon fill="white" stroke="#bfbfbf" points="31.38,-0.5 31.38,-19.75 76.62,-19.75 76.62,-0.5 31.38,-0.5"/>
<text xml:space="preserve" text-anchor="middle" x="54" y="-6.25" font-family="Helvetica,sans-Serif" font-size="10.00">stdio.h</text>
</a>
</g>
</g>
<!-- Node40&#45;&gt;Node42 -->
<g id="edge28" class="edge">
<title>Node40&#45;&gt;Node42</title>
<path fill="none" stroke="midnightblue" d="M335.27,-56.54C265.33,-45.25 146.38,-26.04 88.15,-16.64"/>
<polygon fill="midnightblue" stroke="midnightblue" points="88.94,-13.22 78.51,-15.08 87.83,-20.13 88.94,-13.22"/>
</g>
<!-- Node24 -->
<g id="node26" class="node">
<title>Node24</title>
<g id="a_node26"><a xlink:href="_flag_set_8hpp.html" target="_top" xlink:title=" ">
<polygon fill="white" stroke="red" points="1230.75,-56.75 1230.75,-76 1299.25,-76 1299.25,-56.75 1230.75,-56.75"/>
<text xml:space="preserve" text-anchor="middle" x="1265" y="-62.5" font-family="Helvetica,sans-Serif" font-size="10.00">FlagSet.hpp</text>
</a>
</g>
</g>
<!-- Node44&#45;&gt;Node24 -->
<g id="edge30" class="edge">
<title>Node44&#45;&gt;Node24</title>
<path fill="none" stroke="midnightblue" d="M1133.45,-112.54C1159.31,-103.66 1198.92,-90.06 1227.92,-80.11"/>
<polygon fill="midnightblue" stroke="midnightblue" points="1228.72,-83.53 1237.04,-76.98 1226.44,-76.91 1228.72,-83.53"/>
</g>
<!-- Node45 -->
<g id="node27" class="node">
<title>Node45</title>
<g id="a_node27"><a xlink:href="_primitive_behaviour_names_8h.html" target="_top" xlink:title=" ">
<polygon fill="white" stroke="black" points="1075.25,-56.75 1075.25,-76 1212.75,-76 1212.75,-56.75 1075.25,-56.75"/>
<text xml:space="preserve" text-anchor="middle" x="1144" y="-62.5" font-family="Helvetica,sans-Serif" font-size="10.00">PrimitiveBehaviourNames.h</text>
</a>
</g>
</g>
<!-- Node44&#45;&gt;Node45 -->
<g id="edge31" class="edge">
<title>Node44&#45;&gt;Node45</title>
<path fill="none" stroke="midnightblue" d="M1113.11,-112.67C1118.12,-105.32 1125.38,-94.68 1131.6,-85.56"/>
<polygon fill="midnightblue" stroke="midnightblue" points="1134.41,-87.65 1137.15,-77.42 1128.62,-83.71 1134.41,-87.65"/>
</g>
<!-- Node23&#45;&gt;Node24 -->
<g id="edge33" class="edge">
<title>Node23&#45;&gt;Node24</title>
<path fill="none" stroke="midnightblue" d="M1225.76,-112.67C1232.33,-105.08 1241.94,-93.99 1250,-84.68"/>
<polygon fill="midnightblue" stroke="midnightblue" points="1252.49,-87.16 1256.39,-77.31 1247.2,-82.58 1252.49,-87.16"/>
</g>
<!-- Node47&#45;&gt;Node42 -->
<g id="edge37" class="edge">
<title>Node47&#45;&gt;Node42</title>
<path fill="none" stroke="midnightblue" d="M290.83,-397.89C201.22,-386.14 0,-352.98 0,-292.38 0,-292.38 0,-292.38 0,-121.62 0,-91.37 5.26,-83.21 19,-56.25 23.99,-46.45 31.23,-36.68 37.83,-28.74"/>
<polygon fill="midnightblue" stroke="midnightblue" points="40.44,-31.07 44.37,-21.23 35.16,-26.47 40.44,-31.07"/>
</g>
<!-- Node48 -->
<g id="node31" class="node">
<title>Node48</title>
<g id="a_node31"><a xlink:title=" ">
<polygon fill="white" stroke="#bfbfbf" points="301.75,-338 301.75,-357.25 364.25,-357.25 364.25,-338 301.75,-338"/>
<text xml:space="preserve" text-anchor="middle" x="333" y="-343.75" font-family="Helvetica,sans-Serif" font-size="10.00">windows.h</text>
</a>
</g>
</g>
<!-- Node47&#45;&gt;Node48 -->
<g id="edge36" class="edge">
<title>Node47&#45;&gt;Node48</title>
<path fill="none" stroke="midnightblue" d="M333,-393.92C333,-387.12 333,-377.51 333,-368.9"/>
<polygon fill="midnightblue" stroke="midnightblue" points="336.5,-368.93 333,-358.93 329.5,-368.93 336.5,-368.93"/>
</g>
<!-- Node49&#45;&gt;Node17 -->
<g id="edge59" class="edge">
<title>Node49&#45;&gt;Node17</title>
<path fill="none" stroke="midnightblue" d="M1308.5,-344.78C1396.9,-339.61 1631.53,-323.92 1658,-301.5 1681.09,-281.95 1677,-266.38 1677,-236.12 1677,-236.12 1677,-236.12 1677,-177.88 1677,-146.28 1677,-109.61 1677,-87.47"/>
<polygon fill="midnightblue" stroke="midnightblue" points="1680.5,-87.77 1677,-77.77 1673.5,-87.77 1680.5,-87.77"/>
</g>
<!-- Node50 -->
<g id="node33" class="node">
<title>Node50</title>
<g id="a_node33"><a xlink:href="_list_class_8hpp.html" target="_top" xlink:title=" ">
<polygon fill="white" stroke="black" points="1303,-281.75 1303,-301 1379,-301 1379,-281.75 1303,-281.75"/>
<text xml:space="preserve" text-anchor="middle" x="1341" y="-287.5" font-family="Helvetica,sans-Serif" font-size="10.00">ListClass.hpp</text>
</a>
</g>
</g>
<!-- Node49&#45;&gt;Node50 -->
<g id="edge39" class="edge">
<title>Node49&#45;&gt;Node50</title>
<path fill="none" stroke="midnightblue" d="M1285.9,-337.67C1295.61,-329.69 1310.03,-317.83 1321.69,-308.25"/>
<polygon fill="midnightblue" stroke="midnightblue" points="1323.63,-311.18 1329.13,-302.13 1319.19,-305.77 1323.63,-311.18"/>
</g>
<!-- Node52 -->
<g id="node35" class="node">
<title>Node52</title>
<g id="a_node35"><a xlink:href="_internal_stack_8hpp.html" target="_top" xlink:title=" ">
<polygon fill="white" stroke="black" points="1434.75,-281.75 1434.75,-301 1527.25,-301 1527.25,-281.75 1434.75,-281.75"/>
<text xml:space="preserve" text-anchor="middle" x="1481" y="-287.5" font-family="Helvetica,sans-Serif" font-size="10.00">InternalStack.hpp</text>
</a>
</g>
</g>
<!-- Node49&#45;&gt;Node52 -->
<g id="edge42" class="edge">
<title>Node49&#45;&gt;Node52</title>
<path fill="none" stroke="midnightblue" d="M1308.56,-337.79C1343.11,-328.69 1397.18,-314.45 1435.56,-304.34"/>
<polygon fill="midnightblue" stroke="midnightblue" points="1436.18,-307.8 1444.96,-301.87 1434.4,-301.03 1436.18,-307.8"/>
</g>
<!-- Node53 -->
<g id="node36" class="node">
<title>Node53</title>
<g id="a_node36"><a xlink:href="_activation_stack_8hpp.html" target="_top" xlink:title=" ">
<polygon fill="white" stroke="black" points="1545.12,-281.75 1545.12,-301 1648.88,-301 1648.88,-281.75 1545.12,-281.75"/>
<text xml:space="preserve" text-anchor="middle" x="1597" y="-287.5" font-family="Helvetica,sans-Serif" font-size="10.00">ActivationStack.hpp</text>
</a>
</g>
</g>
<!-- Node49&#45;&gt;Node53 -->
<g id="edge43" class="edge">
<title>Node49&#45;&gt;Node53</title>
<path fill="none" stroke="midnightblue" d="M1308.55,-340.97C1361.61,-332.03 1465.81,-314.48 1533.37,-303.09"/>
<polygon fill="midnightblue" stroke="midnightblue" points="1533.94,-306.55 1543.22,-301.44 1532.78,-299.65 1533.94,-306.55"/>
</g>
<!-- Node54 -->
<g id="node37" class="node">
<title>Node54</title>
<g id="a_node37"><a xlink:href="_expression_stack_8hpp.html" target="_top" xlink:title=" ">
<polygon fill="white" stroke="red" points="743.5,-281.75 743.5,-301 852.5,-301 852.5,-281.75 743.5,-281.75"/>
<text xml:space="preserve" text-anchor="middle" x="798" y="-287.5" font-family="Helvetica,sans-Serif" font-size="10.00">ExpressionStack.hpp</text>
</a>
</g>
</g>
<!-- Node49&#45;&gt;Node54 -->
<g id="edge44" class="edge">
<title>Node49&#45;&gt;Node54</title>
<path fill="none" stroke="midnightblue" d="M1241.5,-343.34C1172.84,-336.53 1010.96,-320.06 863.81,-301.69"/>
<polygon fill="midnightblue" stroke="midnightblue" points="864.66,-298.27 854.3,-300.5 863.79,-305.21 864.66,-298.27"/>
</g>
<!-- Node55 -->
<g id="node38" class="node">
<title>Node55</title>
<g id="a_node38"><a xlink:href="_rexx_local_variables_8hpp.html" target="_top" xlink:title=" ">
<polygon fill="white" stroke="red" points="1475.5,-169.25 1475.5,-188.5 1596.5,-188.5 1596.5,-169.25 1475.5,-169.25"/>
<text xml:space="preserve" text-anchor="middle" x="1536" y="-175" font-family="Helvetica,sans-Serif" font-size="10.00">RexxLocalVariables.hpp</text>
</a>
</g>
</g>
<!-- Node49&#45;&gt;Node55 -->
<g id="edge45" class="edge">
<title>Node49&#45;&gt;Node55</title>
<path fill="none" stroke="midnightblue" d="M1304.47,-337.64C1327.98,-329.84 1361.27,-317.3 1388,-301.5 1439.99,-270.77 1492.69,-222.44 1518.93,-196.94"/>
<polygon fill="midnightblue" stroke="midnightblue" points="1521.31,-199.51 1525.99,-190 1516.41,-194.52 1521.31,-199.51"/>
</g>
<!-- Node59 -->
<g id="node39" class="node">
<title>Node59</title>
<g id="a_node39"><a xlink:href="_source_location_8hpp.html" target="_top" xlink:title=" ">
<polygon fill="white" stroke="black" points="1004.88,-281.75 1004.88,-301 1107.12,-301 1107.12,-281.75 1004.88,-281.75"/>
<text xml:space="preserve" text-anchor="middle" x="1056" y="-287.5" font-family="Helvetica,sans-Serif" font-size="10.00">SourceLocation.hpp</text>
</a>
</g>
</g>
<!-- Node49&#45;&gt;Node59 -->
<g id="edge48" class="edge">
<title>Node49&#45;&gt;Node59</title>
<path fill="none" stroke="midnightblue" d="M1241.74,-338.39C1204.91,-329.26 1145.24,-314.48 1103.5,-304.14"/>
<polygon fill="midnightblue" stroke="midnightblue" points="1104.52,-300.79 1093.97,-301.78 1102.84,-307.58 1104.52,-300.79"/>
</g>
<!-- Node60 -->
<g id="node40" class="node">
<title>Node60</title>
<g id="a_node40"><a xlink:href="_exit_handler_8hpp.html" target="_top" xlink:title=" ">
<polygon fill="white" stroke="red" points="760.5,-225.5 760.5,-244.75 845.5,-244.75 845.5,-225.5 760.5,-225.5"/>
<text xml:space="preserve" text-anchor="middle" x="803" y="-231.25" font-family="Helvetica,sans-Serif" font-size="10.00">ExitHandler.hpp</text>
</a>
</g>
</g>
<!-- Node49&#45;&gt;Node60 -->
<g id="edge49" class="edge">
<title>Node49&#45;&gt;Node60</title>
<path fill="none" stroke="midnightblue" d="M1241.64,-346.4C1129.08,-345.31 768.42,-338.91 734,-301.5 716.81,-282.82 745.19,-262.99 770.58,-250.13"/>
<polygon fill="midnightblue" stroke="midnightblue" points="771.91,-253.37 779.41,-245.89 768.88,-247.06 771.91,-253.37"/>
</g>
<!-- Node62 -->
<g id="node41" class="node">
<title>Node62</title>
<g id="a_node41"><a xlink:href="_activation_api_contexts_8hpp.html" target="_top" xlink:title=" ">
<polygon fill="white" stroke="black" points="985.88,-225.5 985.88,-244.75 1118.12,-244.75 1118.12,-225.5 985.88,-225.5"/>
<text xml:space="preserve" text-anchor="middle" x="1052" y="-231.25" font-family="Helvetica,sans-Serif" font-size="10.00">ActivationApiContexts.hpp</text>
</a>
</g>
</g>
<!-- Node49&#45;&gt;Node62 -->
<g id="edge51" class="edge">
<title>Node49&#45;&gt;Node62</title>
<path fill="none" stroke="midnightblue" d="M1245.42,-337.55C1220.45,-329.44 1184.08,-316.53 1154,-301.5 1124.71,-286.86 1093.32,-265.85 1073.21,-251.63"/>
<polygon fill="midnightblue" stroke="midnightblue" points="1075.46,-248.93 1065.29,-245.95 1071.38,-254.62 1075.46,-248.93"/>
</g>
<!-- Node63 -->
<g id="node42" class="node">
<title>Node63</title>
<g id="a_node42"><a xlink:title=" ">
<polygon fill="white" stroke="#bfbfbf" points="1163.25,-281.75 1163.25,-301 1246.75,-301 1246.75,-281.75 1163.25,-281.75"/>
<text xml:space="preserve" text-anchor="middle" x="1205" y="-287.5" font-family="Helvetica,sans-Serif" font-size="10.00">SysActivity.hpp</text>
</a>
</g>
</g>
<!-- Node49&#45;&gt;Node63 -->
<g id="edge52" class="edge">
<title>Node49&#45;&gt;Node63</title>
<path fill="none" stroke="midnightblue" d="M1263.44,-337.67C1253.04,-329.61 1237.54,-317.59 1225.11,-307.96"/>
<polygon fill="midnightblue" stroke="midnightblue" points="1227.59,-305.45 1217.54,-302.09 1223.3,-310.99 1227.59,-305.45"/>
</g>
<!-- Node64 -->
<g id="node43" class="node">
<title>Node64</title>
<g id="a_node43"><a xlink:href="_string_table_class_8hpp.html" target="_top" xlink:title=" ">
<polygon fill="white" stroke="black" points="1233.5,-169.25 1233.5,-188.5 1342.5,-188.5 1342.5,-169.25 1233.5,-169.25"/>
<text xml:space="preserve" text-anchor="middle" x="1288" y="-175" font-family="Helvetica,sans-Serif" font-size="10.00">StringTableClass.hpp</text>
</a>
</g>
</g>
<!-- Node49&#45;&gt;Node64 -->
<g id="edge53" class="edge">
<title>Node49&#45;&gt;Node64</title>
<path fill="none" stroke="midnightblue" d="M1275.7,-337.66C1277.72,-311.76 1283.6,-236.37 1286.43,-199.98"/>
<polygon fill="midnightblue" stroke="midnightblue" points="1289.89,-200.64 1287.18,-190.39 1282.91,-200.09 1289.89,-200.64"/>
</g>
<!-- Node65 -->
<g id="node44" class="node">
<title>Node65</title>
<g id="a_node44"><a xlink:href="_interpreter_instance_8hpp.html" target="_top" xlink:title=" ">
<polygon fill="white" stroke="red" points="870.75,-281.75 870.75,-301 987.25,-301 987.25,-281.75 870.75,-281.75"/>
<text xml:space="preserve" text-anchor="middle" x="929" y="-287.5" font-family="Helvetica,sans-Serif" font-size="10.00">InterpreterInstance.hpp</text>
</a>
</g>
</g>
<!-- Node49&#45;&gt;Node65 -->
<g id="edge55" class="edge">
<title>Node49&#45;&gt;Node65</title>
<path fill="none" stroke="midnightblue" d="M1241.51,-341.37C1185.53,-332.6 1071.86,-314.77 998.14,-303.22"/>
<polygon fill="midnightblue" stroke="midnightblue" points="999.03,-299.81 988.61,-301.72 997.95,-306.73 999.03,-299.81"/>
</g>
<!-- Node51 -->
<g id="node34" class="node">
<title>Node51</title>
<g id="a_node34"><a xlink:href="_list_contents_8hpp.html" target="_top" xlink:title=" ">
<polygon fill="white" stroke="black" points="1302.88,-225.5 1302.88,-244.75 1393.12,-244.75 1393.12,-225.5 1302.88,-225.5"/>
<text xml:space="preserve" text-anchor="middle" x="1348" y="-231.25" font-family="Helvetica,sans-Serif" font-size="10.00">ListContents.hpp</text>
</a>
</g>
</g>
<!-- Node50&#45;&gt;Node51 -->
<g id="edge40" class="edge">
<title>Node50&#45;&gt;Node51</title>
<path fill="none" stroke="midnightblue" d="M1342.16,-281.42C1343.04,-274.54 1344.3,-264.79 1345.42,-256.1"/>
<polygon fill="midnightblue" stroke="midnightblue" points="1348.86,-256.78 1346.67,-246.42 1341.92,-255.89 1348.86,-256.78"/>
</g>
<!-- Node51&#45;&gt;Node12 -->
<g id="edge41" class="edge">
<title>Node51&#45;&gt;Node12</title>
<path fill="none" stroke="midnightblue" d="M1356.67,-225.08C1374.39,-206.62 1414.96,-164.32 1437.73,-140.58"/>
<polygon fill="midnightblue" stroke="midnightblue" points="1440.06,-143.22 1444.45,-133.58 1435.01,-138.37 1440.06,-143.22"/>
</g>
<!-- Node55&#45;&gt;Node14 -->
<g id="edge47" class="edge">
<title>Node55&#45;&gt;Node14</title>
<path fill="none" stroke="midnightblue" d="M1538.18,-168.85C1542.8,-147.55 1551.48,-93.16 1530,-56.25 1521.86,-42.27 1507.48,-31.94 1493.77,-24.72"/>
<polygon fill="midnightblue" stroke="midnightblue" points="1495.43,-21.63 1484.9,-20.45 1492.39,-27.94 1495.43,-21.63"/>
</g>
<!-- Node55&#45;&gt;Node24 -->
<g id="edge46" class="edge">
<title>Node55&#45;&gt;Node24</title>
<path fill="none" stroke="midnightblue" d="M1505.31,-168.82C1477.69,-160.39 1436.15,-147.01 1401,-132.75 1362.21,-117.02 1318.86,-95.45 1291.75,-81.47"/>
<polygon fill="midnightblue" stroke="midnightblue" points="1293.7,-78.53 1283.21,-77.03 1290.47,-84.75 1293.7,-78.53"/>
</g>
<!-- Node60&#45;&gt;Node2 -->
<g id="edge50" class="edge">
<title>Node60&#45;&gt;Node2</title>
<path fill="none" stroke="midnightblue" d="M803,-225.17C803,-218.37 803,-208.76 803,-200.15"/>
<polygon fill="midnightblue" stroke="midnightblue" points="806.5,-200.18 803,-190.18 799.5,-200.18 806.5,-200.18"/>
</g>
<!-- Node64&#45;&gt;Node19 -->
<g id="edge54" class="edge">
<title>Node64&#45;&gt;Node19</title>
<path fill="none" stroke="midnightblue" d="M1293.73,-168.9C1307.07,-146.75 1336.97,-88.91 1308,-56.25 1287.65,-33.31 1096.86,-19.8 995.54,-14.19"/>
<polygon fill="midnightblue" stroke="midnightblue" points="995.93,-10.71 985.75,-13.66 995.55,-17.7 995.93,-10.71"/>
</g>
<!-- Node65&#45;&gt;Node2 -->
<g id="edge56" class="edge">
<title>Node65&#45;&gt;Node2</title>
<path fill="none" stroke="midnightblue" d="M918.69,-281.33C897.45,-262.7 848.56,-219.83 821.63,-196.21"/>
<polygon fill="midnightblue" stroke="midnightblue" points="824.07,-193.69 814.24,-189.73 819.45,-198.96 824.07,-193.69"/>
</g>
<!-- Node65&#45;&gt;Node60 -->
<g id="edge57" class="edge">
<title>Node65&#45;&gt;Node60</title>
<path fill="none" stroke="midnightblue" d="M907.91,-281.29C887.92,-272.69 857.63,-259.65 834.73,-249.79"/>
<polygon fill="midnightblue" stroke="midnightblue" points="836.12,-246.57 825.55,-245.83 833.35,-253 836.12,-246.57"/>
</g>
<!-- Node65&#45;&gt;Node62 -->
<g id="edge58" class="edge">
<title>Node65&#45;&gt;Node62</title>
<path fill="none" stroke="midnightblue" d="M949.59,-281.29C969.1,-272.69 998.67,-259.65 1021.02,-249.79"/>
<polygon fill="midnightblue" stroke="midnightblue" points="1022.22,-253.08 1029.96,-245.85 1019.4,-246.68 1022.22,-253.08"/>
</g>
<!-- Node68&#45;&gt;Node17 -->
<g id="edge67" class="edge">
<title>Node68&#45;&gt;Node17</title>
<path fill="none" stroke="midnightblue" d="M1641.05,-393.77C1675.09,-385.09 1721,-371.37 1734,-357.75 1754.89,-335.86 1753,-322.63 1753,-292.38 1753,-292.38 1753,-292.38 1753,-177.88 1753,-138.58 1719.98,-103.08 1697.47,-83.44"/>
<polygon fill="midnightblue" stroke="midnightblue" points="1699.95,-80.96 1690.04,-77.23 1695.46,-86.33 1699.95,-80.96"/>
</g>
<!-- Node68&#45;&gt;Node49 -->
<g id="edge61" class="edge">
<title>Node68&#45;&gt;Node49</title>
<path fill="none" stroke="midnightblue" d="M1549.46,-394.16C1485.82,-383.6 1379.72,-366 1319.78,-356.05"/>
<polygon fill="midnightblue" stroke="midnightblue" points="1320.37,-352.6 1309.93,-354.42 1319.22,-359.51 1320.37,-352.6"/>
</g>
<!-- Node69 -->
<g id="node46" class="node">
<title>Node69</title>
<g id="a_node46"><a xlink:href="_activation_settings_8hpp.html" target="_top" xlink:title=" ">
<polygon fill="white" stroke="red" points="1610.88,-338 1610.88,-357.25 1725.12,-357.25 1725.12,-338 1610.88,-338"/>
<text xml:space="preserve" text-anchor="middle" x="1668" y="-343.75" font-family="Helvetica,sans-Serif" font-size="10.00">ActivationSettings.hpp</text>
</a>
</g>
</g>
<!-- Node68&#45;&gt;Node69 -->
<g id="edge62" class="edge">
<title>Node68&#45;&gt;Node69</title>
<path fill="none" stroke="midnightblue" d="M1612.9,-393.92C1622.61,-385.94 1637.03,-374.08 1648.69,-364.5"/>
<polygon fill="midnightblue" stroke="midnightblue" points="1650.63,-367.43 1656.13,-358.38 1646.19,-362.02 1650.63,-367.43"/>
</g>
<!-- Node73 -->
<g id="node47" class="node">
<title>Node73</title>
<g id="a_node47"><a xlink:title=" ">
<polygon fill="white" stroke="#bfbfbf" points="1780.88,-338 1780.88,-357.25 1823.12,-357.25 1823.12,-338 1780.88,-338"/>
<text xml:space="preserve" text-anchor="middle" x="1802" y="-343.75" font-family="Helvetica,sans-Serif" font-size="10.00">deque</text>
</a>
</g>
</g>
<!-- Node68&#45;&gt;Node73 -->
<g id="edge64" class="edge">
<title>Node68&#45;&gt;Node73</title>
<path fill="none" stroke="midnightblue" d="M1635.48,-393.79C1672.86,-383.65 1732.96,-367.35 1769.81,-357.36"/>
<polygon fill="midnightblue" stroke="midnightblue" points="1770.26,-360.86 1778.99,-354.87 1768.43,-354.11 1770.26,-360.86"/>
</g>
<!-- Node74 -->
<g id="node48" class="node">
<title>Node74</title>
<g id="a_node48"><a xlink:href="_global_names_8hpp.html" target="_top" xlink:title=" ">
<polygon fill="white" stroke="red" points="1841,-338 1841,-357.25 1935,-357.25 1935,-338 1841,-338"/>
<text xml:space="preserve" text-anchor="middle" x="1888" y="-343.75" font-family="Helvetica,sans-Serif" font-size="10.00">GlobalNames.hpp</text>
</a>
</g>
</g>
<!-- Node68&#45;&gt;Node74 -->
<g id="edge65" class="edge">
<title>Node68&#45;&gt;Node74</title>
<path fill="none" stroke="midnightblue" d="M1649.87,-393.79C1699.35,-384.41 1776.64,-369.75 1829.67,-359.69"/>
<polygon fill="midnightblue" stroke="midnightblue" points="1830.27,-363.14 1839.44,-357.84 1828.96,-356.26 1830.27,-363.14"/>
</g>
<!-- Node76 -->
<g id="node49" class="node">
<title>Node76</title>
<g id="a_node49"><a xlink:title=" ">
<polygon fill="white" stroke="#bfbfbf" points="1481,-338 1481,-357.25 1593,-357.25 1593,-338 1481,-338"/>
<text xml:space="preserve" text-anchor="middle" x="1537" y="-343.75" font-family="Helvetica,sans-Serif" font-size="10.00">SystemInterpreter.hpp</text>
</a>
</g>
</g>
<!-- Node68&#45;&gt;Node76 -->
<g id="edge66" class="edge">
<title>Node68&#45;&gt;Node76</title>
<path fill="none" stroke="midnightblue" d="M1591.27,-393.92C1581.8,-386.02 1567.78,-374.31 1556.36,-364.78"/>
<polygon fill="midnightblue" stroke="midnightblue" points="1558.62,-362.11 1548.7,-358.39 1554.13,-367.48 1558.62,-362.11"/>
</g>
<!-- Node69&#45;&gt;Node55 -->
<g id="edge63" class="edge">
<title>Node69&#45;&gt;Node55</title>
<path fill="none" stroke="midnightblue" d="M1668.57,-337.52C1668.98,-324.25 1668.17,-299.24 1658,-281.25 1635.79,-241.97 1592.02,-211.44 1563.4,-194.55"/>
<polygon fill="midnightblue" stroke="midnightblue" points="1565.34,-191.63 1554.92,-189.71 1561.86,-197.7 1565.34,-191.63"/>
</g>
</g>
</svg>
        <g id="navigator" transform="translate(0 0)" fill="#404254">
                <rect fill="#f2f5e9" fill-opacity="0.5" stroke="#606060" stroke-width=".5" x="0" y="0" width="60" height="60"/>
                <use id="zoomplus" xlink:href="#zoomPlus" x="17" y="9" onmousedown="handleZoom(evt,'in')"/>
                <use id="zoomminus" xlink:href="#zoomMin" x="42" y="9" onmousedown="handleZoom(evt,'out')"/>
                <use id="reset" xlink:href="#resetDef" x="30" y="36" onmousedown="handleReset()"/>
                <g id="arrowUp" xlink:href="#dirArrow" transform="translate(30 24)" onmousedown="handlePan(0,-1)">
                  <use xlink:href="#rim" fill="#404040">
                        <set attributeName="fill" to="#808080" begin="arrowUp.mouseover" end="arrowUp.mouseout"/>
                  </use>
                  <path fill="none" stroke="white" stroke-width="1.5" d="M0,-3.0v7 M-2.5,-0.5L0,-3.0L2.5,-0.5"/>
                </g>
                <g id="arrowRight" xlink:href="#dirArrow" transform="rotate(90) translate(36 -43)" onmousedown="handlePan(1,0)">
                  <use xlink:href="#rim" fill="#404040">
                        <set attributeName="fill" to="#808080" begin="arrowRight.mouseover" end="arrowRight.mouseout"/>
                  </use>
                  <path fill="none" stroke="white" stroke-width="1.5" d="M0,-3.0v7 M-2.5,-0.5L0,-3.0L2.5,-0.5"/>
                </g>
                <g id="arrowDown" xlink:href="#dirArrow" transform="rotate(180) translate(-30 -48)" onmousedown="handlePan(0,1)">
                  <use xlink:href="#rim" fill="#404040">
                        <set attributeName="fill" to="#808080" begin="arrowDown.mouseover" end="arrowDown.mouseout"/>
                  </use>
                  <path fill="none" stroke="white" stroke-width="1.5" d="M0,-3.0v7 M-2.5,-0.5L0,-3.0L2.5,-0.5"/>
                </g>
                <g id="arrowLeft" xlink:href="#dirArrow" transform="rotate(270) translate(-36 17)" onmousedown="handlePan(-1,0)">
                  <use xlink:href="#rim" fill="#404040">
                        <set attributeName="fill" to="#808080" begin="arrowLeft.mouseover" end="arrowLeft.mouseout"/>
                  </use>
                  <path fill="none" stroke="white" stroke-width="1.5" d="M0,-3.0v7 M-2.5,-0.5L0,-3.0L2.5,-0.5"/>
                </g>
        </g>
        <svg viewBox="0 0 15 15" width="100%" height="30px" preserveAspectRatio="xMaxYMin meet">
         <g id="arrow_out" transform="scale(0.3 0.3)">
          <a xlink:href="windows_2_sys_activity_8cpp__incl_org.svg" target="_base">
           <rect id="button" ry="5" rx="5" y="6" x="6" height="38" width="38"
                fill="#f2f5e9" fill-opacity="0.5" stroke="#606060" stroke-width="1.0"/>
           <path id="arrow"
             d="M 11.500037,31.436501 C 11.940474,20.09759 22.043105,11.32322 32.158766,21.979434 L 37.068811,17.246167 C 37.068811,17.246167 37.088388,32 37.088388,32 L 22.160133,31.978069 C 22.160133,31.978069 26.997745,27.140456 26.997745,27.140456 C 18.528582,18.264221 13.291696,25.230495 11.500037,31.436501 z"
             style="fill:#404040;"/>
          </a>
         </g>
        </svg>
</svg>
