<?xml version="1.0" encoding="UTF-8" standalone="no"?>
<!DOCTYPE svg PUBLIC "-//W3C//DTD SVG 1.1//EN"
 "http://www.w3.org/Graphics/SVG/1.1/DTD/svg11.dtd">
<!-- Generated by graphviz version 2.30.1 (20130222.1704)
 -->
<!-- Title: ActivationFrame.cpp Pages: 1 -->
<svg width="2285pt" height="552pt"
 viewBox="0.00 0.00 2285.00 552.00" xmlns="http://www.w3.org/2000/svg" xmlns:xlink="http://www.w3.org/1999/xlink">
<g id="graph0" class="graph" transform="scale(1 1) rotate(0) translate(4 548)">
<title>ActivationFrame.cpp</title>
<polygon fill="white" stroke="white" points="-4,5 -4,-548 2282,-548 2282,5 -4,5"/>
<!-- Node1 -->
<g id="node1" class="node"><title>Node1</title>
<g id="a_node1"><a xlink:title=" ">
<polygon fill="#bfbfbf" stroke="black" points="620.426,-523 620.426,-543 727.574,-543 727.574,-523 620.426,-523"/>
<text text-anchor="middle" x="674" y="-529" font-family="Helvetica,sans-Serif" font-size="10.00">ActivationFrame.cpp</text>
</a>
</g>
</g>
<!-- Node2 -->
<g id="node2" class="node"><title>Node2</title>
<g id="a_node2"><a xlink:href="_rexx_core_8h.html" target="_top" xlink:title=" ">
<polygon fill="white" stroke="black" points="1147.6,-233 1147.6,-253 1216.4,-253 1216.4,-233 1147.6,-233"/>
<text text-anchor="middle" x="1182" y="-239" font-family="Helvetica,sans-Serif" font-size="10.00">RexxCore.h</text>
</a>
</g>
</g>
<!-- Node1&#45;&gt;Node2 -->
<g id="edge1" class="edge"><title>Node1&#45;&gt;Node2</title>
<path fill="none" stroke="midnightblue" d="M727.689,-527.581C876.271,-514.636 1282,-474.147 1282,-418 1282,-418 1282,-418 1282,-358 1282,-312.907 1237.23,-277.122 1207.61,-258.376"/>
<polygon fill="midnightblue" stroke="midnightblue" points="1209.33,-255.325 1198.96,-253.114 1205.68,-261.304 1209.33,-255.325"/>
</g>
<!-- Node68 -->
<g id="node40" class="node"><title>Node68</title>
<g id="a_node40"><a xlink:href="_activation_frame_8hpp.html" target="_top" xlink:title=" ">
<polygon fill="white" stroke="black" points="298.146,-291 298.146,-311 405.854,-311 405.854,-291 298.146,-291"/>
<text text-anchor="middle" x="352" y="-297" font-family="Helvetica,sans-Serif" font-size="10.00">ActivationFrame.hpp</text>
</a>
</g>
</g>
<!-- Node1&#45;&gt;Node68 -->
<g id="edge43" class="edge"><title>Node1&#45;&gt;Node68</title>
<path fill="none" stroke="midnightblue" d="M627.172,-522.898C571.941,-510.083 480.064,-481.998 420,-428 386.856,-398.203 366.783,-348.338 357.729,-321.131"/>
<polygon fill="midnightblue" stroke="midnightblue" points="360.967,-319.763 354.609,-311.288 354.295,-321.878 360.967,-319.763"/>
</g>
<!-- Node69 -->
<g id="node41" class="node"><title>Node69</title>
<g id="a_node41"><a xlink:href="_rexx_activation_8hpp.html" target="_top" xlink:title=" ">
<polygon fill="white" stroke="black" points="623.2,-465 623.2,-485 724.8,-485 724.8,-465 623.2,-465"/>
<text text-anchor="middle" x="674" y="-471" font-family="Helvetica,sans-Serif" font-size="10.00">RexxActivation.hpp</text>
</a>
</g>
</g>
<!-- Node1&#45;&gt;Node69 -->
<g id="edge45" class="edge"><title>Node1&#45;&gt;Node69</title>
<path fill="none" stroke="midnightblue" d="M674,-522.753C674,-515.25 674,-504.424 674,-495.078"/>
<polygon fill="midnightblue" stroke="midnightblue" points="677.5,-495.075 674,-485.075 670.5,-495.075 677.5,-495.075"/>
</g>
<!-- Node83 -->
<g id="node49" class="node"><title>Node83</title>
<g id="a_node49"><a xlink:href="_rexx_native_activation_8hpp.html" target="_top" xlink:title=" ">
<polygon fill="white" stroke="black" points="197.027,-233 197.027,-253 326.973,-253 326.973,-233 197.027,-233"/>
<text text-anchor="middle" x="262" y="-239" font-family="Helvetica,sans-Serif" font-size="10.00">RexxNativeActivation.hpp</text>
</a>
</g>
</g>
<!-- Node1&#45;&gt;Node83 -->
<g id="edge60" class="edge"><title>Node1&#45;&gt;Node83</title>
<path fill="none" stroke="midnightblue" d="M620.373,-528.248C509.855,-519.041 267,-490.554 267,-418 267,-418 267,-418 267,-358 267,-324.614 264.833,-285.78 263.352,-263.14"/>
<polygon fill="midnightblue" stroke="midnightblue" points="266.844,-262.896 262.674,-253.156 259.86,-263.37 266.844,-262.896"/>
</g>
<!-- Node84 -->
<g id="node50" class="node"><title>Node84</title>
<g id="a_node50"><a xlink:href="_stack_frame_class_8hpp.html" target="_top" xlink:title=" ">
<polygon fill="white" stroke="black" points="953.815,-407 953.815,-427 1068.18,-427 1068.18,-407 953.815,-407"/>
<text text-anchor="middle" x="1011" y="-413" font-family="Helvetica,sans-Serif" font-size="10.00">StackFrameClass.hpp</text>
</a>
</g>
</g>
<!-- Node1&#45;&gt;Node84 -->
<g id="edge62" class="edge"><title>Node1&#45;&gt;Node84</title>
<path fill="none" stroke="midnightblue" d="M700.726,-522.959C760.697,-502.672 906.069,-453.496 974.382,-430.387"/>
<polygon fill="midnightblue" stroke="midnightblue" points="975.921,-433.562 984.272,-427.042 973.677,-426.931 975.921,-433.562"/>
</g>
<!-- Node3 -->
<g id="node3" class="node"><title>Node3</title>
<g id="a_node3"><a xlink:href="oorexxapi_8h.html" target="_top" xlink:title=" ">
<polygon fill="white" stroke="black" points="1148.15,-175 1148.15,-195 1215.85,-195 1215.85,-175 1148.15,-175"/>
<text text-anchor="middle" x="1182" y="-181" font-family="Helvetica,sans-Serif" font-size="10.00">oorexxapi.h</text>
</a>
</g>
</g>
<!-- Node2&#45;&gt;Node3 -->
<g id="edge2" class="edge"><title>Node2&#45;&gt;Node3</title>
<path fill="none" stroke="midnightblue" d="M1182,-232.753C1182,-225.25 1182,-214.424 1182,-205.078"/>
<polygon fill="midnightblue" stroke="midnightblue" points="1185.5,-205.075 1182,-195.075 1178.5,-205.075 1185.5,-205.075"/>
</g>
<!-- Node10 -->
<g id="node6" class="node"><title>Node10</title>
<g id="a_node6"><a xlink:title=" ">
<polygon fill="white" stroke="#bfbfbf" points="1439.27,-175 1439.27,-195 1484.73,-195 1484.73,-175 1439.27,-175"/>
<text text-anchor="middle" x="1462" y="-181" font-family="Helvetica,sans-Serif" font-size="10.00">stdio.h</text>
</a>
</g>
</g>
<!-- Node2&#45;&gt;Node10 -->
<g id="edge5" class="edge"><title>Node2&#45;&gt;Node10</title>
<path fill="none" stroke="midnightblue" d="M1216.59,-234.677C1221.09,-233.757 1225.65,-232.844 1230,-232 1315.55,-215.393 1340.54,-217.345 1429.09,-195.986"/>
<polygon fill="midnightblue" stroke="midnightblue" points="1430.14,-199.331 1439.02,-193.557 1428.48,-192.532 1430.14,-199.331"/>
</g>
<!-- Node11 -->
<g id="node7" class="node"><title>Node11</title>
<g id="a_node7"><a xlink:title=" ">
<polygon fill="white" stroke="#bfbfbf" points="1844.93,-175 1844.93,-195 1897.07,-195 1897.07,-175 1844.93,-175"/>
<text text-anchor="middle" x="1871" y="-181" font-family="Helvetica,sans-Serif" font-size="10.00">stdarg.h</text>
</a>
</g>
</g>
<!-- Node2&#45;&gt;Node11 -->
<g id="edge6" class="edge"><title>Node2&#45;&gt;Node11</title>
<path fill="none" stroke="midnightblue" d="M1216.5,-234.183C1221.03,-233.344 1225.61,-232.584 1230,-232 1497.01,-196.436 1569.3,-240.294 1835,-196 1835.1,-195.983 1835.2,-195.966 1835.3,-195.949"/>
<polygon fill="midnightblue" stroke="midnightblue" points="1835.72,-199.437 1844.8,-193.969 1834.29,-192.584 1835.72,-199.437"/>
</g>
<!-- Node12 -->
<g id="node8" class="node"><title>Node12</title>
<g id="a_node8"><a xlink:title=" ">
<polygon fill="white" stroke="#bfbfbf" points="1914.6,-175 1914.6,-195 1963.4,-195 1963.4,-175 1914.6,-175"/>
<text text-anchor="middle" x="1939" y="-181" font-family="Helvetica,sans-Serif" font-size="10.00">string.h</text>
</a>
</g>
</g>
<!-- Node2&#45;&gt;Node12 -->
<g id="edge7" class="edge"><title>Node2&#45;&gt;Node12</title>
<path fill="none" stroke="midnightblue" d="M1216.5,-234.157C1221.02,-233.322 1225.61,-232.571 1230,-232 1525.01,-193.642 1607.8,-246.785 1904.11,-195.959"/>
<polygon fill="midnightblue" stroke="midnightblue" points="1905.04,-199.35 1914.29,-194.187 1903.84,-192.454 1905.04,-199.35"/>
</g>
<!-- Node13 -->
<g id="node9" class="node"><title>Node13</title>
<g id="a_node9"><a xlink:title=" ">
<polygon fill="white" stroke="#bfbfbf" points="1981.88,-175 1981.88,-195 2030.12,-195 2030.12,-175 1981.88,-175"/>
<text text-anchor="middle" x="2006" y="-181" font-family="Helvetica,sans-Serif" font-size="10.00">ctype.h</text>
</a>
</g>
</g>
<!-- Node2&#45;&gt;Node13 -->
<g id="edge8" class="edge"><title>Node2&#45;&gt;Node13</title>
<path fill="none" stroke="midnightblue" d="M1216.5,-234.138C1221.02,-233.306 1225.61,-232.56 1230,-232 1554.15,-190.631 1644.59,-249.733 1971.41,-195.633"/>
<polygon fill="midnightblue" stroke="midnightblue" points="1972.37,-199.022 1981.65,-193.915 1971.21,-192.119 1972.37,-199.022"/>
</g>
<!-- Node14 -->
<g id="node10" class="node"><title>Node14</title>
<g id="a_node10"><a xlink:title=" ">
<polygon fill="white" stroke="#bfbfbf" points="624.443,-175 624.443,-195 671.557,-195 671.557,-175 624.443,-175"/>
<text text-anchor="middle" x="648" y="-181" font-family="Helvetica,sans-Serif" font-size="10.00">limits.h</text>
</a>
</g>
</g>
<!-- Node2&#45;&gt;Node14 -->
<g id="edge9" class="edge"><title>Node2&#45;&gt;Node14</title>
<path fill="none" stroke="midnightblue" d="M1147.56,-241.345C1067.17,-239.286 860.992,-230.934 681.5,-195.952"/>
<polygon fill="midnightblue" stroke="midnightblue" points="682.111,-192.505 671.621,-193.993 680.75,-199.371 682.111,-192.505"/>
</g>
<!-- Node15 -->
<g id="node11" class="node"><title>Node15</title>
<g id="a_node11"><a xlink:href="_rexx_platform_definitions_8h.html" target="_top" xlink:title=" ">
<polygon fill="white" stroke="black" points="689.478,-175 689.478,-195 820.522,-195 820.522,-175 689.478,-175"/>
<text text-anchor="middle" x="755" y="-181" font-family="Helvetica,sans-Serif" font-size="10.00">RexxPlatformDefinitions.h</text>
</a>
</g>
</g>
<!-- Node2&#45;&gt;Node15 -->
<g id="edge10" class="edge"><title>Node2&#45;&gt;Node15</title>
<path fill="none" stroke="midnightblue" d="M1147.42,-237.549C1085.92,-229.622 953.228,-212.462 831.043,-196.267"/>
<polygon fill="midnightblue" stroke="midnightblue" points="831.139,-192.749 820.765,-194.904 830.218,-199.688 831.139,-192.749"/>
</g>
<!-- Node18 -->
<g id="node14" class="node"><title>Node18</title>
<g id="a_node14"><a xlink:href="_rexx_constants_8hpp.html" target="_top" xlink:title=" ">
<polygon fill="white" stroke="black" points="838.365,-175 838.365,-195 941.635,-195 941.635,-175 838.365,-175"/>
<text text-anchor="middle" x="890" y="-181" font-family="Helvetica,sans-Serif" font-size="10.00">RexxConstants.hpp</text>
</a>
</g>
</g>
<!-- Node2&#45;&gt;Node18 -->
<g id="edge13" class="edge"><title>Node2&#45;&gt;Node18</title>
<path fill="none" stroke="midnightblue" d="M1147.36,-235.356C1097.95,-225.88 1006.64,-208.369 947.128,-196.956"/>
<polygon fill="midnightblue" stroke="midnightblue" points="947.613,-193.485 937.133,-195.039 946.295,-200.36 947.613,-193.485"/>
</g>
<!-- Node19 -->
<g id="node15" class="node"><title>Node19</title>
<g id="a_node15"><a xlink:href="_class_type_codes_8h.html" target="_top" xlink:title=" ">
<polygon fill="white" stroke="black" points="977.032,-59 977.032,-79 1076.97,-79 1076.97,-59 977.032,-59"/>
<text text-anchor="middle" x="1027" y="-65" font-family="Helvetica,sans-Serif" font-size="10.00">ClassTypeCodes.h</text>
</a>
</g>
</g>
<!-- Node2&#45;&gt;Node19 -->
<g id="edge14" class="edge"><title>Node2&#45;&gt;Node19</title>
<path fill="none" stroke="midnightblue" d="M1147.6,-237.635C1102.65,-231.151 1027.69,-217.389 1011,-196 986.462,-164.553 1004.59,-114.637 1017.34,-88.0533"/>
<polygon fill="midnightblue" stroke="midnightblue" points="1020.48,-89.5988 1021.86,-79.0945 1014.23,-86.444 1020.48,-89.5988"/>
</g>
<!-- Node20 -->
<g id="node16" class="node"><title>Node20</title>
<g id="a_node16"><a xlink:href="_global_names_8h.html" target="_top" xlink:title=" ">
<polygon fill="white" stroke="black" points="1233.54,-175 1233.54,-195 1318.46,-195 1318.46,-175 1233.54,-175"/>
<text text-anchor="middle" x="1276" y="-181" font-family="Helvetica,sans-Serif" font-size="10.00">GlobalNames.h</text>
</a>
</g>
</g>
<!-- Node2&#45;&gt;Node20 -->
<g id="edge15" class="edge"><title>Node2&#45;&gt;Node20</title>
<path fill="none" stroke="midnightblue" d="M1197.52,-232.753C1212.31,-223.946 1234.78,-210.558 1251.89,-200.362"/>
<polygon fill="midnightblue" stroke="midnightblue" points="1253.97,-203.2 1260.77,-195.075 1250.38,-197.186 1253.97,-203.2"/>
</g>
<!-- Node21 -->
<g id="node17" class="node"><title>Node21</title>
<g id="a_node17"><a xlink:href="_object_class_8hpp.html" target="_top" xlink:title=" ">
<polygon fill="white" stroke="black" points="2188.32,-175 2188.32,-195 2277.68,-195 2277.68,-175 2188.32,-175"/>
<text text-anchor="middle" x="2233" y="-181" font-family="Helvetica,sans-Serif" font-size="10.00">ObjectClass.hpp</text>
</a>
</g>
</g>
<!-- Node2&#45;&gt;Node21 -->
<g id="edge16" class="edge"><title>Node2&#45;&gt;Node21</title>
<path fill="none" stroke="midnightblue" d="M1216.49,-234.093C1221.02,-233.269 1225.61,-232.537 1230,-232 1645.69,-181.178 1757.75,-241.593 2178.29,-195.897"/>
<polygon fill="midnightblue" stroke="midnightblue" points="2178.73,-199.37 2188.29,-194.797 2177.96,-192.412 2178.73,-199.37"/>
</g>
<!-- Node24 -->
<g id="node20" class="node"><title>Node24</title>
<g id="a_node20"><a xlink:href="_table_class_8hpp.html" target="_top" xlink:title=" ">
<polygon fill="white" stroke="black" points="1190.81,-59 1190.81,-79 1275.19,-79 1275.19,-59 1190.81,-59"/>
<text text-anchor="middle" x="1233" y="-65" font-family="Helvetica,sans-Serif" font-size="10.00">TableClass.hpp</text>
</a>
</g>
</g>
<!-- Node2&#45;&gt;Node24 -->
<g id="edge19" class="edge"><title>Node2&#45;&gt;Node24</title>
<path fill="none" stroke="midnightblue" d="M1147.34,-242.753C1110.74,-241.446 1054.62,-233.005 1027,-196 1005.73,-167.505 1004.77,-143.746 1027,-116 1045.89,-92.4262 1125.89,-80.1371 1180.46,-74.3752"/>
<polygon fill="midnightblue" stroke="midnightblue" points="1181.07,-77.8312 1190.67,-73.3413 1180.37,-70.8668 1181.07,-77.8312"/>
</g>
<!-- Node27 -->
<g id="node22" class="node"><title>Node27</title>
<g id="a_node22"><a xlink:href="_stack_class_8hpp.html" target="_top" xlink:title=" ">
<polygon fill="white" stroke="black" points="1336.26,-175 1336.26,-195 1421.74,-195 1421.74,-175 1336.26,-175"/>
<text text-anchor="middle" x="1379" y="-181" font-family="Helvetica,sans-Serif" font-size="10.00">StackClass.hpp</text>
</a>
</g>
</g>
<!-- Node2&#45;&gt;Node27 -->
<g id="edge21" class="edge"><title>Node2&#45;&gt;Node27</title>
<path fill="none" stroke="midnightblue" d="M1214.09,-232.878C1247.67,-223.331 1300.54,-208.303 1337.33,-197.845"/>
<polygon fill="midnightblue" stroke="midnightblue" points="1338.59,-201.126 1347.25,-195.025 1336.67,-194.393 1338.59,-201.126"/>
</g>
<!-- Node28 -->
<g id="node23" class="node"><title>Node28</title>
<g id="a_node23"><a xlink:href="_rexx_memory_8hpp.html" target="_top" xlink:title=" ">
<polygon fill="white" stroke="black" points="1036.19,-175 1036.19,-195 1129.81,-195 1129.81,-175 1036.19,-175"/>
<text text-anchor="middle" x="1083" y="-181" font-family="Helvetica,sans-Serif" font-size="10.00">RexxMemory.hpp</text>
</a>
</g>
</g>
<!-- Node2&#45;&gt;Node28 -->
<g id="edge22" class="edge"><title>Node2&#45;&gt;Node28</title>
<path fill="none" stroke="midnightblue" d="M1165.65,-232.753C1149.94,-223.864 1125.98,-210.309 1107.89,-200.079"/>
<polygon fill="midnightblue" stroke="midnightblue" points="1109.47,-196.952 1099.04,-195.075 1106.02,-203.045 1109.47,-196.952"/>
</g>
<!-- Node35 -->
<g id="node28" class="node"><title>Node35</title>
<g id="a_node28"><a xlink:href="_rexx_behaviour_8hpp.html" target="_top" xlink:title=" ">
<polygon fill="white" stroke="black" points="1502.64,-175 1502.64,-195 1605.36,-195 1605.36,-175 1502.64,-175"/>
<text text-anchor="middle" x="1554" y="-181" font-family="Helvetica,sans-Serif" font-size="10.00">RexxBehaviour.hpp</text>
</a>
</g>
</g>
<!-- Node2&#45;&gt;Node35 -->
<g id="edge30" class="edge"><title>Node2&#45;&gt;Node35</title>
<path fill="none" stroke="midnightblue" d="M1216.55,-234.503C1221.07,-233.611 1225.64,-232.752 1230,-232 1343.08,-212.505 1374.62,-213.474 1492.3,-196.065"/>
<polygon fill="midnightblue" stroke="midnightblue" points="1493.06,-199.491 1502.43,-194.552 1492.02,-192.567 1493.06,-199.491"/>
</g>
<!-- Node37 -->
<g id="node30" class="node"><title>Node37</title>
<g id="a_node30"><a xlink:href="_class_class_8hpp.html" target="_top" xlink:title=" ">
<polygon fill="white" stroke="black" points="1623.26,-175 1623.26,-195 1708.74,-195 1708.74,-175 1623.26,-175"/>
<text text-anchor="middle" x="1666" y="-181" font-family="Helvetica,sans-Serif" font-size="10.00">ClassClass.hpp</text>
</a>
</g>
</g>
<!-- Node2&#45;&gt;Node37 -->
<g id="edge32" class="edge"><title>Node2&#45;&gt;Node37</title>
<path fill="none" stroke="midnightblue" d="M1216.52,-234.326C1221.04,-233.463 1225.62,-232.659 1230,-232 1396.28,-206.966 1442.55,-219.705 1613.13,-195.992"/>
<polygon fill="midnightblue" stroke="midnightblue" points="1613.79,-199.433 1623.21,-194.569 1612.82,-192.501 1613.79,-199.433"/>
</g>
<!-- Node38 -->
<g id="node31" class="node"><title>Node38</title>
<g id="a_node31"><a xlink:href="_rexx_envelope_8hpp.html" target="_top" xlink:title=" ">
<polygon fill="white" stroke="black" points="1727.03,-175 1727.03,-195 1826.97,-195 1826.97,-175 1727.03,-175"/>
<text text-anchor="middle" x="1777" y="-181" font-family="Helvetica,sans-Serif" font-size="10.00">RexxEnvelope.hpp</text>
</a>
</g>
</g>
<!-- Node2&#45;&gt;Node38 -->
<g id="edge33" class="edge"><title>Node2&#45;&gt;Node38</title>
<path fill="none" stroke="midnightblue" d="M1216.51,-234.243C1221.03,-233.394 1225.62,-232.616 1230,-232 1444.92,-201.802 1501.51,-221.867 1717,-196 1717.1,-195.988 1717.2,-195.976 1717.3,-195.963"/>
<polygon fill="midnightblue" stroke="midnightblue" points="1717.5,-199.468 1726.96,-194.691 1716.59,-192.528 1717.5,-199.468"/>
</g>
<!-- Node39 -->
<g id="node32" class="node"><title>Node39</title>
<g id="a_node32"><a xlink:href="_rexx_activity_8hpp.html" target="_top" xlink:title=" ">
<polygon fill="white" stroke="red" points="283.411,-175 283.411,-195 372.589,-195 372.589,-175 283.411,-175"/>
<text text-anchor="middle" x="328" y="-181" font-family="Helvetica,sans-Serif" font-size="10.00">RexxActivity.hpp</text>
</a>
</g>
</g>
<!-- Node2&#45;&gt;Node39 -->
<g id="edge34" class="edge"><title>Node2&#45;&gt;Node39</title>
<path fill="none" stroke="midnightblue" d="M1147.46,-239.735C1015.78,-231.101 544.511,-200.197 382.871,-189.598"/>
<polygon fill="midnightblue" stroke="midnightblue" points="382.886,-186.092 372.678,-188.93 382.428,-193.077 382.886,-186.092"/>
</g>
<!-- Node50 -->
<g id="node38" class="node"><title>Node50</title>
<g id="a_node38"><a xlink:href="_number_string_class_8hpp.html" target="_top" xlink:title=" ">
<polygon fill="white" stroke="red" points="2047.92,-175 2047.92,-195 2170.08,-195 2170.08,-175 2047.92,-175"/>
<text text-anchor="middle" x="2109" y="-181" font-family="Helvetica,sans-Serif" font-size="10.00">NumberStringClass.hpp</text>
</a>
</g>
</g>
<!-- Node2&#45;&gt;Node50 -->
<g id="edge40" class="edge"><title>Node2&#45;&gt;Node50</title>
<path fill="none" stroke="midnightblue" d="M1216.5,-234.121C1221.02,-233.292 1225.61,-232.552 1230,-232 1583.79,-187.568 1678.89,-228.711 2038.17,-195.974"/>
<polygon fill="midnightblue" stroke="midnightblue" points="2038.7,-199.44 2048.34,-195.035 2038.06,-192.47 2038.7,-199.44"/>
</g>
<!-- Node66 -->
<g id="node39" class="node"><title>Node66</title>
<g id="a_node39"><a xlink:href="_activity_manager_8hpp.html" target="_top" xlink:title=" ">
<polygon fill="white" stroke="red" points="499.973,-175 499.973,-195 606.027,-195 606.027,-175 499.973,-175"/>
<text text-anchor="middle" x="553" y="-181" font-family="Helvetica,sans-Serif" font-size="10.00">ActivityManager.hpp</text>
</a>
</g>
</g>
<!-- Node2&#45;&gt;Node66 -->
<g id="edge42" class="edge"><title>Node2&#45;&gt;Node66</title>
<path fill="none" stroke="midnightblue" d="M1147.39,-240.147C1060.1,-235.269 823.774,-220.8 616.234,-196.064"/>
<polygon fill="midnightblue" stroke="midnightblue" points="616.407,-192.56 606.061,-194.841 615.571,-199.51 616.407,-192.56"/>
</g>
<!-- Node4 -->
<g id="node4" class="node"><title>Node4</title>
<g id="a_node4"><a xlink:href="rexx_8h.html" target="_top" xlink:title=" ">
<polygon fill="white" stroke="red" points="1533.38,-117 1533.38,-137 1576.62,-137 1576.62,-117 1533.38,-117"/>
<text text-anchor="middle" x="1555" y="-123" font-family="Helvetica,sans-Serif" font-size="10.00">rexx.h</text>
</a>
</g>
</g>
<!-- Node3&#45;&gt;Node4 -->
<g id="edge3" class="edge"><title>Node3&#45;&gt;Node4</title>
<path fill="none" stroke="midnightblue" d="M1216.2,-175.694C1219.17,-175.08 1222.13,-174.505 1225,-174 1353.61,-151.373 1391.42,-165.927 1523.07,-137.822"/>
<polygon fill="midnightblue" stroke="midnightblue" points="1524.1,-141.179 1533.13,-135.631 1522.61,-134.339 1524.1,-141.179"/>
</g>
<!-- Node9 -->
<g id="node5" class="node"><title>Node9</title>
<g id="a_node5"><a xlink:href="oorexxerrors_8h.html" target="_top" xlink:title=" ">
<polygon fill="white" stroke="black" points="1594.77,-117 1594.77,-137 1675.23,-137 1675.23,-117 1594.77,-117"/>
<text text-anchor="middle" x="1635" y="-123" font-family="Helvetica,sans-Serif" font-size="10.00">oorexxerrors.h</text>
</a>
</g>
</g>
<!-- Node3&#45;&gt;Node9 -->
<g id="edge4" class="edge"><title>Node3&#45;&gt;Node9</title>
<path fill="none" stroke="midnightblue" d="M1216.19,-175.631C1219.16,-175.031 1222.13,-174.476 1225,-174 1380.38,-148.273 1424.19,-161.236 1584.45,-137.93"/>
<polygon fill="midnightblue" stroke="midnightblue" points="1585.29,-141.343 1594.67,-136.417 1584.27,-134.419 1585.29,-141.343"/>
</g>
<!-- Node16 -->
<g id="node12" class="node"><title>Node16</title>
<g id="a_node12"><a xlink:title=" ">
<polygon fill="white" stroke="#bfbfbf" points="670.87,-117 670.87,-137 779.13,-137 779.13,-117 670.87,-117"/>
<text text-anchor="middle" x="725" y="-123" font-family="Helvetica,sans-Serif" font-size="10.00">PlatformDefinitions.h</text>
</a>
</g>
</g>
<!-- Node15&#45;&gt;Node16 -->
<g id="edge11" class="edge"><title>Node15&#45;&gt;Node16</title>
<path fill="none" stroke="midnightblue" d="M750.046,-174.753C745.896,-167.006 739.847,-155.714 734.733,-146.169"/>
<polygon fill="midnightblue" stroke="midnightblue" points="737.669,-144.237 729.862,-137.075 731.499,-147.543 737.669,-144.237"/>
</g>
<!-- Node17 -->
<g id="node13" class="node"><title>Node17</title>
<g id="a_node13"><a xlink:href="_rexx_error_codes_8h.html" target="_top" xlink:title=" ">
<polygon fill="white" stroke="black" points="796.875,-117 796.875,-137 895.125,-137 895.125,-117 796.875,-117"/>
<text text-anchor="middle" x="846" y="-123" font-family="Helvetica,sans-Serif" font-size="10.00">RexxErrorCodes.h</text>
</a>
</g>
</g>
<!-- Node15&#45;&gt;Node17 -->
<g id="edge12" class="edge"><title>Node15&#45;&gt;Node17</title>
<path fill="none" stroke="midnightblue" d="M770.027,-174.753C784.338,-165.946 806.094,-152.558 822.662,-142.362"/>
<polygon fill="midnightblue" stroke="midnightblue" points="824.571,-145.297 831.253,-137.075 820.902,-139.335 824.571,-145.297"/>
</g>
<!-- Node22 -->
<g id="node18" class="node"><title>Node22</title>
<g id="a_node18"><a xlink:href="_numerics_8hpp.html" target="_top" xlink:title=" ">
<polygon fill="white" stroke="black" points="2098.16,-117 2098.16,-137 2175.84,-137 2175.84,-117 2098.16,-117"/>
<text text-anchor="middle" x="2137" y="-123" font-family="Helvetica,sans-Serif" font-size="10.00">Numerics.hpp</text>
</a>
</g>
</g>
<!-- Node21&#45;&gt;Node22 -->
<g id="edge17" class="edge"><title>Node21&#45;&gt;Node22</title>
<path fill="none" stroke="midnightblue" d="M2217.15,-174.753C2202.05,-165.946 2179.1,-152.558 2161.62,-142.362"/>
<polygon fill="midnightblue" stroke="midnightblue" points="2162.96,-139.091 2152.56,-137.075 2159.43,-145.137 2162.96,-139.091"/>
</g>
<!-- Node23 -->
<g id="node19" class="node"><title>Node23</title>
<g id="a_node19"><a xlink:title=" ">
<polygon fill="white" stroke="#bfbfbf" points="1813.21,-59 1813.21,-79 1864.79,-79 1864.79,-59 1813.21,-59"/>
<text text-anchor="middle" x="1839" y="-65" font-family="Helvetica,sans-Serif" font-size="10.00">stddef.h</text>
</a>
</g>
</g>
<!-- Node21&#45;&gt;Node23 -->
<g id="edge18" class="edge"><title>Node21&#45;&gt;Node23</title>
<path fill="none" stroke="midnightblue" d="M2229.22,-174.646C2222.57,-159.5 2207.22,-129.903 2184,-116 2132.44,-85.1319 1952.75,-74.4619 1875.15,-71.2377"/>
<polygon fill="midnightblue" stroke="midnightblue" points="1875.03,-67.7303 1864.9,-70.8308 1874.75,-74.7248 1875.03,-67.7303"/>
</g>
<!-- Node25 -->
<g id="node21" class="node"><title>Node25</title>
<g id="a_node21"><a xlink:href="_rexx_collection_8hpp.html" target="_top" xlink:title=" ">
<polygon fill="white" stroke="red" points="1181.92,-1 1181.92,-21 1284.08,-21 1284.08,-1 1181.92,-1"/>
<text text-anchor="middle" x="1233" y="-7" font-family="Helvetica,sans-Serif" font-size="10.00">RexxCollection.hpp</text>
</a>
</g>
</g>
<!-- Node24&#45;&gt;Node25 -->
<g id="edge20" class="edge"><title>Node24&#45;&gt;Node25</title>
<path fill="none" stroke="midnightblue" d="M1233,-58.7527C1233,-51.2504 1233,-40.4238 1233,-31.0781"/>
<polygon fill="midnightblue" stroke="midnightblue" points="1236.5,-31.0752 1233,-21.0752 1229.5,-31.0752 1236.5,-31.0752"/>
</g>
<!-- Node29 -->
<g id="node24" class="node"><title>Node29</title>
<g id="a_node24"><a xlink:title=" ">
<polygon fill="white" stroke="#bfbfbf" points="1148.08,-117 1148.08,-137 1251.92,-137 1251.92,-117 1148.08,-117"/>
<text text-anchor="middle" x="1200" y="-123" font-family="Helvetica,sans-Serif" font-size="10.00">SysSemaphore.hpp</text>
</a>
</g>
</g>
<!-- Node28&#45;&gt;Node29 -->
<g id="edge23" class="edge"><title>Node28&#45;&gt;Node29</title>
<path fill="none" stroke="midnightblue" d="M1102.06,-174.878C1121.01,-165.807 1150.3,-151.788 1171.92,-141.442"/>
<polygon fill="midnightblue" stroke="midnightblue" points="1173.44,-144.592 1180.95,-137.118 1170.42,-138.278 1173.44,-144.592"/>
</g>
<!-- Node30 -->
<g id="node25" class="node"><title>Node30</title>
<g id="a_node25"><a xlink:href="_identity_table_class_8hpp.html" target="_top" xlink:title=" ">
<polygon fill="white" stroke="black" points="1269.69,-117 1269.69,-137 1386.31,-137 1386.31,-117 1269.69,-117"/>
<text text-anchor="middle" x="1328" y="-123" font-family="Helvetica,sans-Serif" font-size="10.00">IdentityTableClass.hpp</text>
</a>
</g>
</g>
<!-- Node28&#45;&gt;Node30 -->
<g id="edge24" class="edge"><title>Node28&#45;&gt;Node30</title>
<path fill="none" stroke="midnightblue" d="M1122.64,-174.94C1165.07,-165.242 1232.47,-149.836 1278.39,-139.339"/>
<polygon fill="midnightblue" stroke="midnightblue" points="1279.45,-142.687 1288.42,-137.047 1277.89,-135.863 1279.45,-142.687"/>
</g>
<!-- Node31 -->
<g id="node26" class="node"><title>Node31</title>
<g id="a_node26"><a xlink:href="_memory_stats_8hpp.html" target="_top" xlink:title=" ">
<polygon fill="white" stroke="black" points="1035.82,-117 1035.82,-137 1130.18,-137 1130.18,-117 1035.82,-117"/>
<text text-anchor="middle" x="1083" y="-123" font-family="Helvetica,sans-Serif" font-size="10.00">MemoryStats.hpp</text>
</a>
</g>
</g>
<!-- Node28&#45;&gt;Node31 -->
<g id="edge26" class="edge"><title>Node28&#45;&gt;Node31</title>
<path fill="none" stroke="midnightblue" d="M1083,-174.753C1083,-167.25 1083,-156.424 1083,-147.078"/>
<polygon fill="midnightblue" stroke="midnightblue" points="1086.5,-147.075 1083,-137.075 1079.5,-147.075 1086.5,-147.075"/>
</g>
<!-- Node32 -->
<g id="node27" class="node"><title>Node32</title>
<g id="a_node27"><a xlink:href="_memory_segment_8hpp.html" target="_top" xlink:title=" ">
<polygon fill="white" stroke="red" points="1404.2,-117 1404.2,-137 1515.8,-137 1515.8,-117 1404.2,-117"/>
<text text-anchor="middle" x="1460" y="-123" font-family="Helvetica,sans-Serif" font-size="10.00">MemorySegment.hpp</text>
</a>
</g>
</g>
<!-- Node28&#45;&gt;Node32 -->
<g id="edge28" class="edge"><title>Node28&#45;&gt;Node32</title>
<path fill="none" stroke="midnightblue" d="M1130.03,-175.471C1133.07,-174.962 1136.07,-174.467 1139,-174 1249.25,-156.411 1279.63,-154.815 1393.79,-138.16"/>
<polygon fill="midnightblue" stroke="midnightblue" points="1394.6,-141.578 1403.99,-136.664 1393.59,-134.652 1394.6,-141.578"/>
</g>
<!-- Node30&#45;&gt;Node24 -->
<g id="edge25" class="edge"><title>Node30&#45;&gt;Node24</title>
<path fill="none" stroke="midnightblue" d="M1312.31,-116.753C1297.37,-107.946 1274.66,-94.5575 1257.36,-84.3617"/>
<polygon fill="midnightblue" stroke="midnightblue" points="1258.79,-81.1382 1248.4,-79.0752 1255.23,-87.1685 1258.79,-81.1382"/>
</g>
<!-- Node31&#45;&gt;Node19 -->
<g id="edge27" class="edge"><title>Node31&#45;&gt;Node19</title>
<path fill="none" stroke="midnightblue" d="M1073.75,-116.753C1065.52,-108.516 1053.27,-96.2738 1043.38,-86.3824"/>
<polygon fill="midnightblue" stroke="midnightblue" points="1045.62,-83.6714 1036.08,-79.0752 1040.67,-88.6212 1045.62,-83.6714"/>
</g>
<!-- Node32&#45;&gt;Node23 -->
<g id="edge29" class="edge"><title>Node32&#45;&gt;Node23</title>
<path fill="none" stroke="midnightblue" d="M1515.84,-117.241C1518.6,-116.819 1521.33,-116.403 1524,-116 1624.83,-100.761 1743.95,-83.5921 1802.62,-75.1923"/>
<polygon fill="midnightblue" stroke="midnightblue" points="1803.45,-78.6095 1812.85,-73.7284 1802.46,-71.6801 1803.45,-78.6095"/>
</g>
<!-- Node36 -->
<g id="node29" class="node"><title>Node36</title>
<g id="a_node29"><a xlink:href="_primitive_behaviour_names_8h.html" target="_top" xlink:title=" ">
<polygon fill="white" stroke="black" points="1693.31,-117 1693.31,-137 1832.69,-137 1832.69,-117 1693.31,-117"/>
<text text-anchor="middle" x="1763" y="-123" font-family="Helvetica,sans-Serif" font-size="10.00">PrimitiveBehaviourNames.h</text>
</a>
</g>
</g>
<!-- Node35&#45;&gt;Node36 -->
<g id="edge31" class="edge"><title>Node35&#45;&gt;Node36</title>
<path fill="none" stroke="midnightblue" d="M1588.04,-174.878C1623.83,-165.29 1680.24,-150.175 1719.29,-139.712"/>
<polygon fill="midnightblue" stroke="midnightblue" points="1720.56,-142.994 1729.32,-137.025 1718.75,-136.233 1720.56,-142.994"/>
</g>
<!-- Node40 -->
<g id="node33" class="node"><title>Node40</title>
<g id="a_node33"><a xlink:href="_list_class_8hpp.html" target="_top" xlink:title=" ">
<polygon fill="white" stroke="red" points="143.985,-117 143.985,-137 220.015,-137 220.015,-117 143.985,-117"/>
<text text-anchor="middle" x="182" y="-123" font-family="Helvetica,sans-Serif" font-size="10.00">ListClass.hpp</text>
</a>
</g>
</g>
<!-- Node39&#45;&gt;Node40 -->
<g id="edge35" class="edge"><title>Node39&#45;&gt;Node40</title>
<path fill="none" stroke="midnightblue" d="M304.218,-174.878C280.038,-165.603 242.372,-151.156 215.245,-140.752"/>
<polygon fill="midnightblue" stroke="midnightblue" points="216.362,-137.432 205.772,-137.118 213.855,-143.967 216.362,-137.432"/>
</g>
<!-- Node42 -->
<g id="node34" class="node"><title>Node42</title>
<g id="a_node34"><a xlink:href="_rexx_internal_stack_8hpp.html" target="_top" xlink:title=" ">
<polygon fill="white" stroke="black" points="237.695,-117 237.695,-137 354.305,-137 354.305,-117 237.695,-117"/>
<text text-anchor="middle" x="296" y="-123" font-family="Helvetica,sans-Serif" font-size="10.00">RexxInternalStack.hpp</text>
</a>
</g>
</g>
<!-- Node39&#45;&gt;Node42 -->
<g id="edge36" class="edge"><title>Node39&#45;&gt;Node42</title>
<path fill="none" stroke="midnightblue" d="M322.716,-174.753C318.242,-166.924 311.701,-155.476 306.21,-145.868"/>
<polygon fill="midnightblue" stroke="midnightblue" points="309.186,-144.021 301.186,-137.075 303.108,-147.494 309.186,-144.021"/>
</g>
<!-- Node43 -->
<g id="node35" class="node"><title>Node43</title>
<g id="a_node35"><a xlink:href="_rexx_activation_stack_8hpp.html" target="_top" xlink:title=" ">
<polygon fill="white" stroke="black" points="-0.305176,-117 -0.305176,-137 126.305,-137 126.305,-117 -0.305176,-117"/>
<text text-anchor="middle" x="63" y="-123" font-family="Helvetica,sans-Serif" font-size="10.00">RexxActivationStack.hpp</text>
</a>
</g>
</g>
<!-- Node39&#45;&gt;Node43 -->
<g id="edge37" class="edge"><title>Node39&#45;&gt;Node43</title>
<path fill="none" stroke="midnightblue" d="M285.129,-174.94C238.945,-165.181 165.411,-149.642 115.723,-139.141"/>
<polygon fill="midnightblue" stroke="midnightblue" points="116.317,-135.69 105.81,-137.047 114.87,-142.539 116.317,-135.69"/>
</g>
<!-- Node44 -->
<g id="node36" class="node"><title>Node44</title>
<g id="a_node36"><a xlink:href="_expression_stack_8hpp.html" target="_top" xlink:title=" ">
<polygon fill="white" stroke="red" points="514.03,-117 514.03,-137 623.97,-137 623.97,-117 514.03,-117"/>
<text text-anchor="middle" x="569" y="-123" font-family="Helvetica,sans-Serif" font-size="10.00">ExpressionStack.hpp</text>
</a>
</g>
</g>
<!-- Node39&#45;&gt;Node44 -->
<g id="edge38" class="edge"><title>Node39&#45;&gt;Node44</title>
<path fill="none" stroke="midnightblue" d="M366.989,-174.94C408.727,-165.242 475.027,-149.836 520.2,-139.339"/>
<polygon fill="midnightblue" stroke="midnightblue" points="521.119,-142.719 530.067,-137.047 519.535,-135.901 521.119,-142.719"/>
</g>
<!-- Node46 -->
<g id="node37" class="node"><title>Node46</title>
<g id="a_node37"><a xlink:href="_rexx_local_variables_8hpp.html" target="_top" xlink:title=" ">
<polygon fill="white" stroke="red" points="372.448,-117 372.448,-137 495.552,-137 495.552,-117 372.448,-117"/>
<text text-anchor="middle" x="434" y="-123" font-family="Helvetica,sans-Serif" font-size="10.00">RexxLocalVariables.hpp</text>
</a>
</g>
</g>
<!-- Node39&#45;&gt;Node46 -->
<g id="edge39" class="edge"><title>Node39&#45;&gt;Node46</title>
<path fill="none" stroke="midnightblue" d="M345.504,-174.753C362.483,-165.783 388.458,-152.06 407.881,-141.799"/>
<polygon fill="midnightblue" stroke="midnightblue" points="409.615,-144.841 416.822,-137.075 406.345,-138.652 409.615,-144.841"/>
</g>
<!-- Node50&#45;&gt;Node22 -->
<g id="edge41" class="edge"><title>Node50&#45;&gt;Node22</title>
<path fill="none" stroke="midnightblue" d="M2113.62,-174.753C2117.5,-167.006 2123.14,-155.714 2127.92,-146.169"/>
<polygon fill="midnightblue" stroke="midnightblue" points="2131.12,-147.585 2132.46,-137.075 2124.86,-144.454 2131.12,-147.585"/>
</g>
<!-- Node68&#45;&gt;Node39 -->
<g id="edge44" class="edge"><title>Node68&#45;&gt;Node39</title>
<path fill="none" stroke="midnightblue" d="M350.036,-290.671C346.114,-272.041 337.242,-229.898 332.03,-205.143"/>
<polygon fill="midnightblue" stroke="midnightblue" points="335.409,-204.204 329.924,-195.139 328.559,-205.646 335.409,-204.204"/>
</g>
<!-- Node69&#45;&gt;Node44 -->
<g id="edge46" class="edge"><title>Node69&#45;&gt;Node44</title>
<path fill="none" stroke="midnightblue" d="M623.027,-467.605C563.186,-456.915 472,-429.262 472,-360 472,-360 472,-360 472,-242 472,-210.62 471.88,-198.882 491,-174 502.106,-159.548 519.15,-148.751 534.477,-141.263"/>
<polygon fill="midnightblue" stroke="midnightblue" points="536.095,-144.372 543.729,-137.025 533.18,-138.008 536.095,-144.372"/>
</g>
<!-- Node70 -->
<g id="node42" class="node"><title>Node70</title>
<g id="a_node42"><a xlink:href="_do_block_8hpp.html" target="_top" xlink:title=" ">
<polygon fill="white" stroke="black" points="580.65,-407 580.65,-427 653.35,-427 653.35,-407 580.65,-407"/>
<text text-anchor="middle" x="617" y="-413" font-family="Helvetica,sans-Serif" font-size="10.00">DoBlock.hpp</text>
</a>
</g>
</g>
<!-- Node69&#45;&gt;Node70 -->
<g id="edge47" class="edge"><title>Node69&#45;&gt;Node70</title>
<path fill="none" stroke="midnightblue" d="M664.588,-464.753C656.121,-456.435 643.496,-444.031 633.377,-434.089"/>
<polygon fill="midnightblue" stroke="midnightblue" points="635.824,-431.587 626.237,-427.075 630.918,-436.58 635.824,-431.587"/>
</g>
<!-- Node69&#45;&gt;Node46 -->
<g id="edge48" class="edge"><title>Node69&#45;&gt;Node46</title>
<path fill="none" stroke="midnightblue" d="M623.102,-471.777C552.652,-465.659 434,-443.031 434,-360 434,-360 434,-360 434,-242 434,-208.798 434,-170.157 434,-147.462"/>
<polygon fill="midnightblue" stroke="midnightblue" points="437.5,-147.162 434,-137.162 430.5,-147.162 437.5,-147.162"/>
</g>
<!-- Node71 -->
<g id="node43" class="node"><title>Node71</title>
<g id="a_node43"><a xlink:href="_rexx_date_time_8hpp.html" target="_top" xlink:title=" ">
<polygon fill="white" stroke="black" points="770.388,-349 770.388,-369 871.612,-369 871.612,-349 770.388,-349"/>
<text text-anchor="middle" x="821" y="-355" font-family="Helvetica,sans-Serif" font-size="10.00">RexxDateTime.hpp</text>
</a>
</g>
</g>
<!-- Node69&#45;&gt;Node71 -->
<g id="edge49" class="edge"><title>Node69&#45;&gt;Node71</title>
<path fill="none" stroke="midnightblue" d="M725.094,-467.024C751.405,-460.904 782.06,-449.442 802,-428 814.24,-414.839 818.692,-394.447 820.261,-379.424"/>
<polygon fill="midnightblue" stroke="midnightblue" points="823.771,-379.413 820.981,-369.192 816.788,-378.921 823.771,-379.413"/>
</g>
<!-- Node72 -->
<g id="node44" class="node"><title>Node72</title>
<g id="a_node44"><a xlink:href="_rexx_code_8hpp.html" target="_top" xlink:title=" ">
<polygon fill="white" stroke="red" points="853.924,-407 853.924,-427 936.076,-427 936.076,-407 853.924,-407"/>
<text text-anchor="middle" x="895" y="-413" font-family="Helvetica,sans-Serif" font-size="10.00">RexxCode.hpp</text>
</a>
</g>
</g>
<!-- Node69&#45;&gt;Node72 -->
<g id="edge51" class="edge"><title>Node69&#45;&gt;Node72</title>
<path fill="none" stroke="midnightblue" d="M709.999,-464.878C748.078,-455.229 808.251,-439.982 849.569,-429.512"/>
<polygon fill="midnightblue" stroke="midnightblue" points="850.548,-432.874 859.382,-427.025 848.829,-426.089 850.548,-432.874"/>
</g>
<!-- Node69&#45;&gt;Node66 -->
<g id="edge56" class="edge"><title>Node69&#45;&gt;Node66</title>
<path fill="none" stroke="midnightblue" d="M634.65,-464.985C613.306,-458.18 588.077,-446.713 572,-428 551.55,-404.199 553,-391.38 553,-360 553,-360 553,-360 553,-300 553,-266.798 553,-228.157 553,-205.462"/>
<polygon fill="midnightblue" stroke="midnightblue" points="556.5,-205.162 553,-195.162 549.5,-205.162 556.5,-205.162"/>
</g>
<!-- Node81 -->
<g id="node47" class="node"><title>Node81</title>
<g id="a_node47"><a xlink:href="_rexx_compound_tail_8hpp.html" target="_top" xlink:title=" ">
<polygon fill="white" stroke="red" points="670.914,-407 670.914,-427 793.086,-427 793.086,-407 670.914,-407"/>
<text text-anchor="middle" x="732" y="-413" font-family="Helvetica,sans-Serif" font-size="10.00">RexxCompoundTail.hpp</text>
</a>
</g>
</g>
<!-- Node69&#45;&gt;Node81 -->
<g id="edge57" class="edge"><title>Node69&#45;&gt;Node81</title>
<path fill="none" stroke="midnightblue" d="M683.578,-464.753C692.192,-456.435 705.039,-444.031 715.336,-434.089"/>
<polygon fill="midnightblue" stroke="midnightblue" points="717.838,-436.539 722.601,-427.075 712.976,-431.503 717.838,-436.539"/>
</g>
<!-- Node82 -->
<g id="node48" class="node"><title>Node82</title>
<g id="a_node48"><a xlink:href="_context_class_8hpp.html" target="_top" xlink:title=" ">
<polygon fill="white" stroke="black" points="1118.53,-349 1118.53,-369 1213.47,-369 1213.47,-349 1118.53,-349"/>
<text text-anchor="middle" x="1166" y="-355" font-family="Helvetica,sans-Serif" font-size="10.00">ContextClass.hpp</text>
</a>
</g>
</g>
<!-- Node69&#45;&gt;Node82 -->
<g id="edge58" class="edge"><title>Node69&#45;&gt;Node82</title>
<path fill="none" stroke="midnightblue" d="M724.846,-471.57C818.452,-466.542 1014.21,-453.299 1077,-428 1105.83,-416.383 1133.36,-392.763 1149.97,-376.657"/>
<polygon fill="midnightblue" stroke="midnightblue" points="1152.59,-378.98 1157.2,-369.44 1147.65,-374.024 1152.59,-378.98"/>
</g>
<!-- Node71&#45;&gt;Node2 -->
<g id="edge50" class="edge"><title>Node71&#45;&gt;Node2</title>
<path fill="none" stroke="midnightblue" d="M835.807,-348.879C860.055,-334.332 910.129,-305.902 956,-290 1017.2,-268.784 1091.3,-256.013 1137.55,-249.486"/>
<polygon fill="midnightblue" stroke="midnightblue" points="1138.12,-252.941 1147.55,-248.111 1137.17,-246.006 1138.12,-252.941"/>
</g>
<!-- Node79 -->
<g id="node45" class="node"><title>Node79</title>
<g id="a_node45"><a xlink:href="_method_class_8hpp.html" target="_top" xlink:title=" ">
<polygon fill="white" stroke="black" points="965.089,-291 965.089,-311 1058.91,-311 1058.91,-291 965.089,-291"/>
<text text-anchor="middle" x="1012" y="-297" font-family="Helvetica,sans-Serif" font-size="10.00">MethodClass.hpp</text>
</a>
</g>
</g>
<!-- Node72&#45;&gt;Node79 -->
<g id="edge52" class="edge"><title>Node72&#45;&gt;Node79</title>
<path fill="none" stroke="midnightblue" d="M896.001,-406.979C898.005,-392.824 903.718,-365.236 919,-348 932.511,-332.761 952.228,-322.01 970.034,-314.756"/>
<polygon fill="midnightblue" stroke="midnightblue" points="971.581,-317.912 979.677,-311.079 969.087,-311.371 971.581,-317.912"/>
</g>
<!-- Node80 -->
<g id="node46" class="node"><title>Node80</title>
<g id="a_node46"><a xlink:href="_routine_class_8hpp.html" target="_top" xlink:title=" ">
<polygon fill="white" stroke="black" points="927.532,-349 927.532,-369 1022.47,-369 1022.47,-349 927.532,-349"/>
<text text-anchor="middle" x="975" y="-355" font-family="Helvetica,sans-Serif" font-size="10.00">RoutineClass.hpp</text>
</a>
</g>
</g>
<!-- Node72&#45;&gt;Node80 -->
<g id="edge54" class="edge"><title>Node72&#45;&gt;Node80</title>
<path fill="none" stroke="midnightblue" d="M908.21,-406.753C920.559,-398.109 939.212,-385.052 953.669,-374.931"/>
<polygon fill="midnightblue" stroke="midnightblue" points="955.85,-377.677 962.035,-369.075 951.836,-371.943 955.85,-377.677"/>
</g>
<!-- Node79&#45;&gt;Node2 -->
<g id="edge53" class="edge"><title>Node79&#45;&gt;Node2</title>
<path fill="none" stroke="midnightblue" d="M1039.69,-290.878C1068.3,-281.453 1113.13,-266.688 1144.81,-256.25"/>
<polygon fill="midnightblue" stroke="midnightblue" points="1146.2,-259.478 1154.6,-253.025 1144.01,-252.83 1146.2,-259.478"/>
</g>
<!-- Node80&#45;&gt;Node79 -->
<g id="edge55" class="edge"><title>Node80&#45;&gt;Node79</title>
<path fill="none" stroke="midnightblue" d="M981.11,-348.753C986.336,-340.843 994.004,-329.237 1000.39,-319.568"/>
<polygon fill="midnightblue" stroke="midnightblue" points="1003.41,-321.348 1006,-311.075 997.571,-317.489 1003.41,-321.348"/>
</g>
<!-- Node82&#45;&gt;Node21 -->
<g id="edge59" class="edge"><title>Node82&#45;&gt;Node21</title>
<path fill="none" stroke="midnightblue" d="M1213.54,-350.822C1357.24,-329.033 1799.92,-261.248 2178.18,-196.111"/>
<polygon fill="midnightblue" stroke="midnightblue" points="2178.97,-199.527 2188.23,-194.379 2177.78,-192.629 2178.97,-199.527"/>
</g>
<!-- Node83&#45;&gt;Node39 -->
<g id="edge61" class="edge"><title>Node83&#45;&gt;Node39</title>
<path fill="none" stroke="midnightblue" d="M272.899,-232.753C282.798,-224.353 297.608,-211.787 309.381,-201.798"/>
<polygon fill="midnightblue" stroke="midnightblue" points="311.944,-204.214 317.304,-195.075 307.415,-198.876 311.944,-204.214"/>
</g>
<!-- Node84&#45;&gt;Node80 -->
<g id="edge63" class="edge"><title>Node84&#45;&gt;Node80</title>
<path fill="none" stroke="midnightblue" d="M1005.06,-406.753C999.97,-398.843 992.51,-387.237 986.294,-377.568"/>
<polygon fill="midnightblue" stroke="midnightblue" points="989.186,-375.594 980.834,-369.075 983.298,-379.38 989.186,-375.594"/>
</g>
<!-- Node84&#45;&gt;Node79 -->
<g id="edge64" class="edge"><title>Node84&#45;&gt;Node79</title>
<path fill="none" stroke="midnightblue" d="M1016.32,-406.86C1021.24,-397.836 1028.2,-383.471 1031,-370 1034.54,-352.977 1028.32,-333.942 1022.08,-320.351"/>
<polygon fill="midnightblue" stroke="midnightblue" points="1025.07,-318.509 1017.45,-311.142 1018.81,-321.65 1025.07,-318.509"/>
</g>
</g>
</svg>
