<?xml version="1.0" encoding="UTF-8" standalone="no"?>
<!DOCTYPE svg PUBLIC "-//W3C//DTD SVG 1.1//EN"
 "http://www.w3.org/Graphics/SVG/1.1/DTD/svg11.dtd">
<!-- Generated by graphviz version 2.30.1 (20130222.1704)
 -->
<!-- Title: CPPCode.hpp Pages: 1 -->
<svg width="530pt" height="88pt"
 viewBox="0.00 0.00 530.00 88.00" xmlns="http://www.w3.org/2000/svg" xmlns:xlink="http://www.w3.org/1999/xlink">
<g id="graph0" class="graph" transform="scale(1 1) rotate(0) translate(4 84)">
<title>CPPCode.hpp</title>
<polygon fill="white" stroke="white" points="-4,5 -4,-84 527,-84 527,5 -4,5"/>
<!-- Node1 -->
<g id="node1" class="node"><title>Node1</title>
<g id="a_node1"><a xlink:title=" ">
<polygon fill="#bfbfbf" stroke="black" points="179.035,-59 179.035,-79 258.965,-79 258.965,-59 179.035,-59"/>
<text text-anchor="middle" x="219" y="-65" font-family="Helvetica,sans-Serif" font-size="10.00">CPPCode.hpp</text>
</a>
</g>
</g>
<!-- Node2 -->
<g id="node2" class="node"><title>Node2</title>
<g id="a_node2"><a xlink:href="_setup_8cpp.html" target="_top" xlink:title=" ">
<polygon fill="white" stroke="black" points="-0.51709,-1 -0.51709,-21 60.5171,-21 60.5171,-1 -0.51709,-1"/>
<text text-anchor="middle" x="30" y="-7" font-family="Helvetica,sans-Serif" font-size="10.00">Setup.cpp</text>
</a>
</g>
</g>
<!-- Node1&#45;&gt;Node2 -->
<g id="edge1" class="edge"><title>Node1&#45;&gt;Node2</title>
<path fill="none" stroke="midnightblue" d="M178.208,-55.9136C142.831,-45.4313 92.4187,-30.4944 60.4604,-21.0253"/>
<polygon fill="midnightblue" stroke="midnightblue" points="177.631,-59.3928 188.213,-58.878 179.62,-52.6813 177.631,-59.3928"/>
</g>
<!-- Node3 -->
<g id="node3" class="node"><title>Node3</title>
<g id="a_node3"><a xlink:href="_source_file_8cpp.html" target="_top" xlink:title=" ">
<polygon fill="white" stroke="black" points="78.6504,-1 78.6504,-21 161.35,-21 161.35,-1 78.6504,-1"/>
<text text-anchor="middle" x="120" y="-7" font-family="Helvetica,sans-Serif" font-size="10.00">SourceFile.cpp</text>
</a>
</g>
</g>
<!-- Node1&#45;&gt;Node3 -->
<g id="edge2" class="edge"><title>Node1&#45;&gt;Node3</title>
<path fill="none" stroke="midnightblue" d="M193.758,-53.7215C175.597,-43.4489 151.65,-29.9031 136.044,-21.0752"/>
<polygon fill="midnightblue" stroke="midnightblue" points="192.225,-56.8756 202.652,-58.7527 195.671,-50.7828 192.225,-56.8756"/>
</g>
<!-- Node4 -->
<g id="node4" class="node"><title>Node4</title>
<g id="a_node4"><a xlink:href="_c_p_p_code_8cpp.html" target="_top" xlink:title=" ">
<polygon fill="white" stroke="black" points="179.315,-1 179.315,-21 258.685,-21 258.685,-1 179.315,-1"/>
<text text-anchor="middle" x="219" y="-7" font-family="Helvetica,sans-Serif" font-size="10.00">CPPCode.cpp</text>
</a>
</g>
</g>
<!-- Node1&#45;&gt;Node4 -->
<g id="edge3" class="edge"><title>Node1&#45;&gt;Node4</title>
<path fill="none" stroke="midnightblue" d="M219,-48.7065C219,-39.3384 219,-28.5262 219,-21.0752"/>
<polygon fill="midnightblue" stroke="midnightblue" points="215.5,-48.7527 219,-58.7527 222.5,-48.7528 215.5,-48.7527"/>
</g>
<!-- Node5 -->
<g id="node5" class="node"><title>Node5</title>
<g id="a_node5"><a xlink:href="_virtual_function_table_8cpp.html" target="_top" xlink:title=" ">
<polygon fill="white" stroke="black" points="276.334,-1 276.334,-21 401.666,-21 401.666,-1 276.334,-1"/>
<text text-anchor="middle" x="339" y="-7" font-family="Helvetica,sans-Serif" font-size="10.00">VirtualFunctionTable.cpp</text>
</a>
</g>
</g>
<!-- Node1&#45;&gt;Node5 -->
<g id="edge4" class="edge"><title>Node1&#45;&gt;Node5</title>
<path fill="none" stroke="midnightblue" d="M247.813,-54.5538C269.985,-44.2069 300.026,-30.1879 319.461,-21.1181"/>
<polygon fill="midnightblue" stroke="midnightblue" points="246.129,-51.4774 238.547,-58.878 249.089,-57.8207 246.129,-51.4774"/>
</g>
<!-- Node6 -->
<g id="node6" class="node"><title>Node6</title>
<g id="a_node6"><a xlink:href="_rexx_behaviour_8cpp.html" target="_top" xlink:title=" ">
<polygon fill="white" stroke="black" points="419.917,-1 419.917,-21 522.083,-21 522.083,-1 419.917,-1"/>
<text text-anchor="middle" x="471" y="-7" font-family="Helvetica,sans-Serif" font-size="10.00">RexxBehaviour.cpp</text>
</a>
</g>
</g>
<!-- Node1&#45;&gt;Node6 -->
<g id="edge5" class="edge"><title>Node1&#45;&gt;Node6</title>
<path fill="none" stroke="midnightblue" d="M269.215,-56.841C316.417,-46.3518 386.197,-30.8452 430.099,-21.0892"/>
<polygon fill="midnightblue" stroke="midnightblue" points="268.211,-53.4787 259.209,-59.0647 269.73,-60.312 268.211,-53.4787"/>
</g>
</g>
</svg>
