<?xml version="1.0" encoding="UTF-8" standalone="no"?>
<!DOCTYPE svg PUBLIC "-//W3C//DTD SVG 1.1//EN"
 "http://www.w3.org/Graphics/SVG/1.1/DTD/svg11.dtd">
<!-- Generated by graphviz version 2.30.1 (20130222.1704)
 -->
<!-- Title: ContextApi.hpp Pages: 1 -->
<svg width="572pt" height="88pt"
 viewBox="0.00 0.00 572.00 88.00" xmlns="http://www.w3.org/2000/svg" xmlns:xlink="http://www.w3.org/1999/xlink">
<g id="graph0" class="graph" transform="scale(1 1) rotate(0) translate(4 84)">
<title>ContextApi.hpp</title>
<polygon fill="white" stroke="white" points="-4,5 -4,-84 569,-84 569,5 -4,5"/>
<!-- Node1 -->
<g id="node1" class="node"><title>Node1</title>
<g id="a_node1"><a xlink:title=" ">
<polygon fill="#bfbfbf" stroke="black" points="226.811,-59 226.811,-79 311.189,-79 311.189,-59 226.811,-59"/>
<text text-anchor="middle" x="269" y="-65" font-family="Helvetica,sans-Serif" font-size="10.00">ContextApi.hpp</text>
</a>
</g>
</g>
<!-- Node2 -->
<g id="node2" class="node"><title>Node2</title>
<g id="a_node2"><a xlink:href="_thread_context_stubs_8cpp.html" target="_top" xlink:title=" ">
<polygon fill="white" stroke="black" points="-0.310059,-1 -0.310059,-21 126.31,-21 126.31,-1 -0.310059,-1"/>
<text text-anchor="middle" x="63" y="-7" font-family="Helvetica,sans-Serif" font-size="10.00">ThreadContextStubs.cpp</text>
</a>
</g>
</g>
<!-- Node1&#45;&gt;Node2 -->
<g id="edge1" class="edge"><title>Node1&#45;&gt;Node2</title>
<path fill="none" stroke="midnightblue" d="M225.528,-56.1825C186.924,-45.6881 131.332,-30.5757 96.2002,-21.0253"/>
<polygon fill="midnightblue" stroke="midnightblue" points="224.876,-59.6321 235.444,-58.878 226.712,-52.8773 224.876,-59.6321"/>
</g>
<!-- Node3 -->
<g id="node3" class="node"><title>Node3</title>
<g id="a_node3"><a xlink:href="_call_context_stubs_8cpp.html" target="_top" xlink:title=" ">
<polygon fill="white" stroke="black" points="143.919,-1 143.919,-21 256.081,-21 256.081,-1 143.919,-1"/>
<text text-anchor="middle" x="200" y="-7" font-family="Helvetica,sans-Serif" font-size="10.00">CallContextStubs.cpp</text>
</a>
</g>
</g>
<!-- Node1&#45;&gt;Node3 -->
<g id="edge2" class="edge"><title>Node1&#45;&gt;Node3</title>
<path fill="none" stroke="midnightblue" d="M249.641,-52.288C237.231,-42.2161 221.56,-29.4981 211.182,-21.0752"/>
<polygon fill="midnightblue" stroke="midnightblue" points="247.636,-55.1686 257.606,-58.7527 252.047,-49.7334 247.636,-55.1686"/>
</g>
<!-- Node4 -->
<g id="node4" class="node"><title>Node4</title>
<g id="a_node4"><a xlink:href="_method_context_stubs_8cpp.html" target="_top" xlink:title=" ">
<polygon fill="white" stroke="black" points="273.855,-1 273.855,-21 402.145,-21 402.145,-1 273.855,-1"/>
<text text-anchor="middle" x="338" y="-7" font-family="Helvetica,sans-Serif" font-size="10.00">MethodContextStubs.cpp</text>
</a>
</g>
</g>
<!-- Node1&#45;&gt;Node4 -->
<g id="edge3" class="edge"><title>Node1&#45;&gt;Node4</title>
<path fill="none" stroke="midnightblue" d="M288.359,-52.288C300.769,-42.2161 316.44,-29.4981 326.818,-21.0752"/>
<polygon fill="midnightblue" stroke="midnightblue" points="285.953,-49.7334 280.394,-58.7527 290.364,-55.1686 285.953,-49.7334"/>
</g>
<!-- Node5 -->
<g id="node5" class="node"><title>Node5</title>
<g id="a_node5"><a xlink:href="_interpreter_instance_stubs_8cpp.html" target="_top" xlink:title=" ">
<polygon fill="white" stroke="black" points="419.796,-1 419.796,-21 564.204,-21 564.204,-1 419.796,-1"/>
<text text-anchor="middle" x="492" y="-7" font-family="Helvetica,sans-Serif" font-size="10.00">InterpreterInstanceStubs.cpp</text>
</a>
</g>
</g>
<!-- Node1&#45;&gt;Node5 -->
<g id="edge4" class="edge"><title>Node1&#45;&gt;Node5</title>
<path fill="none" stroke="midnightblue" d="M315.261,-56.3829C357.08,-45.8813 417.786,-30.6367 456.06,-21.0253"/>
<polygon fill="midnightblue" stroke="midnightblue" points="314.171,-53.0477 305.325,-58.878 315.876,-59.8369 314.171,-53.0477"/>
</g>
</g>
</svg>
