<?xml version="1.0" encoding="UTF-8" standalone="no"?>
<!DOCTYPE svg PUBLIC "-//W3C//DTD SVG 1.1//EN"
 "http://www.w3.org/Graphics/SVG/1.1/DTD/svg11.dtd">
<!-- Generated by graphviz version 2.30.1 (20130222.1704)
 -->
<!-- Title: LocalAPISubsystem.hpp Pages: 1 -->
<svg width="1360pt" height="262pt"
 viewBox="0.00 0.00 1359.76 262.00" xmlns="http://www.w3.org/2000/svg" xmlns:xlink="http://www.w3.org/1999/xlink">
<g id="graph0" class="graph" transform="scale(1 1) rotate(0) translate(4 258)">
<title>LocalAPISubsystem.hpp</title>
<polygon fill="white" stroke="white" points="-4,5 -4,-258 1356.76,-258 1356.76,5 -4,5"/>
<!-- Node1 -->
<g id="node1" class="node"><title>Node1</title>
<g id="a_node1"><a xlink:title=" ">
<polygon fill="#bfbfbf" stroke="black" points="695.288,-233 695.288,-253 820.239,-253 820.239,-233 695.288,-233"/>
<text text-anchor="middle" x="757.764" y="-239" font-family="Helvetica,sans-Serif" font-size="10.00">LocalAPISubsystem.hpp</text>
</a>
</g>
</g>
<!-- Node2 -->
<g id="node2" class="node"><title>Node2</title>
<g id="a_node2"><a xlink:href="_local_macro_space_manager_8hpp.html" target="_top" xlink:title=" ">
<polygon fill="white" stroke="black" points="351.55,-175 351.55,-195 505.977,-195 505.977,-175 351.55,-175"/>
<text text-anchor="middle" x="428.764" y="-181" font-family="Helvetica,sans-Serif" font-size="10.00">LocalMacroSpaceManager.hpp</text>
</a>
</g>
</g>
<!-- Node1&#45;&gt;Node2 -->
<g id="edge1" class="edge"><title>Node1&#45;&gt;Node2</title>
<path fill="none" stroke="midnightblue" d="M694.515,-231.234C632.691,-220.711 539.642,-204.873 481.64,-195"/>
<polygon fill="midnightblue" stroke="midnightblue" points="694.093,-234.713 704.538,-232.94 695.267,-227.812 694.093,-234.713"/>
</g>
<!-- Node15 -->
<g id="node15" class="node"><title>Node15</title>
<g id="a_node15"><a xlink:href="_local_registration_manager_8hpp.html" target="_top" xlink:title=" ">
<polygon fill="white" stroke="black" points="681.939,-175 681.939,-195 833.588,-195 833.588,-175 681.939,-175"/>
<text text-anchor="middle" x="757.764" y="-181" font-family="Helvetica,sans-Serif" font-size="10.00">LocalRegistrationManager.hpp</text>
</a>
</g>
</g>
<!-- Node1&#45;&gt;Node15 -->
<g id="edge19" class="edge"><title>Node1&#45;&gt;Node15</title>
<path fill="none" stroke="midnightblue" d="M757.764,-222.707C757.764,-213.338 757.764,-202.526 757.764,-195.075"/>
<polygon fill="midnightblue" stroke="midnightblue" points="754.264,-222.753 757.764,-232.753 761.264,-222.753 754.264,-222.753"/>
</g>
<!-- Node16 -->
<g id="node16" class="node"><title>Node16</title>
<g id="a_node16"><a xlink:href="_local_queue_manager_8hpp.html" target="_top" xlink:title=" ">
<polygon fill="white" stroke="black" points="987.606,-175 987.606,-195 1115.92,-195 1115.92,-175 987.606,-175"/>
<text text-anchor="middle" x="1051.76" y="-181" font-family="Helvetica,sans-Serif" font-size="10.00">LocalQueueManager.hpp</text>
</a>
</g>
</g>
<!-- Node1&#45;&gt;Node16 -->
<g id="edge23" class="edge"><title>Node1&#45;&gt;Node16</title>
<path fill="none" stroke="midnightblue" d="M815.297,-231.041C870.456,-220.535 952.737,-204.862 1004.27,-195.047"/>
<polygon fill="midnightblue" stroke="midnightblue" points="814.495,-227.631 805.326,-232.94 815.805,-234.507 814.495,-227.631"/>
</g>
<!-- Node3 -->
<g id="node3" class="node"><title>Node3</title>
<g id="a_node3"><a xlink:href="_macro_space_api_8cpp.html" target="_top" xlink:title=" ">
<polygon fill="white" stroke="black" points="125.017,-1 125.017,-21 230.51,-21 230.51,-1 125.017,-1"/>
<text text-anchor="middle" x="177.764" y="-7" font-family="Helvetica,sans-Serif" font-size="10.00">MacroSpaceApi.cpp</text>
</a>
</g>
</g>
<!-- Node2&#45;&gt;Node3 -->
<g id="edge2" class="edge"><title>Node2&#45;&gt;Node3</title>
<path fill="none" stroke="midnightblue" d="M341.136,-175.034C230.015,-161.633 47.9799,-132.193 7.76351,-80 -25.753,-36.5022 63.3761,-20.7448 124.889,-15.0964"/>
<polygon fill="midnightblue" stroke="midnightblue" points="340.987,-178.541 351.33,-176.242 341.811,-171.589 340.987,-178.541"/>
</g>
<!-- Node4 -->
<g id="node4" class="node"><title>Node4</title>
<g id="a_node4"><a xlink:href="_local_macro_space_manager_8cpp.html" target="_top" xlink:title=" ">
<polygon fill="white" stroke="black" points="16.8304,-59 16.8304,-79 170.697,-79 170.697,-59 16.8304,-59"/>
<text text-anchor="middle" x="93.7635" y="-65" font-family="Helvetica,sans-Serif" font-size="10.00">LocalMacroSpaceManager.cpp</text>
</a>
</g>
</g>
<!-- Node2&#45;&gt;Node4 -->
<g id="edge3" class="edge"><title>Node2&#45;&gt;Node4</title>
<path fill="none" stroke="midnightblue" d="M392.366,-171.614C324.46,-148.506 179.951,-99.3296 120.333,-79.0416"/>
<polygon fill="midnightblue" stroke="midnightblue" points="391.602,-175.051 402.197,-174.959 393.857,-168.424 391.602,-175.051"/>
</g>
<!-- Node5 -->
<g id="node5" class="node"><title>Node5</title>
<g id="a_node5"><a xlink:href="_local_a_p_i_manager_8hpp.html" target="_top" xlink:title=" ">
<polygon fill="white" stroke="black" points="511.559,-117 511.559,-137 625.968,-137 625.968,-117 511.559,-117"/>
<text text-anchor="middle" x="568.764" y="-123" font-family="Helvetica,sans-Serif" font-size="10.00">LocalAPIManager.hpp</text>
</a>
</g>
</g>
<!-- Node2&#45;&gt;Node5 -->
<g id="edge4" class="edge"><title>Node2&#45;&gt;Node5</title>
<path fill="none" stroke="midnightblue" d="M460.996,-171.107C486.985,-160.711 522.887,-146.351 545.968,-137.118"/>
<polygon fill="midnightblue" stroke="midnightblue" points="459.553,-167.914 451.569,-174.878 462.153,-174.414 459.553,-167.914"/>
</g>
<!-- Node6 -->
<g id="node6" class="node"><title>Node6</title>
<g id="a_node6"><a xlink:href="_local_a_p_i_manager_8cpp.html" target="_top" xlink:title=" ">
<polygon fill="white" stroke="black" points="511.84,-59 511.84,-79 625.687,-79 625.687,-59 511.84,-59"/>
<text text-anchor="middle" x="568.764" y="-65" font-family="Helvetica,sans-Serif" font-size="10.00">LocalAPIManager.cpp</text>
</a>
</g>
</g>
<!-- Node5&#45;&gt;Node6 -->
<g id="edge5" class="edge"><title>Node5&#45;&gt;Node6</title>
<path fill="none" stroke="midnightblue" d="M568.764,-106.707C568.764,-97.3384 568.764,-86.5262 568.764,-79.0752"/>
<polygon fill="midnightblue" stroke="midnightblue" points="565.264,-106.753 568.764,-116.753 572.264,-106.753 565.264,-106.753"/>
</g>
<!-- Node7 -->
<g id="node7" class="node"><title>Node7</title>
<g id="a_node7"><a xlink:href="_queues_a_p_i_8cpp.html" target="_top" xlink:title=" ">
<polygon fill="white" stroke="black" points="620.742,-1 620.742,-21 706.785,-21 706.785,-1 620.742,-1"/>
<text text-anchor="middle" x="663.764" y="-7" font-family="Helvetica,sans-Serif" font-size="10.00">QueuesAPI.cpp</text>
</a>
</g>
</g>
<!-- Node5&#45;&gt;Node7 -->
<g id="edge6" class="edge"><title>Node5&#45;&gt;Node7</title>
<path fill="none" stroke="midnightblue" d="M538.961,-112.149C514.904,-99.039 487.39,-78.3813 502.764,-58 510.138,-48.2237 577.555,-31.3883 622.779,-21.0219"/>
<polygon fill="midnightblue" stroke="midnightblue" points="537.426,-115.296 547.915,-116.788 540.646,-109.081 537.426,-115.296"/>
</g>
<!-- Node5&#45;&gt;Node3 -->
<g id="edge7" class="edge"><title>Node5&#45;&gt;Node3</title>
<path fill="none" stroke="midnightblue" d="M500.977,-124.093C412.312,-120.431 262.932,-109.897 217.764,-80 196.52,-65.9389 185.03,-36.4136 180.335,-21.3183"/>
<polygon fill="midnightblue" stroke="midnightblue" points="501.082,-127.6 511.212,-124.497 501.358,-120.606 501.082,-127.6"/>
</g>
<!-- Node8 -->
<g id="node8" class="node"><title>Node8</title>
<g id="a_node8"><a xlink:href="windows_2_sys_local_a_p_i_manager_8cpp.html" target="_top" xlink:title=" ">
<polygon fill="white" stroke="black" points="996.505,-59 996.505,-79 1127.02,-79 1127.02,-59 996.505,-59"/>
<text text-anchor="middle" x="1061.76" y="-65" font-family="Helvetica,sans-Serif" font-size="10.00">SysLocalAPIManager.cpp</text>
</a>
</g>
</g>
<!-- Node5&#45;&gt;Node8 -->
<g id="edge8" class="edge"><title>Node5&#45;&gt;Node8</title>
<path fill="none" stroke="midnightblue" d="M636.303,-119.049C718.991,-110.428 863.274,-95.0254 986.764,-80 989.893,-79.6192 993.095,-79.2219 996.328,-78.8146"/>
<polygon fill="midnightblue" stroke="midnightblue" points="635.867,-115.575 626.283,-120.092 636.592,-122.538 635.867,-115.575"/>
</g>
<!-- Node9 -->
<g id="node9" class="node"><title>Node9</title>
<g id="a_node9"><a xlink:href="_local_queue_manager_8cpp.html" target="_top" xlink:title=" ">
<polygon fill="white" stroke="black" points="850.887,-59 850.887,-79 978.64,-79 978.64,-59 850.887,-59"/>
<text text-anchor="middle" x="914.764" y="-65" font-family="Helvetica,sans-Serif" font-size="10.00">LocalQueueManager.cpp</text>
</a>
</g>
</g>
<!-- Node5&#45;&gt;Node9 -->
<g id="edge9" class="edge"><title>Node5&#45;&gt;Node9</title>
<path fill="none" stroke="midnightblue" d="M634.879,-115.299C699.895,-104.776 798.03,-88.8933 859.155,-79.0002"/>
<polygon fill="midnightblue" stroke="midnightblue" points="634.051,-111.888 624.739,-116.94 635.17,-118.798 634.051,-111.888"/>
</g>
<!-- Node10 -->
<g id="node10" class="node"><title>Node10</title>
<g id="a_node10"><a xlink:href="_registration_a_p_i_8cpp.html" target="_top" xlink:title=" ">
<polygon fill="white" stroke="black" points="498.574,-1 498.574,-21 602.953,-21 602.953,-1 498.574,-1"/>
<text text-anchor="middle" x="550.764" y="-7" font-family="Helvetica,sans-Serif" font-size="10.00">RegistrationAPI.cpp</text>
</a>
</g>
</g>
<!-- Node5&#45;&gt;Node10 -->
<g id="edge10" class="edge"><title>Node5&#45;&gt;Node10</title>
<path fill="none" stroke="midnightblue" d="M598.446,-112.053C621.069,-99.3641 646.367,-79.3956 633.764,-58 622.893,-39.5467 601.659,-27.9728 583.391,-21.0501"/>
<polygon fill="midnightblue" stroke="midnightblue" points="596.553,-109.095 589.353,-116.868 599.829,-115.281 596.553,-109.095"/>
</g>
<!-- Node11 -->
<g id="node11" class="node"><title>Node11</title>
<g id="a_node11"><a xlink:href="_local_registration_manager_8cpp.html" target="_top" xlink:title=" ">
<polygon fill="white" stroke="black" points="682.22,-59 682.22,-79 833.307,-79 833.307,-59 682.22,-59"/>
<text text-anchor="middle" x="757.764" y="-65" font-family="Helvetica,sans-Serif" font-size="10.00">LocalRegistrationManager.cpp</text>
</a>
</g>
</g>
<!-- Node5&#45;&gt;Node11 -->
<g id="edge11" class="edge"><title>Node5&#45;&gt;Node11</title>
<path fill="none" stroke="midnightblue" d="M609.555,-113.914C644.933,-103.431 695.345,-88.4944 727.303,-79.0253"/>
<polygon fill="midnightblue" stroke="midnightblue" points="608.144,-110.681 599.55,-116.878 610.133,-117.393 608.144,-110.681"/>
</g>
<!-- Node5&#45;&gt;Node4 -->
<g id="edge12" class="edge"><title>Node5&#45;&gt;Node4</title>
<path fill="none" stroke="midnightblue" d="M501.407,-118.059C414.092,-107.765 262.184,-89.8559 170.506,-79.0476"/>
<polygon fill="midnightblue" stroke="midnightblue" points="501.126,-121.55 511.467,-119.245 501.946,-114.598 501.126,-121.55"/>
</g>
<!-- Node12 -->
<g id="node12" class="node"><title>Node12</title>
<g id="a_node12"><a xlink:href="_client_message_8cpp.html" target="_top" xlink:title=" ">
<polygon fill="white" stroke="black" points="354.242,-59 354.242,-79 455.285,-79 455.285,-59 354.242,-59"/>
<text text-anchor="middle" x="404.764" y="-65" font-family="Helvetica,sans-Serif" font-size="10.00">ClientMessage.cpp</text>
</a>
</g>
</g>
<!-- Node5&#45;&gt;Node12 -->
<g id="edge13" class="edge"><title>Node5&#45;&gt;Node12</title>
<path fill="none" stroke="midnightblue" d="M532.574,-113.643C501.92,-103.175 458.688,-88.4132 431.195,-79.0253"/>
<polygon fill="midnightblue" stroke="midnightblue" points="531.455,-116.959 542.049,-116.878 533.717,-110.334 531.455,-116.959"/>
</g>
<!-- Node13 -->
<g id="node13" class="node"><title>Node13</title>
<g id="a_node13"><a xlink:href="_local_a_p_i_context_8hpp.html" target="_top" xlink:title=" ">
<polygon fill="white" stroke="black" points="226.788,-59 226.788,-79 336.739,-79 336.739,-59 226.788,-59"/>
<text text-anchor="middle" x="281.764" y="-65" font-family="Helvetica,sans-Serif" font-size="10.00">LocalAPIContext.hpp</text>
</a>
</g>
</g>
<!-- Node5&#45;&gt;Node13 -->
<g id="edge14" class="edge"><title>Node5&#45;&gt;Node13</title>
<path fill="none" stroke="midnightblue" d="M512.265,-114.976C458.421,-104.47 378.328,-88.8418 328.127,-79.0466"/>
<polygon fill="midnightblue" stroke="midnightblue" points="511.848,-118.46 522.333,-116.94 513.188,-111.59 511.848,-118.46"/>
</g>
<!-- Node14 -->
<g id="node14" class="node"><title>Node14</title>
<g id="a_node14"><a xlink:href="_local_a_p_i_context_8cpp.html" target="_top" xlink:title=" ">
<polygon fill="white" stroke="black" points="248.069,-1 248.069,-21 357.458,-21 357.458,-1 248.069,-1"/>
<text text-anchor="middle" x="302.764" y="-7" font-family="Helvetica,sans-Serif" font-size="10.00">LocalAPIContext.cpp</text>
</a>
</g>
</g>
<!-- Node13&#45;&gt;Node14 -->
<g id="edge15" class="edge"><title>Node13&#45;&gt;Node14</title>
<path fill="none" stroke="midnightblue" d="M288.77,-49.3154C292.335,-39.8101 296.505,-28.6882 299.36,-21.0752"/>
<polygon fill="midnightblue" stroke="midnightblue" points="285.465,-48.1605 285.231,-58.7527 292.02,-50.6184 285.465,-48.1605"/>
</g>
<!-- Node13&#45;&gt;Node7 -->
<g id="edge16" class="edge"><title>Node13&#45;&gt;Node7</title>
<path fill="none" stroke="midnightblue" d="M347.205,-57.6688C464.961,-40.6365 496.822,-40.7858 611.764,-22 614.667,-21.5255 617.657,-21.0134 620.666,-20.4804"/>
<polygon fill="midnightblue" stroke="midnightblue" points="346.457,-54.2408 337.066,-59.1468 347.467,-61.1676 346.457,-54.2408"/>
</g>
<!-- Node13&#45;&gt;Node3 -->
<g id="edge17" class="edge"><title>Node13&#45;&gt;Node3</title>
<path fill="none" stroke="midnightblue" d="M255.77,-54.0034C236.631,-43.6979 211.162,-29.9841 194.617,-21.0752"/>
<polygon fill="midnightblue" stroke="midnightblue" points="254.126,-57.0933 264.59,-58.7527 257.445,-50.93 254.126,-57.0933"/>
</g>
<!-- Node13&#45;&gt;Node10 -->
<g id="edge18" class="edge"><title>Node13&#45;&gt;Node10</title>
<path fill="none" stroke="midnightblue" d="M335.35,-56.8445C385.809,-46.3399 460.451,-30.8011 507.308,-21.0466"/>
<polygon fill="midnightblue" stroke="midnightblue" points="334.359,-53.4757 325.282,-58.9404 335.785,-60.3288 334.359,-53.4757"/>
</g>
<!-- Node15&#45;&gt;Node10 -->
<g id="edge20" class="edge"><title>Node15&#45;&gt;Node10</title>
<path fill="none" stroke="midnightblue" d="M802.467,-172.454C901.402,-146.802 1130.59,-86.7877 1135.76,-80 1141.69,-72.2229 1142.44,-65.1469 1135.76,-58 1095.94,-15.3428 669.734,-28.728 611.764,-22 608.885,-21.666 605.936,-21.2911 602.962,-20.8879"/>
<polygon fill="midnightblue" stroke="midnightblue" points="801.551,-169.076 792.749,-174.972 803.307,-175.852 801.551,-169.076"/>
</g>
<!-- Node15&#45;&gt;Node11 -->
<g id="edge21" class="edge"><title>Node15&#45;&gt;Node11</title>
<path fill="none" stroke="midnightblue" d="M757.764,-164.603C757.764,-139.731 757.764,-97.6088 757.764,-79.1394"/>
<polygon fill="midnightblue" stroke="midnightblue" points="754.264,-164.671 757.764,-174.671 761.264,-164.671 754.264,-164.671"/>
</g>
<!-- Node15&#45;&gt;Node5 -->
<g id="edge22" class="edge"><title>Node15&#45;&gt;Node5</title>
<path fill="none" stroke="midnightblue" d="M716.972,-171.914C681.594,-161.431 631.182,-146.494 599.224,-137.025"/>
<polygon fill="midnightblue" stroke="midnightblue" points="716.394,-175.393 726.977,-174.878 718.383,-168.681 716.394,-175.393"/>
</g>
<!-- Node16&#45;&gt;Node7 -->
<g id="edge24" class="edge"><title>Node16&#45;&gt;Node7</title>
<path fill="none" stroke="midnightblue" d="M1124.58,-171.827C1143.34,-165.035 1161.41,-154.46 1172.76,-138 1188.29,-115.483 1163.98,-67.453 1151.76,-58 1116.98,-31.0774 820.084,-17.6378 707.136,-13.4632"/>
<polygon fill="midnightblue" stroke="midnightblue" points="1123.46,-168.513 1115.05,-174.956 1125.64,-175.164 1123.46,-168.513"/>
</g>
<!-- Node17 -->
<g id="node17" class="node"><title>Node17</title>
<g id="a_node17"><a xlink:href="unix_2_sys_local_a_p_i_manager_8hpp.html" target="_top" xlink:title=" ">
<polygon fill="white" stroke="black" points="1221.22,-117 1221.22,-137 1352.3,-137 1352.3,-117 1221.22,-117"/>
<text text-anchor="middle" x="1286.76" y="-123" font-family="Helvetica,sans-Serif" font-size="10.00">SysLocalAPIManager.hpp</text>
</a>
</g>
</g>
<!-- Node16&#45;&gt;Node17 -->
<g id="edge25" class="edge"><title>Node16&#45;&gt;Node17</title>
<path fill="none" stroke="midnightblue" d="M1099.69,-172.58C1143.75,-162.081 1208.21,-146.72 1248.8,-137.047"/>
<polygon fill="midnightblue" stroke="midnightblue" points="1098.7,-169.218 1089.78,-174.94 1100.32,-176.027 1098.7,-169.218"/>
</g>
<!-- Node19 -->
<g id="node19" class="node"><title>Node19</title>
<g id="a_node19"><a xlink:href="windows_2_sys_local_a_p_i_manager_8hpp.html" target="_top" xlink:title=" ">
<polygon fill="white" stroke="black" points="1033.22,-117 1033.22,-137 1164.3,-137 1164.3,-117 1033.22,-117"/>
<text text-anchor="middle" x="1098.76" y="-123" font-family="Helvetica,sans-Serif" font-size="10.00">SysLocalAPIManager.hpp</text>
</a>
</g>
</g>
<!-- Node16&#45;&gt;Node19 -->
<g id="edge27" class="edge"><title>Node16&#45;&gt;Node19</title>
<path fill="none" stroke="midnightblue" d="M1066.18,-166.818C1074.42,-157.003 1084.42,-145.093 1091.15,-137.075"/>
<polygon fill="midnightblue" stroke="midnightblue" points="1063.27,-164.843 1059.52,-174.753 1068.63,-169.343 1063.27,-164.843"/>
</g>
<!-- Node16&#45;&gt;Node9 -->
<g id="edge29" class="edge"><title>Node16&#45;&gt;Node9</title>
<path fill="none" stroke="midnightblue" d="M1032.74,-168.169C1003.65,-143.963 949.042,-98.5239 925.747,-79.1394"/>
<polygon fill="midnightblue" stroke="midnightblue" points="1030.63,-170.965 1040.55,-174.671 1035.1,-165.584 1030.63,-170.965"/>
</g>
<!-- Node16&#45;&gt;Node5 -->
<g id="edge30" class="edge"><title>Node16&#45;&gt;Node5</title>
<path fill="none" stroke="midnightblue" d="M977.123,-175.346C880.378,-164.129 713.741,-144.809 626.241,-134.664"/>
<polygon fill="midnightblue" stroke="midnightblue" points="976.789,-178.831 987.125,-176.506 977.595,-171.877 976.789,-178.831"/>
</g>
<!-- Node18 -->
<g id="node18" class="node"><title>Node18</title>
<g id="a_node18"><a xlink:href="unix_2_sys_local_a_p_i_manager_8cpp.html" target="_top" xlink:title=" ">
<polygon fill="white" stroke="black" points="1221.51,-59 1221.51,-79 1352.02,-79 1352.02,-59 1221.51,-59"/>
<text text-anchor="middle" x="1286.76" y="-65" font-family="Helvetica,sans-Serif" font-size="10.00">SysLocalAPIManager.cpp</text>
</a>
</g>
</g>
<!-- Node17&#45;&gt;Node18 -->
<g id="edge26" class="edge"><title>Node17&#45;&gt;Node18</title>
<path fill="none" stroke="midnightblue" d="M1286.76,-106.707C1286.76,-97.3384 1286.76,-86.5262 1286.76,-79.0752"/>
<polygon fill="midnightblue" stroke="midnightblue" points="1283.26,-106.753 1286.76,-116.753 1290.26,-106.753 1283.26,-106.753"/>
</g>
<!-- Node19&#45;&gt;Node8 -->
<g id="edge28" class="edge"><title>Node19&#45;&gt;Node8</title>
<path fill="none" stroke="midnightblue" d="M1087.02,-108.22C1080.61,-98.5235 1072.95,-86.9312 1067.76,-79.0752"/>
<polygon fill="midnightblue" stroke="midnightblue" points="1084.22,-110.339 1092.65,-116.753 1090.06,-106.48 1084.22,-110.339"/>
</g>
</g>
</svg>
