<?xml version="1.0" encoding="UTF-8" standalone="no"?>
<!DOCTYPE svg PUBLIC "-//W3C//DTD SVG 1.1//EN"
 "http://www.w3.org/Graphics/SVG/1.1/DTD/svg11.dtd">
<!-- Generated by graphviz version 2.30.1 (20130222.1704)
 -->
<!-- Title: LocalQueueManager.cpp Pages: 1 -->
<svg width="1161pt" height="378pt"
 viewBox="0.00 0.00 1161.00 378.00" xmlns="http://www.w3.org/2000/svg" xmlns:xlink="http://www.w3.org/1999/xlink">
<g id="graph0" class="graph" transform="scale(1 1) rotate(0) translate(4 374)">
<title>LocalQueueManager.cpp</title>
<polygon fill="white" stroke="white" points="-4,5 -4,-374 1158,-374 1158,5 -4,5"/>
<!-- Node1 -->
<g id="node1" class="node"><title>Node1</title>
<g id="a_node1"><a xlink:title=" ">
<polygon fill="#bfbfbf" stroke="black" points="700.124,-349 700.124,-369 827.876,-369 827.876,-349 700.124,-349"/>
<text text-anchor="middle" x="764" y="-355" font-family="Helvetica,sans-Serif" font-size="10.00">LocalQueueManager.cpp</text>
</a>
</g>
</g>
<!-- Node2 -->
<g id="node2" class="node"><title>Node2</title>
<g id="a_node2"><a xlink:href="_local_queue_manager_8hpp.html" target="_top" xlink:title=" ">
<polygon fill="white" stroke="black" points="637.843,-175 637.843,-195 766.157,-195 766.157,-175 637.843,-175"/>
<text text-anchor="middle" x="702" y="-181" font-family="Helvetica,sans-Serif" font-size="10.00">LocalQueueManager.hpp</text>
</a>
</g>
</g>
<!-- Node1&#45;&gt;Node2 -->
<g id="edge1" class="edge"><title>Node1&#45;&gt;Node2</title>
<path fill="none" stroke="midnightblue" d="M760.667,-348.753C750.869,-321.571 722.02,-241.538 708.781,-204.811"/>
<polygon fill="midnightblue" stroke="midnightblue" points="712.034,-203.514 705.35,-195.293 705.448,-205.888 712.034,-203.514"/>
</g>
<!-- Node19 -->
<g id="node19" class="node"><title>Node19</title>
<g id="a_node19"><a xlink:href="_encodings_8hpp.html" target="_top" xlink:title=" ">
<polygon fill="white" stroke="black" points="791.919,-291 791.919,-311 874.081,-311 874.081,-291 791.919,-291"/>
<text text-anchor="middle" x="833" y="-297" font-family="Helvetica,sans-Serif" font-size="10.00">Encodings.hpp</text>
</a>
</g>
</g>
<!-- Node1&#45;&gt;Node19 -->
<g id="edge24" class="edge"><title>Node1&#45;&gt;Node19</title>
<path fill="none" stroke="midnightblue" d="M775.394,-348.753C785.844,-340.272 801.527,-327.543 813.893,-317.507"/>
<polygon fill="midnightblue" stroke="midnightblue" points="816.259,-320.095 821.818,-311.075 811.848,-314.659 816.259,-320.095"/>
</g>
<!-- Node20 -->
<g id="node20" class="node"><title>Node20</title>
<g id="a_node20"><a xlink:href="_local_a_p_i_manager_8hpp.html" target="_top" xlink:title=" ">
<polygon fill="white" stroke="black" points="426.796,-291 426.796,-311 541.204,-311 541.204,-291 426.796,-291"/>
<text text-anchor="middle" x="484" y="-297" font-family="Helvetica,sans-Serif" font-size="10.00">LocalAPIManager.hpp</text>
</a>
</g>
</g>
<!-- Node1&#45;&gt;Node20 -->
<g id="edge25" class="edge"><title>Node1&#45;&gt;Node20</title>
<path fill="none" stroke="midnightblue" d="M718.702,-348.94C669.7,-339.14 591.559,-323.512 539.051,-313.01"/>
<polygon fill="midnightblue" stroke="midnightblue" points="539.725,-309.576 529.233,-311.047 538.352,-316.44 539.725,-309.576"/>
</g>
<!-- Node27 -->
<g id="node27" class="node"><title>Node27</title>
<g id="a_node27"><a xlink:title=" ">
<polygon fill="white" stroke="#bfbfbf" points="892.461,-291 892.461,-311 1023.54,-311 1023.54,-291 892.461,-291"/>
<text text-anchor="middle" x="958" y="-297" font-family="Helvetica,sans-Serif" font-size="10.00">SysLocalAPIManager.hpp</text>
</a>
</g>
</g>
<!-- Node1&#45;&gt;Node27 -->
<g id="edge46" class="edge"><title>Node1&#45;&gt;Node27</title>
<path fill="none" stroke="midnightblue" d="M795.601,-348.878C828.675,-339.331 880.735,-324.303 916.964,-313.845"/>
<polygon fill="midnightblue" stroke="midnightblue" points="918.097,-317.161 926.734,-311.025 916.155,-310.436 918.097,-317.161"/>
</g>
<!-- Node4 -->
<g id="node4" class="node"><title>Node4</title>
<g id="a_node4"><a xlink:href="rexx_8h.html" target="_top" xlink:title=" ">
<polygon fill="white" stroke="black" points="375.384,-59 375.384,-79 418.616,-79 418.616,-59 375.384,-59"/>
<text text-anchor="middle" x="397" y="-65" font-family="Helvetica,sans-Serif" font-size="10.00">rexx.h</text>
</a>
</g>
</g>
<!-- Node1&#45;&gt;Node4 -->
<g id="edge47" class="edge"><title>Node1&#45;&gt;Node4</title>
<path fill="none" stroke="midnightblue" d="M699.983,-353.788C579.356,-344.432 325.424,-317.517 269,-254 227.315,-207.075 201.328,-166.204 239,-116 254.136,-95.8292 323.534,-81.6026 365.157,-74.7143"/>
<polygon fill="midnightblue" stroke="midnightblue" points="365.771,-78.1606 375.091,-73.1219 364.663,-71.2489 365.771,-78.1606"/>
</g>
<!-- Node28 -->
<g id="node28" class="node"><title>Node28</title>
<g id="a_node28"><a xlink:href="_client_message_8hpp.html" target="_top" xlink:title=" ">
<polygon fill="white" stroke="black" points="64.1973,-175 64.1973,-195 165.803,-195 165.803,-175 64.1973,-175"/>
<text text-anchor="middle" x="115" y="-181" font-family="Helvetica,sans-Serif" font-size="10.00">ClientMessage.hpp</text>
</a>
</g>
</g>
<!-- Node1&#45;&gt;Node28 -->
<g id="edge48" class="edge"><title>Node1&#45;&gt;Node28</title>
<path fill="none" stroke="midnightblue" d="M700.076,-356.445C557.473,-352.482 222.51,-340.252 180,-312 142.719,-287.223 125.604,-234.063 118.817,-205.349"/>
<polygon fill="midnightblue" stroke="midnightblue" points="122.183,-204.357 116.637,-195.33 115.343,-205.846 122.183,-204.357"/>
</g>
<!-- Node16 -->
<g id="node16" class="node"><title>Node16</title>
<g id="a_node16"><a xlink:href="_utilities_8hpp.html" target="_top" xlink:title=" ">
<polygon fill="white" stroke="black" points="820.155,-117 820.155,-137 887.845,-137 887.845,-117 820.155,-117"/>
<text text-anchor="middle" x="854" y="-123" font-family="Helvetica,sans-Serif" font-size="10.00">Utilities.hpp</text>
</a>
</g>
</g>
<!-- Node1&#45;&gt;Node16 -->
<g id="edge51" class="edge"><title>Node1&#45;&gt;Node16</title>
<path fill="none" stroke="midnightblue" d="M766.174,-348.632C769.346,-335.398 775.667,-310.55 783,-290 802.018,-236.706 830.445,-176.197 844.881,-146.474"/>
<polygon fill="midnightblue" stroke="midnightblue" points="848.115,-147.828 849.366,-137.307 841.827,-144.752 848.115,-147.828"/>
</g>
<!-- Node29 -->
<g id="node29" class="node"><title>Node29</title>
<g id="a_node29"><a xlink:title=" ">
<polygon fill="white" stroke="#bfbfbf" points="1041.27,-291 1041.27,-311 1086.73,-311 1086.73,-291 1041.27,-291"/>
<text text-anchor="middle" x="1064" y="-297" font-family="Helvetica,sans-Serif" font-size="10.00">stdio.h</text>
</a>
</g>
</g>
<!-- Node1&#45;&gt;Node29 -->
<g id="edge52" class="edge"><title>Node1&#45;&gt;Node29</title>
<path fill="none" stroke="midnightblue" d="M828.112,-349.442C880.366,-341.91 956.187,-329.719 1030.97,-311.999"/>
<polygon fill="midnightblue" stroke="midnightblue" points="1032.13,-315.32 1041.03,-309.579 1030.49,-308.515 1032.13,-315.32"/>
</g>
<!-- Node30 -->
<g id="node30" class="node"><title>Node30</title>
<g id="a_node30"><a xlink:title=" ">
<polygon fill="white" stroke="#bfbfbf" points="1104.88,-291 1104.88,-311 1153.12,-311 1153.12,-291 1104.88,-291"/>
<text text-anchor="middle" x="1129" y="-297" font-family="Helvetica,sans-Serif" font-size="10.00">ctype.h</text>
</a>
</g>
</g>
<!-- Node1&#45;&gt;Node30 -->
<g id="edge53" class="edge"><title>Node1&#45;&gt;Node30</title>
<path fill="none" stroke="midnightblue" d="M827.945,-351.95C892.814,-345.175 996.19,-332.625 1094.77,-311.759"/>
<polygon fill="midnightblue" stroke="midnightblue" points="1095.56,-315.17 1104.6,-309.647 1094.08,-308.326 1095.56,-315.17"/>
</g>
<!-- Node3 -->
<g id="node3" class="node"><title>Node3</title>
<g id="a_node3"><a xlink:href="_local_a_p_i_subsystem_8hpp.html" target="_top" xlink:title=" ">
<polygon fill="white" stroke="black" points="462.525,-117 462.525,-137 587.475,-137 587.475,-117 462.525,-117"/>
<text text-anchor="middle" x="525" y="-123" font-family="Helvetica,sans-Serif" font-size="10.00">LocalAPISubsystem.hpp</text>
</a>
</g>
</g>
<!-- Node2&#45;&gt;Node3 -->
<g id="edge2" class="edge"><title>Node2&#45;&gt;Node3</title>
<path fill="none" stroke="midnightblue" d="M673.168,-174.878C643.251,-165.413 596.305,-150.56 563.291,-140.115"/>
<polygon fill="midnightblue" stroke="midnightblue" points="564.116,-136.705 553.526,-137.025 562.005,-143.379 564.116,-136.705"/>
</g>
<!-- Node2&#45;&gt;Node4 -->
<g id="edge10" class="edge"><title>Node2&#45;&gt;Node4</title>
<path fill="none" stroke="midnightblue" d="M702.33,-174.934C702.33,-160.201 700.006,-131.186 683,-116 664.223,-99.2333 499.87,-80.5551 429.141,-73.2118"/>
<polygon fill="midnightblue" stroke="midnightblue" points="429.327,-69.7125 419.021,-72.1723 428.611,-76.6759 429.327,-69.7125"/>
</g>
<!-- Node11 -->
<g id="node11" class="node"><title>Node11</title>
<g id="a_node11"><a xlink:href="_rxstring_8hpp.html" target="_top" xlink:title=" ">
<polygon fill="white" stroke="black" points="729.931,-117 729.931,-137 802.069,-137 802.069,-117 729.931,-117"/>
<text text-anchor="middle" x="766" y="-123" font-family="Helvetica,sans-Serif" font-size="10.00">Rxstring.hpp</text>
</a>
</g>
</g>
<!-- Node2&#45;&gt;Node11 -->
<g id="edge11" class="edge"><title>Node2&#45;&gt;Node11</title>
<path fill="none" stroke="midnightblue" d="M712.568,-174.753C722.168,-166.353 736.529,-153.787 747.946,-143.798"/>
<polygon fill="midnightblue" stroke="midnightblue" points="750.407,-146.294 755.628,-137.075 745.798,-141.026 750.407,-146.294"/>
</g>
<!-- Node13 -->
<g id="node13" class="node"><title>Node13</title>
<g id="a_node13"><a xlink:href="_service_message_8hpp.html" target="_top" xlink:title=" ">
<polygon fill="white" stroke="black" points="259.308,-117 259.308,-137 368.692,-137 368.692,-117 259.308,-117"/>
<text text-anchor="middle" x="314" y="-123" font-family="Helvetica,sans-Serif" font-size="10.00">ServiceMessage.hpp</text>
</a>
</g>
</g>
<!-- Node2&#45;&gt;Node13 -->
<g id="edge15" class="edge"><title>Node2&#45;&gt;Node13</title>
<path fill="none" stroke="midnightblue" d="M639.23,-174.94C567.637,-164.607 451.158,-147.796 378.75,-137.345"/>
<polygon fill="midnightblue" stroke="midnightblue" points="379.232,-133.879 368.835,-135.914 378.232,-140.807 379.232,-133.879"/>
</g>
<!-- Node2&#45;&gt;Node16 -->
<g id="edge20" class="edge"><title>Node2&#45;&gt;Node16</title>
<path fill="none" stroke="midnightblue" d="M726.76,-174.878C752.044,-165.563 791.491,-151.03 819.76,-140.615"/>
<polygon fill="midnightblue" stroke="midnightblue" points="821.077,-143.859 829.251,-137.118 818.657,-137.291 821.077,-143.859"/>
</g>
<!-- Node3&#45;&gt;Node4 -->
<g id="edge3" class="edge"><title>Node3&#45;&gt;Node4</title>
<path fill="none" stroke="midnightblue" d="M504.15,-116.878C483.23,-107.725 450.796,-93.5357 427.09,-83.1643"/>
<polygon fill="midnightblue" stroke="midnightblue" points="428.406,-79.9198 417.841,-79.1181 425.6,-86.3329 428.406,-79.9198"/>
</g>
<!-- Node9 -->
<g id="node9" class="node"><title>Node9</title>
<g id="a_node9"><a xlink:href="_service_exception_8hpp.html" target="_top" xlink:title=" ">
<polygon fill="white" stroke="black" points="499.638,-59 499.638,-79 612.362,-79 612.362,-59 499.638,-59"/>
<text text-anchor="middle" x="556" y="-65" font-family="Helvetica,sans-Serif" font-size="10.00">ServiceException.hpp</text>
</a>
</g>
</g>
<!-- Node3&#45;&gt;Node9 -->
<g id="edge8" class="edge"><title>Node3&#45;&gt;Node9</title>
<path fill="none" stroke="midnightblue" d="M530.119,-116.753C534.453,-108.924 540.79,-97.4761 546.109,-87.8679"/>
<polygon fill="midnightblue" stroke="midnightblue" points="549.195,-89.5193 550.976,-79.0752 543.071,-86.129 549.195,-89.5193"/>
</g>
<!-- Node5 -->
<g id="node5" class="node"><title>Node5</title>
<g id="a_node5"><a xlink:title=" ">
<polygon fill="white" stroke="#bfbfbf" points="463.761,-1 463.761,-21 544.239,-21 544.239,-1 463.761,-1"/>
<text text-anchor="middle" x="504" y="-7" font-family="Helvetica,sans-Serif" font-size="10.00">rexxapitypes.h</text>
</a>
</g>
</g>
<!-- Node4&#45;&gt;Node5 -->
<g id="edge4" class="edge"><title>Node4&#45;&gt;Node5</title>
<path fill="none" stroke="midnightblue" d="M414.669,-58.7527C431.808,-49.7826 458.028,-36.0601 477.635,-25.7986"/>
<polygon fill="midnightblue" stroke="midnightblue" points="479.423,-28.8132 486.66,-21.0752 476.177,-22.6112 479.423,-28.8132"/>
</g>
<!-- Node6 -->
<g id="node6" class="node"><title>Node6</title>
<g id="a_node6"><a xlink:href="rexxapidefs_8h.html" target="_top" xlink:title=" ">
<polygon fill="white" stroke="black" points="138.261,-1 138.261,-21 213.739,-21 213.739,-1 138.261,-1"/>
<text text-anchor="middle" x="176" y="-7" font-family="Helvetica,sans-Serif" font-size="10.00">rexxapidefs.h</text>
</a>
</g>
</g>
<!-- Node4&#45;&gt;Node6 -->
<g id="edge5" class="edge"><title>Node4&#45;&gt;Node6</title>
<path fill="none" stroke="midnightblue" d="M375.002,-62.4258C339.401,-53.4049 268.432,-35.4217 221.583,-23.5506"/>
<polygon fill="midnightblue" stroke="midnightblue" points="222.237,-20.1057 211.684,-21.0421 220.518,-26.8912 222.237,-20.1057"/>
</g>
<!-- Node7 -->
<g id="node7" class="node"><title>Node7</title>
<g id="a_node7"><a xlink:title=" ">
<polygon fill="white" stroke="#bfbfbf" points="231.872,-1 231.872,-21 330.128,-21 330.128,-1 231.872,-1"/>
<text text-anchor="middle" x="281" y="-7" font-family="Helvetica,sans-Serif" font-size="10.00">rexxplatformdefs.h</text>
</a>
</g>
</g>
<!-- Node4&#45;&gt;Node7 -->
<g id="edge6" class="edge"><title>Node4&#45;&gt;Node7</title>
<path fill="none" stroke="midnightblue" d="M378.104,-58.878C359.398,-49.8475 330.534,-35.9132 309.132,-25.5812"/>
<polygon fill="midnightblue" stroke="midnightblue" points="310.415,-22.3137 299.887,-21.1181 307.371,-28.6176 310.415,-22.3137"/>
</g>
<!-- Node8 -->
<g id="node8" class="node"><title>Node8</title>
<g id="a_node8"><a xlink:title=" ">
<polygon fill="white" stroke="#bfbfbf" points="348.15,-1 348.15,-21 445.85,-21 445.85,-1 348.15,-1"/>
<text text-anchor="middle" x="397" y="-7" font-family="Helvetica,sans-Serif" font-size="10.00">rexxplatformapis.h</text>
</a>
</g>
</g>
<!-- Node4&#45;&gt;Node8 -->
<g id="edge7" class="edge"><title>Node4&#45;&gt;Node8</title>
<path fill="none" stroke="midnightblue" d="M397,-58.7527C397,-51.2504 397,-40.4238 397,-31.0781"/>
<polygon fill="midnightblue" stroke="midnightblue" points="400.5,-31.0752 397,-21.0752 393.5,-31.0752 400.5,-31.0752"/>
</g>
<!-- Node10 -->
<g id="node10" class="node"><title>Node10</title>
<g id="a_node10"><a xlink:title=" ">
<polygon fill="white" stroke="#bfbfbf" points="562.604,-1 562.604,-21 611.396,-21 611.396,-1 562.604,-1"/>
<text text-anchor="middle" x="587" y="-7" font-family="Helvetica,sans-Serif" font-size="10.00">string.h</text>
</a>
</g>
</g>
<!-- Node9&#45;&gt;Node10 -->
<g id="edge9" class="edge"><title>Node9&#45;&gt;Node10</title>
<path fill="none" stroke="midnightblue" d="M561.119,-58.7527C565.453,-50.9242 571.79,-39.4761 577.109,-29.8679"/>
<polygon fill="midnightblue" stroke="midnightblue" points="580.195,-31.5193 581.976,-21.0752 574.071,-28.129 580.195,-31.5193"/>
</g>
<!-- Node11&#45;&gt;Node4 -->
<g id="edge12" class="edge"><title>Node11&#45;&gt;Node4</title>
<path fill="none" stroke="midnightblue" d="M729.722,-118.505C725.11,-117.622 720.449,-116.765 716,-116 611.351,-98.0035 486.559,-81.4108 428.993,-74.0299"/>
<polygon fill="midnightblue" stroke="midnightblue" points="429.087,-70.5135 418.724,-72.7197 428.201,-77.4573 429.087,-70.5135"/>
</g>
<!-- Node11&#45;&gt;Node9 -->
<g id="edge13" class="edge"><title>Node11&#45;&gt;Node9</title>
<path fill="none" stroke="midnightblue" d="M731.792,-116.878C695.762,-107.27 638.914,-92.1104 599.668,-81.6449"/>
<polygon fill="midnightblue" stroke="midnightblue" points="600.409,-78.2202 589.845,-79.0253 598.605,-84.9838 600.409,-78.2202"/>
</g>
<!-- Node12 -->
<g id="node12" class="node"><title>Node12</title>
<g id="a_node12"><a xlink:title=" ">
<polygon fill="white" stroke="#bfbfbf" points="695.414,-59 695.414,-79 802.586,-79 802.586,-59 695.414,-59"/>
<text text-anchor="middle" x="749" y="-65" font-family="Helvetica,sans-Serif" font-size="10.00">SysAPIManager.hpp</text>
</a>
</g>
</g>
<!-- Node11&#45;&gt;Node12 -->
<g id="edge14" class="edge"><title>Node11&#45;&gt;Node12</title>
<path fill="none" stroke="midnightblue" d="M763.193,-116.753C760.891,-109.169 757.557,-98.1881 754.699,-88.7739"/>
<polygon fill="midnightblue" stroke="midnightblue" points="758.009,-87.6273 751.755,-79.0752 751.311,-89.6607 758.009,-87.6273"/>
</g>
<!-- Node13&#45;&gt;Node4 -->
<g id="edge16" class="edge"><title>Node13&#45;&gt;Node4</title>
<path fill="none" stroke="midnightblue" d="M327.706,-116.753C340.517,-108.109 359.87,-95.0518 374.87,-84.9314"/>
<polygon fill="midnightblue" stroke="midnightblue" points="377.217,-87.5696 383.549,-79.0752 373.302,-81.7669 377.217,-87.5696"/>
</g>
<!-- Node13&#45;&gt;Node9 -->
<g id="edge17" class="edge"><title>Node13&#45;&gt;Node9</title>
<path fill="none" stroke="midnightblue" d="M353.15,-116.94C395.062,-107.242 461.637,-91.836 506.998,-81.3394"/>
<polygon fill="midnightblue" stroke="midnightblue" points="507.952,-84.711 516.906,-79.0466 506.374,-77.8912 507.952,-84.711"/>
</g>
<!-- Node14 -->
<g id="node14" class="node"><title>Node14</title>
<g id="a_node14"><a xlink:title=" ">
<polygon fill="white" stroke="#bfbfbf" points="-0.12793,-59 -0.12793,-79 98.1279,-79 98.1279,-59 -0.12793,-59"/>
<text text-anchor="middle" x="49" y="-65" font-family="Helvetica,sans-Serif" font-size="10.00">SysCSStream.hpp</text>
</a>
</g>
</g>
<!-- Node13&#45;&gt;Node14 -->
<g id="edge18" class="edge"><title>Node13&#45;&gt;Node14</title>
<path fill="none" stroke="midnightblue" d="M271.129,-116.94C224.945,-107.181 151.411,-91.6416 101.723,-81.1415"/>
<polygon fill="midnightblue" stroke="midnightblue" points="102.317,-77.6898 91.8097,-79.0466 100.87,-84.5386 102.317,-77.6898"/>
</g>
<!-- Node15 -->
<g id="node15" class="node"><title>Node15</title>
<g id="a_node15"><a xlink:title=" ">
<polygon fill="white" stroke="#bfbfbf" points="217.872,-59 217.872,-79 306.128,-79 306.128,-59 217.872,-59"/>
<text text-anchor="middle" x="262" y="-65" font-family="Helvetica,sans-Serif" font-size="10.00">SysProcess.hpp</text>
</a>
</g>
</g>
<!-- Node13&#45;&gt;Node15 -->
<g id="edge19" class="edge"><title>Node13&#45;&gt;Node15</title>
<path fill="none" stroke="midnightblue" d="M305.413,-116.753C297.841,-108.598 286.622,-96.5158 277.486,-86.6769"/>
<polygon fill="midnightblue" stroke="midnightblue" points="279.796,-84.0216 270.427,-79.0752 274.667,-88.7847 279.796,-84.0216"/>
</g>
<!-- Node16&#45;&gt;Node4 -->
<g id="edge21" class="edge"><title>Node16&#45;&gt;Node4</title>
<path fill="none" stroke="midnightblue" d="M819.806,-117.665C816.837,-117.057 813.871,-116.492 811,-116 792.168,-112.776 522.24,-83.5208 428.664,-73.415"/>
<polygon fill="midnightblue" stroke="midnightblue" points="428.973,-69.9281 418.655,-72.3345 428.222,-76.8876 428.973,-69.9281"/>
</g>
<!-- Node17 -->
<g id="node17" class="node"><title>Node17</title>
<g id="a_node17"><a xlink:title=" ">
<polygon fill="white" stroke="#bfbfbf" points="820.99,-59 820.99,-79 887.01,-79 887.01,-59 820.99,-59"/>
<text text-anchor="middle" x="854" y="-65" font-family="Helvetica,sans-Serif" font-size="10.00">sys/types.h</text>
</a>
</g>
</g>
<!-- Node16&#45;&gt;Node17 -->
<g id="edge22" class="edge"><title>Node16&#45;&gt;Node17</title>
<path fill="none" stroke="midnightblue" d="M854,-116.753C854,-109.25 854,-98.4238 854,-89.0781"/>
<polygon fill="midnightblue" stroke="midnightblue" points="857.5,-89.0752 854,-79.0752 850.5,-89.0752 857.5,-89.0752"/>
</g>
<!-- Node18 -->
<g id="node18" class="node"><title>Node18</title>
<g id="a_node18"><a xlink:title=" ">
<polygon fill="white" stroke="#bfbfbf" points="904.934,-59 904.934,-79 957.066,-79 957.066,-59 904.934,-59"/>
<text text-anchor="middle" x="931" y="-65" font-family="Helvetica,sans-Serif" font-size="10.00">stdarg.h</text>
</a>
</g>
</g>
<!-- Node16&#45;&gt;Node18 -->
<g id="edge23" class="edge"><title>Node16&#45;&gt;Node18</title>
<path fill="none" stroke="midnightblue" d="M866.715,-116.753C878.488,-108.19 896.216,-95.2978 910.074,-85.2186"/>
<polygon fill="midnightblue" stroke="midnightblue" points="912.493,-87.7875 918.522,-79.0752 908.376,-82.1264 912.493,-87.7875"/>
</g>
<!-- Node21 -->
<g id="node21" class="node"><title>Node21</title>
<g id="a_node21"><a xlink:href="_local_registration_manager_8hpp.html" target="_top" xlink:title=" ">
<polygon fill="white" stroke="black" points="278.175,-233 278.175,-253 429.825,-253 429.825,-233 278.175,-233"/>
<text text-anchor="middle" x="354" y="-239" font-family="Helvetica,sans-Serif" font-size="10.00">LocalRegistrationManager.hpp</text>
</a>
</g>
</g>
<!-- Node20&#45;&gt;Node21 -->
<g id="edge26" class="edge"><title>Node20&#45;&gt;Node21</title>
<path fill="none" stroke="midnightblue" d="M462.824,-290.878C441.577,-281.725 408.636,-267.536 384.56,-257.164"/>
<polygon fill="midnightblue" stroke="midnightblue" points="385.736,-253.86 375.167,-253.118 382.966,-260.289 385.736,-253.86"/>
</g>
<!-- Node20&#45;&gt;Node2 -->
<g id="edge34" class="edge"><title>Node20&#45;&gt;Node2</title>
<path fill="none" stroke="midnightblue" d="M486.498,-290.968C491.037,-276.284 502.062,-247.337 522,-232 540.144,-218.043 593.506,-205.421 637.453,-196.945"/>
<polygon fill="midnightblue" stroke="midnightblue" points="638.354,-200.337 647.53,-195.041 637.054,-193.459 638.354,-200.337"/>
</g>
<!-- Node23 -->
<g id="node23" class="node"><title>Node23</title>
<g id="a_node23"><a xlink:href="_local_macro_space_manager_8hpp.html" target="_top" xlink:title=" ">
<polygon fill="white" stroke="black" points="465.786,-175 465.786,-195 620.214,-195 620.214,-175 465.786,-175"/>
<text text-anchor="middle" x="543" y="-181" font-family="Helvetica,sans-Serif" font-size="10.00">LocalMacroSpaceManager.hpp</text>
</a>
</g>
</g>
<!-- Node20&#45;&gt;Node23 -->
<g id="edge35" class="edge"><title>Node20&#45;&gt;Node23</title>
<path fill="none" stroke="midnightblue" d="M482.512,-290.604C480.806,-276.902 479.363,-251.004 489,-232 495.461,-219.26 507.153,-208.621 518.009,-200.795"/>
<polygon fill="midnightblue" stroke="midnightblue" points="520.078,-203.621 526.421,-195.135 516.17,-197.814 520.078,-203.621"/>
</g>
<!-- Node20&#45;&gt;Node15 -->
<g id="edge42" class="edge"><title>Node20&#45;&gt;Node15</title>
<path fill="none" stroke="midnightblue" d="M426.596,-294.834C320.377,-283.944 99.878,-254.66 55,-196 8.57728,-135.321 132.177,-97.326 207.944,-80.3663"/>
<polygon fill="midnightblue" stroke="midnightblue" points="208.815,-83.7587 217.84,-78.209 207.324,-76.9193 208.815,-83.7587"/>
</g>
<!-- Node25 -->
<g id="node25" class="node"><title>Node25</title>
<g id="a_node25"><a xlink:title=" ">
<polygon fill="white" stroke="#bfbfbf" points="531.084,-233 531.084,-253 634.916,-253 634.916,-233 531.084,-233"/>
<text text-anchor="middle" x="583" y="-239" font-family="Helvetica,sans-Serif" font-size="10.00">SysSemaphore.hpp</text>
</a>
</g>
</g>
<!-- Node20&#45;&gt;Node25 -->
<g id="edge43" class="edge"><title>Node20&#45;&gt;Node25</title>
<path fill="none" stroke="midnightblue" d="M500.348,-290.753C516.062,-281.864 540.025,-268.309 558.11,-258.079"/>
<polygon fill="midnightblue" stroke="midnightblue" points="559.976,-261.045 566.956,-253.075 556.529,-254.952 559.976,-261.045"/>
</g>
<!-- Node20&#45;&gt;Node14 -->
<g id="edge44" class="edge"><title>Node20&#45;&gt;Node14</title>
<path fill="none" stroke="midnightblue" d="M426.629,-297.05C336.06,-291.713 164.529,-278.651 109,-254 73.0022,-238.02 58.3698,-231.822 42,-196 25.9771,-160.937 35.2879,-114.547 42.6763,-88.966"/>
<polygon fill="midnightblue" stroke="midnightblue" points="46.1227,-89.6688 45.7417,-79.0808 39.4368,-87.5954 46.1227,-89.6688"/>
</g>
<!-- Node26 -->
<g id="node26" class="node"><title>Node26</title>
<g id="a_node26"><a xlink:title=" ">
<polygon fill="white" stroke="#bfbfbf" points="652.5,-233 652.5,-253 681.5,-253 681.5,-233 652.5,-233"/>
<text text-anchor="middle" x="666.611" y="-239" font-family="Helvetica,sans-Serif" font-size="10.00">list</text>
</a>
</g>
</g>
<!-- Node20&#45;&gt;Node26 -->
<g id="edge45" class="edge"><title>Node20&#45;&gt;Node26</title>
<path fill="none" stroke="midnightblue" d="M519.413,-290.988C551.876,-282.436 601.118,-268.731 643,-254 643.096,-253.966 643.192,-253.932 643.288,-253.898"/>
<polygon fill="midnightblue" stroke="midnightblue" points="644.303,-257.258 652.379,-250.401 641.789,-250.725 644.303,-257.258"/>
</g>
<!-- Node22 -->
<g id="node22" class="node"><title>Node22</title>
<g id="a_node22"><a xlink:href="_registration_table_8hpp.html" target="_top" xlink:title=" ">
<polygon fill="white" stroke="black" points="297.636,-175 297.636,-195 410.364,-195 410.364,-175 297.636,-175"/>
<text text-anchor="middle" x="354" y="-181" font-family="Helvetica,sans-Serif" font-size="10.00">RegistrationTable.hpp</text>
</a>
</g>
</g>
<!-- Node21&#45;&gt;Node22 -->
<g id="edge27" class="edge"><title>Node21&#45;&gt;Node22</title>
<path fill="none" stroke="midnightblue" d="M354,-232.753C354,-225.25 354,-214.424 354,-205.078"/>
<polygon fill="midnightblue" stroke="midnightblue" points="357.5,-205.075 354,-195.075 350.5,-205.075 357.5,-205.075"/>
</g>
<!-- Node21&#45;&gt;Node3 -->
<g id="edge31" class="edge"><title>Node21&#45;&gt;Node3</title>
<path fill="none" stroke="midnightblue" d="M367.705,-232.864C397.221,-213.186 467.027,-166.649 502.889,-142.741"/>
<polygon fill="midnightblue" stroke="midnightblue" points="504.851,-145.639 511.23,-137.18 500.968,-139.815 504.851,-145.639"/>
</g>
<!-- Node21&#45;&gt;Node13 -->
<g id="edge32" class="edge"><title>Node21&#45;&gt;Node13</title>
<path fill="none" stroke="midnightblue" d="M331.857,-232.973C316.766,-225.509 297.958,-213.313 289,-196 280.465,-179.505 290.093,-159.416 299.771,-145.366"/>
<polygon fill="midnightblue" stroke="midnightblue" points="302.763,-147.209 305.947,-137.104 297.156,-143.018 302.763,-147.209"/>
</g>
<!-- Node21&#45;&gt;Node4 -->
<g id="edge33" class="edge"><title>Node21&#45;&gt;Node4</title>
<path fill="none" stroke="midnightblue" d="M336.142,-232.96C298.368,-212.647 216.491,-161.598 250,-116 263.679,-97.3869 325.84,-82.9468 364.819,-75.524"/>
<polygon fill="midnightblue" stroke="midnightblue" points="365.94,-78.8762 375.139,-73.6189 364.669,-71.9926 365.94,-78.8762"/>
</g>
<!-- Node22&#45;&gt;Node4 -->
<g id="edge28" class="edge"><title>Node22&#45;&gt;Node4</title>
<path fill="none" stroke="midnightblue" d="M359.26,-174.709C364.284,-165.573 371.835,-151.128 377,-138 383.328,-121.917 388.733,-103.013 392.322,-89.2242"/>
<polygon fill="midnightblue" stroke="midnightblue" points="395.744,-89.9669 394.795,-79.4147 388.957,-88.2559 395.744,-89.9669"/>
</g>
<!-- Node22&#45;&gt;Node13 -->
<g id="edge29" class="edge"><title>Node22&#45;&gt;Node13</title>
<path fill="none" stroke="midnightblue" d="M347.395,-174.753C341.687,-166.761 333.284,-154.998 326.336,-145.27"/>
<polygon fill="midnightblue" stroke="midnightblue" points="329.143,-143.178 320.482,-137.075 323.447,-147.247 329.143,-143.178"/>
</g>
<!-- Node22&#45;&gt;Node16 -->
<g id="edge30" class="edge"><title>Node22&#45;&gt;Node16</title>
<path fill="none" stroke="midnightblue" d="M410.747,-178.484C520.036,-167.835 753.328,-144.974 809.795,-137.781"/>
<polygon fill="midnightblue" stroke="midnightblue" points="810.399,-141.231 819.812,-136.367 809.421,-134.299 810.399,-141.231"/>
</g>
<!-- Node23&#45;&gt;Node3 -->
<g id="edge36" class="edge"><title>Node23&#45;&gt;Node3</title>
<path fill="none" stroke="midnightblue" d="M540.028,-174.753C537.59,-167.169 534.06,-156.188 531.034,-146.774"/>
<polygon fill="midnightblue" stroke="midnightblue" points="534.309,-145.524 527.917,-137.075 527.645,-147.667 534.309,-145.524"/>
</g>
<!-- Node23&#45;&gt;Node13 -->
<g id="edge37" class="edge"><title>Node23&#45;&gt;Node13</title>
<path fill="none" stroke="midnightblue" d="M505.953,-174.94C466.459,-165.283 403.823,-149.965 360.912,-139.472"/>
<polygon fill="midnightblue" stroke="midnightblue" points="361.539,-136.022 350.994,-137.047 359.876,-142.822 361.539,-136.022"/>
</g>
<!-- Node23&#45;&gt;Node4 -->
<g id="edge38" class="edge"><title>Node23&#45;&gt;Node4</title>
<path fill="none" stroke="midnightblue" d="M519.574,-174.937C500.702,-166.949 474.095,-154.088 454,-138 435.875,-123.49 419.335,-102.495 408.796,-87.6806"/>
<polygon fill="midnightblue" stroke="midnightblue" points="411.615,-85.6033 403.049,-79.3685 405.857,-89.5844 411.615,-85.6033"/>
</g>
<!-- Node23&#45;&gt;Node11 -->
<g id="edge39" class="edge"><title>Node23&#45;&gt;Node11</title>
<path fill="none" stroke="midnightblue" d="M579.325,-174.878C617.749,-165.229 678.466,-149.982 720.158,-139.512"/>
<polygon fill="midnightblue" stroke="midnightblue" points="721.214,-142.856 730.06,-137.025 719.509,-136.066 721.214,-142.856"/>
</g>
<!-- Node23&#45;&gt;Node16 -->
<g id="edge40" class="edge"><title>Node23&#45;&gt;Node16</title>
<path fill="none" stroke="midnightblue" d="M601.474,-174.974C653.658,-166.69 732.377,-153.632 809.841,-138.15"/>
<polygon fill="midnightblue" stroke="midnightblue" points="810.66,-141.556 819.772,-136.15 809.278,-134.693 810.66,-141.556"/>
</g>
<!-- Node24 -->
<g id="node24" class="node"><title>Node24</title>
<g id="a_node24"><a xlink:title=" ">
<polygon fill="white" stroke="#bfbfbf" points="605.877,-117 605.877,-137 674.123,-137 674.123,-117 605.877,-117"/>
<text text-anchor="middle" x="640" y="-123" font-family="Helvetica,sans-Serif" font-size="10.00">SysFile.hpp</text>
</a>
</g>
</g>
<!-- Node23&#45;&gt;Node24 -->
<g id="edge41" class="edge"><title>Node23&#45;&gt;Node24</title>
<path fill="none" stroke="midnightblue" d="M559.018,-174.753C574.414,-165.864 597.893,-152.309 615.613,-142.079"/>
<polygon fill="midnightblue" stroke="midnightblue" points="617.37,-145.106 624.28,-137.075 613.87,-139.044 617.37,-145.106"/>
</g>
<!-- Node28&#45;&gt;Node4 -->
<g id="edge49" class="edge"><title>Node28&#45;&gt;Node4</title>
<path fill="none" stroke="midnightblue" d="M120.842,-174.84C130.837,-159.973 152.71,-130.769 179,-116 210.55,-98.2765 312.438,-81.8874 364.99,-74.3502"/>
<polygon fill="midnightblue" stroke="midnightblue" points="365.698,-77.7851 375.11,-72.9209 364.719,-70.8539 365.698,-77.7851"/>
</g>
<!-- Node28&#45;&gt;Node13 -->
<g id="edge50" class="edge"><title>Node28&#45;&gt;Node13</title>
<path fill="none" stroke="midnightblue" d="M147.416,-174.878C181.341,-165.331 234.744,-150.303 271.906,-139.845"/>
<polygon fill="midnightblue" stroke="midnightblue" points="273.25,-143.103 281.928,-137.025 271.354,-136.365 273.25,-143.103"/>
</g>
</g>
</svg>
