<?xml version="1.0" encoding="UTF-8" standalone="no"?>
<!DOCTYPE svg PUBLIC "-//W3C//DTD SVG 1.1//EN"
 "http://www.w3.org/Graphics/SVG/1.1/DTD/svg11.dtd">
<!-- Generated by graphviz version 2.30.1 (20130222.1704)
 -->
<!-- Title: ParseInstruction.hpp Pages: 1 -->
<svg width="492pt" height="88pt"
 viewBox="0.00 0.00 492.00 88.00" xmlns="http://www.w3.org/2000/svg" xmlns:xlink="http://www.w3.org/1999/xlink">
<g id="graph0" class="graph" transform="scale(1 1) rotate(0) translate(4 84)">
<title>ParseInstruction.hpp</title>
<polygon fill="white" stroke="white" points="-4,5 -4,-84 489,-84 489,5 -4,5"/>
<!-- Node1 -->
<g id="node1" class="node"><title>Node1</title>
<g id="a_node1"><a xlink:title=" ">
<polygon fill="#bfbfbf" stroke="black" points="173.141,-59 173.141,-79 280.859,-79 280.859,-59 173.141,-59"/>
<text text-anchor="middle" x="227" y="-65" font-family="Helvetica,sans-Serif" font-size="10.00">ParseInstruction.hpp</text>
</a>
</g>
</g>
<!-- Node2 -->
<g id="node2" class="node"><title>Node2</title>
<g id="a_node2"><a xlink:href="_parse_instruction_8cpp.html" target="_top" xlink:title=" ">
<polygon fill="white" stroke="black" points="-0.578613,-1 -0.578613,-21 106.579,-21 106.579,-1 -0.578613,-1"/>
<text text-anchor="middle" x="53" y="-7" font-family="Helvetica,sans-Serif" font-size="10.00">ParseInstruction.cpp</text>
</a>
</g>
</g>
<!-- Node1&#45;&gt;Node2 -->
<g id="edge1" class="edge"><title>Node1&#45;&gt;Node2</title>
<path fill="none" stroke="midnightblue" d="M189.026,-55.7784C156.478,-45.3032 110.339,-30.4538 81.0429,-21.0253"/>
<polygon fill="midnightblue" stroke="midnightblue" points="188.065,-59.146 198.657,-58.878 190.21,-52.4826 188.065,-59.146"/>
</g>
<!-- Node3 -->
<g id="node3" class="node"><title>Node3</title>
<g id="a_node3"><a xlink:href="_parse_target_8cpp.html" target="_top" xlink:title=" ">
<polygon fill="white" stroke="black" points="124.591,-1 124.591,-21 213.409,-21 213.409,-1 124.591,-1"/>
<text text-anchor="middle" x="169" y="-7" font-family="Helvetica,sans-Serif" font-size="10.00">ParseTarget.cpp</text>
</a>
</g>
</g>
<!-- Node1&#45;&gt;Node3 -->
<g id="edge2" class="edge"><title>Node1&#45;&gt;Node3</title>
<path fill="none" stroke="midnightblue" d="M210.122,-51.704C199.79,-41.7286 186.955,-29.3361 178.399,-21.0752"/>
<polygon fill="midnightblue" stroke="midnightblue" points="207.797,-54.3247 217.422,-58.7527 212.66,-49.2888 207.797,-54.3247"/>
</g>
<!-- Node4 -->
<g id="node4" class="node"><title>Node4</title>
<g id="a_node4"><a xlink:href="_instruction_parser_8cpp.html" target="_top" xlink:title=" ">
<polygon fill="white" stroke="black" points="231.03,-1 231.03,-21 340.97,-21 340.97,-1 231.03,-1"/>
<text text-anchor="middle" x="286" y="-7" font-family="Helvetica,sans-Serif" font-size="10.00">InstructionParser.cpp</text>
</a>
</g>
</g>
<!-- Node1&#45;&gt;Node4 -->
<g id="edge3" class="edge"><title>Node1&#45;&gt;Node4</title>
<path fill="none" stroke="midnightblue" d="M244.169,-51.704C254.679,-41.7286 267.735,-29.3361 276.439,-21.0752"/>
<polygon fill="midnightblue" stroke="midnightblue" points="241.586,-49.3299 236.743,-58.7527 246.405,-54.407 241.586,-49.3299"/>
</g>
<!-- Node5 -->
<g id="node5" class="node"><title>Node5</title>
<g id="a_node5"><a xlink:href="_virtual_function_table_8cpp.html" target="_top" xlink:title=" ">
<polygon fill="white" stroke="black" points="359.334,-1 359.334,-21 484.666,-21 484.666,-1 359.334,-1"/>
<text text-anchor="middle" x="422" y="-7" font-family="Helvetica,sans-Serif" font-size="10.00">VirtualFunctionTable.cpp</text>
</a>
</g>
</g>
<!-- Node1&#45;&gt;Node5 -->
<g id="edge4" class="edge"><title>Node1&#45;&gt;Node5</title>
<path fill="none" stroke="midnightblue" d="M268.618,-56.0483C305.141,-45.5596 357.458,-30.5351 390.573,-21.0253"/>
<polygon fill="midnightblue" stroke="midnightblue" points="267.41,-52.7537 258.764,-58.878 269.342,-59.4817 267.41,-52.7537"/>
</g>
</g>
</svg>
