<?xml version="1.0" encoding="UTF-8" standalone="no"?>
<!DOCTYPE svg PUBLIC "-//W3C//DTD SVG 1.1//EN"
 "http://www.w3.org/Graphics/SVG/1.1/DTD/svg11.dtd">
<!-- Generated by graphviz version 2.30.1 (20130222.1704)
 -->
<!-- Title: ProcedureInstruction.cpp Pages: 1 -->
<!--zoomable 436 -->
<svg id="main" version="1.1" xmlns="http://www.w3.org/2000/svg" xmlns:xlink="http://www.w3.org/1999/xlink" xml:space="preserve" onload="init(evt)">
<style type="text/css"><![CDATA[
.edge:hover path { stroke: red; }
.edge:hover polygon { stroke: red; fill: red; }
]]></style>
<script type="text/javascript"><![CDATA[
var edges = document.getElementsByTagName('g');
if (edges && edges.length) {
  for (var i=0;i<edges.length;i++) {
    if (edges[i].id.substr(0,4)=='edge') {
      edges[i].setAttribute('class','edge');
    }
  }
}
]]></script>
        <defs>
                <circle id="rim" cx="0" cy="0" r="7"/>
                <circle id="rim2" cx="0" cy="0" r="3.5"/>
                <g id="zoomPlus">
                        <use xlink:href="#rim" fill="#404040">
                                <set attributeName="fill" to="#808080" begin="zoomplus.mouseover" end="zoomplus.mouseout"/>
                        </use>
                        <path d="M-4,0h8M0,-4v8" fill="none" stroke="white" stroke-width="1.5" pointer-events="none"/>
                </g>
                <g id="zoomMin">
                        <use xlink:href="#rim" fill="#404040">
                                <set attributeName="fill" to="#808080" begin="zoomminus.mouseover" end="zoomminus.mouseout"/>
                        </use>
                        <path d="M-4,0h8" fill="none" stroke="white" stroke-width="1.5" pointer-events="none"/>
                </g>
                <g id="dirArrow">
                        <path fill="none" stroke="white" stroke-width="1.5" d="M0,-3.0v7 M-2.5,-0.5L0,-3.0L2.5,-0.5"/>
                </g>
               <g id="resetDef">
                       <use xlink:href="#rim2" fill="#404040">
                               <set attributeName="fill" to="#808080" begin="reset.mouseover" end="reset.mouseout"/>
                       </use>
               </g>
        </defs>

<script type="text/javascript">
var viewWidth = 2249;
var viewHeight = 436;
var sectionId = 'dynsection-0';
</script>
<script xlink:href="svgpan.js"/>
<svg id="graph" class="graph">
<g id="viewport">
<title>ProcedureInstruction.cpp</title>
<polygon fill="white" stroke="white" points="-4,5 -4,-432 2246,-432 2246,5 -4,5"/>
<!-- Node1 -->
<g id="node1" class="node"><title>Node1</title>
<g id="a_node1"><a xlink:title=" ">
<polygon fill="#bfbfbf" stroke="black" points="772.414,-407 772.414,-427 899.586,-427 899.586,-407 772.414,-407"/>
<text text-anchor="middle" x="836" y="-413" font-family="Helvetica,sans-Serif" font-size="10.00">ProcedureInstruction.cpp</text>
</a>
</g>
</g>
<!-- Node2 -->
<g id="node2" class="node"><title>Node2</title>
<g id="a_node2"><a xlink:title=" ">
<polygon fill="white" stroke="#bfbfbf" points="35.1577,-349 35.1577,-369 82.8423,-369 82.8423,-349 35.1577,-349"/>
<text text-anchor="middle" x="59" y="-355" font-family="Helvetica,sans-Serif" font-size="10.00">stdlib.h</text>
</a>
</g>
</g>
<!-- Node1&#45;&gt;Node2 -->
<g id="edge1" class="edge"><title>Node1&#45;&gt;Node2</title>
<path fill="none" stroke="midnightblue" d="M772.273,-416.201C643.717,-415.692 344.475,-409.873 97,-370 95.7119,-369.792 94.4042,-369.56 93.087,-369.308"/>
<polygon fill="midnightblue" stroke="midnightblue" points="93.4918,-365.813 82.9712,-367.064 91.9761,-372.647 93.4918,-365.813"/>
</g>
<!-- Node3 -->
<g id="node3" class="node"><title>Node3</title>
<g id="a_node3"><a xlink:href="_rexx_core_8h.html" target="_top" xlink:title=" ">
<polygon fill="white" stroke="black" points="1130.6,-233 1130.6,-253 1199.4,-253 1199.4,-233 1130.6,-233"/>
<text text-anchor="middle" x="1165" y="-239" font-family="Helvetica,sans-Serif" font-size="10.00">RexxCore.h</text>
</a>
</g>
</g>
<!-- Node1&#45;&gt;Node3 -->
<g id="edge2" class="edge"><title>Node1&#45;&gt;Node3</title>
<path fill="none" stroke="midnightblue" d="M853.225,-406.995C907.176,-378.789 1073.16,-292.012 1138.34,-257.939"/>
<polygon fill="midnightblue" stroke="midnightblue" points="1140.31,-260.858 1147.55,-253.124 1137.06,-254.655 1140.31,-260.858"/>
</g>
<!-- Node69 -->
<g id="node41" class="node"><title>Node69</title>
<g id="a_node41"><a xlink:href="_queue_class_8hpp.html" target="_top" xlink:title=" ">
<polygon fill="white" stroke="black" points="20.7539,-233 20.7539,-253 111.246,-253 111.246,-233 20.7539,-233"/>
<text text-anchor="middle" x="66" y="-239" font-family="Helvetica,sans-Serif" font-size="10.00">QueueClass.hpp</text>
</a>
</g>
</g>
<!-- Node1&#45;&gt;Node69 -->
<g id="edge44" class="edge"><title>Node1&#45;&gt;Node69</title>
<path fill="none" stroke="midnightblue" d="M772.259,-411.882C621.167,-401.277 245.644,-369.736 135,-312 111.816,-299.902 91.3409,-277.416 78.8364,-261.622"/>
<polygon fill="midnightblue" stroke="midnightblue" points="81.2813,-259.056 72.4348,-253.226 75.7147,-263.3 81.2813,-259.056"/>
</g>
<!-- Node70 -->
<g id="node42" class="node"><title>Node70</title>
<g id="a_node42"><a xlink:href="_rexx_activation_8hpp.html" target="_top" xlink:title=" ">
<polygon fill="white" stroke="black" points="456.2,-349 456.2,-369 557.8,-369 557.8,-349 456.2,-349"/>
<text text-anchor="middle" x="507" y="-355" font-family="Helvetica,sans-Serif" font-size="10.00">RexxActivation.hpp</text>
</a>
</g>
</g>
<!-- Node1&#45;&gt;Node70 -->
<g id="edge46" class="edge"><title>Node1&#45;&gt;Node70</title>
<path fill="none" stroke="midnightblue" d="M782.775,-406.94C724.03,-396.941 629.643,-380.875 567.968,-370.378"/>
<polygon fill="midnightblue" stroke="midnightblue" points="568.43,-366.906 557.984,-368.678 567.255,-373.807 568.43,-366.906"/>
</g>
<!-- Node83 -->
<g id="node48" class="node"><title>Node83</title>
<g id="a_node48"><a xlink:href="_procedure_instruction_8hpp.html" target="_top" xlink:title=" ">
<polygon fill="white" stroke="black" points="1193.13,-349 1193.13,-369 1320.87,-369 1320.87,-349 1193.13,-349"/>
<text text-anchor="middle" x="1257" y="-355" font-family="Helvetica,sans-Serif" font-size="10.00">ProcedureInstruction.hpp</text>
</a>
</g>
</g>
<!-- Node1&#45;&gt;Node83 -->
<g id="edge57" class="edge"><title>Node1&#45;&gt;Node83</title>
<path fill="none" stroke="midnightblue" d="M899.941,-407.495C975.935,-397.386 1102.52,-380.548 1182.77,-369.874"/>
<polygon fill="midnightblue" stroke="midnightblue" points="1183.35,-373.327 1192.8,-368.539 1182.43,-366.388 1183.35,-373.327"/>
</g>
<!-- Node61 -->
<g id="node50" class="node"><title>Node61</title>
<g id="a_node50"><a xlink:href="_expression_base_variable_8hpp.html" target="_top" xlink:title=" ">
<polygon fill="white" stroke="black" points="1339.16,-349 1339.16,-369 1482.84,-369 1482.84,-349 1339.16,-349"/>
<text text-anchor="middle" x="1411" y="-355" font-family="Helvetica,sans-Serif" font-size="10.00">ExpressionBaseVariable.hpp</text>
</a>
</g>
</g>
<!-- Node1&#45;&gt;Node61 -->
<g id="edge59" class="edge"><title>Node1&#45;&gt;Node61</title>
<path fill="none" stroke="midnightblue" d="M899.876,-410.622C993.924,-402.571 1175.16,-386.555 1329,-370 1329.1,-369.989 1329.21,-369.978 1329.31,-369.967"/>
<polygon fill="midnightblue" stroke="midnightblue" points="1329.46,-373.471 1339.02,-368.895 1328.69,-366.513 1329.46,-373.471"/>
</g>
<!-- Node4 -->
<g id="node4" class="node"><title>Node4</title>
<g id="a_node4"><a xlink:href="oorexxapi_8h.html" target="_top" xlink:title=" ">
<polygon fill="white" stroke="black" points="1863.15,-175 1863.15,-195 1930.85,-195 1930.85,-175 1863.15,-175"/>
<text text-anchor="middle" x="1897" y="-181" font-family="Helvetica,sans-Serif" font-size="10.00">oorexxapi.h</text>
</a>
</g>
</g>
<!-- Node3&#45;&gt;Node4 -->
<g id="edge3" class="edge"><title>Node3&#45;&gt;Node4</title>
<path fill="none" stroke="midnightblue" d="M1199.5,-234.17C1204.03,-233.332 1208.61,-232.577 1213,-232 1492.59,-195.234 1569.74,-235.501 1852.68,-195.947"/>
<polygon fill="midnightblue" stroke="midnightblue" points="1853.42,-199.376 1862.83,-194.506 1852.44,-192.446 1853.42,-199.376"/>
</g>
<!-- Node11 -->
<g id="node7" class="node"><title>Node11</title>
<g id="a_node7"><a xlink:title=" ">
<polygon fill="white" stroke="#bfbfbf" points="1447.27,-175 1447.27,-195 1492.73,-195 1492.73,-175 1447.27,-175"/>
<text text-anchor="middle" x="1470" y="-181" font-family="Helvetica,sans-Serif" font-size="10.00">stdio.h</text>
</a>
</g>
</g>
<!-- Node3&#45;&gt;Node11 -->
<g id="edge6" class="edge"><title>Node3&#45;&gt;Node11</title>
<path fill="none" stroke="midnightblue" d="M1199.57,-234.597C1204.08,-233.69 1208.65,-232.801 1213,-232 1309.49,-214.24 1337.67,-218.843 1437.18,-195.917"/>
<polygon fill="midnightblue" stroke="midnightblue" points="1438.1,-199.297 1447.04,-193.611 1436.5,-192.481 1438.1,-199.297"/>
</g>
<!-- Node12 -->
<g id="node8" class="node"><title>Node12</title>
<g id="a_node8"><a xlink:title=" ">
<polygon fill="white" stroke="#bfbfbf" points="1510.93,-175 1510.93,-195 1563.07,-195 1563.07,-175 1510.93,-175"/>
<text text-anchor="middle" x="1537" y="-181" font-family="Helvetica,sans-Serif" font-size="10.00">stdarg.h</text>
</a>
</g>
</g>
<!-- Node3&#45;&gt;Node12 -->
<g id="edge7" class="edge"><title>Node3&#45;&gt;Node12</title>
<path fill="none" stroke="midnightblue" d="M1199.55,-234.454C1204.06,-233.57 1208.63,-232.726 1213,-232 1340.25,-210.828 1374.52,-221.331 1501,-196 1501.1,-195.98 1501.2,-195.96 1501.3,-195.94"/>
<polygon fill="midnightblue" stroke="midnightblue" points="1501.8,-199.416 1510.76,-193.767 1500.23,-192.594 1501.8,-199.416"/>
</g>
<!-- Node13 -->
<g id="node9" class="node"><title>Node13</title>
<g id="a_node9"><a xlink:title=" ">
<polygon fill="white" stroke="#bfbfbf" points="1580.6,-175 1580.6,-195 1629.4,-195 1629.4,-175 1580.6,-175"/>
<text text-anchor="middle" x="1605" y="-181" font-family="Helvetica,sans-Serif" font-size="10.00">string.h</text>
</a>
</g>
</g>
<!-- Node3&#45;&gt;Node13 -->
<g id="edge8" class="edge"><title>Node3&#45;&gt;Node13</title>
<path fill="none" stroke="midnightblue" d="M1199.53,-234.353C1204.05,-233.485 1208.63,-232.673 1213,-232 1368.24,-208.114 1412.93,-226.607 1570.23,-196.044"/>
<polygon fill="midnightblue" stroke="midnightblue" points="1571.13,-199.434 1580.27,-194.059 1569.78,-192.567 1571.13,-199.434"/>
</g>
<!-- Node14 -->
<g id="node10" class="node"><title>Node14</title>
<g id="a_node10"><a xlink:title=" ">
<polygon fill="white" stroke="#bfbfbf" points="1647.88,-175 1647.88,-195 1696.12,-195 1696.12,-175 1647.88,-175"/>
<text text-anchor="middle" x="1672" y="-181" font-family="Helvetica,sans-Serif" font-size="10.00">ctype.h</text>
</a>
</g>
</g>
<!-- Node3&#45;&gt;Node14 -->
<g id="edge9" class="edge"><title>Node3&#45;&gt;Node14</title>
<path fill="none" stroke="midnightblue" d="M1199.52,-234.288C1204.04,-233.432 1208.62,-232.639 1213,-232 1397.37,-205.087 1449.89,-230.038 1637.71,-195.655"/>
<polygon fill="midnightblue" stroke="midnightblue" points="1638.44,-199.079 1647.63,-193.807 1637.16,-192.197 1638.44,-199.079"/>
</g>
<!-- Node15 -->
<g id="node11" class="node"><title>Node15</title>
<g id="a_node11"><a xlink:title=" ">
<polygon fill="white" stroke="#bfbfbf" points="1948.44,-175 1948.44,-195 1995.56,-195 1995.56,-175 1948.44,-175"/>
<text text-anchor="middle" x="1972" y="-181" font-family="Helvetica,sans-Serif" font-size="10.00">limits.h</text>
</a>
</g>
</g>
<!-- Node3&#45;&gt;Node15 -->
<g id="edge10" class="edge"><title>Node3&#45;&gt;Node15</title>
<path fill="none" stroke="midnightblue" d="M1199.5,-234.142C1204.02,-233.309 1208.61,-232.563 1213,-232 1530.16,-191.351 1618.88,-250.032 1938.37,-195.643"/>
<polygon fill="midnightblue" stroke="midnightblue" points="1939.12,-199.066 1948.37,-193.915 1937.92,-192.168 1939.12,-199.066"/>
</g>
<!-- Node16 -->
<g id="node12" class="node"><title>Node16</title>
<g id="a_node12"><a xlink:href="_rexx_platform_definitions_8h.html" target="_top" xlink:title=" ">
<polygon fill="white" stroke="black" points="1714.48,-175 1714.48,-195 1845.52,-195 1845.52,-175 1714.48,-175"/>
<text text-anchor="middle" x="1780" y="-181" font-family="Helvetica,sans-Serif" font-size="10.00">RexxPlatformDefinitions.h</text>
</a>
</g>
</g>
<!-- Node3&#45;&gt;Node16 -->
<g id="edge11" class="edge"><title>Node3&#45;&gt;Node16</title>
<path fill="none" stroke="midnightblue" d="M1199.51,-234.24C1204.03,-233.392 1208.62,-232.614 1213,-232 1426.84,-202.035 1485.15,-217.997 1703.97,-196.041"/>
<polygon fill="midnightblue" stroke="midnightblue" points="1704.58,-199.497 1714.18,-195.002 1703.87,-192.533 1704.58,-199.497"/>
</g>
<!-- Node19 -->
<g id="node15" class="node"><title>Node19</title>
<g id="a_node15"><a xlink:href="_rexx_constants_8hpp.html" target="_top" xlink:title=" ">
<polygon fill="white" stroke="black" points="2013.36,-175 2013.36,-195 2116.64,-195 2116.64,-175 2013.36,-175"/>
<text text-anchor="middle" x="2065" y="-181" font-family="Helvetica,sans-Serif" font-size="10.00">RexxConstants.hpp</text>
</a>
</g>
</g>
<!-- Node3&#45;&gt;Node19 -->
<g id="edge14" class="edge"><title>Node3&#45;&gt;Node19</title>
<path fill="none" stroke="midnightblue" d="M1199.5,-234.125C1204.02,-233.295 1208.61,-232.554 1213,-232 1558.83,-188.391 1652.21,-231.688 2002.95,-195.977"/>
<polygon fill="midnightblue" stroke="midnightblue" points="2003.55,-199.434 2013.14,-194.925 2002.83,-192.471 2003.55,-199.434"/>
</g>
<!-- Node20 -->
<g id="node16" class="node"><title>Node20</title>
<g id="a_node16"><a xlink:href="_class_type_codes_8h.html" target="_top" xlink:title=" ">
<polygon fill="white" stroke="black" points="1174.03,-59 1174.03,-79 1273.97,-79 1273.97,-59 1174.03,-59"/>
<text text-anchor="middle" x="1224" y="-65" font-family="Helvetica,sans-Serif" font-size="10.00">ClassTypeCodes.h</text>
</a>
</g>
</g>
<!-- Node3&#45;&gt;Node20 -->
<g id="edge15" class="edge"><title>Node3&#45;&gt;Node20</title>
<path fill="none" stroke="midnightblue" d="M1199.62,-235.517C1224.52,-229.238 1257.4,-217.41 1279,-196 1298.81,-176.361 1297.56,-165.362 1303,-138 1304.91,-128.41 1307.87,-124.477 1303,-116 1294.35,-100.959 1278.69,-90.3763 1263.57,-83.1864"/>
<polygon fill="midnightblue" stroke="midnightblue" points="1264.86,-79.9319 1254.3,-79.1386 1262.06,-86.3473 1264.86,-79.9319"/>
</g>
<!-- Node21 -->
<g id="node17" class="node"><title>Node21</title>
<g id="a_node17"><a xlink:href="_global_names_8h.html" target="_top" xlink:title=" ">
<polygon fill="white" stroke="black" points="569.54,-175 569.54,-195 654.46,-195 654.46,-175 569.54,-175"/>
<text text-anchor="middle" x="612" y="-181" font-family="Helvetica,sans-Serif" font-size="10.00">GlobalNames.h</text>
</a>
</g>
</g>
<!-- Node3&#45;&gt;Node21 -->
<g id="edge16" class="edge"><title>Node3&#45;&gt;Node21</title>
<path fill="none" stroke="midnightblue" d="M1130.55,-240.009C1050.58,-235.138 846.044,-221.24 664.506,-195.937"/>
<polygon fill="midnightblue" stroke="midnightblue" points="664.901,-192.458 654.51,-194.528 663.924,-199.389 664.901,-192.458"/>
</g>
<!-- Node22 -->
<g id="node18" class="node"><title>Node22</title>
<g id="a_node18"><a xlink:href="_object_class_8hpp.html" target="_top" xlink:title=" ">
<polygon fill="white" stroke="black" points="462.315,-175 462.315,-195 551.685,-195 551.685,-175 462.315,-175"/>
<text text-anchor="middle" x="507" y="-181" font-family="Helvetica,sans-Serif" font-size="10.00">ObjectClass.hpp</text>
</a>
</g>
</g>
<!-- Node3&#45;&gt;Node22 -->
<g id="edge17" class="edge"><title>Node3&#45;&gt;Node22</title>
<path fill="none" stroke="midnightblue" d="M1130.48,-240.667C1039.32,-236.87 784.478,-224.475 561.967,-195.99"/>
<polygon fill="midnightblue" stroke="midnightblue" points="562.097,-192.478 551.731,-194.665 561.199,-199.42 562.097,-192.478"/>
</g>
<!-- Node25 -->
<g id="node21" class="node"><title>Node25</title>
<g id="a_node21"><a xlink:href="_table_class_8hpp.html" target="_top" xlink:title=" ">
<polygon fill="white" stroke="black" points="841.813,-59 841.813,-79 926.187,-79 926.187,-59 841.813,-59"/>
<text text-anchor="middle" x="884" y="-65" font-family="Helvetica,sans-Serif" font-size="10.00">TableClass.hpp</text>
</a>
</g>
</g>
<!-- Node3&#45;&gt;Node25 -->
<g id="edge20" class="edge"><title>Node3&#45;&gt;Node25</title>
<path fill="none" stroke="midnightblue" d="M1130.32,-238.052C1086.35,-232.3 1008.71,-219.629 946,-196 927.377,-188.983 925.106,-182.26 907,-174 863.643,-154.221 833.464,-176.945 806,-138 790.07,-115.411 821.463,-95.4116 849.05,-83.0488"/>
<polygon fill="midnightblue" stroke="midnightblue" points="850.732,-86.1368 858.565,-79.0027 847.993,-79.695 850.732,-86.1368"/>
</g>
<!-- Node28 -->
<g id="node23" class="node"><title>Node28</title>
<g id="a_node23"><a xlink:href="_stack_class_8hpp.html" target="_top" xlink:title=" ">
<polygon fill="white" stroke="black" points="813.261,-175 813.261,-195 898.739,-195 898.739,-175 813.261,-175"/>
<text text-anchor="middle" x="856" y="-181" font-family="Helvetica,sans-Serif" font-size="10.00">StackClass.hpp</text>
</a>
</g>
</g>
<!-- Node3&#45;&gt;Node28 -->
<g id="edge22" class="edge"><title>Node3&#45;&gt;Node28</title>
<path fill="none" stroke="midnightblue" d="M1130.45,-235.739C1076.67,-225.993 972.542,-207.121 909.149,-195.632"/>
<polygon fill="midnightblue" stroke="midnightblue" points="909.42,-192.124 898.957,-193.785 908.172,-199.012 909.42,-192.124"/>
</g>
<!-- Node29 -->
<g id="node24" class="node"><title>Node29</title>
<g id="a_node24"><a xlink:href="_rexx_memory_8hpp.html" target="_top" xlink:title=" ">
<polygon fill="white" stroke="black" points="955.189,-175 955.189,-195 1048.81,-195 1048.81,-175 955.189,-175"/>
<text text-anchor="middle" x="1002" y="-181" font-family="Helvetica,sans-Serif" font-size="10.00">RexxMemory.hpp</text>
</a>
</g>
</g>
<!-- Node3&#45;&gt;Node29 -->
<g id="edge23" class="edge"><title>Node3&#45;&gt;Node29</title>
<path fill="none" stroke="midnightblue" d="M1138.45,-232.878C1111.13,-223.494 1068.41,-208.815 1038.05,-198.386"/>
<polygon fill="midnightblue" stroke="midnightblue" points="1038.86,-194.964 1028.27,-195.025 1036.59,-201.585 1038.86,-194.964"/>
</g>
<!-- Node36 -->
<g id="node29" class="node"><title>Node36</title>
<g id="a_node29"><a xlink:href="_rexx_behaviour_8hpp.html" target="_top" xlink:title=" ">
<polygon fill="white" stroke="black" points="1326.64,-175 1326.64,-195 1429.36,-195 1429.36,-175 1326.64,-175"/>
<text text-anchor="middle" x="1378" y="-181" font-family="Helvetica,sans-Serif" font-size="10.00">RexxBehaviour.hpp</text>
</a>
</g>
</g>
<!-- Node3&#45;&gt;Node36 -->
<g id="edge31" class="edge"><title>Node3&#45;&gt;Node36</title>
<path fill="none" stroke="midnightblue" d="M1199.7,-232.878C1236.32,-223.249 1294.15,-208.046 1333.96,-197.578"/>
<polygon fill="midnightblue" stroke="midnightblue" points="1334.89,-200.953 1343.67,-195.025 1333.11,-194.183 1334.89,-200.953"/>
</g>
<!-- Node38 -->
<g id="node31" class="node"><title>Node38</title>
<g id="a_node31"><a xlink:href="_class_class_8hpp.html" target="_top" xlink:title=" ">
<polygon fill="white" stroke="black" points="1067.26,-175 1067.26,-195 1152.74,-195 1152.74,-175 1067.26,-175"/>
<text text-anchor="middle" x="1110" y="-181" font-family="Helvetica,sans-Serif" font-size="10.00">ClassClass.hpp</text>
</a>
</g>
</g>
<!-- Node3&#45;&gt;Node38 -->
<g id="edge33" class="edge"><title>Node3&#45;&gt;Node38</title>
<path fill="none" stroke="midnightblue" d="M1155.92,-232.753C1147.83,-224.516 1135.8,-212.274 1126.09,-202.382"/>
<polygon fill="midnightblue" stroke="midnightblue" points="1128.42,-199.757 1118.91,-195.075 1123.42,-204.662 1128.42,-199.757"/>
</g>
<!-- Node39 -->
<g id="node32" class="node"><title>Node39</title>
<g id="a_node32"><a xlink:href="_rexx_envelope_8hpp.html" target="_top" xlink:title=" ">
<polygon fill="white" stroke="black" points="1171.03,-175 1171.03,-195 1270.97,-195 1270.97,-175 1171.03,-175"/>
<text text-anchor="middle" x="1221" y="-181" font-family="Helvetica,sans-Serif" font-size="10.00">RexxEnvelope.hpp</text>
</a>
</g>
</g>
<!-- Node3&#45;&gt;Node39 -->
<g id="edge34" class="edge"><title>Node3&#45;&gt;Node39</title>
<path fill="none" stroke="midnightblue" d="M1174.25,-232.753C1182.48,-224.516 1194.73,-212.274 1204.62,-202.382"/>
<polygon fill="midnightblue" stroke="midnightblue" points="1207.33,-204.621 1211.92,-195.075 1202.38,-199.671 1207.33,-204.621"/>
</g>
<!-- Node40 -->
<g id="node33" class="node"><title>Node40</title>
<g id="a_node33"><a xlink:href="_rexx_activity_8hpp.html" target="_top" xlink:title=" ">
<polygon fill="white" stroke="red" points="355.411,-175 355.411,-195 444.589,-195 444.589,-175 355.411,-175"/>
<text text-anchor="middle" x="400" y="-181" font-family="Helvetica,sans-Serif" font-size="10.00">RexxActivity.hpp</text>
</a>
</g>
</g>
<!-- Node3&#45;&gt;Node40 -->
<g id="edge35" class="edge"><title>Node3&#45;&gt;Node40</title>
<path fill="none" stroke="midnightblue" d="M1130.4,-241.259C1028.41,-238.759 719.967,-228.931 454.96,-196.119"/>
<polygon fill="midnightblue" stroke="midnightblue" points="455.116,-192.612 444.759,-194.842 454.246,-199.558 455.116,-192.612"/>
</g>
<!-- Node51 -->
<g id="node39" class="node"><title>Node51</title>
<g id="a_node39"><a xlink:href="_number_string_class_8hpp.html" target="_top" xlink:title=" ">
<polygon fill="white" stroke="red" points="672.921,-175 672.921,-195 795.079,-195 795.079,-175 672.921,-175"/>
<text text-anchor="middle" x="734" y="-181" font-family="Helvetica,sans-Serif" font-size="10.00">NumberStringClass.hpp</text>
</a>
</g>
</g>
<!-- Node3&#45;&gt;Node51 -->
<g id="edge41" class="edge"><title>Node3&#45;&gt;Node51</title>
<path fill="none" stroke="midnightblue" d="M1130.38,-237.766C1067.75,-230.067 931.194,-213.107 805.628,-196.205"/>
<polygon fill="midnightblue" stroke="midnightblue" points="805.831,-192.701 795.453,-194.833 804.895,-199.638 805.831,-192.701"/>
</g>
<!-- Node67 -->
<g id="node40" class="node"><title>Node67</title>
<g id="a_node40"><a xlink:href="_activity_manager_8hpp.html" target="_top" xlink:title=" ">
<polygon fill="white" stroke="red" points="2134.97,-175 2134.97,-195 2241.03,-195 2241.03,-175 2134.97,-175"/>
<text text-anchor="middle" x="2188" y="-181" font-family="Helvetica,sans-Serif" font-size="10.00">ActivityManager.hpp</text>
</a>
</g>
</g>
<!-- Node3&#45;&gt;Node67 -->
<g id="edge43" class="edge"><title>Node3&#45;&gt;Node67</title>
<path fill="none" stroke="midnightblue" d="M1199.49,-234.1C1204.02,-233.274 1208.61,-232.541 1213,-232 1612.27,-182.874 1719.54,-234.986 2124.55,-195.9"/>
<polygon fill="midnightblue" stroke="midnightblue" points="2125.17,-199.356 2134.78,-194.9 2124.49,-192.39 2125.17,-199.356"/>
</g>
<!-- Node5 -->
<g id="node5" class="node"><title>Node5</title>
<g id="a_node5"><a xlink:href="rexx_8h.html" target="_top" xlink:title=" ">
<polygon fill="white" stroke="red" points="1868.38,-117 1868.38,-137 1911.62,-137 1911.62,-117 1868.38,-117"/>
<text text-anchor="middle" x="1890" y="-123" font-family="Helvetica,sans-Serif" font-size="10.00">rexx.h</text>
</a>
</g>
</g>
<!-- Node4&#45;&gt;Node5 -->
<g id="edge4" class="edge"><title>Node4&#45;&gt;Node5</title>
<path fill="none" stroke="midnightblue" d="M1895.84,-174.753C1894.91,-167.25 1893.55,-156.424 1892.38,-147.078"/>
<polygon fill="midnightblue" stroke="midnightblue" points="1895.85,-146.564 1891.13,-137.075 1888.9,-147.432 1895.85,-146.564"/>
</g>
<!-- Node10 -->
<g id="node6" class="node"><title>Node10</title>
<g id="a_node6"><a xlink:href="oorexxerrors_8h.html" target="_top" xlink:title=" ">
<polygon fill="white" stroke="black" points="1929.77,-117 1929.77,-137 2010.23,-137 2010.23,-117 1929.77,-117"/>
<text text-anchor="middle" x="1970" y="-123" font-family="Helvetica,sans-Serif" font-size="10.00">oorexxerrors.h</text>
</a>
</g>
</g>
<!-- Node4&#45;&gt;Node10 -->
<g id="edge5" class="edge"><title>Node4&#45;&gt;Node10</title>
<path fill="none" stroke="midnightblue" d="M1909.05,-174.753C1920.22,-166.19 1937.02,-153.298 1950.16,-143.219"/>
<polygon fill="midnightblue" stroke="midnightblue" points="1952.37,-145.939 1958.17,-137.075 1948.11,-140.385 1952.37,-145.939"/>
</g>
<!-- Node17 -->
<g id="node13" class="node"><title>Node17</title>
<g id="a_node13"><a xlink:title=" ">
<polygon fill="white" stroke="#bfbfbf" points="1618.87,-117 1618.87,-137 1727.13,-137 1727.13,-117 1618.87,-117"/>
<text text-anchor="middle" x="1673" y="-123" font-family="Helvetica,sans-Serif" font-size="10.00">PlatformDefinitions.h</text>
</a>
</g>
</g>
<!-- Node16&#45;&gt;Node17 -->
<g id="edge12" class="edge"><title>Node16&#45;&gt;Node17</title>
<path fill="none" stroke="midnightblue" d="M1762.33,-174.753C1745.19,-165.783 1718.97,-152.06 1699.37,-141.799"/>
<polygon fill="midnightblue" stroke="midnightblue" points="1700.82,-138.611 1690.34,-137.075 1697.58,-144.813 1700.82,-138.611"/>
</g>
<!-- Node18 -->
<g id="node14" class="node"><title>Node18</title>
<g id="a_node14"><a xlink:href="_rexx_error_codes_8h.html" target="_top" xlink:title=" ">
<polygon fill="white" stroke="black" points="1744.87,-117 1744.87,-137 1843.13,-137 1843.13,-117 1744.87,-117"/>
<text text-anchor="middle" x="1794" y="-123" font-family="Helvetica,sans-Serif" font-size="10.00">RexxErrorCodes.h</text>
</a>
</g>
</g>
<!-- Node16&#45;&gt;Node18 -->
<g id="edge13" class="edge"><title>Node16&#45;&gt;Node18</title>
<path fill="none" stroke="midnightblue" d="M1782.31,-174.753C1784.19,-167.25 1786.89,-156.424 1789.23,-147.078"/>
<polygon fill="midnightblue" stroke="midnightblue" points="1792.7,-147.626 1791.73,-137.075 1785.91,-145.928 1792.7,-147.626"/>
</g>
<!-- Node23 -->
<g id="node19" class="node"><title>Node23</title>
<g id="a_node19"><a xlink:href="_numerics_8hpp.html" target="_top" xlink:title=" ">
<polygon fill="white" stroke="black" points="681.155,-117 681.155,-137 758.845,-137 758.845,-117 681.155,-117"/>
<text text-anchor="middle" x="720" y="-123" font-family="Helvetica,sans-Serif" font-size="10.00">Numerics.hpp</text>
</a>
</g>
</g>
<!-- Node22&#45;&gt;Node23 -->
<g id="edge18" class="edge"><title>Node22&#45;&gt;Node23</title>
<path fill="none" stroke="midnightblue" d="M541.696,-174.878C578.319,-165.249 636.146,-150.046 675.961,-139.578"/>
<polygon fill="midnightblue" stroke="midnightblue" points="676.89,-142.953 685.672,-137.025 675.11,-136.183 676.89,-142.953"/>
</g>
<!-- Node24 -->
<g id="node20" class="node"><title>Node24</title>
<g id="a_node20"><a xlink:title=" ">
<polygon fill="white" stroke="#bfbfbf" points="748.209,-59 748.209,-79 799.791,-79 799.791,-59 748.209,-59"/>
<text text-anchor="middle" x="774" y="-65" font-family="Helvetica,sans-Serif" font-size="10.00">stddef.h</text>
</a>
</g>
</g>
<!-- Node22&#45;&gt;Node24 -->
<g id="edge19" class="edge"><title>Node22&#45;&gt;Node24</title>
<path fill="none" stroke="midnightblue" d="M536.596,-174.931C562.723,-166.54 601.586,-153.108 634,-138 651.688,-129.756 654.639,-124.912 672,-116 695.317,-104.031 722.389,-91.901 742.781,-83.1042"/>
<polygon fill="midnightblue" stroke="midnightblue" points="744.393,-86.2214 752.209,-79.0688 741.638,-79.786 744.393,-86.2214"/>
</g>
<!-- Node26 -->
<g id="node22" class="node"><title>Node26</title>
<g id="a_node22"><a xlink:href="_rexx_collection_8hpp.html" target="_top" xlink:title=" ">
<polygon fill="white" stroke="red" points="832.921,-1 832.921,-21 935.079,-21 935.079,-1 832.921,-1"/>
<text text-anchor="middle" x="884" y="-7" font-family="Helvetica,sans-Serif" font-size="10.00">RexxCollection.hpp</text>
</a>
</g>
</g>
<!-- Node25&#45;&gt;Node26 -->
<g id="edge21" class="edge"><title>Node25&#45;&gt;Node26</title>
<path fill="none" stroke="midnightblue" d="M884,-58.7527C884,-51.2504 884,-40.4238 884,-31.0781"/>
<polygon fill="midnightblue" stroke="midnightblue" points="887.5,-31.0752 884,-21.0752 880.5,-31.0752 887.5,-31.0752"/>
</g>
<!-- Node30 -->
<g id="node25" class="node"><title>Node30</title>
<g id="a_node25"><a xlink:title=" ">
<polygon fill="white" stroke="#bfbfbf" points="1191.08,-117 1191.08,-137 1294.92,-137 1294.92,-117 1191.08,-117"/>
<text text-anchor="middle" x="1243" y="-123" font-family="Helvetica,sans-Serif" font-size="10.00">SysSemaphore.hpp</text>
</a>
</g>
</g>
<!-- Node29&#45;&gt;Node30 -->
<g id="edge24" class="edge"><title>Node29&#45;&gt;Node30</title>
<path fill="none" stroke="midnightblue" d="M1040.99,-174.94C1082.73,-165.242 1149.03,-149.836 1194.2,-139.339"/>
<polygon fill="midnightblue" stroke="midnightblue" points="1195.12,-142.719 1204.07,-137.047 1193.53,-135.901 1195.12,-142.719"/>
</g>
<!-- Node31 -->
<g id="node26" class="node"><title>Node31</title>
<g id="a_node26"><a xlink:href="_identity_table_class_8hpp.html" target="_top" xlink:title=" ">
<polygon fill="white" stroke="black" points="944.692,-117 944.692,-137 1061.31,-137 1061.31,-117 944.692,-117"/>
<text text-anchor="middle" x="1003" y="-123" font-family="Helvetica,sans-Serif" font-size="10.00">IdentityTableClass.hpp</text>
</a>
</g>
</g>
<!-- Node29&#45;&gt;Node31 -->
<g id="edge25" class="edge"><title>Node29&#45;&gt;Node31</title>
<path fill="none" stroke="midnightblue" d="M1002.17,-174.753C1002.3,-167.25 1002.49,-156.424 1002.66,-147.078"/>
<polygon fill="midnightblue" stroke="midnightblue" points="1006.16,-147.136 1002.84,-137.075 999.16,-147.011 1006.16,-147.136"/>
</g>
<!-- Node32 -->
<g id="node27" class="node"><title>Node32</title>
<g id="a_node27"><a xlink:href="_memory_stats_8hpp.html" target="_top" xlink:title=" ">
<polygon fill="white" stroke="black" points="1078.82,-117 1078.82,-137 1173.18,-137 1173.18,-117 1078.82,-117"/>
<text text-anchor="middle" x="1126" y="-123" font-family="Helvetica,sans-Serif" font-size="10.00">MemoryStats.hpp</text>
</a>
</g>
</g>
<!-- Node29&#45;&gt;Node32 -->
<g id="edge27" class="edge"><title>Node29&#45;&gt;Node32</title>
<path fill="none" stroke="midnightblue" d="M1022.2,-174.878C1042.37,-165.766 1073.61,-151.662 1096.54,-141.303"/>
<polygon fill="midnightblue" stroke="midnightblue" points="1098.14,-144.424 1105.81,-137.118 1095.26,-138.044 1098.14,-144.424"/>
</g>
<!-- Node33 -->
<g id="node28" class="node"><title>Node33</title>
<g id="a_node28"><a xlink:href="_memory_segment_8hpp.html" target="_top" xlink:title=" ">
<polygon fill="white" stroke="red" points="815.2,-117 815.2,-137 926.8,-137 926.8,-117 815.2,-117"/>
<text text-anchor="middle" x="871" y="-123" font-family="Helvetica,sans-Serif" font-size="10.00">MemorySegment.hpp</text>
</a>
</g>
</g>
<!-- Node29&#45;&gt;Node33 -->
<g id="edge29" class="edge"><title>Node29&#45;&gt;Node33</title>
<path fill="none" stroke="midnightblue" d="M980.661,-174.878C959.251,-165.725 926.057,-151.536 901.795,-141.164"/>
<polygon fill="midnightblue" stroke="midnightblue" points="902.901,-137.831 892.33,-137.118 900.149,-144.267 902.901,-137.831"/>
</g>
<!-- Node31&#45;&gt;Node25 -->
<g id="edge26" class="edge"><title>Node31&#45;&gt;Node25</title>
<path fill="none" stroke="midnightblue" d="M983.616,-116.878C964.339,-107.807 934.549,-93.7876 912.564,-83.4418"/>
<polygon fill="midnightblue" stroke="midnightblue" points="913.914,-80.2093 903.376,-79.1181 910.934,-86.543 913.914,-80.2093"/>
</g>
<!-- Node32&#45;&gt;Node20 -->
<g id="edge28" class="edge"><title>Node32&#45;&gt;Node20</title>
<path fill="none" stroke="midnightblue" d="M1142.18,-116.753C1157.74,-107.864 1181.46,-94.3092 1199.36,-84.0793"/>
<polygon fill="midnightblue" stroke="midnightblue" points="1201.17,-87.0755 1208.12,-79.0752 1197.7,-80.9978 1201.17,-87.0755"/>
</g>
<!-- Node33&#45;&gt;Node24 -->
<g id="edge30" class="edge"><title>Node33&#45;&gt;Node24</title>
<path fill="none" stroke="midnightblue" d="M854.982,-116.753C839.586,-107.864 816.107,-94.3092 798.387,-84.0793"/>
<polygon fill="midnightblue" stroke="midnightblue" points="800.13,-81.0439 789.72,-79.0752 796.63,-87.1062 800.13,-81.0439"/>
</g>
<!-- Node37 -->
<g id="node30" class="node"><title>Node37</title>
<g id="a_node30"><a xlink:href="_primitive_behaviour_names_8h.html" target="_top" xlink:title=" ">
<polygon fill="white" stroke="black" points="1351.31,-117 1351.31,-137 1490.69,-137 1490.69,-117 1351.31,-117"/>
<text text-anchor="middle" x="1421" y="-123" font-family="Helvetica,sans-Serif" font-size="10.00">PrimitiveBehaviourNames.h</text>
</a>
</g>
</g>
<!-- Node36&#45;&gt;Node37 -->
<g id="edge32" class="edge"><title>Node36&#45;&gt;Node37</title>
<path fill="none" stroke="midnightblue" d="M1385.1,-174.753C1391.24,-166.761 1400.27,-154.998 1407.74,-145.27"/>
<polygon fill="midnightblue" stroke="midnightblue" points="1410.72,-147.138 1414.03,-137.075 1405.17,-142.875 1410.72,-147.138"/>
</g>
<!-- Node41 -->
<g id="node34" class="node"><title>Node41</title>
<g id="a_node34"><a xlink:href="_list_class_8hpp.html" target="_top" xlink:title=" ">
<polygon fill="white" stroke="red" points="-0.0146484,-117 -0.0146484,-137 76.0146,-137 76.0146,-117 -0.0146484,-117"/>
<text text-anchor="middle" x="38" y="-123" font-family="Helvetica,sans-Serif" font-size="10.00">ListClass.hpp</text>
</a>
</g>
</g>
<!-- Node40&#45;&gt;Node41 -->
<g id="edge36" class="edge"><title>Node40&#45;&gt;Node41</title>
<path fill="none" stroke="midnightblue" d="M355.252,-178.391C296.021,-170.764 188.122,-156.163 86.3259,-138.15"/>
<polygon fill="midnightblue" stroke="midnightblue" points="86.6383,-134.65 76.179,-136.339 85.4086,-141.541 86.6383,-134.65"/>
</g>
<!-- Node43 -->
<g id="node35" class="node"><title>Node43</title>
<g id="a_node35"><a xlink:href="_rexx_internal_stack_8hpp.html" target="_top" xlink:title=" ">
<polygon fill="white" stroke="black" points="363.695,-117 363.695,-137 480.305,-137 480.305,-117 363.695,-117"/>
<text text-anchor="middle" x="422" y="-123" font-family="Helvetica,sans-Serif" font-size="10.00">RexxInternalStack.hpp</text>
</a>
</g>
</g>
<!-- Node40&#45;&gt;Node43 -->
<g id="edge37" class="edge"><title>Node40&#45;&gt;Node43</title>
<path fill="none" stroke="midnightblue" d="M403.633,-174.753C406.644,-167.087 411.019,-155.952 414.744,-146.471"/>
<polygon fill="midnightblue" stroke="midnightblue" points="418.036,-147.663 418.435,-137.075 411.521,-145.103 418.036,-147.663"/>
</g>
<!-- Node44 -->
<g id="node36" class="node"><title>Node44</title>
<g id="a_node36"><a xlink:href="_rexx_activation_stack_8hpp.html" target="_top" xlink:title=" ">
<polygon fill="white" stroke="black" points="498.695,-117 498.695,-137 625.305,-137 625.305,-117 498.695,-117"/>
<text text-anchor="middle" x="562" y="-123" font-family="Helvetica,sans-Serif" font-size="10.00">RexxActivationStack.hpp</text>
</a>
</g>
</g>
<!-- Node40&#45;&gt;Node44 -->
<g id="edge38" class="edge"><title>Node40&#45;&gt;Node44</title>
<path fill="none" stroke="midnightblue" d="M426.389,-174.878C453.535,-165.494 495.998,-150.815 526.17,-140.386"/>
<polygon fill="midnightblue" stroke="midnightblue" points="527.583,-143.6 535.891,-137.025 525.296,-136.985 527.583,-143.6"/>
</g>
<!-- Node45 -->
<g id="node37" class="node"><title>Node45</title>
<g id="a_node37"><a xlink:href="_expression_stack_8hpp.html" target="_top" xlink:title=" ">
<polygon fill="white" stroke="red" points="94.0298,-117 94.0298,-137 203.97,-137 203.97,-117 94.0298,-117"/>
<text text-anchor="middle" x="149" y="-123" font-family="Helvetica,sans-Serif" font-size="10.00">ExpressionStack.hpp</text>
</a>
</g>
</g>
<!-- Node40&#45;&gt;Node45 -->
<g id="edge39" class="edge"><title>Node40&#45;&gt;Node45</title>
<path fill="none" stroke="midnightblue" d="M359.394,-174.94C315.832,-165.222 246.582,-149.771 199.528,-139.273"/>
<polygon fill="midnightblue" stroke="midnightblue" points="200.07,-135.808 189.548,-137.047 198.546,-142.64 200.07,-135.808"/>
</g>
<!-- Node47 -->
<g id="node38" class="node"><title>Node47</title>
<g id="a_node38"><a xlink:href="_rexx_local_variables_8hpp.html" target="_top" xlink:title=" ">
<polygon fill="white" stroke="red" points="222.448,-117 222.448,-137 345.552,-137 345.552,-117 222.448,-117"/>
<text text-anchor="middle" x="284" y="-123" font-family="Helvetica,sans-Serif" font-size="10.00">RexxLocalVariables.hpp</text>
</a>
</g>
</g>
<!-- Node40&#45;&gt;Node47 -->
<g id="edge40" class="edge"><title>Node40&#45;&gt;Node47</title>
<path fill="none" stroke="midnightblue" d="M381.104,-174.878C362.398,-165.847 333.534,-151.913 312.132,-141.581"/>
<polygon fill="midnightblue" stroke="midnightblue" points="313.415,-138.314 302.887,-137.118 310.371,-144.618 313.415,-138.314"/>
</g>
<!-- Node51&#45;&gt;Node23 -->
<g id="edge42" class="edge"><title>Node51&#45;&gt;Node23</title>
<path fill="none" stroke="midnightblue" d="M731.688,-174.753C729.813,-167.25 727.106,-156.424 724.77,-147.078"/>
<polygon fill="midnightblue" stroke="midnightblue" points="728.09,-145.928 722.269,-137.075 721.299,-147.626 728.09,-145.928"/>
</g>
<!-- Node69&#45;&gt;Node41 -->
<g id="edge45" class="edge"><title>Node69&#45;&gt;Node41</title>
<path fill="none" stroke="midnightblue" d="M63.7086,-232.671C59.1328,-214.041 48.7819,-171.898 42.7017,-147.143"/>
<polygon fill="midnightblue" stroke="midnightblue" points="46.0291,-146.016 40.2448,-137.139 39.2311,-147.686 46.0291,-146.016"/>
</g>
<!-- Node70&#45;&gt;Node45 -->
<g id="edge47" class="edge"><title>Node70&#45;&gt;Node45</title>
<path fill="none" stroke="midnightblue" d="M455.997,-354.523C366.258,-347.91 187.705,-332.345 168,-312 124.67,-267.262 136.087,-184.709 144.169,-147.311"/>
<polygon fill="midnightblue" stroke="midnightblue" points="147.653,-147.779 146.506,-137.247 140.834,-146.196 147.653,-147.779"/>
</g>
<!-- Node71 -->
<g id="node43" class="node"><title>Node71</title>
<g id="a_node43"><a xlink:href="_do_block_8hpp.html" target="_top" xlink:title=" ">
<polygon fill="white" stroke="black" points="406.65,-291 406.65,-311 479.35,-311 479.35,-291 406.65,-291"/>
<text text-anchor="middle" x="443" y="-297" font-family="Helvetica,sans-Serif" font-size="10.00">DoBlock.hpp</text>
</a>
</g>
</g>
<!-- Node70&#45;&gt;Node71 -->
<g id="edge48" class="edge"><title>Node70&#45;&gt;Node71</title>
<path fill="none" stroke="midnightblue" d="M496.432,-348.753C486.832,-340.353 472.471,-327.787 461.054,-317.798"/>
<polygon fill="midnightblue" stroke="midnightblue" points="463.202,-315.026 453.372,-311.075 458.593,-320.294 463.202,-315.026"/>
</g>
<!-- Node70&#45;&gt;Node47 -->
<g id="edge49" class="edge"><title>Node70&#45;&gt;Node47</title>
<path fill="none" stroke="midnightblue" d="M471.087,-348.967C448.229,-341.833 419.069,-330.027 398,-312 342.385,-264.416 305.406,-182.727 290.9,-146.375"/>
<polygon fill="midnightblue" stroke="midnightblue" points="294.146,-145.067 287.264,-137.011 287.621,-147.6 294.146,-145.067"/>
</g>
<!-- Node72 -->
<g id="node44" class="node"><title>Node72</title>
<g id="a_node44"><a xlink:href="_rexx_date_time_8hpp.html" target="_top" xlink:title=" ">
<polygon fill="white" stroke="black" points="535.388,-291 535.388,-311 636.612,-311 636.612,-291 535.388,-291"/>
<text text-anchor="middle" x="586" y="-297" font-family="Helvetica,sans-Serif" font-size="10.00">RexxDateTime.hpp</text>
</a>
</g>
</g>
<!-- Node70&#45;&gt;Node72 -->
<g id="edge50" class="edge"><title>Node70&#45;&gt;Node72</title>
<path fill="none" stroke="midnightblue" d="M520.045,-348.753C532.239,-340.109 550.659,-327.052 564.936,-316.931"/>
<polygon fill="midnightblue" stroke="midnightblue" points="567.063,-319.714 573.197,-311.075 563.015,-314.003 567.063,-319.714"/>
</g>
<!-- Node73 -->
<g id="node45" class="node"><title>Node73</title>
<g id="a_node45"><a xlink:href="_rexx_code_8hpp.html" target="_top" xlink:title=" ">
<polygon fill="white" stroke="red" points="654.924,-291 654.924,-311 737.076,-311 737.076,-291 654.924,-291"/>
<text text-anchor="middle" x="696" y="-297" font-family="Helvetica,sans-Serif" font-size="10.00">RexxCode.hpp</text>
</a>
</g>
</g>
<!-- Node70&#45;&gt;Node73 -->
<g id="edge52" class="edge"><title>Node70&#45;&gt;Node73</title>
<path fill="none" stroke="midnightblue" d="M537.787,-348.878C569.87,-339.372 620.293,-324.432 655.568,-313.98"/>
<polygon fill="midnightblue" stroke="midnightblue" points="656.946,-317.222 665.54,-311.025 654.957,-310.51 656.946,-317.222"/>
</g>
<!-- Node70&#45;&gt;Node67 -->
<g id="edge53" class="edge"><title>Node70&#45;&gt;Node67</title>
<path fill="none" stroke="midnightblue" d="M557.97,-352.98C816.589,-327.5 1976.81,-213.065 2124.47,-195.919"/>
<polygon fill="midnightblue" stroke="midnightblue" points="2125.25,-199.351 2134.76,-194.673 2124.41,-192.402 2125.25,-199.351"/>
</g>
<!-- Node81 -->
<g id="node46" class="node"><title>Node81</title>
<g id="a_node46"><a xlink:href="_rexx_compound_tail_8hpp.html" target="_top" xlink:title=" ">
<polygon fill="white" stroke="red" points="176.914,-291 176.914,-311 299.086,-311 299.086,-291 176.914,-291"/>
<text text-anchor="middle" x="238" y="-297" font-family="Helvetica,sans-Serif" font-size="10.00">RexxCompoundTail.hpp</text>
</a>
</g>
</g>
<!-- Node70&#45;&gt;Node81 -->
<g id="edge54" class="edge"><title>Node70&#45;&gt;Node81</title>
<path fill="none" stroke="midnightblue" d="M463.482,-348.94C416.6,-339.181 341.957,-323.642 291.519,-313.141"/>
<polygon fill="midnightblue" stroke="midnightblue" points="291.959,-309.658 281.456,-311.047 290.533,-316.511 291.959,-309.658"/>
</g>
<!-- Node82 -->
<g id="node47" class="node"><title>Node82</title>
<g id="a_node47"><a xlink:href="_context_class_8hpp.html" target="_top" xlink:title=" ">
<polygon fill="white" stroke="black" points="459.535,-233 459.535,-253 554.465,-253 554.465,-233 459.535,-233"/>
<text text-anchor="middle" x="507" y="-239" font-family="Helvetica,sans-Serif" font-size="10.00">ContextClass.hpp</text>
</a>
</g>
</g>
<!-- Node70&#45;&gt;Node82 -->
<g id="edge55" class="edge"><title>Node70&#45;&gt;Node82</title>
<path fill="none" stroke="midnightblue" d="M507,-348.671C507,-330.041 507,-287.898 507,-263.143"/>
<polygon fill="midnightblue" stroke="midnightblue" points="510.5,-263.139 507,-253.139 503.5,-263.139 510.5,-263.139"/>
</g>
<!-- Node72&#45;&gt;Node3 -->
<g id="edge51" class="edge"><title>Node72&#45;&gt;Node3</title>
<path fill="none" stroke="midnightblue" d="M636.699,-291.269C639.842,-290.815 642.962,-290.387 646,-290 821.002,-267.695 1030.58,-252.677 1120.48,-246.789"/>
<polygon fill="midnightblue" stroke="midnightblue" points="1120.84,-250.274 1130.59,-246.133 1120.38,-243.288 1120.84,-250.274"/>
</g>
<!-- Node82&#45;&gt;Node22 -->
<g id="edge56" class="edge"><title>Node82&#45;&gt;Node22</title>
<path fill="none" stroke="midnightblue" d="M507,-232.753C507,-225.25 507,-214.424 507,-205.078"/>
<polygon fill="midnightblue" stroke="midnightblue" points="510.5,-205.075 507,-195.075 503.5,-205.075 510.5,-205.075"/>
</g>
<!-- Node84 -->
<g id="node49" class="node"><title>Node84</title>
<g id="a_node49"><a xlink:href="_rexx_instruction_8hpp.html" target="_top" xlink:title=" ">
<polygon fill="white" stroke="red" points="1204.81,-291 1204.81,-311 1309.19,-311 1309.19,-291 1204.81,-291"/>
<text text-anchor="middle" x="1257" y="-297" font-family="Helvetica,sans-Serif" font-size="10.00">RexxInstruction.hpp</text>
</a>
</g>
</g>
<!-- Node83&#45;&gt;Node84 -->
<g id="edge58" class="edge"><title>Node83&#45;&gt;Node84</title>
<path fill="none" stroke="midnightblue" d="M1257,-348.753C1257,-341.25 1257,-330.424 1257,-321.078"/>
<polygon fill="midnightblue" stroke="midnightblue" points="1260.5,-321.075 1257,-311.075 1253.5,-321.075 1260.5,-321.075"/>
</g>
</g>
</svg>
        <g id="navigator" transform="translate(0 0)" fill="#404254">
                <rect fill="#f2f5e9" fill-opacity="0.5" stroke="#606060" stroke-width=".5" x="0" y="0" width="60" height="60"/>
                <use id="zoomplus" xlink:href="#zoomPlus" x="17" y="9" onmousedown="handleZoom(evt,'in')"/>
                <use id="zoomminus" xlink:href="#zoomMin" x="42" y="9" onmousedown="handleZoom(evt,'out')"/>
                <use id="reset" xlink:href="#resetDef" x="30" y="36" onmousedown="handleReset()"/>
                <g id="arrowUp" xlink:href="#dirArrow" transform="translate(30 24)" onmousedown="handlePan(0,-1)">
                  <use xlink:href="#rim" fill="#404040">
                        <set attributeName="fill" to="#808080" begin="arrowUp.mouseover" end="arrowUp.mouseout"/>
                  </use>
                  <path fill="none" stroke="white" stroke-width="1.5" d="M0,-3.0v7 M-2.5,-0.5L0,-3.0L2.5,-0.5"/>
                </g>
                <g id="arrowRight" xlink:href="#dirArrow" transform="rotate(90) translate(36 -43)" onmousedown="handlePan(1,0)">
                  <use xlink:href="#rim" fill="#404040">
                        <set attributeName="fill" to="#808080" begin="arrowRight.mouseover" end="arrowRight.mouseout"/>
                  </use>
                  <path fill="none" stroke="white" stroke-width="1.5" d="M0,-3.0v7 M-2.5,-0.5L0,-3.0L2.5,-0.5"/>
                </g>
                <g id="arrowDown" xlink:href="#dirArrow" transform="rotate(180) translate(-30 -48)" onmousedown="handlePan(0,1)">
                  <use xlink:href="#rim" fill="#404040">
                        <set attributeName="fill" to="#808080" begin="arrowDown.mouseover" end="arrowDown.mouseout"/>
                  </use>
                  <path fill="none" stroke="white" stroke-width="1.5" d="M0,-3.0v7 M-2.5,-0.5L0,-3.0L2.5,-0.5"/>
                </g>
                <g id="arrowLeft" xlink:href="#dirArrow" transform="rotate(270) translate(-36 17)" onmousedown="handlePan(-1,0)">
                  <use xlink:href="#rim" fill="#404040">
                        <set attributeName="fill" to="#808080" begin="arrowLeft.mouseover" end="arrowLeft.mouseout"/>
                  </use>
                  <path fill="none" stroke="white" stroke-width="1.5" d="M0,-3.0v7 M-2.5,-0.5L0,-3.0L2.5,-0.5"/>
                </g>
        </g>
        <svg viewBox="0 0 15 15" width="100%" height="30px" preserveAspectRatio="xMaxYMin meet">
         <g id="arrow_out" transform="scale(0.3 0.3)">
          <a xlink:href="_procedure_instruction_8cpp__incl_org.svg" target="_base">
           <rect id="button" ry="5" rx="5" y="6" x="6" height="38" width="38"
                fill="#f2f5e9" fill-opacity="0.5" stroke="#606060" stroke-width="1.0"/>
           <path id="arrow"
             d="M 11.500037,31.436501 C 11.940474,20.09759 22.043105,11.32322 32.158766,21.979434 L 37.068811,17.246167 C 37.068811,17.246167 37.088388,32 37.088388,32 L 22.160133,31.978069 C 22.160133,31.978069 26.997745,27.140456 26.997745,27.140456 C 18.528582,18.264221 13.291696,25.230495 11.500037,31.436501 z"
             style="fill:#404040;"/>
          </a>
         </g>
        </svg>
</svg>
