<?xml version="1.0" encoding="UTF-8" standalone="no"?>
<!DOCTYPE svg PUBLIC "-//W3C//DTD SVG 1.1//EN"
 "http://www.w3.org/Graphics/SVG/1.1/DTD/svg11.dtd">
<!-- Generated by graphviz version 2.30.1 (20130222.1704)
 -->
<!-- Title: RexxInstruction.cpp Pages: 1 -->
<!--zoomable 320 -->
<svg id="main" version="1.1" xmlns="http://www.w3.org/2000/svg" xmlns:xlink="http://www.w3.org/1999/xlink" xml:space="preserve" onload="init(evt)">
<style type="text/css"><![CDATA[
.edge:hover path { stroke: red; }
.edge:hover polygon { stroke: red; fill: red; }
]]></style>
<script type="text/javascript"><![CDATA[
var edges = document.getElementsByTagName('g');
if (edges && edges.length) {
  for (var i=0;i<edges.length;i++) {
    if (edges[i].id.substr(0,4)=='edge') {
      edges[i].setAttribute('class','edge');
    }
  }
}
]]></script>
        <defs>
                <circle id="rim" cx="0" cy="0" r="7"/>
                <circle id="rim2" cx="0" cy="0" r="3.5"/>
                <g id="zoomPlus">
                        <use xlink:href="#rim" fill="#404040">
                                <set attributeName="fill" to="#808080" begin="zoomplus.mouseover" end="zoomplus.mouseout"/>
                        </use>
                        <path d="M-4,0h8M0,-4v8" fill="none" stroke="white" stroke-width="1.5" pointer-events="none"/>
                </g>
                <g id="zoomMin">
                        <use xlink:href="#rim" fill="#404040">
                                <set attributeName="fill" to="#808080" begin="zoomminus.mouseover" end="zoomminus.mouseout"/>
                        </use>
                        <path d="M-4,0h8" fill="none" stroke="white" stroke-width="1.5" pointer-events="none"/>
                </g>
                <g id="dirArrow">
                        <path fill="none" stroke="white" stroke-width="1.5" d="M0,-3.0v7 M-2.5,-0.5L0,-3.0L2.5,-0.5"/>
                </g>
               <g id="resetDef">
                       <use xlink:href="#rim2" fill="#404040">
                               <set attributeName="fill" to="#808080" begin="reset.mouseover" end="reset.mouseout"/>
                       </use>
               </g>
        </defs>

<script type="text/javascript">
var viewWidth = 2707;
var viewHeight = 320;
var sectionId = 'dynsection-0';
</script>
<script xlink:href="svgpan.js"/>
<svg id="graph" class="graph">
<g id="viewport">
<title>RexxInstruction.cpp</title>
<polygon fill="white" stroke="white" points="-4,5 -4,-316 2704,-316 2704,5 -4,5"/>
<!-- Node1 -->
<g id="node1" class="node"><title>Node1</title>
<g id="a_node1"><a xlink:title=" ">
<polygon fill="#bfbfbf" stroke="black" points="1949.09,-291 1949.09,-311 2052.91,-311 2052.91,-291 1949.09,-291"/>
<text text-anchor="middle" x="2001" y="-297" font-family="Helvetica,sans-Serif" font-size="10.00">RexxInstruction.cpp</text>
</a>
</g>
</g>
<!-- Node2 -->
<g id="node2" class="node"><title>Node2</title>
<g id="a_node2"><a xlink:title=" ">
<polygon fill="white" stroke="#bfbfbf" points="1328.16,-233 1328.16,-253 1375.84,-253 1375.84,-233 1328.16,-233"/>
<text text-anchor="middle" x="1352" y="-239" font-family="Helvetica,sans-Serif" font-size="10.00">stdlib.h</text>
</a>
</g>
</g>
<!-- Node1&#45;&gt;Node2 -->
<g id="edge1" class="edge"><title>Node1&#45;&gt;Node2</title>
<path fill="none" stroke="midnightblue" d="M1948.99,-299.951C1843.97,-299.027 1599.17,-292.691 1386.12,-253.815"/>
<polygon fill="midnightblue" stroke="midnightblue" points="1386.47,-250.32 1376,-251.939 1385.19,-257.203 1386.47,-250.32"/>
</g>
<!-- Node3 -->
<g id="node3" class="node"><title>Node3</title>
<g id="a_node3"><a xlink:href="_rexx_core_8h.html" target="_top" xlink:title=" ">
<polygon fill="white" stroke="black" points="1393.6,-233 1393.6,-253 1462.4,-253 1462.4,-233 1393.6,-233"/>
<text text-anchor="middle" x="1428" y="-239" font-family="Helvetica,sans-Serif" font-size="10.00">RexxCore.h</text>
</a>
</g>
</g>
<!-- Node1&#45;&gt;Node3 -->
<g id="edge2" class="edge"><title>Node1&#45;&gt;Node3</title>
<path fill="none" stroke="midnightblue" d="M1948.89,-294.907C1837.4,-284.011 1577.4,-258.601 1472.78,-248.376"/>
<polygon fill="midnightblue" stroke="midnightblue" points="1472.86,-244.867 1462.56,-247.378 1472.18,-251.834 1472.86,-244.867"/>
</g>
<!-- Node69 -->
<g id="node48" class="node"><title>Node69</title>
<g id="a_node48"><a xlink:href="_rexx_instruction_8hpp.html" target="_top" xlink:title=" ">
<polygon fill="white" stroke="black" points="2594.81,-233 2594.81,-253 2699.19,-253 2699.19,-233 2594.81,-233"/>
<text text-anchor="middle" x="2647" y="-239" font-family="Helvetica,sans-Serif" font-size="10.00">RexxInstruction.hpp</text>
</a>
</g>
</g>
<!-- Node1&#45;&gt;Node69 -->
<g id="edge53" class="edge"><title>Node1&#45;&gt;Node69</title>
<path fill="none" stroke="midnightblue" d="M2053.07,-296.28C2151.96,-289.09 2373.7,-272.368 2560,-254 2567.96,-253.215 2576.32,-252.331 2584.59,-251.421"/>
<polygon fill="midnightblue" stroke="midnightblue" points="2585.03,-254.892 2594.58,-250.303 2584.26,-247.936 2585.03,-254.892"/>
</g>
<!-- Node70 -->
<g id="node49" class="node"><title>Node70</title>
<g id="a_node49"><a xlink:href="_clause_8hpp.html" target="_top" xlink:title=" ">
<polygon fill="white" stroke="black" points="2484.7,-233 2484.7,-253 2551.3,-253 2551.3,-233 2484.7,-233"/>
<text text-anchor="middle" x="2518" y="-239" font-family="Helvetica,sans-Serif" font-size="10.00">Clause.hpp</text>
</a>
</g>
</g>
<!-- Node1&#45;&gt;Node70 -->
<g id="edge55" class="edge"><title>Node1&#45;&gt;Node70</title>
<path fill="none" stroke="midnightblue" d="M2052.94,-294.374C2154.87,-283.333 2379.43,-259.01 2474.31,-248.732"/>
<polygon fill="midnightblue" stroke="midnightblue" points="2474.86,-252.194 2484.42,-247.637 2474.1,-245.234 2474.86,-252.194"/>
</g>
<!-- Node4 -->
<g id="node4" class="node"><title>Node4</title>
<g id="a_node4"><a xlink:href="oorexxapi_8h.html" target="_top" xlink:title=" ">
<polygon fill="white" stroke="black" points="2279.15,-175 2279.15,-195 2346.85,-195 2346.85,-175 2279.15,-175"/>
<text text-anchor="middle" x="2313" y="-181" font-family="Helvetica,sans-Serif" font-size="10.00">oorexxapi.h</text>
</a>
</g>
</g>
<!-- Node3&#45;&gt;Node4 -->
<g id="edge3" class="edge"><title>Node3&#45;&gt;Node4</title>
<path fill="none" stroke="midnightblue" d="M1462.42,-239.822C1600.56,-231.081 2114.62,-198.553 2268.93,-188.789"/>
<polygon fill="midnightblue" stroke="midnightblue" points="2269.23,-192.277 2278.99,-188.152 2268.79,-185.291 2269.23,-192.277"/>
</g>
<!-- Node11 -->
<g id="node7" class="node"><title>Node11</title>
<g id="a_node7"><a xlink:title=" ">
<polygon fill="white" stroke="#bfbfbf" points="1770.27,-175 1770.27,-195 1815.73,-195 1815.73,-175 1770.27,-175"/>
<text text-anchor="middle" x="1793" y="-181" font-family="Helvetica,sans-Serif" font-size="10.00">stdio.h</text>
</a>
</g>
</g>
<!-- Node3&#45;&gt;Node11 -->
<g id="edge6" class="edge"><title>Node3&#45;&gt;Node11</title>
<path fill="none" stroke="midnightblue" d="M1462.85,-239.101C1522.11,-233.761 1646.35,-220.779 1760.13,-195.879"/>
<polygon fill="midnightblue" stroke="midnightblue" points="1761.05,-199.26 1770.05,-193.671 1759.53,-192.427 1761.05,-199.26"/>
</g>
<!-- Node12 -->
<g id="node8" class="node"><title>Node12</title>
<g id="a_node8"><a xlink:title=" ">
<polygon fill="white" stroke="#bfbfbf" points="1833.93,-175 1833.93,-195 1886.07,-195 1886.07,-175 1833.93,-175"/>
<text text-anchor="middle" x="1860" y="-181" font-family="Helvetica,sans-Serif" font-size="10.00">stdarg.h</text>
</a>
</g>
</g>
<!-- Node3&#45;&gt;Node12 -->
<g id="edge7" class="edge"><title>Node3&#45;&gt;Node12</title>
<path fill="none" stroke="midnightblue" d="M1462.44,-239.807C1531.53,-235.011 1691.72,-221.892 1824,-196 1824.1,-195.981 1824.2,-195.961 1824.3,-195.941"/>
<polygon fill="midnightblue" stroke="midnightblue" points="1824.79,-199.419 1833.77,-193.794 1823.24,-192.592 1824.79,-199.419"/>
</g>
<!-- Node13 -->
<g id="node9" class="node"><title>Node13</title>
<g id="a_node9"><a xlink:title=" ">
<polygon fill="white" stroke="#bfbfbf" points="1903.6,-175 1903.6,-195 1952.4,-195 1952.4,-175 1903.6,-175"/>
<text text-anchor="middle" x="1928" y="-181" font-family="Helvetica,sans-Serif" font-size="10.00">string.h</text>
</a>
</g>
</g>
<!-- Node3&#45;&gt;Node13 -->
<g id="edge8" class="edge"><title>Node3&#45;&gt;Node13</title>
<path fill="none" stroke="midnightblue" d="M1462.61,-240.908C1539.01,-238.006 1727.82,-228.122 1893.4,-196.009"/>
<polygon fill="midnightblue" stroke="midnightblue" points="1894.13,-199.432 1903.27,-194.064 1892.78,-192.565 1894.13,-199.432"/>
</g>
<!-- Node14 -->
<g id="node10" class="node"><title>Node14</title>
<g id="a_node10"><a xlink:title=" ">
<polygon fill="white" stroke="#bfbfbf" points="-0.120605,-175 -0.120605,-195 48.1206,-195 48.1206,-175 -0.120605,-175"/>
<text text-anchor="middle" x="24" y="-181" font-family="Helvetica,sans-Serif" font-size="10.00">ctype.h</text>
</a>
</g>
</g>
<!-- Node3&#45;&gt;Node14 -->
<g id="edge9" class="edge"><title>Node3&#45;&gt;Node14</title>
<path fill="none" stroke="midnightblue" d="M1393.53,-233.492C1390.32,-232.905 1387.11,-232.392 1384,-232 801.918,-158.681 641.197,-288.915 58.2531,-195.766"/>
<polygon fill="midnightblue" stroke="midnightblue" points="58.7668,-192.304 48.337,-194.167 57.6521,-199.215 58.7668,-192.304"/>
</g>
<!-- Node15 -->
<g id="node11" class="node"><title>Node15</title>
<g id="a_node11"><a xlink:title=" ">
<polygon fill="white" stroke="#bfbfbf" points="66.4434,-175 66.4434,-195 113.557,-195 113.557,-175 66.4434,-175"/>
<text text-anchor="middle" x="90" y="-181" font-family="Helvetica,sans-Serif" font-size="10.00">limits.h</text>
</a>
</g>
</g>
<!-- Node3&#45;&gt;Node15 -->
<g id="edge10" class="edge"><title>Node3&#45;&gt;Node15</title>
<path fill="none" stroke="midnightblue" d="M1393.53,-233.497C1390.32,-232.909 1387.11,-232.394 1384,-232 830.729,-161.918 677.301,-287.009 123.832,-195.868"/>
<polygon fill="midnightblue" stroke="midnightblue" points="124.028,-192.353 113.59,-194.164 122.88,-199.258 124.028,-192.353"/>
</g>
<!-- Node16 -->
<g id="node12" class="node"><title>Node16</title>
<g id="a_node12"><a xlink:href="_rexx_platform_definitions_8h.html" target="_top" xlink:title=" ">
<polygon fill="white" stroke="black" points="131.478,-175 131.478,-195 262.522,-195 262.522,-175 131.478,-175"/>
<text text-anchor="middle" x="197" y="-181" font-family="Helvetica,sans-Serif" font-size="10.00">RexxPlatformDefinitions.h</text>
</a>
</g>
</g>
<!-- Node3&#45;&gt;Node16 -->
<g id="edge11" class="edge"><title>Node3&#45;&gt;Node16</title>
<path fill="none" stroke="midnightblue" d="M1393.52,-233.51C1390.32,-232.919 1387.11,-232.4 1384,-232 893.118,-168.869 764.208,-237.193 271,-196 270.895,-195.991 270.79,-195.982 270.685,-195.974"/>
<polygon fill="midnightblue" stroke="midnightblue" points="271.016,-192.489 260.731,-195.032 270.357,-199.458 271.016,-192.489"/>
</g>
<!-- Node19 -->
<g id="node15" class="node"><title>Node19</title>
<g id="a_node15"><a xlink:href="_rexx_constants_8hpp.html" target="_top" xlink:title=" ">
<polygon fill="white" stroke="black" points="280.365,-175 280.365,-195 383.635,-195 383.635,-175 280.365,-175"/>
<text text-anchor="middle" x="332" y="-181" font-family="Helvetica,sans-Serif" font-size="10.00">RexxConstants.hpp</text>
</a>
</g>
</g>
<!-- Node3&#45;&gt;Node19 -->
<g id="edge14" class="edge"><title>Node3&#45;&gt;Node19</title>
<path fill="none" stroke="midnightblue" d="M1393.52,-233.524C1390.32,-232.93 1387.11,-232.406 1384,-232 949.185,-175.16 834.602,-236.912 398,-196 396.702,-195.878 395.39,-195.748 394.069,-195.61"/>
<polygon fill="midnightblue" stroke="midnightblue" points="394.149,-192.096 383.812,-194.42 393.342,-199.049 394.149,-192.096"/>
</g>
<!-- Node20 -->
<g id="node16" class="node"><title>Node20</title>
<g id="a_node16"><a xlink:href="_class_type_codes_8h.html" target="_top" xlink:title=" ">
<polygon fill="white" stroke="black" points="267.032,-59 267.032,-79 366.968,-79 366.968,-59 267.032,-59"/>
<text text-anchor="middle" x="317" y="-65" font-family="Helvetica,sans-Serif" font-size="10.00">ClassTypeCodes.h</text>
</a>
</g>
</g>
<!-- Node3&#45;&gt;Node20 -->
<g id="edge15" class="edge"><title>Node3&#45;&gt;Node20</title>
<path fill="none" stroke="midnightblue" d="M1393.52,-233.544C1390.32,-232.946 1387.11,-232.416 1384,-232 1012.31,-182.242 912.418,-247.769 541,-196 513.507,-192.168 315.199,-159.788 298,-138 286.661,-123.636 295.01,-102.898 303.939,-88.1064"/>
<polygon fill="midnightblue" stroke="midnightblue" points="307.114,-89.6484 309.69,-79.3714 301.268,-85.7991 307.114,-89.6484"/>
</g>
<!-- Node21 -->
<g id="node17" class="node"><title>Node21</title>
<g id="a_node17"><a xlink:href="_global_names_8h.html" target="_top" xlink:title=" ">
<polygon fill="white" stroke="black" points="1114.54,-175 1114.54,-195 1199.46,-195 1199.46,-175 1114.54,-175"/>
<text text-anchor="middle" x="1157" y="-181" font-family="Helvetica,sans-Serif" font-size="10.00">GlobalNames.h</text>
</a>
</g>
</g>
<!-- Node3&#45;&gt;Node21 -->
<g id="edge16" class="edge"><title>Node3&#45;&gt;Node21</title>
<path fill="none" stroke="midnightblue" d="M1393.43,-234.062C1390.24,-233.355 1387.06,-232.658 1384,-232 1351.43,-225 1265.93,-207.792 1209.66,-196.522"/>
<polygon fill="midnightblue" stroke="midnightblue" points="1210.01,-193.022 1199.51,-194.491 1208.63,-199.886 1210.01,-193.022"/>
</g>
<!-- Node22 -->
<g id="node18" class="node"><title>Node22</title>
<g id="a_node18"><a xlink:href="_object_class_8hpp.html" target="_top" xlink:title=" ">
<polygon fill="white" stroke="black" points="829.315,-175 829.315,-195 918.685,-195 918.685,-175 829.315,-175"/>
<text text-anchor="middle" x="874" y="-181" font-family="Helvetica,sans-Serif" font-size="10.00">ObjectClass.hpp</text>
</a>
</g>
</g>
<!-- Node3&#45;&gt;Node22 -->
<g id="edge17" class="edge"><title>Node3&#45;&gt;Node22</title>
<path fill="none" stroke="midnightblue" d="M1393.5,-233.664C1390.3,-233.04 1387.1,-232.472 1384,-232 1186.26,-201.886 1131.32,-221.877 928.802,-195.966"/>
<polygon fill="midnightblue" stroke="midnightblue" points="929.1,-192.475 918.732,-194.655 928.197,-199.417 929.1,-192.475"/>
</g>
<!-- Node25 -->
<g id="node21" class="node"><title>Node25</title>
<g id="a_node21"><a xlink:href="_table_class_8hpp.html" target="_top" xlink:title=" ">
<polygon fill="white" stroke="black" points="884.813,-59 884.813,-79 969.187,-79 969.187,-59 884.813,-59"/>
<text text-anchor="middle" x="927" y="-65" font-family="Helvetica,sans-Serif" font-size="10.00">TableClass.hpp</text>
</a>
</g>
</g>
<!-- Node3&#45;&gt;Node25 -->
<g id="edge20" class="edge"><title>Node3&#45;&gt;Node25</title>
<path fill="none" stroke="midnightblue" d="M1393.48,-233.829C1390.28,-233.171 1387.08,-232.549 1384,-232 1322.67,-221.085 1156.59,-232.346 1106,-196 1073.88,-172.921 1096.81,-142.003 1067,-116 1042.51,-94.6369 1007.86,-83.1487 979.153,-76.9955"/>
<polygon fill="midnightblue" stroke="midnightblue" points="979.765,-73.5488 969.275,-75.0341 978.402,-80.4147 979.765,-73.5488"/>
</g>
<!-- Node28 -->
<g id="node23" class="node"><title>Node28</title>
<g id="a_node23"><a xlink:href="_stack_class_8hpp.html" target="_top" xlink:title=" ">
<polygon fill="white" stroke="black" points="1217.26,-175 1217.26,-195 1302.74,-195 1302.74,-175 1217.26,-175"/>
<text text-anchor="middle" x="1260" y="-181" font-family="Helvetica,sans-Serif" font-size="10.00">StackClass.hpp</text>
</a>
</g>
</g>
<!-- Node3&#45;&gt;Node28 -->
<g id="edge22" class="edge"><title>Node3&#45;&gt;Node28</title>
<path fill="none" stroke="midnightblue" d="M1400.63,-232.878C1372.36,-223.453 1328.06,-208.688 1296.75,-198.25"/>
<polygon fill="midnightblue" stroke="midnightblue" points="1297.67,-194.867 1287.08,-195.025 1295.46,-201.508 1297.67,-194.867"/>
</g>
<!-- Node29 -->
<g id="node24" class="node"><title>Node29</title>
<g id="a_node24"><a xlink:href="_rexx_memory_8hpp.html" target="_top" xlink:title=" ">
<polygon fill="white" stroke="black" points="550.189,-175 550.189,-195 643.811,-195 643.811,-175 550.189,-175"/>
<text text-anchor="middle" x="597" y="-181" font-family="Helvetica,sans-Serif" font-size="10.00">RexxMemory.hpp</text>
</a>
</g>
</g>
<!-- Node3&#45;&gt;Node29 -->
<g id="edge23" class="edge"><title>Node3&#45;&gt;Node29</title>
<path fill="none" stroke="midnightblue" d="M1393.51,-233.596C1390.31,-232.987 1387.1,-232.44 1384,-232 1312.41,-221.843 822.725,-197.109 653.996,-188.786"/>
<polygon fill="midnightblue" stroke="midnightblue" points="653.986,-185.281 643.826,-188.285 653.642,-192.273 653.986,-185.281"/>
</g>
<!-- Node36 -->
<g id="node29" class="node"><title>Node36</title>
<g id="a_node29"><a xlink:href="_rexx_behaviour_8hpp.html" target="_top" xlink:title=" ">
<polygon fill="white" stroke="black" points="1320.64,-175 1320.64,-195 1423.36,-195 1423.36,-175 1320.64,-175"/>
<text text-anchor="middle" x="1372" y="-181" font-family="Helvetica,sans-Serif" font-size="10.00">RexxBehaviour.hpp</text>
</a>
</g>
</g>
<!-- Node3&#45;&gt;Node36 -->
<g id="edge31" class="edge"><title>Node3&#45;&gt;Node36</title>
<path fill="none" stroke="midnightblue" d="M1418.75,-232.753C1410.52,-224.516 1398.27,-212.274 1388.38,-202.382"/>
<polygon fill="midnightblue" stroke="midnightblue" points="1390.62,-199.671 1381.08,-195.075 1385.67,-204.621 1390.62,-199.671"/>
</g>
<!-- Node38 -->
<g id="node31" class="node"><title>Node38</title>
<g id="a_node31"><a xlink:href="_class_class_8hpp.html" target="_top" xlink:title=" ">
<polygon fill="white" stroke="black" points="1441.26,-175 1441.26,-195 1526.74,-195 1526.74,-175 1441.26,-175"/>
<text text-anchor="middle" x="1484" y="-181" font-family="Helvetica,sans-Serif" font-size="10.00">ClassClass.hpp</text>
</a>
</g>
</g>
<!-- Node3&#45;&gt;Node38 -->
<g id="edge33" class="edge"><title>Node3&#45;&gt;Node38</title>
<path fill="none" stroke="midnightblue" d="M1437.25,-232.753C1445.48,-224.516 1457.73,-212.274 1467.62,-202.382"/>
<polygon fill="midnightblue" stroke="midnightblue" points="1470.33,-204.621 1474.92,-195.075 1465.38,-199.671 1470.33,-204.621"/>
</g>
<!-- Node39 -->
<g id="node32" class="node"><title>Node39</title>
<g id="a_node32"><a xlink:href="_rexx_envelope_8hpp.html" target="_top" xlink:title=" ">
<polygon fill="white" stroke="black" points="1545.03,-175 1545.03,-195 1644.97,-195 1644.97,-175 1545.03,-175"/>
<text text-anchor="middle" x="1595" y="-181" font-family="Helvetica,sans-Serif" font-size="10.00">RexxEnvelope.hpp</text>
</a>
</g>
</g>
<!-- Node3&#45;&gt;Node39 -->
<g id="edge34" class="edge"><title>Node3&#45;&gt;Node39</title>
<path fill="none" stroke="midnightblue" d="M1455.2,-232.878C1483.31,-223.453 1527.34,-208.688 1558.47,-198.25"/>
<polygon fill="midnightblue" stroke="midnightblue" points="1559.72,-201.523 1568.09,-195.025 1557.49,-194.886 1559.72,-201.523"/>
</g>
<!-- Node40 -->
<g id="node33" class="node"><title>Node40</title>
<g id="a_node33"><a xlink:href="_rexx_activity_8hpp.html" target="_top" xlink:title=" ">
<polygon fill="white" stroke="black" points="1663.41,-175 1663.41,-195 1752.59,-195 1752.59,-175 1663.41,-175"/>
<text text-anchor="middle" x="1708" y="-181" font-family="Helvetica,sans-Serif" font-size="10.00">RexxActivity.hpp</text>
</a>
</g>
</g>
<!-- Node3&#45;&gt;Node40 -->
<g id="edge35" class="edge"><title>Node3&#45;&gt;Node40</title>
<path fill="none" stroke="midnightblue" d="M1462.61,-235.077C1510.37,-225.526 1596.97,-208.207 1653.47,-196.906"/>
<polygon fill="midnightblue" stroke="midnightblue" points="1654.19,-200.332 1663.31,-194.938 1652.82,-193.468 1654.19,-200.332"/>
</g>
<!-- Node51 -->
<g id="node44" class="node"><title>Node51</title>
<g id="a_node44"><a xlink:href="_number_string_class_8hpp.html" target="_top" xlink:title=" ">
<polygon fill="white" stroke="black" points="936.921,-175 936.921,-195 1059.08,-195 1059.08,-175 936.921,-175"/>
<text text-anchor="middle" x="998" y="-181" font-family="Helvetica,sans-Serif" font-size="10.00">NumberStringClass.hpp</text>
</a>
</g>
</g>
<!-- Node3&#45;&gt;Node51 -->
<g id="edge48" class="edge"><title>Node3&#45;&gt;Node51</title>
<path fill="none" stroke="midnightblue" d="M1393.48,-233.784C1390.29,-233.135 1387.09,-232.528 1384,-232 1246.85,-208.547 1211.08,-213.196 1073,-196 1071.89,-195.862 1070.77,-195.722 1069.65,-195.581"/>
<polygon fill="midnightblue" stroke="midnightblue" points="1069.75,-192.065 1059.38,-194.272 1068.86,-199.009 1069.75,-192.065"/>
</g>
<!-- Node67 -->
<g id="node46" class="node"><title>Node67</title>
<g id="a_node46"><a xlink:href="_activity_manager_8hpp.html" target="_top" xlink:title=" ">
<polygon fill="white" stroke="black" points="2367.97,-175 2367.97,-195 2474.03,-195 2474.03,-175 2367.97,-175"/>
<text text-anchor="middle" x="2421" y="-181" font-family="Helvetica,sans-Serif" font-size="10.00">ActivityManager.hpp</text>
</a>
</g>
</g>
<!-- Node3&#45;&gt;Node67 -->
<g id="edge51" class="edge"><title>Node3&#45;&gt;Node67</title>
<path fill="none" stroke="midnightblue" d="M1462.61,-241.539C1584.88,-239.645 2007.88,-230.82 2355,-196 2355.91,-195.909 2356.82,-195.814 2357.74,-195.715"/>
<polygon fill="midnightblue" stroke="midnightblue" points="2358.22,-199.183 2367.75,-194.54 2357.41,-192.231 2358.22,-199.183"/>
</g>
<!-- Node5 -->
<g id="node5" class="node"><title>Node5</title>
<g id="a_node5"><a xlink:href="rexx_8h.html" target="_top" xlink:title=" ">
<polygon fill="white" stroke="red" points="2371.38,-117 2371.38,-137 2414.62,-137 2414.62,-117 2371.38,-117"/>
<text text-anchor="middle" x="2393" y="-123" font-family="Helvetica,sans-Serif" font-size="10.00">rexx.h</text>
</a>
</g>
</g>
<!-- Node4&#45;&gt;Node5 -->
<g id="edge4" class="edge"><title>Node4&#45;&gt;Node5</title>
<path fill="none" stroke="midnightblue" d="M2326.21,-174.753C2338.56,-166.109 2357.21,-153.052 2371.67,-142.931"/>
<polygon fill="midnightblue" stroke="midnightblue" points="2373.85,-145.677 2380.04,-137.075 2369.84,-139.943 2373.85,-145.677"/>
</g>
<!-- Node10 -->
<g id="node6" class="node"><title>Node10</title>
<g id="a_node6"><a xlink:href="oorexxerrors_8h.html" target="_top" xlink:title=" ">
<polygon fill="white" stroke="black" points="2272.77,-117 2272.77,-137 2353.23,-137 2353.23,-117 2272.77,-117"/>
<text text-anchor="middle" x="2313" y="-123" font-family="Helvetica,sans-Serif" font-size="10.00">oorexxerrors.h</text>
</a>
</g>
</g>
<!-- Node4&#45;&gt;Node10 -->
<g id="edge5" class="edge"><title>Node4&#45;&gt;Node10</title>
<path fill="none" stroke="midnightblue" d="M2313,-174.753C2313,-167.25 2313,-156.424 2313,-147.078"/>
<polygon fill="midnightblue" stroke="midnightblue" points="2316.5,-147.075 2313,-137.075 2309.5,-147.075 2316.5,-147.075"/>
</g>
<!-- Node17 -->
<g id="node13" class="node"><title>Node17</title>
<g id="a_node13"><a xlink:title=" ">
<polygon fill="white" stroke="#bfbfbf" points="142.87,-117 142.87,-137 251.13,-137 251.13,-117 142.87,-117"/>
<text text-anchor="middle" x="197" y="-123" font-family="Helvetica,sans-Serif" font-size="10.00">PlatformDefinitions.h</text>
</a>
</g>
</g>
<!-- Node16&#45;&gt;Node17 -->
<g id="edge12" class="edge"><title>Node16&#45;&gt;Node17</title>
<path fill="none" stroke="midnightblue" d="M197,-174.753C197,-167.25 197,-156.424 197,-147.078"/>
<polygon fill="midnightblue" stroke="midnightblue" points="200.5,-147.075 197,-137.075 193.5,-147.075 200.5,-147.075"/>
</g>
<!-- Node18 -->
<g id="node14" class="node"><title>Node18</title>
<g id="a_node14"><a xlink:href="_rexx_error_codes_8h.html" target="_top" xlink:title=" ">
<polygon fill="white" stroke="black" points="26.8745,-117 26.8745,-137 125.125,-137 125.125,-117 26.8745,-117"/>
<text text-anchor="middle" x="76" y="-123" font-family="Helvetica,sans-Serif" font-size="10.00">RexxErrorCodes.h</text>
</a>
</g>
</g>
<!-- Node16&#45;&gt;Node18 -->
<g id="edge13" class="edge"><title>Node16&#45;&gt;Node18</title>
<path fill="none" stroke="midnightblue" d="M177.29,-174.878C157.69,-165.807 127.398,-151.788 105.044,-141.442"/>
<polygon fill="midnightblue" stroke="midnightblue" points="106.247,-138.142 95.7016,-137.118 103.307,-144.495 106.247,-138.142"/>
</g>
<!-- Node23 -->
<g id="node19" class="node"><title>Node23</title>
<g id="a_node19"><a xlink:href="_numerics_8hpp.html" target="_top" xlink:title=" ">
<polygon fill="white" stroke="black" points="843.155,-117 843.155,-137 920.845,-137 920.845,-117 843.155,-117"/>
<text text-anchor="middle" x="882" y="-123" font-family="Helvetica,sans-Serif" font-size="10.00">Numerics.hpp</text>
</a>
</g>
</g>
<!-- Node22&#45;&gt;Node23 -->
<g id="edge18" class="edge"><title>Node22&#45;&gt;Node23</title>
<path fill="none" stroke="midnightblue" d="M875.321,-174.753C876.393,-167.25 877.939,-156.424 879.275,-147.078"/>
<polygon fill="midnightblue" stroke="midnightblue" points="882.754,-147.47 880.704,-137.075 875.824,-146.48 882.754,-147.47"/>
</g>
<!-- Node24 -->
<g id="node20" class="node"><title>Node24</title>
<g id="a_node20"><a xlink:title=" ">
<polygon fill="white" stroke="#bfbfbf" points="613.209,-59 613.209,-79 664.791,-79 664.791,-59 613.209,-59"/>
<text text-anchor="middle" x="639" y="-65" font-family="Helvetica,sans-Serif" font-size="10.00">stddef.h</text>
</a>
</g>
</g>
<!-- Node22&#45;&gt;Node24 -->
<g id="edge19" class="edge"><title>Node22&#45;&gt;Node24</title>
<path fill="none" stroke="midnightblue" d="M829.032,-179.343C792.143,-173.893 739.714,-162.296 700,-138 679.162,-125.252 661.316,-103.227 650.406,-87.7034"/>
<polygon fill="midnightblue" stroke="midnightblue" points="653.04,-85.3497 644.544,-79.0193 647.238,-89.2659 653.04,-85.3497"/>
</g>
<!-- Node26 -->
<g id="node22" class="node"><title>Node26</title>
<g id="a_node22"><a xlink:href="_rexx_collection_8hpp.html" target="_top" xlink:title=" ">
<polygon fill="white" stroke="red" points="875.921,-1 875.921,-21 978.079,-21 978.079,-1 875.921,-1"/>
<text text-anchor="middle" x="927" y="-7" font-family="Helvetica,sans-Serif" font-size="10.00">RexxCollection.hpp</text>
</a>
</g>
</g>
<!-- Node25&#45;&gt;Node26 -->
<g id="edge21" class="edge"><title>Node25&#45;&gt;Node26</title>
<path fill="none" stroke="midnightblue" d="M927,-58.7527C927,-51.2504 927,-40.4238 927,-31.0781"/>
<polygon fill="midnightblue" stroke="midnightblue" points="930.5,-31.0752 927,-21.0752 923.5,-31.0752 930.5,-31.0752"/>
</g>
<!-- Node30 -->
<g id="node25" class="node"><title>Node30</title>
<g id="a_node25"><a xlink:title=" ">
<polygon fill="white" stroke="#bfbfbf" points="419.084,-117 419.084,-137 522.916,-137 522.916,-117 419.084,-117"/>
<text text-anchor="middle" x="471" y="-123" font-family="Helvetica,sans-Serif" font-size="10.00">SysSemaphore.hpp</text>
</a>
</g>
</g>
<!-- Node29&#45;&gt;Node30 -->
<g id="edge24" class="edge"><title>Node29&#45;&gt;Node30</title>
<path fill="none" stroke="midnightblue" d="M576.475,-174.878C555.974,-165.766 524.239,-151.662 500.931,-141.303"/>
<polygon fill="midnightblue" stroke="midnightblue" points="502.075,-137.981 491.516,-137.118 499.232,-144.378 502.075,-137.981"/>
</g>
<!-- Node31 -->
<g id="node26" class="node"><title>Node31</title>
<g id="a_node26"><a xlink:href="_identity_table_class_8hpp.html" target="_top" xlink:title=" ">
<polygon fill="white" stroke="black" points="708.692,-117 708.692,-137 825.308,-137 825.308,-117 708.692,-117"/>
<text text-anchor="middle" x="767" y="-123" font-family="Helvetica,sans-Serif" font-size="10.00">IdentityTableClass.hpp</text>
</a>
</g>
</g>
<!-- Node29&#45;&gt;Node31 -->
<g id="edge25" class="edge"><title>Node29&#45;&gt;Node31</title>
<path fill="none" stroke="midnightblue" d="M624.692,-174.878C653.302,-165.453 698.126,-150.688 729.813,-140.25"/>
<polygon fill="midnightblue" stroke="midnightblue" points="731.199,-143.478 739.602,-137.025 729.009,-136.83 731.199,-143.478"/>
</g>
<!-- Node32 -->
<g id="node27" class="node"><title>Node32</title>
<g id="a_node27"><a xlink:href="_memory_stats_8hpp.html" target="_top" xlink:title=" ">
<polygon fill="white" stroke="black" points="306.818,-117 306.818,-137 401.182,-137 401.182,-117 306.818,-117"/>
<text text-anchor="middle" x="354" y="-123" font-family="Helvetica,sans-Serif" font-size="10.00">MemoryStats.hpp</text>
</a>
</g>
</g>
<!-- Node29&#45;&gt;Node32 -->
<g id="edge27" class="edge"><title>Node29&#45;&gt;Node32</title>
<path fill="none" stroke="midnightblue" d="M557.688,-174.94C515.603,-165.242 448.753,-149.836 403.205,-139.339"/>
<polygon fill="midnightblue" stroke="midnightblue" points="403.786,-135.882 393.256,-137.047 402.214,-142.703 403.786,-135.882"/>
</g>
<!-- Node33 -->
<g id="node28" class="node"><title>Node33</title>
<g id="a_node28"><a xlink:href="_memory_segment_8hpp.html" target="_top" xlink:title=" ">
<polygon fill="white" stroke="red" points="541.2,-117 541.2,-137 652.8,-137 652.8,-117 541.2,-117"/>
<text text-anchor="middle" x="597" y="-123" font-family="Helvetica,sans-Serif" font-size="10.00">MemorySegment.hpp</text>
</a>
</g>
</g>
<!-- Node29&#45;&gt;Node33 -->
<g id="edge29" class="edge"><title>Node29&#45;&gt;Node33</title>
<path fill="none" stroke="midnightblue" d="M597,-174.753C597,-167.25 597,-156.424 597,-147.078"/>
<polygon fill="midnightblue" stroke="midnightblue" points="600.5,-147.075 597,-137.075 593.5,-147.075 600.5,-147.075"/>
</g>
<!-- Node31&#45;&gt;Node25 -->
<g id="edge26" class="edge"><title>Node31&#45;&gt;Node25</title>
<path fill="none" stroke="midnightblue" d="M793.063,-116.878C819.874,-107.494 861.813,-92.8155 891.612,-82.3857"/>
<polygon fill="midnightblue" stroke="midnightblue" points="892.931,-85.6324 901.213,-79.0253 890.619,-79.0254 892.931,-85.6324"/>
</g>
<!-- Node32&#45;&gt;Node20 -->
<g id="edge28" class="edge"><title>Node32&#45;&gt;Node20</title>
<path fill="none" stroke="midnightblue" d="M347.89,-116.753C342.664,-108.843 334.996,-97.2372 328.608,-87.5683"/>
<polygon fill="midnightblue" stroke="midnightblue" points="331.429,-85.4891 322.996,-79.0752 325.589,-89.348 331.429,-85.4891"/>
</g>
<!-- Node33&#45;&gt;Node24 -->
<g id="edge30" class="edge"><title>Node33&#45;&gt;Node24</title>
<path fill="none" stroke="midnightblue" d="M603.935,-116.753C609.929,-108.761 618.752,-96.9975 626.048,-87.2698"/>
<polygon fill="midnightblue" stroke="midnightblue" points="628.994,-89.1752 632.194,-79.0752 623.394,-84.9752 628.994,-89.1752"/>
</g>
<!-- Node37 -->
<g id="node30" class="node"><title>Node37</title>
<g id="a_node30"><a xlink:href="_primitive_behaviour_names_8h.html" target="_top" xlink:title=" ">
<polygon fill="white" stroke="black" points="1115.31,-117 1115.31,-137 1254.69,-137 1254.69,-117 1115.31,-117"/>
<text text-anchor="middle" x="1185" y="-123" font-family="Helvetica,sans-Serif" font-size="10.00">PrimitiveBehaviourNames.h</text>
</a>
</g>
</g>
<!-- Node36&#45;&gt;Node37 -->
<g id="edge32" class="edge"><title>Node36&#45;&gt;Node37</title>
<path fill="none" stroke="midnightblue" d="M1341.54,-174.878C1309.8,-165.372 1259.91,-150.432 1225,-139.98"/>
<polygon fill="midnightblue" stroke="midnightblue" points="1225.72,-136.541 1215.14,-137.025 1223.71,-143.247 1225.72,-136.541"/>
</g>
<!-- Node41 -->
<g id="node34" class="node"><title>Node41</title>
<g id="a_node34"><a xlink:href="_list_class_8hpp.html" target="_top" xlink:title=" ">
<polygon fill="white" stroke="red" points="1373.99,-117 1373.99,-137 1450.01,-137 1450.01,-117 1373.99,-117"/>
<text text-anchor="middle" x="1412" y="-123" font-family="Helvetica,sans-Serif" font-size="10.00">ListClass.hpp</text>
</a>
</g>
</g>
<!-- Node40&#45;&gt;Node41 -->
<g id="edge36" class="edge"><title>Node40&#45;&gt;Node41</title>
<path fill="none" stroke="midnightblue" d="M1663.35,-175.818C1603.24,-164.796 1500.01,-145.83 1460.21,-138.173"/>
<polygon fill="midnightblue" stroke="midnightblue" points="1460.69,-134.7 1450.2,-136.218 1459.35,-141.57 1460.69,-134.7"/>
</g>
<!-- Node43 -->
<g id="node35" class="node"><title>Node43</title>
<g id="a_node35"><a xlink:href="_rexx_internal_stack_8hpp.html" target="_top" xlink:title=" ">
<polygon fill="white" stroke="black" points="1467.69,-117 1467.69,-137 1584.31,-137 1584.31,-117 1467.69,-117"/>
<text text-anchor="middle" x="1526" y="-123" font-family="Helvetica,sans-Serif" font-size="10.00">RexxInternalStack.hpp</text>
</a>
</g>
</g>
<!-- Node40&#45;&gt;Node43 -->
<g id="edge37" class="edge"><title>Node40&#45;&gt;Node43</title>
<path fill="none" stroke="midnightblue" d="M1678.35,-174.878C1647.46,-165.372 1598.9,-150.432 1564.93,-139.98"/>
<polygon fill="midnightblue" stroke="midnightblue" points="1565.92,-136.621 1555.33,-137.025 1563.86,-143.311 1565.92,-136.621"/>
</g>
<!-- Node44 -->
<g id="node36" class="node"><title>Node44</title>
<g id="a_node36"><a xlink:href="_rexx_activation_stack_8hpp.html" target="_top" xlink:title=" ">
<polygon fill="white" stroke="black" points="1602.69,-117 1602.69,-137 1729.31,-137 1729.31,-117 1602.69,-117"/>
<text text-anchor="middle" x="1666" y="-123" font-family="Helvetica,sans-Serif" font-size="10.00">RexxActivationStack.hpp</text>
</a>
</g>
</g>
<!-- Node40&#45;&gt;Node44 -->
<g id="edge38" class="edge"><title>Node40&#45;&gt;Node44</title>
<path fill="none" stroke="midnightblue" d="M1701.06,-174.753C1695.07,-166.761 1686.25,-154.998 1678.95,-145.27"/>
<polygon fill="midnightblue" stroke="midnightblue" points="1681.61,-142.975 1672.81,-137.075 1676.01,-147.175 1681.61,-142.975"/>
</g>
<!-- Node45 -->
<g id="node37" class="node"><title>Node45</title>
<g id="a_node37"><a xlink:href="_expression_stack_8hpp.html" target="_top" xlink:title=" ">
<polygon fill="white" stroke="black" points="1889.03,-117 1889.03,-137 1998.97,-137 1998.97,-117 1889.03,-117"/>
<text text-anchor="middle" x="1944" y="-123" font-family="Helvetica,sans-Serif" font-size="10.00">ExpressionStack.hpp</text>
</a>
</g>
</g>
<!-- Node40&#45;&gt;Node45 -->
<g id="edge39" class="edge"><title>Node40&#45;&gt;Node45</title>
<path fill="none" stroke="midnightblue" d="M1746.18,-174.94C1786.97,-165.262 1851.7,-149.901 1895.93,-139.406"/>
<polygon fill="midnightblue" stroke="midnightblue" points="1896.95,-142.761 1905.88,-137.047 1895.34,-135.95 1896.95,-142.761"/>
</g>
<!-- Node47 -->
<g id="node39" class="node"><title>Node47</title>
<g id="a_node39"><a xlink:href="_rexx_local_variables_8hpp.html" target="_top" xlink:title=" ">
<polygon fill="white" stroke="red" points="1747.45,-117 1747.45,-137 1870.55,-137 1870.55,-117 1747.45,-117"/>
<text text-anchor="middle" x="1809" y="-123" font-family="Helvetica,sans-Serif" font-size="10.00">RexxLocalVariables.hpp</text>
</a>
</g>
</g>
<!-- Node40&#45;&gt;Node47 -->
<g id="edge41" class="edge"><title>Node40&#45;&gt;Node47</title>
<path fill="none" stroke="midnightblue" d="M1724.68,-174.753C1740.78,-165.823 1765.38,-152.185 1783.86,-141.939"/>
<polygon fill="midnightblue" stroke="midnightblue" points="1785.58,-144.985 1792.63,-137.075 1782.19,-138.863 1785.58,-144.985"/>
</g>
<!-- Node62 -->
<g id="node40" class="node"><title>Node62</title>
<g id="a_node40"><a xlink:href="_source_location_8hpp.html" target="_top" xlink:title=" ">
<polygon fill="white" stroke="black" points="2540.52,-117 2540.52,-137 2645.48,-137 2645.48,-117 2540.52,-117"/>
<text text-anchor="middle" x="2593" y="-123" font-family="Helvetica,sans-Serif" font-size="10.00">SourceLocation.hpp</text>
</a>
</g>
</g>
<!-- Node40&#45;&gt;Node62 -->
<g id="edge42" class="edge"><title>Node40&#45;&gt;Node62</title>
<path fill="none" stroke="midnightblue" d="M1752.75,-175.111C1755.54,-174.696 1758.3,-174.32 1761,-174 2080.93,-136.044 2163.64,-160.857 2485,-138 2499.65,-136.958 2515.4,-135.623 2530.22,-134.269"/>
<polygon fill="midnightblue" stroke="midnightblue" points="2530.67,-137.743 2540.3,-133.333 2530.02,-130.773 2530.67,-137.743"/>
</g>
<!-- Node63 -->
<g id="node41" class="node"><title>Node63</title>
<g id="a_node41"><a xlink:href="_exit_handler_8hpp.html" target="_top" xlink:title=" ">
<polygon fill="white" stroke="red" points="2016.7,-117 2016.7,-137 2103.3,-137 2103.3,-117 2016.7,-117"/>
<text text-anchor="middle" x="2060" y="-123" font-family="Helvetica,sans-Serif" font-size="10.00">ExitHandler.hpp</text>
</a>
</g>
</g>
<!-- Node40&#45;&gt;Node63 -->
<g id="edge43" class="edge"><title>Node40&#45;&gt;Node63</title>
<path fill="none" stroke="midnightblue" d="M1752.8,-175.414C1755.57,-174.924 1758.32,-174.448 1761,-174 1866.89,-156.269 1896.37,-156.234 2006.78,-137.975"/>
<polygon fill="midnightblue" stroke="midnightblue" points="2007.35,-141.428 2016.64,-136.332 2006.2,-134.523 2007.35,-141.428"/>
</g>
<!-- Node65 -->
<g id="node42" class="node"><title>Node65</title>
<g id="a_node42"><a xlink:href="_activation_api_contexts_8hpp.html" target="_top" xlink:title=" ">
<polygon fill="white" stroke="black" points="2121.63,-117 2121.63,-137 2254.37,-137 2254.37,-117 2121.63,-117"/>
<text text-anchor="middle" x="2188" y="-123" font-family="Helvetica,sans-Serif" font-size="10.00">ActivationApiContexts.hpp</text>
</a>
</g>
</g>
<!-- Node40&#45;&gt;Node65 -->
<g id="edge45" class="edge"><title>Node40&#45;&gt;Node65</title>
<path fill="none" stroke="midnightblue" d="M1752.78,-175.277C1755.55,-174.821 1758.31,-174.391 1761,-174 1913,-151.905 1954.55,-156.046 2111.29,-138.048"/>
<polygon fill="midnightblue" stroke="midnightblue" points="2111.76,-141.517 2121.29,-136.888 2110.95,-134.564 2111.76,-141.517"/>
</g>
<!-- Node66 -->
<g id="node43" class="node"><title>Node66</title>
<g id="a_node43"><a xlink:title=" ">
<polygon fill="white" stroke="#bfbfbf" points="1272.47,-117 1272.47,-137 1355.53,-137 1355.53,-117 1272.47,-117"/>
<text text-anchor="middle" x="1314" y="-123" font-family="Helvetica,sans-Serif" font-size="10.00">SysActivity.hpp</text>
</a>
</g>
</g>
<!-- Node40&#45;&gt;Node66 -->
<g id="edge47" class="edge"><title>Node40&#45;&gt;Node66</title>
<path fill="none" stroke="midnightblue" d="M1663.31,-175.66C1659.83,-175.076 1656.36,-174.515 1653,-174 1528.73,-154.951 1494.11,-158.236 1365.92,-138.048"/>
<polygon fill="midnightblue" stroke="midnightblue" points="1366.13,-134.538 1355.71,-136.422 1365.03,-141.451 1366.13,-134.538"/>
</g>
<!-- Node46 -->
<g id="node38" class="node"><title>Node46</title>
<g id="a_node38"><a xlink:href="_array_class_8hpp.html" target="_top" xlink:title=" ">
<polygon fill="white" stroke="black" points="2181.82,-59 2181.82,-79 2266.18,-79 2266.18,-59 2181.82,-59"/>
<text text-anchor="middle" x="2224" y="-65" font-family="Helvetica,sans-Serif" font-size="10.00">ArrayClass.hpp</text>
</a>
</g>
</g>
<!-- Node45&#45;&gt;Node46 -->
<g id="edge40" class="edge"><title>Node45&#45;&gt;Node46</title>
<path fill="none" stroke="midnightblue" d="M1989.3,-116.94C2039.07,-106.986 2118.9,-91.02 2171.4,-80.5198"/>
<polygon fill="midnightblue" stroke="midnightblue" points="2172.4,-83.8893 2181.52,-78.496 2171.03,-77.0252 2172.4,-83.8893"/>
</g>
<!-- Node63&#45;&gt;Node3 -->
<g id="edge44" class="edge"><title>Node63&#45;&gt;Node3</title>
<path fill="none" stroke="midnightblue" d="M2050.57,-137.046C2034,-152.304 1997.9,-182.78 1961,-196 1871.53,-228.05 1584.49,-238.254 1472.94,-241.059"/>
<polygon fill="midnightblue" stroke="midnightblue" points="1472.61,-237.565 1462.7,-241.307 1472.78,-244.563 1472.61,-237.565"/>
</g>
<!-- Node65&#45;&gt;Node3 -->
<g id="edge46" class="edge"><title>Node65&#45;&gt;Node3</title>
<path fill="none" stroke="midnightblue" d="M2167.93,-137.02C2133.4,-152.096 2060.15,-182.124 1995,-196 1803.9,-236.701 1569.55,-241.967 1472.92,-242.258"/>
<polygon fill="midnightblue" stroke="midnightblue" points="1472.63,-238.759 1462.64,-242.272 1472.64,-245.759 1472.63,-238.759"/>
</g>
<!-- Node51&#45;&gt;Node23 -->
<g id="edge49" class="edge"><title>Node51&#45;&gt;Node23</title>
<path fill="none" stroke="midnightblue" d="M979.104,-174.878C960.398,-165.847 931.534,-151.913 910.132,-141.581"/>
<polygon fill="midnightblue" stroke="midnightblue" points="911.415,-138.314 900.887,-137.118 908.371,-144.618 911.415,-138.314"/>
</g>
<!-- Node52 -->
<g id="node45" class="node"><title>Node52</title>
<g id="a_node45"><a xlink:href="_number_string_math_8hpp.html" target="_top" xlink:title=" ">
<polygon fill="white" stroke="black" points="939.308,-117 939.308,-137 1058.69,-137 1058.69,-117 939.308,-117"/>
<text text-anchor="middle" x="999" y="-123" font-family="Helvetica,sans-Serif" font-size="10.00">NumberStringMath.hpp</text>
</a>
</g>
</g>
<!-- Node51&#45;&gt;Node52 -->
<g id="edge50" class="edge"><title>Node51&#45;&gt;Node52</title>
<path fill="none" stroke="midnightblue" d="M998.165,-174.753C998.299,-167.25 998.492,-156.424 998.659,-147.078"/>
<polygon fill="midnightblue" stroke="midnightblue" points="1002.16,-147.136 998.838,-137.075 995.16,-147.011 1002.16,-147.136"/>
</g>
<!-- Node68 -->
<g id="node47" class="node"><title>Node68</title>
<g id="a_node47"><a xlink:title=" ">
<polygon fill="white" stroke="#bfbfbf" points="2433.1,-117 2433.1,-137 2476.9,-137 2476.9,-117 2433.1,-117"/>
<text text-anchor="middle" x="2455" y="-123" font-family="Helvetica,sans-Serif" font-size="10.00">deque</text>
</a>
</g>
</g>
<!-- Node67&#45;&gt;Node68 -->
<g id="edge52" class="edge"><title>Node67&#45;&gt;Node68</title>
<path fill="none" stroke="midnightblue" d="M2426.61,-174.753C2431.37,-166.924 2438.32,-155.476 2444.15,-145.868"/>
<polygon fill="midnightblue" stroke="midnightblue" points="2447.29,-147.44 2449.49,-137.075 2441.31,-143.807 2447.29,-147.44"/>
</g>
<!-- Node69&#45;&gt;Node62 -->
<g id="edge54" class="edge"><title>Node69&#45;&gt;Node62</title>
<path fill="none" stroke="midnightblue" d="M2648.37,-232.664C2649.92,-219.036 2651.18,-193.231 2642,-174 2636.11,-161.659 2625.35,-150.977 2615.4,-143.022"/>
<polygon fill="midnightblue" stroke="midnightblue" points="2617.47,-140.198 2607.37,-137.004 2613.27,-145.8 2617.47,-140.198"/>
</g>
<!-- Node70&#45;&gt;Node62 -->
<g id="edge56" class="edge"><title>Node70&#45;&gt;Node62</title>
<path fill="none" stroke="midnightblue" d="M2523.92,-232.725C2532.32,-219.603 2548.21,-194.886 2562,-174 2568.24,-164.558 2575.28,-154.092 2581.07,-145.532"/>
<polygon fill="midnightblue" stroke="midnightblue" points="2584.06,-147.37 2586.77,-137.13 2578.26,-143.44 2584.06,-147.37"/>
</g>
<!-- Node70&#45;&gt;Node46 -->
<g id="edge57" class="edge"><title>Node70&#45;&gt;Node46</title>
<path fill="none" stroke="midnightblue" d="M2518.65,-232.731C2519.74,-209.314 2519.09,-147.413 2485,-116 2455.31,-88.6419 2343.67,-77.1758 2276.4,-72.6697"/>
<polygon fill="midnightblue" stroke="midnightblue" points="2276.61,-69.176 2266.4,-72.0295 2276.16,-76.1617 2276.61,-69.176"/>
</g>
<!-- Node71 -->
<g id="node50" class="node"><title>Node71</title>
<g id="a_node50"><a xlink:href="_token_8hpp.html" target="_top" xlink:title=" ">
<polygon fill="white" stroke="black" points="2570.93,-175 2570.93,-195 2633.07,-195 2633.07,-175 2570.93,-175"/>
<text text-anchor="middle" x="2602" y="-181" font-family="Helvetica,sans-Serif" font-size="10.00">Token.hpp</text>
</a>
</g>
</g>
<!-- Node70&#45;&gt;Node71 -->
<g id="edge58" class="edge"><title>Node70&#45;&gt;Node71</title>
<path fill="none" stroke="midnightblue" d="M2531.87,-232.753C2544.96,-224.027 2564.79,-210.805 2580.03,-200.646"/>
<polygon fill="midnightblue" stroke="midnightblue" points="2582.01,-203.534 2588.39,-195.075 2578.13,-197.71 2582.01,-203.534"/>
</g>
<!-- Node71&#45;&gt;Node62 -->
<g id="edge59" class="edge"><title>Node71&#45;&gt;Node62</title>
<path fill="none" stroke="midnightblue" d="M2600.51,-174.753C2599.31,-167.25 2597.57,-156.424 2596.07,-147.078"/>
<polygon fill="midnightblue" stroke="midnightblue" points="2599.5,-146.393 2594.46,-137.075 2592.59,-147.504 2599.5,-146.393"/>
</g>
</g>
</svg>
        <g id="navigator" transform="translate(0 0)" fill="#404254">
                <rect fill="#f2f5e9" fill-opacity="0.5" stroke="#606060" stroke-width=".5" x="0" y="0" width="60" height="60"/>
                <use id="zoomplus" xlink:href="#zoomPlus" x="17" y="9" onmousedown="handleZoom(evt,'in')"/>
                <use id="zoomminus" xlink:href="#zoomMin" x="42" y="9" onmousedown="handleZoom(evt,'out')"/>
                <use id="reset" xlink:href="#resetDef" x="30" y="36" onmousedown="handleReset()"/>
                <g id="arrowUp" xlink:href="#dirArrow" transform="translate(30 24)" onmousedown="handlePan(0,-1)">
                  <use xlink:href="#rim" fill="#404040">
                        <set attributeName="fill" to="#808080" begin="arrowUp.mouseover" end="arrowUp.mouseout"/>
                  </use>
                  <path fill="none" stroke="white" stroke-width="1.5" d="M0,-3.0v7 M-2.5,-0.5L0,-3.0L2.5,-0.5"/>
                </g>
                <g id="arrowRight" xlink:href="#dirArrow" transform="rotate(90) translate(36 -43)" onmousedown="handlePan(1,0)">
                  <use xlink:href="#rim" fill="#404040">
                        <set attributeName="fill" to="#808080" begin="arrowRight.mouseover" end="arrowRight.mouseout"/>
                  </use>
                  <path fill="none" stroke="white" stroke-width="1.5" d="M0,-3.0v7 M-2.5,-0.5L0,-3.0L2.5,-0.5"/>
                </g>
                <g id="arrowDown" xlink:href="#dirArrow" transform="rotate(180) translate(-30 -48)" onmousedown="handlePan(0,1)">
                  <use xlink:href="#rim" fill="#404040">
                        <set attributeName="fill" to="#808080" begin="arrowDown.mouseover" end="arrowDown.mouseout"/>
                  </use>
                  <path fill="none" stroke="white" stroke-width="1.5" d="M0,-3.0v7 M-2.5,-0.5L0,-3.0L2.5,-0.5"/>
                </g>
                <g id="arrowLeft" xlink:href="#dirArrow" transform="rotate(270) translate(-36 17)" onmousedown="handlePan(-1,0)">
                  <use xlink:href="#rim" fill="#404040">
                        <set attributeName="fill" to="#808080" begin="arrowLeft.mouseover" end="arrowLeft.mouseout"/>
                  </use>
                  <path fill="none" stroke="white" stroke-width="1.5" d="M0,-3.0v7 M-2.5,-0.5L0,-3.0L2.5,-0.5"/>
                </g>
        </g>
        <svg viewBox="0 0 15 15" width="100%" height="30px" preserveAspectRatio="xMaxYMin meet">
         <g id="arrow_out" transform="scale(0.3 0.3)">
          <a xlink:href="_rexx_instruction_8cpp__incl_org.svg" target="_base">
           <rect id="button" ry="5" rx="5" y="6" x="6" height="38" width="38"
                fill="#f2f5e9" fill-opacity="0.5" stroke="#606060" stroke-width="1.0"/>
           <path id="arrow"
             d="M 11.500037,31.436501 C 11.940474,20.09759 22.043105,11.32322 32.158766,21.979434 L 37.068811,17.246167 C 37.068811,17.246167 37.088388,32 37.088388,32 L 22.160133,31.978069 C 22.160133,31.978069 26.997745,27.140456 26.997745,27.140456 C 18.528582,18.264221 13.291696,25.230495 11.500037,31.436501 z"
             style="fill:#404040;"/>
          </a>
         </g>
        </svg>
</svg>
