<?xml version="1.0" encoding="UTF-8" standalone="no"?>
<!DOCTYPE svg PUBLIC "-//W3C//DTD SVG 1.1//EN"
 "http://www.w3.org/Graphics/SVG/1.1/DTD/svg11.dtd">
<!-- Generated by graphviz version 2.30.1 (20130222.1704)
 -->
<!-- Title: RexxVariable.hpp Pages: 1 -->
<svg width="646pt" height="262pt"
 viewBox="0.00 0.00 646.00 262.00" xmlns="http://www.w3.org/2000/svg" xmlns:xlink="http://www.w3.org/1999/xlink">
<g id="graph0" class="graph" transform="scale(1 1) rotate(0) translate(4 258)">
<title>RexxVariable.hpp</title>
<polygon fill="white" stroke="white" points="-4,5 -4,-258 643,-258 643,5 -4,5"/>
<!-- Node1 -->
<g id="node1" class="node"><title>Node1</title>
<g id="a_node1"><a xlink:title=" ">
<polygon fill="#bfbfbf" stroke="black" points="232.901,-233 232.901,-253 327.099,-253 327.099,-233 232.901,-233"/>
<text text-anchor="middle" x="280" y="-239" font-family="Helvetica,sans-Serif" font-size="10.00">RexxVariable.hpp</text>
</a>
</g>
</g>
<!-- Node2 -->
<g id="node2" class="node"><title>Node2</title>
<g id="a_node2"><a xlink:href="_string_class_8hpp.html" target="_top" xlink:title=" ">
<polygon fill="white" stroke="black" points="236.705,-175 236.705,-195 323.295,-195 323.295,-175 236.705,-175"/>
<text text-anchor="middle" x="280" y="-181" font-family="Helvetica,sans-Serif" font-size="10.00">StringClass.hpp</text>
</a>
</g>
</g>
<!-- Node1&#45;&gt;Node2 -->
<g id="edge1" class="edge"><title>Node1&#45;&gt;Node2</title>
<path fill="none" stroke="midnightblue" d="M280,-232.753C280,-225.25 280,-214.424 280,-205.078"/>
<polygon fill="midnightblue" stroke="midnightblue" points="283.5,-205.075 280,-195.075 276.5,-205.075 283.5,-205.075"/>
</g>
<!-- Node3 -->
<g id="node3" class="node"><title>Node3</title>
<g id="a_node3"><a xlink:href="_number_string_class_8hpp.html" target="_top" xlink:title=" ">
<polygon fill="white" stroke="black" points="93.9214,-59 93.9214,-79 216.079,-79 216.079,-59 93.9214,-59"/>
<text text-anchor="middle" x="155" y="-65" font-family="Helvetica,sans-Serif" font-size="10.00">NumberStringClass.hpp</text>
</a>
</g>
</g>
<!-- Node2&#45;&gt;Node3 -->
<g id="edge2" class="edge"><title>Node2&#45;&gt;Node3</title>
<path fill="none" stroke="midnightblue" d="M237.817,-174.96C215.93,-168.222 190.411,-156.828 174,-138 162.191,-124.451 157.676,-104.116 155.974,-89.212"/>
<polygon fill="midnightblue" stroke="midnightblue" points="159.449,-88.7584 155.147,-79.0764 152.472,-89.328 159.449,-88.7584"/>
</g>
<!-- Node6 -->
<g id="node6" class="node"><title>Node6</title>
<g id="a_node6"><a xlink:href="_integer_class_8hpp.html" target="_top" xlink:title=" ">
<polygon fill="white" stroke="black" points="183.2,-117 183.2,-137 274.8,-137 274.8,-117 183.2,-117"/>
<text text-anchor="middle" x="229" y="-123" font-family="Helvetica,sans-Serif" font-size="10.00">IntegerClass.hpp</text>
</a>
</g>
</g>
<!-- Node2&#45;&gt;Node6 -->
<g id="edge5" class="edge"><title>Node2&#45;&gt;Node6</title>
<path fill="none" stroke="midnightblue" d="M271.578,-174.753C264.152,-166.598 253.148,-154.516 244.188,-144.677"/>
<polygon fill="midnightblue" stroke="midnightblue" points="246.586,-142.112 237.265,-137.075 241.411,-146.825 246.586,-142.112"/>
</g>
<!-- Node7 -->
<g id="node7" class="node"><title>Node7</title>
<g id="a_node7"><a xlink:href="_string_util_8hpp.html" target="_top" xlink:title=" ">
<polygon fill="white" stroke="black" points="292.985,-117 292.985,-137 369.015,-137 369.015,-117 292.985,-117"/>
<text text-anchor="middle" x="331" y="-123" font-family="Helvetica,sans-Serif" font-size="10.00">StringUtil.hpp</text>
</a>
</g>
</g>
<!-- Node2&#45;&gt;Node7 -->
<g id="edge7" class="edge"><title>Node2&#45;&gt;Node7</title>
<path fill="none" stroke="midnightblue" d="M288.422,-174.753C295.848,-166.598 306.852,-154.516 315.812,-144.677"/>
<polygon fill="midnightblue" stroke="midnightblue" points="318.589,-146.825 322.735,-137.075 313.414,-142.112 318.589,-146.825"/>
</g>
<!-- Node8 -->
<g id="node8" class="node"><title>Node8</title>
<g id="a_node8"><a xlink:href="_utilities_8hpp.html" target="_top" xlink:title=" ">
<polygon fill="white" stroke="black" points="397.155,-117 397.155,-137 464.845,-137 464.845,-117 397.155,-117"/>
<text text-anchor="middle" x="431" y="-123" font-family="Helvetica,sans-Serif" font-size="10.00">Utilities.hpp</text>
</a>
</g>
</g>
<!-- Node2&#45;&gt;Node8 -->
<g id="edge8" class="edge"><title>Node2&#45;&gt;Node8</title>
<path fill="none" stroke="midnightblue" d="M304.597,-174.878C329.715,-165.563 368.902,-151.03 396.985,-140.615"/>
<polygon fill="midnightblue" stroke="midnightblue" points="398.255,-143.877 406.414,-137.118 395.821,-137.314 398.255,-143.877"/>
</g>
<!-- Node4 -->
<g id="node4" class="node"><title>Node4</title>
<g id="a_node4"><a xlink:href="_numerics_8hpp.html" target="_top" xlink:title=" ">
<polygon fill="white" stroke="black" points="-0.844727,-1 -0.844727,-21 76.8447,-21 76.8447,-1 -0.844727,-1"/>
<text text-anchor="middle" x="38" y="-7" font-family="Helvetica,sans-Serif" font-size="10.00">Numerics.hpp</text>
</a>
</g>
</g>
<!-- Node3&#45;&gt;Node4 -->
<g id="edge3" class="edge"><title>Node3&#45;&gt;Node4</title>
<path fill="none" stroke="midnightblue" d="M135.942,-58.878C116.989,-49.8068 87.699,-35.7876 66.0837,-25.4418"/>
<polygon fill="midnightblue" stroke="midnightblue" points="67.5814,-22.2784 57.0503,-21.1181 64.5593,-28.5925 67.5814,-22.2784"/>
</g>
<!-- Node5 -->
<g id="node5" class="node"><title>Node5</title>
<g id="a_node5"><a xlink:href="_number_string_math_8hpp.html" target="_top" xlink:title=" ">
<polygon fill="white" stroke="black" points="95.3081,-1 95.3081,-21 214.692,-21 214.692,-1 95.3081,-1"/>
<text text-anchor="middle" x="155" y="-7" font-family="Helvetica,sans-Serif" font-size="10.00">NumberStringMath.hpp</text>
</a>
</g>
</g>
<!-- Node3&#45;&gt;Node5 -->
<g id="edge4" class="edge"><title>Node3&#45;&gt;Node5</title>
<path fill="none" stroke="midnightblue" d="M155,-58.7527C155,-51.2504 155,-40.4238 155,-31.0781"/>
<polygon fill="midnightblue" stroke="midnightblue" points="158.5,-31.0752 155,-21.0752 151.5,-31.0752 158.5,-31.0752"/>
</g>
<!-- Node6&#45;&gt;Node3 -->
<g id="edge6" class="edge"><title>Node6&#45;&gt;Node3</title>
<path fill="none" stroke="midnightblue" d="M216.78,-116.753C205.466,-108.19 188.429,-95.2978 175.11,-85.2186"/>
<polygon fill="midnightblue" stroke="midnightblue" points="177.078,-82.3187 166.992,-79.0752 172.854,-87.9006 177.078,-82.3187"/>
</g>
<!-- Node9 -->
<g id="node9" class="node"><title>Node9</title>
<g id="a_node9"><a xlink:href="rexx_8h.html" target="_top" xlink:title=" ">
<polygon fill="white" stroke="black" points="347.384,-59 347.384,-79 390.616,-79 390.616,-59 347.384,-59"/>
<text text-anchor="middle" x="369" y="-65" font-family="Helvetica,sans-Serif" font-size="10.00">rexx.h</text>
</a>
</g>
</g>
<!-- Node8&#45;&gt;Node9 -->
<g id="edge9" class="edge"><title>Node8&#45;&gt;Node9</title>
<path fill="none" stroke="midnightblue" d="M420.762,-116.753C411.463,-108.353 397.55,-95.7874 386.49,-85.7976"/>
<polygon fill="midnightblue" stroke="midnightblue" points="388.815,-83.1807 379.048,-79.0752 384.123,-88.3755 388.815,-83.1807"/>
</g>
<!-- Node14 -->
<g id="node14" class="node"><title>Node14</title>
<g id="a_node14"><a xlink:title=" ">
<polygon fill="white" stroke="#bfbfbf" points="408.99,-59 408.99,-79 475.01,-79 475.01,-59 408.99,-59"/>
<text text-anchor="middle" x="442" y="-65" font-family="Helvetica,sans-Serif" font-size="10.00">sys/types.h</text>
</a>
</g>
</g>
<!-- Node8&#45;&gt;Node14 -->
<g id="edge14" class="edge"><title>Node8&#45;&gt;Node14</title>
<path fill="none" stroke="midnightblue" d="M432.816,-116.753C434.29,-109.25 436.417,-98.4238 438.253,-89.0781"/>
<polygon fill="midnightblue" stroke="midnightblue" points="441.724,-89.5623 440.217,-79.0752 434.855,-88.213 441.724,-89.5623"/>
</g>
<!-- Node15 -->
<g id="node15" class="node"><title>Node15</title>
<g id="a_node15"><a xlink:title=" ">
<polygon fill="white" stroke="#bfbfbf" points="492.934,-59 492.934,-79 545.066,-79 545.066,-59 492.934,-59"/>
<text text-anchor="middle" x="519" y="-65" font-family="Helvetica,sans-Serif" font-size="10.00">stdarg.h</text>
</a>
</g>
</g>
<!-- Node8&#45;&gt;Node15 -->
<g id="edge15" class="edge"><title>Node8&#45;&gt;Node15</title>
<path fill="none" stroke="midnightblue" d="M445.531,-116.753C459.243,-108.027 480.021,-94.8051 495.985,-84.6458"/>
<polygon fill="midnightblue" stroke="midnightblue" points="498.181,-87.3968 504.739,-79.0752 494.423,-81.4912 498.181,-87.3968"/>
</g>
<!-- Node10 -->
<g id="node10" class="node"><title>Node10</title>
<g id="a_node10"><a xlink:title=" ">
<polygon fill="white" stroke="#bfbfbf" points="232.761,-1 232.761,-21 313.239,-21 313.239,-1 232.761,-1"/>
<text text-anchor="middle" x="273" y="-7" font-family="Helvetica,sans-Serif" font-size="10.00">rexxapitypes.h</text>
</a>
</g>
</g>
<!-- Node9&#45;&gt;Node10 -->
<g id="edge10" class="edge"><title>Node9&#45;&gt;Node10</title>
<path fill="none" stroke="midnightblue" d="M353.148,-58.7527C338.05,-49.9457 315.099,-36.5575 297.62,-26.3617"/>
<polygon fill="midnightblue" stroke="midnightblue" points="298.959,-23.0907 288.557,-21.0752 295.432,-29.1372 298.959,-23.0907"/>
</g>
<!-- Node11 -->
<g id="node11" class="node"><title>Node11</title>
<g id="a_node11"><a xlink:href="rexxapidefs_8h.html" target="_top" xlink:title=" ">
<polygon fill="white" stroke="black" points="331.261,-1 331.261,-21 406.739,-21 406.739,-1 331.261,-1"/>
<text text-anchor="middle" x="369" y="-7" font-family="Helvetica,sans-Serif" font-size="10.00">rexxapidefs.h</text>
</a>
</g>
</g>
<!-- Node9&#45;&gt;Node11 -->
<g id="edge11" class="edge"><title>Node9&#45;&gt;Node11</title>
<path fill="none" stroke="midnightblue" d="M369,-58.7527C369,-51.2504 369,-40.4238 369,-31.0781"/>
<polygon fill="midnightblue" stroke="midnightblue" points="372.5,-31.0752 369,-21.0752 365.5,-31.0752 372.5,-31.0752"/>
</g>
<!-- Node12 -->
<g id="node12" class="node"><title>Node12</title>
<g id="a_node12"><a xlink:title=" ">
<polygon fill="white" stroke="#bfbfbf" points="424.872,-1 424.872,-21 523.128,-21 523.128,-1 424.872,-1"/>
<text text-anchor="middle" x="474" y="-7" font-family="Helvetica,sans-Serif" font-size="10.00">rexxplatformdefs.h</text>
</a>
</g>
</g>
<!-- Node9&#45;&gt;Node12 -->
<g id="edge12" class="edge"><title>Node9&#45;&gt;Node12</title>
<path fill="none" stroke="midnightblue" d="M386.339,-58.7527C403.158,-49.7826 428.887,-36.0601 448.128,-25.7986"/>
<polygon fill="midnightblue" stroke="midnightblue" points="449.808,-28.8694 456.984,-21.0752 446.513,-22.6929 449.808,-28.8694"/>
</g>
<!-- Node13 -->
<g id="node13" class="node"><title>Node13</title>
<g id="a_node13"><a xlink:title=" ">
<polygon fill="white" stroke="#bfbfbf" points="541.15,-1 541.15,-21 638.85,-21 638.85,-1 541.15,-1"/>
<text text-anchor="middle" x="590" y="-7" font-family="Helvetica,sans-Serif" font-size="10.00">rexxplatformapis.h</text>
</a>
</g>
</g>
<!-- Node9&#45;&gt;Node13 -->
<g id="edge13" class="edge"><title>Node9&#45;&gt;Node13</title>
<path fill="none" stroke="midnightblue" d="M390.618,-60.7996C393.754,-59.8212 396.952,-58.8593 400,-58 446.628,-44.8545 500.331,-32.0668 538.721,-23.3249"/>
<polygon fill="midnightblue" stroke="midnightblue" points="539.65,-26.7033 548.63,-21.0809 538.103,-19.8761 539.65,-26.7033"/>
</g>
</g>
</svg>
