<?xml version="1.0" encoding="UTF-8" standalone="no"?>
<!DOCTYPE svg PUBLIC "-//W3C//DTD SVG 1.1//EN"
 "http://www.w3.org/Graphics/SVG/1.1/DTD/svg11.dtd">
<!-- Generated by graphviz version 2.30.1 (20130222.1704)
 -->
<!-- Title: RoutineClass.cpp Pages: 1 -->
<svg width="2959pt" height="494pt"
 viewBox="0.00 0.00 2959.00 494.00" xmlns="http://www.w3.org/2000/svg" xmlns:xlink="http://www.w3.org/1999/xlink">
<g id="graph0" class="graph" transform="scale(1 1) rotate(0) translate(4 490)">
<title>RoutineClass.cpp</title>
<polygon fill="white" stroke="white" points="-4,5 -4,-490 2956,-490 2956,5 -4,5"/>
<!-- Node1 -->
<g id="node1" class="node"><title>Node1</title>
<g id="a_node1"><a xlink:title=" ">
<polygon fill="#bfbfbf" stroke="black" points="1747.81,-465 1747.81,-485 1842.19,-485 1842.19,-465 1747.81,-465"/>
<text text-anchor="middle" x="1795" y="-471" font-family="Helvetica,sans-Serif" font-size="10.00">RoutineClass.cpp</text>
</a>
</g>
</g>
<!-- Node2 -->
<g id="node2" class="node"><title>Node2</title>
<g id="a_node2"><a xlink:title=" ">
<polygon fill="white" stroke="#bfbfbf" points="939.158,-407 939.158,-427 986.842,-427 986.842,-407 939.158,-407"/>
<text text-anchor="middle" x="963" y="-413" font-family="Helvetica,sans-Serif" font-size="10.00">stdlib.h</text>
</a>
</g>
</g>
<!-- Node1&#45;&gt;Node2 -->
<g id="edge1" class="edge"><title>Node1&#45;&gt;Node2</title>
<path fill="none" stroke="midnightblue" d="M1747.66,-474.533C1624.03,-475.218 1281.58,-472.588 1001,-428 999.711,-427.795 998.403,-427.565 997.086,-427.315"/>
<polygon fill="midnightblue" stroke="midnightblue" points="997.488,-423.82 986.969,-425.08 995.978,-430.655 997.488,-423.82"/>
</g>
<!-- Node3 -->
<g id="node3" class="node"><title>Node3</title>
<g id="a_node3"><a xlink:title=" ">
<polygon fill="white" stroke="#bfbfbf" points="-0.731445,-117 -0.731445,-137 44.7314,-137 44.7314,-117 -0.731445,-117"/>
<text text-anchor="middle" x="22" y="-123" font-family="Helvetica,sans-Serif" font-size="10.00">stdio.h</text>
</a>
</g>
</g>
<!-- Node1&#45;&gt;Node3 -->
<g id="edge2" class="edge"><title>Node1&#45;&gt;Node3</title>
<path fill="none" stroke="midnightblue" d="M1747.59,-473.139C1596.38,-470.098 1132.01,-458.358 1072,-428 1036.81,-410.198 1015,-399.436 1015,-360 1015,-360 1015,-360 1015,-242 1015,-137.218 201.112,-159.168 54.9213,-137.725"/>
<polygon fill="midnightblue" stroke="midnightblue" points="55.3367,-134.244 44.8813,-135.957 54.1231,-141.138 55.3367,-134.244"/>
</g>
<!-- Node4 -->
<g id="node4" class="node"><title>Node4</title>
<g id="a_node4"><a xlink:title=" ">
<polygon fill="white" stroke="#bfbfbf" points="1576.6,-117 1576.6,-137 1625.4,-137 1625.4,-117 1576.6,-117"/>
<text text-anchor="middle" x="1601" y="-123" font-family="Helvetica,sans-Serif" font-size="10.00">string.h</text>
</a>
</g>
</g>
<!-- Node1&#45;&gt;Node4 -->
<g id="edge3" class="edge"><title>Node1&#45;&gt;Node4</title>
<path fill="none" stroke="midnightblue" d="M1785.21,-464.946C1761.2,-442.057 1699.5,-378.917 1674,-312 1652.07,-254.472 1691.82,-227.859 1662,-174 1654.55,-160.554 1641.35,-149.856 1629.13,-142.173"/>
<polygon fill="midnightblue" stroke="midnightblue" points="1630.9,-139.152 1620.5,-137.115 1627.36,-145.191 1630.9,-139.152"/>
</g>
<!-- Node5 -->
<g id="node5" class="node"><title>Node5</title>
<g id="a_node5"><a xlink:href="_rexx_core_8h.html" target="_top" xlink:title=" ">
<polygon fill="white" stroke="black" points="1073.6,-175 1073.6,-195 1142.4,-195 1142.4,-175 1073.6,-175"/>
<text text-anchor="middle" x="1108" y="-181" font-family="Helvetica,sans-Serif" font-size="10.00">RexxCore.h</text>
</a>
</g>
</g>
<!-- Node1&#45;&gt;Node5 -->
<g id="edge4" class="edge"><title>Node1&#45;&gt;Node5</title>
<path fill="none" stroke="midnightblue" d="M1747.46,-472.302C1626.74,-467.664 1310.73,-453.403 1209,-428 1135.62,-409.676 1053,-435.634 1053,-360 1053,-360 1053,-360 1053,-300 1053,-268.62 1057.84,-260.002 1072,-232 1077.36,-221.412 1085.33,-210.894 1092.42,-202.593"/>
<polygon fill="midnightblue" stroke="midnightblue" points="1095.05,-204.908 1099.08,-195.111 1089.82,-200.254 1095.05,-204.908"/>
</g>
<!-- Node50 -->
<g id="node30" class="node"><title>Node50</title>
<g id="a_node30"><a xlink:href="_string_class_8hpp.html" target="_top" xlink:title=" ">
<polygon fill="white" stroke="black" points="1566.7,-233 1566.7,-253 1653.3,-253 1653.3,-233 1566.7,-233"/>
<text text-anchor="middle" x="1610" y="-239" font-family="Helvetica,sans-Serif" font-size="10.00">StringClass.hpp</text>
</a>
</g>
</g>
<!-- Node1&#45;&gt;Node50 -->
<g id="edge31" class="edge"><title>Node1&#45;&gt;Node50</title>
<path fill="none" stroke="midnightblue" d="M1747.64,-472.579C1713.01,-468.9 1667.61,-458.109 1641,-428 1599.58,-381.125 1603.01,-300.275 1607.19,-263.375"/>
<polygon fill="midnightblue" stroke="midnightblue" points="1610.72,-263.403 1608.52,-253.038 1603.78,-262.51 1610.72,-263.403"/>
</g>
<!-- Node46 -->
<g id="node26" class="node"><title>Node46</title>
<g id="a_node26"><a xlink:href="_array_class_8hpp.html" target="_top" xlink:title=" ">
<polygon fill="white" stroke="black" points="2088.82,-1 2088.82,-21 2173.18,-21 2173.18,-1 2088.82,-1"/>
<text text-anchor="middle" x="2131" y="-7" font-family="Helvetica,sans-Serif" font-size="10.00">ArrayClass.hpp</text>
</a>
</g>
</g>
<!-- Node1&#45;&gt;Node46 -->
<g id="edge38" class="edge"><title>Node1&#45;&gt;Node46</title>
<path fill="none" stroke="midnightblue" d="M1842.21,-473.807C1928.88,-472.531 2108.88,-465.324 2157,-428 2204.61,-391.075 2207,-362.248 2207,-302 2207,-302 2207,-302 2207,-242 2207,-159.874 2267.33,-127.767 2224,-58 2214.23,-42.2662 2197.3,-31.7505 2180.55,-24.7995"/>
<polygon fill="midnightblue" stroke="midnightblue" points="2181.35,-21.361 2170.76,-21.1062 2178.88,-27.9105 2181.35,-21.361"/>
</g>
<!-- Node69 -->
<g id="node34" class="node"><title>Node69</title>
<g id="a_node34"><a xlink:href="_rexx_code_8hpp.html" target="_top" xlink:title=" ">
<polygon fill="white" stroke="black" points="1468.92,-349 1468.92,-369 1551.08,-369 1551.08,-349 1468.92,-349"/>
<text text-anchor="middle" x="1510" y="-355" font-family="Helvetica,sans-Serif" font-size="10.00">RexxCode.hpp</text>
</a>
</g>
</g>
<!-- Node1&#45;&gt;Node69 -->
<g id="edge39" class="edge"><title>Node1&#45;&gt;Node69</title>
<path fill="none" stroke="midnightblue" d="M1747.57,-473.76C1698.56,-471.496 1621.44,-462.146 1565,-428 1544.99,-415.894 1529.15,-393.739 1519.7,-378.009"/>
<polygon fill="midnightblue" stroke="midnightblue" points="1522.67,-376.142 1514.67,-369.193 1516.59,-379.613 1522.67,-376.142"/>
</g>
<!-- Node78 -->
<g id="node38" class="node"><title>Node78</title>
<g id="a_node38"><a xlink:href="_rexx_native_code_8hpp.html" target="_top" xlink:title=" ">
<polygon fill="white" stroke="black" points="1300.75,-349 1300.75,-369 1411.25,-369 1411.25,-349 1300.75,-349"/>
<text text-anchor="middle" x="1356" y="-355" font-family="Helvetica,sans-Serif" font-size="10.00">RexxNativeCode.hpp</text>
</a>
</g>
</g>
<!-- Node1&#45;&gt;Node78 -->
<g id="edge47" class="edge"><title>Node1&#45;&gt;Node78</title>
<path fill="none" stroke="midnightblue" d="M1747.67,-471.89C1661.09,-467.415 1480.93,-455.079 1425,-428 1401.24,-416.498 1380.68,-393.543 1368.33,-377.5"/>
<polygon fill="midnightblue" stroke="midnightblue" points="1371.1,-375.368 1362.34,-369.414 1365.48,-379.534 1371.1,-375.368"/>
</g>
<!-- Node40 -->
<g id="node21" class="node"><title>Node40</title>
<g id="a_node21"><a xlink:href="_rexx_activity_8hpp.html" target="_top" xlink:title=" ">
<polygon fill="white" stroke="red" points="1851.41,-117 1851.41,-137 1940.59,-137 1940.59,-117 1851.41,-117"/>
<text text-anchor="middle" x="1896" y="-123" font-family="Helvetica,sans-Serif" font-size="10.00">RexxActivity.hpp</text>
</a>
</g>
</g>
<!-- Node1&#45;&gt;Node40 -->
<g id="edge49" class="edge"><title>Node1&#45;&gt;Node40</title>
<path fill="none" stroke="midnightblue" d="M1810.6,-464.95C1845.58,-443.633 1929.65,-386.403 1961,-312 1986.36,-251.815 1936.67,-177.936 1910.58,-145.114"/>
<polygon fill="midnightblue" stroke="midnightblue" points="1913.26,-142.863 1904.22,-137.337 1907.84,-147.294 1913.26,-142.863"/>
</g>
<!-- Node79 -->
<g id="node39" class="node"><title>Node79</title>
<g id="a_node39"><a xlink:href="_rexx_activation_8hpp.html" target="_top" xlink:title=" ">
<polygon fill="white" stroke="red" points="2047.2,-407 2047.2,-427 2148.8,-427 2148.8,-407 2047.2,-407"/>
<text text-anchor="middle" x="2098" y="-413" font-family="Helvetica,sans-Serif" font-size="10.00">RexxActivation.hpp</text>
</a>
</g>
</g>
<!-- Node1&#45;&gt;Node79 -->
<g id="edge50" class="edge"><title>Node1&#45;&gt;Node79</title>
<path fill="none" stroke="midnightblue" d="M1842.34,-465.25C1895.49,-455.427 1981.79,-439.477 2039.22,-428.864"/>
<polygon fill="midnightblue" stroke="midnightblue" points="2040.04,-432.272 2049.23,-427.013 2038.76,-425.389 2040.04,-432.272"/>
</g>
<!-- Node84 -->
<g id="node40" class="node"><title>Node84</title>
<g id="a_node40"><a xlink:href="_rexx_native_activation_8hpp.html" target="_top" xlink:title=" ">
<polygon fill="white" stroke="black" points="1823.03,-291 1823.03,-311 1952.97,-311 1952.97,-291 1823.03,-291"/>
<text text-anchor="middle" x="1888" y="-297" font-family="Helvetica,sans-Serif" font-size="10.00">RexxNativeActivation.hpp</text>
</a>
</g>
</g>
<!-- Node1&#45;&gt;Node84 -->
<g id="edge55" class="edge"><title>Node1&#45;&gt;Node84</title>
<path fill="none" stroke="midnightblue" d="M1800,-464.753C1814.76,-437.454 1858.34,-356.85 1878.08,-320.341"/>
<polygon fill="midnightblue" stroke="midnightblue" points="1881.3,-321.754 1882.98,-311.293 1875.14,-318.425 1881.3,-321.754"/>
</g>
<!-- Node76 -->
<g id="node36" class="node"><title>Node76</title>
<g id="a_node36"><a xlink:href="_method_class_8hpp.html" target="_top" xlink:title=" ">
<polygon fill="white" stroke="black" points="1344.09,-233 1344.09,-253 1437.91,-253 1437.91,-233 1344.09,-233"/>
<text text-anchor="middle" x="1391" y="-239" font-family="Helvetica,sans-Serif" font-size="10.00">MethodClass.hpp</text>
</a>
</g>
</g>
<!-- Node1&#45;&gt;Node76 -->
<g id="edge57" class="edge"><title>Node1&#45;&gt;Node76</title>
<path fill="none" stroke="midnightblue" d="M1747.69,-472.276C1694.24,-468.838 1605.62,-458.576 1536,-428 1470.38,-399.183 1458.59,-374.766 1424,-312 1415.02,-295.698 1405.86,-276.585 1399.47,-262.781"/>
<polygon fill="midnightblue" stroke="midnightblue" points="1402.52,-261.034 1395.18,-253.394 1396.16,-263.944 1402.52,-261.034"/>
</g>
<!-- Node85 -->
<g id="node41" class="node"><title>Node85</title>
<g id="a_node41"><a xlink:href="_package_class_8hpp.html" target="_top" xlink:title=" ">
<polygon fill="white" stroke="black" points="2205.31,-407 2205.31,-427 2304.69,-427 2304.69,-407 2205.31,-407"/>
<text text-anchor="middle" x="2255" y="-413" font-family="Helvetica,sans-Serif" font-size="10.00">PackageClass.hpp</text>
</a>
</g>
</g>
<!-- Node1&#45;&gt;Node85 -->
<g id="edge58" class="edge"><title>Node1&#45;&gt;Node85</title>
<path fill="none" stroke="midnightblue" d="M1842.32,-469.112C1916.66,-461.295 2065.33,-445.111 2191,-428 2192.28,-427.825 2193.58,-427.646 2194.89,-427.462"/>
<polygon fill="midnightblue" stroke="midnightblue" points="2195.67,-430.887 2205.07,-425.996 2194.67,-423.959 2195.67,-430.887"/>
</g>
<!-- Node70 -->
<g id="node35" class="node"><title>Node70</title>
<g id="a_node35"><a xlink:href="_source_file_8hpp.html" target="_top" xlink:title=" ">
<polygon fill="white" stroke="red" points="1683.37,-291 1683.37,-311 1766.63,-311 1766.63,-291 1683.37,-291"/>
<text text-anchor="middle" x="1725" y="-297" font-family="Helvetica,sans-Serif" font-size="10.00">SourceFile.hpp</text>
</a>
</g>
</g>
<!-- Node1&#45;&gt;Node70 -->
<g id="edge59" class="edge"><title>Node1&#45;&gt;Node70</title>
<path fill="none" stroke="midnightblue" d="M1791.24,-464.753C1780.17,-437.571 1747.6,-357.538 1732.66,-320.811"/>
<polygon fill="midnightblue" stroke="midnightblue" points="1735.79,-319.236 1728.78,-311.293 1729.31,-321.875 1735.79,-319.236"/>
</g>
<!-- Node86 -->
<g id="node42" class="node"><title>Node86</title>
<g id="a_node42"><a xlink:href="_directory_class_8hpp.html" target="_top" xlink:title=" ">
<polygon fill="white" stroke="red" points="2322.76,-407 2322.76,-427 2423.24,-427 2423.24,-407 2322.76,-407"/>
<text text-anchor="middle" x="2373" y="-413" font-family="Helvetica,sans-Serif" font-size="10.00">DirectoryClass.hpp</text>
</a>
</g>
</g>
<!-- Node1&#45;&gt;Node86 -->
<g id="edge60" class="edge"><title>Node1&#45;&gt;Node86</title>
<path fill="none" stroke="midnightblue" d="M1842.27,-471.019C1931.82,-465.108 2132.52,-450.598 2312.45,-427.975"/>
<polygon fill="midnightblue" stroke="midnightblue" points="2313.15,-431.414 2322.63,-426.683 2312.27,-424.47 2313.15,-431.414"/>
</g>
<!-- Node75 -->
<g id="node43" class="node"><title>Node75</title>
<g id="a_node43"><a xlink:href="_protected_object_8hpp.html" target="_top" xlink:title=" ">
<polygon fill="white" stroke="black" points="1957.42,-175 1957.42,-195 2064.58,-195 2064.58,-175 1957.42,-175"/>
<text text-anchor="middle" x="2011" y="-181" font-family="Helvetica,sans-Serif" font-size="10.00">ProtectedObject.hpp</text>
</a>
</g>
</g>
<!-- Node1&#45;&gt;Node75 -->
<g id="edge61" class="edge"><title>Node1&#45;&gt;Node75</title>
<path fill="none" stroke="midnightblue" d="M1842.2,-468.433C1893.99,-461.432 1972.74,-447.872 1995,-428 2018.91,-406.656 2019,-392.049 2019,-360 2019,-360 2019,-360 2019,-300 2019,-266.564 2015.53,-227.746 2013.16,-205.122"/>
<polygon fill="midnightblue" stroke="midnightblue" points="2016.64,-204.709 2012.08,-195.146 2009.68,-205.466 2016.64,-204.709"/>
</g>
<!-- Node87 -->
<g id="node44" class="node"><title>Node87</title>
<g id="a_node44"><a xlink:href="_buffer_class_8hpp.html" target="_top" xlink:title=" ">
<polygon fill="white" stroke="black" points="2441.51,-407 2441.51,-427 2528.49,-427 2528.49,-407 2441.51,-407"/>
<text text-anchor="middle" x="2485" y="-413" font-family="Helvetica,sans-Serif" font-size="10.00">BufferClass.hpp</text>
</a>
</g>
</g>
<!-- Node1&#45;&gt;Node87 -->
<g id="edge64" class="edge"><title>Node1&#45;&gt;Node87</title>
<path fill="none" stroke="midnightblue" d="M1842.33,-472.435C1946.77,-468.582 2204.93,-456.869 2431.32,-427.939"/>
<polygon fill="midnightblue" stroke="midnightblue" points="2431.92,-431.39 2441.39,-426.637 2431.02,-424.448 2431.92,-431.39"/>
</g>
<!-- Node88 -->
<g id="node45" class="node"><title>Node88</title>
<g id="a_node45"><a xlink:href="_rexx_internal_apis_8h.html" target="_top" xlink:title=" ">
<polygon fill="white" stroke="black" points="2546.03,-407 2546.03,-427 2645.97,-427 2645.97,-407 2546.03,-407"/>
<text text-anchor="middle" x="2596" y="-413" font-family="Helvetica,sans-Serif" font-size="10.00">RexxInternalApis.h</text>
</a>
</g>
</g>
<!-- Node1&#45;&gt;Node88 -->
<g id="edge65" class="edge"><title>Node1&#45;&gt;Node88</title>
<path fill="none" stroke="midnightblue" d="M1842.46,-472.801C1958.84,-469.489 2267.78,-458.436 2535.53,-428.055"/>
<polygon fill="midnightblue" stroke="midnightblue" points="2536.3,-431.49 2545.84,-426.874 2535.51,-424.535 2536.3,-431.49"/>
</g>
<!-- Node89 -->
<g id="node46" class="node"><title>Node89</title>
<g id="a_node46"><a xlink:href="_rexx_smart_buffer_8hpp.html" target="_top" xlink:title=" ">
<polygon fill="white" stroke="black" points="2663.56,-407 2663.56,-427 2774.44,-427 2774.44,-407 2663.56,-407"/>
<text text-anchor="middle" x="2719" y="-413" font-family="Helvetica,sans-Serif" font-size="10.00">RexxSmartBuffer.hpp</text>
</a>
</g>
</g>
<!-- Node1&#45;&gt;Node89 -->
<g id="edge66" class="edge"><title>Node1&#45;&gt;Node89</title>
<path fill="none" stroke="midnightblue" d="M1842.62,-473.106C1971.45,-470.333 2337.77,-460.108 2653.12,-427.983"/>
<polygon fill="midnightblue" stroke="midnightblue" points="2653.79,-431.433 2663.38,-426.928 2653.07,-424.469 2653.79,-431.433"/>
</g>
<!-- Node90 -->
<g id="node47" class="node"><title>Node90</title>
<g id="a_node47"><a xlink:href="_program_meta_data_8hpp.html" target="_top" xlink:title=" ">
<polygon fill="white" stroke="black" points="2792.42,-407 2792.42,-427 2909.58,-427 2909.58,-407 2792.42,-407"/>
<text text-anchor="middle" x="2851" y="-413" font-family="Helvetica,sans-Serif" font-size="10.00">ProgramMetaData.hpp</text>
</a>
</g>
</g>
<!-- Node1&#45;&gt;Node90 -->
<g id="edge67" class="edge"><title>Node1&#45;&gt;Node90</title>
<path fill="none" stroke="midnightblue" d="M1842.42,-473.464C1983.74,-471.511 2414.48,-462.982 2782.04,-427.995"/>
<polygon fill="midnightblue" stroke="midnightblue" points="2782.45,-431.472 2792.07,-427.032 2781.78,-424.504 2782.45,-431.472"/>
</g>
<!-- Node55 -->
<g id="node33" class="node"><title>Node55</title>
<g id="a_node33"><a xlink:href="_utilities_8hpp.html" target="_top" xlink:title=" ">
<polygon fill="white" stroke="red" points="1343.16,-175 1343.16,-195 1410.84,-195 1410.84,-175 1343.16,-175"/>
<text text-anchor="middle" x="1377" y="-181" font-family="Helvetica,sans-Serif" font-size="10.00">Utilities.hpp</text>
</a>
</g>
</g>
<!-- Node1&#45;&gt;Node55 -->
<g id="edge69" class="edge"><title>Node1&#45;&gt;Node55</title>
<path fill="none" stroke="midnightblue" d="M1747.64,-472.119C1709.96,-468.298 1657.93,-457.539 1623,-428 1571.52,-384.466 1605.52,-339.738 1560,-290 1518.86,-245.048 1453.67,-214.531 1413.22,-198.717"/>
<polygon fill="midnightblue" stroke="midnightblue" points="1414.33,-195.397 1403.74,-195.105 1411.84,-201.937 1414.33,-195.397"/>
</g>
<!-- Node91 -->
<g id="node48" class="node"><title>Node91</title>
<g id="a_node48"><a xlink:title=" ">
<polygon fill="white" stroke="#bfbfbf" points="2836.81,-349 2836.81,-369 2951.19,-369 2951.19,-349 2836.81,-349"/>
<text text-anchor="middle" x="2894" y="-355" font-family="Helvetica,sans-Serif" font-size="10.00">SystemInterpreter.hpp</text>
</a>
</g>
</g>
<!-- Node1&#45;&gt;Node91 -->
<g id="edge70" class="edge"><title>Node1&#45;&gt;Node91</title>
<path fill="none" stroke="midnightblue" d="M1842.53,-473.867C2051.53,-473.054 2880.23,-467.35 2918,-428 2931.33,-414.108 2919.98,-392.362 2908.79,-377.214"/>
<polygon fill="midnightblue" stroke="midnightblue" points="2911.37,-374.828 2902.41,-369.167 2905.88,-379.178 2911.37,-374.828"/>
</g>
<!-- Node92 -->
<g id="node49" class="node"><title>Node92</title>
<g id="a_node49"><a xlink:href="_package_manager_8hpp.html" target="_top" xlink:title=" ">
<polygon fill="white" stroke="red" points="1081.35,-233 1081.35,-253 1194.65,-253 1194.65,-233 1081.35,-233"/>
<text text-anchor="middle" x="1138" y="-239" font-family="Helvetica,sans-Serif" font-size="10.00">PackageManager.hpp</text>
</a>
</g>
</g>
<!-- Node1&#45;&gt;Node92 -->
<g id="edge71" class="edge"><title>Node1&#45;&gt;Node92</title>
<path fill="none" stroke="midnightblue" d="M1747.57,-474.039C1612.13,-473.024 1228.56,-461.941 1154,-370 1129.21,-339.429 1131.21,-290.232 1134.69,-263.246"/>
<polygon fill="midnightblue" stroke="midnightblue" points="1138.19,-263.568 1136.21,-253.16 1131.26,-262.531 1138.19,-263.568"/>
</g>
<!-- Node95 -->
<g id="node50" class="node"><title>Node95</title>
<g id="a_node50"><a xlink:href="_interpreter_instance_8hpp.html" target="_top" xlink:title=" ">
<polygon fill="white" stroke="red" points="1163.3,-349 1163.3,-369 1282.7,-369 1282.7,-349 1163.3,-349"/>
<text text-anchor="middle" x="1223" y="-355" font-family="Helvetica,sans-Serif" font-size="10.00">InterpreterInstance.hpp</text>
</a>
</g>
</g>
<!-- Node1&#45;&gt;Node95 -->
<g id="edge73" class="edge"><title>Node1&#45;&gt;Node95</title>
<path fill="none" stroke="midnightblue" d="M1747.6,-472.75C1671.35,-469.821 1517.23,-460.095 1391,-428 1339.6,-414.93 1283.05,-389.59 1250.42,-373.805"/>
<polygon fill="midnightblue" stroke="midnightblue" points="1251.61,-370.492 1241.09,-369.237 1248.53,-376.779 1251.61,-370.492"/>
</g>
<!-- Node14 -->
<g id="node8" class="node"><title>Node14</title>
<g id="a_node8"><a xlink:title=" ">
<polygon fill="white" stroke="#bfbfbf" points="1784.88,-117 1784.88,-137 1833.12,-137 1833.12,-117 1784.88,-117"/>
<text text-anchor="middle" x="1809" y="-123" font-family="Helvetica,sans-Serif" font-size="10.00">ctype.h</text>
</a>
</g>
</g>
<!-- Node1&#45;&gt;Node14 -->
<g id="edge75" class="edge"><title>Node1&#45;&gt;Node14</title>
<path fill="none" stroke="midnightblue" d="M1795,-464.838C1795,-445.48 1795,-398.99 1795,-360 1795,-360 1795,-360 1795,-242 1795,-208.395 1801.07,-169.631 1805.21,-147.063"/>
<polygon fill="midnightblue" stroke="midnightblue" points="1808.68,-147.594 1807.11,-137.115 1801.8,-146.282 1808.68,-147.594"/>
</g>
<!-- Node6 -->
<g id="node6" class="node"><title>Node6</title>
<g id="a_node6"><a xlink:href="oorexxapi_8h.html" target="_top" xlink:title=" ">
<polygon fill="white" stroke="red" points="284.15,-117 284.15,-137 351.85,-137 351.85,-117 284.15,-117"/>
<text text-anchor="middle" x="318" y="-123" font-family="Helvetica,sans-Serif" font-size="10.00">oorexxapi.h</text>
</a>
</g>
</g>
<!-- Node5&#45;&gt;Node6 -->
<g id="edge5" class="edge"><title>Node5&#45;&gt;Node6</title>
<path fill="none" stroke="midnightblue" d="M1073.45,-179.078C1059.65,-177.255 1043.6,-175.315 1029,-174 735.768,-147.586 656.466,-179.915 362.388,-138.146"/>
<polygon fill="midnightblue" stroke="midnightblue" points="362.68,-134.652 352.284,-136.694 361.684,-141.581 362.68,-134.652"/>
</g>
<!-- Node5&#45;&gt;Node3 -->
<g id="edge6" class="edge"><title>Node5&#45;&gt;Node3</title>
<path fill="none" stroke="midnightblue" d="M1073.46,-178.951C1059.66,-177.111 1043.61,-175.191 1029,-174 599.744,-138.985 482.314,-212.183 54.997,-137.926"/>
<polygon fill="midnightblue" stroke="midnightblue" points="55.2994,-134.425 44.8449,-136.144 54.0894,-141.32 55.2994,-134.425"/>
</g>
<!-- Node13 -->
<g id="node7" class="node"><title>Node13</title>
<g id="a_node7"><a xlink:title=" ">
<polygon fill="white" stroke="#bfbfbf" points="1366.93,-117 1366.93,-137 1419.07,-137 1419.07,-117 1366.93,-117"/>
<text text-anchor="middle" x="1393" y="-123" font-family="Helvetica,sans-Serif" font-size="10.00">stdarg.h</text>
</a>
</g>
</g>
<!-- Node5&#45;&gt;Node13 -->
<g id="edge7" class="edge"><title>Node5&#45;&gt;Node13</title>
<path fill="none" stroke="midnightblue" d="M1142.59,-178.717C1189.15,-171.371 1274.71,-157.045 1356.72,-138.137"/>
<polygon fill="midnightblue" stroke="midnightblue" points="1357.75,-141.489 1366.7,-135.809 1356.16,-134.672 1357.75,-141.489"/>
</g>
<!-- Node5&#45;&gt;Node4 -->
<g id="edge8" class="edge"><title>Node5&#45;&gt;Node4</title>
<path fill="none" stroke="midnightblue" d="M1142.67,-182.834C1218.23,-179.803 1403.37,-169.718 1566.08,-138.076"/>
<polygon fill="midnightblue" stroke="midnightblue" points="1567.13,-141.434 1576.27,-136.06 1565.78,-134.567 1567.13,-141.434"/>
</g>
<!-- Node5&#45;&gt;Node14 -->
<g id="edge9" class="edge"><title>Node5&#45;&gt;Node14</title>
<path fill="none" stroke="midnightblue" d="M1142.5,-182.267C1237.49,-177.324 1510.79,-161.955 1737,-138 1749.33,-136.695 1762.79,-134.919 1774.71,-133.226"/>
<polygon fill="midnightblue" stroke="midnightblue" points="1775.33,-136.673 1784.72,-131.773 1774.32,-129.746 1775.33,-136.673"/>
</g>
<!-- Node15 -->
<g id="node9" class="node"><title>Node15</title>
<g id="a_node9"><a xlink:title=" ">
<polygon fill="white" stroke="#bfbfbf" points="369.443,-117 369.443,-137 416.557,-137 416.557,-117 369.443,-117"/>
<text text-anchor="middle" x="393" y="-123" font-family="Helvetica,sans-Serif" font-size="10.00">limits.h</text>
</a>
</g>
</g>
<!-- Node5&#45;&gt;Node15 -->
<g id="edge10" class="edge"><title>Node5&#45;&gt;Node15</title>
<path fill="none" stroke="midnightblue" d="M1073.45,-179.121C1059.64,-177.305 1043.59,-175.357 1029,-174 764.503,-149.405 691.298,-185.562 426.51,-137.886"/>
<polygon fill="midnightblue" stroke="midnightblue" points="427.07,-134.431 416.604,-136.08 425.814,-141.317 427.07,-134.431"/>
</g>
<!-- Node16 -->
<g id="node10" class="node"><title>Node16</title>
<g id="a_node10"><a xlink:href="_rexx_platform_definitions_8h.html" target="_top" xlink:title=" ">
<polygon fill="white" stroke="red" points="434.478,-117 434.478,-137 565.522,-137 565.522,-117 434.478,-117"/>
<text text-anchor="middle" x="500" y="-123" font-family="Helvetica,sans-Serif" font-size="10.00">RexxPlatformDefinitions.h</text>
</a>
</g>
</g>
<!-- Node5&#45;&gt;Node16 -->
<g id="edge11" class="edge"><title>Node5&#45;&gt;Node16</title>
<path fill="none" stroke="midnightblue" d="M1073.43,-179.267C1059.63,-177.471 1043.58,-175.498 1029,-174 830.461,-153.591 777.401,-159.394 575.392,-138.099"/>
<polygon fill="midnightblue" stroke="midnightblue" points="575.66,-134.607 565.346,-137.03 574.92,-141.568 575.66,-134.607"/>
</g>
<!-- Node19 -->
<g id="node11" class="node"><title>Node19</title>
<g id="a_node11"><a xlink:href="_rexx_constants_8hpp.html" target="_top" xlink:title=" ">
<polygon fill="white" stroke="black" points="583.365,-117 583.365,-137 686.635,-137 686.635,-117 583.365,-117"/>
<text text-anchor="middle" x="635" y="-123" font-family="Helvetica,sans-Serif" font-size="10.00">RexxConstants.hpp</text>
</a>
</g>
</g>
<!-- Node5&#45;&gt;Node19 -->
<g id="edge12" class="edge"><title>Node5&#45;&gt;Node19</title>
<path fill="none" stroke="midnightblue" d="M1073.41,-179.483C1059.6,-177.716 1043.55,-175.708 1029,-174 884.328,-157.025 845.175,-157.997 696.817,-138.049"/>
<polygon fill="midnightblue" stroke="midnightblue" points="697.264,-134.578 686.885,-136.704 696.325,-141.514 697.264,-134.578"/>
</g>
<!-- Node20 -->
<g id="node12" class="node"><title>Node20</title>
<g id="a_node12"><a xlink:href="_class_type_codes_8h.html" target="_top" xlink:title=" ">
<polygon fill="white" stroke="black" points="705.032,-117 705.032,-137 804.968,-137 804.968,-117 705.032,-117"/>
<text text-anchor="middle" x="755" y="-123" font-family="Helvetica,sans-Serif" font-size="10.00">ClassTypeCodes.h</text>
</a>
</g>
</g>
<!-- Node5&#45;&gt;Node20 -->
<g id="edge13" class="edge"><title>Node5&#45;&gt;Node20</title>
<path fill="none" stroke="midnightblue" d="M1073.58,-178.759C1020.43,-170.635 914.907,-154.382 815.149,-138.173"/>
<polygon fill="midnightblue" stroke="midnightblue" points="815.637,-134.706 805.205,-136.554 814.513,-141.615 815.637,-134.706"/>
</g>
<!-- Node21 -->
<g id="node13" class="node"><title>Node21</title>
<g id="a_node13"><a xlink:href="_global_names_8h.html" target="_top" xlink:title=" ">
<polygon fill="white" stroke="black" points="822.54,-117 822.54,-137 907.46,-137 907.46,-117 822.54,-117"/>
<text text-anchor="middle" x="865" y="-123" font-family="Helvetica,sans-Serif" font-size="10.00">GlobalNames.h</text>
</a>
</g>
</g>
<!-- Node5&#45;&gt;Node21 -->
<g id="edge14" class="edge"><title>Node5&#45;&gt;Node21</title>
<path fill="none" stroke="midnightblue" d="M1073.44,-176.036C1031.81,-166.443 961.595,-150.261 914.292,-139.359"/>
<polygon fill="midnightblue" stroke="midnightblue" points="914.8,-135.885 904.269,-137.05 913.228,-142.706 914.8,-135.885"/>
</g>
<!-- Node22 -->
<g id="node14" class="node"><title>Node22</title>
<g id="a_node14"><a xlink:href="_object_class_8hpp.html" target="_top" xlink:title=" ">
<polygon fill="white" stroke="red" points="925.315,-117 925.315,-137 1014.68,-137 1014.68,-117 925.315,-117"/>
<text text-anchor="middle" x="970" y="-123" font-family="Helvetica,sans-Serif" font-size="10.00">ObjectClass.hpp</text>
</a>
</g>
</g>
<!-- Node5&#45;&gt;Node22 -->
<g id="edge15" class="edge"><title>Node5&#45;&gt;Node22</title>
<path fill="none" stroke="midnightblue" d="M1085.52,-174.878C1062.77,-165.644 1027.38,-151.283 1001.76,-140.889"/>
<polygon fill="midnightblue" stroke="midnightblue" points="1003.05,-137.635 992.47,-137.118 1000.42,-144.121 1003.05,-137.635"/>
</g>
<!-- Node25 -->
<g id="node15" class="node"><title>Node25</title>
<g id="a_node15"><a xlink:href="_table_class_8hpp.html" target="_top" xlink:title=" ">
<polygon fill="white" stroke="red" points="1032.81,-117 1032.81,-137 1117.19,-137 1117.19,-117 1032.81,-117"/>
<text text-anchor="middle" x="1075" y="-123" font-family="Helvetica,sans-Serif" font-size="10.00">TableClass.hpp</text>
</a>
</g>
</g>
<!-- Node5&#45;&gt;Node25 -->
<g id="edge16" class="edge"><title>Node5&#45;&gt;Node25</title>
<path fill="none" stroke="midnightblue" d="M1102.55,-174.753C1097.94,-166.924 1091.19,-155.476 1085.53,-145.868"/>
<polygon fill="midnightblue" stroke="midnightblue" points="1088.44,-143.914 1080.35,-137.075 1082.41,-147.468 1088.44,-143.914"/>
</g>
<!-- Node28 -->
<g id="node16" class="node"><title>Node28</title>
<g id="a_node16"><a xlink:href="_stack_class_8hpp.html" target="_top" xlink:title=" ">
<polygon fill="white" stroke="black" points="1643.26,-117 1643.26,-137 1728.74,-137 1728.74,-117 1643.26,-117"/>
<text text-anchor="middle" x="1686" y="-123" font-family="Helvetica,sans-Serif" font-size="10.00">StackClass.hpp</text>
</a>
</g>
</g>
<!-- Node5&#45;&gt;Node28 -->
<g id="edge17" class="edge"><title>Node5&#45;&gt;Node28</title>
<path fill="none" stroke="midnightblue" d="M1142.6,-182.207C1225.5,-177.65 1442.13,-164.182 1633.26,-137.969"/>
<polygon fill="midnightblue" stroke="midnightblue" points="1633.78,-141.43 1643.21,-136.59 1632.82,-134.497 1633.78,-141.43"/>
</g>
<!-- Node29 -->
<g id="node17" class="node"><title>Node29</title>
<g id="a_node17"><a xlink:href="_rexx_memory_8hpp.html" target="_top" xlink:title=" ">
<polygon fill="white" stroke="red" points="1135.19,-117 1135.19,-137 1228.81,-137 1228.81,-117 1135.19,-117"/>
<text text-anchor="middle" x="1182" y="-123" font-family="Helvetica,sans-Serif" font-size="10.00">RexxMemory.hpp</text>
</a>
</g>
</g>
<!-- Node5&#45;&gt;Node29 -->
<g id="edge18" class="edge"><title>Node5&#45;&gt;Node29</title>
<path fill="none" stroke="midnightblue" d="M1120.22,-174.753C1131.53,-166.19 1148.57,-153.298 1161.89,-143.219"/>
<polygon fill="midnightblue" stroke="midnightblue" points="1164.15,-145.901 1170.01,-137.075 1159.92,-140.319 1164.15,-145.901"/>
</g>
<!-- Node36 -->
<g id="node18" class="node"><title>Node36</title>
<g id="a_node18"><a xlink:href="_rexx_behaviour_8hpp.html" target="_top" xlink:title=" ">
<polygon fill="white" stroke="red" points="1246.64,-117 1246.64,-137 1349.36,-137 1349.36,-117 1246.64,-117"/>
<text text-anchor="middle" x="1298" y="-123" font-family="Helvetica,sans-Serif" font-size="10.00">RexxBehaviour.hpp</text>
</a>
</g>
</g>
<!-- Node5&#45;&gt;Node36 -->
<g id="edge19" class="edge"><title>Node5&#45;&gt;Node36</title>
<path fill="none" stroke="midnightblue" d="M1138.95,-174.878C1171.2,-165.372 1221.89,-150.432 1257.35,-139.98"/>
<polygon fill="midnightblue" stroke="midnightblue" points="1258.78,-143.21 1267.38,-137.025 1256.8,-136.495 1258.78,-143.21"/>
</g>
<!-- Node38 -->
<g id="node19" class="node"><title>Node38</title>
<g id="a_node19"><a xlink:href="_class_class_8hpp.html" target="_top" xlink:title=" ">
<polygon fill="white" stroke="black" points="62.2637,-117 62.2637,-137 147.736,-137 147.736,-117 62.2637,-117"/>
<text text-anchor="middle" x="105" y="-123" font-family="Helvetica,sans-Serif" font-size="10.00">ClassClass.hpp</text>
</a>
</g>
</g>
<!-- Node5&#45;&gt;Node38 -->
<g id="edge20" class="edge"><title>Node5&#45;&gt;Node38</title>
<path fill="none" stroke="midnightblue" d="M1073.46,-178.984C1059.66,-177.148 1043.6,-175.223 1029,-174 645.771,-141.892 544.029,-182.052 157.82,-137.908"/>
<polygon fill="midnightblue" stroke="midnightblue" points="158.106,-134.418 147.771,-136.748 157.303,-141.372 158.106,-134.418"/>
</g>
<!-- Node39 -->
<g id="node20" class="node"><title>Node39</title>
<g id="a_node20"><a xlink:href="_rexx_envelope_8hpp.html" target="_top" xlink:title=" ">
<polygon fill="white" stroke="black" points="166.027,-117 166.027,-137 265.973,-137 265.973,-117 166.027,-117"/>
<text text-anchor="middle" x="216" y="-123" font-family="Helvetica,sans-Serif" font-size="10.00">RexxEnvelope.hpp</text>
</a>
</g>
</g>
<!-- Node5&#45;&gt;Node39 -->
<g id="edge21" class="edge"><title>Node5&#45;&gt;Node39</title>
<path fill="none" stroke="midnightblue" d="M1073.45,-179.032C1059.65,-177.203 1043.6,-175.271 1029,-174 698.034,-145.196 610.253,-173.533 276.113,-137.993"/>
<polygon fill="midnightblue" stroke="midnightblue" points="276.472,-134.511 266.155,-136.922 275.724,-141.471 276.472,-134.511"/>
</g>
<!-- Node5&#45;&gt;Node40 -->
<g id="edge22" class="edge"><title>Node5&#45;&gt;Node40</title>
<path fill="none" stroke="midnightblue" d="M1142.59,-182.388C1265.9,-176.554 1684.49,-156.006 1840.91,-137.952"/>
<polygon fill="midnightblue" stroke="midnightblue" points="1841.76,-141.376 1851.28,-136.712 1840.93,-134.425 1841.76,-141.376"/>
</g>
<!-- Node51 -->
<g id="node28" class="node"><title>Node51</title>
<g id="a_node28"><a xlink:href="_number_string_class_8hpp.html" target="_top" xlink:title=" ">
<polygon fill="white" stroke="red" points="1436.92,-117 1436.92,-137 1559.08,-137 1559.08,-117 1436.92,-117"/>
<text text-anchor="middle" x="1498" y="-123" font-family="Helvetica,sans-Serif" font-size="10.00">NumberStringClass.hpp</text>
</a>
</g>
</g>
<!-- Node5&#45;&gt;Node51 -->
<g id="edge29" class="edge"><title>Node5&#45;&gt;Node51</title>
<path fill="none" stroke="midnightblue" d="M1142.61,-179.03C1206.2,-169.899 1342.82,-150.282 1426.92,-138.206"/>
<polygon fill="midnightblue" stroke="midnightblue" points="1427.51,-141.658 1436.91,-136.772 1426.52,-134.729 1427.51,-141.658"/>
</g>
<!-- Node67 -->
<g id="node29" class="node"><title>Node67</title>
<g id="a_node29"><a xlink:href="_activity_manager_8hpp.html" target="_top" xlink:title=" ">
<polygon fill="white" stroke="red" points="1958.97,-117 1958.97,-137 2065.03,-137 2065.03,-117 1958.97,-117"/>
<text text-anchor="middle" x="2012" y="-123" font-family="Helvetica,sans-Serif" font-size="10.00">ActivityManager.hpp</text>
</a>
</g>
</g>
<!-- Node5&#45;&gt;Node67 -->
<g id="edge30" class="edge"><title>Node5&#45;&gt;Node67</title>
<path fill="none" stroke="midnightblue" d="M1142.53,-182.322C1285.82,-175.33 1831.21,-148.436 1948.51,-137.845"/>
<polygon fill="midnightblue" stroke="midnightblue" points="1949.16,-141.298 1958.78,-136.842 1948.48,-134.331 1949.16,-141.298"/>
</g>
<!-- Node41 -->
<g id="node22" class="node"><title>Node41</title>
<g id="a_node22"><a xlink:href="_list_class_8hpp.html" target="_top" xlink:title=" ">
<polygon fill="white" stroke="red" points="1590.99,-59 1590.99,-79 1667.01,-79 1667.01,-59 1590.99,-59"/>
<text text-anchor="middle" x="1629" y="-65" font-family="Helvetica,sans-Serif" font-size="10.00">ListClass.hpp</text>
</a>
</g>
</g>
<!-- Node40&#45;&gt;Node41 -->
<g id="edge23" class="edge"><title>Node40&#45;&gt;Node41</title>
<path fill="none" stroke="midnightblue" d="M1852.58,-116.968C1810.28,-108.158 1743.87,-94.3008 1677.07,-80.2214"/>
<polygon fill="midnightblue" stroke="midnightblue" points="1677.72,-76.7819 1667.22,-78.143 1676.28,-83.6313 1677.72,-76.7819"/>
</g>
<!-- Node43 -->
<g id="node23" class="node"><title>Node43</title>
<g id="a_node23"><a xlink:href="_rexx_internal_stack_8hpp.html" target="_top" xlink:title=" ">
<polygon fill="white" stroke="black" points="1684.69,-59 1684.69,-79 1801.31,-79 1801.31,-59 1684.69,-59"/>
<text text-anchor="middle" x="1743" y="-65" font-family="Helvetica,sans-Serif" font-size="10.00">RexxInternalStack.hpp</text>
</a>
</g>
</g>
<!-- Node40&#45;&gt;Node43 -->
<g id="edge24" class="edge"><title>Node40&#45;&gt;Node43</title>
<path fill="none" stroke="midnightblue" d="M1871.08,-116.878C1845.55,-107.535 1805.68,-92.943 1777.21,-82.522"/>
<polygon fill="midnightblue" stroke="midnightblue" points="1778.25,-79.1757 1767.66,-79.0253 1775.85,-85.7493 1778.25,-79.1757"/>
</g>
<!-- Node44 -->
<g id="node24" class="node"><title>Node44</title>
<g id="a_node24"><a xlink:href="_rexx_activation_stack_8hpp.html" target="_top" xlink:title=" ">
<polygon fill="white" stroke="black" points="1819.69,-59 1819.69,-79 1946.31,-79 1946.31,-59 1819.69,-59"/>
<text text-anchor="middle" x="1883" y="-65" font-family="Helvetica,sans-Serif" font-size="10.00">RexxActivationStack.hpp</text>
</a>
</g>
</g>
<!-- Node40&#45;&gt;Node44 -->
<g id="edge25" class="edge"><title>Node40&#45;&gt;Node44</title>
<path fill="none" stroke="midnightblue" d="M1893.85,-116.753C1892.11,-109.25 1889.6,-98.4238 1887.43,-89.0781"/>
<polygon fill="midnightblue" stroke="midnightblue" points="1890.78,-88.0247 1885.11,-79.0752 1883.96,-89.6076 1890.78,-88.0247"/>
</g>
<!-- Node45 -->
<g id="node25" class="node"><title>Node45</title>
<g id="a_node25"><a xlink:href="_expression_stack_8hpp.html" target="_top" xlink:title=" ">
<polygon fill="white" stroke="black" points="1964.03,-59 1964.03,-79 2073.97,-79 2073.97,-59 1964.03,-59"/>
<text text-anchor="middle" x="2019" y="-65" font-family="Helvetica,sans-Serif" font-size="10.00">ExpressionStack.hpp</text>
</a>
</g>
</g>
<!-- Node40&#45;&gt;Node45 -->
<g id="edge26" class="edge"><title>Node40&#45;&gt;Node45</title>
<path fill="none" stroke="midnightblue" d="M1916.04,-116.878C1936.05,-107.766 1967.03,-93.6617 1989.78,-83.3028"/>
<polygon fill="midnightblue" stroke="midnightblue" points="1991.32,-86.4472 1998.97,-79.1181 1988.42,-80.0764 1991.32,-86.4472"/>
</g>
<!-- Node47 -->
<g id="node27" class="node"><title>Node47</title>
<g id="a_node27"><a xlink:href="_rexx_local_variables_8hpp.html" target="_top" xlink:title=" ">
<polygon fill="white" stroke="red" points="2092.45,-59 2092.45,-79 2215.55,-79 2215.55,-59 2092.45,-59"/>
<text text-anchor="middle" x="2154" y="-65" font-family="Helvetica,sans-Serif" font-size="10.00">RexxLocalVariables.hpp</text>
</a>
</g>
</g>
<!-- Node40&#45;&gt;Node47 -->
<g id="edge28" class="edge"><title>Node40&#45;&gt;Node47</title>
<path fill="none" stroke="midnightblue" d="M1937.74,-116.94C1982.61,-107.201 2054,-91.7065 2102.37,-81.2073"/>
<polygon fill="midnightblue" stroke="midnightblue" points="2103.29,-84.5882 2112.32,-79.0466 2101.81,-77.7475 2103.29,-84.5882"/>
</g>
<!-- Node45&#45;&gt;Node46 -->
<g id="edge27" class="edge"><title>Node45&#45;&gt;Node46</title>
<path fill="none" stroke="midnightblue" d="M2037.49,-58.7527C2055.52,-49.7418 2083.13,-35.9353 2103.68,-25.6589"/>
<polygon fill="midnightblue" stroke="midnightblue" points="2105.47,-28.6779 2112.85,-21.0752 2102.34,-22.4169 2105.47,-28.6779"/>
</g>
<!-- Node50&#45;&gt;Node51 -->
<g id="edge32" class="edge"><title>Node50&#45;&gt;Node51</title>
<path fill="none" stroke="midnightblue" d="M1600.83,-232.671C1581.87,-213.369 1538.11,-168.83 1514.25,-144.536"/>
<polygon fill="midnightblue" stroke="midnightblue" points="1516.48,-141.82 1506.98,-137.139 1511.49,-146.726 1516.48,-141.82"/>
</g>
<!-- Node53 -->
<g id="node31" class="node"><title>Node53</title>
<g id="a_node31"><a xlink:href="_integer_class_8hpp.html" target="_top" xlink:title=" ">
<polygon fill="white" stroke="black" points="1429.2,-175 1429.2,-195 1520.8,-195 1520.8,-175 1429.2,-175"/>
<text text-anchor="middle" x="1475" y="-181" font-family="Helvetica,sans-Serif" font-size="10.00">IntegerClass.hpp</text>
</a>
</g>
</g>
<!-- Node50&#45;&gt;Node53 -->
<g id="edge33" class="edge"><title>Node50&#45;&gt;Node53</title>
<path fill="none" stroke="midnightblue" d="M1588.01,-232.878C1565.85,-223.685 1531.43,-209.409 1506.4,-199.026"/>
<polygon fill="midnightblue" stroke="midnightblue" points="1507.56,-195.717 1496.98,-195.118 1504.88,-202.183 1507.56,-195.717"/>
</g>
<!-- Node54 -->
<g id="node32" class="node"><title>Node54</title>
<g id="a_node32"><a xlink:href="_string_util_8hpp.html" target="_top" xlink:title=" ">
<polygon fill="white" stroke="black" points="1576.99,-175 1576.99,-195 1653.01,-195 1653.01,-175 1576.99,-175"/>
<text text-anchor="middle" x="1615" y="-181" font-family="Helvetica,sans-Serif" font-size="10.00">StringUtil.hpp</text>
</a>
</g>
</g>
<!-- Node50&#45;&gt;Node54 -->
<g id="edge35" class="edge"><title>Node50&#45;&gt;Node54</title>
<path fill="none" stroke="midnightblue" d="M1610.83,-232.753C1611.5,-225.25 1612.46,-214.424 1613.3,-205.078"/>
<polygon fill="midnightblue" stroke="midnightblue" points="1616.79,-205.347 1614.19,-195.075 1609.81,-204.724 1616.79,-205.347"/>
</g>
<!-- Node50&#45;&gt;Node55 -->
<g id="edge36" class="edge"><title>Node50&#45;&gt;Node55</title>
<path fill="none" stroke="midnightblue" d="M1572.31,-232.94C1530.84,-222.975 1464.31,-206.984 1420.62,-196.484"/>
<polygon fill="midnightblue" stroke="midnightblue" points="1421.39,-193.07 1410.85,-194.136 1419.76,-199.876 1421.39,-193.07"/>
</g>
<!-- Node53&#45;&gt;Node51 -->
<g id="edge34" class="edge"><title>Node53&#45;&gt;Node51</title>
<path fill="none" stroke="midnightblue" d="M1478.8,-174.753C1481.95,-167.087 1486.52,-155.952 1490.41,-146.471"/>
<polygon fill="midnightblue" stroke="midnightblue" points="1493.71,-147.655 1494.27,-137.075 1487.24,-144.996 1493.71,-147.655"/>
</g>
<!-- Node55&#45;&gt;Node13 -->
<g id="edge37" class="edge"><title>Node55&#45;&gt;Node13</title>
<path fill="none" stroke="midnightblue" d="M1379.64,-174.753C1381.81,-167.169 1384.95,-156.188 1387.64,-146.774"/>
<polygon fill="midnightblue" stroke="midnightblue" points="1391.03,-147.652 1390.41,-137.075 1384.29,-145.729 1391.03,-147.652"/>
</g>
<!-- Node69&#45;&gt;Node70 -->
<g id="edge40" class="edge"><title>Node69&#45;&gt;Node70</title>
<path fill="none" stroke="midnightblue" d="M1545.02,-348.878C1581.99,-339.249 1640.36,-324.046 1680.55,-313.578"/>
<polygon fill="midnightblue" stroke="midnightblue" points="1681.55,-316.933 1690.35,-311.025 1679.79,-310.159 1681.55,-316.933"/>
</g>
<!-- Node69&#45;&gt;Node76 -->
<g id="edge43" class="edge"><title>Node69&#45;&gt;Node76</title>
<path fill="none" stroke="midnightblue" d="M1495.98,-348.991C1482.91,-340.285 1463.22,-326.34 1448,-312 1431.29,-296.252 1414.71,-275.788 1403.78,-261.44"/>
<polygon fill="midnightblue" stroke="midnightblue" points="1406.55,-259.298 1397.75,-253.393 1400.95,-263.495 1406.55,-259.298"/>
</g>
<!-- Node77 -->
<g id="node37" class="node"><title>Node77</title>
<g id="a_node37"><a xlink:href="_routine_class_8hpp.html" target="_top" xlink:title=" ">
<polygon fill="white" stroke="black" points="1456.53,-291 1456.53,-311 1551.47,-311 1551.47,-291 1456.53,-291"/>
<text text-anchor="middle" x="1504" y="-297" font-family="Helvetica,sans-Serif" font-size="10.00">RoutineClass.hpp</text>
</a>
</g>
</g>
<!-- Node69&#45;&gt;Node77 -->
<g id="edge45" class="edge"><title>Node69&#45;&gt;Node77</title>
<path fill="none" stroke="midnightblue" d="M1509.01,-348.753C1508.21,-341.25 1507.05,-330.424 1506.04,-321.078"/>
<polygon fill="midnightblue" stroke="midnightblue" points="1509.52,-320.645 1504.97,-311.075 1502.56,-321.391 1509.52,-320.645"/>
</g>
<!-- Node70&#45;&gt;Node41 -->
<g id="edge41" class="edge"><title>Node70&#45;&gt;Node41</title>
<path fill="none" stroke="midnightblue" d="M1729.08,-290.985C1741.32,-262.488 1774.6,-172.883 1737,-116 1729.07,-104 1697.04,-91.2471 1669.91,-82.2204"/>
<polygon fill="midnightblue" stroke="midnightblue" points="1670.78,-78.8233 1660.19,-79.0717 1668.62,-85.4827 1670.78,-78.8233"/>
</g>
<!-- Node70&#45;&gt;Node28 -->
<g id="edge42" class="edge"><title>Node70&#45;&gt;Node28</title>
<path fill="none" stroke="midnightblue" d="M1722.9,-290.753C1716.77,-263.688 1698.75,-184.224 1690.37,-147.286"/>
<polygon fill="midnightblue" stroke="midnightblue" points="1693.73,-146.272 1688.11,-137.293 1686.91,-147.82 1693.73,-146.272"/>
</g>
<!-- Node76&#45;&gt;Node5 -->
<g id="edge44" class="edge"><title>Node76&#45;&gt;Node5</title>
<path fill="none" stroke="midnightblue" d="M1345.22,-232.94C1292.13,-222.435 1205.19,-205.233 1152.61,-194.827"/>
<polygon fill="midnightblue" stroke="midnightblue" points="1153.06,-191.348 1142.57,-192.841 1151.7,-198.215 1153.06,-191.348"/>
</g>
<!-- Node77&#45;&gt;Node76 -->
<g id="edge46" class="edge"><title>Node77&#45;&gt;Node76</title>
<path fill="none" stroke="midnightblue" d="M1485.59,-290.878C1467.37,-281.847 1439.25,-267.913 1418.4,-257.581"/>
<polygon fill="midnightblue" stroke="midnightblue" points="1419.91,-254.423 1409.4,-253.118 1416.8,-260.695 1419.91,-254.423"/>
</g>
<!-- Node78&#45;&gt;Node76 -->
<g id="edge48" class="edge"><title>Node78&#45;&gt;Node76</title>
<path fill="none" stroke="midnightblue" d="M1358.86,-348.671C1364.61,-329.957 1377.64,-287.517 1385.23,-262.809"/>
<polygon fill="midnightblue" stroke="midnightblue" points="1388.6,-263.726 1388.19,-253.139 1381.91,-261.672 1388.6,-263.726"/>
</g>
<!-- Node79&#45;&gt;Node45 -->
<g id="edge51" class="edge"><title>Node79&#45;&gt;Node45</title>
<path fill="none" stroke="midnightblue" d="M2102.59,-406.804C2111.66,-387.755 2131,-342.384 2131,-302 2131,-302 2131,-302 2131,-184 2131,-136.778 2081.49,-101.957 2048.31,-83.9198"/>
<polygon fill="midnightblue" stroke="midnightblue" points="2049.51,-80.5971 2039.02,-79.0734 2046.27,-86.8029 2049.51,-80.5971"/>
</g>
<!-- Node79&#45;&gt;Node47 -->
<g id="edge52" class="edge"><title>Node79&#45;&gt;Node47</title>
<path fill="none" stroke="midnightblue" d="M2109.94,-406.972C2120.46,-398.46 2135.55,-384.825 2145,-370 2162.23,-342.978 2169,-334.049 2169,-302 2169,-302 2169,-302 2169,-184 2169,-150.358 2162.5,-111.605 2158.06,-89.0503"/>
<polygon fill="midnightblue" stroke="midnightblue" points="2161.46,-88.2036 2156.02,-79.1081 2154.6,-89.6067 2161.46,-88.2036"/>
</g>
<!-- Node79&#45;&gt;Node69 -->
<g id="edge53" class="edge"><title>Node79&#45;&gt;Node69</title>
<path fill="none" stroke="midnightblue" d="M2047.1,-411.153C1936.05,-400.576 1673.01,-375.525 1561.45,-364.9"/>
<polygon fill="midnightblue" stroke="midnightblue" points="1561.74,-361.412 1551.45,-363.948 1561.08,-368.38 1561.74,-361.412"/>
</g>
<!-- Node79&#45;&gt;Node67 -->
<g id="edge54" class="edge"><title>Node79&#45;&gt;Node67</title>
<path fill="none" stroke="midnightblue" d="M2097.33,-406.844C2095.96,-387.497 2093,-341.027 2093,-302 2093,-302 2093,-302 2093,-242 2093,-210.498 2090.93,-199.904 2073,-174 2064.1,-161.137 2050.45,-150.363 2038.32,-142.483"/>
<polygon fill="midnightblue" stroke="midnightblue" points="2039.8,-139.283 2029.45,-137.034 2036.14,-145.248 2039.8,-139.283"/>
</g>
<!-- Node84&#45;&gt;Node40 -->
<g id="edge56" class="edge"><title>Node84&#45;&gt;Node40</title>
<path fill="none" stroke="midnightblue" d="M1888.43,-290.753C1889.69,-263.688 1893.38,-184.224 1895.1,-147.286"/>
<polygon fill="midnightblue" stroke="midnightblue" points="1898.6,-147.445 1895.57,-137.293 1891.61,-147.12 1898.6,-147.445"/>
</g>
<!-- Node75&#45;&gt;Node40 -->
<g id="edge62" class="edge"><title>Node75&#45;&gt;Node40</title>
<path fill="none" stroke="midnightblue" d="M1992.27,-174.878C1973.72,-165.847 1945.11,-151.913 1923.89,-141.581"/>
<polygon fill="midnightblue" stroke="midnightblue" points="1925.25,-138.349 1914.72,-137.118 1922.18,-144.643 1925.25,-138.349"/>
</g>
<!-- Node75&#45;&gt;Node67 -->
<g id="edge63" class="edge"><title>Node75&#45;&gt;Node67</title>
<path fill="none" stroke="midnightblue" d="M2011.17,-174.753C2011.3,-167.25 2011.49,-156.424 2011.66,-147.078"/>
<polygon fill="midnightblue" stroke="midnightblue" points="2015.16,-147.136 2011.84,-137.075 2008.16,-147.011 2015.16,-147.136"/>
</g>
<!-- Node90&#45;&gt;Node91 -->
<g id="edge68" class="edge"><title>Node90&#45;&gt;Node91</title>
<path fill="none" stroke="midnightblue" d="M2858.1,-406.753C2864.24,-398.761 2873.27,-386.998 2880.74,-377.27"/>
<polygon fill="midnightblue" stroke="midnightblue" points="2883.72,-379.138 2887.03,-369.075 2878.17,-374.875 2883.72,-379.138"/>
</g>
<!-- Node92&#45;&gt;Node5 -->
<g id="edge72" class="edge"><title>Node92&#45;&gt;Node5</title>
<path fill="none" stroke="midnightblue" d="M1133.05,-232.753C1128.9,-225.006 1122.85,-213.714 1117.73,-204.169"/>
<polygon fill="midnightblue" stroke="midnightblue" points="1120.67,-202.237 1112.86,-195.075 1114.5,-205.543 1120.67,-202.237"/>
</g>
<!-- Node95&#45;&gt;Node5 -->
<g id="edge74" class="edge"><title>Node95&#45;&gt;Node5</title>
<path fill="none" stroke="midnightblue" d="M1224.23,-348.676C1226.67,-326.177 1229.8,-268.101 1203,-232 1190.63,-215.336 1170.61,-204.413 1152.13,-197.413"/>
<polygon fill="midnightblue" stroke="midnightblue" points="1153.25,-194.098 1142.66,-194.101 1150.94,-200.705 1153.25,-194.098"/>
</g>
</g>
</svg>
