<?xml version="1.0" encoding="UTF-8" standalone="no"?>
<!DOCTYPE svg PUBLIC "-//W3C//DTD SVG 1.1//EN"
 "http://www.w3.org/Graphics/SVG/1.1/DTD/svg11.dtd">
<!-- Generated by graphviz version 2.30.1 (20130222.1704)
 -->
<!-- Title: SecurityManager.cpp Pages: 1 -->
<!--zoomable 436 -->
<svg id="main" version="1.1" xmlns="http://www.w3.org/2000/svg" xmlns:xlink="http://www.w3.org/1999/xlink" xml:space="preserve" onload="init(evt)">
<style type="text/css"><![CDATA[
.edge:hover path { stroke: red; }
.edge:hover polygon { stroke: red; fill: red; }
]]></style>
<script type="text/javascript"><![CDATA[
var edges = document.getElementsByTagName('g');
if (edges && edges.length) {
  for (var i=0;i<edges.length;i++) {
    if (edges[i].id.substr(0,4)=='edge') {
      edges[i].setAttribute('class','edge');
    }
  }
}
]]></script>
        <defs>
                <circle id="rim" cx="0" cy="0" r="7"/>
                <circle id="rim2" cx="0" cy="0" r="3.5"/>
                <g id="zoomPlus">
                        <use xlink:href="#rim" fill="#404040">
                                <set attributeName="fill" to="#808080" begin="zoomplus.mouseover" end="zoomplus.mouseout"/>
                        </use>
                        <path d="M-4,0h8M0,-4v8" fill="none" stroke="white" stroke-width="1.5" pointer-events="none"/>
                </g>
                <g id="zoomMin">
                        <use xlink:href="#rim" fill="#404040">
                                <set attributeName="fill" to="#808080" begin="zoomminus.mouseover" end="zoomminus.mouseout"/>
                        </use>
                        <path d="M-4,0h8" fill="none" stroke="white" stroke-width="1.5" pointer-events="none"/>
                </g>
                <g id="dirArrow">
                        <path fill="none" stroke="white" stroke-width="1.5" d="M0,-3.0v7 M-2.5,-0.5L0,-3.0L2.5,-0.5"/>
                </g>
               <g id="resetDef">
                       <use xlink:href="#rim2" fill="#404040">
                               <set attributeName="fill" to="#808080" begin="reset.mouseover" end="reset.mouseout"/>
                       </use>
               </g>
        </defs>

<script type="text/javascript">
var viewWidth = 2645;
var viewHeight = 436;
var sectionId = 'dynsection-0';
</script>
<script xlink:href="svgpan.js"/>
<svg id="graph" class="graph">
<g id="viewport">
<title>SecurityManager.cpp</title>
<polygon fill="white" stroke="white" points="-4,5 -4,-432 2642,-432 2642,5 -4,5"/>
<!-- Node1 -->
<g id="node1" class="node"><title>Node1</title>
<g id="a_node1"><a xlink:title=" ">
<polygon fill="#bfbfbf" stroke="black" points="1818.03,-407 1818.03,-427 1927.97,-427 1927.97,-407 1818.03,-407"/>
<text text-anchor="middle" x="1873" y="-413" font-family="Helvetica,sans-Serif" font-size="10.00">SecurityManager.cpp</text>
</a>
</g>
</g>
<!-- Node2 -->
<g id="node2" class="node"><title>Node2</title>
<g id="a_node2"><a xlink:href="_rexx_core_8h.html" target="_top" xlink:title=" ">
<polygon fill="white" stroke="black" points="1247.6,-291 1247.6,-311 1316.4,-311 1316.4,-291 1247.6,-291"/>
<text text-anchor="middle" x="1282" y="-297" font-family="Helvetica,sans-Serif" font-size="10.00">RexxCore.h</text>
</a>
</g>
</g>
<!-- Node1&#45;&gt;Node2 -->
<g id="edge1" class="edge"><title>Node1&#45;&gt;Node2</title>
<path fill="none" stroke="midnightblue" d="M1826.13,-406.959C1714.78,-385.481 1435.56,-331.622 1326.57,-310.597"/>
<polygon fill="midnightblue" stroke="midnightblue" points="1327.05,-307.125 1316.56,-308.667 1325.72,-313.998 1327.05,-307.125"/>
</g>
<!-- Node68 -->
<g id="node48" class="node"><title>Node68</title>
<g id="a_node48"><a xlink:href="_security_manager_8hpp.html" target="_top" xlink:title=" ">
<polygon fill="white" stroke="black" points="1817.75,-349 1817.75,-369 1928.25,-369 1928.25,-349 1817.75,-349"/>
<text text-anchor="middle" x="1873" y="-355" font-family="Helvetica,sans-Serif" font-size="10.00">SecurityManager.hpp</text>
</a>
</g>
</g>
<!-- Node1&#45;&gt;Node68 -->
<g id="edge53" class="edge"><title>Node1&#45;&gt;Node68</title>
<path fill="none" stroke="midnightblue" d="M1873,-406.753C1873,-399.25 1873,-388.424 1873,-379.078"/>
<polygon fill="midnightblue" stroke="midnightblue" points="1876.5,-379.075 1873,-369.075 1869.5,-379.075 1876.5,-379.075"/>
</g>
<!-- Node70 -->
<g id="node50" class="node"><title>Node70</title>
<g id="a_node50"><a xlink:href="_directory_class_8hpp.html" target="_top" xlink:title=" ">
<polygon fill="white" stroke="black" points="2240.76,-349 2240.76,-369 2341.24,-369 2341.24,-349 2240.76,-349"/>
<text text-anchor="middle" x="2291" y="-355" font-family="Helvetica,sans-Serif" font-size="10.00">DirectoryClass.hpp</text>
</a>
</g>
</g>
<!-- Node1&#45;&gt;Node70 -->
<g id="edge58" class="edge"><title>Node1&#45;&gt;Node70</title>
<path fill="none" stroke="midnightblue" d="M1928.08,-408.621C2006.42,-398.126 2149.51,-378.956 2230.64,-368.086"/>
<polygon fill="midnightblue" stroke="midnightblue" points="2231.26,-371.535 2240.71,-366.738 2230.33,-364.597 2231.26,-371.535"/>
</g>
<!-- Node3 -->
<g id="node3" class="node"><title>Node3</title>
<g id="a_node3"><a xlink:href="oorexxapi_8h.html" target="_top" xlink:title=" ">
<polygon fill="white" stroke="black" points="854.15,-233 854.15,-253 921.85,-253 921.85,-233 854.15,-233"/>
<text text-anchor="middle" x="888" y="-239" font-family="Helvetica,sans-Serif" font-size="10.00">oorexxapi.h</text>
</a>
</g>
</g>
<!-- Node2&#45;&gt;Node3 -->
<g id="edge2" class="edge"><title>Node2&#45;&gt;Node3</title>
<path fill="none" stroke="midnightblue" d="M1247.45,-296.61C1186.04,-290.339 1053.7,-275.72 932.406,-254.113"/>
<polygon fill="midnightblue" stroke="midnightblue" points="932.667,-250.603 922.205,-252.274 931.425,-257.492 932.667,-250.603"/>
</g>
<!-- Node10 -->
<g id="node7" class="node"><title>Node10</title>
<g id="a_node7"><a xlink:title=" ">
<polygon fill="white" stroke="#bfbfbf" points="1737.27,-233 1737.27,-253 1782.73,-253 1782.73,-233 1737.27,-233"/>
<text text-anchor="middle" x="1760" y="-239" font-family="Helvetica,sans-Serif" font-size="10.00">stdio.h</text>
</a>
</g>
</g>
<!-- Node2&#45;&gt;Node10 -->
<g id="edge6" class="edge"><title>Node2&#45;&gt;Node10</title>
<path fill="none" stroke="midnightblue" d="M1316.67,-298.672C1392.02,-295.295 1576.05,-284.382 1727,-254 1727.1,-253.979 1727.21,-253.958 1727.31,-253.937"/>
<polygon fill="midnightblue" stroke="midnightblue" points="1728.18,-257.329 1737.06,-251.563 1726.52,-250.527 1728.18,-257.329"/>
</g>
<!-- Node11 -->
<g id="node8" class="node"><title>Node11</title>
<g id="a_node8"><a xlink:title=" ">
<polygon fill="white" stroke="#bfbfbf" points="1876.93,-233 1876.93,-253 1929.07,-253 1929.07,-233 1876.93,-233"/>
<text text-anchor="middle" x="1903" y="-239" font-family="Helvetica,sans-Serif" font-size="10.00">stdarg.h</text>
</a>
</g>
</g>
<!-- Node2&#45;&gt;Node11 -->
<g id="edge7" class="edge"><title>Node2&#45;&gt;Node11</title>
<path fill="none" stroke="midnightblue" d="M1316.62,-299.26C1407.04,-296.896 1657.54,-287.577 1863,-254 1864.27,-253.792 1865.56,-253.564 1866.86,-253.32"/>
<polygon fill="midnightblue" stroke="midnightblue" points="1867.83,-256.693 1876.88,-251.191 1866.37,-249.846 1867.83,-256.693"/>
</g>
<!-- Node12 -->
<g id="node9" class="node"><title>Node12</title>
<g id="a_node9"><a xlink:title=" ">
<polygon fill="white" stroke="#bfbfbf" points="-0.396484,-233 -0.396484,-253 48.3965,-253 48.3965,-233 -0.396484,-233"/>
<text text-anchor="middle" x="24" y="-239" font-family="Helvetica,sans-Serif" font-size="10.00">string.h</text>
</a>
</g>
</g>
<!-- Node2&#45;&gt;Node12 -->
<g id="edge8" class="edge"><title>Node2&#45;&gt;Node12</title>
<path fill="none" stroke="midnightblue" d="M1247.32,-299.858C1075.8,-298.983 316.468,-293.022 58.7745,-253.638"/>
<polygon fill="midnightblue" stroke="midnightblue" points="59.1427,-250.153 48.7176,-252.042 58.0452,-257.066 59.1427,-250.153"/>
</g>
<!-- Node13 -->
<g id="node10" class="node"><title>Node13</title>
<g id="a_node10"><a xlink:title=" ">
<polygon fill="white" stroke="#bfbfbf" points="66.8794,-233 66.8794,-253 115.121,-253 115.121,-233 66.8794,-233"/>
<text text-anchor="middle" x="91" y="-239" font-family="Helvetica,sans-Serif" font-size="10.00">ctype.h</text>
</a>
</g>
</g>
<!-- Node2&#45;&gt;Node13 -->
<g id="edge9" class="edge"><title>Node2&#45;&gt;Node13</title>
<path fill="none" stroke="midnightblue" d="M1247.53,-299.811C1082.23,-298.73 368.923,-292.001 125.537,-253.797"/>
<polygon fill="midnightblue" stroke="midnightblue" points="125.776,-250.29 115.343,-252.131 124.648,-257.198 125.776,-250.29"/>
</g>
<!-- Node14 -->
<g id="node11" class="node"><title>Node14</title>
<g id="a_node11"><a xlink:title=" ">
<polygon fill="white" stroke="#bfbfbf" points="133.443,-233 133.443,-253 180.557,-253 180.557,-233 133.443,-233"/>
<text text-anchor="middle" x="157" y="-239" font-family="Helvetica,sans-Serif" font-size="10.00">limits.h</text>
</a>
</g>
</g>
<!-- Node2&#45;&gt;Node14 -->
<g id="edge10" class="edge"><title>Node2&#45;&gt;Node14</title>
<path fill="none" stroke="midnightblue" d="M1247.6,-299.757C1088.19,-298.451 419.717,-290.935 190.523,-253.803"/>
<polygon fill="midnightblue" stroke="midnightblue" points="191.039,-250.341 180.596,-252.128 189.874,-257.243 191.039,-250.341"/>
</g>
<!-- Node15 -->
<g id="node12" class="node"><title>Node15</title>
<g id="a_node12"><a xlink:href="_rexx_platform_definitions_8h.html" target="_top" xlink:title=" ">
<polygon fill="white" stroke="black" points="198.478,-233 198.478,-253 329.522,-253 329.522,-233 198.478,-233"/>
<text text-anchor="middle" x="264" y="-239" font-family="Helvetica,sans-Serif" font-size="10.00">RexxPlatformDefinitions.h</text>
</a>
</g>
</g>
<!-- Node2&#45;&gt;Node15 -->
<g id="edge11" class="edge"><title>Node2&#45;&gt;Node15</title>
<path fill="none" stroke="midnightblue" d="M1247.21,-299.379C1124.47,-296.964 700.136,-286.692 338.286,-253.935"/>
<polygon fill="midnightblue" stroke="midnightblue" points="338.414,-250.432 328.137,-253.009 337.778,-257.404 338.414,-250.432"/>
</g>
<!-- Node18 -->
<g id="node15" class="node"><title>Node18</title>
<g id="a_node15"><a xlink:href="_rexx_constants_8hpp.html" target="_top" xlink:title=" ">
<polygon fill="white" stroke="black" points="347.365,-233 347.365,-253 450.635,-253 450.635,-233 347.365,-233"/>
<text text-anchor="middle" x="399" y="-239" font-family="Helvetica,sans-Serif" font-size="10.00">RexxConstants.hpp</text>
</a>
</g>
</g>
<!-- Node2&#45;&gt;Node18 -->
<g id="edge14" class="edge"><title>Node2&#45;&gt;Node18</title>
<path fill="none" stroke="midnightblue" d="M1247.27,-299.214C1134.28,-296.406 767.045,-285.315 465,-254 463.703,-253.866 462.393,-253.724 461.073,-253.575"/>
<polygon fill="midnightblue" stroke="midnightblue" points="461.172,-250.061 450.822,-252.323 460.324,-257.01 461.172,-250.061"/>
</g>
<!-- Node19 -->
<g id="node16" class="node"><title>Node19</title>
<g id="a_node16"><a xlink:href="_class_type_codes_8h.html" target="_top" xlink:title=" ">
<polygon fill="white" stroke="black" points="278.032,-117 278.032,-137 377.968,-137 377.968,-117 278.032,-117"/>
<text text-anchor="middle" x="328" y="-123" font-family="Helvetica,sans-Serif" font-size="10.00">ClassTypeCodes.h</text>
</a>
</g>
</g>
<!-- Node2&#45;&gt;Node19 -->
<g id="edge15" class="edge"><title>Node2&#45;&gt;Node19</title>
<path fill="none" stroke="midnightblue" d="M1247.3,-299.886C1142.24,-299.095 818.613,-293.391 554,-254 552.271,-253.743 310.085,-197.371 309,-196 297.648,-181.646 305.999,-160.907 314.932,-146.112"/>
<polygon fill="midnightblue" stroke="midnightblue" points="318.109,-147.651 320.686,-137.375 312.263,-143.801 318.109,-147.651"/>
</g>
<!-- Node20 -->
<g id="node17" class="node"><title>Node20</title>
<g id="a_node17"><a xlink:href="_global_names_8h.html" target="_top" xlink:title=" ">
<polygon fill="white" stroke="black" points="1188.54,-233 1188.54,-253 1273.46,-253 1273.46,-233 1188.54,-233"/>
<text text-anchor="middle" x="1231" y="-239" font-family="Helvetica,sans-Serif" font-size="10.00">GlobalNames.h</text>
</a>
</g>
</g>
<!-- Node2&#45;&gt;Node20 -->
<g id="edge16" class="edge"><title>Node2&#45;&gt;Node20</title>
<path fill="none" stroke="midnightblue" d="M1273.58,-290.753C1266.15,-282.598 1255.15,-270.516 1246.19,-260.677"/>
<polygon fill="midnightblue" stroke="midnightblue" points="1248.59,-258.112 1239.26,-253.075 1243.41,-262.825 1248.59,-258.112"/>
</g>
<!-- Node21 -->
<g id="node18" class="node"><title>Node21</title>
<g id="a_node18"><a xlink:href="_object_class_8hpp.html" target="_top" xlink:title=" ">
<polygon fill="white" stroke="black" points="940.315,-233 940.315,-253 1029.68,-253 1029.68,-233 940.315,-233"/>
<text text-anchor="middle" x="985" y="-239" font-family="Helvetica,sans-Serif" font-size="10.00">ObjectClass.hpp</text>
</a>
</g>
</g>
<!-- Node2&#45;&gt;Node21 -->
<g id="edge17" class="edge"><title>Node2&#45;&gt;Node21</title>
<path fill="none" stroke="midnightblue" d="M1247.35,-293.466C1196.36,-283.852 1100.62,-265.8 1039.97,-254.365"/>
<polygon fill="midnightblue" stroke="midnightblue" points="1040.29,-250.863 1029.81,-252.45 1038.99,-257.742 1040.29,-250.863"/>
</g>
<!-- Node24 -->
<g id="node21" class="node"><title>Node24</title>
<g id="a_node21"><a xlink:href="_table_class_8hpp.html" target="_top" xlink:title=" ">
<polygon fill="white" stroke="black" points="772.813,-117 772.813,-137 857.187,-137 857.187,-117 772.813,-117"/>
<text text-anchor="middle" x="815" y="-123" font-family="Helvetica,sans-Serif" font-size="10.00">TableClass.hpp</text>
</a>
</g>
</g>
<!-- Node2&#45;&gt;Node24 -->
<g id="edge20" class="edge"><title>Node2&#45;&gt;Node24</title>
<path fill="none" stroke="midnightblue" d="M1247.31,-298.624C1149.22,-294.422 875.049,-280.406 845,-254 814.418,-227.125 812.088,-175.24 813.345,-147.164"/>
<polygon fill="midnightblue" stroke="midnightblue" points="816.847,-147.249 814.004,-137.043 809.861,-146.794 816.847,-147.249"/>
</g>
<!-- Node27 -->
<g id="node24" class="node"><title>Node27</title>
<g id="a_node24"><a xlink:href="_stack_class_8hpp.html" target="_top" xlink:title=" ">
<polygon fill="white" stroke="black" points="1291.26,-233 1291.26,-253 1376.74,-253 1376.74,-233 1291.26,-233"/>
<text text-anchor="middle" x="1334" y="-239" font-family="Helvetica,sans-Serif" font-size="10.00">StackClass.hpp</text>
</a>
</g>
</g>
<!-- Node2&#45;&gt;Node27 -->
<g id="edge23" class="edge"><title>Node2&#45;&gt;Node27</title>
<path fill="none" stroke="midnightblue" d="M1290.59,-290.753C1298.16,-282.598 1309.38,-270.516 1318.51,-260.677"/>
<polygon fill="midnightblue" stroke="midnightblue" points="1321.33,-262.785 1325.57,-253.075 1316.2,-258.022 1321.33,-262.785"/>
</g>
<!-- Node28 -->
<g id="node25" class="node"><title>Node28</title>
<g id="a_node25"><a xlink:href="_rexx_memory_8hpp.html" target="_top" xlink:title=" ">
<polygon fill="white" stroke="black" points="563.189,-233 563.189,-253 656.811,-253 656.811,-233 563.189,-233"/>
<text text-anchor="middle" x="610" y="-239" font-family="Helvetica,sans-Serif" font-size="10.00">RexxMemory.hpp</text>
</a>
</g>
</g>
<!-- Node2&#45;&gt;Node28 -->
<g id="edge24" class="edge"><title>Node2&#45;&gt;Node28</title>
<path fill="none" stroke="midnightblue" d="M1247.29,-297.107C1138.32,-288.027 802.312,-260.026 667.166,-248.764"/>
<polygon fill="midnightblue" stroke="midnightblue" points="667.276,-245.261 657.02,-247.918 666.695,-252.237 667.276,-245.261"/>
</g>
<!-- Node35 -->
<g id="node30" class="node"><title>Node35</title>
<g id="a_node30"><a xlink:href="_rexx_behaviour_8hpp.html" target="_top" xlink:title=" ">
<polygon fill="white" stroke="black" points="1394.64,-233 1394.64,-253 1497.36,-253 1497.36,-233 1394.64,-233"/>
<text text-anchor="middle" x="1446" y="-239" font-family="Helvetica,sans-Serif" font-size="10.00">RexxBehaviour.hpp</text>
</a>
</g>
</g>
<!-- Node2&#45;&gt;Node35 -->
<g id="edge32" class="edge"><title>Node2&#45;&gt;Node35</title>
<path fill="none" stroke="midnightblue" d="M1308.71,-290.878C1336.2,-281.494 1379.18,-266.815 1409.73,-256.386"/>
<polygon fill="midnightblue" stroke="midnightblue" points="1411.24,-259.569 1419.57,-253.025 1408.97,-252.945 1411.24,-259.569"/>
</g>
<!-- Node37 -->
<g id="node32" class="node"><title>Node37</title>
<g id="a_node32"><a xlink:href="_class_class_8hpp.html" target="_top" xlink:title=" ">
<polygon fill="white" stroke="black" points="1515.26,-233 1515.26,-253 1600.74,-253 1600.74,-233 1515.26,-233"/>
<text text-anchor="middle" x="1558" y="-239" font-family="Helvetica,sans-Serif" font-size="10.00">ClassClass.hpp</text>
</a>
</g>
</g>
<!-- Node2&#45;&gt;Node37 -->
<g id="edge34" class="edge"><title>Node2&#45;&gt;Node37</title>
<path fill="none" stroke="midnightblue" d="M1316.68,-292.964C1364.11,-283.34 1449.64,-265.985 1505.1,-254.733"/>
<polygon fill="midnightblue" stroke="midnightblue" points="1505.99,-258.125 1515.09,-252.706 1504.59,-251.265 1505.99,-258.125"/>
</g>
<!-- Node38 -->
<g id="node33" class="node"><title>Node38</title>
<g id="a_node33"><a xlink:href="_rexx_envelope_8hpp.html" target="_top" xlink:title=" ">
<polygon fill="white" stroke="black" points="1619.03,-233 1619.03,-253 1718.97,-253 1718.97,-233 1619.03,-233"/>
<text text-anchor="middle" x="1669" y="-239" font-family="Helvetica,sans-Serif" font-size="10.00">RexxEnvelope.hpp</text>
</a>
</g>
</g>
<!-- Node2&#45;&gt;Node38 -->
<g id="edge35" class="edge"><title>Node2&#45;&gt;Node38</title>
<path fill="none" stroke="midnightblue" d="M1316.41,-295.452C1376.05,-287.503 1502.47,-270.368 1609,-254 1609.1,-253.984 1609.2,-253.969 1609.3,-253.953"/>
<polygon fill="midnightblue" stroke="midnightblue" points="1609.59,-257.452 1618.92,-252.443 1608.5,-250.536 1609.59,-257.452"/>
</g>
<!-- Node39 -->
<g id="node34" class="node"><title>Node39</title>
<g id="a_node34"><a xlink:href="_rexx_activity_8hpp.html" target="_top" xlink:title=" ">
<polygon fill="white" stroke="black" points="1947.41,-233 1947.41,-253 2036.59,-253 2036.59,-233 1947.41,-233"/>
<text text-anchor="middle" x="1992" y="-239" font-family="Helvetica,sans-Serif" font-size="10.00">RexxActivity.hpp</text>
</a>
</g>
</g>
<!-- Node2&#45;&gt;Node39 -->
<g id="edge36" class="edge"><title>Node2&#45;&gt;Node39</title>
<path fill="none" stroke="midnightblue" d="M1316.63,-298.952C1413.2,-295.736 1693.77,-284.398 1937.17,-253.962"/>
<polygon fill="midnightblue" stroke="midnightblue" points="1937.79,-257.412 1947.27,-252.686 1936.91,-250.468 1937.79,-257.412"/>
</g>
<!-- Node50 -->
<g id="node44" class="node"><title>Node50</title>
<g id="a_node44"><a xlink:href="_number_string_class_8hpp.html" target="_top" xlink:title=" ">
<polygon fill="white" stroke="black" points="1047.92,-233 1047.92,-253 1170.08,-253 1170.08,-233 1047.92,-233"/>
<text text-anchor="middle" x="1109" y="-239" font-family="Helvetica,sans-Serif" font-size="10.00">NumberStringClass.hpp</text>
</a>
</g>
</g>
<!-- Node2&#45;&gt;Node50 -->
<g id="edge48" class="edge"><title>Node2&#45;&gt;Node50</title>
<path fill="none" stroke="midnightblue" d="M1253.82,-290.878C1224.58,-281.413 1178.69,-266.56 1146.43,-256.115"/>
<polygon fill="midnightblue" stroke="midnightblue" points="1147.47,-252.775 1136.88,-253.025 1145.32,-259.435 1147.47,-252.775"/>
</g>
<!-- Node66 -->
<g id="node46" class="node"><title>Node66</title>
<g id="a_node46"><a xlink:href="_activity_manager_8hpp.html" target="_top" xlink:title=" ">
<polygon fill="white" stroke="black" points="2054.97,-233 2054.97,-253 2161.03,-253 2161.03,-233 2054.97,-233"/>
<text text-anchor="middle" x="2108" y="-239" font-family="Helvetica,sans-Serif" font-size="10.00">ActivityManager.hpp</text>
</a>
</g>
</g>
<!-- Node2&#45;&gt;Node66 -->
<g id="edge51" class="edge"><title>Node2&#45;&gt;Node66</title>
<path fill="none" stroke="midnightblue" d="M1316.7,-299.109C1423.54,-296.112 1757.06,-284.858 2044.57,-253.93"/>
<polygon fill="midnightblue" stroke="midnightblue" points="2045.21,-257.381 2054.77,-252.821 2044.45,-250.422 2045.21,-257.381"/>
</g>
<!-- Node4 -->
<g id="node4" class="node"><title>Node4</title>
<g id="a_node4"><a xlink:href="rexx_8h.html" target="_top" xlink:title=" ">
<polygon fill="white" stroke="red" points="952.384,-175 952.384,-195 995.616,-195 995.616,-175 952.384,-175"/>
<text text-anchor="middle" x="974" y="-181" font-family="Helvetica,sans-Serif" font-size="10.00">rexx.h</text>
</a>
</g>
</g>
<!-- Node3&#45;&gt;Node4 -->
<g id="edge3" class="edge"><title>Node3&#45;&gt;Node4</title>
<path fill="none" stroke="midnightblue" d="M902.201,-232.753C915.601,-224.027 935.907,-210.805 951.508,-200.646"/>
<polygon fill="midnightblue" stroke="midnightblue" points="953.593,-203.465 960.063,-195.075 949.773,-197.599 953.593,-203.465"/>
</g>
<!-- Node9 -->
<g id="node6" class="node"><title>Node9</title>
<g id="a_node6"><a xlink:href="oorexxerrors_8h.html" target="_top" xlink:title=" ">
<polygon fill="white" stroke="black" points="853.766,-175 853.766,-195 934.234,-195 934.234,-175 853.766,-175"/>
<text text-anchor="middle" x="894" y="-181" font-family="Helvetica,sans-Serif" font-size="10.00">oorexxerrors.h</text>
</a>
</g>
</g>
<!-- Node3&#45;&gt;Node9 -->
<g id="edge5" class="edge"><title>Node3&#45;&gt;Node9</title>
<path fill="none" stroke="midnightblue" d="M888.991,-232.753C889.795,-225.25 890.955,-214.424 891.956,-205.078"/>
<polygon fill="midnightblue" stroke="midnightblue" points="895.442,-205.391 893.028,-195.075 888.482,-204.645 895.442,-205.391"/>
</g>
<!-- Node5 -->
<g id="node5" class="node"><title>Node5</title>
<g id="a_node5"><a xlink:title=" ">
<polygon fill="white" stroke="#bfbfbf" points="944.761,-117 944.761,-137 1025.24,-137 1025.24,-117 944.761,-117"/>
<text text-anchor="middle" x="985" y="-123" font-family="Helvetica,sans-Serif" font-size="10.00">rexxapitypes.h</text>
</a>
</g>
</g>
<!-- Node4&#45;&gt;Node5 -->
<g id="edge4" class="edge"><title>Node4&#45;&gt;Node5</title>
<path fill="none" stroke="midnightblue" d="M975.816,-174.753C977.29,-167.25 979.417,-156.424 981.253,-147.078"/>
<polygon fill="midnightblue" stroke="midnightblue" points="984.724,-147.562 983.217,-137.075 977.855,-146.213 984.724,-147.562"/>
</g>
<!-- Node16 -->
<g id="node13" class="node"><title>Node16</title>
<g id="a_node13"><a xlink:title=" ">
<polygon fill="white" stroke="#bfbfbf" points="153.87,-175 153.87,-195 262.13,-195 262.13,-175 153.87,-175"/>
<text text-anchor="middle" x="208" y="-181" font-family="Helvetica,sans-Serif" font-size="10.00">PlatformDefinitions.h</text>
</a>
</g>
</g>
<!-- Node15&#45;&gt;Node16 -->
<g id="edge12" class="edge"><title>Node15&#45;&gt;Node16</title>
<path fill="none" stroke="midnightblue" d="M254.753,-232.753C246.516,-224.516 234.274,-212.274 224.382,-202.382"/>
<polygon fill="midnightblue" stroke="midnightblue" points="226.621,-199.671 217.075,-195.075 221.671,-204.621 226.621,-199.671"/>
</g>
<!-- Node17 -->
<g id="node14" class="node"><title>Node17</title>
<g id="a_node14"><a xlink:href="_rexx_error_codes_8h.html" target="_top" xlink:title=" ">
<polygon fill="white" stroke="black" points="37.8745,-175 37.8745,-195 136.125,-195 136.125,-175 37.8745,-175"/>
<text text-anchor="middle" x="87" y="-181" font-family="Helvetica,sans-Serif" font-size="10.00">RexxErrorCodes.h</text>
</a>
</g>
</g>
<!-- Node15&#45;&gt;Node17 -->
<g id="edge13" class="edge"><title>Node15&#45;&gt;Node17</title>
<path fill="none" stroke="midnightblue" d="M235.168,-232.878C205.251,-223.413 158.305,-208.56 125.291,-198.115"/>
<polygon fill="midnightblue" stroke="midnightblue" points="126.116,-194.705 115.526,-195.025 124.005,-201.379 126.116,-194.705"/>
</g>
<!-- Node22 -->
<g id="node19" class="node"><title>Node22</title>
<g id="a_node19"><a xlink:href="_numerics_8hpp.html" target="_top" xlink:title=" ">
<polygon fill="white" stroke="black" points="1052.16,-175 1052.16,-195 1129.84,-195 1129.84,-175 1052.16,-175"/>
<text text-anchor="middle" x="1091" y="-181" font-family="Helvetica,sans-Serif" font-size="10.00">Numerics.hpp</text>
</a>
</g>
</g>
<!-- Node21&#45;&gt;Node22 -->
<g id="edge18" class="edge"><title>Node21&#45;&gt;Node22</title>
<path fill="none" stroke="midnightblue" d="M1002.5,-232.753C1019.48,-223.783 1045.46,-210.06 1064.88,-199.799"/>
<polygon fill="midnightblue" stroke="midnightblue" points="1066.61,-202.841 1073.82,-195.075 1063.35,-196.652 1066.61,-202.841"/>
</g>
<!-- Node23 -->
<g id="node20" class="node"><title>Node23</title>
<g id="a_node20"><a xlink:title=" ">
<polygon fill="white" stroke="#bfbfbf" points="875.209,-117 875.209,-137 926.791,-137 926.791,-117 875.209,-117"/>
<text text-anchor="middle" x="901" y="-123" font-family="Helvetica,sans-Serif" font-size="10.00">stddef.h</text>
</a>
</g>
</g>
<!-- Node21&#45;&gt;Node23 -->
<g id="edge19" class="edge"><title>Node21&#45;&gt;Node23</title>
<path fill="none" stroke="midnightblue" d="M991.888,-232.931C1001.42,-219.19 1016.14,-192.717 1004,-174 996.157,-161.907 963.281,-148.513 936.752,-139.312"/>
<polygon fill="midnightblue" stroke="midnightblue" points="937.555,-135.889 926.96,-136.002 935.313,-142.52 937.555,-135.889"/>
</g>
<!-- Node25 -->
<g id="node22" class="node"><title>Node25</title>
<g id="a_node22"><a xlink:href="_rexx_collection_8hpp.html" target="_top" xlink:title=" ">
<polygon fill="white" stroke="black" points="1674.92,-59 1674.92,-79 1777.08,-79 1777.08,-59 1674.92,-59"/>
<text text-anchor="middle" x="1726" y="-65" font-family="Helvetica,sans-Serif" font-size="10.00">RexxCollection.hpp</text>
</a>
</g>
</g>
<!-- Node24&#45;&gt;Node25 -->
<g id="edge21" class="edge"><title>Node24&#45;&gt;Node25</title>
<path fill="none" stroke="midnightblue" d="M857.227,-117.247C860.189,-116.779 863.135,-116.356 866,-116 1163.84,-79.0199 1523.34,-71.7506 1664.69,-70.3355"/>
<polygon fill="midnightblue" stroke="midnightblue" points="1664.92,-73.8335 1674.89,-70.2398 1664.86,-66.8338 1664.92,-73.8335"/>
</g>
<!-- Node26 -->
<g id="node23" class="node"><title>Node26</title>
<g id="a_node23"><a xlink:href="_rexx_hash_table_8hpp.html" target="_top" xlink:title=" ">
<polygon fill="white" stroke="black" points="1673.25,-1 1673.25,-21 1778.75,-21 1778.75,-1 1673.25,-1"/>
<text text-anchor="middle" x="1726" y="-7" font-family="Helvetica,sans-Serif" font-size="10.00">RexxHashTable.hpp</text>
</a>
</g>
</g>
<!-- Node25&#45;&gt;Node26 -->
<g id="edge22" class="edge"><title>Node25&#45;&gt;Node26</title>
<path fill="none" stroke="midnightblue" d="M1726,-58.7527C1726,-51.2504 1726,-40.4238 1726,-31.0781"/>
<polygon fill="midnightblue" stroke="midnightblue" points="1729.5,-31.0752 1726,-21.0752 1722.5,-31.0752 1729.5,-31.0752"/>
</g>
<!-- Node29 -->
<g id="node26" class="node"><title>Node29</title>
<g id="a_node26"><a xlink:title=" ">
<polygon fill="white" stroke="#bfbfbf" points="430.084,-175 430.084,-195 533.916,-195 533.916,-175 430.084,-175"/>
<text text-anchor="middle" x="482" y="-181" font-family="Helvetica,sans-Serif" font-size="10.00">SysSemaphore.hpp</text>
</a>
</g>
</g>
<!-- Node28&#45;&gt;Node29 -->
<g id="edge25" class="edge"><title>Node28&#45;&gt;Node29</title>
<path fill="none" stroke="midnightblue" d="M589.15,-232.878C568.23,-223.725 535.796,-209.536 512.09,-199.164"/>
<polygon fill="midnightblue" stroke="midnightblue" points="513.406,-195.92 502.841,-195.118 510.6,-202.333 513.406,-195.92"/>
</g>
<!-- Node30 -->
<g id="node27" class="node"><title>Node30</title>
<g id="a_node27"><a xlink:href="_identity_table_class_8hpp.html" target="_top" xlink:title=" ">
<polygon fill="white" stroke="black" points="551.692,-175 551.692,-195 668.308,-195 668.308,-175 551.692,-175"/>
<text text-anchor="middle" x="610" y="-181" font-family="Helvetica,sans-Serif" font-size="10.00">IdentityTableClass.hpp</text>
</a>
</g>
</g>
<!-- Node28&#45;&gt;Node30 -->
<g id="edge26" class="edge"><title>Node28&#45;&gt;Node30</title>
<path fill="none" stroke="midnightblue" d="M610,-232.753C610,-225.25 610,-214.424 610,-205.078"/>
<polygon fill="midnightblue" stroke="midnightblue" points="613.5,-205.075 610,-195.075 606.5,-205.075 613.5,-205.075"/>
</g>
<!-- Node31 -->
<g id="node28" class="node"><title>Node31</title>
<g id="a_node28"><a xlink:href="_memory_stats_8hpp.html" target="_top" xlink:title=" ">
<polygon fill="white" stroke="black" points="317.818,-175 317.818,-195 412.182,-195 412.182,-175 317.818,-175"/>
<text text-anchor="middle" x="365" y="-181" font-family="Helvetica,sans-Serif" font-size="10.00">MemoryStats.hpp</text>
</a>
</g>
</g>
<!-- Node28&#45;&gt;Node31 -->
<g id="edge28" class="edge"><title>Node28&#45;&gt;Node31</title>
<path fill="none" stroke="midnightblue" d="M570.364,-232.94C527.933,-223.242 460.533,-207.836 414.61,-197.339"/>
<polygon fill="midnightblue" stroke="midnightblue" points="415.107,-193.863 404.579,-195.047 413.547,-200.687 415.107,-193.863"/>
</g>
<!-- Node32 -->
<g id="node29" class="node"><title>Node32</title>
<g id="a_node29"><a xlink:href="_memory_segment_8hpp.html" target="_top" xlink:title=" ">
<polygon fill="white" stroke="red" points="686.2,-175 686.2,-195 797.8,-195 797.8,-175 686.2,-175"/>
<text text-anchor="middle" x="742" y="-181" font-family="Helvetica,sans-Serif" font-size="10.00">MemorySegment.hpp</text>
</a>
</g>
</g>
<!-- Node28&#45;&gt;Node32 -->
<g id="edge30" class="edge"><title>Node28&#45;&gt;Node32</title>
<path fill="none" stroke="midnightblue" d="M631.502,-232.878C653.172,-223.685 686.821,-209.409 711.295,-199.026"/>
<polygon fill="midnightblue" stroke="midnightblue" points="712.668,-202.246 720.507,-195.118 709.935,-195.802 712.668,-202.246"/>
</g>
<!-- Node30&#45;&gt;Node24 -->
<g id="edge27" class="edge"><title>Node30&#45;&gt;Node24</title>
<path fill="none" stroke="midnightblue" d="M643.393,-174.878C678.491,-165.29 733.824,-150.175 772.127,-139.712"/>
<polygon fill="midnightblue" stroke="midnightblue" points="773.237,-143.037 781.961,-137.025 771.392,-136.284 773.237,-143.037"/>
</g>
<!-- Node31&#45;&gt;Node19 -->
<g id="edge29" class="edge"><title>Node31&#45;&gt;Node19</title>
<path fill="none" stroke="midnightblue" d="M358.89,-174.753C353.664,-166.843 345.996,-155.237 339.608,-145.568"/>
<polygon fill="midnightblue" stroke="midnightblue" points="342.429,-143.489 333.996,-137.075 336.589,-147.348 342.429,-143.489"/>
</g>
<!-- Node32&#45;&gt;Node23 -->
<g id="edge31" class="edge"><title>Node32&#45;&gt;Node23</title>
<path fill="none" stroke="midnightblue" d="M767.9,-174.878C794.543,-165.494 836.22,-150.815 865.833,-140.386"/>
<polygon fill="midnightblue" stroke="midnightblue" points="867.105,-143.649 875.375,-137.025 864.78,-137.046 867.105,-143.649"/>
</g>
<!-- Node36 -->
<g id="node31" class="node"><title>Node36</title>
<g id="a_node31"><a xlink:href="_primitive_behaviour_names_8h.html" target="_top" xlink:title=" ">
<polygon fill="white" stroke="black" points="1285.31,-175 1285.31,-195 1424.69,-195 1424.69,-175 1285.31,-175"/>
<text text-anchor="middle" x="1355" y="-181" font-family="Helvetica,sans-Serif" font-size="10.00">PrimitiveBehaviourNames.h</text>
</a>
</g>
</g>
<!-- Node35&#45;&gt;Node36 -->
<g id="edge33" class="edge"><title>Node35&#45;&gt;Node36</title>
<path fill="none" stroke="midnightblue" d="M1430.97,-232.753C1416.66,-223.946 1394.91,-210.558 1378.34,-200.362"/>
<polygon fill="midnightblue" stroke="midnightblue" points="1380.1,-197.335 1369.75,-195.075 1376.43,-203.297 1380.1,-197.335"/>
</g>
<!-- Node40 -->
<g id="node35" class="node"><title>Node40</title>
<g id="a_node35"><a xlink:href="_list_class_8hpp.html" target="_top" xlink:title=" ">
<polygon fill="white" stroke="red" points="2191.99,-175 2191.99,-195 2268.01,-195 2268.01,-175 2191.99,-175"/>
<text text-anchor="middle" x="2230" y="-181" font-family="Helvetica,sans-Serif" font-size="10.00">ListClass.hpp</text>
</a>
</g>
</g>
<!-- Node39&#45;&gt;Node40 -->
<g id="edge37" class="edge"><title>Node39&#45;&gt;Node40</title>
<path fill="none" stroke="midnightblue" d="M2030.5,-232.94C2071.84,-223.213 2137.59,-207.745 2182.2,-197.246"/>
<polygon fill="midnightblue" stroke="midnightblue" points="2183.01,-200.651 2191.95,-194.954 2181.41,-193.837 2183.01,-200.651"/>
</g>
<!-- Node42 -->
<g id="node36" class="node"><title>Node42</title>
<g id="a_node36"><a xlink:href="_rexx_internal_stack_8hpp.html" target="_top" xlink:title=" ">
<polygon fill="white" stroke="black" points="2285.69,-175 2285.69,-195 2402.31,-195 2402.31,-175 2285.69,-175"/>
<text text-anchor="middle" x="2344" y="-181" font-family="Helvetica,sans-Serif" font-size="10.00">RexxInternalStack.hpp</text>
</a>
</g>
</g>
<!-- Node39&#45;&gt;Node42 -->
<g id="edge38" class="edge"><title>Node39&#45;&gt;Node42</title>
<path fill="none" stroke="midnightblue" d="M2036.77,-233.602C2039.89,-233.05 2042.99,-232.511 2046,-232 2088.88,-224.721 2201.67,-207.508 2275.53,-196.326"/>
<polygon fill="midnightblue" stroke="midnightblue" points="2276.32,-199.746 2285.68,-194.789 2275.27,-192.825 2276.32,-199.746"/>
</g>
<!-- Node43 -->
<g id="node37" class="node"><title>Node43</title>
<g id="a_node37"><a xlink:href="_rexx_activation_stack_8hpp.html" target="_top" xlink:title=" ">
<polygon fill="white" stroke="black" points="2420.69,-175 2420.69,-195 2547.31,-195 2547.31,-175 2420.69,-175"/>
<text text-anchor="middle" x="2484" y="-181" font-family="Helvetica,sans-Serif" font-size="10.00">RexxActivationStack.hpp</text>
</a>
</g>
</g>
<!-- Node39&#45;&gt;Node43 -->
<g id="edge39" class="edge"><title>Node39&#45;&gt;Node43</title>
<path fill="none" stroke="midnightblue" d="M2036.74,-233.413C2039.87,-232.905 2042.98,-232.428 2046,-232 2204.09,-209.607 2247.35,-214.834 2409.94,-196.078"/>
<polygon fill="midnightblue" stroke="midnightblue" points="2410.79,-199.503 2420.32,-194.868 2409.98,-192.551 2410.79,-199.503"/>
</g>
<!-- Node44 -->
<g id="node38" class="node"><title>Node44</title>
<g id="a_node38"><a xlink:href="_expression_stack_8hpp.html" target="_top" xlink:title=" ">
<polygon fill="white" stroke="red" points="1698.03,-175 1698.03,-195 1807.97,-195 1807.97,-175 1698.03,-175"/>
<text text-anchor="middle" x="1753" y="-181" font-family="Helvetica,sans-Serif" font-size="10.00">ExpressionStack.hpp</text>
</a>
</g>
</g>
<!-- Node39&#45;&gt;Node44 -->
<g id="edge40" class="edge"><title>Node39&#45;&gt;Node44</title>
<path fill="none" stroke="midnightblue" d="M1953.33,-232.94C1911.94,-223.242 1846.19,-207.836 1801.39,-197.339"/>
<polygon fill="midnightblue" stroke="midnightblue" points="1802.14,-193.92 1791.61,-195.047 1800.55,-200.736 1802.14,-193.92"/>
</g>
<!-- Node46 -->
<g id="node39" class="node"><title>Node46</title>
<g id="a_node39"><a xlink:href="_rexx_local_variables_8hpp.html" target="_top" xlink:title=" ">
<polygon fill="white" stroke="red" points="1826.45,-175 1826.45,-195 1949.55,-195 1949.55,-175 1826.45,-175"/>
<text text-anchor="middle" x="1888" y="-181" font-family="Helvetica,sans-Serif" font-size="10.00">RexxLocalVariables.hpp</text>
</a>
</g>
</g>
<!-- Node39&#45;&gt;Node46 -->
<g id="edge41" class="edge"><title>Node39&#45;&gt;Node46</title>
<path fill="none" stroke="midnightblue" d="M1974.83,-232.753C1958.24,-223.823 1932.91,-210.185 1913.89,-199.939"/>
<polygon fill="midnightblue" stroke="midnightblue" points="1915.32,-196.735 1904.85,-195.075 1912,-202.898 1915.32,-196.735"/>
</g>
<!-- Node61 -->
<g id="node40" class="node"><title>Node61</title>
<g id="a_node40"><a xlink:href="_source_location_8hpp.html" target="_top" xlink:title=" ">
<polygon fill="white" stroke="black" points="1967.52,-175 1967.52,-195 2072.48,-195 2072.48,-175 1967.52,-175"/>
<text text-anchor="middle" x="2020" y="-181" font-family="Helvetica,sans-Serif" font-size="10.00">SourceLocation.hpp</text>
</a>
</g>
</g>
<!-- Node39&#45;&gt;Node61 -->
<g id="edge42" class="edge"><title>Node39&#45;&gt;Node61</title>
<path fill="none" stroke="midnightblue" d="M1996.62,-232.753C2000.5,-225.006 2006.14,-213.714 2010.92,-204.169"/>
<polygon fill="midnightblue" stroke="midnightblue" points="2014.12,-205.585 2015.46,-195.075 2007.86,-202.454 2014.12,-205.585"/>
</g>
<!-- Node62 -->
<g id="node41" class="node"><title>Node62</title>
<g id="a_node41"><a xlink:href="_exit_handler_8hpp.html" target="_top" xlink:title=" ">
<polygon fill="white" stroke="red" points="1442.7,-175 1442.7,-195 1529.3,-195 1529.3,-175 1442.7,-175"/>
<text text-anchor="middle" x="1486" y="-181" font-family="Helvetica,sans-Serif" font-size="10.00">ExitHandler.hpp</text>
</a>
</g>
</g>
<!-- Node39&#45;&gt;Node62 -->
<g id="edge43" class="edge"><title>Node39&#45;&gt;Node62</title>
<path fill="none" stroke="midnightblue" d="M1947.26,-233.384C1944.13,-232.883 1941.02,-232.415 1938,-232 1764.79,-208.201 1717.07,-220.085 1539.28,-195.9"/>
<polygon fill="midnightblue" stroke="midnightblue" points="1539.71,-192.427 1529.33,-194.528 1538.76,-199.362 1539.71,-192.427"/>
</g>
<!-- Node64 -->
<g id="node42" class="node"><title>Node64</title>
<g id="a_node42"><a xlink:href="_activation_api_contexts_8hpp.html" target="_top" xlink:title=" ">
<polygon fill="white" stroke="black" points="1547.63,-175 1547.63,-195 1680.37,-195 1680.37,-175 1547.63,-175"/>
<text text-anchor="middle" x="1614" y="-181" font-family="Helvetica,sans-Serif" font-size="10.00">ActivationApiContexts.hpp</text>
</a>
</g>
</g>
<!-- Node39&#45;&gt;Node64 -->
<g id="edge45" class="edge"><title>Node39&#45;&gt;Node64</title>
<path fill="none" stroke="midnightblue" d="M1947.24,-233.56C1944.11,-233.018 1941.01,-232.492 1938,-232 1891.69,-224.428 1770.25,-207.476 1689.91,-196.401"/>
<polygon fill="midnightblue" stroke="midnightblue" points="1690.22,-192.911 1679.84,-195.013 1689.26,-199.845 1690.22,-192.911"/>
</g>
<!-- Node65 -->
<g id="node43" class="node"><title>Node65</title>
<g id="a_node43"><a xlink:title=" ">
<polygon fill="white" stroke="#bfbfbf" points="2090.47,-175 2090.47,-195 2173.53,-195 2173.53,-175 2090.47,-175"/>
<text text-anchor="middle" x="2132" y="-181" font-family="Helvetica,sans-Serif" font-size="10.00">SysActivity.hpp</text>
</a>
</g>
</g>
<!-- Node39&#45;&gt;Node65 -->
<g id="edge47" class="edge"><title>Node39&#45;&gt;Node65</title>
<path fill="none" stroke="midnightblue" d="M2014.81,-232.878C2037.89,-223.644 2073.79,-209.283 2099.78,-198.889"/>
<polygon fill="midnightblue" stroke="midnightblue" points="2101.22,-202.082 2109.2,-195.118 2098.62,-195.582 2101.22,-202.082"/>
</g>
<!-- Node62&#45;&gt;Node2 -->
<g id="edge44" class="edge"><title>Node62&#45;&gt;Node2</title>
<path fill="none" stroke="midnightblue" d="M1529.36,-194.344C1532.62,-194.921 1535.86,-195.48 1539,-196 1594.81,-205.246 1753.94,-189.265 1791,-232 1797.41,-239.387 1797.6,-246.782 1791,-254 1759.95,-287.978 1444.87,-297.095 1326.56,-299.331"/>
<polygon fill="midnightblue" stroke="midnightblue" points="1326.34,-295.834 1316.4,-299.515 1326.46,-302.833 1326.34,-295.834"/>
</g>
<!-- Node64&#45;&gt;Node2 -->
<g id="edge46" class="edge"><title>Node64&#45;&gt;Node2</title>
<path fill="none" stroke="midnightblue" d="M1666.76,-195.059C1721.11,-204.928 1799.14,-220.799 1808,-232 1814.06,-239.67 1814.61,-246.791 1808,-254 1775.77,-289.174 1448.11,-297.561 1326.83,-299.466"/>
<polygon fill="midnightblue" stroke="midnightblue" points="1326.71,-295.968 1316.76,-299.617 1326.81,-302.967 1326.71,-295.968"/>
</g>
<!-- Node50&#45;&gt;Node22 -->
<g id="edge49" class="edge"><title>Node50&#45;&gt;Node22</title>
<path fill="none" stroke="midnightblue" d="M1106.03,-232.753C1103.59,-225.169 1100.06,-214.188 1097.03,-204.774"/>
<polygon fill="midnightblue" stroke="midnightblue" points="1100.31,-203.524 1093.92,-195.075 1093.65,-205.667 1100.31,-203.524"/>
</g>
<!-- Node51 -->
<g id="node45" class="node"><title>Node51</title>
<g id="a_node45"><a xlink:href="_number_string_math_8hpp.html" target="_top" xlink:title=" ">
<polygon fill="white" stroke="black" points="1148.31,-175 1148.31,-195 1267.69,-195 1267.69,-175 1148.31,-175"/>
<text text-anchor="middle" x="1208" y="-181" font-family="Helvetica,sans-Serif" font-size="10.00">NumberStringMath.hpp</text>
</a>
</g>
</g>
<!-- Node50&#45;&gt;Node51 -->
<g id="edge50" class="edge"><title>Node50&#45;&gt;Node51</title>
<path fill="none" stroke="midnightblue" d="M1125.35,-232.753C1141.06,-223.864 1165.02,-210.309 1183.11,-200.079"/>
<polygon fill="midnightblue" stroke="midnightblue" points="1184.98,-203.045 1191.96,-195.075 1181.53,-196.952 1184.98,-203.045"/>
</g>
<!-- Node67 -->
<g id="node47" class="node"><title>Node67</title>
<g id="a_node47"><a xlink:title=" ">
<polygon fill="white" stroke="#bfbfbf" points="2565.1,-175 2565.1,-195 2608.9,-195 2608.9,-175 2565.1,-175"/>
<text text-anchor="middle" x="2587" y="-181" font-family="Helvetica,sans-Serif" font-size="10.00">deque</text>
</a>
</g>
</g>
<!-- Node66&#45;&gt;Node67 -->
<g id="edge52" class="edge"><title>Node66&#45;&gt;Node67</title>
<path fill="none" stroke="midnightblue" d="M2161.31,-240.138C2243.93,-236.465 2407.83,-226.036 2554.7,-195.887"/>
<polygon fill="midnightblue" stroke="midnightblue" points="2555.73,-199.249 2564.8,-193.777 2554.3,-192.397 2555.73,-199.249"/>
</g>
<!-- Node68&#45;&gt;Node2 -->
<g id="edge54" class="edge"><title>Node68&#45;&gt;Node2</title>
<path fill="none" stroke="midnightblue" d="M1817.67,-352.757C1701.31,-341.731 1433.27,-316.333 1326.79,-306.244"/>
<polygon fill="midnightblue" stroke="midnightblue" points="1326.98,-302.747 1316.7,-305.288 1326.32,-309.716 1326.98,-302.747"/>
</g>
<!-- Node69 -->
<g id="node49" class="node"><title>Node69</title>
<g id="a_node49"><a xlink:href="_protected_object_8hpp.html" target="_top" xlink:title=" ">
<polygon fill="white" stroke="black" points="1938.42,-291 1938.42,-311 2045.58,-311 2045.58,-291 1938.42,-291"/>
<text text-anchor="middle" x="1992" y="-297" font-family="Helvetica,sans-Serif" font-size="10.00">ProtectedObject.hpp</text>
</a>
</g>
</g>
<!-- Node68&#45;&gt;Node69 -->
<g id="edge55" class="edge"><title>Node68&#45;&gt;Node69</title>
<path fill="none" stroke="midnightblue" d="M1892.38,-348.878C1911.66,-339.807 1941.45,-325.788 1963.44,-315.442"/>
<polygon fill="midnightblue" stroke="midnightblue" points="1965.07,-318.543 1972.62,-311.118 1962.09,-312.209 1965.07,-318.543"/>
</g>
<!-- Node69&#45;&gt;Node39 -->
<g id="edge56" class="edge"><title>Node69&#45;&gt;Node39</title>
<path fill="none" stroke="midnightblue" d="M1992,-290.753C1992,-283.25 1992,-272.424 1992,-263.078"/>
<polygon fill="midnightblue" stroke="midnightblue" points="1995.5,-263.075 1992,-253.075 1988.5,-263.075 1995.5,-263.075"/>
</g>
<!-- Node69&#45;&gt;Node66 -->
<g id="edge57" class="edge"><title>Node69&#45;&gt;Node66</title>
<path fill="none" stroke="midnightblue" d="M2010.9,-290.878C2029.6,-281.847 2058.47,-267.913 2079.87,-257.581"/>
<polygon fill="midnightblue" stroke="midnightblue" points="2081.63,-260.618 2089.11,-253.118 2078.59,-254.314 2081.63,-260.618"/>
</g>
<!-- Node70&#45;&gt;Node25 -->
<g id="edge59" class="edge"><title>Node70&#45;&gt;Node25</title>
<path fill="none" stroke="midnightblue" d="M2341.31,-352.073C2437.27,-339.358 2637,-305.507 2637,-244 2637,-244 2637,-244 2637,-184 2637,-98.1746 1992.16,-76.0709 1787.53,-71.2172"/>
<polygon fill="midnightblue" stroke="midnightblue" points="1787.34,-67.7119 1777.26,-70.9794 1787.18,-74.7101 1787.34,-67.7119"/>
</g>
</g>
</svg>
        <g id="navigator" transform="translate(0 0)" fill="#404254">
                <rect fill="#f2f5e9" fill-opacity="0.5" stroke="#606060" stroke-width=".5" x="0" y="0" width="60" height="60"/>
                <use id="zoomplus" xlink:href="#zoomPlus" x="17" y="9" onmousedown="handleZoom(evt,'in')"/>
                <use id="zoomminus" xlink:href="#zoomMin" x="42" y="9" onmousedown="handleZoom(evt,'out')"/>
                <use id="reset" xlink:href="#resetDef" x="30" y="36" onmousedown="handleReset()"/>
                <g id="arrowUp" xlink:href="#dirArrow" transform="translate(30 24)" onmousedown="handlePan(0,-1)">
                  <use xlink:href="#rim" fill="#404040">
                        <set attributeName="fill" to="#808080" begin="arrowUp.mouseover" end="arrowUp.mouseout"/>
                  </use>
                  <path fill="none" stroke="white" stroke-width="1.5" d="M0,-3.0v7 M-2.5,-0.5L0,-3.0L2.5,-0.5"/>
                </g>
                <g id="arrowRight" xlink:href="#dirArrow" transform="rotate(90) translate(36 -43)" onmousedown="handlePan(1,0)">
                  <use xlink:href="#rim" fill="#404040">
                        <set attributeName="fill" to="#808080" begin="arrowRight.mouseover" end="arrowRight.mouseout"/>
                  </use>
                  <path fill="none" stroke="white" stroke-width="1.5" d="M0,-3.0v7 M-2.5,-0.5L0,-3.0L2.5,-0.5"/>
                </g>
                <g id="arrowDown" xlink:href="#dirArrow" transform="rotate(180) translate(-30 -48)" onmousedown="handlePan(0,1)">
                  <use xlink:href="#rim" fill="#404040">
                        <set attributeName="fill" to="#808080" begin="arrowDown.mouseover" end="arrowDown.mouseout"/>
                  </use>
                  <path fill="none" stroke="white" stroke-width="1.5" d="M0,-3.0v7 M-2.5,-0.5L0,-3.0L2.5,-0.5"/>
                </g>
                <g id="arrowLeft" xlink:href="#dirArrow" transform="rotate(270) translate(-36 17)" onmousedown="handlePan(-1,0)">
                  <use xlink:href="#rim" fill="#404040">
                        <set attributeName="fill" to="#808080" begin="arrowLeft.mouseover" end="arrowLeft.mouseout"/>
                  </use>
                  <path fill="none" stroke="white" stroke-width="1.5" d="M0,-3.0v7 M-2.5,-0.5L0,-3.0L2.5,-0.5"/>
                </g>
        </g>
        <svg viewBox="0 0 15 15" width="100%" height="30px" preserveAspectRatio="xMaxYMin meet">
         <g id="arrow_out" transform="scale(0.3 0.3)">
          <a xlink:href="_security_manager_8cpp__incl_org.svg" target="_base">
           <rect id="button" ry="5" rx="5" y="6" x="6" height="38" width="38"
                fill="#f2f5e9" fill-opacity="0.5" stroke="#606060" stroke-width="1.0"/>
           <path id="arrow"
             d="M 11.500037,31.436501 C 11.940474,20.09759 22.043105,11.32322 32.158766,21.979434 L 37.068811,17.246167 C 37.068811,17.246167 37.088388,32 37.088388,32 L 22.160133,31.978069 C 22.160133,31.978069 26.997745,27.140456 26.997745,27.140456 C 18.528582,18.264221 13.291696,25.230495 11.500037,31.436501 z"
             style="fill:#404040;"/>
          </a>
         </g>
        </svg>
</svg>
