<?xml version="1.0" encoding="UTF-8" standalone="no"?>
<!DOCTYPE svg PUBLIC "-//W3C//DTD SVG 1.1//EN"
 "http://www.w3.org/Graphics/SVG/1.1/DTD/svg11.dtd">
<!-- Generated by graphviz version 2.30.1 (20130222.1704)
 -->
<!-- Title: StemClass.hpp Pages: 1 -->
<!--zoomable 378 -->
<svg id="main" version="1.1" xmlns="http://www.w3.org/2000/svg" xmlns:xlink="http://www.w3.org/1999/xlink" xml:space="preserve" onload="init(evt)">
<style type="text/css"><![CDATA[
.edge:hover path { stroke: red; }
.edge:hover polygon { stroke: red; fill: red; }
]]></style>
<script type="text/javascript"><![CDATA[
var edges = document.getElementsByTagName('g');
if (edges && edges.length) {
  for (var i=0;i<edges.length;i++) {
    if (edges[i].id.substr(0,4)=='edge') {
      edges[i].setAttribute('class','edge');
    }
  }
}
]]></script>
        <defs>
                <circle id="rim" cx="0" cy="0" r="7"/>
                <circle id="rim2" cx="0" cy="0" r="3.5"/>
                <g id="zoomPlus">
                        <use xlink:href="#rim" fill="#404040">
                                <set attributeName="fill" to="#808080" begin="zoomplus.mouseover" end="zoomplus.mouseout"/>
                        </use>
                        <path d="M-4,0h8M0,-4v8" fill="none" stroke="white" stroke-width="1.5" pointer-events="none"/>
                </g>
                <g id="zoomMin">
                        <use xlink:href="#rim" fill="#404040">
                                <set attributeName="fill" to="#808080" begin="zoomminus.mouseover" end="zoomminus.mouseout"/>
                        </use>
                        <path d="M-4,0h8" fill="none" stroke="white" stroke-width="1.5" pointer-events="none"/>
                </g>
                <g id="dirArrow">
                        <path fill="none" stroke="white" stroke-width="1.5" d="M0,-3.0v7 M-2.5,-0.5L0,-3.0L2.5,-0.5"/>
                </g>
               <g id="resetDef">
                       <use xlink:href="#rim2" fill="#404040">
                               <set attributeName="fill" to="#808080" begin="reset.mouseover" end="reset.mouseout"/>
                       </use>
               </g>
        </defs>

<script type="text/javascript">
var viewWidth = 653;
var viewHeight = 378;
var sectionId = 'dynsection-0';
</script>
<script xlink:href="svgpan.js"/>
<svg id="graph" class="graph">
<g id="viewport">
<title>StemClass.hpp</title>
<polygon fill="white" stroke="white" points="-4,5 -4,-374 650,-374 650,5 -4,5"/>
<!-- Node1 -->
<g id="node1" class="node"><title>Node1</title>
<g id="a_node1"><a xlink:title=" ">
<polygon fill="#bfbfbf" stroke="black" points="393.096,-349 393.096,-369 476.904,-369 476.904,-349 393.096,-349"/>
<text text-anchor="middle" x="435" y="-355" font-family="Helvetica,sans-Serif" font-size="10.00">StemClass.hpp</text>
</a>
</g>
</g>
<!-- Node2 -->
<g id="node2" class="node"><title>Node2</title>
<g id="a_node2"><a xlink:href="_rexx_compound_element_8hpp.html" target="_top" xlink:title=" ">
<polygon fill="white" stroke="black" points="208.074,-291 208.074,-311 351.926,-311 351.926,-291 208.074,-291"/>
<text text-anchor="middle" x="280" y="-297" font-family="Helvetica,sans-Serif" font-size="10.00">RexxCompoundElement.hpp</text>
</a>
</g>
</g>
<!-- Node1&#45;&gt;Node2 -->
<g id="edge1" class="edge"><title>Node1&#45;&gt;Node2</title>
<path fill="none" stroke="midnightblue" d="M409.752,-348.878C383.892,-339.535 343.503,-324.943 314.659,-314.522"/>
<polygon fill="midnightblue" stroke="midnightblue" points="315.575,-311.132 304.981,-311.025 313.196,-317.715 315.575,-311.132"/>
</g>
<!-- Node18 -->
<g id="node18" class="node"><title>Node18</title>
<g id="a_node18"><a xlink:href="_rexx_compound_table_8hpp.html" target="_top" xlink:title=" ">
<polygon fill="white" stroke="black" points="369.463,-291 369.463,-311 500.537,-311 500.537,-291 369.463,-291"/>
<text text-anchor="middle" x="435" y="-297" font-family="Helvetica,sans-Serif" font-size="10.00">RexxCompoundTable.hpp</text>
</a>
</g>
</g>
<!-- Node1&#45;&gt;Node18 -->
<g id="edge19" class="edge"><title>Node1&#45;&gt;Node18</title>
<path fill="none" stroke="midnightblue" d="M435,-348.753C435,-341.25 435,-330.424 435,-321.078"/>
<polygon fill="midnightblue" stroke="midnightblue" points="438.5,-321.075 435,-311.075 431.5,-321.075 438.5,-321.075"/>
</g>
<!-- Node19 -->
<g id="node19" class="node"><title>Node19</title>
<g id="a_node19"><a xlink:href="_expression_stem_8hpp.html" target="_top" xlink:title=" ">
<polygon fill="white" stroke="black" points="518.865,-291 518.865,-311 627.135,-311 627.135,-291 518.865,-291"/>
<text text-anchor="middle" x="573" y="-297" font-family="Helvetica,sans-Serif" font-size="10.00">ExpressionStem.hpp</text>
</a>
</g>
</g>
<!-- Node1&#45;&gt;Node19 -->
<g id="edge20" class="edge"><title>Node1&#45;&gt;Node19</title>
<path fill="none" stroke="midnightblue" d="M457.479,-348.878C480.234,-339.644 515.624,-325.283 541.239,-314.889"/>
<polygon fill="midnightblue" stroke="midnightblue" points="542.58,-318.121 550.53,-311.118 539.948,-311.635 542.58,-318.121"/>
</g>
<!-- Node3 -->
<g id="node3" class="node"><title>Node3</title>
<g id="a_node3"><a xlink:href="_rexx_variable_8hpp.html" target="_top" xlink:title=" ">
<polygon fill="white" stroke="black" points="195.901,-233 195.901,-253 290.099,-253 290.099,-233 195.901,-233"/>
<text text-anchor="middle" x="243" y="-239" font-family="Helvetica,sans-Serif" font-size="10.00">RexxVariable.hpp</text>
</a>
</g>
</g>
<!-- Node2&#45;&gt;Node3 -->
<g id="edge2" class="edge"><title>Node2&#45;&gt;Node3</title>
<path fill="none" stroke="midnightblue" d="M273.89,-290.753C268.664,-282.843 260.996,-271.237 254.608,-261.568"/>
<polygon fill="midnightblue" stroke="midnightblue" points="257.429,-259.489 248.996,-253.075 251.589,-263.348 257.429,-259.489"/>
</g>
<!-- Node4 -->
<g id="node4" class="node"><title>Node4</title>
<g id="a_node4"><a xlink:href="_string_class_8hpp.html" target="_top" xlink:title=" ">
<polygon fill="white" stroke="black" points="236.705,-175 236.705,-195 323.295,-195 323.295,-175 236.705,-175"/>
<text text-anchor="middle" x="280" y="-181" font-family="Helvetica,sans-Serif" font-size="10.00">StringClass.hpp</text>
</a>
</g>
</g>
<!-- Node2&#45;&gt;Node4 -->
<g id="edge18" class="edge"><title>Node2&#45;&gt;Node4</title>
<path fill="none" stroke="midnightblue" d="M285.053,-290.825C289.728,-281.775 296.343,-267.391 299,-254 300.903,-244.409 300.903,-241.591 299,-232 297.111,-222.48 293.222,-212.458 289.451,-204.207"/>
<polygon fill="midnightblue" stroke="midnightblue" points="292.578,-202.634 285.053,-195.175 286.284,-205.698 292.578,-202.634"/>
</g>
<!-- Node3&#45;&gt;Node4 -->
<g id="edge3" class="edge"><title>Node3&#45;&gt;Node4</title>
<path fill="none" stroke="midnightblue" d="M249.11,-232.753C254.336,-224.843 262.004,-213.237 268.392,-203.568"/>
<polygon fill="midnightblue" stroke="midnightblue" points="271.411,-205.348 274.004,-195.075 265.571,-201.489 271.411,-205.348"/>
</g>
<!-- Node5 -->
<g id="node5" class="node"><title>Node5</title>
<g id="a_node5"><a xlink:href="_number_string_class_8hpp.html" target="_top" xlink:title=" ">
<polygon fill="white" stroke="black" points="93.9214,-59 93.9214,-79 216.079,-79 216.079,-59 93.9214,-59"/>
<text text-anchor="middle" x="155" y="-65" font-family="Helvetica,sans-Serif" font-size="10.00">NumberStringClass.hpp</text>
</a>
</g>
</g>
<!-- Node4&#45;&gt;Node5 -->
<g id="edge4" class="edge"><title>Node4&#45;&gt;Node5</title>
<path fill="none" stroke="midnightblue" d="M237.817,-174.96C215.93,-168.222 190.411,-156.828 174,-138 162.191,-124.451 157.676,-104.116 155.974,-89.212"/>
<polygon fill="midnightblue" stroke="midnightblue" points="159.449,-88.7584 155.147,-79.0764 152.472,-89.328 159.449,-88.7584"/>
</g>
<!-- Node8 -->
<g id="node8" class="node"><title>Node8</title>
<g id="a_node8"><a xlink:href="_integer_class_8hpp.html" target="_top" xlink:title=" ">
<polygon fill="white" stroke="black" points="183.2,-117 183.2,-137 274.8,-137 274.8,-117 183.2,-117"/>
<text text-anchor="middle" x="229" y="-123" font-family="Helvetica,sans-Serif" font-size="10.00">IntegerClass.hpp</text>
</a>
</g>
</g>
<!-- Node4&#45;&gt;Node8 -->
<g id="edge7" class="edge"><title>Node4&#45;&gt;Node8</title>
<path fill="none" stroke="midnightblue" d="M271.578,-174.753C264.152,-166.598 253.148,-154.516 244.188,-144.677"/>
<polygon fill="midnightblue" stroke="midnightblue" points="246.586,-142.112 237.265,-137.075 241.411,-146.825 246.586,-142.112"/>
</g>
<!-- Node9 -->
<g id="node9" class="node"><title>Node9</title>
<g id="a_node9"><a xlink:href="_string_util_8hpp.html" target="_top" xlink:title=" ">
<polygon fill="white" stroke="black" points="292.985,-117 292.985,-137 369.015,-137 369.015,-117 292.985,-117"/>
<text text-anchor="middle" x="331" y="-123" font-family="Helvetica,sans-Serif" font-size="10.00">StringUtil.hpp</text>
</a>
</g>
</g>
<!-- Node4&#45;&gt;Node9 -->
<g id="edge9" class="edge"><title>Node4&#45;&gt;Node9</title>
<path fill="none" stroke="midnightblue" d="M288.422,-174.753C295.848,-166.598 306.852,-154.516 315.812,-144.677"/>
<polygon fill="midnightblue" stroke="midnightblue" points="318.589,-146.825 322.735,-137.075 313.414,-142.112 318.589,-146.825"/>
</g>
<!-- Node10 -->
<g id="node10" class="node"><title>Node10</title>
<g id="a_node10"><a xlink:href="_utilities_8hpp.html" target="_top" xlink:title=" ">
<polygon fill="white" stroke="black" points="398.155,-117 398.155,-137 465.845,-137 465.845,-117 398.155,-117"/>
<text text-anchor="middle" x="432" y="-123" font-family="Helvetica,sans-Serif" font-size="10.00">Utilities.hpp</text>
</a>
</g>
</g>
<!-- Node4&#45;&gt;Node10 -->
<g id="edge10" class="edge"><title>Node4&#45;&gt;Node10</title>
<path fill="none" stroke="midnightblue" d="M304.76,-174.878C330.044,-165.563 369.491,-151.03 397.76,-140.615"/>
<polygon fill="midnightblue" stroke="midnightblue" points="399.077,-143.859 407.251,-137.118 396.657,-137.291 399.077,-143.859"/>
</g>
<!-- Node6 -->
<g id="node6" class="node"><title>Node6</title>
<g id="a_node6"><a xlink:href="_numerics_8hpp.html" target="_top" xlink:title=" ">
<polygon fill="white" stroke="black" points="-0.844727,-1 -0.844727,-21 76.8447,-21 76.8447,-1 -0.844727,-1"/>
<text text-anchor="middle" x="38" y="-7" font-family="Helvetica,sans-Serif" font-size="10.00">Numerics.hpp</text>
</a>
</g>
</g>
<!-- Node5&#45;&gt;Node6 -->
<g id="edge5" class="edge"><title>Node5&#45;&gt;Node6</title>
<path fill="none" stroke="midnightblue" d="M135.942,-58.878C116.989,-49.8068 87.699,-35.7876 66.0837,-25.4418"/>
<polygon fill="midnightblue" stroke="midnightblue" points="67.5814,-22.2784 57.0503,-21.1181 64.5593,-28.5925 67.5814,-22.2784"/>
</g>
<!-- Node7 -->
<g id="node7" class="node"><title>Node7</title>
<g id="a_node7"><a xlink:href="_number_string_math_8hpp.html" target="_top" xlink:title=" ">
<polygon fill="white" stroke="black" points="95.3081,-1 95.3081,-21 214.692,-21 214.692,-1 95.3081,-1"/>
<text text-anchor="middle" x="155" y="-7" font-family="Helvetica,sans-Serif" font-size="10.00">NumberStringMath.hpp</text>
</a>
</g>
</g>
<!-- Node5&#45;&gt;Node7 -->
<g id="edge6" class="edge"><title>Node5&#45;&gt;Node7</title>
<path fill="none" stroke="midnightblue" d="M155,-58.7527C155,-51.2504 155,-40.4238 155,-31.0781"/>
<polygon fill="midnightblue" stroke="midnightblue" points="158.5,-31.0752 155,-21.0752 151.5,-31.0752 158.5,-31.0752"/>
</g>
<!-- Node8&#45;&gt;Node5 -->
<g id="edge8" class="edge"><title>Node8&#45;&gt;Node5</title>
<path fill="none" stroke="midnightblue" d="M216.78,-116.753C205.466,-108.19 188.429,-95.2978 175.11,-85.2186"/>
<polygon fill="midnightblue" stroke="midnightblue" points="177.078,-82.3187 166.992,-79.0752 172.854,-87.9006 177.078,-82.3187"/>
</g>
<!-- Node11 -->
<g id="node11" class="node"><title>Node11</title>
<g id="a_node11"><a xlink:href="rexx_8h.html" target="_top" xlink:title=" ">
<polygon fill="white" stroke="black" points="347.384,-59 347.384,-79 390.616,-79 390.616,-59 347.384,-59"/>
<text text-anchor="middle" x="369" y="-65" font-family="Helvetica,sans-Serif" font-size="10.00">rexx.h</text>
</a>
</g>
</g>
<!-- Node10&#45;&gt;Node11 -->
<g id="edge11" class="edge"><title>Node10&#45;&gt;Node11</title>
<path fill="none" stroke="midnightblue" d="M421.597,-116.753C412.148,-108.353 398.011,-95.7874 386.772,-85.7976"/>
<polygon fill="midnightblue" stroke="midnightblue" points="389.009,-83.1029 379.21,-79.0752 384.358,-88.3348 389.009,-83.1029"/>
</g>
<!-- Node16 -->
<g id="node16" class="node"><title>Node16</title>
<g id="a_node16"><a xlink:title=" ">
<polygon fill="white" stroke="#bfbfbf" points="408.99,-59 408.99,-79 475.01,-79 475.01,-59 408.99,-59"/>
<text text-anchor="middle" x="442" y="-65" font-family="Helvetica,sans-Serif" font-size="10.00">sys/types.h</text>
</a>
</g>
</g>
<!-- Node10&#45;&gt;Node16 -->
<g id="edge16" class="edge"><title>Node10&#45;&gt;Node16</title>
<path fill="none" stroke="midnightblue" d="M433.651,-116.753C434.991,-109.25 436.924,-98.4238 438.593,-89.0781"/>
<polygon fill="midnightblue" stroke="midnightblue" points="442.067,-89.5348 440.379,-79.0752 435.176,-88.3042 442.067,-89.5348"/>
</g>
<!-- Node17 -->
<g id="node17" class="node"><title>Node17</title>
<g id="a_node17"><a xlink:title=" ">
<polygon fill="white" stroke="#bfbfbf" points="492.934,-59 492.934,-79 545.066,-79 545.066,-59 492.934,-59"/>
<text text-anchor="middle" x="519" y="-65" font-family="Helvetica,sans-Serif" font-size="10.00">stdarg.h</text>
</a>
</g>
</g>
<!-- Node10&#45;&gt;Node17 -->
<g id="edge17" class="edge"><title>Node10&#45;&gt;Node17</title>
<path fill="none" stroke="midnightblue" d="M446.366,-116.753C459.922,-108.027 480.464,-94.8051 496.247,-84.6458"/>
<polygon fill="midnightblue" stroke="midnightblue" points="498.387,-87.4307 504.901,-79.0752 494.598,-81.5447 498.387,-87.4307"/>
</g>
<!-- Node12 -->
<g id="node12" class="node"><title>Node12</title>
<g id="a_node12"><a xlink:title=" ">
<polygon fill="white" stroke="#bfbfbf" points="232.761,-1 232.761,-21 313.239,-21 313.239,-1 232.761,-1"/>
<text text-anchor="middle" x="273" y="-7" font-family="Helvetica,sans-Serif" font-size="10.00">rexxapitypes.h</text>
</a>
</g>
</g>
<!-- Node11&#45;&gt;Node12 -->
<g id="edge12" class="edge"><title>Node11&#45;&gt;Node12</title>
<path fill="none" stroke="midnightblue" d="M353.148,-58.7527C338.05,-49.9457 315.099,-36.5575 297.62,-26.3617"/>
<polygon fill="midnightblue" stroke="midnightblue" points="298.959,-23.0907 288.557,-21.0752 295.432,-29.1372 298.959,-23.0907"/>
</g>
<!-- Node13 -->
<g id="node13" class="node"><title>Node13</title>
<g id="a_node13"><a xlink:href="rexxapidefs_8h.html" target="_top" xlink:title=" ">
<polygon fill="white" stroke="black" points="331.261,-1 331.261,-21 406.739,-21 406.739,-1 331.261,-1"/>
<text text-anchor="middle" x="369" y="-7" font-family="Helvetica,sans-Serif" font-size="10.00">rexxapidefs.h</text>
</a>
</g>
</g>
<!-- Node11&#45;&gt;Node13 -->
<g id="edge13" class="edge"><title>Node11&#45;&gt;Node13</title>
<path fill="none" stroke="midnightblue" d="M369,-58.7527C369,-51.2504 369,-40.4238 369,-31.0781"/>
<polygon fill="midnightblue" stroke="midnightblue" points="372.5,-31.0752 369,-21.0752 365.5,-31.0752 372.5,-31.0752"/>
</g>
<!-- Node14 -->
<g id="node14" class="node"><title>Node14</title>
<g id="a_node14"><a xlink:title=" ">
<polygon fill="white" stroke="#bfbfbf" points="424.872,-1 424.872,-21 523.128,-21 523.128,-1 424.872,-1"/>
<text text-anchor="middle" x="474" y="-7" font-family="Helvetica,sans-Serif" font-size="10.00">rexxplatformdefs.h</text>
</a>
</g>
</g>
<!-- Node11&#45;&gt;Node14 -->
<g id="edge14" class="edge"><title>Node11&#45;&gt;Node14</title>
<path fill="none" stroke="midnightblue" d="M386.339,-58.7527C403.158,-49.7826 428.887,-36.0601 448.128,-25.7986"/>
<polygon fill="midnightblue" stroke="midnightblue" points="449.808,-28.8694 456.984,-21.0752 446.513,-22.6929 449.808,-28.8694"/>
</g>
<!-- Node15 -->
<g id="node15" class="node"><title>Node15</title>
<g id="a_node15"><a xlink:title=" ">
<polygon fill="white" stroke="#bfbfbf" points="541.15,-1 541.15,-21 638.85,-21 638.85,-1 541.15,-1"/>
<text text-anchor="middle" x="590" y="-7" font-family="Helvetica,sans-Serif" font-size="10.00">rexxplatformapis.h</text>
</a>
</g>
</g>
<!-- Node11&#45;&gt;Node15 -->
<g id="edge15" class="edge"><title>Node11&#45;&gt;Node15</title>
<path fill="none" stroke="midnightblue" d="M390.618,-60.7996C393.754,-59.8212 396.952,-58.8593 400,-58 446.628,-44.8545 500.331,-32.0668 538.721,-23.3249"/>
<polygon fill="midnightblue" stroke="midnightblue" points="539.65,-26.7033 548.63,-21.0809 538.103,-19.8761 539.65,-26.7033"/>
</g>
<!-- Node20 -->
<g id="node20" class="node"><title>Node20</title>
<g id="a_node20"><a xlink:href="_expression_base_variable_8hpp.html" target="_top" xlink:title=" ">
<polygon fill="white" stroke="black" points="501.162,-233 501.162,-253 644.838,-253 644.838,-233 501.162,-233"/>
<text text-anchor="middle" x="573" y="-239" font-family="Helvetica,sans-Serif" font-size="10.00">ExpressionBaseVariable.hpp</text>
</a>
</g>
</g>
<!-- Node19&#45;&gt;Node20 -->
<g id="edge21" class="edge"><title>Node19&#45;&gt;Node20</title>
<path fill="none" stroke="midnightblue" d="M573,-290.753C573,-283.25 573,-272.424 573,-263.078"/>
<polygon fill="midnightblue" stroke="midnightblue" points="576.5,-263.075 573,-253.075 569.5,-263.075 576.5,-263.075"/>
</g>
</g>
</svg>
        <g id="navigator" transform="translate(0 0)" fill="#404254">
                <rect fill="#f2f5e9" fill-opacity="0.5" stroke="#606060" stroke-width=".5" x="0" y="0" width="60" height="60"/>
                <use id="zoomplus" xlink:href="#zoomPlus" x="17" y="9" onmousedown="handleZoom(evt,'in')"/>
                <use id="zoomminus" xlink:href="#zoomMin" x="42" y="9" onmousedown="handleZoom(evt,'out')"/>
                <use id="reset" xlink:href="#resetDef" x="30" y="36" onmousedown="handleReset()"/>
                <g id="arrowUp" xlink:href="#dirArrow" transform="translate(30 24)" onmousedown="handlePan(0,-1)">
                  <use xlink:href="#rim" fill="#404040">
                        <set attributeName="fill" to="#808080" begin="arrowUp.mouseover" end="arrowUp.mouseout"/>
                  </use>
                  <path fill="none" stroke="white" stroke-width="1.5" d="M0,-3.0v7 M-2.5,-0.5L0,-3.0L2.5,-0.5"/>
                </g>
                <g id="arrowRight" xlink:href="#dirArrow" transform="rotate(90) translate(36 -43)" onmousedown="handlePan(1,0)">
                  <use xlink:href="#rim" fill="#404040">
                        <set attributeName="fill" to="#808080" begin="arrowRight.mouseover" end="arrowRight.mouseout"/>
                  </use>
                  <path fill="none" stroke="white" stroke-width="1.5" d="M0,-3.0v7 M-2.5,-0.5L0,-3.0L2.5,-0.5"/>
                </g>
                <g id="arrowDown" xlink:href="#dirArrow" transform="rotate(180) translate(-30 -48)" onmousedown="handlePan(0,1)">
                  <use xlink:href="#rim" fill="#404040">
                        <set attributeName="fill" to="#808080" begin="arrowDown.mouseover" end="arrowDown.mouseout"/>
                  </use>
                  <path fill="none" stroke="white" stroke-width="1.5" d="M0,-3.0v7 M-2.5,-0.5L0,-3.0L2.5,-0.5"/>
                </g>
                <g id="arrowLeft" xlink:href="#dirArrow" transform="rotate(270) translate(-36 17)" onmousedown="handlePan(-1,0)">
                  <use xlink:href="#rim" fill="#404040">
                        <set attributeName="fill" to="#808080" begin="arrowLeft.mouseover" end="arrowLeft.mouseout"/>
                  </use>
                  <path fill="none" stroke="white" stroke-width="1.5" d="M0,-3.0v7 M-2.5,-0.5L0,-3.0L2.5,-0.5"/>
                </g>
        </g>
        <svg viewBox="0 0 15 15" width="100%" height="30px" preserveAspectRatio="xMaxYMin meet">
         <g id="arrow_out" transform="scale(0.3 0.3)">
          <a xlink:href="_stem_class_8hpp__incl_org.svg" target="_base">
           <rect id="button" ry="5" rx="5" y="6" x="6" height="38" width="38"
                fill="#f2f5e9" fill-opacity="0.5" stroke="#606060" stroke-width="1.0"/>
           <path id="arrow"
             d="M 11.500037,31.436501 C 11.940474,20.09759 22.043105,11.32322 32.158766,21.979434 L 37.068811,17.246167 C 37.068811,17.246167 37.088388,32 37.088388,32 L 22.160133,31.978069 C 22.160133,31.978069 26.997745,27.140456 26.997745,27.140456 C 18.528582,18.264221 13.291696,25.230495 11.500037,31.436501 z"
             style="fill:#404040;"/>
          </a>
         </g>
        </svg>
</svg>
