<?xml version="1.0" encoding="UTF-8" standalone="no"?>
<!DOCTYPE svg PUBLIC "-//W3C//DTD SVG 1.1//EN"
 "http://www.w3.org/Graphics/SVG/1.1/DTD/svg11.dtd">
<!-- Generated by graphviz version 2.30.1 (20130222.1704)
 -->
<!-- Title: StringClass.cpp Pages: 1 -->
<svg width="2487pt" height="320pt"
 viewBox="0.00 0.00 2487.00 320.00" xmlns="http://www.w3.org/2000/svg" xmlns:xlink="http://www.w3.org/1999/xlink">
<g id="graph0" class="graph" transform="scale(1 1) rotate(0) translate(4 316)">
<title>StringClass.cpp</title>
<polygon fill="white" stroke="white" points="-4,5 -4,-316 2484,-316 2484,5 -4,5"/>
<!-- Node1 -->
<g id="node1" class="node"><title>Node1</title>
<g id="a_node1"><a xlink:title=" ">
<polygon fill="#bfbfbf" stroke="black" points="1066.99,-291 1066.99,-311 1153.01,-311 1153.01,-291 1066.99,-291"/>
<text text-anchor="middle" x="1110" y="-297" font-family="Helvetica,sans-Serif" font-size="10.00">StringClass.cpp</text>
</a>
</g>
</g>
<!-- Node2 -->
<g id="node2" class="node"><title>Node2</title>
<g id="a_node2"><a xlink:title=" ">
<polygon fill="white" stroke="#bfbfbf" points="269.879,-59 269.879,-79 318.121,-79 318.121,-59 269.879,-59"/>
<text text-anchor="middle" x="294" y="-65" font-family="Helvetica,sans-Serif" font-size="10.00">ctype.h</text>
</a>
</g>
</g>
<!-- Node1&#45;&gt;Node2 -->
<g id="edge1" class="edge"><title>Node1&#45;&gt;Node2</title>
<path fill="none" stroke="midnightblue" d="M1105.86,-290.93C1098.98,-276.709 1083.94,-249.03 1064,-232 1017.73,-192.49 997.237,-194.633 940,-174 843.66,-139.271 817.873,-133.665 717,-116 549.148,-86.605 500.334,-111.681 328.268,-79.6617"/>
<polygon fill="midnightblue" stroke="midnightblue" points="328.852,-76.2103 318.375,-77.7837 327.547,-83.0874 328.852,-76.2103"/>
</g>
<!-- Node3 -->
<g id="node3" class="node"><title>Node3</title>
<g id="a_node3"><a xlink:title=" ">
<polygon fill="white" stroke="#bfbfbf" points="818.158,-233 818.158,-253 865.842,-253 865.842,-233 818.158,-233"/>
<text text-anchor="middle" x="842" y="-239" font-family="Helvetica,sans-Serif" font-size="10.00">stdlib.h</text>
</a>
</g>
</g>
<!-- Node1&#45;&gt;Node3 -->
<g id="edge2" class="edge"><title>Node1&#45;&gt;Node3</title>
<path fill="none" stroke="midnightblue" d="M1066.6,-292.122C1020.23,-283.519 944.668,-268.961 880,-254 878.729,-253.706 877.436,-253.4 876.131,-253.086"/>
<polygon fill="midnightblue" stroke="midnightblue" points="876.619,-249.6 866.069,-250.566 874.919,-256.39 876.619,-249.6"/>
</g>
<!-- Node4 -->
<g id="node4" class="node"><title>Node4</title>
<g id="a_node4"><a xlink:title=" ">
<polygon fill="white" stroke="#bfbfbf" points="336.604,-59 336.604,-79 385.396,-79 385.396,-59 336.604,-59"/>
<text text-anchor="middle" x="361" y="-65" font-family="Helvetica,sans-Serif" font-size="10.00">string.h</text>
</a>
</g>
</g>
<!-- Node1&#45;&gt;Node4 -->
<g id="edge3" class="edge"><title>Node1&#45;&gt;Node4</title>
<path fill="none" stroke="midnightblue" d="M1113.5,-290.718C1124.17,-260.63 1152.79,-164.921 1105,-116 1051.58,-61.3142 509.517,-91.1547 395.642,-79.328"/>
<polygon fill="midnightblue" stroke="midnightblue" points="396.099,-75.8581 385.724,-78.0032 395.173,-82.7965 396.099,-75.8581"/>
</g>
<!-- Node5 -->
<g id="node5" class="node"><title>Node5</title>
<g id="a_node5"><a xlink:title=" ">
<polygon fill="white" stroke="#bfbfbf" points="921.714,-233 921.714,-253 968.286,-253 968.286,-233 921.714,-233"/>
<text text-anchor="middle" x="945" y="-239" font-family="Helvetica,sans-Serif" font-size="10.00">math.h</text>
</a>
</g>
</g>
<!-- Node1&#45;&gt;Node5 -->
<g id="edge4" class="edge"><title>Node1&#45;&gt;Node5</title>
<path fill="none" stroke="midnightblue" d="M1083.12,-290.878C1054.49,-281.16 1009.12,-265.763 978.26,-255.288"/>
<polygon fill="midnightblue" stroke="midnightblue" points="978.988,-251.839 968.394,-251.94 976.738,-258.468 978.988,-251.839"/>
</g>
<!-- Node6 -->
<g id="node6" class="node"><title>Node6</title>
<g id="a_node6"><a xlink:title=" ">
<polygon fill="white" stroke="#bfbfbf" points="986.613,-233 986.613,-253 1025.39,-253 1025.39,-233 986.613,-233"/>
<text text-anchor="middle" x="1006" y="-239" font-family="Helvetica,sans-Serif" font-size="10.00">limits</text>
</a>
</g>
</g>
<!-- Node1&#45;&gt;Node6 -->
<g id="edge5" class="edge"><title>Node1&#45;&gt;Node6</title>
<path fill="none" stroke="midnightblue" d="M1092.83,-290.753C1076.24,-281.823 1050.91,-268.185 1031.89,-257.939"/>
<polygon fill="midnightblue" stroke="midnightblue" points="1033.32,-254.735 1022.85,-253.075 1030,-260.898 1033.32,-254.735"/>
</g>
<!-- Node7 -->
<g id="node7" class="node"><title>Node7</title>
<g id="a_node7"><a xlink:href="_rexx_core_8h.html" target="_top" xlink:title=" ">
<polygon fill="white" stroke="black" points="1156.6,-117 1156.6,-137 1225.4,-137 1225.4,-117 1156.6,-117"/>
<text text-anchor="middle" x="1191" y="-123" font-family="Helvetica,sans-Serif" font-size="10.00">RexxCore.h</text>
</a>
</g>
</g>
<!-- Node1&#45;&gt;Node7 -->
<g id="edge6" class="edge"><title>Node1&#45;&gt;Node7</title>
<path fill="none" stroke="midnightblue" d="M1117.57,-290.952C1124.8,-281.995 1135.65,-267.679 1143,-254 1162.4,-217.897 1177.72,-172.239 1185.46,-146.984"/>
<polygon fill="midnightblue" stroke="midnightblue" points="1188.87,-147.793 1188.39,-137.21 1182.17,-145.784 1188.87,-147.793"/>
</g>
<!-- Node52 -->
<g id="node38" class="node"><title>Node52</title>
<g id="a_node38"><a xlink:href="_string_class_8hpp.html" target="_top" xlink:title=" ">
<polygon fill="white" stroke="black" points="181.705,-175 181.705,-195 268.295,-195 268.295,-175 181.705,-175"/>
<text text-anchor="middle" x="225" y="-181" font-family="Helvetica,sans-Serif" font-size="10.00">StringClass.hpp</text>
</a>
</g>
</g>
<!-- Node1&#45;&gt;Node52 -->
<g id="edge41" class="edge"><title>Node1&#45;&gt;Node52</title>
<path fill="none" stroke="midnightblue" d="M1066.67,-293.531C1026.04,-286.62 964.052,-273.889 913,-254 894.457,-246.776 893.058,-237.732 874,-232 763.043,-198.625 413.123,-189.2 278.503,-186.773"/>
<polygon fill="midnightblue" stroke="midnightblue" points="278.487,-183.273 268.428,-186.598 278.365,-190.271 278.487,-183.273"/>
</g>
<!-- Node71 -->
<g id="node42" class="node"><title>Node71</title>
<g id="a_node42"><a xlink:href="_directory_class_8hpp.html" target="_top" xlink:title=" ">
<polygon fill="white" stroke="black" points="-0.236328,-175 -0.236328,-195 100.236,-195 100.236,-175 -0.236328,-175"/>
<text text-anchor="middle" x="50" y="-181" font-family="Helvetica,sans-Serif" font-size="10.00">DirectoryClass.hpp</text>
</a>
</g>
</g>
<!-- Node1&#45;&gt;Node71 -->
<g id="edge49" class="edge"><title>Node1&#45;&gt;Node71</title>
<path fill="none" stroke="midnightblue" d="M1066.8,-295.354C900.701,-277.49 302.838,-213.192 110.241,-192.479"/>
<polygon fill="midnightblue" stroke="midnightblue" points="110.614,-188.999 100.297,-191.409 109.866,-195.959 110.614,-188.999"/>
</g>
<!-- Node72 -->
<g id="node43" class="node"><title>Node72</title>
<g id="a_node43"><a xlink:href="_rexx_activation_8hpp.html" target="_top" xlink:title=" ">
<polygon fill="white" stroke="black" points="1788.2,-233 1788.2,-253 1889.8,-253 1889.8,-233 1788.2,-233"/>
<text text-anchor="middle" x="1839" y="-239" font-family="Helvetica,sans-Serif" font-size="10.00">RexxActivation.hpp</text>
</a>
</g>
</g>
<!-- Node1&#45;&gt;Node72 -->
<g id="edge51" class="edge"><title>Node1&#45;&gt;Node72</title>
<path fill="none" stroke="midnightblue" d="M1153.15,-296.685C1276.98,-287.173 1633.83,-259.76 1777.75,-248.705"/>
<polygon fill="midnightblue" stroke="midnightblue" points="1778.44,-252.162 1788.14,-247.907 1777.91,-245.183 1778.44,-252.162"/>
</g>
<!-- Node42 -->
<g id="node26" class="node"><title>Node42</title>
<g id="a_node26"><a xlink:href="_rexx_activity_8hpp.html" target="_top" xlink:title=" ">
<polygon fill="white" stroke="black" points="2077.41,-59 2077.41,-79 2166.59,-79 2166.59,-59 2077.41,-59"/>
<text text-anchor="middle" x="2122" y="-65" font-family="Helvetica,sans-Serif" font-size="10.00">RexxActivity.hpp</text>
</a>
</g>
</g>
<!-- Node1&#45;&gt;Node42 -->
<g id="edge65" class="edge"><title>Node1&#45;&gt;Node42</title>
<path fill="none" stroke="midnightblue" d="M1153.23,-300.389C1310.2,-301.4 1849.46,-301.275 2014,-254 2095,-230.727 2136.27,-217.584 2164,-138 2167.22,-128.767 2167.54,-125.116 2164,-116 2159.45,-104.267 2150.36,-93.695 2141.79,-85.6536"/>
<polygon fill="midnightblue" stroke="midnightblue" points="2144.05,-82.977 2134.22,-79.0193 2139.43,-88.2419 2144.05,-82.977"/>
</g>
<!-- Node81 -->
<g id="node48" class="node"><title>Node81</title>
<g id="a_node48"><a xlink:href="_protected_object_8hpp.html" target="_top" xlink:title=" ">
<polygon fill="white" stroke="black" points="2048.42,-117 2048.42,-137 2155.58,-137 2155.58,-117 2048.42,-117"/>
<text text-anchor="middle" x="2102" y="-123" font-family="Helvetica,sans-Serif" font-size="10.00">ProtectedObject.hpp</text>
</a>
</g>
</g>
<!-- Node1&#45;&gt;Node81 -->
<g id="edge66" class="edge"><title>Node1&#45;&gt;Node81</title>
<path fill="none" stroke="midnightblue" d="M1153.22,-299.254C1301.15,-296.442 1786.45,-285.02 1939,-254 2013.53,-238.845 2055.36,-257.581 2100,-196 2110.05,-182.131 2109.36,-162.152 2106.87,-147.436"/>
<polygon fill="midnightblue" stroke="midnightblue" points="2110.24,-146.466 2104.76,-137.398 2103.39,-147.904 2110.24,-146.466"/>
</g>
<!-- Node56 -->
<g id="node40" class="node"><title>Node56</title>
<g id="a_node40"><a xlink:href="_string_util_8hpp.html" target="_top" xlink:title=" ">
<polygon fill="white" stroke="black" points="631.985,-117 631.985,-137 708.015,-137 708.015,-117 631.985,-117"/>
<text text-anchor="middle" x="670" y="-123" font-family="Helvetica,sans-Serif" font-size="10.00">StringUtil.hpp</text>
</a>
</g>
</g>
<!-- Node1&#45;&gt;Node56 -->
<g id="edge67" class="edge"><title>Node1&#45;&gt;Node56</title>
<path fill="none" stroke="midnightblue" d="M1102.12,-290.623C1089.31,-275.98 1062.52,-247.735 1034,-232 929.647,-174.435 790.497,-146.24 718.202,-134.69"/>
<polygon fill="midnightblue" stroke="midnightblue" points="718.453,-131.187 708.033,-133.105 717.375,-138.103 718.453,-131.187"/>
</g>
<!-- Node84 -->
<g id="node47" class="node"><title>Node84</title>
<g id="a_node47"><a xlink:href="_rexx_compound_tail_8hpp.html" target="_top" xlink:title=" ">
<polygon fill="white" stroke="black" points="1968.91,-175 1968.91,-195 2091.09,-195 2091.09,-175 1968.91,-175"/>
<text text-anchor="middle" x="2030" y="-181" font-family="Helvetica,sans-Serif" font-size="10.00">RexxCompoundTail.hpp</text>
</a>
</g>
</g>
<!-- Node1&#45;&gt;Node84 -->
<g id="edge68" class="edge"><title>Node1&#45;&gt;Node84</title>
<path fill="none" stroke="midnightblue" d="M1153.23,-299.829C1296.68,-298.895 1755.9,-292.868 1898,-254 1939.63,-242.612 1983.27,-217.031 2008.49,-200.695"/>
<polygon fill="midnightblue" stroke="midnightblue" points="2010.49,-203.569 2016.9,-195.138 2006.63,-197.727 2010.49,-203.569"/>
</g>
<!-- Node86 -->
<g id="node50" class="node"><title>Node86</title>
<g id="a_node50"><a xlink:title=" ">
<polygon fill="white" stroke="#bfbfbf" points="2222.81,-233 2222.81,-253 2337.19,-253 2337.19,-233 2222.81,-233"/>
<text text-anchor="middle" x="2280" y="-239" font-family="Helvetica,sans-Serif" font-size="10.00">SystemInterpreter.hpp</text>
</a>
</g>
</g>
<!-- Node1&#45;&gt;Node86 -->
<g id="edge69" class="edge"><title>Node1&#45;&gt;Node86</title>
<path fill="none" stroke="midnightblue" d="M1153.04,-299.715C1300.55,-298.414 1799.17,-291.348 2209,-254 2210.12,-253.898 2211.24,-253.791 2212.37,-253.68"/>
<polygon fill="midnightblue" stroke="midnightblue" points="2213.14,-257.117 2222.7,-252.561 2212.39,-250.158 2213.14,-257.117"/>
</g>
<!-- Node8 -->
<g id="node8" class="node"><title>Node8</title>
<g id="a_node8"><a xlink:href="oorexxapi_8h.html" target="_top" xlink:title=" ">
<polygon fill="white" stroke="black" points="942.15,-59 942.15,-79 1009.85,-79 1009.85,-59 942.15,-59"/>
<text text-anchor="middle" x="976" y="-65" font-family="Helvetica,sans-Serif" font-size="10.00">oorexxapi.h</text>
</a>
</g>
</g>
<!-- Node7&#45;&gt;Node8 -->
<g id="edge7" class="edge"><title>Node7&#45;&gt;Node8</title>
<path fill="none" stroke="midnightblue" d="M1156.46,-117.003C1119.36,-107.34 1060.32,-91.9618 1019.94,-81.4451"/>
<polygon fill="midnightblue" stroke="midnightblue" points="1020.66,-78.0162 1010.1,-78.8825 1018.9,-84.7902 1020.66,-78.0162"/>
</g>
<!-- Node15 -->
<g id="node11" class="node"><title>Node15</title>
<g id="a_node11"><a xlink:title=" ">
<polygon fill="white" stroke="#bfbfbf" points="1408.27,-59 1408.27,-79 1453.73,-79 1453.73,-59 1408.27,-59"/>
<text text-anchor="middle" x="1431" y="-65" font-family="Helvetica,sans-Serif" font-size="10.00">stdio.h</text>
</a>
</g>
</g>
<!-- Node7&#45;&gt;Node15 -->
<g id="edge10" class="edge"><title>Node7&#45;&gt;Node15</title>
<path fill="none" stroke="midnightblue" d="M1225.58,-118.617C1266.07,-109.87 1335.08,-94.6312 1394,-80 1395.27,-79.6843 1396.57,-79.358 1397.87,-79.0246"/>
<polygon fill="midnightblue" stroke="midnightblue" points="1399.16,-82.3063 1407.95,-76.3881 1397.39,-75.5344 1399.16,-82.3063"/>
</g>
<!-- Node16 -->
<g id="node12" class="node"><title>Node16</title>
<g id="a_node12"><a xlink:title=" ">
<polygon fill="white" stroke="#bfbfbf" points="199.934,-59 199.934,-79 252.066,-79 252.066,-59 199.934,-59"/>
<text text-anchor="middle" x="226" y="-65" font-family="Helvetica,sans-Serif" font-size="10.00">stdarg.h</text>
</a>
</g>
</g>
<!-- Node7&#45;&gt;Node16 -->
<g id="edge11" class="edge"><title>Node7&#45;&gt;Node16</title>
<path fill="none" stroke="midnightblue" d="M1156.51,-125.35C1012.47,-122.477 457.844,-109.782 262.106,-79.7712"/>
<polygon fill="midnightblue" stroke="midnightblue" points="262.654,-76.3143 252.226,-78.1901 261.547,-83.2264 262.654,-76.3143"/>
</g>
<!-- Node7&#45;&gt;Node4 -->
<g id="edge12" class="edge"><title>Node7&#45;&gt;Node4</title>
<path fill="none" stroke="midnightblue" d="M1156.5,-118.136C1151.98,-117.304 1147.39,-116.56 1143,-116 816.226,-74.3604 725.059,-134.099 396.026,-79.7374"/>
<polygon fill="midnightblue" stroke="midnightblue" points="396.164,-76.2117 385.723,-78.0108 395.007,-83.1154 396.164,-76.2117"/>
</g>
<!-- Node7&#45;&gt;Node2 -->
<g id="edge13" class="edge"><title>Node7&#45;&gt;Node2</title>
<path fill="none" stroke="midnightblue" d="M1156.32,-121.412C1140.67,-119.484 1121.93,-117.375 1105,-116 763.711,-88.285 670.707,-136.254 328.295,-79.5851"/>
<polygon fill="midnightblue" stroke="midnightblue" points="328.791,-76.1195 318.35,-77.9216 327.636,-83.0236 328.791,-76.1195"/>
</g>
<!-- Node17 -->
<g id="node13" class="node"><title>Node17</title>
<g id="a_node13"><a xlink:title=" ">
<polygon fill="white" stroke="#bfbfbf" points="1471.44,-59 1471.44,-79 1518.56,-79 1518.56,-59 1471.44,-59"/>
<text text-anchor="middle" x="1495" y="-65" font-family="Helvetica,sans-Serif" font-size="10.00">limits.h</text>
</a>
</g>
</g>
<!-- Node7&#45;&gt;Node17 -->
<g id="edge14" class="edge"><title>Node7&#45;&gt;Node17</title>
<path fill="none" stroke="midnightblue" d="M1225.5,-121.565C1275.44,-114.837 1370.9,-100.823 1461.43,-79.8871"/>
<polygon fill="midnightblue" stroke="midnightblue" points="1462.37,-83.2623 1471.3,-77.571 1460.77,-76.4473 1462.37,-83.2623"/>
</g>
<!-- Node18 -->
<g id="node14" class="node"><title>Node18</title>
<g id="a_node14"><a xlink:href="_rexx_platform_definitions_8h.html" target="_top" xlink:title=" ">
<polygon fill="white" stroke="red" points="1575.48,-59 1575.48,-79 1706.52,-79 1706.52,-59 1575.48,-59"/>
<text text-anchor="middle" x="1641" y="-65" font-family="Helvetica,sans-Serif" font-size="10.00">RexxPlatformDefinitions.h</text>
</a>
</g>
</g>
<!-- Node7&#45;&gt;Node18 -->
<g id="edge15" class="edge"><title>Node7&#45;&gt;Node18</title>
<path fill="none" stroke="midnightblue" d="M1225.43,-121.727C1290.83,-113.61 1437.51,-95.3944 1561,-80 1562.29,-79.8393 1563.59,-79.6771 1564.9,-79.5137"/>
<polygon fill="midnightblue" stroke="midnightblue" points="1565.59,-82.9549 1575.08,-78.2436 1564.72,-76.0088 1565.59,-82.9549"/>
</g>
<!-- Node21 -->
<g id="node15" class="node"><title>Node21</title>
<g id="a_node15"><a xlink:href="_rexx_constants_8hpp.html" target="_top" xlink:title=" ">
<polygon fill="white" stroke="black" points="1724.36,-59 1724.36,-79 1827.64,-79 1827.64,-59 1724.36,-59"/>
<text text-anchor="middle" x="1776" y="-65" font-family="Helvetica,sans-Serif" font-size="10.00">RexxConstants.hpp</text>
</a>
</g>
</g>
<!-- Node7&#45;&gt;Node21 -->
<g id="edge16" class="edge"><title>Node7&#45;&gt;Node21</title>
<path fill="none" stroke="midnightblue" d="M1225.43,-123.874C1307.87,-118.591 1523.31,-103.655 1713.92,-80.051"/>
<polygon fill="midnightblue" stroke="midnightblue" points="1714.64,-83.4886 1724.12,-78.7756 1713.77,-76.5426 1714.64,-83.4886"/>
</g>
<!-- Node22 -->
<g id="node16" class="node"><title>Node22</title>
<g id="a_node16"><a xlink:href="_class_type_codes_8h.html" target="_top" xlink:title=" ">
<polygon fill="white" stroke="black" points="506.032,-59 506.032,-79 605.968,-79 605.968,-59 506.032,-59"/>
<text text-anchor="middle" x="556" y="-65" font-family="Helvetica,sans-Serif" font-size="10.00">ClassTypeCodes.h</text>
</a>
</g>
</g>
<!-- Node7&#45;&gt;Node22 -->
<g id="edge17" class="edge"><title>Node7&#45;&gt;Node22</title>
<path fill="none" stroke="midnightblue" d="M1156.49,-118.22C1151.97,-117.374 1147.39,-116.603 1143,-116 913.283,-84.3923 850.35,-107.026 616.353,-80.046"/>
<polygon fill="midnightblue" stroke="midnightblue" points="616.502,-76.5397 606.163,-78.8524 615.688,-83.4922 616.502,-76.5397"/>
</g>
<!-- Node23 -->
<g id="node17" class="node"><title>Node23</title>
<g id="a_node17"><a xlink:href="_global_names_8h.html" target="_top" xlink:title=" ">
<polygon fill="white" stroke="black" points="623.54,-59 623.54,-79 708.46,-79 708.46,-59 623.54,-59"/>
<text text-anchor="middle" x="666" y="-65" font-family="Helvetica,sans-Serif" font-size="10.00">GlobalNames.h</text>
</a>
</g>
</g>
<!-- Node7&#45;&gt;Node23 -->
<g id="edge18" class="edge"><title>Node7&#45;&gt;Node23</title>
<path fill="none" stroke="midnightblue" d="M1156.48,-118.287C1151.96,-117.431 1147.38,-116.639 1143,-116 958.195,-89.042 906.919,-105.726 718.473,-80.0746"/>
<polygon fill="midnightblue" stroke="midnightblue" points="718.903,-76.6008 708.518,-78.6977 717.944,-83.5348 718.903,-76.6008"/>
</g>
<!-- Node24 -->
<g id="node18" class="node"><title>Node24</title>
<g id="a_node18"><a xlink:href="_object_class_8hpp.html" target="_top" xlink:title=" ">
<polygon fill="white" stroke="red" points="1845.32,-59 1845.32,-79 1934.68,-79 1934.68,-59 1845.32,-59"/>
<text text-anchor="middle" x="1890" y="-65" font-family="Helvetica,sans-Serif" font-size="10.00">ObjectClass.hpp</text>
</a>
</g>
</g>
<!-- Node7&#45;&gt;Node24 -->
<g id="edge19" class="edge"><title>Node7&#45;&gt;Node24</title>
<path fill="none" stroke="midnightblue" d="M1225.75,-124.89C1321.29,-121.548 1596.17,-109.981 1835,-79.9856"/>
<polygon fill="midnightblue" stroke="midnightblue" points="1835.79,-83.4136 1845.27,-78.6816 1834.91,-76.4693 1835.79,-83.4136"/>
</g>
<!-- Node27 -->
<g id="node19" class="node"><title>Node27</title>
<g id="a_node19"><a xlink:href="_table_class_8hpp.html" target="_top" xlink:title=" ">
<polygon fill="white" stroke="black" points="403.813,-59 403.813,-79 488.187,-79 488.187,-59 403.813,-59"/>
<text text-anchor="middle" x="446" y="-65" font-family="Helvetica,sans-Serif" font-size="10.00">TableClass.hpp</text>
</a>
</g>
</g>
<!-- Node7&#45;&gt;Node27 -->
<g id="edge20" class="edge"><title>Node7&#45;&gt;Node27</title>
<path fill="none" stroke="midnightblue" d="M1156.5,-118.168C1151.97,-117.331 1147.39,-116.576 1143,-116 861.231,-79.0096 784.125,-114.889 498.478,-80.0164"/>
<polygon fill="midnightblue" stroke="midnightblue" points="498.583,-76.5027 488.228,-78.7458 497.722,-83.4495 498.583,-76.5027"/>
</g>
<!-- Node30 -->
<g id="node21" class="node"><title>Node30</title>
<g id="a_node21"><a xlink:href="_stack_class_8hpp.html" target="_top" xlink:title=" ">
<polygon fill="white" stroke="black" points="726.261,-59 726.261,-79 811.739,-79 811.739,-59 726.261,-59"/>
<text text-anchor="middle" x="769" y="-65" font-family="Helvetica,sans-Serif" font-size="10.00">StackClass.hpp</text>
</a>
</g>
</g>
<!-- Node7&#45;&gt;Node30 -->
<g id="edge22" class="edge"><title>Node7&#45;&gt;Node30</title>
<path fill="none" stroke="midnightblue" d="M1156.46,-118.4C1151.95,-117.525 1147.37,-116.698 1143,-116 1003.99,-93.8 965.106,-101.256 821.846,-80.0179"/>
<polygon fill="midnightblue" stroke="midnightblue" points="822.212,-76.5337 811.803,-78.5078 821.171,-83.4559 822.212,-76.5337"/>
</g>
<!-- Node31 -->
<g id="node22" class="node"><title>Node31</title>
<g id="a_node22"><a xlink:href="_rexx_memory_8hpp.html" target="_top" xlink:title=" ">
<polygon fill="white" stroke="red" points="830.189,-59 830.189,-79 923.811,-79 923.811,-59 830.189,-59"/>
<text text-anchor="middle" x="877" y="-65" font-family="Helvetica,sans-Serif" font-size="10.00">RexxMemory.hpp</text>
</a>
</g>
</g>
<!-- Node7&#45;&gt;Node31 -->
<g id="edge23" class="edge"><title>Node7&#45;&gt;Node31</title>
<path fill="none" stroke="midnightblue" d="M1156.42,-118.643C1151.91,-117.728 1147.35,-116.825 1143,-116 1053.06,-98.9268 1027.93,-96.4745 933.978,-80.1575"/>
<polygon fill="midnightblue" stroke="midnightblue" points="934.502,-76.6961 924.05,-78.4261 933.3,-83.592 934.502,-76.6961"/>
</g>
<!-- Node38 -->
<g id="node23" class="node"><title>Node38</title>
<g id="a_node23"><a xlink:href="_rexx_behaviour_8hpp.html" target="_top" xlink:title=" ">
<polygon fill="white" stroke="red" points="1027.64,-59 1027.64,-79 1130.36,-79 1130.36,-59 1027.64,-59"/>
<text text-anchor="middle" x="1079" y="-65" font-family="Helvetica,sans-Serif" font-size="10.00">RexxBehaviour.hpp</text>
</a>
</g>
</g>
<!-- Node7&#45;&gt;Node38 -->
<g id="edge24" class="edge"><title>Node7&#45;&gt;Node38</title>
<path fill="none" stroke="midnightblue" d="M1172.51,-116.753C1154.48,-107.742 1126.87,-93.9353 1106.32,-83.6589"/>
<polygon fill="midnightblue" stroke="midnightblue" points="1107.66,-80.4169 1097.15,-79.0752 1104.53,-86.6779 1107.66,-80.4169"/>
</g>
<!-- Node40 -->
<g id="node24" class="node"><title>Node40</title>
<g id="a_node24"><a xlink:href="_class_class_8hpp.html" target="_top" xlink:title=" ">
<polygon fill="white" stroke="black" points="1148.26,-59 1148.26,-79 1233.74,-79 1233.74,-59 1148.26,-59"/>
<text text-anchor="middle" x="1191" y="-65" font-family="Helvetica,sans-Serif" font-size="10.00">ClassClass.hpp</text>
</a>
</g>
</g>
<!-- Node7&#45;&gt;Node40 -->
<g id="edge25" class="edge"><title>Node7&#45;&gt;Node40</title>
<path fill="none" stroke="midnightblue" d="M1191,-116.753C1191,-109.25 1191,-98.4238 1191,-89.0781"/>
<polygon fill="midnightblue" stroke="midnightblue" points="1194.5,-89.0752 1191,-79.0752 1187.5,-89.0752 1194.5,-89.0752"/>
</g>
<!-- Node41 -->
<g id="node25" class="node"><title>Node41</title>
<g id="a_node25"><a xlink:href="_rexx_envelope_8hpp.html" target="_top" xlink:title=" ">
<polygon fill="white" stroke="black" points="1252.03,-59 1252.03,-79 1351.97,-79 1351.97,-59 1252.03,-59"/>
<text text-anchor="middle" x="1302" y="-65" font-family="Helvetica,sans-Serif" font-size="10.00">RexxEnvelope.hpp</text>
</a>
</g>
</g>
<!-- Node7&#45;&gt;Node41 -->
<g id="edge26" class="edge"><title>Node7&#45;&gt;Node41</title>
<path fill="none" stroke="midnightblue" d="M1209.33,-116.753C1227.19,-107.742 1254.56,-93.9353 1274.93,-83.6589"/>
<polygon fill="midnightblue" stroke="midnightblue" points="1276.66,-86.7044 1284.01,-79.0752 1273.51,-80.4547 1276.66,-86.7044"/>
</g>
<!-- Node7&#45;&gt;Node42 -->
<g id="edge27" class="edge"><title>Node7&#45;&gt;Node42</title>
<path fill="none" stroke="midnightblue" d="M1225.4,-125.809C1342.09,-124.821 1733.57,-118.728 2066.94,-79.9624"/>
<polygon fill="midnightblue" stroke="midnightblue" points="2067.76,-83.3903 2077.28,-78.747 2066.94,-76.4382 2067.76,-83.3903"/>
</g>
<!-- Node53 -->
<g id="node36" class="node"><title>Node53</title>
<g id="a_node36"><a xlink:href="_number_string_class_8hpp.html" target="_top" xlink:title=" ">
<polygon fill="white" stroke="red" points="21.9214,-59 21.9214,-79 144.079,-79 144.079,-59 21.9214,-59"/>
<text text-anchor="middle" x="83" y="-65" font-family="Helvetica,sans-Serif" font-size="10.00">NumberStringClass.hpp</text>
</a>
</g>
</g>
<!-- Node7&#45;&gt;Node53 -->
<g id="edge39" class="edge"><title>Node7&#45;&gt;Node53</title>
<path fill="none" stroke="midnightblue" d="M1156.42,-124.991C1028.37,-121.129 568.967,-106.178 191,-80 179.186,-79.1818 166.658,-78.162 154.481,-77.0892"/>
<polygon fill="midnightblue" stroke="midnightblue" points="154.631,-73.5887 144.358,-76.1788 154.004,-80.5605 154.631,-73.5887"/>
</g>
<!-- Node69 -->
<g id="node37" class="node"><title>Node69</title>
<g id="a_node37"><a xlink:href="_activity_manager_8hpp.html" target="_top" xlink:title=" ">
<polygon fill="white" stroke="red" points="1952.97,-59 1952.97,-79 2059.03,-79 2059.03,-59 1952.97,-59"/>
<text text-anchor="middle" x="2006" y="-65" font-family="Helvetica,sans-Serif" font-size="10.00">ActivityManager.hpp</text>
</a>
</g>
</g>
<!-- Node7&#45;&gt;Node69 -->
<g id="edge40" class="edge"><title>Node7&#45;&gt;Node69</title>
<path fill="none" stroke="midnightblue" d="M1225.58,-125.07C1331.28,-121.977 1659.54,-110.509 1942.72,-79.9145"/>
<polygon fill="midnightblue" stroke="midnightblue" points="1943.21,-83.3816 1952.77,-78.8181 1942.45,-76.4229 1943.21,-83.3816"/>
</g>
<!-- Node9 -->
<g id="node9" class="node"><title>Node9</title>
<g id="a_node9"><a xlink:href="rexx_8h.html" target="_top" xlink:title=" ">
<polygon fill="white" stroke="red" points="695.384,-1 695.384,-21 738.616,-21 738.616,-1 695.384,-1"/>
<text text-anchor="middle" x="717" y="-7" font-family="Helvetica,sans-Serif" font-size="10.00">rexx.h</text>
</a>
</g>
</g>
<!-- Node8&#45;&gt;Node9 -->
<g id="edge8" class="edge"><title>Node8&#45;&gt;Node9</title>
<path fill="none" stroke="midnightblue" d="M941.9,-60.205C938.556,-59.4542 935.213,-58.7088 932,-58 866.882,-43.6348 790.518,-27.4543 748.58,-18.6255"/>
<polygon fill="midnightblue" stroke="midnightblue" points="749.193,-15.1781 738.687,-16.5449 747.753,-22.0282 749.193,-15.1781"/>
</g>
<!-- Node14 -->
<g id="node10" class="node"><title>Node14</title>
<g id="a_node10"><a xlink:href="oorexxerrors_8h.html" target="_top" xlink:title=" ">
<polygon fill="white" stroke="black" points="935.766,-1 935.766,-21 1016.23,-21 1016.23,-1 935.766,-1"/>
<text text-anchor="middle" x="976" y="-7" font-family="Helvetica,sans-Serif" font-size="10.00">oorexxerrors.h</text>
</a>
</g>
</g>
<!-- Node8&#45;&gt;Node14 -->
<g id="edge9" class="edge"><title>Node8&#45;&gt;Node14</title>
<path fill="none" stroke="midnightblue" d="M976,-58.7527C976,-51.2504 976,-40.4238 976,-31.0781"/>
<polygon fill="midnightblue" stroke="midnightblue" points="979.5,-31.0752 976,-21.0752 972.5,-31.0752 979.5,-31.0752"/>
</g>
<!-- Node28 -->
<g id="node20" class="node"><title>Node28</title>
<g id="a_node20"><a xlink:href="_rexx_collection_8hpp.html" target="_top" xlink:title=" ">
<polygon fill="white" stroke="red" points="168.921,-1 168.921,-21 271.079,-21 271.079,-1 168.921,-1"/>
<text text-anchor="middle" x="220" y="-7" font-family="Helvetica,sans-Serif" font-size="10.00">RexxCollection.hpp</text>
</a>
</g>
</g>
<!-- Node27&#45;&gt;Node28 -->
<g id="edge21" class="edge"><title>Node27&#45;&gt;Node28</title>
<path fill="none" stroke="midnightblue" d="M409.438,-58.9404C370.462,-49.2826 308.646,-33.9654 266.297,-23.4719"/>
<polygon fill="midnightblue" stroke="midnightblue" points="267.058,-20.0545 256.509,-21.0466 265.374,-26.8491 267.058,-20.0545"/>
</g>
<!-- Node43 -->
<g id="node27" class="node"><title>Node43</title>
<g id="a_node27"><a xlink:href="_list_class_8hpp.html" target="_top" xlink:title=" ">
<polygon fill="white" stroke="red" points="1630.99,-1 1630.99,-21 1707.01,-21 1707.01,-1 1630.99,-1"/>
<text text-anchor="middle" x="1669" y="-7" font-family="Helvetica,sans-Serif" font-size="10.00">ListClass.hpp</text>
</a>
</g>
</g>
<!-- Node42&#45;&gt;Node43 -->
<g id="edge28" class="edge"><title>Node42&#45;&gt;Node43</title>
<path fill="none" stroke="midnightblue" d="M2077.26,-59.425C2074.13,-58.9146 2071.02,-58.4333 2068,-58 1915.53,-36.1219 1873.09,-45.9725 1717.1,-22.0267"/>
<polygon fill="midnightblue" stroke="midnightblue" points="1717.58,-18.5578 1707.16,-20.4775 1716.5,-25.4745 1717.58,-18.5578"/>
</g>
<!-- Node45 -->
<g id="node28" class="node"><title>Node45</title>
<g id="a_node28"><a xlink:href="_rexx_internal_stack_8hpp.html" target="_top" xlink:title=" ">
<polygon fill="white" stroke="black" points="1724.69,-1 1724.69,-21 1841.31,-21 1841.31,-1 1724.69,-1"/>
<text text-anchor="middle" x="1783" y="-7" font-family="Helvetica,sans-Serif" font-size="10.00">RexxInternalStack.hpp</text>
</a>
</g>
</g>
<!-- Node42&#45;&gt;Node45 -->
<g id="edge29" class="edge"><title>Node42&#45;&gt;Node45</title>
<path fill="none" stroke="midnightblue" d="M2077.23,-59.6261C2074.1,-59.0678 2071.01,-58.5209 2068,-58 1994.16,-45.2058 1909.35,-31.6646 1851.58,-22.6136"/>
<polygon fill="midnightblue" stroke="midnightblue" points="1851.89,-19.1204 1841.47,-21.033 1850.81,-26.0363 1851.89,-19.1204"/>
</g>
<!-- Node46 -->
<g id="node29" class="node"><title>Node46</title>
<g id="a_node29"><a xlink:href="_rexx_activation_stack_8hpp.html" target="_top" xlink:title=" ">
<polygon fill="white" stroke="black" points="1859.69,-1 1859.69,-21 1986.31,-21 1986.31,-1 1859.69,-1"/>
<text text-anchor="middle" x="1923" y="-7" font-family="Helvetica,sans-Serif" font-size="10.00">RexxActivationStack.hpp</text>
</a>
</g>
</g>
<!-- Node42&#45;&gt;Node46 -->
<g id="edge30" class="edge"><title>Node42&#45;&gt;Node46</title>
<path fill="none" stroke="midnightblue" d="M2089.58,-58.878C2055.66,-49.331 2002.26,-34.3033 1965.09,-23.8454"/>
<polygon fill="midnightblue" stroke="midnightblue" points="1965.65,-20.3651 1955.07,-21.0253 1963.75,-27.1034 1965.65,-20.3651"/>
</g>
<!-- Node47 -->
<g id="node30" class="node"><title>Node47</title>
<g id="a_node30"><a xlink:href="_expression_stack_8hpp.html" target="_top" xlink:title=" ">
<polygon fill="white" stroke="red" points="2370.03,-1 2370.03,-21 2479.97,-21 2479.97,-1 2370.03,-1"/>
<text text-anchor="middle" x="2425" y="-7" font-family="Helvetica,sans-Serif" font-size="10.00">ExpressionStack.hpp</text>
</a>
</g>
</g>
<!-- Node42&#45;&gt;Node47 -->
<g id="edge31" class="edge"><title>Node42&#45;&gt;Node47</title>
<path fill="none" stroke="midnightblue" d="M2166.71,-59.737C2219.51,-49.9786 2307.52,-33.7126 2365.9,-22.922"/>
<polygon fill="midnightblue" stroke="midnightblue" points="2366.89,-26.2993 2376.09,-21.0401 2365.62,-19.4159 2366.89,-26.2993"/>
</g>
<!-- Node49 -->
<g id="node31" class="node"><title>Node49</title>
<g id="a_node31"><a xlink:href="_rexx_local_variables_8hpp.html" target="_top" xlink:title=" ">
<polygon fill="white" stroke="red" points="2228.45,-1 2228.45,-21 2351.55,-21 2351.55,-1 2228.45,-1"/>
<text text-anchor="middle" x="2290" y="-7" font-family="Helvetica,sans-Serif" font-size="10.00">RexxLocalVariables.hpp</text>
</a>
</g>
</g>
<!-- Node42&#45;&gt;Node49 -->
<g id="edge32" class="edge"><title>Node42&#45;&gt;Node49</title>
<path fill="none" stroke="midnightblue" d="M2149.37,-58.878C2177.64,-49.4534 2221.94,-34.6878 2253.25,-24.2499"/>
<polygon fill="midnightblue" stroke="midnightblue" points="2254.54,-27.508 2262.92,-21.0253 2252.33,-20.8673 2254.54,-27.508"/>
</g>
<!-- Node64 -->
<g id="node32" class="node"><title>Node64</title>
<g id="a_node32"><a xlink:href="_source_location_8hpp.html" target="_top" xlink:title=" ">
<polygon fill="white" stroke="black" points="2004.52,-1 2004.52,-21 2109.48,-21 2109.48,-1 2004.52,-1"/>
<text text-anchor="middle" x="2057" y="-7" font-family="Helvetica,sans-Serif" font-size="10.00">SourceLocation.hpp</text>
</a>
</g>
</g>
<!-- Node42&#45;&gt;Node64 -->
<g id="edge33" class="edge"><title>Node42&#45;&gt;Node64</title>
<path fill="none" stroke="midnightblue" d="M2111.27,-58.7527C2101.52,-50.3534 2086.93,-37.7874 2075.34,-27.7976"/>
<polygon fill="midnightblue" stroke="midnightblue" points="2077.39,-24.9507 2067.53,-21.0752 2072.83,-30.254 2077.39,-24.9507"/>
</g>
<!-- Node65 -->
<g id="node33" class="node"><title>Node65</title>
<g id="a_node33"><a xlink:href="_exit_handler_8hpp.html" target="_top" xlink:title=" ">
<polygon fill="white" stroke="red" points="1356.7,-1 1356.7,-21 1443.3,-21 1443.3,-1 1356.7,-1"/>
<text text-anchor="middle" x="1400" y="-7" font-family="Helvetica,sans-Serif" font-size="10.00">ExitHandler.hpp</text>
</a>
</g>
</g>
<!-- Node42&#45;&gt;Node65 -->
<g id="edge34" class="edge"><title>Node42&#45;&gt;Node65</title>
<path fill="none" stroke="midnightblue" d="M2077.28,-59.2806C2074.14,-58.8045 2071.03,-58.3705 2068,-58 1804.59,-25.7786 1736.07,-48.2732 1472,-22 1466.05,-21.4077 1459.83,-20.6918 1453.65,-19.9185"/>
<polygon fill="midnightblue" stroke="midnightblue" points="1453.71,-16.3965 1443.34,-18.5744 1452.8,-23.3377 1453.71,-16.3965"/>
</g>
<!-- Node67 -->
<g id="node34" class="node"><title>Node67</title>
<g id="a_node34"><a xlink:href="_activation_api_contexts_8hpp.html" target="_top" xlink:title=" ">
<polygon fill="white" stroke="black" points="1480.63,-1 1480.63,-21 1613.37,-21 1613.37,-1 1480.63,-1"/>
<text text-anchor="middle" x="1547" y="-7" font-family="Helvetica,sans-Serif" font-size="10.00">ActivationApiContexts.hpp</text>
</a>
</g>
</g>
<!-- Node42&#45;&gt;Node67 -->
<g id="edge36" class="edge"><title>Node42&#45;&gt;Node67</title>
<path fill="none" stroke="midnightblue" d="M2077.27,-59.3508C2074.14,-58.8581 2071.02,-58.401 2068,-58 1874.13,-32.2938 1821.48,-42.7841 1623.39,-22.0956"/>
<polygon fill="midnightblue" stroke="midnightblue" points="1623.54,-18.5925 1613.23,-21.0208 1622.81,-25.5536 1623.54,-18.5925"/>
</g>
<!-- Node68 -->
<g id="node35" class="node"><title>Node68</title>
<g id="a_node35"><a xlink:title=" ">
<polygon fill="white" stroke="#bfbfbf" points="2127.47,-1 2127.47,-21 2210.53,-21 2210.53,-1 2127.47,-1"/>
<text text-anchor="middle" x="2169" y="-7" font-family="Helvetica,sans-Serif" font-size="10.00">SysActivity.hpp</text>
</a>
</g>
</g>
<!-- Node42&#45;&gt;Node68 -->
<g id="edge38" class="edge"><title>Node42&#45;&gt;Node68</title>
<path fill="none" stroke="midnightblue" d="M2129.76,-58.7527C2136.54,-50.6796 2146.54,-38.7571 2154.76,-28.9727"/>
<polygon fill="midnightblue" stroke="midnightblue" points="2157.64,-30.985 2161.38,-21.0752 2152.27,-26.4849 2157.64,-30.985"/>
</g>
<!-- Node65&#45;&gt;Node7 -->
<g id="edge35" class="edge"><title>Node65&#45;&gt;Node7</title>
<path fill="none" stroke="midnightblue" d="M1397.2,-21.0031C1392.19,-35.6451 1380.24,-64.5336 1360,-80 1323.93,-107.555 1272.47,-118.616 1235.83,-123.049"/>
<polygon fill="midnightblue" stroke="midnightblue" points="1235,-119.618 1225.44,-124.178 1235.76,-126.577 1235,-119.618"/>
</g>
<!-- Node67&#45;&gt;Node7 -->
<g id="edge37" class="edge"><title>Node67&#45;&gt;Node7</title>
<path fill="none" stroke="midnightblue" d="M1547.22,-21.1242C1547.05,-35.9404 1544.35,-65.0736 1527,-80 1484.23,-116.792 1317.19,-124.278 1235.92,-125.716"/>
<polygon fill="midnightblue" stroke="midnightblue" points="1235.45,-122.223 1225.51,-125.875 1235.56,-129.222 1235.45,-122.223"/>
</g>
<!-- Node52&#45;&gt;Node53 -->
<g id="edge42" class="edge"><title>Node52&#45;&gt;Node53</title>
<path fill="none" stroke="midnightblue" d="M213.38,-174.671C189.024,-155.118 132.405,-109.664 102.427,-85.596"/>
<polygon fill="midnightblue" stroke="midnightblue" points="104.373,-82.6705 94.3842,-79.1394 99.991,-88.1291 104.373,-82.6705"/>
</g>
<!-- Node55 -->
<g id="node39" class="node"><title>Node55</title>
<g id="a_node39"><a xlink:href="_integer_class_8hpp.html" target="_top" xlink:title=" ">
<polygon fill="white" stroke="black" points="38.1997,-117 38.1997,-137 129.8,-137 129.8,-117 38.1997,-117"/>
<text text-anchor="middle" x="84" y="-123" font-family="Helvetica,sans-Serif" font-size="10.00">IntegerClass.hpp</text>
</a>
</g>
</g>
<!-- Node52&#45;&gt;Node55 -->
<g id="edge43" class="edge"><title>Node52&#45;&gt;Node55</title>
<path fill="none" stroke="midnightblue" d="M202.032,-174.878C178.782,-165.644 142.623,-151.283 116.452,-140.889"/>
<polygon fill="midnightblue" stroke="midnightblue" points="117.544,-137.556 106.958,-137.118 114.96,-144.062 117.544,-137.556"/>
</g>
<!-- Node52&#45;&gt;Node56 -->
<g id="edge45" class="edge"><title>Node52&#45;&gt;Node56</title>
<path fill="none" stroke="midnightblue" d="M268.479,-178.529C352.015,-168.016 534.386,-145.066 621.628,-134.087"/>
<polygon fill="midnightblue" stroke="midnightblue" points="622.297,-137.531 631.782,-132.809 621.423,-130.585 622.297,-137.531"/>
</g>
<!-- Node57 -->
<g id="node41" class="node"><title>Node57</title>
<g id="a_node41"><a xlink:href="_utilities_8hpp.html" target="_top" xlink:title=" ">
<polygon fill="white" stroke="red" points="191.155,-117 191.155,-137 258.845,-137 258.845,-117 191.155,-117"/>
<text text-anchor="middle" x="225" y="-123" font-family="Helvetica,sans-Serif" font-size="10.00">Utilities.hpp</text>
</a>
</g>
</g>
<!-- Node52&#45;&gt;Node57 -->
<g id="edge46" class="edge"><title>Node52&#45;&gt;Node57</title>
<path fill="none" stroke="midnightblue" d="M225,-174.753C225,-167.25 225,-156.424 225,-147.078"/>
<polygon fill="midnightblue" stroke="midnightblue" points="228.5,-147.075 225,-137.075 221.5,-147.075 228.5,-147.075"/>
</g>
<!-- Node55&#45;&gt;Node53 -->
<g id="edge44" class="edge"><title>Node55&#45;&gt;Node53</title>
<path fill="none" stroke="midnightblue" d="M83.8349,-116.753C83.7009,-109.25 83.5076,-98.4238 83.3407,-89.0781"/>
<polygon fill="midnightblue" stroke="midnightblue" points="86.8401,-89.0111 83.1621,-79.0752 79.8413,-89.1361 86.8401,-89.0111"/>
</g>
<!-- Node57&#45;&gt;Node9 -->
<g id="edge47" class="edge"><title>Node57&#45;&gt;Node9</title>
<path fill="none" stroke="midnightblue" d="M214.302,-116.91C199.067,-102.904 174.681,-75.808 191,-58 224.451,-21.4955 576.098,-13.8433 685.021,-12.344"/>
<polygon fill="midnightblue" stroke="midnightblue" points="685.12,-15.8432 695.074,-12.2139 685.03,-8.84374 685.12,-15.8432"/>
</g>
<!-- Node57&#45;&gt;Node16 -->
<g id="edge48" class="edge"><title>Node57&#45;&gt;Node16</title>
<path fill="none" stroke="midnightblue" d="M225.165,-116.753C225.299,-109.25 225.492,-98.4238 225.659,-89.0781"/>
<polygon fill="midnightblue" stroke="midnightblue" points="229.159,-89.1361 225.838,-79.0752 222.16,-89.0111 229.159,-89.1361"/>
</g>
<!-- Node71&#45;&gt;Node28 -->
<g id="edge50" class="edge"><title>Node71&#45;&gt;Node28</title>
<path fill="none" stroke="midnightblue" d="M42.1752,-174.676C24.2746,-152.177 -15.9595,-94.1013 13,-58 31.016,-35.5409 104.296,-23.3539 158.581,-17.2711"/>
<polygon fill="midnightblue" stroke="midnightblue" points="159.252,-20.7192 168.82,-16.1699 158.503,-13.7593 159.252,-20.7192"/>
</g>
<!-- Node72&#45;&gt;Node47 -->
<g id="edge52" class="edge"><title>Node72&#45;&gt;Node47</title>
<path fill="none" stroke="midnightblue" d="M1889.86,-238.187C1943.44,-232.996 2029.63,-221.273 2100,-196 2223.51,-151.64 2354.88,-62.4064 2404.47,-26.9858"/>
<polygon fill="midnightblue" stroke="midnightblue" points="2406.68,-29.7032 2412.76,-21.0211 2402.6,-24.0216 2406.68,-29.7032"/>
</g>
<!-- Node73 -->
<g id="node44" class="node"><title>Node73</title>
<g id="a_node44"><a xlink:href="_do_block_8hpp.html" target="_top" xlink:title=" ">
<polygon fill="white" stroke="black" points="1802.65,-175 1802.65,-195 1875.35,-195 1875.35,-175 1802.65,-175"/>
<text text-anchor="middle" x="1839" y="-181" font-family="Helvetica,sans-Serif" font-size="10.00">DoBlock.hpp</text>
</a>
</g>
</g>
<!-- Node72&#45;&gt;Node73 -->
<g id="edge53" class="edge"><title>Node72&#45;&gt;Node73</title>
<path fill="none" stroke="midnightblue" d="M1839,-232.753C1839,-225.25 1839,-214.424 1839,-205.078"/>
<polygon fill="midnightblue" stroke="midnightblue" points="1842.5,-205.075 1839,-195.075 1835.5,-205.075 1842.5,-205.075"/>
</g>
<!-- Node72&#45;&gt;Node49 -->
<g id="edge54" class="edge"><title>Node72&#45;&gt;Node49</title>
<path fill="none" stroke="midnightblue" d="M1852.22,-232.923C1890.22,-206.966 1999.49,-133.195 2039,-116 2096.33,-91.049 2117.32,-104.141 2175,-80 2193.45,-72.2762 2239.25,-44.0864 2267.17,-26.5187"/>
<polygon fill="midnightblue" stroke="midnightblue" points="2269.3,-29.3129 2275.88,-21.0131 2265.56,-23.3949 2269.3,-29.3129"/>
</g>
<!-- Node74 -->
<g id="node45" class="node"><title>Node74</title>
<g id="a_node45"><a xlink:href="_rexx_date_time_8hpp.html" target="_top" xlink:title=" ">
<polygon fill="white" stroke="black" points="1382.39,-175 1382.39,-195 1483.61,-195 1483.61,-175 1382.39,-175"/>
<text text-anchor="middle" x="1433" y="-181" font-family="Helvetica,sans-Serif" font-size="10.00">RexxDateTime.hpp</text>
</a>
</g>
</g>
<!-- Node72&#45;&gt;Node74 -->
<g id="edge55" class="edge"><title>Node72&#45;&gt;Node74</title>
<path fill="none" stroke="midnightblue" d="M1787.99,-234.964C1713.14,-224.64 1573.77,-205.417 1493.73,-194.377"/>
<polygon fill="midnightblue" stroke="midnightblue" points="1494.18,-190.906 1483.8,-193.007 1493.23,-197.841 1494.18,-190.906"/>
</g>
<!-- Node75 -->
<g id="node46" class="node"><title>Node75</title>
<g id="a_node46"><a xlink:href="_rexx_code_8hpp.html" target="_top" xlink:title=" ">
<polygon fill="white" stroke="red" points="1702.92,-175 1702.92,-195 1785.08,-195 1785.08,-175 1702.92,-175"/>
<text text-anchor="middle" x="1744" y="-181" font-family="Helvetica,sans-Serif" font-size="10.00">RexxCode.hpp</text>
</a>
</g>
</g>
<!-- Node72&#45;&gt;Node75 -->
<g id="edge57" class="edge"><title>Node72&#45;&gt;Node75</title>
<path fill="none" stroke="midnightblue" d="M1823.31,-232.753C1808.37,-223.946 1785.66,-210.558 1768.36,-200.362"/>
<polygon fill="midnightblue" stroke="midnightblue" points="1769.79,-197.138 1759.4,-195.075 1766.23,-203.169 1769.79,-197.138"/>
</g>
<!-- Node72&#45;&gt;Node69 -->
<g id="edge58" class="edge"><title>Node72&#45;&gt;Node69</title>
<path fill="none" stroke="midnightblue" d="M1787.76,-236.789C1736.33,-229.34 1668.16,-212.074 1694,-174 1722.74,-131.654 1864.23,-97.6151 1946.47,-81.015"/>
<polygon fill="midnightblue" stroke="midnightblue" points="1947.31,-84.4157 1956.43,-79.0296 1945.94,-77.5506 1947.31,-84.4157"/>
</g>
<!-- Node72&#45;&gt;Node84 -->
<g id="edge59" class="edge"><title>Node72&#45;&gt;Node84</title>
<path fill="none" stroke="midnightblue" d="M1870.11,-232.878C1902.67,-223.331 1953.93,-208.303 1989.6,-197.845"/>
<polygon fill="midnightblue" stroke="midnightblue" points="1990.61,-201.198 1999.22,-195.025 1988.64,-194.48 1990.61,-201.198"/>
</g>
<!-- Node85 -->
<g id="node49" class="node"><title>Node85</title>
<g id="a_node49"><a xlink:href="_context_class_8hpp.html" target="_top" xlink:title=" ">
<polygon fill="white" stroke="black" points="1848.53,-117 1848.53,-137 1943.47,-137 1943.47,-117 1848.53,-117"/>
<text text-anchor="middle" x="1896" y="-123" font-family="Helvetica,sans-Serif" font-size="10.00">ContextClass.hpp</text>
</a>
</g>
</g>
<!-- Node72&#45;&gt;Node85 -->
<g id="edge63" class="edge"><title>Node72&#45;&gt;Node85</title>
<path fill="none" stroke="midnightblue" d="M1851.4,-232.872C1861.83,-224.49 1876.24,-211.105 1884,-196 1891.78,-180.855 1894.62,-161.584 1895.61,-147.427"/>
<polygon fill="midnightblue" stroke="midnightblue" points="1899.11,-147.493 1896.06,-137.346 1892.12,-147.179 1899.11,-147.493"/>
</g>
<!-- Node74&#45;&gt;Node7 -->
<g id="edge56" class="edge"><title>Node74&#45;&gt;Node7</title>
<path fill="none" stroke="midnightblue" d="M1393.85,-174.94C1350.57,-164.925 1280.99,-148.824 1235.63,-138.328"/>
<polygon fill="midnightblue" stroke="midnightblue" points="1236.31,-134.892 1225.78,-136.047 1234.73,-141.712 1236.31,-134.892"/>
</g>
<!-- Node84&#45;&gt;Node81 -->
<g id="edge60" class="edge"><title>Node84&#45;&gt;Node81</title>
<path fill="none" stroke="midnightblue" d="M2041.89,-174.753C2052.9,-166.19 2069.47,-153.298 2082.43,-143.219"/>
<polygon fill="midnightblue" stroke="midnightblue" points="2084.59,-145.977 2090.33,-137.075 2080.29,-140.452 2084.59,-145.977"/>
</g>
<!-- Node81&#45;&gt;Node42 -->
<g id="edge61" class="edge"><title>Node81&#45;&gt;Node42</title>
<path fill="none" stroke="midnightblue" d="M2105.3,-116.753C2108.01,-109.169 2111.93,-98.1881 2115.3,-88.7739"/>
<polygon fill="midnightblue" stroke="midnightblue" points="2118.69,-89.6698 2118.76,-79.0752 2112.1,-87.3154 2118.69,-89.6698"/>
</g>
<!-- Node81&#45;&gt;Node69 -->
<g id="edge62" class="edge"><title>Node81&#45;&gt;Node69</title>
<path fill="none" stroke="midnightblue" d="M2086.15,-116.753C2071.05,-107.946 2048.1,-94.5575 2030.62,-84.3617"/>
<polygon fill="midnightblue" stroke="midnightblue" points="2031.96,-81.0907 2021.56,-79.0752 2028.43,-87.1372 2031.96,-81.0907"/>
</g>
<!-- Node85&#45;&gt;Node24 -->
<g id="edge64" class="edge"><title>Node85&#45;&gt;Node24</title>
<path fill="none" stroke="midnightblue" d="M1895.01,-116.753C1894.21,-109.25 1893.05,-98.4238 1892.04,-89.0781"/>
<polygon fill="midnightblue" stroke="midnightblue" points="1895.52,-88.6454 1890.97,-79.0752 1888.56,-89.3912 1895.52,-88.6454"/>
</g>
</g>
</svg>
