<?xml version="1.0" encoding="UTF-8" standalone="no"?>
<!DOCTYPE svg PUBLIC "-//W3C//DTD SVG 1.1//EN"
 "http://www.w3.org/Graphics/SVG/1.1/DTD/svg11.dtd">
<!-- Generated by graphviz version 2.30.1 (20130222.1704)
 -->
<!-- Title: LocalAPISubsystem Pages: 1 -->
<svg width="420pt" height="88pt"
 viewBox="0.00 0.00 420.00 88.00" xmlns="http://www.w3.org/2000/svg" xmlns:xlink="http://www.w3.org/1999/xlink">
<g id="graph0" class="graph" transform="scale(1 1) rotate(0) translate(4 84)">
<title>LocalAPISubsystem</title>
<polygon fill="white" stroke="white" points="-4,5 -4,-84 417,-84 417,5 -4,5"/>
<!-- Node1 -->
<g id="node1" class="node"><title>Node1</title>
<g id="a_node1"><a xlink:title=" ">
<polygon fill="#bfbfbf" stroke="black" points="154.256,-59 154.256,-79 259.744,-79 259.744,-59 154.256,-59"/>
<text text-anchor="middle" x="207" y="-65" font-family="Helvetica,sans-Serif" font-size="10.00">LocalAPISubsystem</text>
</a>
</g>
</g>
<!-- Node2 -->
<g id="node2" class="node"><title>Node2</title>
<g id="a_node2"><a xlink:href="class_local_macro_space_manager.html" target="_top" xlink:title=" ">
<polygon fill="white" stroke="black" points="-0.755859,-1 -0.755859,-21 134.756,-21 134.756,-1 -0.755859,-1"/>
<text text-anchor="middle" x="67" y="-7" font-family="Helvetica,sans-Serif" font-size="10.00">LocalMacroSpaceManager</text>
</a>
</g>
</g>
<!-- Node1&#45;&gt;Node2 -->
<g id="edge1" class="edge"><title>Node1&#45;&gt;Node2</title>
<path fill="none" stroke="midnightblue" d="M174.767,-55.1069C148.779,-44.7114 112.876,-30.3505 89.7952,-21.1181"/>
<polygon fill="midnightblue" stroke="midnightblue" points="173.61,-58.4137 184.195,-58.878 176.21,-51.9144 173.61,-58.4137"/>
</g>
<!-- Node3 -->
<g id="node3" class="node"><title>Node3</title>
<g id="a_node3"><a xlink:href="class_local_queue_manager.html" target="_top" xlink:title=" ">
<polygon fill="white" stroke="black" points="152.301,-1 152.301,-21 261.699,-21 261.699,-1 152.301,-1"/>
<text text-anchor="middle" x="207" y="-7" font-family="Helvetica,sans-Serif" font-size="10.00">LocalQueueManager</text>
</a>
</g>
</g>
<!-- Node1&#45;&gt;Node3 -->
<g id="edge2" class="edge"><title>Node1&#45;&gt;Node3</title>
<path fill="none" stroke="midnightblue" d="M207,-48.7065C207,-39.3384 207,-28.5262 207,-21.0752"/>
<polygon fill="midnightblue" stroke="midnightblue" points="203.5,-48.7527 207,-58.7527 210.5,-48.7528 203.5,-48.7527"/>
</g>
<!-- Node4 -->
<g id="node4" class="node"><title>Node4</title>
<g id="a_node4"><a xlink:href="class_local_registration_manager.html" target="_top" xlink:title=" ">
<polygon fill="white" stroke="black" points="279.633,-1 279.633,-21 412.367,-21 412.367,-1 279.633,-1"/>
<text text-anchor="middle" x="346" y="-7" font-family="Helvetica,sans-Serif" font-size="10.00">LocalRegistrationManager</text>
</a>
</g>
</g>
<!-- Node1&#45;&gt;Node4 -->
<g id="edge3" class="edge"><title>Node1&#45;&gt;Node4</title>
<path fill="none" stroke="midnightblue" d="M239.002,-55.1069C264.806,-44.7114 300.451,-30.3505 323.368,-21.1181"/>
<polygon fill="midnightblue" stroke="midnightblue" points="237.61,-51.8946 229.642,-58.878 240.226,-58.3875 237.61,-51.8946"/>
</g>
</g>
</svg>
