<?xml version="1.0" encoding="UTF-8" standalone="no"?>
<!DOCTYPE svg PUBLIC "-//W3C//DTD SVG 1.1//EN"
 "http://www.w3.org/Graphics/SVG/1.1/DTD/svg11.dtd">
<!-- Generated by graphviz version 2.30.1 (20130222.1704)
 -->
<!-- Title: BaseExecutable Pages: 1 -->
<svg width="173pt" height="262pt"
 viewBox="0.00 0.00 173.00 262.00" xmlns="http://www.w3.org/2000/svg" xmlns:xlink="http://www.w3.org/1999/xlink">
<g id="graph0" class="graph" transform="scale(1 1) rotate(0) translate(4 258)">
<title>BaseExecutable</title>
<polygon fill="white" stroke="white" points="-4,5 -4,-258 170,-258 170,5 -4,5"/>
<!-- Node1 -->
<g id="node1" class="node"><title>Node1</title>
<g id="a_node1"><a xlink:title=" ">
<polygon fill="#bfbfbf" stroke="black" points="37.8647,-59 37.8647,-79 126.135,-79 126.135,-59 37.8647,-59"/>
<text text-anchor="middle" x="82" y="-65" font-family="Helvetica,sans-Serif" font-size="10.00">BaseExecutable</text>
</a>
</g>
</g>
<!-- Node5 -->
<g id="node5" class="node"><title>Node5</title>
<g id="a_node5"><a xlink:href="class_rexx_method.html" target="_top" xlink:title=" ">
<polygon fill="white" stroke="black" points="-0.0688477,-1 -0.0688477,-21 72.0688,-21 72.0688,-1 -0.0688477,-1"/>
<text text-anchor="middle" x="36" y="-7" font-family="Helvetica,sans-Serif" font-size="10.00">RexxMethod</text>
</a>
</g>
</g>
<!-- Node1&#45;&gt;Node5 -->
<g id="edge4" class="edge"><title>Node1&#45;&gt;Node5</title>
<path fill="none" stroke="midnightblue" d="M67.886,-50.8177C59.824,-41.0032 50.0408,-29.0932 43.4546,-21.0752"/>
<polygon fill="midnightblue" stroke="midnightblue" points="65.3521,-53.2471 74.404,-58.7527 70.7612,-48.8039 65.3521,-53.2471"/>
</g>
<!-- Node6 -->
<g id="node6" class="node"><title>Node6</title>
<g id="a_node6"><a xlink:href="class_routine_class.html" target="_top" xlink:title=" ">
<polygon fill="white" stroke="black" points="90.2637,-1 90.2637,-21 165.736,-21 165.736,-1 90.2637,-1"/>
<text text-anchor="middle" x="128" y="-7" font-family="Helvetica,sans-Serif" font-size="10.00">RoutineClass</text>
</a>
</g>
</g>
<!-- Node1&#45;&gt;Node6 -->
<g id="edge5" class="edge"><title>Node1&#45;&gt;Node6</title>
<path fill="none" stroke="midnightblue" d="M96.114,-50.8177C104.176,-41.0032 113.959,-29.0932 120.545,-21.0752"/>
<polygon fill="midnightblue" stroke="midnightblue" points="93.2388,-48.8039 89.596,-58.7527 98.6479,-53.2471 93.2388,-48.8039"/>
</g>
<!-- Node2 -->
<g id="node2" class="node"><title>Node2</title>
<g id="a_node2"><a xlink:href="class_rexx_object.html" target="_top" xlink:title=" ">
<polygon fill="white" stroke="black" points="48.1577,-117 48.1577,-137 115.842,-137 115.842,-117 48.1577,-117"/>
<text text-anchor="middle" x="82" y="-123" font-family="Helvetica,sans-Serif" font-size="10.00">RexxObject</text>
</a>
</g>
</g>
<!-- Node2&#45;&gt;Node1 -->
<g id="edge1" class="edge"><title>Node2&#45;&gt;Node1</title>
<path fill="none" stroke="midnightblue" d="M82,-106.707C82,-97.3384 82,-86.5262 82,-79.0752"/>
<polygon fill="midnightblue" stroke="midnightblue" points="78.5001,-106.753 82,-116.753 85.5001,-106.753 78.5001,-106.753"/>
</g>
<!-- Node3 -->
<g id="node3" class="node"><title>Node3</title>
<g id="a_node3"><a xlink:href="class_rexx_internal_object.html" target="_top" xlink:title=" ">
<polygon fill="white" stroke="black" points="31.4805,-175 31.4805,-195 132.52,-195 132.52,-175 31.4805,-175"/>
<text text-anchor="middle" x="82" y="-181" font-family="Helvetica,sans-Serif" font-size="10.00">RexxInternalObject</text>
</a>
</g>
</g>
<!-- Node3&#45;&gt;Node2 -->
<g id="edge2" class="edge"><title>Node3&#45;&gt;Node2</title>
<path fill="none" stroke="midnightblue" d="M82,-164.707C82,-155.338 82,-144.526 82,-137.075"/>
<polygon fill="midnightblue" stroke="midnightblue" points="78.5001,-164.753 82,-174.753 85.5001,-164.753 78.5001,-164.753"/>
</g>
<!-- Node4 -->
<g id="node4" class="node"><title>Node4</title>
<g id="a_node4"><a xlink:href="class_rexx_virtual_base.html" target="_top" xlink:title=" ">
<polygon fill="white" stroke="black" points="37.1274,-233 37.1274,-253 126.873,-253 126.873,-233 37.1274,-233"/>
<text text-anchor="middle" x="82" y="-239" font-family="Helvetica,sans-Serif" font-size="10.00">RexxVirtualBase</text>
</a>
</g>
</g>
<!-- Node4&#45;&gt;Node3 -->
<g id="edge3" class="edge"><title>Node4&#45;&gt;Node3</title>
<path fill="none" stroke="midnightblue" d="M82,-222.707C82,-213.338 82,-202.526 82,-195.075"/>
<polygon fill="midnightblue" stroke="midnightblue" points="78.5001,-222.753 82,-232.753 85.5001,-222.753 78.5001,-222.753"/>
</g>
</g>
</svg>
