<?xml version="1.0" encoding="UTF-8" standalone="no"?>
<!DOCTYPE svg PUBLIC "-//W3C//DTD SVG 1.1//EN"
 "http://www.w3.org/Graphics/SVG/1.1/DTD/svg11.dtd">
<!-- Generated by graphviz version 2.30.1 (20130222.1704)
 -->
<!-- Title: windows Pages: 1 -->
<svg width="182pt" height="160pt"
 viewBox="0.00 0.00 182.00 160.00" xmlns="http://www.w3.org/2000/svg" xmlns:xlink="http://www.w3.org/1999/xlink">
<g id="graph0" class="graph" transform="scale(1 1) rotate(0) translate(4 156)">
<title>windows</title>
<polygon fill="white" stroke="white" points="-4,5 -4,-156 179,-156 179,5 -4,5"/>
<g id="clust1" class="cluster"><title>clusterdir_e0d02a1fad55735a61049d22c0c72dff</title>
<g id="a_clust1"><a xlink:href="dir_e0d02a1fad55735a61049d22c0c72dff.html" target="_top" xlink:title="platform">
<polygon fill="#ddddee" stroke="black" points="8,-56 8,-144 166,-144 166,-56 8,-56"/>
<text text-anchor="middle" x="87" y="-130" font-family="Helvetica,sans-Serif" font-size="10.00">platform</text>
</a>
</g>
</g>
<g id="clust2" class="cluster"><title>clusterdir_5181161d942f53de53ce227b615c6f54</title>
<g id="a_clust2"><a xlink:href="dir_5181161d942f53de53ce227b615c6f54.html" target="_top">
<polygon fill="#eeeeff" stroke="black" points="16,-64 16,-116 158,-116 158,-64 16,-64"/>
</a>
</g>
</g>
<!-- dir_5181161d942f53de53ce227b615c6f54 -->
<g id="node1" class="node"><title>dir_5181161d942f53de53ce227b615c6f54</title>
<text text-anchor="middle" x="123" y="-86" font-family="Helvetica,sans-Serif" font-size="10.00">windows</text>
</g>
<!-- dir_9abf806aa5191df25af53dab6c77cef2 -->
<g id="node2" class="node"><title>dir_9abf806aa5191df25af53dab6c77cef2</title>
<g id="a_node2"><a xlink:href="dir_9abf806aa5191df25af53dab6c77cef2.html" target="_top" xlink:title="rxwinsys">
<polygon fill="white" stroke="black" points="78.2517,-108 23.7483,-108 23.7483,-72 78.2517,-72 78.2517,-108"/>
<text text-anchor="middle" x="51" y="-86" font-family="Helvetica,sans-Serif" font-size="10.00">rxwinsys</text>
</a>
</g>
</g>
<!-- dir_362247ee011c51bb6078fba078fa4338 -->
<g id="node3" class="node"><title>dir_362247ee011c51bb6078fba078fa4338</title>
<g id="a_node3"><a xlink:href="dir_362247ee011c51bb6078fba078fa4338.html" target="_top" xlink:title="api">
<polygon fill="white" stroke="red" points="78,-36 24,-36 24,-0 78,-0 78,-36"/>
<text text-anchor="middle" x="51" y="-14" font-family="Helvetica,sans-Serif" font-size="10.00">api</text>
</a>
</g>
</g>
<!-- dir_9abf806aa5191df25af53dab6c77cef2&#45;&gt;dir_362247ee011c51bb6078fba078fa4338 -->
<g id="edge1" class="edge"><title>dir_9abf806aa5191df25af53dab6c77cef2&#45;&gt;dir_362247ee011c51bb6078fba078fa4338</title>
<path fill="none" stroke="black" d="M51,-71.6966C51,-63.9827 51,-54.7125 51,-46.1124"/>
<polygon fill="black" stroke="black" points="54.5001,-46.1043 51,-36.1043 47.5001,-46.1044 54.5001,-46.1043"/>
<g id="a_edge1&#45;headlabel"><a xlink:href="dir_000098_000048.html" target="_top" xlink:title="1">
<text text-anchor="middle" x="57.3393" y="-45.699" font-family="Helvetica,sans-Serif" font-size="10.00">1</text>
</a>
</g>
</g>
</g>
</svg>
