<?xml version="1.0" encoding="UTF-8" standalone="no"?>
<!DOCTYPE svg PUBLIC "-//W3C//DTD SVG 1.1//EN"
 "http://www.w3.org/Graphics/SVG/1.1/DTD/svg11.dtd">
<!-- Generated by graphviz version 2.30.1 (20130222.1704)
 -->
<!-- Title: unix Pages: 1 -->
<svg width="326pt" height="112pt"
 viewBox="0.00 0.00 326.00 112.00" xmlns="http://www.w3.org/2000/svg" xmlns:xlink="http://www.w3.org/1999/xlink">
<g id="graph0" class="graph" transform="scale(1 1) rotate(0) translate(4 108)">
<title>unix</title>
<polygon fill="white" stroke="white" points="-4,5 -4,-108 323,-108 323,5 -4,5"/>
<g id="clust1" class="cluster"><title>clusterdir_13cb2cbdce732fc584953b347d2f47e5</title>
<g id="a_clust1"><a xlink:href="dir_13cb2cbdce732fc584953b347d2f47e5.html" target="_top" xlink:title="platform">
<polygon fill="#ddddee" stroke="black" points="8,-8 8,-96 310,-96 310,-8 8,-8"/>
<text text-anchor="middle" x="159" y="-82" font-family="Helvetica,sans-Serif" font-size="10.00">platform</text>
</a>
</g>
</g>
<g id="clust2" class="cluster"><title>clusterdir_d65bd497f032015f7c0197b97e11a507</title>
<g id="a_clust2"><a xlink:href="dir_d65bd497f032015f7c0197b97e11a507.html" target="_top">
<polygon fill="#eeeeff" stroke="black" points="16,-16 16,-68 302,-68 302,-16 16,-16"/>
</a>
</g>
</g>
<!-- dir_d65bd497f032015f7c0197b97e11a507 -->
<g id="node1" class="node"><title>dir_d65bd497f032015f7c0197b97e11a507</title>
<text text-anchor="middle" x="267" y="-38" font-family="Helvetica,sans-Serif" font-size="10.00">unix</text>
</g>
<!-- dir_26f4d1374ccd09569c8e4abb4e7b5d6d -->
<g id="node2" class="node"><title>dir_26f4d1374ccd09569c8e4abb4e7b5d6d</title>
<g id="a_node2"><a xlink:href="dir_26f4d1374ccd09569c8e4abb4e7b5d6d.html" target="_top" xlink:title="aix">
<polygon fill="white" stroke="black" points="222,-60 168,-60 168,-24 222,-24 222,-60"/>
<text text-anchor="middle" x="195" y="-38" font-family="Helvetica,sans-Serif" font-size="10.00">aix</text>
</a>
</g>
</g>
<!-- dir_a81a45166b06ba94d3959e92b1ff6b7c -->
<g id="node3" class="node"><title>dir_a81a45166b06ba94d3959e92b1ff6b7c</title>
<g id="a_node3"><a xlink:href="dir_a81a45166b06ba94d3959e92b1ff6b7c.html" target="_top" xlink:title="linux">
<polygon fill="white" stroke="black" points="150,-60 96,-60 96,-24 150,-24 150,-60"/>
<text text-anchor="middle" x="123" y="-38" font-family="Helvetica,sans-Serif" font-size="10.00">linux</text>
</a>
</g>
</g>
<!-- dir_ed2f09e8432e53eb7272981fc9969b5d -->
<g id="node4" class="node"><title>dir_ed2f09e8432e53eb7272981fc9969b5d</title>
<g id="a_node4"><a xlink:href="dir_ed2f09e8432e53eb7272981fc9969b5d.html" target="_top" xlink:title="mac">
<polygon fill="white" stroke="black" points="78,-60 24,-60 24,-24 78,-24 78,-60"/>
<text text-anchor="middle" x="51" y="-38" font-family="Helvetica,sans-Serif" font-size="10.00">mac</text>
</a>
</g>
</g>
</g>
</svg>
