<?xml version="1.0" encoding="UTF-8" standalone="no"?>
<!DOCTYPE svg PUBLIC "-//W3C//DTD SVG 1.1//EN"
 "http://www.w3.org/Graphics/SVG/1.1/DTD/svg11.dtd">
<!-- Generated by graphviz version 2.30.1 (20130222.1704)
 -->
<!-- Title: rxqueue Pages: 1 -->
<svg width="182pt" height="232pt"
 viewBox="0.00 0.00 182.00 232.00" xmlns="http://www.w3.org/2000/svg" xmlns:xlink="http://www.w3.org/1999/xlink">
<g id="graph0" class="graph" transform="scale(1 1) rotate(0) translate(4 228)">
<title>rxqueue</title>
<polygon fill="white" stroke="white" points="-4,5 -4,-228 179,-228 179,5 -4,5"/>
<g id="clust1" class="cluster"><title>clusterdir_630c930afd4dd0839e4ef6615e85b6db</title>
<g id="a_clust1"><a xlink:href="dir_630c930afd4dd0839e4ef6615e85b6db.html" target="_top" xlink:title="utilities">
<polygon fill="#ddddee" stroke="black" points="8,-128 8,-216 166,-216 166,-128 8,-128"/>
<text text-anchor="middle" x="87" y="-202" font-family="Helvetica,sans-Serif" font-size="10.00">utilities</text>
</a>
</g>
</g>
<g id="clust2" class="cluster"><title>clusterdir_9a000d10f37a62a561d1c5071848bb72</title>
<g id="a_clust2"><a xlink:href="dir_9a000d10f37a62a561d1c5071848bb72.html" target="_top">
<polygon fill="#eeeeff" stroke="black" points="16,-136 16,-188 158,-188 158,-136 16,-136"/>
</a>
</g>
</g>
<!-- dir_9a000d10f37a62a561d1c5071848bb72 -->
<g id="node1" class="node"><title>dir_9a000d10f37a62a561d1c5071848bb72</title>
<text text-anchor="middle" x="123" y="-158" font-family="Helvetica,sans-Serif" font-size="10.00">rxqueue</text>
</g>
<!-- dir_3090708b3f70e53761ae3b78f758dc5b -->
<g id="node2" class="node"><title>dir_3090708b3f70e53761ae3b78f758dc5b</title>
<g id="a_node2"><a xlink:href="dir_3090708b3f70e53761ae3b78f758dc5b.html" target="_top" xlink:title="platform">
<polygon fill="white" stroke="red" points="78,-180 24,-180 24,-144 78,-144 78,-180"/>
<text text-anchor="middle" x="51" y="-158" font-family="Helvetica,sans-Serif" font-size="10.00">platform</text>
</a>
</g>
</g>
<!-- dir_362247ee011c51bb6078fba078fa4338 -->
<g id="node3" class="node"><title>dir_362247ee011c51bb6078fba078fa4338</title>
<g id="a_node3"><a xlink:href="dir_362247ee011c51bb6078fba078fa4338.html" target="_top" xlink:title="api">
<polygon fill="white" stroke="red" points="78,-36 24,-36 24,-0 78,-0 78,-36"/>
<text text-anchor="middle" x="51" y="-14" font-family="Helvetica,sans-Serif" font-size="10.00">api</text>
</a>
</g>
</g>
<!-- dir_3090708b3f70e53761ae3b78f758dc5b&#45;&gt;dir_362247ee011c51bb6078fba078fa4338 -->
<g id="edge1" class="edge"><title>dir_3090708b3f70e53761ae3b78f758dc5b&#45;&gt;dir_362247ee011c51bb6078fba078fa4338</title>
<path fill="none" stroke="black" d="M46.9409,-143.929C44.6944,-133.598 42.1334,-120.12 41,-108 39.5103,-92.0695 39.5103,-87.9305 41,-72 41.7969,-63.4781 43.2996,-54.2849 44.9025,-45.9862"/>
<polygon fill="black" stroke="black" points="48.3555,-46.5708 46.9409,-36.0708 41.4989,-45.1612 48.3555,-46.5708"/>
<g id="a_edge1&#45;headlabel"><a xlink:href="dir_000086_000048.html" target="_top" xlink:title="2">
<text text-anchor="middle" x="50.4129" y="-46.6635" font-family="Helvetica,sans-Serif" font-size="10.00">2</text>
</a>
</g>
</g>
<!-- dir_568b253ddbf98cea92a6c65945d41c59 -->
<g id="node4" class="node"><title>dir_568b253ddbf98cea92a6c65945d41c59</title>
<g id="a_node4"><a xlink:href="dir_568b253ddbf98cea92a6c65945d41c59.html" target="_top" xlink:title="interpreter">
<polygon fill="white" stroke="red" points="111.186,-108 50.8137,-108 50.8137,-72 111.186,-72 111.186,-108"/>
<text text-anchor="middle" x="81" y="-86" font-family="Helvetica,sans-Serif" font-size="10.00">interpreter</text>
</a>
</g>
</g>
<!-- dir_3090708b3f70e53761ae3b78f758dc5b&#45;&gt;dir_568b253ddbf98cea92a6c65945d41c59 -->
<g id="edge2" class="edge"><title>dir_3090708b3f70e53761ae3b78f758dc5b&#45;&gt;dir_568b253ddbf98cea92a6c65945d41c59</title>
<path fill="none" stroke="black" d="M58.4157,-143.697C61.7944,-135.813 65.8696,-126.304 69.623,-117.546"/>
<polygon fill="black" stroke="black" points="72.9473,-118.675 73.6696,-108.104 66.5133,-115.917 72.9473,-118.675"/>
<g id="a_edge2&#45;headlabel"><a xlink:href="dir_000086_000005.html" target="_top" xlink:title="2">
<text text-anchor="middle" x="74.1411" y="-119.097" font-family="Helvetica,sans-Serif" font-size="10.00">2</text>
</a>
</g>
</g>
<!-- dir_568b253ddbf98cea92a6c65945d41c59&#45;&gt;dir_362247ee011c51bb6078fba078fa4338 -->
<g id="edge3" class="edge"><title>dir_568b253ddbf98cea92a6c65945d41c59&#45;&gt;dir_362247ee011c51bb6078fba078fa4338</title>
<path fill="none" stroke="black" d="M73.5843,-71.6966C70.2056,-63.8132 66.1304,-54.3042 62.377,-45.5464"/>
<polygon fill="black" stroke="black" points="65.4867,-43.9171 58.3304,-36.1043 59.0527,-46.6745 65.4867,-43.9171"/>
<g id="a_edge3&#45;headlabel"><a xlink:href="dir_000005_000048.html" target="_top" xlink:title="5">
<text text-anchor="middle" x="69.5123" y="-42.1026" font-family="Helvetica,sans-Serif" font-size="10.00">5</text>
</a>
</g>
</g>
</g>
</svg>
