<?xml version="1.0" encoding="UTF-8" standalone="no"?>
<!DOCTYPE svg PUBLIC "-//W3C//DTD SVG 1.1//EN"
 "http://www.w3.org/Graphics/SVG/1.1/DTD/svg11.dtd">
<!-- Generated by graphviz version 2.30.1 (20130222.1704)
 -->
<!-- Title: platform Pages: 1 -->
<svg width="254pt" height="232pt"
 viewBox="0.00 0.00 254.00 232.00" xmlns="http://www.w3.org/2000/svg" xmlns:xlink="http://www.w3.org/1999/xlink">
<g id="graph0" class="graph" transform="scale(1 1) rotate(0) translate(4 228)">
<title>platform</title>
<polygon fill="white" stroke="white" points="-4,5 -4,-228 251,-228 251,5 -4,5"/>
<g id="clust1" class="cluster"><title>clusterdir_1976666272b254cd819841475adeb606</title>
<g id="a_clust1"><a xlink:href="dir_1976666272b254cd819841475adeb606.html" target="_top" xlink:title="rexx">
<polygon fill="#ddddee" stroke="black" points="8,-128 8,-216 238,-216 238,-128 8,-128"/>
<text text-anchor="middle" x="123" y="-202" font-family="Helvetica,sans-Serif" font-size="10.00">rexx</text>
</a>
</g>
</g>
<g id="clust2" class="cluster"><title>clusterdir_5ab89d2802c8ee4987f4e8abba7796ab</title>
<g id="a_clust2"><a xlink:href="dir_5ab89d2802c8ee4987f4e8abba7796ab.html" target="_top">
<polygon fill="#eeeeff" stroke="black" points="16,-136 16,-188 230,-188 230,-136 16,-136"/>
</a>
</g>
</g>
<!-- dir_5ab89d2802c8ee4987f4e8abba7796ab -->
<g id="node1" class="node"><title>dir_5ab89d2802c8ee4987f4e8abba7796ab</title>
<text text-anchor="middle" x="195" y="-158" font-family="Helvetica,sans-Serif" font-size="10.00">platform</text>
</g>
<!-- dir_cde710c9257455e03c0bcbd3a38d7f75 -->
<g id="node2" class="node"><title>dir_cde710c9257455e03c0bcbd3a38d7f75</title>
<g id="a_node2"><a xlink:href="dir_cde710c9257455e03c0bcbd3a38d7f75.html" target="_top" xlink:title="unix">
<polygon fill="white" stroke="black" points="78,-180 24,-180 24,-144 78,-144 78,-180"/>
<text text-anchor="middle" x="51" y="-158" font-family="Helvetica,sans-Serif" font-size="10.00">unix</text>
</a>
</g>
</g>
<!-- dir_362247ee011c51bb6078fba078fa4338 -->
<g id="node4" class="node"><title>dir_362247ee011c51bb6078fba078fa4338</title>
<g id="a_node4"><a xlink:href="dir_362247ee011c51bb6078fba078fa4338.html" target="_top" xlink:title="api">
<polygon fill="white" stroke="red" points="133,-36 79,-36 79,-0 133,-0 133,-36"/>
<text text-anchor="middle" x="106" y="-14" font-family="Helvetica,sans-Serif" font-size="10.00">api</text>
</a>
</g>
</g>
<!-- dir_cde710c9257455e03c0bcbd3a38d7f75&#45;&gt;dir_362247ee011c51bb6078fba078fa4338 -->
<g id="edge4" class="edge"><title>dir_cde710c9257455e03c0bcbd3a38d7f75&#45;&gt;dir_362247ee011c51bb6078fba078fa4338</title>
<path fill="none" stroke="black" d="M52.6972,-143.674C54.9505,-125.29 59.8884,-95.6852 70,-72 74.0842,-62.4333 79.9884,-52.7836 85.8379,-44.3881"/>
<polygon fill="black" stroke="black" points="88.7797,-46.2938 91.8353,-36.1492 83.1203,-42.1741 88.7797,-46.2938"/>
<g id="a_edge4&#45;headlabel"><a xlink:href="dir_000054_000048.html" target="_top" xlink:title="1">
<text text-anchor="middle" x="88.9597" y="-46.871" font-family="Helvetica,sans-Serif" font-size="10.00">1</text>
</a>
</g>
</g>
<!-- dir_8ce1864668cc0d0e94e38d06ebffa99a -->
<g id="node3" class="node"><title>dir_8ce1864668cc0d0e94e38d06ebffa99a</title>
<g id="a_node3"><a xlink:href="dir_8ce1864668cc0d0e94e38d06ebffa99a.html" target="_top" xlink:title="windows">
<polygon fill="white" stroke="black" points="150.263,-180 95.7372,-180 95.7372,-144 150.263,-144 150.263,-180"/>
<text text-anchor="middle" x="123" y="-158" font-family="Helvetica,sans-Serif" font-size="10.00">windows</text>
</a>
</g>
</g>
<!-- dir_0787eb24e4fa3097d898136aceda6c5b -->
<g id="node5" class="node"><title>dir_0787eb24e4fa3097d898136aceda6c5b</title>
<g id="a_node5"><a xlink:href="dir_0787eb24e4fa3097d898136aceda6c5b.html" target="_top" xlink:title="common">
<polygon fill="white" stroke="red" points="133.259,-108 78.7409,-108 78.7409,-72 133.259,-72 133.259,-108"/>
<text text-anchor="middle" x="106" y="-86" font-family="Helvetica,sans-Serif" font-size="10.00">common</text>
</a>
</g>
</g>
<!-- dir_8ce1864668cc0d0e94e38d06ebffa99a&#45;&gt;dir_0787eb24e4fa3097d898136aceda6c5b -->
<g id="edge2" class="edge"><title>dir_8ce1864668cc0d0e94e38d06ebffa99a&#45;&gt;dir_0787eb24e4fa3097d898136aceda6c5b</title>
<path fill="none" stroke="black" d="M118.798,-143.697C116.904,-135.898 114.623,-126.509 112.516,-117.829"/>
<polygon fill="black" stroke="black" points="115.915,-116.996 110.154,-108.104 109.113,-118.648 115.915,-116.996"/>
<g id="a_edge2&#45;headlabel"><a xlink:href="dir_000055_000018.html" target="_top" xlink:title="1">
<text text-anchor="middle" x="119.522" y="-115.819" font-family="Helvetica,sans-Serif" font-size="10.00">1</text>
</a>
</g>
</g>
<!-- dir_8ce1864668cc0d0e94e38d06ebffa99a&#45;&gt;dir_362247ee011c51bb6078fba078fa4338 -->
<g id="edge3" class="edge"><title>dir_8ce1864668cc0d0e94e38d06ebffa99a&#45;&gt;dir_362247ee011c51bb6078fba078fa4338</title>
<path fill="none" stroke="black" d="M131.847,-143.709C139.916,-125.606 149.523,-96.4647 142,-72 138.991,-62.2153 133.493,-52.6161 127.684,-44.3336"/>
<polygon fill="black" stroke="black" points="130.407,-42.1306 121.61,-36.2264 124.805,-46.3279 130.407,-42.1306"/>
<g id="a_edge3&#45;headlabel"><a xlink:href="dir_000055_000048.html" target="_top" xlink:title="1">
<text text-anchor="middle" x="134.835" y="-39.3048" font-family="Helvetica,sans-Serif" font-size="10.00">1</text>
</a>
</g>
</g>
<!-- dir_0787eb24e4fa3097d898136aceda6c5b&#45;&gt;dir_362247ee011c51bb6078fba078fa4338 -->
<g id="edge1" class="edge"><title>dir_0787eb24e4fa3097d898136aceda6c5b&#45;&gt;dir_362247ee011c51bb6078fba078fa4338</title>
<path fill="none" stroke="black" d="M106,-71.6966C106,-63.9827 106,-54.7125 106,-46.1124"/>
<polygon fill="black" stroke="black" points="109.5,-46.1043 106,-36.1043 102.5,-46.1044 109.5,-46.1043"/>
<g id="a_edge1&#45;headlabel"><a xlink:href="dir_000018_000048.html" target="_top" xlink:title="7">
<text text-anchor="middle" x="112.339" y="-45.699" font-family="Helvetica,sans-Serif" font-size="10.00">7</text>
</a>
</g>
</g>
</g>
</svg>
