<?xml version="1.0" encoding="UTF-8" standalone="no"?>
<!DOCTYPE svg PUBLIC "-//W3C//DTD SVG 1.1//EN"
 "http://www.w3.org/Graphics/SVG/1.1/DTD/svg11.dtd">
<!-- Generated by graphviz version 2.30.1 (20130222.1704)
 -->
<!-- Title: rexxexit.c Pages: 1 -->
<svg width="413pt" height="146pt"
 viewBox="0.00 0.00 413.00 146.00" xmlns="http://www.w3.org/2000/svg" xmlns:xlink="http://www.w3.org/1999/xlink">
<g id="graph0" class="graph" transform="scale(1 1) rotate(0) translate(4 142)">
<title>rexxexit.c</title>
<polygon fill="white" stroke="white" points="-4,5 -4,-142 410,-142 410,5 -4,5"/>
<!-- Node1 -->
<g id="node1" class="node"><title>Node1</title>
<g id="a_node1"><a xlink:title=" ">
<polygon fill="#bfbfbf" stroke="black" points="189.884,-117 189.884,-137 248.116,-137 248.116,-117 189.884,-117"/>
<text text-anchor="middle" x="219" y="-123" font-family="Helvetica,sans-Serif" font-size="10.00">rexxexit.c</text>
</a>
</g>
</g>
<!-- Node2 -->
<g id="node2" class="node"><title>Node2</title>
<g id="a_node2"><a xlink:title=" ">
<polygon fill="white" stroke="#bfbfbf" points="85.6553,-59 85.6553,-79 148.345,-79 148.345,-59 85.6553,-59"/>
<text text-anchor="middle" x="117" y="-65" font-family="Helvetica,sans-Serif" font-size="10.00">windows.h</text>
</a>
</g>
</g>
<!-- Node1&#45;&gt;Node2 -->
<g id="edge1" class="edge"><title>Node1&#45;&gt;Node2</title>
<path fill="none" stroke="midnightblue" d="M202.157,-116.753C185.892,-107.823 161.051,-94.1848 142.388,-83.9388"/>
<polygon fill="midnightblue" stroke="midnightblue" points="143.98,-80.8198 133.53,-79.0752 140.611,-86.9559 143.98,-80.8198"/>
</g>
<!-- Node3 -->
<g id="node3" class="node"><title>Node3</title>
<g id="a_node3"><a xlink:href="rexx_8h.html" target="_top" xlink:title=" ">
<polygon fill="white" stroke="black" points="166.384,-59 166.384,-79 209.616,-79 209.616,-59 166.384,-59"/>
<text text-anchor="middle" x="188" y="-65" font-family="Helvetica,sans-Serif" font-size="10.00">rexx.h</text>
</a>
</g>
</g>
<!-- Node1&#45;&gt;Node3 -->
<g id="edge2" class="edge"><title>Node1&#45;&gt;Node3</title>
<path fill="none" stroke="midnightblue" d="M213.881,-116.753C209.547,-108.924 203.21,-97.4761 197.891,-87.8679"/>
<polygon fill="midnightblue" stroke="midnightblue" points="200.929,-86.129 193.024,-79.0752 194.805,-89.5193 200.929,-86.129"/>
</g>
<!-- Node8 -->
<g id="node8" class="node"><title>Node8</title>
<g id="a_node8"><a xlink:title=" ">
<polygon fill="white" stroke="#bfbfbf" points="227.269,-59 227.269,-79 272.731,-79 272.731,-59 227.269,-59"/>
<text text-anchor="middle" x="250" y="-65" font-family="Helvetica,sans-Serif" font-size="10.00">stdio.h</text>
</a>
</g>
</g>
<!-- Node1&#45;&gt;Node8 -->
<g id="edge7" class="edge"><title>Node1&#45;&gt;Node8</title>
<path fill="none" stroke="midnightblue" d="M224.119,-116.753C228.453,-108.924 234.79,-97.4761 240.109,-87.8679"/>
<polygon fill="midnightblue" stroke="midnightblue" points="243.195,-89.5193 244.976,-79.0752 237.071,-86.129 243.195,-89.5193"/>
</g>
<!-- Node9 -->
<g id="node9" class="node"><title>Node9</title>
<g id="a_node9"><a xlink:title=" ">
<polygon fill="white" stroke="#bfbfbf" points="290.604,-59 290.604,-79 339.396,-79 339.396,-59 290.604,-59"/>
<text text-anchor="middle" x="315" y="-65" font-family="Helvetica,sans-Serif" font-size="10.00">string.h</text>
</a>
</g>
</g>
<!-- Node1&#45;&gt;Node9 -->
<g id="edge8" class="edge"><title>Node1&#45;&gt;Node9</title>
<path fill="none" stroke="midnightblue" d="M234.852,-116.753C249.95,-107.946 272.901,-94.5575 290.38,-84.3617"/>
<polygon fill="midnightblue" stroke="midnightblue" points="292.568,-87.1372 299.443,-79.0752 289.041,-81.0907 292.568,-87.1372"/>
</g>
<!-- Node4 -->
<g id="node4" class="node"><title>Node4</title>
<g id="a_node4"><a xlink:title=" ">
<polygon fill="white" stroke="#bfbfbf" points="-0.23877,-1 -0.23877,-21 80.2388,-21 80.2388,-1 -0.23877,-1"/>
<text text-anchor="middle" x="40" y="-7" font-family="Helvetica,sans-Serif" font-size="10.00">rexxapitypes.h</text>
</a>
</g>
</g>
<!-- Node3&#45;&gt;Node4 -->
<g id="edge3" class="edge"><title>Node3&#45;&gt;Node4</title>
<path fill="none" stroke="midnightblue" d="M166.162,-59.737C141.707,-50.4837 101.787,-35.379 73.4054,-24.6399"/>
<polygon fill="midnightblue" stroke="midnightblue" points="74.4833,-21.3056 63.8918,-21.0401 72.006,-27.8526 74.4833,-21.3056"/>
</g>
<!-- Node5 -->
<g id="node5" class="node"><title>Node5</title>
<g id="a_node5"><a xlink:href="rexxapidefs_8h.html" target="_top" xlink:title=" ">
<polygon fill="white" stroke="black" points="98.2612,-1 98.2612,-21 173.739,-21 173.739,-1 98.2612,-1"/>
<text text-anchor="middle" x="136" y="-7" font-family="Helvetica,sans-Serif" font-size="10.00">rexxapidefs.h</text>
</a>
</g>
</g>
<!-- Node3&#45;&gt;Node5 -->
<g id="edge4" class="edge"><title>Node3&#45;&gt;Node5</title>
<path fill="none" stroke="midnightblue" d="M179.413,-58.7527C171.841,-50.598 160.622,-38.5158 151.486,-28.6769"/>
<polygon fill="midnightblue" stroke="midnightblue" points="153.796,-26.0216 144.427,-21.0752 148.667,-30.7847 153.796,-26.0216"/>
</g>
<!-- Node6 -->
<g id="node6" class="node"><title>Node6</title>
<g id="a_node6"><a xlink:title=" ">
<polygon fill="white" stroke="#bfbfbf" points="191.872,-1 191.872,-21 290.128,-21 290.128,-1 191.872,-1"/>
<text text-anchor="middle" x="241" y="-7" font-family="Helvetica,sans-Serif" font-size="10.00">rexxplatformdefs.h</text>
</a>
</g>
</g>
<!-- Node3&#45;&gt;Node6 -->
<g id="edge5" class="edge"><title>Node3&#45;&gt;Node6</title>
<path fill="none" stroke="midnightblue" d="M196.752,-58.7527C204.547,-50.5165 216.134,-38.2738 225.495,-28.3824"/>
<polygon fill="midnightblue" stroke="midnightblue" points="228.079,-30.744 232.411,-21.0752 222.995,-25.9323 228.079,-30.744"/>
</g>
<!-- Node7 -->
<g id="node7" class="node"><title>Node7</title>
<g id="a_node7"><a xlink:title=" ">
<polygon fill="white" stroke="#bfbfbf" points="308.15,-1 308.15,-21 405.85,-21 405.85,-1 308.15,-1"/>
<text text-anchor="middle" x="357" y="-7" font-family="Helvetica,sans-Serif" font-size="10.00">rexxplatformapis.h</text>
</a>
</g>
</g>
<!-- Node3&#45;&gt;Node7 -->
<g id="edge6" class="edge"><title>Node3&#45;&gt;Node7</title>
<path fill="none" stroke="midnightblue" d="M209.628,-60.7844C212.444,-59.8467 215.291,-58.8999 218,-58 252.483,-46.547 291.795,-33.542 319.792,-24.2891"/>
<polygon fill="midnightblue" stroke="midnightblue" points="321.168,-27.5206 329.565,-21.0597 318.972,-20.8741 321.168,-27.5206"/>
</g>
</g>
</svg>
