<?xml version="1.0" encoding="UTF-8" standalone="no"?>
<!DOCTYPE svg PUBLIC "-//W3C//DTD SVG 1.1//EN"
 "http://www.w3.org/Graphics/SVG/1.1/DTD/svg11.dtd">
<!-- Generated by graphviz version 2.30.1 (20130222.1704)
 -->
<!-- Title: rexxutil.cpp Pages: 1 -->
<!--zoomable 204 -->
<svg id="main" version="1.1" xmlns="http://www.w3.org/2000/svg" xmlns:xlink="http://www.w3.org/1999/xlink" xml:space="preserve" onload="init(evt)">
<style type="text/css"><![CDATA[
.edge:hover path { stroke: red; }
.edge:hover polygon { stroke: red; fill: red; }
]]></style>
<script type="text/javascript"><![CDATA[
var edges = document.getElementsByTagName('g');
if (edges && edges.length) {
  for (var i=0;i<edges.length;i++) {
    if (edges[i].id.substr(0,4)=='edge') {
      edges[i].setAttribute('class','edge');
    }
  }
}
]]></script>
        <defs>
                <circle id="rim" cx="0" cy="0" r="7"/>
                <circle id="rim2" cx="0" cy="0" r="3.5"/>
                <g id="zoomPlus">
                        <use xlink:href="#rim" fill="#404040">
                                <set attributeName="fill" to="#808080" begin="zoomplus.mouseover" end="zoomplus.mouseout"/>
                        </use>
                        <path d="M-4,0h8M0,-4v8" fill="none" stroke="white" stroke-width="1.5" pointer-events="none"/>
                </g>
                <g id="zoomMin">
                        <use xlink:href="#rim" fill="#404040">
                                <set attributeName="fill" to="#808080" begin="zoomminus.mouseover" end="zoomminus.mouseout"/>
                        </use>
                        <path d="M-4,0h8" fill="none" stroke="white" stroke-width="1.5" pointer-events="none"/>
                </g>
                <g id="dirArrow">
                        <path fill="none" stroke="white" stroke-width="1.5" d="M0,-3.0v7 M-2.5,-0.5L0,-3.0L2.5,-0.5"/>
                </g>
               <g id="resetDef">
                       <use xlink:href="#rim2" fill="#404040">
                               <set attributeName="fill" to="#808080" begin="reset.mouseover" end="reset.mouseout"/>
                       </use>
               </g>
        </defs>

<script type="text/javascript">
var viewWidth = 2224;
var viewHeight = 204;
var sectionId = 'dynsection-0';
</script>
<script xlink:href="svgpan.js"/>
<svg id="graph" class="graph">
<g id="viewport">
<title>rexxutil.cpp</title>
<polygon fill="white" stroke="white" points="-4,5 -4,-200 2221,-200 2221,5 -4,5"/>
<!-- Node1 -->
<g id="node1" class="node"><title>Node1</title>
<g id="a_node1"><a xlink:title=" ">
<polygon fill="#bfbfbf" stroke="black" points="1123.71,-175 1123.71,-195 1190.29,-195 1190.29,-175 1123.71,-175"/>
<text text-anchor="middle" x="1157" y="-181" font-family="Helvetica,sans-Serif" font-size="10.00">rexxutil.cpp</text>
</a>
</g>
</g>
<!-- Node2 -->
<g id="node2" class="node"><title>Node2</title>
<g id="a_node2"><a xlink:href="oorexxapi_8h.html" target="_top" xlink:title=" ">
<polygon fill="white" stroke="black" points="194.15,-117 194.15,-137 261.85,-137 261.85,-117 194.15,-117"/>
<text text-anchor="middle" x="228" y="-123" font-family="Helvetica,sans-Serif" font-size="10.00">oorexxapi.h</text>
</a>
</g>
</g>
<!-- Node1&#45;&gt;Node2 -->
<g id="edge1" class="edge"><title>Node1&#45;&gt;Node2</title>
<path fill="none" stroke="midnightblue" d="M1123.41,-184.383C1006.79,-185.268 608.694,-184.554 272.105,-137.912"/>
<polygon fill="midnightblue" stroke="midnightblue" points="272.554,-134.441 262.165,-136.519 271.582,-141.374 272.554,-134.441"/>
</g>
<!-- Node9 -->
<g id="node9" class="node"><title>Node9</title>
<g id="a_node9"><a xlink:title=" ">
<polygon fill="white" stroke="#bfbfbf" points="279.549,-117 279.549,-137 334.451,-137 334.451,-117 279.549,-117"/>
<text text-anchor="middle" x="307" y="-123" font-family="Helvetica,sans-Serif" font-size="10.00">sys/ipc.h</text>
</a>
</g>
</g>
<!-- Node1&#45;&gt;Node9 -->
<g id="edge8" class="edge"><title>Node1&#45;&gt;Node9</title>
<path fill="none" stroke="midnightblue" d="M1123.26,-183.059C992.208,-179.256 516.073,-164.042 344.652,-137.924"/>
<polygon fill="midnightblue" stroke="midnightblue" points="345.202,-134.467 334.776,-136.35 344.101,-141.38 345.202,-134.467"/>
</g>
<!-- Node10 -->
<g id="node10" class="node"><title>Node10</title>
<g id="a_node10"><a xlink:title=" ">
<polygon fill="white" stroke="#bfbfbf" points="352.142,-117 352.142,-137 411.858,-137 411.858,-117 352.142,-117"/>
<text text-anchor="middle" x="382" y="-123" font-family="Helvetica,sans-Serif" font-size="10.00">memory.h</text>
</a>
</g>
</g>
<!-- Node1&#45;&gt;Node10 -->
<g id="edge9" class="edge"><title>Node1&#45;&gt;Node10</title>
<path fill="none" stroke="midnightblue" d="M1123.38,-184.145C1019.95,-184.117 697.413,-180.5 422.294,-137.917"/>
<polygon fill="midnightblue" stroke="midnightblue" points="422.538,-134.413 412.116,-136.32 421.453,-141.328 422.538,-134.413"/>
</g>
<!-- Node11 -->
<g id="node11" class="node"><title>Node11</title>
<g id="a_node11"><a xlink:title=" ">
<polygon fill="white" stroke="#bfbfbf" points="429.66,-117 429.66,-137 472.34,-137 472.34,-117 429.66,-117"/>
<text text-anchor="middle" x="451" y="-123" font-family="Helvetica,sans-Serif" font-size="10.00">fcntl.h</text>
</a>
</g>
</g>
<!-- Node1&#45;&gt;Node11 -->
<g id="edge10" class="edge"><title>Node1&#45;&gt;Node11</title>
<path fill="none" stroke="midnightblue" d="M1123.43,-182.843C1007.65,-178.681 624.749,-163.449 482.289,-137.746"/>
<polygon fill="midnightblue" stroke="midnightblue" points="482.931,-134.305 472.454,-135.877 481.625,-141.182 482.931,-134.305"/>
</g>
<!-- Node12 -->
<g id="node12" class="node"><title>Node12</title>
<g id="a_node12"><a xlink:title=" ">
<polygon fill="white" stroke="#bfbfbf" points="489.879,-117 489.879,-137 538.121,-137 538.121,-117 489.879,-117"/>
<text text-anchor="middle" x="514" y="-123" font-family="Helvetica,sans-Serif" font-size="10.00">ctype.h</text>
</a>
</g>
</g>
<!-- Node1&#45;&gt;Node12 -->
<g id="edge11" class="edge"><title>Node1&#45;&gt;Node12</title>
<path fill="none" stroke="midnightblue" d="M1123.68,-183.936C1032.74,-183.243 772.72,-177.803 548.348,-137.648"/>
<polygon fill="midnightblue" stroke="midnightblue" points="548.83,-134.179 538.366,-135.834 547.579,-141.066 548.83,-134.179"/>
</g>
<!-- Node13 -->
<g id="node13" class="node"><title>Node13</title>
<g id="a_node13"><a xlink:title=" ">
<polygon fill="white" stroke="#bfbfbf" points="556.604,-117 556.604,-137 605.396,-137 605.396,-117 556.604,-117"/>
<text text-anchor="middle" x="581" y="-123" font-family="Helvetica,sans-Serif" font-size="10.00">string.h</text>
</a>
</g>
</g>
<!-- Node1&#45;&gt;Node13 -->
<g id="edge12" class="edge"><title>Node1&#45;&gt;Node13</title>
<path fill="none" stroke="midnightblue" d="M1123.61,-183.597C1039.51,-182.07 812.196,-174.758 615.654,-137.988"/>
<polygon fill="midnightblue" stroke="midnightblue" points="616.205,-134.531 605.727,-136.101 614.897,-141.407 616.205,-134.531"/>
</g>
<!-- Node14 -->
<g id="node14" class="node"><title>Node14</title>
<g id="a_node14"><a xlink:title=" ">
<polygon fill="white" stroke="#bfbfbf" points="623.158,-117 623.158,-137 670.842,-137 670.842,-117 623.158,-117"/>
<text text-anchor="middle" x="647" y="-123" font-family="Helvetica,sans-Serif" font-size="10.00">stdlib.h</text>
</a>
</g>
</g>
<!-- Node1&#45;&gt;Node14 -->
<g id="edge13" class="edge"><title>Node1&#45;&gt;Node14</title>
<path fill="none" stroke="midnightblue" d="M1123.71,-183.054C1047.03,-180.394 852.072,-170.886 680.949,-137.829"/>
<polygon fill="midnightblue" stroke="midnightblue" points="681.498,-134.37 671.011,-135.877 680.149,-141.239 681.498,-134.37"/>
</g>
<!-- Node15 -->
<g id="node15" class="node"><title>Node15</title>
<g id="a_node15"><a xlink:title=" ">
<polygon fill="white" stroke="#bfbfbf" points="689.269,-117 689.269,-137 734.731,-137 734.731,-117 689.269,-117"/>
<text text-anchor="middle" x="712" y="-123" font-family="Helvetica,sans-Serif" font-size="10.00">stdio.h</text>
</a>
</g>
</g>
<!-- Node1&#45;&gt;Node15 -->
<g id="edge14" class="edge"><title>Node1&#45;&gt;Node15</title>
<path fill="none" stroke="midnightblue" d="M1123.63,-182.572C1054.39,-179.123 890.073,-168.42 744.861,-138.073"/>
<polygon fill="midnightblue" stroke="midnightblue" points="745.392,-134.607 734.883,-135.949 743.936,-141.454 745.392,-134.607"/>
</g>
<!-- Node16 -->
<g id="node16" class="node"><title>Node16</title>
<g id="a_node16"><a xlink:title=" ">
<polygon fill="white" stroke="#bfbfbf" points="752.488,-117 752.488,-137 803.512,-137 803.512,-117 752.488,-117"/>
<text text-anchor="middle" x="778" y="-123" font-family="Helvetica,sans-Serif" font-size="10.00">unistd.h</text>
</a>
</g>
</g>
<!-- Node1&#45;&gt;Node16 -->
<g id="edge15" class="edge"><title>Node1&#45;&gt;Node16</title>
<path fill="none" stroke="midnightblue" d="M1123.4,-181.247C1063.07,-175.933 932.303,-162.729 813.501,-138.067"/>
<polygon fill="midnightblue" stroke="midnightblue" points="814.019,-134.6 803.512,-135.96 812.575,-141.449 814.019,-134.6"/>
</g>
<!-- Node17 -->
<g id="node17" class="node"><title>Node17</title>
<g id="a_node17"><a xlink:title=" ">
<polygon fill="white" stroke="#bfbfbf" points="821.443,-117 821.443,-137 868.557,-137 868.557,-117 821.443,-117"/>
<text text-anchor="middle" x="845" y="-123" font-family="Helvetica,sans-Serif" font-size="10.00">limits.h</text>
</a>
</g>
</g>
<!-- Node1&#45;&gt;Node17 -->
<g id="edge16" class="edge"><title>Node1&#45;&gt;Node17</title>
<path fill="none" stroke="midnightblue" d="M1123.65,-179.938C1072.84,-173.438 972.872,-159.434 878.67,-137.899"/>
<polygon fill="midnightblue" stroke="midnightblue" points="879.225,-134.435 868.693,-135.585 877.643,-141.254 879.225,-134.435"/>
</g>
<!-- Node18 -->
<g id="node18" class="node"><title>Node18</title>
<g id="a_node18"><a xlink:title=" ">
<polygon fill="white" stroke="#bfbfbf" points="886.714,-117 886.714,-137 933.286,-137 933.286,-117 886.714,-117"/>
<text text-anchor="middle" x="910" y="-123" font-family="Helvetica,sans-Serif" font-size="10.00">math.h</text>
</a>
</g>
</g>
<!-- Node1&#45;&gt;Node18 -->
<g id="edge17" class="edge"><title>Node1&#45;&gt;Node18</title>
<path fill="none" stroke="midnightblue" d="M1123.63,-177.849C1083.07,-170.159 1012.4,-156.066 943.111,-138.125"/>
<polygon fill="midnightblue" stroke="midnightblue" points="943.907,-134.716 933.347,-135.569 942.134,-141.487 943.907,-134.716"/>
</g>
<!-- Node19 -->
<g id="node19" class="node"><title>Node19</title>
<g id="a_node19"><a xlink:title=" ">
<polygon fill="white" stroke="#bfbfbf" points="950.882,-117 950.882,-137 1009.12,-137 1009.12,-117 950.882,-117"/>
<text text-anchor="middle" x="980" y="-123" font-family="Helvetica,sans-Serif" font-size="10.00">sys/stat.h</text>
</a>
</g>
</g>
<!-- Node1&#45;&gt;Node19 -->
<g id="edge18" class="edge"><title>Node1&#45;&gt;Node19</title>
<path fill="none" stroke="midnightblue" d="M1128.17,-174.878C1098.25,-165.413 1051.31,-150.56 1018.29,-140.115"/>
<polygon fill="midnightblue" stroke="midnightblue" points="1019.12,-136.705 1008.53,-137.025 1017,-143.379 1019.12,-136.705"/>
</g>
<!-- Node20 -->
<g id="node20" class="node"><title>Node20</title>
<g id="a_node20"><a xlink:title=" ">
<polygon fill="white" stroke="#bfbfbf" points="1027.16,-117 1027.16,-137 1074.84,-137 1074.84,-117 1027.16,-117"/>
<text text-anchor="middle" x="1051" y="-123" font-family="Helvetica,sans-Serif" font-size="10.00">errno.h</text>
</a>
</g>
</g>
<!-- Node1&#45;&gt;Node20 -->
<g id="edge19" class="edge"><title>Node1&#45;&gt;Node20</title>
<path fill="none" stroke="midnightblue" d="M1139.5,-174.753C1122.52,-165.783 1096.54,-152.06 1077.12,-141.799"/>
<polygon fill="midnightblue" stroke="midnightblue" points="1078.65,-138.652 1068.18,-137.075 1075.39,-144.841 1078.65,-138.652"/>
</g>
<!-- Node21 -->
<g id="node21" class="node"><title>Node21</title>
<g id="a_node21"><a xlink:title=" ">
<polygon fill="white" stroke="#bfbfbf" points="1093.21,-117 1093.21,-137 1144.79,-137 1144.79,-117 1093.21,-117"/>
<text text-anchor="middle" x="1119" y="-123" font-family="Helvetica,sans-Serif" font-size="10.00">stddef.h</text>
</a>
</g>
</g>
<!-- Node1&#45;&gt;Node21 -->
<g id="edge20" class="edge"><title>Node1&#45;&gt;Node21</title>
<path fill="none" stroke="midnightblue" d="M1150.73,-174.753C1145.36,-166.843 1137.48,-155.237 1130.92,-145.568"/>
<polygon fill="midnightblue" stroke="midnightblue" points="1133.67,-143.385 1125.16,-137.075 1127.88,-147.315 1133.67,-143.385"/>
</g>
<!-- Node22 -->
<g id="node22" class="node"><title>Node22</title>
<g id="a_node22"><a xlink:title=" ">
<polygon fill="white" stroke="#bfbfbf" points="1162.99,-117 1162.99,-137 1229.01,-137 1229.01,-117 1162.99,-117"/>
<text text-anchor="middle" x="1196" y="-123" font-family="Helvetica,sans-Serif" font-size="10.00">sys/types.h</text>
</a>
</g>
</g>
<!-- Node1&#45;&gt;Node22 -->
<g id="edge21" class="edge"><title>Node1&#45;&gt;Node22</title>
<path fill="none" stroke="midnightblue" d="M1163.44,-174.753C1168.95,-166.843 1177.03,-155.237 1183.76,-145.568"/>
<polygon fill="midnightblue" stroke="midnightblue" points="1186.84,-147.282 1189.68,-137.075 1181.09,-143.281 1186.84,-147.282"/>
</g>
<!-- Node23 -->
<g id="node23" class="node"><title>Node23</title>
<g id="a_node23"><a xlink:title=" ">
<polygon fill="white" stroke="#bfbfbf" points="1246.94,-117 1246.94,-137 1319.06,-137 1319.06,-117 1246.94,-117"/>
<text text-anchor="middle" x="1283" y="-123" font-family="Helvetica,sans-Serif" font-size="10.00">sys/syscall.h</text>
</a>
</g>
</g>
<!-- Node1&#45;&gt;Node23 -->
<g id="edge22" class="edge"><title>Node1&#45;&gt;Node23</title>
<path fill="none" stroke="midnightblue" d="M1177.52,-174.878C1198.03,-165.766 1229.76,-151.662 1253.07,-141.303"/>
<polygon fill="midnightblue" stroke="midnightblue" points="1254.77,-144.378 1262.48,-137.118 1251.92,-137.981 1254.77,-144.378"/>
</g>
<!-- Node24 -->
<g id="node24" class="node"><title>Node24</title>
<g id="a_node24"><a xlink:title=" ">
<polygon fill="white" stroke="#bfbfbf" points="1336.76,-117 1336.76,-137 1417.24,-137 1417.24,-117 1336.76,-117"/>
<text text-anchor="middle" x="1377" y="-123" font-family="Helvetica,sans-Serif" font-size="10.00">sys/utsname.h</text>
</a>
</g>
</g>
<!-- Node1&#45;&gt;Node24 -->
<g id="edge23" class="edge"><title>Node1&#45;&gt;Node24</title>
<path fill="none" stroke="midnightblue" d="M1190.41,-175.495C1228.14,-165.892 1289.72,-150.217 1331.74,-139.521"/>
<polygon fill="midnightblue" stroke="midnightblue" points="1332.62,-142.909 1341.45,-137.05 1330.89,-136.125 1332.62,-142.909"/>
</g>
<!-- Node25 -->
<g id="node25" class="node"><title>Node25</title>
<g id="a_node25"><a xlink:title=" ">
<polygon fill="white" stroke="#bfbfbf" points="1434.87,-117 1434.87,-137 1493.13,-137 1493.13,-117 1434.87,-117"/>
<text text-anchor="middle" x="1464" y="-123" font-family="Helvetica,sans-Serif" font-size="10.00">pthread.h</text>
</a>
</g>
</g>
<!-- Node1&#45;&gt;Node25 -->
<g id="edge24" class="edge"><title>Node1&#45;&gt;Node25</title>
<path fill="none" stroke="midnightblue" d="M1190.31,-179.268C1239.52,-172.067 1334.73,-157.341 1424.78,-138.127"/>
<polygon fill="midnightblue" stroke="midnightblue" points="1425.57,-141.539 1434.6,-136.009 1424.09,-134.696 1425.57,-141.539"/>
</g>
<!-- Node26 -->
<g id="node26" class="node"><title>Node26</title>
<g id="a_node26"><a xlink:title=" ">
<polygon fill="white" stroke="#bfbfbf" points="1510.82,-117 1510.82,-137 1585.18,-137 1585.18,-117 1510.82,-117"/>
<text text-anchor="middle" x="1548" y="-123" font-family="Helvetica,sans-Serif" font-size="10.00">semaphore.h</text>
</a>
</g>
</g>
<!-- Node1&#45;&gt;Node26 -->
<g id="edge25" class="edge"><title>Node1&#45;&gt;Node26</title>
<path fill="none" stroke="midnightblue" d="M1190.44,-180.458C1250.53,-173.897 1380.93,-158.76 1500.58,-138.14"/>
<polygon fill="midnightblue" stroke="midnightblue" points="1501.39,-141.551 1510.64,-136.388 1500.19,-134.655 1501.39,-141.551"/>
</g>
<!-- Node27 -->
<g id="node27" class="node"><title>Node27</title>
<g id="a_node27"><a xlink:title=" ">
<polygon fill="white" stroke="#bfbfbf" points="1602.77,-117 1602.77,-137 1653.23,-137 1653.23,-117 1602.77,-117"/>
<text text-anchor="middle" x="1628" y="-123" font-family="Helvetica,sans-Serif" font-size="10.00">signal.h</text>
</a>
</g>
</g>
<!-- Node1&#45;&gt;Node27 -->
<g id="edge26" class="edge"><title>Node1&#45;&gt;Node27</title>
<path fill="none" stroke="midnightblue" d="M1190.47,-182.546C1262.5,-178.976 1437.53,-167.936 1592.34,-138.035"/>
<polygon fill="midnightblue" stroke="midnightblue" points="1593.37,-141.4 1602.5,-136.038 1592.02,-134.531 1593.37,-141.4"/>
</g>
<!-- Node28 -->
<g id="node28" class="node"><title>Node28</title>
<g id="a_node28"><a xlink:title=" ">
<polygon fill="white" stroke="#bfbfbf" points="1671.38,-117 1671.38,-137 1714.62,-137 1714.62,-117 1671.38,-117"/>
<text text-anchor="middle" x="1693" y="-123" font-family="Helvetica,sans-Serif" font-size="10.00">time.h</text>
</a>
</g>
</g>
<!-- Node1&#45;&gt;Node28 -->
<g id="edge27" class="edge"><title>Node1&#45;&gt;Node28</title>
<path fill="none" stroke="midnightblue" d="M1190.46,-183.499C1270.48,-181.762 1479.18,-174.043 1661.13,-137.744"/>
<polygon fill="midnightblue" stroke="midnightblue" points="1662.04,-141.131 1671.14,-135.712 1660.65,-134.271 1662.04,-141.131"/>
</g>
<!-- Node29 -->
<g id="node29" class="node"><title>Node29</title>
<g id="a_node29"><a xlink:title=" ">
<polygon fill="white" stroke="#bfbfbf" points="1732.32,-117 1732.32,-137 1781.68,-137 1781.68,-117 1732.32,-117"/>
<text text-anchor="middle" x="1757" y="-123" font-family="Helvetica,sans-Serif" font-size="10.00">netdb.h</text>
</a>
</g>
</g>
<!-- Node1&#45;&gt;Node29 -->
<g id="edge28" class="edge"><title>Node1&#45;&gt;Node29</title>
<path fill="none" stroke="midnightblue" d="M1190.49,-183.664C1277.08,-182.29 1515.47,-175.303 1722.13,-137.782"/>
<polygon fill="midnightblue" stroke="midnightblue" points="1723.06,-141.17 1732.26,-135.914 1721.79,-134.286 1723.06,-141.17"/>
</g>
<!-- Node30 -->
<g id="node30" class="node"><title>Node30</title>
<g id="a_node30"><a xlink:title=" ">
<polygon fill="white" stroke="#bfbfbf" points="1799.32,-117 1799.32,-137 1848.68,-137 1848.68,-117 1799.32,-117"/>
<text text-anchor="middle" x="1824" y="-123" font-family="Helvetica,sans-Serif" font-size="10.00">dirent.h</text>
</a>
</g>
</g>
<!-- Node1&#45;&gt;Node30 -->
<g id="edge29" class="edge"><title>Node1&#45;&gt;Node30</title>
<path fill="none" stroke="midnightblue" d="M1190.6,-184.07C1284.21,-183.734 1555.84,-179.152 1789.23,-137.746"/>
<polygon fill="midnightblue" stroke="midnightblue" points="1790.04,-141.156 1799.26,-135.939 1788.8,-134.267 1790.04,-141.156"/>
</g>
<!-- Node31 -->
<g id="node31" class="node"><title>Node31</title>
<g id="a_node31"><a xlink:title=" ">
<polygon fill="white" stroke="#bfbfbf" points="1866.5,-117 1866.5,-137 1927.5,-137 1927.5,-117 1866.5,-117"/>
<text text-anchor="middle" x="1897" y="-123" font-family="Helvetica,sans-Serif" font-size="10.00">sys/time.h</text>
</a>
</g>
</g>
<!-- Node1&#45;&gt;Node31 -->
<g id="edge30" class="edge"><title>Node1&#45;&gt;Node31</title>
<path fill="none" stroke="midnightblue" d="M1190.39,-183.923C1290.19,-183.245 1594.94,-177.933 1856.05,-137.869"/>
<polygon fill="midnightblue" stroke="midnightblue" points="1856.76,-141.301 1866.1,-136.306 1855.68,-134.384 1856.76,-141.301"/>
</g>
<!-- Node32 -->
<g id="node32" class="node"><title>Node32</title>
<g id="a_node32"><a xlink:title=" ">
<polygon fill="white" stroke="#bfbfbf" points="1945.6,-117 1945.6,-137 1994.4,-137 1994.4,-117 1945.6,-117"/>
<text text-anchor="middle" x="1970" y="-123" font-family="Helvetica,sans-Serif" font-size="10.00">utime.h</text>
</a>
</g>
</g>
<!-- Node1&#45;&gt;Node32 -->
<g id="edge31" class="edge"><title>Node1&#45;&gt;Node32</title>
<path fill="none" stroke="midnightblue" d="M1190.61,-183.031C1317.8,-179.212 1770.26,-164.187 1935.29,-137.66"/>
<polygon fill="midnightblue" stroke="midnightblue" points="1935.99,-141.091 1945.27,-135.979 1934.83,-134.188 1935.99,-141.091"/>
</g>
<!-- Node33 -->
<g id="node33" class="node"><title>Node33</title>
<g id="a_node33"><a xlink:title=" ">
<polygon fill="white" stroke="#bfbfbf" points="2012.44,-117 2012.44,-137 2069.56,-137 2069.56,-117 2012.44,-117"/>
<text text-anchor="middle" x="2041" y="-123" font-family="Helvetica,sans-Serif" font-size="10.00">termios.h</text>
</a>
</g>
</g>
<!-- Node1&#45;&gt;Node33 -->
<g id="edge32" class="edge"><title>Node1&#45;&gt;Node33</title>
<path fill="none" stroke="midnightblue" d="M1190.65,-183.083C1324.84,-179.289 1822.78,-163.856 2002.01,-137.787"/>
<polygon fill="midnightblue" stroke="midnightblue" points="2002.72,-141.219 2012.08,-136.257 2001.67,-134.299 2002.72,-141.219"/>
</g>
<!-- Node34 -->
<g id="node34" class="node"><title>Node34</title>
<g id="a_node34"><a xlink:title=" ">
<polygon fill="white" stroke="#bfbfbf" points="2088.04,-117 2088.04,-137 2147.96,-137 2147.96,-117 2088.04,-117"/>
<text text-anchor="middle" x="2118" y="-123" font-family="Helvetica,sans-Serif" font-size="10.00">fnmatch.h</text>
</a>
</g>
</g>
<!-- Node1&#45;&gt;Node34 -->
<g id="edge33" class="edge"><title>Node1&#45;&gt;Node34</title>
<path fill="none" stroke="midnightblue" d="M1190.65,-183.199C1334.89,-179.631 1901.63,-164.195 2078,-138 2078.1,-137.985 2078.2,-137.97 2078.31,-137.954"/>
<polygon fill="midnightblue" stroke="midnightblue" points="2078.79,-141.425 2087.99,-136.171 2077.52,-134.541 2078.79,-141.425"/>
</g>
<!-- Node35 -->
<g id="node35" class="node"><title>Node35</title>
<g id="a_node35"><a xlink:title=" ">
<polygon fill="white" stroke="#bfbfbf" points="2165.49,-117 2165.49,-137 2216.51,-137 2216.51,-117 2165.49,-117"/>
<text text-anchor="middle" x="2191" y="-123" font-family="Helvetica,sans-Serif" font-size="10.00">libgen.h</text>
</a>
</g>
</g>
<!-- Node1&#45;&gt;Node35 -->
<g id="edge34" class="edge"><title>Node1&#45;&gt;Node35</title>
<path fill="none" stroke="midnightblue" d="M1190.42,-183.503C1339.34,-181.132 1943.95,-169.803 2155.1,-137.701"/>
<polygon fill="midnightblue" stroke="midnightblue" points="2155.83,-141.13 2165.16,-136.107 2154.73,-134.216 2155.83,-141.13"/>
</g>
<!-- Node3 -->
<g id="node3" class="node"><title>Node3</title>
<g id="a_node3"><a xlink:href="rexx_8h.html" target="_top" xlink:title=" ">
<polygon fill="white" stroke="black" points="166.384,-59 166.384,-79 209.616,-79 209.616,-59 166.384,-59"/>
<text text-anchor="middle" x="188" y="-65" font-family="Helvetica,sans-Serif" font-size="10.00">rexx.h</text>
</a>
</g>
</g>
<!-- Node2&#45;&gt;Node3 -->
<g id="edge2" class="edge"><title>Node2&#45;&gt;Node3</title>
<path fill="none" stroke="midnightblue" d="M221.395,-116.753C215.687,-108.761 207.284,-96.9975 200.336,-87.2698"/>
<polygon fill="midnightblue" stroke="midnightblue" points="203.143,-85.1782 194.482,-79.0752 197.447,-89.2469 203.143,-85.1782"/>
</g>
<!-- Node8 -->
<g id="node8" class="node"><title>Node8</title>
<g id="a_node8"><a xlink:href="oorexxerrors_8h.html" target="_top" xlink:title=" ">
<polygon fill="white" stroke="black" points="227.766,-59 227.766,-79 308.234,-79 308.234,-59 227.766,-59"/>
<text text-anchor="middle" x="268" y="-65" font-family="Helvetica,sans-Serif" font-size="10.00">oorexxerrors.h</text>
</a>
</g>
</g>
<!-- Node2&#45;&gt;Node8 -->
<g id="edge7" class="edge"><title>Node2&#45;&gt;Node8</title>
<path fill="none" stroke="midnightblue" d="M234.605,-116.753C240.313,-108.761 248.716,-96.9975 255.664,-87.2698"/>
<polygon fill="midnightblue" stroke="midnightblue" points="258.553,-89.2469 261.518,-79.0752 252.857,-85.1782 258.553,-89.2469"/>
</g>
<!-- Node4 -->
<g id="node4" class="node"><title>Node4</title>
<g id="a_node4"><a xlink:title=" ">
<polygon fill="white" stroke="#bfbfbf" points="-0.23877,-1 -0.23877,-21 80.2388,-21 80.2388,-1 -0.23877,-1"/>
<text text-anchor="middle" x="40" y="-7" font-family="Helvetica,sans-Serif" font-size="10.00">rexxapitypes.h</text>
</a>
</g>
</g>
<!-- Node3&#45;&gt;Node4 -->
<g id="edge3" class="edge"><title>Node3&#45;&gt;Node4</title>
<path fill="none" stroke="midnightblue" d="M166.162,-59.737C141.707,-50.4837 101.787,-35.379 73.4054,-24.6399"/>
<polygon fill="midnightblue" stroke="midnightblue" points="74.4833,-21.3056 63.8918,-21.0401 72.006,-27.8526 74.4833,-21.3056"/>
</g>
<!-- Node5 -->
<g id="node5" class="node"><title>Node5</title>
<g id="a_node5"><a xlink:href="rexxapidefs_8h.html" target="_top" xlink:title=" ">
<polygon fill="white" stroke="black" points="98.2612,-1 98.2612,-21 173.739,-21 173.739,-1 98.2612,-1"/>
<text text-anchor="middle" x="136" y="-7" font-family="Helvetica,sans-Serif" font-size="10.00">rexxapidefs.h</text>
</a>
</g>
</g>
<!-- Node3&#45;&gt;Node5 -->
<g id="edge4" class="edge"><title>Node3&#45;&gt;Node5</title>
<path fill="none" stroke="midnightblue" d="M179.413,-58.7527C171.841,-50.598 160.622,-38.5158 151.486,-28.6769"/>
<polygon fill="midnightblue" stroke="midnightblue" points="153.796,-26.0216 144.427,-21.0752 148.667,-30.7847 153.796,-26.0216"/>
</g>
<!-- Node6 -->
<g id="node6" class="node"><title>Node6</title>
<g id="a_node6"><a xlink:title=" ">
<polygon fill="white" stroke="#bfbfbf" points="191.872,-1 191.872,-21 290.128,-21 290.128,-1 191.872,-1"/>
<text text-anchor="middle" x="241" y="-7" font-family="Helvetica,sans-Serif" font-size="10.00">rexxplatformdefs.h</text>
</a>
</g>
</g>
<!-- Node3&#45;&gt;Node6 -->
<g id="edge5" class="edge"><title>Node3&#45;&gt;Node6</title>
<path fill="none" stroke="midnightblue" d="M196.752,-58.7527C204.547,-50.5165 216.134,-38.2738 225.495,-28.3824"/>
<polygon fill="midnightblue" stroke="midnightblue" points="228.079,-30.744 232.411,-21.0752 222.995,-25.9323 228.079,-30.744"/>
</g>
<!-- Node7 -->
<g id="node7" class="node"><title>Node7</title>
<g id="a_node7"><a xlink:title=" ">
<polygon fill="white" stroke="#bfbfbf" points="308.15,-1 308.15,-21 405.85,-21 405.85,-1 308.15,-1"/>
<text text-anchor="middle" x="357" y="-7" font-family="Helvetica,sans-Serif" font-size="10.00">rexxplatformapis.h</text>
</a>
</g>
</g>
<!-- Node3&#45;&gt;Node7 -->
<g id="edge6" class="edge"><title>Node3&#45;&gt;Node7</title>
<path fill="none" stroke="midnightblue" d="M209.748,-60.7936C237.66,-51.5447 286.499,-35.3612 320.234,-24.1829"/>
<polygon fill="midnightblue" stroke="midnightblue" points="321.356,-27.4983 329.748,-21.0304 319.154,-20.8535 321.356,-27.4983"/>
</g>
</g>
</svg>
        <g id="navigator" transform="translate(0 0)" fill="#404254">
                <rect fill="#f2f5e9" fill-opacity="0.5" stroke="#606060" stroke-width=".5" x="0" y="0" width="60" height="60"/>
                <use id="zoomplus" xlink:href="#zoomPlus" x="17" y="9" onmousedown="handleZoom(evt,'in')"/>
                <use id="zoomminus" xlink:href="#zoomMin" x="42" y="9" onmousedown="handleZoom(evt,'out')"/>
                <use id="reset" xlink:href="#resetDef" x="30" y="36" onmousedown="handleReset()"/>
                <g id="arrowUp" xlink:href="#dirArrow" transform="translate(30 24)" onmousedown="handlePan(0,-1)">
                  <use xlink:href="#rim" fill="#404040">
                        <set attributeName="fill" to="#808080" begin="arrowUp.mouseover" end="arrowUp.mouseout"/>
                  </use>
                  <path fill="none" stroke="white" stroke-width="1.5" d="M0,-3.0v7 M-2.5,-0.5L0,-3.0L2.5,-0.5"/>
                </g>
                <g id="arrowRight" xlink:href="#dirArrow" transform="rotate(90) translate(36 -43)" onmousedown="handlePan(1,0)">
                  <use xlink:href="#rim" fill="#404040">
                        <set attributeName="fill" to="#808080" begin="arrowRight.mouseover" end="arrowRight.mouseout"/>
                  </use>
                  <path fill="none" stroke="white" stroke-width="1.5" d="M0,-3.0v7 M-2.5,-0.5L0,-3.0L2.5,-0.5"/>
                </g>
                <g id="arrowDown" xlink:href="#dirArrow" transform="rotate(180) translate(-30 -48)" onmousedown="handlePan(0,1)">
                  <use xlink:href="#rim" fill="#404040">
                        <set attributeName="fill" to="#808080" begin="arrowDown.mouseover" end="arrowDown.mouseout"/>
                  </use>
                  <path fill="none" stroke="white" stroke-width="1.5" d="M0,-3.0v7 M-2.5,-0.5L0,-3.0L2.5,-0.5"/>
                </g>
                <g id="arrowLeft" xlink:href="#dirArrow" transform="rotate(270) translate(-36 17)" onmousedown="handlePan(-1,0)">
                  <use xlink:href="#rim" fill="#404040">
                        <set attributeName="fill" to="#808080" begin="arrowLeft.mouseover" end="arrowLeft.mouseout"/>
                  </use>
                  <path fill="none" stroke="white" stroke-width="1.5" d="M0,-3.0v7 M-2.5,-0.5L0,-3.0L2.5,-0.5"/>
                </g>
        </g>
        <svg viewBox="0 0 15 15" width="100%" height="30px" preserveAspectRatio="xMaxYMin meet">
         <g id="arrow_out" transform="scale(0.3 0.3)">
          <a xlink:href="unix_2rexxutil_8cpp__incl_org.svg" target="_base">
           <rect id="button" ry="5" rx="5" y="6" x="6" height="38" width="38"
                fill="#f2f5e9" fill-opacity="0.5" stroke="#606060" stroke-width="1.0"/>
           <path id="arrow"
             d="M 11.500037,31.436501 C 11.940474,20.09759 22.043105,11.32322 32.158766,21.979434 L 37.068811,17.246167 C 37.068811,17.246167 37.088388,32 37.088388,32 L 22.160133,31.978069 C 22.160133,31.978069 26.997745,27.140456 26.997745,27.140456 C 18.528582,18.264221 13.291696,25.230495 11.500037,31.436501 z"
             style="fill:#404040;"/>
          </a>
         </g>
        </svg>
</svg>
