<?xml version="1.0" encoding="UTF-8" standalone="no"?>
<!DOCTYPE svg PUBLIC "-//W3C//DTD SVG 1.1//EN"
 "http://www.w3.org/Graphics/SVG/1.1/DTD/svg11.dtd">
<!-- Generated by graphviz version 2.30.1 (20130222.1704)
 -->
<!-- Title: ErrorMessages.cpp Pages: 1 -->
<!--zoomable 378 -->
<svg id="main" version="1.1" xmlns="http://www.w3.org/2000/svg" xmlns:xlink="http://www.w3.org/1999/xlink" xml:space="preserve" onload="init(evt)">
<style type="text/css"><![CDATA[
.edge:hover path { stroke: red; }
.edge:hover polygon { stroke: red; fill: red; }
]]></style>
<script type="text/javascript"><![CDATA[
var edges = document.getElementsByTagName('g');
if (edges && edges.length) {
  for (var i=0;i<edges.length;i++) {
    if (edges[i].id.substr(0,4)=='edge') {
      edges[i].setAttribute('class','edge');
    }
  }
}
]]></script>
        <defs>
                <circle id="rim" cx="0" cy="0" r="7"/>
                <circle id="rim2" cx="0" cy="0" r="3.5"/>
                <g id="zoomPlus">
                        <use xlink:href="#rim" fill="#404040">
                                <set attributeName="fill" to="#808080" begin="zoomplus.mouseover" end="zoomplus.mouseout"/>
                        </use>
                        <path d="M-4,0h8M0,-4v8" fill="none" stroke="white" stroke-width="1.5" pointer-events="none"/>
                </g>
                <g id="zoomMin">
                        <use xlink:href="#rim" fill="#404040">
                                <set attributeName="fill" to="#808080" begin="zoomminus.mouseover" end="zoomminus.mouseout"/>
                        </use>
                        <path d="M-4,0h8" fill="none" stroke="white" stroke-width="1.5" pointer-events="none"/>
                </g>
                <g id="dirArrow">
                        <path fill="none" stroke="white" stroke-width="1.5" d="M0,-3.0v7 M-2.5,-0.5L0,-3.0L2.5,-0.5"/>
                </g>
               <g id="resetDef">
                       <use xlink:href="#rim2" fill="#404040">
                               <set attributeName="fill" to="#808080" begin="reset.mouseover" end="reset.mouseout"/>
                       </use>
               </g>
        </defs>

<script type="text/javascript">
var viewWidth = 2191;
var viewHeight = 378;
var sectionId = 'dynsection-0';
</script>
<script xlink:href="svgpan.js"/>
<svg id="graph" class="graph">
<g id="viewport">
<title>ErrorMessages.cpp</title>
<polygon fill="white" stroke="white" points="-4,5 -4,-374 2188.18,-374 2188.18,5 -4,5"/>
<!-- Node1 -->
<g id="node1" class="node"><title>Node1</title>
<g id="a_node1"><a xlink:title=" ">
<polygon fill="#bfbfbf" stroke="black" points="982.831,-349 982.831,-369 1085.53,-369 1085.53,-349 982.831,-349"/>
<text text-anchor="middle" x="1034.18" y="-355" font-family="Helvetica,sans-Serif" font-size="10.00">ErrorMessages.cpp</text>
</a>
</g>
</g>
<!-- Node2 -->
<g id="node2" class="node"><title>Node2</title>
<g id="a_node2"><a xlink:title=" ">
<polygon fill="white" stroke="#bfbfbf" points="221.45,-175 221.45,-195 266.912,-195 266.912,-175 221.45,-175"/>
<text text-anchor="middle" x="244.181" y="-181" font-family="Helvetica,sans-Serif" font-size="10.00">stdio.h</text>
</a>
</g>
</g>
<!-- Node1&#45;&gt;Node2 -->
<g id="edge1" class="edge"><title>Node1&#45;&gt;Node2</title>
<path fill="none" stroke="midnightblue" d="M982.74,-350.389C927.538,-341.983 837.372,-327.562 760.181,-312 546.517,-268.924 490.931,-255.596 276.855,-196.072"/>
<polygon fill="midnightblue" stroke="midnightblue" points="277.773,-192.695 267.201,-193.387 275.897,-199.439 277.773,-192.695"/>
</g>
<!-- Node3 -->
<g id="node3" class="node"><title>Node3</title>
<g id="a_node3"><a xlink:title=" ">
<polygon fill="white" stroke="#bfbfbf" points="284.784,-175 284.784,-195 333.577,-195 333.577,-175 284.784,-175"/>
<text text-anchor="middle" x="309.181" y="-181" font-family="Helvetica,sans-Serif" font-size="10.00">string.h</text>
</a>
</g>
</g>
<!-- Node1&#45;&gt;Node3 -->
<g id="edge2" class="edge"><title>Node1&#45;&gt;Node3</title>
<path fill="none" stroke="midnightblue" d="M997.138,-348.99C882.269,-321.056 538.306,-237.446 514.181,-232 441.122,-215.507 419.596,-215.329 343.671,-196.225"/>
<polygon fill="midnightblue" stroke="midnightblue" points="344.176,-192.743 333.622,-193.668 342.45,-199.526 344.176,-192.743"/>
</g>
<!-- Node4 -->
<g id="node4" class="node"><title>Node4</title>
<g id="a_node4"><a xlink:title=" ">
<polygon fill="white" stroke="#bfbfbf" points="2069.06,-175 2069.06,-195 2117.3,-195 2117.3,-175 2069.06,-175"/>
<text text-anchor="middle" x="2093.18" y="-181" font-family="Helvetica,sans-Serif" font-size="10.00">ctype.h</text>
</a>
</g>
</g>
<!-- Node1&#45;&gt;Node4 -->
<g id="edge3" class="edge"><title>Node1&#45;&gt;Node4</title>
<path fill="none" stroke="midnightblue" d="M1032.59,-348.877C1029.04,-325.258 1023.37,-261.876 1058.18,-232 1098.88,-197.068 1940.06,-204.318 2058.63,-195.066"/>
<polygon fill="midnightblue" stroke="midnightblue" points="2059.27,-198.516 2068.84,-193.953 2058.52,-191.558 2059.27,-198.516"/>
</g>
<!-- Node5 -->
<g id="node5" class="node"><title>Node5</title>
<g id="a_node5"><a xlink:title=" ">
<polygon fill="white" stroke="#bfbfbf" points="2135.62,-175 2135.62,-195 2182.74,-195 2182.74,-175 2135.62,-175"/>
<text text-anchor="middle" x="2159.18" y="-181" font-family="Helvetica,sans-Serif" font-size="10.00">limits.h</text>
</a>
</g>
</g>
<!-- Node1&#45;&gt;Node5 -->
<g id="edge4" class="edge"><title>Node1&#45;&gt;Node5</title>
<path fill="none" stroke="midnightblue" d="M1038.68,-348.996C1046.81,-333.803 1065.52,-303.421 1091.18,-290 1293.03,-184.434 1883.06,-238.628 2125.65,-195.64"/>
<polygon fill="midnightblue" stroke="midnightblue" points="2126.34,-199.071 2135.53,-193.796 2125.06,-192.189 2126.34,-199.071"/>
</g>
<!-- Node6 -->
<g id="node6" class="node"><title>Node6</title>
<g id="a_node6"><a xlink:title=" ">
<polygon fill="white" stroke="#bfbfbf" points="1100.67,-291 1100.67,-311 1151.69,-311 1151.69,-291 1100.67,-291"/>
<text text-anchor="middle" x="1126.18" y="-297" font-family="Helvetica,sans-Serif" font-size="10.00">unistd.h</text>
</a>
</g>
</g>
<!-- Node1&#45;&gt;Node6 -->
<g id="edge5" class="edge"><title>Node1&#45;&gt;Node6</title>
<path fill="none" stroke="midnightblue" d="M1049.37,-348.753C1063.84,-339.946 1085.84,-326.558 1102.59,-316.362"/>
<polygon fill="midnightblue" stroke="midnightblue" points="1104.55,-319.264 1111.27,-311.075 1100.91,-313.285 1104.55,-319.264"/>
</g>
<!-- Node7 -->
<g id="node7" class="node"><title>Node7</title>
<g id="a_node7"><a xlink:title=" ">
<polygon fill="white" stroke="#bfbfbf" points="1169.34,-291 1169.34,-311 1217.02,-311 1217.02,-291 1169.34,-291"/>
<text text-anchor="middle" x="1193.18" y="-297" font-family="Helvetica,sans-Serif" font-size="10.00">stdlib.h</text>
</a>
</g>
</g>
<!-- Node1&#45;&gt;Node7 -->
<g id="edge6" class="edge"><title>Node1&#45;&gt;Node7</title>
<path fill="none" stroke="midnightblue" d="M1060.08,-348.878C1087.2,-339.327 1129.89,-324.291 1159.58,-313.833"/>
<polygon fill="midnightblue" stroke="midnightblue" points="1160.85,-317.099 1169.12,-310.476 1158.52,-310.497 1160.85,-317.099"/>
</g>
<!-- Node8 -->
<g id="node8" class="node"><title>Node8</title>
<g id="a_node8"><a xlink:href="_rexx_core_8h.html" target="_top" xlink:title=" ">
<polygon fill="white" stroke="black" points="937.782,-233 937.782,-253 1006.58,-253 1006.58,-233 937.782,-233"/>
<text text-anchor="middle" x="972.181" y="-239" font-family="Helvetica,sans-Serif" font-size="10.00">RexxCore.h</text>
</a>
</g>
</g>
<!-- Node1&#45;&gt;Node8 -->
<g id="edge7" class="edge"><title>Node1&#45;&gt;Node8</title>
<path fill="none" stroke="midnightblue" d="M1029.11,-348.671C1018.84,-329.789 995.433,-286.754 982.051,-262.149"/>
<polygon fill="midnightblue" stroke="midnightblue" points="985.004,-260.252 977.152,-253.139 978.855,-263.596 985.004,-260.252"/>
</g>
<!-- Node51 -->
<g id="node44" class="node"><title>Node51</title>
<g id="a_node44"><a xlink:href="_string_class_8hpp.html" target="_top" xlink:title=" ">
<polygon fill="white" stroke="black" points="169.886,-291 169.886,-311 256.476,-311 256.476,-291 169.886,-291"/>
<text text-anchor="middle" x="213.181" y="-297" font-family="Helvetica,sans-Serif" font-size="10.00">StringClass.hpp</text>
</a>
</g>
</g>
<!-- Node1&#45;&gt;Node51 -->
<g id="edge52" class="edge"><title>Node1&#45;&gt;Node51</title>
<path fill="none" stroke="midnightblue" d="M982.824,-354.497C836.268,-344.5 417.006,-315.903 267.201,-305.685"/>
<polygon fill="midnightblue" stroke="midnightblue" points="267.104,-302.17 256.889,-304.981 266.627,-309.154 267.104,-302.17"/>
</g>
<!-- Node70 -->
<g id="node48" class="node"><title>Node70</title>
<g id="a_node48"><a xlink:href="unix_2_system_interpreter_8hpp.html" target="_top" xlink:title=" ">
<polygon fill="white" stroke="black" points="853.987,-291 853.987,-311 968.375,-311 968.375,-291 853.987,-291"/>
<text text-anchor="middle" x="911.181" y="-297" font-family="Helvetica,sans-Serif" font-size="10.00">SystemInterpreter.hpp</text>
</a>
</g>
</g>
<!-- Node1&#45;&gt;Node70 -->
<g id="edge60" class="edge"><title>Node1&#45;&gt;Node70</title>
<path fill="none" stroke="midnightblue" d="M1014.15,-348.878C994.132,-339.766 963.152,-325.662 940.4,-315.303"/>
<polygon fill="midnightblue" stroke="midnightblue" points="941.76,-312.076 931.208,-311.118 938.859,-318.447 941.76,-312.076"/>
</g>
<!-- Node71 -->
<g id="node49" class="node"><title>Node71</title>
<g id="a_node49"><a xlink:href="_rexx_message_numbers_8h.html" target="_top" xlink:title=" ">
<polygon fill="white" stroke="black" points="1235.05,-291 1235.05,-311 1363.31,-311 1363.31,-291 1235.05,-291"/>
<text text-anchor="middle" x="1299.18" y="-297" font-family="Helvetica,sans-Serif" font-size="10.00">RexxMessageNumbers.h</text>
</a>
</g>
</g>
<!-- Node1&#45;&gt;Node71 -->
<g id="edge62" class="edge"><title>Node1&#45;&gt;Node71</title>
<path fill="none" stroke="midnightblue" d="M1077.05,-348.94C1123.24,-339.181 1196.77,-323.642 1246.46,-313.141"/>
<polygon fill="midnightblue" stroke="midnightblue" points="1247.31,-316.539 1256.37,-311.047 1245.86,-309.69 1247.31,-316.539"/>
</g>
<!-- Node72 -->
<g id="node50" class="node"><title>Node72</title>
<g id="a_node50"><a xlink:href="_rexx_message_table_8h.html" target="_top" xlink:title=" ">
<polygon fill="white" stroke="black" points="1381.38,-291 1381.38,-311 1492.98,-311 1492.98,-291 1381.38,-291"/>
<text text-anchor="middle" x="1437.18" y="-297" font-family="Helvetica,sans-Serif" font-size="10.00">RexxMessageTable.h</text>
</a>
</g>
</g>
<!-- Node1&#45;&gt;Node72 -->
<g id="edge63" class="edge"><title>Node1&#45;&gt;Node72</title>
<path fill="none" stroke="midnightblue" d="M1085.76,-351.264C1150.07,-342.802 1263.65,-327.65 1371.12,-312.134"/>
<polygon fill="midnightblue" stroke="midnightblue" points="1371.77,-315.577 1381.17,-310.68 1370.77,-308.649 1371.77,-315.577"/>
</g>
<!-- Node9 -->
<g id="node9" class="node"><title>Node9</title>
<g id="a_node9"><a xlink:href="oorexxapi_8h.html" target="_top" xlink:title=" ">
<polygon fill="white" stroke="black" points="351.331,-175 351.331,-195 419.031,-195 419.031,-175 351.331,-175"/>
<text text-anchor="middle" x="385.181" y="-181" font-family="Helvetica,sans-Serif" font-size="10.00">oorexxapi.h</text>
</a>
</g>
</g>
<!-- Node8&#45;&gt;Node9 -->
<g id="edge8" class="edge"><title>Node8&#45;&gt;Node9</title>
<path fill="none" stroke="midnightblue" d="M937.604,-240.806C852.652,-237.504 626.839,-226.497 429.339,-195.98"/>
<polygon fill="midnightblue" stroke="midnightblue" points="429.782,-192.506 419.361,-194.417 428.699,-199.422 429.782,-192.506"/>
</g>
<!-- Node8&#45;&gt;Node2 -->
<g id="edge11" class="edge"><title>Node8&#45;&gt;Node2</title>
<path fill="none" stroke="midnightblue" d="M937.421,-242.592C836.401,-243.703 534.272,-242.72 276.99,-195.709"/>
<polygon fill="midnightblue" stroke="midnightblue" points="277.559,-192.255 267.088,-193.872 276.282,-199.137 277.559,-192.255"/>
</g>
<!-- Node16 -->
<g id="node12" class="node"><title>Node16</title>
<g id="a_node12"><a xlink:title=" ">
<polygon fill="white" stroke="#bfbfbf" points="11.1146,-175 11.1146,-195 63.2474,-195 63.2474,-175 11.1146,-175"/>
<text text-anchor="middle" x="37.181" y="-181" font-family="Helvetica,sans-Serif" font-size="10.00">stdarg.h</text>
</a>
</g>
</g>
<!-- Node8&#45;&gt;Node16 -->
<g id="edge12" class="edge"><title>Node8&#45;&gt;Node16</title>
<path fill="none" stroke="midnightblue" d="M937.352,-241.277C795.862,-238.181 263.041,-224.929 73.5158,-195.809"/>
<polygon fill="midnightblue" stroke="midnightblue" points="73.8364,-192.316 63.4078,-194.185 72.7262,-199.227 73.8364,-192.316"/>
</g>
<!-- Node8&#45;&gt;Node3 -->
<g id="edge13" class="edge"><title>Node8&#45;&gt;Node3</title>
<path fill="none" stroke="midnightblue" d="M937.399,-240.476C825.731,-235.428 476.324,-218.39 343.809,-195.901"/>
<polygon fill="midnightblue" stroke="midnightblue" points="344.361,-192.445 333.902,-194.133 343.131,-199.336 344.361,-192.445"/>
</g>
<!-- Node8&#45;&gt;Node4 -->
<g id="edge14" class="edge"><title>Node8&#45;&gt;Node4</title>
<path fill="none" stroke="midnightblue" d="M1006.67,-234.08C1011.2,-233.257 1015.79,-232.53 1020.18,-232 1475.55,-177.085 1601.22,-268.415 2058.66,-195.595"/>
<polygon fill="midnightblue" stroke="midnightblue" points="2059.52,-199.002 2068.84,-193.957 2058.41,-192.091 2059.52,-199.002"/>
</g>
<!-- Node8&#45;&gt;Node5 -->
<g id="edge15" class="edge"><title>Node8&#45;&gt;Node5</title>
<path fill="none" stroke="midnightblue" d="M1006.85,-237.312C1022.5,-235.365 1041.24,-233.268 1058.18,-232 1291.75,-214.514 1875.64,-234.209 2125.37,-195.601"/>
<polygon fill="midnightblue" stroke="midnightblue" points="2126.25,-199.006 2135.56,-193.962 2125.13,-192.095 2126.25,-199.006"/>
</g>
<!-- Node17 -->
<g id="node13" class="node"><title>Node17</title>
<g id="a_node13"><a xlink:href="_rexx_platform_definitions_8h.html" target="_top" xlink:title=" ">
<polygon fill="white" stroke="black" points="1798.66,-175 1798.66,-195 1929.7,-195 1929.7,-175 1798.66,-175"/>
<text text-anchor="middle" x="1864.18" y="-181" font-family="Helvetica,sans-Serif" font-size="10.00">RexxPlatformDefinitions.h</text>
</a>
</g>
</g>
<!-- Node8&#45;&gt;Node17 -->
<g id="edge16" class="edge"><title>Node8&#45;&gt;Node17</title>
<path fill="none" stroke="midnightblue" d="M1006.68,-234.132C1011.2,-233.301 1015.79,-232.557 1020.18,-232 1357.41,-189.201 1445.5,-225.103 1784.18,-196 1785.48,-195.889 1786.78,-195.772 1788.1,-195.652"/>
<polygon fill="midnightblue" stroke="midnightblue" points="1788.69,-199.11 1798.3,-194.644 1788.01,-192.143 1788.69,-199.11"/>
</g>
<!-- Node20 -->
<g id="node16" class="node"><title>Node20</title>
<g id="a_node16"><a xlink:href="_rexx_constants_8hpp.html" target="_top" xlink:title=" ">
<polygon fill="white" stroke="black" points="1947.55,-175 1947.55,-195 2050.82,-195 2050.82,-175 1947.55,-175"/>
<text text-anchor="middle" x="1999.18" y="-181" font-family="Helvetica,sans-Serif" font-size="10.00">RexxConstants.hpp</text>
</a>
</g>
</g>
<!-- Node8&#45;&gt;Node20 -->
<g id="edge19" class="edge"><title>Node8&#45;&gt;Node20</title>
<path fill="none" stroke="midnightblue" d="M1006.67,-234.099C1011.2,-233.273 1015.79,-232.54 1020.18,-232 1422.18,-182.591 1530.21,-236.227 1937.34,-195.948"/>
<polygon fill="midnightblue" stroke="midnightblue" points="1937.72,-199.427 1947.32,-194.947 1937.03,-192.462 1937.72,-199.427"/>
</g>
<!-- Node21 -->
<g id="node17" class="node"><title>Node21</title>
<g id="a_node17"><a xlink:href="_class_type_codes_8h.html" target="_top" xlink:title=" ">
<polygon fill="white" stroke="black" points="1644.21,-59 1644.21,-79 1744.15,-79 1744.15,-59 1644.21,-59"/>
<text text-anchor="middle" x="1694.18" y="-65" font-family="Helvetica,sans-Serif" font-size="10.00">ClassTypeCodes.h</text>
</a>
</g>
</g>
<!-- Node8&#45;&gt;Node21 -->
<g id="edge20" class="edge"><title>Node8&#45;&gt;Node21</title>
<path fill="none" stroke="midnightblue" d="M1006.69,-234.196C1011.21,-233.355 1015.79,-232.591 1020.18,-232 1273.94,-197.801 1347.71,-261.749 1595.18,-196 1651.66,-180.995 1682.29,-187.605 1713.18,-138 1722.85,-122.466 1714.78,-101.923 1706.37,-87.4964"/>
<polygon fill="midnightblue" stroke="midnightblue" points="1709.3,-85.5757 1700.98,-79.0138 1703.39,-89.3308 1709.3,-85.5757"/>
</g>
<!-- Node22 -->
<g id="node18" class="node"><title>Node22</title>
<g id="a_node18"><a xlink:href="_global_names_8h.html" target="_top" xlink:title=" ">
<polygon fill="white" stroke="black" points="436.721,-175 436.721,-195 521.641,-195 521.641,-175 436.721,-175"/>
<text text-anchor="middle" x="479.181" y="-181" font-family="Helvetica,sans-Serif" font-size="10.00">GlobalNames.h</text>
</a>
</g>
</g>
<!-- Node8&#45;&gt;Node22 -->
<g id="edge21" class="edge"><title>Node8&#45;&gt;Node22</title>
<path fill="none" stroke="midnightblue" d="M937.661,-239.47C864.646,-233.892 689.016,-219.272 532.021,-196.17"/>
<polygon fill="midnightblue" stroke="midnightblue" points="532.114,-192.645 521.708,-194.636 531.084,-199.569 532.114,-192.645"/>
</g>
<!-- Node23 -->
<g id="node19" class="node"><title>Node23</title>
<g id="a_node19"><a xlink:href="_object_class_8hpp.html" target="_top" xlink:title=" ">
<polygon fill="white" stroke="black" points="984.496,-175 984.496,-195 1073.87,-195 1073.87,-175 984.496,-175"/>
<text text-anchor="middle" x="1029.18" y="-181" font-family="Helvetica,sans-Serif" font-size="10.00">ObjectClass.hpp</text>
</a>
</g>
</g>
<!-- Node8&#45;&gt;Node23 -->
<g id="edge22" class="edge"><title>Node8&#45;&gt;Node23</title>
<path fill="none" stroke="midnightblue" d="M981.593,-232.753C990.06,-224.435 1002.69,-212.031 1012.8,-202.089"/>
<polygon fill="midnightblue" stroke="midnightblue" points="1015.26,-204.58 1019.94,-195.075 1010.36,-199.587 1015.26,-204.58"/>
</g>
<!-- Node26 -->
<g id="node22" class="node"><title>Node26</title>
<g id="a_node22"><a xlink:href="_table_class_8hpp.html" target="_top" xlink:title=" ">
<polygon fill="white" stroke="black" points="1818.99,-59 1818.99,-79 1903.37,-79 1903.37,-59 1818.99,-59"/>
<text text-anchor="middle" x="1861.18" y="-65" font-family="Helvetica,sans-Serif" font-size="10.00">TableClass.hpp</text>
</a>
</g>
</g>
<!-- Node8&#45;&gt;Node26 -->
<g id="edge25" class="edge"><title>Node8&#45;&gt;Node26</title>
<path fill="none" stroke="midnightblue" d="M1006.68,-234.174C1011.21,-233.336 1015.79,-232.579 1020.18,-232 1298.23,-195.299 1372.85,-237.78 1650.18,-196 1676.78,-191.994 1868.6,-159.174 1885.18,-138 1896.82,-123.145 1886.43,-102.211 1875.92,-87.5057"/>
<polygon fill="midnightblue" stroke="midnightblue" points="1878.44,-85.0403 1869.56,-79.2642 1872.9,-89.3184 1878.44,-85.0403"/>
</g>
<!-- Node29 -->
<g id="node24" class="node"><title>Node29</title>
<g id="a_node24"><a xlink:href="_stack_class_8hpp.html" target="_top" xlink:title=" ">
<polygon fill="white" stroke="black" points="539.442,-175 539.442,-195 624.92,-195 624.92,-175 539.442,-175"/>
<text text-anchor="middle" x="582.181" y="-181" font-family="Helvetica,sans-Serif" font-size="10.00">StackClass.hpp</text>
</a>
</g>
</g>
<!-- Node8&#45;&gt;Node29 -->
<g id="edge27" class="edge"><title>Node8&#45;&gt;Node29</title>
<path fill="none" stroke="midnightblue" d="M937.431,-237.968C877.665,-230.887 751.344,-215.272 635.134,-196.257"/>
<polygon fill="midnightblue" stroke="midnightblue" points="635.437,-192.759 625,-194.585 634.298,-199.666 635.437,-192.759"/>
</g>
<!-- Node30 -->
<g id="node25" class="node"><title>Node30</title>
<g id="a_node25"><a xlink:href="_rexx_memory_8hpp.html" target="_top" xlink:title=" ">
<polygon fill="white" stroke="black" points="1493.37,-175 1493.37,-195 1586.99,-195 1586.99,-175 1493.37,-175"/>
<text text-anchor="middle" x="1540.18" y="-181" font-family="Helvetica,sans-Serif" font-size="10.00">RexxMemory.hpp</text>
</a>
</g>
</g>
<!-- Node8&#45;&gt;Node30 -->
<g id="edge28" class="edge"><title>Node8&#45;&gt;Node30</title>
<path fill="none" stroke="midnightblue" d="M1006.7,-234.304C1011.22,-233.445 1015.8,-232.648 1020.18,-232 1187.57,-207.248 1387.37,-194.133 1483.29,-188.846"/>
<polygon fill="midnightblue" stroke="midnightblue" points="1483.56,-192.337 1493.35,-188.299 1483.18,-185.347 1483.56,-192.337"/>
</g>
<!-- Node37 -->
<g id="node30" class="node"><title>Node37</title>
<g id="a_node30"><a xlink:href="_rexx_behaviour_8hpp.html" target="_top" xlink:title=" ">
<polygon fill="white" stroke="black" points="863.817,-175 863.817,-195 966.545,-195 966.545,-175 863.817,-175"/>
<text text-anchor="middle" x="915.181" y="-181" font-family="Helvetica,sans-Serif" font-size="10.00">RexxBehaviour.hpp</text>
</a>
</g>
</g>
<!-- Node8&#45;&gt;Node37 -->
<g id="edge36" class="edge"><title>Node8&#45;&gt;Node37</title>
<path fill="none" stroke="midnightblue" d="M962.769,-232.753C954.302,-224.435 941.677,-212.031 931.558,-202.089"/>
<polygon fill="midnightblue" stroke="midnightblue" points="934.004,-199.587 924.418,-195.075 929.099,-204.58 934.004,-199.587"/>
</g>
<!-- Node39 -->
<g id="node32" class="node"><title>Node39</title>
<g id="a_node32"><a xlink:href="_class_class_8hpp.html" target="_top" xlink:title=" ">
<polygon fill="white" stroke="black" points="642.445,-175 642.445,-195 727.917,-195 727.917,-175 642.445,-175"/>
<text text-anchor="middle" x="685.181" y="-181" font-family="Helvetica,sans-Serif" font-size="10.00">ClassClass.hpp</text>
</a>
</g>
</g>
<!-- Node8&#45;&gt;Node39 -->
<g id="edge38" class="edge"><title>Node8&#45;&gt;Node39</title>
<path fill="none" stroke="midnightblue" d="M937.562,-235.245C888.055,-225.585 796.606,-207.741 738.442,-196.392"/>
<polygon fill="midnightblue" stroke="midnightblue" points="738.827,-192.902 728.342,-194.422 737.486,-199.772 738.827,-192.902"/>
</g>
<!-- Node40 -->
<g id="node33" class="node"><title>Node40</title>
<g id="a_node33"><a xlink:href="_rexx_envelope_8hpp.html" target="_top" xlink:title=" ">
<polygon fill="white" stroke="black" points="746.208,-175 746.208,-195 846.154,-195 846.154,-175 746.208,-175"/>
<text text-anchor="middle" x="796.181" y="-181" font-family="Helvetica,sans-Serif" font-size="10.00">RexxEnvelope.hpp</text>
</a>
</g>
</g>
<!-- Node8&#45;&gt;Node40 -->
<g id="edge39" class="edge"><title>Node8&#45;&gt;Node40</title>
<path fill="none" stroke="midnightblue" d="M943.512,-232.878C913.764,-223.413 867.083,-208.56 834.255,-198.115"/>
<polygon fill="midnightblue" stroke="midnightblue" points="835.137,-194.722 824.546,-195.025 833.014,-201.393 835.137,-194.722"/>
</g>
<!-- Node41 -->
<g id="node34" class="node"><title>Node41</title>
<g id="a_node34"><a xlink:href="_rexx_activity_8hpp.html" target="_top" xlink:title=" ">
<polygon fill="white" stroke="red" points="1216.59,-175 1216.59,-195 1305.77,-195 1305.77,-175 1216.59,-175"/>
<text text-anchor="middle" x="1261.18" y="-181" font-family="Helvetica,sans-Serif" font-size="10.00">RexxActivity.hpp</text>
</a>
</g>
</g>
<!-- Node8&#45;&gt;Node41 -->
<g id="edge40" class="edge"><title>Node8&#45;&gt;Node41</title>
<path fill="none" stroke="midnightblue" d="M1006.77,-234.721C1011.28,-233.793 1015.84,-232.866 1020.18,-232 1083.94,-219.274 1157.35,-205.37 1206.23,-196.217"/>
<polygon fill="midnightblue" stroke="midnightblue" points="1207.09,-199.617 1216.28,-194.338 1205.8,-192.736 1207.09,-199.617"/>
</g>
<!-- Node52 -->
<g id="node42" class="node"><title>Node52</title>
<g id="a_node42"><a xlink:href="_number_string_class_8hpp.html" target="_top" xlink:title=" ">
<polygon fill="white" stroke="red" points="81.1024,-175 81.1024,-195 203.26,-195 203.26,-175 81.1024,-175"/>
<text text-anchor="middle" x="142.181" y="-181" font-family="Helvetica,sans-Serif" font-size="10.00">NumberStringClass.hpp</text>
</a>
</g>
</g>
<!-- Node8&#45;&gt;Node52 -->
<g id="edge49" class="edge"><title>Node8&#45;&gt;Node52</title>
<path fill="none" stroke="midnightblue" d="M937.634,-240.912C831.279,-237.349 499.218,-224.64 213.377,-196.044"/>
<polygon fill="midnightblue" stroke="midnightblue" points="213.529,-192.541 203.229,-195.02 212.827,-199.506 213.529,-192.541"/>
</g>
<!-- Node68 -->
<g id="node43" class="node"><title>Node68</title>
<g id="a_node43"><a xlink:href="_activity_manager_8hpp.html" target="_top" xlink:title=" ">
<polygon fill="white" stroke="red" points="1092.15,-175 1092.15,-195 1198.21,-195 1198.21,-175 1092.15,-175"/>
<text text-anchor="middle" x="1145.18" y="-181" font-family="Helvetica,sans-Serif" font-size="10.00">ActivityManager.hpp</text>
</a>
</g>
</g>
<!-- Node8&#45;&gt;Node68 -->
<g id="edge51" class="edge"><title>Node8&#45;&gt;Node68</title>
<path fill="none" stroke="midnightblue" d="M1000.36,-232.878C1029.6,-223.413 1075.49,-208.56 1107.76,-198.115"/>
<polygon fill="midnightblue" stroke="midnightblue" points="1108.86,-201.435 1117.3,-195.025 1106.71,-194.775 1108.86,-201.435"/>
</g>
<!-- Node10 -->
<g id="node10" class="node"><title>Node10</title>
<g id="a_node10"><a xlink:href="rexx_8h.html" target="_top" xlink:title=" ">
<polygon fill="white" stroke="red" points="17.5652,-117 17.5652,-137 60.7967,-137 60.7967,-117 17.5652,-117"/>
<text text-anchor="middle" x="39.181" y="-123" font-family="Helvetica,sans-Serif" font-size="10.00">rexx.h</text>
</a>
</g>
</g>
<!-- Node9&#45;&gt;Node10 -->
<g id="edge9" class="edge"><title>Node9&#45;&gt;Node10</title>
<path fill="none" stroke="midnightblue" d="M350.97,-175.762C348.004,-175.134 345.044,-174.536 342.181,-174 230.979,-153.167 201.73,-156.891 90.181,-138 84.026,-136.958 77.4728,-135.748 71.1862,-134.538"/>
<polygon fill="midnightblue" stroke="midnightblue" points="71.4627,-131.026 60.9753,-132.531 70.1123,-137.894 71.4627,-131.026"/>
</g>
<!-- Node15 -->
<g id="node11" class="node"><title>Node15</title>
<g id="a_node11"><a xlink:href="oorexxerrors_8h.html" target="_top" xlink:title=" ">
<polygon fill="white" stroke="black" points="98.9471,-117 98.9471,-137 179.415,-137 179.415,-117 98.9471,-117"/>
<text text-anchor="middle" x="139.181" y="-123" font-family="Helvetica,sans-Serif" font-size="10.00">oorexxerrors.h</text>
</a>
</g>
</g>
<!-- Node9&#45;&gt;Node15 -->
<g id="edge10" class="edge"><title>Node9&#45;&gt;Node15</title>
<path fill="none" stroke="midnightblue" d="M350.917,-176.013C347.963,-175.33 345.02,-174.652 342.181,-174 289.958,-162.011 230.13,-148.478 189.025,-139.212"/>
<polygon fill="midnightblue" stroke="midnightblue" points="189.779,-135.794 179.254,-137.01 188.24,-142.623 189.779,-135.794"/>
</g>
<!-- Node18 -->
<g id="node14" class="node"><title>Node18</title>
<g id="a_node14"><a xlink:title=" ">
<polygon fill="white" stroke="#bfbfbf" points="1932.05,-117 1932.05,-137 2040.31,-137 2040.31,-117 1932.05,-117"/>
<text text-anchor="middle" x="1986.18" y="-123" font-family="Helvetica,sans-Serif" font-size="10.00">PlatformDefinitions.h</text>
</a>
</g>
</g>
<!-- Node17&#45;&gt;Node18 -->
<g id="edge17" class="edge"><title>Node17&#45;&gt;Node18</title>
<path fill="none" stroke="midnightblue" d="M1884.05,-174.878C1903.9,-165.766 1934.63,-151.662 1957.2,-141.303"/>
<polygon fill="midnightblue" stroke="midnightblue" points="1958.69,-144.471 1966.32,-137.118 1955.77,-138.109 1958.69,-144.471"/>
</g>
<!-- Node19 -->
<g id="node15" class="node"><title>Node19</title>
<g id="a_node15"><a xlink:href="_rexx_error_codes_8h.html" target="_top" xlink:title=" ">
<polygon fill="white" stroke="black" points="2058.06,-117 2058.06,-137 2156.31,-137 2156.31,-117 2058.06,-117"/>
<text text-anchor="middle" x="2107.18" y="-123" font-family="Helvetica,sans-Serif" font-size="10.00">RexxErrorCodes.h</text>
</a>
</g>
</g>
<!-- Node17&#45;&gt;Node19 -->
<g id="edge18" class="edge"><title>Node17&#45;&gt;Node19</title>
<path fill="none" stroke="midnightblue" d="M1903.49,-174.94C1945.58,-165.242 2012.43,-149.836 2057.98,-139.339"/>
<polygon fill="midnightblue" stroke="midnightblue" points="2058.97,-142.703 2067.93,-137.047 2057.39,-135.882 2058.97,-142.703"/>
</g>
<!-- Node24 -->
<g id="node20" class="node"><title>Node24</title>
<g id="a_node20"><a xlink:href="_numerics_8hpp.html" target="_top" xlink:title=" ">
<polygon fill="white" stroke="black" points="355.336,-117 355.336,-137 433.026,-137 433.026,-117 355.336,-117"/>
<text text-anchor="middle" x="394.181" y="-123" font-family="Helvetica,sans-Serif" font-size="10.00">Numerics.hpp</text>
</a>
</g>
</g>
<!-- Node23&#45;&gt;Node24 -->
<g id="edge23" class="edge"><title>Node23&#45;&gt;Node24</title>
<path fill="none" stroke="midnightblue" d="M984.454,-175.308C981.322,-174.825 978.208,-174.382 975.181,-174 741.822,-144.537 680.49,-167.857 447.181,-138 445.901,-137.836 444.605,-137.661 443.299,-137.476"/>
<polygon fill="midnightblue" stroke="midnightblue" points="443.592,-133.98 433.172,-135.899 442.514,-140.896 443.592,-133.98"/>
</g>
<!-- Node25 -->
<g id="node21" class="node"><title>Node25</title>
<g id="a_node21"><a xlink:title=" ">
<polygon fill="white" stroke="#bfbfbf" points="912.39,-59 912.39,-79 963.971,-79 963.971,-59 912.39,-59"/>
<text text-anchor="middle" x="938.181" y="-65" font-family="Helvetica,sans-Serif" font-size="10.00">stddef.h</text>
</a>
</g>
</g>
<!-- Node23&#45;&gt;Node25 -->
<g id="edge24" class="edge"><title>Node23&#45;&gt;Node25</title>
<path fill="none" stroke="midnightblue" d="M984.452,-175.323C981.32,-174.837 978.207,-174.389 975.181,-174 920.486,-166.969 517.734,-178.383 480.181,-138 421.391,-74.779 783.682,-69.7767 901.834,-69.8043"/>
<polygon fill="midnightblue" stroke="midnightblue" points="902.16,-73.3047 912.165,-69.82 902.171,-66.3047 902.16,-73.3047"/>
</g>
<!-- Node27 -->
<g id="node23" class="node"><title>Node27</title>
<g id="a_node23"><a xlink:href="_rexx_collection_8hpp.html" target="_top" xlink:title=" ">
<polygon fill="white" stroke="red" points="1810.1,-1 1810.1,-21 1912.26,-21 1912.26,-1 1810.1,-1"/>
<text text-anchor="middle" x="1861.18" y="-7" font-family="Helvetica,sans-Serif" font-size="10.00">RexxCollection.hpp</text>
</a>
</g>
</g>
<!-- Node26&#45;&gt;Node27 -->
<g id="edge26" class="edge"><title>Node26&#45;&gt;Node27</title>
<path fill="none" stroke="midnightblue" d="M1861.18,-58.7527C1861.18,-51.2504 1861.18,-40.4238 1861.18,-31.0781"/>
<polygon fill="midnightblue" stroke="midnightblue" points="1864.68,-31.0752 1861.18,-21.0752 1857.68,-31.0752 1864.68,-31.0752"/>
</g>
<!-- Node31 -->
<g id="node26" class="node"><title>Node31</title>
<g id="a_node26"><a xlink:title=" ">
<polygon fill="white" stroke="#bfbfbf" points="1488.26,-117 1488.26,-137 1592.1,-137 1592.1,-117 1488.26,-117"/>
<text text-anchor="middle" x="1540.18" y="-123" font-family="Helvetica,sans-Serif" font-size="10.00">SysSemaphore.hpp</text>
</a>
</g>
</g>
<!-- Node30&#45;&gt;Node31 -->
<g id="edge29" class="edge"><title>Node30&#45;&gt;Node31</title>
<path fill="none" stroke="midnightblue" d="M1540.18,-174.753C1540.18,-167.25 1540.18,-156.424 1540.18,-147.078"/>
<polygon fill="midnightblue" stroke="midnightblue" points="1543.68,-147.075 1540.18,-137.075 1536.68,-147.075 1543.68,-147.075"/>
</g>
<!-- Node32 -->
<g id="node27" class="node"><title>Node32</title>
<g id="a_node27"><a xlink:href="_identity_table_class_8hpp.html" target="_top" xlink:title=" ">
<polygon fill="white" stroke="black" points="1759.87,-117 1759.87,-137 1876.49,-137 1876.49,-117 1759.87,-117"/>
<text text-anchor="middle" x="1818.18" y="-123" font-family="Helvetica,sans-Serif" font-size="10.00">IdentityTableClass.hpp</text>
</a>
</g>
</g>
<!-- Node30&#45;&gt;Node32 -->
<g id="edge30" class="edge"><title>Node30&#45;&gt;Node32</title>
<path fill="none" stroke="midnightblue" d="M1585.16,-174.94C1633.71,-165.16 1711.07,-149.577 1763.2,-139.076"/>
<polygon fill="midnightblue" stroke="midnightblue" points="1764.16,-142.452 1773.27,-137.047 1762.78,-135.59 1764.16,-142.452"/>
</g>
<!-- Node33 -->
<g id="node28" class="node"><title>Node33</title>
<g id="a_node28"><a xlink:href="_memory_stats_8hpp.html" target="_top" xlink:title=" ">
<polygon fill="white" stroke="black" points="1610,-117 1610,-137 1704.36,-137 1704.36,-117 1610,-117"/>
<text text-anchor="middle" x="1657.18" y="-123" font-family="Helvetica,sans-Serif" font-size="10.00">MemoryStats.hpp</text>
</a>
</g>
</g>
<!-- Node30&#45;&gt;Node33 -->
<g id="edge32" class="edge"><title>Node30&#45;&gt;Node33</title>
<path fill="none" stroke="midnightblue" d="M1559.24,-174.878C1578.19,-165.807 1607.48,-151.788 1629.1,-141.442"/>
<polygon fill="midnightblue" stroke="midnightblue" points="1630.62,-144.592 1638.13,-137.118 1627.6,-138.278 1630.62,-144.592"/>
</g>
<!-- Node34 -->
<g id="node29" class="node"><title>Node34</title>
<g id="a_node29"><a xlink:href="_memory_segment_8hpp.html" target="_top" xlink:title=" ">
<polygon fill="white" stroke="red" points="1358.38,-117 1358.38,-137 1469.98,-137 1469.98,-117 1358.38,-117"/>
<text text-anchor="middle" x="1414.18" y="-123" font-family="Helvetica,sans-Serif" font-size="10.00">MemorySegment.hpp</text>
</a>
</g>
</g>
<!-- Node30&#45;&gt;Node34 -->
<g id="edge34" class="edge"><title>Node30&#45;&gt;Node34</title>
<path fill="none" stroke="midnightblue" d="M1519.66,-174.878C1499.15,-165.766 1467.42,-151.662 1444.11,-141.303"/>
<polygon fill="midnightblue" stroke="midnightblue" points="1445.26,-137.981 1434.7,-137.118 1442.41,-144.378 1445.26,-137.981"/>
</g>
<!-- Node32&#45;&gt;Node26 -->
<g id="edge31" class="edge"><title>Node32&#45;&gt;Node26</title>
<path fill="none" stroke="midnightblue" d="M1825.28,-116.753C1831.42,-108.761 1840.45,-96.9975 1847.92,-87.2698"/>
<polygon fill="midnightblue" stroke="midnightblue" points="1850.9,-89.1383 1854.21,-79.0752 1845.35,-84.8751 1850.9,-89.1383"/>
</g>
<!-- Node33&#45;&gt;Node21 -->
<g id="edge33" class="edge"><title>Node33&#45;&gt;Node21</title>
<path fill="none" stroke="midnightblue" d="M1663.29,-116.753C1668.52,-108.843 1676.18,-97.2372 1682.57,-87.5683"/>
<polygon fill="midnightblue" stroke="midnightblue" points="1685.59,-89.348 1688.18,-79.0752 1679.75,-85.4891 1685.59,-89.348"/>
</g>
<!-- Node34&#45;&gt;Node25 -->
<g id="edge35" class="edge"><title>Node34&#45;&gt;Node25</title>
<path fill="none" stroke="midnightblue" d="M1358.18,-117.235C1355.14,-116.805 1352.12,-116.391 1349.18,-116 1211.07,-97.6558 1046.2,-80.6926 974.485,-73.5559"/>
<polygon fill="midnightblue" stroke="midnightblue" points="974.489,-70.0392 964.193,-72.5356 973.799,-77.0051 974.489,-70.0392"/>
</g>
<!-- Node38 -->
<g id="node31" class="node"><title>Node38</title>
<g id="a_node31"><a xlink:href="_primitive_behaviour_names_8h.html" target="_top" xlink:title=" ">
<polygon fill="white" stroke="black" points="197.492,-117 197.492,-137 336.87,-137 336.87,-117 197.492,-117"/>
<text text-anchor="middle" x="267.181" y="-123" font-family="Helvetica,sans-Serif" font-size="10.00">PrimitiveBehaviourNames.h</text>
</a>
</g>
</g>
<!-- Node37&#45;&gt;Node38 -->
<g id="edge37" class="edge"><title>Node37&#45;&gt;Node38</title>
<path fill="none" stroke="midnightblue" d="M863.643,-175.21C860.446,-174.771 857.272,-174.362 854.181,-174 632.667,-148.05 573.165,-159.861 347.136,-138.039"/>
<polygon fill="midnightblue" stroke="midnightblue" points="347.237,-134.532 336.944,-137.043 346.557,-141.499 347.237,-134.532"/>
</g>
<!-- Node42 -->
<g id="node35" class="node"><title>Node42</title>
<g id="a_node35"><a xlink:href="_list_class_8hpp.html" target="_top" xlink:title=" ">
<polygon fill="white" stroke="red" points="753.166,-117 753.166,-137 829.196,-137 829.196,-117 753.166,-117"/>
<text text-anchor="middle" x="791.181" y="-123" font-family="Helvetica,sans-Serif" font-size="10.00">ListClass.hpp</text>
</a>
</g>
</g>
<!-- Node41&#45;&gt;Node42 -->
<g id="edge41" class="edge"><title>Node41&#45;&gt;Node42</title>
<path fill="none" stroke="midnightblue" d="M1216.44,-175.409C1213.31,-174.902 1210.2,-174.426 1207.18,-174 1047.21,-151.426 1002.75,-162.722 839.249,-138.013"/>
<polygon fill="midnightblue" stroke="midnightblue" points="839.749,-134.549 829.334,-136.493 838.688,-141.468 839.749,-134.549"/>
</g>
<!-- Node44 -->
<g id="node36" class="node"><title>Node44</title>
<g id="a_node36"><a xlink:href="_rexx_internal_stack_8hpp.html" target="_top" xlink:title=" ">
<polygon fill="white" stroke="black" points="846.876,-117 846.876,-137 963.486,-137 963.486,-117 846.876,-117"/>
<text text-anchor="middle" x="905.181" y="-123" font-family="Helvetica,sans-Serif" font-size="10.00">RexxInternalStack.hpp</text>
</a>
</g>
</g>
<!-- Node41&#45;&gt;Node44 -->
<g id="edge42" class="edge"><title>Node41&#45;&gt;Node44</title>
<path fill="none" stroke="midnightblue" d="M1216.41,-175.595C1213.29,-175.044 1210.19,-174.508 1207.18,-174 1163.6,-166.648 1048.77,-149.373 973.927,-138.21"/>
<polygon fill="midnightblue" stroke="midnightblue" points="974.051,-134.69 963.644,-136.678 973.018,-141.614 974.051,-134.69"/>
</g>
<!-- Node45 -->
<g id="node37" class="node"><title>Node45</title>
<g id="a_node37"><a xlink:href="_rexx_activation_stack_8hpp.html" target="_top" xlink:title=" ">
<polygon fill="white" stroke="black" points="981.876,-117 981.876,-137 1108.49,-137 1108.49,-117 981.876,-117"/>
<text text-anchor="middle" x="1045.18" y="-123" font-family="Helvetica,sans-Serif" font-size="10.00">RexxActivationStack.hpp</text>
</a>
</g>
</g>
<!-- Node41&#45;&gt;Node45 -->
<g id="edge43" class="edge"><title>Node41&#45;&gt;Node45</title>
<path fill="none" stroke="midnightblue" d="M1226,-174.878C1188.86,-165.249 1130.22,-150.046 1089.84,-139.578"/>
<polygon fill="midnightblue" stroke="midnightblue" points="1090.55,-136.147 1079.99,-137.025 1088.79,-142.923 1090.55,-136.147"/>
</g>
<!-- Node46 -->
<g id="node38" class="node"><title>Node46</title>
<g id="a_node38"><a xlink:href="_expression_stack_8hpp.html" target="_top" xlink:title=" ">
<polygon fill="white" stroke="red" points="1126.21,-117 1126.21,-137 1236.15,-137 1236.15,-117 1126.21,-117"/>
<text text-anchor="middle" x="1181.18" y="-123" font-family="Helvetica,sans-Serif" font-size="10.00">ExpressionStack.hpp</text>
</a>
</g>
</g>
<!-- Node41&#45;&gt;Node46 -->
<g id="edge44" class="edge"><title>Node41&#45;&gt;Node46</title>
<path fill="none" stroke="midnightblue" d="M1247.97,-174.753C1235.62,-166.109 1216.97,-153.052 1202.51,-142.931"/>
<polygon fill="midnightblue" stroke="midnightblue" points="1204.34,-139.943 1194.15,-137.075 1200.33,-145.677 1204.34,-139.943"/>
</g>
<!-- Node48 -->
<g id="node39" class="node"><title>Node48</title>
<g id="a_node39"><a xlink:href="_rexx_local_variables_8hpp.html" target="_top" xlink:title=" ">
<polygon fill="white" stroke="red" points="489.629,-117 489.629,-137 612.733,-137 612.733,-117 489.629,-117"/>
<text text-anchor="middle" x="551.181" y="-123" font-family="Helvetica,sans-Serif" font-size="10.00">RexxLocalVariables.hpp</text>
</a>
</g>
</g>
<!-- Node41&#45;&gt;Node48 -->
<g id="edge45" class="edge"><title>Node41&#45;&gt;Node48</title>
<path fill="none" stroke="midnightblue" d="M1216.46,-175.285C1213.32,-174.808 1210.21,-174.372 1207.18,-174 951.917,-142.628 883.092,-163.636 623.223,-138.024"/>
<polygon fill="midnightblue" stroke="midnightblue" points="623.401,-134.525 613.102,-137.013 622.705,-141.49 623.401,-134.525"/>
</g>
<!-- Node63 -->
<g id="node40" class="node"><title>Node63</title>
<g id="a_node40"><a xlink:href="_source_location_8hpp.html" target="_top" xlink:title=" ">
<polygon fill="white" stroke="black" points="630.703,-117 630.703,-137 735.659,-137 735.659,-117 630.703,-117"/>
<text text-anchor="middle" x="683.181" y="-123" font-family="Helvetica,sans-Serif" font-size="10.00">SourceLocation.hpp</text>
</a>
</g>
</g>
<!-- Node41&#45;&gt;Node63 -->
<g id="edge46" class="edge"><title>Node41&#45;&gt;Node63</title>
<path fill="none" stroke="midnightblue" d="M1216.45,-175.341C1213.32,-174.85 1210.21,-174.397 1207.18,-174 1005.83,-147.603 950.856,-162.227 745.905,-138.118"/>
<polygon fill="midnightblue" stroke="midnightblue" points="746.057,-134.612 735.713,-136.902 745.228,-141.563 746.057,-134.612"/>
</g>
<!-- Node64 -->
<g id="node41" class="node"><title>Node64</title>
<g id="a_node41"><a xlink:href="_exit_handler_8hpp.html" target="_top" xlink:title=" ">
<polygon fill="white" stroke="red" points="1253.88,-117 1253.88,-137 1340.48,-137 1340.48,-117 1253.88,-117"/>
<text text-anchor="middle" x="1297.18" y="-123" font-family="Helvetica,sans-Serif" font-size="10.00">ExitHandler.hpp</text>
</a>
</g>
</g>
<!-- Node41&#45;&gt;Node64 -->
<g id="edge47" class="edge"><title>Node41&#45;&gt;Node64</title>
<path fill="none" stroke="midnightblue" d="M1267.13,-174.753C1272.21,-166.843 1279.67,-155.237 1285.89,-145.568"/>
<polygon fill="midnightblue" stroke="midnightblue" points="1288.88,-147.38 1291.35,-137.075 1283,-143.594 1288.88,-147.38"/>
</g>
<!-- Node64&#45;&gt;Node8 -->
<g id="edge48" class="edge"><title>Node64&#45;&gt;Node8</title>
<path fill="none" stroke="midnightblue" d="M1303.98,-137.132C1313.75,-151.44 1329.02,-179.233 1314.18,-196 1270.56,-245.29 1085.12,-221.278 1020.18,-232 1019.09,-232.18 1017.98,-232.368 1016.87,-232.562"/>
<polygon fill="midnightblue" stroke="midnightblue" points="1015.92,-229.179 1006.72,-234.444 1017.19,-236.061 1015.92,-229.179"/>
</g>
<!-- Node52&#45;&gt;Node24 -->
<g id="edge50" class="edge"><title>Node52&#45;&gt;Node24</title>
<path fill="none" stroke="midnightblue" d="M182.949,-174.94C227.203,-165.106 297.864,-149.404 345.124,-138.902"/>
<polygon fill="midnightblue" stroke="midnightblue" points="346.127,-142.264 355.129,-136.678 344.608,-135.431 346.127,-142.264"/>
</g>
<!-- Node51&#45;&gt;Node52 -->
<g id="edge53" class="edge"><title>Node51&#45;&gt;Node52</title>
<path fill="none" stroke="midnightblue" d="M212.123,-290.991C210.183,-277.329 205.105,-250.958 193.181,-232 185.642,-220.015 174.123,-209.25 163.939,-201.154"/>
<polygon fill="midnightblue" stroke="midnightblue" points="165.903,-198.25 155.815,-195.011 161.681,-203.834 165.903,-198.25"/>
</g>
<!-- Node54 -->
<g id="node45" class="node"><title>Node54</title>
<g id="a_node45"><a xlink:href="_integer_class_8hpp.html" target="_top" xlink:title=" ">
<polygon fill="white" stroke="black" points="93.3807,-233 93.3807,-253 184.981,-253 184.981,-233 93.3807,-233"/>
<text text-anchor="middle" x="139.181" y="-239" font-family="Helvetica,sans-Serif" font-size="10.00">IntegerClass.hpp</text>
</a>
</g>
</g>
<!-- Node51&#45;&gt;Node54 -->
<g id="edge54" class="edge"><title>Node51&#45;&gt;Node54</title>
<path fill="none" stroke="midnightblue" d="M200.961,-290.753C189.647,-282.19 172.61,-269.298 159.291,-259.219"/>
<polygon fill="midnightblue" stroke="midnightblue" points="161.259,-256.319 151.173,-253.075 157.035,-261.901 161.259,-256.319"/>
</g>
<!-- Node55 -->
<g id="node46" class="node"><title>Node55</title>
<g id="a_node46"><a xlink:href="_string_util_8hpp.html" target="_top" xlink:title=" ">
<polygon fill="white" stroke="black" points="241.166,-233 241.166,-253 317.196,-253 317.196,-233 241.166,-233"/>
<text text-anchor="middle" x="279.181" y="-239" font-family="Helvetica,sans-Serif" font-size="10.00">StringUtil.hpp</text>
</a>
</g>
</g>
<!-- Node51&#45;&gt;Node55 -->
<g id="edge56" class="edge"><title>Node51&#45;&gt;Node55</title>
<path fill="none" stroke="midnightblue" d="M224.08,-290.753C233.979,-282.353 248.789,-269.787 260.562,-259.798"/>
<polygon fill="midnightblue" stroke="midnightblue" points="263.125,-262.214 268.485,-253.075 258.596,-256.876 263.125,-262.214"/>
</g>
<!-- Node56 -->
<g id="node47" class="node"><title>Node56</title>
<g id="a_node47"><a xlink:href="_utilities_8hpp.html" target="_top" xlink:title=" ">
<polygon fill="white" stroke="red" points="3.33624,-233 3.33624,-253 71.0257,-253 71.0257,-233 3.33624,-233"/>
<text text-anchor="middle" x="37.181" y="-239" font-family="Helvetica,sans-Serif" font-size="10.00">Utilities.hpp</text>
</a>
</g>
</g>
<!-- Node51&#45;&gt;Node56 -->
<g id="edge57" class="edge"><title>Node51&#45;&gt;Node56</title>
<path fill="none" stroke="midnightblue" d="M184.512,-290.878C154.764,-281.413 108.083,-266.56 75.2554,-256.115"/>
<polygon fill="midnightblue" stroke="midnightblue" points="76.1367,-252.722 65.5462,-253.025 74.0142,-259.393 76.1367,-252.722"/>
</g>
<!-- Node54&#45;&gt;Node52 -->
<g id="edge55" class="edge"><title>Node54&#45;&gt;Node52</title>
<path fill="none" stroke="midnightblue" d="M139.676,-232.753C140.078,-225.25 140.658,-214.424 141.159,-205.078"/>
<polygon fill="midnightblue" stroke="midnightblue" points="144.655,-205.248 141.695,-195.075 137.665,-204.874 144.655,-205.248"/>
</g>
<!-- Node56&#45;&gt;Node10 -->
<g id="edge58" class="edge"><title>Node56&#45;&gt;Node10</title>
<path fill="none" stroke="midnightblue" d="M26.7886,-232.686C13.8713,-219.916 -5.58333,-196.041 2.18097,-174 6.06297,-162.98 13.8248,-152.653 21.2411,-144.587"/>
<polygon fill="midnightblue" stroke="midnightblue" points="23.8625,-146.913 28.3858,-137.332 18.8752,-142.001 23.8625,-146.913"/>
</g>
<!-- Node56&#45;&gt;Node16 -->
<g id="edge59" class="edge"><title>Node56&#45;&gt;Node16</title>
<path fill="none" stroke="midnightblue" d="M37.181,-232.753C37.181,-225.25 37.181,-214.424 37.181,-205.078"/>
<polygon fill="midnightblue" stroke="midnightblue" points="40.6811,-205.075 37.181,-195.075 33.6811,-205.075 40.6811,-205.075"/>
</g>
<!-- Node70&#45;&gt;Node8 -->
<g id="edge61" class="edge"><title>Node70&#45;&gt;Node8</title>
<path fill="none" stroke="midnightblue" d="M921.254,-290.753C930.314,-282.435 943.826,-270.031 954.655,-260.089"/>
<polygon fill="midnightblue" stroke="midnightblue" points="957.296,-262.416 962.295,-253.075 952.562,-257.26 957.296,-262.416"/>
</g>
</g>
</svg>
        <g id="navigator" transform="translate(0 0)" fill="#404254">
                <rect fill="#f2f5e9" fill-opacity="0.5" stroke="#606060" stroke-width=".5" x="0" y="0" width="60" height="60"/>
                <use id="zoomplus" xlink:href="#zoomPlus" x="17" y="9" onmousedown="handleZoom(evt,'in')"/>
                <use id="zoomminus" xlink:href="#zoomMin" x="42" y="9" onmousedown="handleZoom(evt,'out')"/>
                <use id="reset" xlink:href="#resetDef" x="30" y="36" onmousedown="handleReset()"/>
                <g id="arrowUp" xlink:href="#dirArrow" transform="translate(30 24)" onmousedown="handlePan(0,-1)">
                  <use xlink:href="#rim" fill="#404040">
                        <set attributeName="fill" to="#808080" begin="arrowUp.mouseover" end="arrowUp.mouseout"/>
                  </use>
                  <path fill="none" stroke="white" stroke-width="1.5" d="M0,-3.0v7 M-2.5,-0.5L0,-3.0L2.5,-0.5"/>
                </g>
                <g id="arrowRight" xlink:href="#dirArrow" transform="rotate(90) translate(36 -43)" onmousedown="handlePan(1,0)">
                  <use xlink:href="#rim" fill="#404040">
                        <set attributeName="fill" to="#808080" begin="arrowRight.mouseover" end="arrowRight.mouseout"/>
                  </use>
                  <path fill="none" stroke="white" stroke-width="1.5" d="M0,-3.0v7 M-2.5,-0.5L0,-3.0L2.5,-0.5"/>
                </g>
                <g id="arrowDown" xlink:href="#dirArrow" transform="rotate(180) translate(-30 -48)" onmousedown="handlePan(0,1)">
                  <use xlink:href="#rim" fill="#404040">
                        <set attributeName="fill" to="#808080" begin="arrowDown.mouseover" end="arrowDown.mouseout"/>
                  </use>
                  <path fill="none" stroke="white" stroke-width="1.5" d="M0,-3.0v7 M-2.5,-0.5L0,-3.0L2.5,-0.5"/>
                </g>
                <g id="arrowLeft" xlink:href="#dirArrow" transform="rotate(270) translate(-36 17)" onmousedown="handlePan(-1,0)">
                  <use xlink:href="#rim" fill="#404040">
                        <set attributeName="fill" to="#808080" begin="arrowLeft.mouseover" end="arrowLeft.mouseout"/>
                  </use>
                  <path fill="none" stroke="white" stroke-width="1.5" d="M0,-3.0v7 M-2.5,-0.5L0,-3.0L2.5,-0.5"/>
                </g>
        </g>
        <svg viewBox="0 0 15 15" width="100%" height="30px" preserveAspectRatio="xMaxYMin meet">
         <g id="arrow_out" transform="scale(0.3 0.3)">
          <a xlink:href="unix_2_error_messages_8cpp__incl_org.svg" target="_base">
           <rect id="button" ry="5" rx="5" y="6" x="6" height="38" width="38"
                fill="#f2f5e9" fill-opacity="0.5" stroke="#606060" stroke-width="1.0"/>
           <path id="arrow"
             d="M 11.500037,31.436501 C 11.940474,20.09759 22.043105,11.32322 32.158766,21.979434 L 37.068811,17.246167 C 37.068811,17.246167 37.088388,32 37.088388,32 L 22.160133,31.978069 C 22.160133,31.978069 26.997745,27.140456 26.997745,27.140456 C 18.528582,18.264221 13.291696,25.230495 11.500037,31.436501 z"
             style="fill:#404040;"/>
          </a>
         </g>
        </svg>
</svg>
