<?xml version="1.0" encoding="UTF-8" standalone="no"?>
<!DOCTYPE svg PUBLIC "-//W3C//DTD SVG 1.1//EN"
 "http://www.w3.org/Graphics/SVG/1.1/DTD/svg11.dtd">
<!-- Generated by graphviz version 2.30.1 (20130222.1704)
 -->
<!-- Title: rxsubcom.cpp Pages: 1 -->
<svg width="453pt" height="146pt"
 viewBox="0.00 0.00 453.00 146.00" xmlns="http://www.w3.org/2000/svg" xmlns:xlink="http://www.w3.org/1999/xlink">
<g id="graph0" class="graph" transform="scale(1 1) rotate(0) translate(4 142)">
<title>rxsubcom.cpp</title>
<polygon fill="white" stroke="white" points="-4,5 -4,-142 450,-142 450,5 -4,5"/>
<!-- Node1 -->
<g id="node1" class="node"><title>Node1</title>
<g id="a_node1"><a xlink:title=" ">
<polygon fill="#bfbfbf" stroke="black" points="149.877,-117 149.877,-137 228.123,-137 228.123,-117 149.877,-117"/>
<text text-anchor="middle" x="189" y="-123" font-family="Helvetica,sans-Serif" font-size="10.00">rxsubcom.cpp</text>
</a>
</g>
</g>
<!-- Node2 -->
<g id="node2" class="node"><title>Node2</title>
<g id="a_node2"><a xlink:title=" ">
<polygon fill="white" stroke="#bfbfbf" points="37.6035,-59 37.6035,-79 86.3965,-79 86.3965,-59 37.6035,-59"/>
<text text-anchor="middle" x="62" y="-65" font-family="Helvetica,sans-Serif" font-size="10.00">string.h</text>
</a>
</g>
</g>
<!-- Node1&#45;&gt;Node2 -->
<g id="edge1" class="edge"><title>Node1&#45;&gt;Node2</title>
<path fill="none" stroke="midnightblue" d="M168.313,-116.878C147.556,-107.725 115.376,-93.5357 91.8548,-83.1643"/>
<polygon fill="midnightblue" stroke="midnightblue" points="93.2407,-79.9503 82.6785,-79.1181 90.4164,-86.3553 93.2407,-79.9503"/>
</g>
<!-- Node3 -->
<g id="node3" class="node"><title>Node3</title>
<g id="a_node3"><a xlink:title=" ">
<polygon fill="white" stroke="#bfbfbf" points="104.269,-59 104.269,-79 149.731,-79 149.731,-59 104.269,-59"/>
<text text-anchor="middle" x="127" y="-65" font-family="Helvetica,sans-Serif" font-size="10.00">stdio.h</text>
</a>
</g>
</g>
<!-- Node1&#45;&gt;Node3 -->
<g id="edge2" class="edge"><title>Node1&#45;&gt;Node3</title>
<path fill="none" stroke="midnightblue" d="M178.762,-116.753C169.463,-108.353 155.55,-95.7874 144.49,-85.7976"/>
<polygon fill="midnightblue" stroke="midnightblue" points="146.815,-83.1807 137.048,-79.0752 142.123,-88.3755 146.815,-83.1807"/>
</g>
<!-- Node4 -->
<g id="node4" class="node"><title>Node4</title>
<g id="a_node4"><a xlink:href="rexx_8h.html" target="_top" xlink:title=" ">
<polygon fill="white" stroke="black" points="167.384,-59 167.384,-79 210.616,-79 210.616,-59 167.384,-59"/>
<text text-anchor="middle" x="189" y="-65" font-family="Helvetica,sans-Serif" font-size="10.00">rexx.h</text>
</a>
</g>
</g>
<!-- Node1&#45;&gt;Node4 -->
<g id="edge3" class="edge"><title>Node1&#45;&gt;Node4</title>
<path fill="none" stroke="midnightblue" d="M189,-116.753C189,-109.25 189,-98.4238 189,-89.0781"/>
<polygon fill="midnightblue" stroke="midnightblue" points="192.5,-89.0752 189,-79.0752 185.5,-89.0752 192.5,-89.0752"/>
</g>
<!-- Node9 -->
<g id="node9" class="node"><title>Node9</title>
<g id="a_node9"><a xlink:href="_rexx_internal_apis_8h.html" target="_top" xlink:title=" ">
<polygon fill="white" stroke="black" points="229.035,-59 229.035,-79 328.965,-79 328.965,-59 229.035,-59"/>
<text text-anchor="middle" x="279" y="-65" font-family="Helvetica,sans-Serif" font-size="10.00">RexxInternalApis.h</text>
</a>
</g>
</g>
<!-- Node1&#45;&gt;Node9 -->
<g id="edge8" class="edge"><title>Node1&#45;&gt;Node9</title>
<path fill="none" stroke="midnightblue" d="M203.862,-116.753C218.016,-107.946 239.533,-94.5575 255.919,-84.3617"/>
<polygon fill="midnightblue" stroke="midnightblue" points="257.773,-87.33 264.415,-79.0752 254.075,-81.3866 257.773,-87.33"/>
</g>
<!-- Node10 -->
<g id="node10" class="node"><title>Node10</title>
<g id="a_node10"><a xlink:href="_rexx_error_codes_8h.html" target="_top" xlink:title=" ">
<polygon fill="white" stroke="black" points="346.875,-59 346.875,-79 445.125,-79 445.125,-59 346.875,-59"/>
<text text-anchor="middle" x="396" y="-65" font-family="Helvetica,sans-Serif" font-size="10.00">RexxErrorCodes.h</text>
</a>
</g>
</g>
<!-- Node1&#45;&gt;Node10 -->
<g id="edge9" class="edge"><title>Node1&#45;&gt;Node10</title>
<path fill="none" stroke="midnightblue" d="M222.719,-116.878C258.159,-107.29 314.032,-92.1748 352.709,-81.7116"/>
<polygon fill="midnightblue" stroke="midnightblue" points="353.9,-85.0154 362.639,-79.0253 352.072,-78.2583 353.9,-85.0154"/>
</g>
<!-- Node5 -->
<g id="node5" class="node"><title>Node5</title>
<g id="a_node5"><a xlink:title=" ">
<polygon fill="white" stroke="#bfbfbf" points="-0.23877,-1 -0.23877,-21 80.2388,-21 80.2388,-1 -0.23877,-1"/>
<text text-anchor="middle" x="40" y="-7" font-family="Helvetica,sans-Serif" font-size="10.00">rexxapitypes.h</text>
</a>
</g>
</g>
<!-- Node4&#45;&gt;Node5 -->
<g id="edge4" class="edge"><title>Node4&#45;&gt;Node5</title>
<path fill="none" stroke="midnightblue" d="M167.334,-59.8571C142.786,-50.631 102.471,-35.4789 73.7822,-24.6967"/>
<polygon fill="midnightblue" stroke="midnightblue" points="74.7567,-21.3239 64.1646,-21.082 72.294,-27.8764 74.7567,-21.3239"/>
</g>
<!-- Node6 -->
<g id="node6" class="node"><title>Node6</title>
<g id="a_node6"><a xlink:href="rexxapidefs_8h.html" target="_top" xlink:title=" ">
<polygon fill="white" stroke="black" points="98.2612,-1 98.2612,-21 173.739,-21 173.739,-1 98.2612,-1"/>
<text text-anchor="middle" x="136" y="-7" font-family="Helvetica,sans-Serif" font-size="10.00">rexxapidefs.h</text>
</a>
</g>
</g>
<!-- Node4&#45;&gt;Node6 -->
<g id="edge5" class="edge"><title>Node4&#45;&gt;Node6</title>
<path fill="none" stroke="midnightblue" d="M180.248,-58.7527C172.453,-50.5165 160.866,-38.2738 151.505,-28.3824"/>
<polygon fill="midnightblue" stroke="midnightblue" points="154.005,-25.9323 144.589,-21.0752 148.921,-30.744 154.005,-25.9323"/>
</g>
<!-- Node7 -->
<g id="node7" class="node"><title>Node7</title>
<g id="a_node7"><a xlink:title=" ">
<polygon fill="white" stroke="#bfbfbf" points="191.872,-1 191.872,-21 290.128,-21 290.128,-1 191.872,-1"/>
<text text-anchor="middle" x="241" y="-7" font-family="Helvetica,sans-Serif" font-size="10.00">rexxplatformdefs.h</text>
</a>
</g>
</g>
<!-- Node4&#45;&gt;Node7 -->
<g id="edge6" class="edge"><title>Node4&#45;&gt;Node7</title>
<path fill="none" stroke="midnightblue" d="M197.587,-58.7527C205.159,-50.598 216.378,-38.5158 225.514,-28.6769"/>
<polygon fill="midnightblue" stroke="midnightblue" points="228.333,-30.7847 232.573,-21.0752 223.204,-26.0216 228.333,-30.7847"/>
</g>
<!-- Node8 -->
<g id="node8" class="node"><title>Node8</title>
<g id="a_node8"><a xlink:title=" ">
<polygon fill="white" stroke="#bfbfbf" points="308.15,-1 308.15,-21 405.85,-21 405.85,-1 308.15,-1"/>
<text text-anchor="middle" x="357" y="-7" font-family="Helvetica,sans-Serif" font-size="10.00">rexxplatformapis.h</text>
</a>
</g>
</g>
<!-- Node4&#45;&gt;Node8 -->
<g id="edge7" class="edge"><title>Node4&#45;&gt;Node8</title>
<path fill="none" stroke="midnightblue" d="M210.619,-60.7936C238.247,-51.5844 286.5,-35.5 320.019,-24.3271"/>
<polygon fill="midnightblue" stroke="midnightblue" points="321.529,-27.5131 329.909,-21.0304 319.315,-20.8724 321.529,-27.5131"/>
</g>
</g>
</svg>
