<?xml version="1.0" encoding="UTF-8" standalone="no"?>
<!DOCTYPE svg PUBLIC "-//W3C//DTD SVG 1.1//EN"
 "http://www.w3.org/Graphics/SVG/1.1/DTD/svg11.dtd">
<!-- Generated by graphviz version 2.30.1 (20130222.1704)
 -->
<!-- Title: SysLocalAPIManager.cpp Pages: 1 -->
<!--zoomable 378 -->
<svg id="main" version="1.1" xmlns="http://www.w3.org/2000/svg" xmlns:xlink="http://www.w3.org/1999/xlink" xml:space="preserve" onload="init(evt)">
<style type="text/css"><![CDATA[
.edge:hover path { stroke: red; }
.edge:hover polygon { stroke: red; fill: red; }
]]></style>
<script type="text/javascript"><![CDATA[
var edges = document.getElementsByTagName('g');
if (edges && edges.length) {
  for (var i=0;i<edges.length;i++) {
    if (edges[i].id.substr(0,4)=='edge') {
      edges[i].setAttribute('class','edge');
    }
  }
}
]]></script>
        <defs>
                <circle id="rim" cx="0" cy="0" r="7"/>
                <circle id="rim2" cx="0" cy="0" r="3.5"/>
                <g id="zoomPlus">
                        <use xlink:href="#rim" fill="#404040">
                                <set attributeName="fill" to="#808080" begin="zoomplus.mouseover" end="zoomplus.mouseout"/>
                        </use>
                        <path d="M-4,0h8M0,-4v8" fill="none" stroke="white" stroke-width="1.5" pointer-events="none"/>
                </g>
                <g id="zoomMin">
                        <use xlink:href="#rim" fill="#404040">
                                <set attributeName="fill" to="#808080" begin="zoomminus.mouseover" end="zoomminus.mouseout"/>
                        </use>
                        <path d="M-4,0h8" fill="none" stroke="white" stroke-width="1.5" pointer-events="none"/>
                </g>
                <g id="dirArrow">
                        <path fill="none" stroke="white" stroke-width="1.5" d="M0,-3.0v7 M-2.5,-0.5L0,-3.0L2.5,-0.5"/>
                </g>
               <g id="resetDef">
                       <use xlink:href="#rim2" fill="#404040">
                               <set attributeName="fill" to="#808080" begin="reset.mouseover" end="reset.mouseout"/>
                       </use>
               </g>
        </defs>

<script type="text/javascript">
var viewWidth = 822;
var viewHeight = 378;
var sectionId = 'dynsection-0';
</script>
<script xlink:href="svgpan.js"/>
<svg id="graph" class="graph">
<g id="viewport">
<title>SysLocalAPIManager.cpp</title>
<polygon fill="white" stroke="white" points="-4,5 -4,-374 819,-374 819,5 -4,5"/>
<!-- Node1 -->
<g id="node1" class="node"><title>Node1</title>
<g id="a_node1"><a xlink:title=" ">
<polygon fill="#bfbfbf" stroke="black" points="475.742,-349 475.742,-369 606.258,-369 606.258,-349 475.742,-349"/>
<text text-anchor="middle" x="541" y="-355" font-family="Helvetica,sans-Serif" font-size="10.00">SysLocalAPIManager.cpp</text>
</a>
</g>
</g>
<!-- Node2 -->
<g id="node2" class="node"><title>Node2</title>
<g id="a_node2"><a xlink:href="windows_2_sys_local_a_p_i_manager_8hpp.html" target="_top" xlink:title=" ">
<polygon fill="white" stroke="black" points="326.461,-291 326.461,-311 457.539,-311 457.539,-291 326.461,-291"/>
<text text-anchor="middle" x="392" y="-297" font-family="Helvetica,sans-Serif" font-size="10.00">SysLocalAPIManager.hpp</text>
</a>
</g>
</g>
<!-- Node1&#45;&gt;Node2 -->
<g id="edge1" class="edge"><title>Node1&#45;&gt;Node2</title>
<path fill="none" stroke="midnightblue" d="M516.729,-348.878C492.052,-339.603 453.613,-325.156 425.928,-314.752"/>
<polygon fill="midnightblue" stroke="midnightblue" points="426.853,-311.36 416.261,-311.118 424.39,-317.913 426.853,-311.36"/>
</g>
<!-- Node20 -->
<g id="node20" class="node"><title>Node20</title>
<g id="a_node20"><a xlink:href="_local_a_p_i_manager_8hpp.html" target="_top" xlink:title=" ">
<polygon fill="white" stroke="black" points="483.796,-291 483.796,-311 598.204,-311 598.204,-291 483.796,-291"/>
<text text-anchor="middle" x="541" y="-297" font-family="Helvetica,sans-Serif" font-size="10.00">LocalAPIManager.hpp</text>
</a>
</g>
</g>
<!-- Node1&#45;&gt;Node20 -->
<g id="edge25" class="edge"><title>Node1&#45;&gt;Node20</title>
<path fill="none" stroke="midnightblue" d="M541,-348.753C541,-341.25 541,-330.424 541,-321.078"/>
<polygon fill="midnightblue" stroke="midnightblue" points="544.5,-321.075 541,-311.075 537.5,-321.075 544.5,-321.075"/>
</g>
<!-- Node27 -->
<g id="node27" class="node"><title>Node27</title>
<g id="a_node27"><a xlink:title=" ">
<polygon fill="white" stroke="#bfbfbf" points="616.269,-291 616.269,-311 661.731,-311 661.731,-291 616.269,-291"/>
<text text-anchor="middle" x="639" y="-297" font-family="Helvetica,sans-Serif" font-size="10.00">stdio.h</text>
</a>
</g>
</g>
<!-- Node1&#45;&gt;Node27 -->
<g id="edge46" class="edge"><title>Node1&#45;&gt;Node27</title>
<path fill="none" stroke="midnightblue" d="M557.183,-348.753C572.738,-339.864 596.459,-326.309 614.361,-316.079"/>
<polygon fill="midnightblue" stroke="midnightblue" points="616.172,-319.075 623.118,-311.075 612.699,-312.998 616.172,-319.075"/>
</g>
<!-- Node3 -->
<g id="node3" class="node"><title>Node3</title>
<g id="a_node3"><a xlink:href="_local_queue_manager_8hpp.html" target="_top" xlink:title=" ">
<polygon fill="white" stroke="black" points="245.843,-175 245.843,-195 374.157,-195 374.157,-175 245.843,-175"/>
<text text-anchor="middle" x="310" y="-181" font-family="Helvetica,sans-Serif" font-size="10.00">LocalQueueManager.hpp</text>
</a>
</g>
</g>
<!-- Node2&#45;&gt;Node3 -->
<g id="edge2" class="edge"><title>Node2&#45;&gt;Node3</title>
<path fill="none" stroke="midnightblue" d="M379.633,-290.884C368.662,-282.313 352.752,-268.641 342,-254 330.922,-238.916 322.212,-219.387 316.694,-205.13"/>
<polygon fill="midnightblue" stroke="midnightblue" points="319.856,-203.587 313.111,-195.416 313.288,-206.009 319.856,-203.587"/>
</g>
<!-- Node4 -->
<g id="node4" class="node"><title>Node4</title>
<g id="a_node4"><a xlink:href="_local_a_p_i_subsystem_8hpp.html" target="_top" xlink:title=" ">
<polygon fill="white" stroke="black" points="337.525,-117 337.525,-137 462.475,-137 462.475,-117 337.525,-117"/>
<text text-anchor="middle" x="400" y="-123" font-family="Helvetica,sans-Serif" font-size="10.00">LocalAPISubsystem.hpp</text>
</a>
</g>
</g>
<!-- Node3&#45;&gt;Node4 -->
<g id="edge3" class="edge"><title>Node3&#45;&gt;Node4</title>
<path fill="none" stroke="midnightblue" d="M324.862,-174.753C339.016,-165.946 360.533,-152.558 376.919,-142.362"/>
<polygon fill="midnightblue" stroke="midnightblue" points="378.773,-145.33 385.415,-137.075 375.075,-139.387 378.773,-145.33"/>
</g>
<!-- Node5 -->
<g id="node5" class="node"><title>Node5</title>
<g id="a_node5"><a xlink:href="rexx_8h.html" target="_top" xlink:title=" ">
<polygon fill="white" stroke="black" points="310.384,-59 310.384,-79 353.616,-79 353.616,-59 310.384,-59"/>
<text text-anchor="middle" x="332" y="-65" font-family="Helvetica,sans-Serif" font-size="10.00">rexx.h</text>
</a>
</g>
</g>
<!-- Node3&#45;&gt;Node5 -->
<g id="edge11" class="edge"><title>Node3&#45;&gt;Node5</title>
<path fill="none" stroke="midnightblue" d="M311.8,-174.671C315.396,-156.041 323.529,-113.898 328.306,-89.1428"/>
<polygon fill="midnightblue" stroke="midnightblue" points="331.778,-89.6215 330.236,-79.1394 324.905,-88.295 331.778,-89.6215"/>
</g>
<!-- Node12 -->
<g id="node12" class="node"><title>Node12</title>
<g id="a_node12"><a xlink:href="_rxstring_8hpp.html" target="_top" xlink:title=" ">
<polygon fill="white" stroke="black" points="209.931,-117 209.931,-137 282.069,-137 282.069,-117 209.931,-117"/>
<text text-anchor="middle" x="246" y="-123" font-family="Helvetica,sans-Serif" font-size="10.00">Rxstring.hpp</text>
</a>
</g>
</g>
<!-- Node3&#45;&gt;Node12 -->
<g id="edge12" class="edge"><title>Node3&#45;&gt;Node12</title>
<path fill="none" stroke="midnightblue" d="M299.432,-174.753C289.832,-166.353 275.471,-153.787 264.054,-143.798"/>
<polygon fill="midnightblue" stroke="midnightblue" points="266.202,-141.026 256.372,-137.075 261.593,-146.294 266.202,-141.026"/>
</g>
<!-- Node14 -->
<g id="node14" class="node"><title>Node14</title>
<g id="a_node14"><a xlink:href="_service_message_8hpp.html" target="_top" xlink:title=" ">
<polygon fill="white" stroke="black" points="556.308,-117 556.308,-137 665.692,-137 665.692,-117 556.308,-117"/>
<text text-anchor="middle" x="611" y="-123" font-family="Helvetica,sans-Serif" font-size="10.00">ServiceMessage.hpp</text>
</a>
</g>
</g>
<!-- Node3&#45;&gt;Node14 -->
<g id="edge16" class="edge"><title>Node3&#45;&gt;Node14</title>
<path fill="none" stroke="midnightblue" d="M358.695,-174.94C411.591,-165.099 496.073,-149.382 552.523,-138.879"/>
<polygon fill="midnightblue" stroke="midnightblue" points="553.183,-142.317 562.375,-137.047 551.903,-135.435 553.183,-142.317"/>
</g>
<!-- Node17 -->
<g id="node17" class="node"><title>Node17</title>
<g id="a_node17"><a xlink:href="_utilities_8hpp.html" target="_top" xlink:title=" ">
<polygon fill="white" stroke="black" points="86.1553,-117 86.1553,-137 153.845,-137 153.845,-117 86.1553,-117"/>
<text text-anchor="middle" x="120" y="-123" font-family="Helvetica,sans-Serif" font-size="10.00">Utilities.hpp</text>
</a>
</g>
</g>
<!-- Node3&#45;&gt;Node17 -->
<g id="edge21" class="edge"><title>Node3&#45;&gt;Node17</title>
<path fill="none" stroke="midnightblue" d="M279.05,-174.878C246.797,-165.372 196.107,-150.432 160.646,-139.98"/>
<polygon fill="midnightblue" stroke="midnightblue" points="161.203,-136.495 150.622,-137.025 159.224,-143.21 161.203,-136.495"/>
</g>
<!-- Node4&#45;&gt;Node5 -->
<g id="edge4" class="edge"><title>Node4&#45;&gt;Node5</title>
<path fill="none" stroke="midnightblue" d="M388.771,-116.753C378.473,-108.272 363.016,-95.543 350.83,-85.5073"/>
<polygon fill="midnightblue" stroke="midnightblue" points="352.964,-82.7305 343.02,-79.0752 348.514,-88.1341 352.964,-82.7305"/>
</g>
<!-- Node10 -->
<g id="node10" class="node"><title>Node10</title>
<g id="a_node10"><a xlink:href="_service_exception_8hpp.html" target="_top" xlink:title=" ">
<polygon fill="white" stroke="black" points="400.638,-59 400.638,-79 513.362,-79 513.362,-59 400.638,-59"/>
<text text-anchor="middle" x="457" y="-65" font-family="Helvetica,sans-Serif" font-size="10.00">ServiceException.hpp</text>
</a>
</g>
</g>
<!-- Node4&#45;&gt;Node10 -->
<g id="edge9" class="edge"><title>Node4&#45;&gt;Node10</title>
<path fill="none" stroke="midnightblue" d="M409.412,-116.753C417.879,-108.435 430.504,-96.031 440.623,-86.0893"/>
<polygon fill="midnightblue" stroke="midnightblue" points="443.082,-88.5801 447.763,-79.0752 438.176,-83.5868 443.082,-88.5801"/>
</g>
<!-- Node6 -->
<g id="node6" class="node"><title>Node6</title>
<g id="a_node6"><a xlink:title=" ">
<polygon fill="white" stroke="#bfbfbf" points="90.7612,-1 90.7612,-21 171.239,-21 171.239,-1 90.7612,-1"/>
<text text-anchor="middle" x="131" y="-7" font-family="Helvetica,sans-Serif" font-size="10.00">rexxapitypes.h</text>
</a>
</g>
</g>
<!-- Node5&#45;&gt;Node6 -->
<g id="edge5" class="edge"><title>Node5&#45;&gt;Node6</title>
<path fill="none" stroke="midnightblue" d="M310.361,-60.874C307.228,-59.8847 304.036,-58.8999 301,-58 258.844,-45.505 210.406,-32.5326 176.046,-23.5619"/>
<polygon fill="midnightblue" stroke="midnightblue" points="176.861,-20.1574 166.302,-21.0266 175.098,-26.9319 176.861,-20.1574"/>
</g>
<!-- Node7 -->
<g id="node7" class="node"><title>Node7</title>
<g id="a_node7"><a xlink:href="rexxapidefs_8h.html" target="_top" xlink:title=" ">
<polygon fill="white" stroke="black" points="189.261,-1 189.261,-21 264.739,-21 264.739,-1 189.261,-1"/>
<text text-anchor="middle" x="227" y="-7" font-family="Helvetica,sans-Serif" font-size="10.00">rexxapidefs.h</text>
</a>
</g>
</g>
<!-- Node5&#45;&gt;Node7 -->
<g id="edge6" class="edge"><title>Node5&#45;&gt;Node7</title>
<path fill="none" stroke="midnightblue" d="M314.661,-58.7527C297.842,-49.7826 272.113,-36.0601 252.872,-25.7986"/>
<polygon fill="midnightblue" stroke="midnightblue" points="254.487,-22.6929 244.016,-21.0752 251.192,-28.8694 254.487,-22.6929"/>
</g>
<!-- Node8 -->
<g id="node8" class="node"><title>Node8</title>
<g id="a_node8"><a xlink:title=" ">
<polygon fill="white" stroke="#bfbfbf" points="282.872,-1 282.872,-21 381.128,-21 381.128,-1 282.872,-1"/>
<text text-anchor="middle" x="332" y="-7" font-family="Helvetica,sans-Serif" font-size="10.00">rexxplatformdefs.h</text>
</a>
</g>
</g>
<!-- Node5&#45;&gt;Node8 -->
<g id="edge7" class="edge"><title>Node5&#45;&gt;Node8</title>
<path fill="none" stroke="midnightblue" d="M332,-58.7527C332,-51.2504 332,-40.4238 332,-31.0781"/>
<polygon fill="midnightblue" stroke="midnightblue" points="335.5,-31.0752 332,-21.0752 328.5,-31.0752 335.5,-31.0752"/>
</g>
<!-- Node9 -->
<g id="node9" class="node"><title>Node9</title>
<g id="a_node9"><a xlink:title=" ">
<polygon fill="white" stroke="#bfbfbf" points="399.15,-1 399.15,-21 496.85,-21 496.85,-1 399.15,-1"/>
<text text-anchor="middle" x="448" y="-7" font-family="Helvetica,sans-Serif" font-size="10.00">rexxplatformapis.h</text>
</a>
</g>
</g>
<!-- Node5&#45;&gt;Node9 -->
<g id="edge8" class="edge"><title>Node5&#45;&gt;Node9</title>
<path fill="none" stroke="midnightblue" d="M350.896,-58.878C369.602,-49.8475 398.466,-35.9132 419.868,-25.5812"/>
<polygon fill="midnightblue" stroke="midnightblue" points="421.629,-28.6176 429.113,-21.1181 418.585,-22.3137 421.629,-28.6176"/>
</g>
<!-- Node11 -->
<g id="node11" class="node"><title>Node11</title>
<g id="a_node11"><a xlink:title=" ">
<polygon fill="white" stroke="#bfbfbf" points="514.604,-1 514.604,-21 563.396,-21 563.396,-1 514.604,-1"/>
<text text-anchor="middle" x="539" y="-7" font-family="Helvetica,sans-Serif" font-size="10.00">string.h</text>
</a>
</g>
</g>
<!-- Node10&#45;&gt;Node11 -->
<g id="edge10" class="edge"><title>Node10&#45;&gt;Node11</title>
<path fill="none" stroke="midnightblue" d="M470.541,-58.7527C483.198,-50.1087 502.317,-37.0518 517.136,-26.9314"/>
<polygon fill="midnightblue" stroke="midnightblue" points="519.427,-29.6052 525.711,-21.0752 515.479,-23.8245 519.427,-29.6052"/>
</g>
<!-- Node12&#45;&gt;Node5 -->
<g id="edge13" class="edge"><title>Node12&#45;&gt;Node5</title>
<path fill="none" stroke="midnightblue" d="M260.201,-116.753C273.601,-108.027 293.907,-94.8051 309.508,-84.6458"/>
<polygon fill="midnightblue" stroke="midnightblue" points="311.593,-87.465 318.063,-79.0752 307.773,-81.599 311.593,-87.465"/>
</g>
<!-- Node12&#45;&gt;Node10 -->
<g id="edge14" class="edge"><title>Node12&#45;&gt;Node10</title>
<path fill="none" stroke="midnightblue" d="M280.37,-116.878C316.573,-107.27 373.691,-92.1104 413.124,-81.6449"/>
<polygon fill="midnightblue" stroke="midnightblue" points="414.226,-84.9735 422.994,-79.0253 412.431,-78.2077 414.226,-84.9735"/>
</g>
<!-- Node13 -->
<g id="node13" class="node"><title>Node13</title>
<g id="a_node13"><a xlink:title=" ">
<polygon fill="white" stroke="#bfbfbf" points="185.414,-59 185.414,-79 292.586,-79 292.586,-59 185.414,-59"/>
<text text-anchor="middle" x="239" y="-65" font-family="Helvetica,sans-Serif" font-size="10.00">SysAPIManager.hpp</text>
</a>
</g>
</g>
<!-- Node12&#45;&gt;Node13 -->
<g id="edge15" class="edge"><title>Node12&#45;&gt;Node13</title>
<path fill="none" stroke="midnightblue" d="M244.844,-116.753C243.906,-109.25 242.553,-98.4238 241.385,-89.0781"/>
<polygon fill="midnightblue" stroke="midnightblue" points="244.848,-88.5638 240.134,-79.0752 237.902,-89.4321 244.848,-88.5638"/>
</g>
<!-- Node14&#45;&gt;Node5 -->
<g id="edge17" class="edge"><title>Node14&#45;&gt;Node5</title>
<path fill="none" stroke="midnightblue" d="M565.864,-116.94C509.134,-105.554 413.21,-86.3003 363.689,-76.3606"/>
<polygon fill="midnightblue" stroke="midnightblue" points="364.35,-72.9236 353.857,-74.3871 362.973,-79.7867 364.35,-72.9236"/>
</g>
<!-- Node14&#45;&gt;Node10 -->
<g id="edge18" class="edge"><title>Node14&#45;&gt;Node10</title>
<path fill="none" stroke="midnightblue" d="M585.914,-116.878C560.221,-107.535 520.093,-92.943 491.435,-82.522"/>
<polygon fill="midnightblue" stroke="midnightblue" points="492.414,-79.1535 481.82,-79.0253 490.021,-85.7321 492.414,-79.1535"/>
</g>
<!-- Node15 -->
<g id="node15" class="node"><title>Node15</title>
<g id="a_node15"><a xlink:title=" ">
<polygon fill="white" stroke="#bfbfbf" points="715.872,-59 715.872,-79 814.128,-79 814.128,-59 715.872,-59"/>
<text text-anchor="middle" x="765" y="-65" font-family="Helvetica,sans-Serif" font-size="10.00">SysCSStream.hpp</text>
</a>
</g>
</g>
<!-- Node14&#45;&gt;Node15 -->
<g id="edge19" class="edge"><title>Node14&#45;&gt;Node15</title>
<path fill="none" stroke="midnightblue" d="M636.086,-116.878C661.779,-107.535 701.907,-92.943 730.565,-82.522"/>
<polygon fill="midnightblue" stroke="midnightblue" points="731.979,-85.7321 740.18,-79.0253 729.586,-79.1535 731.979,-85.7321"/>
</g>
<!-- Node16 -->
<g id="node16" class="node"><title>Node16</title>
<g id="a_node16"><a xlink:title=" ">
<polygon fill="white" stroke="#bfbfbf" points="580.872,-59 580.872,-79 669.128,-79 669.128,-59 580.872,-59"/>
<text text-anchor="middle" x="625" y="-65" font-family="Helvetica,sans-Serif" font-size="10.00">SysProcess.hpp</text>
</a>
</g>
</g>
<!-- Node14&#45;&gt;Node16 -->
<g id="edge20" class="edge"><title>Node14&#45;&gt;Node16</title>
<path fill="none" stroke="midnightblue" d="M613.312,-116.753C615.187,-109.25 617.894,-98.4238 620.23,-89.0781"/>
<polygon fill="midnightblue" stroke="midnightblue" points="623.701,-89.6255 622.731,-79.0752 616.91,-87.9277 623.701,-89.6255"/>
</g>
<!-- Node17&#45;&gt;Node5 -->
<g id="edge22" class="edge"><title>Node17&#45;&gt;Node5</title>
<path fill="none" stroke="midnightblue" d="M153.864,-118.07C188.362,-109.843 243.6,-96.2624 300.487,-80.0149"/>
<polygon fill="midnightblue" stroke="midnightblue" points="301.732,-83.2988 310.373,-77.1688 299.795,-76.572 301.732,-83.2988"/>
</g>
<!-- Node18 -->
<g id="node18" class="node"><title>Node18</title>
<g id="a_node18"><a xlink:title=" ">
<polygon fill="white" stroke="#bfbfbf" points="16.9902,-59 16.9902,-79 83.0098,-79 83.0098,-59 16.9902,-59"/>
<text text-anchor="middle" x="50" y="-65" font-family="Helvetica,sans-Serif" font-size="10.00">sys/types.h</text>
</a>
</g>
</g>
<!-- Node17&#45;&gt;Node18 -->
<g id="edge23" class="edge"><title>Node17&#45;&gt;Node18</title>
<path fill="none" stroke="midnightblue" d="M108.441,-116.753C97.8398,-108.272 81.9287,-95.543 69.3842,-85.5073"/>
<polygon fill="midnightblue" stroke="midnightblue" points="71.3391,-82.5891 61.344,-79.0752 66.9663,-88.0552 71.3391,-82.5891"/>
</g>
<!-- Node19 -->
<g id="node19" class="node"><title>Node19</title>
<g id="a_node19"><a xlink:title=" ">
<polygon fill="white" stroke="#bfbfbf" points="100.934,-59 100.934,-79 153.066,-79 153.066,-59 100.934,-59"/>
<text text-anchor="middle" x="127" y="-65" font-family="Helvetica,sans-Serif" font-size="10.00">stdarg.h</text>
</a>
</g>
</g>
<!-- Node17&#45;&gt;Node19 -->
<g id="edge24" class="edge"><title>Node17&#45;&gt;Node19</title>
<path fill="none" stroke="midnightblue" d="M121.156,-116.753C122.094,-109.25 123.447,-98.4238 124.615,-89.0781"/>
<polygon fill="midnightblue" stroke="midnightblue" points="128.098,-89.4321 125.866,-79.0752 121.152,-88.5638 128.098,-89.4321"/>
</g>
<!-- Node21 -->
<g id="node21" class="node"><title>Node21</title>
<g id="a_node21"><a xlink:href="_local_registration_manager_8hpp.html" target="_top" xlink:title=" ">
<polygon fill="white" stroke="black" points="392.175,-233 392.175,-253 543.825,-253 543.825,-233 392.175,-233"/>
<text text-anchor="middle" x="468" y="-239" font-family="Helvetica,sans-Serif" font-size="10.00">LocalRegistrationManager.hpp</text>
</a>
</g>
</g>
<!-- Node20&#45;&gt;Node21 -->
<g id="edge26" class="edge"><title>Node20&#45;&gt;Node21</title>
<path fill="none" stroke="midnightblue" d="M528.946,-290.753C517.784,-282.19 500.977,-269.298 487.839,-259.219"/>
<polygon fill="midnightblue" stroke="midnightblue" points="489.895,-256.385 479.83,-253.075 485.634,-261.939 489.895,-256.385"/>
</g>
<!-- Node20&#45;&gt;Node3 -->
<g id="edge34" class="edge"><title>Node20&#45;&gt;Node3</title>
<path fill="none" stroke="midnightblue" d="M487.687,-290.952C455.842,-284.01 415.417,-272.416 383,-254 359.62,-240.718 337.75,-218.537 324.157,-203.135"/>
<polygon fill="midnightblue" stroke="midnightblue" points="326.667,-200.686 317.499,-195.375 321.354,-205.244 326.667,-200.686"/>
</g>
<!-- Node23 -->
<g id="node23" class="node"><title>Node23</title>
<g id="a_node23"><a xlink:href="_local_macro_space_manager_8hpp.html" target="_top" xlink:title=" ">
<polygon fill="white" stroke="black" points="73.7861,-175 73.7861,-195 228.214,-195 228.214,-175 73.7861,-175"/>
<text text-anchor="middle" x="151" y="-181" font-family="Helvetica,sans-Serif" font-size="10.00">LocalMacroSpaceManager.hpp</text>
</a>
</g>
</g>
<!-- Node20&#45;&gt;Node23 -->
<g id="edge35" class="edge"><title>Node20&#45;&gt;Node23</title>
<path fill="none" stroke="midnightblue" d="M498.828,-290.937C460.134,-282.351 401.355,-268.624 351,-254 291.909,-236.839 224.365,-212.964 184.831,-198.546"/>
<polygon fill="midnightblue" stroke="midnightblue" points="185.999,-195.247 175.405,-195.095 183.592,-201.82 185.999,-195.247"/>
</g>
<!-- Node20&#45;&gt;Node16 -->
<g id="edge42" class="edge"><title>Node20&#45;&gt;Node16</title>
<path fill="none" stroke="midnightblue" d="M583.341,-290.964C618.064,-282.593 663.192,-269.174 674,-254 709.582,-204.043 698.363,-172.287 674,-116 668.641,-103.619 658.127,-93.0378 648.208,-85.1567"/>
<polygon fill="midnightblue" stroke="midnightblue" points="650.263,-82.3236 640.142,-79.1914 646.101,-87.9517 650.263,-82.3236"/>
</g>
<!-- Node25 -->
<g id="node25" class="node"><title>Node25</title>
<g id="a_node25"><a xlink:title=" ">
<polygon fill="white" stroke="#bfbfbf" points="562.084,-233 562.084,-253 665.916,-253 665.916,-233 562.084,-233"/>
<text text-anchor="middle" x="614" y="-239" font-family="Helvetica,sans-Serif" font-size="10.00">SysSemaphore.hpp</text>
</a>
</g>
</g>
<!-- Node20&#45;&gt;Node25 -->
<g id="edge43" class="edge"><title>Node20&#45;&gt;Node25</title>
<path fill="none" stroke="midnightblue" d="M553.054,-290.753C564.216,-282.19 581.023,-269.298 594.161,-259.219"/>
<polygon fill="midnightblue" stroke="midnightblue" points="596.366,-261.939 602.17,-253.075 592.105,-256.385 596.366,-261.939"/>
</g>
<!-- Node20&#45;&gt;Node15 -->
<g id="edge44" class="edge"><title>Node20&#45;&gt;Node15</title>
<path fill="none" stroke="midnightblue" d="M591.805,-290.96C654.788,-279.516 754.57,-260.506 760,-254 799.524,-206.641 782.287,-126.087 771.415,-89.3246"/>
<polygon fill="midnightblue" stroke="midnightblue" points="774.639,-87.9074 768.316,-79.4067 767.958,-89.9955 774.639,-87.9074"/>
</g>
<!-- Node26 -->
<g id="node26" class="node"><title>Node26</title>
<g id="a_node26"><a xlink:title=" ">
<polygon fill="white" stroke="#bfbfbf" points="722.5,-233 722.5,-253 751.5,-253 751.5,-233 722.5,-233"/>
<text text-anchor="middle" x="736.611" y="-239" font-family="Helvetica,sans-Serif" font-size="10.00">list</text>
</a>
</g>
</g>
<!-- Node20&#45;&gt;Node26 -->
<g id="edge45" class="edge"><title>Node20&#45;&gt;Node26</title>
<path fill="none" stroke="midnightblue" d="M576.374,-290.951C610.307,-282.108 662.9,-267.972 708,-254 709.463,-253.547 710.962,-253.069 712.473,-252.579"/>
<polygon fill="midnightblue" stroke="midnightblue" points="713.945,-255.776 722.306,-249.269 711.712,-249.142 713.945,-255.776"/>
</g>
<!-- Node22 -->
<g id="node22" class="node"><title>Node22</title>
<g id="a_node22"><a xlink:href="_registration_table_8hpp.html" target="_top" xlink:title=" ">
<polygon fill="white" stroke="black" points="429.636,-175 429.636,-195 542.364,-195 542.364,-175 429.636,-175"/>
<text text-anchor="middle" x="486" y="-181" font-family="Helvetica,sans-Serif" font-size="10.00">RegistrationTable.hpp</text>
</a>
</g>
</g>
<!-- Node21&#45;&gt;Node22 -->
<g id="edge27" class="edge"><title>Node21&#45;&gt;Node22</title>
<path fill="none" stroke="midnightblue" d="M470.972,-232.753C473.41,-225.169 476.94,-214.188 479.966,-204.774"/>
<polygon fill="midnightblue" stroke="midnightblue" points="483.355,-205.667 483.083,-195.075 476.691,-203.524 483.355,-205.667"/>
</g>
<!-- Node21&#45;&gt;Node4 -->
<g id="edge31" class="edge"><title>Node21&#45;&gt;Node4</title>
<path fill="none" stroke="midnightblue" d="M455.507,-232.728C444.914,-224.254 430.039,-210.815 421,-196 411.86,-181.019 406.398,-161.73 403.346,-147.525"/>
<polygon fill="midnightblue" stroke="midnightblue" points="406.723,-146.556 401.391,-137.401 399.85,-147.883 406.723,-146.556"/>
</g>
<!-- Node21&#45;&gt;Node14 -->
<g id="edge32" class="edge"><title>Node21&#45;&gt;Node14</title>
<path fill="none" stroke="midnightblue" d="M513.849,-232.989C537.415,-226.286 565.077,-214.915 584,-196 597.172,-182.833 604.113,-162.442 607.639,-147.421"/>
<polygon fill="midnightblue" stroke="midnightblue" points="611.157,-147.687 609.717,-137.19 604.297,-146.294 611.157,-147.687"/>
</g>
<!-- Node21&#45;&gt;Node5 -->
<g id="edge33" class="edge"><title>Node21&#45;&gt;Node5</title>
<path fill="none" stroke="midnightblue" d="M500.627,-232.95C518.896,-226.027 540.129,-214.453 551,-196 555.963,-187.575 554.818,-183.001 551,-174 536.517,-139.856 523.093,-134.591 491,-116 450.501,-92.5401 397.175,-80.3118 363.736,-74.5196"/>
<polygon fill="midnightblue" stroke="midnightblue" points="364.055,-71.0251 353.62,-72.859 362.921,-77.9327 364.055,-71.0251"/>
</g>
<!-- Node22&#45;&gt;Node5 -->
<g id="edge28" class="edge"><title>Node22&#45;&gt;Node5</title>
<path fill="none" stroke="midnightblue" d="M486.644,-174.808C487.132,-160.418 485.903,-132.514 471,-116 456.546,-99.9838 400.148,-84.9831 363.784,-76.6928"/>
<polygon fill="midnightblue" stroke="midnightblue" points="364.182,-73.1958 353.661,-74.4393 362.661,-80.0285 364.182,-73.1958"/>
</g>
<!-- Node22&#45;&gt;Node14 -->
<g id="edge29" class="edge"><title>Node22&#45;&gt;Node14</title>
<path fill="none" stroke="midnightblue" d="M506.362,-174.878C526.701,-165.766 558.184,-151.662 581.306,-141.303"/>
<polygon fill="midnightblue" stroke="midnightblue" points="582.952,-144.401 590.647,-137.118 580.09,-138.013 582.952,-144.401"/>
</g>
<!-- Node22&#45;&gt;Node17 -->
<g id="edge30" class="edge"><title>Node22&#45;&gt;Node17</title>
<path fill="none" stroke="midnightblue" d="M429.615,-175.373C356.525,-164.19 230.583,-144.92 164.085,-134.745"/>
<polygon fill="midnightblue" stroke="midnightblue" points="164.354,-131.246 153.94,-133.193 163.295,-138.165 164.354,-131.246"/>
</g>
<!-- Node23&#45;&gt;Node4 -->
<g id="edge36" class="edge"><title>Node23&#45;&gt;Node4</title>
<path fill="none" stroke="midnightblue" d="M191.283,-174.94C234.497,-165.222 303.196,-149.771 349.874,-139.273"/>
<polygon fill="midnightblue" stroke="midnightblue" points="350.787,-142.656 359.775,-137.047 349.251,-135.826 350.787,-142.656"/>
</g>
<!-- Node23&#45;&gt;Node14 -->
<g id="edge37" class="edge"><title>Node23&#45;&gt;Node14</title>
<path fill="none" stroke="midnightblue" d="M225.162,-174.972C314.05,-164.15 461.564,-146.192 546.116,-135.899"/>
<polygon fill="midnightblue" stroke="midnightblue" points="546.604,-139.365 556.107,-134.683 545.758,-132.417 546.604,-139.365"/>
</g>
<!-- Node23&#45;&gt;Node5 -->
<g id="edge38" class="edge"><title>Node23&#45;&gt;Node5</title>
<path fill="none" stroke="midnightblue" d="M155.498,-174.696C162.98,-160.152 179.329,-132.042 201,-116 205.179,-112.906 263.258,-93.0787 300.665,-80.485"/>
<polygon fill="midnightblue" stroke="midnightblue" points="301.781,-83.8024 310.145,-77.2992 299.551,-77.1671 301.781,-83.8024"/>
</g>
<!-- Node23&#45;&gt;Node12 -->
<g id="edge39" class="edge"><title>Node23&#45;&gt;Node12</title>
<path fill="none" stroke="midnightblue" d="M166.687,-174.753C181.628,-165.946 204.34,-152.558 221.636,-142.362"/>
<polygon fill="midnightblue" stroke="midnightblue" points="223.767,-145.169 230.605,-137.075 220.213,-139.138 223.767,-145.169"/>
</g>
<!-- Node23&#45;&gt;Node17 -->
<g id="edge40" class="edge"><title>Node23&#45;&gt;Node17</title>
<path fill="none" stroke="midnightblue" d="M145.881,-174.753C141.547,-166.924 135.21,-155.476 129.891,-145.868"/>
<polygon fill="midnightblue" stroke="midnightblue" points="132.929,-144.129 125.024,-137.075 126.805,-147.519 132.929,-144.129"/>
</g>
<!-- Node24 -->
<g id="node24" class="node"><title>Node24</title>
<g id="a_node24"><a xlink:title=" ">
<polygon fill="white" stroke="#bfbfbf" points="-0.123047,-117 -0.123047,-137 68.123,-137 68.123,-117 -0.123047,-117"/>
<text text-anchor="middle" x="34" y="-123" font-family="Helvetica,sans-Serif" font-size="10.00">SysFile.hpp</text>
</a>
</g>
</g>
<!-- Node23&#45;&gt;Node24 -->
<g id="edge41" class="edge"><title>Node23&#45;&gt;Node24</title>
<path fill="none" stroke="midnightblue" d="M131.942,-174.878C112.989,-165.807 83.699,-151.788 62.0837,-141.442"/>
<polygon fill="midnightblue" stroke="midnightblue" points="63.5814,-138.278 53.0503,-137.118 60.5593,-144.592 63.5814,-138.278"/>
</g>
</g>
</svg>
        <g id="navigator" transform="translate(0 0)" fill="#404254">
                <rect fill="#f2f5e9" fill-opacity="0.5" stroke="#606060" stroke-width=".5" x="0" y="0" width="60" height="60"/>
                <use id="zoomplus" xlink:href="#zoomPlus" x="17" y="9" onmousedown="handleZoom(evt,'in')"/>
                <use id="zoomminus" xlink:href="#zoomMin" x="42" y="9" onmousedown="handleZoom(evt,'out')"/>
                <use id="reset" xlink:href="#resetDef" x="30" y="36" onmousedown="handleReset()"/>
                <g id="arrowUp" xlink:href="#dirArrow" transform="translate(30 24)" onmousedown="handlePan(0,-1)">
                  <use xlink:href="#rim" fill="#404040">
                        <set attributeName="fill" to="#808080" begin="arrowUp.mouseover" end="arrowUp.mouseout"/>
                  </use>
                  <path fill="none" stroke="white" stroke-width="1.5" d="M0,-3.0v7 M-2.5,-0.5L0,-3.0L2.5,-0.5"/>
                </g>
                <g id="arrowRight" xlink:href="#dirArrow" transform="rotate(90) translate(36 -43)" onmousedown="handlePan(1,0)">
                  <use xlink:href="#rim" fill="#404040">
                        <set attributeName="fill" to="#808080" begin="arrowRight.mouseover" end="arrowRight.mouseout"/>
                  </use>
                  <path fill="none" stroke="white" stroke-width="1.5" d="M0,-3.0v7 M-2.5,-0.5L0,-3.0L2.5,-0.5"/>
                </g>
                <g id="arrowDown" xlink:href="#dirArrow" transform="rotate(180) translate(-30 -48)" onmousedown="handlePan(0,1)">
                  <use xlink:href="#rim" fill="#404040">
                        <set attributeName="fill" to="#808080" begin="arrowDown.mouseover" end="arrowDown.mouseout"/>
                  </use>
                  <path fill="none" stroke="white" stroke-width="1.5" d="M0,-3.0v7 M-2.5,-0.5L0,-3.0L2.5,-0.5"/>
                </g>
                <g id="arrowLeft" xlink:href="#dirArrow" transform="rotate(270) translate(-36 17)" onmousedown="handlePan(-1,0)">
                  <use xlink:href="#rim" fill="#404040">
                        <set attributeName="fill" to="#808080" begin="arrowLeft.mouseover" end="arrowLeft.mouseout"/>
                  </use>
                  <path fill="none" stroke="white" stroke-width="1.5" d="M0,-3.0v7 M-2.5,-0.5L0,-3.0L2.5,-0.5"/>
                </g>
        </g>
        <svg viewBox="0 0 15 15" width="100%" height="30px" preserveAspectRatio="xMaxYMin meet">
         <g id="arrow_out" transform="scale(0.3 0.3)">
          <a xlink:href="windows_2_sys_local_a_p_i_manager_8cpp__incl_org.svg" target="_base">
           <rect id="button" ry="5" rx="5" y="6" x="6" height="38" width="38"
                fill="#f2f5e9" fill-opacity="0.5" stroke="#606060" stroke-width="1.0"/>
           <path id="arrow"
             d="M 11.500037,31.436501 C 11.940474,20.09759 22.043105,11.32322 32.158766,21.979434 L 37.068811,17.246167 C 37.068811,17.246167 37.088388,32 37.088388,32 L 22.160133,31.978069 C 22.160133,31.978069 26.997745,27.140456 26.997745,27.140456 C 18.528582,18.264221 13.291696,25.230495 11.500037,31.436501 z"
             style="fill:#404040;"/>
          </a>
         </g>
        </svg>
</svg>
