<?xml version="1.0" encoding="UTF-8" standalone="no"?>
<!DOCTYPE svg PUBLIC "-//W3C//DTD SVG 1.1//EN"
 "http://www.w3.org/Graphics/SVG/1.1/DTD/svg11.dtd">
<!-- Generated by graphviz version 2.30.1 (20130222.1704)
 -->
<!-- Title: APIService.cpp Pages: 1 -->
<!--zoomable 378 -->
<svg id="main" version="1.1" xmlns="http://www.w3.org/2000/svg" xmlns:xlink="http://www.w3.org/1999/xlink" xml:space="preserve" onload="init(evt)">
<style type="text/css"><![CDATA[
.edge:hover path { stroke: red; }
.edge:hover polygon { stroke: red; fill: red; }
]]></style>
<script type="text/javascript"><![CDATA[
var edges = document.getElementsByTagName('g');
if (edges && edges.length) {
  for (var i=0;i<edges.length;i++) {
    if (edges[i].id.substr(0,4)=='edge') {
      edges[i].setAttribute('class','edge');
    }
  }
}
]]></script>
        <defs>
                <circle id="rim" cx="0" cy="0" r="7"/>
                <circle id="rim2" cx="0" cy="0" r="3.5"/>
                <g id="zoomPlus">
                        <use xlink:href="#rim" fill="#404040">
                                <set attributeName="fill" to="#808080" begin="zoomplus.mouseover" end="zoomplus.mouseout"/>
                        </use>
                        <path d="M-4,0h8M0,-4v8" fill="none" stroke="white" stroke-width="1.5" pointer-events="none"/>
                </g>
                <g id="zoomMin">
                        <use xlink:href="#rim" fill="#404040">
                                <set attributeName="fill" to="#808080" begin="zoomminus.mouseover" end="zoomminus.mouseout"/>
                        </use>
                        <path d="M-4,0h8" fill="none" stroke="white" stroke-width="1.5" pointer-events="none"/>
                </g>
                <g id="dirArrow">
                        <path fill="none" stroke="white" stroke-width="1.5" d="M0,-3.0v7 M-2.5,-0.5L0,-3.0L2.5,-0.5"/>
                </g>
               <g id="resetDef">
                       <use xlink:href="#rim2" fill="#404040">
                               <set attributeName="fill" to="#808080" begin="reset.mouseover" end="reset.mouseout"/>
                       </use>
               </g>
        </defs>

<script type="text/javascript">
var viewWidth = 637;
var viewHeight = 378;
var sectionId = 'dynsection-0';
</script>
<script xlink:href="svgpan.js"/>
<svg id="graph" class="graph">
<g id="viewport">
<title>APIService.cpp</title>
<polygon fill="white" stroke="white" points="-4,5 -4,-374 634,-374 634,5 -4,5"/>
<!-- Node1 -->
<g id="node1" class="node"><title>Node1</title>
<g id="a_node1"><a xlink:title=" ">
<polygon fill="#bfbfbf" stroke="black" points="261.818,-349 261.818,-369 346.182,-369 346.182,-349 261.818,-349"/>
<text text-anchor="middle" x="304" y="-355" font-family="Helvetica,sans-Serif" font-size="10.00">APIService.cpp</text>
</a>
</g>
</g>
<!-- Node2 -->
<g id="node2" class="node"><title>Node2</title>
<g id="a_node2"><a xlink:title=" ">
<polygon fill="white" stroke="#bfbfbf" points="195.766,-291 195.766,-311 246.234,-311 246.234,-291 195.766,-291"/>
<text text-anchor="middle" x="221" y="-297" font-family="Helvetica,sans-Serif" font-size="10.00">aclapi.h</text>
</a>
</g>
</g>
<!-- Node1&#45;&gt;Node2 -->
<g id="edge1" class="edge"><title>Node1&#45;&gt;Node2</title>
<path fill="none" stroke="midnightblue" d="M290.294,-348.753C277.483,-340.109 258.13,-327.052 243.13,-316.931"/>
<polygon fill="midnightblue" stroke="midnightblue" points="244.698,-313.767 234.451,-311.075 240.783,-319.57 244.698,-313.767"/>
</g>
<!-- Node3 -->
<g id="node3" class="node"><title>Node3</title>
<g id="a_node3"><a xlink:href="_a_p_i_server_8hpp.html" target="_top" xlink:title=" ">
<polygon fill="white" stroke="black" points="263.756,-291 263.756,-311 344.244,-311 344.244,-291 263.756,-291"/>
<text text-anchor="middle" x="304" y="-297" font-family="Helvetica,sans-Serif" font-size="10.00">APIServer.hpp</text>
</a>
</g>
</g>
<!-- Node1&#45;&gt;Node3 -->
<g id="edge2" class="edge"><title>Node1&#45;&gt;Node3</title>
<path fill="none" stroke="midnightblue" d="M304,-348.753C304,-341.25 304,-330.424 304,-321.078"/>
<polygon fill="midnightblue" stroke="midnightblue" points="307.5,-321.075 304,-311.075 300.5,-321.075 307.5,-321.075"/>
</g>
<!-- Node24 -->
<g id="node24" class="node"><title>Node24</title>
<g id="a_node24"><a xlink:title=" ">
<polygon fill="white" stroke="#bfbfbf" points="362.269,-291 362.269,-311 407.731,-311 407.731,-291 362.269,-291"/>
<text text-anchor="middle" x="385" y="-297" font-family="Helvetica,sans-Serif" font-size="10.00">stdio.h</text>
</a>
</g>
</g>
<!-- Node1&#45;&gt;Node24 -->
<g id="edge31" class="edge"><title>Node1&#45;&gt;Node24</title>
<path fill="none" stroke="midnightblue" d="M317.376,-348.753C329.878,-340.109 348.764,-327.052 363.403,-316.931"/>
<polygon fill="midnightblue" stroke="midnightblue" points="365.638,-319.641 371.873,-311.075 361.657,-313.883 365.638,-319.641"/>
</g>
<!-- Node4 -->
<g id="node4" class="node"><title>Node4</title>
<g id="a_node4"><a xlink:href="_service_message_8hpp.html" target="_top" xlink:title=" ">
<polygon fill="white" stroke="black" points="107.308,-117 107.308,-137 216.692,-137 216.692,-117 107.308,-117"/>
<text text-anchor="middle" x="162" y="-123" font-family="Helvetica,sans-Serif" font-size="10.00">ServiceMessage.hpp</text>
</a>
</g>
</g>
<!-- Node3&#45;&gt;Node4 -->
<g id="edge3" class="edge"><title>Node3&#45;&gt;Node4</title>
<path fill="none" stroke="midnightblue" d="M263.638,-291.686C260.716,-291.107 257.814,-290.54 255,-290 210.651,-281.484 83.9658,-288.645 55,-254 20.773,-213.062 92.712,-165.122 134.652,-141.948"/>
<polygon fill="midnightblue" stroke="midnightblue" points="136.452,-144.954 143.595,-137.129 133.131,-138.792 136.452,-144.954"/>
</g>
<!-- Node14 -->
<g id="node14" class="node"><title>Node14</title>
<g id="a_node14"><a xlink:href="_macro_space_manager_8hpp.html" target="_top" xlink:title=" ">
<polygon fill="white" stroke="black" points="63.7393,-233 63.7393,-253 194.261,-253 194.261,-233 63.7393,-233"/>
<text text-anchor="middle" x="129" y="-239" font-family="Helvetica,sans-Serif" font-size="10.00">MacroSpaceManager.hpp</text>
</a>
</g>
</g>
<!-- Node3&#45;&gt;Node14 -->
<g id="edge13" class="edge"><title>Node3&#45;&gt;Node14</title>
<path fill="none" stroke="midnightblue" d="M275.494,-290.878C245.914,-281.413 199.499,-266.56 166.858,-256.115"/>
<polygon fill="midnightblue" stroke="midnightblue" points="167.795,-252.74 157.204,-253.025 165.662,-259.407 167.795,-252.74"/>
</g>
<!-- Node16 -->
<g id="node16" class="node"><title>Node16</title>
<g id="a_node16"><a xlink:href="_registration_manager_8hpp.html" target="_top" xlink:title=" ">
<polygon fill="white" stroke="black" points="372.128,-233 372.128,-253 499.872,-253 499.872,-233 372.128,-233"/>
<text text-anchor="middle" x="436" y="-239" font-family="Helvetica,sans-Serif" font-size="10.00">RegistrationManager.hpp</text>
</a>
</g>
</g>
<!-- Node3&#45;&gt;Node16 -->
<g id="edge16" class="edge"><title>Node3&#45;&gt;Node16</title>
<path fill="none" stroke="midnightblue" d="M325.502,-290.878C347.172,-281.685 380.821,-267.409 405.295,-257.026"/>
<polygon fill="midnightblue" stroke="midnightblue" points="406.668,-260.246 414.507,-253.118 403.935,-253.802 406.668,-260.246"/>
</g>
<!-- Node21 -->
<g id="node21" class="node"><title>Node21</title>
<g id="a_node21"><a xlink:href="_queue_manager_8hpp.html" target="_top" xlink:title=" ">
<polygon fill="white" stroke="black" points="211.796,-233 211.796,-253 316.204,-253 316.204,-233 211.796,-233"/>
<text text-anchor="middle" x="264" y="-239" font-family="Helvetica,sans-Serif" font-size="10.00">QueueManager.hpp</text>
</a>
</g>
</g>
<!-- Node3&#45;&gt;Node21 -->
<g id="edge25" class="edge"><title>Node3&#45;&gt;Node21</title>
<path fill="none" stroke="midnightblue" d="M297.395,-290.753C291.687,-282.761 283.284,-270.998 276.336,-261.27"/>
<polygon fill="midnightblue" stroke="midnightblue" points="279.143,-259.178 270.482,-253.075 273.447,-263.247 279.143,-259.178"/>
</g>
<!-- Node15 -->
<g id="node15" class="node"><title>Node15</title>
<g id="a_node15"><a xlink:title=" ">
<polygon fill="white" stroke="#bfbfbf" points="292.084,-175 292.084,-195 395.916,-195 395.916,-175 292.084,-175"/>
<text text-anchor="middle" x="344" y="-181" font-family="Helvetica,sans-Serif" font-size="10.00">SysSemaphore.hpp</text>
</a>
</g>
</g>
<!-- Node3&#45;&gt;Node15 -->
<g id="edge29" class="edge"><title>Node3&#45;&gt;Node15</title>
<path fill="none" stroke="midnightblue" d="M308.783,-290.665C313.356,-281.497 320.239,-267.028 325,-254 330.909,-237.83 336.054,-218.934 339.494,-205.171"/>
<polygon fill="midnightblue" stroke="midnightblue" points="342.912,-205.927 341.869,-195.384 336.109,-204.276 342.912,-205.927"/>
</g>
<!-- Node23 -->
<g id="node23" class="node"><title>Node23</title>
<g id="a_node23"><a xlink:title=" ">
<polygon fill="white" stroke="#bfbfbf" points="517.5,-233 517.5,-253 546.5,-253 546.5,-233 517.5,-233"/>
<text text-anchor="middle" x="531.611" y="-239" font-family="Helvetica,sans-Serif" font-size="10.00">list</text>
</a>
</g>
</g>
<!-- Node3&#45;&gt;Node23 -->
<g id="edge30" class="edge"><title>Node3&#45;&gt;Node23</title>
<path fill="none" stroke="midnightblue" d="M344.554,-291.725C394.955,-281.288 477.989,-263.557 508,-254 508.097,-253.969 508.194,-253.938 508.291,-253.907"/>
<polygon fill="midnightblue" stroke="midnightblue" points="509.252,-257.283 517.427,-250.544 506.833,-250.714 509.252,-257.283"/>
</g>
<!-- Node5 -->
<g id="node5" class="node"><title>Node5</title>
<g id="a_node5"><a xlink:href="rexx_8h.html" target="_top" xlink:title=" ">
<polygon fill="white" stroke="black" points="375.384,-59 375.384,-79 418.616,-79 418.616,-59 375.384,-59"/>
<text text-anchor="middle" x="397" y="-65" font-family="Helvetica,sans-Serif" font-size="10.00">rexx.h</text>
</a>
</g>
</g>
<!-- Node4&#45;&gt;Node5 -->
<g id="edge4" class="edge"><title>Node4&#45;&gt;Node5</title>
<path fill="none" stroke="midnightblue" d="M200.018,-116.94C245.981,-105.988 322.49,-87.7555 365.376,-77.5359"/>
<polygon fill="midnightblue" stroke="midnightblue" points="366.346,-80.9028 375.263,-75.18 364.724,-74.0935 366.346,-80.9028"/>
</g>
<!-- Node10 -->
<g id="node10" class="node"><title>Node10</title>
<g id="a_node10"><a xlink:href="_service_exception_8hpp.html" target="_top" xlink:title=" ">
<polygon fill="white" stroke="black" points="105.638,-59 105.638,-79 218.362,-79 218.362,-59 105.638,-59"/>
<text text-anchor="middle" x="162" y="-65" font-family="Helvetica,sans-Serif" font-size="10.00">ServiceException.hpp</text>
</a>
</g>
</g>
<!-- Node4&#45;&gt;Node10 -->
<g id="edge9" class="edge"><title>Node4&#45;&gt;Node10</title>
<path fill="none" stroke="midnightblue" d="M162,-116.753C162,-109.25 162,-98.4238 162,-89.0781"/>
<polygon fill="midnightblue" stroke="midnightblue" points="165.5,-89.0752 162,-79.0752 158.5,-89.0752 165.5,-89.0752"/>
</g>
<!-- Node12 -->
<g id="node12" class="node"><title>Node12</title>
<g id="a_node12"><a xlink:title=" ">
<polygon fill="white" stroke="#bfbfbf" points="235.872,-59 235.872,-79 334.128,-79 334.128,-59 235.872,-59"/>
<text text-anchor="middle" x="285" y="-65" font-family="Helvetica,sans-Serif" font-size="10.00">SysCSStream.hpp</text>
</a>
</g>
</g>
<!-- Node4&#45;&gt;Node12 -->
<g id="edge11" class="edge"><title>Node4&#45;&gt;Node12</title>
<path fill="none" stroke="midnightblue" d="M182.036,-116.878C202.049,-107.766 233.029,-93.6617 255.781,-83.3028"/>
<polygon fill="midnightblue" stroke="midnightblue" points="257.322,-86.4472 264.973,-79.1181 254.421,-80.0764 257.322,-86.4472"/>
</g>
<!-- Node13 -->
<g id="node13" class="node"><title>Node13</title>
<g id="a_node13"><a xlink:title=" ">
<polygon fill="white" stroke="#bfbfbf" points="-0.12793,-59 -0.12793,-79 88.1279,-79 88.1279,-59 -0.12793,-59"/>
<text text-anchor="middle" x="44" y="-65" font-family="Helvetica,sans-Serif" font-size="10.00">SysProcess.hpp</text>
</a>
</g>
</g>
<!-- Node4&#45;&gt;Node13 -->
<g id="edge12" class="edge"><title>Node4&#45;&gt;Node13</title>
<path fill="none" stroke="midnightblue" d="M142.779,-116.878C123.664,-107.807 94.1238,-93.7876 72.3238,-83.4418"/>
<polygon fill="midnightblue" stroke="midnightblue" points="73.748,-80.2436 63.2131,-79.1181 70.7468,-86.5676 73.748,-80.2436"/>
</g>
<!-- Node6 -->
<g id="node6" class="node"><title>Node6</title>
<g id="a_node6"><a xlink:title=" ">
<polygon fill="white" stroke="#bfbfbf" points="337.761,-1 337.761,-21 418.239,-21 418.239,-1 337.761,-1"/>
<text text-anchor="middle" x="378" y="-7" font-family="Helvetica,sans-Serif" font-size="10.00">rexxapitypes.h</text>
</a>
</g>
</g>
<!-- Node5&#45;&gt;Node6 -->
<g id="edge5" class="edge"><title>Node5&#45;&gt;Node6</title>
<path fill="none" stroke="midnightblue" d="M393.863,-58.7527C391.289,-51.1689 387.564,-40.1881 384.37,-30.7739"/>
<polygon fill="midnightblue" stroke="midnightblue" points="387.607,-29.4204 381.079,-21.0752 380.978,-31.6695 387.607,-29.4204"/>
</g>
<!-- Node7 -->
<g id="node7" class="node"><title>Node7</title>
<g id="a_node7"><a xlink:href="rexxapidefs_8h.html" target="_top" xlink:title=" ">
<polygon fill="white" stroke="black" points="436.261,-1 436.261,-21 511.739,-21 511.739,-1 436.261,-1"/>
<text text-anchor="middle" x="474" y="-7" font-family="Helvetica,sans-Serif" font-size="10.00">rexxapidefs.h</text>
</a>
</g>
</g>
<!-- Node5&#45;&gt;Node7 -->
<g id="edge6" class="edge"><title>Node5&#45;&gt;Node7</title>
<path fill="none" stroke="midnightblue" d="M409.715,-58.7527C421.488,-50.1903 439.216,-37.2978 453.074,-27.2186"/>
<polygon fill="midnightblue" stroke="midnightblue" points="455.493,-29.7875 461.522,-21.0752 451.376,-24.1264 455.493,-29.7875"/>
</g>
<!-- Node8 -->
<g id="node8" class="node"><title>Node8</title>
<g id="a_node8"><a xlink:title=" ">
<polygon fill="white" stroke="#bfbfbf" points="529.872,-1 529.872,-21 628.128,-21 628.128,-1 529.872,-1"/>
<text text-anchor="middle" x="579" y="-7" font-family="Helvetica,sans-Serif" font-size="10.00">rexxplatformdefs.h</text>
</a>
</g>
</g>
<!-- Node5&#45;&gt;Node8 -->
<g id="edge7" class="edge"><title>Node5&#45;&gt;Node8</title>
<path fill="none" stroke="midnightblue" d="M418.666,-60.9612C421.795,-59.9591 424.978,-58.9476 428,-58 465.589,-46.2125 508.576,-33.1587 539.046,-23.9775"/>
<polygon fill="midnightblue" stroke="midnightblue" points="540.306,-27.2532 548.873,-21.0197 538.289,-20.5502 540.306,-27.2532"/>
</g>
<!-- Node9 -->
<g id="node9" class="node"><title>Node9</title>
<g id="a_node9"><a xlink:title=" ">
<polygon fill="white" stroke="#bfbfbf" points="222.15,-1 222.15,-21 319.85,-21 319.85,-1 222.15,-1"/>
<text text-anchor="middle" x="271" y="-7" font-family="Helvetica,sans-Serif" font-size="10.00">rexxplatformapis.h</text>
</a>
</g>
</g>
<!-- Node5&#45;&gt;Node9 -->
<g id="edge8" class="edge"><title>Node5&#45;&gt;Node9</title>
<path fill="none" stroke="midnightblue" d="M376.475,-58.878C355.974,-49.7661 324.239,-35.6617 300.931,-25.3028"/>
<polygon fill="midnightblue" stroke="midnightblue" points="302.075,-21.9812 291.516,-21.1181 299.232,-28.3779 302.075,-21.9812"/>
</g>
<!-- Node11 -->
<g id="node11" class="node"><title>Node11</title>
<g id="a_node11"><a xlink:title=" ">
<polygon fill="white" stroke="#bfbfbf" points="137.604,-1 137.604,-21 186.396,-21 186.396,-1 137.604,-1"/>
<text text-anchor="middle" x="162" y="-7" font-family="Helvetica,sans-Serif" font-size="10.00">string.h</text>
</a>
</g>
</g>
<!-- Node10&#45;&gt;Node11 -->
<g id="edge10" class="edge"><title>Node10&#45;&gt;Node11</title>
<path fill="none" stroke="midnightblue" d="M162,-58.7527C162,-51.2504 162,-40.4238 162,-31.0781"/>
<polygon fill="midnightblue" stroke="midnightblue" points="165.5,-31.0752 162,-21.0752 158.5,-31.0752 165.5,-31.0752"/>
</g>
<!-- Node14&#45;&gt;Node4 -->
<g id="edge14" class="edge"><title>Node14&#45;&gt;Node4</title>
<path fill="none" stroke="midnightblue" d="M131.514,-232.742C135.089,-219.639 141.887,-194.945 148,-174 150.602,-165.085 153.586,-155.231 156.129,-146.938"/>
<polygon fill="midnightblue" stroke="midnightblue" points="159.547,-147.733 159.149,-137.146 152.858,-145.67 159.547,-147.733"/>
</g>
<!-- Node14&#45;&gt;Node15 -->
<g id="edge15" class="edge"><title>Node14&#45;&gt;Node15</title>
<path fill="none" stroke="midnightblue" d="M164.022,-232.878C200.989,-223.249 259.359,-208.046 299.548,-197.578"/>
<polygon fill="midnightblue" stroke="midnightblue" points="300.554,-200.933 309.349,-195.025 298.79,-194.159 300.554,-200.933"/>
</g>
<!-- Node16&#45;&gt;Node15 -->
<g id="edge17" class="edge"><title>Node16&#45;&gt;Node15</title>
<path fill="none" stroke="midnightblue" d="M420.808,-232.753C406.339,-223.946 384.345,-210.558 367.594,-200.362"/>
<polygon fill="midnightblue" stroke="midnightblue" points="369.271,-197.285 358.909,-195.075 365.631,-203.264 369.271,-197.285"/>
</g>
<!-- Node17 -->
<g id="node17" class="node"><title>Node17</title>
<g id="a_node17"><a xlink:href="_registration_table_8hpp.html" target="_top" xlink:title=" ">
<polygon fill="white" stroke="black" points="413.636,-175 413.636,-195 526.364,-195 526.364,-175 413.636,-175"/>
<text text-anchor="middle" x="470" y="-181" font-family="Helvetica,sans-Serif" font-size="10.00">RegistrationTable.hpp</text>
</a>
</g>
</g>
<!-- Node16&#45;&gt;Node17 -->
<g id="edge18" class="edge"><title>Node16&#45;&gt;Node17</title>
<path fill="none" stroke="midnightblue" d="M441.614,-232.753C446.367,-224.924 453.318,-213.476 459.152,-203.868"/>
<polygon fill="midnightblue" stroke="midnightblue" points="462.292,-205.44 464.49,-195.075 456.308,-201.807 462.292,-205.44"/>
</g>
<!-- Node17&#45;&gt;Node5 -->
<g id="edge19" class="edge"><title>Node17&#45;&gt;Node5</title>
<path fill="none" stroke="midnightblue" d="M459.744,-174.941C450.309,-166.2 436.397,-152.231 427,-138 416.801,-122.555 408.613,-103.07 403.384,-88.9209"/>
<polygon fill="midnightblue" stroke="midnightblue" points="406.614,-87.5558 399.978,-79.2964 400.015,-89.8912 406.614,-87.5558"/>
</g>
<!-- Node17&#45;&gt;Node4 -->
<g id="edge20" class="edge"><title>Node17&#45;&gt;Node4</title>
<path fill="none" stroke="midnightblue" d="M420.172,-174.94C365.966,-165.085 279.343,-149.335 221.58,-138.833"/>
<polygon fill="midnightblue" stroke="midnightblue" points="221.966,-135.346 211.501,-137 220.714,-142.233 221.966,-135.346"/>
</g>
<!-- Node18 -->
<g id="node18" class="node"><title>Node18</title>
<g id="a_node18"><a xlink:href="_utilities_8hpp.html" target="_top" xlink:title=" ">
<polygon fill="white" stroke="black" points="436.155,-117 436.155,-137 503.845,-137 503.845,-117 436.155,-117"/>
<text text-anchor="middle" x="470" y="-123" font-family="Helvetica,sans-Serif" font-size="10.00">Utilities.hpp</text>
</a>
</g>
</g>
<!-- Node17&#45;&gt;Node18 -->
<g id="edge21" class="edge"><title>Node17&#45;&gt;Node18</title>
<path fill="none" stroke="midnightblue" d="M470,-174.753C470,-167.25 470,-156.424 470,-147.078"/>
<polygon fill="midnightblue" stroke="midnightblue" points="473.5,-147.075 470,-137.075 466.5,-147.075 473.5,-147.075"/>
</g>
<!-- Node18&#45;&gt;Node5 -->
<g id="edge22" class="edge"><title>Node18&#45;&gt;Node5</title>
<path fill="none" stroke="midnightblue" d="M457.946,-116.753C446.784,-108.19 429.977,-95.2978 416.839,-85.2186"/>
<polygon fill="midnightblue" stroke="midnightblue" points="418.895,-82.3848 408.83,-79.0752 414.634,-87.9388 418.895,-82.3848"/>
</g>
<!-- Node19 -->
<g id="node19" class="node"><title>Node19</title>
<g id="a_node19"><a xlink:title=" ">
<polygon fill="white" stroke="#bfbfbf" points="436.99,-59 436.99,-79 503.01,-79 503.01,-59 436.99,-59"/>
<text text-anchor="middle" x="470" y="-65" font-family="Helvetica,sans-Serif" font-size="10.00">sys/types.h</text>
</a>
</g>
</g>
<!-- Node18&#45;&gt;Node19 -->
<g id="edge23" class="edge"><title>Node18&#45;&gt;Node19</title>
<path fill="none" stroke="midnightblue" d="M470,-116.753C470,-109.25 470,-98.4238 470,-89.0781"/>
<polygon fill="midnightblue" stroke="midnightblue" points="473.5,-89.0752 470,-79.0752 466.5,-89.0752 473.5,-89.0752"/>
</g>
<!-- Node20 -->
<g id="node20" class="node"><title>Node20</title>
<g id="a_node20"><a xlink:title=" ">
<polygon fill="white" stroke="#bfbfbf" points="520.934,-59 520.934,-79 573.066,-79 573.066,-59 520.934,-59"/>
<text text-anchor="middle" x="547" y="-65" font-family="Helvetica,sans-Serif" font-size="10.00">stdarg.h</text>
</a>
</g>
</g>
<!-- Node18&#45;&gt;Node20 -->
<g id="edge24" class="edge"><title>Node18&#45;&gt;Node20</title>
<path fill="none" stroke="midnightblue" d="M482.715,-116.753C494.488,-108.19 512.216,-95.2978 526.074,-85.2186"/>
<polygon fill="midnightblue" stroke="midnightblue" points="528.493,-87.7875 534.522,-79.0752 524.376,-82.1264 528.493,-87.7875"/>
</g>
<!-- Node21&#45;&gt;Node4 -->
<g id="edge26" class="edge"><title>Node21&#45;&gt;Node4</title>
<path fill="none" stroke="midnightblue" d="M235.939,-232.903C217.778,-225.64 194.991,-213.711 181,-196 169.98,-182.05 165.348,-162.081 163.403,-147.391"/>
<polygon fill="midnightblue" stroke="midnightblue" points="166.878,-146.964 162.378,-137.373 159.914,-147.677 166.878,-146.964"/>
</g>
<!-- Node21&#45;&gt;Node15 -->
<g id="edge27" class="edge"><title>Node21&#45;&gt;Node15</title>
<path fill="none" stroke="midnightblue" d="M277.21,-232.753C289.559,-224.109 308.212,-211.052 322.669,-200.931"/>
<polygon fill="midnightblue" stroke="midnightblue" points="324.85,-203.677 331.035,-195.075 320.836,-197.943 324.85,-203.677"/>
</g>
<!-- Node22 -->
<g id="node22" class="node"><title>Node22</title>
<g id="a_node22"><a xlink:title=" ">
<polygon fill="white" stroke="#bfbfbf" points="190.091,-175 190.091,-195 273.909,-195 273.909,-175 190.091,-175"/>
<text text-anchor="middle" x="232" y="-181" font-family="Helvetica,sans-Serif" font-size="10.00">SysThread.hpp</text>
</a>
</g>
</g>
<!-- Node21&#45;&gt;Node22 -->
<g id="edge28" class="edge"><title>Node21&#45;&gt;Node22</title>
<path fill="none" stroke="midnightblue" d="M258.716,-232.753C254.242,-224.924 247.701,-213.476 242.21,-203.868"/>
<polygon fill="midnightblue" stroke="midnightblue" points="245.186,-202.021 237.186,-195.075 239.108,-205.494 245.186,-202.021"/>
</g>
</g>
</svg>
        <g id="navigator" transform="translate(0 0)" fill="#404254">
                <rect fill="#f2f5e9" fill-opacity="0.5" stroke="#606060" stroke-width=".5" x="0" y="0" width="60" height="60"/>
                <use id="zoomplus" xlink:href="#zoomPlus" x="17" y="9" onmousedown="handleZoom(evt,'in')"/>
                <use id="zoomminus" xlink:href="#zoomMin" x="42" y="9" onmousedown="handleZoom(evt,'out')"/>
                <use id="reset" xlink:href="#resetDef" x="30" y="36" onmousedown="handleReset()"/>
                <g id="arrowUp" xlink:href="#dirArrow" transform="translate(30 24)" onmousedown="handlePan(0,-1)">
                  <use xlink:href="#rim" fill="#404040">
                        <set attributeName="fill" to="#808080" begin="arrowUp.mouseover" end="arrowUp.mouseout"/>
                  </use>
                  <path fill="none" stroke="white" stroke-width="1.5" d="M0,-3.0v7 M-2.5,-0.5L0,-3.0L2.5,-0.5"/>
                </g>
                <g id="arrowRight" xlink:href="#dirArrow" transform="rotate(90) translate(36 -43)" onmousedown="handlePan(1,0)">
                  <use xlink:href="#rim" fill="#404040">
                        <set attributeName="fill" to="#808080" begin="arrowRight.mouseover" end="arrowRight.mouseout"/>
                  </use>
                  <path fill="none" stroke="white" stroke-width="1.5" d="M0,-3.0v7 M-2.5,-0.5L0,-3.0L2.5,-0.5"/>
                </g>
                <g id="arrowDown" xlink:href="#dirArrow" transform="rotate(180) translate(-30 -48)" onmousedown="handlePan(0,1)">
                  <use xlink:href="#rim" fill="#404040">
                        <set attributeName="fill" to="#808080" begin="arrowDown.mouseover" end="arrowDown.mouseout"/>
                  </use>
                  <path fill="none" stroke="white" stroke-width="1.5" d="M0,-3.0v7 M-2.5,-0.5L0,-3.0L2.5,-0.5"/>
                </g>
                <g id="arrowLeft" xlink:href="#dirArrow" transform="rotate(270) translate(-36 17)" onmousedown="handlePan(-1,0)">
                  <use xlink:href="#rim" fill="#404040">
                        <set attributeName="fill" to="#808080" begin="arrowLeft.mouseover" end="arrowLeft.mouseout"/>
                  </use>
                  <path fill="none" stroke="white" stroke-width="1.5" d="M0,-3.0v7 M-2.5,-0.5L0,-3.0L2.5,-0.5"/>
                </g>
        </g>
        <svg viewBox="0 0 15 15" width="100%" height="30px" preserveAspectRatio="xMaxYMin meet">
         <g id="arrow_out" transform="scale(0.3 0.3)">
          <a xlink:href="windows_2_a_p_i_service_8cpp__incl_org.svg" target="_base">
           <rect id="button" ry="5" rx="5" y="6" x="6" height="38" width="38"
                fill="#f2f5e9" fill-opacity="0.5" stroke="#606060" stroke-width="1.0"/>
           <path id="arrow"
             d="M 11.500037,31.436501 C 11.940474,20.09759 22.043105,11.32322 32.158766,21.979434 L 37.068811,17.246167 C 37.068811,17.246167 37.088388,32 37.088388,32 L 22.160133,31.978069 C 22.160133,31.978069 26.997745,27.140456 26.997745,27.140456 C 18.528582,18.264221 13.291696,25.230495 11.500037,31.436501 z"
             style="fill:#404040;"/>
          </a>
         </g>
        </svg>
</svg>
